# MagicaVoxel @ Ephtracy

# group
o Portal_Rings

# material
mtllib AncientCosmicPortal-1-Portal_Rings.mtl
usemtl palette

# normals
vn -1 0 0
vn 1 0 0
vn 0 0 1
vn 0 0 -1
vn 0 -1 0
vn 0 1 0

# texcoords
vt 0.689453 0.5
vt 0.693359 0.5
vt 0.697266 0.5

# verts
v -1.1 1.6 -1.5
v -1.1 1.6 -1.6
v -1.1 2.4 -1.5
v -1.1 2.4 -1.6
v -1 1.4 -1.5
v -1 1.4 -1.6
v -1 1.5 -1.5
v -1 1.5 -1.6
v -1 2.4 -1.5
v -1 2.4 -1.6
v -1 2.6 -1.5
v -1 2.6 -1.6
v -0.9 2.6 -1.5
v -0.9 2.6 -1.6
v -0.9 2.7 -1.5
v -0.9 2.7 -1.6
v -0.8 2.7 -1.5
v -0.8 2.7 -1.6
v -0.8 2.8 -1.5
v -0.8 2.8 -1.6
v -0.7 1.3 -1.3
v -0.7 1.3 -1.4
v -0.7 1.4 -1.3
v -0.7 1.4 -1.4
v -0.7 2.8 -1.5
v -0.7 2.8 -1.6
v -0.7 2.9 -1.5
v -0.7 2.9 -1.6
v -0.6 1.9 -1.5
v -0.6 1.9 -1.6
v -0.6 2.3 -1.5
v -0.6 2.3 -1.6
v -0.6 2.9 -1.5
v -0.6 2.9 -1.6
v -0.6 3 -1.5
v -0.6 3 -1.6
v -0.5 1.2 -1.3
v -0.5 1.2 -1.4
v -0.5 1.3 -1.3
v -0.5 1.3 -1.4
v -0.5 1.7 -1.5
v -0.5 1.7 -1.6
v -0.5 1.8 -1.5
v -0.5 1.8 -1.6
v -0.5 2.3 -1.5
v -0.5 2.3 -1.6
v -0.5 2.4 -1.5
v -0.5 2.4 -1.6
v -0.5 2.7 -1.3
v -0.5 2.7 -1.4
v -0.5 2.8 -1.3
v -0.5 2.8 -1.4
v -0.4 2.4 -1.5
v -0.4 2.4 -1.6
v -0.4 2.5 -1.5
v -0.4 2.5 -1.6
v -0.4 3 -1.5
v -0.4 3 -1.6
v -0.4 3.1 -1.5
v -0.4 3.1 -1.6
v -0.3 1.1 -1.3
v -0.3 1.1 -1.4
v -0.3 1.2 -1.3
v -0.3 1.2 -1.4
v -0.3 2.8 -1.3
v -0.3 2.8 -1.4
v -0.3 2.9 -1.3
v -0.3 2.9 -1.4
v -0.2 2.5 -1.5
v -0.2 2.5 -1.6
v -0.2 2.6 -1.5
v -0.2 2.6 -1.6
v 0.2 1.2 -1.3
v 0.2 1.2 -1.4
v 0.2 1.3 -1.3
v 0.2 1.3 -1.4
v 0.2 2.7 -1.3
v 0.2 2.7 -1.4
v 0.2 2.8 -1.3
v 0.2 2.8 -1.4
v 0.3 1 -1.5
v 0.3 1 -1.6
v 0.3 1.1 -1.5
v 0.3 1.1 -1.6
v 0.4 1.3 -1.3
v 0.4 1.3 -1.4
v 0.4 1.4 -1.3
v 0.4 1.4 -1.4
v 0.4 2.6 -1.3
v 0.4 2.6 -1.4
v 0.4 2.7 -1.3
v 0.4 2.7 -1.4
v 0.5 1.1 -1.5
v 0.5 1.1 -1.6
v 0.5 1.2 -1.5
v 0.5 1.2 -1.6
v 0.5 1.4 -1.3
v 0.5 1.4 -1.4
v 0.5 1.5 -1.3
v 0.5 1.5 -1.4
v 0.5 2.5 -1.3
v 0.5 2.5 -1.4
v 0.5 2.6 -1.3
v 0.5 2.6 -1.4
v 0.5 2.9 -1.5
v 0.5 2.9 -1.6
v 0.5 3 -1.5
v 0.5 3 -1.6
v 0.6 1.2 -1.5
v 0.6 1.2 -1.6
v 0.6 1.3 -1.5
v 0.6 1.3 -1.6
v 0.6 1.5 -1.3
v 0.6 1.5 -1.4
v 0.6 1.7 -1.3
v 0.6 1.7 -1.4
v 0.6 2.3 -1.3
v 0.6 2.3 -1.4
v 0.6 2.5 -1.3
v 0.6 2.5 -1.4
v 0.7 1.3 -1.5
v 0.7 1.3 -1.6
v 0.7 1.4 -1.5
v 0.7 1.4 -1.6
v 0.7 1.7 -1.3
v 0.7 1.7 -1.4
v 0.7 2.3 -1.3
v 0.7 2.3 -1.4
v 0.8 1.4 -1.5
v 0.8 1.4 -1.6
v 0.8 1.5 -1.5
v 0.8 1.5 -1.6
v 0.9 1.6 -1.5
v 0.9 1.6 -1.6
v 0.9 1.7 -1.5
v 0.9 1.7 -1.6
v -1 1.6 -1.5
v -1 1.6 -1.6
v -1 2.3 -1.5
v -1 2.3 -1.6
v -0.9 1.4 -1.5
v -0.9 1.4 -1.6
v -0.9 1.5 -1.5
v -0.9 1.5 -1.6
v -0.9 2.3 -1.5
v -0.9 2.3 -1.6
v -0.9 2.5 -1.5
v -0.9 2.5 -1.6
v -0.8 2.5 -1.5
v -0.8 2.5 -1.6
v -0.8 2.6 -1.5
v -0.8 2.6 -1.6
v -0.7 2.6 -1.5
v -0.7 2.6 -1.6
v -0.7 2.7 -1.5
v -0.7 2.7 -1.6
v -0.6 1.3 -1.3
v -0.6 1.3 -1.4
v -0.6 1.4 -1.3
v -0.6 1.4 -1.4
v -0.6 2.7 -1.5
v -0.6 2.7 -1.6
v -0.6 2.8 -1.5
v -0.6 2.8 -1.6
v -0.5 1.9 -1.5
v -0.5 1.9 -1.6
v -0.5 2.2 -1.5
v -0.5 2.2 -1.6
v -0.5 2.8 -1.5
v -0.5 2.8 -1.6
v -0.5 2.9 -1.5
v -0.5 2.9 -1.6
v -0.4 1.2 -1.3
v -0.4 1.2 -1.4
v -0.4 1.3 -1.3
v -0.4 1.3 -1.4
v -0.4 1.7 -1.5
v -0.4 1.7 -1.6
v -0.4 1.8 -1.5
v -0.4 1.8 -1.6
v -0.4 2.2 -1.5
v -0.4 2.2 -1.6
v -0.4 2.3 -1.5
v -0.4 2.3 -1.6
v -0.4 2.7 -1.3
v -0.4 2.7 -1.4
v -0.4 2.8 -1.3
v -0.4 2.8 -1.4
v -0.3 2.3 -1.5
v -0.3 2.3 -1.6
v -0.3 2.4 -1.5
v -0.3 2.4 -1.6
v -0.3 2.9 -1.5
v -0.3 2.9 -1.6
v -0.3 3 -1.5
v -0.3 3 -1.6
v -0.2 2.4 -1.5
v -0.2 2.4 -1.6
v -0.2 2.5 -1.5
v -0.2 2.5 -1.6
v -0.1 2.5 -1.5
v -0.1 2.5 -1.6
v -0.1 2.6 -1.5
v -0.1 2.6 -1.6
v 0.3 1.1 -1.3
v 0.3 1.1 -1.4
v 0.3 1.2 -1.3
v 0.3 1.2 -1.4
v 0.3 2.8 -1.3
v 0.3 2.8 -1.4
v 0.3 2.9 -1.3
v 0.3 2.9 -1.4
v 0.4 1 -1.5
v 0.4 1 -1.6
v 0.4 1.1 -1.5
v 0.4 1.1 -1.6
v 0.4 3 -1.5
v 0.4 3 -1.6
v 0.4 3.1 -1.5
v 0.4 3.1 -1.6
v 0.5 1.2 -1.3
v 0.5 1.2 -1.4
v 0.5 1.3 -1.3
v 0.5 1.3 -1.4
v 0.5 2.7 -1.3
v 0.5 2.7 -1.4
v 0.5 2.8 -1.3
v 0.5 2.8 -1.4
v 0.6 1.1 -1.5
v 0.6 1.1 -1.6
v 0.6 1.2 -1.5
v 0.6 1.2 -1.6
v 0.6 2.9 -1.5
v 0.6 2.9 -1.6
v 0.6 3 -1.5
v 0.6 3 -1.6
v 0.7 1.2 -1.5
v 0.7 1.2 -1.6
v 0.7 1.3 -1.3
v 0.7 1.3 -1.4
v 0.7 1.3 -1.5
v 0.7 1.3 -1.6
v 0.7 1.5 -1.3
v 0.7 1.5 -1.4
v 0.7 2.5 -1.3
v 0.7 2.5 -1.4
v 0.7 2.7 -1.3
v 0.7 2.7 -1.4
v 0.8 1.3 -1.5
v 0.8 1.3 -1.6
v 0.8 1.4 -1.5
v 0.8 1.4 -1.6
v 0.8 1.5 -1.3
v 0.8 1.5 -1.4
v 0.8 1.7 -1.3
v 0.8 1.7 -1.4
v 0.8 2.3 -1.3
v 0.8 2.3 -1.4
v 0.8 2.5 -1.3
v 0.8 2.5 -1.4
v 0.9 1.4 -1.5
v 0.9 1.4 -1.6
v 0.9 1.5 -1.5
v 0.9 1.5 -1.6
v 0.9 1.7 -1.3
v 0.9 1.7 -1.4
v 0.9 2.3 -1.3
v 0.9 2.3 -1.4
v 1 1.6 -1.5
v 1 1.6 -1.6
v 1 1.7 -1.5
v 1 1.7 -1.6
v -0.7 1.3 -1.3
v -0.7 1.4 -1.3
v -0.6 1.3 -1.3
v -0.6 1.4 -1.3
v -0.5 1.2 -1.3
v -0.5 1.3 -1.3
v -0.5 2.7 -1.3
v -0.5 2.8 -1.3
v -0.4 1.2 -1.3
v -0.4 1.3 -1.3
v -0.4 2.7 -1.3
v -0.4 2.8 -1.3
v -0.3 1.1 -1.3
v -0.3 1.2 -1.3
v -0.3 2.8 -1.3
v -0.3 2.9 -1.3
v 0.2 1.2 -1.3
v 0.2 1.3 -1.3
v 0.2 2.7 -1.3
v 0.2 2.8 -1.3
v 0.3 1.1 -1.3
v 0.3 1.2 -1.3
v 0.3 2.8 -1.3
v 0.3 2.9 -1.3
v 0.4 1.3 -1.3
v 0.4 1.4 -1.3
v 0.4 2.6 -1.3
v 0.4 2.7 -1.3
v 0.5 1.2 -1.3
v 0.5 1.3 -1.3
v 0.5 1.4 -1.3
v 0.5 1.5 -1.3
v 0.5 2.5 -1.3
v 0.5 2.6 -1.3
v 0.5 2.7 -1.3
v 0.5 2.8 -1.3
v 0.6 1.5 -1.3
v 0.6 1.7 -1.3
v 0.6 2.3 -1.3
v 0.6 2.5 -1.3
v 0.7 1.3 -1.3
v 0.7 1.5 -1.3
v 0.7 1.7 -1.3
v 0.7 2.3 -1.3
v 0.7 2.5 -1.3
v 0.7 2.7 -1.3
v 0.8 1.5 -1.3
v 0.8 1.7 -1.3
v 0.8 2.3 -1.3
v 0.8 2.5 -1.3
v 0.9 1.7 -1.3
v 0.9 2.3 -1.3
v -1.1 1.6 -1.5
v -1.1 2.4 -1.5
v -1 1.4 -1.5
v -1 1.5 -1.5
v -1 1.6 -1.5
v -1 2.3 -1.5
v -1 2.4 -1.5
v -1 2.6 -1.5
v -0.9 1.4 -1.5
v -0.9 1.5 -1.5
v -0.9 2.3 -1.5
v -0.9 2.5 -1.5
v -0.9 2.6 -1.5
v -0.9 2.7 -1.5
v -0.8 2.5 -1.5
v -0.8 2.6 -1.5
v -0.8 2.7 -1.5
v -0.8 2.8 -1.5
v -0.7 2.6 -1.5
v -0.7 2.7 -1.5
v -0.7 2.8 -1.5
v -0.7 2.9 -1.5
v -0.6 1.9 -1.5
v -0.6 2.3 -1.5
v -0.6 2.7 -1.5
v -0.6 2.8 -1.5
v -0.6 2.9 -1.5
v -0.6 3 -1.5
v -0.5 1.7 -1.5
v -0.5 1.8 -1.5
v -0.5 1.9 -1.5
v -0.5 2.2 -1.5
v -0.5 2.3 -1.5
v -0.5 2.4 -1.5
v -0.5 2.8 -1.5
v -0.5 2.9 -1.5
v -0.4 1.7 -1.5
v -0.4 1.8 -1.5
v -0.4 2.2 -1.5
v -0.4 2.3 -1.5
v -0.4 2.4 -1.5
v -0.4 2.5 -1.5
v -0.4 3 -1.5
v -0.4 3.1 -1.5
v -0.3 2.3 -1.5
v -0.3 2.4 -1.5
v -0.3 2.9 -1.5
v -0.3 3 -1.5
v -0.2 2.4 -1.5
v -0.2 2.5 -1.5
v -0.2 2.6 -1.5
v -0.1 2.5 -1.5
v -0.1 2.6 -1.5
v 0.3 1 -1.5
v 0.3 1.1 -1.5
v 0.4 1 -1.5
v 0.4 1.1 -1.5
v 0.4 3 -1.5
v 0.4 3.1 -1.5
v 0.5 1.1 -1.5
v 0.5 1.2 -1.5
v 0.5 2.9 -1.5
v 0.5 3 -1.5
v 0.6 1.1 -1.5
v 0.6 1.2 -1.5
v 0.6 1.3 -1.5
v 0.6 2.9 -1.5
v 0.6 3 -1.5
v 0.7 1.2 -1.5
v 0.7 1.3 -1.5
v 0.7 1.4 -1.5
v 0.8 1.3 -1.5
v 0.8 1.4 -1.5
v 0.8 1.5 -1.5
v 0.9 1.4 -1.5
v 0.9 1.5 -1.5
v 0.9 1.6 -1.5
v 0.9 1.7 -1.5
v 1 1.6 -1.5
v 1 1.7 -1.5
v -0.7 1.3 -1.4
v -0.7 1.4 -1.4
v -0.6 1.3 -1.4
v -0.6 1.4 -1.4
v -0.5 1.2 -1.4
v -0.5 1.3 -1.4
v -0.5 2.7 -1.4
v -0.5 2.8 -1.4
v -0.4 1.2 -1.4
v -0.4 1.3 -1.4
v -0.4 2.7 -1.4
v -0.4 2.8 -1.4
v -0.3 1.1 -1.4
v -0.3 1.2 -1.4
v -0.3 2.8 -1.4
v -0.3 2.9 -1.4
v 0.2 1.2 -1.4
v 0.2 1.3 -1.4
v 0.2 2.7 -1.4
v 0.2 2.8 -1.4
v 0.3 1.1 -1.4
v 0.3 1.2 -1.4
v 0.3 2.8 -1.4
v 0.3 2.9 -1.4
v 0.4 1.3 -1.4
v 0.4 1.4 -1.4
v 0.4 2.6 -1.4
v 0.4 2.7 -1.4
v 0.5 1.2 -1.4
v 0.5 1.3 -1.4
v 0.5 1.4 -1.4
v 0.5 1.5 -1.4
v 0.5 2.5 -1.4
v 0.5 2.6 -1.4
v 0.5 2.7 -1.4
v 0.5 2.8 -1.4
v 0.6 1.5 -1.4
v 0.6 1.7 -1.4
v 0.6 2.3 -1.4
v 0.6 2.5 -1.4
v 0.7 1.3 -1.4
v 0.7 1.5 -1.4
v 0.7 1.7 -1.4
v 0.7 2.3 -1.4
v 0.7 2.5 -1.4
v 0.7 2.7 -1.4
v 0.8 1.5 -1.4
v 0.8 1.7 -1.4
v 0.8 2.3 -1.4
v 0.8 2.5 -1.4
v 0.9 1.7 -1.4
v 0.9 2.3 -1.4
v -1.1 1.6 -1.6
v -1.1 2.4 -1.6
v -1 1.4 -1.6
v -1 1.5 -1.6
v -1 1.6 -1.6
v -1 2.3 -1.6
v -1 2.4 -1.6
v -1 2.6 -1.6
v -0.9 1.4 -1.6
v -0.9 1.5 -1.6
v -0.9 2.3 -1.6
v -0.9 2.5 -1.6
v -0.9 2.6 -1.6
v -0.9 2.7 -1.6
v -0.8 2.5 -1.6
v -0.8 2.6 -1.6
v -0.8 2.7 -1.6
v -0.8 2.8 -1.6
v -0.7 2.6 -1.6
v -0.7 2.7 -1.6
v -0.7 2.8 -1.6
v -0.7 2.9 -1.6
v -0.6 1.9 -1.6
v -0.6 2.3 -1.6
v -0.6 2.7 -1.6
v -0.6 2.8 -1.6
v -0.6 2.9 -1.6
v -0.6 3 -1.6
v -0.5 1.7 -1.6
v -0.5 1.8 -1.6
v -0.5 1.9 -1.6
v -0.5 2.2 -1.6
v -0.5 2.3 -1.6
v -0.5 2.4 -1.6
v -0.5 2.8 -1.6
v -0.5 2.9 -1.6
v -0.4 1.7 -1.6
v -0.4 1.8 -1.6
v -0.4 2.2 -1.6
v -0.4 2.3 -1.6
v -0.4 2.4 -1.6
v -0.4 2.5 -1.6
v -0.4 3 -1.6
v -0.4 3.1 -1.6
v -0.3 2.3 -1.6
v -0.3 2.4 -1.6
v -0.3 2.9 -1.6
v -0.3 3 -1.6
v -0.2 2.4 -1.6
v -0.2 2.5 -1.6
v -0.2 2.6 -1.6
v -0.1 2.5 -1.6
v -0.1 2.6 -1.6
v 0.3 1 -1.6
v 0.3 1.1 -1.6
v 0.4 1 -1.6
v 0.4 1.1 -1.6
v 0.4 3 -1.6
v 0.4 3.1 -1.6
v 0.5 1.1 -1.6
v 0.5 1.2 -1.6
v 0.5 2.9 -1.6
v 0.5 3 -1.6
v 0.6 1.1 -1.6
v 0.6 1.2 -1.6
v 0.6 1.3 -1.6
v 0.6 2.9 -1.6
v 0.6 3 -1.6
v 0.7 1.2 -1.6
v 0.7 1.3 -1.6
v 0.7 1.4 -1.6
v 0.8 1.3 -1.6
v 0.8 1.4 -1.6
v 0.8 1.5 -1.6
v 0.9 1.4 -1.6
v 0.9 1.5 -1.6
v 0.9 1.6 -1.6
v 0.9 1.7 -1.6
v 1 1.6 -1.6
v 1 1.7 -1.6
v 0.3 1 -1.5
v 0.4 1 -1.5
v 0.3 1 -1.6
v 0.4 1 -1.6
v -0.3 1.1 -1.3
v 0.3 1.1 -1.3
v -0.3 1.1 -1.4
v 0.3 1.1 -1.4
v 0.5 1.1 -1.5
v 0.6 1.1 -1.5
v 0.5 1.1 -1.6
v 0.6 1.1 -1.6
v -0.5 1.2 -1.3
v -0.4 1.2 -1.3
v 0.3 1.2 -1.3
v 0.5 1.2 -1.3
v -0.5 1.2 -1.4
v -0.4 1.2 -1.4
v 0.3 1.2 -1.4
v 0.5 1.2 -1.4
v 0.6 1.2 -1.5
v 0.7 1.2 -1.5
v 0.6 1.2 -1.6
v 0.7 1.2 -1.6
v -0.7 1.3 -1.3
v -0.6 1.3 -1.3
v 0.5 1.3 -1.3
v 0.7 1.3 -1.3
v -0.7 1.3 -1.4
v -0.6 1.3 -1.4
v 0.5 1.3 -1.4
v 0.7 1.3 -1.4
v 0.7 1.3 -1.5
v 0.8 1.3 -1.5
v 0.7 1.3 -1.6
v 0.8 1.3 -1.6
v -1 1.4 -1.5
v -0.9 1.4 -1.5
v 0.8 1.4 -1.5
v 0.9 1.4 -1.5
v -1 1.4 -1.6
v -0.9 1.4 -1.6
v 0.8 1.4 -1.6
v 0.9 1.4 -1.6
v 0.7 1.5 -1.3
v 0.8 1.5 -1.3
v 0.7 1.5 -1.4
v 0.8 1.5 -1.4
v -1.1 1.6 -1.5
v -1 1.6 -1.5
v 0.9 1.6 -1.5
v 1 1.6 -1.5
v -1.1 1.6 -1.6
v -1 1.6 -1.6
v 0.9 1.6 -1.6
v 1 1.6 -1.6
v 0.8 1.7 -1.3
v 0.9 1.7 -1.3
v 0.8 1.7 -1.4
v 0.9 1.7 -1.4
v -0.5 1.7 -1.5
v -0.4 1.7 -1.5
v -0.5 1.7 -1.6
v -0.4 1.7 -1.6
v -0.6 1.9 -1.5
v -0.5 1.9 -1.5
v -0.6 1.9 -1.6
v -0.5 1.9 -1.6
v -0.5 2.2 -1.5
v -0.4 2.2 -1.5
v -0.5 2.2 -1.6
v -0.4 2.2 -1.6
v 0.6 2.3 -1.3
v 0.7 2.3 -1.3
v 0.6 2.3 -1.4
v 0.7 2.3 -1.4
v -1 2.3 -1.5
v -0.9 2.3 -1.5
v -0.4 2.3 -1.5
v -0.3 2.3 -1.5
v -1 2.3 -1.6
v -0.9 2.3 -1.6
v -0.4 2.3 -1.6
v -0.3 2.3 -1.6
v -0.3 2.4 -1.5
v -0.2 2.4 -1.5
v -0.3 2.4 -1.6
v -0.2 2.4 -1.6
v 0.5 2.5 -1.3
v 0.6 2.5 -1.3
v 0.5 2.5 -1.4
v 0.6 2.5 -1.4
v -0.9 2.5 -1.5
v -0.8 2.5 -1.5
v -0.2 2.5 -1.5
v -0.1 2.5 -1.5
v -0.9 2.5 -1.6
v -0.8 2.5 -1.6
v -0.2 2.5 -1.6
v -0.1 2.5 -1.6
v 0.4 2.6 -1.3
v 0.5 2.6 -1.3
v 0.4 2.6 -1.4
v 0.5 2.6 -1.4
v -0.8 2.6 -1.5
v -0.7 2.6 -1.5
v -0.8 2.6 -1.6
v -0.7 2.6 -1.6
v -0.5 2.7 -1.3
v -0.4 2.7 -1.3
v 0.2 2.7 -1.3
v 0.4 2.7 -1.3
v -0.5 2.7 -1.4
v -0.4 2.7 -1.4
v 0.2 2.7 -1.4
v 0.4 2.7 -1.4
v -0.7 2.7 -1.5
v -0.6 2.7 -1.5
v -0.7 2.7 -1.6
v -0.6 2.7 -1.6
v -0.3 2.8 -1.3
v 0.2 2.8 -1.3
v -0.3 2.8 -1.4
v 0.2 2.8 -1.4
v -0.6 2.8 -1.5
v -0.5 2.8 -1.5
v -0.6 2.8 -1.6
v -0.5 2.8 -1.6
v -0.5 2.9 -1.5
v -0.3 2.9 -1.5
v 0.5 2.9 -1.5
v 0.6 2.9 -1.5
v -0.5 2.9 -1.6
v -0.3 2.9 -1.6
v 0.5 2.9 -1.6
v 0.6 2.9 -1.6
v -0.3 3 -1.5
v 0.4 3 -1.5
v -0.3 3 -1.6
v 0.4 3 -1.6
v 0.3 1.1 -1.5
v 0.4 1.1 -1.5
v 0.3 1.1 -1.6
v 0.4 1.1 -1.6
v -0.3 1.2 -1.3
v 0.2 1.2 -1.3
v -0.3 1.2 -1.4
v 0.2 1.2 -1.4
v 0.5 1.2 -1.5
v 0.6 1.2 -1.5
v 0.5 1.2 -1.6
v 0.6 1.2 -1.6
v -0.5 1.3 -1.3
v -0.4 1.3 -1.3
v 0.2 1.3 -1.3
v 0.4 1.3 -1.3
v -0.5 1.3 -1.4
v -0.4 1.3 -1.4
v 0.2 1.3 -1.4
v 0.4 1.3 -1.4
v 0.6 1.3 -1.5
v 0.7 1.3 -1.5
v 0.6 1.3 -1.6
v 0.7 1.3 -1.6
v -0.7 1.4 -1.3
v -0.6 1.4 -1.3
v 0.4 1.4 -1.3
v 0.5 1.4 -1.3
v -0.7 1.4 -1.4
v -0.6 1.4 -1.4
v 0.4 1.4 -1.4
v 0.5 1.4 -1.4
v 0.7 1.4 -1.5
v 0.8 1.4 -1.5
v 0.7 1.4 -1.6
v 0.8 1.4 -1.6
v 0.5 1.5 -1.3
v 0.6 1.5 -1.3
v 0.5 1.5 -1.4
v 0.6 1.5 -1.4
v -1 1.5 -1.5
v -0.9 1.5 -1.5
v 0.8 1.5 -1.5
v 0.9 1.5 -1.5
v -1 1.5 -1.6
v -0.9 1.5 -1.6
v 0.8 1.5 -1.6
v 0.9 1.5 -1.6
v 0.6 1.7 -1.3
v 0.7 1.7 -1.3
v 0.6 1.7 -1.4
v 0.7 1.7 -1.4
v 0.9 1.7 -1.5
v 1 1.7 -1.5
v 0.9 1.7 -1.6
v 1 1.7 -1.6
v -0.5 1.8 -1.5
v -0.4 1.8 -1.5
v -0.5 1.8 -1.6
v -0.4 1.8 -1.6
v 0.8 2.3 -1.3
v 0.9 2.3 -1.3
v 0.8 2.3 -1.4
v 0.9 2.3 -1.4
v -0.6 2.3 -1.5
v -0.5 2.3 -1.5
v -0.6 2.3 -1.6
v -0.5 2.3 -1.6
v -1.1 2.4 -1.5
v -1 2.4 -1.5
v -0.5 2.4 -1.5
v -0.4 2.4 -1.5
v -1.1 2.4 -1.6
v -1 2.4 -1.6
v -0.5 2.4 -1.6
v -0.4 2.4 -1.6
v 0.7 2.5 -1.3
v 0.8 2.5 -1.3
v 0.7 2.5 -1.4
v 0.8 2.5 -1.4
v -0.4 2.5 -1.5
v -0.2 2.5 -1.5
v -0.4 2.5 -1.6
v -0.2 2.5 -1.6
v -1 2.6 -1.5
v -0.9 2.6 -1.5
v -0.2 2.6 -1.5
v -0.1 2.6 -1.5
v -1 2.6 -1.6
v -0.9 2.6 -1.6
v -0.2 2.6 -1.6
v -0.1 2.6 -1.6
v 0.5 2.7 -1.3
v 0.7 2.7 -1.3
v 0.5 2.7 -1.4
v 0.7 2.7 -1.4
v -0.9 2.7 -1.5
v -0.8 2.7 -1.5
v -0.9 2.7 -1.6
v -0.8 2.7 -1.6
v -0.5 2.8 -1.3
v -0.4 2.8 -1.3
v 0.3 2.8 -1.3
v 0.5 2.8 -1.3
v -0.5 2.8 -1.4
v -0.4 2.8 -1.4
v 0.3 2.8 -1.4
v 0.5 2.8 -1.4
v -0.8 2.8 -1.5
v -0.7 2.8 -1.5
v -0.8 2.8 -1.6
v -0.7 2.8 -1.6
v -0.3 2.9 -1.3
v 0.3 2.9 -1.3
v -0.3 2.9 -1.4
v 0.3 2.9 -1.4
v -0.7 2.9 -1.5
v -0.6 2.9 -1.5
v -0.7 2.9 -1.6
v -0.6 2.9 -1.6
v -0.6 3 -1.5
v -0.4 3 -1.5
v 0.5 3 -1.5
v 0.6 3 -1.5
v -0.6 3 -1.6
v -0.4 3 -1.6
v 0.5 3 -1.6
v 0.6 3 -1.6
v -0.4 3.1 -1.5
v 0.4 3.1 -1.5
v -0.4 3.1 -1.6
v 0.4 3.1 -1.6

# faces
f 3/1/1 2/1/1 1/1/1
f 4/1/1 2/1/1 3/1/1
f 7/1/1 6/1/1 5/1/1
f 8/1/1 6/1/1 7/1/1
f 11/1/1 10/1/1 9/1/1
f 12/1/1 10/1/1 11/1/1
f 15/1/1 14/1/1 13/1/1
f 16/1/1 14/1/1 15/1/1
f 19/1/1 18/1/1 17/1/1
f 20/1/1 18/1/1 19/1/1
f 23/2/1 22/2/1 21/2/1
f 24/2/1 22/2/1 23/2/1
f 27/1/1 26/1/1 25/1/1
f 28/1/1 26/1/1 27/1/1
f 31/3/1 30/3/1 29/3/1
f 32/3/1 30/3/1 31/3/1
f 35/1/1 34/1/1 33/1/1
f 36/1/1 34/1/1 35/1/1
f 39/2/1 38/2/1 37/2/1
f 40/2/1 38/2/1 39/2/1
f 43/3/1 42/3/1 41/3/1
f 44/3/1 42/3/1 43/3/1
f 47/3/1 46/3/1 45/3/1
f 48/3/1 46/3/1 47/3/1
f 51/2/1 50/2/1 49/2/1
f 52/2/1 50/2/1 51/2/1
f 55/3/1 54/3/1 53/3/1
f 56/3/1 54/3/1 55/3/1
f 59/1/1 58/1/1 57/1/1
f 60/1/1 58/1/1 59/1/1
f 63/2/1 62/2/1 61/2/1
f 64/2/1 62/2/1 63/2/1
f 67/2/1 66/2/1 65/2/1
f 68/2/1 66/2/1 67/2/1
f 71/3/1 70/3/1 69/3/1
f 72/3/1 70/3/1 71/3/1
f 75/2/1 74/2/1 73/2/1
f 76/2/1 74/2/1 75/2/1
f 79/2/1 78/2/1 77/2/1
f 80/2/1 78/2/1 79/2/1
f 83/1/1 82/1/1 81/1/1
f 84/1/1 82/1/1 83/1/1
f 87/2/1 86/2/1 85/2/1
f 88/2/1 86/2/1 87/2/1
f 91/2/1 90/2/1 89/2/1
f 92/2/1 90/2/1 91/2/1
f 95/1/1 94/1/1 93/1/1
f 96/1/1 94/1/1 95/1/1
f 99/2/1 98/2/1 97/2/1
f 100/2/1 98/2/1 99/2/1
f 103/2/1 102/2/1 101/2/1
f 104/2/1 102/2/1 103/2/1
f 107/1/1 106/1/1 105/1/1
f 108/1/1 106/1/1 107/1/1
f 111/1/1 110/1/1 109/1/1
f 112/1/1 110/1/1 111/1/1
f 115/2/1 114/2/1 113/2/1
f 116/2/1 114/2/1 115/2/1
f 119/2/1 118/2/1 117/2/1
f 120/2/1 118/2/1 119/2/1
f 123/1/1 122/1/1 121/1/1
f 124/1/1 122/1/1 123/1/1
f 127/2/1 126/2/1 125/2/1
f 128/2/1 126/2/1 127/2/1
f 131/1/1 130/1/1 129/1/1
f 132/1/1 130/1/1 131/1/1
f 135/1/1 134/1/1 133/1/1
f 136/1/1 134/1/1 135/1/1
f 137/1/2 138/1/2 139/1/2
f 139/1/2 138/1/2 140/1/2
f 141/1/2 142/1/2 143/1/2
f 143/1/2 142/1/2 144/1/2
f 145/1/2 146/1/2 147/1/2
f 147/1/2 146/1/2 148/1/2
f 149/1/2 150/1/2 151/1/2
f 151/1/2 150/1/2 152/1/2
f 153/1/2 154/1/2 155/1/2
f 155/1/2 154/1/2 156/1/2
f 157/2/2 158/2/2 159/2/2
f 159/2/2 158/2/2 160/2/2
f 161/1/2 162/1/2 163/1/2
f 163/1/2 162/1/2 164/1/2
f 165/3/2 166/3/2 167/3/2
f 167/3/2 166/3/2 168/3/2
f 169/1/2 170/1/2 171/1/2
f 171/1/2 170/1/2 172/1/2
f 173/2/2 174/2/2 175/2/2
f 175/2/2 174/2/2 176/2/2
f 177/3/2 178/3/2 179/3/2
f 179/3/2 178/3/2 180/3/2
f 181/3/2 182/3/2 183/3/2
f 183/3/2 182/3/2 184/3/2
f 185/2/2 186/2/2 187/2/2
f 187/2/2 186/2/2 188/2/2
f 189/3/2 190/3/2 191/3/2
f 191/3/2 190/3/2 192/3/2
f 193/1/2 194/1/2 195/1/2
f 195/1/2 194/1/2 196/1/2
f 197/3/2 198/3/2 199/3/2
f 199/3/2 198/3/2 200/3/2
f 201/3/2 202/3/2 203/3/2
f 203/3/2 202/3/2 204/3/2
f 205/2/2 206/2/2 207/2/2
f 207/2/2 206/2/2 208/2/2
f 209/2/2 210/2/2 211/2/2
f 211/2/2 210/2/2 212/2/2
f 213/1/2 214/1/2 215/1/2
f 215/1/2 214/1/2 216/1/2
f 217/1/2 218/1/2 219/1/2
f 219/1/2 218/1/2 220/1/2
f 221/2/2 222/2/2 223/2/2
f 223/2/2 222/2/2 224/2/2
f 225/2/2 226/2/2 227/2/2
f 227/2/2 226/2/2 228/2/2
f 229/1/2 230/1/2 231/1/2
f 231/1/2 230/1/2 232/1/2
f 233/1/2 234/1/2 235/1/2
f 235/1/2 234/1/2 236/1/2
f 237/1/2 238/1/2 241/1/2
f 241/1/2 238/1/2 242/1/2
f 239/2/2 240/2/2 243/2/2
f 243/2/2 240/2/2 244/2/2
f 245/2/2 246/2/2 247/2/2
f 247/2/2 246/2/2 248/2/2
f 249/1/2 250/1/2 251/1/2
f 251/1/2 250/1/2 252/1/2
f 253/2/2 254/2/2 255/2/2
f 255/2/2 254/2/2 256/2/2
f 257/2/2 258/2/2 259/2/2
f 259/2/2 258/2/2 260/2/2
f 261/1/2 262/1/2 263/1/2
f 263/1/2 262/1/2 264/1/2
f 265/2/2 266/2/2 267/2/2
f 267/2/2 266/2/2 268/2/2
f 269/1/2 270/1/2 271/1/2
f 271/1/2 270/1/2 272/1/2
f 275/2/3 274/2/3 273/2/3
f 276/2/3 274/2/3 275/2/3
f 281/2/3 278/2/3 277/2/3
f 282/2/3 278/2/3 281/2/3
f 283/2/3 280/2/3 279/2/3
f 284/2/3 280/2/3 283/2/3
f 289/2/3 286/2/3 285/2/3
f 292/2/3 288/2/3 287/2/3
f 293/2/3 290/2/3 289/2/3
f 293/2/3 289/2/3 285/2/3
f 294/2/3 290/2/3 293/2/3
f 295/2/3 292/2/3 291/2/3
f 295/2/3 288/2/3 292/2/3
f 296/2/3 288/2/3 295/2/3
f 297/2/3 290/2/3 294/2/3
f 300/2/3 295/2/3 291/2/3
f 301/2/3 298/2/3 297/2/3
f 301/2/3 297/2/3 294/2/3
f 302/2/3 298/2/3 301/2/3
f 303/2/3 298/2/3 302/2/3
f 306/2/3 300/2/3 299/2/3
f 307/2/3 295/2/3 300/2/3
f 307/2/3 300/2/3 306/2/3
f 308/2/3 295/2/3 307/2/3
f 309/2/3 304/2/3 303/2/3
f 309/2/3 303/2/3 302/2/3
f 312/2/3 306/2/3 305/2/3
f 312/2/3 307/2/3 306/2/3
f 313/2/3 310/2/3 309/2/3
f 313/2/3 309/2/3 302/2/3
f 314/2/3 310/2/3 313/2/3
f 315/2/3 310/2/3 314/2/3
f 316/2/3 312/2/3 311/2/3
f 317/2/3 307/2/3 312/2/3
f 317/2/3 312/2/3 316/2/3
f 318/2/3 307/2/3 317/2/3
f 319/2/3 315/2/3 314/2/3
f 319/2/3 316/2/3 315/2/3
f 319/2/3 317/2/3 316/2/3
f 320/2/3 317/2/3 319/2/3
f 321/2/3 317/2/3 320/2/3
f 322/2/3 317/2/3 321/2/3
f 323/2/3 321/2/3 320/2/3
f 324/2/3 321/2/3 323/2/3
f 329/1/3 326/1/3 325/1/3
f 330/1/3 326/1/3 329/1/3
f 331/1/3 326/1/3 330/1/3
f 333/1/3 328/1/3 327/1/3
f 334/1/3 328/1/3 333/1/3
f 335/1/3 332/1/3 331/1/3
f 335/1/3 331/1/3 330/1/3
f 336/1/3 332/1/3 335/1/3
f 337/1/3 332/1/3 336/1/3
f 339/1/3 338/1/3 337/1/3
f 339/1/3 337/1/3 336/1/3
f 340/1/3 338/1/3 339/1/3
f 341/1/3 338/1/3 340/1/3
f 343/1/3 342/1/3 341/1/3
f 343/1/3 341/1/3 340/1/3
f 344/1/3 342/1/3 343/1/3
f 345/1/3 342/1/3 344/1/3
f 349/1/3 346/1/3 345/1/3
f 349/1/3 345/1/3 344/1/3
f 350/1/3 346/1/3 349/1/3
f 351/1/3 346/1/3 350/1/3
f 355/3/3 348/3/3 347/3/3
f 356/3/3 348/3/3 355/3/3
f 357/3/3 348/3/3 356/3/3
f 359/1/3 352/1/3 351/1/3
f 359/1/3 351/1/3 350/1/3
f 360/1/3 352/1/3 359/1/3
f 361/3/3 354/3/3 353/3/3
f 362/3/3 354/3/3 361/3/3
f 363/3/3 358/3/3 357/3/3
f 363/3/3 357/3/3 356/3/3
f 364/3/3 358/3/3 363/3/3
f 365/3/3 358/3/3 364/3/3
f 367/1/3 352/1/3 360/1/3
f 369/3/3 366/3/3 365/3/3
f 369/3/3 365/3/3 364/3/3
f 370/3/3 366/3/3 369/3/3
f 371/1/3 368/1/3 367/1/3
f 371/1/3 367/1/3 360/1/3
f 372/1/3 368/1/3 371/1/3
f 373/3/3 366/3/3 370/3/3
f 374/3/3 366/3/3 373/3/3
f 376/3/3 375/3/3 374/3/3
f 377/3/3 375/3/3 376/3/3
f 380/1/3 379/1/3 378/1/3
f 381/1/3 379/1/3 380/1/3
f 382/1/3 368/1/3 372/1/3
f 383/1/3 368/1/3 382/1/3
f 388/1/3 385/1/3 384/1/3
f 389/1/3 385/1/3 388/1/3
f 391/1/3 387/1/3 386/1/3
f 392/1/3 387/1/3 391/1/3
f 393/1/3 390/1/3 389/1/3
f 394/1/3 390/1/3 393/1/3
f 396/1/3 395/1/3 394/1/3
f 397/1/3 395/1/3 396/1/3
f 399/1/3 398/1/3 397/1/3
f 400/1/3 398/1/3 399/1/3
f 403/1/3 402/1/3 401/1/3
f 404/1/3 402/1/3 403/1/3
f 405/2/4 406/2/4 407/2/4
f 407/2/4 406/2/4 408/2/4
f 409/2/4 410/2/4 413/2/4
f 413/2/4 410/2/4 414/2/4
f 411/2/4 412/2/4 415/2/4
f 415/2/4 412/2/4 416/2/4
f 417/2/4 418/2/4 421/2/4
f 419/2/4 420/2/4 424/2/4
f 421/2/4 422/2/4 425/2/4
f 417/2/4 421/2/4 425/2/4
f 425/2/4 422/2/4 426/2/4
f 423/2/4 424/2/4 427/2/4
f 424/2/4 420/2/4 427/2/4
f 427/2/4 420/2/4 428/2/4
f 426/2/4 422/2/4 429/2/4
f 423/2/4 427/2/4 432/2/4
f 429/2/4 430/2/4 433/2/4
f 426/2/4 429/2/4 433/2/4
f 433/2/4 430/2/4 434/2/4
f 434/2/4 430/2/4 435/2/4
f 431/2/4 432/2/4 438/2/4
f 432/2/4 427/2/4 439/2/4
f 438/2/4 432/2/4 439/2/4
f 439/2/4 427/2/4 440/2/4
f 435/2/4 436/2/4 441/2/4
f 434/2/4 435/2/4 441/2/4
f 437/2/4 438/2/4 444/2/4
f 438/2/4 439/2/4 444/2/4
f 441/2/4 442/2/4 445/2/4
f 434/2/4 441/2/4 445/2/4
f 445/2/4 442/2/4 446/2/4
f 446/2/4 442/2/4 447/2/4
f 443/2/4 444/2/4 448/2/4
f 444/2/4 439/2/4 449/2/4
f 448/2/4 444/2/4 449/2/4
f 449/2/4 439/2/4 450/2/4
f 446/2/4 447/2/4 451/2/4
f 447/2/4 448/2/4 451/2/4
f 448/2/4 449/2/4 451/2/4
f 451/2/4 449/2/4 452/2/4
f 452/2/4 449/2/4 453/2/4
f 453/2/4 449/2/4 454/2/4
f 452/2/4 453/2/4 455/2/4
f 455/2/4 453/2/4 456/2/4
f 457/1/4 458/1/4 461/1/4
f 461/1/4 458/1/4 462/1/4
f 462/1/4 458/1/4 463/1/4
f 459/1/4 460/1/4 465/1/4
f 465/1/4 460/1/4 466/1/4
f 463/1/4 464/1/4 467/1/4
f 462/1/4 463/1/4 467/1/4
f 467/1/4 464/1/4 468/1/4
f 468/1/4 464/1/4 469/1/4
f 469/1/4 470/1/4 471/1/4
f 468/1/4 469/1/4 471/1/4
f 471/1/4 470/1/4 472/1/4
f 472/1/4 470/1/4 473/1/4
f 473/1/4 474/1/4 475/1/4
f 472/1/4 473/1/4 475/1/4
f 475/1/4 474/1/4 476/1/4
f 476/1/4 474/1/4 477/1/4
f 477/1/4 478/1/4 481/1/4
f 476/1/4 477/1/4 481/1/4
f 481/1/4 478/1/4 482/1/4
f 482/1/4 478/1/4 483/1/4
f 479/3/4 480/3/4 487/3/4
f 487/3/4 480/3/4 488/3/4
f 488/3/4 480/3/4 489/3/4
f 483/1/4 484/1/4 491/1/4
f 482/1/4 483/1/4 491/1/4
f 491/1/4 484/1/4 492/1/4
f 485/3/4 486/3/4 493/3/4
f 493/3/4 486/3/4 494/3/4
f 489/3/4 490/3/4 495/3/4
f 488/3/4 489/3/4 495/3/4
f 495/3/4 490/3/4 496/3/4
f 496/3/4 490/3/4 497/3/4
f 492/1/4 484/1/4 499/1/4
f 497/3/4 498/3/4 501/3/4
f 496/3/4 497/3/4 501/3/4
f 501/3/4 498/3/4 502/3/4
f 499/1/4 500/1/4 503/1/4
f 492/1/4 499/1/4 503/1/4
f 503/1/4 500/1/4 504/1/4
f 502/3/4 498/3/4 505/3/4
f 505/3/4 498/3/4 506/3/4
f 506/3/4 507/3/4 508/3/4
f 508/3/4 507/3/4 509/3/4
f 510/1/4 511/1/4 512/1/4
f 512/1/4 511/1/4 513/1/4
f 504/1/4 500/1/4 514/1/4
f 514/1/4 500/1/4 515/1/4
f 516/1/4 517/1/4 520/1/4
f 520/1/4 517/1/4 521/1/4
f 518/1/4 519/1/4 523/1/4
f 523/1/4 519/1/4 524/1/4
f 521/1/4 522/1/4 525/1/4
f 525/1/4 522/1/4 526/1/4
f 526/1/4 527/1/4 528/1/4
f 528/1/4 527/1/4 529/1/4
f 529/1/4 530/1/4 531/1/4
f 531/1/4 530/1/4 532/1/4
f 533/1/4 534/1/4 535/1/4
f 535/1/4 534/1/4 536/1/4
f 539/1/5 538/1/5 537/1/5
f 540/1/5 538/1/5 539/1/5
f 543/2/5 542/2/5 541/2/5
f 544/2/5 542/2/5 543/2/5
f 547/1/5 546/1/5 545/1/5
f 548/1/5 546/1/5 547/1/5
f 553/2/5 550/2/5 549/2/5
f 554/2/5 550/2/5 553/2/5
f 555/2/5 552/2/5 551/2/5
f 556/2/5 552/2/5 555/2/5
f 559/1/5 558/1/5 557/1/5
f 560/1/5 558/1/5 559/1/5
f 565/2/5 562/2/5 561/2/5
f 566/2/5 562/2/5 565/2/5
f 567/2/5 564/2/5 563/2/5
f 568/2/5 564/2/5 567/2/5
f 571/1/5 570/1/5 569/1/5
f 572/1/5 570/1/5 571/1/5
f 577/1/5 574/1/5 573/1/5
f 578/1/5 574/1/5 577/1/5
f 579/1/5 576/1/5 575/1/5
f 580/1/5 576/1/5 579/1/5
f 583/2/5 582/2/5 581/2/5
f 584/2/5 582/2/5 583/2/5
f 589/1/5 586/1/5 585/1/5
f 590/1/5 586/1/5 589/1/5
f 591/1/5 588/1/5 587/1/5
f 592/1/5 588/1/5 591/1/5
f 595/2/5 594/2/5 593/2/5
f 596/2/5 594/2/5 595/2/5
f 599/3/5 598/3/5 597/3/5
f 600/3/5 598/3/5 599/3/5
f 603/3/5 602/3/5 601/3/5
f 604/3/5 602/3/5 603/3/5
f 607/3/5 606/3/5 605/3/5
f 608/3/5 606/3/5 607/3/5
f 611/2/5 610/2/5 609/2/5
f 612/2/5 610/2/5 611/2/5
f 617/1/5 614/1/5 613/1/5
f 618/1/5 614/1/5 617/1/5
f 619/3/5 616/3/5 615/3/5
f 620/3/5 616/3/5 619/3/5
f 623/3/5 622/3/5 621/3/5
f 624/3/5 622/3/5 623/3/5
f 627/2/5 626/2/5 625/2/5
f 628/2/5 626/2/5 627/2/5
f 633/1/5 630/1/5 629/1/5
f 634/1/5 630/1/5 633/1/5
f 635/3/5 632/3/5 631/3/5
f 636/3/5 632/3/5 635/3/5
f 639/2/5 638/2/5 637/2/5
f 640/2/5 638/2/5 639/2/5
f 643/1/5 642/1/5 641/1/5
f 644/1/5 642/1/5 643/1/5
f 649/2/5 646/2/5 645/2/5
f 650/2/5 646/2/5 649/2/5
f 651/2/5 648/2/5 647/2/5
f 652/2/5 648/2/5 651/2/5
f 655/1/5 654/1/5 653/1/5
f 656/1/5 654/1/5 655/1/5
f 659/2/5 658/2/5 657/2/5
f 660/2/5 658/2/5 659/2/5
f 663/1/5 662/1/5 661/1/5
f 664/1/5 662/1/5 663/1/5
f 669/1/5 666/1/5 665/1/5
f 670/1/5 666/1/5 669/1/5
f 671/1/5 668/1/5 667/1/5
f 672/1/5 668/1/5 671/1/5
f 675/1/5 674/1/5 673/1/5
f 676/1/5 674/1/5 675/1/5
f 677/1/6 678/1/6 679/1/6
f 679/1/6 678/1/6 680/1/6
f 681/2/6 682/2/6 683/2/6
f 683/2/6 682/2/6 684/2/6
f 685/1/6 686/1/6 687/1/6
f 687/1/6 686/1/6 688/1/6
f 689/2/6 690/2/6 693/2/6
f 693/2/6 690/2/6 694/2/6
f 691/2/6 692/2/6 695/2/6
f 695/2/6 692/2/6 696/2/6
f 697/1/6 698/1/6 699/1/6
f 699/1/6 698/1/6 700/1/6
f 701/2/6 702/2/6 705/2/6
f 705/2/6 702/2/6 706/2/6
f 703/2/6 704/2/6 707/2/6
f 707/2/6 704/2/6 708/2/6
f 709/1/6 710/1/6 711/1/6
f 711/1/6 710/1/6 712/1/6
f 713/2/6 714/2/6 715/2/6
f 715/2/6 714/2/6 716/2/6
f 717/1/6 718/1/6 721/1/6
f 721/1/6 718/1/6 722/1/6
f 719/1/6 720/1/6 723/1/6
f 723/1/6 720/1/6 724/1/6
f 725/2/6 726/2/6 727/2/6
f 727/2/6 726/2/6 728/2/6
f 729/1/6 730/1/6 731/1/6
f 731/1/6 730/1/6 732/1/6
f 733/3/6 734/3/6 735/3/6
f 735/3/6 734/3/6 736/3/6
f 737/2/6 738/2/6 739/2/6
f 739/2/6 738/2/6 740/2/6
f 741/3/6 742/3/6 743/3/6
f 743/3/6 742/3/6 744/3/6
f 745/1/6 746/1/6 749/1/6
f 749/1/6 746/1/6 750/1/6
f 747/3/6 748/3/6 751/3/6
f 751/3/6 748/3/6 752/3/6
f 753/2/6 754/2/6 755/2/6
f 755/2/6 754/2/6 756/2/6
f 757/3/6 758/3/6 759/3/6
f 759/3/6 758/3/6 760/3/6
f 761/1/6 762/1/6 765/1/6
f 765/1/6 762/1/6 766/1/6
f 763/3/6 764/3/6 767/3/6
f 767/3/6 764/3/6 768/3/6
f 769/2/6 770/2/6 771/2/6
f 771/2/6 770/2/6 772/2/6
f 773/1/6 774/1/6 775/1/6
f 775/1/6 774/1/6 776/1/6
f 777/2/6 778/2/6 781/2/6
f 781/2/6 778/2/6 782/2/6
f 779/2/6 780/2/6 783/2/6
f 783/2/6 780/2/6 784/2/6
f 785/1/6 786/1/6 787/1/6
f 787/1/6 786/1/6 788/1/6
f 789/2/6 790/2/6 791/2/6
f 791/2/6 790/2/6 792/2/6
f 793/1/6 794/1/6 795/1/6
f 795/1/6 794/1/6 796/1/6
f 797/1/6 798/1/6 801/1/6
f 801/1/6 798/1/6 802/1/6
f 799/1/6 800/1/6 803/1/6
f 803/1/6 800/1/6 804/1/6
f 805/1/6 806/1/6 807/1/6
f 807/1/6 806/1/6 808/1/6
