# MagicaVoxel @ Ephtracy

# group
o 

# material
mtllib Park_Lamp_1Short.mtl
usemtl palette

# normals
vn 0 0 -1
vn 0 0 1
vn -1 0 0
vn 1 0 0
vn 0 -1 0
vn 0 1 0

# texcoords
vt 0.509766 0.5
vt 0.951172 0.5

# verts
v -0.2 0.5 -0.3
v 0.1 0.5 -0.3
v -0.2 0.6 -0.3
v 0.1 0.6 -0.3
v -0.1 0 -0.2
v 0 0 -0.2
v -0.2 0.3 -0.2
v -0.1 0.3 -0.2
v 0 0.3 -0.2
v 0.1 0.3 -0.2
v -0.2 0.4 -0.2
v -0.1 0.4 -0.2
v 0 0.4 -0.2
v 0.1 0.4 -0.2
v -0.3 0.5 -0.2
v -0.2 0.5 -0.2
v -0.1 0.5 -0.2
v 0 0.5 -0.2
v 0.1 0.5 -0.2
v 0.2 0.5 -0.2
v -0.3 0.6 -0.2
v -0.2 0.6 -0.2
v -0.1 0.6 -0.2
v 0 0.6 -0.2
v 0.1 0.6 -0.2
v 0.2 0.6 -0.2
v -0.1 0.7 -0.2
v 0 0.7 -0.2
v -0.2 0 -0.1
v -0.1 0 -0.1
v 0 0 -0.1
v 0.1 0 -0.1
v -0.2 0.3 -0.1
v -0.1 0.3 -0.1
v 0 0.3 -0.1
v 0.1 0.3 -0.1
v -0.2 0.4 -0.1
v -0.1 0.4 -0.1
v 0 0.4 -0.1
v 0.1 0.4 -0.1
v -0.2 0.5 -0.1
v -0.1 0.5 -0.1
v 0 0.5 -0.1
v 0.1 0.5 -0.1
v -0.2 0.6 -0.1
v -0.1 0.6 -0.1
v 0 0.6 -0.1
v 0.1 0.6 -0.1
v -0.2 0.7 -0.1
v -0.1 0.7 -0.1
v 0 0.7 -0.1
v 0.1 0.7 -0.1
v -0.2 0 0
v -0.1 0 0
v 0 0 0
v 0.1 0 0
v -0.2 0.3 0
v -0.1 0.3 0
v 0 0.3 0
v 0.1 0.3 0
v -0.2 0.4 0
v -0.1 0.4 0
v 0 0.4 0
v 0.1 0.4 0
v -0.2 0.5 0
v -0.1 0.5 0
v 0 0.5 0
v 0.1 0.5 0
v -0.2 0.6 0
v -0.1 0.6 0
v 0 0.6 0
v 0.1 0.6 0
v -0.2 0.7 0
v -0.1 0.7 0
v 0 0.7 0
v 0.1 0.7 0
v -0.1 0 0.1
v 0 0 0.1
v -0.2 0.3 0.1
v -0.1 0.3 0.1
v 0 0.3 0.1
v 0.1 0.3 0.1
v -0.2 0.4 0.1
v -0.1 0.4 0.1
v 0 0.4 0.1
v 0.1 0.4 0.1
v -0.3 0.5 0.1
v -0.2 0.5 0.1
v -0.1 0.5 0.1
v 0 0.5 0.1
v 0.1 0.5 0.1
v 0.2 0.5 0.1
v -0.3 0.6 0.1
v -0.2 0.6 0.1
v -0.1 0.6 0.1
v 0 0.6 0.1
v 0.1 0.6 0.1
v 0.2 0.6 0.1
v -0.1 0.7 0.1
v 0 0.7 0.1
v -0.2 0.5 0.2
v 0.1 0.5 0.2
v -0.2 0.6 0.2
v 0.1 0.6 0.2
v -0.3 0.5 -0.2
v -0.3 0.6 -0.2
v -0.3 0.5 0.1
v -0.3 0.6 0.1
v -0.2 0.5 -0.3
v -0.2 0.6 -0.3
v -0.2 0.3 -0.2
v -0.2 0.4 -0.2
v -0.2 0.5 -0.2
v -0.2 0.6 -0.2
v -0.2 0 -0.1
v -0.2 0.3 -0.1
v -0.2 0.4 -0.1
v -0.2 0.5 -0.1
v -0.2 0.6 -0.1
v -0.2 0.7 -0.1
v -0.2 0 0
v -0.2 0.3 0
v -0.2 0.4 0
v -0.2 0.5 0
v -0.2 0.6 0
v -0.2 0.7 0
v -0.2 0.3 0.1
v -0.2 0.4 0.1
v -0.2 0.5 0.1
v -0.2 0.6 0.1
v -0.2 0.5 0.2
v -0.2 0.6 0.2
v -0.1 0 -0.2
v -0.1 0.3 -0.2
v -0.1 0.4 -0.2
v -0.1 0.5 -0.2
v -0.1 0.6 -0.2
v -0.1 0.7 -0.2
v -0.1 0 -0.1
v -0.1 0.3 -0.1
v -0.1 0.4 -0.1
v -0.1 0.5 -0.1
v -0.1 0.6 -0.1
v -0.1 0.7 -0.1
v -0.1 0 0
v -0.1 0.3 0
v -0.1 0.4 0
v -0.1 0.5 0
v -0.1 0.6 0
v -0.1 0.7 0
v -0.1 0 0.1
v -0.1 0.3 0.1
v -0.1 0.4 0.1
v -0.1 0.5 0.1
v -0.1 0.6 0.1
v -0.1 0.7 0.1
v 0 0 -0.2
v 0 0.3 -0.2
v 0 0.4 -0.2
v 0 0.5 -0.2
v 0 0.6 -0.2
v 0 0.7 -0.2
v 0 0 -0.1
v 0 0.3 -0.1
v 0 0.4 -0.1
v 0 0.5 -0.1
v 0 0.6 -0.1
v 0 0.7 -0.1
v 0 0 0
v 0 0.3 0
v 0 0.4 0
v 0 0.5 0
v 0 0.6 0
v 0 0.7 0
v 0 0 0.1
v 0 0.3 0.1
v 0 0.4 0.1
v 0 0.5 0.1
v 0 0.6 0.1
v 0 0.7 0.1
v 0.1 0.5 -0.3
v 0.1 0.6 -0.3
v 0.1 0.3 -0.2
v 0.1 0.4 -0.2
v 0.1 0.5 -0.2
v 0.1 0.6 -0.2
v 0.1 0 -0.1
v 0.1 0.3 -0.1
v 0.1 0.4 -0.1
v 0.1 0.5 -0.1
v 0.1 0.6 -0.1
v 0.1 0.7 -0.1
v 0.1 0 0
v 0.1 0.3 0
v 0.1 0.4 0
v 0.1 0.5 0
v 0.1 0.6 0
v 0.1 0.7 0
v 0.1 0.3 0.1
v 0.1 0.4 0.1
v 0.1 0.5 0.1
v 0.1 0.6 0.1
v 0.1 0.5 0.2
v 0.1 0.6 0.2
v 0.2 0.5 -0.2
v 0.2 0.6 -0.2
v 0.2 0.5 0.1
v 0.2 0.6 0.1
v -0.2 0 -0.1
v -0.2 0 0
v -0.1 0 -0.2
v -0.1 0 -0.1
v -0.1 0 0
v -0.1 0 0.1
v 0 0 -0.2
v 0 0 -0.1
v 0 0 0
v 0 0 0.1
v 0.1 0 -0.1
v 0.1 0 0
v -0.2 0.3 -0.2
v -0.2 0.3 -0.1
v -0.2 0.3 0
v -0.2 0.3 0.1
v -0.1 0.3 -0.2
v -0.1 0.3 -0.1
v -0.1 0.3 0
v -0.1 0.3 0.1
v 0 0.3 -0.2
v 0 0.3 -0.1
v 0 0.3 0
v 0 0.3 0.1
v 0.1 0.3 -0.2
v 0.1 0.3 -0.1
v 0.1 0.3 0
v 0.1 0.3 0.1
v -0.3 0.5 -0.2
v -0.3 0.5 0.1
v -0.2 0.5 -0.3
v -0.2 0.5 -0.2
v -0.2 0.5 -0.1
v -0.2 0.5 0
v -0.2 0.5 0.1
v -0.2 0.5 0.2
v -0.1 0.5 -0.2
v -0.1 0.5 -0.1
v -0.1 0.5 0
v -0.1 0.5 0.1
v 0 0.5 -0.2
v 0 0.5 -0.1
v 0 0.5 0
v 0 0.5 0.1
v 0.1 0.5 -0.3
v 0.1 0.5 -0.2
v 0.1 0.5 -0.1
v 0.1 0.5 0
v 0.1 0.5 0.1
v 0.1 0.5 0.2
v 0.2 0.5 -0.2
v 0.2 0.5 0.1
v -0.2 0.4 -0.2
v -0.2 0.4 -0.1
v -0.2 0.4 0
v -0.2 0.4 0.1
v -0.1 0.4 -0.2
v -0.1 0.4 -0.1
v -0.1 0.4 0
v -0.1 0.4 0.1
v 0 0.4 -0.2
v 0 0.4 -0.1
v 0 0.4 0
v 0 0.4 0.1
v 0.1 0.4 -0.2
v 0.1 0.4 -0.1
v 0.1 0.4 0
v 0.1 0.4 0.1
v -0.3 0.6 -0.2
v -0.3 0.6 0.1
v -0.2 0.6 -0.3
v -0.2 0.6 -0.2
v -0.2 0.6 -0.1
v -0.2 0.6 0
v -0.2 0.6 0.1
v -0.2 0.6 0.2
v -0.1 0.6 -0.2
v -0.1 0.6 -0.1
v -0.1 0.6 0
v -0.1 0.6 0.1
v 0 0.6 -0.2
v 0 0.6 -0.1
v 0 0.6 0
v 0 0.6 0.1
v 0.1 0.6 -0.3
v 0.1 0.6 -0.2
v 0.1 0.6 -0.1
v 0.1 0.6 0
v 0.1 0.6 0.1
v 0.1 0.6 0.2
v 0.2 0.6 -0.2
v 0.2 0.6 0.1
v -0.2 0.7 -0.1
v -0.2 0.7 0
v -0.1 0.7 -0.2
v -0.1 0.7 -0.1
v -0.1 0.7 0
v -0.1 0.7 0.1
v 0 0.7 -0.2
v 0 0.7 -0.1
v 0 0.7 0
v 0 0.7 0.1
v 0.1 0.7 -0.1
v 0.1 0.7 0

# faces
f 3/2/1 2/2/1 1/2/1
f 4/2/1 2/2/1 3/2/1
f 8/2/1 6/2/1 5/2/1
f 9/2/1 6/2/1 8/2/1
f 11/2/1 8/2/1 7/2/1
f 11/2/1 10/2/1 9/2/1
f 11/2/1 9/2/1 8/2/1
f 12/2/1 10/2/1 11/2/1
f 13/2/1 10/2/1 12/2/1
f 14/2/1 10/2/1 13/2/1
f 17/1/1 13/1/1 12/1/1
f 18/1/1 13/1/1 17/1/1
f 21/2/1 16/2/1 15/2/1
f 22/2/1 16/2/1 21/2/1
f 25/2/1 20/2/1 19/2/1
f 26/2/1 20/2/1 25/2/1
f 27/2/1 24/2/1 23/2/1
f 28/2/1 24/2/1 27/2/1
f 33/2/1 30/2/1 29/2/1
f 34/2/1 30/2/1 33/2/1
f 35/2/1 32/2/1 31/2/1
f 36/2/1 32/2/1 35/2/1
f 41/1/1 38/1/1 37/1/1
f 42/1/1 38/1/1 41/1/1
f 43/1/1 40/1/1 39/1/1
f 44/1/1 40/1/1 43/1/1
f 49/2/1 46/2/1 45/2/1
f 50/2/1 46/2/1 49/2/1
f 51/2/1 48/2/1 47/2/1
f 52/2/1 48/2/1 51/2/1
f 53/2/2 54/2/2 57/2/2
f 57/2/2 54/2/2 58/2/2
f 55/2/2 56/2/2 59/2/2
f 59/2/2 56/2/2 60/2/2
f 61/1/2 62/1/2 65/1/2
f 65/1/2 62/1/2 66/1/2
f 63/1/2 64/1/2 67/1/2
f 67/1/2 64/1/2 68/1/2
f 69/2/2 70/2/2 73/2/2
f 73/2/2 70/2/2 74/2/2
f 71/2/2 72/2/2 75/2/2
f 75/2/2 72/2/2 76/2/2
f 77/2/2 78/2/2 80/2/2
f 80/2/2 78/2/2 81/2/2
f 79/2/2 80/2/2 83/2/2
f 81/2/2 82/2/2 83/2/2
f 80/2/2 81/2/2 83/2/2
f 83/2/2 82/2/2 84/2/2
f 84/2/2 82/2/2 85/2/2
f 85/2/2 82/2/2 86/2/2
f 84/1/2 85/1/2 89/1/2
f 89/1/2 85/1/2 90/1/2
f 87/2/2 88/2/2 93/2/2
f 93/2/2 88/2/2 94/2/2
f 91/2/2 92/2/2 97/2/2
f 97/2/2 92/2/2 98/2/2
f 95/2/2 96/2/2 99/2/2
f 99/2/2 96/2/2 100/2/2
f 101/2/2 102/2/2 103/2/2
f 103/2/2 102/2/2 104/2/2
f 107/2/3 106/2/3 105/2/3
f 108/2/3 106/2/3 107/2/3
f 113/2/3 110/2/3 109/2/3
f 114/2/3 110/2/3 113/2/3
f 116/2/3 112/2/3 111/2/3
f 117/2/3 112/2/3 116/2/3
f 121/2/3 116/2/3 115/2/3
f 121/2/3 117/2/3 116/2/3
f 122/2/3 117/2/3 121/2/3
f 123/1/3 118/1/3 117/1/3
f 123/2/3 117/2/3 122/2/3
f 124/1/3 118/1/3 123/1/3
f 125/2/3 120/2/3 119/2/3
f 126/2/3 120/2/3 125/2/3
f 127/2/3 123/2/3 122/2/3
f 128/2/3 123/2/3 127/2/3
f 131/2/3 130/2/3 129/2/3
f 132/2/3 130/2/3 131/2/3
f 139/2/3 134/2/3 133/2/3
f 140/2/3 134/2/3 139/2/3
f 141/1/3 136/1/3 135/1/3
f 142/1/3 136/1/3 141/1/3
f 143/2/3 138/2/3 137/2/3
f 144/2/3 138/2/3 143/2/3
f 151/2/3 146/2/3 145/2/3
f 152/2/3 146/2/3 151/2/3
f 153/1/3 148/1/3 147/1/3
f 154/1/3 148/1/3 153/1/3
f 155/2/3 150/2/3 149/2/3
f 156/2/3 150/2/3 155/2/3
f 157/2/4 158/2/4 163/2/4
f 163/2/4 158/2/4 164/2/4
f 159/1/4 160/1/4 165/1/4
f 165/1/4 160/1/4 166/1/4
f 161/2/4 162/2/4 167/2/4
f 167/2/4 162/2/4 168/2/4
f 169/2/4 170/2/4 175/2/4
f 175/2/4 170/2/4 176/2/4
f 171/1/4 172/1/4 177/1/4
f 177/1/4 172/1/4 178/1/4
f 173/2/4 174/2/4 179/2/4
f 179/2/4 174/2/4 180/2/4
f 181/2/4 182/2/4 185/2/4
f 185/2/4 182/2/4 186/2/4
f 183/2/4 184/2/4 188/2/4
f 188/2/4 184/2/4 189/2/4
f 187/2/4 188/2/4 193/2/4
f 188/2/4 189/2/4 193/2/4
f 193/2/4 189/2/4 194/2/4
f 189/1/4 190/1/4 195/1/4
f 194/2/4 189/2/4 195/2/4
f 195/1/4 190/1/4 196/1/4
f 191/2/4 192/2/4 197/2/4
f 197/2/4 192/2/4 198/2/4
f 194/2/4 195/2/4 199/2/4
f 199/2/4 195/2/4 200/2/4
f 201/2/4 202/2/4 203/2/4
f 203/2/4 202/2/4 204/2/4
f 205/2/4 206/2/4 207/2/4
f 207/2/4 206/2/4 208/2/4
f 212/2/5 210/2/5 209/2/5
f 213/2/5 210/2/5 212/2/5
f 215/2/5 212/2/5 211/2/5
f 215/2/5 214/2/5 213/2/5
f 215/2/5 213/2/5 212/2/5
f 216/2/5 214/2/5 215/2/5
f 217/2/5 214/2/5 216/2/5
f 218/2/5 214/2/5 217/2/5
f 219/2/5 217/2/5 216/2/5
f 220/2/5 217/2/5 219/2/5
f 225/2/5 222/2/5 221/2/5
f 226/2/5 222/2/5 225/2/5
f 227/2/5 224/2/5 223/2/5
f 228/2/5 224/2/5 227/2/5
f 233/2/5 230/2/5 229/2/5
f 234/2/5 230/2/5 233/2/5
f 235/2/5 232/2/5 231/2/5
f 236/2/5 232/2/5 235/2/5
f 240/2/5 238/2/5 237/2/5
f 241/2/5 238/2/5 240/2/5
f 242/2/5 238/2/5 241/2/5
f 243/2/5 238/2/5 242/2/5
f 245/2/5 240/2/5 239/2/5
f 245/2/5 241/2/5 240/2/5
f 246/2/5 241/2/5 245/2/5
f 247/2/5 244/2/5 243/2/5
f 247/2/5 243/2/5 242/2/5
f 248/2/5 244/2/5 247/2/5
f 249/2/5 245/2/5 239/2/5
f 252/2/5 244/2/5 248/2/5
f 253/2/5 250/2/5 249/2/5
f 253/2/5 249/2/5 239/2/5
f 254/2/5 250/2/5 253/2/5
f 255/2/5 250/2/5 254/2/5
f 256/2/5 252/2/5 251/2/5
f 257/2/5 244/2/5 252/2/5
f 257/2/5 252/2/5 256/2/5
f 258/2/5 244/2/5 257/2/5
f 259/2/5 255/2/5 254/2/5
f 259/2/5 256/2/5 255/2/5
f 259/2/5 257/2/5 256/2/5
f 260/2/5 257/2/5 259/2/5
f 261/2/6 262/2/6 265/2/6
f 265/2/6 262/2/6 266/2/6
f 263/2/6 264/2/6 267/2/6
f 267/2/6 264/2/6 268/2/6
f 269/2/6 270/2/6 273/2/6
f 273/2/6 270/2/6 274/2/6
f 271/2/6 272/2/6 275/2/6
f 275/2/6 272/2/6 276/2/6
f 277/2/6 278/2/6 280/2/6
f 280/2/6 278/2/6 281/2/6
f 281/2/6 278/2/6 282/2/6
f 282/2/6 278/2/6 283/2/6
f 279/2/6 280/2/6 285/2/6
f 280/2/6 281/2/6 285/2/6
f 285/2/6 281/2/6 286/2/6
f 283/2/6 284/2/6 287/2/6
f 282/2/6 283/2/6 287/2/6
f 287/2/6 284/2/6 288/2/6
f 279/2/6 285/2/6 289/2/6
f 288/2/6 284/2/6 292/2/6
f 289/2/6 290/2/6 293/2/6
f 279/2/6 289/2/6 293/2/6
f 293/2/6 290/2/6 294/2/6
f 294/2/6 290/2/6 295/2/6
f 291/2/6 292/2/6 296/2/6
f 292/2/6 284/2/6 297/2/6
f 296/2/6 292/2/6 297/2/6
f 297/2/6 284/2/6 298/2/6
f 294/2/6 295/2/6 299/2/6
f 295/2/6 296/2/6 299/2/6
f 296/2/6 297/2/6 299/2/6
f 299/2/6 297/2/6 300/2/6
f 301/2/6 302/2/6 304/2/6
f 304/2/6 302/2/6 305/2/6
f 303/2/6 304/2/6 307/2/6
f 305/2/6 306/2/6 307/2/6
f 304/2/6 305/2/6 307/2/6
f 307/2/6 306/2/6 308/2/6
f 308/2/6 306/2/6 309/2/6
f 309/2/6 306/2/6 310/2/6
f 308/2/6 309/2/6 311/2/6
f 311/2/6 309/2/6 312/2/6
