# MagicaVoxel @ Ephtracy

# group
o 

# material
mtllib Park_Fence_Corner.mtl
usemtl palette

# normals
vn 1 0 0
vn -1 0 0
vn 0 0 -1
vn 0 0 1
vn 0 -1 0
vn 0 1 0

# texcoords
vt 0.673828 0.5
vt 0.716797 0.5
vt 0.951172 0.5

# verts
v 0.8 0 -0.4
v 0.8 0 0.4
v 0.8 0.1 -0.4
v 0.8 0.1 0.4
v 0.8 0.7 -0.4
v 0.8 0.7 -0.3
v 0.8 0.7 0.3
v 0.8 0.7 0.4
v 0.8 0.8 -0.3
v 0.8 0.8 -0.1
v 0.8 0.8 0.1
v 0.8 0.8 0.3
v 0.8 1.1 -0.2
v 0.8 1.1 -0.1
v 0.8 1.1 0.1
v 0.8 1.1 0.2
v 0.8 1.3 -0.2
v 0.8 1.3 -0.1
v 0.8 1.3 0.1
v 0.8 1.3 0.2
v 0.8 2.5 -0.2
v 0.8 2.5 -0.1
v 0.8 2.5 0.1
v 0.8 2.5 0.2
v 0.8 2.7 -0.2
v 0.8 2.7 -0.1
v 0.8 2.7 0.1
v 0.8 2.7 0.2
v 0.8 3 -0.1
v 0.8 3 0.1
v 0.5 0.8 -0.1
v 0.5 0.8 0.1
v 0.5 1.1 -0.1
v 0.5 1.1 0.1
v 0.5 1.3 -0.1
v 0.5 1.3 0.1
v 0.5 2.5 -0.1
v 0.5 2.5 0.1
v 0.5 2.7 -0.1
v 0.5 2.7 0.1
v 0.5 3 -0.1
v 0.5 3 0.1
v 0.4 0 -0.8
v 0.4 0 -0.4
v 0.4 0.1 -0.8
v 0.4 0.1 -0.4
v 0.4 0.7 -0.8
v 0.4 0.7 -0.4
v 0.3 0.7 -0.8
v 0.3 0.7 -0.3
v 0.3 0.8 -0.8
v 0.3 0.8 -0.3
v 0.2 1.1 -0.8
v 0.2 1.1 -0.2
v 0.2 1.1 -0.1
v 0.2 1.1 0.1
v 0.2 1.3 -0.8
v 0.2 1.3 -0.2
v 0.2 1.3 -0.1
v 0.2 1.3 0.1
v 0.2 2.5 -0.8
v 0.2 2.5 -0.2
v 0.2 2.5 -0.1
v 0.2 2.5 0.1
v 0.2 2.7 -0.8
v 0.2 2.7 -0.2
v 0.2 2.7 -0.1
v 0.2 2.7 0.1
v 0.1 0.8 -0.8
v 0.1 0.8 -0.7
v 0.1 0.8 -0.5
v 0.1 0.8 -0.4
v 0.1 0.8 -0.1
v 0.1 0.8 0.1
v 0.1 1.1 -0.8
v 0.1 1.1 -0.7
v 0.1 1.1 -0.5
v 0.1 1.1 -0.4
v 0.1 1.1 -0.1
v 0.1 1.1 0.1
v 0.1 1.3 -0.8
v 0.1 1.3 -0.7
v 0.1 1.3 -0.5
v 0.1 1.3 -0.4
v 0.1 1.3 -0.1
v 0.1 1.3 0.1
v 0.1 2.5 -0.8
v 0.1 2.5 -0.7
v 0.1 2.5 -0.5
v 0.1 2.5 -0.4
v 0.1 2.5 -0.1
v 0.1 2.5 0.1
v 0.1 2.7 -0.8
v 0.1 2.7 -0.7
v 0.1 2.7 -0.5
v 0.1 2.7 -0.4
v 0.1 2.7 -0.1
v 0.1 2.7 0.1
v 0.1 3 -0.8
v 0.1 3 -0.7
v 0.1 3 -0.5
v 0.1 3 -0.4
v 0.1 3 -0.1
v 0.1 3 0.1
v -0.1 1.1 -0.7
v -0.1 1.1 -0.5
v -0.1 1.1 -0.4
v -0.1 1.1 -0.2
v -0.1 1.3 -0.7
v -0.1 1.3 -0.5
v -0.1 1.3 -0.4
v -0.1 1.3 -0.2
v -0.1 2.5 -0.7
v -0.1 2.5 -0.5
v -0.1 2.5 -0.4
v -0.1 2.5 -0.2
v -0.1 2.7 -0.7
v -0.1 2.7 -0.5
v -0.1 2.7 -0.4
v -0.1 2.7 -0.2
v 0.7 0.8 -0.1
v 0.7 0.8 0.1
v 0.7 1.1 -0.1
v 0.7 1.1 0.1
v 0.7 1.3 -0.1
v 0.7 1.3 0.1
v 0.7 2.5 -0.1
v 0.7 2.5 0.1
v 0.7 2.7 -0.1
v 0.7 2.7 0.1
v 0.7 3 -0.1
v 0.7 3 0.1
v 0.4 0.8 -0.1
v 0.4 0.8 0.1
v 0.4 1.1 -0.1
v 0.4 1.1 0.1
v 0.4 1.3 -0.1
v 0.4 1.3 0.1
v 0.4 2.5 -0.1
v 0.4 2.5 0.1
v 0.4 2.7 -0.1
v 0.4 2.7 0.1
v 0.4 3 -0.1
v 0.4 3 0.1
v 0.1 1.1 -0.7
v 0.1 1.1 -0.5
v 0.1 1.1 -0.4
v 0.1 1.1 -0.2
v 0.1 1.3 -0.7
v 0.1 1.3 -0.5
v 0.1 1.3 -0.4
v 0.1 1.3 -0.2
v 0.1 2.5 -0.7
v 0.1 2.5 -0.5
v 0.1 2.5 -0.4
v 0.1 2.5 -0.2
v 0.1 2.7 -0.7
v 0.1 2.7 -0.5
v 0.1 2.7 -0.4
v 0.1 2.7 -0.2
v -0.1 0.8 -0.8
v -0.1 0.8 -0.7
v -0.1 0.8 -0.5
v -0.1 0.8 -0.4
v -0.1 0.8 -0.1
v -0.1 0.8 0.1
v -0.1 1.1 -0.8
v -0.1 1.1 -0.7
v -0.1 1.1 -0.5
v -0.1 1.1 -0.4
v -0.1 1.1 -0.1
v -0.1 1.1 0.1
v -0.1 1.3 -0.8
v -0.1 1.3 -0.7
v -0.1 1.3 -0.5
v -0.1 1.3 -0.4
v -0.1 1.3 -0.1
v -0.1 1.3 0.1
v -0.1 2.5 -0.8
v -0.1 2.5 -0.7
v -0.1 2.5 -0.5
v -0.1 2.5 -0.4
v -0.1 2.5 -0.1
v -0.1 2.5 0.1
v -0.1 2.7 -0.8
v -0.1 2.7 -0.7
v -0.1 2.7 -0.5
v -0.1 2.7 -0.4
v -0.1 2.7 -0.1
v -0.1 2.7 0.1
v -0.1 3 -0.8
v -0.1 3 -0.7
v -0.1 3 -0.5
v -0.1 3 -0.4
v -0.1 3 -0.1
v -0.1 3 0.1
v -0.2 0.7 0.2
v -0.2 0.7 0.3
v -0.2 0.8 0.2
v -0.2 0.8 0.3
v -0.2 1.1 -0.8
v -0.2 1.1 0.2
v -0.2 1.3 -0.8
v -0.2 1.3 0.2
v -0.2 2.5 -0.8
v -0.2 2.5 0.2
v -0.2 2.7 -0.8
v -0.2 2.7 0.2
v -0.3 0.6 0.3
v -0.3 0.6 0.4
v -0.3 0.7 -0.8
v -0.3 0.7 0.2
v -0.3 0.7 0.3
v -0.3 0.7 0.4
v -0.3 0.8 -0.8
v -0.3 0.8 0.2
v -0.4 0 -0.8
v -0.4 0 0.4
v -0.4 0.1 -0.8
v -0.4 0.1 0.4
v -0.4 0.6 0.3
v -0.4 0.6 0.4
v -0.4 0.7 -0.8
v -0.4 0.7 0.3
v 0.4 0 -0.8
v 0.4 0.1 -0.8
v 0.4 0.7 -0.8
v 0.3 0.7 -0.8
v 0.3 0.8 -0.8
v 0.2 1.1 -0.8
v 0.2 1.3 -0.8
v 0.2 2.5 -0.8
v 0.2 2.7 -0.8
v 0.1 0.8 -0.8
v 0.1 1.1 -0.8
v 0.1 1.3 -0.8
v 0.1 2.5 -0.8
v 0.1 2.7 -0.8
v 0.1 3 -0.8
v -0.1 0.8 -0.8
v -0.1 1.1 -0.8
v -0.1 1.3 -0.8
v -0.1 2.5 -0.8
v -0.1 2.7 -0.8
v -0.1 3 -0.8
v -0.2 1.1 -0.8
v -0.2 1.3 -0.8
v -0.2 2.5 -0.8
v -0.2 2.7 -0.8
v -0.3 0.7 -0.8
v -0.3 0.8 -0.8
v -0.4 0 -0.8
v -0.4 0.1 -0.8
v -0.4 0.7 -0.8
v 0.1 0.8 -0.5
v 0.1 1.1 -0.5
v 0.1 1.3 -0.5
v 0.1 2.5 -0.5
v 0.1 2.7 -0.5
v 0.1 3 -0.5
v -0.1 0.8 -0.5
v -0.1 1.1 -0.5
v -0.1 1.3 -0.5
v -0.1 2.5 -0.5
v -0.1 2.7 -0.5
v -0.1 3 -0.5
v 0.8 0 -0.4
v 0.8 0.1 -0.4
v 0.8 0.7 -0.4
v 0.4 0 -0.4
v 0.4 0.1 -0.4
v 0.4 0.7 -0.4
v 0.8 0.7 -0.3
v 0.8 0.8 -0.3
v 0.3 0.7 -0.3
v 0.3 0.8 -0.3
v 0.8 1.1 -0.2
v 0.8 1.3 -0.2
v 0.8 2.5 -0.2
v 0.8 2.7 -0.2
v 0.2 1.1 -0.2
v 0.2 1.3 -0.2
v 0.2 2.5 -0.2
v 0.2 2.7 -0.2
v 0.1 1.1 -0.2
v 0.1 1.3 -0.2
v 0.1 2.5 -0.2
v 0.1 2.7 -0.2
v -0.1 1.1 -0.2
v -0.1 1.3 -0.2
v -0.1 2.5 -0.2
v -0.1 2.7 -0.2
v 0.8 0.8 -0.1
v 0.8 1.1 -0.1
v 0.8 1.3 -0.1
v 0.8 2.5 -0.1
v 0.8 2.7 -0.1
v 0.8 3 -0.1
v 0.7 0.8 -0.1
v 0.7 1.1 -0.1
v 0.7 1.3 -0.1
v 0.7 2.5 -0.1
v 0.7 2.7 -0.1
v 0.7 3 -0.1
v 0.5 0.8 -0.1
v 0.5 1.1 -0.1
v 0.5 1.3 -0.1
v 0.5 2.5 -0.1
v 0.5 2.7 -0.1
v 0.5 3 -0.1
v 0.4 0.8 -0.1
v 0.4 1.1 -0.1
v 0.4 1.3 -0.1
v 0.4 2.5 -0.1
v 0.4 2.7 -0.1
v 0.4 3 -0.1
v 0.1 0.8 -0.1
v 0.1 1.1 -0.1
v 0.1 1.3 -0.1
v 0.1 2.5 -0.1
v 0.1 2.7 -0.1
v 0.1 3 -0.1
v -0.1 0.8 -0.1
v -0.1 1.1 -0.1
v -0.1 1.3 -0.1
v -0.1 2.5 -0.1
v -0.1 2.7 -0.1
v -0.1 3 -0.1
v 0.7 1.1 0.1
v 0.7 1.3 0.1
v 0.7 2.5 0.1
v 0.7 2.7 0.1
v 0.5 1.1 0.1
v 0.5 1.3 0.1
v 0.5 2.5 0.1
v 0.5 2.7 0.1
v 0.4 1.1 0.1
v 0.4 1.3 0.1
v 0.4 2.5 0.1
v 0.4 2.7 0.1
v 0.2 1.1 0.1
v 0.2 1.3 0.1
v 0.2 2.5 0.1
v 0.2 2.7 0.1
v 0.1 0.8 -0.7
v 0.1 1.1 -0.7
v 0.1 1.3 -0.7
v 0.1 2.5 -0.7
v 0.1 2.7 -0.7
v 0.1 3 -0.7
v -0.1 0.8 -0.7
v -0.1 1.1 -0.7
v -0.1 1.3 -0.7
v -0.1 2.5 -0.7
v -0.1 2.7 -0.7
v -0.1 3 -0.7
v 0.1 0.8 -0.4
v 0.1 1.1 -0.4
v 0.1 1.3 -0.4
v 0.1 2.5 -0.4
v 0.1 2.7 -0.4
v 0.1 3 -0.4
v -0.1 0.8 -0.4
v -0.1 1.1 -0.4
v -0.1 1.3 -0.4
v -0.1 2.5 -0.4
v -0.1 2.7 -0.4
v -0.1 3 -0.4
v 0.7 1.1 -0.1
v 0.7 1.3 -0.1
v 0.7 2.5 -0.1
v 0.7 2.7 -0.1
v 0.5 1.1 -0.1
v 0.5 1.3 -0.1
v 0.5 2.5 -0.1
v 0.5 2.7 -0.1
v 0.4 1.1 -0.1
v 0.4 1.3 -0.1
v 0.4 2.5 -0.1
v 0.4 2.7 -0.1
v 0.2 1.1 -0.1
v 0.2 1.3 -0.1
v 0.2 2.5 -0.1
v 0.2 2.7 -0.1
v 0.8 0.8 0.1
v 0.8 1.1 0.1
v 0.8 1.3 0.1
v 0.8 2.5 0.1
v 0.8 2.7 0.1
v 0.8 3 0.1
v 0.7 0.8 0.1
v 0.7 1.1 0.1
v 0.7 1.3 0.1
v 0.7 2.5 0.1
v 0.7 2.7 0.1
v 0.7 3 0.1
v 0.5 0.8 0.1
v 0.5 1.1 0.1
v 0.5 1.3 0.1
v 0.5 2.5 0.1
v 0.5 2.7 0.1
v 0.5 3 0.1
v 0.4 0.8 0.1
v 0.4 1.1 0.1
v 0.4 1.3 0.1
v 0.4 2.5 0.1
v 0.4 2.7 0.1
v 0.4 3 0.1
v 0.1 0.8 0.1
v 0.1 1.1 0.1
v 0.1 1.3 0.1
v 0.1 2.5 0.1
v 0.1 2.7 0.1
v 0.1 3 0.1
v -0.1 0.8 0.1
v -0.1 1.1 0.1
v -0.1 1.3 0.1
v -0.1 2.5 0.1
v -0.1 2.7 0.1
v -0.1 3 0.1
v 0.8 1.1 0.2
v 0.8 1.3 0.2
v 0.8 2.5 0.2
v 0.8 2.7 0.2
v -0.2 0.7 0.2
v -0.2 0.8 0.2
v -0.2 1.1 0.2
v -0.2 1.3 0.2
v -0.2 2.5 0.2
v -0.2 2.7 0.2
v -0.3 0.7 0.2
v -0.3 0.8 0.2
v 0.8 0.7 0.3
v 0.8 0.8 0.3
v -0.2 0.7 0.3
v -0.2 0.8 0.3
v -0.3 0.6 0.3
v -0.3 0.7 0.3
v -0.4 0.6 0.3
v -0.4 0.7 0.3
v 0.8 0 0.4
v 0.8 0.1 0.4
v 0.8 0.7 0.4
v -0.3 0.6 0.4
v -0.3 0.7 0.4
v -0.4 0 0.4
v -0.4 0.1 0.4
v -0.4 0.6 0.4
v 0.4 0 -0.8
v -0.4 0 -0.8
v 0.8 0 -0.4
v 0.4 0 -0.4
v 0.8 0 0.4
v -0.4 0 0.4
v 0.2 1.1 -0.8
v 0.1 1.1 -0.8
v -0.1 1.1 -0.8
v -0.2 1.1 -0.8
v 0.1 1.1 -0.7
v -0.1 1.1 -0.7
v 0.1 1.1 -0.5
v -0.1 1.1 -0.5
v 0.1 1.1 -0.4
v -0.1 1.1 -0.4
v 0.8 1.1 -0.2
v 0.2 1.1 -0.2
v 0.1 1.1 -0.2
v -0.1 1.1 -0.2
v 0.8 1.1 -0.1
v 0.7 1.1 -0.1
v 0.5 1.1 -0.1
v 0.4 1.1 -0.1
v 0.2 1.1 -0.1
v 0.1 1.1 -0.1
v -0.1 1.1 -0.1
v 0.8 1.1 0.1
v 0.7 1.1 0.1
v 0.5 1.1 0.1
v 0.4 1.1 0.1
v 0.2 1.1 0.1
v 0.1 1.1 0.1
v -0.1 1.1 0.1
v 0.8 1.1 0.2
v -0.2 1.1 0.2
v 0.2 2.5 -0.8
v 0.1 2.5 -0.8
v -0.1 2.5 -0.8
v -0.2 2.5 -0.8
v 0.1 2.5 -0.7
v -0.1 2.5 -0.7
v 0.1 2.5 -0.5
v -0.1 2.5 -0.5
v 0.1 2.5 -0.4
v -0.1 2.5 -0.4
v 0.8 2.5 -0.2
v 0.2 2.5 -0.2
v 0.1 2.5 -0.2
v -0.1 2.5 -0.2
v 0.8 2.5 -0.1
v 0.7 2.5 -0.1
v 0.5 2.5 -0.1
v 0.4 2.5 -0.1
v 0.2 2.5 -0.1
v 0.1 2.5 -0.1
v -0.1 2.5 -0.1
v 0.8 2.5 0.1
v 0.7 2.5 0.1
v 0.5 2.5 0.1
v 0.4 2.5 0.1
v 0.2 2.5 0.1
v 0.1 2.5 0.1
v -0.1 2.5 0.1
v 0.8 2.5 0.2
v -0.2 2.5 0.2
v -0.3 0.6 0.3
v -0.4 0.6 0.3
v -0.3 0.6 0.4
v -0.4 0.6 0.4
v 0.4 0.7 -0.8
v 0.3 0.7 -0.8
v -0.3 0.7 -0.8
v -0.4 0.7 -0.8
v 0.8 0.7 -0.4
v 0.4 0.7 -0.4
v 0.8 0.7 -0.3
v 0.3 0.7 -0.3
v -0.2 0.7 0.2
v -0.3 0.7 0.2
v 0.8 0.7 0.3
v -0.2 0.7 0.3
v -0.3 0.7 0.3
v -0.4 0.7 0.3
v 0.8 0.7 0.4
v -0.3 0.7 0.4
v 0.3 0.8 -0.8
v 0.1 0.8 -0.8
v -0.1 0.8 -0.8
v -0.3 0.8 -0.8
v 0.1 0.8 -0.7
v -0.1 0.8 -0.7
v 0.1 0.8 -0.5
v -0.1 0.8 -0.5
v 0.1 0.8 -0.4
v -0.1 0.8 -0.4
v 0.8 0.8 -0.3
v 0.3 0.8 -0.3
v 0.8 0.8 -0.1
v 0.7 0.8 -0.1
v 0.5 0.8 -0.1
v 0.4 0.8 -0.1
v 0.1 0.8 -0.1
v -0.1 0.8 -0.1
v 0.8 0.8 0.1
v 0.7 0.8 0.1
v 0.5 0.8 0.1
v 0.4 0.8 0.1
v 0.1 0.8 0.1
v -0.1 0.8 0.1
v -0.2 0.8 0.2
v -0.3 0.8 0.2
v 0.8 0.8 0.3
v -0.2 0.8 0.3
v 0.2 1.3 -0.8
v 0.1 1.3 -0.8
v -0.1 1.3 -0.8
v -0.2 1.3 -0.8
v 0.1 1.3 -0.7
v -0.1 1.3 -0.7
v 0.1 1.3 -0.5
v -0.1 1.3 -0.5
v 0.1 1.3 -0.4
v -0.1 1.3 -0.4
v 0.8 1.3 -0.2
v 0.2 1.3 -0.2
v 0.1 1.3 -0.2
v -0.1 1.3 -0.2
v 0.8 1.3 -0.1
v 0.7 1.3 -0.1
v 0.5 1.3 -0.1
v 0.4 1.3 -0.1
v 0.2 1.3 -0.1
v 0.1 1.3 -0.1
v -0.1 1.3 -0.1
v 0.8 1.3 0.1
v 0.7 1.3 0.1
v 0.5 1.3 0.1
v 0.4 1.3 0.1
v 0.2 1.3 0.1
v 0.1 1.3 0.1
v -0.1 1.3 0.1
v 0.8 1.3 0.2
v -0.2 1.3 0.2
v 0.2 2.7 -0.8
v 0.1 2.7 -0.8
v -0.1 2.7 -0.8
v -0.2 2.7 -0.8
v 0.1 2.7 -0.7
v -0.1 2.7 -0.7
v 0.1 2.7 -0.5
v -0.1 2.7 -0.5
v 0.1 2.7 -0.4
v -0.1 2.7 -0.4
v 0.8 2.7 -0.2
v 0.2 2.7 -0.2
v 0.1 2.7 -0.2
v -0.1 2.7 -0.2
v 0.8 2.7 -0.1
v 0.7 2.7 -0.1
v 0.5 2.7 -0.1
v 0.4 2.7 -0.1
v 0.2 2.7 -0.1
v 0.1 2.7 -0.1
v -0.1 2.7 -0.1
v 0.8 2.7 0.1
v 0.7 2.7 0.1
v 0.5 2.7 0.1
v 0.4 2.7 0.1
v 0.2 2.7 0.1
v 0.1 2.7 0.1
v -0.1 2.7 0.1
v 0.8 2.7 0.2
v -0.2 2.7 0.2
v 0.1 3 -0.8
v -0.1 3 -0.8
v 0.1 3 -0.7
v -0.1 3 -0.7
v 0.1 3 -0.5
v -0.1 3 -0.5
v 0.1 3 -0.4
v -0.1 3 -0.4
v 0.8 3 -0.1
v 0.7 3 -0.1
v 0.5 3 -0.1
v 0.4 3 -0.1
v 0.1 3 -0.1
v -0.1 3 -0.1
v 0.8 3 0.1
v 0.7 3 0.1
v 0.5 3 0.1
v 0.4 3 0.1
v 0.1 3 0.1
v -0.1 3 0.1

# faces
f 3/1/1 2/1/1 1/1/1
f 4/1/1 2/1/1 3/1/1
f 5/2/1 4/2/1 3/2/1
f 6/2/1 4/2/1 5/2/1
f 7/2/1 4/2/1 6/2/1
f 8/2/1 4/2/1 7/2/1
f 9/2/1 7/2/1 6/2/1
f 10/2/1 7/2/1 9/2/1
f 11/2/1 7/2/1 10/2/1
f 12/2/1 7/2/1 11/2/1
f 14/3/1 11/3/1 10/3/1
f 15/3/1 11/3/1 14/3/1
f 17/3/1 14/3/1 13/3/1
f 17/3/1 16/3/1 15/3/1
f 17/3/1 15/3/1 14/3/1
f 18/3/1 16/3/1 17/3/1
f 19/3/1 16/3/1 18/3/1
f 20/3/1 16/3/1 19/3/1
f 22/3/1 19/3/1 18/3/1
f 23/3/1 19/3/1 22/3/1
f 25/3/1 22/3/1 21/3/1
f 25/3/1 24/3/1 23/3/1
f 25/3/1 23/3/1 22/3/1
f 26/3/1 24/3/1 25/3/1
f 27/3/1 24/3/1 26/3/1
f 28/3/1 24/3/1 27/3/1
f 29/3/1 27/3/1 26/3/1
f 30/3/1 27/3/1 29/3/1
f 33/3/1 32/3/1 31/3/1
f 34/3/1 32/3/1 33/3/1
f 35/3/1 34/3/1 33/3/1
f 36/3/1 34/3/1 35/3/1
f 37/3/1 36/3/1 35/3/1
f 38/3/1 36/3/1 37/3/1
f 39/3/1 38/3/1 37/3/1
f 40/3/1 38/3/1 39/3/1
f 41/3/1 40/3/1 39/3/1
f 42/3/1 40/3/1 41/3/1
f 45/1/1 44/1/1 43/1/1
f 46/1/1 44/1/1 45/1/1
f 47/2/1 46/2/1 45/2/1
f 48/2/1 46/2/1 47/2/1
f 51/2/1 50/2/1 49/2/1
f 52/2/1 50/2/1 51/2/1
f 57/3/1 54/3/1 53/3/1
f 58/3/1 54/3/1 57/3/1
f 59/3/1 56/3/1 55/3/1
f 60/3/1 56/3/1 59/3/1
f 65/3/1 62/3/1 61/3/1
f 66/3/1 62/3/1 65/3/1
f 67/3/1 64/3/1 63/3/1
f 68/3/1 64/3/1 67/3/1
f 75/3/1 70/3/1 69/3/1
f 76/3/1 70/3/1 75/3/1
f 77/3/1 72/3/1 71/3/1
f 78/3/1 72/3/1 77/3/1
f 79/3/1 74/3/1 73/3/1
f 80/3/1 74/3/1 79/3/1
f 87/3/1 82/3/1 81/3/1
f 88/3/1 82/3/1 87/3/1
f 89/3/1 84/3/1 83/3/1
f 90/3/1 84/3/1 89/3/1
f 91/3/1 86/3/1 85/3/1
f 92/3/1 86/3/1 91/3/1
f 99/3/1 94/3/1 93/3/1
f 100/3/1 94/3/1 99/3/1
f 101/3/1 96/3/1 95/3/1
f 102/3/1 96/3/1 101/3/1
f 103/3/1 98/3/1 97/3/1
f 104/3/1 98/3/1 103/3/1
f 109/3/1 106/3/1 105/3/1
f 110/3/1 106/3/1 109/3/1
f 111/3/1 108/3/1 107/3/1
f 112/3/1 108/3/1 111/3/1
f 117/3/1 114/3/1 113/3/1
f 118/3/1 114/3/1 117/3/1
f 119/3/1 116/3/1 115/3/1
f 120/3/1 116/3/1 119/3/1
f 121/3/2 122/3/2 123/3/2
f 123/3/2 122/3/2 124/3/2
f 123/3/2 124/3/2 125/3/2
f 125/3/2 124/3/2 126/3/2
f 125/3/2 126/3/2 127/3/2
f 127/3/2 126/3/2 128/3/2
f 127/3/2 128/3/2 129/3/2
f 129/3/2 128/3/2 130/3/2
f 129/3/2 130/3/2 131/3/2
f 131/3/2 130/3/2 132/3/2
f 133/3/2 134/3/2 135/3/2
f 135/3/2 134/3/2 136/3/2
f 135/3/2 136/3/2 137/3/2
f 137/3/2 136/3/2 138/3/2
f 137/3/2 138/3/2 139/3/2
f 139/3/2 138/3/2 140/3/2
f 139/3/2 140/3/2 141/3/2
f 141/3/2 140/3/2 142/3/2
f 141/3/2 142/3/2 143/3/2
f 143/3/2 142/3/2 144/3/2
f 145/3/2 146/3/2 149/3/2
f 149/3/2 146/3/2 150/3/2
f 147/3/2 148/3/2 151/3/2
f 151/3/2 148/3/2 152/3/2
f 153/3/2 154/3/2 157/3/2
f 157/3/2 154/3/2 158/3/2
f 155/3/2 156/3/2 159/3/2
f 159/3/2 156/3/2 160/3/2
f 161/3/2 162/3/2 167/3/2
f 167/3/2 162/3/2 168/3/2
f 163/3/2 164/3/2 169/3/2
f 169/3/2 164/3/2 170/3/2
f 165/3/2 166/3/2 171/3/2
f 171/3/2 166/3/2 172/3/2
f 173/3/2 174/3/2 179/3/2
f 179/3/2 174/3/2 180/3/2
f 175/3/2 176/3/2 181/3/2
f 181/3/2 176/3/2 182/3/2
f 177/3/2 178/3/2 183/3/2
f 183/3/2 178/3/2 184/3/2
f 185/3/2 186/3/2 191/3/2
f 191/3/2 186/3/2 192/3/2
f 187/3/2 188/3/2 193/3/2
f 193/3/2 188/3/2 194/3/2
f 189/3/2 190/3/2 195/3/2
f 195/3/2 190/3/2 196/3/2
f 197/2/2 198/2/2 199/2/2
f 199/2/2 198/2/2 200/2/2
f 201/3/2 202/3/2 203/3/2
f 203/3/2 202/3/2 204/3/2
f 205/3/2 206/3/2 207/3/2
f 207/3/2 206/3/2 208/3/2
f 209/2/2 210/2/2 213/2/2
f 213/2/2 210/2/2 214/2/2
f 211/2/2 212/2/2 215/2/2
f 215/2/2 212/2/2 216/2/2
f 217/1/2 218/1/2 219/1/2
f 219/1/2 218/1/2 220/1/2
f 219/2/2 220/2/2 221/2/2
f 221/2/2 220/2/2 222/2/2
f 219/2/2 221/2/2 223/2/2
f 223/2/2 221/2/2 224/2/2
f 228/2/3 227/2/3 226/2/3
f 234/2/3 229/2/3 228/2/3
f 235/3/3 231/3/3 230/3/3
f 236/3/3 231/3/3 235/3/3
f 237/3/3 233/3/3 232/3/3
f 238/3/3 233/3/3 237/3/3
f 240/3/3 236/3/3 235/3/3
f 240/3/3 239/3/3 238/3/3
f 240/3/3 238/3/3 237/3/3
f 240/3/3 237/3/3 236/3/3
f 240/2/3 234/2/3 228/2/3
f 240/3/3 235/3/3 234/3/3
f 241/3/3 239/3/3 240/3/3
f 242/3/3 239/3/3 241/3/3
f 243/3/3 239/3/3 242/3/3
f 244/3/3 239/3/3 243/3/3
f 245/3/3 239/3/3 244/3/3
f 246/3/3 242/3/3 241/3/3
f 247/3/3 242/3/3 246/3/3
f 248/3/3 244/3/3 243/3/3
f 249/3/3 244/3/3 248/3/3
f 250/2/3 228/2/3 226/2/3
f 250/2/3 240/2/3 228/2/3
f 251/2/3 240/2/3 250/2/3
f 252/1/3 226/1/3 225/1/3
f 253/2/3 250/2/3 226/2/3
f 253/1/3 226/1/3 252/1/3
f 254/2/3 250/2/3 253/2/3
f 261/3/3 256/3/3 255/3/3
f 261/3/3 260/3/3 259/3/3
f 261/3/3 259/3/3 258/3/3
f 261/3/3 258/3/3 257/3/3
f 261/3/3 257/3/3 256/3/3
f 262/3/3 260/3/3 261/3/3
f 263/3/3 260/3/3 262/3/3
f 264/3/3 260/3/3 263/3/3
f 265/3/3 260/3/3 264/3/3
f 266/3/3 260/3/3 265/3/3
f 270/1/3 268/1/3 267/1/3
f 271/2/3 269/2/3 268/2/3
f 271/1/3 268/1/3 270/1/3
f 272/2/3 269/2/3 271/2/3
f 275/2/3 274/2/3 273/2/3
f 276/2/3 274/2/3 275/2/3
f 281/3/3 278/3/3 277/3/3
f 282/3/3 278/3/3 281/3/3
f 283/3/3 280/3/3 279/3/3
f 284/3/3 280/3/3 283/3/3
f 289/3/3 286/3/3 285/3/3
f 290/3/3 286/3/3 289/3/3
f 291/3/3 288/3/3 287/3/3
f 292/3/3 288/3/3 291/3/3
f 299/3/3 294/3/3 293/3/3
f 300/3/3 294/3/3 299/3/3
f 301/3/3 296/3/3 295/3/3
f 302/3/3 296/3/3 301/3/3
f 303/3/3 298/3/3 297/3/3
f 304/3/3 298/3/3 303/3/3
f 311/3/3 306/3/3 305/3/3
f 312/3/3 306/3/3 311/3/3
f 313/3/3 308/3/3 307/3/3
f 314/3/3 308/3/3 313/3/3
f 315/3/3 310/3/3 309/3/3
f 316/3/3 310/3/3 315/3/3
f 323/3/3 318/3/3 317/3/3
f 324/3/3 318/3/3 323/3/3
f 325/3/3 320/3/3 319/3/3
f 326/3/3 320/3/3 325/3/3
f 327/3/3 322/3/3 321/3/3
f 328/3/3 322/3/3 327/3/3
f 333/3/3 330/3/3 329/3/3
f 334/3/3 330/3/3 333/3/3
f 335/3/3 332/3/3 331/3/3
f 336/3/3 332/3/3 335/3/3
f 341/3/3 338/3/3 337/3/3
f 342/3/3 338/3/3 341/3/3
f 343/3/3 340/3/3 339/3/3
f 344/3/3 340/3/3 343/3/3
f 345/3/4 346/3/4 351/3/4
f 349/3/4 350/3/4 351/3/4
f 348/3/4 349/3/4 351/3/4
f 347/3/4 348/3/4 351/3/4
f 346/3/4 347/3/4 351/3/4
f 351/3/4 350/3/4 352/3/4
f 352/3/4 350/3/4 353/3/4
f 353/3/4 350/3/4 354/3/4
f 354/3/4 350/3/4 355/3/4
f 355/3/4 350/3/4 356/3/4
f 357/3/4 358/3/4 363/3/4
f 361/3/4 362/3/4 363/3/4
f 360/3/4 361/3/4 363/3/4
f 359/3/4 360/3/4 363/3/4
f 358/3/4 359/3/4 363/3/4
f 363/3/4 362/3/4 364/3/4
f 364/3/4 362/3/4 365/3/4
f 365/3/4 362/3/4 366/3/4
f 366/3/4 362/3/4 367/3/4
f 367/3/4 362/3/4 368/3/4
f 369/3/4 370/3/4 373/3/4
f 373/3/4 370/3/4 374/3/4
f 371/3/4 372/3/4 375/3/4
f 375/3/4 372/3/4 376/3/4
f 377/3/4 378/3/4 381/3/4
f 381/3/4 378/3/4 382/3/4
f 379/3/4 380/3/4 383/3/4
f 383/3/4 380/3/4 384/3/4
f 385/3/4 386/3/4 391/3/4
f 391/3/4 386/3/4 392/3/4
f 387/3/4 388/3/4 393/3/4
f 393/3/4 388/3/4 394/3/4
f 389/3/4 390/3/4 395/3/4
f 395/3/4 390/3/4 396/3/4
f 397/3/4 398/3/4 403/3/4
f 403/3/4 398/3/4 404/3/4
f 399/3/4 400/3/4 405/3/4
f 405/3/4 400/3/4 406/3/4
f 401/3/4 402/3/4 407/3/4
f 407/3/4 402/3/4 408/3/4
f 409/3/4 410/3/4 415/3/4
f 415/3/4 410/3/4 416/3/4
f 411/3/4 412/3/4 417/3/4
f 417/3/4 412/3/4 418/3/4
f 413/3/4 414/3/4 419/3/4
f 419/3/4 414/3/4 420/3/4
f 421/3/4 422/3/4 427/3/4
f 427/3/4 422/3/4 428/3/4
f 423/3/4 424/3/4 429/3/4
f 429/3/4 424/3/4 430/3/4
f 425/2/4 426/2/4 431/2/4
f 431/2/4 426/2/4 432/2/4
f 433/2/4 434/2/4 435/2/4
f 435/2/4 434/2/4 436/2/4
f 437/2/4 438/2/4 439/2/4
f 439/2/4 438/2/4 440/2/4
f 442/2/4 443/2/4 444/2/4
f 444/2/4 443/2/4 445/2/4
f 441/1/4 442/1/4 446/1/4
f 442/2/4 444/2/4 447/2/4
f 446/1/4 442/1/4 447/1/4
f 447/2/4 444/2/4 448/2/4
f 452/1/5 450/1/5 449/1/5
f 453/1/5 452/1/5 451/1/5
f 454/1/5 450/1/5 452/1/5
f 454/1/5 452/1/5 453/1/5
f 459/3/5 456/3/5 455/3/5
f 460/3/5 458/3/5 457/3/5
f 461/3/5 459/3/5 455/3/5
f 462/3/5 458/3/5 460/3/5
f 463/3/5 461/3/5 455/3/5
f 464/3/5 458/3/5 462/3/5
f 466/3/5 463/3/5 455/3/5
f 467/3/5 463/3/5 466/3/5
f 468/3/5 458/3/5 464/3/5
f 469/3/5 467/3/5 466/3/5
f 469/3/5 468/3/5 467/3/5
f 469/3/5 466/3/5 465/3/5
f 470/3/5 468/3/5 469/3/5
f 471/3/5 468/3/5 470/3/5
f 472/3/5 468/3/5 471/3/5
f 473/3/5 468/3/5 472/3/5
f 474/3/5 468/3/5 473/3/5
f 475/3/5 458/3/5 468/3/5
f 475/3/5 468/3/5 474/3/5
f 480/3/5 474/3/5 473/3/5
f 481/3/5 474/3/5 480/3/5
f 482/3/5 458/3/5 475/3/5
f 483/3/5 479/3/5 478/3/5
f 483/3/5 482/3/5 481/3/5
f 483/3/5 481/3/5 480/3/5
f 483/3/5 477/3/5 476/3/5
f 483/3/5 480/3/5 479/3/5
f 483/3/5 478/3/5 477/3/5
f 484/3/5 458/3/5 482/3/5
f 484/3/5 482/3/5 483/3/5
f 489/3/5 486/3/5 485/3/5
f 490/3/5 488/3/5 487/3/5
f 491/3/5 489/3/5 485/3/5
f 492/3/5 488/3/5 490/3/5
f 493/3/5 491/3/5 485/3/5
f 494/3/5 488/3/5 492/3/5
f 496/3/5 493/3/5 485/3/5
f 497/3/5 493/3/5 496/3/5
f 498/3/5 488/3/5 494/3/5
f 499/3/5 497/3/5 496/3/5
f 499/3/5 498/3/5 497/3/5
f 499/3/5 496/3/5 495/3/5
f 500/3/5 498/3/5 499/3/5
f 501/3/5 498/3/5 500/3/5
f 502/3/5 498/3/5 501/3/5
f 503/3/5 498/3/5 502/3/5
f 504/3/5 498/3/5 503/3/5
f 505/3/5 488/3/5 498/3/5
f 505/3/5 498/3/5 504/3/5
f 510/3/5 504/3/5 503/3/5
f 511/3/5 504/3/5 510/3/5
f 512/3/5 488/3/5 505/3/5
f 513/3/5 509/3/5 508/3/5
f 513/3/5 512/3/5 511/3/5
f 513/3/5 511/3/5 510/3/5
f 513/3/5 507/3/5 506/3/5
f 513/3/5 510/3/5 509/3/5
f 513/3/5 508/3/5 507/3/5
f 514/3/5 488/3/5 512/3/5
f 514/3/5 512/3/5 513/3/5
f 515/2/6 516/2/6 517/2/6
f 517/2/6 516/2/6 518/2/6
f 519/2/6 520/2/6 524/2/6
f 523/2/6 524/2/6 525/2/6
f 524/2/6 520/2/6 526/2/6
f 525/2/6 524/2/6 526/2/6
f 521/2/6 522/2/6 528/2/6
f 527/2/6 528/2/6 530/2/6
f 528/2/6 522/2/6 531/2/6
f 530/2/6 528/2/6 531/2/6
f 531/2/6 522/2/6 532/2/6
f 529/2/6 530/2/6 533/2/6
f 530/2/6 531/2/6 533/2/6
f 533/2/6 531/2/6 534/2/6
f 535/2/6 536/2/6 539/2/6
f 537/2/6 538/2/6 540/2/6
f 535/2/6 539/2/6 541/2/6
f 539/2/6 540/2/6 541/2/6
f 540/2/6 538/2/6 542/2/6
f 541/2/6 540/2/6 542/2/6
f 535/2/6 541/2/6 543/2/6
f 542/2/6 538/2/6 544/2/6
f 535/2/6 543/2/6 546/2/6
f 543/2/6 544/2/6 546/2/6
f 545/2/6 546/2/6 547/2/6
f 547/2/6 546/2/6 548/2/6
f 548/2/6 546/2/6 549/2/6
f 549/2/6 546/2/6 550/2/6
f 546/2/6 544/2/6 551/2/6
f 550/2/6 546/2/6 551/2/6
f 544/2/6 538/2/6 552/2/6
f 551/2/6 544/2/6 552/2/6
f 548/2/6 549/2/6 554/2/6
f 554/2/6 549/2/6 555/2/6
f 550/2/6 551/2/6 556/2/6
f 556/2/6 551/2/6 557/2/6
f 552/2/6 538/2/6 558/2/6
f 554/2/6 555/2/6 559/2/6
f 557/2/6 558/2/6 559/2/6
f 558/2/6 538/2/6 559/2/6
f 556/2/6 557/2/6 559/2/6
f 555/2/6 556/2/6 559/2/6
f 553/2/6 554/2/6 559/2/6
f 559/2/6 538/2/6 560/2/6
f 553/2/6 559/2/6 561/2/6
f 561/2/6 559/2/6 562/2/6
f 563/3/6 564/3/6 567/3/6
f 565/3/6 566/3/6 568/3/6
f 563/3/6 567/3/6 569/3/6
f 568/3/6 566/3/6 570/3/6
f 563/3/6 569/3/6 571/3/6
f 570/3/6 566/3/6 572/3/6
f 563/3/6 571/3/6 574/3/6
f 574/3/6 571/3/6 575/3/6
f 572/3/6 566/3/6 576/3/6
f 574/3/6 575/3/6 577/3/6
f 575/3/6 576/3/6 577/3/6
f 573/3/6 574/3/6 577/3/6
f 577/3/6 576/3/6 578/3/6
f 578/3/6 576/3/6 579/3/6
f 579/3/6 576/3/6 580/3/6
f 580/3/6 576/3/6 581/3/6
f 581/3/6 576/3/6 582/3/6
f 576/3/6 566/3/6 583/3/6
f 582/3/6 576/3/6 583/3/6
f 581/3/6 582/3/6 588/3/6
f 588/3/6 582/3/6 589/3/6
f 583/3/6 566/3/6 590/3/6
f 586/3/6 587/3/6 591/3/6
f 589/3/6 590/3/6 591/3/6
f 588/3/6 589/3/6 591/3/6
f 584/3/6 585/3/6 591/3/6
f 587/3/6 588/3/6 591/3/6
f 585/3/6 586/3/6 591/3/6
f 590/3/6 566/3/6 592/3/6
f 591/3/6 590/3/6 592/3/6
f 593/3/6 594/3/6 597/3/6
f 595/3/6 596/3/6 598/3/6
f 593/3/6 597/3/6 599/3/6
f 598/3/6 596/3/6 600/3/6
f 593/3/6 599/3/6 601/3/6
f 600/3/6 596/3/6 602/3/6
f 593/3/6 601/3/6 604/3/6
f 604/3/6 601/3/6 605/3/6
f 602/3/6 596/3/6 606/3/6
f 604/3/6 605/3/6 607/3/6
f 605/3/6 606/3/6 607/3/6
f 603/3/6 604/3/6 607/3/6
f 607/3/6 606/3/6 608/3/6
f 608/3/6 606/3/6 609/3/6
f 609/3/6 606/3/6 610/3/6
f 610/3/6 606/3/6 611/3/6
f 611/3/6 606/3/6 612/3/6
f 606/3/6 596/3/6 613/3/6
f 612/3/6 606/3/6 613/3/6
f 611/3/6 612/3/6 618/3/6
f 618/3/6 612/3/6 619/3/6
f 613/3/6 596/3/6 620/3/6
f 616/3/6 617/3/6 621/3/6
f 619/3/6 620/3/6 621/3/6
f 618/3/6 619/3/6 621/3/6
f 614/3/6 615/3/6 621/3/6
f 617/3/6 618/3/6 621/3/6
f 615/3/6 616/3/6 621/3/6
f 620/3/6 596/3/6 622/3/6
f 621/3/6 620/3/6 622/3/6
f 623/3/6 624/3/6 625/3/6
f 625/3/6 624/3/6 626/3/6
f 627/3/6 628/3/6 629/3/6
f 629/3/6 628/3/6 630/3/6
f 631/3/6 632/3/6 637/3/6
f 637/3/6 632/3/6 638/3/6
f 633/3/6 634/3/6 639/3/6
f 639/3/6 634/3/6 640/3/6
f 635/3/6 636/3/6 641/3/6
f 641/3/6 636/3/6 642/3/6
