# MagicaVoxel @ Ephtracy

# group
o 

# material
mtllib Park_Fence_Pillar.mtl
usemtl palette

# normals
vn 1 0 0
vn -1 0 0
vn 0 0 -1
vn 0 0 1
vn 0 -1 0
vn 0 1 0

# texcoords
vt 0.673828 0.5
vt 0.716797 0.5

# verts
v 0.4 0 -0.3
v 0.4 0 0.3
v 0.4 0.1 -0.3
v 0.4 0.1 0.3
v 0.4 0.3 -0.3
v 0.4 0.3 0.3
v 0.4 0.4 -0.3
v 0.4 0.4 0.3
v 0.4 2.5 -0.3
v 0.4 2.5 0.3
v 0.4 2.6 -0.3
v 0.4 2.6 0.3
v 0.4 2.9 -0.3
v 0.4 2.9 0.3
v 0.3 0 -0.4
v 0.3 0 -0.3
v 0.3 0 0.3
v 0.3 0 0.4
v 0.3 0.1 -0.4
v 0.3 0.1 -0.3
v 0.3 0.1 0.3
v 0.3 0.1 0.4
v 0.3 0.3 -0.4
v 0.3 0.3 -0.3
v 0.3 0.3 0.3
v 0.3 0.3 0.4
v 0.3 0.4 -0.4
v 0.3 0.4 -0.3
v 0.3 0.4 0.3
v 0.3 0.4 0.4
v 0.3 2.5 -0.4
v 0.3 2.5 -0.3
v 0.3 2.5 0.3
v 0.3 2.5 0.4
v 0.3 2.6 -0.4
v 0.3 2.6 -0.3
v 0.3 2.6 0.3
v 0.3 2.6 0.4
v 0.3 2.9 -0.4
v 0.3 2.9 -0.3
v 0.3 2.9 -0.2
v 0.3 2.9 0.2
v 0.3 2.9 0.3
v 0.3 2.9 0.4
v 0.3 3 -0.2
v 0.3 3 0.2
v 0.2 2.9 -0.3
v 0.2 2.9 -0.2
v 0.2 2.9 0.2
v 0.2 2.9 0.3
v 0.2 3 -0.3
v 0.2 3 -0.2
v 0.2 3 0.2
v 0.2 3 0.3
v -0.2 2.9 -0.3
v -0.2 2.9 -0.2
v -0.2 2.9 0.2
v -0.2 2.9 0.3
v -0.2 3 -0.3
v -0.2 3 -0.2
v -0.2 3 0.2
v -0.2 3 0.3
v -0.3 0 -0.4
v -0.3 0 -0.3
v -0.3 0 0.3
v -0.3 0 0.4
v -0.3 0.1 -0.4
v -0.3 0.1 -0.3
v -0.3 0.1 0.3
v -0.3 0.1 0.4
v -0.3 0.3 -0.4
v -0.3 0.3 -0.3
v -0.3 0.3 0.3
v -0.3 0.3 0.4
v -0.3 0.4 -0.4
v -0.3 0.4 -0.3
v -0.3 0.4 0.3
v -0.3 0.4 0.4
v -0.3 2.5 -0.4
v -0.3 2.5 -0.3
v -0.3 2.5 0.3
v -0.3 2.5 0.4
v -0.3 2.6 -0.4
v -0.3 2.6 -0.3
v -0.3 2.6 0.3
v -0.3 2.6 0.4
v -0.3 2.9 -0.4
v -0.3 2.9 -0.3
v -0.3 2.9 -0.2
v -0.3 2.9 0.2
v -0.3 2.9 0.3
v -0.3 2.9 0.4
v -0.3 3 -0.2
v -0.3 3 0.2
v -0.4 0 -0.3
v -0.4 0 0.3
v -0.4 0.1 -0.3
v -0.4 0.1 0.3
v -0.4 0.3 -0.3
v -0.4 0.3 0.3
v -0.4 0.4 -0.3
v -0.4 0.4 0.3
v -0.4 2.5 -0.3
v -0.4 2.5 0.3
v -0.4 2.6 -0.3
v -0.4 2.6 0.3
v -0.4 2.9 -0.3
v -0.4 2.9 0.3
v 0.3 0 -0.4
v 0.3 0.1 -0.4
v 0.3 0.3 -0.4
v 0.3 0.4 -0.4
v 0.3 2.5 -0.4
v 0.3 2.6 -0.4
v 0.3 2.9 -0.4
v -0.3 0 -0.4
v -0.3 0.1 -0.4
v -0.3 0.3 -0.4
v -0.3 0.4 -0.4
v -0.3 2.5 -0.4
v -0.3 2.6 -0.4
v -0.3 2.9 -0.4
v 0.4 0 -0.3
v 0.4 0.1 -0.3
v 0.4 0.3 -0.3
v 0.4 0.4 -0.3
v 0.4 2.5 -0.3
v 0.4 2.6 -0.3
v 0.4 2.9 -0.3
v 0.3 0 -0.3
v 0.3 0.1 -0.3
v 0.3 0.3 -0.3
v 0.3 0.4 -0.3
v 0.3 2.5 -0.3
v 0.3 2.6 -0.3
v 0.3 2.9 -0.3
v 0.2 2.9 -0.3
v 0.2 3 -0.3
v -0.2 2.9 -0.3
v -0.2 3 -0.3
v -0.3 0 -0.3
v -0.3 0.1 -0.3
v -0.3 0.3 -0.3
v -0.3 0.4 -0.3
v -0.3 2.5 -0.3
v -0.3 2.6 -0.3
v -0.3 2.9 -0.3
v -0.4 0 -0.3
v -0.4 0.1 -0.3
v -0.4 0.3 -0.3
v -0.4 0.4 -0.3
v -0.4 2.5 -0.3
v -0.4 2.6 -0.3
v -0.4 2.9 -0.3
v 0.3 2.9 -0.2
v 0.3 3 -0.2
v 0.2 2.9 -0.2
v 0.2 3 -0.2
v -0.2 2.9 -0.2
v -0.2 3 -0.2
v -0.3 2.9 -0.2
v -0.3 3 -0.2
v 0.3 2.9 0.2
v 0.3 3 0.2
v 0.2 2.9 0.2
v 0.2 3 0.2
v -0.2 2.9 0.2
v -0.2 3 0.2
v -0.3 2.9 0.2
v -0.3 3 0.2
v 0.4 0 0.3
v 0.4 0.1 0.3
v 0.4 0.3 0.3
v 0.4 0.4 0.3
v 0.4 2.5 0.3
v 0.4 2.6 0.3
v 0.4 2.9 0.3
v 0.3 0 0.3
v 0.3 0.1 0.3
v 0.3 0.3 0.3
v 0.3 0.4 0.3
v 0.3 2.5 0.3
v 0.3 2.6 0.3
v 0.3 2.9 0.3
v 0.2 2.9 0.3
v 0.2 3 0.3
v -0.2 2.9 0.3
v -0.2 3 0.3
v -0.3 0 0.3
v -0.3 0.1 0.3
v -0.3 0.3 0.3
v -0.3 0.4 0.3
v -0.3 2.5 0.3
v -0.3 2.6 0.3
v -0.3 2.9 0.3
v -0.4 0 0.3
v -0.4 0.1 0.3
v -0.4 0.3 0.3
v -0.4 0.4 0.3
v -0.4 2.5 0.3
v -0.4 2.6 0.3
v -0.4 2.9 0.3
v 0.3 0 0.4
v 0.3 0.1 0.4
v 0.3 0.3 0.4
v 0.3 0.4 0.4
v 0.3 2.5 0.4
v 0.3 2.6 0.4
v 0.3 2.9 0.4
v -0.3 0 0.4
v -0.3 0.1 0.4
v -0.3 0.3 0.4
v -0.3 0.4 0.4
v -0.3 2.5 0.4
v -0.3 2.6 0.4
v -0.3 2.9 0.4
v 0.3 0 -0.4
v -0.3 0 -0.4
v 0.4 0 -0.3
v 0.3 0 -0.3
v -0.3 0 -0.3
v -0.4 0 -0.3
v 0.4 0 0.3
v 0.3 0 0.3
v -0.3 0 0.3
v -0.4 0 0.3
v 0.3 0 0.4
v -0.3 0 0.4
v 0.3 0.4 -0.4
v -0.3 0.4 -0.4
v 0.4 0.4 -0.3
v 0.3 0.4 -0.3
v -0.3 0.4 -0.3
v -0.4 0.4 -0.3
v 0.4 0.4 0.3
v 0.3 0.4 0.3
v -0.3 0.4 0.3
v -0.4 0.4 0.3
v 0.3 0.4 0.4
v -0.3 0.4 0.4
v 0.3 2.6 -0.4
v -0.3 2.6 -0.4
v 0.4 2.6 -0.3
v 0.3 2.6 -0.3
v -0.3 2.6 -0.3
v -0.4 2.6 -0.3
v 0.4 2.6 0.3
v 0.3 2.6 0.3
v -0.3 2.6 0.3
v -0.4 2.6 0.3
v 0.3 2.6 0.4
v -0.3 2.6 0.4
v 0.3 0.3 -0.4
v -0.3 0.3 -0.4
v 0.4 0.3 -0.3
v 0.3 0.3 -0.3
v -0.3 0.3 -0.3
v -0.4 0.3 -0.3
v 0.4 0.3 0.3
v 0.3 0.3 0.3
v -0.3 0.3 0.3
v -0.4 0.3 0.3
v 0.3 0.3 0.4
v -0.3 0.3 0.4
v 0.3 2.5 -0.4
v -0.3 2.5 -0.4
v 0.4 2.5 -0.3
v 0.3 2.5 -0.3
v -0.3 2.5 -0.3
v -0.4 2.5 -0.3
v 0.4 2.5 0.3
v 0.3 2.5 0.3
v -0.3 2.5 0.3
v -0.4 2.5 0.3
v 0.3 2.5 0.4
v -0.3 2.5 0.4
v 0.3 2.9 -0.4
v -0.3 2.9 -0.4
v 0.4 2.9 -0.3
v 0.3 2.9 -0.3
v 0.2 2.9 -0.3
v -0.2 2.9 -0.3
v -0.3 2.9 -0.3
v -0.4 2.9 -0.3
v 0.3 2.9 -0.2
v 0.2 2.9 -0.2
v -0.2 2.9 -0.2
v -0.3 2.9 -0.2
v 0.3 2.9 0.2
v 0.2 2.9 0.2
v -0.2 2.9 0.2
v -0.3 2.9 0.2
v 0.4 2.9 0.3
v 0.3 2.9 0.3
v 0.2 2.9 0.3
v -0.2 2.9 0.3
v -0.3 2.9 0.3
v -0.4 2.9 0.3
v 0.3 2.9 0.4
v -0.3 2.9 0.4
v 0.2 3 -0.3
v -0.2 3 -0.3
v 0.3 3 -0.2
v 0.2 3 -0.2
v -0.2 3 -0.2
v -0.3 3 -0.2
v 0.3 3 0.2
v 0.2 3 0.2
v -0.2 3 0.2
v -0.3 3 0.2
v 0.2 3 0.3
v -0.2 3 0.3

# faces
f 3/1/1 2/1/1 1/1/1
f 4/1/1 2/1/1 3/1/1
f 5/2/1 4/2/1 3/2/1
f 6/2/1 4/2/1 5/2/1
f 9/2/1 8/2/1 7/2/1
f 10/2/1 8/2/1 9/2/1
f 13/2/1 12/2/1 11/2/1
f 14/2/1 12/2/1 13/2/1
f 19/1/1 16/1/1 15/1/1
f 20/1/1 16/1/1 19/1/1
f 21/1/1 18/1/1 17/1/1
f 22/1/1 18/1/1 21/1/1
f 23/2/1 20/2/1 19/2/1
f 24/2/1 20/2/1 23/2/1
f 25/2/1 22/2/1 21/2/1
f 26/2/1 22/2/1 25/2/1
f 28/1/1 25/1/1 24/1/1
f 29/1/1 25/1/1 28/1/1
f 31/2/1 28/2/1 27/2/1
f 32/2/1 28/2/1 31/2/1
f 33/2/1 30/2/1 29/2/1
f 34/2/1 30/2/1 33/2/1
f 36/1/1 33/1/1 32/1/1
f 37/1/1 33/1/1 36/1/1
f 39/2/1 36/2/1 35/2/1
f 40/2/1 36/2/1 39/2/1
f 43/2/1 38/2/1 37/2/1
f 44/2/1 38/2/1 43/2/1
f 45/2/1 42/2/1 41/2/1
f 46/2/1 42/2/1 45/2/1
f 51/2/1 48/2/1 47/2/1
f 52/2/1 48/2/1 51/2/1
f 53/2/1 50/2/1 49/2/1
f 54/2/1 50/2/1 53/2/1
f 55/2/2 56/2/2 59/2/2
f 59/2/2 56/2/2 60/2/2
f 57/2/2 58/2/2 61/2/2
f 61/2/2 58/2/2 62/2/2
f 63/1/2 64/1/2 67/1/2
f 67/1/2 64/1/2 68/1/2
f 65/1/2 66/1/2 69/1/2
f 69/1/2 66/1/2 70/1/2
f 67/2/2 68/2/2 71/2/2
f 71/2/2 68/2/2 72/2/2
f 69/2/2 70/2/2 73/2/2
f 73/2/2 70/2/2 74/2/2
f 72/1/2 73/1/2 76/1/2
f 76/1/2 73/1/2 77/1/2
f 75/2/2 76/2/2 79/2/2
f 79/2/2 76/2/2 80/2/2
f 77/2/2 78/2/2 81/2/2
f 81/2/2 78/2/2 82/2/2
f 80/1/2 81/1/2 84/1/2
f 84/1/2 81/1/2 85/1/2
f 83/2/2 84/2/2 87/2/2
f 87/2/2 84/2/2 88/2/2
f 85/2/2 86/2/2 91/2/2
f 91/2/2 86/2/2 92/2/2
f 89/2/2 90/2/2 93/2/2
f 93/2/2 90/2/2 94/2/2
f 95/1/2 96/1/2 97/1/2
f 97/1/2 96/1/2 98/1/2
f 97/2/2 98/2/2 99/2/2
f 99/2/2 98/2/2 100/2/2
f 101/2/2 102/2/2 103/2/2
f 103/2/2 102/2/2 104/2/2
f 105/2/2 106/2/2 107/2/2
f 107/2/2 106/2/2 108/2/2
f 116/1/3 110/1/3 109/1/3
f 117/2/3 111/2/3 110/2/3
f 117/1/3 110/1/3 116/1/3
f 118/2/3 111/2/3 117/2/3
f 119/2/3 113/2/3 112/2/3
f 120/2/3 113/2/3 119/2/3
f 121/2/3 115/2/3 114/2/3
f 122/2/3 115/2/3 121/2/3
f 130/1/3 124/1/3 123/1/3
f 131/2/3 125/2/3 124/2/3
f 131/1/3 124/1/3 130/1/3
f 132/2/3 125/2/3 131/2/3
f 133/2/3 127/2/3 126/2/3
f 134/2/3 127/2/3 133/2/3
f 135/2/3 129/2/3 128/2/3
f 136/2/3 129/2/3 135/2/3
f 139/2/3 138/2/3 137/2/3
f 140/2/3 138/2/3 139/2/3
f 143/1/3 133/1/3 132/1/3
f 144/1/3 133/1/3 143/1/3
f 145/1/3 135/1/3 134/1/3
f 146/1/3 135/1/3 145/1/3
f 148/1/3 142/1/3 141/1/3
f 149/2/3 143/2/3 142/2/3
f 149/1/3 142/1/3 148/1/3
f 150/2/3 143/2/3 149/2/3
f 151/2/3 145/2/3 144/2/3
f 152/2/3 145/2/3 151/2/3
f 153/2/3 147/2/3 146/2/3
f 154/2/3 147/2/3 153/2/3
f 157/2/3 156/2/3 155/2/3
f 158/2/3 156/2/3 157/2/3
f 161/2/3 160/2/3 159/2/3
f 162/2/3 160/2/3 161/2/3
f 163/2/4 164/2/4 165/2/4
f 165/2/4 164/2/4 166/2/4
f 167/2/4 168/2/4 169/2/4
f 169/2/4 168/2/4 170/2/4
f 171/1/4 172/1/4 178/1/4
f 172/2/4 173/2/4 179/2/4
f 178/1/4 172/1/4 179/1/4
f 179/2/4 173/2/4 180/2/4
f 174/2/4 175/2/4 181/2/4
f 181/2/4 175/2/4 182/2/4
f 176/2/4 177/2/4 183/2/4
f 183/2/4 177/2/4 184/2/4
f 185/2/4 186/2/4 187/2/4
f 187/2/4 186/2/4 188/2/4
f 180/1/4 181/1/4 191/1/4
f 191/1/4 181/1/4 192/1/4
f 182/1/4 183/1/4 193/1/4
f 193/1/4 183/1/4 194/1/4
f 189/1/4 190/1/4 196/1/4
f 190/2/4 191/2/4 197/2/4
f 196/1/4 190/1/4 197/1/4
f 197/2/4 191/2/4 198/2/4
f 192/2/4 193/2/4 199/2/4
f 199/2/4 193/2/4 200/2/4
f 194/2/4 195/2/4 201/2/4
f 201/2/4 195/2/4 202/2/4
f 203/1/4 204/1/4 210/1/4
f 204/2/4 205/2/4 211/2/4
f 210/1/4 204/1/4 211/1/4
f 211/2/4 205/2/4 212/2/4
f 206/2/4 207/2/4 213/2/4
f 213/2/4 207/2/4 214/2/4
f 208/2/4 209/2/4 215/2/4
f 215/2/4 209/2/4 216/2/4
f 220/1/5 218/1/5 217/1/5
f 221/1/5 218/1/5 220/1/5
f 223/1/5 220/1/5 219/1/5
f 223/1/5 222/1/5 221/1/5
f 223/1/5 221/1/5 220/1/5
f 224/1/5 222/1/5 223/1/5
f 225/1/5 222/1/5 224/1/5
f 226/1/5 222/1/5 225/1/5
f 227/1/5 225/1/5 224/1/5
f 228/1/5 225/1/5 227/1/5
f 232/2/5 230/2/5 229/2/5
f 233/2/5 230/2/5 232/2/5
f 235/2/5 232/2/5 231/2/5
f 236/2/5 232/2/5 235/2/5
f 237/2/5 234/2/5 233/2/5
f 238/2/5 234/2/5 237/2/5
f 239/2/5 237/2/5 236/2/5
f 240/2/5 237/2/5 239/2/5
f 244/2/5 242/2/5 241/2/5
f 245/2/5 242/2/5 244/2/5
f 247/2/5 244/2/5 243/2/5
f 248/2/5 244/2/5 247/2/5
f 249/2/5 246/2/5 245/2/5
f 250/2/5 246/2/5 249/2/5
f 251/2/5 249/2/5 248/2/5
f 252/2/5 249/2/5 251/2/5
f 253/2/6 254/2/6 256/2/6
f 256/2/6 254/2/6 257/2/6
f 255/2/6 256/2/6 259/2/6
f 259/2/6 256/2/6 260/2/6
f 257/2/6 258/2/6 261/2/6
f 261/2/6 258/2/6 262/2/6
f 260/2/6 261/2/6 263/2/6
f 263/2/6 261/2/6 264/2/6
f 265/2/6 266/2/6 268/2/6
f 268/2/6 266/2/6 269/2/6
f 267/2/6 268/2/6 271/2/6
f 271/2/6 268/2/6 272/2/6
f 269/2/6 270/2/6 273/2/6
f 273/2/6 270/2/6 274/2/6
f 272/2/6 273/2/6 275/2/6
f 275/2/6 273/2/6 276/2/6
f 277/2/6 278/2/6 280/2/6
f 280/2/6 278/2/6 281/2/6
f 281/2/6 278/2/6 282/2/6
f 282/2/6 278/2/6 283/2/6
f 279/2/6 280/2/6 285/2/6
f 280/2/6 281/2/6 285/2/6
f 285/2/6 281/2/6 286/2/6
f 283/2/6 284/2/6 287/2/6
f 282/2/6 283/2/6 287/2/6
f 287/2/6 284/2/6 288/2/6
f 279/2/6 285/2/6 289/2/6
f 288/2/6 284/2/6 292/2/6
f 289/2/6 290/2/6 293/2/6
f 279/2/6 289/2/6 293/2/6
f 293/2/6 290/2/6 294/2/6
f 294/2/6 290/2/6 295/2/6
f 291/2/6 292/2/6 296/2/6
f 292/2/6 284/2/6 297/2/6
f 296/2/6 292/2/6 297/2/6
f 297/2/6 284/2/6 298/2/6
f 294/2/6 295/2/6 299/2/6
f 295/2/6 296/2/6 299/2/6
f 296/2/6 297/2/6 299/2/6
f 299/2/6 297/2/6 300/2/6
f 301/2/6 302/2/6 304/2/6
f 304/2/6 302/2/6 305/2/6
f 303/2/6 304/2/6 307/2/6
f 305/2/6 306/2/6 307/2/6
f 304/2/6 305/2/6 307/2/6
f 307/2/6 306/2/6 308/2/6
f 308/2/6 306/2/6 309/2/6
f 309/2/6 306/2/6 310/2/6
f 308/2/6 309/2/6 311/2/6
f 311/2/6 309/2/6 312/2/6
