# MagicaVoxel @ Ephtracy

# group
o 

# material
mtllib Park_Bench_Wood_02.mtl
usemtl palette

# normals
vn -1 0 0
vn 1 0 0
vn 0 0 1
vn 0 0 -1
vn 0 -1 0
vn 0 1 0

# texcoords
vt 0.783203 0.5
vt 0.951172 0.5
vt 0.955078 0.5

# verts
v -1.6 0.4 0.6
v -1.6 0.4 0.5
v -1.6 0.4 0.4
v -1.6 0.4 0.1
v -1.6 0.4 0
v -1.6 0.4 -0.3
v -1.6 0.4 -0.4
v -1.6 0.4 -0.5
v -1.6 0.5 0.6
v -1.6 0.5 0.5
v -1.6 0.5 0.4
v -1.6 0.5 0.1
v -1.6 0.5 0
v -1.6 0.5 -0.3
v -1.6 0.5 -0.4
v -1.6 0.5 -0.5
v -1.5 0 0.6
v -1.5 0 0.5
v -1.5 0 -0.4
v -1.5 0 -0.5
v -1.5 0.1 0.5
v -1.5 0.1 -0.4
v -1.5 0.2 0.7
v -1.5 0.2 0.6
v -1.5 0.2 -0.5
v -1.5 0.2 -0.6
v -1.5 0.4 0.6
v -1.5 0.4 -0.5
v -1.5 0.5 0.6
v -1.5 0.5 -0.5
v -1.5 0.6 0.7
v -1.5 0.6 0.6
v -1.5 0.6 -0.5
v -1.5 0.6 -0.6
v -1.5 0.7 0.6
v -1.5 0.7 -0.5
v -0.7 0.2 0.6
v -0.7 0.2 0.5
v -0.7 0.2 -0.4
v -0.7 0.2 -0.5
v -0.7 0.3 0.6
v -0.7 0.3 0.5
v -0.7 0.3 -0.4
v -0.7 0.3 -0.5
v -0.7 0.4 0.6
v -0.7 0.4 0.5
v -0.7 0.4 0.4
v -0.7 0.4 0.1
v -0.7 0.4 0
v -0.7 0.4 -0.3
v -0.7 0.4 -0.4
v -0.7 0.4 -0.5
v 0.6 0.2 0.6
v 0.6 0.2 0.5
v 0.6 0.2 -0.4
v 0.6 0.2 -0.5
v 0.6 0.3 0.6
v 0.6 0.3 0.5
v 0.6 0.3 -0.4
v 0.6 0.3 -0.5
v 0.6 0.4 0.6
v 0.6 0.4 0.5
v 0.6 0.4 0.4
v 0.6 0.4 0.1
v 0.6 0.4 0
v 0.6 0.4 -0.3
v 0.6 0.4 -0.4
v 0.6 0.4 -0.5
v 1.4 0 0.6
v 1.4 0 0.5
v 1.4 0 -0.4
v 1.4 0 -0.5
v 1.4 0.1 0.6
v 1.4 0.1 0.5
v 1.4 0.1 -0.4
v 1.4 0.1 -0.5
v 1.4 0.2 0.7
v 1.4 0.2 0.6
v 1.4 0.2 0.5
v 1.4 0.2 -0.4
v 1.4 0.2 -0.5
v 1.4 0.2 -0.6
v 1.4 0.3 0.7
v 1.4 0.3 0.6
v 1.4 0.3 -0.5
v 1.4 0.3 -0.6
v 1.4 0.4 0.7
v 1.4 0.4 0.6
v 1.4 0.4 -0.5
v 1.4 0.4 -0.6
v 1.4 0.5 0.6
v 1.4 0.5 -0.5
v 1.4 0.6 0.7
v 1.4 0.6 0.6
v 1.4 0.6 -0.5
v 1.4 0.6 -0.6
v 1.4 0.7 0.6
v 1.4 0.7 -0.5
v -1.4 0 0.6
v -1.4 0 0.5
v -1.4 0 -0.4
v -1.4 0 -0.5
v -1.4 0.1 0.6
v -1.4 0.1 0.5
v -1.4 0.1 -0.4
v -1.4 0.1 -0.5
v -1.4 0.2 0.7
v -1.4 0.2 0.6
v -1.4 0.2 0.5
v -1.4 0.2 -0.4
v -1.4 0.2 -0.5
v -1.4 0.2 -0.6
v -1.4 0.3 0.7
v -1.4 0.3 0.6
v -1.4 0.3 -0.5
v -1.4 0.3 -0.6
v -1.4 0.4 0.7
v -1.4 0.4 0.6
v -1.4 0.4 -0.5
v -1.4 0.4 -0.6
v -1.4 0.5 0.6
v -1.4 0.5 -0.5
v -1.4 0.6 0.7
v -1.4 0.6 0.6
v -1.4 0.6 -0.5
v -1.4 0.6 -0.6
v -1.4 0.7 0.6
v -1.4 0.7 -0.5
v -0.6 0.2 0.6
v -0.6 0.2 0.5
v -0.6 0.2 -0.4
v -0.6 0.2 -0.5
v -0.6 0.3 0.6
v -0.6 0.3 0.5
v -0.6 0.3 -0.4
v -0.6 0.3 -0.5
v -0.6 0.4 0.6
v -0.6 0.4 0.5
v -0.6 0.4 0.4
v -0.6 0.4 0.1
v -0.6 0.4 0
v -0.6 0.4 -0.3
v -0.6 0.4 -0.4
v -0.6 0.4 -0.5
v 0.7 0.2 0.6
v 0.7 0.2 0.5
v 0.7 0.2 -0.4
v 0.7 0.2 -0.5
v 0.7 0.3 0.6
v 0.7 0.3 0.5
v 0.7 0.3 -0.4
v 0.7 0.3 -0.5
v 0.7 0.4 0.6
v 0.7 0.4 0.5
v 0.7 0.4 0.4
v 0.7 0.4 0.1
v 0.7 0.4 0
v 0.7 0.4 -0.3
v 0.7 0.4 -0.4
v 0.7 0.4 -0.5
v 1.5 0 0.6
v 1.5 0 0.5
v 1.5 0 -0.4
v 1.5 0 -0.5
v 1.5 0.1 0.5
v 1.5 0.1 -0.4
v 1.5 0.2 0.7
v 1.5 0.2 0.6
v 1.5 0.2 -0.5
v 1.5 0.2 -0.6
v 1.5 0.4 0.6
v 1.5 0.4 -0.5
v 1.5 0.5 0.6
v 1.5 0.5 -0.5
v 1.5 0.6 0.7
v 1.5 0.6 0.6
v 1.5 0.6 -0.5
v 1.5 0.6 -0.6
v 1.5 0.7 0.6
v 1.5 0.7 -0.5
v 1.6 0.4 0.6
v 1.6 0.4 0.5
v 1.6 0.4 0.4
v 1.6 0.4 0.1
v 1.6 0.4 0
v 1.6 0.4 -0.3
v 1.6 0.4 -0.4
v 1.6 0.4 -0.5
v 1.6 0.5 0.6
v 1.6 0.5 0.5
v 1.6 0.5 0.4
v 1.6 0.5 0.1
v 1.6 0.5 0
v 1.6 0.5 -0.3
v 1.6 0.5 -0.4
v 1.6 0.5 -0.5
v -1.5 0.2 0.7
v -1.5 0.6 0.7
v -1.4 0.2 0.7
v -1.4 0.3 0.7
v -1.4 0.4 0.7
v -1.4 0.6 0.7
v 1.4 0.2 0.7
v 1.4 0.3 0.7
v 1.4 0.4 0.7
v 1.4 0.6 0.7
v 1.5 0.2 0.7
v 1.5 0.6 0.7
v -1.6 0.4 0.6
v -1.6 0.5 0.6
v -1.5 0 0.6
v -1.5 0.2 0.6
v -1.5 0.4 0.6
v -1.5 0.5 0.6
v -1.5 0.6 0.6
v -1.5 0.7 0.6
v -1.4 0 0.6
v -1.4 0.1 0.6
v -1.4 0.2 0.6
v -1.4 0.4 0.6
v -1.4 0.5 0.6
v -1.4 0.6 0.6
v -1.4 0.7 0.6
v -0.7 0.2 0.6
v -0.7 0.3 0.6
v -0.6 0.2 0.6
v -0.6 0.3 0.6
v 0.6 0.2 0.6
v 0.6 0.3 0.6
v 0.7 0.2 0.6
v 0.7 0.3 0.6
v 1.4 0 0.6
v 1.4 0.1 0.6
v 1.4 0.2 0.6
v 1.4 0.4 0.6
v 1.4 0.5 0.6
v 1.4 0.6 0.6
v 1.4 0.7 0.6
v 1.5 0 0.6
v 1.5 0.2 0.6
v 1.5 0.4 0.6
v 1.5 0.5 0.6
v 1.5 0.6 0.6
v 1.5 0.7 0.6
v 1.6 0.4 0.6
v 1.6 0.5 0.6
v -1.6 0.4 0.4
v -1.6 0.5 0.4
v -0.7 0.4 0.4
v -0.6 0.4 0.4
v 0.6 0.4 0.4
v 0.7 0.4 0.4
v 1.6 0.4 0.4
v 1.6 0.5 0.4
v -1.6 0.4 0
v -1.6 0.5 0
v -0.7 0.4 0
v -0.6 0.4 0
v 0.6 0.4 0
v 0.7 0.4 0
v 1.6 0.4 0
v 1.6 0.5 0
v -1.6 0.4 -0.4
v -1.6 0.5 -0.4
v -1.5 0 -0.4
v -1.5 0.1 -0.4
v -1.4 0 -0.4
v -1.4 0.1 -0.4
v -1.4 0.2 -0.4
v -0.7 0.2 -0.4
v -0.7 0.3 -0.4
v -0.7 0.4 -0.4
v -0.6 0.2 -0.4
v -0.6 0.3 -0.4
v -0.6 0.4 -0.4
v 0.6 0.2 -0.4
v 0.6 0.3 -0.4
v 0.6 0.4 -0.4
v 0.7 0.2 -0.4
v 0.7 0.3 -0.4
v 0.7 0.4 -0.4
v 1.4 0 -0.4
v 1.4 0.1 -0.4
v 1.4 0.2 -0.4
v 1.5 0 -0.4
v 1.5 0.1 -0.4
v 1.6 0.4 -0.4
v 1.6 0.5 -0.4
v -1.5 0.2 -0.5
v -1.5 0.4 -0.5
v -1.5 0.5 -0.5
v -1.5 0.6 -0.5
v -1.4 0.2 -0.5
v -1.4 0.3 -0.5
v -1.4 0.4 -0.5
v -1.4 0.5 -0.5
v -1.4 0.6 -0.5
v -0.7 0.3 -0.5
v -0.7 0.4 -0.5
v -0.6 0.3 -0.5
v -0.6 0.4 -0.5
v 0.6 0.3 -0.5
v 0.6 0.4 -0.5
v 0.7 0.3 -0.5
v 0.7 0.4 -0.5
v 1.4 0.2 -0.5
v 1.4 0.3 -0.5
v 1.4 0.4 -0.5
v 1.4 0.5 -0.5
v 1.4 0.6 -0.5
v 1.5 0.2 -0.5
v 1.5 0.4 -0.5
v 1.5 0.5 -0.5
v 1.5 0.6 -0.5
v -1.5 0.2 0.6
v -1.5 0.4 0.6
v -1.5 0.5 0.6
v -1.5 0.6 0.6
v -1.4 0.2 0.6
v -1.4 0.3 0.6
v -1.4 0.4 0.6
v -1.4 0.5 0.6
v -1.4 0.6 0.6
v -0.7 0.3 0.6
v -0.7 0.4 0.6
v -0.6 0.3 0.6
v -0.6 0.4 0.6
v 0.6 0.3 0.6
v 0.6 0.4 0.6
v 0.7 0.3 0.6
v 0.7 0.4 0.6
v 1.4 0.2 0.6
v 1.4 0.3 0.6
v 1.4 0.4 0.6
v 1.4 0.5 0.6
v 1.4 0.6 0.6
v 1.5 0.2 0.6
v 1.5 0.4 0.6
v 1.5 0.5 0.6
v 1.5 0.6 0.6
v -1.6 0.4 0.5
v -1.6 0.5 0.5
v -1.5 0 0.5
v -1.5 0.1 0.5
v -1.4 0 0.5
v -1.4 0.1 0.5
v -1.4 0.2 0.5
v -0.7 0.2 0.5
v -0.7 0.3 0.5
v -0.7 0.4 0.5
v -0.6 0.2 0.5
v -0.6 0.3 0.5
v -0.6 0.4 0.5
v 0.6 0.2 0.5
v 0.6 0.3 0.5
v 0.6 0.4 0.5
v 0.7 0.2 0.5
v 0.7 0.3 0.5
v 0.7 0.4 0.5
v 1.4 0 0.5
v 1.4 0.1 0.5
v 1.4 0.2 0.5
v 1.5 0 0.5
v 1.5 0.1 0.5
v 1.6 0.4 0.5
v 1.6 0.5 0.5
v -1.6 0.4 0.1
v -1.6 0.5 0.1
v -0.7 0.4 0.1
v -0.6 0.4 0.1
v 0.6 0.4 0.1
v 0.7 0.4 0.1
v 1.6 0.4 0.1
v 1.6 0.5 0.1
v -1.6 0.4 -0.3
v -1.6 0.5 -0.3
v -0.7 0.4 -0.3
v -0.6 0.4 -0.3
v 0.6 0.4 -0.3
v 0.7 0.4 -0.3
v 1.6 0.4 -0.3
v 1.6 0.5 -0.3
v -1.6 0.4 -0.5
v -1.6 0.5 -0.5
v -1.5 0 -0.5
v -1.5 0.2 -0.5
v -1.5 0.4 -0.5
v -1.5 0.5 -0.5
v -1.5 0.6 -0.5
v -1.5 0.7 -0.5
v -1.4 0 -0.5
v -1.4 0.1 -0.5
v -1.4 0.2 -0.5
v -1.4 0.4 -0.5
v -1.4 0.5 -0.5
v -1.4 0.6 -0.5
v -1.4 0.7 -0.5
v -0.7 0.2 -0.5
v -0.7 0.3 -0.5
v -0.6 0.2 -0.5
v -0.6 0.3 -0.5
v 0.6 0.2 -0.5
v 0.6 0.3 -0.5
v 0.7 0.2 -0.5
v 0.7 0.3 -0.5
v 1.4 0 -0.5
v 1.4 0.1 -0.5
v 1.4 0.2 -0.5
v 1.4 0.4 -0.5
v 1.4 0.5 -0.5
v 1.4 0.6 -0.5
v 1.4 0.7 -0.5
v 1.5 0 -0.5
v 1.5 0.2 -0.5
v 1.5 0.4 -0.5
v 1.5 0.5 -0.5
v 1.5 0.6 -0.5
v 1.5 0.7 -0.5
v 1.6 0.4 -0.5
v 1.6 0.5 -0.5
v -1.5 0.2 -0.6
v -1.5 0.6 -0.6
v -1.4 0.2 -0.6
v -1.4 0.3 -0.6
v -1.4 0.4 -0.6
v -1.4 0.6 -0.6
v 1.4 0.2 -0.6
v 1.4 0.3 -0.6
v 1.4 0.4 -0.6
v 1.4 0.6 -0.6
v 1.5 0.2 -0.6
v 1.5 0.6 -0.6
v -1.5 0 0.6
v -1.4 0 0.6
v 1.4 0 0.6
v 1.5 0 0.6
v -1.5 0 0.5
v -1.4 0 0.5
v 1.4 0 0.5
v 1.5 0 0.5
v -1.5 0 -0.4
v -1.4 0 -0.4
v 1.4 0 -0.4
v 1.5 0 -0.4
v -1.5 0 -0.5
v -1.4 0 -0.5
v 1.4 0 -0.5
v 1.5 0 -0.5
v -1.4 0.1 0.6
v 1.4 0.1 0.6
v -1.5 0.1 0.5
v -1.4 0.1 0.5
v 1.4 0.1 0.5
v 1.5 0.1 0.5
v -1.5 0.1 -0.4
v -1.4 0.1 -0.4
v 1.4 0.1 -0.4
v 1.5 0.1 -0.4
v -1.4 0.1 -0.5
v 1.4 0.1 -0.5
v -1.5 0.2 0.7
v -1.4 0.2 0.7
v 1.4 0.2 0.7
v 1.5 0.2 0.7
v -1.5 0.2 0.6
v -1.4 0.2 0.6
v 1.4 0.2 0.6
v 1.5 0.2 0.6
v -1.5 0.2 -0.5
v -1.4 0.2 -0.5
v 1.4 0.2 -0.5
v 1.5 0.2 -0.5
v -1.5 0.2 -0.6
v -1.4 0.2 -0.6
v 1.4 0.2 -0.6
v 1.5 0.2 -0.6
v -1.4 0.3 0.7
v 1.4 0.3 0.7
v -1.4 0.3 0.6
v -0.7 0.3 0.6
v -0.6 0.3 0.6
v 0.6 0.3 0.6
v 0.7 0.3 0.6
v 1.4 0.3 0.6
v -0.7 0.3 0.5
v -0.6 0.3 0.5
v 0.6 0.3 0.5
v 0.7 0.3 0.5
v -0.7 0.3 -0.4
v -0.6 0.3 -0.4
v 0.6 0.3 -0.4
v 0.7 0.3 -0.4
v -1.4 0.3 -0.5
v -0.7 0.3 -0.5
v -0.6 0.3 -0.5
v 0.6 0.3 -0.5
v 0.7 0.3 -0.5
v 1.4 0.3 -0.5
v -1.4 0.3 -0.6
v 1.4 0.3 -0.6
v -1.6 0.4 0.6
v -1.5 0.4 0.6
v -1.4 0.4 0.6
v -0.7 0.4 0.6
v -0.6 0.4 0.6
v 0.6 0.4 0.6
v 0.7 0.4 0.6
v 1.4 0.4 0.6
v 1.5 0.4 0.6
v 1.6 0.4 0.6
v -1.6 0.4 0.5
v -0.7 0.4 0.5
v -0.6 0.4 0.5
v 0.6 0.4 0.5
v 0.7 0.4 0.5
v 1.6 0.4 0.5
v -1.6 0.4 0.4
v -0.7 0.4 0.4
v -0.6 0.4 0.4
v 0.6 0.4 0.4
v 0.7 0.4 0.4
v 1.6 0.4 0.4
v -1.6 0.4 0.1
v -0.7 0.4 0.1
v -0.6 0.4 0.1
v 0.6 0.4 0.1
v 0.7 0.4 0.1
v 1.6 0.4 0.1
v -1.6 0.4 0
v -0.7 0.4 0
v -0.6 0.4 0
v 0.6 0.4 0
v 0.7 0.4 0
v 1.6 0.4 0
v -1.6 0.4 -0.3
v -0.7 0.4 -0.3
v -0.6 0.4 -0.3
v 0.6 0.4 -0.3
v 0.7 0.4 -0.3
v 1.6 0.4 -0.3
v -1.6 0.4 -0.4
v -0.7 0.4 -0.4
v -0.6 0.4 -0.4
v 0.6 0.4 -0.4
v 0.7 0.4 -0.4
v 1.6 0.4 -0.4
v -1.6 0.4 -0.5
v -1.5 0.4 -0.5
v -1.4 0.4 -0.5
v -0.7 0.4 -0.5
v -0.6 0.4 -0.5
v 0.6 0.4 -0.5
v 0.7 0.4 -0.5
v 1.4 0.4 -0.5
v 1.5 0.4 -0.5
v 1.6 0.4 -0.5
v -1.5 0.6 0.6
v -1.4 0.6 0.6
v 1.4 0.6 0.6
v 1.5 0.6 0.6
v -1.5 0.6 -0.5
v -1.4 0.6 -0.5
v 1.4 0.6 -0.5
v 1.5 0.6 -0.5
v -1.5 0.2 0.6
v -1.4 0.2 0.6
v -0.7 0.2 0.6
v -0.6 0.2 0.6
v 0.6 0.2 0.6
v 0.7 0.2 0.6
v 1.4 0.2 0.6
v 1.5 0.2 0.6
v -1.4 0.2 0.5
v -0.7 0.2 0.5
v -0.6 0.2 0.5
v 0.6 0.2 0.5
v 0.7 0.2 0.5
v 1.4 0.2 0.5
v -1.4 0.2 -0.4
v -0.7 0.2 -0.4
v -0.6 0.2 -0.4
v 0.6 0.2 -0.4
v 0.7 0.2 -0.4
v 1.4 0.2 -0.4
v -1.5 0.2 -0.5
v -1.4 0.2 -0.5
v -0.7 0.2 -0.5
v -0.6 0.2 -0.5
v 0.6 0.2 -0.5
v 0.7 0.2 -0.5
v 1.4 0.2 -0.5
v 1.5 0.2 -0.5
v -1.4 0.4 0.7
v 1.4 0.4 0.7
v -1.4 0.4 0.6
v 1.4 0.4 0.6
v -0.7 0.4 0.5
v -0.6 0.4 0.5
v 0.6 0.4 0.5
v 0.7 0.4 0.5
v -0.7 0.4 0.4
v -0.6 0.4 0.4
v 0.6 0.4 0.4
v 0.7 0.4 0.4
v -0.7 0.4 0.1
v -0.6 0.4 0.1
v 0.6 0.4 0.1
v 0.7 0.4 0.1
v -0.7 0.4 0
v -0.6 0.4 0
v 0.6 0.4 0
v 0.7 0.4 0
v -0.7 0.4 -0.3
v -0.6 0.4 -0.3
v 0.6 0.4 -0.3
v 0.7 0.4 -0.3
v -0.7 0.4 -0.4
v -0.6 0.4 -0.4
v 0.6 0.4 -0.4
v 0.7 0.4 -0.4
v -1.4 0.4 -0.5
v 1.4 0.4 -0.5
v -1.4 0.4 -0.6
v 1.4 0.4 -0.6
v -1.6 0.5 0.6
v -1.5 0.5 0.6
v -1.4 0.5 0.6
v 1.4 0.5 0.6
v 1.5 0.5 0.6
v 1.6 0.5 0.6
v -1.6 0.5 0.5
v 1.6 0.5 0.5
v -1.6 0.5 0.4
v 1.6 0.5 0.4
v -0.7 0.5 0.3
v -0.6 0.5 0.3
v 0.6 0.5 0.3
v 0.7 0.5 0.3
v -0.7 0.5 0.2
v -0.6 0.5 0.2
v 0.6 0.5 0.2
v 0.7 0.5 0.2
v -1.6 0.5 0.1
v 1.6 0.5 0.1
v -1.6 0.5 0
v 1.6 0.5 0
v -0.7 0.5 -0.1
v -0.6 0.5 -0.1
v 0.6 0.5 -0.1
v 0.7 0.5 -0.1
v -0.7 0.5 -0.2
v -0.6 0.5 -0.2
v 0.6 0.5 -0.2
v 0.7 0.5 -0.2
v -1.6 0.5 -0.3
v 1.6 0.5 -0.3
v -1.6 0.5 -0.4
v 1.6 0.5 -0.4
v -1.6 0.5 -0.5
v -1.5 0.5 -0.5
v -1.4 0.5 -0.5
v 1.4 0.5 -0.5
v 1.5 0.5 -0.5
v 1.6 0.5 -0.5
v -1.5 0.6 0.7
v -1.4 0.6 0.7
v 1.4 0.6 0.7
v 1.5 0.6 0.7
v -1.5 0.6 0.6
v -1.4 0.6 0.6
v 1.4 0.6 0.6
v 1.5 0.6 0.6
v -1.5 0.6 -0.5
v -1.4 0.6 -0.5
v 1.4 0.6 -0.5
v 1.5 0.6 -0.5
v -1.5 0.6 -0.6
v -1.4 0.6 -0.6
v 1.4 0.6 -0.6
v 1.5 0.6 -0.6
v -1.5 0.7 0.6
v -1.4 0.7 0.6
v 1.4 0.7 0.6
v 1.5 0.7 0.6
v -1.5 0.7 -0.5
v -1.4 0.7 -0.5
v 1.4 0.7 -0.5
v 1.5 0.7 -0.5

# faces
f 9/1/1 2/1/1 1/1/1
f 10/1/1 2/1/1 9/1/1
f 11/1/1 4/1/1 3/1/1
f 12/1/1 4/1/1 11/1/1
f 13/1/1 6/1/1 5/1/1
f 14/1/1 6/1/1 13/1/1
f 15/1/1 8/1/1 7/1/1
f 16/1/1 8/1/1 15/1/1
f 21/2/1 18/2/1 17/2/1
f 22/2/1 20/2/1 19/2/1
f 24/2/1 21/2/1 17/2/1
f 24/2/1 22/2/1 21/2/1
f 25/2/1 20/2/1 22/2/1
f 25/2/1 22/2/1 24/2/1
f 27/2/1 24/2/1 23/2/1
f 28/2/1 26/2/1 25/2/1
f 29/2/1 27/2/1 23/2/1
f 30/2/1 26/2/1 28/2/1
f 31/2/1 29/2/1 23/2/1
f 32/2/1 29/2/1 31/2/1
f 33/2/1 26/2/1 30/2/1
f 34/2/1 26/2/1 33/2/1
f 35/2/1 33/2/1 32/2/1
f 36/2/1 33/2/1 35/2/1
f 41/2/1 38/2/1 37/2/1
f 42/2/1 38/2/1 41/2/1
f 43/2/1 40/2/1 39/2/1
f 44/2/1 40/2/1 43/2/1
f 45/2/1 42/2/1 41/2/1
f 45/2/1 43/2/1 42/2/1
f 45/2/1 44/2/1 43/2/1
f 46/2/1 44/2/1 45/2/1
f 47/2/1 44/2/1 46/2/1
f 48/2/1 44/2/1 47/2/1
f 49/2/1 44/2/1 48/2/1
f 50/2/1 44/2/1 49/2/1
f 51/2/1 44/2/1 50/2/1
f 52/2/1 44/2/1 51/2/1
f 57/2/1 54/2/1 53/2/1
f 58/2/1 54/2/1 57/2/1
f 59/2/1 56/2/1 55/2/1
f 60/2/1 56/2/1 59/2/1
f 61/2/1 58/2/1 57/2/1
f 61/2/1 59/2/1 58/2/1
f 61/2/1 60/2/1 59/2/1
f 62/2/1 60/2/1 61/2/1
f 63/2/1 60/2/1 62/2/1
f 64/2/1 60/2/1 63/2/1
f 65/2/1 60/2/1 64/2/1
f 66/2/1 60/2/1 65/2/1
f 67/2/1 60/2/1 66/2/1
f 68/2/1 60/2/1 67/2/1
f 73/2/1 70/2/1 69/2/1
f 74/2/1 70/2/1 73/2/1
f 75/2/1 72/2/1 71/2/1
f 76/2/1 72/2/1 75/2/1
f 79/2/1 75/2/1 74/2/1
f 80/2/1 75/2/1 79/2/1
f 83/2/1 78/2/1 77/2/1
f 84/2/1 78/2/1 83/2/1
f 85/2/1 82/2/1 81/2/1
f 86/2/1 82/2/1 85/2/1
f 91/2/1 88/2/1 87/2/1
f 92/2/1 90/2/1 89/2/1
f 93/2/1 91/2/1 87/2/1
f 94/2/1 91/2/1 93/2/1
f 95/2/1 90/2/1 92/2/1
f 96/2/1 90/2/1 95/2/1
f 97/2/1 95/2/1 94/2/1
f 98/2/1 95/2/1 97/2/1
f 99/2/2 100/2/2 103/2/2
f 103/2/2 100/2/2 104/2/2
f 101/2/2 102/2/2 105/2/2
f 105/2/2 102/2/2 106/2/2
f 104/2/2 105/2/2 109/2/2
f 109/2/2 105/2/2 110/2/2
f 107/2/2 108/2/2 113/2/2
f 113/2/2 108/2/2 114/2/2
f 111/2/2 112/2/2 115/2/2
f 115/2/2 112/2/2 116/2/2
f 117/2/2 118/2/2 121/2/2
f 119/2/2 120/2/2 122/2/2
f 117/2/2 121/2/2 123/2/2
f 123/2/2 121/2/2 124/2/2
f 122/2/2 120/2/2 125/2/2
f 125/2/2 120/2/2 126/2/2
f 124/2/2 125/2/2 127/2/2
f 127/2/2 125/2/2 128/2/2
f 129/2/2 130/2/2 133/2/2
f 133/2/2 130/2/2 134/2/2
f 131/2/2 132/2/2 135/2/2
f 135/2/2 132/2/2 136/2/2
f 133/2/2 134/2/2 137/2/2
f 134/2/2 135/2/2 137/2/2
f 135/2/2 136/2/2 137/2/2
f 137/2/2 136/2/2 138/2/2
f 138/2/2 136/2/2 139/2/2
f 139/2/2 136/2/2 140/2/2
f 140/2/2 136/2/2 141/2/2
f 141/2/2 136/2/2 142/2/2
f 142/2/2 136/2/2 143/2/2
f 143/2/2 136/2/2 144/2/2
f 145/2/2 146/2/2 149/2/2
f 149/2/2 146/2/2 150/2/2
f 147/2/2 148/2/2 151/2/2
f 151/2/2 148/2/2 152/2/2
f 149/2/2 150/2/2 153/2/2
f 150/2/2 151/2/2 153/2/2
f 151/2/2 152/2/2 153/2/2
f 153/2/2 152/2/2 154/2/2
f 154/2/2 152/2/2 155/2/2
f 155/2/2 152/2/2 156/2/2
f 156/2/2 152/2/2 157/2/2
f 157/2/2 152/2/2 158/2/2
f 158/2/2 152/2/2 159/2/2
f 159/2/2 152/2/2 160/2/2
f 161/2/2 162/2/2 165/2/2
f 163/2/2 164/2/2 166/2/2
f 161/2/2 165/2/2 168/2/2
f 165/2/2 166/2/2 168/2/2
f 166/2/2 164/2/2 169/2/2
f 168/2/2 166/2/2 169/2/2
f 167/2/2 168/2/2 171/2/2
f 169/2/2 170/2/2 172/2/2
f 167/2/2 171/2/2 173/2/2
f 172/2/2 170/2/2 174/2/2
f 167/2/2 173/2/2 175/2/2
f 175/2/2 173/2/2 176/2/2
f 174/2/2 170/2/2 177/2/2
f 177/2/2 170/2/2 178/2/2
f 176/2/2 177/2/2 179/2/2
f 179/2/2 177/2/2 180/2/2
f 181/1/2 182/1/2 189/1/2
f 189/1/2 182/1/2 190/1/2
f 183/1/2 184/1/2 191/1/2
f 191/1/2 184/1/2 192/1/2
f 185/1/2 186/1/2 193/1/2
f 193/1/2 186/1/2 194/1/2
f 187/1/2 188/1/2 195/1/2
f 195/1/2 188/1/2 196/1/2
f 199/2/3 198/2/3 197/2/3
f 200/2/3 198/2/3 199/2/3
f 201/2/3 198/2/3 200/2/3
f 202/2/3 198/2/3 201/2/3
f 204/1/3 201/1/3 200/1/3
f 205/1/3 201/1/3 204/1/3
f 207/2/3 204/2/3 203/2/3
f 207/2/3 206/2/3 205/2/3
f 207/2/3 205/2/3 204/2/3
f 208/2/3 206/2/3 207/2/3
f 213/1/3 210/1/3 209/1/3
f 214/1/3 210/1/3 213/1/3
f 217/2/3 212/2/3 211/2/3
f 218/2/3 212/2/3 217/2/3
f 219/2/3 212/2/3 218/2/3
f 222/2/3 216/2/3 215/2/3
f 223/2/3 216/2/3 222/2/3
f 224/2/3 219/2/3 218/2/3
f 226/2/3 224/2/3 218/2/3
f 226/2/3 225/2/3 224/2/3
f 227/2/3 225/2/3 226/2/3
f 228/2/3 226/2/3 218/2/3
f 230/2/3 228/2/3 218/2/3
f 230/2/3 229/2/3 228/2/3
f 231/2/3 229/2/3 230/2/3
f 233/2/3 230/2/3 218/2/3
f 234/2/3 230/2/3 233/2/3
f 235/1/3 221/1/3 220/1/3
f 236/1/3 221/1/3 235/1/3
f 239/2/3 234/2/3 233/2/3
f 239/2/3 233/2/3 232/2/3
f 240/2/3 234/2/3 239/2/3
f 243/2/3 238/2/3 237/2/3
f 244/2/3 238/2/3 243/2/3
f 245/1/3 242/1/3 241/1/3
f 246/1/3 242/1/3 245/1/3
f 249/1/3 248/1/3 247/1/3
f 250/1/3 248/1/3 249/1/3
f 251/1/3 248/1/3 250/1/3
f 252/1/3 248/1/3 251/1/3
f 253/1/3 248/1/3 252/1/3
f 254/1/3 248/1/3 253/1/3
f 257/1/3 256/1/3 255/1/3
f 258/1/3 256/1/3 257/1/3
f 259/1/3 256/1/3 258/1/3
f 260/1/3 256/1/3 259/1/3
f 261/1/3 256/1/3 260/1/3
f 262/1/3 256/1/3 261/1/3
f 267/2/3 266/2/3 265/2/3
f 268/2/3 266/2/3 267/2/3
f 270/2/3 269/2/3 268/2/3
f 272/1/3 264/1/3 263/1/3
f 273/2/3 271/2/3 270/2/3
f 273/2/3 270/2/3 268/2/3
f 274/2/3 271/2/3 273/2/3
f 275/1/3 264/1/3 272/1/3
f 276/2/3 273/2/3 268/2/3
f 278/1/3 264/1/3 275/1/3
f 279/2/3 277/2/3 276/2/3
f 279/2/3 276/2/3 268/2/3
f 280/2/3 277/2/3 279/2/3
f 281/1/3 264/1/3 278/1/3
f 283/2/3 279/2/3 268/2/3
f 284/2/3 279/2/3 283/2/3
f 285/2/3 283/2/3 282/2/3
f 286/2/3 283/2/3 285/2/3
f 287/1/3 264/1/3 281/1/3
f 288/1/3 264/1/3 287/1/3
f 293/2/3 290/2/3 289/2/3
f 294/2/3 290/2/3 293/2/3
f 295/2/3 290/2/3 294/2/3
f 296/2/3 292/2/3 291/2/3
f 297/2/3 292/2/3 296/2/3
f 298/1/3 295/1/3 294/1/3
f 299/1/3 295/1/3 298/1/3
f 302/1/3 301/1/3 300/1/3
f 303/1/3 301/1/3 302/1/3
f 307/1/3 305/1/3 304/1/3
f 308/1/3 305/1/3 307/1/3
f 311/2/3 308/2/3 307/2/3
f 311/2/3 307/2/3 306/2/3
f 312/2/3 308/2/3 311/2/3
f 313/2/3 310/2/3 309/2/3
f 314/2/3 310/2/3 313/2/3
f 315/2/4 316/2/4 319/2/4
f 319/2/4 316/2/4 320/2/4
f 320/2/4 316/2/4 321/2/4
f 317/2/4 318/2/4 322/2/4
f 322/2/4 318/2/4 323/2/4
f 320/1/4 321/1/4 324/1/4
f 324/1/4 321/1/4 325/1/4
f 326/1/4 327/1/4 328/1/4
f 328/1/4 327/1/4 329/1/4
f 330/1/4 331/1/4 333/1/4
f 333/1/4 331/1/4 334/1/4
f 333/2/4 334/2/4 337/2/4
f 332/2/4 333/2/4 337/2/4
f 337/2/4 334/2/4 338/2/4
f 335/2/4 336/2/4 339/2/4
f 339/2/4 336/2/4 340/2/4
f 343/2/4 344/2/4 345/2/4
f 345/2/4 344/2/4 346/2/4
f 346/2/4 347/2/4 348/2/4
f 341/1/4 342/1/4 350/1/4
f 348/2/4 349/2/4 351/2/4
f 346/2/4 348/2/4 351/2/4
f 351/2/4 349/2/4 352/2/4
f 350/1/4 342/1/4 353/1/4
f 346/2/4 351/2/4 354/2/4
f 353/1/4 342/1/4 356/1/4
f 354/2/4 355/2/4 357/2/4
f 346/2/4 354/2/4 357/2/4
f 357/2/4 355/2/4 358/2/4
f 356/1/4 342/1/4 359/1/4
f 346/2/4 357/2/4 361/2/4
f 361/2/4 357/2/4 362/2/4
f 360/2/4 361/2/4 363/2/4
f 363/2/4 361/2/4 364/2/4
f 359/1/4 342/1/4 365/1/4
f 365/1/4 342/1/4 366/1/4
f 367/1/4 368/1/4 369/1/4
f 369/1/4 368/1/4 370/1/4
f 370/1/4 368/1/4 371/1/4
f 371/1/4 368/1/4 372/1/4
f 372/1/4 368/1/4 373/1/4
f 373/1/4 368/1/4 374/1/4
f 375/1/4 376/1/4 377/1/4
f 377/1/4 376/1/4 378/1/4
f 378/1/4 376/1/4 379/1/4
f 379/1/4 376/1/4 380/1/4
f 380/1/4 376/1/4 381/1/4
f 381/1/4 376/1/4 382/1/4
f 383/1/4 384/1/4 387/1/4
f 387/1/4 384/1/4 388/1/4
f 385/2/4 386/2/4 391/2/4
f 391/2/4 386/2/4 392/2/4
f 392/2/4 386/2/4 393/2/4
f 389/2/4 390/2/4 396/2/4
f 396/2/4 390/2/4 397/2/4
f 392/2/4 393/2/4 398/2/4
f 392/2/4 398/2/4 400/2/4
f 398/2/4 399/2/4 400/2/4
f 400/2/4 399/2/4 401/2/4
f 392/2/4 400/2/4 402/2/4
f 392/2/4 402/2/4 404/2/4
f 402/2/4 403/2/4 404/2/4
f 404/2/4 403/2/4 405/2/4
f 392/2/4 404/2/4 407/2/4
f 407/2/4 404/2/4 408/2/4
f 394/1/4 395/1/4 409/1/4
f 409/1/4 395/1/4 410/1/4
f 407/2/4 408/2/4 413/2/4
f 406/2/4 407/2/4 413/2/4
f 413/2/4 408/2/4 414/2/4
f 411/2/4 412/2/4 417/2/4
f 417/2/4 412/2/4 418/2/4
f 415/1/4 416/1/4 419/1/4
f 419/1/4 416/1/4 420/1/4
f 421/2/4 422/2/4 423/2/4
f 423/2/4 422/2/4 424/2/4
f 424/2/4 422/2/4 425/2/4
f 425/2/4 422/2/4 426/2/4
f 424/1/4 425/1/4 428/1/4
f 428/1/4 425/1/4 429/1/4
f 427/2/4 428/2/4 431/2/4
f 429/2/4 430/2/4 431/2/4
f 428/2/4 429/2/4 431/2/4
f 431/2/4 430/2/4 432/2/4
f 437/2/5 434/2/5 433/2/5
f 438/2/5 434/2/5 437/2/5
f 439/2/5 436/2/5 435/2/5
f 440/2/5 436/2/5 439/2/5
f 445/2/5 442/2/5 441/2/5
f 446/2/5 442/2/5 445/2/5
f 447/2/5 444/2/5 443/2/5
f 448/2/5 444/2/5 447/2/5
f 452/2/5 450/2/5 449/2/5
f 453/2/5 450/2/5 452/2/5
f 455/2/5 452/2/5 451/2/5
f 456/2/5 452/2/5 455/2/5
f 457/2/5 454/2/5 453/2/5
f 458/2/5 454/2/5 457/2/5
f 459/2/5 457/2/5 456/2/5
f 460/2/5 457/2/5 459/2/5
f 465/2/5 462/2/5 461/2/5
f 466/2/5 462/2/5 465/2/5
f 467/2/5 464/2/5 463/2/5
f 468/2/5 464/2/5 467/2/5
f 473/2/5 470/2/5 469/2/5
f 474/2/5 470/2/5 473/2/5
f 475/2/5 472/2/5 471/2/5
f 476/2/5 472/2/5 475/2/5
f 479/1/5 478/1/5 477/1/5
f 480/1/5 478/1/5 479/1/5
f 481/1/5 478/1/5 480/1/5
f 482/1/5 478/1/5 481/1/5
f 483/1/5 478/1/5 482/1/5
f 484/1/5 478/1/5 483/1/5
f 489/2/5 486/2/5 485/2/5
f 490/2/5 486/2/5 489/2/5
f 491/2/5 488/2/5 487/2/5
f 492/2/5 488/2/5 491/2/5
f 499/1/5 497/1/5 496/1/5
f 499/1/5 498/1/5 497/1/5
f 499/1/5 496/1/5 495/1/5
f 499/1/5 495/1/5 494/1/5
f 499/1/5 494/1/5 493/1/5
f 500/1/5 498/1/5 499/1/5
f 511/1/5 502/1/5 501/1/5
f 511/1/5 503/1/5 502/1/5
f 511/1/5 504/1/5 503/1/5
f 512/1/5 504/1/5 511/1/5
f 513/1/5 506/1/5 505/1/5
f 514/1/5 506/1/5 513/1/5
f 515/1/5 510/1/5 509/1/5
f 515/1/5 509/1/5 508/1/5
f 515/1/5 508/1/5 507/1/5
f 516/1/5 510/1/5 515/1/5
f 523/1/5 518/1/5 517/1/5
f 524/1/5 518/1/5 523/1/5
f 525/1/5 520/1/5 519/1/5
f 526/1/5 520/1/5 525/1/5
f 527/1/5 522/1/5 521/1/5
f 528/1/5 522/1/5 527/1/5
f 535/1/5 530/1/5 529/1/5
f 536/1/5 530/1/5 535/1/5
f 537/1/5 532/1/5 531/1/5
f 538/1/5 532/1/5 537/1/5
f 539/1/5 534/1/5 533/1/5
f 540/1/5 534/1/5 539/1/5
f 547/1/5 542/1/5 541/1/5
f 548/1/5 542/1/5 547/1/5
f 549/1/5 542/1/5 548/1/5
f 550/1/5 542/1/5 549/1/5
f 551/1/5 544/1/5 543/1/5
f 552/1/5 544/1/5 551/1/5
f 553/1/5 546/1/5 545/1/5
f 554/1/5 546/1/5 553/1/5
f 555/1/5 546/1/5 554/1/5
f 556/1/5 546/1/5 555/1/5
f 561/2/5 558/2/5 557/2/5
f 562/2/5 558/2/5 561/2/5
f 563/2/5 560/2/5 559/2/5
f 564/2/5 560/2/5 563/2/5
f 565/2/6 566/2/6 573/2/6
f 566/2/6 567/2/6 573/2/6
f 573/2/6 567/2/6 574/2/6
f 568/2/6 569/2/6 575/2/6
f 575/2/6 569/2/6 576/2/6
f 571/2/6 572/2/6 577/2/6
f 570/2/6 571/2/6 577/2/6
f 577/2/6 572/2/6 578/2/6
f 565/2/6 573/2/6 579/2/6
f 578/2/6 572/2/6 584/2/6
f 565/2/6 579/2/6 585/2/6
f 579/2/6 580/2/6 585/2/6
f 585/2/6 580/2/6 586/2/6
f 586/2/6 580/2/6 587/2/6
f 581/2/6 582/2/6 588/2/6
f 588/2/6 582/2/6 589/2/6
f 583/2/6 584/2/6 590/2/6
f 584/2/6 572/2/6 591/2/6
f 590/2/6 584/2/6 591/2/6
f 591/2/6 572/2/6 592/2/6
f 593/1/6 594/1/6 595/1/6
f 595/1/6 594/1/6 596/1/6
f 597/2/6 598/2/6 601/2/6
f 601/2/6 598/2/6 602/2/6
f 599/2/6 600/2/6 603/2/6
f 603/2/6 600/2/6 604/2/6
f 605/2/6 606/2/6 609/2/6
f 609/2/6 606/2/6 610/2/6
f 607/2/6 608/2/6 611/2/6
f 611/2/6 608/2/6 612/2/6
f 613/2/6 614/2/6 617/2/6
f 617/2/6 614/2/6 618/2/6
f 615/2/6 616/2/6 619/2/6
f 619/2/6 616/2/6 620/2/6
f 621/1/6 622/1/6 623/1/6
f 623/1/6 622/1/6 624/1/6
f 625/1/6 626/1/6 631/1/6
f 629/1/6 630/1/6 631/1/6
f 628/1/6 629/1/6 631/1/6
f 627/1/6 628/1/6 631/1/6
f 626/1/6 627/1/6 631/1/6
f 631/1/6 630/1/6 632/1/6
f 633/1/6 634/1/6 635/1/6
f 635/1/6 634/1/6 636/1/6
f 636/1/6 634/1/6 637/1/6
f 637/1/6 634/1/6 638/1/6
f 633/1/6 635/1/6 639/1/6
f 635/3/6 636/3/6 639/3/6
f 636/1/6 637/1/6 640/1/6
f 639/3/6 636/3/6 640/3/6
f 637/3/6 638/3/6 641/3/6
f 640/1/6 637/1/6 641/1/6
f 638/1/6 634/1/6 642/1/6
f 641/3/6 638/3/6 642/3/6
f 640/1/6 641/1/6 643/1/6
f 639/1/6 640/1/6 643/1/6
f 641/1/6 642/1/6 643/1/6
f 633/1/6 639/1/6 643/1/6
f 642/1/6 634/1/6 644/1/6
f 643/1/6 642/1/6 644/1/6
f 645/1/6 646/1/6 647/1/6
f 647/1/6 646/1/6 648/1/6
f 648/1/6 646/1/6 649/1/6
f 649/1/6 646/1/6 650/1/6
f 645/1/6 647/1/6 651/1/6
f 647/3/6 648/3/6 651/3/6
f 648/1/6 649/1/6 652/1/6
f 651/3/6 648/3/6 652/3/6
f 649/3/6 650/3/6 653/3/6
f 652/1/6 649/1/6 653/1/6
f 650/1/6 646/1/6 654/1/6
f 653/3/6 650/3/6 654/3/6
f 652/1/6 653/1/6 655/1/6
f 651/1/6 652/1/6 655/1/6
f 653/1/6 654/1/6 655/1/6
f 645/1/6 651/1/6 655/1/6
f 654/1/6 646/1/6 656/1/6
f 655/1/6 654/1/6 656/1/6
f 657/1/6 658/1/6 659/1/6
f 659/1/6 658/1/6 660/1/6
f 660/1/6 658/1/6 661/1/6
f 661/1/6 658/1/6 662/1/6
f 662/1/6 658/1/6 663/1/6
f 663/1/6 658/1/6 664/1/6
f 665/2/6 666/2/6 669/2/6
f 669/2/6 666/2/6 670/2/6
f 667/2/6 668/2/6 671/2/6
f 671/2/6 668/2/6 672/2/6
f 673/2/6 674/2/6 677/2/6
f 677/2/6 674/2/6 678/2/6
f 675/2/6 676/2/6 679/2/6
f 679/2/6 676/2/6 680/2/6
f 681/2/6 682/2/6 685/2/6
f 685/2/6 682/2/6 686/2/6
f 683/2/6 684/2/6 687/2/6
f 687/2/6 684/2/6 688/2/6
