# MagicaVoxel @ Ephtracy

# group
o 

# material
mtllib Interior_Furniture_Table_Piece_Big_07.mtl
usemtl palette

# normals
vn -1 0 0
vn 1 0 0
vn 0 0 1
vn 0 0 -1
vn 0 -1 0
vn 0 1 0

# texcoords
vt 0.876953 0.5
vt 0.880859 0.5
vt 0.884766 0.5
vt 0.888672 0.5
vt 0.892578 0.5

# verts
v -0.8 0.9 0.5
v -0.8 0.9 0.4
v -0.8 0.9 0.3
v -0.8 0.9 -0.8
v -0.8 1 0.5
v -0.8 1 0.4
v -0.8 1 0.3
v -0.8 1 -0.8
v -0.7 0.8 0.5
v -0.7 0.8 -0.8
v -0.7 0.9 0.6
v -0.7 0.9 0.5
v -0.7 0.9 0.4
v -0.7 0.9 0.3
v -0.7 0.9 -0.8
v -0.7 1 0.6
v -0.7 1 0.5
v -0.7 1 0.4
v -0.7 1 0.3
v -0.7 1 0.2
v -0.7 1 -0.8
v -0.7 1.1 0.4
v -0.7 1.1 0.3
v -0.7 1.1 0.2
v -0.7 1.1 -0.8
v -0.6 0 0.4
v -0.6 0 0.3
v -0.6 0.1 0.4
v -0.6 0.1 0.3
v -0.6 0.2 0.3
v -0.6 0.2 -0.8
v -0.6 0.3 0.3
v -0.6 0.3 -0.8
v -0.6 0.8 0.4
v -0.6 0.8 0.3
v -0.6 1 0.5
v -0.6 1 0.4
v -0.6 1.1 0.5
v -0.6 1.1 0.4
v -0.5 0 0.4
v -0.5 0 0.3
v -0.5 0.1 0.4
v -0.5 0.1 0.3
v -0.5 0.2 0.3
v -0.5 0.2 -0.7
v -0.5 0.3 0.3
v -0.5 0.3 -0.7
v -0.5 0.8 0.4
v -0.5 0.8 0.3
v 0.8 0.2 -0.7
v 0.8 0.2 -0.8
v 0.8 0.3 -0.7
v 0.8 0.3 -0.8
v 0.8 0.8 0.5
v 0.8 0.8 -0.8
v 0.8 0.9 0.6
v 0.8 0.9 0.5
v 0.8 1 0.6
v 0.8 1 0.5
v 0.8 1.1 0.5
v 0.8 1.1 -0.8
v -0.7 0.9 0.6
v -0.7 1 0.6
v -0.6 0.9 0.6
v -0.6 1 0.6
v -0.5 0.9 0.6
v -0.5 1 0.6
v 0.8 0.9 0.6
v 0.8 1 0.6
v -0.8 0.9 0.5
v -0.8 1 0.5
v -0.7 0.8 0.5
v -0.7 0.9 0.5
v -0.7 1 0.5
v -0.6 0.9 0.5
v -0.6 1 0.5
v -0.6 1.1 0.5
v -0.5 0.9 0.5
v -0.5 1 0.5
v -0.5 1.1 0.5
v -0.4 1 0.5
v -0.4 1.1 0.5
v 0.8 0.8 0.5
v 0.8 0.9 0.5
v 0.8 1 0.5
v 0.8 1.1 0.5
v -0.7 1 0.4
v -0.7 1.1 0.4
v -0.6 0 0.4
v -0.6 0.1 0.4
v -0.6 0.8 0.4
v -0.6 1 0.4
v -0.6 1.1 0.4
v -0.5 0 0.4
v -0.5 0.1 0.4
v -0.5 0.8 0.4
v -0.5 0.2 -0.7
v -0.5 0.3 -0.7
v 0.8 0.2 -0.7
v 0.8 0.3 -0.7
v -0.6 0 0.3
v -0.6 0.1 0.3
v -0.6 0.2 0.3
v -0.6 0.3 0.3
v -0.6 0.8 0.3
v -0.5 0 0.3
v -0.5 0.1 0.3
v -0.5 0.2 0.3
v -0.5 0.3 0.3
v -0.5 0.8 0.3
v -0.8 0.9 -0.8
v -0.8 1 -0.8
v -0.7 0.8 -0.8
v -0.7 0.9 -0.8
v -0.7 1 -0.8
v -0.7 1.1 -0.8
v -0.6 0.2 -0.8
v -0.6 0.3 -0.8
v 0.8 0.2 -0.8
v 0.8 0.3 -0.8
v 0.8 0.8 -0.8
v 0.8 1.1 -0.8
v -0.6 0 0.4
v -0.5 0 0.4
v -0.6 0 0.3
v -0.5 0 0.3
v -0.6 0.2 0.3
v -0.5 0.2 0.3
v -0.5 0.2 -0.7
v 0.8 0.2 -0.7
v -0.6 0.2 -0.8
v 0.8 0.2 -0.8
v -0.7 0.8 0.5
v 0.8 0.8 0.5
v -0.6 0.8 0.4
v -0.5 0.8 0.4
v -0.6 0.8 0.3
v -0.5 0.8 0.3
v -0.7 0.8 -0.8
v 0.8 0.8 -0.8
v -0.7 0.9 0.6
v -0.6 0.9 0.6
v -0.5 0.9 0.6
v 0.8 0.9 0.6
v -0.8 0.9 0.5
v -0.7 0.9 0.5
v -0.6 0.9 0.5
v -0.5 0.9 0.5
v 0.8 0.9 0.5
v -0.8 0.9 0.4
v -0.7 0.9 0.4
v -0.8 0.9 0.3
v -0.7 0.9 0.3
v -0.8 0.9 -0.8
v -0.7 0.9 -0.8
v -0.6 0.3 0.3
v -0.5 0.3 0.3
v -0.5 0.3 -0.7
v 0.8 0.3 -0.7
v -0.6 0.3 -0.8
v 0.8 0.3 -0.8
v -0.7 1 0.6
v -0.6 1 0.6
v -0.5 1 0.6
v 0.8 1 0.6
v -0.8 1 0.5
v -0.7 1 0.5
v -0.6 1 0.5
v -0.5 1 0.5
v -0.4 1 0.5
v 0.8 1 0.5
v -0.8 1 0.4
v -0.7 1 0.4
v -0.6 1 0.4
v -0.8 1 0.3
v -0.7 1 0.3
v -0.7 1 0.2
v -0.8 1 -0.8
v -0.7 1 -0.8
v -0.6 1.1 0.5
v -0.5 1.1 0.5
v -0.4 1.1 0.5
v 0.8 1.1 0.5
v -0.7 1.1 0.4
v -0.6 1.1 0.4
v -0.5 1.1 0.4
v -0.4 1.1 0.4
v -0.7 1.1 0.3
v -0.6 1.1 0.3
v -0.5 1.1 0.3
v -0.7 1.1 0.2
v -0.6 1.1 0.2
v -0.7 1.1 -0.8
v 0.8 1.1 -0.8

# faces
f 5/3/1 2/3/1 1/3/1
f 6/4/1 3/4/1 2/4/1
f 6/3/1 2/3/1 5/3/1
f 7/5/1 4/5/1 3/5/1
f 7/4/1 3/4/1 6/4/1
f 8/5/1 4/5/1 7/5/1
f 12/4/1 10/4/1 9/4/1
f 13/4/1 10/4/1 12/4/1
f 14/4/1 10/4/1 13/4/1
f 15/4/1 10/4/1 14/4/1
f 16/3/1 12/3/1 11/3/1
f 17/3/1 12/3/1 16/3/1
f 22/2/1 19/2/1 18/2/1
f 23/3/1 20/3/1 19/3/1
f 23/2/1 19/2/1 22/2/1
f 24/4/1 21/4/1 20/4/1
f 24/3/1 20/3/1 23/3/1
f 25/4/1 21/4/1 24/4/1
f 28/1/1 27/1/1 26/1/1
f 29/1/1 27/1/1 28/1/1
f 30/3/1 29/3/1 28/3/1
f 32/3/1 30/3/1 28/3/1
f 32/3/1 31/3/1 30/3/1
f 33/3/1 31/3/1 32/3/1
f 34/3/1 32/3/1 28/3/1
f 35/3/1 32/3/1 34/3/1
f 38/2/1 37/2/1 36/2/1
f 39/2/1 37/2/1 38/2/1
f 40/1/2 41/1/2 42/1/2
f 42/1/2 41/1/2 43/1/2
f 42/3/2 43/3/2 44/3/2
f 42/3/2 44/3/2 46/3/2
f 44/3/2 45/3/2 46/3/2
f 46/3/2 45/3/2 47/3/2
f 42/3/2 46/3/2 48/3/2
f 48/3/2 46/3/2 49/3/2
f 50/3/2 51/3/2 52/3/2
f 52/3/2 51/3/2 53/3/2
f 54/4/2 55/4/2 57/4/2
f 56/5/2 57/5/2 58/5/2
f 57/4/2 55/4/2 59/4/2
f 58/5/2 57/5/2 59/5/2
f 59/4/2 55/4/2 60/4/2
f 60/4/2 55/4/2 61/4/2
f 64/3/3 63/3/3 62/3/3
f 65/3/3 63/3/3 64/3/3
f 66/4/3 65/4/3 64/4/3
f 67/4/3 65/4/3 66/4/3
f 68/5/3 67/5/3 66/5/3
f 69/5/3 67/5/3 68/5/3
f 73/3/3 71/3/3 70/3/3
f 74/3/3 71/3/3 73/3/3
f 75/4/3 73/4/3 72/4/3
f 78/4/3 75/4/3 72/4/3
f 79/2/3 77/2/3 76/2/3
f 80/2/3 77/2/3 79/2/3
f 81/3/3 80/3/3 79/3/3
f 82/3/3 80/3/3 81/3/3
f 83/4/3 78/4/3 72/4/3
f 84/4/3 78/4/3 83/4/3
f 85/4/3 82/4/3 81/4/3
f 86/4/3 82/4/3 85/4/3
f 92/2/3 88/2/3 87/2/3
f 93/2/3 88/2/3 92/2/3
f 94/1/3 90/1/3 89/1/3
f 95/3/3 91/3/3 90/3/3
f 95/1/3 90/1/3 94/1/3
f 96/3/3 91/3/3 95/3/3
f 99/3/3 98/3/3 97/3/3
f 100/3/3 98/3/3 99/3/3
f 101/1/4 102/1/4 106/1/4
f 102/3/4 103/3/4 107/3/4
f 106/1/4 102/1/4 107/1/4
f 107/3/4 103/3/4 108/3/4
f 104/3/4 105/3/4 109/3/4
f 109/3/4 105/3/4 110/3/4
f 111/5/4 112/5/4 114/5/4
f 114/5/4 112/5/4 115/5/4
f 117/3/4 118/3/4 119/3/4
f 119/3/4 118/3/4 120/3/4
f 113/4/4 114/4/4 121/4/4
f 114/4/4 115/4/4 121/4/4
f 115/4/4 116/4/4 121/4/4
f 121/4/4 116/4/4 122/4/4
f 125/1/5 124/1/5 123/1/5
f 126/1/5 124/1/5 125/1/5
f 129/3/5 128/3/5 127/3/5
f 131/3/5 129/3/5 127/3/5
f 131/3/5 130/3/5 129/3/5
f 132/3/5 130/3/5 131/3/5
f 135/4/5 134/4/5 133/4/5
f 136/4/5 134/4/5 135/4/5
f 137/4/5 135/4/5 133/4/5
f 138/4/5 134/4/5 136/4/5
f 139/4/5 137/4/5 133/4/5
f 139/4/5 138/4/5 137/4/5
f 140/4/5 134/4/5 138/4/5
f 140/4/5 138/4/5 139/4/5
f 146/3/5 142/3/5 141/3/5
f 147/4/5 143/4/5 142/4/5
f 147/3/5 142/3/5 146/3/5
f 148/5/5 144/5/5 143/5/5
f 148/4/5 143/4/5 147/4/5
f 149/5/5 144/5/5 148/5/5
f 150/3/5 146/3/5 145/3/5
f 151/3/5 146/3/5 150/3/5
f 152/4/5 151/4/5 150/4/5
f 153/4/5 151/4/5 152/4/5
f 154/5/5 153/5/5 152/5/5
f 155/5/5 153/5/5 154/5/5
f 156/3/6 157/3/6 158/3/6
f 156/3/6 158/3/6 160/3/6
f 158/3/6 159/3/6 160/3/6
f 160/3/6 159/3/6 161/3/6
f 162/3/6 163/3/6 167/3/6
f 163/4/6 164/4/6 168/4/6
f 167/3/6 163/3/6 168/3/6
f 164/5/6 165/5/6 169/5/6
f 168/4/6 164/4/6 169/4/6
f 169/5/6 165/5/6 170/5/6
f 170/5/6 165/5/6 171/5/6
f 166/3/6 167/3/6 172/3/6
f 167/4/6 168/4/6 173/4/6
f 172/3/6 167/3/6 173/3/6
f 173/4/6 168/4/6 174/4/6
f 172/4/6 173/4/6 175/4/6
f 175/4/6 173/4/6 176/4/6
f 175/5/6 176/5/6 177/5/6
f 175/5/6 177/5/6 178/5/6
f 178/5/6 177/5/6 179/5/6
f 180/2/6 181/2/6 185/2/6
f 181/3/6 182/3/6 186/3/6
f 185/2/6 181/2/6 186/2/6
f 182/4/6 183/4/6 187/4/6
f 186/3/6 182/3/6 187/3/6
f 184/2/6 185/2/6 188/2/6
f 185/3/6 186/3/6 189/3/6
f 188/2/6 185/2/6 189/2/6
f 186/4/6 187/4/6 190/4/6
f 189/3/6 186/3/6 190/3/6
f 188/3/6 189/3/6 191/3/6
f 189/4/6 190/4/6 192/4/6
f 191/3/6 189/3/6 192/3/6
f 191/4/6 192/4/6 193/4/6
f 187/4/6 183/4/6 194/4/6
f 193/4/6 192/4/6 194/4/6
f 190/4/6 187/4/6 194/4/6
f 192/4/6 190/4/6 194/4/6
