# MagicaVoxel @ Ephtracy

# group
o 

# material
mtllib Interior_Furniture_Table_Piece_Big_03.mtl
usemtl palette

# normals
vn -1 0 0
vn 1 0 0
vn 0 0 1
vn 0 0 -1
vn 0 -1 0
vn 0 1 0

# texcoords
vt 0.876953 0.5
vt 0.880859 0.5
vt 0.884766 0.5
vt 0.888672 0.5
vt 0.892578 0.5

# verts
v -0.8 0.2 0.8
v -0.8 0.2 0.7
v -0.8 0.3 0.8
v -0.8 0.3 0.7
v -0.8 0.8 0.8
v -0.8 0.8 -0.5
v -0.8 0.9 -0.5
v -0.8 0.9 -0.6
v -0.8 1 -0.5
v -0.8 1 -0.6
v -0.8 1.1 0.8
v -0.8 1.1 -0.5
v 0.5 0 -0.3
v 0.5 0 -0.4
v 0.5 0.1 -0.3
v 0.5 0.1 -0.4
v 0.5 0.2 0.7
v 0.5 0.2 -0.3
v 0.5 0.3 0.7
v 0.5 0.3 -0.3
v 0.5 0.8 -0.3
v 0.5 0.8 -0.4
v 0.6 0 -0.3
v 0.6 0 -0.4
v 0.6 0.1 -0.3
v 0.6 0.1 -0.4
v 0.6 0.2 0.8
v 0.6 0.2 -0.3
v 0.6 0.3 0.8
v 0.6 0.3 -0.3
v 0.6 0.8 -0.3
v 0.6 0.8 -0.4
v 0.6 0.8 -0.5
v 0.6 0.9 -0.4
v 0.6 0.9 -0.5
v 0.6 1 -0.4
v 0.6 1 -0.5
v 0.6 1.1 -0.4
v 0.6 1.1 -0.5
v 0.7 0.8 0.8
v 0.7 0.8 -0.4
v 0.7 0.9 0.8
v 0.7 0.9 -0.3
v 0.7 0.9 -0.4
v 0.7 0.9 -0.5
v 0.7 0.9 -0.6
v 0.7 1 0.8
v 0.7 1 -0.2
v 0.7 1 -0.3
v 0.7 1 -0.4
v 0.7 1 -0.5
v 0.7 1 -0.6
v 0.7 1.1 0.8
v 0.7 1.1 -0.2
v 0.7 1.1 -0.3
v 0.7 1.1 -0.4
v 0.8 0.9 0.8
v 0.8 0.9 -0.3
v 0.8 0.9 -0.4
v 0.8 0.9 -0.5
v 0.8 1 0.8
v 0.8 1 -0.3
v 0.8 1 -0.4
v 0.8 1 -0.5
v -0.8 0.2 0.8
v -0.8 0.3 0.8
v -0.8 0.8 0.8
v -0.8 1.1 0.8
v 0.6 0.2 0.8
v 0.6 0.3 0.8
v 0.7 0.8 0.8
v 0.7 0.9 0.8
v 0.7 1 0.8
v 0.7 1.1 0.8
v 0.8 0.9 0.8
v 0.8 1 0.8
v 0.5 0 -0.3
v 0.5 0.1 -0.3
v 0.5 0.2 -0.3
v 0.5 0.3 -0.3
v 0.5 0.8 -0.3
v 0.6 0 -0.3
v 0.6 0.1 -0.3
v 0.6 0.2 -0.3
v 0.6 0.3 -0.3
v 0.6 0.8 -0.3
v -0.8 0.2 0.7
v -0.8 0.3 0.7
v 0.5 0.2 0.7
v 0.5 0.3 0.7
v 0.5 0 -0.4
v 0.5 0.1 -0.4
v 0.5 0.8 -0.4
v 0.6 0 -0.4
v 0.6 0.1 -0.4
v 0.6 0.8 -0.4
v 0.6 0.9 -0.4
v 0.6 1 -0.4
v 0.6 1.1 -0.4
v 0.7 0.8 -0.4
v 0.7 0.9 -0.4
v 0.7 1 -0.4
v 0.7 1.1 -0.4
v -0.8 0.8 -0.5
v -0.8 0.9 -0.5
v -0.8 1 -0.5
v -0.8 1.1 -0.5
v 0.4 1 -0.5
v 0.4 1.1 -0.5
v 0.5 0.9 -0.5
v 0.5 1 -0.5
v 0.5 1.1 -0.5
v 0.6 0.8 -0.5
v 0.6 0.9 -0.5
v 0.6 1 -0.5
v 0.6 1.1 -0.5
v 0.7 0.9 -0.5
v 0.7 1 -0.5
v 0.8 0.9 -0.5
v 0.8 1 -0.5
v -0.8 0.9 -0.6
v -0.8 1 -0.6
v 0.5 0.9 -0.6
v 0.5 1 -0.6
v 0.6 0.9 -0.6
v 0.6 1 -0.6
v 0.7 0.9 -0.6
v 0.7 1 -0.6
v 0.5 0 -0.3
v 0.6 0 -0.3
v 0.5 0 -0.4
v 0.6 0 -0.4
v -0.8 0.2 0.8
v 0.6 0.2 0.8
v -0.8 0.2 0.7
v 0.5 0.2 0.7
v 0.5 0.2 -0.3
v 0.6 0.2 -0.3
v -0.8 0.8 0.8
v 0.7 0.8 0.8
v 0.5 0.8 -0.3
v 0.6 0.8 -0.3
v 0.5 0.8 -0.4
v 0.6 0.8 -0.4
v 0.7 0.8 -0.4
v -0.8 0.8 -0.5
v 0.6 0.8 -0.5
v 0.7 0.9 0.8
v 0.8 0.9 0.8
v 0.7 0.9 -0.3
v 0.8 0.9 -0.3
v 0.6 0.9 -0.4
v 0.7 0.9 -0.4
v 0.8 0.9 -0.4
v -0.8 0.9 -0.5
v 0.5 0.9 -0.5
v 0.6 0.9 -0.5
v 0.7 0.9 -0.5
v 0.8 0.9 -0.5
v -0.8 0.9 -0.6
v 0.5 0.9 -0.6
v 0.6 0.9 -0.6
v 0.7 0.9 -0.6
v -0.8 0.3 0.8
v 0.6 0.3 0.8
v -0.8 0.3 0.7
v 0.5 0.3 0.7
v 0.5 0.3 -0.3
v 0.6 0.3 -0.3
v 0.7 1 0.8
v 0.8 1 0.8
v 0.7 1 -0.2
v 0.7 1 -0.3
v 0.8 1 -0.3
v 0.6 1 -0.4
v 0.7 1 -0.4
v 0.8 1 -0.4
v -0.8 1 -0.5
v 0.4 1 -0.5
v 0.5 1 -0.5
v 0.6 1 -0.5
v 0.7 1 -0.5
v 0.8 1 -0.5
v -0.8 1 -0.6
v 0.5 1 -0.6
v 0.6 1 -0.6
v 0.7 1 -0.6
v -0.8 1.1 0.8
v 0.7 1.1 0.8
v 0.6 1.1 -0.2
v 0.7 1.1 -0.2
v 0.5 1.1 -0.3
v 0.6 1.1 -0.3
v 0.7 1.1 -0.3
v 0.4 1.1 -0.4
v 0.5 1.1 -0.4
v 0.6 1.1 -0.4
v 0.7 1.1 -0.4
v -0.8 1.1 -0.5
v 0.4 1.1 -0.5
v 0.5 1.1 -0.5
v 0.6 1.1 -0.5

# faces
f 3/3/1 2/3/1 1/3/1
f 4/3/1 2/3/1 3/3/1
f 7/4/1 6/4/1 5/4/1
f 9/4/1 7/4/1 5/4/1
f 9/5/1 8/5/1 7/5/1
f 10/5/1 8/5/1 9/5/1
f 11/4/1 9/4/1 5/4/1
f 12/4/1 9/4/1 11/4/1
f 15/1/1 14/1/1 13/1/1
f 16/1/1 14/1/1 15/1/1
f 18/3/1 16/3/1 15/3/1
f 19/3/1 18/3/1 17/3/1
f 20/3/1 16/3/1 18/3/1
f 20/3/1 18/3/1 19/3/1
f 21/3/1 16/3/1 20/3/1
f 22/3/1 16/3/1 21/3/1
f 23/1/2 24/1/2 25/1/2
f 25/1/2 24/1/2 26/1/2
f 25/3/2 26/3/2 28/3/2
f 27/3/2 28/3/2 29/3/2
f 28/3/2 26/3/2 30/3/2
f 29/3/2 28/3/2 30/3/2
f 30/3/2 26/3/2 31/3/2
f 31/3/2 26/3/2 32/3/2
f 32/4/2 33/4/2 34/4/2
f 34/4/2 33/4/2 35/4/2
f 36/2/2 37/2/2 38/2/2
f 38/2/2 37/2/2 39/2/2
f 40/4/2 41/4/2 42/4/2
f 42/4/2 41/4/2 43/4/2
f 43/4/2 41/4/2 44/4/2
f 45/3/2 46/3/2 51/3/2
f 51/3/2 46/3/2 52/3/2
f 47/4/2 48/4/2 53/4/2
f 48/3/2 49/3/2 54/3/2
f 53/4/2 48/4/2 54/4/2
f 49/2/2 50/2/2 55/2/2
f 54/3/2 49/3/2 55/3/2
f 55/2/2 50/2/2 56/2/2
f 57/5/2 58/5/2 61/5/2
f 58/4/2 59/4/2 62/4/2
f 61/5/2 58/5/2 62/5/2
f 59/3/2 60/3/2 63/3/2
f 62/4/2 59/4/2 63/4/2
f 63/3/2 60/3/2 64/3/2
f 69/3/3 66/3/3 65/3/3
f 70/3/3 66/3/3 69/3/3
f 71/4/3 68/4/3 67/4/3
f 72/4/3 68/4/3 71/4/3
f 73/4/3 68/4/3 72/4/3
f 74/4/3 68/4/3 73/4/3
f 75/5/3 73/5/3 72/5/3
f 76/5/3 73/5/3 75/5/3
f 82/1/3 78/1/3 77/1/3
f 83/3/3 79/3/3 78/3/3
f 83/1/3 78/1/3 82/1/3
f 84/3/3 79/3/3 83/3/3
f 85/3/3 81/3/3 80/3/3
f 86/3/3 81/3/3 85/3/3
f 87/3/4 88/3/4 89/3/4
f 89/3/4 88/3/4 90/3/4
f 91/1/4 92/1/4 94/1/4
f 92/3/4 93/3/4 95/3/4
f 94/1/4 92/1/4 95/1/4
f 95/3/4 93/3/4 96/3/4
f 96/4/4 97/4/4 100/4/4
f 100/4/4 97/4/4 101/4/4
f 98/2/4 99/2/4 102/2/4
f 102/2/4 99/2/4 103/2/4
f 106/4/4 107/4/4 108/4/4
f 108/4/4 107/4/4 109/4/4
f 104/4/4 105/4/4 110/4/4
f 108/3/4 109/3/4 111/3/4
f 111/3/4 109/3/4 112/3/4
f 104/4/4 110/4/4 113/4/4
f 113/4/4 110/4/4 114/4/4
f 111/2/4 112/2/4 115/2/4
f 115/2/4 112/2/4 116/2/4
f 117/3/4 118/3/4 119/3/4
f 119/3/4 118/3/4 120/3/4
f 121/5/4 122/5/4 123/5/4
f 123/5/4 122/5/4 124/5/4
f 123/4/4 124/4/4 125/4/4
f 125/4/4 124/4/4 126/4/4
f 125/3/4 126/3/4 127/3/4
f 127/3/4 126/3/4 128/3/4
f 131/1/5 130/1/5 129/1/5
f 132/1/5 130/1/5 131/1/5
f 135/3/5 134/3/5 133/3/5
f 136/3/5 134/3/5 135/3/5
f 137/3/5 134/3/5 136/3/5
f 138/3/5 134/3/5 137/3/5
f 141/4/5 140/4/5 139/4/5
f 142/4/5 140/4/5 141/4/5
f 143/4/5 141/4/5 139/4/5
f 144/4/5 140/4/5 142/4/5
f 145/4/5 140/4/5 144/4/5
f 146/4/5 143/4/5 139/4/5
f 146/4/5 144/4/5 143/4/5
f 147/4/5 144/4/5 146/4/5
f 150/5/5 149/5/5 148/5/5
f 151/5/5 149/5/5 150/5/5
f 153/4/5 151/4/5 150/4/5
f 154/4/5 151/4/5 153/4/5
f 157/4/5 153/4/5 152/4/5
f 158/3/5 154/3/5 153/3/5
f 158/4/5 153/4/5 157/4/5
f 159/3/5 154/3/5 158/3/5
f 160/5/5 156/5/5 155/5/5
f 161/4/5 157/4/5 156/4/5
f 161/5/5 156/5/5 160/5/5
f 162/3/5 158/3/5 157/3/5
f 162/4/5 157/4/5 161/4/5
f 163/3/5 158/3/5 162/3/5
f 164/3/6 165/3/6 166/3/6
f 166/3/6 165/3/6 167/3/6
f 167/3/6 165/3/6 168/3/6
f 168/3/6 165/3/6 169/3/6
f 170/5/6 171/5/6 172/5/6
f 172/5/6 171/5/6 173/5/6
f 173/5/6 171/5/6 174/5/6
f 173/4/6 174/4/6 176/4/6
f 176/4/6 174/4/6 177/4/6
f 175/4/6 176/4/6 181/4/6
f 176/3/6 177/3/6 182/3/6
f 181/4/6 176/4/6 182/4/6
f 182/3/6 177/3/6 183/3/6
f 179/5/6 180/5/6 184/5/6
f 178/5/6 179/5/6 184/5/6
f 180/4/6 181/4/6 185/4/6
f 184/5/6 180/5/6 185/5/6
f 181/3/6 182/3/6 186/3/6
f 185/4/6 181/4/6 186/4/6
f 186/3/6 182/3/6 187/3/6
f 188/4/6 189/4/6 190/4/6
f 190/4/6 189/4/6 191/4/6
f 188/4/6 190/4/6 192/4/6
f 190/3/6 191/3/6 193/3/6
f 192/4/6 190/4/6 193/4/6
f 193/3/6 191/3/6 194/3/6
f 188/4/6 192/4/6 195/4/6
f 192/3/6 193/3/6 196/3/6
f 195/4/6 192/4/6 196/4/6
f 193/2/6 194/2/6 197/2/6
f 196/3/6 193/3/6 197/3/6
f 197/2/6 194/2/6 198/2/6
f 188/4/6 195/4/6 199/4/6
f 195/3/6 196/3/6 200/3/6
f 199/4/6 195/4/6 200/4/6
f 196/2/6 197/2/6 201/2/6
f 200/3/6 196/3/6 201/3/6
f 201/2/6 197/2/6 202/2/6
