# MagicaVoxel @ Ephtracy

# group
o 

# material
mtllib Interior_Furniture_Table_Piece_Long_Type01_01.mtl
usemtl palette

# normals
vn -1 0 0
vn 1 0 0
vn 0 0 1
vn 0 0 -1
vn 0 -1 0
vn 0 1 0

# texcoords
vt 0.876953 0.5
vt 0.880859 0.5
vt 0.884766 0.5
vt 0.888672 0.5
vt 0.892578 0.5

# verts
v -0.8 0.9 0.7
v -0.8 0.9 0.6
v -0.8 0.9 0.5
v -0.8 0.9 -0.5
v -0.8 0.9 -0.6
v -0.8 0.9 -0.7
v -0.8 1 0.7
v -0.8 1 0.6
v -0.8 1 0.5
v -0.8 1 -0.5
v -0.8 1 -0.6
v -0.8 1 -0.7
v -0.7 0.8 0.7
v -0.7 0.8 -0.7
v -0.7 0.9 0.8
v -0.7 0.9 0.7
v -0.7 0.9 0.6
v -0.7 0.9 0.5
v -0.7 0.9 -0.5
v -0.7 0.9 -0.6
v -0.7 0.9 -0.7
v -0.7 0.9 -0.8
v -0.7 1 0.8
v -0.7 1 0.7
v -0.7 1 0.6
v -0.7 1 0.5
v -0.7 1 -0.5
v -0.7 1 -0.6
v -0.7 1 -0.7
v -0.7 1 -0.8
v -0.7 1.1 0.7
v -0.7 1.1 0.6
v -0.7 1.1 0.5
v -0.7 1.1 -0.5
v -0.7 1.1 -0.6
v -0.7 1.1 -0.7
v -0.6 0 0.7
v -0.6 0 0.6
v -0.6 0 -0.6
v -0.6 0 -0.7
v -0.6 0.1 0.7
v -0.6 0.1 0.6
v -0.6 0.1 -0.6
v -0.6 0.1 -0.7
v -0.6 0.8 0.7
v -0.6 0.8 0.6
v -0.6 0.8 -0.6
v -0.6 0.8 -0.7
v -0.5 0 0.7
v -0.5 0 0.6
v -0.5 0 -0.6
v -0.5 0 -0.7
v -0.5 0.1 0.7
v -0.5 0.1 0.6
v -0.5 0.1 -0.6
v -0.5 0.1 -0.7
v -0.5 0.8 0.7
v -0.5 0.8 0.6
v -0.5 0.8 -0.6
v -0.5 0.8 -0.7
v 0.8 0.8 0.7
v 0.8 0.8 -0.7
v 0.8 0.9 0.8
v 0.8 0.9 0.7
v 0.8 0.9 -0.7
v 0.8 0.9 -0.8
v 0.8 1 0.8
v 0.8 1 0.7
v 0.8 1 -0.7
v 0.8 1 -0.8
v 0.8 1.1 0.7
v 0.8 1.1 -0.7
v -0.7 0.9 0.8
v -0.7 1 0.8
v -0.6 0.9 0.8
v -0.6 1 0.8
v -0.5 0.9 0.8
v -0.5 1 0.8
v 0.8 0.9 0.8
v 0.8 1 0.8
v -0.8 0.9 0.7
v -0.8 1 0.7
v -0.7 0.8 0.7
v -0.7 0.9 0.7
v -0.7 1 0.7
v -0.7 1.1 0.7
v -0.6 0 0.7
v -0.6 0.1 0.7
v -0.6 0.8 0.7
v -0.6 0.9 0.7
v -0.6 1 0.7
v -0.6 1.1 0.7
v -0.5 0 0.7
v -0.5 0.1 0.7
v -0.5 0.8 0.7
v -0.5 0.9 0.7
v -0.5 1 0.7
v -0.5 1.1 0.7
v 0.8 0.8 0.7
v 0.8 0.9 0.7
v 0.8 1 0.7
v 0.8 1.1 0.7
v -0.6 0 -0.6
v -0.6 0.1 -0.6
v -0.6 0.8 -0.6
v -0.5 0 -0.6
v -0.5 0.1 -0.6
v -0.5 0.8 -0.6
v -0.6 0 0.6
v -0.6 0.1 0.6
v -0.6 0.8 0.6
v -0.5 0 0.6
v -0.5 0.1 0.6
v -0.5 0.8 0.6
v -0.8 0.9 -0.7
v -0.8 1 -0.7
v -0.7 0.8 -0.7
v -0.7 0.9 -0.7
v -0.7 1 -0.7
v -0.7 1.1 -0.7
v -0.6 0 -0.7
v -0.6 0.1 -0.7
v -0.6 0.8 -0.7
v -0.6 0.9 -0.7
v -0.6 1 -0.7
v -0.6 1.1 -0.7
v -0.5 0 -0.7
v -0.5 0.1 -0.7
v -0.5 0.8 -0.7
v -0.5 0.9 -0.7
v -0.5 1 -0.7
v -0.5 1.1 -0.7
v 0.8 0.8 -0.7
v 0.8 0.9 -0.7
v 0.8 1 -0.7
v 0.8 1.1 -0.7
v -0.7 0.9 -0.8
v -0.7 1 -0.8
v -0.6 0.9 -0.8
v -0.6 1 -0.8
v -0.5 0.9 -0.8
v -0.5 1 -0.8
v 0.8 0.9 -0.8
v 0.8 1 -0.8
v -0.6 0 0.7
v -0.5 0 0.7
v -0.6 0 0.6
v -0.5 0 0.6
v -0.6 0 -0.6
v -0.5 0 -0.6
v -0.6 0 -0.7
v -0.5 0 -0.7
v -0.7 0.8 0.7
v -0.6 0.8 0.7
v -0.5 0.8 0.7
v 0.8 0.8 0.7
v -0.6 0.8 0.6
v -0.5 0.8 0.6
v -0.6 0.8 -0.6
v -0.5 0.8 -0.6
v -0.7 0.8 -0.7
v -0.6 0.8 -0.7
v -0.5 0.8 -0.7
v 0.8 0.8 -0.7
v -0.7 0.9 0.8
v -0.6 0.9 0.8
v -0.5 0.9 0.8
v 0.8 0.9 0.8
v -0.8 0.9 0.7
v -0.7 0.9 0.7
v -0.6 0.9 0.7
v -0.5 0.9 0.7
v 0.8 0.9 0.7
v -0.8 0.9 0.6
v -0.7 0.9 0.6
v -0.8 0.9 0.5
v -0.7 0.9 0.5
v -0.8 0.9 -0.5
v -0.7 0.9 -0.5
v -0.8 0.9 -0.6
v -0.7 0.9 -0.6
v -0.8 0.9 -0.7
v -0.7 0.9 -0.7
v -0.6 0.9 -0.7
v -0.5 0.9 -0.7
v 0.8 0.9 -0.7
v -0.7 0.9 -0.8
v -0.6 0.9 -0.8
v -0.5 0.9 -0.8
v 0.8 0.9 -0.8
v -0.7 1 0.8
v -0.6 1 0.8
v -0.5 1 0.8
v 0.8 1 0.8
v -0.8 1 0.7
v -0.7 1 0.7
v -0.6 1 0.7
v -0.5 1 0.7
v 0.8 1 0.7
v -0.8 1 0.6
v -0.7 1 0.6
v -0.8 1 0.5
v -0.7 1 0.5
v -0.8 1 -0.5
v -0.7 1 -0.5
v -0.8 1 -0.6
v -0.7 1 -0.6
v -0.8 1 -0.7
v -0.7 1 -0.7
v -0.6 1 -0.7
v -0.5 1 -0.7
v 0.8 1 -0.7
v -0.7 1 -0.8
v -0.6 1 -0.8
v -0.5 1 -0.8
v 0.8 1 -0.8
v -0.7 1.1 0.7
v -0.6 1.1 0.7
v -0.5 1.1 0.7
v 0.8 1.1 0.7
v -0.7 1.1 0.6
v -0.6 1.1 0.6
v -0.5 1.1 0.6
v -0.7 1.1 0.5
v -0.6 1.1 0.5
v -0.7 1.1 -0.5
v -0.6 1.1 -0.5
v -0.7 1.1 -0.6
v -0.6 1.1 -0.6
v -0.5 1.1 -0.6
v -0.7 1.1 -0.7
v -0.6 1.1 -0.7
v -0.5 1.1 -0.7
v 0.8 1.1 -0.7

# faces
f 7/3/1 2/3/1 1/3/1
f 8/4/1 3/4/1 2/4/1
f 8/3/1 2/3/1 7/3/1
f 9/5/1 4/5/1 3/5/1
f 9/4/1 3/4/1 8/4/1
f 10/4/1 5/4/1 4/4/1
f 10/5/1 4/5/1 9/5/1
f 11/3/1 6/3/1 5/3/1
f 11/4/1 5/4/1 10/4/1
f 12/3/1 6/3/1 11/3/1
f 16/4/1 14/4/1 13/4/1
f 17/4/1 14/4/1 16/4/1
f 18/4/1 14/4/1 17/4/1
f 19/4/1 14/4/1 18/4/1
f 20/4/1 14/4/1 19/4/1
f 21/4/1 14/4/1 20/4/1
f 23/3/1 16/3/1 15/3/1
f 24/3/1 16/3/1 23/3/1
f 29/3/1 22/3/1 21/3/1
f 30/3/1 22/3/1 29/3/1
f 31/2/1 25/2/1 24/2/1
f 32/3/1 26/3/1 25/3/1
f 32/2/1 25/2/1 31/2/1
f 33/4/1 27/4/1 26/4/1
f 33/3/1 26/3/1 32/3/1
f 34/3/1 28/3/1 27/3/1
f 34/4/1 27/4/1 33/4/1
f 35/2/1 29/2/1 28/2/1
f 35/3/1 28/3/1 34/3/1
f 36/2/1 29/2/1 35/2/1
f 41/1/1 38/1/1 37/1/1
f 42/1/1 38/1/1 41/1/1
f 43/1/1 40/1/1 39/1/1
f 44/1/1 40/1/1 43/1/1
f 45/3/1 42/3/1 41/3/1
f 46/3/1 42/3/1 45/3/1
f 47/3/1 44/3/1 43/3/1
f 48/3/1 44/3/1 47/3/1
f 49/1/2 50/1/2 53/1/2
f 53/1/2 50/1/2 54/1/2
f 51/1/2 52/1/2 55/1/2
f 55/1/2 52/1/2 56/1/2
f 53/3/2 54/3/2 57/3/2
f 57/3/2 54/3/2 58/3/2
f 55/3/2 56/3/2 59/3/2
f 59/3/2 56/3/2 60/3/2
f 61/4/2 62/4/2 64/4/2
f 64/4/2 62/4/2 65/4/2
f 63/5/2 64/5/2 67/5/2
f 64/4/2 65/4/2 68/4/2
f 67/5/2 64/5/2 68/5/2
f 65/5/2 66/5/2 69/5/2
f 68/4/2 65/4/2 69/4/2
f 69/5/2 66/5/2 70/5/2
f 68/4/2 69/4/2 71/4/2
f 71/4/2 69/4/2 72/4/2
f 75/3/3 74/3/3 73/3/3
f 76/3/3 74/3/3 75/3/3
f 77/4/3 76/4/3 75/4/3
f 78/4/3 76/4/3 77/4/3
f 79/5/3 78/5/3 77/5/3
f 80/5/3 78/5/3 79/5/3
f 84/3/3 82/3/3 81/3/3
f 85/3/3 82/3/3 84/3/3
f 89/4/3 84/4/3 83/4/3
f 90/4/3 84/4/3 89/4/3
f 91/2/3 86/2/3 85/2/3
f 92/2/3 86/2/3 91/2/3
f 93/1/3 88/1/3 87/1/3
f 94/3/3 89/3/3 88/3/3
f 94/1/3 88/1/3 93/1/3
f 95/4/3 90/4/3 89/4/3
f 95/3/3 89/3/3 94/3/3
f 96/4/3 90/4/3 95/4/3
f 97/3/3 92/3/3 91/3/3
f 98/3/3 92/3/3 97/3/3
f 99/4/3 96/4/3 95/4/3
f 100/4/3 96/4/3 99/4/3
f 101/4/3 98/4/3 97/4/3
f 102/4/3 98/4/3 101/4/3
f 106/1/3 104/1/3 103/1/3
f 107/3/3 105/3/3 104/3/3
f 107/1/3 104/1/3 106/1/3
f 108/3/3 105/3/3 107/3/3
f 109/1/4 110/1/4 112/1/4
f 110/3/4 111/3/4 113/3/4
f 112/1/4 110/1/4 113/1/4
f 113/3/4 111/3/4 114/3/4
f 115/3/4 116/3/4 118/3/4
f 118/3/4 116/3/4 119/3/4
f 117/4/4 118/4/4 123/4/4
f 123/4/4 118/4/4 124/4/4
f 119/2/4 120/2/4 125/2/4
f 125/2/4 120/2/4 126/2/4
f 121/1/4 122/1/4 127/1/4
f 122/3/4 123/3/4 128/3/4
f 127/1/4 122/1/4 128/1/4
f 123/4/4 124/4/4 129/4/4
f 128/3/4 123/3/4 129/3/4
f 129/4/4 124/4/4 130/4/4
f 125/3/4 126/3/4 131/3/4
f 131/3/4 126/3/4 132/3/4
f 129/4/4 130/4/4 133/4/4
f 133/4/4 130/4/4 134/4/4
f 131/4/4 132/4/4 135/4/4
f 135/4/4 132/4/4 136/4/4
f 137/3/4 138/3/4 139/3/4
f 139/3/4 138/3/4 140/3/4
f 139/4/4 140/4/4 141/4/4
f 141/4/4 140/4/4 142/4/4
f 141/5/4 142/5/4 143/5/4
f 143/5/4 142/5/4 144/5/4
f 147/1/5 146/1/5 145/1/5
f 148/1/5 146/1/5 147/1/5
f 151/1/5 150/1/5 149/1/5
f 152/1/5 150/1/5 151/1/5
f 157/4/5 154/4/5 153/4/5
f 158/4/5 156/4/5 155/4/5
f 159/4/5 157/4/5 153/4/5
f 159/4/5 158/4/5 157/4/5
f 160/4/5 156/4/5 158/4/5
f 160/4/5 158/4/5 159/4/5
f 161/4/5 159/4/5 153/4/5
f 162/4/5 159/4/5 161/4/5
f 163/4/5 156/4/5 160/4/5
f 164/4/5 156/4/5 163/4/5
f 170/3/5 166/3/5 165/3/5
f 171/4/5 167/4/5 166/4/5
f 171/3/5 166/3/5 170/3/5
f 172/5/5 168/5/5 167/5/5
f 172/4/5 167/4/5 171/4/5
f 173/5/5 168/5/5 172/5/5
f 174/3/5 170/3/5 169/3/5
f 175/3/5 170/3/5 174/3/5
f 176/4/5 175/4/5 174/4/5
f 177/4/5 175/4/5 176/4/5
f 178/5/5 177/5/5 176/5/5
f 179/5/5 177/5/5 178/5/5
f 180/4/5 179/4/5 178/4/5
f 181/4/5 179/4/5 180/4/5
f 182/3/5 181/3/5 180/3/5
f 183/3/5 181/3/5 182/3/5
f 187/3/5 184/3/5 183/3/5
f 188/4/5 185/4/5 184/4/5
f 188/3/5 184/3/5 187/3/5
f 189/5/5 186/5/5 185/5/5
f 189/4/5 185/4/5 188/4/5
f 190/5/5 186/5/5 189/5/5
f 191/3/6 192/3/6 196/3/6
f 192/4/6 193/4/6 197/4/6
f 196/3/6 192/3/6 197/3/6
f 193/5/6 194/5/6 198/5/6
f 197/4/6 193/4/6 198/4/6
f 198/5/6 194/5/6 199/5/6
f 195/3/6 196/3/6 200/3/6
f 200/3/6 196/3/6 201/3/6
f 200/4/6 201/4/6 202/4/6
f 202/4/6 201/4/6 203/4/6
f 202/5/6 203/5/6 204/5/6
f 204/5/6 203/5/6 205/5/6
f 204/4/6 205/4/6 206/4/6
f 206/4/6 205/4/6 207/4/6
f 206/3/6 207/3/6 208/3/6
f 208/3/6 207/3/6 209/3/6
f 209/3/6 210/3/6 213/3/6
f 210/4/6 211/4/6 214/4/6
f 213/3/6 210/3/6 214/3/6
f 211/5/6 212/5/6 215/5/6
f 214/4/6 211/4/6 215/4/6
f 215/5/6 212/5/6 216/5/6
f 217/2/6 218/2/6 221/2/6
f 218/3/6 219/3/6 222/3/6
f 221/2/6 218/2/6 222/2/6
f 219/4/6 220/4/6 223/4/6
f 222/3/6 219/3/6 223/3/6
f 221/3/6 222/3/6 224/3/6
f 222/4/6 223/4/6 225/4/6
f 224/3/6 222/3/6 225/3/6
f 224/4/6 225/4/6 226/4/6
f 225/4/6 223/4/6 227/4/6
f 226/4/6 225/4/6 227/4/6
f 226/3/6 227/3/6 228/3/6
f 227/4/6 223/4/6 229/4/6
f 228/3/6 227/3/6 229/3/6
f 223/4/6 220/4/6 230/4/6
f 229/4/6 223/4/6 230/4/6
f 228/2/6 229/2/6 231/2/6
f 229/3/6 230/3/6 232/3/6
f 231/2/6 229/2/6 232/2/6
f 230/4/6 220/4/6 233/4/6
f 232/3/6 230/3/6 233/3/6
f 233/4/6 220/4/6 234/4/6
