# MagicaVoxel @ Ephtracy

# group
o 

# material
mtllib Interior_Furniture_Table_Piece_Big_05.mtl
usemtl palette

# normals
vn -1 0 0
vn 1 0 0
vn 0 0 1
vn 0 0 -1
vn 0 -1 0
vn 0 1 0

# texcoords
vt 0.884766 0.5
vt 0.888672 0.5

# verts
v -0.8 0.2 0.8
v -0.8 0.2 0.7
v -0.8 0.2 -0.7
v -0.8 0.2 -0.8
v -0.8 0.3 0.8
v -0.8 0.3 0.7
v -0.8 0.3 -0.7
v -0.8 0.3 -0.8
v -0.8 0.8 0.8
v -0.8 0.8 -0.8
v -0.8 1.1 0.8
v -0.8 1.1 -0.8
v 0.8 0.2 0.8
v 0.8 0.2 0.7
v 0.8 0.2 -0.7
v 0.8 0.2 -0.8
v 0.8 0.3 0.8
v 0.8 0.3 0.7
v 0.8 0.3 -0.7
v 0.8 0.3 -0.8
v 0.8 0.8 0.8
v 0.8 0.8 -0.8
v 0.8 1.1 0.8
v 0.8 1.1 -0.8
v -0.8 0.2 0.8
v -0.8 0.3 0.8
v -0.8 0.8 0.8
v -0.8 1.1 0.8
v 0.8 0.2 0.8
v 0.8 0.3 0.8
v 0.8 0.8 0.8
v 0.8 1.1 0.8
v -0.8 0.2 -0.7
v -0.8 0.3 -0.7
v 0.8 0.2 -0.7
v 0.8 0.3 -0.7
v -0.8 0.2 0.7
v -0.8 0.3 0.7
v 0.8 0.2 0.7
v 0.8 0.3 0.7
v -0.8 0.2 -0.8
v -0.8 0.3 -0.8
v -0.8 0.8 -0.8
v -0.8 1.1 -0.8
v 0.8 0.2 -0.8
v 0.8 0.3 -0.8
v 0.8 0.8 -0.8
v 0.8 1.1 -0.8
v -0.8 0.2 0.8
v 0.8 0.2 0.8
v -0.8 0.2 0.7
v 0.8 0.2 0.7
v -0.8 0.2 -0.7
v 0.8 0.2 -0.7
v -0.8 0.2 -0.8
v 0.8 0.2 -0.8
v -0.8 0.8 0.8
v 0.8 0.8 0.8
v -0.8 0.8 -0.8
v 0.8 0.8 -0.8
v -0.8 0.3 0.8
v 0.8 0.3 0.8
v -0.8 0.3 0.7
v 0.8 0.3 0.7
v -0.8 0.3 -0.7
v 0.8 0.3 -0.7
v -0.8 0.3 -0.8
v 0.8 0.3 -0.8
v -0.8 1.1 0.8
v 0.8 1.1 0.8
v -0.8 1.1 -0.8
v 0.8 1.1 -0.8

# faces
f 5/1/1 2/1/1 1/1/1
f 6/1/1 2/1/1 5/1/1
f 7/1/1 4/1/1 3/1/1
f 8/1/1 4/1/1 7/1/1
f 11/2/1 10/2/1 9/2/1
f 12/2/1 10/2/1 11/2/1
f 13/1/2 14/1/2 17/1/2
f 17/1/2 14/1/2 18/1/2
f 15/1/2 16/1/2 19/1/2
f 19/1/2 16/1/2 20/1/2
f 21/2/2 22/2/2 23/2/2
f 23/2/2 22/2/2 24/2/2
f 29/1/3 26/1/3 25/1/3
f 30/1/3 26/1/3 29/1/3
f 31/2/3 28/2/3 27/2/3
f 32/2/3 28/2/3 31/2/3
f 35/1/3 34/1/3 33/1/3
f 36/1/3 34/1/3 35/1/3
f 37/1/4 38/1/4 39/1/4
f 39/1/4 38/1/4 40/1/4
f 41/1/4 42/1/4 45/1/4
f 45/1/4 42/1/4 46/1/4
f 43/2/4 44/2/4 47/2/4
f 47/2/4 44/2/4 48/2/4
f 51/1/5 50/1/5 49/1/5
f 52/1/5 50/1/5 51/1/5
f 55/1/5 54/1/5 53/1/5
f 56/1/5 54/1/5 55/1/5
f 59/2/5 58/2/5 57/2/5
f 60/2/5 58/2/5 59/2/5
f 61/1/6 62/1/6 63/1/6
f 63/1/6 62/1/6 64/1/6
f 65/1/6 66/1/6 67/1/6
f 67/1/6 66/1/6 68/1/6
f 69/2/6 70/2/6 71/2/6
f 71/2/6 70/2/6 72/2/6
