# MagicaVoxel @ Ephtracy

# group
o 

# material
mtllib Interior_Furniture_Table_Piece_Long_Type02_01.mtl
usemtl palette

# normals
vn -1 0 0
vn 1 0 0
vn 0 0 1
vn 0 0 -1
vn 0 -1 0
vn 0 1 0

# texcoords
vt 0.876953 0.5
vt 0.880859 0.5
vt 0.884766 0.5
vt 0.888672 0.5
vt 0.892578 0.5

# verts
v -0.8 0.9 0.5
v -0.8 0.9 0.4
v -0.8 0.9 0.3
v -0.8 0.9 -0.3
v -0.8 0.9 -0.4
v -0.8 0.9 -0.5
v -0.8 1 0.5
v -0.8 1 0.4
v -0.8 1 0.3
v -0.8 1 -0.3
v -0.8 1 -0.4
v -0.8 1 -0.5
v -0.7 0.8 0.5
v -0.7 0.8 -0.4
v -0.7 0.9 0.6
v -0.7 0.9 0.5
v -0.7 0.9 0.4
v -0.7 0.9 0.3
v -0.7 0.9 -0.3
v -0.7 0.9 -0.4
v -0.7 0.9 -0.5
v -0.7 0.9 -0.6
v -0.7 1 0.6
v -0.7 1 0.5
v -0.7 1 0.4
v -0.7 1 0.3
v -0.7 1 0.2
v -0.7 1 -0.2
v -0.7 1 -0.3
v -0.7 1 -0.4
v -0.7 1 -0.5
v -0.7 1 -0.6
v -0.7 1.1 0.4
v -0.7 1.1 0.3
v -0.7 1.1 0.2
v -0.7 1.1 -0.2
v -0.7 1.1 -0.3
v -0.7 1.1 -0.4
v -0.6 0 0.4
v -0.6 0 0.3
v -0.6 0 -0.3
v -0.6 0 -0.4
v -0.6 0.1 0.4
v -0.6 0.1 0.3
v -0.6 0.1 -0.3
v -0.6 0.1 -0.4
v -0.6 0.8 0.4
v -0.6 0.8 0.3
v -0.6 0.8 -0.3
v -0.6 0.8 -0.4
v -0.6 0.8 -0.5
v -0.6 0.9 -0.4
v -0.6 0.9 -0.5
v -0.6 1 0.5
v -0.6 1 0.4
v -0.6 1 -0.4
v -0.6 1 -0.5
v -0.6 1.1 0.5
v -0.6 1.1 0.4
v -0.6 1.1 -0.4
v -0.6 1.1 -0.5
v -0.5 0 0.4
v -0.5 0 0.3
v -0.5 0 -0.3
v -0.5 0 -0.4
v -0.5 0.1 0.4
v -0.5 0.1 0.3
v -0.5 0.1 -0.3
v -0.5 0.1 -0.4
v -0.5 0.8 0.4
v -0.5 0.8 0.3
v -0.5 0.8 -0.3
v -0.5 0.8 -0.4
v 0.8 0.8 0.5
v 0.8 0.8 -0.5
v 0.8 0.9 0.6
v 0.8 0.9 0.5
v 0.8 0.9 -0.5
v 0.8 0.9 -0.6
v 0.8 1 0.6
v 0.8 1 0.5
v 0.8 1 -0.5
v 0.8 1 -0.6
v 0.8 1.1 0.5
v 0.8 1.1 -0.5
v -0.7 0.9 0.6
v -0.7 1 0.6
v -0.6 0.9 0.6
v -0.6 1 0.6
v -0.5 0.9 0.6
v -0.5 1 0.6
v 0.8 0.9 0.6
v 0.8 1 0.6
v -0.8 0.9 0.5
v -0.8 1 0.5
v -0.7 0.8 0.5
v -0.7 0.9 0.5
v -0.7 1 0.5
v -0.6 0.9 0.5
v -0.6 1 0.5
v -0.6 1.1 0.5
v -0.5 0.9 0.5
v -0.5 1 0.5
v -0.5 1.1 0.5
v -0.4 1 0.5
v -0.4 1.1 0.5
v 0.8 0.8 0.5
v 0.8 0.9 0.5
v 0.8 1 0.5
v 0.8 1.1 0.5
v -0.7 1 0.4
v -0.7 1.1 0.4
v -0.6 0 0.4
v -0.6 0.1 0.4
v -0.6 0.8 0.4
v -0.6 1 0.4
v -0.6 1.1 0.4
v -0.5 0 0.4
v -0.5 0.1 0.4
v -0.5 0.8 0.4
v -0.6 0 -0.3
v -0.6 0.1 -0.3
v -0.6 0.8 -0.3
v -0.5 0 -0.3
v -0.5 0.1 -0.3
v -0.5 0.8 -0.3
v -0.6 0 0.3
v -0.6 0.1 0.3
v -0.6 0.8 0.3
v -0.5 0 0.3
v -0.5 0.1 0.3
v -0.5 0.8 0.3
v -0.7 0.8 -0.4
v -0.7 0.9 -0.4
v -0.7 1 -0.4
v -0.7 1.1 -0.4
v -0.6 0 -0.4
v -0.6 0.1 -0.4
v -0.6 0.8 -0.4
v -0.6 0.9 -0.4
v -0.6 1 -0.4
v -0.6 1.1 -0.4
v -0.5 0 -0.4
v -0.5 0.1 -0.4
v -0.5 0.8 -0.4
v -0.8 0.9 -0.5
v -0.8 1 -0.5
v -0.7 0.9 -0.5
v -0.7 1 -0.5
v -0.6 0.8 -0.5
v -0.6 0.9 -0.5
v -0.6 1 -0.5
v -0.6 1.1 -0.5
v -0.5 0.9 -0.5
v -0.5 1 -0.5
v -0.5 1.1 -0.5
v -0.4 1 -0.5
v -0.4 1.1 -0.5
v 0.8 0.8 -0.5
v 0.8 0.9 -0.5
v 0.8 1 -0.5
v 0.8 1.1 -0.5
v -0.7 0.9 -0.6
v -0.7 1 -0.6
v -0.6 0.9 -0.6
v -0.6 1 -0.6
v -0.5 0.9 -0.6
v -0.5 1 -0.6
v 0.8 0.9 -0.6
v 0.8 1 -0.6
v -0.6 0 0.4
v -0.5 0 0.4
v -0.6 0 0.3
v -0.5 0 0.3
v -0.6 0 -0.3
v -0.5 0 -0.3
v -0.6 0 -0.4
v -0.5 0 -0.4
v -0.7 0.8 0.5
v 0.8 0.8 0.5
v -0.6 0.8 0.4
v -0.5 0.8 0.4
v -0.6 0.8 0.3
v -0.5 0.8 0.3
v -0.6 0.8 -0.3
v -0.5 0.8 -0.3
v -0.7 0.8 -0.4
v -0.6 0.8 -0.4
v -0.5 0.8 -0.4
v -0.6 0.8 -0.5
v 0.8 0.8 -0.5
v -0.7 0.9 0.6
v -0.6 0.9 0.6
v -0.5 0.9 0.6
v 0.8 0.9 0.6
v -0.8 0.9 0.5
v -0.7 0.9 0.5
v -0.6 0.9 0.5
v -0.5 0.9 0.5
v 0.8 0.9 0.5
v -0.8 0.9 0.4
v -0.7 0.9 0.4
v -0.8 0.9 0.3
v -0.7 0.9 0.3
v -0.8 0.9 -0.3
v -0.7 0.9 -0.3
v -0.8 0.9 -0.4
v -0.7 0.9 -0.4
v -0.6 0.9 -0.4
v -0.8 0.9 -0.5
v -0.7 0.9 -0.5
v -0.6 0.9 -0.5
v -0.5 0.9 -0.5
v 0.8 0.9 -0.5
v -0.7 0.9 -0.6
v -0.6 0.9 -0.6
v -0.5 0.9 -0.6
v 0.8 0.9 -0.6
v -0.7 1 0.6
v -0.6 1 0.6
v -0.5 1 0.6
v 0.8 1 0.6
v -0.8 1 0.5
v -0.7 1 0.5
v -0.6 1 0.5
v -0.5 1 0.5
v -0.4 1 0.5
v 0.8 1 0.5
v -0.8 1 0.4
v -0.7 1 0.4
v -0.6 1 0.4
v -0.8 1 0.3
v -0.7 1 0.3
v -0.7 1 0.2
v -0.7 1 -0.2
v -0.8 1 -0.3
v -0.7 1 -0.3
v -0.8 1 -0.4
v -0.7 1 -0.4
v -0.6 1 -0.4
v -0.8 1 -0.5
v -0.7 1 -0.5
v -0.6 1 -0.5
v -0.5 1 -0.5
v -0.4 1 -0.5
v 0.8 1 -0.5
v -0.7 1 -0.6
v -0.6 1 -0.6
v -0.5 1 -0.6
v 0.8 1 -0.6
v -0.6 1.1 0.5
v -0.5 1.1 0.5
v -0.4 1.1 0.5
v 0.8 1.1 0.5
v -0.7 1.1 0.4
v -0.6 1.1 0.4
v -0.5 1.1 0.4
v -0.4 1.1 0.4
v -0.7 1.1 0.3
v -0.6 1.1 0.3
v -0.5 1.1 0.3
v -0.7 1.1 0.2
v -0.6 1.1 0.2
v -0.7 1.1 -0.2
v -0.6 1.1 -0.2
v -0.7 1.1 -0.3
v -0.6 1.1 -0.3
v -0.5 1.1 -0.3
v -0.7 1.1 -0.4
v -0.6 1.1 -0.4
v -0.5 1.1 -0.4
v -0.4 1.1 -0.4
v -0.6 1.1 -0.5
v -0.5 1.1 -0.5
v -0.4 1.1 -0.5
v 0.8 1.1 -0.5

# faces
f 7/3/1 2/3/1 1/3/1
f 8/4/1 3/4/1 2/4/1
f 8/3/1 2/3/1 7/3/1
f 9/5/1 4/5/1 3/5/1
f 9/4/1 3/4/1 8/4/1
f 10/4/1 5/4/1 4/4/1
f 10/5/1 4/5/1 9/5/1
f 11/3/1 6/3/1 5/3/1
f 11/4/1 5/4/1 10/4/1
f 12/3/1 6/3/1 11/3/1
f 16/4/1 14/4/1 13/4/1
f 17/4/1 14/4/1 16/4/1
f 18/4/1 14/4/1 17/4/1
f 19/4/1 14/4/1 18/4/1
f 20/4/1 14/4/1 19/4/1
f 23/3/1 16/3/1 15/3/1
f 24/3/1 16/3/1 23/3/1
f 31/3/1 22/3/1 21/3/1
f 32/3/1 22/3/1 31/3/1
f 33/2/1 26/2/1 25/2/1
f 34/3/1 27/3/1 26/3/1
f 34/2/1 26/2/1 33/2/1
f 35/4/1 28/4/1 27/4/1
f 35/3/1 27/3/1 34/3/1
f 36/3/1 29/3/1 28/3/1
f 36/4/1 28/4/1 35/4/1
f 37/2/1 30/2/1 29/2/1
f 37/3/1 29/3/1 36/3/1
f 38/2/1 30/2/1 37/2/1
f 43/1/1 40/1/1 39/1/1
f 44/1/1 40/1/1 43/1/1
f 45/1/1 42/1/1 41/1/1
f 46/1/1 42/1/1 45/1/1
f 47/3/1 44/3/1 43/3/1
f 48/3/1 44/3/1 47/3/1
f 49/3/1 46/3/1 45/3/1
f 50/3/1 46/3/1 49/3/1
f 52/4/1 51/4/1 50/4/1
f 53/4/1 51/4/1 52/4/1
f 58/2/1 55/2/1 54/2/1
f 59/2/1 55/2/1 58/2/1
f 60/2/1 57/2/1 56/2/1
f 61/2/1 57/2/1 60/2/1
f 62/1/2 63/1/2 66/1/2
f 66/1/2 63/1/2 67/1/2
f 64/1/2 65/1/2 68/1/2
f 68/1/2 65/1/2 69/1/2
f 66/3/2 67/3/2 70/3/2
f 70/3/2 67/3/2 71/3/2
f 68/3/2 69/3/2 72/3/2
f 72/3/2 69/3/2 73/3/2
f 74/4/2 75/4/2 77/4/2
f 77/4/2 75/4/2 78/4/2
f 76/5/2 77/5/2 80/5/2
f 77/4/2 78/4/2 81/4/2
f 80/5/2 77/5/2 81/5/2
f 78/5/2 79/5/2 82/5/2
f 81/4/2 78/4/2 82/4/2
f 82/5/2 79/5/2 83/5/2
f 81/4/2 82/4/2 84/4/2
f 84/4/2 82/4/2 85/4/2
f 88/3/3 87/3/3 86/3/3
f 89/3/3 87/3/3 88/3/3
f 90/4/3 89/4/3 88/4/3
f 91/4/3 89/4/3 90/4/3
f 92/5/3 91/5/3 90/5/3
f 93/5/3 91/5/3 92/5/3
f 97/3/3 95/3/3 94/3/3
f 98/3/3 95/3/3 97/3/3
f 99/4/3 97/4/3 96/4/3
f 102/4/3 99/4/3 96/4/3
f 103/2/3 101/2/3 100/2/3
f 104/2/3 101/2/3 103/2/3
f 105/3/3 104/3/3 103/3/3
f 106/3/3 104/3/3 105/3/3
f 107/4/3 102/4/3 96/4/3
f 108/4/3 102/4/3 107/4/3
f 109/4/3 106/4/3 105/4/3
f 110/4/3 106/4/3 109/4/3
f 116/2/3 112/2/3 111/2/3
f 117/2/3 112/2/3 116/2/3
f 118/1/3 114/1/3 113/1/3
f 119/3/3 115/3/3 114/3/3
f 119/1/3 114/1/3 118/1/3
f 120/3/3 115/3/3 119/3/3
f 124/1/3 122/1/3 121/1/3
f 125/3/3 123/3/3 122/3/3
f 125/1/3 122/1/3 124/1/3
f 126/3/3 123/3/3 125/3/3
f 127/1/4 128/1/4 130/1/4
f 128/3/4 129/3/4 131/3/4
f 130/1/4 128/1/4 131/1/4
f 131/3/4 129/3/4 132/3/4
f 133/4/4 134/4/4 139/4/4
f 139/4/4 134/4/4 140/4/4
f 135/2/4 136/2/4 141/2/4
f 141/2/4 136/2/4 142/2/4
f 137/1/4 138/1/4 143/1/4
f 138/3/4 139/3/4 144/3/4
f 143/1/4 138/1/4 144/1/4
f 144/3/4 139/3/4 145/3/4
f 146/3/4 147/3/4 148/3/4
f 148/3/4 147/3/4 149/3/4
f 150/4/4 151/4/4 154/4/4
f 152/2/4 153/2/4 155/2/4
f 155/2/4 153/2/4 156/2/4
f 155/3/4 156/3/4 157/3/4
f 157/3/4 156/3/4 158/3/4
f 150/4/4 154/4/4 159/4/4
f 159/4/4 154/4/4 160/4/4
f 157/4/4 158/4/4 161/4/4
f 161/4/4 158/4/4 162/4/4
f 163/3/4 164/3/4 165/3/4
f 165/3/4 164/3/4 166/3/4
f 165/4/4 166/4/4 167/4/4
f 167/4/4 166/4/4 168/4/4
f 167/5/4 168/5/4 169/5/4
f 169/5/4 168/5/4 170/5/4
f 173/1/5 172/1/5 171/1/5
f 174/1/5 172/1/5 173/1/5
f 177/1/5 176/1/5 175/1/5
f 178/1/5 176/1/5 177/1/5
f 181/4/5 180/4/5 179/4/5
f 182/4/5 180/4/5 181/4/5
f 183/4/5 181/4/5 179/4/5
f 184/4/5 180/4/5 182/4/5
f 185/4/5 183/4/5 179/4/5
f 185/4/5 184/4/5 183/4/5
f 186/4/5 180/4/5 184/4/5
f 186/4/5 184/4/5 185/4/5
f 187/4/5 185/4/5 179/4/5
f 188/4/5 185/4/5 187/4/5
f 189/4/5 180/4/5 186/4/5
f 190/4/5 189/4/5 188/4/5
f 191/4/5 180/4/5 189/4/5
f 191/4/5 189/4/5 190/4/5
f 197/3/5 193/3/5 192/3/5
f 198/4/5 194/4/5 193/4/5
f 198/3/5 193/3/5 197/3/5
f 199/5/5 195/5/5 194/5/5
f 199/4/5 194/4/5 198/4/5
f 200/5/5 195/5/5 199/5/5
f 201/3/5 197/3/5 196/3/5
f 202/3/5 197/3/5 201/3/5
f 203/4/5 202/4/5 201/4/5
f 204/4/5 202/4/5 203/4/5
f 205/5/5 204/5/5 203/5/5
f 206/5/5 204/5/5 205/5/5
f 207/4/5 206/4/5 205/4/5
f 208/4/5 206/4/5 207/4/5
f 210/3/5 208/3/5 207/3/5
f 211/4/5 209/4/5 208/4/5
f 211/3/5 208/3/5 210/3/5
f 212/4/5 209/4/5 211/4/5
f 215/3/5 212/3/5 211/3/5
f 216/4/5 213/4/5 212/4/5
f 216/3/5 212/3/5 215/3/5
f 217/5/5 214/5/5 213/5/5
f 217/4/5 213/4/5 216/4/5
f 218/5/5 214/5/5 217/5/5
f 219/3/6 220/3/6 224/3/6
f 220/4/6 221/4/6 225/4/6
f 224/3/6 220/3/6 225/3/6
f 221/5/6 222/5/6 226/5/6
f 225/4/6 221/4/6 226/4/6
f 226/5/6 222/5/6 227/5/6
f 227/5/6 222/5/6 228/5/6
f 223/3/6 224/3/6 229/3/6
f 224/4/6 225/4/6 230/4/6
f 229/3/6 224/3/6 230/3/6
f 230/4/6 225/4/6 231/4/6
f 229/4/6 230/4/6 232/4/6
f 232/4/6 230/4/6 233/4/6
f 232/5/6 233/5/6 234/5/6
f 232/5/6 234/5/6 235/5/6
f 232/5/6 235/5/6 236/5/6
f 236/5/6 235/5/6 237/5/6
f 236/4/6 237/4/6 238/4/6
f 238/4/6 237/4/6 239/4/6
f 238/3/6 239/3/6 241/3/6
f 239/4/6 240/4/6 242/4/6
f 241/3/6 239/3/6 242/3/6
f 242/4/6 240/4/6 243/4/6
f 242/3/6 243/3/6 247/3/6
f 243/4/6 244/4/6 248/4/6
f 247/3/6 243/3/6 248/3/6
f 245/5/6 246/5/6 249/5/6
f 248/4/6 244/4/6 249/4/6
f 244/5/6 245/5/6 249/5/6
f 249/5/6 246/5/6 250/5/6
f 251/2/6 252/2/6 256/2/6
f 252/3/6 253/3/6 257/3/6
f 256/2/6 252/2/6 257/2/6
f 253/4/6 254/4/6 258/4/6
f 257/3/6 253/3/6 258/3/6
f 255/2/6 256/2/6 259/2/6
f 256/3/6 257/3/6 260/3/6
f 259/2/6 256/2/6 260/2/6
f 257/4/6 258/4/6 261/4/6
f 260/3/6 257/3/6 261/3/6
f 259/3/6 260/3/6 262/3/6
f 260/4/6 261/4/6 263/4/6
f 262/3/6 260/3/6 263/3/6
f 262/4/6 263/4/6 264/4/6
f 263/4/6 261/4/6 265/4/6
f 264/4/6 263/4/6 265/4/6
f 264/3/6 265/3/6 266/3/6
f 265/4/6 261/4/6 267/4/6
f 266/3/6 265/3/6 267/3/6
f 261/4/6 258/4/6 268/4/6
f 267/4/6 261/4/6 268/4/6
f 266/2/6 267/2/6 269/2/6
f 267/3/6 268/3/6 270/3/6
f 269/2/6 267/2/6 270/2/6
f 268/4/6 258/4/6 271/4/6
f 270/3/6 268/3/6 271/3/6
f 258/4/6 254/4/6 272/4/6
f 271/4/6 258/4/6 272/4/6
f 270/2/6 271/2/6 273/2/6
f 271/3/6 272/3/6 274/3/6
f 273/2/6 271/2/6 274/2/6
f 272/4/6 254/4/6 275/4/6
f 274/3/6 272/3/6 275/3/6
f 275/4/6 254/4/6 276/4/6
