# MagicaVoxel @ Ephtracy

# group
o 

# material
mtllib Interior_Furniture_Table_Piece_Long_Type01_03.mtl
usemtl palette

# normals
vn -1 0 0
vn 1 0 0
vn 0 0 1
vn 0 0 -1
vn 0 -1 0
vn 0 1 0

# texcoords
vt 0.876953 0.5
vt 0.880859 0.5
vt 0.884766 0.5
vt 0.888672 0.5
vt 0.892578 0.5

# verts
v -0.8 0.8 0.7
v -0.8 0.8 -0.7
v -0.8 0.9 0.8
v -0.8 0.9 0.7
v -0.8 0.9 -0.7
v -0.8 0.9 -0.8
v -0.8 1 0.8
v -0.8 1 0.7
v -0.8 1 -0.7
v -0.8 1 -0.8
v -0.8 1.1 0.7
v -0.8 1.1 -0.7
v 0.5 0 0.7
v 0.5 0 0.6
v 0.5 0 -0.6
v 0.5 0 -0.7
v 0.5 0.1 0.7
v 0.5 0.1 0.6
v 0.5 0.1 -0.6
v 0.5 0.1 -0.7
v 0.5 0.8 0.7
v 0.5 0.8 0.6
v 0.5 0.8 -0.6
v 0.5 0.8 -0.7
v 0.6 0 0.7
v 0.6 0 0.6
v 0.6 0 -0.6
v 0.6 0 -0.7
v 0.6 0.1 0.7
v 0.6 0.1 0.6
v 0.6 0.1 -0.6
v 0.6 0.1 -0.7
v 0.6 0.8 0.7
v 0.6 0.8 0.6
v 0.6 0.8 -0.6
v 0.6 0.8 -0.7
v 0.7 0.8 0.7
v 0.7 0.8 -0.7
v 0.7 0.9 0.8
v 0.7 0.9 0.7
v 0.7 0.9 0.6
v 0.7 0.9 0.5
v 0.7 0.9 -0.5
v 0.7 0.9 -0.6
v 0.7 0.9 -0.7
v 0.7 0.9 -0.8
v 0.7 1 0.8
v 0.7 1 0.7
v 0.7 1 0.6
v 0.7 1 0.5
v 0.7 1 -0.5
v 0.7 1 -0.6
v 0.7 1 -0.7
v 0.7 1 -0.8
v 0.7 1.1 0.7
v 0.7 1.1 0.6
v 0.7 1.1 0.5
v 0.7 1.1 -0.5
v 0.7 1.1 -0.6
v 0.7 1.1 -0.7
v 0.8 0.9 0.7
v 0.8 0.9 0.6
v 0.8 0.9 0.5
v 0.8 0.9 -0.5
v 0.8 0.9 -0.6
v 0.8 0.9 -0.7
v 0.8 1 0.7
v 0.8 1 0.6
v 0.8 1 0.5
v 0.8 1 -0.5
v 0.8 1 -0.6
v 0.8 1 -0.7
v -0.8 0.9 0.8
v -0.8 1 0.8
v 0.5 0.9 0.8
v 0.5 1 0.8
v 0.6 0.9 0.8
v 0.6 1 0.8
v 0.7 0.9 0.8
v 0.7 1 0.8
v -0.8 0.8 0.7
v -0.8 0.9 0.7
v -0.8 1 0.7
v -0.8 1.1 0.7
v 0.5 0 0.7
v 0.5 0.1 0.7
v 0.5 0.8 0.7
v 0.5 0.9 0.7
v 0.5 1 0.7
v 0.5 1.1 0.7
v 0.6 0 0.7
v 0.6 0.1 0.7
v 0.6 0.8 0.7
v 0.6 0.9 0.7
v 0.6 1 0.7
v 0.6 1.1 0.7
v 0.7 0.8 0.7
v 0.7 0.9 0.7
v 0.7 1 0.7
v 0.7 1.1 0.7
v 0.8 0.9 0.7
v 0.8 1 0.7
v 0.5 0 -0.6
v 0.5 0.1 -0.6
v 0.5 0.8 -0.6
v 0.6 0 -0.6
v 0.6 0.1 -0.6
v 0.6 0.8 -0.6
v 0.5 0 0.6
v 0.5 0.1 0.6
v 0.5 0.8 0.6
v 0.6 0 0.6
v 0.6 0.1 0.6
v 0.6 0.8 0.6
v -0.8 0.8 -0.7
v -0.8 0.9 -0.7
v -0.8 1 -0.7
v -0.8 1.1 -0.7
v 0.5 0 -0.7
v 0.5 0.1 -0.7
v 0.5 0.8 -0.7
v 0.5 0.9 -0.7
v 0.5 1 -0.7
v 0.5 1.1 -0.7
v 0.6 0 -0.7
v 0.6 0.1 -0.7
v 0.6 0.8 -0.7
v 0.6 0.9 -0.7
v 0.6 1 -0.7
v 0.6 1.1 -0.7
v 0.7 0.8 -0.7
v 0.7 0.9 -0.7
v 0.7 1 -0.7
v 0.7 1.1 -0.7
v 0.8 0.9 -0.7
v 0.8 1 -0.7
v -0.8 0.9 -0.8
v -0.8 1 -0.8
v 0.5 0.9 -0.8
v 0.5 1 -0.8
v 0.6 0.9 -0.8
v 0.6 1 -0.8
v 0.7 0.9 -0.8
v 0.7 1 -0.8
v 0.5 0 0.7
v 0.6 0 0.7
v 0.5 0 0.6
v 0.6 0 0.6
v 0.5 0 -0.6
v 0.6 0 -0.6
v 0.5 0 -0.7
v 0.6 0 -0.7
v -0.8 0.8 0.7
v 0.5 0.8 0.7
v 0.6 0.8 0.7
v 0.7 0.8 0.7
v 0.5 0.8 0.6
v 0.6 0.8 0.6
v 0.5 0.8 -0.6
v 0.6 0.8 -0.6
v -0.8 0.8 -0.7
v 0.5 0.8 -0.7
v 0.6 0.8 -0.7
v 0.7 0.8 -0.7
v -0.8 0.9 0.8
v 0.5 0.9 0.8
v 0.6 0.9 0.8
v 0.7 0.9 0.8
v -0.8 0.9 0.7
v 0.5 0.9 0.7
v 0.6 0.9 0.7
v 0.7 0.9 0.7
v 0.8 0.9 0.7
v 0.7 0.9 0.6
v 0.8 0.9 0.6
v 0.7 0.9 0.5
v 0.8 0.9 0.5
v 0.7 0.9 -0.5
v 0.8 0.9 -0.5
v 0.7 0.9 -0.6
v 0.8 0.9 -0.6
v -0.8 0.9 -0.7
v 0.5 0.9 -0.7
v 0.6 0.9 -0.7
v 0.7 0.9 -0.7
v 0.8 0.9 -0.7
v -0.8 0.9 -0.8
v 0.5 0.9 -0.8
v 0.6 0.9 -0.8
v 0.7 0.9 -0.8
v -0.8 1 0.8
v 0.5 1 0.8
v 0.6 1 0.8
v 0.7 1 0.8
v -0.8 1 0.7
v 0.5 1 0.7
v 0.6 1 0.7
v 0.7 1 0.7
v 0.8 1 0.7
v 0.7 1 0.6
v 0.8 1 0.6
v 0.7 1 0.5
v 0.8 1 0.5
v 0.7 1 -0.5
v 0.8 1 -0.5
v 0.7 1 -0.6
v 0.8 1 -0.6
v -0.8 1 -0.7
v 0.5 1 -0.7
v 0.6 1 -0.7
v 0.7 1 -0.7
v 0.8 1 -0.7
v -0.8 1 -0.8
v 0.5 1 -0.8
v 0.6 1 -0.8
v 0.7 1 -0.8
v -0.8 1.1 0.7
v 0.5 1.1 0.7
v 0.6 1.1 0.7
v 0.7 1.1 0.7
v 0.5 1.1 0.6
v 0.6 1.1 0.6
v 0.7 1.1 0.6
v 0.6 1.1 0.5
v 0.7 1.1 0.5
v 0.6 1.1 -0.5
v 0.7 1.1 -0.5
v 0.5 1.1 -0.6
v 0.6 1.1 -0.6
v 0.7 1.1 -0.6
v -0.8 1.1 -0.7
v 0.5 1.1 -0.7
v 0.6 1.1 -0.7
v 0.7 1.1 -0.7

# faces
f 4/4/1 2/4/1 1/4/1
f 5/4/1 2/4/1 4/4/1
f 7/5/1 4/5/1 3/5/1
f 8/4/1 5/4/1 4/4/1
f 8/5/1 4/5/1 7/5/1
f 9/5/1 6/5/1 5/5/1
f 9/4/1 5/4/1 8/4/1
f 10/5/1 6/5/1 9/5/1
f 11/4/1 9/4/1 8/4/1
f 12/4/1 9/4/1 11/4/1
f 17/1/1 14/1/1 13/1/1
f 18/1/1 14/1/1 17/1/1
f 19/1/1 16/1/1 15/1/1
f 20/1/1 16/1/1 19/1/1
f 21/3/1 18/3/1 17/3/1
f 22/3/1 18/3/1 21/3/1
f 23/3/1 20/3/1 19/3/1
f 24/3/1 20/3/1 23/3/1
f 25/1/2 26/1/2 29/1/2
f 29/1/2 26/1/2 30/1/2
f 27/1/2 28/1/2 31/1/2
f 31/1/2 28/1/2 32/1/2
f 29/3/2 30/3/2 33/3/2
f 33/3/2 30/3/2 34/3/2
f 31/3/2 32/3/2 35/3/2
f 35/3/2 32/3/2 36/3/2
f 37/4/2 38/4/2 40/4/2
f 40/4/2 38/4/2 41/4/2
f 41/4/2 38/4/2 42/4/2
f 42/4/2 38/4/2 43/4/2
f 43/4/2 38/4/2 44/4/2
f 44/4/2 38/4/2 45/4/2
f 39/3/2 40/3/2 47/3/2
f 47/3/2 40/3/2 48/3/2
f 45/3/2 46/3/2 53/3/2
f 53/3/2 46/3/2 54/3/2
f 48/2/2 49/2/2 55/2/2
f 49/3/2 50/3/2 56/3/2
f 55/2/2 49/2/2 56/2/2
f 50/4/2 51/4/2 57/4/2
f 56/3/2 50/3/2 57/3/2
f 51/3/2 52/3/2 58/3/2
f 57/4/2 51/4/2 58/4/2
f 52/2/2 53/2/2 59/2/2
f 58/3/2 52/3/2 59/3/2
f 59/2/2 53/2/2 60/2/2
f 61/3/2 62/3/2 67/3/2
f 62/4/2 63/4/2 68/4/2
f 67/3/2 62/3/2 68/3/2
f 63/5/2 64/5/2 69/5/2
f 68/4/2 63/4/2 69/4/2
f 64/4/2 65/4/2 70/4/2
f 69/5/2 64/5/2 70/5/2
f 65/3/2 66/3/2 71/3/2
f 70/4/2 65/4/2 71/4/2
f 71/3/2 66/3/2 72/3/2
f 75/5/3 74/5/3 73/5/3
f 76/5/3 74/5/3 75/5/3
f 77/4/3 76/4/3 75/4/3
f 78/4/3 76/4/3 77/4/3
f 79/3/3 78/3/3 77/3/3
f 80/3/3 78/3/3 79/3/3
f 87/4/3 82/4/3 81/4/3
f 88/4/3 82/4/3 87/4/3
f 89/4/3 84/4/3 83/4/3
f 90/4/3 84/4/3 89/4/3
f 91/1/3 86/1/3 85/1/3
f 92/3/3 87/3/3 86/3/3
f 92/1/3 86/1/3 91/1/3
f 93/4/3 88/4/3 87/4/3
f 93/3/3 87/3/3 92/3/3
f 94/4/3 88/4/3 93/4/3
f 95/3/3 90/3/3 89/3/3
f 96/3/3 90/3/3 95/3/3
f 97/4/3 94/4/3 93/4/3
f 98/4/3 94/4/3 97/4/3
f 99/2/3 96/2/3 95/2/3
f 100/2/3 96/2/3 99/2/3
f 101/3/3 99/3/3 98/3/3
f 102/3/3 99/3/3 101/3/3
f 106/1/3 104/1/3 103/1/3
f 107/3/3 105/3/3 104/3/3
f 107/1/3 104/1/3 106/1/3
f 108/3/3 105/3/3 107/3/3
f 109/1/4 110/1/4 112/1/4
f 110/3/4 111/3/4 113/3/4
f 112/1/4 110/1/4 113/1/4
f 113/3/4 111/3/4 114/3/4
f 115/4/4 116/4/4 121/4/4
f 121/4/4 116/4/4 122/4/4
f 117/4/4 118/4/4 123/4/4
f 123/4/4 118/4/4 124/4/4
f 119/1/4 120/1/4 125/1/4
f 120/3/4 121/3/4 126/3/4
f 125/1/4 120/1/4 126/1/4
f 121/4/4 122/4/4 127/4/4
f 126/3/4 121/3/4 127/3/4
f 127/4/4 122/4/4 128/4/4
f 123/3/4 124/3/4 129/3/4
f 129/3/4 124/3/4 130/3/4
f 127/4/4 128/4/4 131/4/4
f 131/4/4 128/4/4 132/4/4
f 129/2/4 130/2/4 133/2/4
f 133/2/4 130/2/4 134/2/4
f 132/3/4 133/3/4 135/3/4
f 135/3/4 133/3/4 136/3/4
f 137/5/4 138/5/4 139/5/4
f 139/5/4 138/5/4 140/5/4
f 139/4/4 140/4/4 141/4/4
f 141/4/4 140/4/4 142/4/4
f 141/3/4 142/3/4 143/3/4
f 143/3/4 142/3/4 144/3/4
f 147/1/5 146/1/5 145/1/5
f 148/1/5 146/1/5 147/1/5
f 151/1/5 150/1/5 149/1/5
f 152/1/5 150/1/5 151/1/5
f 157/4/5 154/4/5 153/4/5
f 158/4/5 156/4/5 155/4/5
f 159/4/5 157/4/5 153/4/5
f 159/4/5 158/4/5 157/4/5
f 160/4/5 156/4/5 158/4/5
f 160/4/5 158/4/5 159/4/5
f 161/4/5 159/4/5 153/4/5
f 162/4/5 159/4/5 161/4/5
f 163/4/5 156/4/5 160/4/5
f 164/4/5 156/4/5 163/4/5
f 169/5/5 166/5/5 165/5/5
f 170/4/5 167/4/5 166/4/5
f 170/5/5 166/5/5 169/5/5
f 171/3/5 168/3/5 167/3/5
f 171/4/5 167/4/5 170/4/5
f 172/3/5 168/3/5 171/3/5
f 174/3/5 173/3/5 172/3/5
f 175/3/5 173/3/5 174/3/5
f 176/4/5 175/4/5 174/4/5
f 177/4/5 175/4/5 176/4/5
f 178/5/5 177/5/5 176/5/5
f 179/5/5 177/5/5 178/5/5
f 180/4/5 179/4/5 178/4/5
f 181/4/5 179/4/5 180/4/5
f 185/3/5 181/3/5 180/3/5
f 186/3/5 181/3/5 185/3/5
f 187/5/5 183/5/5 182/5/5
f 188/4/5 184/4/5 183/4/5
f 188/5/5 183/5/5 187/5/5
f 189/3/5 185/3/5 184/3/5
f 189/4/5 184/4/5 188/4/5
f 190/3/5 185/3/5 189/3/5
f 191/5/6 192/5/6 195/5/6
f 192/4/6 193/4/6 196/4/6
f 195/5/6 192/5/6 196/5/6
f 193/3/6 194/3/6 197/3/6
f 196/4/6 193/4/6 197/4/6
f 197/3/6 194/3/6 198/3/6
f 198/3/6 199/3/6 200/3/6
f 200/3/6 199/3/6 201/3/6
f 200/4/6 201/4/6 202/4/6
f 202/4/6 201/4/6 203/4/6
f 202/5/6 203/5/6 204/5/6
f 204/5/6 203/5/6 205/5/6
f 204/4/6 205/4/6 206/4/6
f 206/4/6 205/4/6 207/4/6
f 206/3/6 207/3/6 211/3/6
f 211/3/6 207/3/6 212/3/6
f 208/5/6 209/5/6 213/5/6
f 209/4/6 210/4/6 214/4/6
f 213/5/6 209/5/6 214/5/6
f 210/3/6 211/3/6 215/3/6
f 214/4/6 210/4/6 215/4/6
f 215/3/6 211/3/6 216/3/6
f 217/4/6 218/4/6 221/4/6
f 218/3/6 219/3/6 221/3/6
f 219/2/6 220/2/6 222/2/6
f 221/3/6 219/3/6 222/3/6
f 222/2/6 220/2/6 223/2/6
f 221/4/6 222/4/6 224/4/6
f 222/3/6 223/3/6 224/3/6
f 224/3/6 223/3/6 225/3/6
f 221/4/6 224/4/6 226/4/6
f 224/4/6 225/4/6 226/4/6
f 226/4/6 225/4/6 227/4/6
f 217/4/6 221/4/6 228/4/6
f 221/4/6 226/4/6 228/4/6
f 226/3/6 227/3/6 229/3/6
f 228/4/6 226/4/6 229/4/6
f 229/3/6 227/3/6 230/3/6
f 217/4/6 228/4/6 231/4/6
f 228/3/6 229/3/6 232/3/6
f 231/4/6 228/4/6 232/4/6
f 229/2/6 230/2/6 233/2/6
f 232/3/6 229/3/6 233/3/6
f 233/2/6 230/2/6 234/2/6
