# MagicaVoxel @ Ephtracy

# group
o 

# material
mtllib Interior_Furniture_Table_Piece_Long_Type03_03.mtl
usemtl palette

# normals
vn -1 0 0
vn 1 0 0
vn 0 0 1
vn 0 0 -1
vn 0 -1 0
vn 0 1 0

# texcoords
vt 0.876953 0.5
vt 0.880859 0.5
vt 0.884766 0.5
vt 0.888672 0.5
vt 0.892578 0.5

# verts
v -0.8 0.2 0.1
v -0.8 0.2 -0.1
v -0.8 0.3 0.1
v -0.8 0.3 -0.1
v -0.8 0.8 0.5
v -0.8 0.8 -0.5
v -0.8 0.9 0.6
v -0.8 0.9 0.5
v -0.8 0.9 -0.5
v -0.8 0.9 -0.6
v -0.8 1 0.6
v -0.8 1 0.5
v -0.8 1 -0.5
v -0.8 1 -0.6
v -0.8 1.1 0.5
v -0.8 1.1 -0.5
v 0.5 0 0.4
v 0.5 0 0.3
v 0.5 0 -0.3
v 0.5 0 -0.4
v 0.5 0.1 0.4
v 0.5 0.1 0.3
v 0.5 0.1 -0.3
v 0.5 0.1 -0.4
v 0.5 0.2 0.3
v 0.5 0.2 0.1
v 0.5 0.2 -0.1
v 0.5 0.2 -0.3
v 0.5 0.3 0.3
v 0.5 0.3 0.1
v 0.5 0.3 -0.1
v 0.5 0.3 -0.3
v 0.5 0.8 0.4
v 0.5 0.8 0.3
v 0.5 0.8 -0.3
v 0.5 0.8 -0.4
v 0.6 0 0.4
v 0.6 0 0.3
v 0.6 0 -0.3
v 0.6 0 -0.4
v 0.6 0.1 0.4
v 0.6 0.1 0.3
v 0.6 0.1 -0.3
v 0.6 0.1 -0.4
v 0.6 0.2 0.3
v 0.6 0.2 -0.3
v 0.6 0.3 0.3
v 0.6 0.3 -0.3
v 0.6 0.8 0.4
v 0.6 0.8 0.3
v 0.6 0.8 -0.3
v 0.6 0.8 -0.4
v 0.6 0.8 -0.5
v 0.6 0.9 -0.4
v 0.6 0.9 -0.5
v 0.6 1 0.5
v 0.6 1 0.4
v 0.6 1 -0.4
v 0.6 1 -0.5
v 0.6 1.1 0.5
v 0.6 1.1 0.4
v 0.6 1.1 -0.4
v 0.6 1.1 -0.5
v 0.7 0.8 0.5
v 0.7 0.8 -0.4
v 0.7 0.9 0.6
v 0.7 0.9 0.5
v 0.7 0.9 0.4
v 0.7 0.9 0.3
v 0.7 0.9 -0.3
v 0.7 0.9 -0.4
v 0.7 0.9 -0.5
v 0.7 0.9 -0.6
v 0.7 1 0.6
v 0.7 1 0.5
v 0.7 1 0.4
v 0.7 1 0.3
v 0.7 1 0.2
v 0.7 1 -0.2
v 0.7 1 -0.3
v 0.7 1 -0.4
v 0.7 1 -0.5
v 0.7 1 -0.6
v 0.7 1.1 0.4
v 0.7 1.1 0.3
v 0.7 1.1 0.2
v 0.7 1.1 -0.2
v 0.7 1.1 -0.3
v 0.7 1.1 -0.4
v 0.8 0.9 0.5
v 0.8 0.9 0.4
v 0.8 0.9 0.3
v 0.8 0.9 -0.3
v 0.8 0.9 -0.4
v 0.8 0.9 -0.5
v 0.8 1 0.5
v 0.8 1 0.4
v 0.8 1 0.3
v 0.8 1 -0.3
v 0.8 1 -0.4
v 0.8 1 -0.5
v -0.8 0.9 0.6
v -0.8 1 0.6
v 0.5 0.9 0.6
v 0.5 1 0.6
v 0.6 0.9 0.6
v 0.6 1 0.6
v 0.7 0.9 0.6
v 0.7 1 0.6
v -0.8 0.8 0.5
v -0.8 0.9 0.5
v -0.8 1 0.5
v -0.8 1.1 0.5
v 0.4 1 0.5
v 0.4 1.1 0.5
v 0.5 0.9 0.5
v 0.5 1 0.5
v 0.5 1.1 0.5
v 0.6 0.9 0.5
v 0.6 1 0.5
v 0.6 1.1 0.5
v 0.7 0.8 0.5
v 0.7 0.9 0.5
v 0.7 1 0.5
v 0.8 0.9 0.5
v 0.8 1 0.5
v 0.5 0 0.4
v 0.5 0.1 0.4
v 0.5 0.8 0.4
v 0.6 0 0.4
v 0.6 0.1 0.4
v 0.6 0.8 0.4
v 0.6 1 0.4
v 0.6 1.1 0.4
v 0.7 1 0.4
v 0.7 1.1 0.4
v -0.8 0.2 0.1
v -0.8 0.3 0.1
v 0.5 0.2 0.1
v 0.5 0.3 0.1
v 0.5 0 -0.3
v 0.5 0.1 -0.3
v 0.5 0.2 -0.3
v 0.5 0.3 -0.3
v 0.5 0.8 -0.3
v 0.6 0 -0.3
v 0.6 0.1 -0.3
v 0.6 0.2 -0.3
v 0.6 0.3 -0.3
v 0.6 0.8 -0.3
v 0.5 0 0.3
v 0.5 0.1 0.3
v 0.5 0.2 0.3
v 0.5 0.3 0.3
v 0.5 0.8 0.3
v 0.6 0 0.3
v 0.6 0.1 0.3
v 0.6 0.2 0.3
v 0.6 0.3 0.3
v 0.6 0.8 0.3
v -0.8 0.2 -0.1
v -0.8 0.3 -0.1
v 0.5 0.2 -0.1
v 0.5 0.3 -0.1
v 0.5 0 -0.4
v 0.5 0.1 -0.4
v 0.5 0.8 -0.4
v 0.6 0 -0.4
v 0.6 0.1 -0.4
v 0.6 0.8 -0.4
v 0.6 0.9 -0.4
v 0.6 1 -0.4
v 0.6 1.1 -0.4
v 0.7 0.8 -0.4
v 0.7 0.9 -0.4
v 0.7 1 -0.4
v 0.7 1.1 -0.4
v -0.8 0.8 -0.5
v -0.8 0.9 -0.5
v -0.8 1 -0.5
v -0.8 1.1 -0.5
v 0.4 1 -0.5
v 0.4 1.1 -0.5
v 0.5 0.9 -0.5
v 0.5 1 -0.5
v 0.5 1.1 -0.5
v 0.6 0.8 -0.5
v 0.6 0.9 -0.5
v 0.6 1 -0.5
v 0.6 1.1 -0.5
v 0.7 0.9 -0.5
v 0.7 1 -0.5
v 0.8 0.9 -0.5
v 0.8 1 -0.5
v -0.8 0.9 -0.6
v -0.8 1 -0.6
v 0.5 0.9 -0.6
v 0.5 1 -0.6
v 0.6 0.9 -0.6
v 0.6 1 -0.6
v 0.7 0.9 -0.6
v 0.7 1 -0.6
v 0.5 0 0.4
v 0.6 0 0.4
v 0.5 0 0.3
v 0.6 0 0.3
v 0.5 0 -0.3
v 0.6 0 -0.3
v 0.5 0 -0.4
v 0.6 0 -0.4
v 0.5 0.2 0.3
v 0.6 0.2 0.3
v -0.8 0.2 0.1
v 0.5 0.2 0.1
v -0.8 0.2 -0.1
v 0.5 0.2 -0.1
v 0.5 0.2 -0.3
v 0.6 0.2 -0.3
v -0.8 0.8 0.5
v 0.7 0.8 0.5
v 0.5 0.8 0.4
v 0.6 0.8 0.4
v 0.5 0.8 0.3
v 0.6 0.8 0.3
v 0.5 0.8 -0.3
v 0.6 0.8 -0.3
v 0.5 0.8 -0.4
v 0.6 0.8 -0.4
v 0.7 0.8 -0.4
v -0.8 0.8 -0.5
v 0.6 0.8 -0.5
v -0.8 0.9 0.6
v 0.5 0.9 0.6
v 0.6 0.9 0.6
v 0.7 0.9 0.6
v -0.8 0.9 0.5
v 0.5 0.9 0.5
v 0.6 0.9 0.5
v 0.7 0.9 0.5
v 0.8 0.9 0.5
v 0.7 0.9 0.4
v 0.8 0.9 0.4
v 0.7 0.9 0.3
v 0.8 0.9 0.3
v 0.7 0.9 -0.3
v 0.8 0.9 -0.3
v 0.6 0.9 -0.4
v 0.7 0.9 -0.4
v 0.8 0.9 -0.4
v -0.8 0.9 -0.5
v 0.5 0.9 -0.5
v 0.6 0.9 -0.5
v 0.7 0.9 -0.5
v 0.8 0.9 -0.5
v -0.8 0.9 -0.6
v 0.5 0.9 -0.6
v 0.6 0.9 -0.6
v 0.7 0.9 -0.6
v 0.5 0.3 0.3
v 0.6 0.3 0.3
v -0.8 0.3 0.1
v 0.5 0.3 0.1
v -0.8 0.3 -0.1
v 0.5 0.3 -0.1
v 0.5 0.3 -0.3
v 0.6 0.3 -0.3
v -0.8 1 0.6
v 0.5 1 0.6
v 0.6 1 0.6
v 0.7 1 0.6
v -0.8 1 0.5
v 0.4 1 0.5
v 0.5 1 0.5
v 0.6 1 0.5
v 0.7 1 0.5
v 0.8 1 0.5
v 0.6 1 0.4
v 0.7 1 0.4
v 0.8 1 0.4
v 0.7 1 0.3
v 0.8 1 0.3
v 0.7 1 0.2
v 0.7 1 -0.2
v 0.7 1 -0.3
v 0.8 1 -0.3
v 0.6 1 -0.4
v 0.7 1 -0.4
v 0.8 1 -0.4
v -0.8 1 -0.5
v 0.4 1 -0.5
v 0.5 1 -0.5
v 0.6 1 -0.5
v 0.7 1 -0.5
v 0.8 1 -0.5
v -0.8 1 -0.6
v 0.5 1 -0.6
v 0.6 1 -0.6
v 0.7 1 -0.6
v -0.8 1.1 0.5
v 0.4 1.1 0.5
v 0.5 1.1 0.5
v 0.6 1.1 0.5
v 0.4 1.1 0.4
v 0.5 1.1 0.4
v 0.6 1.1 0.4
v 0.7 1.1 0.4
v 0.5 1.1 0.3
v 0.6 1.1 0.3
v 0.7 1.1 0.3
v 0.6 1.1 0.2
v 0.7 1.1 0.2
v 0.6 1.1 -0.2
v 0.7 1.1 -0.2
v 0.5 1.1 -0.3
v 0.6 1.1 -0.3
v 0.7 1.1 -0.3
v 0.4 1.1 -0.4
v 0.5 1.1 -0.4
v 0.6 1.1 -0.4
v 0.7 1.1 -0.4
v -0.8 1.1 -0.5
v 0.4 1.1 -0.5
v 0.5 1.1 -0.5
v 0.6 1.1 -0.5

# faces
f 3/3/1 2/3/1 1/3/1
f 4/3/1 2/3/1 3/3/1
f 8/4/1 6/4/1 5/4/1
f 9/4/1 6/4/1 8/4/1
f 11/5/1 8/5/1 7/5/1
f 12/4/1 9/4/1 8/4/1
f 12/5/1 8/5/1 11/5/1
f 13/5/1 10/5/1 9/5/1
f 13/4/1 9/4/1 12/4/1
f 14/5/1 10/5/1 13/5/1
f 15/4/1 13/4/1 12/4/1
f 16/4/1 13/4/1 15/4/1
f 21/1/1 18/1/1 17/1/1
f 22/1/1 18/1/1 21/1/1
f 23/1/1 20/1/1 19/1/1
f 24/1/1 20/1/1 23/1/1
f 25/3/1 22/3/1 21/3/1
f 28/3/1 24/3/1 23/3/1
f 29/3/1 26/3/1 25/3/1
f 29/3/1 25/3/1 21/3/1
f 30/3/1 26/3/1 29/3/1
f 31/3/1 28/3/1 27/3/1
f 32/3/1 24/3/1 28/3/1
f 32/3/1 28/3/1 31/3/1
f 33/3/1 29/3/1 21/3/1
f 34/3/1 29/3/1 33/3/1
f 35/3/1 24/3/1 32/3/1
f 36/3/1 24/3/1 35/3/1
f 37/1/2 38/1/2 41/1/2
f 41/1/2 38/1/2 42/1/2
f 39/1/2 40/1/2 43/1/2
f 43/1/2 40/1/2 44/1/2
f 41/3/2 42/3/2 45/3/2
f 43/3/2 44/3/2 46/3/2
f 41/3/2 45/3/2 47/3/2
f 45/3/2 46/3/2 47/3/2
f 46/3/2 44/3/2 48/3/2
f 47/3/2 46/3/2 48/3/2
f 41/3/2 47/3/2 49/3/2
f 49/3/2 47/3/2 50/3/2
f 48/3/2 44/3/2 51/3/2
f 51/3/2 44/3/2 52/3/2
f 52/4/2 53/4/2 54/4/2
f 54/4/2 53/4/2 55/4/2
f 56/2/2 57/2/2 60/2/2
f 60/2/2 57/2/2 61/2/2
f 58/2/2 59/2/2 62/2/2
f 62/2/2 59/2/2 63/2/2
f 64/4/2 65/4/2 67/4/2
f 67/4/2 65/4/2 68/4/2
f 68/4/2 65/4/2 69/4/2
f 69/4/2 65/4/2 70/4/2
f 70/4/2 65/4/2 71/4/2
f 66/3/2 67/3/2 74/3/2
f 74/3/2 67/3/2 75/3/2
f 72/3/2 73/3/2 82/3/2
f 82/3/2 73/3/2 83/3/2
f 76/2/2 77/2/2 84/2/2
f 77/3/2 78/3/2 85/3/2
f 84/2/2 77/2/2 85/2/2
f 78/4/2 79/4/2 86/4/2
f 85/3/2 78/3/2 86/3/2
f 79/3/2 80/3/2 87/3/2
f 86/4/2 79/4/2 87/4/2
f 80/2/2 81/2/2 88/2/2
f 87/3/2 80/3/2 88/3/2
f 88/2/2 81/2/2 89/2/2
f 90/3/2 91/3/2 96/3/2
f 91/4/2 92/4/2 97/4/2
f 96/3/2 91/3/2 97/3/2
f 92/5/2 93/5/2 98/5/2
f 97/4/2 92/4/2 98/4/2
f 93/4/2 94/4/2 99/4/2
f 98/5/2 93/5/2 99/5/2
f 94/3/2 95/3/2 100/3/2
f 99/4/2 94/4/2 100/4/2
f 100/3/2 95/3/2 101/3/2
f 104/5/3 103/5/3 102/5/3
f 105/5/3 103/5/3 104/5/3
f 106/4/3 105/4/3 104/4/3
f 107/4/3 105/4/3 106/4/3
f 108/3/3 107/3/3 106/3/3
f 109/3/3 107/3/3 108/3/3
f 114/4/3 113/4/3 112/4/3
f 115/4/3 113/4/3 114/4/3
f 116/4/3 111/4/3 110/4/3
f 117/3/3 115/3/3 114/3/3
f 118/3/3 115/3/3 117/3/3
f 119/4/3 116/4/3 110/4/3
f 120/2/3 118/2/3 117/2/3
f 121/2/3 118/2/3 120/2/3
f 122/4/3 119/4/3 110/4/3
f 123/4/3 119/4/3 122/4/3
f 125/3/3 124/3/3 123/3/3
f 126/3/3 124/3/3 125/3/3
f 130/1/3 128/1/3 127/1/3
f 131/3/3 129/3/3 128/3/3
f 131/1/3 128/1/3 130/1/3
f 132/3/3 129/3/3 131/3/3
f 135/2/3 134/2/3 133/2/3
f 136/2/3 134/2/3 135/2/3
f 139/3/3 138/3/3 137/3/3
f 140/3/3 138/3/3 139/3/3
f 146/1/3 142/1/3 141/1/3
f 147/3/3 143/3/3 142/3/3
f 147/1/3 142/1/3 146/1/3
f 148/3/3 143/3/3 147/3/3
f 149/3/3 145/3/3 144/3/3
f 150/3/3 145/3/3 149/3/3
f 151/1/4 152/1/4 156/1/4
f 152/3/4 153/3/4 157/3/4
f 156/1/4 152/1/4 157/1/4
f 157/3/4 153/3/4 158/3/4
f 154/3/4 155/3/4 159/3/4
f 159/3/4 155/3/4 160/3/4
f 161/3/4 162/3/4 163/3/4
f 163/3/4 162/3/4 164/3/4
f 165/1/4 166/1/4 168/1/4
f 166/3/4 167/3/4 169/3/4
f 168/1/4 166/1/4 169/1/4
f 169/3/4 167/3/4 170/3/4
f 170/4/4 171/4/4 174/4/4
f 174/4/4 171/4/4 175/4/4
f 172/2/4 173/2/4 176/2/4
f 176/2/4 173/2/4 177/2/4
f 180/4/4 181/4/4 182/4/4
f 182/4/4 181/4/4 183/4/4
f 178/4/4 179/4/4 184/4/4
f 182/3/4 183/3/4 185/3/4
f 185/3/4 183/3/4 186/3/4
f 178/4/4 184/4/4 187/4/4
f 187/4/4 184/4/4 188/4/4
f 185/2/4 186/2/4 189/2/4
f 189/2/4 186/2/4 190/2/4
f 191/3/4 192/3/4 193/3/4
f 193/3/4 192/3/4 194/3/4
f 195/5/4 196/5/4 197/5/4
f 197/5/4 196/5/4 198/5/4
f 197/4/4 198/4/4 199/4/4
f 199/4/4 198/4/4 200/4/4
f 199/3/4 200/3/4 201/3/4
f 201/3/4 200/3/4 202/3/4
f 205/1/5 204/1/5 203/1/5
f 206/1/5 204/1/5 205/1/5
f 209/1/5 208/1/5 207/1/5
f 210/1/5 208/1/5 209/1/5
f 214/3/5 212/3/5 211/3/5
f 215/3/5 214/3/5 213/3/5
f 216/3/5 212/3/5 214/3/5
f 216/3/5 214/3/5 215/3/5
f 217/3/5 212/3/5 216/3/5
f 218/3/5 212/3/5 217/3/5
f 221/4/5 220/4/5 219/4/5
f 222/4/5 220/4/5 221/4/5
f 223/4/5 221/4/5 219/4/5
f 224/4/5 220/4/5 222/4/5
f 225/4/5 223/4/5 219/4/5
f 225/4/5 224/4/5 223/4/5
f 226/4/5 220/4/5 224/4/5
f 226/4/5 224/4/5 225/4/5
f 227/4/5 225/4/5 219/4/5
f 228/4/5 220/4/5 226/4/5
f 229/4/5 220/4/5 228/4/5
f 230/4/5 227/4/5 219/4/5
f 230/4/5 228/4/5 227/4/5
f 231/4/5 228/4/5 230/4/5
f 236/5/5 233/5/5 232/5/5
f 237/4/5 234/4/5 233/4/5
f 237/5/5 233/5/5 236/5/5
f 238/3/5 235/3/5 234/3/5
f 238/4/5 234/4/5 237/4/5
f 239/3/5 235/3/5 238/3/5
f 241/3/5 240/3/5 239/3/5
f 242/3/5 240/3/5 241/3/5
f 243/4/5 242/4/5 241/4/5
f 244/4/5 242/4/5 243/4/5
f 245/5/5 244/5/5 243/5/5
f 246/5/5 244/5/5 245/5/5
f 248/4/5 246/4/5 245/4/5
f 249/4/5 246/4/5 248/4/5
f 252/4/5 248/4/5 247/4/5
f 253/3/5 249/3/5 248/3/5
f 253/4/5 248/4/5 252/4/5
f 254/3/5 249/3/5 253/3/5
f 255/5/5 251/5/5 250/5/5
f 256/4/5 252/4/5 251/4/5
f 256/5/5 251/5/5 255/5/5
f 257/3/5 253/3/5 252/3/5
f 257/4/5 252/4/5 256/4/5
f 258/3/5 253/3/5 257/3/5
f 259/3/6 260/3/6 262/3/6
f 261/3/6 262/3/6 263/3/6
f 262/3/6 260/3/6 264/3/6
f 263/3/6 262/3/6 264/3/6
f 264/3/6 260/3/6 265/3/6
f 265/3/6 260/3/6 266/3/6
f 267/5/6 268/5/6 271/5/6
f 271/5/6 268/5/6 272/5/6
f 268/4/6 269/4/6 273/4/6
f 272/5/6 268/5/6 273/5/6
f 269/3/6 270/3/6 274/3/6
f 273/4/6 269/4/6 274/4/6
f 274/3/6 270/3/6 275/3/6
f 274/4/6 275/4/6 277/4/6
f 275/3/6 276/3/6 278/3/6
f 277/4/6 275/4/6 278/4/6
f 278/3/6 276/3/6 279/3/6
f 278/4/6 279/4/6 280/4/6
f 280/4/6 279/4/6 281/4/6
f 280/5/6 281/5/6 282/5/6
f 282/5/6 281/5/6 283/5/6
f 283/5/6 281/5/6 284/5/6
f 284/5/6 281/5/6 285/5/6
f 284/4/6 285/4/6 287/4/6
f 287/4/6 285/4/6 288/4/6
f 286/4/6 287/4/6 292/4/6
f 287/3/6 288/3/6 293/3/6
f 292/4/6 287/4/6 293/4/6
f 293/3/6 288/3/6 294/3/6
f 290/5/6 291/5/6 295/5/6
f 289/5/6 290/5/6 295/5/6
f 291/4/6 292/4/6 296/4/6
f 295/5/6 291/5/6 296/5/6
f 292/3/6 293/3/6 297/3/6
f 296/4/6 292/4/6 297/4/6
f 297/3/6 293/3/6 298/3/6
f 299/4/6 300/4/6 303/4/6
f 300/3/6 301/3/6 303/3/6
f 301/2/6 302/2/6 304/2/6
f 303/3/6 301/3/6 304/3/6
f 304/2/6 302/2/6 305/2/6
f 303/4/6 304/4/6 307/4/6
f 304/3/6 305/3/6 307/3/6
f 305/2/6 306/2/6 308/2/6
f 307/3/6 305/3/6 308/3/6
f 308/2/6 306/2/6 309/2/6
f 307/4/6 308/4/6 310/4/6
f 308/3/6 309/3/6 310/3/6
f 310/3/6 309/3/6 311/3/6
f 307/4/6 310/4/6 312/4/6
f 310/4/6 311/4/6 312/4/6
f 312/4/6 311/4/6 313/4/6
f 303/4/6 307/4/6 314/4/6
f 307/4/6 312/4/6 314/4/6
f 312/3/6 313/3/6 315/3/6
f 314/4/6 312/4/6 315/4/6
f 315/3/6 313/3/6 316/3/6
f 299/4/6 303/4/6 317/4/6
f 303/4/6 314/4/6 317/4/6
f 314/3/6 315/3/6 318/3/6
f 317/4/6 314/4/6 318/4/6
f 315/2/6 316/2/6 319/2/6
f 318/3/6 315/3/6 319/3/6
f 319/2/6 316/2/6 320/2/6
f 299/4/6 317/4/6 321/4/6
f 317/3/6 318/3/6 322/3/6
f 321/4/6 317/4/6 322/4/6
f 318/2/6 319/2/6 323/2/6
f 322/3/6 318/3/6 323/3/6
f 323/2/6 319/2/6 324/2/6
