# MagicaVoxel @ Ephtracy

# group
o 

# material
mtllib Interior_Furniture_Table_Piece_Big_01.mtl
usemtl palette

# normals
vn -1 0 0
vn 1 0 0
vn 0 0 1
vn 0 0 -1
vn 0 -1 0
vn 0 1 0

# texcoords
vt 0.876953 0.5
vt 0.880859 0.5
vt 0.884766 0.5
vt 0.888672 0.5
vt 0.892578 0.5

# verts
v -0.8 0.9 0.8
v -0.8 0.9 -0.3
v -0.8 0.9 -0.4
v -0.8 0.9 -0.5
v -0.8 1 0.8
v -0.8 1 -0.3
v -0.8 1 -0.4
v -0.8 1 -0.5
v -0.7 0.8 0.8
v -0.7 0.8 -0.4
v -0.7 0.9 0.8
v -0.7 0.9 -0.3
v -0.7 0.9 -0.4
v -0.7 0.9 -0.5
v -0.7 0.9 -0.6
v -0.7 1 0.8
v -0.7 1 -0.2
v -0.7 1 -0.3
v -0.7 1 -0.4
v -0.7 1 -0.5
v -0.7 1 -0.6
v -0.7 1.1 0.8
v -0.7 1.1 -0.2
v -0.7 1.1 -0.3
v -0.7 1.1 -0.4
v -0.6 0 -0.3
v -0.6 0 -0.4
v -0.6 0.1 -0.3
v -0.6 0.1 -0.4
v -0.6 0.2 0.8
v -0.6 0.2 -0.3
v -0.6 0.3 0.8
v -0.6 0.3 -0.3
v -0.6 0.8 -0.3
v -0.6 0.8 -0.4
v -0.6 0.8 -0.5
v -0.6 0.9 -0.4
v -0.6 0.9 -0.5
v -0.6 1 -0.4
v -0.6 1 -0.5
v -0.6 1.1 -0.4
v -0.6 1.1 -0.5
v -0.5 0 -0.3
v -0.5 0 -0.4
v -0.5 0.1 -0.3
v -0.5 0.1 -0.4
v -0.5 0.2 0.7
v -0.5 0.2 -0.3
v -0.5 0.3 0.7
v -0.5 0.3 -0.3
v -0.5 0.8 -0.3
v -0.5 0.8 -0.4
v 0.8 0.2 0.8
v 0.8 0.2 0.7
v 0.8 0.3 0.8
v 0.8 0.3 0.7
v 0.8 0.8 0.8
v 0.8 0.8 -0.5
v 0.8 0.9 -0.5
v 0.8 0.9 -0.6
v 0.8 1 -0.5
v 0.8 1 -0.6
v 0.8 1.1 0.8
v 0.8 1.1 -0.5
v -0.8 0.9 0.8
v -0.8 1 0.8
v -0.7 0.8 0.8
v -0.7 0.9 0.8
v -0.7 1 0.8
v -0.7 1.1 0.8
v -0.6 0.2 0.8
v -0.6 0.3 0.8
v 0.8 0.2 0.8
v 0.8 0.3 0.8
v 0.8 0.8 0.8
v 0.8 1.1 0.8
v -0.6 0 -0.3
v -0.6 0.1 -0.3
v -0.6 0.2 -0.3
v -0.6 0.3 -0.3
v -0.6 0.8 -0.3
v -0.5 0 -0.3
v -0.5 0.1 -0.3
v -0.5 0.2 -0.3
v -0.5 0.3 -0.3
v -0.5 0.8 -0.3
v -0.5 0.2 0.7
v -0.5 0.3 0.7
v 0.8 0.2 0.7
v 0.8 0.3 0.7
v -0.7 0.8 -0.4
v -0.7 0.9 -0.4
v -0.7 1 -0.4
v -0.7 1.1 -0.4
v -0.6 0 -0.4
v -0.6 0.1 -0.4
v -0.6 0.8 -0.4
v -0.6 0.9 -0.4
v -0.6 1 -0.4
v -0.6 1.1 -0.4
v -0.5 0 -0.4
v -0.5 0.1 -0.4
v -0.5 0.8 -0.4
v -0.8 0.9 -0.5
v -0.8 1 -0.5
v -0.7 0.9 -0.5
v -0.7 1 -0.5
v -0.6 0.8 -0.5
v -0.6 0.9 -0.5
v -0.6 1 -0.5
v -0.6 1.1 -0.5
v -0.5 0.9 -0.5
v -0.5 1 -0.5
v -0.5 1.1 -0.5
v -0.4 1 -0.5
v -0.4 1.1 -0.5
v 0.8 0.8 -0.5
v 0.8 0.9 -0.5
v 0.8 1 -0.5
v 0.8 1.1 -0.5
v -0.7 0.9 -0.6
v -0.7 1 -0.6
v -0.6 0.9 -0.6
v -0.6 1 -0.6
v -0.5 0.9 -0.6
v -0.5 1 -0.6
v 0.8 0.9 -0.6
v 0.8 1 -0.6
v -0.6 0 -0.3
v -0.5 0 -0.3
v -0.6 0 -0.4
v -0.5 0 -0.4
v -0.6 0.2 0.8
v 0.8 0.2 0.8
v -0.5 0.2 0.7
v 0.8 0.2 0.7
v -0.6 0.2 -0.3
v -0.5 0.2 -0.3
v -0.7 0.8 0.8
v 0.8 0.8 0.8
v -0.6 0.8 -0.3
v -0.5 0.8 -0.3
v -0.7 0.8 -0.4
v -0.6 0.8 -0.4
v -0.5 0.8 -0.4
v -0.6 0.8 -0.5
v 0.8 0.8 -0.5
v -0.8 0.9 0.8
v -0.7 0.9 0.8
v -0.8 0.9 -0.3
v -0.7 0.9 -0.3
v -0.8 0.9 -0.4
v -0.7 0.9 -0.4
v -0.6 0.9 -0.4
v -0.8 0.9 -0.5
v -0.7 0.9 -0.5
v -0.6 0.9 -0.5
v -0.5 0.9 -0.5
v 0.8 0.9 -0.5
v -0.7 0.9 -0.6
v -0.6 0.9 -0.6
v -0.5 0.9 -0.6
v 0.8 0.9 -0.6
v -0.6 0.3 0.8
v 0.8 0.3 0.8
v -0.5 0.3 0.7
v 0.8 0.3 0.7
v -0.6 0.3 -0.3
v -0.5 0.3 -0.3
v -0.8 1 0.8
v -0.7 1 0.8
v -0.7 1 -0.2
v -0.8 1 -0.3
v -0.7 1 -0.3
v -0.8 1 -0.4
v -0.7 1 -0.4
v -0.6 1 -0.4
v -0.8 1 -0.5
v -0.7 1 -0.5
v -0.6 1 -0.5
v -0.5 1 -0.5
v -0.4 1 -0.5
v 0.8 1 -0.5
v -0.7 1 -0.6
v -0.6 1 -0.6
v -0.5 1 -0.6
v 0.8 1 -0.6
v -0.7 1.1 0.8
v 0.8 1.1 0.8
v -0.7 1.1 -0.2
v -0.6 1.1 -0.2
v -0.7 1.1 -0.3
v -0.6 1.1 -0.3
v -0.5 1.1 -0.3
v -0.7 1.1 -0.4
v -0.6 1.1 -0.4
v -0.5 1.1 -0.4
v -0.4 1.1 -0.4
v -0.6 1.1 -0.5
v -0.5 1.1 -0.5
v -0.4 1.1 -0.5
v 0.8 1.1 -0.5

# faces
f 5/5/1 2/5/1 1/5/1
f 6/4/1 3/4/1 2/4/1
f 6/5/1 2/5/1 5/5/1
f 7/3/1 4/3/1 3/3/1
f 7/4/1 3/4/1 6/4/1
f 8/3/1 4/3/1 7/3/1
f 11/4/1 10/4/1 9/4/1
f 12/4/1 10/4/1 11/4/1
f 13/4/1 10/4/1 12/4/1
f 20/3/1 15/3/1 14/3/1
f 21/3/1 15/3/1 20/3/1
f 22/4/1 17/4/1 16/4/1
f 23/3/1 18/3/1 17/3/1
f 23/4/1 17/4/1 22/4/1
f 24/2/1 19/2/1 18/2/1
f 24/3/1 18/3/1 23/3/1
f 25/2/1 19/2/1 24/2/1
f 28/1/1 27/1/1 26/1/1
f 29/1/1 27/1/1 28/1/1
f 31/3/1 29/3/1 28/3/1
f 32/3/1 31/3/1 30/3/1
f 33/3/1 29/3/1 31/3/1
f 33/3/1 31/3/1 32/3/1
f 34/3/1 29/3/1 33/3/1
f 35/3/1 29/3/1 34/3/1
f 37/4/1 36/4/1 35/4/1
f 38/4/1 36/4/1 37/4/1
f 41/2/1 40/2/1 39/2/1
f 42/2/1 40/2/1 41/2/1
f 43/1/2 44/1/2 45/1/2
f 45/1/2 44/1/2 46/1/2
f 45/3/2 46/3/2 48/3/2
f 47/3/2 48/3/2 49/3/2
f 48/3/2 46/3/2 50/3/2
f 49/3/2 48/3/2 50/3/2
f 50/3/2 46/3/2 51/3/2
f 51/3/2 46/3/2 52/3/2
f 53/3/2 54/3/2 55/3/2
f 55/3/2 54/3/2 56/3/2
f 57/4/2 58/4/2 59/4/2
f 57/4/2 59/4/2 61/4/2
f 59/5/2 60/5/2 61/5/2
f 61/5/2 60/5/2 62/5/2
f 57/4/2 61/4/2 63/4/2
f 63/4/2 61/4/2 64/4/2
f 68/5/3 66/5/3 65/5/3
f 69/5/3 66/5/3 68/5/3
f 73/3/3 72/3/3 71/3/3
f 74/3/3 72/3/3 73/3/3
f 75/4/3 68/4/3 67/4/3
f 75/4/3 69/4/3 68/4/3
f 75/4/3 70/4/3 69/4/3
f 76/4/3 70/4/3 75/4/3
f 82/1/3 78/1/3 77/1/3
f 83/3/3 79/3/3 78/3/3
f 83/1/3 78/1/3 82/1/3
f 84/3/3 79/3/3 83/3/3
f 85/3/3 81/3/3 80/3/3
f 86/3/3 81/3/3 85/3/3
f 87/3/4 88/3/4 89/3/4
f 89/3/4 88/3/4 90/3/4
f 91/4/4 92/4/4 97/4/4
f 97/4/4 92/4/4 98/4/4
f 93/2/4 94/2/4 99/2/4
f 99/2/4 94/2/4 100/2/4
f 95/1/4 96/1/4 101/1/4
f 96/3/4 97/3/4 102/3/4
f 101/1/4 96/1/4 102/1/4
f 102/3/4 97/3/4 103/3/4
f 104/3/4 105/3/4 106/3/4
f 106/3/4 105/3/4 107/3/4
f 108/4/4 109/4/4 112/4/4
f 110/2/4 111/2/4 113/2/4
f 113/2/4 111/2/4 114/2/4
f 113/3/4 114/3/4 115/3/4
f 115/3/4 114/3/4 116/3/4
f 108/4/4 112/4/4 117/4/4
f 117/4/4 112/4/4 118/4/4
f 115/4/4 116/4/4 119/4/4
f 119/4/4 116/4/4 120/4/4
f 121/3/4 122/3/4 123/3/4
f 123/3/4 122/3/4 124/3/4
f 123/4/4 124/4/4 125/4/4
f 125/4/4 124/4/4 126/4/4
f 125/5/4 126/5/4 127/5/4
f 127/5/4 126/5/4 128/5/4
f 131/1/5 130/1/5 129/1/5
f 132/1/5 130/1/5 131/1/5
f 135/3/5 134/3/5 133/3/5
f 136/3/5 134/3/5 135/3/5
f 137/3/5 135/3/5 133/3/5
f 138/3/5 135/3/5 137/3/5
f 141/4/5 140/4/5 139/4/5
f 142/4/5 140/4/5 141/4/5
f 143/4/5 141/4/5 139/4/5
f 144/4/5 141/4/5 143/4/5
f 145/4/5 140/4/5 142/4/5
f 146/4/5 145/4/5 144/4/5
f 147/4/5 140/4/5 145/4/5
f 147/4/5 145/4/5 146/4/5
f 150/5/5 149/5/5 148/5/5
f 151/5/5 149/5/5 150/5/5
f 152/4/5 151/4/5 150/4/5
f 153/4/5 151/4/5 152/4/5
f 155/3/5 153/3/5 152/3/5
f 156/4/5 154/4/5 153/4/5
f 156/3/5 153/3/5 155/3/5
f 157/4/5 154/4/5 156/4/5
f 160/3/5 157/3/5 156/3/5
f 161/4/5 158/4/5 157/4/5
f 161/3/5 157/3/5 160/3/5
f 162/5/5 159/5/5 158/5/5
f 162/4/5 158/4/5 161/4/5
f 163/5/5 159/5/5 162/5/5
f 164/3/6 165/3/6 166/3/6
f 166/3/6 165/3/6 167/3/6
f 164/3/6 166/3/6 168/3/6
f 168/3/6 166/3/6 169/3/6
f 170/5/6 171/5/6 172/5/6
f 170/5/6 172/5/6 173/5/6
f 173/5/6 172/5/6 174/5/6
f 173/4/6 174/4/6 175/4/6
f 175/4/6 174/4/6 176/4/6
f 175/3/6 176/3/6 178/3/6
f 176/4/6 177/4/6 179/4/6
f 178/3/6 176/3/6 179/3/6
f 179/4/6 177/4/6 180/4/6
f 179/3/6 180/3/6 184/3/6
f 180/4/6 181/4/6 185/4/6
f 184/3/6 180/3/6 185/3/6
f 182/5/6 183/5/6 186/5/6
f 185/4/6 181/4/6 186/4/6
f 181/5/6 182/5/6 186/5/6
f 186/5/6 183/5/6 187/5/6
f 188/4/6 189/4/6 190/4/6
f 190/4/6 189/4/6 191/4/6
f 190/3/6 191/3/6 192/3/6
f 191/4/6 189/4/6 193/4/6
f 192/3/6 191/3/6 193/3/6
f 193/4/6 189/4/6 194/4/6
f 192/2/6 193/2/6 195/2/6
f 193/3/6 194/3/6 196/3/6
f 195/2/6 193/2/6 196/2/6
f 194/4/6 189/4/6 197/4/6
f 196/3/6 194/3/6 197/3/6
f 197/4/6 189/4/6 198/4/6
f 196/2/6 197/2/6 199/2/6
f 197/3/6 198/3/6 200/3/6
f 199/2/6 197/2/6 200/2/6
f 198/4/6 189/4/6 201/4/6
f 200/3/6 198/3/6 201/3/6
f 201/4/6 189/4/6 202/4/6
