# MagicaVoxel @ Ephtracy

# group
o 

# material
mtllib Interior_Furniture_Table_Piece_Long_Type03_02.mtl
usemtl palette

# normals
vn -1 0 0
vn 1 0 0
vn 0 0 1
vn 0 0 -1
vn 0 -1 0
vn 0 1 0

# texcoords
vt 0.884766 0.5
vt 0.888672 0.5
vt 0.892578 0.5

# verts
v -0.8 0.2 0.1
v -0.8 0.2 -0.1
v -0.8 0.3 0.1
v -0.8 0.3 -0.1
v -0.8 0.8 0.5
v -0.8 0.8 -0.5
v -0.8 0.9 0.6
v -0.8 0.9 0.5
v -0.8 0.9 -0.5
v -0.8 0.9 -0.6
v -0.8 1 0.6
v -0.8 1 0.5
v -0.8 1 -0.5
v -0.8 1 -0.6
v -0.8 1.1 0.5
v -0.8 1.1 -0.5
v 0.8 0.2 0.1
v 0.8 0.2 -0.1
v 0.8 0.3 0.1
v 0.8 0.3 -0.1
v 0.8 0.8 0.5
v 0.8 0.8 -0.5
v 0.8 0.9 0.6
v 0.8 0.9 0.5
v 0.8 0.9 -0.5
v 0.8 0.9 -0.6
v 0.8 1 0.6
v 0.8 1 0.5
v 0.8 1 -0.5
v 0.8 1 -0.6
v 0.8 1.1 0.5
v 0.8 1.1 -0.5
v -0.8 0.9 0.6
v -0.8 1 0.6
v 0.8 0.9 0.6
v 0.8 1 0.6
v -0.8 0.8 0.5
v -0.8 0.9 0.5
v -0.8 1 0.5
v -0.8 1.1 0.5
v 0.8 0.8 0.5
v 0.8 0.9 0.5
v 0.8 1 0.5
v 0.8 1.1 0.5
v -0.8 0.2 0.1
v -0.8 0.3 0.1
v 0.8 0.2 0.1
v 0.8 0.3 0.1
v -0.8 0.2 -0.1
v -0.8 0.3 -0.1
v 0.8 0.2 -0.1
v 0.8 0.3 -0.1
v -0.8 0.8 -0.5
v -0.8 0.9 -0.5
v -0.8 1 -0.5
v -0.8 1.1 -0.5
v 0.8 0.8 -0.5
v 0.8 0.9 -0.5
v 0.8 1 -0.5
v 0.8 1.1 -0.5
v -0.8 0.9 -0.6
v -0.8 1 -0.6
v 0.8 0.9 -0.6
v 0.8 1 -0.6
v -0.8 0.2 0.1
v 0.8 0.2 0.1
v -0.8 0.2 -0.1
v 0.8 0.2 -0.1
v -0.8 0.8 0.5
v 0.8 0.8 0.5
v -0.8 0.8 -0.5
v 0.8 0.8 -0.5
v -0.8 0.9 0.6
v 0.8 0.9 0.6
v -0.8 0.9 0.5
v 0.8 0.9 0.5
v -0.8 0.9 -0.5
v 0.8 0.9 -0.5
v -0.8 0.9 -0.6
v 0.8 0.9 -0.6
v -0.8 0.3 0.1
v 0.8 0.3 0.1
v -0.8 0.3 -0.1
v 0.8 0.3 -0.1
v -0.8 1 0.6
v 0.8 1 0.6
v -0.8 1 0.5
v 0.8 1 0.5
v -0.8 1 -0.5
v 0.8 1 -0.5
v -0.8 1 -0.6
v 0.8 1 -0.6
v -0.8 1.1 0.5
v 0.8 1.1 0.5
v -0.8 1.1 -0.5
v 0.8 1.1 -0.5

# faces
f 3/1/1 2/1/1 1/1/1
f 4/1/1 2/1/1 3/1/1
f 8/2/1 6/2/1 5/2/1
f 9/2/1 6/2/1 8/2/1
f 11/3/1 8/3/1 7/3/1
f 12/2/1 9/2/1 8/2/1
f 12/3/1 8/3/1 11/3/1
f 13/3/1 10/3/1 9/3/1
f 13/2/1 9/2/1 12/2/1
f 14/3/1 10/3/1 13/3/1
f 15/2/1 13/2/1 12/2/1
f 16/2/1 13/2/1 15/2/1
f 17/1/2 18/1/2 19/1/2
f 19/1/2 18/1/2 20/1/2
f 21/2/2 22/2/2 24/2/2
f 24/2/2 22/2/2 25/2/2
f 23/3/2 24/3/2 27/3/2
f 24/2/2 25/2/2 28/2/2
f 27/3/2 24/3/2 28/3/2
f 25/3/2 26/3/2 29/3/2
f 28/2/2 25/2/2 29/2/2
f 29/3/2 26/3/2 30/3/2
f 28/2/2 29/2/2 31/2/2
f 31/2/2 29/2/2 32/2/2
f 35/3/3 34/3/3 33/3/3
f 36/3/3 34/3/3 35/3/3
f 41/2/3 38/2/3 37/2/3
f 42/2/3 38/2/3 41/2/3
f 43/2/3 40/2/3 39/2/3
f 44/2/3 40/2/3 43/2/3
f 47/1/3 46/1/3 45/1/3
f 48/1/3 46/1/3 47/1/3
f 49/1/4 50/1/4 51/1/4
f 51/1/4 50/1/4 52/1/4
f 53/2/4 54/2/4 57/2/4
f 57/2/4 54/2/4 58/2/4
f 55/2/4 56/2/4 59/2/4
f 59/2/4 56/2/4 60/2/4
f 61/3/4 62/3/4 63/3/4
f 63/3/4 62/3/4 64/3/4
f 67/1/5 66/1/5 65/1/5
f 68/1/5 66/1/5 67/1/5
f 71/2/5 70/2/5 69/2/5
f 72/2/5 70/2/5 71/2/5
f 75/3/5 74/3/5 73/3/5
f 76/3/5 74/3/5 75/3/5
f 79/3/5 78/3/5 77/3/5
f 80/3/5 78/3/5 79/3/5
f 81/1/6 82/1/6 83/1/6
f 83/1/6 82/1/6 84/1/6
f 85/3/6 86/3/6 87/3/6
f 87/3/6 86/3/6 88/3/6
f 89/3/6 90/3/6 91/3/6
f 91/3/6 90/3/6 92/3/6
f 93/2/6 94/2/6 95/2/6
f 95/2/6 94/2/6 96/2/6
