# MagicaVoxel @ Ephtracy

# group
o 

# material
mtllib Interior_Furniture_Table_Piece_Big_04.mtl
usemtl palette

# normals
vn -1 0 0
vn 1 0 0
vn 0 0 1
vn 0 0 -1
vn 0 -1 0
vn 0 1 0

# texcoords
vt 0.884766 0.5
vt 0.888672 0.5
vt 0.892578 0.5

# verts
v -0.8 0.9 0.8
v -0.8 0.9 -0.8
v -0.8 1 0.8
v -0.8 1 -0.8
v -0.7 0.8 0.8
v -0.7 0.8 -0.8
v -0.7 0.9 0.8
v -0.7 0.9 -0.8
v -0.7 1 0.8
v -0.7 1 -0.8
v -0.7 1.1 0.8
v -0.7 1.1 -0.8
v -0.6 0 0.8
v -0.6 0 0.7
v -0.6 0 -0.7
v -0.6 0 -0.8
v -0.6 0.2 0.7
v -0.6 0.2 -0.7
v -0.6 0.3 0.7
v -0.6 0.3 -0.7
v -0.6 0.8 0.8
v -0.6 0.8 0.7
v -0.6 0.8 -0.7
v -0.6 0.8 -0.8
v -0.5 0 0.8
v -0.5 0 0.7
v -0.5 0 -0.7
v -0.5 0 -0.8
v -0.5 0.2 0.8
v -0.5 0.2 0.7
v -0.5 0.2 -0.7
v -0.5 0.2 -0.8
v -0.5 0.3 0.8
v -0.5 0.3 0.7
v -0.5 0.3 -0.7
v -0.5 0.3 -0.8
v -0.5 0.8 0.8
v -0.5 0.8 0.7
v -0.5 0.8 -0.7
v -0.5 0.8 -0.8
v 0.8 0.2 0.8
v 0.8 0.2 0.7
v 0.8 0.2 -0.7
v 0.8 0.2 -0.8
v 0.8 0.3 0.8
v 0.8 0.3 0.7
v 0.8 0.3 -0.7
v 0.8 0.3 -0.8
v 0.8 0.8 0.8
v 0.8 0.8 -0.8
v 0.8 1.1 0.8
v 0.8 1.1 -0.8
v -0.8 0.9 0.8
v -0.8 1 0.8
v -0.7 0.8 0.8
v -0.7 0.9 0.8
v -0.7 1 0.8
v -0.7 1.1 0.8
v -0.6 0 0.8
v -0.6 0.8 0.8
v -0.5 0 0.8
v -0.5 0.2 0.8
v -0.5 0.3 0.8
v -0.5 0.8 0.8
v 0.8 0.2 0.8
v 0.8 0.3 0.8
v 0.8 0.8 0.8
v 0.8 1.1 0.8
v -0.6 0 -0.7
v -0.6 0.2 -0.7
v -0.6 0.3 -0.7
v -0.6 0.8 -0.7
v -0.5 0 -0.7
v -0.5 0.2 -0.7
v -0.5 0.3 -0.7
v -0.5 0.8 -0.7
v 0.8 0.2 -0.7
v 0.8 0.3 -0.7
v -0.6 0 0.7
v -0.6 0.2 0.7
v -0.6 0.3 0.7
v -0.6 0.8 0.7
v -0.5 0 0.7
v -0.5 0.2 0.7
v -0.5 0.3 0.7
v -0.5 0.8 0.7
v 0.8 0.2 0.7
v 0.8 0.3 0.7
v -0.8 0.9 -0.8
v -0.8 1 -0.8
v -0.7 0.8 -0.8
v -0.7 0.9 -0.8
v -0.7 1 -0.8
v -0.7 1.1 -0.8
v -0.6 0 -0.8
v -0.6 0.8 -0.8
v -0.5 0 -0.8
v -0.5 0.2 -0.8
v -0.5 0.3 -0.8
v -0.5 0.8 -0.8
v 0.8 0.2 -0.8
v 0.8 0.3 -0.8
v 0.8 0.8 -0.8
v 0.8 1.1 -0.8
v -0.6 0 0.8
v -0.5 0 0.8
v -0.6 0 0.7
v -0.5 0 0.7
v -0.6 0 -0.7
v -0.5 0 -0.7
v -0.6 0 -0.8
v -0.5 0 -0.8
v -0.5 0.2 0.8
v 0.8 0.2 0.8
v -0.6 0.2 0.7
v -0.5 0.2 0.7
v 0.8 0.2 0.7
v -0.6 0.2 -0.7
v -0.5 0.2 -0.7
v 0.8 0.2 -0.7
v -0.5 0.2 -0.8
v 0.8 0.2 -0.8
v -0.7 0.8 0.8
v -0.6 0.8 0.8
v -0.5 0.8 0.8
v 0.8 0.8 0.8
v -0.6 0.8 0.7
v -0.5 0.8 0.7
v -0.6 0.8 -0.7
v -0.5 0.8 -0.7
v -0.7 0.8 -0.8
v -0.6 0.8 -0.8
v -0.5 0.8 -0.8
v 0.8 0.8 -0.8
v -0.8 0.9 0.8
v -0.7 0.9 0.8
v -0.8 0.9 -0.8
v -0.7 0.9 -0.8
v -0.5 0.3 0.8
v 0.8 0.3 0.8
v -0.6 0.3 0.7
v -0.5 0.3 0.7
v 0.8 0.3 0.7
v -0.6 0.3 -0.7
v -0.5 0.3 -0.7
v 0.8 0.3 -0.7
v -0.5 0.3 -0.8
v 0.8 0.3 -0.8
v -0.8 1 0.8
v -0.7 1 0.8
v -0.8 1 -0.8
v -0.7 1 -0.8
v -0.7 1.1 0.8
v 0.8 1.1 0.8
v -0.7 1.1 -0.8
v 0.8 1.1 -0.8

# faces
f 3/3/1 2/3/1 1/3/1
f 4/3/1 2/3/1 3/3/1
f 7/2/1 6/2/1 5/2/1
f 8/2/1 6/2/1 7/2/1
f 11/2/1 10/2/1 9/2/1
f 12/2/1 10/2/1 11/2/1
f 17/1/1 14/1/1 13/1/1
f 18/1/1 16/1/1 15/1/1
f 19/1/1 17/1/1 13/1/1
f 19/1/1 18/1/1 17/1/1
f 20/1/1 16/1/1 18/1/1
f 20/1/1 18/1/1 19/1/1
f 21/1/1 19/1/1 13/1/1
f 22/1/1 19/1/1 21/1/1
f 23/1/1 16/1/1 20/1/1
f 24/1/1 16/1/1 23/1/1
f 25/1/2 26/1/2 29/1/2
f 29/1/2 26/1/2 30/1/2
f 27/1/2 28/1/2 31/1/2
f 31/1/2 28/1/2 32/1/2
f 30/1/2 31/1/2 34/1/2
f 34/1/2 31/1/2 35/1/2
f 33/1/2 34/1/2 37/1/2
f 37/1/2 34/1/2 38/1/2
f 35/1/2 36/1/2 39/1/2
f 39/1/2 36/1/2 40/1/2
f 41/1/2 42/1/2 45/1/2
f 45/1/2 42/1/2 46/1/2
f 43/1/2 44/1/2 47/1/2
f 47/1/2 44/1/2 48/1/2
f 49/2/2 50/2/2 51/2/2
f 51/2/2 50/2/2 52/2/2
f 56/3/3 54/3/3 53/3/3
f 57/3/3 54/3/3 56/3/3
f 60/2/3 56/2/3 55/2/3
f 60/2/3 58/2/3 57/2/3
f 60/2/3 57/2/3 56/2/3
f 61/1/3 60/1/3 59/1/3
f 62/1/3 60/1/3 61/1/3
f 63/1/3 60/1/3 62/1/3
f 64/2/3 58/2/3 60/2/3
f 64/1/3 60/1/3 63/1/3
f 65/1/3 63/1/3 62/1/3
f 66/1/3 63/1/3 65/1/3
f 67/2/3 58/2/3 64/2/3
f 68/2/3 58/2/3 67/2/3
f 73/1/3 70/1/3 69/1/3
f 74/1/3 70/1/3 73/1/3
f 75/1/3 72/1/3 71/1/3
f 76/1/3 72/1/3 75/1/3
f 77/1/3 75/1/3 74/1/3
f 78/1/3 75/1/3 77/1/3
f 79/1/4 80/1/4 83/1/4
f 83/1/4 80/1/4 84/1/4
f 81/1/4 82/1/4 85/1/4
f 85/1/4 82/1/4 86/1/4
f 84/1/4 85/1/4 87/1/4
f 87/1/4 85/1/4 88/1/4
f 89/3/4 90/3/4 92/3/4
f 92/3/4 90/3/4 93/3/4
f 91/2/4 92/2/4 96/2/4
f 93/2/4 94/2/4 96/2/4
f 92/2/4 93/2/4 96/2/4
f 95/1/4 96/1/4 97/1/4
f 97/1/4 96/1/4 98/1/4
f 98/1/4 96/1/4 99/1/4
f 96/2/4 94/2/4 100/2/4
f 99/1/4 96/1/4 100/1/4
f 98/1/4 99/1/4 101/1/4
f 101/1/4 99/1/4 102/1/4
f 100/2/4 94/2/4 103/2/4
f 103/2/4 94/2/4 104/2/4
f 107/1/5 106/1/5 105/1/5
f 108/1/5 106/1/5 107/1/5
f 111/1/5 110/1/5 109/1/5
f 112/1/5 110/1/5 111/1/5
f 116/1/5 114/1/5 113/1/5
f 117/1/5 114/1/5 116/1/5
f 118/1/5 116/1/5 115/1/5
f 119/1/5 116/1/5 118/1/5
f 121/1/5 120/1/5 119/1/5
f 122/1/5 120/1/5 121/1/5
f 127/2/5 124/2/5 123/2/5
f 128/2/5 126/2/5 125/2/5
f 129/2/5 127/2/5 123/2/5
f 129/2/5 128/2/5 127/2/5
f 130/2/5 126/2/5 128/2/5
f 130/2/5 128/2/5 129/2/5
f 131/2/5 129/2/5 123/2/5
f 132/2/5 129/2/5 131/2/5
f 133/2/5 126/2/5 130/2/5
f 134/2/5 126/2/5 133/2/5
f 137/3/5 136/3/5 135/3/5
f 138/3/5 136/3/5 137/3/5
f 139/1/6 140/1/6 142/1/6
f 142/1/6 140/1/6 143/1/6
f 141/1/6 142/1/6 144/1/6
f 144/1/6 142/1/6 145/1/6
f 145/1/6 146/1/6 147/1/6
f 147/1/6 146/1/6 148/1/6
f 149/3/6 150/3/6 151/3/6
f 151/3/6 150/3/6 152/3/6
f 153/2/6 154/2/6 155/2/6
f 155/2/6 154/2/6 156/2/6
