# MagicaVoxel @ Ephtracy

# group
o 

# material
mtllib Interior_Furniture_Table_Piece_Big_02.mtl
usemtl palette

# normals
vn -1 0 0
vn 1 0 0
vn 0 0 1
vn 0 0 -1
vn 0 -1 0
vn 0 1 0

# texcoords
vt 0.884766 0.5
vt 0.888672 0.5
vt 0.892578 0.5

# verts
v -0.8 0.2 0.8
v -0.8 0.2 0.7
v -0.8 0.3 0.8
v -0.8 0.3 0.7
v -0.8 0.8 0.8
v -0.8 0.8 -0.5
v -0.8 0.9 -0.5
v -0.8 0.9 -0.6
v -0.8 1 -0.5
v -0.8 1 -0.6
v -0.8 1.1 0.8
v -0.8 1.1 -0.5
v 0.8 0.2 0.8
v 0.8 0.2 0.7
v 0.8 0.3 0.8
v 0.8 0.3 0.7
v 0.8 0.8 0.8
v 0.8 0.8 -0.5
v 0.8 0.9 -0.5
v 0.8 0.9 -0.6
v 0.8 1 -0.5
v 0.8 1 -0.6
v 0.8 1.1 0.8
v 0.8 1.1 -0.5
v -0.8 0.2 0.8
v -0.8 0.3 0.8
v -0.8 0.8 0.8
v -0.8 1.1 0.8
v 0.8 0.2 0.8
v 0.8 0.3 0.8
v 0.8 0.8 0.8
v 0.8 1.1 0.8
v -0.8 0.2 0.7
v -0.8 0.3 0.7
v 0.8 0.2 0.7
v 0.8 0.3 0.7
v -0.8 0.8 -0.5
v -0.8 0.9 -0.5
v -0.8 1 -0.5
v -0.8 1.1 -0.5
v 0.8 0.8 -0.5
v 0.8 0.9 -0.5
v 0.8 1 -0.5
v 0.8 1.1 -0.5
v -0.8 0.9 -0.6
v -0.8 1 -0.6
v 0.8 0.9 -0.6
v 0.8 1 -0.6
v -0.8 0.2 0.8
v 0.8 0.2 0.8
v -0.8 0.2 0.7
v 0.8 0.2 0.7
v -0.8 0.8 0.8
v 0.8 0.8 0.8
v -0.8 0.8 -0.5
v 0.8 0.8 -0.5
v -0.8 0.9 -0.5
v 0.8 0.9 -0.5
v -0.8 0.9 -0.6
v 0.8 0.9 -0.6
v -0.8 0.3 0.8
v 0.8 0.3 0.8
v -0.8 0.3 0.7
v 0.8 0.3 0.7
v -0.8 1 -0.5
v 0.8 1 -0.5
v -0.8 1 -0.6
v 0.8 1 -0.6
v -0.8 1.1 0.8
v 0.8 1.1 0.8
v -0.8 1.1 -0.5
v 0.8 1.1 -0.5

# faces
f 3/1/1 2/1/1 1/1/1
f 4/1/1 2/1/1 3/1/1
f 7/2/1 6/2/1 5/2/1
f 9/2/1 7/2/1 5/2/1
f 9/3/1 8/3/1 7/3/1
f 10/3/1 8/3/1 9/3/1
f 11/2/1 9/2/1 5/2/1
f 12/2/1 9/2/1 11/2/1
f 13/1/2 14/1/2 15/1/2
f 15/1/2 14/1/2 16/1/2
f 17/2/2 18/2/2 19/2/2
f 17/2/2 19/2/2 21/2/2
f 19/3/2 20/3/2 21/3/2
f 21/3/2 20/3/2 22/3/2
f 17/2/2 21/2/2 23/2/2
f 23/2/2 21/2/2 24/2/2
f 29/1/3 26/1/3 25/1/3
f 30/1/3 26/1/3 29/1/3
f 31/2/3 28/2/3 27/2/3
f 32/2/3 28/2/3 31/2/3
f 33/1/4 34/1/4 35/1/4
f 35/1/4 34/1/4 36/1/4
f 37/2/4 38/2/4 41/2/4
f 41/2/4 38/2/4 42/2/4
f 39/2/4 40/2/4 43/2/4
f 43/2/4 40/2/4 44/2/4
f 45/3/4 46/3/4 47/3/4
f 47/3/4 46/3/4 48/3/4
f 51/1/5 50/1/5 49/1/5
f 52/1/5 50/1/5 51/1/5
f 55/2/5 54/2/5 53/2/5
f 56/2/5 54/2/5 55/2/5
f 59/3/5 58/3/5 57/3/5
f 60/3/5 58/3/5 59/3/5
f 61/1/6 62/1/6 63/1/6
f 63/1/6 62/1/6 64/1/6
f 65/3/6 66/3/6 67/3/6
f 67/3/6 66/3/6 68/3/6
f 69/2/6 70/2/6 71/2/6
f 71/2/6 70/2/6 72/2/6
