# MagicaVoxel @ Ephtracy

# group
o 

# material
mtllib Interior_Furniture_Misc_Piece_Door_Panel.mtl
usemtl palette

# normals
vn 1 0 0
vn -1 0 0
vn 0 0 -1
vn 0 0 1
vn 0 -1 0
vn 0 1 0

# texcoords
vt 0.900391 0.5
vt 0.943359 0.5

# verts
v 0.6 0 1.49012e-008
v 0.6 0 0.1
v 0.6 2.7 1.49012e-008
v 0.6 2.7 0.1
v -0.2 1.2 -0.1
v -0.2 1.2 1.49012e-008
v -0.2 1.2 0.1
v -0.2 1.2 0.2
v -0.2 1.3 -0.1
v -0.2 1.3 1.49012e-008
v -0.2 1.3 0.1
v -0.2 1.3 0.2
v -0.3 1.1 -0.1
v -0.3 1.1 1.49012e-008
v -0.3 1.1 0.1
v -0.3 1.1 0.2
v -0.3 1.2 -0.1
v -0.3 1.2 1.49012e-008
v -0.3 1.2 0.1
v -0.3 1.2 0.2
v -0.3 1.3 -0.1
v -0.3 1.3 1.49012e-008
v -0.3 1.3 0.1
v -0.3 1.3 0.2
v -0.3 1.4 -0.1
v -0.3 1.4 1.49012e-008
v -0.3 1.4 0.1
v -0.3 1.4 0.2
v -0.4 1.1 -0.1
v -0.4 1.1 1.49012e-008
v -0.4 1.1 0.1
v -0.4 1.1 0.2
v -0.4 1.2 -0.1
v -0.4 1.2 1.49012e-008
v -0.4 1.2 0.1
v -0.4 1.2 0.2
v -0.4 1.3 -0.1
v -0.4 1.3 1.49012e-008
v -0.4 1.3 0.1
v -0.4 1.3 0.2
v -0.4 1.4 -0.1
v -0.4 1.4 1.49012e-008
v -0.4 1.4 0.1
v -0.4 1.4 0.2
v -0.5 1.2 -0.1
v -0.5 1.2 1.49012e-008
v -0.5 1.2 0.1
v -0.5 1.2 0.2
v -0.5 1.3 -0.1
v -0.5 1.3 1.49012e-008
v -0.5 1.3 0.1
v -0.5 1.3 0.2
v -0.6 0 1.49012e-008
v -0.6 0 0.1
v -0.6 2.7 1.49012e-008
v -0.6 2.7 0.1
v -0.2 1.2 -0.1
v -0.2 1.3 -0.1
v -0.3 1.1 -0.1
v -0.3 1.2 -0.1
v -0.3 1.3 -0.1
v -0.3 1.4 -0.1
v -0.4 1.1 -0.1
v -0.4 1.2 -0.1
v -0.4 1.3 -0.1
v -0.4 1.4 -0.1
v -0.5 1.2 -0.1
v -0.5 1.3 -0.1
v 0.6 0 1.49012e-008
v 0.6 2.7 1.49012e-008
v -0.2 1.2 1.49012e-008
v -0.2 1.3 1.49012e-008
v -0.3 1.1 1.49012e-008
v -0.3 1.2 1.49012e-008
v -0.3 1.3 1.49012e-008
v -0.3 1.4 1.49012e-008
v -0.4 1.1 1.49012e-008
v -0.4 1.2 1.49012e-008
v -0.4 1.3 1.49012e-008
v -0.4 1.4 1.49012e-008
v -0.5 1.2 1.49012e-008
v -0.5 1.3 1.49012e-008
v -0.6 0 1.49012e-008
v -0.6 2.7 1.49012e-008
v 0.6 0 0.1
v 0.6 2.7 0.1
v -0.2 1.2 0.1
v -0.2 1.3 0.1
v -0.3 1.1 0.1
v -0.3 1.2 0.1
v -0.3 1.3 0.1
v -0.3 1.4 0.1
v -0.4 1.1 0.1
v -0.4 1.2 0.1
v -0.4 1.3 0.1
v -0.4 1.4 0.1
v -0.5 1.2 0.1
v -0.5 1.3 0.1
v -0.6 0 0.1
v -0.6 2.7 0.1
v -0.2 1.2 0.2
v -0.2 1.3 0.2
v -0.3 1.1 0.2
v -0.3 1.2 0.2
v -0.3 1.3 0.2
v -0.3 1.4 0.2
v -0.4 1.1 0.2
v -0.4 1.2 0.2
v -0.4 1.3 0.2
v -0.4 1.4 0.2
v -0.5 1.2 0.2
v -0.5 1.3 0.2
v 0.6 0 1.49012e-008
v -0.6 0 1.49012e-008
v 0.6 0 0.1
v -0.6 0 0.1
v -0.3 1.1 -0.1
v -0.4 1.1 -0.1
v -0.3 1.1 1.49012e-008
v -0.4 1.1 1.49012e-008
v -0.3 1.1 0.1
v -0.4 1.1 0.1
v -0.3 1.1 0.2
v -0.4 1.1 0.2
v -0.2 1.2 -0.1
v -0.3 1.2 -0.1
v -0.4 1.2 -0.1
v -0.5 1.2 -0.1
v -0.2 1.2 1.49012e-008
v -0.3 1.2 1.49012e-008
v -0.4 1.2 1.49012e-008
v -0.5 1.2 1.49012e-008
v -0.2 1.2 0.1
v -0.3 1.2 0.1
v -0.4 1.2 0.1
v -0.5 1.2 0.1
v -0.2 1.2 0.2
v -0.3 1.2 0.2
v -0.4 1.2 0.2
v -0.5 1.2 0.2
v -0.2 1.3 -0.1
v -0.3 1.3 -0.1
v -0.4 1.3 -0.1
v -0.5 1.3 -0.1
v -0.2 1.3 1.49012e-008
v -0.3 1.3 1.49012e-008
v -0.4 1.3 1.49012e-008
v -0.5 1.3 1.49012e-008
v -0.2 1.3 0.1
v -0.3 1.3 0.1
v -0.4 1.3 0.1
v -0.5 1.3 0.1
v -0.2 1.3 0.2
v -0.3 1.3 0.2
v -0.4 1.3 0.2
v -0.5 1.3 0.2
v -0.3 1.4 -0.1
v -0.4 1.4 -0.1
v -0.3 1.4 1.49012e-008
v -0.4 1.4 1.49012e-008
v -0.3 1.4 0.1
v -0.4 1.4 0.1
v -0.3 1.4 0.2
v -0.4 1.4 0.2
v 0.6 2.7 1.49012e-008
v -0.6 2.7 1.49012e-008
v 0.6 2.7 0.1
v -0.6 2.7 0.1

# faces
f 3/1/1 2/1/1 1/1/1
f 4/1/1 2/1/1 3/1/1
f 9/2/1 6/2/1 5/2/1
f 10/2/1 6/2/1 9/2/1
f 11/2/1 8/2/1 7/2/1
f 12/2/1 8/2/1 11/2/1
f 17/2/1 14/2/1 13/2/1
f 18/2/1 14/2/1 17/2/1
f 19/2/1 16/2/1 15/2/1
f 20/2/1 16/2/1 19/2/1
f 25/2/1 22/2/1 21/2/1
f 26/2/1 22/2/1 25/2/1
f 27/2/1 24/2/1 23/2/1
f 28/2/1 24/2/1 27/2/1
f 29/2/2 30/2/2 33/2/2
f 33/2/2 30/2/2 34/2/2
f 31/2/2 32/2/2 35/2/2
f 35/2/2 32/2/2 36/2/2
f 37/2/2 38/2/2 41/2/2
f 41/2/2 38/2/2 42/2/2
f 39/2/2 40/2/2 43/2/2
f 43/2/2 40/2/2 44/2/2
f 45/2/2 46/2/2 49/2/2
f 49/2/2 46/2/2 50/2/2
f 47/2/2 48/2/2 51/2/2
f 51/2/2 48/2/2 52/2/2
f 53/1/2 54/1/2 55/1/2
f 55/1/2 54/1/2 56/1/2
f 60/2/3 58/2/3 57/2/3
f 61/2/3 58/2/3 60/2/3
f 63/2/3 60/2/3 59/2/3
f 63/2/3 62/2/3 61/2/3
f 63/2/3 61/2/3 60/2/3
f 64/2/3 62/2/3 63/2/3
f 65/2/3 62/2/3 64/2/3
f 66/2/3 62/2/3 65/2/3
f 67/2/3 65/2/3 64/2/3
f 68/2/3 65/2/3 67/2/3
f 71/1/3 70/1/3 69/1/3
f 72/1/3 70/1/3 71/1/3
f 73/1/3 71/1/3 69/1/3
f 74/1/3 71/1/3 73/1/3
f 75/1/3 70/1/3 72/1/3
f 76/1/3 70/1/3 75/1/3
f 77/1/3 73/1/3 69/1/3
f 80/1/3 70/1/3 76/1/3
f 81/1/3 78/1/3 77/1/3
f 82/1/3 80/1/3 79/1/3
f 83/1/3 81/1/3 77/1/3
f 83/1/3 82/1/3 81/1/3
f 83/1/3 77/1/3 69/1/3
f 84/1/3 80/1/3 82/1/3
f 84/1/3 82/1/3 83/1/3
f 84/1/3 70/1/3 80/1/3
f 85/1/4 86/1/4 87/1/4
f 87/1/4 86/1/4 88/1/4
f 85/1/4 87/1/4 89/1/4
f 89/1/4 87/1/4 90/1/4
f 88/1/4 86/1/4 91/1/4
f 91/1/4 86/1/4 92/1/4
f 85/1/4 89/1/4 93/1/4
f 92/1/4 86/1/4 96/1/4
f 93/1/4 94/1/4 97/1/4
f 95/1/4 96/1/4 98/1/4
f 93/1/4 97/1/4 99/1/4
f 97/1/4 98/1/4 99/1/4
f 85/1/4 93/1/4 99/1/4
f 98/1/4 96/1/4 100/1/4
f 99/1/4 98/1/4 100/1/4
f 96/1/4 86/1/4 100/1/4
f 101/2/4 102/2/4 104/2/4
f 104/2/4 102/2/4 105/2/4
f 103/2/4 104/2/4 107/2/4
f 105/2/4 106/2/4 107/2/4
f 104/2/4 105/2/4 107/2/4
f 107/2/4 106/2/4 108/2/4
f 108/2/4 106/2/4 109/2/4
f 109/2/4 106/2/4 110/2/4
f 108/2/4 109/2/4 111/2/4
f 111/2/4 109/2/4 112/2/4
f 115/1/5 114/1/5 113/1/5
f 116/1/5 114/1/5 115/1/5
f 119/2/5 118/2/5 117/2/5
f 120/2/5 118/2/5 119/2/5
f 123/2/5 122/2/5 121/2/5
f 124/2/5 122/2/5 123/2/5
f 129/2/5 126/2/5 125/2/5
f 130/2/5 126/2/5 129/2/5
f 131/2/5 128/2/5 127/2/5
f 132/2/5 128/2/5 131/2/5
f 137/2/5 134/2/5 133/2/5
f 138/2/5 134/2/5 137/2/5
f 139/2/5 136/2/5 135/2/5
f 140/2/5 136/2/5 139/2/5
f 141/2/6 142/2/6 145/2/6
f 145/2/6 142/2/6 146/2/6
f 143/2/6 144/2/6 147/2/6
f 147/2/6 144/2/6 148/2/6
f 149/2/6 150/2/6 153/2/6
f 153/2/6 150/2/6 154/2/6
f 151/2/6 152/2/6 155/2/6
f 155/2/6 152/2/6 156/2/6
f 157/2/6 158/2/6 159/2/6
f 159/2/6 158/2/6 160/2/6
f 161/2/6 162/2/6 163/2/6
f 163/2/6 162/2/6 164/2/6
f 165/1/6 166/1/6 167/1/6
f 167/1/6 166/1/6 168/1/6
