# MagicaVoxel @ Ephtracy

# group
o 

# material
mtllib Christmas-7.mtl
usemtl palette

# normals
vn -1 0 0
vn 1 0 0
vn 0 0 1
vn 0 0 -1
vn 0 -1 0
vn 0 1 0

# texcoords
vt 0.833984 0.5
vt 0.966797 0.5

# verts
v -1.9 0 -9.1
v -1.9 0 -9.3
v -1.9 0 -9.4
v -1.9 0 -9.6
v -1.9 0.4 -9.1
v -1.9 0.4 -9.3
v -1.9 0.4 -9.4
v -1.9 0.4 -9.6
v -1.8 0.4 -9.3
v -1.8 0.4 -9.4
v -1.8 0.5 -9.3
v -1.8 0.5 -9.4
v -1.7 0.4 -9.2
v -1.7 0.4 -9.3
v -1.7 0.4 -9.4
v -1.7 0.4 -9.5
v -1.7 0.5 -9.2
v -1.7 0.5 -9.3
v -1.7 0.5 -9.4
v -1.7 0.5 -9.5
v -1.6 0.4 -9.2
v -1.6 0.4 -9.3
v -1.6 0.4 -9.4
v -1.6 0.4 -9.5
v -1.6 0.5 -9.2
v -1.6 0.5 -9.3
v -1.6 0.5 -9.4
v -1.6 0.5 -9.5
v -1.5 0.4 -9.3
v -1.5 0.4 -9.4
v -1.5 0.5 -9.3
v -1.5 0.5 -9.4
v -1.4 0 -9.1
v -1.4 0 -9.3
v -1.4 0 -9.4
v -1.4 0 -9.6
v -1.4 0.4 -9.1
v -1.4 0.4 -9.3
v -1.4 0.4 -9.4
v -1.4 0.4 -9.6
v -1.9 0 -9.1
v -1.9 0.4 -9.1
v -1.7 0 -9.1
v -1.7 0.4 -9.1
v -1.6 0 -9.1
v -1.6 0.4 -9.1
v -1.4 0 -9.1
v -1.4 0.4 -9.1
v -1.7 0.4 -9.2
v -1.7 0.5 -9.2
v -1.6 0.4 -9.2
v -1.6 0.5 -9.2
v -1.8 0.4 -9.3
v -1.8 0.5 -9.3
v -1.7 0.4 -9.3
v -1.7 0.5 -9.3
v -1.6 0.4 -9.3
v -1.6 0.5 -9.3
v -1.5 0.4 -9.3
v -1.5 0.5 -9.3
v -1.8 0.4 -9.4
v -1.8 0.5 -9.4
v -1.7 0.4 -9.4
v -1.7 0.5 -9.4
v -1.6 0.4 -9.4
v -1.6 0.5 -9.4
v -1.5 0.4 -9.4
v -1.5 0.5 -9.4
v -1.7 0.4 -9.5
v -1.7 0.5 -9.5
v -1.6 0.4 -9.5
v -1.6 0.5 -9.5
v -1.9 0 -9.6
v -1.9 0.4 -9.6
v -1.7 0 -9.6
v -1.7 0.4 -9.6
v -1.6 0 -9.6
v -1.6 0.4 -9.6
v -1.4 0 -9.6
v -1.4 0.4 -9.6
v -1.9 0 -9.1
v -1.7 0 -9.1
v -1.6 0 -9.1
v -1.4 0 -9.1
v -1.9 0 -9.3
v -1.7 0 -9.3
v -1.6 0 -9.3
v -1.4 0 -9.3
v -1.9 0 -9.4
v -1.7 0 -9.4
v -1.6 0 -9.4
v -1.4 0 -9.4
v -1.9 0 -9.6
v -1.7 0 -9.6
v -1.6 0 -9.6
v -1.4 0 -9.6
v -1.9 0.4 -9.1
v -1.7 0.4 -9.1
v -1.6 0.4 -9.1
v -1.4 0.4 -9.1
v -1.7 0.4 -9.2
v -1.6 0.4 -9.2
v -1.9 0.4 -9.3
v -1.8 0.4 -9.3
v -1.7 0.4 -9.3
v -1.6 0.4 -9.3
v -1.5 0.4 -9.3
v -1.4 0.4 -9.3
v -1.9 0.4 -9.4
v -1.8 0.4 -9.4
v -1.7 0.4 -9.4
v -1.6 0.4 -9.4
v -1.5 0.4 -9.4
v -1.4 0.4 -9.4
v -1.7 0.4 -9.5
v -1.6 0.4 -9.5
v -1.9 0.4 -9.6
v -1.7 0.4 -9.6
v -1.6 0.4 -9.6
v -1.4 0.4 -9.6
v -1.7 0.5 -9.2
v -1.6 0.5 -9.2
v -1.8 0.5 -9.3
v -1.7 0.5 -9.3
v -1.6 0.5 -9.3
v -1.5 0.5 -9.3
v -1.8 0.5 -9.4
v -1.7 0.5 -9.4
v -1.6 0.5 -9.4
v -1.5 0.5 -9.4
v -1.7 0.5 -9.5
v -1.6 0.5 -9.5

# faces
f 5/1/1 2/1/1 1/1/1
f 6/2/1 3/2/1 2/2/1
f 6/1/1 2/1/1 5/1/1
f 7/1/1 4/1/1 3/1/1
f 7/2/1 3/2/1 6/2/1
f 8/1/1 4/1/1 7/1/1
f 11/2/1 10/2/1 9/2/1
f 12/2/1 10/2/1 11/2/1
f 17/2/1 14/2/1 13/2/1
f 18/2/1 14/2/1 17/2/1
f 19/2/1 16/2/1 15/2/1
f 20/2/1 16/2/1 19/2/1
f 21/2/2 22/2/2 25/2/2
f 25/2/2 22/2/2 26/2/2
f 23/2/2 24/2/2 27/2/2
f 27/2/2 24/2/2 28/2/2
f 29/2/2 30/2/2 31/2/2
f 31/2/2 30/2/2 32/2/2
f 33/1/2 34/1/2 37/1/2
f 34/2/2 35/2/2 38/2/2
f 37/1/2 34/1/2 38/1/2
f 35/1/2 36/1/2 39/1/2
f 38/2/2 35/2/2 39/2/2
f 39/1/2 36/1/2 40/1/2
f 43/1/3 42/1/3 41/1/3
f 44/1/3 42/1/3 43/1/3
f 45/2/3 44/2/3 43/2/3
f 46/2/3 44/2/3 45/2/3
f 47/1/3 46/1/3 45/1/3
f 48/1/3 46/1/3 47/1/3
f 51/2/3 50/2/3 49/2/3
f 52/2/3 50/2/3 51/2/3
f 55/2/3 54/2/3 53/2/3
f 56/2/3 54/2/3 55/2/3
f 59/2/3 58/2/3 57/2/3
f 60/2/3 58/2/3 59/2/3
f 61/2/4 62/2/4 63/2/4
f 63/2/4 62/2/4 64/2/4
f 65/2/4 66/2/4 67/2/4
f 67/2/4 66/2/4 68/2/4
f 69/2/4 70/2/4 71/2/4
f 71/2/4 70/2/4 72/2/4
f 73/1/4 74/1/4 75/1/4
f 75/1/4 74/1/4 76/1/4
f 75/2/4 76/2/4 77/2/4
f 77/2/4 76/2/4 78/2/4
f 77/1/4 78/1/4 79/1/4
f 79/1/4 78/1/4 80/1/4
f 85/1/5 82/1/5 81/1/5
f 86/2/5 83/2/5 82/2/5
f 86/1/5 82/1/5 85/1/5
f 87/1/5 84/1/5 83/1/5
f 87/2/5 83/2/5 86/2/5
f 88/1/5 84/1/5 87/1/5
f 89/2/5 86/2/5 85/2/5
f 89/2/5 87/2/5 86/2/5
f 89/2/5 88/2/5 87/2/5
f 90/2/5 88/2/5 89/2/5
f 91/2/5 88/2/5 90/2/5
f 92/2/5 88/2/5 91/2/5
f 93/1/5 90/1/5 89/1/5
f 94/2/5 91/2/5 90/2/5
f 94/1/5 90/1/5 93/1/5
f 95/1/5 92/1/5 91/1/5
f 95/2/5 91/2/5 94/2/5
f 96/1/5 92/1/5 95/1/5
f 97/1/6 98/1/6 101/1/6
f 98/2/6 99/2/6 101/2/6
f 99/1/6 100/1/6 102/1/6
f 101/2/6 99/2/6 102/2/6
f 97/1/6 101/1/6 103/1/6
f 103/1/6 101/1/6 104/1/6
f 104/1/6 101/1/6 105/1/6
f 102/1/6 100/1/6 106/1/6
f 106/1/6 100/1/6 107/1/6
f 107/1/6 100/1/6 108/1/6
f 103/2/6 104/2/6 109/2/6
f 109/2/6 104/2/6 110/2/6
f 107/2/6 108/2/6 113/2/6
f 113/2/6 108/2/6 114/2/6
f 110/1/6 111/1/6 115/1/6
f 109/1/6 110/1/6 115/1/6
f 113/1/6 114/1/6 116/1/6
f 112/1/6 113/1/6 116/1/6
f 109/1/6 115/1/6 117/1/6
f 115/2/6 116/2/6 118/2/6
f 117/1/6 115/1/6 118/1/6
f 116/1/6 114/1/6 119/1/6
f 118/2/6 116/2/6 119/2/6
f 119/1/6 114/1/6 120/1/6
f 121/2/6 122/2/6 124/2/6
f 124/2/6 122/2/6 125/2/6
f 123/2/6 124/2/6 127/2/6
f 125/2/6 126/2/6 127/2/6
f 124/2/6 125/2/6 127/2/6
f 127/2/6 126/2/6 128/2/6
f 128/2/6 126/2/6 129/2/6
f 129/2/6 126/2/6 130/2/6
f 128/2/6 129/2/6 131/2/6
f 131/2/6 129/2/6 132/2/6
