# MagicaVoxel @ Ephtracy

# group
o 

# material
mtllib Interior_Furniture_Chair_06.mtl
usemtl palette

# normals
vn -1 0 0
vn 1 0 0
vn 0 0 1
vn 0 0 -1
vn 0 -1 0
vn 0 1 0

# texcoords
vt 0.876953 0.5
vt 0.880859 0.5
vt 0.884766 0.5
vt 0.888672 0.5
vt 0.943359 0.5
vt 0.947266 0.5
vt 0.951172 0.5
vt 0.955078 0.5

# verts
v -0.5 0 0.5
v -0.5 0 0.4
v -0.5 0 -0.3
v -0.5 0 -0.4
v -0.5 0.1 0.5
v -0.5 0.1 0.4
v -0.5 0.1 -0.3
v -0.5 0.1 -0.4
v -0.5 0.2 0.4
v -0.5 0.2 -0.3
v -0.5 0.3 0.4
v -0.5 0.3 0.3
v -0.5 0.3 -0.2
v -0.5 0.3 -0.3
v -0.5 0.4 0.5
v -0.5 0.4 0.4
v -0.5 0.4 0.3
v -0.5 0.4 -0.2
v -0.5 0.4 -0.3
v -0.5 0.5 0.5
v -0.5 0.5 0.4
v -0.5 0.5 0.3
v -0.5 0.5 -0.2
v -0.5 0.5 -0.3
v -0.5 1.2 -0.3
v -0.5 1.2 -0.4
v -0.5 1.3 -0.3
v -0.5 1.3 -0.4
v -0.5 1.4 -0.3
v -0.5 1.4 -0.4
v -0.4 0.4 -0.4
v -0.4 0.4 -0.5
v -0.4 0.5 -0.4
v -0.4 0.5 -0.5
v -0.4 1.3 -0.4
v -0.4 1.3 -0.5
v -0.4 1.4 -0.3
v -0.4 1.4 -0.4
v -0.4 1.4 -0.5
v -0.4 1.5 -0.3
v -0.4 1.5 -0.4
v -0.3 0.4 0.5
v -0.3 0.4 0.4
v -0.3 0.5 0.5
v -0.3 0.5 0.4
v -0.3 0.5 -0.4
v -0.3 0.5 -0.5
v -0.3 0.6 -0.4
v -0.3 0.6 -0.5
v -0.3 1.2 -0.4
v -0.3 1.2 -0.5
v -0.3 1.3 -0.4
v -0.3 1.3 -0.5
v -0.1 0.5 -0.4
v -0.1 0.5 -0.5
v -0.1 0.6 -0.4
v -0.1 0.6 -0.5
v -0.1 1.2 -0.4
v -0.1 1.2 -0.5
v -0.1 1.3 -0.4
v -0.1 1.3 -0.5
v 0.1 0.5 -0.4
v 0.1 0.5 -0.5
v 0.1 0.6 -0.4
v 0.1 0.6 -0.5
v 0.1 1.2 -0.4
v 0.1 1.2 -0.5
v 0.1 1.3 -0.4
v 0.1 1.3 -0.5
v 0.3 0 0.5
v 0.3 0 0.4
v 0.3 0 -0.3
v 0.3 0 -0.4
v 0.3 0.1 0.5
v 0.3 0.1 0.4
v 0.3 0.1 -0.3
v 0.3 0.1 -0.4
v 0.3 0.2 0.5
v 0.3 0.2 0.4
v 0.3 0.2 -0.3
v 0.3 0.2 -0.4
v 0.3 0.4 0.5
v 0.3 0.4 0.4
v 0.3 0.5 0.5
v 0.3 0.5 0.4
v 0.3 0.5 -0.3
v 0.3 0.5 -0.4
v 0.3 1.2 -0.3
v 0.3 1.2 -0.4
v 0.3 1.3 -0.3
v 0.3 1.3 -0.4
v 0.3 1.4 -0.3
v 0.3 1.4 -0.4
v -0.4 0 0.5
v -0.4 0 0.4
v -0.4 0 -0.3
v -0.4 0 -0.4
v -0.4 0.1 0.5
v -0.4 0.1 0.4
v -0.4 0.1 -0.3
v -0.4 0.1 -0.4
v -0.4 0.2 0.5
v -0.4 0.2 0.4
v -0.4 0.2 -0.3
v -0.4 0.2 -0.4
v -0.4 0.4 0.5
v -0.4 0.4 0.4
v -0.4 0.5 0.5
v -0.4 0.5 0.4
v -0.4 0.5 -0.3
v -0.4 0.5 -0.4
v -0.4 1.2 -0.3
v -0.4 1.2 -0.4
v -0.4 1.3 -0.3
v -0.4 1.3 -0.4
v -0.4 1.4 -0.3
v -0.4 1.4 -0.4
v -0.2 0.5 -0.4
v -0.2 0.5 -0.5
v -0.2 0.6 -0.4
v -0.2 0.6 -0.5
v -0.2 1.2 -0.4
v -0.2 1.2 -0.5
v -0.2 1.3 -0.4
v -0.2 1.3 -0.5
v 0 0.5 -0.4
v 0 0.5 -0.5
v 0 0.6 -0.4
v 0 0.6 -0.5
v 0 1.2 -0.4
v 0 1.2 -0.5
v 0 1.3 -0.4
v 0 1.3 -0.5
v 0.2 0.4 0.5
v 0.2 0.4 0.4
v 0.2 0.5 0.5
v 0.2 0.5 0.4
v 0.2 0.5 -0.4
v 0.2 0.5 -0.5
v 0.2 0.6 -0.4
v 0.2 0.6 -0.5
v 0.2 1.2 -0.4
v 0.2 1.2 -0.5
v 0.2 1.3 -0.4
v 0.2 1.3 -0.5
v 0.3 0.4 -0.4
v 0.3 0.4 -0.5
v 0.3 0.5 -0.4
v 0.3 0.5 -0.5
v 0.3 1.3 -0.4
v 0.3 1.3 -0.5
v 0.3 1.4 -0.3
v 0.3 1.4 -0.4
v 0.3 1.4 -0.5
v 0.3 1.5 -0.3
v 0.3 1.5 -0.4
v 0.4 0 0.5
v 0.4 0 0.4
v 0.4 0 -0.3
v 0.4 0 -0.4
v 0.4 0.1 0.5
v 0.4 0.1 0.4
v 0.4 0.1 -0.3
v 0.4 0.1 -0.4
v 0.4 0.2 0.4
v 0.4 0.2 -0.3
v 0.4 0.3 0.4
v 0.4 0.3 0.3
v 0.4 0.3 -0.2
v 0.4 0.3 -0.3
v 0.4 0.4 0.5
v 0.4 0.4 0.4
v 0.4 0.4 0.3
v 0.4 0.4 -0.2
v 0.4 0.4 -0.3
v 0.4 0.5 0.5
v 0.4 0.5 0.4
v 0.4 0.5 0.3
v 0.4 0.5 -0.2
v 0.4 0.5 -0.3
v 0.4 1.2 -0.3
v 0.4 1.2 -0.4
v 0.4 1.3 -0.3
v 0.4 1.3 -0.4
v 0.4 1.4 -0.3
v 0.4 1.4 -0.4
v -0.5 0 0.5
v -0.5 0.1 0.5
v -0.5 0.4 0.5
v -0.5 0.5 0.5
v -0.4 0 0.5
v -0.4 0.1 0.5
v -0.4 0.2 0.5
v -0.4 0.3 0.5
v -0.4 0.4 0.5
v -0.4 0.5 0.5
v -0.3 0.3 0.5
v -0.3 0.4 0.5
v -0.3 0.5 0.5
v 0.2 0.3 0.5
v 0.2 0.4 0.5
v 0.2 0.5 0.5
v 0.3 0 0.5
v 0.3 0.1 0.5
v 0.3 0.2 0.5
v 0.3 0.3 0.5
v 0.3 0.4 0.5
v 0.3 0.5 0.5
v 0.4 0 0.5
v 0.4 0.1 0.5
v 0.4 0.4 0.5
v 0.4 0.5 0.5
v -0.4 0.4 0.4
v -0.4 0.5 0.4
v -0.3 0.4 0.4
v -0.3 0.5 0.4
v 0.2 0.4 0.4
v 0.2 0.5 0.4
v 0.3 0.4 0.4
v 0.3 0.5 0.4
v -0.5 0 -0.3
v -0.5 0.1 -0.3
v -0.5 0.2 -0.3
v -0.5 0.5 -0.3
v -0.5 1.2 -0.3
v -0.5 1.3 -0.3
v -0.5 1.4 -0.3
v -0.4 0 -0.3
v -0.4 0.1 -0.3
v -0.4 0.2 -0.3
v -0.4 0.5 -0.3
v -0.4 1.2 -0.3
v -0.4 1.3 -0.3
v -0.4 1.4 -0.3
v -0.4 1.5 -0.3
v -0.3 1.4 -0.3
v -0.3 1.5 -0.3
v -0.2 1.4 -0.3
v -0.2 1.5 -0.3
v -0.1 1.4 -0.3
v -0.1 1.5 -0.3
v 0 1.4 -0.3
v 0 1.5 -0.3
v 0.1 1.4 -0.3
v 0.1 1.5 -0.3
v 0.2 1.4 -0.3
v 0.2 1.5 -0.3
v 0.3 0 -0.3
v 0.3 0.1 -0.3
v 0.3 0.2 -0.3
v 0.3 0.5 -0.3
v 0.3 1.2 -0.3
v 0.3 1.3 -0.3
v 0.3 1.4 -0.3
v 0.3 1.5 -0.3
v 0.4 0 -0.3
v 0.4 0.1 -0.3
v 0.4 0.2 -0.3
v 0.4 0.5 -0.3
v 0.4 1.2 -0.3
v 0.4 1.3 -0.3
v 0.4 1.4 -0.3
v -0.4 1.3 -0.4
v -0.4 1.4 -0.4
v -0.3 0.5 -0.4
v -0.3 0.6 -0.4
v -0.3 1.2 -0.4
v -0.3 1.3 -0.4
v -0.3 1.4 -0.4
v -0.2 0.5 -0.4
v -0.2 0.6 -0.4
v -0.2 1.2 -0.4
v -0.2 1.3 -0.4
v -0.2 1.4 -0.4
v -0.1 0.5 -0.4
v -0.1 0.6 -0.4
v -0.1 1.2 -0.4
v -0.1 1.3 -0.4
v -0.1 1.4 -0.4
v 0 0.5 -0.4
v 0 0.6 -0.4
v 0 1.2 -0.4
v 0 1.3 -0.4
v 0 1.4 -0.4
v 0.1 0.5 -0.4
v 0.1 0.6 -0.4
v 0.1 1.2 -0.4
v 0.1 1.3 -0.4
v 0.1 1.4 -0.4
v 0.2 0.5 -0.4
v 0.2 0.6 -0.4
v 0.2 1.2 -0.4
v 0.2 1.3 -0.4
v 0.2 1.4 -0.4
v 0.3 1.3 -0.4
v 0.3 1.4 -0.4
v -0.5 0 0.4
v -0.5 0.1 0.4
v -0.5 0.2 0.4
v -0.4 0 0.4
v -0.4 0.1 0.4
v -0.4 0.2 0.4
v 0.3 0 0.4
v 0.3 0.1 0.4
v 0.3 0.2 0.4
v 0.4 0 0.4
v 0.4 0.1 0.4
v 0.4 0.2 0.4
v -0.5 0 -0.4
v -0.5 0.1 -0.4
v -0.5 1.2 -0.4
v -0.5 1.3 -0.4
v -0.5 1.4 -0.4
v -0.4 0 -0.4
v -0.4 0.1 -0.4
v -0.4 0.2 -0.4
v -0.4 0.3 -0.4
v -0.4 0.4 -0.4
v -0.4 0.5 -0.4
v -0.4 1.2 -0.4
v -0.4 1.3 -0.4
v -0.4 1.4 -0.4
v -0.4 1.5 -0.4
v -0.3 0.4 -0.4
v -0.3 1.4 -0.4
v -0.3 1.5 -0.4
v -0.2 0.4 -0.4
v -0.2 1.4 -0.4
v -0.2 1.5 -0.4
v -0.1 0.4 -0.4
v -0.1 1.4 -0.4
v -0.1 1.5 -0.4
v 0 0.4 -0.4
v 0 1.4 -0.4
v 0 1.5 -0.4
v 0.1 0.4 -0.4
v 0.1 1.4 -0.4
v 0.1 1.5 -0.4
v 0.2 0.4 -0.4
v 0.2 1.4 -0.4
v 0.2 1.5 -0.4
v 0.3 0 -0.4
v 0.3 0.1 -0.4
v 0.3 0.2 -0.4
v 0.3 0.3 -0.4
v 0.3 0.4 -0.4
v 0.3 0.5 -0.4
v 0.3 1.2 -0.4
v 0.3 1.3 -0.4
v 0.3 1.4 -0.4
v 0.3 1.5 -0.4
v 0.4 0 -0.4
v 0.4 0.1 -0.4
v 0.4 1.2 -0.4
v 0.4 1.3 -0.4
v 0.4 1.4 -0.4
v -0.4 0.4 -0.5
v -0.4 0.5 -0.5
v -0.4 1.3 -0.5
v -0.4 1.4 -0.5
v -0.3 0.4 -0.5
v -0.3 0.5 -0.5
v -0.3 0.6 -0.5
v -0.3 1.2 -0.5
v -0.3 1.3 -0.5
v -0.3 1.4 -0.5
v -0.2 0.4 -0.5
v -0.2 0.5 -0.5
v -0.2 0.6 -0.5
v -0.2 1.2 -0.5
v -0.2 1.3 -0.5
v -0.2 1.4 -0.5
v -0.1 0.4 -0.5
v -0.1 0.5 -0.5
v -0.1 0.6 -0.5
v -0.1 1.2 -0.5
v -0.1 1.3 -0.5
v -0.1 1.4 -0.5
v 0 0.4 -0.5
v 0 0.5 -0.5
v 0 0.6 -0.5
v 0 1.2 -0.5
v 0 1.3 -0.5
v 0 1.4 -0.5
v 0.1 0.4 -0.5
v 0.1 0.5 -0.5
v 0.1 0.6 -0.5
v 0.1 1.2 -0.5
v 0.1 1.3 -0.5
v 0.1 1.4 -0.5
v 0.2 0.4 -0.5
v 0.2 0.5 -0.5
v 0.2 0.6 -0.5
v 0.2 1.2 -0.5
v 0.2 1.3 -0.5
v 0.2 1.4 -0.5
v 0.3 0.4 -0.5
v 0.3 0.5 -0.5
v 0.3 1.3 -0.5
v 0.3 1.4 -0.5
v -0.5 0 0.5
v -0.4 0 0.5
v 0.3 0 0.5
v 0.4 0 0.5
v -0.5 0 0.4
v -0.4 0 0.4
v 0.3 0 0.4
v 0.4 0 0.4
v -0.5 0 -0.3
v -0.4 0 -0.3
v 0.3 0 -0.3
v 0.4 0 -0.3
v -0.5 0 -0.4
v -0.4 0 -0.4
v 0.3 0 -0.4
v 0.4 0 -0.4
v -0.4 0.2 0.5
v 0.3 0.2 0.5
v -0.5 0.2 0.4
v -0.4 0.2 0.4
v 0.3 0.2 0.4
v 0.4 0.2 0.4
v -0.5 0.2 -0.3
v -0.4 0.2 -0.3
v 0.3 0.2 -0.3
v 0.4 0.2 -0.3
v -0.4 0.2 -0.4
v 0.3 0.2 -0.4
v -0.4 0.4 -0.4
v -0.3 0.4 -0.4
v -0.2 0.4 -0.4
v -0.1 0.4 -0.4
v 0 0.4 -0.4
v 0.1 0.4 -0.4
v 0.2 0.4 -0.4
v 0.3 0.4 -0.4
v -0.4 0.4 -0.5
v -0.3 0.4 -0.5
v -0.2 0.4 -0.5
v -0.1 0.4 -0.5
v 0 0.4 -0.5
v 0.1 0.4 -0.5
v 0.2 0.4 -0.5
v 0.3 0.4 -0.5
v -0.4 1.3 -0.4
v -0.3 1.3 -0.4
v -0.2 1.3 -0.4
v -0.1 1.3 -0.4
v 0 1.3 -0.4
v 0.1 1.3 -0.4
v 0.2 1.3 -0.4
v 0.3 1.3 -0.4
v -0.4 1.3 -0.5
v -0.3 1.3 -0.5
v -0.2 1.3 -0.5
v -0.1 1.3 -0.5
v 0 1.3 -0.5
v 0.1 1.3 -0.5
v 0.2 1.3 -0.5
v 0.3 1.3 -0.5
v -0.4 1.4 -0.3
v -0.3 1.4 -0.3
v -0.2 1.4 -0.3
v -0.1 1.4 -0.3
v 0 1.4 -0.3
v 0.1 1.4 -0.3
v 0.2 1.4 -0.3
v 0.3 1.4 -0.3
v -0.4 1.4 -0.4
v -0.3 1.4 -0.4
v -0.2 1.4 -0.4
v -0.1 1.4 -0.4
v 0 1.4 -0.4
v 0.1 1.4 -0.4
v 0.2 1.4 -0.4
v 0.3 1.4 -0.4
v -0.4 0.4 0.5
v -0.3 0.4 0.5
v 0.2 0.4 0.5
v 0.3 0.4 0.5
v -0.4 0.4 0.4
v -0.3 0.4 0.4
v 0.2 0.4 0.4
v 0.3 0.4 0.4
v -0.5 0.5 0.5
v -0.4 0.5 0.5
v -0.3 0.5 0.5
v 0.2 0.5 0.5
v 0.3 0.5 0.5
v 0.4 0.5 0.5
v -0.5 0.5 0.4
v -0.4 0.5 0.4
v -0.3 0.5 0.4
v 0.2 0.5 0.4
v 0.3 0.5 0.4
v 0.4 0.5 0.4
v -0.5 0.5 0.3
v -0.4 0.5 0.3
v -0.3 0.5 0.3
v 0.2 0.5 0.3
v 0.3 0.5 0.3
v 0.4 0.5 0.3
v -0.5 0.5 -0.2
v -0.4 0.5 -0.2
v 0.3 0.5 -0.2
v 0.4 0.5 -0.2
v -0.5 0.5 -0.3
v -0.4 0.5 -0.3
v 0.3 0.5 -0.3
v 0.4 0.5 -0.3
v -0.4 0.5 -0.4
v -0.3 0.5 -0.4
v -0.2 0.5 -0.4
v -0.1 0.5 -0.4
v 0 0.5 -0.4
v 0.1 0.5 -0.4
v 0.2 0.5 -0.4
v 0.3 0.5 -0.4
v -0.4 0.5 -0.5
v -0.3 0.5 -0.5
v -0.2 0.5 -0.5
v -0.1 0.5 -0.5
v 0 0.5 -0.5
v 0.1 0.5 -0.5
v 0.2 0.5 -0.5
v 0.3 0.5 -0.5
v -0.5 1.4 -0.3
v -0.4 1.4 -0.3
v 0.3 1.4 -0.3
v 0.4 1.4 -0.3
v -0.5 1.4 -0.4
v -0.4 1.4 -0.4
v -0.3 1.4 -0.4
v -0.2 1.4 -0.4
v -0.1 1.4 -0.4
v 0 1.4 -0.4
v 0.1 1.4 -0.4
v 0.2 1.4 -0.4
v 0.3 1.4 -0.4
v 0.4 1.4 -0.4
v -0.4 1.4 -0.5
v -0.3 1.4 -0.5
v -0.2 1.4 -0.5
v -0.1 1.4 -0.5
v 0 1.4 -0.5
v 0.1 1.4 -0.5
v 0.2 1.4 -0.5
v 0.3 1.4 -0.5
v -0.4 1.5 -0.3
v -0.3 1.5 -0.3
v -0.2 1.5 -0.3
v -0.1 1.5 -0.3
v 0 1.5 -0.3
v 0.1 1.5 -0.3
v 0.2 1.5 -0.3
v 0.3 1.5 -0.3
v -0.4 1.5 -0.4
v -0.3 1.5 -0.4
v -0.2 1.5 -0.4
v -0.1 1.5 -0.4
v 0 1.5 -0.4
v 0.1 1.5 -0.4
v 0.2 1.5 -0.4
v 0.3 1.5 -0.4

# faces
f 5/1/1 2/1/1 1/1/1
f 6/1/1 2/1/1 5/1/1
f 7/1/1 4/1/1 3/1/1
f 8/1/1 4/1/1 7/1/1
f 9/4/1 6/4/1 5/4/1
f 10/4/1 8/4/1 7/4/1
f 11/4/1 9/4/1 5/4/1
f 11/3/1 10/3/1 9/3/1
f 12/3/1 10/3/1 11/3/1
f 13/3/1 10/3/1 12/3/1
f 14/4/1 8/4/1 10/4/1
f 14/3/1 10/3/1 13/3/1
f 15/4/1 11/4/1 5/4/1
f 16/5/1 12/5/1 11/5/1
f 16/4/1 11/4/1 15/4/1
f 17/6/1 13/6/1 12/6/1
f 17/5/1 12/5/1 16/5/1
f 18/5/1 14/5/1 13/5/1
f 18/6/1 13/6/1 17/6/1
f 19/4/1 8/4/1 14/4/1
f 19/5/1 14/5/1 18/5/1
f 20/3/1 16/3/1 15/3/1
f 21/6/1 17/6/1 16/6/1
f 21/3/1 16/3/1 20/3/1
f 22/7/1 18/7/1 17/7/1
f 22/6/1 17/6/1 21/6/1
f 23/6/1 19/6/1 18/6/1
f 23/7/1 18/7/1 22/7/1
f 24/4/1 8/4/1 19/4/1
f 24/6/1 19/6/1 23/6/1
f 25/4/1 8/4/1 24/4/1
f 26/4/1 8/4/1 25/4/1
f 27/3/1 26/3/1 25/3/1
f 28/3/1 26/3/1 27/3/1
f 29/2/1 28/2/1 27/2/1
f 30/2/1 28/2/1 29/2/1
f 33/3/1 32/3/1 31/3/1
f 34/3/1 32/3/1 33/3/1
f 38/3/1 36/3/1 35/3/1
f 39/3/1 36/3/1 38/3/1
f 40/2/1 38/2/1 37/2/1
f 41/2/1 38/2/1 40/2/1
f 44/7/1 43/7/1 42/7/1
f 45/7/1 43/7/1 44/7/1
f 48/3/1 47/3/1 46/3/1
f 49/3/1 47/3/1 48/3/1
f 50/4/1 49/4/1 48/4/1
f 51/4/1 49/4/1 50/4/1
f 52/3/1 51/3/1 50/3/1
f 53/3/1 51/3/1 52/3/1
f 56/3/1 55/3/1 54/3/1
f 57/3/1 55/3/1 56/3/1
f 58/4/1 57/4/1 56/4/1
f 59/4/1 57/4/1 58/4/1
f 60/3/1 59/3/1 58/3/1
f 61/3/1 59/3/1 60/3/1
f 64/3/1 63/3/1 62/3/1
f 65/3/1 63/3/1 64/3/1
f 66/4/1 65/4/1 64/4/1
f 67/4/1 65/4/1 66/4/1
f 68/3/1 67/3/1 66/3/1
f 69/3/1 67/3/1 68/3/1
f 74/1/1 71/1/1 70/1/1
f 75/1/1 71/1/1 74/1/1
f 76/1/1 73/1/1 72/1/1
f 77/1/1 73/1/1 76/1/1
f 78/4/1 75/4/1 74/4/1
f 79/4/1 75/4/1 78/4/1
f 80/4/1 77/4/1 76/4/1
f 81/4/1 77/4/1 80/4/1
f 84/3/1 83/3/1 82/3/1
f 85/3/1 83/3/1 84/3/1
f 88/4/1 87/4/1 86/4/1
f 89/4/1 87/4/1 88/4/1
f 90/3/1 89/3/1 88/3/1
f 91/3/1 89/3/1 90/3/1
f 92/2/1 91/2/1 90/2/1
f 93/2/1 91/2/1 92/2/1
f 94/1/2 95/1/2 98/1/2
f 98/1/2 95/1/2 99/1/2
f 96/1/2 97/1/2 100/1/2
f 100/1/2 97/1/2 101/1/2
f 98/4/2 99/4/2 102/4/2
f 102/4/2 99/4/2 103/4/2
f 100/4/2 101/4/2 104/4/2
f 104/4/2 101/4/2 105/4/2
f 106/3/2 107/3/2 108/3/2
f 108/3/2 107/3/2 109/3/2
f 110/4/2 111/4/2 112/4/2
f 112/4/2 111/4/2 113/4/2
f 112/3/2 113/3/2 114/3/2
f 114/3/2 113/3/2 115/3/2
f 114/2/2 115/2/2 116/2/2
f 116/2/2 115/2/2 117/2/2
f 118/3/2 119/3/2 120/3/2
f 120/3/2 119/3/2 121/3/2
f 120/4/2 121/4/2 122/4/2
f 122/4/2 121/4/2 123/4/2
f 122/3/2 123/3/2 124/3/2
f 124/3/2 123/3/2 125/3/2
f 126/3/2 127/3/2 128/3/2
f 128/3/2 127/3/2 129/3/2
f 128/4/2 129/4/2 130/4/2
f 130/4/2 129/4/2 131/4/2
f 130/3/2 131/3/2 132/3/2
f 132/3/2 131/3/2 133/3/2
f 134/7/2 135/7/2 136/7/2
f 136/7/2 135/7/2 137/7/2
f 138/3/2 139/3/2 140/3/2
f 140/3/2 139/3/2 141/3/2
f 140/4/2 141/4/2 142/4/2
f 142/4/2 141/4/2 143/4/2
f 142/3/2 143/3/2 144/3/2
f 144/3/2 143/3/2 145/3/2
f 146/3/2 147/3/2 148/3/2
f 148/3/2 147/3/2 149/3/2
f 150/3/2 151/3/2 153/3/2
f 153/3/2 151/3/2 154/3/2
f 152/2/2 153/2/2 155/2/2
f 155/2/2 153/2/2 156/2/2
f 157/1/2 158/1/2 161/1/2
f 161/1/2 158/1/2 162/1/2
f 159/1/2 160/1/2 163/1/2
f 163/1/2 160/1/2 164/1/2
f 161/4/2 162/4/2 165/4/2
f 163/4/2 164/4/2 166/4/2
f 161/4/2 165/4/2 167/4/2
f 165/3/2 166/3/2 167/3/2
f 167/3/2 166/3/2 168/3/2
f 168/3/2 166/3/2 169/3/2
f 166/4/2 164/4/2 170/4/2
f 169/3/2 166/3/2 170/3/2
f 161/4/2 167/4/2 171/4/2
f 167/5/2 168/5/2 172/5/2
f 171/4/2 167/4/2 172/4/2
f 168/6/2 169/6/2 173/6/2
f 172/5/2 168/5/2 173/5/2
f 169/5/2 170/5/2 174/5/2
f 173/6/2 169/6/2 174/6/2
f 170/4/2 164/4/2 175/4/2
f 174/5/2 170/5/2 175/5/2
f 171/3/2 172/3/2 176/3/2
f 172/6/2 173/6/2 177/6/2
f 176/3/2 172/3/2 177/3/2
f 173/7/2 174/7/2 178/7/2
f 177/6/2 173/6/2 178/6/2
f 174/6/2 175/6/2 179/6/2
f 178/7/2 174/7/2 179/7/2
f 175/4/2 164/4/2 180/4/2
f 179/6/2 175/6/2 180/6/2
f 180/4/2 164/4/2 181/4/2
f 181/4/2 164/4/2 182/4/2
f 181/3/2 182/3/2 183/3/2
f 183/3/2 182/3/2 184/3/2
f 183/2/2 184/2/2 185/2/2
f 185/2/2 184/2/2 186/2/2
f 191/1/3 188/1/3 187/1/3
f 192/4/3 189/4/3 188/4/3
f 192/1/3 188/1/3 191/1/3
f 193/4/3 189/4/3 192/4/3
f 194/4/3 189/4/3 193/4/3
f 195/3/3 190/3/3 189/3/3
f 195/4/3 189/4/3 194/4/3
f 196/3/3 190/3/3 195/3/3
f 197/3/3 194/3/3 193/3/3
f 197/5/3 195/5/3 194/5/3
f 198/5/3 195/5/3 197/5/3
f 200/3/3 197/3/3 193/3/3
f 200/6/3 198/6/3 197/6/3
f 201/7/3 199/7/3 198/7/3
f 201/6/3 198/6/3 200/6/3
f 202/7/3 199/7/3 201/7/3
f 205/3/3 200/3/3 193/3/3
f 206/5/3 201/5/3 200/5/3
f 206/3/3 200/3/3 205/3/3
f 207/5/3 201/5/3 206/5/3
f 209/1/3 204/1/3 203/1/3
f 210/4/3 205/4/3 204/4/3
f 210/1/3 204/1/3 209/1/3
f 210/4/3 206/4/3 205/4/3
f 210/4/3 207/4/3 206/4/3
f 211/3/3 208/3/3 207/3/3
f 211/4/3 207/4/3 210/4/3
f 212/3/3 208/3/3 211/3/3
f 215/7/3 214/7/3 213/7/3
f 216/7/3 214/7/3 215/7/3
f 219/7/3 218/7/3 217/7/3
f 220/7/3 218/7/3 219/7/3
f 228/1/3 222/1/3 221/1/3
f 229/4/3 223/4/3 222/4/3
f 229/1/3 222/1/3 228/1/3
f 230/4/3 223/4/3 229/4/3
f 231/4/3 225/4/3 224/4/3
f 232/3/3 226/3/3 225/3/3
f 232/4/3 225/4/3 231/4/3
f 233/2/3 227/2/3 226/2/3
f 233/3/3 226/3/3 232/3/3
f 234/2/3 227/2/3 233/2/3
f 236/2/3 235/2/3 234/2/3
f 237/2/3 235/2/3 236/2/3
f 238/1/3 237/1/3 236/1/3
f 239/1/3 237/1/3 238/1/3
f 240/2/3 239/2/3 238/2/3
f 241/2/3 239/2/3 240/2/3
f 242/1/3 241/1/3 240/1/3
f 243/1/3 241/1/3 242/1/3
f 244/2/3 243/2/3 242/2/3
f 245/2/3 243/2/3 244/2/3
f 246/1/3 245/1/3 244/1/3
f 247/1/3 245/1/3 246/1/3
f 254/2/3 247/2/3 246/2/3
f 255/2/3 247/2/3 254/2/3
f 256/1/3 249/1/3 248/1/3
f 257/4/3 250/4/3 249/4/3
f 257/1/3 249/1/3 256/1/3
f 258/4/3 250/4/3 257/4/3
f 259/4/3 252/4/3 251/4/3
f 260/3/3 253/3/3 252/3/3
f 260/4/3 252/4/3 259/4/3
f 261/2/3 254/2/3 253/2/3
f 261/3/3 253/3/3 260/3/3
f 262/2/3 254/2/3 261/2/3
f 268/3/3 264/3/3 263/3/3
f 269/3/3 264/3/3 268/3/3
f 270/3/3 266/3/3 265/3/3
f 271/4/3 267/4/3 266/4/3
f 271/3/3 266/3/3 270/3/3
f 272/3/3 268/3/3 267/3/3
f 272/4/3 267/4/3 271/4/3
f 273/2/3 269/2/3 268/2/3
f 273/3/3 268/3/3 272/3/3
f 274/2/3 269/2/3 273/2/3
f 278/3/3 274/3/3 273/3/3
f 279/3/3 274/3/3 278/3/3
f 280/3/3 276/3/3 275/3/3
f 281/4/3 277/4/3 276/4/3
f 281/3/3 276/3/3 280/3/3
f 282/3/3 278/3/3 277/3/3
f 282/4/3 277/4/3 281/4/3
f 283/2/3 279/2/3 278/2/3
f 283/3/3 278/3/3 282/3/3
f 284/2/3 279/2/3 283/2/3
f 288/3/3 284/3/3 283/3/3
f 289/3/3 284/3/3 288/3/3
f 290/3/3 286/3/3 285/3/3
f 291/4/3 287/4/3 286/4/3
f 291/3/3 286/3/3 290/3/3
f 292/3/3 288/3/3 287/3/3
f 292/4/3 287/4/3 291/4/3
f 293/2/3 289/2/3 288/2/3
f 293/3/3 288/3/3 292/3/3
f 294/2/3 289/2/3 293/2/3
f 295/3/3 294/3/3 293/3/3
f 296/3/3 294/3/3 295/3/3
f 297/1/4 298/1/4 300/1/4
f 298/4/4 299/4/4 301/4/4
f 300/1/4 298/1/4 301/1/4
f 301/4/4 299/4/4 302/4/4
f 303/1/4 304/1/4 306/1/4
f 304/4/4 305/4/4 307/4/4
f 306/1/4 304/1/4 307/1/4
f 307/4/4 305/4/4 308/4/4
f 309/1/4 310/1/4 314/1/4
f 310/4/4 311/4/4 315/4/4
f 314/1/4 310/1/4 315/1/4
f 315/4/4 311/4/4 316/4/4
f 316/4/4 311/4/4 317/4/4
f 317/4/4 311/4/4 318/4/4
f 318/4/4 311/4/4 319/4/4
f 311/3/4 312/3/4 320/3/4
f 319/4/4 311/4/4 320/4/4
f 312/2/4 313/2/4 321/2/4
f 320/3/4 312/3/4 321/3/4
f 321/2/4 313/2/4 322/2/4
f 317/6/4 318/6/4 324/6/4
f 322/2/4 323/2/4 325/2/4
f 325/2/4 323/2/4 326/2/4
f 317/6/4 324/6/4 327/6/4
f 325/1/4 326/1/4 328/1/4
f 328/1/4 326/1/4 329/1/4
f 317/6/4 327/6/4 330/6/4
f 328/2/4 329/2/4 331/2/4
f 331/2/4 329/2/4 332/2/4
f 317/6/4 330/6/4 333/6/4
f 331/1/4 332/1/4 334/1/4
f 334/1/4 332/1/4 335/1/4
f 317/6/4 333/6/4 336/6/4
f 334/2/4 335/2/4 337/2/4
f 337/2/4 335/2/4 338/2/4
f 317/6/4 336/6/4 339/6/4
f 337/1/4 338/1/4 340/1/4
f 340/1/4 338/1/4 341/1/4
f 316/3/4 317/3/4 344/3/4
f 317/6/4 339/6/4 345/6/4
f 344/3/4 317/3/4 345/3/4
f 345/6/4 339/6/4 346/6/4
f 340/2/4 341/2/4 350/2/4
f 350/2/4 341/2/4 351/2/4
f 342/1/4 343/1/4 352/1/4
f 343/4/4 344/4/4 353/4/4
f 352/1/4 343/1/4 353/1/4
f 344/4/4 345/4/4 353/4/4
f 345/4/4 346/4/4 353/4/4
f 346/4/4 347/4/4 353/4/4
f 347/4/4 348/4/4 353/4/4
f 348/3/4 349/3/4 354/3/4
f 353/4/4 348/4/4 354/4/4
f 349/2/4 350/2/4 355/2/4
f 354/3/4 349/3/4 355/3/4
f 355/2/4 350/2/4 356/2/4
f 357/3/4 358/3/4 361/3/4
f 361/3/4 358/3/4 362/3/4
f 359/3/4 360/3/4 365/3/4
f 365/3/4 360/3/4 366/3/4
f 361/2/4 362/2/4 367/2/4
f 362/3/4 363/3/4 368/3/4
f 367/2/4 362/2/4 368/2/4
f 363/4/4 364/4/4 369/4/4
f 368/3/4 363/3/4 369/3/4
f 364/3/4 365/3/4 370/3/4
f 369/4/4 364/4/4 370/4/4
f 365/2/4 366/2/4 371/2/4
f 370/3/4 365/3/4 371/3/4
f 371/2/4 366/2/4 372/2/4
f 367/3/4 368/3/4 373/3/4
f 373/3/4 368/3/4 374/3/4
f 371/3/4 372/3/4 377/3/4
f 377/3/4 372/3/4 378/3/4
f 373/2/4 374/2/4 379/2/4
f 374/3/4 375/3/4 380/3/4
f 379/2/4 374/2/4 380/2/4
f 375/4/4 376/4/4 381/4/4
f 380/3/4 375/3/4 381/3/4
f 376/3/4 377/3/4 382/3/4
f 381/4/4 376/4/4 382/4/4
f 377/2/4 378/2/4 383/2/4
f 382/3/4 377/3/4 383/3/4
f 383/2/4 378/2/4 384/2/4
f 379/3/4 380/3/4 385/3/4
f 385/3/4 380/3/4 386/3/4
f 383/3/4 384/3/4 389/3/4
f 389/3/4 384/3/4 390/3/4
f 385/2/4 386/2/4 391/2/4
f 386/3/4 387/3/4 392/3/4
f 391/2/4 386/2/4 392/2/4
f 387/4/4 388/4/4 393/4/4
f 392/3/4 387/3/4 393/3/4
f 388/3/4 389/3/4 394/3/4
f 393/4/4 388/4/4 394/4/4
f 389/2/4 390/2/4 395/2/4
f 394/3/4 389/3/4 395/3/4
f 395/2/4 390/2/4 396/2/4
f 391/3/4 392/3/4 397/3/4
f 397/3/4 392/3/4 398/3/4
f 395/3/4 396/3/4 399/3/4
f 399/3/4 396/3/4 400/3/4
f 405/1/5 402/1/5 401/1/5
f 406/1/5 402/1/5 405/1/5
f 407/1/5 404/1/5 403/1/5
f 408/1/5 404/1/5 407/1/5
f 413/1/5 410/1/5 409/1/5
f 414/1/5 410/1/5 413/1/5
f 415/1/5 412/1/5 411/1/5
f 416/1/5 412/1/5 415/1/5
f 420/3/5 418/3/5 417/3/5
f 421/3/5 418/3/5 420/3/5
f 423/3/5 420/3/5 419/3/5
f 423/3/5 422/3/5 421/3/5
f 423/3/5 421/3/5 420/3/5
f 424/3/5 422/3/5 423/3/5
f 425/3/5 422/3/5 424/3/5
f 426/3/5 422/3/5 425/3/5
f 427/3/5 425/3/5 424/3/5
f 428/3/5 425/3/5 427/3/5
f 437/3/5 430/3/5 429/3/5
f 438/2/5 431/2/5 430/2/5
f 438/3/5 430/3/5 437/3/5
f 439/3/5 432/3/5 431/3/5
f 439/2/5 431/2/5 438/2/5
f 440/2/5 433/2/5 432/2/5
f 440/3/5 432/3/5 439/3/5
f 441/3/5 434/3/5 433/3/5
f 441/2/5 433/2/5 440/2/5
f 442/2/5 435/2/5 434/2/5
f 442/3/5 434/3/5 441/3/5
f 443/3/5 436/3/5 435/3/5
f 443/2/5 435/2/5 442/2/5
f 444/3/5 436/3/5 443/3/5
f 453/3/5 446/3/5 445/3/5
f 454/3/5 446/3/5 453/3/5
f 455/3/5 448/3/5 447/3/5
f 456/3/5 448/3/5 455/3/5
f 457/3/5 450/3/5 449/3/5
f 458/3/5 450/3/5 457/3/5
f 459/3/5 452/3/5 451/3/5
f 460/3/5 452/3/5 459/3/5
f 469/2/5 462/2/5 461/2/5
f 470/1/5 463/1/5 462/1/5
f 470/2/5 462/2/5 469/2/5
f 471/2/5 464/2/5 463/2/5
f 471/1/5 463/1/5 470/1/5
f 472/1/5 465/1/5 464/1/5
f 472/2/5 464/2/5 471/2/5
f 473/2/5 466/2/5 465/2/5
f 473/1/5 465/1/5 472/1/5
f 474/1/5 467/1/5 466/1/5
f 474/2/5 466/2/5 473/2/5
f 475/2/5 468/2/5 467/2/5
f 475/1/5 467/1/5 474/1/5
f 476/2/5 468/2/5 475/2/5
f 477/5/6 478/5/6 481/5/6
f 481/5/6 478/5/6 482/5/6
f 479/5/6 480/5/6 483/5/6
f 483/5/6 480/5/6 484/5/6
f 485/3/6 486/3/6 491/3/6
f 491/3/6 486/3/6 492/3/6
f 487/7/6 488/7/6 493/7/6
f 493/7/6 488/7/6 494/7/6
f 489/3/6 490/3/6 495/3/6
f 495/3/6 490/3/6 496/3/6
f 491/6/6 492/6/6 497/6/6
f 492/7/6 493/7/6 498/7/6
f 497/6/6 492/6/6 498/6/6
f 493/8/6 494/8/6 499/8/6
f 498/7/6 493/7/6 499/7/6
f 494/7/6 495/7/6 500/7/6
f 499/8/6 494/8/6 500/8/6
f 495/6/6 496/6/6 501/6/6
f 500/7/6 495/7/6 501/7/6
f 501/6/6 496/6/6 502/6/6
f 497/7/6 498/7/6 503/7/6
f 498/8/6 499/8/6 504/8/6
f 503/7/6 498/7/6 504/7/6
f 499/8/6 500/8/6 504/8/6
f 500/8/6 501/8/6 504/8/6
f 501/7/6 502/7/6 505/7/6
f 504/8/6 501/8/6 505/8/6
f 505/7/6 502/7/6 506/7/6
f 503/6/6 504/6/6 507/6/6
f 504/8/6 505/8/6 508/8/6
f 507/6/6 504/6/6 508/6/6
f 505/6/6 506/6/6 509/6/6
f 508/8/6 505/8/6 509/8/6
f 509/6/6 506/6/6 510/6/6
f 508/7/6 509/7/6 511/7/6
f 511/7/6 509/7/6 512/7/6
f 512/7/6 509/7/6 513/7/6
f 513/7/6 509/7/6 514/7/6
f 514/7/6 509/7/6 515/7/6
f 515/7/6 509/7/6 516/7/6
f 516/7/6 509/7/6 517/7/6
f 517/7/6 509/7/6 518/7/6
f 511/3/6 512/3/6 519/3/6
f 519/3/6 512/3/6 520/3/6
f 513/3/6 514/3/6 521/3/6
f 521/3/6 514/3/6 522/3/6
f 515/3/6 516/3/6 523/3/6
f 523/3/6 516/3/6 524/3/6
f 517/3/6 518/3/6 525/3/6
f 525/3/6 518/3/6 526/3/6
f 527/2/6 528/2/6 531/2/6
f 531/2/6 528/2/6 532/2/6
f 529/2/6 530/2/6 539/2/6
f 539/2/6 530/2/6 540/2/6
f 532/3/6 533/3/6 541/3/6
f 533/2/6 534/2/6 542/2/6
f 541/3/6 533/3/6 542/3/6
f 534/3/6 535/3/6 543/3/6
f 542/2/6 534/2/6 543/2/6
f 535/2/6 536/2/6 544/2/6
f 543/3/6 535/3/6 544/3/6
f 536/3/6 537/3/6 545/3/6
f 544/2/6 536/2/6 545/2/6
f 537/2/6 538/2/6 546/2/6
f 545/3/6 537/3/6 546/3/6
f 538/3/6 539/3/6 547/3/6
f 546/2/6 538/2/6 547/2/6
f 547/3/6 539/3/6 548/3/6
f 549/2/6 550/2/6 557/2/6
f 550/1/6 551/1/6 558/1/6
f 557/2/6 550/2/6 558/2/6
f 551/2/6 552/2/6 559/2/6
f 558/1/6 551/1/6 559/1/6
f 552/1/6 553/1/6 560/1/6
f 559/2/6 552/2/6 560/2/6
f 553/2/6 554/2/6 561/2/6
f 560/1/6 553/1/6 561/1/6
f 554/1/6 555/1/6 562/1/6
f 561/2/6 554/2/6 562/2/6
f 555/2/6 556/2/6 563/2/6
f 562/1/6 555/1/6 563/1/6
f 563/2/6 556/2/6 564/2/6
