# MagicaVoxel @ Ephtracy

# group
o 

# material
mtllib Interior_Furniture_Chair_02.mtl
usemtl palette

# normals
vn -1 0 0
vn 1 0 0
vn 0 0 1
vn 0 0 -1
vn 0 -1 0
vn 0 1 0

# texcoords
vt 0.876953 0.5
vt 0.880859 0.5
vt 0.884766 0.5
vt 0.888672 0.5
vt 0.892578 0.5
vt 0.896484 0.5

# verts
v -0.5 0.3 0.5
v -0.5 0.3 0.4
v -0.5 0.3 -0.3
v -0.5 0.3 -0.4
v -0.5 0.4 0.5
v -0.5 0.4 0.4
v -0.5 0.4 -0.3
v -0.5 0.4 -0.4
v -0.5 0.5 -0.3
v -0.5 0.5 -0.4
v -0.5 0.6 0.5
v -0.5 0.6 0.4
v -0.5 0.6 0.3
v -0.5 0.7 0.5
v -0.5 0.7 0.4
v -0.5 0.7 0.3
v -0.5 0.7 -0.1
v -0.5 0.7 -0.2
v -0.5 0.8 0.4
v -0.5 0.8 0.3
v -0.5 0.8 -0.1
v -0.5 0.8 -0.2
v -0.5 1.1 -0.2
v -0.5 1.1 -0.3
v -0.5 1.2 -0.2
v -0.5 1.2 -0.3
v -0.5 1.2 -0.4
v -0.5 1.3 -0.2
v -0.5 1.3 -0.3
v -0.5 1.3 -0.4
v -0.5 1.4 -0.3
v -0.5 1.4 -0.4
v -0.4 0 0.4
v -0.4 0 0.3
v -0.4 0 -0.2
v -0.4 0 -0.3
v -0.4 0.1 0.4
v -0.4 0.1 0.3
v -0.4 0.1 -0.2
v -0.4 0.1 -0.3
v -0.4 0.3 0.4
v -0.4 0.3 0.3
v -0.4 0.3 -0.2
v -0.4 0.3 -0.3
v -0.4 1.3 -0.2
v -0.4 1.3 -0.3
v -0.4 1.4 -0.2
v -0.4 1.4 -0.3
v -0.4 1.4 -0.4
v -0.4 1.5 -0.3
v -0.4 1.5 -0.4
v 0.2 0 0.4
v 0.2 0 0.3
v 0.2 0 -0.2
v 0.2 0 -0.3
v 0.2 0.1 0.4
v 0.2 0.1 0.3
v 0.2 0.1 -0.2
v 0.2 0.1 -0.3
v 0.2 0.3 0.4
v 0.2 0.3 0.3
v 0.2 0.3 -0.2
v 0.2 0.3 -0.3
v 0.3 0.4 0.5
v 0.3 0.4 0.4
v 0.3 0.5 0.4
v 0.3 0.5 0.3
v 0.3 0.5 -0.2
v 0.3 0.6 0.5
v 0.3 0.6 0.4
v 0.3 0.6 0.3
v 0.3 0.7 0.5
v 0.3 0.7 0.4
v 0.3 0.7 0.3
v 0.3 0.7 -0.1
v 0.3 0.7 -0.2
v 0.3 0.8 0.4
v 0.3 0.8 0.3
v 0.3 0.8 -0.1
v 0.3 0.8 -0.2
v -0.4 0.4 0.5
v -0.4 0.4 0.4
v -0.4 0.5 0.4
v -0.4 0.5 0.3
v -0.4 0.5 -0.2
v -0.4 0.6 0.5
v -0.4 0.6 0.4
v -0.4 0.6 0.3
v -0.4 0.7 0.5
v -0.4 0.7 0.4
v -0.4 0.7 0.3
v -0.4 0.7 -0.1
v -0.4 0.7 -0.2
v -0.4 0.8 0.4
v -0.4 0.8 0.3
v -0.4 0.8 -0.1
v -0.4 0.8 -0.2
v -0.3 0 0.4
v -0.3 0 0.3
v -0.3 0 -0.2
v -0.3 0 -0.3
v -0.3 0.1 0.4
v -0.3 0.1 0.3
v -0.3 0.1 -0.2
v -0.3 0.1 -0.3
v -0.3 0.3 0.4
v -0.3 0.3 0.3
v -0.3 0.3 -0.2
v -0.3 0.3 -0.3
v 0.3 0 0.4
v 0.3 0 0.3
v 0.3 0 -0.2
v 0.3 0 -0.3
v 0.3 0.1 0.4
v 0.3 0.1 0.3
v 0.3 0.1 -0.2
v 0.3 0.1 -0.3
v 0.3 0.3 0.4
v 0.3 0.3 0.3
v 0.3 0.3 -0.2
v 0.3 0.3 -0.3
v 0.3 1.3 -0.2
v 0.3 1.3 -0.3
v 0.3 1.4 -0.2
v 0.3 1.4 -0.3
v 0.3 1.4 -0.4
v 0.3 1.5 -0.3
v 0.3 1.5 -0.4
v 0.4 0.3 0.5
v 0.4 0.3 0.4
v 0.4 0.3 -0.3
v 0.4 0.3 -0.4
v 0.4 0.4 0.5
v 0.4 0.4 0.4
v 0.4 0.4 -0.3
v 0.4 0.4 -0.4
v 0.4 0.5 -0.3
v 0.4 0.5 -0.4
v 0.4 0.6 0.5
v 0.4 0.6 0.4
v 0.4 0.6 0.3
v 0.4 0.7 0.5
v 0.4 0.7 0.4
v 0.4 0.7 0.3
v 0.4 0.7 -0.1
v 0.4 0.7 -0.2
v 0.4 0.8 0.4
v 0.4 0.8 0.3
v 0.4 0.8 -0.1
v 0.4 0.8 -0.2
v 0.4 1.1 -0.2
v 0.4 1.1 -0.3
v 0.4 1.2 -0.2
v 0.4 1.2 -0.3
v 0.4 1.2 -0.4
v 0.4 1.3 -0.2
v 0.4 1.3 -0.3
v 0.4 1.3 -0.4
v 0.4 1.4 -0.3
v 0.4 1.4 -0.4
v -0.5 0.3 0.5
v -0.5 0.4 0.5
v -0.5 0.6 0.5
v -0.5 0.7 0.5
v -0.4 0.4 0.5
v -0.4 0.6 0.5
v -0.4 0.7 0.5
v -0.3 0.3 0.5
v -0.3 0.4 0.5
v 0.2 0.3 0.5
v 0.2 0.4 0.5
v 0.3 0.4 0.5
v 0.3 0.6 0.5
v 0.3 0.7 0.5
v 0.4 0.3 0.5
v 0.4 0.4 0.5
v 0.4 0.6 0.5
v 0.4 0.7 0.5
v -0.5 0.7 0.4
v -0.5 0.8 0.4
v -0.4 0 0.4
v -0.4 0.1 0.4
v -0.4 0.3 0.4
v -0.4 0.4 0.4
v -0.4 0.5 0.4
v -0.4 0.7 0.4
v -0.4 0.8 0.4
v -0.3 0 0.4
v -0.3 0.1 0.4
v -0.3 0.3 0.4
v -0.3 0.4 0.4
v -0.3 0.5 0.4
v 0.2 0 0.4
v 0.2 0.1 0.4
v 0.2 0.3 0.4
v 0.2 0.4 0.4
v 0.2 0.5 0.4
v 0.3 0 0.4
v 0.3 0.1 0.4
v 0.3 0.3 0.4
v 0.3 0.4 0.4
v 0.3 0.5 0.4
v 0.3 0.7 0.4
v 0.3 0.8 0.4
v 0.4 0.7 0.4
v 0.4 0.8 0.4
v -0.5 0.8 -0.2
v -0.5 1.1 -0.2
v -0.5 1.2 -0.2
v -0.5 1.3 -0.2
v -0.4 0 -0.2
v -0.4 0.1 -0.2
v -0.4 0.3 -0.2
v -0.4 0.5 -0.2
v -0.4 0.7 -0.2
v -0.4 0.8 -0.2
v -0.4 1.1 -0.2
v -0.4 1.2 -0.2
v -0.4 1.3 -0.2
v -0.4 1.4 -0.2
v -0.3 0 -0.2
v -0.3 0.1 -0.2
v -0.3 0.3 -0.2
v -0.3 0.5 -0.2
v -0.3 1.3 -0.2
v -0.3 1.4 -0.2
v 0.2 0 -0.2
v 0.2 0.1 -0.2
v 0.2 0.3 -0.2
v 0.2 0.5 -0.2
v 0.2 1.3 -0.2
v 0.2 1.4 -0.2
v 0.3 0 -0.2
v 0.3 0.1 -0.2
v 0.3 0.3 -0.2
v 0.3 0.5 -0.2
v 0.3 0.7 -0.2
v 0.3 0.8 -0.2
v 0.3 1.1 -0.2
v 0.3 1.2 -0.2
v 0.3 1.3 -0.2
v 0.3 1.4 -0.2
v 0.4 0.8 -0.2
v 0.4 1.1 -0.2
v 0.4 1.2 -0.2
v 0.4 1.3 -0.2
v -0.5 1.3 -0.3
v -0.5 1.4 -0.3
v -0.4 1.3 -0.3
v -0.4 1.4 -0.3
v -0.4 1.5 -0.3
v -0.3 1.4 -0.3
v -0.3 1.5 -0.3
v 0.2 1.4 -0.3
v 0.2 1.5 -0.3
v 0.3 1.3 -0.3
v 0.3 1.4 -0.3
v 0.3 1.5 -0.3
v 0.4 1.3 -0.3
v 0.4 1.4 -0.3
v -0.4 0 0.3
v -0.4 0.1 0.3
v -0.4 0.3 0.3
v -0.3 0 0.3
v -0.3 0.1 0.3
v -0.3 0.3 0.3
v 0.2 0 0.3
v 0.2 0.1 0.3
v 0.2 0.3 0.3
v 0.3 0 0.3
v 0.3 0.1 0.3
v 0.3 0.3 0.3
v -0.4 0 -0.3
v -0.4 0.1 -0.3
v -0.4 0.3 -0.3
v -0.3 0 -0.3
v -0.3 0.1 -0.3
v -0.3 0.3 -0.3
v 0.2 0 -0.3
v 0.2 0.1 -0.3
v 0.2 0.3 -0.3
v 0.3 0 -0.3
v 0.3 0.1 -0.3
v 0.3 0.3 -0.3
v -0.5 0.3 -0.4
v -0.5 0.4 -0.4
v -0.5 0.5 -0.4
v -0.5 1.2 -0.4
v -0.5 1.3 -0.4
v -0.5 1.4 -0.4
v -0.4 0.3 -0.4
v -0.4 0.4 -0.4
v -0.4 0.5 -0.4
v -0.4 1.2 -0.4
v -0.4 1.3 -0.4
v -0.4 1.4 -0.4
v -0.4 1.5 -0.4
v -0.3 0.3 -0.4
v -0.3 0.4 -0.4
v -0.3 0.5 -0.4
v -0.3 1.3 -0.4
v -0.3 1.4 -0.4
v -0.3 1.5 -0.4
v 0.2 0.3 -0.4
v 0.2 0.4 -0.4
v 0.2 0.5 -0.4
v 0.2 1.3 -0.4
v 0.2 1.4 -0.4
v 0.2 1.5 -0.4
v 0.3 0.3 -0.4
v 0.3 0.4 -0.4
v 0.3 0.5 -0.4
v 0.3 1.2 -0.4
v 0.3 1.3 -0.4
v 0.3 1.4 -0.4
v 0.3 1.5 -0.4
v 0.4 0.3 -0.4
v 0.4 0.4 -0.4
v 0.4 0.5 -0.4
v 0.4 1.2 -0.4
v 0.4 1.3 -0.4
v 0.4 1.4 -0.4
v -0.4 0 0.4
v -0.3 0 0.4
v 0.2 0 0.4
v 0.3 0 0.4
v -0.4 0 0.3
v -0.3 0 0.3
v 0.2 0 0.3
v 0.3 0 0.3
v -0.4 0 -0.2
v -0.3 0 -0.2
v 0.2 0 -0.2
v 0.3 0 -0.2
v -0.4 0 -0.3
v -0.3 0 -0.3
v 0.2 0 -0.3
v 0.3 0 -0.3
v -0.5 0.3 0.5
v -0.3 0.3 0.5
v 0.2 0.3 0.5
v 0.4 0.3 0.5
v -0.5 0.3 0.4
v -0.4 0.3 0.4
v -0.3 0.3 0.4
v 0.2 0.3 0.4
v 0.3 0.3 0.4
v 0.4 0.3 0.4
v -0.4 0.3 0.3
v -0.3 0.3 0.3
v 0.2 0.3 0.3
v 0.3 0.3 0.3
v -0.4 0.3 -0.2
v -0.3 0.3 -0.2
v 0.2 0.3 -0.2
v 0.3 0.3 -0.2
v -0.5 0.3 -0.3
v -0.4 0.3 -0.3
v -0.3 0.3 -0.3
v 0.2 0.3 -0.3
v 0.3 0.3 -0.3
v 0.4 0.3 -0.3
v -0.5 0.3 -0.4
v -0.4 0.3 -0.4
v -0.3 0.3 -0.4
v 0.2 0.3 -0.4
v 0.3 0.3 -0.4
v 0.4 0.3 -0.4
v -0.4 0.4 0.5
v -0.3 0.4 0.5
v 0.2 0.4 0.5
v 0.3 0.4 0.5
v -0.4 0.4 0.4
v -0.3 0.4 0.4
v 0.2 0.4 0.4
v 0.3 0.4 0.4
v -0.4 0.5 0.4
v -0.3 0.5 0.4
v 0.2 0.5 0.4
v 0.3 0.5 0.4
v -0.4 0.5 0.3
v -0.3 0.5 0.3
v 0.2 0.5 0.3
v 0.3 0.5 0.3
v -0.4 0.5 -0.2
v -0.3 0.5 -0.2
v 0.2 0.5 -0.2
v 0.3 0.5 -0.2
v -0.5 0.7 0.5
v -0.4 0.7 0.5
v 0.3 0.7 0.5
v 0.4 0.7 0.5
v -0.5 0.7 0.4
v -0.4 0.7 0.4
v 0.3 0.7 0.4
v 0.4 0.7 0.4
v -0.5 0.8 0.4
v -0.4 0.8 0.4
v 0.3 0.8 0.4
v 0.4 0.8 0.4
v -0.5 0.8 0.3
v -0.4 0.8 0.3
v 0.3 0.8 0.3
v 0.4 0.8 0.3
v -0.5 0.8 -0.1
v -0.4 0.8 -0.1
v 0.3 0.8 -0.1
v 0.4 0.8 -0.1
v -0.5 0.8 -0.2
v -0.4 0.8 -0.2
v 0.3 0.8 -0.2
v 0.4 0.8 -0.2
v -0.5 1.3 -0.2
v -0.4 1.3 -0.2
v 0.3 1.3 -0.2
v 0.4 1.3 -0.2
v -0.5 1.3 -0.3
v -0.4 1.3 -0.3
v 0.3 1.3 -0.3
v 0.4 1.3 -0.3
v -0.4 1.4 -0.2
v -0.3 1.4 -0.2
v 0.2 1.4 -0.2
v 0.3 1.4 -0.2
v -0.5 1.4 -0.3
v -0.4 1.4 -0.3
v -0.3 1.4 -0.3
v 0.2 1.4 -0.3
v 0.3 1.4 -0.3
v 0.4 1.4 -0.3
v -0.5 1.4 -0.4
v -0.4 1.4 -0.4
v 0.3 1.4 -0.4
v 0.4 1.4 -0.4
v -0.4 1.5 -0.3
v -0.3 1.5 -0.3
v 0.2 1.5 -0.3
v 0.3 1.5 -0.3
v -0.4 1.5 -0.4
v -0.3 1.5 -0.4
v 0.2 1.5 -0.4
v 0.3 1.5 -0.4

# faces
f 5/2/1 2/2/1 1/2/1
f 6/3/1 3/3/1 2/3/1
f 6/2/1 2/2/1 5/2/1
f 7/2/1 4/2/1 3/2/1
f 7/3/1 3/3/1 6/3/1
f 8/2/1 4/2/1 7/2/1
f 9/4/1 7/4/1 6/4/1
f 9/3/1 8/3/1 7/3/1
f 10/3/1 8/3/1 9/3/1
f 11/3/1 6/3/1 5/3/1
f 12/4/1 9/4/1 6/4/1
f 12/3/1 6/3/1 11/3/1
f 12/4/1 10/4/1 9/4/1
f 13/4/1 10/4/1 12/4/1
f 14/2/1 12/2/1 11/2/1
f 15/3/1 13/3/1 12/3/1
f 15/2/1 12/2/1 14/2/1
f 16/4/1 10/4/1 13/4/1
f 16/3/1 13/3/1 15/3/1
f 17/4/1 10/4/1 16/4/1
f 18/4/1 10/4/1 17/4/1
f 19/2/1 16/2/1 15/2/1
f 20/3/1 17/3/1 16/3/1
f 20/2/1 16/2/1 19/2/1
f 21/2/1 18/2/1 17/2/1
f 21/3/1 17/3/1 20/3/1
f 22/4/1 10/4/1 18/4/1
f 22/2/1 18/2/1 21/2/1
f 23/4/1 10/4/1 22/4/1
f 24/4/1 10/4/1 23/4/1
f 25/3/1 24/3/1 23/3/1
f 26/4/1 10/4/1 24/4/1
f 26/3/1 24/3/1 25/3/1
f 27/4/1 10/4/1 26/4/1
f 28/2/1 26/2/1 25/2/1
f 29/3/1 27/3/1 26/3/1
f 29/2/1 26/2/1 28/2/1
f 30/3/1 27/3/1 29/3/1
f 31/2/1 30/2/1 29/2/1
f 32/2/1 30/2/1 31/2/1
f 37/1/1 34/1/1 33/1/1
f 38/1/1 34/1/1 37/1/1
f 39/1/1 36/1/1 35/1/1
f 40/1/1 36/1/1 39/1/1
f 41/4/1 38/4/1 37/4/1
f 42/4/1 38/4/1 41/4/1
f 43/4/1 40/4/1 39/4/1
f 44/4/1 40/4/1 43/4/1
f 47/4/1 46/4/1 45/4/1
f 48/4/1 46/4/1 47/4/1
f 50/3/1 49/3/1 48/3/1
f 51/3/1 49/3/1 50/3/1
f 56/1/1 53/1/1 52/1/1
f 57/1/1 53/1/1 56/1/1
f 58/1/1 55/1/1 54/1/1
f 59/1/1 55/1/1 58/1/1
f 60/4/1 57/4/1 56/4/1
f 61/4/1 57/4/1 60/4/1
f 62/4/1 59/4/1 58/4/1
f 63/4/1 59/4/1 62/4/1
f 66/3/1 65/3/1 64/3/1
f 69/3/1 66/3/1 64/3/1
f 70/4/1 68/4/1 67/4/1
f 70/3/1 66/3/1 69/3/1
f 70/4/1 67/4/1 66/4/1
f 71/4/1 68/4/1 70/4/1
f 72/2/1 70/2/1 69/2/1
f 73/3/1 71/3/1 70/3/1
f 73/2/1 70/2/1 72/2/1
f 74/4/1 68/4/1 71/4/1
f 74/3/1 71/3/1 73/3/1
f 75/4/1 68/4/1 74/4/1
f 76/4/1 68/4/1 75/4/1
f 77/2/1 74/2/1 73/2/1
f 78/3/1 75/3/1 74/3/1
f 78/2/1 74/2/1 77/2/1
f 79/2/1 76/2/1 75/2/1
f 79/3/1 75/3/1 78/3/1
f 80/2/1 76/2/1 79/2/1
f 81/3/2 82/3/2 83/3/2
f 81/3/2 83/3/2 86/3/2
f 84/4/2 85/4/2 87/4/2
f 86/3/2 83/3/2 87/3/2
f 83/4/2 84/4/2 87/4/2
f 87/4/2 85/4/2 88/4/2
f 86/2/2 87/2/2 89/2/2
f 87/3/2 88/3/2 90/3/2
f 89/2/2 87/2/2 90/2/2
f 88/4/2 85/4/2 91/4/2
f 90/3/2 88/3/2 91/3/2
f 91/4/2 85/4/2 92/4/2
f 92/4/2 85/4/2 93/4/2
f 90/2/2 91/2/2 94/2/2
f 91/3/2 92/3/2 95/3/2
f 94/2/2 91/2/2 95/2/2
f 92/2/2 93/2/2 96/2/2
f 95/3/2 92/3/2 96/3/2
f 96/2/2 93/2/2 97/2/2
f 98/1/2 99/1/2 102/1/2
f 102/1/2 99/1/2 103/1/2
f 100/1/2 101/1/2 104/1/2
f 104/1/2 101/1/2 105/1/2
f 102/4/2 103/4/2 106/4/2
f 106/4/2 103/4/2 107/4/2
f 104/4/2 105/4/2 108/4/2
f 108/4/2 105/4/2 109/4/2
f 110/1/2 111/1/2 114/1/2
f 114/1/2 111/1/2 115/1/2
f 112/1/2 113/1/2 116/1/2
f 116/1/2 113/1/2 117/1/2
f 114/4/2 115/4/2 118/4/2
f 118/4/2 115/4/2 119/4/2
f 116/4/2 117/4/2 120/4/2
f 120/4/2 117/4/2 121/4/2
f 122/4/2 123/4/2 124/4/2
f 124/4/2 123/4/2 125/4/2
f 125/3/2 126/3/2 127/3/2
f 127/3/2 126/3/2 128/3/2
f 129/2/2 130/2/2 133/2/2
f 130/3/2 131/3/2 134/3/2
f 133/2/2 130/2/2 134/2/2
f 131/2/2 132/2/2 135/2/2
f 134/3/2 131/3/2 135/3/2
f 135/2/2 132/2/2 136/2/2
f 134/4/2 135/4/2 137/4/2
f 135/3/2 136/3/2 137/3/2
f 137/3/2 136/3/2 138/3/2
f 133/3/2 134/3/2 139/3/2
f 134/4/2 137/4/2 140/4/2
f 139/3/2 134/3/2 140/3/2
f 137/4/2 138/4/2 140/4/2
f 140/4/2 138/4/2 141/4/2
f 139/2/2 140/2/2 142/2/2
f 140/3/2 141/3/2 143/3/2
f 142/2/2 140/2/2 143/2/2
f 141/4/2 138/4/2 144/4/2
f 143/3/2 141/3/2 144/3/2
f 144/4/2 138/4/2 145/4/2
f 145/4/2 138/4/2 146/4/2
f 143/2/2 144/2/2 147/2/2
f 144/3/2 145/3/2 148/3/2
f 147/2/2 144/2/2 148/2/2
f 145/2/2 146/2/2 149/2/2
f 148/3/2 145/3/2 149/3/2
f 146/4/2 138/4/2 150/4/2
f 149/2/2 146/2/2 150/2/2
f 150/4/2 138/4/2 151/4/2
f 151/4/2 138/4/2 152/4/2
f 151/3/2 152/3/2 153/3/2
f 152/4/2 138/4/2 154/4/2
f 153/3/2 152/3/2 154/3/2
f 154/4/2 138/4/2 155/4/2
f 153/2/2 154/2/2 156/2/2
f 154/3/2 155/3/2 157/3/2
f 156/2/2 154/2/2 157/2/2
f 157/3/2 155/3/2 158/3/2
f 157/2/2 158/2/2 159/2/2
f 159/2/2 158/2/2 160/2/2
f 165/2/3 162/2/3 161/2/3
f 165/3/3 163/3/3 162/3/3
f 166/2/3 164/2/3 163/2/3
f 166/3/3 163/3/3 165/3/3
f 167/2/3 164/2/3 166/2/3
f 168/2/3 165/2/3 161/2/3
f 169/2/3 165/2/3 168/2/3
f 170/3/3 169/3/3 168/3/3
f 171/3/3 169/3/3 170/3/3
f 172/2/3 171/2/3 170/2/3
f 175/2/3 172/2/3 170/2/3
f 176/3/3 173/3/3 172/3/3
f 176/2/3 172/2/3 175/2/3
f 177/2/3 174/2/3 173/2/3
f 177/3/3 173/3/3 176/3/3
f 178/2/3 174/2/3 177/2/3
f 186/2/3 180/2/3 179/2/3
f 187/2/3 180/2/3 186/2/3
f 188/1/3 182/1/3 181/1/3
f 189/4/3 183/4/3 182/4/3
f 189/1/3 182/1/3 188/1/3
f 190/4/3 183/4/3 189/4/3
f 191/4/3 185/4/3 184/4/3
f 192/4/3 185/4/3 191/4/3
f 196/5/3 192/5/3 191/5/3
f 197/5/3 192/5/3 196/5/3
f 198/1/3 194/1/3 193/1/3
f 199/4/3 195/4/3 194/4/3
f 199/1/3 194/1/3 198/1/3
f 200/4/3 195/4/3 199/4/3
f 201/4/3 197/4/3 196/4/3
f 202/4/3 197/4/3 201/4/3
f 205/2/3 204/2/3 203/2/3
f 206/2/3 204/2/3 205/2/3
f 216/4/3 208/4/3 207/4/3
f 217/3/3 209/3/3 208/3/3
f 217/4/3 208/4/3 216/4/3
f 218/2/3 210/2/3 209/2/3
f 218/3/3 209/3/3 217/3/3
f 219/2/3 210/2/3 218/2/3
f 221/1/3 212/1/3 211/1/3
f 222/4/3 213/4/3 212/4/3
f 222/1/3 212/1/3 221/1/3
f 223/4/3 213/4/3 222/4/3
f 224/5/3 215/5/3 214/5/3
f 224/5/3 216/5/3 215/5/3
f 224/5/3 217/5/3 216/5/3
f 224/5/3 219/5/3 218/5/3
f 224/5/3 218/5/3 217/5/3
f 225/4/3 220/4/3 219/4/3
f 225/5/3 219/5/3 224/5/3
f 226/4/3 220/4/3 225/4/3
f 230/6/3 225/6/3 224/6/3
f 231/5/3 226/5/3 225/5/3
f 231/6/3 225/6/3 230/6/3
f 232/5/3 226/5/3 231/5/3
f 233/1/3 228/1/3 227/1/3
f 234/4/3 229/4/3 228/4/3
f 234/1/3 228/1/3 233/1/3
f 235/4/3 229/4/3 234/4/3
f 236/5/3 231/5/3 230/5/3
f 237/5/3 231/5/3 236/5/3
f 238/5/3 231/5/3 237/5/3
f 239/5/3 231/5/3 238/5/3
f 240/5/3 231/5/3 239/5/3
f 241/4/3 232/4/3 231/4/3
f 241/5/3 231/5/3 240/5/3
f 242/4/3 232/4/3 241/4/3
f 243/4/3 239/4/3 238/4/3
f 244/3/3 240/3/3 239/3/3
f 244/4/3 239/4/3 243/4/3
f 245/2/3 241/2/3 240/2/3
f 245/3/3 240/3/3 244/3/3
f 246/2/3 241/2/3 245/2/3
f 249/2/3 248/2/3 247/2/3
f 250/2/3 248/2/3 249/2/3
f 252/3/3 251/3/3 250/3/3
f 253/3/3 251/3/3 252/3/3
f 254/4/3 253/4/3 252/4/3
f 255/4/3 253/4/3 254/4/3
f 257/3/3 255/3/3 254/3/3
f 258/3/3 255/3/3 257/3/3
f 259/2/3 257/2/3 256/2/3
f 260/2/3 257/2/3 259/2/3
f 261/1/4 262/1/4 264/1/4
f 262/4/4 263/4/4 265/4/4
f 264/1/4 262/1/4 265/1/4
f 265/4/4 263/4/4 266/4/4
f 267/1/4 268/1/4 270/1/4
f 268/4/4 269/4/4 271/4/4
f 270/1/4 268/1/4 271/1/4
f 271/4/4 269/4/4 272/4/4
f 273/1/4 274/1/4 276/1/4
f 274/4/4 275/4/4 277/4/4
f 276/1/4 274/1/4 277/1/4
f 277/4/4 275/4/4 278/4/4
f 279/1/4 280/1/4 282/1/4
f 280/4/4 281/4/4 283/4/4
f 282/1/4 280/1/4 283/1/4
f 283/4/4 281/4/4 284/4/4
f 285/2/4 286/2/4 291/2/4
f 286/3/4 287/3/4 292/3/4
f 291/2/4 286/2/4 292/2/4
f 287/4/4 288/4/4 293/4/4
f 292/3/4 287/3/4 293/3/4
f 288/3/4 289/3/4 294/3/4
f 293/4/4 288/4/4 294/4/4
f 289/2/4 290/2/4 295/2/4
f 294/3/4 289/3/4 295/3/4
f 295/2/4 290/2/4 296/2/4
f 291/3/4 292/3/4 298/3/4
f 292/4/4 293/4/4 299/4/4
f 298/3/4 292/3/4 299/3/4
f 293/5/4 294/5/4 300/5/4
f 299/4/4 293/4/4 300/4/4
f 294/5/4 295/5/4 300/5/4
f 295/4/4 296/4/4 301/4/4
f 300/5/4 295/5/4 301/5/4
f 296/3/4 297/3/4 302/3/4
f 301/4/4 296/4/4 302/4/4
f 302/3/4 297/3/4 303/3/4
f 298/4/4 299/4/4 304/4/4
f 300/5/4 301/5/4 305/5/4
f 304/4/4 299/4/4 305/4/4
f 299/5/4 300/5/4 305/5/4
f 301/5/4 302/5/4 305/5/4
f 305/5/4 302/5/4 306/5/4
f 306/5/4 302/5/4 307/5/4
f 302/4/4 303/4/4 308/4/4
f 307/5/4 302/5/4 308/5/4
f 308/4/4 303/4/4 309/4/4
f 304/3/4 305/3/4 310/3/4
f 305/4/4 306/4/4 311/4/4
f 310/3/4 305/3/4 311/3/4
f 306/5/4 307/5/4 312/5/4
f 311/4/4 306/4/4 312/4/4
f 312/5/4 307/5/4 313/5/4
f 307/4/4 308/4/4 314/4/4
f 313/5/4 307/5/4 314/5/4
f 308/3/4 309/3/4 315/3/4
f 314/4/4 308/4/4 315/4/4
f 315/3/4 309/3/4 316/3/4
f 310/2/4 311/2/4 317/2/4
f 311/3/4 312/3/4 318/3/4
f 317/2/4 311/2/4 318/2/4
f 312/4/4 313/4/4 319/4/4
f 318/3/4 312/3/4 319/3/4
f 313/3/4 314/3/4 320/3/4
f 319/4/4 313/4/4 320/4/4
f 314/2/4 315/2/4 321/2/4
f 320/3/4 314/3/4 321/3/4
f 321/2/4 315/2/4 322/2/4
f 327/1/5 324/1/5 323/1/5
f 328/1/5 324/1/5 327/1/5
f 329/1/5 326/1/5 325/1/5
f 330/1/5 326/1/5 329/1/5
f 335/1/5 332/1/5 331/1/5
f 336/1/5 332/1/5 335/1/5
f 337/1/5 334/1/5 333/1/5
f 338/1/5 334/1/5 337/1/5
f 343/2/5 340/2/5 339/2/5
f 344/2/5 340/2/5 343/2/5
f 345/3/5 341/3/5 340/3/5
f 345/2/5 340/2/5 344/2/5
f 346/2/5 342/2/5 341/2/5
f 346/3/5 341/3/5 345/3/5
f 347/2/5 342/2/5 346/2/5
f 348/2/5 342/2/5 347/2/5
f 349/3/5 344/3/5 343/3/5
f 350/3/5 346/3/5 345/3/5
f 351/3/5 346/3/5 350/3/5
f 352/3/5 348/3/5 347/3/5
f 353/3/5 351/3/5 350/3/5
f 353/3/5 352/3/5 351/3/5
f 353/3/5 349/3/5 343/3/5
f 353/3/5 350/3/5 349/3/5
f 354/3/5 352/3/5 353/3/5
f 355/3/5 352/3/5 354/3/5
f 356/3/5 348/3/5 352/3/5
f 356/3/5 352/3/5 355/3/5
f 357/3/5 353/3/5 343/3/5
f 358/3/5 353/3/5 357/3/5
f 359/3/5 355/3/5 354/3/5
f 360/3/5 355/3/5 359/3/5
f 361/3/5 348/3/5 356/3/5
f 362/3/5 348/3/5 361/3/5
f 363/2/5 358/2/5 357/2/5
f 364/3/5 359/3/5 358/3/5
f 364/2/5 358/2/5 363/2/5
f 365/4/5 360/4/5 359/4/5
f 365/3/5 359/3/5 364/3/5
f 366/3/5 361/3/5 360/3/5
f 366/4/5 360/4/5 365/4/5
f 367/2/5 362/2/5 361/2/5
f 367/3/5 361/3/5 366/3/5
f 368/2/5 362/2/5 367/2/5
f 369/2/6 370/2/6 373/2/6
f 370/3/6 371/3/6 374/3/6
f 373/2/6 370/2/6 374/2/6
f 371/2/6 372/2/6 375/2/6
f 374/3/6 371/3/6 375/3/6
f 375/2/6 372/2/6 376/2/6
f 377/4/6 378/4/6 381/4/6
f 378/5/6 379/5/6 382/5/6
f 381/4/6 378/4/6 382/4/6
f 379/4/6 380/4/6 383/4/6
f 382/5/6 379/5/6 383/5/6
f 383/4/6 380/4/6 384/4/6
f 381/5/6 382/5/6 385/5/6
f 382/6/6 383/6/6 386/6/6
f 385/5/6 382/5/6 386/5/6
f 383/5/6 384/5/6 387/5/6
f 386/6/6 383/6/6 387/6/6
f 387/5/6 384/5/6 388/5/6
f 389/2/6 390/2/6 393/2/6
f 393/2/6 390/2/6 394/2/6
f 391/2/6 392/2/6 395/2/6
f 395/2/6 392/2/6 396/2/6
f 397/2/6 398/2/6 401/2/6
f 401/2/6 398/2/6 402/2/6
f 399/2/6 400/2/6 403/2/6
f 403/2/6 400/2/6 404/2/6
f 401/3/6 402/3/6 405/3/6
f 405/3/6 402/3/6 406/3/6
f 403/3/6 404/3/6 407/3/6
f 407/3/6 404/3/6 408/3/6
f 405/2/6 406/2/6 409/2/6
f 409/2/6 406/2/6 410/2/6
f 407/2/6 408/2/6 411/2/6
f 411/2/6 408/2/6 412/2/6
f 413/2/6 414/2/6 417/2/6
f 417/2/6 414/2/6 418/2/6
f 415/2/6 416/2/6 419/2/6
f 419/2/6 416/2/6 420/2/6
f 421/4/6 422/4/6 426/4/6
f 422/5/6 423/5/6 427/5/6
f 426/4/6 422/4/6 427/4/6
f 423/4/6 424/4/6 428/4/6
f 427/5/6 423/5/6 428/5/6
f 428/4/6 424/4/6 429/4/6
f 425/2/6 426/2/6 431/2/6
f 431/2/6 426/2/6 432/2/6
f 429/2/6 430/2/6 433/2/6
f 433/2/6 430/2/6 434/2/6
f 435/3/6 436/3/6 439/3/6
f 436/4/6 437/4/6 440/4/6
f 439/3/6 436/3/6 440/3/6
f 437/3/6 438/3/6 441/3/6
f 440/4/6 437/4/6 441/4/6
f 441/3/6 438/3/6 442/3/6
