# MagicaVoxel @ Ephtracy

# group
g Flower_Small_Pink

# material
mtllib Flower_Small_Pink.mtl
usemtl palette

# normals
vn -1 0 0
vn 1 0 0
vn 0 0 1
vn 0 0 -1
vn 0 -1 0
vn 0 1 0

# texcoords
vt 0.216797 0.5
vt 0.412109 0.5

# verts
v -1.5 0 -1
v -1.5 0 -2
v -1.5 1 -1
v -1.5 1 -2
v -1.5 5 -0
v -1.5 5 -1
v -1.5 6 -0
v -1.5 6 -1
v -0.5 0 -0
v -0.5 0 -1
v -0.5 1 -1
v -0.5 3 1
v -0.5 3 -0
v -0.5 4 1
v -0.5 4 -0
v -0.5 5 1
v -0.5 5 -0
v -0.5 5 -1
v -0.5 5 -2
v -0.5 6 -0
v -0.5 6 -1
v -0.5 7 -1
v -0.5 7 -2
v -0.5 8 1
v -0.5 8 -1
v 0.5 0 2
v 0.5 0 -0
v 0.5 0 -1
v 0.5 0 -2
v 0.5 1 2
v 0.5 1 -0
v 0.5 1 -1
v 0.5 1 -2
v -0.5 0 -1
v -0.5 0 -2
v -0.5 1 -1
v -0.5 1 -2
v 0.5 0 -0
v 0.5 0 -1
v 0.5 1 -0
v 0.5 1 -1
v 0.5 3 1
v 0.5 3 -0
v 0.5 4 1
v 0.5 4 -0
v 0.5 4 -1
v 0.5 5 1
v 0.5 5 -0
v 0.5 5 -1
v 0.5 5 -2
v 0.5 7 -0
v 0.5 7 -1
v 0.5 7 -2
v 0.5 8 1
v 0.5 8 -1
v 1.5 0 2
v 1.5 0 -0
v 1.5 0 -1
v 1.5 0 -2
v 1.5 1 2
v 1.5 1 -0
v 1.5 1 -1
v 1.5 1 -2
v 1.5 4 -0
v 1.5 4 -1
v 1.5 5 -0
v 1.5 5 -1
v 1.5 7 -0
v 1.5 7 -1
v 0.5 0 2
v 0.5 1 2
v 1.5 0 2
v 1.5 1 2
v -0.5 3 1
v -0.5 4 1
v -0.5 5 1
v -0.5 8 1
v 0.5 3 1
v 0.5 4 1
v 0.5 5 1
v 0.5 8 1
v -1.5 5 -0
v -1.5 6 -0
v -0.5 0 -0
v -0.5 3 -0
v -0.5 4 -0
v -0.5 5 -0
v -0.5 6 -0
v 0.5 0 -0
v 0.5 1 -0
v 0.5 3 -0
v 0.5 4 -0
v 0.5 5 -0
v 0.5 7 -0
v 1.5 4 -0
v 1.5 5 -0
v 1.5 7 -0
v -1.5 0 -1
v -1.5 1 -1
v -0.5 0 -1
v -0.5 1 -1
v 0.5 0 -1
v 0.5 1 -1
v 1.5 0 -1
v 1.5 1 -1
v 0.5 0 -0
v 0.5 1 -0
v 1.5 0 -0
v 1.5 1 -0
v -1.5 5 -1
v -1.5 6 -1
v -0.5 0 -1
v -0.5 1 -1
v -0.5 5 -1
v -0.5 6 -1
v -0.5 7 -1
v -0.5 8 -1
v 0.5 0 -1
v 0.5 1 -1
v 0.5 4 -1
v 0.5 5 -1
v 0.5 7 -1
v 0.5 8 -1
v 1.5 4 -1
v 1.5 5 -1
v 1.5 7 -1
v -1.5 0 -2
v -1.5 1 -2
v -0.5 0 -2
v -0.5 1 -2
v -0.5 5 -2
v -0.5 7 -2
v 0.5 0 -2
v 0.5 1 -2
v 0.5 5 -2
v 0.5 7 -2
v 1.5 0 -2
v 1.5 1 -2
v 0.5 0 2
v 1.5 0 2
v -0.5 0 -0
v 0.5 0 -0
v 1.5 0 -0
v -1.5 0 -1
v -0.5 0 -1
v 0.5 0 -1
v 1.5 0 -1
v -1.5 0 -2
v -0.5 0 -2
v 0.5 0 -2
v 1.5 0 -2
v -0.5 3 1
v 0.5 3 1
v -0.5 3 -0
v 0.5 3 -0
v 0.5 4 -0
v 1.5 4 -0
v 0.5 4 -1
v 1.5 4 -1
v -0.5 5 1
v 0.5 5 1
v -1.5 5 -0
v -0.5 5 -0
v 0.5 5 -0
v -1.5 5 -1
v -0.5 5 -1
v 0.5 5 -1
v -0.5 5 -2
v 0.5 5 -2
v 0.5 1 2
v 1.5 1 2
v 0.5 1 -0
v 1.5 1 -0
v -1.5 1 -1
v -0.5 1 -1
v 0.5 1 -1
v 1.5 1 -1
v -1.5 1 -2
v -0.5 1 -2
v 0.5 1 -2
v 1.5 1 -2
v -0.5 4 1
v 0.5 4 1
v -0.5 4 -0
v 0.5 4 -0
v -1.5 6 -0
v -0.5 6 -0
v -1.5 6 -1
v -0.5 6 -1
v 0.5 7 -0
v 1.5 7 -0
v -0.5 7 -1
v 0.5 7 -1
v 1.5 7 -1
v -0.5 7 -2
v 0.5 7 -2
v -0.5 8 1
v 0.5 8 1
v -0.5 8 -1
v 0.5 8 -1

# faces
f 3/2/1 2/2/1 1/2/1
f 4/2/1 2/2/1 3/2/1
f 7/1/1 6/1/1 5/1/1
f 8/1/1 6/1/1 7/1/1
f 11/2/1 10/2/1 9/2/1
f 13/2/1 11/2/1 9/2/1
f 14/2/1 13/2/1 12/2/1
f 15/2/1 11/2/1 13/2/1
f 15/2/1 13/2/1 14/2/1
f 17/2/1 11/2/1 15/2/1
f 18/2/1 11/2/1 17/2/1
f 20/1/1 17/1/1 16/1/1
f 21/1/1 19/1/1 18/1/1
f 22/1/1 19/1/1 21/1/1
f 22/1/1 21/1/1 20/1/1
f 23/1/1 19/1/1 22/1/1
f 24/1/1 20/1/1 16/1/1
f 24/1/1 22/1/1 20/1/1
f 25/1/1 22/1/1 24/1/1
f 30/2/1 27/2/1 26/2/1
f 31/2/1 27/2/1 30/2/1
f 32/2/1 29/2/1 28/2/1
f 33/2/1 29/2/1 32/2/1
f 34/2/2 35/2/2 36/2/2
f 36/2/2 35/2/2 37/2/2
f 38/2/2 39/2/2 40/2/2
f 40/2/2 39/2/2 41/2/2
f 40/2/2 41/2/2 43/2/2
f 42/2/2 43/2/2 44/2/2
f 43/2/2 41/2/2 45/2/2
f 44/2/2 43/2/2 45/2/2
f 45/2/2 41/2/2 46/2/2
f 47/1/2 48/1/2 51/1/2
f 49/1/2 50/1/2 52/1/2
f 52/1/2 50/1/2 53/1/2
f 47/1/2 51/1/2 54/1/2
f 51/1/2 52/1/2 54/1/2
f 54/1/2 52/1/2 55/1/2
f 56/2/2 57/2/2 60/2/2
f 60/2/2 57/2/2 61/2/2
f 58/2/2 59/2/2 62/2/2
f 62/2/2 59/2/2 63/2/2
f 64/2/2 65/2/2 66/2/2
f 66/2/2 65/2/2 67/2/2
f 66/1/2 67/1/2 68/1/2
f 68/1/2 67/1/2 69/1/2
f 72/2/3 71/2/3 70/2/3
f 73/2/3 71/2/3 72/2/3
f 78/2/3 75/2/3 74/2/3
f 79/2/3 75/2/3 78/2/3
f 80/1/3 77/1/3 76/1/3
f 81/1/3 77/1/3 80/1/3
f 87/1/3 83/1/3 82/1/3
f 88/1/3 83/1/3 87/1/3
f 89/2/3 85/2/3 84/2/3
f 90/2/3 85/2/3 89/2/3
f 91/2/3 85/2/3 90/2/3
f 92/2/3 87/2/3 86/2/3
f 93/2/3 87/2/3 92/2/3
f 95/2/3 93/2/3 92/2/3
f 96/1/3 94/1/3 93/1/3
f 96/2/3 93/2/3 95/2/3
f 97/1/3 94/1/3 96/1/3
f 100/2/3 99/2/3 98/2/3
f 101/2/3 99/2/3 100/2/3
f 104/2/3 103/2/3 102/2/3
f 105/2/3 103/2/3 104/2/3
f 106/2/4 107/2/4 108/2/4
f 108/2/4 107/2/4 109/2/4
f 110/1/4 111/1/4 114/1/4
f 114/1/4 111/1/4 115/1/4
f 112/2/4 113/2/4 118/2/4
f 113/2/4 114/2/4 118/2/4
f 118/2/4 114/2/4 119/2/4
f 119/2/4 114/2/4 120/2/4
f 120/2/4 114/2/4 121/2/4
f 116/1/4 117/1/4 122/1/4
f 122/1/4 117/1/4 123/1/4
f 120/2/4 121/2/4 124/2/4
f 121/1/4 122/1/4 125/1/4
f 124/2/4 121/2/4 125/2/4
f 125/1/4 122/1/4 126/1/4
f 127/2/4 128/2/4 129/2/4
f 129/2/4 128/2/4 130/2/4
f 131/1/4 132/1/4 135/1/4
f 135/1/4 132/1/4 136/1/4
f 133/2/4 134/2/4 137/2/4
f 137/2/4 134/2/4 138/2/4
f 142/2/5 140/2/5 139/2/5
f 143/2/5 140/2/5 142/2/5
f 145/2/5 142/2/5 141/2/5
f 146/2/5 142/2/5 145/2/5
f 148/2/5 145/2/5 144/2/5
f 149/2/5 145/2/5 148/2/5
f 150/2/5 147/2/5 146/2/5
f 151/2/5 147/2/5 150/2/5
f 154/2/5 153/2/5 152/2/5
f 155/2/5 153/2/5 154/2/5
f 158/2/5 157/2/5 156/2/5
f 159/2/5 157/2/5 158/2/5
f 163/1/5 161/1/5 160/1/5
f 164/1/5 161/1/5 163/1/5
f 165/1/5 163/1/5 162/1/5
f 166/1/5 163/1/5 165/1/5
f 168/1/5 167/1/5 166/1/5
f 169/1/5 167/1/5 168/1/5
f 170/2/6 171/2/6 172/2/6
f 172/2/6 171/2/6 173/2/6
f 174/2/6 175/2/6 178/2/6
f 178/2/6 175/2/6 179/2/6
f 176/2/6 177/2/6 180/2/6
f 180/2/6 177/2/6 181/2/6
f 182/2/6 183/2/6 184/2/6
f 184/2/6 183/2/6 185/2/6
f 186/1/6 187/1/6 188/1/6
f 188/1/6 187/1/6 189/1/6
f 190/1/6 191/1/6 193/1/6
f 193/1/6 191/1/6 194/1/6
f 192/1/6 193/1/6 195/1/6
f 195/1/6 193/1/6 196/1/6
f 197/1/6 198/1/6 199/1/6
f 199/1/6 198/1/6 200/1/6
