# MagicaVoxel @ Ephtracy

# group
g Flower_Small_Red_2

# material
mtllib Flower_Small_Red_2.mtl
usemtl palette

# normals
vn -1 0 0
vn 1 0 0
vn 0 0 1
vn 0 0 -1
vn 0 -1 0
vn 0 1 0

# texcoords
vt 0.216797 0.5
vt 0.412109 0.5
vt 0.841797 0.5

# verts
v -2 0 -0.5
v -2 0 -1.5
v -2 1 -0.5
v -2 1 -1.5
v -2 2 1.5
v -2 2 -0.5
v -2 3 1.5
v -2 3 0.5
v -2 4 0.5
v -2 4 -0.5
v -2 5 1.5
v -2 5 0.5
v -2 6 1.5
v -2 6 0.5
v -2 8 0.5
v -2 8 -0.5
v -2 9 0.5
v -2 9 -0.5
v -1 0 0.5
v -1 0 -0.5
v -1 1 -0.5
v -1 2 0.5
v -1 2 -0.5
v -1 3 1.5
v -1 3 0.5
v -1 4 1.5
v -1 4 0.5
v -1 4 -0.5
v -1 5 2.5
v -1 5 1.5
v -1 5 0.5
v -1 5 -0.5
v -1 5 -2.5
v -1 6 2.5
v -1 6 1.5
v -1 6 0.5
v -1 6 -0.5
v -1 6 -2.5
v -1 7 1.5
v -1 7 0.5
v -1 8 0.5
v -1 8 -0.5
v -1 9 0.5
v -1 9 -0.5
v -1 10 0.5
v -1 10 -0.5
v 0 0 2.5
v 0 0 0.5
v 0 0 -0.5
v 0 0 -1.5
v 0 1 2.5
v 0 1 0.5
v 0 1 -0.5
v 0 1 -1.5
v 0 6 -0.5
v 0 6 -1.5
v 0 7 -0.5
v 0 7 -1.5
v 0 9 1.5
v 0 9 0.5
v 0 9 -0.5
v 0 9 -1.5
v 0 10 1.5
v 0 10 0.5
v 0 10 -0.5
v 0 10 -1.5
v 0 11 0.5
v 0 11 -0.5
v -1 0 -0.5
v -1 0 -1.5
v -1 1 -0.5
v -1 1 -1.5
v -1 2 1.5
v -1 2 0.5
v -1 3 1.5
v -1 3 0.5
v 0 0 0.5
v 0 0 -0.5
v 0 1 0.5
v 0 1 -0.5
v 0 3 1.5
v 0 3 0.5
v 0 4 1.5
v 0 4 0.5
v 0 4 -0.5
v 0 5 2.5
v 0 5 1.5
v 0 5 0.5
v 0 5 -0.5
v 0 5 -1.5
v 0 5 -2.5
v 0 6 2.5
v 0 6 1.5
v 0 6 0.5
v 0 6 -1.5
v 0 6 -2.5
v 0 7 1.5
v 0 7 0.5
v 0 7 -0.5
v 0 8 0.5
v 0 8 -0.5
v 1 0 2.5
v 1 0 0.5
v 1 0 -0.5
v 1 0 -1.5
v 1 1 2.5
v 1 1 0.5
v 1 1 -0.5
v 1 1 -1.5
v 1 4 0.5
v 1 4 -0.5
v 1 5 1.5
v 1 5 0.5
v 1 5 -0.5
v 1 5 -1.5
v 1 6 1.5
v 1 6 0.5
v 1 7 -0.5
v 1 7 -1.5
v 1 8 0.5
v 1 8 -0.5
v 1 9 1.5
v 1 9 0.5
v 1 9 -0.5
v 1 9 -1.5
v 1 10 1.5
v 1 10 0.5
v 1 10 -0.5
v 1 10 -1.5
v 1 11 0.5
v 1 11 -0.5
v 2 9 0.5
v 2 9 -0.5
v 2 10 0.5
v 2 10 -0.5
v -1 5 2.5
v -1 6 2.5
v 0 0 2.5
v 0 1 2.5
v 0 5 2.5
v 0 6 2.5
v 1 0 2.5
v 1 1 2.5
v -2 2 1.5
v -2 3 1.5
v -2 5 1.5
v -2 6 1.5
v -1 2 1.5
v -1 3 1.5
v -1 4 1.5
v -1 5 1.5
v -1 6 1.5
v -1 7 1.5
v 0 3 1.5
v 0 4 1.5
v 0 5 1.5
v 0 6 1.5
v 0 7 1.5
v 0 9 1.5
v 0 10 1.5
v 1 5 1.5
v 1 6 1.5
v 1 9 1.5
v 1 10 1.5
v -2 3 0.5
v -2 4 0.5
v -2 8 0.5
v -2 9 0.5
v -1 0 0.5
v -1 2 0.5
v -1 3 0.5
v -1 4 0.5
v -1 5 0.5
v -1 7 0.5
v -1 8 0.5
v -1 9 0.5
v -1 10 0.5
v 0 0 0.5
v 0 1 0.5
v 0 3 0.5
v 0 4 0.5
v 0 5 0.5
v 0 7 0.5
v 0 8 0.5
v 0 9 0.5
v 0 10 0.5
v 0 11 0.5
v 1 4 0.5
v 1 5 0.5
v 1 8 0.5
v 1 9 0.5
v 1 10 0.5
v 1 11 0.5
v 2 9 0.5
v 2 10 0.5
v -2 0 -0.5
v -2 1 -0.5
v -1 0 -0.5
v -1 1 -0.5
v 0 0 -0.5
v 0 1 -0.5
v 0 5 -0.5
v 0 7 -0.5
v 1 0 -0.5
v 1 1 -0.5
v 1 5 -0.5
v 1 7 -0.5
v -2 5 0.5
v -2 6 0.5
v -1 5 0.5
v -1 6 0.5
v 0 0 0.5
v 0 1 0.5
v 0 5 0.5
v 0 6 0.5
v 1 0 0.5
v 1 1 0.5
v 1 5 0.5
v 1 6 0.5
v -2 2 -0.5
v -2 4 -0.5
v -2 8 -0.5
v -2 9 -0.5
v -1 0 -0.5
v -1 1 -0.5
v -1 2 -0.5
v -1 4 -0.5
v -1 5 -0.5
v -1 6 -0.5
v -1 8 -0.5
v -1 9 -0.5
v -1 10 -0.5
v 0 0 -0.5
v 0 1 -0.5
v 0 4 -0.5
v 0 6 -0.5
v 0 7 -0.5
v 0 8 -0.5
v 0 9 -0.5
v 0 10 -0.5
v 0 11 -0.5
v 1 4 -0.5
v 1 5 -0.5
v 1 8 -0.5
v 1 9 -0.5
v 1 10 -0.5
v 1 11 -0.5
v 2 9 -0.5
v 2 10 -0.5
v -2 0 -1.5
v -2 1 -1.5
v -1 0 -1.5
v -1 1 -1.5
v 0 0 -1.5
v 0 1 -1.5
v 0 5 -1.5
v 0 6 -1.5
v 0 7 -1.5
v 0 9 -1.5
v 0 10 -1.5
v 1 0 -1.5
v 1 1 -1.5
v 1 5 -1.5
v 1 7 -1.5
v 1 9 -1.5
v 1 10 -1.5
v -1 5 -2.5
v -1 6 -2.5
v 0 5 -2.5
v 0 6 -2.5
v 0 0 2.5
v 1 0 2.5
v -1 0 0.5
v 0 0 0.5
v 1 0 0.5
v -2 0 -0.5
v -1 0 -0.5
v 0 0 -0.5
v 1 0 -0.5
v -2 0 -1.5
v -1 0 -1.5
v 0 0 -1.5
v 1 0 -1.5
v -2 2 1.5
v -1 2 1.5
v -1 2 0.5
v -2 2 -0.5
v -1 2 -0.5
v -1 3 1.5
v 0 3 1.5
v -1 3 0.5
v 0 3 0.5
v 0 4 0.5
v 1 4 0.5
v 0 4 -0.5
v 1 4 -0.5
v -1 5 2.5
v 0 5 2.5
v -2 5 1.5
v -1 5 1.5
v 0 5 1.5
v 1 5 1.5
v -2 5 0.5
v -1 5 0.5
v 0 5 0.5
v 1 5 0.5
v -1 5 -0.5
v 1 5 -0.5
v 0 5 -1.5
v 1 5 -1.5
v -1 5 -2.5
v 0 5 -2.5
v -2 8 0.5
v -1 8 0.5
v 0 8 0.5
v 1 8 0.5
v -2 8 -0.5
v -1 8 -0.5
v 0 8 -0.5
v 1 8 -0.5
v 0 9 1.5
v 1 9 1.5
v 0 9 0.5
v 1 9 0.5
v 2 9 0.5
v 0 9 -0.5
v 1 9 -0.5
v 2 9 -0.5
v 0 9 -1.5
v 1 9 -1.5
v 0 1 2.5
v 1 1 2.5
v 0 1 0.5
v 1 1 0.5
v -2 1 -0.5
v -1 1 -0.5
v 0 1 -0.5
v 1 1 -0.5
v -2 1 -1.5
v -1 1 -1.5
v 0 1 -1.5
v 1 1 -1.5
v -2 3 1.5
v -1 3 1.5
v -2 3 0.5
v -1 3 0.5
v -1 4 1.5
v 0 4 1.5
v -2 4 0.5
v -1 4 0.5
v 0 4 0.5
v -2 4 -0.5
v -1 4 -0.5
v 0 5 0.5
v 1 5 0.5
v 0 5 -0.5
v 1 5 -0.5
v -1 6 2.5
v 0 6 2.5
v -2 6 1.5
v -1 6 1.5
v 0 6 1.5
v 1 6 1.5
v -2 6 0.5
v -1 6 0.5
v 0 6 0.5
v 1 6 0.5
v -1 6 -0.5
v 0 6 -0.5
v 0 6 -1.5
v -1 6 -2.5
v 0 6 -2.5
v -1 7 1.5
v 0 7 1.5
v -1 7 0.5
v 0 7 0.5
v 0 7 -0.5
v 1 7 -0.5
v 0 7 -1.5
v 1 7 -1.5
v -2 9 0.5
v -1 9 0.5
v -2 9 -0.5
v -1 9 -0.5
v 0 10 1.5
v 1 10 1.5
v -1 10 0.5
v 0 10 0.5
v 1 10 0.5
v 2 10 0.5
v -1 10 -0.5
v 0 10 -0.5
v 1 10 -0.5
v 2 10 -0.5
v 0 10 -1.5
v 1 10 -1.5
v 0 11 0.5
v 1 11 0.5
v 0 11 -0.5
v 1 11 -0.5

# faces
f 3/2/1 2/2/1 1/2/1
f 4/2/1 2/2/1 3/2/1
f 7/3/1 6/3/1 5/3/1
f 8/3/1 6/3/1 7/3/1
f 9/3/1 6/3/1 8/3/1
f 10/3/1 6/3/1 9/3/1
f 13/3/1 12/3/1 11/3/1
f 14/3/1 12/3/1 13/3/1
f 17/2/1 16/2/1 15/2/1
f 18/2/1 16/2/1 17/2/1
f 21/2/1 20/2/1 19/2/1
f 22/2/1 21/2/1 19/2/1
f 23/2/1 21/2/1 22/2/1
f 26/2/1 25/2/1 24/2/1
f 27/2/1 25/2/1 26/2/1
f 31/2/1 28/2/1 27/2/1
f 32/2/1 28/2/1 31/2/1
f 34/3/1 30/3/1 29/3/1
f 35/3/1 30/3/1 34/3/1
f 36/2/1 32/2/1 31/2/1
f 37/3/1 33/3/1 32/3/1
f 37/2/1 32/2/1 36/2/1
f 38/3/1 33/3/1 37/3/1
f 39/3/1 36/3/1 35/3/1
f 40/2/1 37/2/1 36/2/1
f 40/3/1 36/3/1 39/3/1
f 41/2/1 37/2/1 40/2/1
f 42/2/1 37/2/1 41/2/1
f 45/2/1 44/2/1 43/2/1
f 46/2/1 44/2/1 45/2/1
f 51/2/1 48/2/1 47/2/1
f 52/2/1 48/2/1 51/2/1
f 53/2/1 50/2/1 49/2/1
f 54/2/1 50/2/1 53/2/1
f 57/3/1 56/3/1 55/3/1
f 58/3/1 56/3/1 57/3/1
f 63/3/1 60/3/1 59/3/1
f 64/3/1 60/3/1 63/3/1
f 65/3/1 62/3/1 61/3/1
f 66/3/1 62/3/1 65/3/1
f 67/3/1 65/3/1 64/3/1
f 68/3/1 65/3/1 67/3/1
f 69/2/2 70/2/2 71/2/2
f 71/2/2 70/2/2 72/2/2
f 73/3/2 74/3/2 75/3/2
f 75/3/2 74/3/2 76/3/2
f 77/2/2 78/2/2 79/2/2
f 79/2/2 78/2/2 80/2/2
f 79/2/2 80/2/2 82/2/2
f 81/2/2 82/2/2 83/2/2
f 82/2/2 80/2/2 84/2/2
f 83/2/2 82/2/2 84/2/2
f 84/2/2 80/2/2 85/2/2
f 86/3/2 87/3/2 92/3/2
f 92/3/2 87/3/2 93/3/2
f 88/2/2 89/2/2 94/2/2
f 90/3/2 91/3/2 95/3/2
f 95/3/2 91/3/2 96/3/2
f 93/3/2 94/3/2 97/3/2
f 94/2/2 89/2/2 98/2/2
f 97/3/2 94/3/2 98/3/2
f 98/2/2 89/2/2 99/2/2
f 98/2/2 99/2/2 100/2/2
f 100/2/2 99/2/2 101/2/2
f 102/2/2 103/2/2 106/2/2
f 106/2/2 103/2/2 107/2/2
f 104/2/2 105/2/2 108/2/2
f 108/2/2 105/2/2 109/2/2
f 110/2/2 111/2/2 113/2/2
f 113/2/2 111/2/2 114/2/2
f 112/3/2 113/3/2 116/3/2
f 116/3/2 113/3/2 117/3/2
f 114/3/2 115/3/2 118/3/2
f 118/3/2 115/3/2 119/3/2
f 120/3/2 121/3/2 123/3/2
f 123/3/2 121/3/2 124/3/2
f 122/3/2 123/3/2 126/3/2
f 126/3/2 123/3/2 127/3/2
f 124/3/2 125/3/2 128/3/2
f 128/3/2 125/3/2 129/3/2
f 127/3/2 128/3/2 130/3/2
f 130/3/2 128/3/2 131/3/2
f 132/3/2 133/3/2 134/3/2
f 134/3/2 133/3/2 135/3/2
f 140/3/3 137/3/3 136/3/3
f 141/3/3 137/3/3 140/3/3
f 142/2/3 139/2/3 138/2/3
f 143/2/3 139/2/3 142/2/3
f 148/3/3 145/3/3 144/3/3
f 149/3/3 145/3/3 148/3/3
f 151/3/3 147/3/3 146/3/3
f 152/3/3 147/3/3 151/3/3
f 154/2/3 150/2/3 149/2/3
f 155/2/3 150/2/3 154/2/3
f 157/3/3 153/3/3 152/3/3
f 158/3/3 153/3/3 157/3/3
f 161/3/3 157/3/3 156/3/3
f 162/3/3 157/3/3 161/3/3
f 163/3/3 160/3/3 159/3/3
f 164/3/3 160/3/3 163/3/3
f 171/3/3 166/3/3 165/3/3
f 172/3/3 166/3/3 171/3/3
f 175/2/3 168/2/3 167/2/3
f 176/2/3 168/2/3 175/2/3
f 178/2/3 170/2/3 169/2/3
f 178/2/3 171/2/3 170/2/3
f 179/2/3 171/2/3 178/2/3
f 180/2/3 171/2/3 179/2/3
f 181/2/3 173/2/3 172/2/3
f 182/2/3 173/2/3 181/2/3
f 183/2/3 177/2/3 176/2/3
f 183/2/3 176/2/3 175/2/3
f 183/2/3 175/2/3 174/2/3
f 184/2/3 177/2/3 183/2/3
f 185/2/3 177/2/3 184/2/3
f 186/2/3 177/2/3 185/2/3
f 188/2/3 182/2/3 181/2/3
f 189/2/3 182/2/3 188/2/3
f 190/3/3 185/3/3 184/3/3
f 191/3/3 185/3/3 190/3/3
f 192/3/3 187/3/3 186/3/3
f 193/3/3 187/3/3 192/3/3
f 194/3/3 192/3/3 191/3/3
f 195/3/3 192/3/3 194/3/3
f 198/2/3 197/2/3 196/2/3
f 199/2/3 197/2/3 198/2/3
f 204/2/3 201/2/3 200/2/3
f 205/2/3 201/2/3 204/2/3
f 206/3/3 203/3/3 202/3/3
f 207/3/3 203/3/3 206/3/3
f 208/3/4 209/3/4 210/3/4
f 210/3/4 209/3/4 211/3/4
f 212/2/4 213/2/4 216/2/4
f 216/2/4 213/2/4 217/2/4
f 214/3/4 215/3/4 218/3/4
f 218/3/4 215/3/4 219/3/4
f 220/3/4 221/3/4 226/3/4
f 226/3/4 221/3/4 227/3/4
f 222/2/4 223/2/4 230/2/4
f 230/2/4 223/2/4 231/2/4
f 224/2/4 225/2/4 233/2/4
f 227/2/4 228/2/4 233/2/4
f 225/2/4 226/2/4 233/2/4
f 226/2/4 227/2/4 233/2/4
f 233/2/4 228/2/4 234/2/4
f 234/2/4 228/2/4 235/2/4
f 231/2/4 232/2/4 236/2/4
f 230/2/4 231/2/4 236/2/4
f 229/2/4 230/2/4 236/2/4
f 236/2/4 232/2/4 237/2/4
f 237/2/4 232/2/4 238/2/4
f 238/2/4 232/2/4 239/2/4
f 239/2/4 232/2/4 240/2/4
f 235/2/4 228/2/4 242/2/4
f 242/2/4 228/2/4 243/2/4
f 238/3/4 239/3/4 244/3/4
f 244/3/4 239/3/4 245/3/4
f 240/3/4 241/3/4 246/3/4
f 246/3/4 241/3/4 247/3/4
f 245/3/4 246/3/4 248/3/4
f 248/3/4 246/3/4 249/3/4
f 250/2/4 251/2/4 252/2/4
f 252/2/4 251/2/4 253/2/4
f 254/2/4 255/2/4 261/2/4
f 261/2/4 255/2/4 262/2/4
f 256/3/4 257/3/4 263/3/4
f 257/3/4 258/3/4 263/3/4
f 263/3/4 258/3/4 264/3/4
f 259/3/4 260/3/4 265/3/4
f 265/3/4 260/3/4 266/3/4
f 267/3/4 268/3/4 269/3/4
f 269/3/4 268/3/4 270/3/4
f 274/2/5 272/2/5 271/2/5
f 275/2/5 272/2/5 274/2/5
f 277/2/5 274/2/5 273/2/5
f 278/2/5 274/2/5 277/2/5
f 280/2/5 277/2/5 276/2/5
f 281/2/5 277/2/5 280/2/5
f 282/2/5 279/2/5 278/2/5
f 283/2/5 279/2/5 282/2/5
f 286/3/5 285/3/5 284/3/5
f 287/3/5 286/3/5 284/3/5
f 288/3/5 286/3/5 287/3/5
f 291/2/5 290/2/5 289/2/5
f 292/2/5 290/2/5 291/2/5
f 295/2/5 294/2/5 293/2/5
f 296/2/5 294/2/5 295/2/5
f 300/3/5 298/3/5 297/3/5
f 301/3/5 298/3/5 300/3/5
f 303/3/5 300/3/5 299/3/5
f 304/1/5 301/1/5 300/1/5
f 304/3/5 300/3/5 303/3/5
f 305/3/5 302/3/5 301/3/5
f 305/1/5 301/1/5 304/1/5
f 306/3/5 302/3/5 305/3/5
f 309/3/5 308/3/5 307/3/5
f 310/3/5 308/3/5 309/3/5
f 311/3/5 309/3/5 307/3/5
f 312/3/5 309/3/5 311/3/5
f 317/2/5 314/2/5 313/2/5
f 318/2/5 314/2/5 317/2/5
f 319/3/5 316/3/5 315/3/5
f 320/3/5 316/3/5 319/3/5
f 323/3/5 322/3/5 321/3/5
f 324/3/5 322/3/5 323/3/5
f 327/3/5 325/3/5 324/3/5
f 328/3/5 325/3/5 327/3/5
f 329/3/5 327/3/5 326/3/5
f 330/3/5 327/3/5 329/3/5
f 331/2/6 332/2/6 333/2/6
f 333/2/6 332/2/6 334/2/6
f 335/2/6 336/2/6 339/2/6
f 339/2/6 336/2/6 340/2/6
f 337/2/6 338/2/6 341/2/6
f 341/2/6 338/2/6 342/2/6
f 343/3/6 344/3/6 345/3/6
f 345/3/6 344/3/6 346/3/6
f 347/2/6 348/2/6 350/2/6
f 350/2/6 348/2/6 351/2/6
f 349/3/6 350/3/6 352/3/6
f 352/3/6 350/3/6 353/3/6
f 354/2/6 355/2/6 356/2/6
f 356/2/6 355/2/6 357/2/6
f 358/3/6 359/3/6 361/3/6
f 361/3/6 359/3/6 362/3/6
f 360/3/6 361/3/6 364/3/6
f 364/3/6 361/3/6 365/3/6
f 362/3/6 363/3/6 366/3/6
f 366/3/6 363/3/6 367/3/6
f 368/3/6 369/3/6 370/3/6
f 368/3/6 370/3/6 371/3/6
f 371/3/6 370/3/6 372/3/6
f 373/3/6 374/3/6 375/3/6
f 375/3/6 374/3/6 376/3/6
f 377/3/6 378/3/6 379/3/6
f 379/3/6 378/3/6 380/3/6
f 381/2/6 382/2/6 383/2/6
f 383/2/6 382/2/6 384/2/6
f 385/3/6 386/3/6 388/3/6
f 388/3/6 386/3/6 389/3/6
f 387/2/6 388/2/6 391/2/6
f 391/2/6 388/2/6 392/2/6
f 389/3/6 390/3/6 393/3/6
f 393/3/6 390/3/6 394/3/6
f 392/3/6 393/3/6 395/3/6
f 395/3/6 393/3/6 396/3/6
f 397/3/6 398/3/6 399/3/6
f 399/3/6 398/3/6 400/3/6
