# Blender v3.2.2 OBJ File: 'Medieval Voxel Assets.blend'
# www.blender.org
mtllib Tower_Door.mtl
o Tower_Door_Medieval_Assets-50.001
v 16.200001 1.600000 3.400001
v 16.299999 0.599999 3.600000
v 16.299999 0.599999 3.700000
v 16.400000 1.600000 3.400001
v 17.400000 -0.000001 3.600000
v 17.400000 -0.000001 3.800000
v 17.400000 1.399999 3.600000
v 16.200001 0.399999 3.600000
v 16.200001 0.499999 3.600000
v 16.200001 1.399999 3.800000
v 16.200001 1.399999 3.600000
v 16.400000 1.399999 3.600000
v 16.400000 1.599999 3.800000
v 17.400000 1.399999 3.700000
v 17.400000 1.399999 3.400000
v 17.400000 1.599999 3.800000
v 17.400000 1.600000 3.400001
v 17.600000 -0.000001 3.800000
v 17.600000 1.399999 3.400000
v 16.000000 -0.000001 3.800000
v 16.200001 -0.000001 3.800000
v 16.400000 1.399999 3.800000
v 17.200001 1.599999 3.800000
v 17.200001 1.799999 3.800000
v 16.200001 -0.000001 3.600000
v 16.299999 0.799999 3.600000
v 16.500000 0.399999 3.600000
v 16.500000 0.599999 3.600000
v 16.500000 0.799999 3.600000
v 17.200001 1.399999 3.600000
v 16.000000 -0.000001 3.400000
v 16.400000 1.799999 3.400001
v 17.200001 1.600000 3.400001
v 17.200001 1.799999 3.400001
v 17.600000 -0.000001 3.400000
v 16.500000 0.599999 3.700000
v 16.400000 0.599999 3.600000
v 16.200001 1.399999 3.700000
v 17.200001 1.399999 3.800000
v 16.400000 1.599999 3.600000
v 17.200001 1.599999 3.600000
v 16.299999 0.799999 3.700000
v 16.500000 0.799999 3.700000
v 16.000000 1.399999 3.800000
v 17.400000 1.399999 3.800000
v 17.600000 1.399999 3.800000
v 16.000000 1.399999 3.400000
v 16.200001 1.399999 3.400000
v 16.200001 1.599999 3.800000
v 16.400000 1.799999 3.800000
vt 0.937193 0.000123
vt 0.937193 0.437193
vt 0.874754 0.437193
vt 0.874754 0.000123
vt 0.438665 0.687439
vt 0.438665 0.625000
vt 0.469884 0.625000
vt 0.469884 0.656219
vt 0.469884 0.687439
vt 0.750123 0.936948
vt 0.750123 0.499877
vt 0.875000 0.499877
vt 0.875000 0.936948
vt 0.125245 0.562316
vt 0.187684 0.562316
vt 0.187684 0.687193
vt 0.187684 0.718413
vt 0.187684 0.999387
vt 0.156464 0.999387
vt 0.125245 0.999387
vt 0.938173 0.968412
vt 0.938173 0.999632
vt 0.875734 0.999632
vt 0.875734 0.937193
vt 0.938173 0.937193
vt 0.000123 0.812316
vt 0.062561 0.812316
vt 0.062561 0.937194
vt 0.000123 0.937194
vt 0.000123 0.905974
vt 0.687684 0.937193
vt 0.750122 0.937193
vt 0.750122 0.999632
vt 0.687684 0.999632
vt 0.875244 0.936948
vt 0.875244 0.499877
vt 0.937683 0.499877
vt 0.937683 0.936948
vt 0.375735 0.812071
vt 0.313297 0.812071
vt 0.313297 0.562315
vt 0.375735 0.562315
vt 0.000123 0.812071
vt 0.000123 0.562315
vt 0.125000 0.562315
vt 0.125000 0.812071
vt 0.000123 0.562071
vt 0.000123 0.125000
vt 0.062561 0.125000
vt 0.062561 0.062561
vt 0.125000 0.062561
vt 0.125000 0.000123
vt 0.374756 0.000123
vt 0.374756 0.062561
vt 0.437193 0.062561
vt 0.437193 0.125000
vt 0.499632 0.125000
vt 0.499632 0.562071
vt 0.250368 0.562316
vt 0.250368 0.999387
vt 0.187929 0.999387
vt 0.187929 0.562316
vt 0.219148 0.562316
vt 0.313051 0.812316
vt 0.313051 0.905974
vt 0.313051 0.937194
vt 0.250613 0.937194
vt 0.250613 0.812316
vt 0.469884 0.750368
vt 0.469884 0.812807
vt 0.438665 0.812807
vt 0.438665 0.750368
vt 0.438419 0.562316
vt 0.438419 0.687193
vt 0.375980 0.687193
vt 0.375980 0.655974
vt 0.375980 0.562316
vt 0.874508 0.499632
vt 0.499876 0.499632
vt 0.499876 0.062561
vt 0.562315 0.062561
vt 0.562315 0.000123
vt 0.812071 0.000123
vt 0.812071 0.062561
vt 0.874508 0.062561
vt 0.874508 0.343535
vt 0.812071 0.312316
vt 0.843290 0.312316
vt 0.843290 0.249877
vt 0.780851 0.249877
vt 0.780851 0.312316
vt 0.780851 0.374755
vt 0.874508 0.374755
vt 0.438419 0.687438
vt 0.438419 0.781096
vt 0.438419 0.812316
vt 0.375980 0.812316
vt 0.375980 0.687438
vt 0.687439 0.937193
vt 0.687439 0.999632
vt 0.625000 0.999632
vt 0.625000 0.937193
vt 0.937439 0.250368
vt 0.999878 0.250368
vt 0.999878 0.312806
vt 0.937439 0.312806
vt 0.750368 0.937193
vt 0.812806 0.937193
vt 0.812806 0.999632
vt 0.750368 0.999632
vt 0.313297 0.874755
vt 0.313297 0.812316
vt 0.375735 0.812316
vt 0.375735 0.937194
vt 0.313297 0.937194
vt 0.469884 0.687684
vt 0.469884 0.750123
vt 0.438665 0.750123
vt 0.438665 0.687684
vt 0.875490 0.937193
vt 0.875490 0.999632
vt 0.813051 0.999632
vt 0.813051 0.937193
vt 0.625000 0.499877
vt 0.749877 0.499877
vt 0.749877 0.936948
vt 0.625000 0.936948
vt 0.499877 0.999387
vt 0.499877 0.936948
vt 0.562316 0.936948
vt 0.562316 0.562316
vt 0.499877 0.562316
vt 0.499877 0.499878
vt 0.624755 0.499878
vt 0.624755 0.999387
vt 0.000122 0.968658
vt 0.000122 0.937439
vt 0.062561 0.937439
vt 0.062561 0.999877
vt 0.000122 0.999877
vt 0.375981 0.812561
vt 0.438419 0.812561
vt 0.438419 0.875000
vt 0.438419 0.937438
vt 0.375980 0.937438
vt 0.313052 0.812071
vt 0.250613 0.812071
vt 0.250613 0.562315
vt 0.313052 0.562315
vt 0.999878 0.062561
vt 0.999878 0.125000
vt 0.937439 0.125000
vt 0.937439 0.000123
vt 0.999878 0.000123
vt 0.438665 0.562315
vt 0.469884 0.562315
vt 0.469884 0.624754
vt 0.438665 0.624754
vt 0.937439 0.250123
vt 0.937439 0.187684
vt 0.937439 0.125245
vt 0.999878 0.125245
vt 0.999878 0.250123
vn 0.0000 -0.0000 1.0000
vn 0.0000 -1.0000 0.0000
vn -1.0000 0.0000 0.0000
vn 1.0000 0.0000 0.0000
vn 0.0000 1.0000 0.0000
vn 0.0000 0.0000 -1.0000
usemtl Tower_Door
s off
f 45/1/1 6/2/1 18/3/1 46/4/1
f 36/5/2 3/6/2 2/7/2 37/8/2 28/9/2
f 20/10/3 44/11/3 47/12/3 31/13/3
f 21/14/4 25/15/4 8/16/4 9/17/4 11/18/4 38/19/4 10/20/4
f 14/21/2 45/22/2 39/23/2 30/24/2 7/25/2
f 15/26/4 17/27/4 16/28/4 45/29/4 14/30/4
f 12/31/4 40/32/4 13/33/4 22/34/4
f 21/35/1 10/36/1 44/37/1 20/38/1
f 50/39/1 13/40/1 23/41/1 24/42/1
f 50/43/5 24/44/5 34/45/5 32/46/5
f 31/47/6 47/48/6 48/49/6 1/50/6 4/51/6 32/52/6 34/53/6 33/54/6 17/55/6 15/56/6 19/57/6 35/58/6
f 7/59/3 5/60/3 6/61/3 45/62/3 14/63/3
f 48/64/3 38/65/3 10/66/3 49/67/3 1/68/3
f 28/69/4 29/70/4 43/71/4 36/72/4
f 47/73/5 44/74/5 10/75/5 38/76/5 48/77/5
f 25/78/1 5/79/1 7/80/1 30/81/1 41/82/1 40/83/1 12/84/1 11/85/1 9/86/1 37/87/1 2/88/1 26/89/1 29/90/1 28/91/1 27/92/1 8/93/1
f 15/94/5 14/95/5 45/96/5 46/97/5 19/98/5
f 43/99/1 42/100/1 3/101/1 36/102/1
f 16/103/1 23/104/1 39/105/1 45/106/1
f 41/107/3 30/108/3 39/109/3 23/110/3
f 41/111/4 33/112/4 34/113/4 24/114/4 23/115/4
f 26/116/3 2/117/3 3/118/3 42/119/3
f 49/120/1 10/121/1 22/122/1 13/123/1
f 18/124/4 35/125/4 19/126/4 46/127/4
f 18/128/2 6/129/2 5/130/2 25/131/2 21/132/2 20/133/2 31/134/2 35/135/2
f 38/136/2 11/137/2 12/138/2 22/139/2 10/140/2
f 32/141/3 4/142/3 40/143/3 13/144/3 50/145/3
f 41/146/2 23/147/2 13/148/2 40/149/2
f 41/150/5 23/151/5 16/152/5 17/153/5 33/154/5
f 43/155/5 29/156/5 26/157/5 42/158/5
f 13/159/5 40/160/5 4/161/5 1/162/5 49/163/5
f 37/87/1 9/86/1 8/93/1 27/92/1 28/91/1
