# MagicaVoxel @ Ephtracy

# group
o 

# material
mtllib Playground_Sandbox_Edge_04.mtl
usemtl palette

# normals
vn 0 0 1
vn 0 0 -1
vn 1 0 0
vn -1 0 0
vn 0 -1 0
vn 0 1 0

# texcoords
vt 0.630859 0.5
vt 0.634766 0.5
vt 0.638672 0.5
vt 0.642578 0.5

# verts
v 0.6 0 0.2
v 0.1 0 0.2
v 0.6 0.2 0.2
v 0.1 0.2 0.2
v 0.8 0 0.1
v 0.6 0 0.1
v 0.1 0 0.1
v -0.2 0 0.1
v -0.5 0 0.1
v -0.8 0 0.1
v 0.8 0.2 0.1
v 0.6 0.2 0.1
v 0.1 0.2 0.1
v -0.2 0.2 0.1
v -0.5 0.2 0.1
v -0.8 0.2 0.1
v -0.2 0 0
v -0.5 0 0
v -0.2 0.2 0
v -0.5 0.2 0
v 0.5 0.1 0
v 0.3 0.1 0
v 0.2 0.1 0
v 0.5 0.2 0
v 0.2 0.2 0
v 0.8 0.1 -0.1
v 0.7 0.1 -0.1
v 0.6 0.1 -0.1
v 0.5 0.1 -0.1
v 0.2 0.1 -0.1
v 0.1 0.1 -0.1
v 0 0.1 -0.1
v -0.1 0.1 -0.1
v -0.6 0.1 -0.1
v -0.8 0.1 -0.1
v 0.8 0.2 -0.1
v 0.5 0.2 -0.1
v 0.2 0.2 -0.1
v -0.1 0.2 -0.1
v -0.6 0.2 -0.1
v -0.8 0.2 -0.1
v -0.1 0.1 -0.2
v -0.2 0.1 -0.2
v -0.5 0.1 -0.2
v -0.6 0.1 -0.2
v -0.1 0.2 -0.2
v -0.6 0.2 -0.2
v 0.8 0 -0.8
v 0.7 0 -0.8
v 0.6 0 -0.8
v 0.4 0 -0.8
v 0.3 0 -0.8
v 0.2 0 -0.8
v 0.1 0 -0.8
v 0 0 -0.8
v -0.1 0 -0.8
v -0.2 0 -0.8
v -0.4 0 -0.8
v -0.5 0 -0.8
v -0.8 0 -0.8
v 0.8 0.1 -0.8
v 0.7 0.1 -0.8
v 0.6 0.1 -0.8
v 0.4 0.1 -0.8
v 0.3 0.1 -0.8
v 0.2 0.1 -0.8
v 0.1 0.1 -0.8
v 0 0.1 -0.8
v -0.1 0.1 -0.8
v -0.2 0.1 -0.8
v -0.4 0.1 -0.8
v -0.5 0.1 -0.8
v -0.8 0.1 -0.8
v 0.8 0 0.1
v 0.8 0.2 0.1
v 0.8 0 -0.1
v 0.8 0.1 -0.1
v 0.8 0.2 -0.1
v 0.8 0 -0.5
v 0.8 0.1 -0.5
v 0.8 0 -0.6
v 0.8 0.1 -0.6
v 0.8 0 -0.7
v 0.8 0.1 -0.7
v 0.8 0 -0.8
v 0.8 0.1 -0.8
v 0.6 0 0.2
v 0.6 0.2 0.2
v 0.6 0 0.1
v 0.6 0.2 0.1
v 0.2 0.1 0
v 0.2 0.2 0
v 0.2 0.1 -0.1
v 0.2 0.2 -0.1
v -0.1 0.1 -0.1
v -0.1 0.2 -0.1
v -0.1 0.1 -0.2
v -0.1 0.2 -0.2
v -0.5 0 0.1
v -0.5 0.2 0.1
v -0.5 0 0
v -0.5 0.2 0
v 0.5 0.1 0
v 0.5 0.2 0
v 0.5 0.1 -0.1
v 0.5 0.2 -0.1
v 0.1 0 0.2
v 0.1 0.2 0.2
v 0.1 0 0.1
v 0.1 0.2 0.1
v -0.2 0 0.1
v -0.2 0.2 0.1
v -0.2 0 0
v -0.2 0.2 0
v -0.6 0.1 -0.1
v -0.6 0.2 -0.1
v -0.6 0.1 -0.2
v -0.6 0.2 -0.2
v -0.8 0 0.1
v -0.8 0.2 0.1
v -0.8 0 -0.1
v -0.8 0.1 -0.1
v -0.8 0.2 -0.1
v -0.8 0 -0.2
v -0.8 0.1 -0.2
v -0.8 0 -0.3
v -0.8 0.1 -0.3
v -0.8 0 -0.4
v -0.8 0.1 -0.4
v -0.8 0 -0.5
v -0.8 0.1 -0.5
v -0.8 0 -0.7
v -0.8 0.1 -0.7
v -0.8 0 -0.8
v -0.8 0.1 -0.8
v 0.8 0 0.1
v 0.8 0 -0.1
v 0.8 0 -0.5
v 0.8 0 -0.6
v 0.8 0 -0.7
v 0.8 0 -0.8
v 0.7 0 -0.1
v 0.7 0 -0.2
v 0.7 0 -0.3
v 0.7 0 -0.4
v 0.7 0 -0.5
v 0.7 0 -0.6
v 0.7 0 -0.7
v 0.7 0 -0.8
v 0.6 0 0.2
v 0.6 0 0.1
v 0.6 0 -0.1
v 0.6 0 -0.2
v 0.6 0 -0.6
v 0.6 0 -0.7
v 0.6 0 -0.8
v 0.5 0 0
v 0.5 0 -0.1
v 0.5 0 -0.2
v 0.5 0 -0.3
v 0.5 0 -0.4
v 0.5 0 -0.5
v 0.4 0 -0.1
v 0.4 0 -0.2
v 0.4 0 -0.3
v 0.4 0 -0.4
v 0.4 0 -0.7
v 0.4 0 -0.8
v 0.3 0 0
v 0.3 0 -0.2
v 0.3 0 -0.3
v 0.3 0 -0.5
v 0.3 0 -0.6
v 0.3 0 -0.7
v 0.3 0 -0.8
v 0.2 0 0
v 0.2 0 -0.1
v 0.2 0 -0.2
v 0.2 0 -0.3
v 0.2 0 -0.5
v 0.2 0 -0.6
v 0.2 0 -0.7
v 0.2 0 -0.8
v 0.1 0 0.2
v 0.1 0 0.1
v 0.1 0 -0.1
v 0.1 0 -0.2
v 0.1 0 -0.4
v 0.1 0 -0.5
v 0.1 0 -0.6
v 0.1 0 -0.8
v 0 0 -0.1
v 0 0 -0.2
v 0 0 -0.3
v 0 0 -0.4
v 0 0 -0.5
v 0 0 -0.6
v 0 0 -0.7
v 0 0 -0.8
v -0.1 0 -0.1
v -0.1 0 -0.2
v -0.1 0 -0.3
v -0.1 0 -0.4
v -0.1 0 -0.5
v -0.1 0 -0.6
v -0.1 0 -0.7
v -0.1 0 -0.8
v -0.2 0 0.1
v -0.2 0 0
v -0.2 0 -0.2
v -0.2 0 -0.3
v -0.2 0 -0.4
v -0.2 0 -0.5
v -0.2 0 -0.6
v -0.2 0 -0.7
v -0.2 0 -0.8
v -0.3 0 -0.6
v -0.3 0 -0.7
v -0.4 0 -0.3
v -0.4 0 -0.4
v -0.4 0 -0.5
v -0.4 0 -0.6
v -0.4 0 -0.8
v -0.5 0 0.1
v -0.5 0 0
v -0.5 0 -0.2
v -0.5 0 -0.3
v -0.5 0 -0.5
v -0.5 0 -0.7
v -0.5 0 -0.8
v -0.6 0 -0.1
v -0.6 0 -0.2
v -0.6 0 -0.3
v -0.6 0 -0.5
v -0.6 0 -0.7
v -0.7 0 -0.2
v -0.7 0 -0.3
v -0.7 0 -0.4
v -0.7 0 -0.5
v -0.7 0 -0.7
v -0.8 0 0.1
v -0.8 0 -0.1
v -0.8 0 -0.2
v -0.8 0 -0.3
v -0.8 0 -0.4
v -0.8 0 -0.5
v -0.8 0 -0.7
v -0.8 0 -0.8
v 0.8 0.1 -0.1
v 0.8 0.1 -0.5
v 0.8 0.1 -0.6
v 0.8 0.1 -0.7
v 0.8 0.1 -0.8
v 0.7 0.1 -0.1
v 0.7 0.1 -0.2
v 0.7 0.1 -0.3
v 0.7 0.1 -0.4
v 0.7 0.1 -0.5
v 0.7 0.1 -0.6
v 0.7 0.1 -0.7
v 0.7 0.1 -0.8
v 0.6 0.1 -0.1
v 0.6 0.1 -0.2
v 0.6 0.1 -0.6
v 0.6 0.1 -0.7
v 0.6 0.1 -0.8
v 0.5 0.1 0
v 0.5 0.1 -0.1
v 0.5 0.1 -0.2
v 0.5 0.1 -0.3
v 0.5 0.1 -0.4
v 0.5 0.1 -0.5
v 0.4 0.1 -0.1
v 0.4 0.1 -0.2
v 0.4 0.1 -0.3
v 0.4 0.1 -0.4
v 0.4 0.1 -0.7
v 0.4 0.1 -0.8
v 0.3 0.1 0
v 0.3 0.1 -0.2
v 0.3 0.1 -0.3
v 0.3 0.1 -0.5
v 0.3 0.1 -0.6
v 0.3 0.1 -0.7
v 0.3 0.1 -0.8
v 0.2 0.1 0
v 0.2 0.1 -0.1
v 0.2 0.1 -0.2
v 0.2 0.1 -0.3
v 0.2 0.1 -0.5
v 0.2 0.1 -0.6
v 0.2 0.1 -0.7
v 0.2 0.1 -0.8
v 0.1 0.1 -0.1
v 0.1 0.1 -0.2
v 0.1 0.1 -0.4
v 0.1 0.1 -0.5
v 0.1 0.1 -0.6
v 0.1 0.1 -0.8
v 0 0.1 -0.1
v 0 0.1 -0.2
v 0 0.1 -0.3
v 0 0.1 -0.4
v 0 0.1 -0.5
v 0 0.1 -0.6
v 0 0.1 -0.7
v 0 0.1 -0.8
v -0.1 0.1 -0.1
v -0.1 0.1 -0.2
v -0.1 0.1 -0.3
v -0.1 0.1 -0.4
v -0.1 0.1 -0.5
v -0.1 0.1 -0.6
v -0.1 0.1 -0.7
v -0.1 0.1 -0.8
v -0.2 0.1 -0.2
v -0.2 0.1 -0.3
v -0.2 0.1 -0.4
v -0.2 0.1 -0.5
v -0.2 0.1 -0.6
v -0.2 0.1 -0.7
v -0.2 0.1 -0.8
v -0.3 0.1 -0.6
v -0.3 0.1 -0.7
v -0.4 0.1 -0.3
v -0.4 0.1 -0.4
v -0.4 0.1 -0.5
v -0.4 0.1 -0.6
v -0.4 0.1 -0.8
v -0.5 0.1 -0.2
v -0.5 0.1 -0.3
v -0.5 0.1 -0.5
v -0.5 0.1 -0.7
v -0.5 0.1 -0.8
v -0.6 0.1 -0.1
v -0.6 0.1 -0.2
v -0.6 0.1 -0.3
v -0.6 0.1 -0.5
v -0.6 0.1 -0.7
v -0.7 0.1 -0.2
v -0.7 0.1 -0.3
v -0.7 0.1 -0.4
v -0.7 0.1 -0.5
v -0.7 0.1 -0.7
v -0.8 0.1 -0.1
v -0.8 0.1 -0.2
v -0.8 0.1 -0.3
v -0.8 0.1 -0.4
v -0.8 0.1 -0.5
v -0.8 0.1 -0.7
v -0.8 0.1 -0.8
v 0.8 0.2 0.1
v 0.8 0.2 -0.1
v 0.6 0.2 0.2
v 0.6 0.2 0.1
v 0.5 0.2 0
v 0.5 0.2 -0.1
v 0.2 0.2 0
v 0.2 0.2 -0.1
v 0.1 0.2 0.2
v 0.1 0.2 0.1
v -0.1 0.2 -0.1
v -0.1 0.2 -0.2
v -0.2 0.2 0.1
v -0.2 0.2 0
v -0.5 0.2 0.1
v -0.5 0.2 0
v -0.6 0.2 -0.1
v -0.6 0.2 -0.2
v -0.8 0.2 0.1
v -0.8 0.2 -0.1

# faces
f 3/4/1 2/4/1 1/4/1
f 4/4/1 2/4/1 3/4/1
f 11/4/1 6/4/1 5/4/1
f 12/4/1 6/4/1 11/4/1
f 13/4/1 8/4/1 7/4/1
f 14/4/1 8/4/1 13/4/1
f 15/4/1 10/4/1 9/4/1
f 16/4/1 10/4/1 15/4/1
f 19/4/1 18/4/1 17/4/1
f 20/4/1 18/4/1 19/4/1
f 21/4/2 22/4/2 24/4/2
f 22/4/2 23/4/2 24/4/2
f 24/4/2 23/4/2 25/4/2
f 26/4/2 27/4/2 36/4/2
f 27/4/2 28/4/2 36/4/2
f 28/4/2 29/4/2 36/4/2
f 36/4/2 29/4/2 37/4/2
f 32/4/2 33/4/2 38/4/2
f 31/4/2 32/4/2 38/4/2
f 30/4/2 31/4/2 38/4/2
f 38/4/2 33/4/2 39/4/2
f 34/4/2 35/4/2 40/4/2
f 40/4/2 35/4/2 41/4/2
f 42/4/2 43/4/2 46/4/2
f 44/4/2 45/4/2 46/4/2
f 43/4/2 44/4/2 46/4/2
f 46/4/2 45/4/2 47/4/2
f 48/1/2 49/1/2 61/1/2
f 49/2/2 50/2/2 62/2/2
f 61/1/2 49/1/2 62/1/2
f 50/1/2 51/1/2 63/1/2
f 62/2/2 50/2/2 63/2/2
f 51/3/2 52/3/2 64/3/2
f 63/1/2 51/1/2 64/1/2
f 52/1/2 53/1/2 65/1/2
f 64/3/2 52/3/2 65/3/2
f 53/3/2 54/3/2 66/3/2
f 65/1/2 53/1/2 66/1/2
f 54/1/2 55/1/2 67/1/2
f 66/3/2 54/3/2 67/3/2
f 55/2/2 56/2/2 68/2/2
f 67/1/2 55/1/2 68/1/2
f 56/3/2 57/3/2 69/3/2
f 68/2/2 56/2/2 69/2/2
f 57/2/2 58/2/2 70/2/2
f 69/3/2 57/3/2 70/3/2
f 58/1/2 59/1/2 71/1/2
f 70/2/2 58/2/2 71/2/2
f 59/2/2 60/2/2 72/2/2
f 71/1/2 59/1/2 72/1/2
f 72/2/2 60/2/2 73/2/2
f 76/4/3 75/4/3 74/4/3
f 77/4/3 75/4/3 76/4/3
f 78/4/3 75/4/3 77/4/3
f 79/3/3 77/3/3 76/3/3
f 80/3/3 77/3/3 79/3/3
f 81/1/3 80/1/3 79/1/3
f 82/1/3 80/1/3 81/1/3
f 83/2/3 82/2/3 81/2/3
f 84/2/3 82/2/3 83/2/3
f 85/1/3 84/1/3 83/1/3
f 86/1/3 84/1/3 85/1/3
f 89/4/3 88/4/3 87/4/3
f 90/4/3 88/4/3 89/4/3
f 93/4/3 92/4/3 91/4/3
f 94/4/3 92/4/3 93/4/3
f 97/4/3 96/4/3 95/4/3
f 98/4/3 96/4/3 97/4/3
f 101/4/3 100/4/3 99/4/3
f 102/4/3 100/4/3 101/4/3
f 103/4/4 104/4/4 105/4/4
f 105/4/4 104/4/4 106/4/4
f 107/4/4 108/4/4 109/4/4
f 109/4/4 108/4/4 110/4/4
f 111/4/4 112/4/4 113/4/4
f 113/4/4 112/4/4 114/4/4
f 115/4/4 116/4/4 117/4/4
f 117/4/4 116/4/4 118/4/4
f 119/4/4 120/4/4 121/4/4
f 121/4/4 120/4/4 122/4/4
f 122/4/4 120/4/4 123/4/4
f 121/1/4 122/1/4 124/1/4
f 124/1/4 122/1/4 125/1/4
f 124/3/4 125/3/4 126/3/4
f 126/3/4 125/3/4 127/3/4
f 126/2/4 127/2/4 128/2/4
f 128/2/4 127/2/4 129/2/4
f 128/1/4 129/1/4 130/1/4
f 130/1/4 129/1/4 131/1/4
f 130/3/4 131/3/4 132/3/4
f 132/3/4 131/3/4 133/3/4
f 132/2/4 133/2/4 134/2/4
f 134/2/4 133/2/4 135/2/4
f 142/4/5 137/4/5 136/4/5
f 142/3/5 138/3/5 137/3/5
f 143/3/5 138/3/5 142/3/5
f 144/3/5 138/3/5 143/3/5
f 145/3/5 138/3/5 144/3/5
f 146/1/5 139/1/5 138/1/5
f 146/3/5 138/3/5 145/3/5
f 147/2/5 140/2/5 139/2/5
f 147/1/5 139/1/5 146/1/5
f 148/1/5 141/1/5 140/1/5
f 148/2/5 140/2/5 147/2/5
f 149/1/5 141/1/5 148/1/5
f 151/4/5 142/4/5 136/4/5
f 152/2/5 143/2/5 142/2/5
f 152/4/5 142/4/5 151/4/5
f 153/3/5 144/3/5 143/3/5
f 153/2/5 143/2/5 152/2/5
f 154/2/5 147/2/5 146/2/5
f 154/1/5 148/1/5 147/1/5
f 155/2/5 149/2/5 148/2/5
f 155/1/5 148/1/5 154/1/5
f 156/2/5 149/2/5 155/2/5
f 157/4/5 151/4/5 150/4/5
f 157/4/5 152/4/5 151/4/5
f 158/3/5 153/3/5 152/3/5
f 158/4/5 152/4/5 157/4/5
f 159/3/5 144/3/5 153/3/5
f 159/3/5 153/3/5 158/3/5
f 160/2/5 145/2/5 144/2/5
f 160/3/5 144/3/5 159/3/5
f 161/3/5 146/3/5 145/3/5
f 161/2/5 145/2/5 160/2/5
f 162/2/5 154/2/5 146/2/5
f 162/3/5 146/3/5 161/3/5
f 163/3/5 158/3/5 157/3/5
f 163/2/5 159/2/5 158/2/5
f 164/3/5 160/3/5 159/3/5
f 164/2/5 159/2/5 163/2/5
f 165/1/5 161/1/5 160/1/5
f 165/3/5 160/3/5 164/3/5
f 166/2/5 162/2/5 161/2/5
f 166/1/5 161/1/5 165/1/5
f 167/1/5 156/1/5 155/1/5
f 167/3/5 155/3/5 154/3/5
f 168/1/5 156/1/5 167/1/5
f 169/3/5 163/3/5 157/3/5
f 169/3/5 165/3/5 164/3/5
f 169/4/5 157/4/5 150/4/5
f 169/3/5 164/3/5 163/3/5
f 170/3/5 165/3/5 169/3/5
f 171/2/5 166/2/5 165/2/5
f 171/3/5 165/3/5 170/3/5
f 172/2/5 154/2/5 162/2/5
f 172/2/5 166/2/5 171/2/5
f 172/2/5 162/2/5 166/2/5
f 173/3/5 168/3/5 167/3/5
f 173/2/5 154/2/5 172/2/5
f 173/3/5 167/3/5 154/3/5
f 174/3/5 168/3/5 173/3/5
f 175/3/5 168/3/5 174/3/5
f 176/4/5 169/4/5 150/4/5
f 176/1/5 170/1/5 169/1/5
f 177/1/5 170/1/5 176/1/5
f 178/2/5 171/2/5 170/2/5
f 178/1/5 170/1/5 177/1/5
f 178/2/5 172/2/5 171/2/5
f 179/2/5 172/2/5 178/2/5
f 180/1/5 173/1/5 172/1/5
f 180/2/5 172/2/5 179/2/5
f 181/3/5 174/3/5 173/3/5
f 181/1/5 173/1/5 180/1/5
f 182/1/5 175/1/5 174/1/5
f 182/3/5 174/3/5 181/3/5
f 183/1/5 175/1/5 182/1/5
f 184/4/5 177/4/5 176/4/5
f 184/4/5 176/4/5 150/4/5
f 185/4/5 177/4/5 184/4/5
f 186/1/5 178/1/5 177/1/5
f 186/4/5 177/4/5 185/4/5
f 187/3/5 179/3/5 178/3/5
f 187/1/5 178/1/5 186/1/5
f 188/1/5 180/1/5 179/1/5
f 189/2/5 181/2/5 180/2/5
f 189/1/5 180/1/5 188/1/5
f 190/3/5 183/3/5 182/3/5
f 190/2/5 181/2/5 189/2/5
f 190/3/5 182/3/5 181/3/5
f 191/3/5 183/3/5 190/3/5
f 192/4/5 186/4/5 185/4/5
f 192/3/5 187/3/5 186/3/5
f 193/3/5 179/3/5 187/3/5
f 193/3/5 187/3/5 192/3/5
f 194/1/5 188/1/5 179/1/5
f 194/3/5 179/3/5 193/3/5
f 195/3/5 189/3/5 188/3/5
f 195/1/5 188/1/5 194/1/5
f 195/3/5 190/3/5 189/3/5
f 196/3/5 190/3/5 195/3/5
f 197/1/5 191/1/5 190/1/5
f 197/3/5 190/3/5 196/3/5
f 198/1/5 191/1/5 197/1/5
f 199/1/5 191/1/5 198/1/5
f 200/2/5 193/2/5 192/2/5
f 200/4/5 192/4/5 185/4/5
f 201/1/5 194/1/5 193/1/5
f 201/2/5 193/2/5 200/2/5
f 202/2/5 195/2/5 194/2/5
f 202/1/5 194/1/5 201/1/5
f 203/1/5 196/1/5 195/1/5
f 203/2/5 195/2/5 202/2/5
f 204/2/5 197/2/5 196/2/5
f 204/1/5 196/1/5 203/1/5
f 205/1/5 198/1/5 197/1/5
f 205/2/5 197/2/5 204/2/5
f 206/2/5 199/2/5 198/2/5
f 206/1/5 198/1/5 205/1/5
f 207/2/5 199/2/5 206/2/5
f 208/4/5 200/4/5 185/4/5
f 208/4/5 201/4/5 200/4/5
f 209/4/5 201/4/5 208/4/5
f 210/3/5 202/3/5 201/3/5
f 210/4/5 201/4/5 209/4/5
f 211/2/5 203/2/5 202/2/5
f 211/3/5 202/3/5 210/3/5
f 212/3/5 204/3/5 203/3/5
f 212/2/5 203/2/5 211/2/5
f 213/1/5 205/1/5 204/1/5
f 213/3/5 204/3/5 212/3/5
f 214/2/5 206/2/5 205/2/5
f 214/1/5 205/1/5 213/1/5
f 215/3/5 207/3/5 206/3/5
f 215/2/5 206/2/5 214/2/5
f 216/3/5 207/3/5 215/3/5
f 217/3/5 214/3/5 213/3/5
f 217/1/5 215/1/5 214/1/5
f 218/2/5 216/2/5 215/2/5
f 218/1/5 215/1/5 217/1/5
f 219/1/5 212/1/5 211/1/5
f 219/1/5 211/1/5 210/1/5
f 220/2/5 213/2/5 212/2/5
f 220/1/5 212/1/5 219/1/5
f 221/3/5 217/3/5 213/3/5
f 221/2/5 213/2/5 220/2/5
f 222/2/5 218/2/5 217/2/5
f 222/3/5 217/3/5 221/3/5
f 223/2/5 216/2/5 218/2/5
f 223/2/5 218/2/5 222/2/5
f 225/4/5 210/4/5 209/4/5
f 226/1/5 219/1/5 210/1/5
f 226/4/5 210/4/5 225/4/5
f 227/3/5 220/3/5 219/3/5
f 227/1/5 219/1/5 226/1/5
f 227/3/5 221/3/5 220/3/5
f 228/1/5 222/1/5 221/1/5
f 228/3/5 221/3/5 227/3/5
f 228/1/5 223/1/5 222/1/5
f 229/1/5 223/1/5 228/1/5
f 230/1/5 223/1/5 229/1/5
f 231/4/5 226/4/5 225/4/5
f 231/4/5 225/4/5 224/4/5
f 232/2/5 227/2/5 226/2/5
f 232/4/5 226/4/5 231/4/5
f 233/1/5 228/1/5 227/1/5
f 233/2/5 227/2/5 232/2/5
f 234/3/5 229/3/5 228/3/5
f 234/1/5 228/1/5 233/1/5
f 235/2/5 230/2/5 229/2/5
f 235/3/5 229/3/5 234/3/5
f 236/1/5 234/1/5 233/1/5
f 236/1/5 232/1/5 231/1/5
f 236/1/5 235/1/5 234/1/5
f 236/1/5 233/1/5 232/1/5
f 237/1/5 235/1/5 236/1/5
f 238/1/5 235/1/5 237/1/5
f 239/1/5 235/1/5 238/1/5
f 240/2/5 230/2/5 235/2/5
f 240/1/5 235/1/5 239/1/5
f 241/4/5 231/4/5 224/4/5
f 242/1/5 236/1/5 231/1/5
f 242/4/5 231/4/5 241/4/5
f 243/3/5 237/3/5 236/3/5
f 243/1/5 236/1/5 242/1/5
f 244/2/5 238/2/5 237/2/5
f 244/3/5 237/3/5 243/3/5
f 245/1/5 239/1/5 238/1/5
f 245/2/5 238/2/5 244/2/5
f 246/3/5 240/3/5 239/3/5
f 246/1/5 239/1/5 245/1/5
f 247/2/5 230/2/5 240/2/5
f 247/3/5 240/3/5 246/3/5
f 248/2/5 230/2/5 247/2/5
f 249/3/6 250/3/6 254/3/6
f 254/3/6 250/3/6 255/3/6
f 255/3/6 250/3/6 256/3/6
f 256/3/6 250/3/6 257/3/6
f 250/1/6 251/1/6 258/1/6
f 257/3/6 250/3/6 258/3/6
f 251/2/6 252/2/6 259/2/6
f 258/1/6 251/1/6 259/1/6
f 252/1/6 253/1/6 260/1/6
f 259/2/6 252/2/6 260/2/6
f 260/1/6 253/1/6 261/1/6
f 254/2/6 255/2/6 262/2/6
f 255/3/6 256/3/6 263/3/6
f 262/2/6 255/2/6 263/2/6
f 258/2/6 259/2/6 264/2/6
f 259/1/6 260/1/6 264/1/6
f 260/2/6 261/2/6 265/2/6
f 264/1/6 260/1/6 265/1/6
f 265/2/6 261/2/6 266/2/6
f 262/3/6 263/3/6 268/3/6
f 263/3/6 256/3/6 269/3/6
f 268/3/6 263/3/6 269/3/6
f 256/2/6 257/2/6 270/2/6
f 269/3/6 256/3/6 270/3/6
f 257/3/6 258/3/6 271/3/6
f 270/2/6 257/2/6 271/2/6
f 258/2/6 264/2/6 272/2/6
f 271/3/6 258/3/6 272/3/6
f 267/3/6 268/3/6 273/3/6
f 268/2/6 269/2/6 273/2/6
f 269/3/6 270/3/6 274/3/6
f 273/2/6 269/2/6 274/2/6
f 270/1/6 271/1/6 275/1/6
f 274/3/6 270/3/6 275/3/6
f 271/2/6 272/2/6 276/2/6
f 275/1/6 271/1/6 276/1/6
f 264/3/6 265/3/6 277/3/6
f 265/1/6 266/1/6 277/1/6
f 277/1/6 266/1/6 278/1/6
f 274/3/6 275/3/6 279/3/6
f 267/3/6 273/3/6 279/3/6
f 273/3/6 274/3/6 279/3/6
f 279/3/6 275/3/6 280/3/6
f 275/2/6 276/2/6 281/2/6
f 280/3/6 275/3/6 281/3/6
f 272/2/6 264/2/6 282/2/6
f 281/2/6 276/2/6 282/2/6
f 276/2/6 272/2/6 282/2/6
f 277/3/6 278/3/6 283/3/6
f 282/2/6 264/2/6 283/2/6
f 264/3/6 277/3/6 283/3/6
f 283/3/6 278/3/6 284/3/6
f 284/3/6 278/3/6 285/3/6
f 279/1/6 280/1/6 286/1/6
f 286/1/6 280/1/6 287/1/6
f 280/2/6 281/2/6 288/2/6
f 287/1/6 280/1/6 288/1/6
f 281/2/6 282/2/6 288/2/6
f 288/2/6 282/2/6 289/2/6
f 282/1/6 283/1/6 290/1/6
f 289/2/6 282/2/6 290/2/6
f 283/3/6 284/3/6 291/3/6
f 290/1/6 283/1/6 291/1/6
f 284/1/6 285/1/6 292/1/6
f 291/3/6 284/3/6 292/3/6
f 292/1/6 285/1/6 293/1/6
f 287/1/6 288/1/6 294/1/6
f 288/3/6 289/3/6 295/3/6
f 294/1/6 288/1/6 295/1/6
f 289/1/6 290/1/6 296/1/6
f 290/2/6 291/2/6 297/2/6
f 296/1/6 290/1/6 297/1/6
f 292/3/6 293/3/6 298/3/6
f 297/2/6 291/2/6 298/2/6
f 291/3/6 292/3/6 298/3/6
f 298/3/6 293/3/6 299/3/6
f 294/3/6 295/3/6 300/3/6
f 295/3/6 289/3/6 301/3/6
f 300/3/6 295/3/6 301/3/6
f 289/1/6 296/1/6 302/1/6
f 301/3/6 289/3/6 302/3/6
f 296/3/6 297/3/6 303/3/6
f 302/1/6 296/1/6 303/1/6
f 297/3/6 298/3/6 303/3/6
f 303/3/6 298/3/6 304/3/6
f 298/1/6 299/1/6 305/1/6
f 304/3/6 298/3/6 305/3/6
f 305/1/6 299/1/6 306/1/6
f 306/1/6 299/1/6 307/1/6
f 300/2/6 301/2/6 308/2/6
f 301/1/6 302/1/6 309/1/6
f 308/2/6 301/2/6 309/2/6
f 302/2/6 303/2/6 310/2/6
f 309/1/6 302/1/6 310/1/6
f 303/1/6 304/1/6 311/1/6
f 310/2/6 303/2/6 311/2/6
f 304/2/6 305/2/6 312/2/6
f 311/1/6 304/1/6 312/1/6
f 305/1/6 306/1/6 313/1/6
f 312/2/6 305/2/6 313/2/6
f 306/2/6 307/2/6 314/2/6
f 313/1/6 306/1/6 314/1/6
f 314/2/6 307/2/6 315/2/6
f 309/3/6 310/3/6 316/3/6
f 310/2/6 311/2/6 317/2/6
f 316/3/6 310/3/6 317/3/6
f 311/3/6 312/3/6 318/3/6
f 317/2/6 311/2/6 318/2/6
f 312/1/6 313/1/6 319/1/6
f 318/3/6 312/3/6 319/3/6
f 313/2/6 314/2/6 320/2/6
f 319/1/6 313/1/6 320/1/6
f 314/3/6 315/3/6 321/3/6
f 320/2/6 314/2/6 321/2/6
f 321/3/6 315/3/6 322/3/6
f 319/3/6 320/3/6 323/3/6
f 320/1/6 321/1/6 323/1/6
f 321/2/6 322/2/6 324/2/6
f 323/1/6 321/1/6 324/1/6
f 316/1/6 317/1/6 325/1/6
f 317/1/6 318/1/6 325/1/6
f 318/2/6 319/2/6 326/2/6
f 325/1/6 318/1/6 326/1/6
f 319/3/6 323/3/6 327/3/6
f 326/2/6 319/2/6 327/2/6
f 323/2/6 324/2/6 328/2/6
f 327/3/6 323/3/6 328/3/6
f 324/2/6 322/2/6 329/2/6
f 328/2/6 324/2/6 329/2/6
f 316/1/6 325/1/6 330/1/6
f 326/3/6 327/3/6 331/3/6
f 330/1/6 325/1/6 331/1/6
f 325/3/6 326/3/6 331/3/6
f 327/1/6 328/1/6 332/1/6
f 331/3/6 327/3/6 332/3/6
f 328/1/6 329/1/6 332/1/6
f 332/1/6 329/1/6 333/1/6
f 333/1/6 329/1/6 334/1/6
f 330/2/6 331/2/6 336/2/6
f 331/1/6 332/1/6 337/1/6
f 336/2/6 331/2/6 337/2/6
f 332/3/6 333/3/6 338/3/6
f 337/1/6 332/1/6 338/1/6
f 333/2/6 334/2/6 339/2/6
f 338/3/6 333/3/6 339/3/6
f 335/1/6 336/1/6 340/1/6
f 336/1/6 337/1/6 340/1/6
f 338/1/6 339/1/6 340/1/6
f 337/1/6 338/1/6 340/1/6
f 340/1/6 339/1/6 341/1/6
f 341/1/6 339/1/6 342/1/6
f 342/1/6 339/1/6 343/1/6
f 339/2/6 334/2/6 344/2/6
f 343/1/6 339/1/6 344/1/6
f 335/1/6 340/1/6 345/1/6
f 340/3/6 341/3/6 346/3/6
f 345/1/6 340/1/6 346/1/6
f 341/2/6 342/2/6 347/2/6
f 346/3/6 341/3/6 347/3/6
f 342/1/6 343/1/6 348/1/6
f 347/2/6 342/2/6 348/2/6
f 343/3/6 344/3/6 349/3/6
f 348/1/6 343/1/6 349/1/6
f 344/2/6 334/2/6 350/2/6
f 349/3/6 344/3/6 350/3/6
f 350/2/6 334/2/6 351/2/6
f 352/4/6 353/4/6 355/4/6
f 355/4/6 353/4/6 356/4/6
f 354/4/6 355/4/6 356/4/6
f 356/4/6 353/4/6 357/4/6
f 354/4/6 356/4/6 358/4/6
f 354/4/6 358/4/6 360/4/6
f 358/4/6 359/4/6 360/4/6
f 360/4/6 359/4/6 361/4/6
f 361/4/6 359/4/6 362/4/6
f 361/4/6 362/4/6 364/4/6
f 362/4/6 363/4/6 364/4/6
f 364/4/6 363/4/6 365/4/6
f 365/4/6 363/4/6 367/4/6
f 367/4/6 363/4/6 368/4/6
f 366/4/6 367/4/6 368/4/6
f 368/4/6 363/4/6 369/4/6
f 366/4/6 368/4/6 370/4/6
f 370/4/6 368/4/6 371/4/6
