# MagicaVoxel @ Ephtracy

# group
o 

# material
mtllib Playground_Rocking_Penguin_01.mtl
usemtl palette

# normals
vn 0 0 1
vn 0 0 -1
vn 1 0 0
vn -1 0 0
vn 0 -1 0
vn 0 1 0

# texcoords
vt 0.666016 0.5
vt 0.681641 0.5
vt 0.697266 0.5
vt 0.712891 0.5
vt 0.908203 0.5
vt 0.916016 0.5

# verts
v 0 0.8 0.6
v -0.1 0.8 0.6
v 0 0.9 0.6
v -0.1 0.9 0.6
v 0 1 0.6
v -0.1 1 0.6
v 0 0.4 0.5
v -0.1 0.4 0.5
v 0.1 0.5 0.5
v 0 0.5 0.5
v -0.1 0.5 0.5
v -0.2 0.5 0.5
v 0 0.7 0.5
v -0.1 0.7 0.5
v 0 0.8 0.5
v -0.1 0.8 0.5
v 0 0.9 0.5
v -0.1 0.9 0.5
v 0 1 0.5
v -0.1 1 0.5
v 0.1 1.1 0.5
v -0.2 1.1 0.5
v 0 0.3 0.4
v -0.1 0.3 0.4
v 0.1 0.4 0.4
v 0 0.4 0.4
v -0.1 0.4 0.4
v -0.2 0.4 0.4
v 0.1 0.5 0.4
v 0 0.5 0.4
v -0.1 0.5 0.4
v -0.2 0.5 0.4
v 0.3 0.8 0.3
v 0.1 0.8 0.3
v -0.2 0.8 0.3
v -0.4 0.8 0.3
v 0.3 0.9 0.3
v 0.1 0.9 0.3
v -0.2 0.9 0.3
v -0.4 0.9 0.3
v 0.2 0.2 0.1
v 0.1 0.2 0.1
v -0.2 0.2 0.1
v -0.3 0.2 0.1
v 0.2 0.3 0.1
v 0.1 0.3 0.1
v 0 0.3 0.1
v -0.1 0.3 0.1
v -0.2 0.3 0.1
v -0.3 0.3 0.1
v 0.1 0.4 0.1
v 0 0.4 0.1
v -0.1 0.4 0.1
v -0.2 0.4 0.1
v 0 0 0
v -0.1 0 0
v 0 0.1 0
v -0.1 0.1 0
v 0 0.2 0
v -0.1 0.2 0
v 0 0.3 0
v -0.1 0.3 0
v 0.1 0.7 -0.2
v -0.2 0.7 -0.2
v 0.1 0.8 -0.2
v -0.2 0.8 -0.2
v 0 0.8 -0.4
v -0.1 0.8 -0.4
v 0 0.9 -0.4
v -0.1 0.9 -0.4
v 0.1 1 0.3
v 0 1 0.3
v -0.1 1 0.3
v -0.2 1 0.3
v 0.1 1.1 0.3
v 0 1.1 0.3
v -0.1 1.1 0.3
v -0.2 1.1 0.3
v 0.3 0.8 0.2
v 0.1 0.8 0.2
v 0 0.8 0.2
v -0.1 0.8 0.2
v -0.2 0.8 0.2
v -0.4 0.8 0.2
v 0.3 0.9 0.2
v 0.1 0.9 0.2
v -0.2 0.9 0.2
v -0.4 0.9 0.2
v 0.1 1 0.2
v 0 1 0.2
v -0.1 1 0.2
v -0.2 1 0.2
v 0 1.1 0.2
v -0.1 1.1 0.2
v 0.1 0.7 0.1
v -0.2 0.7 0.1
v 0.1 0.8 0.1
v 0 0.8 0.1
v -0.1 0.8 0.1
v -0.2 0.8 0.1
v 0 1 0.1
v -0.1 1 0.1
v 0 0 -0.1
v -0.1 0 -0.1
v 0 0.1 -0.1
v -0.1 0.1 -0.1
v 0.2 0.2 -0.1
v 0.1 0.2 -0.1
v 0 0.2 -0.1
v -0.1 0.2 -0.1
v -0.2 0.2 -0.1
v -0.3 0.2 -0.1
v 0.2 0.3 -0.1
v 0.1 0.3 -0.1
v 0 0.3 -0.1
v -0.1 0.3 -0.1
v -0.2 0.3 -0.1
v -0.3 0.3 -0.1
v 0.1 0.4 -0.1
v 0 0.4 -0.1
v -0.1 0.4 -0.1
v -0.2 0.4 -0.1
v 0 0.3 -0.3
v -0.1 0.3 -0.3
v 0.1 0.4 -0.3
v 0 0.4 -0.3
v -0.1 0.4 -0.3
v -0.2 0.4 -0.3
v 0.1 0.5 -0.3
v 0 0.5 -0.3
v -0.1 0.5 -0.3
v -0.2 0.5 -0.3
v 0 0.4 -0.4
v -0.1 0.4 -0.4
v 0.1 0.5 -0.4
v 0 0.5 -0.4
v -0.1 0.5 -0.4
v -0.2 0.5 -0.4
v 0.1 0.6 -0.4
v 0 0.6 -0.4
v -0.1 0.6 -0.4
v -0.2 0.6 -0.4
v 0 0.5 -0.5
v -0.1 0.5 -0.5
v 0.1 0.6 -0.5
v 0 0.6 -0.5
v -0.1 0.6 -0.5
v -0.2 0.6 -0.5
v 0.1 0.8 -0.5
v 0 0.8 -0.5
v -0.1 0.8 -0.5
v -0.2 0.8 -0.5
v 0 0.9 -0.5
v -0.1 0.9 -0.5
v 0 0.6 -0.6
v -0.1 0.6 -0.6
v 0 0.8 -0.6
v -0.1 0.8 -0.6
v 0.3 0.8 0.3
v 0.3 0.9 0.3
v 0.3 0.8 0.2
v 0.3 0.9 0.2
v 0.2 0.2 0.1
v 0.2 0.3 0.1
v 0.2 0.2 -0.1
v 0.2 0.3 -0.1
v 0.1 0.5 0.5
v 0.1 1.1 0.5
v 0.1 0.4 0.4
v 0.1 0.5 0.4
v 0.1 0.8 0.3
v 0.1 0.9 0.3
v 0.1 1 0.3
v 0.1 1.1 0.3
v 0.1 0.8 0.2
v 0.1 0.9 0.2
v 0.1 1 0.2
v 0.1 0.3 0.1
v 0.1 0.4 0.1
v 0.1 0.6 0.1
v 0.1 0.7 0.1
v 0.1 0.8 0.1
v 0.1 0.3 -0.1
v 0.1 0.4 -0.1
v 0.1 0.6 -0.2
v 0.1 0.7 -0.2
v 0.1 0.8 -0.2
v 0.1 0.4 -0.3
v 0.1 0.5 -0.3
v 0.1 0.7 -0.3
v 0.1 0.8 -0.3
v 0.1 0.5 -0.4
v 0.1 0.6 -0.4
v 0.1 0.6 -0.5
v 0.1 0.8 -0.5
v 0 0.8 0.6
v 0 0.9 0.6
v 0 1 0.6
v 0 0.4 0.5
v 0 0.5 0.5
v 0 0.8 0.5
v 0 0.9 0.5
v 0 1 0.5
v 0 0.3 0.4
v 0 0.4 0.4
v 0 0.5 0.4
v 0 1 0.3
v 0 1.1 0.3
v 0 0.8 0.2
v 0 1 0.2
v 0 1.1 0.2
v 0 0.3 0.1
v 0 0.4 0.1
v 0 0.8 0.1
v 0 1 0.1
v 0 0 0
v 0 0.1 0
v 0 0.2 0
v 0 0.3 0
v 0 0 -0.1
v 0 0.1 -0.1
v 0 0.2 -0.1
v 0 0.3 -0.1
v 0 0.4 -0.1
v 0 0.3 -0.3
v 0 0.4 -0.3
v 0 0.5 -0.3
v 0 0.4 -0.4
v 0 0.5 -0.4
v 0 0.6 -0.4
v 0 0.8 -0.4
v 0 0.9 -0.4
v 0 0.5 -0.5
v 0 0.6 -0.5
v 0 0.8 -0.5
v 0 0.9 -0.5
v 0 0.6 -0.6
v 0 0.8 -0.6
v -0.2 0.2 0.1
v -0.2 0.3 0.1
v -0.2 0.2 -0.1
v -0.2 0.3 -0.1
v 0.1 0.2 0.1
v 0.1 0.3 0.1
v 0.1 0.2 -0.1
v 0.1 0.3 -0.1
v -0.1 0.8 0.6
v -0.1 0.9 0.6
v -0.1 1 0.6
v -0.1 0.4 0.5
v -0.1 0.5 0.5
v -0.1 0.8 0.5
v -0.1 0.9 0.5
v -0.1 1 0.5
v -0.1 0.3 0.4
v -0.1 0.4 0.4
v -0.1 0.5 0.4
v -0.1 1 0.3
v -0.1 1.1 0.3
v -0.1 0.8 0.2
v -0.1 1 0.2
v -0.1 1.1 0.2
v -0.1 0.3 0.1
v -0.1 0.4 0.1
v -0.1 0.8 0.1
v -0.1 1 0.1
v -0.1 0 0
v -0.1 0.1 0
v -0.1 0.2 0
v -0.1 0.3 0
v -0.1 0 -0.1
v -0.1 0.1 -0.1
v -0.1 0.2 -0.1
v -0.1 0.3 -0.1
v -0.1 0.4 -0.1
v -0.1 0.3 -0.3
v -0.1 0.4 -0.3
v -0.1 0.5 -0.3
v -0.1 0.4 -0.4
v -0.1 0.5 -0.4
v -0.1 0.6 -0.4
v -0.1 0.8 -0.4
v -0.1 0.9 -0.4
v -0.1 0.5 -0.5
v -0.1 0.6 -0.5
v -0.1 0.8 -0.5
v -0.1 0.9 -0.5
v -0.1 0.6 -0.6
v -0.1 0.8 -0.6
v -0.2 0.5 0.5
v -0.2 1.1 0.5
v -0.2 0.4 0.4
v -0.2 0.5 0.4
v -0.2 0.8 0.3
v -0.2 0.9 0.3
v -0.2 1 0.3
v -0.2 1.1 0.3
v -0.2 0.8 0.2
v -0.2 0.9 0.2
v -0.2 1 0.2
v -0.2 0.3 0.1
v -0.2 0.4 0.1
v -0.2 0.6 0.1
v -0.2 0.7 0.1
v -0.2 0.8 0.1
v -0.2 0.3 -0.1
v -0.2 0.4 -0.1
v -0.2 0.6 -0.2
v -0.2 0.7 -0.2
v -0.2 0.8 -0.2
v -0.2 0.4 -0.3
v -0.2 0.5 -0.3
v -0.2 0.7 -0.3
v -0.2 0.8 -0.3
v -0.2 0.5 -0.4
v -0.2 0.6 -0.4
v -0.2 0.6 -0.5
v -0.2 0.8 -0.5
v -0.3 0.2 0.1
v -0.3 0.3 0.1
v -0.3 0.2 -0.1
v -0.3 0.3 -0.1
v -0.4 0.8 0.3
v -0.4 0.9 0.3
v -0.4 0.8 0.2
v -0.4 0.9 0.2
v 0 0 0
v 0 0 -0.1
v -0.1 0 0
v -0.1 0 -0.1
v 0.2 0.2 0.1
v 0.2 0.2 -0.1
v 0.1 0.2 0.1
v 0.1 0.2 -0.1
v -0.2 0.2 0.1
v -0.2 0.2 -0.1
v -0.3 0.2 0.1
v -0.3 0.2 -0.1
v 0.1 0.3 0.1
v 0.1 0.3 -0.1
v 0 0.3 0.4
v 0 0.3 0.1
v 0 0.3 0
v 0 0.3 -0.1
v 0 0.3 -0.3
v -0.1 0.3 0.4
v -0.1 0.3 0.1
v -0.1 0.3 0
v -0.1 0.3 -0.1
v -0.1 0.3 -0.3
v -0.2 0.3 0.1
v -0.2 0.3 -0.1
v 0.1 0.4 0.4
v 0.1 0.4 0.1
v 0.1 0.4 -0.1
v 0.1 0.4 -0.3
v 0 0.4 0.5
v 0 0.4 0.4
v 0 0.4 0.1
v 0 0.4 -0.1
v 0 0.4 -0.3
v 0 0.4 -0.4
v -0.1 0.4 0.5
v -0.1 0.4 0.4
v -0.1 0.4 0.1
v -0.1 0.4 -0.1
v -0.1 0.4 -0.3
v -0.1 0.4 -0.4
v -0.2 0.4 0.4
v -0.2 0.4 0.1
v -0.2 0.4 -0.1
v -0.2 0.4 -0.3
v 0.1 0.5 0.5
v 0.1 0.5 0.4
v 0.1 0.5 -0.3
v 0.1 0.5 -0.4
v 0 0.5 0.5
v 0 0.5 0.4
v 0 0.5 -0.3
v 0 0.5 -0.4
v 0 0.5 -0.5
v -0.1 0.5 0.5
v -0.1 0.5 0.4
v -0.1 0.5 -0.3
v -0.1 0.5 -0.4
v -0.1 0.5 -0.5
v -0.2 0.5 0.5
v -0.2 0.5 0.4
v -0.2 0.5 -0.3
v -0.2 0.5 -0.4
v 0.1 0.6 -0.4
v 0.1 0.6 -0.5
v 0 0.6 -0.4
v 0 0.6 -0.5
v 0 0.6 -0.6
v -0.1 0.6 -0.4
v -0.1 0.6 -0.5
v -0.1 0.6 -0.6
v -0.2 0.6 -0.4
v -0.2 0.6 -0.5
v 0.3 0.8 0.3
v 0.3 0.8 0.2
v 0.1 0.8 0.3
v 0.1 0.8 0.2
v 0 0.8 0.6
v 0 0.8 0.5
v -0.1 0.8 0.6
v -0.1 0.8 0.5
v -0.2 0.8 0.3
v -0.2 0.8 0.2
v -0.4 0.8 0.3
v -0.4 0.8 0.2
v 0.2 0.3 0.1
v 0.2 0.3 -0.1
v 0.1 0.3 0.1
v 0.1 0.3 -0.1
v -0.2 0.3 0.1
v -0.2 0.3 -0.1
v -0.3 0.3 0.1
v -0.3 0.3 -0.1
v 0.1 0.7 0.1
v 0.1 0.7 -0.2
v -0.2 0.7 0.1
v -0.2 0.7 -0.2
v 0.1 0.8 0.2
v 0.1 0.8 0.1
v 0.1 0.8 -0.2
v 0.1 0.8 -0.3
v 0.1 0.8 -0.5
v 0 0.8 0.2
v 0 0.8 0.1
v 0 0.8 -0.4
v 0 0.8 -0.5
v 0 0.8 -0.6
v -0.1 0.8 0.2
v -0.1 0.8 0.1
v -0.1 0.8 -0.4
v -0.1 0.8 -0.5
v -0.1 0.8 -0.6
v -0.2 0.8 0.2
v -0.2 0.8 0.1
v -0.2 0.8 -0.2
v -0.2 0.8 -0.3
v -0.2 0.8 -0.5
v 0.3 0.9 0.3
v 0.3 0.9 0.2
v 0.1 0.9 0.3
v 0.1 0.9 0.2
v 0 0.9 -0.4
v 0 0.9 -0.5
v -0.1 0.9 -0.4
v -0.1 0.9 -0.5
v -0.2 0.9 0.3
v -0.2 0.9 0.2
v -0.4 0.9 0.3
v -0.4 0.9 0.2
v 0.1 1 0.3
v 0.1 1 0.2
v 0 1 0.6
v 0 1 0.5
v 0 1 0.3
v 0 1 0.2
v 0 1 0.1
v -0.1 1 0.6
v -0.1 1 0.5
v -0.1 1 0.3
v -0.1 1 0.2
v -0.1 1 0.1
v -0.2 1 0.3
v -0.2 1 0.2
v 0.1 1.1 0.5
v 0.1 1.1 0.3
v 0 1.1 0.3
v 0 1.1 0.2
v -0.1 1.1 0.3
v -0.1 1.1 0.2
v -0.2 1.1 0.5
v -0.2 1.1 0.3

# faces
f 3/1/1 2/1/1 1/1/1
f 4/1/1 2/1/1 3/1/1
f 5/2/1 4/2/1 3/2/1
f 6/2/1 4/2/1 5/2/1
f 10/3/1 8/3/1 7/3/1
f 11/3/1 8/3/1 10/3/1
f 13/2/1 10/2/1 9/2/1
f 13/3/1 11/3/1 10/3/1
f 14/2/1 12/2/1 11/2/1
f 14/3/1 11/3/1 13/3/1
f 15/2/1 13/2/1 9/2/1
f 15/2/1 14/2/1 13/2/1
f 16/2/1 12/2/1 14/2/1
f 16/2/1 14/2/1 15/2/1
f 17/2/1 15/2/1 9/2/1
f 18/2/1 12/2/1 16/2/1
f 19/2/1 17/2/1 9/2/1
f 20/2/1 12/2/1 18/2/1
f 21/2/1 19/2/1 9/2/1
f 21/2/1 20/2/1 19/2/1
f 22/2/1 12/2/1 20/2/1
f 22/2/1 20/2/1 21/2/1
f 26/3/1 24/3/1 23/3/1
f 27/3/1 24/3/1 26/3/1
f 29/2/1 26/2/1 25/2/1
f 30/2/1 26/2/1 29/2/1
f 31/2/1 28/2/1 27/2/1
f 32/2/1 28/2/1 31/2/1
f 37/2/1 34/2/1 33/2/1
f 38/2/1 34/2/1 37/2/1
f 39/2/1 36/2/1 35/2/1
f 40/2/1 36/2/1 39/2/1
f 45/2/1 42/2/1 41/2/1
f 46/2/1 42/2/1 45/2/1
f 49/2/1 44/2/1 43/2/1
f 50/2/1 44/2/1 49/2/1
f 51/2/1 47/2/1 46/2/1
f 52/2/1 47/2/1 51/2/1
f 53/2/1 49/2/1 48/2/1
f 54/2/1 49/2/1 53/2/1
f 57/6/1 56/6/1 55/6/1
f 58/6/1 56/6/1 57/6/1
f 59/5/1 58/5/1 57/5/1
f 60/5/1 58/5/1 59/5/1
f 61/6/1 60/6/1 59/6/1
f 62/6/1 60/6/1 61/6/1
f 65/4/1 64/4/1 63/4/1
f 66/4/1 64/4/1 65/4/1
f 69/2/1 68/2/1 67/2/1
f 70/2/1 68/2/1 69/2/1
f 71/2/2 72/2/2 75/2/2
f 75/2/2 72/2/2 76/2/2
f 73/2/2 74/2/2 77/2/2
f 77/2/2 74/2/2 78/2/2
f 79/2/2 80/2/2 85/2/2
f 80/2/2 81/2/2 85/2/2
f 85/2/2 81/2/2 86/2/2
f 83/2/2 84/2/2 87/2/2
f 82/2/2 83/2/2 87/2/2
f 87/2/2 84/2/2 88/2/2
f 86/2/2 81/2/2 89/2/2
f 89/2/2 81/2/2 90/2/2
f 82/2/2 87/2/2 91/2/2
f 91/2/2 87/2/2 92/2/2
f 90/2/2 91/2/2 93/2/2
f 93/2/2 91/2/2 94/2/2
f 95/2/2 96/2/2 97/2/2
f 97/2/2 96/2/2 98/2/2
f 98/2/2 96/2/2 99/2/2
f 99/2/2 96/2/2 100/2/2
f 98/2/2 99/2/2 101/2/2
f 101/2/2 99/2/2 102/2/2
f 103/6/2 104/6/2 105/6/2
f 105/6/2 104/6/2 106/6/2
f 105/5/2 106/5/2 109/5/2
f 109/5/2 106/5/2 110/5/2
f 107/2/2 108/2/2 113/2/2
f 113/2/2 108/2/2 114/2/2
f 109/6/2 110/6/2 115/6/2
f 115/6/2 110/6/2 116/6/2
f 111/2/2 112/2/2 117/2/2
f 117/2/2 112/2/2 118/2/2
f 114/2/2 115/2/2 119/2/2
f 119/2/2 115/2/2 120/2/2
f 116/2/2 117/2/2 121/2/2
f 121/2/2 117/2/2 122/2/2
f 123/3/2 124/3/2 126/3/2
f 126/3/2 124/3/2 127/3/2
f 125/2/2 126/2/2 129/2/2
f 129/2/2 126/2/2 130/2/2
f 127/2/2 128/2/2 131/2/2
f 131/2/2 128/2/2 132/2/2
f 133/3/2 134/3/2 136/3/2
f 136/3/2 134/3/2 137/3/2
f 135/2/2 136/2/2 139/2/2
f 139/2/2 136/2/2 140/2/2
f 137/2/2 138/2/2 141/2/2
f 141/2/2 138/2/2 142/2/2
f 143/3/2 144/3/2 146/3/2
f 146/3/2 144/3/2 147/3/2
f 145/2/2 146/2/2 149/2/2
f 149/2/2 146/2/2 150/2/2
f 147/2/2 148/2/2 151/2/2
f 151/2/2 148/2/2 152/2/2
f 150/2/2 151/2/2 153/2/2
f 153/2/2 151/2/2 154/2/2
f 155/2/2 156/2/2 157/2/2
f 157/2/2 156/2/2 158/2/2
f 161/2/3 160/2/3 159/2/3
f 162/2/3 160/2/3 161/2/3
f 165/2/3 164/2/3 163/2/3
f 166/2/3 164/2/3 165/2/3
f 170/2/3 168/2/3 167/2/3
f 171/2/3 168/2/3 170/2/3
f 171/2/3 170/2/3 169/2/3
f 172/2/3 168/2/3 171/2/3
f 173/2/3 168/2/3 172/2/3
f 174/2/3 168/2/3 173/2/3
f 175/2/3 171/2/3 169/2/3
f 176/2/3 173/2/3 172/2/3
f 177/2/3 173/2/3 176/2/3
f 179/2/3 175/2/3 169/2/3
f 180/2/3 175/2/3 179/2/3
f 181/2/3 175/2/3 180/2/3
f 182/2/3 175/2/3 181/2/3
f 183/2/3 179/2/3 178/2/3
f 183/2/3 180/2/3 179/2/3
f 184/2/3 180/2/3 183/2/3
f 185/4/3 181/4/3 180/4/3
f 185/2/3 180/2/3 184/2/3
f 186/4/3 181/4/3 185/4/3
f 188/2/3 185/2/3 184/2/3
f 188/2/3 186/2/3 185/2/3
f 189/2/3 186/2/3 188/2/3
f 190/4/3 187/4/3 186/4/3
f 190/2/3 186/2/3 189/2/3
f 191/4/3 187/4/3 190/4/3
f 192/2/3 190/2/3 189/2/3
f 192/2/3 191/2/3 190/2/3
f 193/2/3 191/2/3 192/2/3
f 194/2/3 191/2/3 193/2/3
f 195/2/3 191/2/3 194/2/3
f 201/1/3 197/1/3 196/1/3
f 202/2/3 198/2/3 197/2/3
f 202/1/3 197/1/3 201/1/3
f 203/2/3 198/2/3 202/2/3
f 205/3/3 200/3/3 199/3/3
f 206/3/3 200/3/3 205/3/3
f 210/2/3 208/2/3 207/2/3
f 211/2/3 208/2/3 210/2/3
f 212/3/3 205/3/3 204/3/3
f 213/3/3 205/3/3 212/3/3
f 214/2/3 210/2/3 209/2/3
f 215/2/3 210/2/3 214/2/3
f 220/6/3 217/6/3 216/6/3
f 221/5/3 218/5/3 217/5/3
f 221/6/3 217/6/3 220/6/3
f 222/6/3 219/6/3 218/6/3
f 222/5/3 218/5/3 221/5/3
f 223/6/3 219/6/3 222/6/3
f 225/3/3 224/3/3 223/3/3
f 226/3/3 224/3/3 225/3/3
f 228/3/3 227/3/3 226/3/3
f 229/3/3 227/3/3 228/3/3
f 233/3/3 230/3/3 229/3/3
f 234/3/3 230/3/3 233/3/3
f 235/2/3 232/2/3 231/2/3
f 236/2/3 232/2/3 235/2/3
f 237/2/3 235/2/3 234/2/3
f 238/2/3 235/2/3 237/2/3
f 241/2/3 240/2/3 239/2/3
f 242/2/3 240/2/3 241/2/3
f 243/2/4 244/2/4 245/2/4
f 245/2/4 244/2/4 246/2/4
f 247/1/4 248/1/4 252/1/4
f 248/2/4 249/2/4 253/2/4
f 252/1/4 248/1/4 253/1/4
f 253/2/4 249/2/4 254/2/4
f 250/3/4 251/3/4 256/3/4
f 256/3/4 251/3/4 257/3/4
f 258/2/4 259/2/4 261/2/4
f 261/2/4 259/2/4 262/2/4
f 255/3/4 256/3/4 263/3/4
f 263/3/4 256/3/4 264/3/4
f 260/2/4 261/2/4 265/2/4
f 265/2/4 261/2/4 266/2/4
f 267/6/4 268/6/4 271/6/4
f 268/5/4 269/5/4 272/5/4
f 271/6/4 268/6/4 272/6/4
f 269/6/4 270/6/4 273/6/4
f 272/5/4 269/5/4 273/5/4
f 273/6/4 270/6/4 274/6/4
f 274/3/4 275/3/4 276/3/4
f 276/3/4 275/3/4 277/3/4
f 277/3/4 278/3/4 279/3/4
f 279/3/4 278/3/4 280/3/4
f 280/3/4 281/3/4 284/3/4
f 284/3/4 281/3/4 285/3/4
f 282/2/4 283/2/4 286/2/4
f 286/2/4 283/2/4 287/2/4
f 285/2/4 286/2/4 288/2/4
f 288/2/4 286/2/4 289/2/4
f 290/2/4 291/2/4 293/2/4
f 293/2/4 291/2/4 294/2/4
f 292/2/4 293/2/4 294/2/4
f 294/2/4 291/2/4 295/2/4
f 295/2/4 291/2/4 296/2/4
f 296/2/4 291/2/4 297/2/4
f 292/2/4 294/2/4 298/2/4
f 295/2/4 296/2/4 299/2/4
f 299/2/4 296/2/4 300/2/4
f 292/2/4 298/2/4 302/2/4
f 302/2/4 298/2/4 303/2/4
f 303/2/4 298/2/4 304/2/4
f 304/2/4 298/2/4 305/2/4
f 301/2/4 302/2/4 306/2/4
f 302/2/4 303/2/4 306/2/4
f 306/2/4 303/2/4 307/2/4
f 303/4/4 304/4/4 308/4/4
f 307/2/4 303/2/4 308/2/4
f 308/4/4 304/4/4 309/4/4
f 307/2/4 308/2/4 311/2/4
f 308/2/4 309/2/4 311/2/4
f 311/2/4 309/2/4 312/2/4
f 309/4/4 310/4/4 313/4/4
f 312/2/4 309/2/4 313/2/4
f 313/4/4 310/4/4 314/4/4
f 312/2/4 313/2/4 315/2/4
f 313/2/4 314/2/4 315/2/4
f 315/2/4 314/2/4 316/2/4
f 316/2/4 314/2/4 317/2/4
f 317/2/4 314/2/4 318/2/4
f 319/2/4 320/2/4 321/2/4
f 321/2/4 320/2/4 322/2/4
f 323/2/4 324/2/4 325/2/4
f 325/2/4 324/2/4 326/2/4
f 329/6/5 328/6/5 327/6/5
f 330/6/5 328/6/5 329/6/5
f 333/2/5 332/2/5 331/2/5
f 334/2/5 332/2/5 333/2/5
f 337/2/5 336/2/5 335/2/5
f 338/2/5 336/2/5 337/2/5
f 342/2/5 340/2/5 339/2/5
f 343/2/5 340/2/5 342/2/5
f 344/2/5 340/2/5 343/2/5
f 346/3/5 342/3/5 341/3/5
f 346/3/5 343/3/5 342/3/5
f 347/3/5 343/3/5 346/3/5
f 348/3/5 343/3/5 347/3/5
f 349/3/5 345/3/5 344/3/5
f 350/3/5 345/3/5 349/3/5
f 351/2/5 348/2/5 347/2/5
f 351/2/5 349/2/5 348/2/5
f 352/2/5 349/2/5 351/2/5
f 358/2/5 354/2/5 353/2/5
f 359/2/5 354/2/5 358/2/5
f 360/2/5 356/2/5 355/2/5
f 361/2/5 356/2/5 360/2/5
f 363/3/5 358/3/5 357/3/5
f 364/3/5 358/3/5 363/3/5
f 367/3/5 362/3/5 361/3/5
f 368/3/5 362/3/5 367/3/5
f 369/2/5 365/2/5 364/2/5
f 370/2/5 365/2/5 369/2/5
f 371/2/5 367/2/5 366/2/5
f 372/2/5 367/2/5 371/2/5
f 377/2/5 374/2/5 373/2/5
f 378/2/5 374/2/5 377/2/5
f 379/2/5 376/2/5 375/2/5
f 380/2/5 376/2/5 379/2/5
f 385/3/5 381/3/5 380/3/5
f 386/3/5 381/3/5 385/3/5
f 387/2/5 383/2/5 382/2/5
f 388/2/5 383/2/5 387/2/5
f 389/2/5 385/2/5 384/2/5
f 390/2/5 385/2/5 389/2/5
f 393/2/5 392/2/5 391/2/5
f 394/2/5 392/2/5 393/2/5
f 397/2/5 395/2/5 394/2/5
f 398/2/5 395/2/5 397/2/5
f 399/2/5 397/2/5 396/2/5
f 400/2/5 397/2/5 399/2/5
f 403/2/5 402/2/5 401/2/5
f 404/2/5 402/2/5 403/2/5
f 407/1/5 406/1/5 405/1/5
f 408/1/5 406/1/5 407/1/5
f 411/2/5 410/2/5 409/2/5
f 412/2/5 410/2/5 411/2/5
f 413/2/6 414/2/6 415/2/6
f 415/2/6 414/2/6 416/2/6
f 417/2/6 418/2/6 419/2/6
f 419/2/6 418/2/6 420/2/6
f 421/4/6 422/4/6 423/4/6
f 423/4/6 422/4/6 424/4/6
f 425/2/6 426/2/6 430/2/6
f 430/2/6 426/2/6 431/2/6
f 428/2/6 429/2/6 432/2/6
f 432/2/6 429/2/6 433/2/6
f 428/2/6 432/2/6 437/2/6
f 433/2/6 434/2/6 438/2/6
f 438/2/6 434/2/6 439/2/6
f 435/2/6 436/2/6 440/2/6
f 440/2/6 436/2/6 441/2/6
f 427/4/6 428/4/6 442/4/6
f 428/2/6 437/2/6 443/2/6
f 442/4/6 428/4/6 443/4/6
f 437/2/6 438/2/6 443/2/6
f 443/2/6 438/2/6 444/2/6
f 445/2/6 446/2/6 447/2/6
f 447/2/6 446/2/6 448/2/6
f 449/2/6 450/2/6 451/2/6
f 451/2/6 450/2/6 452/2/6
f 453/2/6 454/2/6 455/2/6
f 455/2/6 454/2/6 456/2/6
f 457/2/6 458/2/6 461/2/6
f 461/2/6 458/2/6 462/2/6
f 459/2/6 460/2/6 464/2/6
f 464/2/6 460/2/6 465/2/6
f 462/2/6 463/2/6 467/2/6
f 467/2/6 463/2/6 468/2/6
f 466/2/6 467/2/6 469/2/6
f 469/2/6 467/2/6 470/2/6
f 471/2/6 472/2/6 473/2/6
f 471/2/6 473/2/6 475/2/6
f 473/2/6 474/2/6 475/2/6
f 475/2/6 474/2/6 476/2/6
f 471/2/6 475/2/6 477/2/6
f 477/2/6 475/2/6 478/2/6
