# MagicaVoxel @ Ephtracy

# group
o 

# material
mtllib Playground_Sandbox_ Corner_01.mtl
usemtl palette

# normals
vn 0 0 -1
vn 0 0 1
vn -1 0 0
vn 1 0 0
vn 0 -1 0
vn 0 1 0

# texcoords
vt 0.630859 0.5
vt 0.634766 0.5
vt 0.638672 0.5
vt 0.642578 0.5

# verts
v 0.3 0 -0.1
v 0.8 0 -0.1
v 0.3 0.2 -0.1
v 0.8 0.2 -0.1
v 0.1 0 1.49012e-008
v 0.3 0 1.49012e-008
v 0.1 0.2 1.49012e-008
v 0.3 0.2 1.49012e-008
v 1.49012e-008 0 0.1
v 0.1 0 0.1
v 1.49012e-008 0.2 0.1
v 0.1 0.2 0.1
v -0.1 0 0.3
v 1.49012e-008 0 0.3
v -0.1 0.2 0.3
v 1.49012e-008 0.2 0.3
v 0.5 0.1 0.1
v 0.6 0.1 0.1
v 0.7 0.1 0.1
v 0.8 0.1 0.1
v 0.5 0.2 0.1
v 0.8 0.2 0.1
v 0.3 0.1 0.2
v 0.4 0.1 0.2
v 0.5 0.1 0.2
v 0.3 0.2 0.2
v 0.5 0.2 0.2
v 0.2 0.1 0.3
v 0.3 0.1 0.3
v 0.2 0.2 0.3
v 0.3 0.2 0.3
v 0.1 0.1 0.5
v 0.2 0.1 0.5
v 0.1 0.2 0.5
v 0.2 0.2 0.5
v -0.1 0 0.8
v 0.1 0 0.8
v 0.3 0 0.8
v 0.4 0 0.8
v 0.8 0 0.8
v 0.1 0.1 0.8
v 0.3 0.1 0.8
v 0.4 0.1 0.8
v 0.8 0.1 0.8
v -0.1 0.2 0.8
v 0.1 0.2 0.8
v -0.1 0 0.3
v -0.1 0.2 0.3
v -0.1 0 0.8
v -0.1 0.2 0.8
v 1.49012e-008 0 0.1
v 1.49012e-008 0.2 0.1
v 1.49012e-008 0 0.3
v 1.49012e-008 0.2 0.3
v 0.1 0 1.49012e-008
v 0.1 0.2 1.49012e-008
v 0.1 0 0.1
v 0.1 0.2 0.1
v 0.3 0 -0.1
v 0.3 0.2 -0.1
v 0.3 0 1.49012e-008
v 0.3 0.2 1.49012e-008
v 0.1 0.1 0.5
v 0.1 0.2 0.5
v 0.1 0.1 0.6
v 0.1 0.1 0.7
v 0.1 0.1 0.8
v 0.1 0.2 0.8
v 0.2 0.1 0.3
v 0.2 0.2 0.3
v 0.2 0.1 0.5
v 0.2 0.2 0.5
v 0.3 0.1 0.2
v 0.3 0.2 0.2
v 0.3 0.1 0.3
v 0.3 0.2 0.3
v 0.5 0.1 0.1
v 0.5 0.2 0.1
v 0.5 0.1 0.2
v 0.5 0.2 0.2
v 0.8 0 -0.1
v 0.8 0.2 -0.1
v 0.8 0 0.1
v 0.8 0.1 0.1
v 0.8 0.2 0.1
v 0.8 0 0.2
v 0.8 0.1 0.2
v 0.8 0 0.4
v 0.8 0.1 0.4
v 0.8 0 0.6
v 0.8 0.1 0.6
v 0.8 0 0.7
v 0.8 0.1 0.7
v 0.8 0 0.8
v 0.8 0.1 0.8
v -0.1 0 0.3
v -0.1 0 0.8
v 1.49012e-008 0 0.1
v 1.49012e-008 0 0.3
v 0.1 0 1.49012e-008
v 0.1 0 0.1
v 0.1 0 0.5
v 0.1 0 0.6
v 0.1 0 0.7
v 0.1 0 0.8
v 0.2 0 0.3
v 0.2 0 0.5
v 0.2 0 0.6
v 0.2 0 0.7
v 0.3 0 -0.1
v 0.3 0 1.49012e-008
v 0.3 0 0.2
v 0.3 0 0.3
v 0.3 0 0.4
v 0.3 0 0.5
v 0.3 0 0.6
v 0.3 0 0.7
v 0.3 0 0.8
v 0.4 0 0.2
v 0.4 0 0.3
v 0.4 0 0.5
v 0.4 0 0.6
v 0.4 0 0.7
v 0.4 0 0.8
v 0.5 0 0.1
v 0.5 0 0.2
v 0.5 0 0.3
v 0.5 0 0.4
v 0.5 0 0.5
v 0.5 0 0.6
v 0.5 0 0.7
v 0.6 0 0.1
v 0.6 0 0.2
v 0.6 0 0.3
v 0.6 0 0.4
v 0.6 0 0.5
v 0.6 0 0.6
v 0.6 0 0.7
v 0.7 0 0.1
v 0.7 0 0.2
v 0.7 0 0.3
v 0.7 0 0.4
v 0.7 0 0.5
v 0.7 0 0.6
v 0.7 0 0.7
v 0.8 0 -0.1
v 0.8 0 0.1
v 0.8 0 0.2
v 0.8 0 0.4
v 0.8 0 0.6
v 0.8 0 0.7
v 0.8 0 0.8
v 0.1 0.1 0.5
v 0.1 0.1 0.6
v 0.1 0.1 0.7
v 0.1 0.1 0.8
v 0.2 0.1 0.3
v 0.2 0.1 0.5
v 0.2 0.1 0.6
v 0.2 0.1 0.7
v 0.3 0.1 0.2
v 0.3 0.1 0.3
v 0.3 0.1 0.4
v 0.3 0.1 0.5
v 0.3 0.1 0.6
v 0.3 0.1 0.7
v 0.3 0.1 0.8
v 0.4 0.1 0.2
v 0.4 0.1 0.3
v 0.4 0.1 0.5
v 0.4 0.1 0.6
v 0.4 0.1 0.7
v 0.4 0.1 0.8
v 0.5 0.1 0.1
v 0.5 0.1 0.2
v 0.5 0.1 0.3
v 0.5 0.1 0.4
v 0.5 0.1 0.5
v 0.5 0.1 0.6
v 0.5 0.1 0.7
v 0.6 0.1 0.1
v 0.6 0.1 0.2
v 0.6 0.1 0.3
v 0.6 0.1 0.4
v 0.6 0.1 0.5
v 0.6 0.1 0.6
v 0.6 0.1 0.7
v 0.7 0.1 0.1
v 0.7 0.1 0.2
v 0.7 0.1 0.3
v 0.7 0.1 0.4
v 0.7 0.1 0.5
v 0.7 0.1 0.6
v 0.7 0.1 0.7
v 0.8 0.1 0.1
v 0.8 0.1 0.2
v 0.8 0.1 0.4
v 0.8 0.1 0.6
v 0.8 0.1 0.7
v 0.8 0.1 0.8
v -0.1 0.2 0.3
v -0.1 0.2 0.8
v 1.49012e-008 0.2 0.1
v 1.49012e-008 0.2 0.3
v 0.1 0.2 1.49012e-008
v 0.1 0.2 0.1
v 0.1 0.2 0.5
v 0.1 0.2 0.8
v 0.2 0.2 0.3
v 0.2 0.2 0.5
v 0.3 0.2 -0.1
v 0.3 0.2 1.49012e-008
v 0.3 0.2 0.2
v 0.3 0.2 0.3
v 0.5 0.2 0.1
v 0.5 0.2 0.2
v 0.8 0.2 -0.1
v 0.8 0.2 0.1

# faces
f 3/4/1 2/4/1 1/4/1
f 4/4/1 2/4/1 3/4/1
f 7/4/1 6/4/1 5/4/1
f 8/4/1 6/4/1 7/4/1
f 11/4/1 10/4/1 9/4/1
f 12/4/1 10/4/1 11/4/1
f 15/4/1 14/4/1 13/4/1
f 16/4/1 14/4/1 15/4/1
f 17/4/2 18/4/2 21/4/2
f 19/4/2 20/4/2 21/4/2
f 18/4/2 19/4/2 21/4/2
f 21/4/2 20/4/2 22/4/2
f 23/4/2 24/4/2 26/4/2
f 24/4/2 25/4/2 26/4/2
f 26/4/2 25/4/2 27/4/2
f 28/4/2 29/4/2 30/4/2
f 30/4/2 29/4/2 31/4/2
f 32/4/2 33/4/2 34/4/2
f 34/4/2 33/4/2 35/4/2
f 36/4/2 37/4/2 41/4/2
f 37/3/2 38/3/2 41/3/2
f 38/1/2 39/1/2 42/1/2
f 41/3/2 38/3/2 42/3/2
f 39/3/2 40/3/2 43/3/2
f 42/1/2 39/1/2 43/1/2
f 43/3/2 40/3/2 44/3/2
f 36/4/2 41/4/2 45/4/2
f 45/4/2 41/4/2 46/4/2
f 49/4/3 48/4/3 47/4/3
f 50/4/3 48/4/3 49/4/3
f 53/4/3 52/4/3 51/4/3
f 54/4/3 52/4/3 53/4/3
f 57/4/3 56/4/3 55/4/3
f 58/4/3 56/4/3 57/4/3
f 61/4/3 60/4/3 59/4/3
f 62/4/3 60/4/3 61/4/3
f 63/4/4 64/4/4 65/4/4
f 65/4/4 64/4/4 66/4/4
f 66/4/4 64/4/4 67/4/4
f 67/4/4 64/4/4 68/4/4
f 69/4/4 70/4/4 71/4/4
f 71/4/4 70/4/4 72/4/4
f 73/4/4 74/4/4 75/4/4
f 75/4/4 74/4/4 76/4/4
f 77/4/4 78/4/4 79/4/4
f 79/4/4 78/4/4 80/4/4
f 81/4/4 82/4/4 83/4/4
f 83/4/4 82/4/4 84/4/4
f 84/4/4 82/4/4 85/4/4
f 83/3/4 84/3/4 86/3/4
f 86/3/4 84/3/4 87/3/4
f 86/2/4 87/2/4 88/2/4
f 88/2/4 87/2/4 89/2/4
f 88/3/4 89/3/4 90/3/4
f 90/3/4 89/3/4 91/3/4
f 90/2/4 91/2/4 92/2/4
f 92/2/4 91/2/4 93/2/4
f 92/3/4 93/3/4 94/3/4
f 94/3/4 93/3/4 95/3/4
f 99/4/5 97/4/5 96/4/5
f 101/4/5 99/4/5 98/4/5
f 102/4/5 97/4/5 99/4/5
f 102/4/5 99/4/5 101/4/5
f 103/4/5 97/4/5 102/4/5
f 104/4/5 97/4/5 103/4/5
f 105/4/5 97/4/5 104/4/5
f 106/4/5 101/4/5 100/4/5
f 106/4/5 102/4/5 101/4/5
f 107/3/5 103/3/5 102/3/5
f 107/4/5 102/4/5 106/4/5
f 108/2/5 104/2/5 103/2/5
f 108/3/5 103/3/5 107/3/5
f 109/3/5 105/3/5 104/3/5
f 109/2/5 104/2/5 108/2/5
f 111/4/5 106/4/5 100/4/5
f 112/4/5 106/4/5 111/4/5
f 113/2/5 107/2/5 106/2/5
f 113/4/5 106/4/5 112/4/5
f 114/2/5 107/2/5 113/2/5
f 115/3/5 108/3/5 107/3/5
f 115/2/5 107/2/5 114/2/5
f 115/3/5 109/3/5 108/3/5
f 116/3/5 109/3/5 115/3/5
f 117/3/5 105/3/5 109/3/5
f 117/3/5 109/3/5 116/3/5
f 118/3/5 105/3/5 117/3/5
f 119/2/5 114/2/5 113/2/5
f 119/4/5 112/4/5 111/4/5
f 119/2/5 113/2/5 112/2/5
f 119/4/5 111/4/5 110/4/5
f 120/2/5 114/2/5 119/2/5
f 121/2/5 116/2/5 115/2/5
f 121/3/5 115/3/5 114/3/5
f 122/3/5 117/3/5 116/3/5
f 122/2/5 116/2/5 121/2/5
f 123/1/5 118/1/5 117/1/5
f 123/3/5 117/3/5 122/3/5
f 124/1/5 118/1/5 123/1/5
f 125/4/5 119/4/5 110/4/5
f 126/3/5 120/3/5 119/3/5
f 126/4/5 119/4/5 125/4/5
f 127/2/5 114/2/5 120/2/5
f 127/3/5 120/3/5 126/3/5
f 128/3/5 122/3/5 121/3/5
f 128/2/5 114/2/5 127/2/5
f 128/3/5 121/3/5 114/3/5
f 129/3/5 122/3/5 128/3/5
f 130/2/5 123/2/5 122/2/5
f 130/3/5 122/3/5 129/3/5
f 131/3/5 124/3/5 123/3/5
f 131/2/5 123/2/5 130/2/5
f 132/3/5 126/3/5 125/3/5
f 132/3/5 127/3/5 126/3/5
f 132/4/5 125/4/5 110/4/5
f 133/3/5 127/3/5 132/3/5
f 134/1/5 128/1/5 127/1/5
f 134/3/5 127/3/5 133/3/5
f 135/2/5 129/2/5 128/2/5
f 135/1/5 128/1/5 134/1/5
f 136/1/5 130/1/5 129/1/5
f 136/2/5 129/2/5 135/2/5
f 137/3/5 131/3/5 130/3/5
f 137/1/5 130/1/5 136/1/5
f 138/3/5 124/3/5 131/3/5
f 138/3/5 131/3/5 137/3/5
f 139/2/5 133/2/5 132/2/5
f 139/4/5 132/4/5 110/4/5
f 140/3/5 134/3/5 133/3/5
f 140/2/5 133/2/5 139/2/5
f 141/2/5 136/2/5 135/2/5
f 141/3/5 134/3/5 140/3/5
f 141/2/5 135/2/5 134/2/5
f 142/2/5 136/2/5 141/2/5
f 143/3/5 137/3/5 136/3/5
f 143/2/5 136/2/5 142/2/5
f 144/1/5 138/1/5 137/1/5
f 144/3/5 137/3/5 143/3/5
f 145/3/5 124/3/5 138/3/5
f 145/1/5 138/1/5 144/1/5
f 146/4/5 139/4/5 110/4/5
f 147/3/5 140/3/5 139/3/5
f 147/4/5 139/4/5 146/4/5
f 148/2/5 142/2/5 141/2/5
f 148/3/5 140/3/5 147/3/5
f 148/2/5 141/2/5 140/2/5
f 149/3/5 143/3/5 142/3/5
f 149/2/5 142/2/5 148/2/5
f 149/3/5 144/3/5 143/3/5
f 150/2/5 145/2/5 144/2/5
f 150/3/5 144/3/5 149/3/5
f 151/3/5 124/3/5 145/3/5
f 151/2/5 145/2/5 150/2/5
f 152/3/5 124/3/5 151/3/5
f 153/3/6 154/3/6 158/3/6
f 154/2/6 155/2/6 159/2/6
f 158/3/6 154/3/6 159/3/6
f 155/3/6 156/3/6 160/3/6
f 159/2/6 155/2/6 160/2/6
f 157/2/6 158/2/6 162/2/6
f 162/2/6 158/2/6 163/2/6
f 158/3/6 159/3/6 164/3/6
f 163/2/6 158/2/6 164/2/6
f 159/3/6 160/3/6 164/3/6
f 164/3/6 160/3/6 165/3/6
f 160/3/6 156/3/6 166/3/6
f 165/3/6 160/3/6 166/3/6
f 166/3/6 156/3/6 167/3/6
f 162/2/6 163/2/6 168/2/6
f 161/2/6 162/2/6 168/2/6
f 168/2/6 163/2/6 169/2/6
f 164/2/6 165/2/6 170/2/6
f 163/3/6 164/3/6 170/3/6
f 165/3/6 166/3/6 171/3/6
f 170/2/6 165/2/6 171/2/6
f 166/1/6 167/1/6 172/1/6
f 171/3/6 166/3/6 172/3/6
f 172/1/6 167/1/6 173/1/6
f 168/3/6 169/3/6 175/3/6
f 169/2/6 163/2/6 176/2/6
f 175/3/6 169/3/6 176/3/6
f 170/3/6 171/3/6 177/3/6
f 176/2/6 163/2/6 177/2/6
f 163/3/6 170/3/6 177/3/6
f 177/3/6 171/3/6 178/3/6
f 171/2/6 172/2/6 179/2/6
f 178/3/6 171/3/6 179/3/6
f 172/3/6 173/3/6 180/3/6
f 179/2/6 172/2/6 180/2/6
f 174/3/6 175/3/6 181/3/6
f 175/3/6 176/3/6 181/3/6
f 181/3/6 176/3/6 182/3/6
f 176/1/6 177/1/6 183/1/6
f 182/3/6 176/3/6 183/3/6
f 177/2/6 178/2/6 184/2/6
f 183/1/6 177/1/6 184/1/6
f 178/1/6 179/1/6 185/1/6
f 184/2/6 178/2/6 185/2/6
f 179/3/6 180/3/6 186/3/6
f 185/1/6 179/1/6 186/1/6
f 180/3/6 173/3/6 187/3/6
f 186/3/6 180/3/6 187/3/6
f 181/2/6 182/2/6 188/2/6
f 182/3/6 183/3/6 189/3/6
f 188/2/6 182/2/6 189/2/6
f 184/2/6 185/2/6 190/2/6
f 189/3/6 183/3/6 190/3/6
f 183/2/6 184/2/6 190/2/6
f 190/2/6 185/2/6 191/2/6
f 185/3/6 186/3/6 192/3/6
f 191/2/6 185/2/6 192/2/6
f 186/1/6 187/1/6 193/1/6
f 192/3/6 186/3/6 193/3/6
f 187/3/6 173/3/6 194/3/6
f 193/1/6 187/1/6 194/1/6
f 188/3/6 189/3/6 195/3/6
f 190/2/6 191/2/6 196/2/6
f 195/3/6 189/3/6 196/3/6
f 189/2/6 190/2/6 196/2/6
f 191/3/6 192/3/6 197/3/6
f 196/2/6 191/2/6 197/2/6
f 192/3/6 193/3/6 197/3/6
f 193/2/6 194/2/6 198/2/6
f 197/3/6 193/3/6 198/3/6
f 194/3/6 173/3/6 199/3/6
f 198/2/6 194/2/6 199/2/6
f 199/3/6 173/3/6 200/3/6
f 201/4/6 202/4/6 204/4/6
f 203/4/6 204/4/6 206/4/6
f 204/4/6 202/4/6 207/4/6
f 206/4/6 204/4/6 207/4/6
f 207/4/6 202/4/6 208/4/6
f 205/4/6 206/4/6 209/4/6
f 206/4/6 207/4/6 209/4/6
f 209/4/6 207/4/6 210/4/6
f 205/4/6 209/4/6 212/4/6
f 212/4/6 209/4/6 213/4/6
f 213/4/6 209/4/6 214/4/6
f 211/4/6 212/4/6 215/4/6
f 212/4/6 213/4/6 215/4/6
f 215/4/6 213/4/6 216/4/6
f 211/4/6 215/4/6 217/4/6
f 217/4/6 215/4/6 218/4/6
