# MagicaVoxel @ Ephtracy

# group
o 

# material
mtllib Playground_Sandbox_Edge_03.mtl
usemtl palette

# normals
vn 1 0 0
vn -1 0 0
vn 0 0 -1
vn 0 0 1
vn 0 -1 0
vn 0 1 0

# texcoords
vt 0.630859 0.5
vt 0.634766 0.5
vt 0.638672 0.5
vt 0.642578 0.5

# verts
v 0.2 0 -0.5
v 0.2 0 0.5
v 0.2 0.2 -0.5
v 0.2 0.2 0.5
v 0.1 0 -0.8
v 0.1 0 -0.5
v 0.1 0 0.5
v 0.1 0 0.8
v 0.1 0.2 -0.8
v 0.1 0.2 -0.5
v 0.1 0.2 0.5
v 0.1 0.2 0.8
v 0 0.1 -0.4
v 0 0.1 -0.3
v 0 0.1 -0.1
v 0 0.1 0.1
v 0 0.1 0.3
v 0 0.1 0.4
v 0 0.2 -0.4
v 0 0.2 0.4
v -0.1 0.1 -0.8
v -0.1 0.1 -0.7
v -0.1 0.1 -0.6
v -0.1 0.1 -0.5
v -0.1 0.1 -0.4
v -0.1 0.1 0.4
v -0.1 0.1 0.5
v -0.1 0.1 0.7
v -0.1 0.1 0.8
v -0.1 0.2 -0.8
v -0.1 0.2 -0.4
v -0.1 0.2 0.4
v -0.1 0.2 0.8
v -0.8 0 -0.8
v -0.8 0 -0.6
v -0.8 0 -0.5
v -0.8 0 -0.4
v -0.8 0 -0.3
v -0.8 0 -0.2
v -0.8 0 -0.1
v -0.8 0 0
v -0.8 0 0.3
v -0.8 0 0.4
v -0.8 0 0.6
v -0.8 0 0.8
v -0.8 0.1 -0.8
v -0.8 0.1 -0.6
v -0.8 0.1 -0.5
v -0.8 0.1 -0.4
v -0.8 0.1 -0.3
v -0.8 0.1 -0.2
v -0.8 0.1 -0.1
v -0.8 0.1 0
v -0.8 0.1 0.3
v -0.8 0.1 0.4
v -0.8 0.1 0.6
v -0.8 0.1 0.8
v 0.1 0 -0.8
v 0.1 0.2 -0.8
v -0.1 0 -0.8
v -0.1 0.1 -0.8
v -0.1 0.2 -0.8
v -0.2 0 -0.8
v -0.2 0.1 -0.8
v -0.3 0 -0.8
v -0.3 0.1 -0.8
v -0.4 0 -0.8
v -0.4 0.1 -0.8
v -0.6 0 -0.8
v -0.6 0.1 -0.8
v -0.7 0 -0.8
v -0.7 0.1 -0.8
v -0.8 0 -0.8
v -0.8 0.1 -0.8
v 0.2 0 -0.5
v 0.2 0.2 -0.5
v 0.1 0 -0.5
v 0.1 0.2 -0.5
v 0 0.1 0.4
v 0 0.2 0.4
v -0.1 0.1 0.4
v -0.1 0.2 0.4
v 0 0.1 -0.4
v 0 0.2 -0.4
v -0.1 0.1 -0.4
v -0.1 0.2 -0.4
v 0.2 0 0.5
v 0.2 0.2 0.5
v 0.1 0 0.5
v 0.1 0.2 0.5
v 0.1 0 0.8
v 0.1 0.2 0.8
v -0.1 0 0.8
v -0.1 0.1 0.8
v -0.1 0.2 0.8
v -0.2 0 0.8
v -0.2 0.1 0.8
v -0.3 0 0.8
v -0.3 0.1 0.8
v -0.4 0 0.8
v -0.4 0.1 0.8
v -0.5 0 0.8
v -0.5 0.1 0.8
v -0.6 0 0.8
v -0.6 0.1 0.8
v -0.8 0 0.8
v -0.8 0.1 0.8
v 0.1 0 -0.8
v -0.1 0 -0.8
v -0.2 0 -0.8
v -0.3 0 -0.8
v -0.4 0 -0.8
v -0.6 0 -0.8
v -0.7 0 -0.8
v -0.8 0 -0.8
v -0.1 0 -0.7
v -0.2 0 -0.7
v -0.3 0 -0.7
v -0.4 0 -0.7
v -0.5 0 -0.7
v -0.6 0 -0.7
v -0.7 0 -0.7
v -0.1 0 -0.6
v -0.2 0 -0.6
v -0.3 0 -0.6
v -0.4 0 -0.6
v -0.5 0 -0.6
v -0.6 0 -0.6
v -0.7 0 -0.6
v -0.8 0 -0.6
v 0.2 0 -0.5
v 0.1 0 -0.5
v -0.1 0 -0.5
v -0.2 0 -0.5
v -0.4 0 -0.5
v -0.6 0 -0.5
v -0.7 0 -0.5
v -0.8 0 -0.5
v 0 0 -0.4
v -0.1 0 -0.4
v -0.2 0 -0.4
v -0.4 0 -0.4
v -0.5 0 -0.4
v -0.6 0 -0.4
v -0.7 0 -0.4
v -0.8 0 -0.4
v 0 0 -0.3
v -0.2 0 -0.3
v -0.3 0 -0.3
v -0.4 0 -0.3
v -0.5 0 -0.3
v -0.6 0 -0.3
v -0.7 0 -0.3
v -0.8 0 -0.3
v -0.1 0 -0.2
v -0.2 0 -0.2
v -0.3 0 -0.2
v -0.4 0 -0.2
v -0.5 0 -0.2
v -0.6 0 -0.2
v -0.7 0 -0.2
v -0.8 0 -0.2
v 0 0 -0.1
v -0.1 0 -0.1
v -0.2 0 -0.1
v -0.3 0 -0.1
v -0.6 0 -0.1
v -0.7 0 -0.1
v -0.8 0 -0.1
v -0.1 0 0
v -0.2 0 0
v -0.3 0 0
v -0.6 0 0
v -0.7 0 0
v -0.8 0 0
v 0 0 0.1
v -0.1 0 0.1
v -0.2 0 0.1
v -0.4 0 0.1
v -0.5 0 0.1
v -0.7 0 0.1
v -0.2 0 0.2
v -0.3 0 0.2
v -0.4 0 0.2
v -0.6 0 0.2
v -0.7 0 0.2
v 0 0 0.3
v -0.1 0 0.3
v -0.2 0 0.3
v -0.3 0 0.3
v -0.4 0 0.3
v -0.5 0 0.3
v -0.6 0 0.3
v -0.7 0 0.3
v -0.8 0 0.3
v 0.1 0 0.4
v 0 0 0.4
v -0.1 0 0.4
v -0.2 0 0.4
v -0.3 0 0.4
v -0.5 0 0.4
v -0.6 0 0.4
v -0.7 0 0.4
v -0.8 0 0.4
v 0.2 0 0.5
v 0.1 0 0.5
v 0 0 0.5
v -0.1 0 0.5
v -0.3 0 0.5
v -0.4 0 0.5
v -0.5 0 0.5
v -0.6 0 0.5
v -0.7 0 0.5
v -0.2 0 0.6
v -0.3 0 0.6
v -0.4 0 0.6
v -0.5 0 0.6
v -0.7 0 0.6
v -0.8 0 0.6
v -0.1 0 0.7
v -0.2 0 0.7
v -0.3 0 0.7
v -0.6 0 0.7
v -0.7 0 0.7
v 0.1 0 0.8
v -0.1 0 0.8
v -0.2 0 0.8
v -0.3 0 0.8
v -0.4 0 0.8
v -0.5 0 0.8
v -0.6 0 0.8
v -0.8 0 0.8
v -0.1 0.1 -0.8
v -0.2 0.1 -0.8
v -0.3 0.1 -0.8
v -0.4 0.1 -0.8
v -0.6 0.1 -0.8
v -0.7 0.1 -0.8
v -0.8 0.1 -0.8
v -0.1 0.1 -0.7
v -0.2 0.1 -0.7
v -0.3 0.1 -0.7
v -0.4 0.1 -0.7
v -0.5 0.1 -0.7
v -0.6 0.1 -0.7
v -0.7 0.1 -0.7
v -0.1 0.1 -0.6
v -0.2 0.1 -0.6
v -0.3 0.1 -0.6
v -0.4 0.1 -0.6
v -0.5 0.1 -0.6
v -0.6 0.1 -0.6
v -0.7 0.1 -0.6
v -0.8 0.1 -0.6
v -0.1 0.1 -0.5
v -0.2 0.1 -0.5
v -0.4 0.1 -0.5
v -0.6 0.1 -0.5
v -0.7 0.1 -0.5
v -0.8 0.1 -0.5
v 0 0.1 -0.4
v -0.1 0.1 -0.4
v -0.2 0.1 -0.4
v -0.4 0.1 -0.4
v -0.5 0.1 -0.4
v -0.6 0.1 -0.4
v -0.7 0.1 -0.4
v -0.8 0.1 -0.4
v 0 0.1 -0.3
v -0.2 0.1 -0.3
v -0.3 0.1 -0.3
v -0.4 0.1 -0.3
v -0.5 0.1 -0.3
v -0.6 0.1 -0.3
v -0.7 0.1 -0.3
v -0.8 0.1 -0.3
v -0.1 0.1 -0.2
v -0.2 0.1 -0.2
v -0.3 0.1 -0.2
v -0.4 0.1 -0.2
v -0.5 0.1 -0.2
v -0.6 0.1 -0.2
v -0.7 0.1 -0.2
v -0.8 0.1 -0.2
v 0 0.1 -0.1
v -0.1 0.1 -0.1
v -0.2 0.1 -0.1
v -0.3 0.1 -0.1
v -0.6 0.1 -0.1
v -0.7 0.1 -0.1
v -0.8 0.1 -0.1
v -0.1 0.1 0
v -0.2 0.1 0
v -0.3 0.1 0
v -0.6 0.1 0
v -0.7 0.1 0
v -0.8 0.1 0
v 0 0.1 0.1
v -0.1 0.1 0.1
v -0.2 0.1 0.1
v -0.4 0.1 0.1
v -0.5 0.1 0.1
v -0.7 0.1 0.1
v -0.2 0.1 0.2
v -0.3 0.1 0.2
v -0.4 0.1 0.2
v -0.6 0.1 0.2
v -0.7 0.1 0.2
v 0 0.1 0.3
v -0.1 0.1 0.3
v -0.2 0.1 0.3
v -0.3 0.1 0.3
v -0.4 0.1 0.3
v -0.5 0.1 0.3
v -0.6 0.1 0.3
v -0.7 0.1 0.3
v -0.8 0.1 0.3
v 0 0.1 0.4
v -0.1 0.1 0.4
v -0.2 0.1 0.4
v -0.3 0.1 0.4
v -0.5 0.1 0.4
v -0.6 0.1 0.4
v -0.7 0.1 0.4
v -0.8 0.1 0.4
v -0.1 0.1 0.5
v -0.3 0.1 0.5
v -0.4 0.1 0.5
v -0.5 0.1 0.5
v -0.6 0.1 0.5
v -0.7 0.1 0.5
v -0.2 0.1 0.6
v -0.3 0.1 0.6
v -0.4 0.1 0.6
v -0.5 0.1 0.6
v -0.7 0.1 0.6
v -0.8 0.1 0.6
v -0.1 0.1 0.7
v -0.2 0.1 0.7
v -0.3 0.1 0.7
v -0.6 0.1 0.7
v -0.7 0.1 0.7
v -0.1 0.1 0.8
v -0.2 0.1 0.8
v -0.3 0.1 0.8
v -0.4 0.1 0.8
v -0.5 0.1 0.8
v -0.6 0.1 0.8
v -0.8 0.1 0.8
v 0.1 0.2 -0.8
v -0.1 0.2 -0.8
v 0.2 0.2 -0.5
v 0.1 0.2 -0.5
v 0 0.2 -0.4
v -0.1 0.2 -0.4
v 0 0.2 0.4
v -0.1 0.2 0.4
v 0.2 0.2 0.5
v 0.1 0.2 0.5
v 0.1 0.2 0.8
v -0.1 0.2 0.8

# faces
f 3/4/1 2/4/1 1/4/1
f 4/4/1 2/4/1 3/4/1
f 9/4/1 6/4/1 5/4/1
f 10/4/1 6/4/1 9/4/1
f 11/4/1 8/4/1 7/4/1
f 12/4/1 8/4/1 11/4/1
f 13/4/2 14/4/2 19/4/2
f 17/4/2 18/4/2 19/4/2
f 16/4/2 17/4/2 19/4/2
f 15/4/2 16/4/2 19/4/2
f 14/4/2 15/4/2 19/4/2
f 19/4/2 18/4/2 20/4/2
f 21/4/2 22/4/2 30/4/2
f 22/4/2 23/4/2 30/4/2
f 23/4/2 24/4/2 30/4/2
f 24/4/2 25/4/2 30/4/2
f 30/4/2 25/4/2 31/4/2
f 28/4/2 29/4/2 32/4/2
f 27/4/2 28/4/2 32/4/2
f 26/4/2 27/4/2 32/4/2
f 32/4/2 29/4/2 33/4/2
f 34/3/2 35/3/2 46/3/2
f 35/1/2 36/1/2 47/1/2
f 46/3/2 35/3/2 47/3/2
f 36/3/2 37/3/2 48/3/2
f 47/1/2 36/1/2 48/1/2
f 37/1/2 38/1/2 49/1/2
f 48/3/2 37/3/2 49/3/2
f 38/2/2 39/2/2 50/2/2
f 49/1/2 38/1/2 50/1/2
f 39/1/2 40/1/2 51/1/2
f 50/2/2 39/2/2 51/2/2
f 40/2/2 41/2/2 52/2/2
f 51/1/2 40/1/2 52/1/2
f 41/3/2 42/3/2 53/3/2
f 52/2/2 41/2/2 53/2/2
f 42/2/2 43/2/2 54/2/2
f 53/3/2 42/3/2 54/3/2
f 43/3/2 44/3/2 55/3/2
f 54/2/2 43/2/2 55/2/2
f 44/1/2 45/1/2 56/1/2
f 55/3/2 44/3/2 56/3/2
f 56/1/2 45/1/2 57/1/2
f 60/4/3 59/4/3 58/4/3
f 61/4/3 59/4/3 60/4/3
f 62/4/3 59/4/3 61/4/3
f 63/3/3 61/3/3 60/3/3
f 64/3/3 61/3/3 63/3/3
f 65/2/3 64/2/3 63/2/3
f 66/2/3 64/2/3 65/2/3
f 67/1/3 66/1/3 65/1/3
f 68/1/3 66/1/3 67/1/3
f 69/3/3 68/3/3 67/3/3
f 70/3/3 68/3/3 69/3/3
f 71/2/3 70/2/3 69/2/3
f 72/2/3 70/2/3 71/2/3
f 73/3/3 72/3/3 71/3/3
f 74/3/3 72/3/3 73/3/3
f 77/4/3 76/4/3 75/4/3
f 78/4/3 76/4/3 77/4/3
f 81/4/3 80/4/3 79/4/3
f 82/4/3 80/4/3 81/4/3
f 83/4/4 84/4/4 85/4/4
f 85/4/4 84/4/4 86/4/4
f 87/4/4 88/4/4 89/4/4
f 89/4/4 88/4/4 90/4/4
f 91/4/4 92/4/4 93/4/4
f 93/4/4 92/4/4 94/4/4
f 94/4/4 92/4/4 95/4/4
f 93/2/4 94/2/4 96/2/4
f 96/2/4 94/2/4 97/2/4
f 96/3/4 97/3/4 98/3/4
f 98/3/4 97/3/4 99/3/4
f 98/1/4 99/1/4 100/1/4
f 100/1/4 99/1/4 101/1/4
f 100/3/4 101/3/4 102/3/4
f 102/3/4 101/3/4 103/3/4
f 102/2/4 103/2/4 104/2/4
f 104/2/4 103/2/4 105/2/4
f 104/1/4 105/1/4 106/1/4
f 106/1/4 105/1/4 107/1/4
f 116/4/5 109/4/5 108/4/5
f 116/3/5 110/3/5 109/3/5
f 117/2/5 111/2/5 110/2/5
f 117/3/5 110/3/5 116/3/5
f 118/1/5 112/1/5 111/1/5
f 118/2/5 111/2/5 117/2/5
f 119/3/5 113/3/5 112/3/5
f 119/1/5 112/1/5 118/1/5
f 120/3/5 113/3/5 119/3/5
f 121/2/5 114/2/5 113/2/5
f 121/3/5 113/3/5 120/3/5
f 122/3/5 115/3/5 114/3/5
f 122/2/5 114/2/5 121/2/5
f 123/4/5 116/4/5 108/4/5
f 123/2/5 117/2/5 116/2/5
f 124/1/5 118/1/5 117/1/5
f 124/2/5 117/2/5 123/2/5
f 125/3/5 119/3/5 118/3/5
f 125/1/5 118/1/5 124/1/5
f 126/1/5 120/1/5 119/1/5
f 126/3/5 119/3/5 125/3/5
f 127/3/5 121/3/5 120/3/5
f 127/1/5 120/1/5 126/1/5
f 127/3/5 122/3/5 121/3/5
f 128/3/5 122/3/5 127/3/5
f 129/3/5 115/3/5 122/3/5
f 129/3/5 122/3/5 128/3/5
f 130/3/5 115/3/5 129/3/5
f 132/4/5 123/4/5 108/4/5
f 133/1/5 124/1/5 123/1/5
f 133/4/5 123/4/5 132/4/5
f 134/2/5 126/2/5 125/2/5
f 134/1/5 124/1/5 133/1/5
f 134/2/5 125/2/5 124/2/5
f 134/2/5 127/2/5 126/2/5
f 135/2/5 127/2/5 134/2/5
f 136/1/5 128/1/5 127/1/5
f 136/3/5 129/3/5 128/3/5
f 137/1/5 130/1/5 129/1/5
f 137/3/5 129/3/5 136/3/5
f 138/1/5 130/1/5 137/1/5
f 139/4/5 133/4/5 132/4/5
f 139/4/5 132/4/5 131/4/5
f 140/3/5 134/3/5 133/3/5
f 140/4/5 133/4/5 139/4/5
f 141/1/5 135/1/5 134/1/5
f 141/3/5 134/3/5 140/3/5
f 142/2/5 127/2/5 135/2/5
f 142/1/5 135/1/5 141/1/5
f 143/1/5 136/1/5 127/1/5
f 143/2/5 127/2/5 142/2/5
f 144/2/5 137/2/5 136/2/5
f 144/1/5 136/1/5 143/1/5
f 145/3/5 138/3/5 137/3/5
f 145/2/5 137/2/5 144/2/5
f 146/3/5 138/3/5 145/3/5
f 147/1/5 141/1/5 140/1/5
f 147/1/5 140/1/5 139/1/5
f 147/4/5 139/4/5 131/4/5
f 148/3/5 142/3/5 141/3/5
f 148/1/5 141/1/5 147/1/5
f 148/3/5 143/3/5 142/3/5
f 149/3/5 143/3/5 148/3/5
f 150/3/5 143/3/5 149/3/5
f 151/1/5 144/1/5 143/1/5
f 151/3/5 143/3/5 150/3/5
f 152/3/5 145/3/5 144/3/5
f 152/1/5 144/1/5 151/1/5
f 153/1/5 146/1/5 145/1/5
f 153/3/5 145/3/5 152/3/5
f 154/1/5 146/1/5 153/1/5
f 155/2/5 148/2/5 147/2/5
f 156/1/5 149/1/5 148/1/5
f 156/2/5 148/2/5 155/2/5
f 157/3/5 150/3/5 149/3/5
f 157/1/5 149/1/5 156/1/5
f 158/2/5 151/2/5 150/2/5
f 158/3/5 150/3/5 157/3/5
f 159/3/5 152/3/5 151/3/5
f 159/2/5 151/2/5 158/2/5
f 160/1/5 153/1/5 152/1/5
f 160/3/5 152/3/5 159/3/5
f 161/2/5 154/2/5 153/2/5
f 161/1/5 153/1/5 160/1/5
f 162/2/5 154/2/5 161/2/5
f 163/4/5 147/4/5 131/4/5
f 163/2/5 155/2/5 147/2/5
f 164/1/5 156/1/5 155/1/5
f 164/2/5 155/2/5 163/2/5
f 165/2/5 158/2/5 157/2/5
f 165/1/5 156/1/5 164/1/5
f 165/2/5 157/2/5 156/2/5
f 166/2/5 158/2/5 165/2/5
f 167/2/5 161/2/5 160/2/5
f 167/3/5 160/3/5 159/3/5
f 168/1/5 162/1/5 161/1/5
f 168/2/5 161/2/5 167/2/5
f 169/1/5 162/1/5 168/1/5
f 170/3/5 164/3/5 163/3/5
f 170/1/5 165/1/5 164/1/5
f 171/3/5 166/3/5 165/3/5
f 171/1/5 165/1/5 170/1/5
f 172/2/5 158/2/5 166/2/5
f 172/3/5 166/3/5 171/3/5
f 173/3/5 167/3/5 159/3/5
f 173/1/5 168/1/5 167/1/5
f 174/2/5 169/2/5 168/2/5
f 174/1/5 168/1/5 173/1/5
f 175/2/5 169/2/5 174/2/5
f 176/4/5 163/4/5 131/4/5
f 176/3/5 171/3/5 170/3/5
f 176/3/5 170/3/5 163/3/5
f 177/3/5 171/3/5 176/3/5
f 178/2/5 172/2/5 171/2/5
f 178/3/5 171/3/5 177/3/5
f 179/2/5 158/2/5 172/2/5
f 179/2/5 172/2/5 178/2/5
f 179/1/5 159/1/5 158/1/5
f 180/3/5 175/3/5 174/3/5
f 180/1/5 159/1/5 179/1/5
f 180/3/5 174/3/5 173/3/5
f 180/3/5 173/3/5 159/3/5
f 181/3/5 175/3/5 180/3/5
f 182/1/5 179/1/5 178/1/5
f 182/3/5 178/3/5 177/3/5
f 182/1/5 181/1/5 180/1/5
f 182/1/5 180/1/5 179/1/5
f 183/1/5 181/1/5 182/1/5
f 184/1/5 181/1/5 183/1/5
f 185/1/5 181/1/5 184/1/5
f 186/3/5 175/3/5 181/3/5
f 186/1/5 181/1/5 185/1/5
f 187/1/5 177/1/5 176/1/5
f 187/4/5 176/4/5 131/4/5
f 188/3/5 182/3/5 177/3/5
f 188/1/5 177/1/5 187/1/5
f 189/2/5 183/2/5 182/2/5
f 189/3/5 182/3/5 188/3/5
f 190/3/5 184/3/5 183/3/5
f 190/2/5 183/2/5 189/2/5
f 191/1/5 185/1/5 184/1/5
f 191/3/5 184/3/5 190/3/5
f 192/1/5 185/1/5 191/1/5
f 193/2/5 186/2/5 185/2/5
f 193/1/5 185/1/5 192/1/5
f 194/3/5 175/3/5 186/3/5
f 194/2/5 186/2/5 193/2/5
f 195/3/5 175/3/5 194/3/5
f 196/4/5 187/4/5 131/4/5
f 197/2/5 188/2/5 187/2/5
f 197/4/5 187/4/5 196/4/5
f 197/2/5 189/2/5 188/2/5
f 198/2/5 189/2/5 197/2/5
f 199/1/5 190/1/5 189/1/5
f 199/2/5 189/2/5 198/2/5
f 199/1/5 192/1/5 191/1/5
f 199/1/5 191/1/5 190/1/5
f 200/1/5 192/1/5 199/1/5
f 201/3/5 193/3/5 192/3/5
f 201/1/5 192/1/5 200/1/5
f 202/1/5 194/1/5 193/1/5
f 202/3/5 193/3/5 201/3/5
f 203/2/5 195/2/5 194/2/5
f 203/1/5 194/1/5 202/1/5
f 204/2/5 195/2/5 203/2/5
f 205/4/5 196/4/5 131/4/5
f 206/1/5 197/1/5 196/1/5
f 206/4/5 196/4/5 205/4/5
f 207/4/5 198/4/5 197/4/5
f 207/1/5 197/1/5 206/1/5
f 208/1/5 200/1/5 199/1/5
f 208/4/5 198/4/5 207/4/5
f 208/1/5 199/1/5 198/1/5
f 209/2/5 201/2/5 200/2/5
f 209/1/5 200/1/5 208/1/5
f 210/2/5 201/2/5 209/2/5
f 211/3/5 202/3/5 201/3/5
f 211/2/5 201/2/5 210/2/5
f 212/2/5 203/2/5 202/2/5
f 212/3/5 202/3/5 211/3/5
f 213/3/5 204/3/5 203/3/5
f 213/2/5 203/2/5 212/2/5
f 214/3/5 209/3/5 208/3/5
f 215/2/5 210/2/5 209/2/5
f 215/3/5 209/3/5 214/3/5
f 216/1/5 211/1/5 210/1/5
f 216/2/5 210/2/5 215/2/5
f 217/2/5 212/2/5 211/2/5
f 217/1/5 211/1/5 216/1/5
f 218/3/5 204/3/5 213/3/5
f 218/3/5 213/3/5 212/3/5
f 219/3/5 204/3/5 218/3/5
f 220/4/5 207/4/5 206/4/5
f 220/3/5 214/3/5 208/3/5
f 220/4/5 208/4/5 207/4/5
f 221/1/5 216/1/5 215/1/5
f 221/3/5 214/3/5 220/3/5
f 221/1/5 215/1/5 214/1/5
f 222/1/5 216/1/5 221/1/5
f 223/2/5 212/2/5 217/2/5
f 223/3/5 218/3/5 212/3/5
f 224/1/5 219/1/5 218/1/5
f 224/3/5 218/3/5 223/3/5
f 225/4/5 220/4/5 206/4/5
f 226/2/5 221/2/5 220/2/5
f 226/4/5 220/4/5 225/4/5
f 227/3/5 222/3/5 221/3/5
f 227/2/5 221/2/5 226/2/5
f 228/1/5 216/1/5 222/1/5
f 228/3/5 222/3/5 227/3/5
f 229/3/5 217/3/5 216/3/5
f 229/1/5 216/1/5 228/1/5
f 230/2/5 223/2/5 217/2/5
f 230/3/5 217/3/5 229/3/5
f 231/1/5 224/1/5 223/1/5
f 231/2/5 223/2/5 230/2/5
f 232/1/5 219/1/5 224/1/5
f 232/1/5 224/1/5 231/1/5
f 233/3/6 234/3/6 240/3/6
f 234/2/6 235/2/6 241/2/6
f 240/3/6 234/3/6 241/3/6
f 235/1/6 236/1/6 242/1/6
f 241/2/6 235/2/6 242/2/6
f 236/3/6 237/3/6 243/3/6
f 242/1/6 236/1/6 243/1/6
f 243/3/6 237/3/6 244/3/6
f 237/2/6 238/2/6 245/2/6
f 244/3/6 237/3/6 245/3/6
f 238/3/6 239/3/6 246/3/6
f 245/2/6 238/2/6 246/2/6
f 240/2/6 241/2/6 247/2/6
f 241/1/6 242/1/6 248/1/6
f 247/2/6 241/2/6 248/2/6
f 242/3/6 243/3/6 249/3/6
f 248/1/6 242/1/6 249/1/6
f 243/1/6 244/1/6 250/1/6
f 249/3/6 243/3/6 250/3/6
f 244/3/6 245/3/6 251/3/6
f 250/1/6 244/1/6 251/1/6
f 245/3/6 246/3/6 251/3/6
f 251/3/6 246/3/6 252/3/6
f 246/3/6 239/3/6 253/3/6
f 252/3/6 246/3/6 253/3/6
f 253/3/6 239/3/6 254/3/6
f 247/1/6 248/1/6 255/1/6
f 249/2/6 250/2/6 256/2/6
f 255/1/6 248/1/6 256/1/6
f 248/2/6 249/2/6 256/2/6
f 250/2/6 251/2/6 256/2/6
f 256/2/6 251/2/6 257/2/6
f 251/1/6 252/1/6 258/1/6
f 252/3/6 253/3/6 258/3/6
f 253/1/6 254/1/6 259/1/6
f 258/3/6 253/3/6 259/3/6
f 259/1/6 254/1/6 260/1/6
f 255/3/6 256/3/6 262/3/6
f 256/1/6 257/1/6 263/1/6
f 262/3/6 256/3/6 263/3/6
f 257/2/6 251/2/6 264/2/6
f 263/1/6 257/1/6 264/1/6
f 251/1/6 258/1/6 265/1/6
f 264/2/6 251/2/6 265/2/6
f 258/2/6 259/2/6 266/2/6
f 265/1/6 258/1/6 266/1/6
f 259/3/6 260/3/6 267/3/6
f 266/2/6 259/2/6 267/2/6
f 267/3/6 260/3/6 268/3/6
f 262/1/6 263/1/6 269/1/6
f 261/1/6 262/1/6 269/1/6
f 263/3/6 264/3/6 270/3/6
f 269/1/6 263/1/6 270/1/6
f 264/3/6 265/3/6 270/3/6
f 270/3/6 265/3/6 271/3/6
f 271/3/6 265/3/6 272/3/6
f 265/1/6 266/1/6 273/1/6
f 272/3/6 265/3/6 273/3/6
f 266/3/6 267/3/6 274/3/6
f 273/1/6 266/1/6 274/1/6
f 267/1/6 268/1/6 275/1/6
f 274/3/6 267/3/6 275/3/6
f 275/1/6 268/1/6 276/1/6
f 269/2/6 270/2/6 277/2/6
f 270/1/6 271/1/6 278/1/6
f 277/2/6 270/2/6 278/2/6
f 271/3/6 272/3/6 279/3/6
f 278/1/6 271/1/6 279/1/6
f 272/2/6 273/2/6 280/2/6
f 279/3/6 272/3/6 280/3/6
f 273/3/6 274/3/6 281/3/6
f 280/2/6 273/2/6 281/2/6
f 274/1/6 275/1/6 282/1/6
f 281/3/6 274/3/6 282/3/6
f 275/2/6 276/2/6 283/2/6
f 282/1/6 275/1/6 283/1/6
f 283/2/6 276/2/6 284/2/6
f 269/2/6 277/2/6 285/2/6
f 277/1/6 278/1/6 286/1/6
f 285/2/6 277/2/6 286/2/6
f 279/2/6 280/2/6 287/2/6
f 286/1/6 278/1/6 287/1/6
f 278/2/6 279/2/6 287/2/6
f 287/2/6 280/2/6 288/2/6
f 281/3/6 282/3/6 289/3/6
f 282/2/6 283/2/6 289/2/6
f 283/1/6 284/1/6 290/1/6
f 289/2/6 283/2/6 290/2/6
f 290/1/6 284/1/6 291/1/6
f 285/3/6 286/3/6 292/3/6
f 286/1/6 287/1/6 292/1/6
f 287/3/6 288/3/6 293/3/6
f 292/1/6 287/1/6 293/1/6
f 288/2/6 280/2/6 294/2/6
f 293/3/6 288/3/6 294/3/6
f 281/3/6 289/3/6 295/3/6
f 289/1/6 290/1/6 295/1/6
f 290/2/6 291/2/6 296/2/6
f 295/1/6 290/1/6 296/1/6
f 296/2/6 291/2/6 297/2/6
f 292/3/6 293/3/6 298/3/6
f 285/3/6 292/3/6 298/3/6
f 298/3/6 293/3/6 299/3/6
f 293/2/6 294/2/6 300/2/6
f 299/3/6 293/3/6 300/3/6
f 294/2/6 280/2/6 301/2/6
f 300/2/6 294/2/6 301/2/6
f 280/1/6 281/1/6 301/1/6
f 296/3/6 297/3/6 302/3/6
f 301/1/6 281/1/6 302/1/6
f 281/3/6 295/3/6 302/3/6
f 295/3/6 296/3/6 302/3/6
f 302/3/6 297/3/6 303/3/6
f 299/3/6 300/3/6 304/3/6
f 300/1/6 301/1/6 304/1/6
f 302/1/6 303/1/6 304/1/6
f 301/1/6 302/1/6 304/1/6
f 304/1/6 303/1/6 305/1/6
f 305/1/6 303/1/6 306/1/6
f 306/1/6 303/1/6 307/1/6
f 303/3/6 297/3/6 308/3/6
f 307/1/6 303/1/6 308/1/6
f 298/1/6 299/1/6 309/1/6
f 299/3/6 304/3/6 310/3/6
f 309/1/6 299/1/6 310/1/6
f 304/2/6 305/2/6 311/2/6
f 310/3/6 304/3/6 311/3/6
f 305/3/6 306/3/6 312/3/6
f 311/2/6 305/2/6 312/2/6
f 306/1/6 307/1/6 313/1/6
f 312/3/6 306/3/6 313/3/6
f 313/1/6 307/1/6 314/1/6
f 307/2/6 308/2/6 315/2/6
f 314/1/6 307/1/6 315/1/6
f 308/3/6 297/3/6 316/3/6
f 315/2/6 308/2/6 316/2/6
f 316/3/6 297/3/6 317/3/6
f 309/2/6 310/2/6 318/2/6
f 310/2/6 311/2/6 318/2/6
f 318/2/6 311/2/6 319/2/6
f 311/1/6 312/1/6 320/1/6
f 319/2/6 311/2/6 320/2/6
f 313/1/6 314/1/6 320/1/6
f 312/1/6 313/1/6 320/1/6
f 320/1/6 314/1/6 321/1/6
f 314/3/6 315/3/6 322/3/6
f 321/1/6 314/1/6 322/1/6
f 315/1/6 316/1/6 323/1/6
f 322/3/6 315/3/6 323/3/6
f 316/2/6 317/2/6 324/2/6
f 323/1/6 316/1/6 324/1/6
f 324/2/6 317/2/6 325/2/6
f 320/1/6 321/1/6 326/1/6
f 319/1/6 320/1/6 326/1/6
f 321/2/6 322/2/6 327/2/6
f 326/1/6 321/1/6 327/1/6
f 327/2/6 322/2/6 328/2/6
f 322/3/6 323/3/6 329/3/6
f 328/2/6 322/2/6 329/2/6
f 323/2/6 324/2/6 330/2/6
f 329/3/6 323/3/6 330/3/6
f 324/3/6 325/3/6 331/3/6
f 330/2/6 324/2/6 331/2/6
f 326/3/6 327/3/6 332/3/6
f 327/2/6 328/2/6 333/2/6
f 332/3/6 327/3/6 333/3/6
f 328/1/6 329/1/6 334/1/6
f 333/2/6 328/2/6 334/2/6
f 329/2/6 330/2/6 335/2/6
f 334/1/6 329/1/6 335/1/6
f 331/3/6 325/3/6 336/3/6
f 330/3/6 331/3/6 336/3/6
f 336/3/6 325/3/6 337/3/6
f 326/3/6 332/3/6 338/3/6
f 333/1/6 334/1/6 339/1/6
f 338/3/6 332/3/6 339/3/6
f 332/1/6 333/1/6 339/1/6
f 339/1/6 334/1/6 340/1/6
f 335/2/6 330/2/6 341/2/6
f 330/3/6 336/3/6 341/3/6
f 336/1/6 337/1/6 342/1/6
f 341/3/6 336/3/6 342/3/6
f 338/2/6 339/2/6 343/2/6
f 339/3/6 340/3/6 344/3/6
f 343/2/6 339/2/6 344/2/6
f 340/1/6 334/1/6 345/1/6
f 344/3/6 340/3/6 345/3/6
f 334/3/6 335/3/6 346/3/6
f 345/1/6 334/1/6 346/1/6
f 335/2/6 341/2/6 347/2/6
f 346/3/6 335/3/6 347/3/6
f 341/1/6 342/1/6 348/1/6
f 347/2/6 341/2/6 348/2/6
f 342/1/6 337/1/6 349/1/6
f 348/1/6 342/1/6 349/1/6
f 350/4/6 351/4/6 353/4/6
f 353/4/6 351/4/6 354/4/6
f 352/4/6 353/4/6 354/4/6
f 354/4/6 351/4/6 355/4/6
f 352/4/6 354/4/6 356/4/6
f 352/4/6 356/4/6 358/4/6
f 356/4/6 357/4/6 358/4/6
f 358/4/6 357/4/6 359/4/6
f 359/4/6 357/4/6 360/4/6
f 360/4/6 357/4/6 361/4/6
