# MagicaVoxel @ Ephtracy

# group
o 

# material
mtllib Playground_Sandbox_ Corner_02.mtl
usemtl palette

# normals
vn 1 0 0
vn -1 0 0
vn 0 0 -1
vn 0 0 1
vn 0 -1 0
vn 0 1 0

# texcoords
vt 0.630859 0.5
vt 0.634766 0.5
vt 0.638672 0.5
vt 0.642578 0.5

# verts
v 0.1 0 1.49012e-008
v 0.1 0 0.8
v 0.1 0.2 1.49012e-008
v 0.1 0.2 0.8
v -1.49012e-008 0 -0.1
v -1.49012e-008 0 1.49012e-008
v -1.49012e-008 0.2 -0.1
v -1.49012e-008 0.2 1.49012e-008
v -0.1 0.1 0.2
v -0.1 0.1 0.3
v -0.1 0.1 0.4
v -0.1 0.1 0.5
v -0.1 0.1 0.6
v -0.1 0.1 0.7
v -0.1 0.1 0.8
v -0.1 0.2 0.2
v -0.1 0.2 0.8
v -0.2 0.1 0.1
v -0.2 0.1 0.2
v -0.2 0.2 0.1
v -0.2 0.2 0.2
v -0.8 0 -0.1
v -0.8 0 0.1
v -0.8 0 0.3
v -0.8 0 0.4
v -0.8 0 0.8
v -0.8 0.1 0.1
v -0.8 0.1 0.3
v -0.8 0.1 0.4
v -0.8 0.1 0.8
v -0.8 0.2 -0.1
v -0.8 0.2 0.1
v -1.49012e-008 0 -0.1
v -1.49012e-008 0.2 -0.1
v -0.8 0 -0.1
v -0.8 0.2 -0.1
v 0.1 0 1.49012e-008
v 0.1 0.2 1.49012e-008
v -1.49012e-008 0 1.49012e-008
v -1.49012e-008 0.2 1.49012e-008
v -0.2 0.1 0.1
v -0.2 0.2 0.1
v -0.4 0.1 0.1
v -0.6 0.1 0.1
v -0.7 0.1 0.1
v -0.8 0.1 0.1
v -0.8 0.2 0.1
v -0.1 0.1 0.2
v -0.1 0.2 0.2
v -0.2 0.1 0.2
v -0.2 0.2 0.2
v 0.1 0 0.8
v 0.1 0.2 0.8
v -0.1 0 0.8
v -0.1 0.1 0.8
v -0.1 0.2 0.8
v -0.2 0 0.8
v -0.2 0.1 0.8
v -0.4 0 0.8
v -0.4 0.1 0.8
v -0.6 0 0.8
v -0.6 0.1 0.8
v -0.7 0 0.8
v -0.7 0.1 0.8
v -0.8 0 0.8
v -0.8 0.1 0.8
v -1.49012e-008 0 -0.1
v -0.8 0 -0.1
v 0.1 0 1.49012e-008
v -1.49012e-008 0 1.49012e-008
v -0.2 0 0.1
v -0.4 0 0.1
v -0.6 0 0.1
v -0.7 0 0.1
v -0.8 0 0.1
v -0.1 0 0.2
v -0.2 0 0.2
v -0.4 0 0.2
v -0.5 0 0.2
v -0.6 0 0.2
v -0.7 0 0.2
v -0.1 0 0.3
v -0.2 0 0.3
v -0.4 0 0.3
v -0.5 0 0.3
v -0.6 0 0.3
v -0.7 0 0.3
v -0.8 0 0.3
v -0.1 0 0.4
v -0.2 0 0.4
v -0.3 0 0.4
v -0.5 0 0.4
v -0.6 0 0.4
v -0.7 0 0.4
v -0.8 0 0.4
v -0.1 0 0.5
v -0.2 0 0.5
v -0.3 0 0.5
v -0.4 0 0.5
v -0.5 0 0.5
v -0.6 0 0.5
v -0.7 0 0.5
v -0.1 0 0.6
v -0.2 0 0.6
v -0.3 0 0.6
v -0.4 0 0.6
v -0.5 0 0.6
v -0.6 0 0.6
v -0.7 0 0.6
v -0.1 0 0.7
v -0.2 0 0.7
v -0.3 0 0.7
v -0.4 0 0.7
v -0.5 0 0.7
v -0.6 0 0.7
v -0.7 0 0.7
v 0.1 0 0.8
v -0.1 0 0.8
v -0.2 0 0.8
v -0.4 0 0.8
v -0.6 0 0.8
v -0.7 0 0.8
v -0.8 0 0.8
v -0.2 0.1 0.1
v -0.4 0.1 0.1
v -0.6 0.1 0.1
v -0.7 0.1 0.1
v -0.8 0.1 0.1
v -0.1 0.1 0.2
v -0.2 0.1 0.2
v -0.4 0.1 0.2
v -0.5 0.1 0.2
v -0.6 0.1 0.2
v -0.7 0.1 0.2
v -0.1 0.1 0.3
v -0.2 0.1 0.3
v -0.4 0.1 0.3
v -0.5 0.1 0.3
v -0.6 0.1 0.3
v -0.7 0.1 0.3
v -0.8 0.1 0.3
v -0.1 0.1 0.4
v -0.2 0.1 0.4
v -0.3 0.1 0.4
v -0.5 0.1 0.4
v -0.6 0.1 0.4
v -0.7 0.1 0.4
v -0.8 0.1 0.4
v -0.1 0.1 0.5
v -0.2 0.1 0.5
v -0.3 0.1 0.5
v -0.4 0.1 0.5
v -0.5 0.1 0.5
v -0.6 0.1 0.5
v -0.7 0.1 0.5
v -0.1 0.1 0.6
v -0.2 0.1 0.6
v -0.3 0.1 0.6
v -0.4 0.1 0.6
v -0.5 0.1 0.6
v -0.6 0.1 0.6
v -0.7 0.1 0.6
v -0.1 0.1 0.7
v -0.2 0.1 0.7
v -0.3 0.1 0.7
v -0.4 0.1 0.7
v -0.5 0.1 0.7
v -0.6 0.1 0.7
v -0.7 0.1 0.7
v -0.1 0.1 0.8
v -0.2 0.1 0.8
v -0.4 0.1 0.8
v -0.6 0.1 0.8
v -0.7 0.1 0.8
v -0.8 0.1 0.8
v -1.49012e-008 0.2 -0.1
v -0.8 0.2 -0.1
v 0.1 0.2 1.49012e-008
v -1.49012e-008 0.2 1.49012e-008
v -0.2 0.2 0.1
v -0.8 0.2 0.1
v -0.1 0.2 0.2
v -0.2 0.2 0.2
v 0.1 0.2 0.8
v -0.1 0.2 0.8

# faces
f 3/4/1 2/4/1 1/4/1
f 4/4/1 2/4/1 3/4/1
f 7/4/1 6/4/1 5/4/1
f 8/4/1 6/4/1 7/4/1
f 9/4/2 10/4/2 16/4/2
f 14/4/2 15/4/2 16/4/2
f 13/4/2 14/4/2 16/4/2
f 12/4/2 13/4/2 16/4/2
f 11/4/2 12/4/2 16/4/2
f 10/4/2 11/4/2 16/4/2
f 16/4/2 15/4/2 17/4/2
f 18/4/2 19/4/2 20/4/2
f 20/4/2 19/4/2 21/4/2
f 22/4/2 23/4/2 27/4/2
f 23/3/2 24/3/2 27/3/2
f 24/1/2 25/1/2 28/1/2
f 27/3/2 24/3/2 28/3/2
f 25/3/2 26/3/2 29/3/2
f 28/1/2 25/1/2 29/1/2
f 29/3/2 26/3/2 30/3/2
f 22/4/2 27/4/2 31/4/2
f 31/4/2 27/4/2 32/4/2
f 35/4/3 34/4/3 33/4/3
f 36/4/3 34/4/3 35/4/3
f 39/4/3 38/4/3 37/4/3
f 40/4/3 38/4/3 39/4/3
f 41/4/4 42/4/4 43/4/4
f 43/4/4 42/4/4 44/4/4
f 44/4/4 42/4/4 45/4/4
f 45/4/4 42/4/4 46/4/4
f 46/4/4 42/4/4 47/4/4
f 48/4/4 49/4/4 50/4/4
f 50/4/4 49/4/4 51/4/4
f 52/4/4 53/4/4 54/4/4
f 54/4/4 53/4/4 55/4/4
f 55/4/4 53/4/4 56/4/4
f 54/3/4 55/3/4 57/3/4
f 57/3/4 55/3/4 58/3/4
f 57/2/4 58/2/4 59/2/4
f 59/2/4 58/2/4 60/2/4
f 59/3/4 60/3/4 61/3/4
f 61/3/4 60/3/4 62/3/4
f 61/2/4 62/2/4 63/2/4
f 63/2/4 62/2/4 64/2/4
f 63/3/4 64/3/4 65/3/4
f 65/3/4 64/3/4 66/3/4
f 70/4/5 68/4/5 67/4/5
f 71/4/5 68/4/5 70/4/5
f 71/4/5 70/4/5 69/4/5
f 72/4/5 68/4/5 71/4/5
f 73/4/5 68/4/5 72/4/5
f 74/4/5 68/4/5 73/4/5
f 75/4/5 68/4/5 74/4/5
f 76/4/5 71/4/5 69/4/5
f 77/2/5 72/2/5 71/2/5
f 77/4/5 71/4/5 76/4/5
f 78/3/5 73/3/5 72/3/5
f 78/2/5 72/2/5 77/2/5
f 79/3/5 73/3/5 78/3/5
f 80/2/5 74/2/5 73/2/5
f 80/3/5 73/3/5 79/3/5
f 81/3/5 75/3/5 74/3/5
f 81/2/5 74/2/5 80/2/5
f 82/4/5 76/4/5 69/4/5
f 82/2/5 77/2/5 76/2/5
f 82/2/5 79/2/5 78/2/5
f 82/2/5 78/2/5 77/2/5
f 83/2/5 79/2/5 82/2/5
f 84/2/5 79/2/5 83/2/5
f 85/3/5 81/3/5 80/3/5
f 85/2/5 79/2/5 84/2/5
f 85/3/5 80/3/5 79/3/5
f 86/3/5 81/3/5 85/3/5
f 87/3/5 75/3/5 81/3/5
f 87/3/5 81/3/5 86/3/5
f 88/3/5 75/3/5 87/3/5
f 89/3/5 83/3/5 82/3/5
f 89/4/5 82/4/5 69/4/5
f 90/2/5 84/2/5 83/2/5
f 90/3/5 83/3/5 89/3/5
f 91/2/5 84/2/5 90/2/5
f 92/2/5 86/2/5 85/2/5
f 92/3/5 85/3/5 84/3/5
f 93/3/5 87/3/5 86/3/5
f 93/2/5 86/2/5 92/2/5
f 94/1/5 88/1/5 87/1/5
f 94/3/5 87/3/5 93/3/5
f 95/1/5 88/1/5 94/1/5
f 96/4/5 89/4/5 69/4/5
f 96/1/5 90/1/5 89/1/5
f 97/3/5 91/3/5 90/3/5
f 97/1/5 90/1/5 96/1/5
f 98/2/5 84/2/5 91/2/5
f 98/3/5 91/3/5 97/3/5
f 99/3/5 93/3/5 92/3/5
f 99/2/5 84/2/5 98/2/5
f 99/3/5 92/3/5 84/3/5
f 100/3/5 93/3/5 99/3/5
f 101/2/5 94/2/5 93/2/5
f 101/3/5 93/3/5 100/3/5
f 102/3/5 95/3/5 94/3/5
f 102/2/5 94/2/5 101/2/5
f 103/3/5 97/3/5 96/3/5
f 103/3/5 98/3/5 97/3/5
f 103/4/5 96/4/5 69/4/5
f 104/3/5 98/3/5 103/3/5
f 105/1/5 99/1/5 98/1/5
f 105/3/5 98/3/5 104/3/5
f 106/2/5 100/2/5 99/2/5
f 106/1/5 99/1/5 105/1/5
f 107/1/5 101/1/5 100/1/5
f 107/2/5 100/2/5 106/2/5
f 108/3/5 102/3/5 101/3/5
f 108/1/5 101/1/5 107/1/5
f 109/3/5 95/3/5 102/3/5
f 109/3/5 102/3/5 108/3/5
f 110/2/5 104/2/5 103/2/5
f 110/4/5 103/4/5 69/4/5
f 111/3/5 105/3/5 104/3/5
f 111/2/5 104/2/5 110/2/5
f 112/2/5 107/2/5 106/2/5
f 112/3/5 105/3/5 111/3/5
f 112/2/5 106/2/5 105/2/5
f 113/2/5 107/2/5 112/2/5
f 114/3/5 108/3/5 107/3/5
f 114/2/5 107/2/5 113/2/5
f 115/1/5 109/1/5 108/1/5
f 115/3/5 108/3/5 114/3/5
f 116/3/5 95/3/5 109/3/5
f 116/1/5 109/1/5 115/1/5
f 117/4/5 110/4/5 69/4/5
f 118/3/5 111/3/5 110/3/5
f 118/4/5 110/4/5 117/4/5
f 119/2/5 113/2/5 112/2/5
f 119/3/5 111/3/5 118/3/5
f 119/2/5 112/2/5 111/2/5
f 120/3/5 115/3/5 114/3/5
f 120/2/5 113/2/5 119/2/5
f 120/3/5 114/3/5 113/3/5
f 121/2/5 116/2/5 115/2/5
f 121/3/5 115/3/5 120/3/5
f 122/3/5 95/3/5 116/3/5
f 122/2/5 116/2/5 121/2/5
f 123/3/5 95/3/5 122/3/5
f 124/2/6 125/2/6 130/2/6
f 125/3/6 126/3/6 131/3/6
f 130/2/6 125/2/6 131/2/6
f 131/3/6 126/3/6 132/3/6
f 126/2/6 127/2/6 133/2/6
f 132/3/6 126/3/6 133/3/6
f 127/3/6 128/3/6 134/3/6
f 133/2/6 127/2/6 134/2/6
f 129/2/6 130/2/6 135/2/6
f 131/2/6 132/2/6 135/2/6
f 130/2/6 131/2/6 135/2/6
f 135/2/6 132/2/6 136/2/6
f 136/2/6 132/2/6 137/2/6
f 132/3/6 133/3/6 138/3/6
f 137/2/6 132/2/6 138/2/6
f 133/3/6 134/3/6 138/3/6
f 138/3/6 134/3/6 139/3/6
f 134/3/6 128/3/6 140/3/6
f 139/3/6 134/3/6 140/3/6
f 140/3/6 128/3/6 141/3/6
f 135/3/6 136/3/6 142/3/6
f 136/2/6 137/2/6 143/2/6
f 142/3/6 136/3/6 143/3/6
f 143/2/6 137/2/6 144/2/6
f 138/2/6 139/2/6 145/2/6
f 137/3/6 138/3/6 145/3/6
f 139/3/6 140/3/6 146/3/6
f 145/2/6 139/2/6 146/2/6
f 140/1/6 141/1/6 147/1/6
f 146/3/6 140/3/6 147/3/6
f 147/1/6 141/1/6 148/1/6
f 142/1/6 143/1/6 149/1/6
f 143/3/6 144/3/6 150/3/6
f 149/1/6 143/1/6 150/1/6
f 144/2/6 137/2/6 151/2/6
f 150/3/6 144/3/6 151/3/6
f 137/3/6 145/3/6 152/3/6
f 151/2/6 137/2/6 152/2/6
f 145/3/6 146/3/6 152/3/6
f 152/3/6 146/3/6 153/3/6
f 146/2/6 147/2/6 154/2/6
f 153/3/6 146/3/6 154/3/6
f 147/3/6 148/3/6 155/3/6
f 154/2/6 147/2/6 155/2/6
f 149/3/6 150/3/6 156/3/6
f 150/3/6 151/3/6 156/3/6
f 156/3/6 151/3/6 157/3/6
f 151/1/6 152/1/6 158/1/6
f 157/3/6 151/3/6 158/3/6
f 152/2/6 153/2/6 159/2/6
f 158/1/6 152/1/6 159/1/6
f 153/1/6 154/1/6 160/1/6
f 159/2/6 153/2/6 160/2/6
f 154/3/6 155/3/6 161/3/6
f 160/1/6 154/1/6 161/1/6
f 155/3/6 148/3/6 162/3/6
f 161/3/6 155/3/6 162/3/6
f 156/2/6 157/2/6 163/2/6
f 157/3/6 158/3/6 164/3/6
f 163/2/6 157/2/6 164/2/6
f 159/2/6 160/2/6 165/2/6
f 164/3/6 158/3/6 165/3/6
f 158/2/6 159/2/6 165/2/6
f 165/2/6 160/2/6 166/2/6
f 160/3/6 161/3/6 167/3/6
f 166/2/6 160/2/6 167/2/6
f 161/1/6 162/1/6 168/1/6
f 167/3/6 161/3/6 168/3/6
f 162/3/6 148/3/6 169/3/6
f 168/1/6 162/1/6 169/1/6
f 163/3/6 164/3/6 170/3/6
f 165/2/6 166/2/6 171/2/6
f 170/3/6 164/3/6 171/3/6
f 164/2/6 165/2/6 171/2/6
f 166/3/6 167/3/6 172/3/6
f 171/2/6 166/2/6 172/2/6
f 167/3/6 168/3/6 172/3/6
f 168/2/6 169/2/6 173/2/6
f 172/3/6 168/3/6 173/3/6
f 169/3/6 148/3/6 174/3/6
f 173/2/6 169/2/6 174/2/6
f 174/3/6 148/3/6 175/3/6
f 176/4/6 177/4/6 179/4/6
f 179/4/6 177/4/6 180/4/6
f 178/4/6 179/4/6 180/4/6
f 180/4/6 177/4/6 181/4/6
f 178/4/6 180/4/6 182/4/6
f 182/4/6 180/4/6 183/4/6
f 178/4/6 182/4/6 184/4/6
f 184/4/6 182/4/6 185/4/6
