# MagicaVoxel @ Ephtracy

# group
o 

# material
mtllib Playground_Sand_Bucket_02.mtl
usemtl palette

# normals
vn 1 0 0
vn -1 0 0
vn 0 0 -1
vn 0 0 1
vn 0 -1 0
vn 0 1 0

# texcoords
vt 0.685547 0.5
vt 0.697266 0.5

# verts
v 0.2 0.2 1.49012e-008
v 0.2 0.2 0.1
v 0.2 0.3 1.49012e-008
v 0.2 0.3 0.1
v 0.1 0.1 1.49012e-008
v 0.1 0.1 0.2
v 0.1 0.2 -0.1
v 0.1 0.2 1.49012e-008
v 0.1 0.2 0.1
v 0.1 0.3 -0.1
v 0.1 0.3 1.49012e-008
v 0.1 0.3 0.1
v 0.1 0.3 0.2
v -0.1 0.1 1.49012e-008
v -0.1 0.1 0.2
v -0.1 0.2 -0.1
v -0.1 0.2 1.49012e-008
v -0.1 0.2 0.1
v -0.1 0.3 -0.1
v -0.1 0.3 1.49012e-008
v -0.1 0.3 0.1
v -0.1 0.3 0.2
v -0.2 0.2 1.49012e-008
v -0.2 0.2 0.1
v -0.2 0.3 1.49012e-008
v -0.2 0.3 0.1
v 0.1 0.2 -0.1
v 0.1 0.3 -0.1
v -0.1 0.2 -0.1
v -0.1 0.3 -0.1
v 0.2 0.2 1.49012e-008
v 0.2 0.3 1.49012e-008
v 0.1 0.1 1.49012e-008
v 0.1 0.2 1.49012e-008
v 0.1 0.3 1.49012e-008
v -0.1 0.1 1.49012e-008
v -0.1 0.2 1.49012e-008
v -0.1 0.3 1.49012e-008
v -0.2 0.2 1.49012e-008
v -0.2 0.3 1.49012e-008
v 0.2 0.2 0.1
v 0.2 0.3 0.1
v 0.1 0.2 0.1
v 0.1 0.3 0.1
v -0.1 0.2 0.1
v -0.1 0.3 0.1
v -0.2 0.2 0.1
v -0.2 0.3 0.1
v 0.1 0.1 0.2
v 0.1 0.3 0.2
v -0.1 0.1 0.2
v -0.1 0.3 0.2
v 0.1 0.1 1.49012e-008
v -0.1 0.1 1.49012e-008
v 0.1 0.1 0.2
v -0.1 0.1 0.2
v 0.1 0.2 -0.1
v -0.1 0.2 -0.1
v 0.2 0.2 1.49012e-008
v 0.1 0.2 1.49012e-008
v -0.1 0.2 1.49012e-008
v -0.2 0.2 1.49012e-008
v 0.2 0.2 0.1
v 0.1 0.2 0.1
v -0.1 0.2 0.1
v -0.2 0.2 0.1
v 0.1 0.3 -0.1
v -0.1 0.3 -0.1
v 0.2 0.3 1.49012e-008
v 0.1 0.3 1.49012e-008
v -0.1 0.3 1.49012e-008
v -0.2 0.3 1.49012e-008
v 0.2 0.3 0.1
v 0.1 0.3 0.1
v -0.1 0.3 0.1
v -0.2 0.3 0.1
v 0.1 0.3 0.2
v -0.1 0.3 0.2

# faces
f 3/2/1 2/2/1 1/2/1
f 4/2/1 2/2/1 3/2/1
f 8/1/1 6/1/1 5/1/1
f 9/1/1 6/1/1 8/1/1
f 10/2/1 8/2/1 7/2/1
f 11/2/1 8/2/1 10/2/1
f 12/1/1 6/1/1 9/1/1
f 13/1/1 6/1/1 12/1/1
f 14/1/2 15/1/2 17/1/2
f 17/1/2 15/1/2 18/1/2
f 16/2/2 17/2/2 19/2/2
f 19/2/2 17/2/2 20/2/2
f 18/1/2 15/1/2 21/1/2
f 21/1/2 15/1/2 22/1/2
f 23/2/2 24/2/2 25/2/2
f 25/2/2 24/2/2 26/2/2
f 29/2/3 28/2/3 27/2/3
f 30/2/3 28/2/3 29/2/3
f 34/2/3 32/2/3 31/2/3
f 35/2/3 32/2/3 34/2/3
f 36/1/3 34/1/3 33/1/3
f 37/1/3 34/1/3 36/1/3
f 39/2/3 38/2/3 37/2/3
f 40/2/3 38/2/3 39/2/3
f 41/2/4 42/2/4 43/2/4
f 43/2/4 42/2/4 44/2/4
f 45/2/4 46/2/4 47/2/4
f 47/2/4 46/2/4 48/2/4
f 49/1/4 50/1/4 51/1/4
f 51/1/4 50/1/4 52/1/4
f 55/1/5 54/1/5 53/1/5
f 56/1/5 54/1/5 55/1/5
f 60/2/5 58/2/5 57/2/5
f 61/2/5 58/2/5 60/2/5
f 63/2/5 60/2/5 59/2/5
f 64/2/5 60/2/5 63/2/5
f 65/2/5 62/2/5 61/2/5
f 66/2/5 62/2/5 65/2/5
f 67/2/6 68/2/6 70/2/6
f 70/2/6 68/2/6 71/2/6
f 69/2/6 70/2/6 73/2/6
f 70/1/6 71/1/6 74/1/6
f 73/2/6 70/2/6 74/2/6
f 71/2/6 72/2/6 75/2/6
f 74/1/6 71/1/6 75/1/6
f 75/2/6 72/2/6 76/2/6
f 74/1/6 75/1/6 77/1/6
f 77/1/6 75/1/6 78/1/6
