# MagicaVoxel @ Ephtracy

# group
o 

# material
mtllib Interior_Furniture_Chair_Piece_Pillow_01.mtl
usemtl palette

# normals
vn -1 0 0
vn 1 0 0
vn 0 0 1
vn 0 0 -1
vn 0 -1 0
vn 0 1 0

# texcoords
vt 0.943359 0.5
vt 0.947266 0.5
vt 0.951172 0.5
vt 0.955078 0.5

# verts
v -0.5 0 0
v -0.5 0 -0.1
v -0.5 0.1 0
v -0.5 0.1 -0.1
v -0.5 0.2 0
v -0.5 0.2 -0.1
v -0.5 0.3 0
v -0.5 0.3 -0.1
v -0.4 0 0.1
v -0.4 0 0
v -0.4 0 -0.1
v -0.4 0 -0.2
v -0.4 0.1 0.1
v -0.4 0.1 0
v -0.4 0.1 -0.1
v -0.4 0.1 -0.2
v -0.4 0.2 0
v -0.4 0.2 -0.1
v -0.4 0.2 -0.2
v -0.4 0.3 0.1
v -0.4 0.3 0
v -0.4 0.3 -0.1
v -0.4 0.3 -0.2
v -0.4 0.4 0
v -0.4 0.4 -0.1
v -0.3 0 0.2
v -0.3 0 0.1
v -0.3 0.1 0.2
v -0.3 0.1 0.1
v -0.3 0.3 0.2
v -0.3 0.3 0.1
v -0.3 0.3 0
v -0.3 0.3 -0.1
v -0.3 0.3 -0.2
v -0.3 0.4 0.1
v -0.3 0.4 0
v -0.3 0.4 -0.1
v -0.3 0.4 -0.2
v 0.3 0 0.2
v 0.3 0 0.1
v 0.3 0.1 0.2
v 0.3 0.1 0.1
v 0.3 0.3 0.2
v 0.3 0.3 0.1
v 0.3 0.3 0
v 0.3 0.3 -0.1
v 0.3 0.3 -0.2
v 0.3 0.4 0.1
v 0.3 0.4 0
v 0.3 0.4 -0.1
v 0.3 0.4 -0.2
v 0.4 0 0.1
v 0.4 0 0
v 0.4 0 -0.1
v 0.4 0 -0.2
v 0.4 0.1 0.1
v 0.4 0.1 0
v 0.4 0.1 -0.1
v 0.4 0.1 -0.2
v 0.4 0.2 0
v 0.4 0.2 -0.1
v 0.4 0.2 -0.2
v 0.4 0.3 0.1
v 0.4 0.3 0
v 0.4 0.3 -0.1
v 0.4 0.3 -0.2
v 0.4 0.4 0
v 0.4 0.4 -0.1
v 0.5 0 0
v 0.5 0 -0.1
v 0.5 0.1 0
v 0.5 0.1 -0.1
v 0.5 0.2 0
v 0.5 0.2 -0.1
v 0.5 0.3 0
v 0.5 0.3 -0.1
v -0.3 0 0.2
v -0.3 0.1 0.2
v -0.3 0.3 0.2
v 0.3 0 0.2
v 0.3 0.1 0.2
v 0.3 0.3 0.2
v -0.4 0 0.1
v -0.4 0.1 0.1
v -0.4 0.3 0.1
v -0.3 0 0.1
v -0.3 0.1 0.1
v -0.3 0.3 0.1
v -0.3 0.4 0.1
v 0.3 0 0.1
v 0.3 0.1 0.1
v 0.3 0.3 0.1
v 0.3 0.4 0.1
v 0.4 0 0.1
v 0.4 0.1 0.1
v 0.4 0.3 0.1
v -0.5 0 0
v -0.5 0.1 0
v -0.5 0.2 0
v -0.5 0.3 0
v -0.4 0 0
v -0.4 0.1 0
v -0.4 0.2 0
v -0.4 0.3 0
v -0.4 0.4 0
v -0.3 0.3 0
v -0.3 0.4 0
v 0.3 0.3 0
v 0.3 0.4 0
v 0.4 0 0
v 0.4 0.1 0
v 0.4 0.2 0
v 0.4 0.3 0
v 0.4 0.4 0
v 0.5 0 0
v 0.5 0.1 0
v 0.5 0.2 0
v 0.5 0.3 0
v -0.5 0 -0.1
v -0.5 0.1 -0.1
v -0.5 0.2 -0.1
v -0.5 0.3 -0.1
v -0.4 0 -0.1
v -0.4 0.1 -0.1
v -0.4 0.2 -0.1
v -0.4 0.3 -0.1
v -0.4 0.4 -0.1
v -0.3 0.3 -0.1
v -0.3 0.4 -0.1
v 0.3 0.3 -0.1
v 0.3 0.4 -0.1
v 0.4 0 -0.1
v 0.4 0.1 -0.1
v 0.4 0.2 -0.1
v 0.4 0.3 -0.1
v 0.4 0.4 -0.1
v 0.5 0 -0.1
v 0.5 0.1 -0.1
v 0.5 0.2 -0.1
v 0.5 0.3 -0.1
v -0.4 0 -0.2
v -0.4 0.1 -0.2
v -0.4 0.2 -0.2
v -0.4 0.3 -0.2
v -0.3 0 -0.2
v -0.3 0.1 -0.2
v -0.3 0.2 -0.2
v -0.3 0.3 -0.2
v -0.3 0.4 -0.2
v -0.2 0.3 -0.2
v -0.2 0.4 -0.2
v 0.2 0.3 -0.2
v 0.2 0.4 -0.2
v 0.3 0 -0.2
v 0.3 0.1 -0.2
v 0.3 0.2 -0.2
v 0.3 0.3 -0.2
v 0.3 0.4 -0.2
v 0.4 0 -0.2
v 0.4 0.1 -0.2
v 0.4 0.2 -0.2
v 0.4 0.3 -0.2
v -0.3 0 0.2
v 0.3 0 0.2
v -0.4 0 0.1
v -0.3 0 0.1
v 0.3 0 0.1
v 0.4 0 0.1
v -0.5 0 0
v -0.4 0 0
v -0.3 0 0
v 0.3 0 0
v 0.4 0 0
v 0.5 0 0
v -0.5 0 -0.1
v -0.4 0 -0.1
v -0.3 0 -0.1
v 0.3 0 -0.1
v 0.4 0 -0.1
v 0.5 0 -0.1
v -0.4 0 -0.2
v -0.3 0 -0.2
v 0.3 0 -0.2
v 0.4 0 -0.2
v -0.3 0.3 0.2
v 0.3 0.3 0.2
v -0.4 0.3 0.1
v -0.3 0.3 0.1
v 0.3 0.3 0.1
v 0.4 0.3 0.1
v -0.5 0.3 0
v -0.4 0.3 0
v -0.3 0.3 0
v 0.3 0.3 0
v 0.4 0.3 0
v 0.5 0.3 0
v -0.5 0.3 -0.1
v -0.4 0.3 -0.1
v -0.3 0.3 -0.1
v 0.3 0.3 -0.1
v 0.4 0.3 -0.1
v 0.5 0.3 -0.1
v -0.4 0.3 -0.2
v -0.3 0.3 -0.2
v 0.3 0.3 -0.2
v 0.4 0.3 -0.2
v -0.3 0.4 0.1
v 0.3 0.4 0.1
v -0.4 0.4 0
v -0.3 0.4 0
v 0.3 0.4 0
v 0.4 0.4 0
v -0.4 0.4 -0.1
v -0.3 0.4 -0.1
v -0.2 0.4 -0.1
v 0.2 0.4 -0.1
v 0.3 0.4 -0.1
v 0.4 0.4 -0.1
v -0.3 0.4 -0.2
v -0.2 0.4 -0.2
v 0.2 0.4 -0.2
v 0.3 0.4 -0.2

# faces
f 3/2/1 2/2/1 1/2/1
f 4/2/1 2/2/1 3/2/1
f 5/3/1 4/3/1 3/3/1
f 6/3/1 4/3/1 5/3/1
f 7/2/1 6/2/1 5/2/1
f 8/2/1 6/2/1 7/2/1
f 13/2/1 10/2/1 9/2/1
f 14/2/1 10/2/1 13/2/1
f 15/2/1 12/2/1 11/2/1
f 16/2/1 12/2/1 15/2/1
f 17/3/1 14/3/1 13/3/1
f 18/3/1 16/3/1 15/3/1
f 19/3/1 16/3/1 18/3/1
f 20/3/1 17/3/1 13/3/1
f 21/3/1 17/3/1 20/3/1
f 22/2/1 19/2/1 18/2/1
f 23/2/1 19/2/1 22/2/1
f 24/2/1 22/2/1 21/2/1
f 25/2/1 22/2/1 24/2/1
f 28/3/1 27/3/1 26/3/1
f 29/3/1 27/3/1 28/3/1
f 30/4/1 29/4/1 28/4/1
f 31/4/1 29/4/1 30/4/1
f 35/4/1 32/4/1 31/4/1
f 36/4/1 32/4/1 35/4/1
f 37/1/1 34/1/1 33/1/1
f 38/1/1 34/1/1 37/1/1
f 39/3/2 40/3/2 41/3/2
f 41/3/2 40/3/2 42/3/2
f 41/4/2 42/4/2 43/4/2
f 43/4/2 42/4/2 44/4/2
f 44/4/2 45/4/2 48/4/2
f 48/4/2 45/4/2 49/4/2
f 46/1/2 47/1/2 50/1/2
f 50/1/2 47/1/2 51/1/2
f 52/2/2 53/2/2 56/2/2
f 56/2/2 53/2/2 57/2/2
f 54/2/2 55/2/2 58/2/2
f 58/2/2 55/2/2 59/2/2
f 56/3/2 57/3/2 60/3/2
f 58/3/2 59/3/2 61/3/2
f 61/3/2 59/3/2 62/3/2
f 56/3/2 60/3/2 63/3/2
f 63/3/2 60/3/2 64/3/2
f 61/2/2 62/2/2 65/2/2
f 65/2/2 62/2/2 66/2/2
f 64/2/2 65/2/2 67/2/2
f 67/2/2 65/2/2 68/2/2
f 69/2/2 70/2/2 71/2/2
f 71/2/2 70/2/2 72/2/2
f 71/3/2 72/3/2 73/3/2
f 73/3/2 72/3/2 74/3/2
f 73/2/2 74/2/2 75/2/2
f 75/2/2 74/2/2 76/2/2
f 80/3/3 78/3/3 77/3/3
f 81/4/3 79/4/3 78/4/3
f 81/3/3 78/3/3 80/3/3
f 82/4/3 79/4/3 81/4/3
f 86/2/3 84/2/3 83/2/3
f 87/3/3 85/3/3 84/3/3
f 87/2/3 84/2/3 86/2/3
f 88/3/3 85/3/3 87/3/3
f 92/4/3 89/4/3 88/4/3
f 93/4/3 89/4/3 92/4/3
f 94/2/3 91/2/3 90/2/3
f 95/3/3 92/3/3 91/3/3
f 95/2/3 91/2/3 94/2/3
f 96/3/3 92/3/3 95/3/3
f 101/2/3 98/2/3 97/2/3
f 102/3/3 99/3/3 98/3/3
f 102/2/3 98/2/3 101/2/3
f 103/2/3 100/2/3 99/2/3
f 103/3/3 99/3/3 102/3/3
f 104/2/3 100/2/3 103/2/3
f 106/2/3 105/2/3 104/2/3
f 107/2/3 105/2/3 106/2/3
f 113/2/3 109/2/3 108/2/3
f 114/2/3 109/2/3 113/2/3
f 115/2/3 111/2/3 110/2/3
f 116/3/3 112/3/3 111/3/3
f 116/2/3 111/2/3 115/2/3
f 117/2/3 113/2/3 112/2/3
f 117/3/3 112/3/3 116/3/3
f 118/2/3 113/2/3 117/2/3
f 119/2/4 120/2/4 123/2/4
f 120/3/4 121/3/4 124/3/4
f 123/2/4 120/2/4 124/2/4
f 121/2/4 122/2/4 125/2/4
f 124/3/4 121/3/4 125/3/4
f 125/2/4 122/2/4 126/2/4
f 126/2/4 127/2/4 128/2/4
f 128/2/4 127/2/4 129/2/4
f 130/2/4 131/2/4 135/2/4
f 135/2/4 131/2/4 136/2/4
f 132/2/4 133/2/4 137/2/4
f 133/3/4 134/3/4 138/3/4
f 137/2/4 133/2/4 138/2/4
f 134/2/4 135/2/4 139/2/4
f 138/3/4 134/3/4 139/3/4
f 139/2/4 135/2/4 140/2/4
f 141/2/4 142/2/4 145/2/4
f 142/3/4 143/3/4 146/3/4
f 145/2/4 142/2/4 146/2/4
f 143/2/4 144/2/4 147/2/4
f 146/3/4 143/3/4 147/3/4
f 147/2/4 144/2/4 148/2/4
f 146/4/4 147/4/4 150/4/4
f 148/1/4 149/1/4 150/1/4
f 147/4/4 148/4/4 150/4/4
f 150/1/4 149/1/4 151/1/4
f 146/4/4 150/4/4 152/4/4
f 150/2/4 151/2/4 152/2/4
f 152/2/4 151/2/4 153/2/4
f 145/3/4 146/3/4 154/3/4
f 146/4/4 152/4/4 155/4/4
f 154/3/4 146/3/4 155/3/4
f 155/4/4 152/4/4 156/4/4
f 152/1/4 153/1/4 157/1/4
f 156/4/4 152/4/4 157/4/4
f 157/1/4 153/1/4 158/1/4
f 154/2/4 155/2/4 159/2/4
f 155/3/4 156/3/4 160/3/4
f 159/2/4 155/2/4 160/2/4
f 156/2/4 157/2/4 161/2/4
f 160/3/4 156/3/4 161/3/4
f 161/2/4 157/2/4 162/2/4
f 166/3/5 164/3/5 163/3/5
f 167/3/5 164/3/5 166/3/5
f 170/2/5 166/2/5 165/2/5
f 171/4/5 167/4/5 166/4/5
f 171/2/5 166/2/5 170/2/5
f 172/2/5 168/2/5 167/2/5
f 172/4/5 167/4/5 171/4/5
f 173/2/5 168/2/5 172/2/5
f 175/2/5 170/2/5 169/2/5
f 176/3/5 171/3/5 170/3/5
f 176/2/5 170/2/5 175/2/5
f 176/3/5 172/3/5 171/3/5
f 176/3/5 173/3/5 172/3/5
f 177/3/5 173/3/5 176/3/5
f 178/3/5 173/3/5 177/3/5
f 179/2/5 174/2/5 173/2/5
f 179/3/5 173/3/5 178/3/5
f 180/2/5 174/2/5 179/2/5
f 181/2/5 177/2/5 176/2/5
f 182/3/5 178/3/5 177/3/5
f 182/2/5 177/2/5 181/2/5
f 183/2/5 179/2/5 178/2/5
f 183/3/5 178/3/5 182/3/5
f 184/2/5 179/2/5 183/2/5
f 185/4/6 186/4/6 188/4/6
f 188/4/6 186/4/6 189/4/6
f 187/3/6 188/3/6 192/3/6
f 192/3/6 188/3/6 193/3/6
f 189/3/6 190/3/6 194/3/6
f 194/3/6 190/3/6 195/3/6
f 191/2/6 192/2/6 197/2/6
f 197/2/6 192/2/6 198/2/6
f 195/2/6 196/2/6 201/2/6
f 201/2/6 196/2/6 202/2/6
f 198/2/6 199/2/6 203/2/6
f 203/2/6 199/2/6 204/2/6
f 200/2/6 201/2/6 205/2/6
f 205/2/6 201/2/6 206/2/6
f 207/4/6 208/4/6 210/4/6
f 210/4/6 208/4/6 211/4/6
f 209/2/6 210/2/6 213/2/6
f 210/3/6 211/3/6 214/3/6
f 213/2/6 210/2/6 214/2/6
f 214/3/6 211/3/6 215/3/6
f 215/3/6 211/3/6 216/3/6
f 211/2/6 212/2/6 217/2/6
f 216/3/6 211/3/6 217/3/6
f 217/2/6 212/2/6 218/2/6
f 214/1/6 215/1/6 219/1/6
f 215/2/6 216/2/6 220/2/6
f 219/1/6 215/1/6 220/1/6
f 216/1/6 217/1/6 221/1/6
f 220/2/6 216/2/6 221/2/6
f 221/1/6 217/1/6 222/1/6
