# Blender v3.2.2 OBJ File: 'Medieval Voxel Assets.blend'
# www.blender.org
mtllib Flag_Large_Red.mtl
o Flag_Large_Red_Medieval_Assets-31.001
v 12.000000 -0.000000 3.700000
v 12.200000 2.500000 3.500000
v 12.200000 2.500000 3.600000
v 12.400000 3.599999 3.600000
v 12.500000 3.599999 3.800001
v 12.700000 3.599999 3.700001
v 12.800000 3.599999 3.600000
v 12.800000 3.599999 3.500000
v 13.100000 2.500000 3.700001
v 13.400000 2.500000 3.500000
v 13.400000 2.500000 3.600000
v 13.400000 3.099999 3.500000
v 13.600000 2.900000 3.700001
v 13.600000 2.500000 3.700001
v 13.600000 3.599999 3.700001
v 13.600000 3.200000 3.600000
v 13.700000 2.500000 3.800000
v 13.700000 2.799999 3.700001
v 13.700000 3.599999 3.800001
v 13.700000 3.299999 3.800000
v 13.900000 2.700000 3.700001
v 12.400000 2.500000 3.600000
v 12.400000 2.500000 3.500000
v 12.500000 2.500000 3.600000
v 12.800000 3.599999 3.700001
v 13.400000 2.500000 3.700001
v 13.400000 3.000000 3.700001
v 13.400000 3.599999 3.700001
v 13.500000 2.900000 3.600000
v 13.500000 3.000000 3.500000
v 13.500000 3.099999 3.500000
v 13.500000 3.200000 3.600000
v 13.600000 3.200000 3.500000
v 13.600000 3.599999 3.500000
v 13.700000 2.900000 3.700001
v 13.700000 3.200000 3.600000
v 13.700000 3.599999 3.600000
v 13.900000 3.400000 3.700001
v 14.000000 2.599999 3.700001
v 14.000000 2.700000 3.700001
v 14.000000 2.700000 3.600000
v 14.000000 3.400000 3.600000
v 14.000000 3.500000 3.700001
v 14.000000 3.500000 3.600000
v 14.100000 2.500000 3.600000
v 14.100000 2.599999 3.700001
v 14.100000 3.500000 3.700001
v 12.700000 2.500000 3.800000
v 12.500000 2.500000 3.800000
v 13.200000 3.599999 3.800001
v 13.900000 2.500000 3.800000
v 13.900000 3.299999 3.800000
v 12.200000 -0.000000 3.700000
v 12.400000 2.500000 3.700001
v 13.200000 3.599999 3.700001
v 13.400000 3.099999 3.700001
v 13.300000 3.599999 3.700001
v 13.700000 3.200000 3.700001
v 13.600000 3.200000 3.700001
v 14.000000 3.400000 3.700001
v 13.900000 3.599999 3.700001
v 14.100000 2.500000 3.700001
v 13.500000 3.099999 3.600000
v 13.600000 3.599999 3.600000
v 12.500000 2.500000 3.700001
v 12.700000 2.500000 3.700001
v 13.200000 2.500000 3.700001
v 13.300000 2.500000 3.700001
v 13.300000 3.099999 3.700001
v 13.900000 2.500000 3.700001
v 13.900000 2.799999 3.700001
v 12.000000 -0.000000 3.600000
v 12.200000 -0.000000 3.600000
v 12.200000 3.700000 3.600001
v 12.700000 3.599999 3.600000
v 13.100000 2.500000 3.600000
v 13.100000 3.599999 3.600000
v 13.200000 3.599999 3.600000
v 13.300000 3.000000 3.600000
v 13.400000 3.000000 3.600000
v 13.600000 2.500000 3.600000
v 13.600000 2.900000 3.600000
v 13.900000 2.500000 3.600000
v 13.900000 2.700000 3.600000
v 14.000000 2.599999 3.600000
v 13.900000 3.400000 3.600000
v 13.900000 3.599999 3.600000
v 14.100000 2.599999 3.600000
v 14.100000 3.599999 3.600000
v 12.400000 3.599999 3.500000
v 12.800000 2.500000 3.500000
v 13.100000 3.599999 3.500000
v 13.400000 3.000000 3.500000
v 13.500000 2.900000 3.500000
v 13.400000 3.599999 3.500000
v 13.500000 3.200000 3.500000
v 13.600000 2.500000 3.500000
v 13.300000 2.500000 3.800000
v 13.200000 2.500000 3.800000
v 13.700000 2.500000 3.700001
v 12.700000 2.500000 3.600000
v 12.800000 2.500000 3.700001
v 12.800000 2.500000 3.600000
v 13.200000 2.500000 3.600000
v 13.300000 2.500000 3.600000
v 13.700000 2.500000 3.600000
v 13.100000 2.500000 3.500000
v 13.300000 3.099999 3.600000
v 13.400000 3.099999 3.600000
v 13.700000 3.299999 3.700001
v 13.900000 3.299999 3.700001
v 14.100000 3.500000 3.600000
v 13.700000 2.799999 3.800000
v 13.900000 2.799999 3.800000
v 13.700000 2.900000 3.600000
v 13.600000 2.900000 3.500000
v 13.300000 3.000000 3.700001
v 13.500000 3.000000 3.600000
v 12.700000 3.599999 3.800001
v 12.500000 3.599999 3.700001
v 13.300000 3.599999 3.800001
v 13.900000 3.599999 3.800001
v 13.700000 3.599999 3.700001
v 12.400000 3.599999 3.700001
v 12.500000 3.599999 3.600000
v 13.100000 3.599999 3.700001
v 13.300000 3.599999 3.600000
v 13.400000 3.599999 3.600000
v 14.100000 3.599999 3.700001
v 12.200000 3.599999 3.600000
v 12.200000 3.599999 3.500000
v 12.000000 3.700000 3.700001
v 12.000000 3.700000 3.600001
v 12.200000 3.700000 3.700001
vt 0.545743 0.812416
vt 0.518728 0.812416
vt 0.518728 0.785400
vt 0.545743 0.785400
vt 0.436376 0.785400
vt 0.463392 0.785400
vt 0.463392 0.812416
vt 0.436376 0.812416
vt 0.408492 0.812416
vt 0.381476 0.812416
vt 0.381476 0.785400
vt 0.408492 0.785400
vt 0.572758 0.676904
vt 0.599772 0.676904
vt 0.599772 0.784965
vt 0.572758 0.784965
vt 0.326576 0.785400
vt 0.353591 0.785400
vt 0.353591 0.812416
vt 0.326576 0.812416
vt 0.381475 0.297821
vt 0.408491 0.297821
vt 0.408491 0.594989
vt 0.381475 0.594989
vt 0.164049 0.000217
vt 0.245095 0.000217
vt 0.245095 0.297385
vt 0.164049 0.297385
vt 0.109149 0.000218
vt 0.136164 0.000218
vt 0.136164 0.999783
vt 0.109148 0.999783
vt 0.326575 0.297821
vt 0.353591 0.297821
vt 0.353591 0.594989
vt 0.326575 0.594989
vt 0.626788 0.297820
vt 0.626788 0.594988
vt 0.599773 0.594988
vt 0.599773 0.297820
vt 0.791489 0.353156
vt 0.791489 0.407187
vt 0.764474 0.407187
vt 0.764474 0.353156
vt 0.246400 0.785400
vt 0.273415 0.785400
vt 0.273415 0.812416
vt 0.246400 0.812416
vt 0.764039 0.433332
vt 0.764039 0.541393
vt 0.737024 0.541393
vt 0.737024 0.433332
vt 0.682123 0.297820
vt 0.709138 0.297820
vt 0.709138 0.594988
vt 0.682123 0.594988
vt 0.709139 0.784966
vt 0.682123 0.784966
vt 0.682123 0.730935
vt 0.709139 0.730935
vt 0.654673 0.676904
vt 0.654673 0.784965
vt 0.627658 0.784965
vt 0.627658 0.757950
vt 0.627658 0.676904
vt 0.517422 0.297820
vt 0.517422 0.594988
vt 0.490407 0.594988
vt 0.490407 0.297820
vt 0.737023 0.000217
vt 0.764038 0.000217
vt 0.764038 0.135294
vt 0.737023 0.135294
vt 0.572323 0.676904
vt 0.572323 0.784965
vt 0.545307 0.784965
vt 0.545307 0.676904
vt 0.628529 0.785400
vt 0.655544 0.785400
vt 0.655544 0.812416
vt 0.628529 0.812416
vt 0.736589 0.000217
vt 0.736589 0.135294
vt 0.709573 0.135294
vt 0.709573 0.000217
vt 0.571887 0.297820
vt 0.571887 0.594988
vt 0.544872 0.594988
vt 0.544872 0.297820
vt 0.599337 0.000217
vt 0.599337 0.297385
vt 0.572322 0.297385
vt 0.572322 0.000217
vt 0.818939 0.487362
vt 0.791924 0.487362
vt 0.791924 0.433331
vt 0.818939 0.433331
vt 0.791489 0.676470
vt 0.764474 0.676470
vt 0.764474 0.595424
vt 0.791489 0.595424
vt 0.791924 0.353156
vt 0.818939 0.353156
vt 0.818939 0.407187
vt 0.791924 0.407187
vt 0.218515 0.297820
vt 0.218515 0.594988
vt 0.191499 0.594988
vt 0.191499 0.297820
vt 0.354026 0.785400
vt 0.381041 0.785400
vt 0.381041 0.812416
vt 0.354026 0.812416
vt 0.571887 0.000217
vt 0.571887 0.297385
vt 0.544872 0.297385
vt 0.544872 0.000217
vt 0.818939 0.135294
vt 0.791924 0.135294
vt 0.791924 0.081264
vt 0.818939 0.081264
vt 0.737024 0.703484
vt 0.737024 0.676469
vt 0.737024 0.595423
vt 0.764039 0.595423
vt 0.764039 0.703484
vt 0.381041 0.297820
vt 0.381041 0.594988
vt 0.354026 0.594988
vt 0.354026 0.297820
vt 0.435941 0.297820
vt 0.435941 0.594988
vt 0.408926 0.594988
vt 0.408926 0.297820
vt 0.626788 0.595423
vt 0.680819 0.595423
vt 0.680819 0.676469
vt 0.626788 0.676469
vt 0.764039 0.730935
vt 0.764039 0.784965
vt 0.737024 0.784965
vt 0.737024 0.703919
vt 0.764039 0.703919
vt 0.518292 0.812416
vt 0.491277 0.812416
vt 0.491277 0.785400
vt 0.518292 0.785400
vt 0.681688 0.459912
vt 0.681688 0.594988
vt 0.654673 0.594988
vt 0.654673 0.297820
vt 0.681688 0.297820
vt 0.681688 0.432897
vt 0.709139 0.595423
vt 0.709139 0.730500
vt 0.682123 0.730500
vt 0.682123 0.595423
vt 0.764474 0.785835
vt 0.791489 0.785835
vt 0.791489 0.812850
vt 0.764474 0.812850
vt 0.818939 0.299125
vt 0.818939 0.326141
vt 0.791924 0.326141
vt 0.791924 0.299125
vt 0.627223 0.297820
vt 0.654239 0.297820
vt 0.654239 0.594988
vt 0.627223 0.594988
vt 0.436377 0.595423
vt 0.490407 0.595423
vt 0.490407 0.676469
vt 0.436377 0.676469
vt 0.709138 0.812416
vt 0.682123 0.812416
vt 0.682123 0.785400
vt 0.709138 0.785400
vt 0.435942 0.000217
vt 0.489972 0.000217
vt 0.489972 0.297385
vt 0.435942 0.297385
vt 0.273415 0.730935
vt 0.300431 0.730935
vt 0.300431 0.784966
vt 0.273415 0.784966
vt 0.245530 0.000217
vt 0.326576 0.000217
vt 0.326576 0.297385
vt 0.245530 0.297385
vt 0.490407 0.000217
vt 0.544437 0.000217
vt 0.544437 0.297385
vt 0.490407 0.297385
vt 0.245965 0.812416
vt 0.218950 0.812416
vt 0.218950 0.785400
vt 0.245965 0.785400
vt 0.191499 0.785400
vt 0.218514 0.785400
vt 0.218514 0.812416
vt 0.191499 0.812416
vt 0.764474 0.433331
vt 0.791489 0.433331
vt 0.791489 0.514378
vt 0.764474 0.514378
vt 0.791924 0.514812
vt 0.818939 0.514812
vt 0.818939 0.568843
vt 0.791924 0.568843
vt 0.299995 0.297820
vt 0.299995 0.594988
vt 0.272980 0.594988
vt 0.272980 0.297820
vt 0.463827 0.785400
vt 0.490842 0.785400
vt 0.490842 0.812416
vt 0.463827 0.812416
vt 0.054683 0.999783
vt 0.054683 0.000217
vt 0.108713 0.000217
vt 0.108713 0.999783
vt 0.490842 0.676904
vt 0.490842 0.784965
vt 0.463827 0.784965
vt 0.463827 0.676904
vt 0.709574 0.595423
vt 0.736588 0.595423
vt 0.736588 0.730500
vt 0.709574 0.730500
vt 0.737023 0.271240
vt 0.764038 0.271240
vt 0.764038 0.406317
vt 0.737023 0.406317
vt 0.164049 0.785400
vt 0.191064 0.785400
vt 0.191064 0.812416
vt 0.164049 0.812416
vt 0.136599 0.027233
vt 0.136599 0.000217
vt 0.163614 0.000217
vt 0.163614 0.999782
vt 0.136599 0.999782
vt 0.136599 0.324401
vt 0.818940 0.623308
vt 0.791924 0.623308
vt 0.791924 0.569278
vt 0.818940 0.569278
vt 0.380606 0.595423
vt 0.380606 0.730500
vt 0.326575 0.730500
vt 0.326575 0.622439
vt 0.353591 0.622439
vt 0.353591 0.595423
vt 0.764474 0.676904
vt 0.791489 0.676904
vt 0.791489 0.730934
vt 0.764474 0.730934
vt 0.272980 0.757951
vt 0.272980 0.784966
vt 0.218950 0.784966
vt 0.218950 0.730935
vt 0.245965 0.730935
vt 0.245965 0.757951
vt 0.628093 0.812416
vt 0.601078 0.812416
vt 0.601078 0.785400
vt 0.628093 0.785400
vt 0.573628 0.785400
vt 0.600643 0.785400
vt 0.600643 0.812416
vt 0.573628 0.812416
vt 0.327010 0.000217
vt 0.381041 0.000218
vt 0.381041 0.297385
vt 0.327010 0.297385
vt 0.791924 0.705224
vt 0.791924 0.678209
vt 0.818939 0.678209
vt 0.818939 0.705224
vt 0.218080 0.595423
vt 0.218080 0.730500
vt 0.191065 0.730500
vt 0.191065 0.703484
vt 0.164049 0.703484
vt 0.164049 0.595423
vt 0.791489 0.785400
vt 0.764474 0.785400
vt 0.764474 0.731370
vt 0.791489 0.731370
vt 0.818939 0.760560
vt 0.818939 0.787575
vt 0.791924 0.787575
vt 0.791924 0.760560
vt 0.627222 0.676904
vt 0.627222 0.784965
vt 0.600207 0.784965
vt 0.600207 0.703920
vt 0.600207 0.676904
vt 0.736589 0.433332
vt 0.736589 0.568408
vt 0.709574 0.568408
vt 0.709574 0.433332
vt 0.681688 0.000217
vt 0.681688 0.297385
vt 0.654673 0.297385
vt 0.654673 0.000217
vt 0.791924 0.135729
vt 0.818939 0.135729
vt 0.818939 0.189759
vt 0.791924 0.189759
vt 0.682123 0.000217
vt 0.709138 0.000217
vt 0.709138 0.297385
vt 0.682123 0.297385
vt 0.191064 0.297820
vt 0.191064 0.594988
vt 0.164049 0.594988
vt 0.164049 0.297820
vt 0.736589 0.297820
vt 0.736589 0.432897
vt 0.709574 0.432897
vt 0.709574 0.297820
vt 0.544872 0.676904
vt 0.544872 0.784965
vt 0.517857 0.784965
vt 0.517857 0.676904
vt 0.736589 0.135729
vt 0.736589 0.270805
vt 0.709573 0.270805
vt 0.709573 0.135729
vt 0.462956 0.297820
vt 0.489972 0.297820
vt 0.489972 0.594988
vt 0.462956 0.594988
vt 0.572322 0.297820
vt 0.599338 0.297820
vt 0.599338 0.594988
vt 0.572322 0.594988
vt 0.054248 0.999783
vt 0.000217 0.999783
vt 0.000217 0.000217
vt 0.054248 0.000217
vt 0.054248 0.027233
vt 0.054248 0.324401
vt 0.791489 0.514813
vt 0.791489 0.568843
vt 0.764474 0.568843
vt 0.764474 0.514813
vt 0.599772 0.000217
vt 0.626788 0.000217
vt 0.626788 0.135294
vt 0.626788 0.162309
vt 0.626788 0.297385
vt 0.599772 0.297385
vt 0.300431 0.595423
vt 0.300431 0.730500
vt 0.273415 0.730500
vt 0.273415 0.595423
vt 0.381475 0.000217
vt 0.435506 0.000218
vt 0.435506 0.297385
vt 0.381475 0.297385
vt 0.791924 0.623743
vt 0.818939 0.623743
vt 0.818939 0.677773
vt 0.791924 0.677773
vt 0.408056 0.730935
vt 0.408056 0.757951
vt 0.435072 0.757951
vt 0.435072 0.784966
vt 0.381041 0.784966
vt 0.381041 0.730935
vt 0.517857 0.595423
vt 0.571887 0.595423
vt 0.571887 0.622439
vt 0.571887 0.676469
vt 0.517857 0.676469
vt 0.218080 0.730935
vt 0.218080 0.757951
vt 0.191064 0.757951
vt 0.191064 0.784966
vt 0.164049 0.784966
vt 0.164049 0.730935
vt 0.791924 0.815026
vt 0.791924 0.788010
vt 0.818939 0.788010
vt 0.818939 0.815026
vt 0.736588 0.730935
vt 0.736588 0.757950
vt 0.709574 0.757950
vt 0.709574 0.730935
vt 0.218949 0.595423
vt 0.272980 0.595423
vt 0.272980 0.703484
vt 0.245965 0.703484
vt 0.245965 0.730500
vt 0.218949 0.730500
vt 0.818939 0.054248
vt 0.791924 0.054248
vt 0.791924 0.000217
vt 0.818939 0.000217
vt 0.818939 0.298690
vt 0.791924 0.298690
vt 0.791924 0.244659
vt 0.818939 0.244659
vt 0.791924 0.732675
vt 0.791924 0.705659
vt 0.818939 0.705659
vt 0.818939 0.732675
vt 0.654238 0.000217
vt 0.654238 0.297385
vt 0.627223 0.297385
vt 0.627223 0.000217
vt 0.272545 0.297820
vt 0.272545 0.594988
vt 0.245530 0.594988
vt 0.245530 0.297820
vt 0.737024 0.541828
vt 0.764039 0.541828
vt 0.764039 0.568843
vt 0.737024 0.568843
vt 0.435506 0.730500
vt 0.381475 0.730500
vt 0.381475 0.595423
vt 0.408491 0.595423
vt 0.408491 0.622439
vt 0.435506 0.622439
vt 0.791489 0.271675
vt 0.791489 0.352721
vt 0.764474 0.352721
vt 0.764474 0.271675
vt 0.736588 0.785835
vt 0.736588 0.812851
vt 0.709574 0.812851
vt 0.709574 0.785835
vt 0.709574 0.785401
vt 0.709574 0.758385
vt 0.736588 0.758385
vt 0.736588 0.785401
vt 0.737023 0.135729
vt 0.764038 0.135729
vt 0.764038 0.270805
vt 0.737023 0.270805
vt 0.300865 0.785400
vt 0.300865 0.812416
vt 0.273850 0.812416
vt 0.273850 0.785400
vt 0.764474 0.000217
vt 0.791489 0.000217
vt 0.791489 0.108279
vt 0.764474 0.108279
vt 0.764039 0.812416
vt 0.737024 0.812416
vt 0.737024 0.785400
vt 0.764039 0.785400
vt 0.572322 0.595423
vt 0.626352 0.595423
vt 0.626352 0.649454
vt 0.626352 0.676469
vt 0.572322 0.676469
vt 0.435941 0.785400
vt 0.435941 0.812416
vt 0.408926 0.812416
vt 0.408926 0.785400
vt 0.791489 0.190194
vt 0.791489 0.271240
vt 0.764474 0.271240
vt 0.764474 0.190194
vt 0.436377 0.784965
vt 0.436377 0.703919
vt 0.436377 0.676904
vt 0.463392 0.676904
vt 0.463392 0.784965
vt 0.326575 0.757951
vt 0.353590 0.757951
vt 0.353590 0.730935
vt 0.380606 0.730935
vt 0.380606 0.784966
vt 0.326575 0.784966
vt 0.546178 0.785400
vt 0.573193 0.785400
vt 0.573193 0.812416
vt 0.546178 0.812416
vt 0.791924 0.760125
vt 0.791924 0.733109
vt 0.818939 0.733109
vt 0.818939 0.760125
vt 0.764474 0.189759
vt 0.764474 0.108713
vt 0.791489 0.108713
vt 0.791489 0.162744
vt 0.791489 0.189759
vt 0.818940 0.244225
vt 0.791924 0.244225
vt 0.791924 0.190194
vt 0.818940 0.190194
vn 0.0000 -1.0000 0.0000
vn 0.0000 1.0000 0.0000
vn 0.0000 0.0000 -1.0000
vn 0.0000 0.0000 1.0000
vn -1.0000 0.0000 0.0000
vn 1.0000 0.0000 0.0000
usemtl Flag_Large_Red
s off
f 24/1/1 65/2/1 54/3/1 22/4/1
f 120/5/2 125/6/2 4/7/2 124/8/2
f 112/9/1 47/10/1 43/11/1 44/12/1
f 82/13/3 115/14/3 106/15/3 81/16/3
f 40/17/2 41/18/2 84/19/2 21/20/2
f 75/21/3 7/22/3 103/23/3 101/24/3
f 77/25/4 7/26/4 103/27/4 76/28/4
f 72/29/5 1/30/5 132/31/5 133/32/5
f 121/33/4 50/34/4 99/35/4 98/36/4
f 131/37/5 2/38/5 3/39/5 130/40/5
f 84/41/5 83/42/5 70/43/5 21/44/5
f 42/45/6 44/46/6 43/47/6 60/48/6
f 82/49/5 81/50/5 14/51/5 13/52/5
f 55/53/4 126/54/4 9/55/4 67/56/4
f 45/57/1 62/58/1 70/59/1 83/60/1
f 15/61/4 59/62/4 58/63/4 110/64/4 123/65/4
f 77/66/5 76/67/5 9/68/5 126/69/5
f 79/70/3 80/71/3 11/72/3 105/73/3
f 33/74/6 34/75/6 64/76/6 16/77/6
f 118/78/2 30/79/2 93/80/2 80/81/2
f 79/82/5 105/83/5 68/84/5 117/85/5
f 107/86/6 92/87/6 77/88/6 76/89/6
f 23/90/6 90/91/6 4/92/6 22/93/6
f 111/94/1 52/95/1 20/96/1 110/97/1
f 107/98/1 76/99/1 103/100/1 91/101/1
f 119/102/2 6/103/2 120/104/2 5/105/2
f 104/106/6 78/107/6 55/108/6 67/109/6
f 46/110/2 88/111/2 85/112/2 39/113/2
f 75/114/5 101/115/5 66/116/5 6/117/5
f 66/118/1 48/119/1 49/120/1 65/121/1
f 35/122/6 18/123/6 100/124/6 106/125/6 115/126/6
f 8/127/5 91/128/5 103/129/5 7/130/5
f 120/131/5 65/132/5 49/133/5 5/134/5
f 114/135/4 113/136/4 17/137/4 51/138/4
f 38/139/6 61/140/6 122/141/6 52/142/6 111/143/6
f 42/144/1 60/145/1 38/146/1 86/147/1
f 69/148/6 57/149/6 121/150/6 98/151/6 68/152/6 117/153/6
f 109/154/6 128/155/6 28/156/6 56/157/6
f 94/158/6 30/159/6 118/160/6 29/161/6
f 109/162/1 56/163/1 69/164/1 108/165/1
f 120/166/4 124/167/4 54/168/4 65/169/4
f 122/170/4 19/171/4 20/172/4 52/173/4
f 31/174/1 63/175/1 109/176/1 12/177/1
f 119/178/4 5/179/4 49/180/4 48/181/4
f 129/182/2 89/183/2 87/184/2 61/185/2
f 8/186/3 92/187/3 107/188/3 91/189/3
f 120/190/3 6/191/3 66/192/3 65/193/3
f 103/194/1 102/195/1 66/196/1 101/197/1
f 45/198/6 88/199/6 46/200/6 62/201/6
f 77/202/2 92/203/2 8/204/2 7/205/2
f 114/206/2 71/207/2 18/208/2 113/209/2
f 4/210/5 22/211/5 54/212/5 124/213/5
f 112/214/6 89/215/6 129/216/6 47/217/6
f 53/218/4 134/219/4 132/220/4 1/221/4
f 64/222/5 16/223/5 59/224/5 15/225/5
f 28/226/4 57/227/4 69/228/4 56/229/4
f 27/230/4 117/231/4 68/232/4 26/233/4
f 25/234/2 7/235/2 75/236/2 6/237/2
f 130/238/6 74/239/6 134/240/6 53/241/6 73/242/6 3/243/6
f 23/244/1 22/245/1 3/246/1 2/247/1
f 80/248/4 11/249/4 81/250/4 82/251/4 29/252/4 118/253/4
f 64/254/2 34/255/2 95/256/2 128/257/2
f 40/258/4 21/259/4 70/260/4 62/261/4 46/262/4 39/263/4
f 68/264/1 98/265/1 99/266/1 67/267/1
f 82/268/2 116/269/2 94/270/2 29/271/2
f 4/272/4 130/273/4 3/274/4 22/275/4
f 35/276/2 115/277/2 82/278/2 13/279/2
f 128/280/4 109/281/4 63/282/4 32/283/4 16/284/4 64/285/4
f 97/286/1 81/287/1 11/288/1 10/289/1
f 36/290/1 58/291/1 59/292/1 16/293/1
f 13/294/4 14/295/4 100/296/4 18/297/4 35/298/4
f 93/299/5 10/300/5 11/301/5 80/302/5
f 55/303/5 67/304/5 99/305/5 50/306/5
f 4/307/2 90/308/2 131/309/2 130/310/2
f 77/311/3 78/312/3 104/313/3 76/314/3
f 24/315/6 125/316/6 120/317/6 65/318/6
f 95/319/5 12/320/5 109/321/5 128/322/5
f 97/323/6 116/324/6 82/325/6 81/326/6
f 11/327/6 80/328/6 27/329/6 26/330/6
f 25/331/4 6/332/4 66/333/4 102/334/4
f 4/335/3 125/336/3 24/337/3 22/338/3
f 73/339/3 72/340/3 133/341/3 74/342/3 130/343/3 3/344/3
f 87/345/5 86/346/5 38/347/5 61/348/5
f 55/349/3 57/350/3 69/351/3 117/352/3 68/353/3 67/354/3
f 127/355/5 108/356/5 69/357/5 57/358/5
f 131/359/3 90/360/3 23/361/3 2/362/3
f 122/363/2 61/364/2 123/365/2 19/366/2
f 112/367/3 44/368/3 42/369/3 86/370/3 87/371/3 89/372/3
f 18/373/3 71/374/3 21/375/3 70/376/3 100/377/3
f 84/378/3 41/379/3 85/380/3 88/381/3 45/382/3 83/383/3
f 28/384/2 128/385/2 127/386/2 57/387/2
f 106/388/1 100/389/1 14/390/1 81/391/1
f 95/392/3 34/393/3 33/394/3 96/395/3 31/396/3 12/397/3
f 73/398/1 53/399/1 1/400/1 72/401/1
f 70/402/1 51/403/1 17/404/1 100/405/1
f 123/406/2 37/407/2 64/408/2 15/409/2
f 66/410/6 6/411/6 119/412/6 48/413/6
f 103/414/6 7/415/6 25/416/6 102/417/6
f 85/418/6 41/419/6 40/420/6 39/421/6
f 97/422/3 10/423/3 93/424/3 30/425/3 94/426/3 116/427/3
f 18/428/5 100/429/5 17/430/5 113/431/5
f 104/432/1 67/433/1 9/434/1 76/435/1
f 27/436/2 80/437/2 79/438/2 117/439/2
f 127/440/3 128/441/3 109/442/3 108/443/3
f 31/444/6 96/445/6 32/446/6 63/447/6
f 64/448/3 37/449/3 36/450/3 16/451/3
f 33/452/1 16/453/1 32/454/1 96/455/1
f 123/456/3 61/457/3 38/458/3 111/459/3 110/460/3
f 11/461/1 26/462/1 68/463/1 105/464/1
f 123/465/5 110/466/5 20/467/5 19/468/5
f 123/469/6 110/470/6 58/471/6 36/472/6 37/473/6
f 60/474/4 43/475/4 47/476/4 129/477/4 61/478/4 38/479/4
f 121/480/2 57/481/2 55/482/2 50/483/2
f 55/484/2 78/485/2 77/486/2 126/487/2
f 114/488/6 51/489/6 70/490/6 21/491/6 71/492/6
f 133/493/2 132/494/2 134/495/2 74/496/2
