# Blender v3.2.2 OBJ File: 'Medieval Voxel Assets.blend'
# www.blender.org
mtllib Flag_Large_Green.mtl
o Flag_Large_Green_Medieval_Assets-30.001
v 12.000000 -0.000001 5.300000
v 12.000000 -0.000001 5.400000
v 12.000000 3.699999 5.400001
v 12.200000 2.499999 5.200000
v 12.200000 2.499999 5.300001
v 12.200000 3.599999 5.200000
v 12.400000 3.599999 5.400001
v 12.400000 3.599999 5.300001
v 12.700000 2.499999 5.300001
v 12.800000 2.499999 5.300001
v 13.100000 3.599999 5.400001
v 13.100000 2.499999 5.400001
v 13.300000 2.999999 5.300001
v 13.300000 3.599999 5.400001
v 13.400000 3.599999 5.200000
v 13.600000 2.499999 5.300001
v 13.700000 2.799999 5.500000
v 13.700000 3.599999 5.500000
v 13.700000 3.599999 5.400001
v 13.900000 2.499999 5.300001
v 13.900000 2.499999 5.400001
v 13.900000 3.599999 5.300001
v 12.200000 -0.000001 5.300000
v 12.400000 2.499999 5.200000
v 12.500000 3.599999 5.400001
v 12.700000 2.499999 5.400001
v 12.800000 2.499999 5.400001
v 12.800000 3.599999 5.400001
v 13.200000 2.499999 5.400001
v 13.200000 2.499999 5.300001
v 13.200000 3.599999 5.400001
v 13.300000 2.499999 5.400001
v 13.400000 2.499999 5.400001
v 13.400000 2.999999 5.400001
v 13.400000 3.099999 5.300001
v 13.500000 2.899999 5.200000
v 13.500000 2.999999 5.200000
v 13.500000 3.099999 5.200000
v 13.500000 3.199999 5.300001
v 13.500000 3.199999 5.200000
v 13.600000 2.499999 5.200000
v 13.600000 3.599999 5.300001
v 13.700000 2.499999 5.300001
v 13.700000 3.199999 5.400001
v 13.900000 2.799999 5.400001
v 13.900000 3.299999 5.500000
v 13.900000 3.599999 5.500000
v 13.900000 3.599999 5.400001
v 14.000000 2.599999 5.400001
v 14.000000 2.599999 5.300001
v 14.000000 2.699999 5.300001
v 14.100000 2.499999 5.400001
v 14.100000 2.499999 5.300001
v 14.100000 3.599999 5.300001
v 13.300000 2.499999 5.500000
v 13.200000 3.599999 5.500000
v 13.700000 2.499999 5.500000
v 13.700000 3.299999 5.500000
v 13.400000 3.599999 5.400001
v 13.600000 2.899999 5.400001
v 13.600000 2.499999 5.400001
v 13.700000 2.799999 5.400001
v 13.700000 2.899999 5.400001
v 13.600000 3.599999 5.400001
v 13.600000 3.199999 5.400001
v 13.900000 3.399999 5.400001
v 14.000000 3.499999 5.400001
v 14.100000 2.599999 5.400001
v 14.100000 3.499999 5.400001
v 12.200000 3.599999 5.300001
v 13.100000 2.499999 5.300001
v 13.100000 3.599999 5.300001
v 13.500000 2.899999 5.300001
v 13.500000 2.999999 5.300001
v 12.700000 3.599999 5.400001
v 13.700000 3.299999 5.400001
v 13.900000 3.299999 5.400001
v 12.000000 3.699999 5.300001
v 12.200000 3.699999 5.300001
v 12.500000 3.599999 5.300001
v 12.700000 3.599999 5.300001
v 12.800000 3.599999 5.300001
v 13.300000 2.499999 5.300001
v 13.400000 2.499999 5.300001
v 13.400000 2.999999 5.300001
v 13.300000 3.099999 5.300001
v 13.700000 3.199999 5.300001
v 13.700000 3.599999 5.300001
v 13.900000 3.399999 5.300001
v 14.000000 3.399999 5.300001
v 14.100000 3.499999 5.300001
v 12.800000 3.599999 5.200000
v 13.100000 2.499999 5.200000
v 13.100000 3.599999 5.200000
v 13.400000 2.499999 5.200000
v 13.400000 2.999999 5.200000
v 13.600000 3.599999 5.200000
v 12.200000 -0.000001 5.400000
v 12.500000 2.499999 5.400001
v 12.700000 2.499999 5.500000
v 12.500000 2.499999 5.500000
v 13.200000 2.499999 5.500000
v 13.700000 2.499999 5.400001
v 13.900000 2.499999 5.500000
v 12.400000 2.499999 5.300001
v 12.400000 2.499999 5.400001
v 12.500000 2.499999 5.300001
v 12.800000 2.499999 5.200000
v 13.400000 3.099999 5.400001
v 13.300000 3.099999 5.400001
v 13.400000 3.099999 5.200000
v 13.500000 3.099999 5.300001
v 13.600000 3.199999 5.300001
v 13.600000 3.199999 5.200000
v 14.000000 3.399999 5.400001
v 14.000000 3.499999 5.300001
v 14.100000 2.599999 5.300001
v 13.900000 2.699999 5.400001
v 14.000000 2.699999 5.400001
v 13.900000 2.699999 5.300001
v 13.900000 2.799999 5.500000
v 13.600000 2.899999 5.300001
v 13.700000 2.899999 5.300001
v 13.600000 2.899999 5.200000
v 13.300000 2.999999 5.400001
v 12.500000 3.599999 5.500000
v 12.700000 3.599999 5.500000
v 13.300000 3.599999 5.500000
v 13.200000 3.599999 5.300001
v 13.300000 3.599999 5.300001
v 13.400000 3.599999 5.300001
v 14.100000 3.599999 5.400001
v 12.400000 3.599999 5.200000
v 12.200000 3.699999 5.400001
vt 0.463392 0.676904
vt 0.463392 0.784965
vt 0.436377 0.784965
vt 0.436377 0.676904
vt 0.791924 0.271675
vt 0.818940 0.271675
vt 0.818940 0.325706
vt 0.791924 0.325706
vt 0.545307 0.785400
vt 0.572323 0.785400
vt 0.572323 0.812416
vt 0.545307 0.812416
vt 0.354025 0.785400
vt 0.381041 0.785400
vt 0.381041 0.812416
vt 0.354025 0.812416
vt 0.627223 0.000217
vt 0.654239 0.000217
vt 0.654239 0.297385
vt 0.627223 0.297385
vt 0.764474 0.271240
vt 0.764474 0.190194
vt 0.791489 0.190194
vt 0.791489 0.217210
vt 0.791489 0.271240
vt 0.818940 0.135294
vt 0.791924 0.135294
vt 0.791924 0.081264
vt 0.818940 0.081264
vt 0.136599 0.000218
vt 0.163614 0.000218
vt 0.163614 0.999782
vt 0.136599 0.999782
vt 0.517422 0.297820
vt 0.517422 0.594988
vt 0.490407 0.594988
vt 0.490407 0.297820
vt 0.818940 0.785400
vt 0.791925 0.785400
vt 0.791925 0.731370
vt 0.818940 0.731370
vt 0.791924 0.326140
vt 0.818940 0.326140
vt 0.818940 0.380171
vt 0.791924 0.380171
vt 0.572758 0.812416
vt 0.572758 0.785400
vt 0.599772 0.785401
vt 0.599772 0.812416
vt 0.600208 0.676904
vt 0.627223 0.676904
vt 0.627223 0.784965
vt 0.600208 0.784965
vt 0.736589 0.297820
vt 0.736589 0.432897
vt 0.709574 0.432897
vt 0.709574 0.297820
vt 0.435942 0.000217
vt 0.489972 0.000217
vt 0.489972 0.297385
vt 0.435942 0.297385
vt 0.764474 0.731370
vt 0.791490 0.731370
vt 0.791490 0.785400
vt 0.764474 0.785400
vt 0.489972 0.297820
vt 0.489972 0.594988
vt 0.462956 0.594988
vt 0.462956 0.297820
vt 0.245530 0.000217
vt 0.326576 0.000217
vt 0.326576 0.297385
vt 0.245530 0.297385
vt 0.682123 0.297820
vt 0.709138 0.297820
vt 0.709138 0.594988
vt 0.682123 0.594988
vt 0.381041 0.297820
vt 0.381041 0.594988
vt 0.354025 0.594988
vt 0.354025 0.297820
vt 0.353590 0.785400
vt 0.353590 0.812416
vt 0.326575 0.812416
vt 0.326575 0.785400
vt 0.571887 0.297820
vt 0.571887 0.594988
vt 0.544872 0.594988
vt 0.544872 0.297820
vt 0.818940 0.649454
vt 0.791925 0.649454
vt 0.791925 0.595424
vt 0.818940 0.595424
vt 0.490407 0.000217
vt 0.544437 0.000217
vt 0.544437 0.297385
vt 0.490407 0.297385
vt 0.791925 0.487797
vt 0.818940 0.487797
vt 0.818940 0.541827
vt 0.791925 0.541827
vt 0.435941 0.297820
vt 0.435941 0.594988
vt 0.408926 0.594988
vt 0.408926 0.297820
vt 0.164049 0.839866
vt 0.164049 0.812851
vt 0.191064 0.812851
vt 0.191064 0.839866
vt 0.218515 0.594988
vt 0.191500 0.594988
vt 0.191500 0.297820
vt 0.218515 0.297820
vt 0.599338 0.459912
vt 0.599338 0.594988
vt 0.572322 0.594988
vt 0.572322 0.297820
vt 0.599338 0.297820
vt 0.599338 0.432897
vt 0.818940 0.190194
vt 0.818940 0.244225
vt 0.791924 0.244225
vt 0.791924 0.190194
vt 0.764474 0.785835
vt 0.791490 0.785835
vt 0.791490 0.812851
vt 0.764474 0.812851
vt 0.764040 0.595423
vt 0.764040 0.703484
vt 0.737024 0.703484
vt 0.737024 0.595423
vt 0.490842 0.676904
vt 0.490842 0.784965
vt 0.463827 0.784965
vt 0.463827 0.757950
vt 0.463827 0.676904
vt 0.572322 0.676904
vt 0.572322 0.784965
vt 0.545307 0.784965
vt 0.545307 0.703919
vt 0.545307 0.676904
vt 0.218514 0.812851
vt 0.218514 0.839866
vt 0.191500 0.839866
vt 0.191500 0.812851
vt 0.709139 0.595423
vt 0.709139 0.730500
vt 0.682124 0.730500
vt 0.682124 0.595423
vt 0.300866 0.785400
vt 0.300866 0.812416
vt 0.273850 0.812416
vt 0.273850 0.785400
vt 0.246400 0.785400
vt 0.273416 0.785400
vt 0.273416 0.812416
vt 0.246400 0.812416
vt 0.791925 0.812850
vt 0.791925 0.785835
vt 0.818940 0.785835
vt 0.818940 0.812850
vt 0.736588 0.730935
vt 0.736588 0.757950
vt 0.709574 0.757950
vt 0.709574 0.730935
vt 0.136163 0.000217
vt 0.136163 0.999782
vt 0.109148 0.999782
vt 0.109148 0.324401
vt 0.109148 0.027233
vt 0.109148 0.000217
vt 0.164049 0.000217
vt 0.245095 0.000217
vt 0.245095 0.297385
vt 0.164049 0.297385
vt 0.682124 0.785400
vt 0.709139 0.785400
vt 0.709139 0.812416
vt 0.682124 0.812416
vt 0.218515 0.785400
vt 0.218515 0.812416
vt 0.191500 0.812416
vt 0.191500 0.785400
vt 0.381475 0.000217
vt 0.435506 0.000218
vt 0.435506 0.297385
vt 0.381475 0.297385
vt 0.108713 0.999783
vt 0.054683 0.999783
vt 0.054683 0.000217
vt 0.108713 0.000217
vt 0.599772 0.676904
vt 0.599772 0.784965
vt 0.572758 0.784965
vt 0.572758 0.703920
vt 0.572758 0.676904
vt 0.544872 0.676904
vt 0.544872 0.784965
vt 0.517857 0.784965
vt 0.517857 0.676904
vt 0.408491 0.297820
vt 0.408491 0.594988
vt 0.381476 0.594988
vt 0.381476 0.297820
vt 0.736589 0.000217
vt 0.736589 0.135294
vt 0.709574 0.135294
vt 0.709574 0.000217
vt 0.490842 0.812416
vt 0.463827 0.812416
vt 0.463827 0.785400
vt 0.490842 0.785400
vt 0.764040 0.433332
vt 0.764040 0.541393
vt 0.737024 0.541393
vt 0.737024 0.433332
vt 0.791489 0.000217
vt 0.791489 0.108279
vt 0.764474 0.108279
vt 0.764474 0.081263
vt 0.764474 0.000217
vt 0.272545 0.297820
vt 0.272545 0.594988
vt 0.245530 0.594988
vt 0.245530 0.297820
vt 0.353590 0.297820
vt 0.353590 0.594988
vt 0.326575 0.594988
vt 0.326575 0.297820
vt 0.191065 0.297820
vt 0.191065 0.594988
vt 0.164049 0.594988
vt 0.164049 0.297820
vt 0.654674 0.000217
vt 0.681689 0.000217
vt 0.681689 0.297385
vt 0.654674 0.297385
vt 0.709574 0.595423
vt 0.736588 0.595423
vt 0.736588 0.730500
vt 0.709574 0.730500
vt 0.736589 0.433332
vt 0.736589 0.568408
vt 0.709574 0.568408
vt 0.709574 0.433332
vt 0.737024 0.703919
vt 0.764040 0.703919
vt 0.764040 0.784966
vt 0.737024 0.784966
vt 0.791490 0.189759
vt 0.764474 0.189759
vt 0.764474 0.108713
vt 0.791490 0.108713
vt 0.218080 0.757951
vt 0.218080 0.784966
vt 0.164049 0.784966
vt 0.164049 0.730935
vt 0.191064 0.730935
vt 0.191064 0.757951
vt 0.682124 0.000217
vt 0.709139 0.000217
vt 0.709139 0.297385
vt 0.682124 0.297385
vt 0.764040 0.812416
vt 0.737024 0.812416
vt 0.737024 0.785400
vt 0.764040 0.785400
vt 0.326575 0.595423
vt 0.380606 0.595423
vt 0.380606 0.730500
vt 0.353591 0.730500
vt 0.353591 0.703484
vt 0.326575 0.703484
vt 0.300431 0.595423
vt 0.300431 0.730500
vt 0.273416 0.730500
vt 0.273416 0.595423
vt 0.791925 0.703484
vt 0.791925 0.676469
vt 0.818940 0.676469
vt 0.818940 0.703484
vt 0.818940 0.703919
vt 0.818940 0.730934
vt 0.791925 0.730934
vt 0.791925 0.703919
vt 0.600208 0.785400
vt 0.627223 0.785400
vt 0.627223 0.812416
vt 0.600208 0.812416
vt 0.435071 0.730935
vt 0.435071 0.784966
vt 0.381041 0.784966
vt 0.381041 0.757951
vt 0.408056 0.757951
vt 0.408056 0.730935
vt 0.709574 0.785400
vt 0.709574 0.758385
vt 0.736588 0.758386
vt 0.736588 0.785401
vt 0.599772 0.297820
vt 0.626788 0.297820
vt 0.626788 0.432897
vt 0.626788 0.459912
vt 0.626788 0.594988
vt 0.599772 0.594988
vt 0.627658 0.676904
vt 0.654673 0.676904
vt 0.654673 0.784965
vt 0.627658 0.784965
vt 0.054248 0.999783
vt 0.000217 0.999783
vt 0.000217 0.000217
vt 0.054248 0.000217
vt 0.054248 0.027233
vt 0.054248 0.324401
vt 0.299995 0.297820
vt 0.299995 0.594988
vt 0.272980 0.594988
vt 0.272980 0.297820
vt 0.599772 0.000217
vt 0.626788 0.000217
vt 0.626788 0.297385
vt 0.599772 0.297385
vt 0.736588 0.785836
vt 0.736588 0.812851
vt 0.709574 0.812851
vt 0.709574 0.785836
vt 0.327010 0.000217
vt 0.381041 0.000218
vt 0.381041 0.297385
vt 0.327010 0.297385
vt 0.737024 0.541828
vt 0.764040 0.541828
vt 0.764040 0.568843
vt 0.737024 0.568843
vt 0.654674 0.297820
vt 0.681689 0.297820
vt 0.681689 0.594988
vt 0.654674 0.594988
vt 0.709139 0.784966
vt 0.682124 0.784966
vt 0.682124 0.730935
vt 0.709139 0.730935
vt 0.737024 0.271240
vt 0.764039 0.271240
vt 0.764039 0.406317
vt 0.737024 0.406317
vt 0.818940 0.487362
vt 0.791925 0.487362
vt 0.791925 0.433331
vt 0.818940 0.433331
vt 0.737024 0.135729
vt 0.764039 0.135729
vt 0.764039 0.270805
vt 0.737024 0.270805
vt 0.599338 0.000217
vt 0.599338 0.297385
vt 0.572322 0.297385
vt 0.572322 0.000217
vt 0.571887 0.000217
vt 0.571887 0.297385
vt 0.544872 0.297385
vt 0.544872 0.000217
vt 0.273416 0.730935
vt 0.300431 0.730935
vt 0.300431 0.784966
vt 0.273416 0.784966
vt 0.218950 0.812416
vt 0.218950 0.785400
vt 0.245966 0.785400
vt 0.245966 0.812416
vt 0.818939 0.542263
vt 0.818939 0.569278
vt 0.791924 0.569278
vt 0.791924 0.542263
vt 0.572322 0.595423
vt 0.626352 0.595423
vt 0.626352 0.622439
vt 0.626352 0.676469
vt 0.572322 0.676469
vt 0.435506 0.730500
vt 0.381475 0.730500
vt 0.381475 0.595423
vt 0.408491 0.595423
vt 0.408491 0.622439
vt 0.435506 0.622439
vt 0.272981 0.730935
vt 0.272981 0.757951
vt 0.245965 0.757951
vt 0.245965 0.784966
vt 0.218950 0.784966
vt 0.218950 0.730935
vt 0.791490 0.433332
vt 0.791490 0.514378
vt 0.764474 0.514378
vt 0.764474 0.433332
vt 0.191065 0.703484
vt 0.191065 0.730500
vt 0.164049 0.730500
vt 0.164049 0.595423
vt 0.218080 0.595423
vt 0.218080 0.703484
vt 0.381476 0.785400
vt 0.408491 0.785400
vt 0.408491 0.812416
vt 0.381476 0.812416
vt 0.764474 0.352721
vt 0.764474 0.271675
vt 0.791489 0.271675
vt 0.791489 0.325706
vt 0.791489 0.352721
vt 0.737024 0.000217
vt 0.764039 0.000217
vt 0.764039 0.135294
vt 0.737024 0.135294
vt 0.544872 0.812416
vt 0.517857 0.812416
vt 0.517857 0.785400
vt 0.544872 0.785400
vt 0.218950 0.622438
vt 0.245966 0.622438
vt 0.245966 0.595423
vt 0.272981 0.595423
vt 0.272981 0.730500
vt 0.218950 0.730500
vt 0.791489 0.407187
vt 0.764474 0.407187
vt 0.764474 0.353156
vt 0.791489 0.353156
vt 0.791924 0.135729
vt 0.818940 0.135729
vt 0.818940 0.189759
vt 0.791924 0.189759
vt 0.736589 0.135729
vt 0.736589 0.270805
vt 0.709574 0.270805
vt 0.709574 0.135729
vt 0.326575 0.784966
vt 0.326575 0.730935
vt 0.353590 0.730935
vt 0.353590 0.757951
vt 0.380606 0.757951
vt 0.380606 0.784966
vt 0.436377 0.595423
vt 0.490407 0.595423
vt 0.490407 0.676469
vt 0.436377 0.676469
vt 0.626788 0.595423
vt 0.680819 0.595423
vt 0.680819 0.676469
vt 0.626788 0.676469
vt 0.164049 0.812416
vt 0.164049 0.785400
vt 0.191065 0.785400
vt 0.191065 0.812416
vt 0.818939 0.000217
vt 0.818939 0.054248
vt 0.791924 0.054248
vt 0.791924 0.000217
vt 0.517857 0.595423
vt 0.571887 0.595423
vt 0.571887 0.649454
vt 0.571887 0.676469
vt 0.517857 0.676469
vt 0.627658 0.785400
vt 0.654674 0.785400
vt 0.654674 0.812416
vt 0.627658 0.812416
vt 0.764474 0.514812
vt 0.791490 0.514812
vt 0.791490 0.568843
vt 0.764474 0.568843
vt 0.627223 0.297820
vt 0.654239 0.297820
vt 0.654239 0.594988
vt 0.627223 0.594988
vt 0.818940 0.407621
vt 0.791924 0.407621
vt 0.791924 0.380606
vt 0.818940 0.380606
vt 0.791490 0.595423
vt 0.791490 0.676469
vt 0.764474 0.676469
vt 0.764474 0.595423
vt 0.436377 0.785400
vt 0.463392 0.785400
vt 0.463392 0.812416
vt 0.436377 0.812416
vt 0.435941 0.812416
vt 0.408926 0.812416
vt 0.408926 0.785400
vt 0.435941 0.785400
vt 0.791490 0.730934
vt 0.764474 0.730934
vt 0.764474 0.676904
vt 0.791490 0.676904
vn -1.0000 0.0000 0.0000
vn 0.0000 1.0000 0.0000
vn 1.0000 0.0000 0.0000
vn 0.0000 0.0000 -1.0000
vn 0.0000 -1.0000 0.0000
vn 0.0000 0.0000 1.0000
usemtl Flag_Large_Green
s off
f 122/1/1 16/2/1 61/3/1 60/4/1
f 47/5/2 48/6/2 19/7/2 18/8/2
f 91/9/3 54/10/3 132/11/3 69/12/3
f 25/13/2 80/14/2 8/15/2 7/16/2
f 81/17/4 82/18/4 10/19/4 9/20/4
f 47/21/3 46/22/3 77/23/3 66/24/3 48/25/3
f 23/26/5 98/27/5 2/28/5 1/29/5
f 1/30/1 2/31/1 3/32/1 78/33/1
f 25/34/1 99/35/1 101/36/1 126/37/1
f 26/38/5 100/39/5 101/40/5 99/41/5
f 121/42/2 45/43/2 62/44/2 17/45/2
f 63/46/2 123/47/2 122/48/2 60/49/2
f 122/50/4 123/51/4 43/52/4 16/53/4
f 130/54/1 86/55/1 110/56/1 14/57/1
f 25/58/4 75/59/4 26/60/4 99/61/4
f 8/62/2 133/63/2 6/64/2 70/65/2
f 26/66/3 75/67/3 127/68/3 100/69/3
f 92/70/4 94/71/4 93/72/4 108/73/4
f 31/74/6 11/75/6 12/76/6 29/77/6
f 10/78/3 82/79/3 28/80/3 27/81/3
f 50/82/3 51/83/3 119/84/3 49/85/3
f 31/86/1 29/87/1 102/88/1 56/89/1
f 77/90/5 46/91/5 58/92/5 76/93/5
f 127/94/6 126/95/6 101/96/6 100/97/6
f 127/98/2 75/99/2 25/100/2 126/101/2
f 107/102/3 80/103/3 25/104/3 99/105/3
f 31/106/2 129/107/2 72/108/2 11/109/2
f 4/110/1 5/111/1 70/112/1 6/113/1
f 110/114/3 14/115/3 128/116/3 55/117/3 32/118/3 125/119/3
f 22/120/1 89/121/1 66/122/1 48/123/1
f 128/124/2 14/125/2 31/126/2 56/127/2
f 114/128/3 97/129/3 42/130/3 113/131/3
f 43/132/3 123/133/3 63/134/3 62/135/3 103/136/3
f 87/137/3 88/138/3 19/139/3 76/140/3 44/141/3
f 84/142/5 33/143/5 32/144/5 83/145/5
f 15/146/1 111/147/1 35/148/1 131/149/1
f 38/150/5 112/151/5 35/152/5 111/153/5
f 36/154/3 37/155/3 74/156/3 73/157/3
f 59/158/2 131/159/2 130/160/2 14/161/2
f 43/162/5 103/163/5 61/164/5 16/165/5
f 134/166/3 98/167/3 23/168/3 5/169/3 70/170/3 79/171/3
f 72/172/6 82/173/6 10/174/6 71/175/6
f 90/176/3 116/177/3 67/178/3 115/179/3
f 114/180/5 113/181/5 39/182/5 40/183/5
f 6/184/4 133/185/4 24/186/4 4/187/4
f 2/188/6 98/189/6 134/190/6 3/191/6
f 60/192/6 61/193/6 103/194/6 62/195/6 63/196/6
f 42/197/1 113/198/1 65/199/1 64/200/1
f 30/201/3 129/202/3 31/203/3 29/204/3
f 84/205/3 85/206/3 34/207/3 33/208/3
f 107/209/5 99/210/5 106/211/5 105/212/5
f 41/213/3 124/214/3 122/215/3 16/216/3
f 64/217/6 65/218/6 44/219/6 76/220/6 19/221/6
f 92/222/1 108/223/1 10/224/1 82/225/1
f 81/226/1 9/227/1 26/228/1 75/229/1
f 24/230/3 133/231/3 8/232/3 105/233/3
f 25/234/6 7/235/6 106/236/6 99/237/6
f 34/238/6 125/239/6 32/240/6 33/241/6
f 35/242/3 131/243/3 59/244/3 109/245/3
f 72/246/2 94/247/2 92/248/2 82/249/2
f 93/250/5 71/251/5 10/252/5 108/253/5
f 119/254/6 118/255/6 21/256/6 52/257/6 68/258/6 49/259/6
f 72/260/4 129/261/4 30/262/4 71/263/4
f 90/264/5 115/265/5 66/266/5 89/267/5
f 42/268/6 131/269/6 35/270/6 112/271/6 39/272/6 113/273/6
f 96/274/1 95/275/1 84/276/1 85/277/1
f 34/278/2 85/279/2 13/280/2 125/281/2
f 35/282/5 109/283/5 110/284/5 86/285/5
f 28/286/2 82/287/2 81/288/2 75/289/2
f 132/290/6 48/291/6 66/292/6 115/293/6 67/294/6 69/295/6
f 19/296/2 88/297/2 42/298/2 64/299/2
f 31/300/4 14/301/4 110/302/4 125/303/4 32/304/4 29/305/4
f 42/306/4 88/307/4 87/308/4 113/309/4
f 23/310/4 1/311/4 78/312/4 79/313/4 70/314/4 5/315/4
f 8/316/1 105/317/1 106/318/1 7/319/1
f 128/320/6 56/321/6 102/322/6 55/323/6
f 87/324/5 44/325/5 65/326/5 113/327/5
f 8/328/6 70/329/6 5/330/6 105/331/6
f 38/332/3 40/333/3 39/334/3 112/335/3
f 28/336/6 75/337/6 26/338/6 27/339/6
f 41/340/5 16/341/5 84/342/5 95/343/5
f 13/344/4 85/345/4 84/346/4 83/347/4
f 21/348/5 104/349/5 57/350/5 103/351/5
f 130/352/4 131/353/4 35/354/4 86/355/4
f 72/356/1 71/357/1 12/358/1 11/359/1
f 93/360/3 94/361/3 72/362/3 71/363/3
f 42/364/2 97/365/2 15/366/2 131/367/2
f 74/368/2 37/369/2 96/370/2 85/371/2
f 30/372/5 29/373/5 12/374/5 71/375/5
f 62/376/4 45/377/4 118/378/4 21/379/4 103/380/4
f 41/381/4 95/382/4 96/383/4 37/384/4 36/385/4 124/386/4
f 120/387/4 51/388/4 50/389/4 117/390/4 53/391/4 20/392/4
f 19/393/1 76/394/1 58/395/1 18/396/1
f 40/397/4 38/398/4 111/399/4 15/400/4 97/401/4 114/402/4
f 53/403/3 117/404/3 68/405/3 52/406/3
f 121/407/3 104/408/3 21/409/3 118/410/3 45/411/3
f 59/412/6 14/413/6 110/414/6 109/415/6
f 91/416/5 69/417/5 67/418/5 116/419/5
f 122/420/6 73/421/6 74/422/6 85/423/6 84/424/6 16/425/6
f 53/426/5 52/427/5 21/428/5 20/429/5
f 134/430/2 79/431/2 78/432/2 3/433/2
f 13/434/1 83/435/1 32/436/1 125/437/1
f 22/438/4 54/439/4 91/440/4 116/441/4 90/442/4 89/443/4
f 47/444/6 18/445/6 58/446/6 46/447/6
f 121/448/6 17/449/6 57/450/6 104/451/6
f 122/452/2 124/453/2 36/454/2 73/455/2
f 120/456/1 20/457/1 21/458/1 118/459/1
f 19/460/4 48/461/4 66/462/4 77/463/4 76/464/4
f 119/465/2 51/466/2 120/467/2 118/468/2
f 132/469/2 54/470/2 22/471/2 48/472/2
f 8/473/4 80/474/4 107/475/4 105/476/4
f 10/477/5 27/478/5 26/479/5 9/480/5
f 62/481/1 103/482/1 57/483/1 17/484/1
f 68/485/2 117/486/2 50/487/2 49/488/2
f 32/489/5 55/490/5 102/491/5 29/492/5
f 24/493/5 105/494/5 5/495/5 4/496/5
