# Blender v3.2.2 OBJ File: 'Medieval Voxel Assets.blend'
# www.blender.org
mtllib Flag_Small_Blue.mtl
o Flag_Small_Blue_Medieval_Assets-34.001
v 14.600000 -0.000001 7.000000
v 14.700000 1.399999 7.200000
v 14.900000 1.299999 7.100000
v 14.900000 1.299999 7.000000
v 15.000000 1.199999 7.000000
v 15.000000 0.699999 6.900000
v 15.300000 1.099999 7.200000
v 15.300000 0.799999 7.100000
v 14.700000 -0.000001 7.100000
v 14.700000 1.499999 7.100000
v 14.700000 1.499999 7.000000
v 14.900000 0.499999 7.200000
v 14.900000 0.499999 7.100000
v 15.000000 0.599999 7.000000
v 15.200000 1.199999 6.900000
v 15.300000 1.099999 7.100000
v 15.400000 0.799999 7.100000
v 15.400000 0.999999 7.200000
v 15.400000 0.999999 7.100000
v 15.400000 1.099999 7.200000
v 15.400000 1.099999 7.100000
v 15.500000 0.899999 7.200000
v 14.700000 0.499999 7.200000
v 15.000000 1.299999 7.100000
v 15.200000 1.099999 7.100000
v 15.200000 0.699999 7.000000
v 15.200000 1.099999 7.000000
v 15.200000 1.199999 7.000000
v 14.900000 0.599999 7.100000
v 14.900000 1.399999 7.100000
v 15.500000 0.899999 7.100000
v 15.500000 0.999999 7.100000
v 14.700000 -0.000001 7.000000
v 14.600000 1.499999 7.000000
v 14.900000 0.599999 7.000000
v 15.200000 0.799999 7.000000
v 15.300000 0.799999 7.000000
v 15.300000 1.099999 7.000000
v 14.600000 -0.000001 7.100000
v 14.700000 0.499999 7.100000
v 15.000000 0.599999 7.100000
v 15.000000 0.699999 7.000000
v 15.200000 0.699999 6.900000
v 15.400000 0.799999 7.200000
v 15.300000 0.799999 7.200000
v 15.200000 0.799999 7.100000
v 15.400000 0.899999 7.100000
v 15.400000 0.899999 7.200000
v 15.500000 0.999999 7.200000
v 15.000000 1.199999 6.900000
v 15.000000 1.299999 7.000000
v 14.900000 1.399999 7.200000
v 14.700000 1.399999 7.100000
v 14.600000 1.499999 7.100000
vt 0.689732 0.874922
vt 0.689732 0.812461
vt 0.689732 0.625078
vt 0.689732 0.562617
vt 0.752192 0.562617
vt 0.752192 0.874922
vt 0.313087 0.937069
vt 0.250627 0.937069
vt 0.250627 0.000157
vt 0.313087 0.000157
vt 0.940515 0.312774
vt 0.878054 0.312774
vt 0.878054 0.187852
vt 0.940515 0.187852
vt 0.815280 0.875234
vt 0.877741 0.875234
vt 0.877741 0.937695
vt 0.815280 0.937695
vt 0.564183 0.938009
vt 0.501722 0.938009
vt 0.501722 0.813087
vt 0.564183 0.813087
vt 0.501722 0.625392
vt 0.564183 0.625392
vt 0.564183 0.812774
vt 0.501722 0.812774
vt 0.689732 0.562304
vt 0.689732 0.000157
vt 0.752192 0.000157
vt 0.752192 0.062617
vt 0.752192 0.499843
vt 0.752192 0.562304
vt 0.940515 0.814654
vt 0.940515 0.877115
vt 0.878054 0.877115
vt 0.878054 0.814654
vt 0.000156 0.750313
vt 0.062617 0.750313
vt 0.062617 0.937696
vt 0.000156 0.937696
vt 0.940515 0.751880
vt 0.940515 0.814341
vt 0.878054 0.814341
vt 0.878054 0.751880
vt 0.877740 0.812461
vt 0.877740 0.874921
vt 0.815280 0.874921
vt 0.815280 0.437696
vt 0.877740 0.437696
vt 0.877740 0.500156
vt 0.250627 0.999843
vt 0.250627 0.937383
vt 0.313087 0.937383
vt 0.313087 0.999843
vt 0.689418 0.000157
vt 0.689418 0.562304
vt 0.626957 0.562304
vt 0.626957 0.000157
vt 0.000156 0.000157
vt 0.125078 0.000157
vt 0.125078 0.062617
vt 0.125078 0.499843
vt 0.125078 0.562304
vt 0.000156 0.562304
vt 0.940515 0.000157
vt 0.940515 0.187539
vt 0.878054 0.187539
vt 0.878054 0.000157
vt 0.752505 0.437696
vt 0.814966 0.437696
vt 0.814966 0.874922
vt 0.752505 0.874922
vt 0.250313 0.562617
vt 0.250313 0.750000
vt 0.187852 0.750000
vt 0.187852 0.687539
vt 0.125391 0.687539
vt 0.125391 0.625078
vt 0.187852 0.625078
vt 0.187852 0.562617
vt 0.375861 0.000157
vt 0.375861 0.937069
vt 0.313401 0.937069
vt 0.313401 0.874608
vt 0.313401 0.312461
vt 0.313401 0.000157
vt 0.438635 0.937383
vt 0.438635 0.999843
vt 0.376174 0.999843
vt 0.376174 0.937383
vt 0.125391 0.750313
vt 0.125391 0.937696
vt 0.062931 0.937696
vt 0.062931 0.750313
vt 0.940515 0.689106
vt 0.940515 0.751567
vt 0.878054 0.751567
vt 0.878054 0.689106
vt 0.376174 0.000157
vt 0.438635 0.000157
vt 0.438635 0.937069
vt 0.376174 0.937069
vt 0.376174 0.624765
vt 0.376174 0.062617
vt 0.125391 0.000157
vt 0.250313 0.000157
vt 0.250313 0.562304
vt 0.125391 0.562304
vt 0.062617 0.687539
vt 0.062617 0.750000
vt 0.000156 0.750000
vt 0.000156 0.562617
vt 0.062617 0.562617
vt 0.062617 0.625078
vt 0.125078 0.625078
vt 0.125078 0.687539
vt 0.940515 0.626018
vt 0.878054 0.626018
vt 0.878054 0.563557
vt 0.940515 0.563557
vt 0.878054 0.313087
vt 0.940515 0.313087
vt 0.940515 0.438008
vt 0.878054 0.438008
vt 0.878054 0.438322
vt 0.940515 0.438322
vt 0.940515 0.563244
vt 0.878054 0.563244
vt 0.188166 0.750313
vt 0.188166 0.937696
vt 0.125705 0.937696
vt 0.125705 0.750313
vt 0.877740 0.000157
vt 0.877740 0.437382
vt 0.815280 0.437382
vt 0.815280 0.000157
vt 0.438949 0.000157
vt 0.501410 0.000157
vt 0.501410 0.937069
vt 0.438949 0.937069
vt 0.689418 0.937696
vt 0.626957 0.937696
vt 0.626957 0.875235
vt 0.689418 0.875235
vt 0.689732 0.875235
vt 0.752192 0.875235
vt 0.752192 0.937696
vt 0.689732 0.937696
vt 0.501722 0.312461
vt 0.501722 0.250000
vt 0.501722 0.062617
vt 0.501722 0.000157
vt 0.626644 0.000157
vt 0.626644 0.312461
vt 0.689418 0.562618
vt 0.689418 0.874922
vt 0.626957 0.874922
vt 0.626957 0.562618
vt 0.501722 0.312774
vt 0.626644 0.312774
vt 0.626644 0.625078
vt 0.501722 0.625078
vt 0.878054 0.626331
vt 0.940515 0.626331
vt 0.940515 0.688792
vt 0.878054 0.688792
vt 0.752505 0.000157
vt 0.814966 0.000157
vt 0.814966 0.062617
vt 0.814966 0.374922
vt 0.814966 0.437382
vt 0.752505 0.437382
vt 0.940515 0.877428
vt 0.940515 0.939888
vt 0.878054 0.939888
vt 0.878054 0.877428
vt 0.814966 0.937696
vt 0.752506 0.937696
vt 0.752506 0.875235
vt 0.814966 0.875235
vt 0.313400 0.999843
vt 0.313400 0.937383
vt 0.375861 0.937383
vt 0.375861 0.999843
vn 1.0000 0.0000 0.0000
vn -1.0000 0.0000 0.0000
vn 0.0000 -1.0000 0.0000
vn 0.0000 1.0000 0.0000
vn 0.0000 0.0000 1.0000
vn 0.0000 0.0000 -1.0000
usemtl Flag_Small_Blue
s off
f 28/1/1 27/2/1 36/3/1 26/4/1 43/5/1 15/6/1
f 1/7/2 39/8/2 54/9/2 34/10/2
f 13/11/3 12/12/3 23/13/3 40/14/3
f 49/15/4 32/16/4 19/17/4 18/18/4
f 43/19/3 26/20/3 42/21/3 6/22/3
f 16/23/5 25/24/5 46/25/5 8/26/5
f 52/27/1 12/28/1 13/29/1 29/30/1 3/31/1 30/32/1
f 17/33/1 47/34/1 48/35/1 44/36/1
f 27/37/6 38/38/6 37/39/6 36/40/6
f 19/41/1 21/42/1 20/43/1 18/44/1
f 5/45/1 51/46/1 24/47/1 41/48/1 14/49/1 42/50/1
f 20/51/4 21/52/4 16/53/4 7/54/4
f 53/55/2 40/56/2 23/57/2 2/58/2
f 53/59/6 30/60/6 3/61/6 29/62/6 13/63/6 40/64/6
f 37/65/1 38/66/1 16/67/1 8/68/1
f 24/69/5 3/70/5 29/71/5 41/72/5
f 7/73/5 45/74/5 44/75/5 48/76/5 22/77/5 49/78/5 18/79/5 20/80/5
f 33/81/1 11/82/1 10/83/1 53/84/1 40/85/1 9/86/1
f 33/87/3 9/88/3 39/89/3 1/90/3
f 27/91/2 36/92/2 46/93/2 25/94/2
f 31/95/1 32/96/1 49/97/1 22/98/1
f 10/99/5 54/100/5 39/101/5 9/102/5 40/103/5 53/104/5
f 52/105/5 2/106/5 23/107/5 12/108/5
f 47/109/6 17/110/6 8/111/6 16/112/6 21/113/6 19/114/6 32/115/6 31/116/6
f 31/117/3 22/118/3 48/119/3 47/120/3
f 52/121/4 30/122/4 53/123/4 2/124/4
f 28/125/4 15/126/4 50/127/4 5/128/4
f 16/129/2 8/130/2 45/131/2 7/132/2
f 4/133/2 35/134/2 29/135/2 3/136/2
f 34/137/6 11/138/6 33/139/6 1/140/6
f 37/141/3 8/142/3 46/143/3 36/144/3
f 16/145/4 38/146/4 27/147/4 25/148/4
f 26/149/5 36/150/5 27/151/5 28/152/5 5/153/5 42/154/5
f 50/155/2 6/156/2 42/157/2 5/158/2
f 50/159/6 15/160/6 43/161/6 6/162/6
f 24/163/4 51/164/4 4/165/4 3/166/4
f 4/167/6 51/168/6 5/169/6 42/170/6 14/171/6 35/172/6
f 17/173/3 44/174/3 45/175/3 8/176/3
f 14/177/3 41/178/3 29/179/3 35/180/3
f 10/181/4 11/182/4 34/183/4 54/184/4
