# Blender v3.2.2 OBJ File: 'Medieval Voxel Assets.blend'
# www.blender.org
mtllib Flag_Large_Blue.mtl
o Flag_Large_Blue_Medieval_Assets-29.001
v 12.000000 -0.000001 7.100000
v 12.000000 3.699999 7.000000
v 12.200000 2.499999 6.900001
v 12.200000 2.499999 7.000000
v 12.200000 3.599999 7.000000
v 12.400000 2.499999 7.000000
v 12.400000 3.599999 7.000000
v 12.500000 3.599999 7.100000
v 12.700000 3.599999 7.000000
v 12.800000 3.599999 7.000000
v 13.100000 3.599999 7.000000
v 13.300000 2.999999 7.100000
v 13.300000 3.099999 7.000000
v 13.400000 3.599999 7.000000
v 13.400000 3.099999 6.900001
v 13.400000 3.599999 6.900001
v 13.600000 3.599999 7.100000
v 13.600000 3.599999 7.000000
v 13.700000 2.799999 7.200000
v 13.700000 2.499999 7.200000
v 13.900000 2.499999 7.000000
v 13.900000 3.599999 7.000000
v 12.200000 3.699999 7.100000
v 12.700000 3.599999 7.200000
v 12.800000 2.499999 7.100000
v 12.800000 3.599999 7.100000
v 13.200000 2.499999 7.000000
v 13.200000 3.599999 7.000000
v 13.400000 2.499999 7.100000
v 13.400000 3.099999 7.000000
v 13.500000 2.899999 7.000000
v 13.600000 2.499999 7.000000
v 13.600000 3.199999 6.900001
v 13.600000 3.599999 6.900001
v 13.700000 2.499999 7.000000
v 13.700000 2.899999 7.000000
v 13.700000 3.599999 7.000000
v 13.900000 2.499999 7.200000
v 13.900000 2.799999 7.200000
v 13.900000 3.399999 7.100000
v 14.000000 2.599999 7.100000
v 14.000000 3.499999 7.000000
v 14.100000 2.499999 7.000000
v 12.500000 3.599999 7.200000
v 12.500000 2.499999 7.200000
v 13.300000 2.499999 7.200000
v 13.200000 2.499999 7.200000
v 13.300000 3.599999 7.200000
v 13.900000 3.299999 7.200000
v 13.700000 3.299999 7.200000
v 12.000000 3.699999 7.100000
v 12.200000 -0.000001 7.100000
v 12.400000 3.599999 7.100000
v 12.400000 2.499999 7.100000
v 12.700000 3.599999 7.100000
v 13.200000 2.499999 7.100000
v 13.400000 2.999999 7.100000
v 13.400000 3.099999 7.100000
v 13.300000 3.099999 7.100000
v 13.400000 3.599999 7.100000
v 13.700000 2.499999 7.100000
v 13.600000 2.899999 7.100000
v 13.600000 2.499999 7.100000
v 13.700000 3.299999 7.100000
v 14.000000 3.399999 7.100000
v 14.000000 3.499999 7.100000
v 14.100000 2.499999 7.100000
v 13.400000 2.999999 7.000000
v 13.500000 2.999999 7.000000
v 13.500000 3.099999 7.000000
v 13.300000 3.599999 7.100000
v 13.700000 2.799999 7.100000
v 13.900000 2.699999 7.100000
v 13.900000 2.799999 7.100000
v 13.900000 3.599999 7.100000
v 12.200000 -0.000001 7.000000
v 12.200000 3.699999 7.000000
v 12.700000 2.499999 7.000000
v 13.100000 2.499999 7.000000
v 13.300000 2.499999 7.000000
v 13.400000 2.499999 7.000000
v 13.900000 2.699999 7.000000
v 14.000000 2.599999 7.000000
v 14.000000 2.699999 7.000000
v 13.900000 3.399999 7.000000
v 14.100000 2.599999 7.000000
v 14.100000 3.499999 7.000000
v 14.100000 3.599999 7.000000
v 12.400000 2.499999 6.900001
v 12.400000 3.599999 6.900001
v 12.800000 3.599999 6.900001
v 13.100000 2.499999 6.900001
v 13.400000 2.499999 6.900001
v 13.500000 2.999999 6.900001
v 13.600000 2.499999 6.900001
v 12.000000 -0.000001 7.000000
v 12.500000 2.499999 7.100000
v 12.700000 2.499999 7.200000
v 12.700000 2.499999 7.100000
v 13.300000 2.499999 7.100000
v 13.900000 2.499999 7.100000
v 12.500000 2.499999 7.000000
v 12.800000 2.499999 7.000000
v 13.100000 2.499999 7.100000
v 12.800000 2.499999 6.900001
v 13.500000 3.099999 6.900001
v 13.600000 3.199999 7.000000
v 13.700000 3.199999 7.100000
v 13.600000 3.199999 7.100000
v 13.700000 3.199999 7.000000
v 13.500000 3.199999 6.900001
v 13.500000 3.199999 7.000000
v 13.900000 3.299999 7.100000
v 14.000000 3.399999 7.000000
v 14.100000 3.499999 7.100000
v 14.100000 2.599999 7.100000
v 14.000000 2.699999 7.100000
v 13.700000 2.899999 7.100000
v 13.600000 2.899999 7.000000
v 13.500000 2.899999 6.900001
v 13.600000 2.899999 6.900001
v 13.300000 2.999999 7.000000
v 13.400000 2.999999 6.900001
v 13.200000 3.599999 7.200000
v 13.200000 3.599999 7.100000
v 13.700000 3.599999 7.200000
v 13.900000 3.599999 7.200000
v 13.700000 3.599999 7.100000
v 12.500000 3.599999 7.000000
v 13.100000 3.599999 7.100000
v 13.300000 3.599999 7.000000
v 14.100000 3.599999 7.100000
v 12.200000 3.599999 6.900001
v 13.100000 3.599999 6.900001
vt 0.791490 0.514813
vt 0.764474 0.514813
vt 0.764474 0.433767
vt 0.791490 0.433767
vt 0.736589 0.271240
vt 0.736589 0.406317
vt 0.709574 0.406317
vt 0.709574 0.271240
vt 0.517422 0.297820
vt 0.517422 0.594988
vt 0.490407 0.594988
vt 0.490407 0.297820
vt 0.709574 0.595423
vt 0.736588 0.595423
vt 0.736588 0.730500
vt 0.709574 0.730500
vt 0.272545 0.297820
vt 0.272545 0.594988
vt 0.245530 0.594988
vt 0.245530 0.297820
vt 0.791490 0.759690
vt 0.764474 0.759690
vt 0.764474 0.705660
vt 0.791490 0.705660
vt 0.191064 0.297820
vt 0.191064 0.594988
vt 0.164049 0.594988
vt 0.164049 0.297820
vt 0.380606 0.730500
vt 0.326575 0.730500
vt 0.326575 0.595423
vt 0.353591 0.595423
vt 0.353591 0.622439
vt 0.380606 0.622439
vt 0.791489 0.081698
vt 0.791489 0.162744
vt 0.764474 0.162744
vt 0.764474 0.081698
vt 0.818939 0.625484
vt 0.818939 0.652499
vt 0.791924 0.652499
vt 0.791924 0.625484
vt 0.326575 0.785400
vt 0.353590 0.785400
vt 0.353590 0.812416
vt 0.326575 0.812416
vt 0.709139 0.595423
vt 0.709139 0.730500
vt 0.682124 0.730500
vt 0.682124 0.595423
vt 0.218514 0.297820
vt 0.218514 0.594988
vt 0.191499 0.594988
vt 0.191499 0.297820
vt 0.136599 0.999782
vt 0.136599 0.000218
vt 0.163614 0.000218
vt 0.163614 0.999782
vt 0.600207 0.676904
vt 0.627222 0.676904
vt 0.627222 0.784965
vt 0.600207 0.784965
vt 0.600207 0.757950
vt 0.764474 0.515247
vt 0.791490 0.515247
vt 0.791490 0.596293
vt 0.764474 0.596293
vt 0.736589 0.542263
vt 0.736589 0.569278
vt 0.709574 0.569278
vt 0.709574 0.542263
vt 0.737024 0.135729
vt 0.764039 0.135729
vt 0.764039 0.270805
vt 0.737024 0.270805
vt 0.381475 0.000217
vt 0.435506 0.000218
vt 0.435506 0.297385
vt 0.381475 0.297385
vt 0.791924 0.218079
vt 0.818940 0.218079
vt 0.818940 0.272109
vt 0.791924 0.272109
vt 0.571887 0.000217
vt 0.571887 0.297385
vt 0.544872 0.297385
vt 0.544872 0.000217
vt 0.571887 0.459912
vt 0.571887 0.594988
vt 0.544872 0.594988
vt 0.544872 0.297820
vt 0.571887 0.297820
vt 0.571887 0.432897
vt 0.599338 0.000217
vt 0.599338 0.297385
vt 0.572322 0.297385
vt 0.572322 0.000217
vt 0.736589 0.000217
vt 0.736589 0.135294
vt 0.709574 0.135294
vt 0.709574 0.000217
vt 0.436377 0.784965
vt 0.436377 0.703919
vt 0.436377 0.676904
vt 0.463392 0.676904
vt 0.463392 0.784965
vt 0.764039 0.406752
vt 0.764039 0.514813
vt 0.737024 0.514813
vt 0.737024 0.406752
vt 0.544872 0.676904
vt 0.544872 0.784965
vt 0.517857 0.784965
vt 0.517857 0.676904
vt 0.572757 0.785400
vt 0.599772 0.785400
vt 0.599772 0.812416
vt 0.572757 0.812416
vt 0.490842 0.812416
vt 0.463827 0.812416
vt 0.463827 0.785400
vt 0.490842 0.785400
vt 0.490407 0.000217
vt 0.544437 0.000217
vt 0.544437 0.297385
vt 0.490407 0.297385
vt 0.408491 0.297820
vt 0.408491 0.594988
vt 0.381476 0.594988
vt 0.381476 0.297820
vt 0.791924 0.272544
vt 0.818940 0.272544
vt 0.818940 0.326574
vt 0.791924 0.326574
vt 0.818940 0.217644
vt 0.791924 0.217644
vt 0.791924 0.163613
vt 0.818940 0.163613
vt 0.791924 0.327010
vt 0.818940 0.327010
vt 0.818940 0.381041
vt 0.791924 0.381041
vt 0.682123 0.000217
vt 0.709138 0.000217
vt 0.709138 0.297385
vt 0.682123 0.297385
vt 0.736588 0.730935
vt 0.736588 0.757950
vt 0.709574 0.757950
vt 0.709574 0.730935
vt 0.764039 0.623744
vt 0.764039 0.731805
vt 0.737024 0.731805
vt 0.737024 0.704790
vt 0.737024 0.623744
vt 0.191499 0.785400
vt 0.218515 0.785400
vt 0.218515 0.812416
vt 0.191499 0.812416
vt 0.818940 0.487798
vt 0.791925 0.487798
vt 0.791925 0.433767
vt 0.818940 0.433767
vt 0.818939 0.652935
vt 0.818939 0.679950
vt 0.791924 0.679950
vt 0.791924 0.652935
vt 0.791924 0.625049
vt 0.791924 0.598034
vt 0.818939 0.598034
vt 0.818939 0.625049
vt 0.599772 0.676904
vt 0.599772 0.784965
vt 0.572758 0.784965
vt 0.572758 0.703920
vt 0.572758 0.676904
vt 0.791924 0.054683
vt 0.818940 0.054683
vt 0.818940 0.108713
vt 0.791924 0.108713
vt 0.599338 0.297820
vt 0.599338 0.594988
vt 0.572322 0.594988
vt 0.572322 0.297820
vt 0.599772 0.297820
vt 0.626788 0.297820
vt 0.626788 0.594988
vt 0.599772 0.594988
vt 0.627223 0.000217
vt 0.654239 0.000217
vt 0.654239 0.297385
vt 0.627223 0.297385
vt 0.764474 0.325706
vt 0.764474 0.244660
vt 0.791489 0.244660
vt 0.791489 0.271675
vt 0.791489 0.325706
vt 0.489972 0.297820
vt 0.489972 0.594988
vt 0.462956 0.594988
vt 0.462956 0.297820
vt 0.791924 0.000217
vt 0.818940 0.000217
vt 0.818940 0.054248
vt 0.791924 0.054248
vt 0.627223 0.297820
vt 0.654239 0.297820
vt 0.654239 0.432897
vt 0.654239 0.459912
vt 0.654239 0.594988
vt 0.627223 0.594988
vt 0.737024 0.000217
vt 0.764039 0.000217
vt 0.764039 0.135294
vt 0.737024 0.135294
vt 0.136163 0.999782
vt 0.109148 0.999782
vt 0.109148 0.324401
vt 0.109148 0.027233
vt 0.109148 0.000217
vt 0.136163 0.000217
vt 0.300866 0.812416
vt 0.273850 0.812416
vt 0.273850 0.785400
vt 0.300866 0.785400
vt 0.545307 0.812416
vt 0.545307 0.785400
vt 0.572322 0.785401
vt 0.572322 0.812416
vt 0.218080 0.757951
vt 0.218080 0.784966
vt 0.164049 0.784966
vt 0.164049 0.730935
vt 0.191064 0.730935
vt 0.191064 0.757951
vt 0.435071 0.784966
vt 0.381041 0.784966
vt 0.381041 0.757951
vt 0.408056 0.757951
vt 0.408056 0.730935
vt 0.435071 0.730935
vt 0.709139 0.784966
vt 0.682124 0.784966
vt 0.682124 0.730935
vt 0.709139 0.730935
vt 0.490842 0.676904
vt 0.490842 0.784965
vt 0.463827 0.784965
vt 0.463827 0.676904
vt 0.353590 0.297820
vt 0.353590 0.594988
vt 0.326575 0.594988
vt 0.326575 0.297820
vt 0.736589 0.406752
vt 0.736589 0.541828
vt 0.709574 0.541828
vt 0.709574 0.406752
vt 0.272980 0.730935
vt 0.299995 0.730935
vt 0.299995 0.784966
vt 0.272980 0.784966
vt 0.272545 0.595423
vt 0.272545 0.730500
vt 0.245530 0.730500
vt 0.245530 0.703484
vt 0.218514 0.703484
vt 0.218514 0.595423
vt 0.791490 0.814156
vt 0.764474 0.814156
vt 0.764474 0.760125
vt 0.791490 0.760125
vt 0.654674 0.000217
vt 0.681689 0.000217
vt 0.681689 0.297385
vt 0.654674 0.297385
vt 0.818940 0.515248
vt 0.791925 0.515248
vt 0.791925 0.488233
vt 0.818940 0.488233
vt 0.791489 0.000217
vt 0.791489 0.081263
vt 0.764474 0.081263
vt 0.764474 0.000217
vt 0.736589 0.135729
vt 0.736589 0.270805
vt 0.709574 0.270805
vt 0.709574 0.135729
vt 0.164049 0.000217
vt 0.245095 0.000217
vt 0.245095 0.297385
vt 0.164049 0.297385
vt 0.435941 0.297820
vt 0.435941 0.594988
vt 0.408926 0.594988
vt 0.408926 0.297820
vt 0.599772 0.000217
vt 0.626788 0.000217
vt 0.626788 0.297385
vt 0.599772 0.297385
vt 0.299995 0.595423
vt 0.299995 0.730500
vt 0.272980 0.730500
vt 0.272980 0.595423
vt 0.818939 0.570583
vt 0.818939 0.597599
vt 0.791924 0.597599
vt 0.791924 0.570583
vt 0.791490 0.651194
vt 0.791490 0.705225
vt 0.764474 0.705225
vt 0.764474 0.651194
vt 0.108713 0.999783
vt 0.054683 0.999783
vt 0.054683 0.000217
vt 0.108713 0.000217
vt 0.000217 0.999783
vt 0.000217 0.000217
vt 0.054248 0.000217
vt 0.054248 0.027233
vt 0.054248 0.324401
vt 0.054248 0.999783
vt 0.381041 0.297385
vt 0.327010 0.297385
vt 0.327010 0.000217
vt 0.381041 0.000218
vt 0.627657 0.676904
vt 0.654672 0.676904
vt 0.654672 0.784965
vt 0.627657 0.784965
vt 0.737024 0.271240
vt 0.764039 0.271240
vt 0.764039 0.406317
vt 0.737024 0.406317
vt 0.435942 0.000217
vt 0.489972 0.000217
vt 0.489972 0.297385
vt 0.435942 0.297385
vt 0.682123 0.297820
vt 0.709138 0.297820
vt 0.709138 0.594988
vt 0.682123 0.594988
vt 0.736588 0.785836
vt 0.736588 0.812851
vt 0.709574 0.812851
vt 0.709574 0.785836
vt 0.654674 0.297820
vt 0.681689 0.297820
vt 0.681689 0.594988
vt 0.654674 0.594988
vt 0.627657 0.785400
vt 0.654673 0.785400
vt 0.654673 0.812416
vt 0.627657 0.812416
vt 0.408926 0.785400
vt 0.435941 0.785400
vt 0.435941 0.812416
vt 0.408926 0.812416
vt 0.791924 0.542698
vt 0.791924 0.515683
vt 0.818939 0.515683
vt 0.818939 0.542698
vt 0.353590 0.730935
vt 0.353590 0.757951
vt 0.380606 0.757951
vt 0.380606 0.784966
vt 0.326575 0.784966
vt 0.326575 0.730935
vt 0.164049 0.785400
vt 0.191064 0.785400
vt 0.191064 0.812416
vt 0.164049 0.812416
vt 0.272545 0.730935
vt 0.272545 0.757951
vt 0.245530 0.757951
vt 0.245530 0.784966
vt 0.218515 0.784966
vt 0.218515 0.730935
vt 0.764474 0.326140
vt 0.791489 0.326140
vt 0.791489 0.380171
vt 0.764474 0.380171
vt 0.517857 0.595423
vt 0.571887 0.595423
vt 0.571887 0.676469
vt 0.517857 0.676469
vt 0.164049 0.595423
vt 0.218080 0.595423
vt 0.218080 0.703484
vt 0.191065 0.703484
vt 0.191065 0.730500
vt 0.164049 0.730500
vt 0.709574 0.785400
vt 0.709574 0.758385
vt 0.736588 0.758386
vt 0.736588 0.785401
vt 0.764039 0.515248
vt 0.764039 0.623309
vt 0.737024 0.623309
vt 0.737024 0.515248
vt 0.381041 0.297820
vt 0.381041 0.594988
vt 0.354025 0.594988
vt 0.354025 0.297820
vt 0.791924 0.570148
vt 0.791924 0.543133
vt 0.818939 0.543133
vt 0.818939 0.570148
vt 0.381476 0.785400
vt 0.408491 0.785400
vt 0.408491 0.812416
vt 0.381476 0.812416
vt 0.572322 0.595423
vt 0.626352 0.595423
vt 0.626352 0.622439
vt 0.626352 0.676469
vt 0.572322 0.676469
vt 0.463392 0.812416
vt 0.436377 0.812416
vt 0.436377 0.785400
vt 0.463392 0.785400
vt 0.299995 0.297820
vt 0.299995 0.594988
vt 0.272980 0.594988
vt 0.272980 0.297820
vt 0.517857 0.785400
vt 0.544872 0.785400
vt 0.544872 0.812416
vt 0.517857 0.812416
vt 0.435071 0.595423
vt 0.435071 0.730500
vt 0.381041 0.730500
vt 0.381041 0.622439
vt 0.408056 0.622439
vt 0.408056 0.595423
vt 0.436377 0.595423
vt 0.490407 0.595423
vt 0.490407 0.676469
vt 0.436377 0.676469
vt 0.682124 0.785400
vt 0.709139 0.785400
vt 0.709139 0.812416
vt 0.682124 0.812416
vt 0.626788 0.595423
vt 0.680819 0.595423
vt 0.680819 0.649454
vt 0.680819 0.676469
vt 0.626788 0.676469
vt 0.818940 0.433332
vt 0.791925 0.433332
vt 0.791925 0.406317
vt 0.818940 0.406317
vt 0.818940 0.163178
vt 0.791924 0.163178
vt 0.791924 0.109148
vt 0.818940 0.109148
vt 0.764039 0.813722
vt 0.737024 0.813722
vt 0.737024 0.786706
vt 0.764039 0.786706
vt 0.354025 0.785400
vt 0.381041 0.785400
vt 0.381041 0.812416
vt 0.354025 0.812416
vt 0.791489 0.217210
vt 0.791489 0.244225
vt 0.764474 0.244225
vt 0.764474 0.163179
vt 0.791489 0.163179
vt 0.764039 0.786270
vt 0.737024 0.786270
vt 0.737024 0.732240
vt 0.764039 0.732240
vt 0.545307 0.676904
vt 0.572322 0.676904
vt 0.572322 0.784965
vt 0.545307 0.784965
vt 0.245530 0.000217
vt 0.326576 0.000217
vt 0.326576 0.297385
vt 0.245530 0.297385
vt 0.246400 0.785400
vt 0.273415 0.785400
vt 0.273415 0.812416
vt 0.246400 0.812416
vt 0.791490 0.596728
vt 0.791490 0.650759
vt 0.764474 0.650759
vt 0.764474 0.596728
vt 0.245965 0.812416
vt 0.218950 0.812416
vt 0.218950 0.785400
vt 0.245965 0.785400
vt 0.791490 0.406317
vt 0.791490 0.433332
vt 0.764474 0.433332
vt 0.764474 0.406317
vn 0.0000 -1.0000 0.0000
vn -1.0000 0.0000 0.0000
vn 0.0000 0.0000 1.0000
vn 0.0000 0.0000 -1.0000
vn 1.0000 0.0000 0.0000
vn 0.0000 1.0000 0.0000
usemtl Flag_Large_Blue
s off
f 92/1/1 79/2/1 103/3/1 105/4/1
f 122/5/2 80/6/2 100/7/2 12/8/2
f 125/9/2 56/10/2 47/11/2 124/12/2
f 57/13/3 12/14/3 100/15/3 29/16/3
f 7/17/2 6/18/2 54/19/2 53/20/2
f 89/21/1 6/22/1 4/23/1 3/24/1
f 8/25/2 97/26/2 45/27/2 44/28/2
f 95/29/4 93/30/4 123/31/4 94/32/4 120/33/4 121/34/4
f 128/35/2 64/36/2 50/37/2 126/38/2
f 27/39/1 56/40/1 104/41/1 79/42/1
f 87/43/5 88/44/5 132/45/5 115/46/5
f 81/47/5 68/48/5 57/49/5 29/50/5
f 9/51/2 78/52/2 99/53/2 55/54/2
f 2/55/2 96/56/2 1/57/2 51/58/2
f 128/59/3 17/60/3 109/61/3 108/62/3 64/63/3
f 11/64/6 134/65/6 91/66/6 10/67/6
f 106/68/5 111/69/5 112/70/5 70/71/5
f 60/72/3 71/73/3 59/74/3 58/75/3
f 133/76/4 90/77/4 89/78/4 3/79/4
f 39/80/6 74/81/6 72/82/6 19/83/6
f 99/84/5 55/85/5 24/86/5 98/87/5
f 59/88/5 71/89/5 48/90/5 46/91/5 100/92/5 12/93/5
f 91/94/2 105/95/2 103/96/2 10/97/2
f 131/98/2 13/99/2 59/100/2 71/101/2
f 128/102/5 64/103/5 108/104/5 110/105/5 37/106/5
f 119/107/2 32/108/2 63/109/2 62/110/2
f 33/111/5 34/112/5 18/113/5 107/114/5
f 117/115/6 84/116/6 82/117/6 73/118/6
f 33/119/1 107/120/1 112/121/1 111/122/1
f 24/123/3 44/124/3 45/125/3 98/126/3
f 11/127/2 79/128/2 104/129/2 130/130/2
f 23/131/6 77/132/6 2/133/6 51/134/6
f 101/135/1 38/136/1 20/137/1 61/138/1
f 127/139/6 75/140/6 128/141/6 126/142/6
f 11/143/4 28/144/4 27/145/4 79/146/4
f 35/147/1 61/148/1 63/149/1 32/150/1
f 35/151/5 36/152/5 118/153/5 72/154/5 61/155/5
f 43/156/5 86/157/5 116/158/5 67/159/5
f 76/160/1 52/161/1 1/162/1 96/163/1
f 81/164/1 29/165/1 100/166/1 80/167/1
f 125/168/6 28/169/6 11/170/6 130/171/6
f 62/172/3 63/173/3 61/174/3 72/175/3 118/176/3
f 7/177/6 90/178/6 133/179/6 5/180/6
f 92/181/5 134/182/5 11/183/5 79/184/5
f 8/185/3 53/186/3 54/187/3 97/188/3
f 26/189/3 55/190/3 99/191/3 25/192/3
f 127/193/5 49/194/5 113/195/5 40/196/5 75/197/5
f 102/198/5 129/199/5 8/200/5 97/201/5
f 24/202/6 55/203/6 8/204/6 44/205/6
f 125/206/4 71/207/4 59/208/4 12/209/4 100/210/4 56/211/4
f 131/212/4 14/213/4 30/214/4 13/215/4
f 52/216/5 76/217/5 4/218/5 5/219/5 77/220/5 23/221/5
f 103/222/1 25/223/1 99/224/1 78/225/1
f 128/226/6 37/227/6 18/228/6 17/229/6
f 117/230/3 73/231/3 101/232/3 67/233/3 116/234/3 41/235/3
f 75/236/3 40/237/3 65/238/3 66/239/3 115/240/3 132/241/3
f 95/242/1 32/243/1 81/244/1 93/245/1
f 18/246/2 107/247/2 109/248/2 17/249/2
f 103/250/5 10/251/5 26/252/5 25/253/5
f 30/254/5 14/255/5 60/256/5 58/257/5
f 132/258/6 88/259/6 22/260/6 75/261/6
f 14/262/3 30/263/3 70/264/3 112/265/3 107/266/3 18/267/3
f 99/268/1 98/269/1 45/270/1 97/271/1
f 48/272/3 124/273/3 47/274/3 46/275/3
f 87/276/1 115/277/1 66/278/1 42/279/1
f 72/280/2 61/281/2 20/282/2 19/283/2
f 16/284/2 15/285/2 30/286/2 14/287/2
f 11/288/3 10/289/3 103/290/3 79/291/3
f 27/292/5 28/293/5 125/294/5 56/295/5
f 9/296/4 10/297/4 103/298/4 78/299/4
f 123/300/2 93/301/2 81/302/2 68/303/2
f 30/304/1 58/305/1 59/306/1 13/307/1
f 22/308/2 85/309/2 40/310/2 75/311/2
f 1/312/3 52/313/3 23/314/3 51/315/3
f 96/316/4 2/317/4 77/318/4 5/319/4 4/320/4 76/321/4
f 4/322/3 6/323/3 7/324/3 5/325/3
f 18/326/4 37/327/4 110/328/4 107/329/4
f 122/330/4 68/331/4 81/332/4 80/333/4
f 8/334/4 55/335/4 99/336/4 97/337/4
f 125/338/3 130/339/3 104/340/3 56/341/3
f 110/342/1 108/343/1 109/344/1 107/345/1
f 7/346/4 129/347/4 102/348/4 6/349/4
f 114/350/5 42/351/5 66/352/5 65/353/5
f 120/354/5 94/355/5 69/356/5 31/357/5
f 60/358/6 14/359/6 131/360/6 71/361/6
f 87/362/4 42/363/4 114/364/4 85/365/4 22/366/4 88/367/4
f 26/368/6 10/369/6 9/370/6 55/371/6
f 82/372/4 84/373/4 83/374/4 86/375/4 43/376/4 21/377/4
f 18/378/6 34/379/6 16/380/6 14/381/6
f 127/382/3 126/383/3 50/384/3 49/385/3
f 16/386/4 34/387/4 33/388/4 111/389/4 106/390/4 15/391/4
f 118/392/6 36/393/6 119/394/6 62/395/6
f 95/396/5 121/397/5 119/398/5 32/399/5
f 133/400/2 3/401/2 4/402/2 5/403/2
f 57/404/6 68/405/6 122/406/6 12/407/6
f 116/408/6 86/409/6 83/410/6 41/411/6
f 72/412/4 74/413/4 73/414/4 101/415/4 61/416/4
f 106/417/1 70/418/1 30/419/1 15/420/1
f 89/421/5 90/422/5 7/423/5 6/424/5
f 8/425/6 129/426/6 7/427/6 53/428/6
f 68/429/3 81/430/3 32/431/3 119/432/3 31/433/3 69/434/3
f 39/435/3 19/436/3 20/437/3 38/438/3
f 48/439/6 71/440/6 125/441/6 124/442/6
f 128/443/4 75/444/4 40/445/4 113/446/4 64/447/4
f 100/448/1 46/449/1 47/450/1 56/451/1
f 113/452/1 49/453/1 50/454/1 64/455/1
f 114/456/1 65/457/1 40/458/1 85/459/1
f 119/460/6 121/461/6 120/462/6 31/463/6
f 73/464/5 74/465/5 39/466/5 38/467/5 101/468/5
f 43/469/1 67/470/1 101/471/1 21/472/1
f 119/473/4 36/474/4 35/475/4 32/476/4
f 91/477/4 134/478/4 92/479/4 105/480/4
f 69/481/6 94/482/6 123/483/6 68/484/6
f 82/485/2 21/486/2 101/487/2 73/488/2
f 102/489/1 97/490/1 54/491/1 6/492/1
f 83/493/5 84/494/5 117/495/5 41/496/5
