# Blender v3.2.2 OBJ File: 'Medieval Voxel Assets.blend'
# www.blender.org
mtllib Base_Banner_Blue.mtl
o Base_Banner_Blue_Medieval_Assets-26.001
v 9.800000 -0.000001 6.900000
v 9.800000 -0.000001 7.000000
v 9.800000 3.699999 7.000000
v 10.200000 1.199999 7.000000
v 10.200000 1.199999 7.100000
v 10.200000 1.399999 7.200000
v 10.200000 1.699999 7.000000
v 10.200000 2.099999 7.000000
v 10.200000 2.199999 7.200000
v 10.200000 2.199999 7.000000
v 10.200000 2.399999 6.900001
v 10.200000 2.699999 7.100000
v 10.200000 2.799999 7.000000
v 10.200000 3.199999 7.100000
v 10.200000 3.199999 6.900001
v 10.200000 3.399999 6.900001
v 10.300000 3.499999 7.000000
v 10.300000 3.399999 6.900001
v 10.800000 1.999999 7.000000
v 10.800000 1.899999 6.900001
v 10.800000 1.899999 7.000000
v 10.900000 1.699999 7.100000
v 10.900000 1.799999 6.900001
v 11.100000 1.299999 7.100000
v 11.100000 3.399999 6.900001
v 11.100000 3.499999 6.900001
v 11.200000 1.299999 7.000000
v 10.000000 -0.000001 7.000000
v 10.000000 -0.000001 6.900000
v 10.300000 1.299999 7.000000
v 10.400000 1.299999 7.000000
v 10.400000 1.399999 7.000000
v 10.400000 3.399999 7.000000
v 10.400000 3.499999 7.000000
v 10.500000 1.399999 7.200000
v 10.600000 1.699999 7.100000
v 10.700000 1.999999 7.000000
v 10.700000 1.999999 7.100000
v 10.700000 2.099999 7.100000
v 11.200000 3.499999 7.000000
v 11.300000 1.399999 7.100000
v 11.300000 1.699999 7.200000
v 11.300000 1.699999 7.000000
v 11.300000 1.999999 6.900001
v 11.300000 2.199999 7.000000
v 11.300000 2.399999 7.100000
v 11.300000 2.699999 6.900001
v 11.300000 2.799999 7.200000
v 11.300000 3.199999 6.900001
v 11.500000 3.499999 6.900001
v 10.200000 2.099999 7.200000
v 10.200000 2.799999 7.200000
v 10.500000 1.699999 7.200000
v 11.000000 1.699999 7.200000
v 11.300000 1.399999 7.200000
v 11.300000 2.099999 7.200000
v 11.300000 2.999999 7.200000
v 10.300000 1.199999 7.100000
v 10.200000 1.399999 7.100000
v 10.300000 1.299999 7.100000
v 10.200000 1.799999 7.100000
v 10.200000 1.699999 7.100000
v 10.200000 2.399999 7.100000
v 10.200000 2.199999 7.100000
v 10.200000 2.799999 7.100000
v 10.200000 2.999999 7.100000
v 10.600000 1.799999 7.100000
v 10.800000 2.099999 7.100000
v 10.800000 1.999999 7.100000
v 11.200000 1.299999 7.100000
v 11.300000 1.199999 7.100000
v 11.200000 1.199999 7.100000
v 11.300000 1.999999 7.100000
v 11.300000 2.699999 7.100000
v 11.300000 3.199999 7.100000
v 10.000000 3.499999 7.000000
v 10.200000 1.799999 7.000000
v 10.200000 2.399999 7.000000
v 10.200000 3.399999 7.000000
v 10.200000 3.199999 7.000000
v 10.700000 1.899999 7.000000
v 10.900000 1.899999 7.000000
v 11.100000 3.399999 7.000000
v 11.300000 3.199999 7.000000
v 11.300000 3.399999 7.000000
v 11.500000 3.499999 7.000000
v 11.500000 3.699999 7.000000
v 11.000000 1.399999 7.100000
v 11.100000 1.399999 7.100000
v 11.300000 2.799999 7.100000
v 10.200000 2.999999 7.000000
v 10.600000 1.799999 7.000000
v 10.800000 2.099999 7.000000
v 10.900000 1.699999 7.000000
v 10.900000 1.799999 7.000000
v 11.200000 1.199999 7.000000
v 11.300000 1.199999 7.000000
v 11.300000 2.999999 7.000000
v 10.000000 3.499999 6.900001
v 10.200000 2.699999 6.900001
v 10.300000 3.699999 6.900001
v 10.400000 3.399999 6.900001
v 10.400000 3.499999 6.900001
v 10.600000 1.799999 6.900001
v 10.600000 1.899999 6.900001
v 11.200000 3.399999 6.900001
v 11.300000 1.799999 6.900001
v 11.500000 3.699999 6.900001
v 10.300000 1.199999 7.000000
v 10.400000 1.299999 7.100000
v 11.100000 1.299999 7.000000
v 10.500000 1.399999 7.100000
v 11.000000 1.399999 7.200000
v 10.600000 1.699999 7.000000
v 10.200000 1.799999 6.900001
v 10.600000 1.899999 7.000000
v 10.700000 1.899999 6.900001
v 10.900000 1.899999 6.900001
v 10.200000 1.999999 7.100000
v 10.200000 2.099999 7.100000
v 11.300000 2.099999 7.100000
v 11.300000 2.399999 7.000000
v 11.300000 2.399999 6.900001
v 10.200000 2.699999 7.000000
v 10.300000 3.499999 6.900001
v 11.100000 3.499999 7.000000
v 11.200000 3.499999 6.900001
v 10.200000 1.399999 7.000000
v 10.400000 1.399999 7.100000
v 11.100000 1.399999 7.000000
v 11.300000 1.399999 7.000000
v 10.200000 1.699999 7.200000
v 10.500000 1.699999 7.100000
v 11.000000 1.699999 7.100000
v 11.300000 1.699999 7.100000
v 10.900000 1.799999 7.100000
v 11.300000 1.799999 7.100000
v 11.300000 1.799999 7.000000
v 10.200000 1.999999 7.000000
v 10.200000 1.999999 6.900001
v 10.700000 1.999999 6.900001
v 10.800000 1.999999 6.900001
v 11.300000 1.999999 7.000000
v 10.700000 2.099999 7.000000
v 11.300000 2.099999 7.000000
v 11.300000 2.199999 7.200000
v 11.300000 2.199999 7.100000
v 11.300000 2.699999 7.000000
v 11.300000 2.799999 7.000000
v 10.200000 2.999999 7.200000
v 11.300000 2.999999 7.100000
v 11.000000 3.199999 7.000000
v 10.300000 3.399999 7.000000
v 11.200000 3.399999 7.000000
v 11.300000 3.399999 6.900001
v 9.800000 3.699999 6.900001
v 10.300000 3.699999 7.000000
vt 0.678771 0.954017
vt 0.678771 0.975666
vt 0.657122 0.975666
vt 0.657122 0.954017
vt 0.371137 0.866592
vt 0.371137 0.823295
vt 0.371137 0.801644
vt 0.436085 0.801644
vt 0.436085 0.866592
vt 0.737110 0.801232
vt 0.737110 0.000207
vt 0.758759 0.000207
vt 0.758759 0.801232
vt 0.868245 0.477318
vt 0.868245 0.715461
vt 0.824946 0.715461
vt 0.824946 0.477318
vt 0.021856 0.954016
vt 0.021856 0.997315
vt 0.000206 0.997315
vt 0.000206 0.954016
vt 0.263303 0.954017
vt 0.284953 0.954017
vt 0.284953 0.975666
vt 0.263303 0.975666
vt 0.635059 0.975666
vt 0.656709 0.975666
vt 0.656709 0.997315
vt 0.635059 0.997315
vt 0.480209 0.953604
vt 0.480209 0.996902
vt 0.458560 0.996902
vt 0.458560 0.953604
vt 0.458147 0.953604
vt 0.458147 0.996902
vt 0.436498 0.996902
vt 0.436498 0.953604
vt 0.414848 0.932367
vt 0.414848 0.975666
vt 0.393199 0.975666
vt 0.393199 0.932367
vt 0.759172 0.757933
vt 0.759172 0.000207
vt 0.780822 0.000207
vt 0.780822 0.757933
vt 0.890307 0.000206
vt 0.933606 0.000206
vt 0.933606 0.238349
vt 0.890307 0.238349
vt 0.934432 0.954430
vt 0.956082 0.954430
vt 0.956082 0.976079
vt 0.934432 0.976079
vt 0.351140 0.910718
vt 0.351140 0.954017
vt 0.329491 0.954017
vt 0.329491 0.910718
vt 0.087630 0.975666
vt 0.109279 0.975666
vt 0.109279 0.997315
vt 0.087630 0.997315
vt 0.371137 0.976079
vt 0.392786 0.976079
vt 0.392786 0.997728
vt 0.371137 0.997728
vt 0.679185 0.801644
vt 0.700834 0.801644
vt 0.700834 0.909891
vt 0.679185 0.909891
vt 0.175053 0.801645
vt 0.240001 0.801645
vt 0.240001 0.866593
vt 0.218351 0.866593
vt 0.175053 0.866593
vt 0.351140 0.954430
vt 0.351140 0.976079
vt 0.329491 0.976079
vt 0.329491 0.954430
vt 0.152991 0.823294
vt 0.174640 0.823294
vt 0.174640 0.909891
vt 0.131342 0.909891
vt 0.131342 0.801644
vt 0.152991 0.801644
vt 0.329077 0.954430
vt 0.329077 0.976079
vt 0.307428 0.976079
vt 0.307428 0.954430
vt 0.978144 0.715873
vt 0.978144 0.954016
vt 0.956495 0.954016
vt 0.956495 0.715873
vt 0.546810 0.975666
vt 0.568459 0.975666
vt 0.568459 0.997315
vt 0.546810 0.997315
vt 0.131341 0.910305
vt 0.131341 0.975253
vt 0.109692 0.975253
vt 0.109692 0.910305
vt 0.285366 0.954017
vt 0.307015 0.954017
vt 0.307015 0.975666
vt 0.285366 0.975666
vt 0.392786 0.954017
vt 0.392786 0.975666
vt 0.371137 0.975666
vt 0.371137 0.954017
vt 0.393199 0.976079
vt 0.414848 0.976079
vt 0.414848 0.997728
vt 0.393199 0.997728
vt 0.480623 0.975666
vt 0.502272 0.975666
vt 0.502272 0.997315
vt 0.480623 0.997315
vt 0.657122 0.976079
vt 0.678771 0.976079
vt 0.678771 0.997729
vt 0.657122 0.997729
vt 0.524747 0.975665
vt 0.546397 0.975665
vt 0.546397 0.997315
vt 0.524747 0.997315
vt 0.634647 0.909891
vt 0.612998 0.909891
vt 0.612998 0.801644
vt 0.634647 0.801644
vt 0.612584 0.997315
vt 0.590935 0.997315
vt 0.590935 0.975665
vt 0.612584 0.975665
vt 0.458560 0.801644
vt 0.480209 0.801644
vt 0.480209 0.953191
vt 0.458560 0.953191
vt 0.284953 0.953605
vt 0.263303 0.953605
vt 0.263303 0.888657
vt 0.263303 0.867006
vt 0.284953 0.867006
vt 0.846183 0.476905
vt 0.781235 0.476905
vt 0.781235 0.238762
vt 0.846183 0.238762
vt 0.868658 0.715461
vt 0.868658 0.477318
vt 0.911957 0.477318
vt 0.911957 0.715461
vt 0.934019 0.932780
vt 0.934019 0.976079
vt 0.912370 0.976079
vt 0.912370 0.932780
vt 0.262890 0.867006
vt 0.262890 0.953605
vt 0.241241 0.953605
vt 0.241241 0.931954
vt 0.241241 0.867006
vt 0.656709 0.801644
vt 0.656709 0.909891
vt 0.635060 0.909891
vt 0.635060 0.801644
vt 0.744545 0.888656
vt 0.744545 0.931954
vt 0.722896 0.931954
vt 0.722896 0.910305
vt 0.701246 0.910305
vt 0.701246 0.888656
vt 0.350726 0.888656
vt 0.329078 0.888656
vt 0.329078 0.910305
vt 0.307427 0.910305
vt 0.307427 0.867007
vt 0.350726 0.867007
vt 0.043918 0.910305
vt 0.087216 0.910305
vt 0.087216 0.931954
vt 0.065568 0.931954
vt 0.065568 0.953604
vt 0.043918 0.953604
vt 0.824533 0.477318
vt 0.824533 0.715461
vt 0.781235 0.715461
vt 0.781235 0.477318
vt 0.780822 0.996489
vt 0.759172 0.996489
vt 0.759172 0.758346
vt 0.780822 0.758346
vt 0.802884 0.954430
vt 0.802884 0.976079
vt 0.781235 0.976079
vt 0.781235 0.954430
vt 0.000206 0.910305
vt 0.043505 0.910305
vt 0.043505 0.953604
vt 0.021855 0.953604
vt 0.021855 0.931954
vt 0.000206 0.931954
vt 0.736697 0.801232
vt 0.628450 0.801232
vt 0.606801 0.757933
vt 0.606801 0.736284
vt 0.628450 0.736284
vt 0.628450 0.757933
vt 0.693398 0.757933
vt 0.693398 0.000207
vt 0.736697 0.000207
vt 0.722896 0.976079
vt 0.722896 0.997728
vt 0.701246 0.997728
vt 0.701246 0.976079
vt 0.737110 0.823295
vt 0.737110 0.801644
vt 0.758759 0.801644
vt 0.758759 0.888243
vt 0.737110 0.888243
vt 0.546397 0.975252
vt 0.524747 0.975252
vt 0.524747 0.910304
vt 0.546397 0.910304
vt 0.825360 0.954430
vt 0.847009 0.954430
vt 0.847009 0.976079
vt 0.825360 0.976079
vt 0.043918 0.954017
vt 0.043918 0.997315
vt 0.022269 0.997315
vt 0.022269 0.954017
vt 0.524334 0.910305
vt 0.524334 0.975253
vt 0.502685 0.975253
vt 0.502685 0.910305
vt 0.612997 0.975666
vt 0.634647 0.975666
vt 0.634647 0.997315
vt 0.612997 0.997315
vt 0.524334 0.975666
vt 0.524334 0.997315
vt 0.502685 0.997315
vt 0.502685 0.975666
vt 0.956495 0.954430
vt 0.978144 0.954430
vt 0.978144 0.976079
vt 0.956495 0.976079
vt 0.307014 0.976079
vt 0.307014 0.997729
vt 0.285365 0.997729
vt 0.285365 0.976079
vt 0.087630 0.801644
vt 0.109279 0.801644
vt 0.109279 0.823294
vt 0.130929 0.823294
vt 0.130929 0.909891
vt 0.087630 0.909891
vt 0.744958 0.976079
vt 0.744958 0.997728
vt 0.723309 0.997728
vt 0.723309 0.976079
vt 0.259998 0.065155
vt 0.281648 0.065155
vt 0.281648 0.108453
vt 0.108453 0.108453
vt 0.238349 0.065155
vt 0.238349 0.043505
vt 0.259998 0.000206
vt 0.368245 0.000206
vt 0.368245 0.801232
vt 0.324946 0.801232
vt 0.324946 0.043505
vt 0.259998 0.043505
vt 0.043505 0.108453
vt 0.043505 0.065155
vt 0.065154 0.065155
vt 0.065154 0.043505
vt 0.000206 0.043505
vt 0.000206 0.000206
vt 0.086803 0.043505
vt 0.086803 0.065155
vt 0.305362 0.866593
vt 0.240414 0.866593
vt 0.240414 0.801645
vt 0.305362 0.801645
vt 0.956495 0.585565
vt 0.956495 0.477318
vt 0.978144 0.477318
vt 0.978144 0.715461
vt 0.956495 0.715461
vt 0.956495 0.607214
vt 0.846596 0.238762
vt 0.889894 0.238762
vt 0.889894 0.476905
vt 0.846596 0.476905
vt 0.370724 0.866592
vt 0.305776 0.866592
vt 0.305776 0.801644
vt 0.370724 0.801644
vt 0.392786 0.867005
vt 0.392786 0.953604
vt 0.371137 0.953604
vt 0.371137 0.867005
vt 0.678771 0.909891
vt 0.657122 0.909891
vt 0.657122 0.801644
vt 0.678771 0.801644
vt 0.824946 0.954429
vt 0.824946 0.976079
vt 0.803297 0.976079
vt 0.803297 0.954429
vt 0.978144 0.000206
vt 0.999794 0.000206
vt 0.999794 0.238349
vt 0.978144 0.238349
vt 0.153404 0.910305
vt 0.153404 0.975253
vt 0.131755 0.975253
vt 0.131755 0.910305
vt 0.307015 0.867006
vt 0.307015 0.953605
vt 0.285366 0.953605
vt 0.285366 0.867006
vt 0.846596 0.000206
vt 0.889894 0.000206
vt 0.889894 0.173401
vt 0.889894 0.238349
vt 0.846596 0.238349
vt 0.131755 0.975666
vt 0.153404 0.975666
vt 0.153404 0.997315
vt 0.131755 0.997315
vt 0.241241 0.954017
vt 0.262890 0.954017
vt 0.262890 0.997315
vt 0.241241 0.997315
vt 0.414848 0.867006
vt 0.414848 0.931954
vt 0.393199 0.931954
vt 0.393199 0.867006
vt 0.678771 0.910305
vt 0.678771 0.953604
vt 0.657122 0.953604
vt 0.657122 0.910305
vt 0.912370 0.737110
vt 0.912370 0.477318
vt 0.934019 0.477318
vt 0.934019 0.737110
vt 0.934019 0.845357
vt 0.912370 0.845357
vt 0.847422 0.954430
vt 0.869071 0.954430
vt 0.869071 0.976079
vt 0.847422 0.976079
vt 0.781235 0.000206
vt 0.846183 0.000206
vt 0.846183 0.238349
vt 0.781235 0.238349
vt 0.329077 0.910718
vt 0.329077 0.954017
vt 0.307428 0.954017
vt 0.307428 0.910718
vt 0.568872 0.975666
vt 0.590522 0.975666
vt 0.590522 0.997315
vt 0.568872 0.997315
vt 0.722896 0.932367
vt 0.722896 0.975666
vt 0.701247 0.975666
vt 0.701247 0.932367
vt 0.650100 0.692985
vt 0.650100 0.736284
vt 0.455256 0.736284
vt 0.455256 0.757933
vt 0.368658 0.801232
vt 0.368658 0.757933
vt 0.433606 0.757933
vt 0.433606 0.736284
vt 0.411957 0.736284
vt 0.411957 0.692985
vt 0.744958 0.932367
vt 0.744958 0.975666
vt 0.723309 0.975666
vt 0.723309 0.932367
vt 0.197116 0.954017
vt 0.218765 0.954017
vt 0.218765 0.997315
vt 0.197116 0.997315
vt 0.109279 0.910305
vt 0.109279 0.975253
vt 0.087630 0.975253
vt 0.087630 0.910305
vt 0.043505 0.909891
vt 0.000207 0.909891
vt 0.000207 0.823294
vt 0.021856 0.823294
vt 0.021856 0.801644
vt 0.043505 0.801644
vt 0.043918 0.909891
vt 0.043918 0.823294
vt 0.065568 0.823294
vt 0.065568 0.801644
vt 0.087217 0.801644
vt 0.087217 0.909891
vt 0.590935 0.910304
vt 0.612584 0.910304
vt 0.612584 0.953603
vt 0.612584 0.975252
vt 0.590935 0.975252
vt 0.635060 0.910304
vt 0.656709 0.910304
vt 0.656709 0.931954
vt 0.656709 0.975252
vt 0.635060 0.975252
vt 0.219178 0.931954
vt 0.219178 0.867006
vt 0.240828 0.867006
vt 0.240828 0.953605
vt 0.219178 0.953605
vt 0.502272 0.910305
vt 0.502272 0.975253
vt 0.480623 0.975253
vt 0.480623 0.910305
vt 0.912370 0.845769
vt 0.934019 0.845769
vt 0.934019 0.932367
vt 0.912370 0.932367
vt 0.701247 0.801644
vt 0.722896 0.801644
vt 0.722896 0.888243
vt 0.701247 0.888243
vt 0.612584 0.909891
vt 0.590935 0.909891
vt 0.590935 0.801644
vt 0.612584 0.801644
vt 0.546810 0.909891
vt 0.546810 0.801644
vt 0.568460 0.801644
vt 0.568460 0.909891
vt 0.956081 0.238349
vt 0.956081 0.000206
vt 0.977731 0.000206
vt 0.977731 0.108453
vt 0.977731 0.130102
vt 0.977731 0.238349
vt 0.196703 0.954017
vt 0.196703 0.997315
vt 0.175054 0.997315
vt 0.175054 0.954017
vt 0.934433 0.954016
vt 0.934433 0.715873
vt 0.956082 0.715873
vt 0.956082 0.954016
vt 0.934432 0.715461
vt 0.934432 0.477318
vt 0.956081 0.477318
vt 0.956081 0.715461
vt 0.934433 0.476905
vt 0.934433 0.238762
vt 0.956082 0.238762
vt 0.956082 0.476905
vt 0.934019 0.238349
vt 0.934019 0.000206
vt 0.955668 0.000206
vt 0.955668 0.238349
vt 0.891134 0.715873
vt 0.891134 0.954016
vt 0.869484 0.954016
vt 0.869484 0.715873
vt 0.847009 0.715873
vt 0.847009 0.954016
vt 0.825360 0.954016
vt 0.825360 0.889068
vt 0.825360 0.715873
vt 0.458147 0.801644
vt 0.458147 0.953191
vt 0.436498 0.953191
vt 0.436498 0.801644
vt 0.612998 0.975252
vt 0.612998 0.910304
vt 0.634647 0.910304
vt 0.634647 0.975252
vt 0.219178 0.997315
vt 0.219178 0.954017
vt 0.240828 0.954017
vt 0.240828 0.997315
vt 0.568460 0.910304
vt 0.568460 0.975252
vt 0.546810 0.975252
vt 0.546810 0.910304
vt 0.590522 0.910304
vt 0.590522 0.975252
vt 0.568872 0.975252
vt 0.568872 0.910304
vt 0.131341 0.975666
vt 0.131341 0.997315
vt 0.109692 0.997315
vt 0.109692 0.975666
vt 0.218765 0.953605
vt 0.197116 0.953605
vt 0.197116 0.867006
vt 0.218765 0.867006
vt 0.196703 0.953605
vt 0.175054 0.953605
vt 0.175054 0.867006
vt 0.196703 0.867006
vt 0.480623 0.909891
vt 0.480623 0.801644
vt 0.502272 0.801644
vt 0.502272 0.909891
vt 0.524334 0.801644
vt 0.524334 0.909891
vt 0.502685 0.909891
vt 0.502685 0.801644
vt 0.546397 0.909891
vt 0.524747 0.909891
vt 0.524747 0.801644
vt 0.546397 0.801644
vt 0.590522 0.909891
vt 0.568872 0.909891
vt 0.568872 0.801644
vt 0.590522 0.801644
vt 0.329077 0.976492
vt 0.329077 0.998142
vt 0.307427 0.998142
vt 0.307427 0.976492
vt 0.869485 0.954430
vt 0.891134 0.954430
vt 0.891134 0.976079
vt 0.869485 0.976079
vt 0.869071 0.715873
vt 0.869071 0.954016
vt 0.847422 0.954016
vt 0.847422 0.715873
vt 0.802884 0.715873
vt 0.802884 0.954016
vt 0.781235 0.954016
vt 0.781235 0.715873
vt 0.934019 0.476905
vt 0.912370 0.476905
vt 0.912370 0.238762
vt 0.934019 0.238762
vt 0.890307 0.476905
vt 0.890307 0.238762
vt 0.911957 0.238762
vt 0.911957 0.476905
vt 0.978144 0.238762
vt 0.978144 0.476905
vt 0.956495 0.476905
vt 0.956495 0.238762
vt 0.824946 0.954016
vt 0.803297 0.954016
vt 0.803297 0.715873
vt 0.824946 0.715873
vt 0.824946 0.780821
vt 0.284953 0.997729
vt 0.263303 0.997729
vt 0.263303 0.976079
vt 0.284953 0.976079
vt 0.065981 0.954017
vt 0.065981 0.997315
vt 0.044332 0.997315
vt 0.044332 0.954017
vn 1.0000 0.0000 0.0000
vn 0.0000 0.0000 -1.0000
vn -1.0000 -0.0000 0.0000
vn 0.0000 0.0000 1.0000
vn 0.0000 1.0000 0.0000
vn 0.0000 -1.0000 0.0000
usemtl Base_Banner_Blue
s off
f 104/1/1 105/2/1 116/3/1 92/4/1
f 41/5/2 89/6/2 88/7/2 134/8/2 135/9/2
f 156/10/3 1/11/3 2/12/3 3/13/3
f 78/14/2 122/15/2 45/16/2 10/17/2
f 16/18/3 15/19/3 80/20/3 79/21/3
f 148/22/1 149/23/1 90/24/1 74/25/1
f 26/26/3 25/27/3 83/28/3 126/29/3
f 78/30/3 10/31/3 64/32/3 63/33/3
f 90/34/1 151/35/1 57/36/1 48/37/1
f 140/38/3 115/39/3 77/40/3 139/41/3
f 76/42/1 28/43/1 29/44/1 99/45/1
f 48/46/4 57/47/4 150/48/4 52/49/4
f 114/50/1 92/51/1 67/52/1 36/53/1
f 128/54/3 4/55/3 5/56/3 59/57/3
f 43/58/1 138/59/1 137/60/1 135/61/1
f 102/62/1 103/63/1 34/64/1 33/65/1
f 19/66/2 93/67/2 145/68/2 143/69/2
f 62/70/2 133/71/2 112/72/2 129/73/2 59/74/2
f 130/75/3 111/76/3 24/77/3 89/78/3
f 105/79/2 104/80/2 115/81/2 140/82/2 141/83/2 117/84/2
f 117/85/1 141/86/1 37/87/1 81/88/1
f 146/89/4 9/90/4 51/91/4 56/92/4
f 106/93/1 127/94/1 40/95/1 154/96/1
f 112/97/1 133/98/1 53/99/1 35/100/1
f 13/101/3 124/102/3 12/103/3 65/104/3
f 31/105/1 32/106/1 129/107/1 110/108/1
f 143/109/1 145/110/1 121/111/1 73/112/1
f 8/113/3 139/114/3 119/115/3 120/116/3
f 85/117/5 155/118/5 106/119/5 154/120/5
f 153/121/5 18/122/5 16/123/5 79/124/5
f 120/125/4 119/126/4 38/127/4 39/128/4
f 97/129/6 71/130/6 72/131/6 96/132/6
f 83/133/5 25/134/5 102/135/5 33/136/5
f 61/137/4 62/138/4 133/139/4 36/140/4 67/141/4
f 124/142/4 78/143/4 122/144/4 148/145/4
f 66/146/4 151/147/4 75/148/4 14/149/4
f 66/150/3 65/151/3 52/152/3 150/153/3
f 137/154/4 136/155/4 22/156/4 134/157/4 135/158/4
f 121/159/4 68/160/4 69/161/4 73/162/4
f 59/163/4 5/164/4 58/165/4 60/166/4 110/167/4 129/168/4
f 31/169/2 30/170/2 109/171/2 4/172/2 128/173/2 32/174/2
f 41/175/4 89/176/4 24/177/4 70/178/4 72/179/4 71/180/4
f 46/181/4 63/182/4 64/183/4 147/184/4
f 65/185/4 12/186/4 74/187/4 90/188/4
f 118/189/3 23/190/3 95/191/3 82/192/3
f 130/193/2 131/194/2 97/195/2 96/196/2 27/197/2 111/198/2
f 156/199/2 101/200/2 103/201/2 102/202/2 18/203/2 125/204/2 99/205/2 29/206/2 1/207/2
f 27/208/6 70/209/6 24/210/6 111/211/6
f 134/212/6 22/213/6 94/214/6 43/215/6 135/216/6
f 125/217/6 17/218/6 76/219/6 99/220/6
f 95/221/3 94/222/3 22/223/3 136/224/3
f 49/225/1 155/226/1 85/227/1 84/228/1
f 123/229/1 47/230/1 148/231/1 122/232/1
f 37/233/1 144/234/1 39/235/1 38/236/1
f 142/237/3 20/238/3 21/239/3 19/240/3
f 77/241/3 7/242/3 62/243/3 61/244/3
f 117/245/6 81/246/6 116/247/6 105/248/6
f 19/249/4 21/250/4 82/251/4 95/252/4 138/253/4 143/254/4
f 31/255/6 110/256/6 60/257/6 30/258/6
f 153/259/4 79/260/4 80/261/4 152/262/4 33/263/4 34/264/4 157/265/4 3/266/4 2/267/4 28/268/4 76/269/4 17/270/4
f 84/271/4 85/272/4 154/273/4 40/274/4 86/275/4 87/276/4 157/265/4 34/264/4 126/277/4 83/278/4 33/263/4 152/262/4
f 6/279/4 35/280/4 53/281/4 132/282/4
f 39/283/2 120/284/2 64/285/2 147/286/2 121/287/2 68/288/2
f 65/289/2 66/290/2 151/291/2 90/292/2
f 54/293/4 113/294/4 55/295/4 42/296/4
f 77/297/2 92/298/2 114/299/2 7/300/2
f 144/301/2 37/302/2 139/303/2 8/304/2
f 64/305/3 120/306/3 51/307/3 9/308/3
f 124/309/2 13/310/2 149/311/2 148/312/2
f 62/313/3 59/314/3 6/315/3 132/316/3
f 95/317/2 138/318/2 43/319/2 94/320/2
f 91/321/2 80/322/2 152/323/2 84/324/2 98/325/2
f 93/326/3 19/327/3 69/328/3 68/329/3
f 129/330/5 32/331/5 128/332/5 59/333/5
f 134/334/3 88/335/3 113/336/3 54/337/3
f 107/338/1 44/339/1 143/340/1 138/341/1
f 157/342/5 87/343/5 108/344/5 101/345/5 156/346/5 3/347/5
f 27/348/3 96/349/3 72/350/3 70/351/3
f 11/352/2 100/353/2 47/354/2 123/355/2
f 97/356/1 131/357/1 41/358/1 71/359/1
f 125/360/3 18/361/3 153/362/3 17/363/3
f 50/364/1 108/365/1 87/366/1 86/367/1
f 15/368/2 16/369/2 18/203/2 102/202/2 25/370/2 26/371/2 103/201/2 101/200/2 108/372/2 50/373/2 127/374/2 106/375/2 155/376/2 49/377/2
f 98/378/1 84/379/1 75/380/1 151/381/1
f 2/382/6 1/383/6 29/384/6 28/385/6
f 41/386/1 135/387/1 42/388/1 55/389/1
f 44/390/2 107/391/2 23/392/2 118/393/2 20/394/2 142/395/2
f 77/396/4 92/397/4 116/398/4 81/399/4 37/400/4 139/401/4
f 6/402/6 59/403/6 129/404/6 112/405/6 35/406/6
f 113/407/6 88/408/6 89/409/6 41/410/6 55/411/6
f 133/412/6 62/413/6 7/414/6 114/415/6 36/416/6
f 100/417/3 11/418/3 78/419/3 124/420/3
f 77/421/6 115/422/6 104/423/6 92/424/6
f 95/425/6 23/426/6 107/427/6 138/428/6
f 37/429/6 38/430/6 119/431/6 139/432/6
f 73/433/6 69/434/6 19/435/6 143/436/6
f 56/437/6 51/438/6 120/439/6 39/440/6 68/441/6 121/442/6
f 80/443/3 91/444/3 66/445/3 14/446/3
f 147/447/6 64/448/6 10/449/6 45/450/6
f 122/451/6 78/452/6 11/453/6 123/454/6
f 74/455/6 12/456/6 124/457/6 148/458/6
f 48/459/6 52/460/6 65/461/6 90/462/6
f 91/463/6 98/464/6 151/465/6 66/466/6
f 15/467/6 49/468/6 84/469/6 152/470/6 80/471/6
f 103/472/6 26/473/6 126/474/6 34/475/6
f 86/476/6 40/477/6 127/478/6 50/479/6
f 89/480/5 41/481/5 131/482/5 130/483/5
f 133/484/5 62/485/5 132/486/5 53/487/5
f 135/488/5 134/489/5 54/490/5 42/491/5
f 121/492/1 147/493/1 146/494/1 56/495/1
f 77/496/5 61/497/5 67/498/5 92/499/5
f 95/500/5 136/501/5 137/502/5 138/503/5
f 139/504/5 37/505/5 141/506/5 140/507/5
f 44/508/5 142/509/5 19/510/5 143/511/5
f 8/512/5 120/513/5 39/514/5 144/515/5
f 93/516/5 68/517/5 121/518/5 145/519/5
f 118/520/6 82/521/6 21/522/6 20/523/6
f 109/524/1 30/525/1 60/526/1 58/527/1
f 147/528/5 64/529/5 9/530/5 146/531/5
f 122/532/5 78/533/5 63/534/5 46/535/5
f 100/536/5 124/537/5 148/538/5 47/539/5
f 65/540/5 90/541/5 149/542/5 13/543/5
f 151/544/5 66/545/5 150/546/5 57/547/5
f 80/548/5 14/549/5 75/550/5 84/551/5 152/552/5
f 109/553/6 58/554/6 5/555/6 4/556/6
f 45/557/1 122/558/1 46/559/1 147/560/1
