# Blender v3.2.2 OBJ File: 'Medieval Voxel Assets.blend'
# www.blender.org
mtllib Base_Banner_Green.mtl
o Base_Banner_Green_Medieval_Assets-27.001
v 9.800000 -0.000001 5.300000
v 9.800000 3.699999 5.300001
v 9.800000 3.699999 5.200000
v 10.200000 1.699999 5.300001
v 10.200000 1.799999 5.300001
v 10.200000 1.999999 5.200000
v 10.200000 2.099999 5.500000
v 10.200000 2.199999 5.400001
v 10.200000 2.699999 5.400001
v 10.200000 2.999999 5.500000
v 10.200000 3.199999 5.200000
v 10.300000 3.399999 5.200000
v 10.800000 1.899999 5.200000
v 10.800000 1.999999 5.200000
v 10.800000 2.099999 5.400001
v 11.000000 1.699999 5.400001
v 11.100000 1.399999 5.400000
v 11.100000 1.299999 5.400000
v 11.100000 1.399999 5.300000
v 11.100000 3.499999 5.200000
v 11.200000 1.299999 5.300000
v 10.300000 1.199999 5.400000
v 10.300000 1.199999 5.300000
v 10.300000 1.299999 5.400000
v 10.300000 1.299999 5.300000
v 10.400000 1.299999 5.400000
v 10.400000 1.399999 5.300000
v 10.400000 3.499999 5.300001
v 10.500000 1.699999 5.500000
v 10.700000 1.899999 5.300001
v 10.700000 1.999999 5.400001
v 10.700000 2.099999 5.400001
v 11.200000 3.399999 5.300001
v 11.200000 3.499999 5.200000
v 11.300000 1.199999 5.300000
v 11.300000 1.399999 5.400000
v 11.300000 1.399999 5.300000
v 11.300000 1.399999 5.500000
v 11.300000 1.699999 5.300001
v 11.300000 1.799999 5.200000
v 11.300000 2.199999 5.500000
v 11.300000 2.199999 5.300001
v 11.300000 2.399999 5.300001
v 11.300000 2.699999 5.300001
v 11.300000 2.799999 5.500000
v 11.300000 2.999999 5.300001
v 11.300000 3.199999 5.400001
v 11.300000 3.199999 5.200000
v 10.200000 1.699999 5.500000
v 10.200000 1.399999 5.500000
v 10.200000 2.199999 5.500000
v 11.000000 1.699999 5.500000
v 11.300000 1.699999 5.500000
v 11.300000 2.099999 5.500000
v 11.300000 2.999999 5.500000
v 10.200000 1.199999 5.400000
v 10.200000 1.799999 5.400001
v 10.200000 1.699999 5.400001
v 10.200000 1.999999 5.400001
v 10.200000 2.399999 5.400001
v 10.200000 3.199999 5.400001
v 10.200000 2.999999 5.400001
v 10.400000 1.399999 5.400000
v 10.500000 1.699999 5.400001
v 10.600000 1.799999 5.400001
v 10.900000 1.799999 5.400001
v 10.900000 1.699999 5.400001
v 11.200000 1.299999 5.400000
v 11.300000 1.799999 5.400001
v 11.300000 1.999999 5.400001
v 10.000000 -0.000001 5.300000
v 10.000000 3.499999 5.300001
v 10.200000 3.399999 5.300001
v 10.200000 3.199999 5.300001
v 10.600000 1.899999 5.300001
v 10.700000 1.999999 5.300001
v 10.800000 1.899999 5.300001
v 11.100000 3.399999 5.300001
v 11.200000 3.499999 5.300001
v 11.300000 1.799999 5.300001
v 11.300000 1.999999 5.300001
v 11.300000 3.199999 5.300001
v 11.300000 3.399999 5.300001
v 11.500000 3.699999 5.300001
v 10.200000 1.399999 5.400000
v 10.500000 1.399999 5.400000
v 11.300000 1.699999 5.400001
v 11.300000 2.999999 5.400001
v 10.200000 1.399999 5.300000
v 10.200000 2.099999 5.300001
v 10.200000 2.799999 5.300001
v 10.200000 2.999999 5.300001
v 10.600000 1.699999 5.300001
v 10.600000 1.799999 5.300001
v 10.800000 1.999999 5.300001
v 10.800000 2.099999 5.300001
v 11.100000 1.299999 5.300000
v 11.200000 1.199999 5.300000
v 9.800000 -0.000001 5.200000
v 10.200000 1.799999 5.200000
v 10.200000 2.699999 5.200000
v 10.200000 3.399999 5.200000
v 10.300000 3.499999 5.200000
v 10.400000 3.499999 5.200000
v 10.500000 3.599999 5.200000
v 10.700000 1.999999 5.200000
v 10.900000 1.799999 5.200000
v 11.300000 1.999999 5.200000
v 11.300000 2.399999 5.200000
v 11.300000 2.699999 5.200000
v 10.000000 -0.000001 5.200000
v 10.200000 1.199999 5.300000
v 11.300000 1.199999 5.400000
v 11.200000 1.199999 5.400000
v 10.400000 1.299999 5.300000
v 10.500000 1.399999 5.500000
v 11.000000 1.399999 5.400000
v 11.000000 1.399999 5.500000
v 10.600000 1.699999 5.400001
v 10.900000 1.699999 5.300001
v 10.600000 1.799999 5.200000
v 10.900000 1.799999 5.300001
v 10.600000 1.899999 5.200000
v 10.700000 1.899999 5.200000
v 10.900000 1.899999 5.300001
v 10.900000 1.899999 5.200000
v 10.200000 1.999999 5.300001
v 10.800000 1.999999 5.400001
v 10.200000 2.099999 5.400001
v 11.300000 2.099999 5.400001
v 10.200000 2.199999 5.300001
v 11.300000 2.199999 5.400001
v 10.200000 2.399999 5.200000
v 10.200000 2.399999 5.300001
v 10.200000 2.699999 5.300001
v 11.300000 2.699999 5.400001
v 10.200000 2.799999 5.400001
v 10.200000 2.799999 5.500000
v 11.300000 2.799999 5.400001
v 10.000000 3.499999 5.200000
v 10.300000 3.499999 5.300001
v 11.100000 3.499999 5.300001
v 11.500000 3.499999 5.300001
v 11.500000 3.499999 5.200000
v 10.700000 2.099999 5.300001
v 11.300000 2.099999 5.300001
v 11.300000 2.399999 5.400001
v 11.300000 2.799999 5.300001
v 10.300000 3.399999 5.300001
v 10.400000 3.399999 5.300001
v 10.400000 3.399999 5.200000
v 11.100000 3.399999 5.200000
v 11.200000 3.399999 5.200000
v 11.300000 3.399999 5.200000
v 10.100000 3.699999 5.200000
v 11.000000 3.699999 5.300001
v 11.500000 3.699999 5.200000
vt 0.263303 0.954017
vt 0.284953 0.954017
vt 0.284953 0.975666
vt 0.263303 0.975666
vt 0.458560 0.801644
vt 0.480209 0.801644
vt 0.480209 0.953190
vt 0.458560 0.953190
vt 0.693398 0.000207
vt 0.736697 0.000207
vt 0.736697 0.801232
vt 0.671749 0.801232
vt 0.585152 0.779583
vt 0.606801 0.757933
vt 0.606801 0.736284
vt 0.628450 0.736284
vt 0.628450 0.757933
vt 0.693398 0.757933
vt 0.758759 0.801232
vt 0.737110 0.801232
vt 0.737110 0.000206
vt 0.758759 0.000206
vt 0.043505 0.910305
vt 0.043505 0.931954
vt 0.021856 0.931954
vt 0.021856 0.953603
vt 0.000206 0.953603
vt 0.000206 0.910305
vt 0.612585 0.975666
vt 0.612585 0.997315
vt 0.590935 0.997315
vt 0.590935 0.975666
vt 0.458147 0.953604
vt 0.458147 0.996902
vt 0.436498 0.996902
vt 0.436498 0.953604
vt 0.568873 0.975666
vt 0.590522 0.975666
vt 0.590522 0.997315
vt 0.568873 0.997315
vt 0.568460 0.910305
vt 0.568460 0.975253
vt 0.546810 0.975253
vt 0.546810 0.910305
vt 0.657123 0.954016
vt 0.678772 0.954016
vt 0.678772 0.975666
vt 0.657123 0.975666
vt 0.043918 0.954016
vt 0.043918 0.997315
vt 0.022269 0.997315
vt 0.022269 0.954016
vt 0.480209 0.953603
vt 0.480209 0.996902
vt 0.458560 0.996902
vt 0.458560 0.953603
vt 0.524748 0.975666
vt 0.546397 0.975666
vt 0.546397 0.997315
vt 0.524748 0.997315
vt 0.635060 0.975666
vt 0.656709 0.975666
vt 0.656709 0.997315
vt 0.635060 0.997315
vt 0.780822 0.000207
vt 0.780822 0.757933
vt 0.759172 0.757933
vt 0.759172 0.000207
vt 0.307014 0.976079
vt 0.307014 0.997728
vt 0.285365 0.997728
vt 0.285365 0.976079
vt 0.868245 0.715461
vt 0.824946 0.715461
vt 0.824946 0.477318
vt 0.868245 0.477318
vt 0.109279 0.975666
vt 0.109279 0.997315
vt 0.087630 0.997315
vt 0.087630 0.975666
vt 0.329077 0.954017
vt 0.307428 0.954017
vt 0.307428 0.910718
vt 0.329077 0.910718
vt 0.803297 0.954429
vt 0.824947 0.954429
vt 0.824947 0.976079
vt 0.803297 0.976079
vt 0.175053 0.801645
vt 0.240001 0.801645
vt 0.240001 0.866593
vt 0.175053 0.866593
vt 0.722897 0.932367
vt 0.722897 0.975666
vt 0.701247 0.975666
vt 0.701247 0.932367
vt 0.846596 0.238349
vt 0.846596 0.000206
vt 0.889894 0.000206
vt 0.889894 0.238349
vt 0.546810 0.975666
vt 0.568460 0.975666
vt 0.568460 0.997315
vt 0.546810 0.997315
vt 0.392786 0.953604
vt 0.371137 0.953604
vt 0.371137 0.931953
vt 0.371137 0.867005
vt 0.392786 0.867005
vt 0.109692 0.975666
vt 0.131342 0.975666
vt 0.131342 0.997315
vt 0.109692 0.997315
vt 0.700834 0.801644
vt 0.700834 0.909891
vt 0.679185 0.909891
vt 0.679185 0.801644
vt 0.634647 0.801644
vt 0.634647 0.909891
vt 0.612998 0.909891
vt 0.612998 0.801644
vt 0.285366 0.954017
vt 0.307015 0.954017
vt 0.307015 0.975666
vt 0.285366 0.975666
vt 0.999794 0.238349
vt 0.978144 0.238349
vt 0.978144 0.000206
vt 0.999794 0.000206
vt 0.933606 0.238349
vt 0.890307 0.238349
vt 0.890307 0.000206
vt 0.933606 0.000206
vt 0.284953 0.867005
vt 0.284953 0.953604
vt 0.263303 0.953604
vt 0.263303 0.888656
vt 0.263303 0.867005
vt 0.824533 0.715461
vt 0.781235 0.715461
vt 0.781235 0.477318
vt 0.824533 0.477318
vt 0.219178 0.954016
vt 0.240828 0.954016
vt 0.240828 0.997314
vt 0.219178 0.997314
vt 0.656709 0.801644
vt 0.656709 0.909891
vt 0.635060 0.909891
vt 0.635060 0.801644
vt 0.329491 0.954430
vt 0.351140 0.954430
vt 0.351140 0.976079
vt 0.329491 0.976079
vt 0.889894 0.476905
vt 0.846596 0.476905
vt 0.846596 0.238762
vt 0.889894 0.238762
vt 0.781234 0.976079
vt 0.781234 0.954429
vt 0.802884 0.954429
vt 0.802884 0.976079
vt 0.305362 0.866593
vt 0.283712 0.866593
vt 0.240414 0.866593
vt 0.240414 0.801645
vt 0.305362 0.801645
vt 0.196703 0.954016
vt 0.196703 0.997315
vt 0.175054 0.997315
vt 0.175054 0.954016
vt 0.825360 0.954429
vt 0.847009 0.954429
vt 0.847009 0.976079
vt 0.825360 0.976079
vt 0.546397 0.910305
vt 0.546397 0.975253
vt 0.524748 0.975253
vt 0.524748 0.910305
vt 0.502685 0.975666
vt 0.524335 0.975666
vt 0.524335 0.997315
vt 0.502685 0.997315
vt 0.869485 0.954429
vt 0.891134 0.954429
vt 0.891134 0.976079
vt 0.869485 0.976079
vt 0.021856 0.954016
vt 0.021856 0.997315
vt 0.000206 0.997315
vt 0.000206 0.954016
vt 0.502272 0.910305
vt 0.502272 0.975253
vt 0.480623 0.975253
vt 0.480623 0.910305
vt 0.846183 0.238349
vt 0.781235 0.238349
vt 0.781235 0.000206
vt 0.846183 0.000206
vt 0.612998 0.975666
vt 0.634647 0.975666
vt 0.634647 0.997315
vt 0.612998 0.997315
vt 0.744545 0.910305
vt 0.722897 0.910305
vt 0.722897 0.931954
vt 0.701246 0.931954
vt 0.701246 0.888655
vt 0.744545 0.888655
vt 0.678772 0.910305
vt 0.678772 0.953603
vt 0.657123 0.953603
vt 0.657123 0.910305
vt 0.281648 0.065155
vt 0.281648 0.108453
vt 0.043505 0.108453
vt 0.043505 0.065155
vt 0.065154 0.065155
vt 0.065154 0.043505
vt 0.000206 0.043505
vt 0.000206 0.000206
vt 0.108453 0.000206
vt 0.086803 0.043505
vt 0.086803 0.065155
vt 0.238349 0.065155
vt 0.259998 0.043505
vt 0.259998 0.065155
vt 0.978144 0.954429
vt 0.978144 0.976079
vt 0.956495 0.976079
vt 0.956495 0.954429
vt 0.480623 0.975666
vt 0.502272 0.975666
vt 0.502272 0.997315
vt 0.480623 0.997315
vt 0.978144 0.715461
vt 0.956495 0.715461
vt 0.956495 0.607214
vt 0.956495 0.585565
vt 0.956495 0.477318
vt 0.978144 0.477318
vt 0.109279 0.910305
vt 0.109279 0.975253
vt 0.087630 0.975253
vt 0.087630 0.910305
vt 0.370723 0.801644
vt 0.370723 0.866592
vt 0.305776 0.866592
vt 0.305776 0.823295
vt 0.305776 0.801644
vt 0.350726 0.867006
vt 0.350726 0.910305
vt 0.329077 0.910305
vt 0.329077 0.888655
vt 0.307427 0.888655
vt 0.307427 0.867006
vt 0.262890 0.867005
vt 0.262890 0.953604
vt 0.241241 0.953604
vt 0.241241 0.867005
vt 0.780822 0.758346
vt 0.780822 0.996489
vt 0.759172 0.996489
vt 0.759172 0.758346
vt 0.678772 0.997728
vt 0.657123 0.997728
vt 0.657123 0.976078
vt 0.678772 0.976078
vt 0.043918 0.910305
vt 0.087216 0.910305
vt 0.087216 0.953603
vt 0.065567 0.953603
vt 0.065567 0.931954
vt 0.043918 0.931954
vt 0.678772 0.801644
vt 0.678772 0.909891
vt 0.657122 0.909891
vt 0.657122 0.801644
vt 0.307015 0.867005
vt 0.307015 0.953604
vt 0.285366 0.953604
vt 0.285366 0.867005
vt 0.371137 0.866592
vt 0.371137 0.801644
vt 0.436085 0.801644
vt 0.436085 0.866592
vt 0.502686 0.801644
vt 0.524335 0.801644
vt 0.524335 0.909891
vt 0.502686 0.909891
vt 0.368245 0.000206
vt 0.368245 0.801232
vt 0.324946 0.801232
vt 0.324946 0.043505
vt 0.238349 0.043505
vt 0.329077 0.976492
vt 0.329077 0.998142
vt 0.307427 0.998142
vt 0.307427 0.976492
vt 0.371137 0.954016
vt 0.392786 0.954016
vt 0.392786 0.975666
vt 0.371137 0.975666
vt 0.934433 0.954429
vt 0.956082 0.954429
vt 0.956082 0.976079
vt 0.934433 0.976079
vt 0.480623 0.801644
vt 0.502272 0.801644
vt 0.502272 0.909891
vt 0.480623 0.909891
vt 0.131342 0.909891
vt 0.131342 0.801644
vt 0.152991 0.801644
vt 0.152991 0.823294
vt 0.174640 0.823294
vt 0.174640 0.909891
vt 0.723310 0.932366
vt 0.744959 0.932366
vt 0.744959 0.975665
vt 0.723310 0.975665
vt 0.722896 0.976079
vt 0.722896 0.997728
vt 0.701246 0.997728
vt 0.701246 0.976079
vt 0.087630 0.909891
vt 0.087630 0.801644
vt 0.109279 0.801644
vt 0.109279 0.823294
vt 0.130929 0.823294
vt 0.130929 0.909891
vt 0.043505 0.801644
vt 0.043505 0.909891
vt 0.000207 0.909891
vt 0.000207 0.823294
vt 0.021856 0.823294
vt 0.021856 0.801644
vt 0.414848 0.932367
vt 0.414848 0.975666
vt 0.393199 0.975666
vt 0.393199 0.932367
vt 0.392786 0.997728
vt 0.371137 0.997728
vt 0.371137 0.976078
vt 0.392786 0.976078
vt 0.219178 0.888656
vt 0.219178 0.867005
vt 0.240828 0.867005
vt 0.240828 0.953604
vt 0.219178 0.953604
vt 0.131342 0.975252
vt 0.109693 0.975252
vt 0.109693 0.910304
vt 0.131342 0.910304
vt 0.524335 0.910305
vt 0.524335 0.975253
vt 0.502686 0.975253
vt 0.502686 0.910305
vt 0.414848 0.867006
vt 0.414848 0.931954
vt 0.393199 0.931954
vt 0.393199 0.867006
vt 0.612998 0.910304
vt 0.634647 0.910304
vt 0.634647 0.953603
vt 0.634647 0.975252
vt 0.612998 0.975252
vt 0.568873 0.910304
vt 0.590522 0.910304
vt 0.590522 0.931954
vt 0.590522 0.975252
vt 0.568873 0.975252
vt 0.175054 0.931953
vt 0.175054 0.867005
vt 0.196703 0.867005
vt 0.196703 0.953604
vt 0.175054 0.953604
vt 0.744959 0.976079
vt 0.744959 0.997728
vt 0.723310 0.997728
vt 0.723310 0.976079
vt 0.701247 0.801644
vt 0.722897 0.801644
vt 0.722897 0.888243
vt 0.701247 0.888243
vt 0.737110 0.801644
vt 0.758759 0.801644
vt 0.758759 0.888243
vt 0.737110 0.888243
vt 0.590522 0.909891
vt 0.568873 0.909891
vt 0.568873 0.801644
vt 0.590522 0.801644
vt 0.590935 0.909891
vt 0.590935 0.801644
vt 0.612585 0.801644
vt 0.612585 0.909891
vt 0.869485 0.715873
vt 0.891134 0.715873
vt 0.891134 0.824120
vt 0.891134 0.845769
vt 0.891134 0.954016
vt 0.869485 0.954016
vt 0.824947 0.954016
vt 0.803298 0.954016
vt 0.803298 0.715873
vt 0.824947 0.715873
vt 0.911957 0.477318
vt 0.911957 0.715461
vt 0.868658 0.715461
vt 0.868658 0.477318
vt 0.912370 0.476905
vt 0.912370 0.238762
vt 0.934020 0.238762
vt 0.934020 0.476905
vt 0.393199 0.976079
vt 0.414848 0.976079
vt 0.414848 0.997728
vt 0.393199 0.997728
vt 0.956495 0.238762
vt 0.978144 0.238762
vt 0.978144 0.476905
vt 0.956495 0.476905
vt 0.956082 0.000206
vt 0.977731 0.000206
vt 0.977731 0.238349
vt 0.956082 0.238349
vt 0.934433 0.715873
vt 0.956082 0.715873
vt 0.956082 0.954016
vt 0.934433 0.954016
vt 0.351140 0.910718
vt 0.351140 0.954017
vt 0.329491 0.954017
vt 0.329491 0.910718
vt 0.934019 0.932780
vt 0.934019 0.976079
vt 0.912370 0.976079
vt 0.912370 0.932780
vt 0.890307 0.238762
vt 0.911957 0.238762
vt 0.911957 0.476905
vt 0.890307 0.476905
vt 0.087217 0.801644
vt 0.087217 0.909891
vt 0.043918 0.909891
vt 0.043918 0.823294
vt 0.065568 0.823294
vt 0.065568 0.801644
vt 0.131755 0.975252
vt 0.131755 0.910304
vt 0.153404 0.910304
vt 0.153404 0.975252
vt 0.650100 0.692985
vt 0.650100 0.736284
vt 0.455256 0.736284
vt 0.455256 0.757933
vt 0.368658 0.801232
vt 0.368658 0.757933
vt 0.433606 0.757933
vt 0.433606 0.736284
vt 0.411957 0.736284
vt 0.411957 0.692985
vt 0.241241 0.954016
vt 0.262890 0.954016
vt 0.262890 0.997314
vt 0.241241 0.997314
vt 0.612585 0.910304
vt 0.612585 0.975252
vt 0.590935 0.975252
vt 0.590935 0.910304
vt 0.781235 0.476905
vt 0.781235 0.238762
vt 0.846183 0.238762
vt 0.846183 0.476905
vt 0.656710 0.910304
vt 0.656710 0.975252
vt 0.635060 0.975252
vt 0.635060 0.910304
vt 0.218765 0.867005
vt 0.218765 0.953604
vt 0.197116 0.953604
vt 0.197116 0.867005
vt 0.934019 0.845769
vt 0.934019 0.932367
vt 0.912370 0.932367
vt 0.912370 0.845769
vt 0.153404 0.975666
vt 0.153404 0.997315
vt 0.131755 0.997315
vt 0.131755 0.975666
vt 0.307428 0.954430
vt 0.329077 0.954430
vt 0.329077 0.976079
vt 0.307428 0.976079
vt 0.546397 0.909891
vt 0.524748 0.909891
vt 0.524748 0.801644
vt 0.546397 0.801644
vt 0.568460 0.909891
vt 0.546810 0.909891
vt 0.546810 0.801644
vt 0.568460 0.801644
vt 0.956082 0.477318
vt 0.956082 0.715461
vt 0.934433 0.715461
vt 0.934433 0.477318
vt 0.956082 0.238762
vt 0.956082 0.476905
vt 0.934433 0.476905
vt 0.934433 0.238762
vt 0.781235 0.715873
vt 0.802884 0.715873
vt 0.802884 0.954016
vt 0.781235 0.954016
vt 0.847422 0.976079
vt 0.847422 0.954429
vt 0.869072 0.954429
vt 0.869072 0.976079
vt 0.218765 0.954017
vt 0.218765 0.997315
vt 0.197116 0.997315
vt 0.197116 0.954017
vt 0.847009 0.954016
vt 0.825360 0.954016
vt 0.825360 0.715873
vt 0.847009 0.715873
vt 0.978144 0.954016
vt 0.956495 0.954016
vt 0.956495 0.715873
vt 0.978144 0.715873
vt 0.263303 0.976079
vt 0.284953 0.976079
vt 0.284953 0.997728
vt 0.263303 0.997728
vt 0.869071 0.954016
vt 0.847422 0.954016
vt 0.847422 0.715873
vt 0.869071 0.715873
vt 0.065981 0.954016
vt 0.065981 0.997315
vt 0.044332 0.997315
vt 0.044332 0.954016
vt 0.436498 0.801644
vt 0.458147 0.801644
vt 0.458147 0.953190
vt 0.436498 0.953190
vt 0.955668 0.238349
vt 0.934019 0.238349
vt 0.934019 0.000206
vt 0.955668 0.000206
vt 0.934019 0.845357
vt 0.912370 0.845357
vt 0.912370 0.585565
vt 0.912370 0.477318
vt 0.934019 0.477318
vt 0.934019 0.780409
vn -1.0000 0.0000 0.0000
vn 0.0000 -1.0000 0.0000
vn -0.0000 0.0000 -1.0000
vn 0.0000 0.0000 1.0000
vn 1.0000 0.0000 0.0000
vn 0.0000 1.0000 0.0000
usemtl Base_Banner_Green
s off
f 126/1/1 107/2/1 122/3/1 125/4/1
f 28/5/2 104/6/2 20/7/2 142/8/2
f 111/9/3 99/10/3 3/11/3 155/12/3 105/13/3 104/14/3 151/15/3 12/16/3 103/17/3 140/18/3
f 99/19/1 1/20/1 2/21/1 3/22/1
f 17/23/4 18/24/4 68/25/4 114/26/4 113/27/4 36/28/4
f 130/29/5 132/30/5 41/31/5 54/32/5
f 89/33/1 112/34/1 56/35/1 85/36/1
f 23/37/5 25/38/5 24/39/5 22/40/5
f 36/41/5 87/42/5 53/43/5 38/44/5
f 14/45/1 13/46/1 77/47/1 95/48/1
f 134/49/1 131/50/1 8/51/1 60/52/1
f 74/53/1 92/54/1 62/55/1 61/56/1
f 122/57/1 120/58/1 67/59/1 66/60/1
f 81/61/5 146/62/5 130/63/5 70/64/5
f 111/65/5 140/66/5 72/67/5 71/68/5
f 126/69/2 125/70/2 77/71/2 13/72/2
f 88/73/3 139/74/3 137/75/3 62/76/3
f 115/77/5 27/78/5 63/79/5 26/80/5
f 157/81/5 84/82/5 143/83/5 144/84/5
f 44/85/5 148/86/5 139/87/5 136/88/5
f 29/89/4 49/90/4 50/91/4 116/92/4
f 48/93/5 154/94/5 83/95/5 82/96/5
f 138/97/4 45/98/4 55/99/4 10/100/4
f 39/101/5 80/102/5 69/103/5 87/104/5
f 66/105/4 67/106/4 16/107/4 87/108/4 69/109/4
f 5/110/1 4/111/1 58/112/1 57/113/1
f 96/114/3 146/115/3 81/116/3 95/117/3
f 32/118/4 129/119/4 59/120/4 31/121/4
f 20/122/1 152/123/1 78/124/1 142/125/1
f 137/126/4 9/127/4 136/128/4 139/129/4
f 61/130/4 62/131/4 88/132/4 47/133/4
f 65/134/4 57/135/4 58/136/4 64/137/4 119/138/4
f 60/139/4 8/140/4 132/141/4 147/142/4
f 63/143/6 27/144/6 89/145/6 85/146/6
f 130/147/4 15/148/4 128/149/4 70/150/4
f 153/151/5 34/152/5 79/153/5 33/154/5
f 43/155/3 42/156/3 131/157/3 134/158/3
f 149/159/6 12/160/6 102/161/6 73/162/6
f 86/163/3 63/164/3 85/165/3 58/166/3 64/167/3
f 62/168/1 137/169/1 138/170/1 10/171/1
f 151/172/5 104/173/5 28/174/5 150/175/5
f 16/176/1 117/177/1 118/178/1 52/179/1
f 93/180/5 94/181/5 65/182/5 119/183/5
f 103/184/1 12/185/1 149/186/1 141/187/1
f 46/188/5 82/189/5 47/190/5 88/191/5
f 86/192/5 64/193/5 29/194/5 116/195/5
f 135/196/4 134/197/4 43/198/4 44/199/4
f 76/200/5 145/201/5 32/202/5 31/203/5
f 115/204/3 25/205/3 23/206/3 112/207/3 89/208/3 27/209/3
f 40/210/5 108/211/5 81/212/5 80/213/5
f 73/214/4 74/215/4 82/216/4 83/217/4 33/218/4 79/219/4 143/220/4 84/221/4 156/222/4 142/223/4 78/224/4 150/225/4 141/226/4 149/227/4
f 19/228/1 97/229/1 18/230/1 17/231/1
f 21/232/1 98/233/1 114/234/1 68/235/1
f 132/236/3 130/237/3 15/238/3 32/239/3 129/240/3 8/241/3
f 109/242/5 110/243/5 44/244/5 43/245/5
f 16/246/3 87/247/3 36/248/3 17/249/3 117/250/3
f 85/251/4 56/252/4 22/253/4 24/254/4 26/255/4 63/256/4
f 5/257/3 94/258/3 93/259/3 4/260/3
f 91/261/3 148/262/3 44/263/3 135/264/3
f 23/265/2 22/266/2 56/267/2 112/268/2
f 19/269/3 37/270/3 35/271/3 98/272/3 21/273/3 97/274/3
f 90/275/3 145/276/3 76/277/3 127/278/3
f 122/279/3 80/280/3 39/281/3 120/282/3
f 118/283/4 38/284/4 53/285/4 52/286/4
f 81/287/6 108/288/6 14/289/6 95/290/6
f 142/223/4 156/222/4 2/291/4 1/292/4 71/293/4 72/294/4 141/226/4 150/225/4 28/295/4
f 115/296/2 26/297/2 24/298/2 25/299/2
f 121/300/5 123/301/5 75/302/5 94/303/5
f 91/304/1 135/305/1 9/306/1 137/307/1
f 76/308/6 106/309/6 6/310/6 127/311/6
f 6/312/3 106/313/3 124/314/3 123/315/3 121/316/3 100/317/3
f 1/318/2 99/319/2 111/320/2 71/321/2
f 124/322/2 30/323/2 75/324/2 123/325/2
f 81/326/4 95/327/4 77/328/4 125/329/4 122/330/4 80/331/4
f 76/332/4 127/333/4 5/334/4 94/335/4 75/336/4 30/337/4
f 102/338/1 11/339/1 74/340/1 73/341/1
f 35/342/2 113/343/2 114/344/2 98/345/2
f 16/346/2 67/347/2 120/348/2 39/349/2 87/350/2
f 103/351/2 141/352/2 72/353/2 140/354/2
f 58/355/1 85/356/1 50/357/1 49/358/1
f 101/359/1 133/360/1 134/361/1 135/362/1
f 50/363/2 85/364/2 63/365/2 86/366/2 116/367/2
f 118/368/2 117/369/2 17/370/2 36/371/2 38/372/2
f 64/373/2 58/374/2 4/375/2 93/376/2 119/377/2
f 21/378/2 68/379/2 18/380/2 97/381/2
f 5/382/2 100/383/2 121/384/2 94/385/2
f 122/386/2 107/387/2 40/388/2 80/389/2
f 76/390/2 31/391/2 59/392/2 127/393/2
f 70/394/2 128/395/2 95/396/2 81/397/2
f 7/398/2 129/399/2 32/400/2 15/401/2 130/402/2 54/403/2
f 42/404/2 132/405/2 8/406/2 131/407/2
f 74/408/3 82/409/3 46/410/3 92/411/3
f 43/412/2 134/413/2 133/414/2 109/415/2
f 96/416/1 95/417/1 128/418/1 15/419/1
f 9/420/2 135/421/2 44/422/2 136/423/2
f 138/424/2 137/425/2 139/426/2 45/427/2
f 62/428/2 92/429/2 46/430/2 88/431/2
f 6/432/1 100/433/1 5/434/1 127/435/1
f 35/436/5 37/437/5 36/438/5 113/439/5
f 74/440/2 11/441/2 48/442/2 82/443/2
f 14/444/3 108/445/3 40/446/3 107/447/3 126/448/3 13/449/3
f 143/450/2 79/451/2 34/452/2 144/453/2
f 11/454/3 102/455/3 12/16/3 151/15/3 152/456/3 20/457/3 104/14/3 105/13/3 155/12/3 157/458/3 144/459/3 34/460/3 153/461/3 154/462/3 48/463/3
f 36/464/6 37/465/6 19/466/6 17/467/6
f 64/468/6 58/469/6 49/470/6 29/471/6
f 109/472/3 133/473/3 101/474/3 110/475/3
f 87/476/6 16/477/6 52/478/6 53/479/6
f 94/480/6 5/481/6 57/482/6 65/483/6
f 80/484/6 122/485/6 66/486/6 69/487/6
f 8/488/1 129/489/1 7/490/1 51/491/1
f 124/492/5 106/493/5 76/494/5 30/495/5
f 90/496/6 129/497/6 32/498/6 145/499/6
f 96/500/6 15/501/6 130/502/6 146/503/6
f 132/504/6 8/505/6 51/506/6 41/507/6
f 43/508/6 134/509/6 60/510/6 147/511/6
f 44/512/6 110/513/6 101/514/6 135/515/6
f 83/516/6 154/517/6 153/518/6 33/519/6
f 42/520/5 43/521/5 147/522/5 132/523/5
f 91/524/6 137/525/6 139/526/6 148/527/6
f 51/528/4 7/529/4 54/530/4 41/531/4
f 90/532/1 127/533/1 59/534/1 129/535/1
f 62/536/6 10/537/6 55/538/6 88/539/6
f 139/540/5 88/541/5 55/542/5 45/543/5
f 78/544/6 152/545/6 151/546/6 150/547/6
f 74/548/6 61/549/6 47/550/6 82/551/6
f 3/552/6 2/553/6 156/554/6 84/555/6 157/556/6 155/557/6
