# Blender v3.2.2 OBJ File: 'Medieval Voxel Assets.blend'
# www.blender.org
mtllib Simple_Banner_Blue.mtl
o Simple_Banner_Blue_Medieval_Assets-14.001
v 10.000000 2.999998 10.100000
v 10.200000 0.699998 10.200000
v 10.200000 1.299998 10.100000
v 10.200000 1.499998 10.100000
v 10.200000 1.599998 10.200000
v 10.200000 1.699998 10.400000
v 10.200000 1.899998 10.300000
v 10.200000 2.199998 10.300000
v 10.200000 2.499998 10.400000
v 10.400000 2.999998 10.200000
v 10.400000 2.899998 10.200000
v 10.900000 1.299998 10.100000
v 10.900000 1.399998 10.100000
v 11.000000 0.899998 10.400000
v 11.200000 0.699998 10.300000
v 11.200000 2.999998 10.200000
v 10.400000 0.699998 10.300000
v 10.500000 0.799998 10.300000
v 10.500000 0.899998 10.300000
v 10.500000 2.899998 10.200000
v 10.500000 2.899998 10.100000
v 10.500000 2.999998 10.100000
v 10.600000 0.899998 10.300000
v 11.300000 2.899998 10.100000
v 11.400000 0.899998 10.200000
v 11.400000 1.199998 10.400000
v 11.400000 1.199998 10.200000
v 11.400000 1.499998 10.300000
v 11.400000 1.699998 10.300000
v 11.400000 1.699998 10.200000
v 11.400000 1.899998 10.300000
v 11.400000 2.199998 10.200000
v 11.400000 2.299998 10.400000
v 11.400000 2.499998 10.200000
v 10.200000 1.199998 10.400000
v 10.200000 0.899998 10.400000
v 10.200000 1.599998 10.400000
v 10.600000 0.899998 10.400000
v 10.600000 1.199998 10.400000
v 11.000000 1.199998 10.400000
v 11.400000 1.599998 10.400000
v 11.400000 2.499998 10.400000
v 10.200000 0.899998 10.300000
v 10.200000 0.699998 10.300000
v 10.200000 1.299998 10.300000
v 10.200000 1.199998 10.300000
v 10.400000 0.799998 10.300000
v 11.000000 1.199998 10.300000
v 11.400000 0.899998 10.300000
v 11.400000 1.199998 10.300000
v 11.400000 1.299998 10.300000
v 11.400000 2.199998 10.300000
v 10.000000 3.199998 10.200000
v 10.200000 2.699998 10.200000
v 10.400000 3.099998 10.200000
v 10.500000 3.099998 10.200000
v 10.700000 1.399998 10.200000
v 10.900000 1.399998 10.200000
v 10.900000 1.299998 10.200000
v 11.200000 2.899998 10.200000
v 11.400000 1.499998 10.200000
v 11.400000 2.699998 10.200000
v 11.400000 2.899998 10.200000
v 11.600000 3.199998 10.200000
v 10.200000 1.699998 10.300000
v 10.200000 2.499998 10.300000
v 11.000000 0.899998 10.300000
v 11.400000 2.299998 10.300000
v 10.200000 0.899998 10.200000
v 10.200000 1.199998 10.200000
v 10.200000 1.699998 10.200000
v 10.200000 2.299998 10.200000
v 10.200000 2.499998 10.200000
v 10.900000 1.199998 10.200000
v 11.100000 2.699998 10.200000
v 11.100000 0.899998 10.200000
v 11.400000 0.699998 10.200000
v 11.400000 1.299998 10.200000
v 11.400000 1.899998 10.200000
v 11.400000 2.299998 10.200000
v 10.000000 3.199998 10.100000
v 10.200000 3.099998 10.100000
v 10.200000 1.899998 10.100000
v 10.200000 2.199998 10.100000
v 10.200000 2.899998 10.100000
v 10.300000 2.999998 10.100000
v 10.400000 2.899998 10.100000
v 10.600000 2.999998 10.100000
v 10.600000 3.199998 10.100000
v 10.700000 1.299998 10.100000
v 10.700000 1.399998 10.100000
v 11.400000 1.299998 10.100000
v 11.400000 1.899998 10.100000
v 11.400000 2.199998 10.100000
v 11.600000 2.999998 10.100000
v 11.600000 3.199998 10.100000
v 10.400000 0.699998 10.200000
v 11.200000 0.699998 10.200000
v 11.400000 0.699998 10.300000
v 10.400000 0.799998 10.200000
v 10.500000 0.799998 10.200000
v 11.100000 0.799998 10.200000
v 11.200000 0.799998 10.300000
v 11.100000 0.799998 10.300000
v 11.200000 0.799998 10.200000
v 11.100000 0.899998 10.300000
v 11.400000 0.899998 10.400000
v 10.700000 1.199998 10.300000
v 10.700000 1.199998 10.200000
v 10.900000 1.199998 10.300000
v 10.200000 1.299998 10.200000
v 10.700000 1.299998 10.200000
v 10.200000 1.499998 10.200000
v 10.200000 1.499998 10.300000
v 10.200000 1.599998 10.300000
v 10.200000 1.899998 10.200000
v 10.200000 2.199998 10.200000
v 10.200000 2.299998 10.300000
v 10.200000 2.299998 10.400000
v 10.200000 2.699998 10.100000
v 11.400000 2.699998 10.100000
v 10.000000 2.999998 10.200000
v 10.400000 2.999998 10.100000
v 10.500000 2.999998 10.200000
v 10.800000 2.999998 10.100000
v 11.200000 2.999998 10.100000
v 11.300000 2.999998 10.100000
v 11.300000 2.999998 10.200000
v 11.600000 2.999998 10.200000
v 10.500000 0.899998 10.200000
v 10.600000 1.199998 10.300000
v 10.700000 1.299998 10.300000
v 10.900000 1.299998 10.300000
v 11.400000 1.499998 10.100000
v 11.400000 1.599998 10.300000
v 11.400000 1.599998 10.200000
v 11.400000 1.699998 10.400000
v 11.400000 2.499998 10.300000
v 10.200000 2.699998 10.300000
v 11.400000 2.699998 10.300000
v 10.200000 2.899998 10.200000
v 11.200000 2.899998 10.100000
v 11.300000 2.899998 10.200000
v 11.400000 2.899998 10.100000
vt 0.973723 0.875642
vt 0.973723 0.937949
vt 0.942570 0.937949
vt 0.942570 0.875642
vt 0.063591 0.967563
vt 0.094745 0.967563
vt 0.094745 0.998716
vt 0.063591 0.998716
vt 0.942570 0.938462
vt 0.973723 0.938462
vt 0.973723 0.969616
vt 0.942570 0.969616
vt 0.564617 0.999743
vt 0.564617 0.968589
vt 0.595771 0.968589
vt 0.595771 0.999743
vt 0.470643 0.968590
vt 0.470643 0.999743
vt 0.439489 0.999743
vt 0.439489 0.968590
vt 0.627439 0.874101
vt 0.627439 0.936409
vt 0.596285 0.936409
vt 0.596285 0.874101
vt 0.942570 0.625385
vt 0.973723 0.625385
vt 0.973723 0.750000
vt 0.942570 0.750000
vt 0.375642 0.936922
vt 0.375642 0.999230
vt 0.344488 0.999230
vt 0.344488 0.936922
vt 0.942570 0.563078
vt 0.973724 0.563078
vt 0.973724 0.594232
vt 0.942570 0.594232
vt 0.596285 0.936922
vt 0.627439 0.936922
vt 0.627439 0.968076
vt 0.596285 0.968076
vt 0.031924 0.967563
vt 0.063078 0.967563
vt 0.063078 0.998716
vt 0.031924 0.998716
vt 0.063078 0.873075
vt 0.031924 0.873075
vt 0.031924 0.499229
vt 0.063078 0.499229
vt 0.156539 0.000257
vt 0.218846 0.000257
vt 0.218846 0.124871
vt 0.187693 0.124871
vt 0.187693 0.156025
vt 0.218846 0.156025
vt 0.218846 0.374102
vt 0.250000 0.374102
vt 0.250000 0.156025
vt 0.312308 0.342948
vt 0.312308 0.436409
vt 0.250000 0.436409
vt 0.250000 0.405255
vt 0.218846 0.405255
vt 0.218846 0.498716
vt 0.156539 0.498716
vt 0.532437 0.874101
vt 0.532437 0.936409
vt 0.501284 0.936409
vt 0.501284 0.874101
vt 0.877695 0.968076
vt 0.877695 0.999230
vt 0.846541 0.999230
vt 0.846541 0.968076
vt 0.501284 0.936922
vt 0.532437 0.936922
vt 0.532437 0.999229
vt 0.501284 0.999229
vt 0.910389 0.968076
vt 0.910389 0.999230
vt 0.879235 0.999230
vt 0.879235 0.968076
vt 0.437949 0.374615
vt 0.437949 0.748460
vt 0.375642 0.748460
vt 0.375642 0.374615
vt 0.221413 0.873588
vt 0.221413 0.967049
vt 0.190259 0.967049
vt 0.190259 0.873588
vt 0.126925 0.967563
vt 0.158079 0.967563
vt 0.158079 0.998716
vt 0.126925 0.998716
vt 0.942056 0.781667
vt 0.942056 0.937435
vt 0.910903 0.937435
vt 0.910903 0.812820
vt 0.910903 0.781667
vt 0.973723 0.750513
vt 0.973723 0.781667
vt 0.973723 0.875128
vt 0.942570 0.875128
vt 0.942570 0.750513
vt 0.501283 0.873588
vt 0.501283 0.780127
vt 0.501283 0.748973
vt 0.594745 0.748973
vt 0.594745 0.873588
vt 0.438976 0.874102
vt 0.438976 0.936409
vt 0.407823 0.936409
vt 0.407823 0.874102
vt 0.877695 0.905255
vt 0.877695 0.967563
vt 0.846541 0.967563
vt 0.846541 0.905255
vt 0.910389 0.811793
vt 0.910389 0.967562
vt 0.879236 0.967562
vt 0.879236 0.936408
vt 0.879236 0.811793
vt 0.563591 0.748460
vt 0.501283 0.748460
vt 0.501283 0.374615
vt 0.563591 0.374615
vt 0.407309 0.936923
vt 0.407309 0.999230
vt 0.376155 0.999230
vt 0.376155 0.936923
vt 0.564104 0.999229
vt 0.532950 0.999229
vt 0.532950 0.936922
vt 0.564104 0.936922
vt 0.879235 0.374615
vt 0.910389 0.374615
vt 0.910389 0.592691
vt 0.879235 0.592691
vt 0.659105 0.874101
vt 0.659105 0.936409
vt 0.627952 0.936409
vt 0.627952 0.874101
vt 0.689233 0.873075
vt 0.689233 0.499229
vt 0.720387 0.499229
vt 0.720387 0.873075
vt 0.126411 0.873588
vt 0.126411 0.967050
vt 0.095258 0.967050
vt 0.095258 0.873588
vt 0.250000 0.062564
vt 0.312308 0.062564
vt 0.250000 0.124871
vt 0.910903 0.937949
vt 0.942056 0.937949
vt 0.942056 0.969103
vt 0.910903 0.969103
vt 0.720900 0.748973
vt 0.752053 0.748973
vt 0.752053 0.780127
vt 0.783207 0.780127
vt 0.783207 0.842434
vt 0.720900 0.842434
vt 0.375128 0.374615
vt 0.375128 0.748460
vt 0.312821 0.748460
vt 0.312821 0.592691
vt 0.343975 0.592691
vt 0.343975 0.530383
vt 0.312821 0.530383
vt 0.312821 0.374615
vt 0.752567 0.936922
vt 0.783720 0.936922
vt 0.783720 0.968076
vt 0.752567 0.968076
vt 0.470643 0.936922
vt 0.470643 0.968076
vt 0.439489 0.968076
vt 0.439489 0.936922
vt 0.343974 0.874102
vt 0.343974 0.936409
vt 0.312820 0.936409
vt 0.312820 0.874102
vt 0.407309 0.874102
vt 0.407309 0.936409
vt 0.376155 0.936409
vt 0.376155 0.874102
vt 0.784234 0.374102
vt 0.784234 0.000257
vt 0.815388 0.000257
vt 0.815388 0.374102
vt 0.847055 0.374615
vt 0.847055 0.748460
vt 0.815901 0.748460
vt 0.815901 0.374615
vt 0.438976 0.936922
vt 0.438976 0.999230
vt 0.407823 0.999230
vt 0.407823 0.936922
vt 0.563077 0.000257
vt 0.563077 0.374102
vt 0.500770 0.374102
vt 0.500770 0.000257
vt 0.847569 0.000257
vt 0.878722 0.000257
vt 0.878722 0.374102
vt 0.847569 0.374102
vt 0.847569 0.280641
vt 0.627952 0.936922
vt 0.659106 0.936922
vt 0.659106 0.968076
vt 0.627952 0.968076
vt 0.626412 0.218333
vt 0.657566 0.218333
vt 0.657566 0.156025
vt 0.626412 0.156025
vt 0.626412 0.000257
vt 0.688719 0.000257
vt 0.688719 0.374102
vt 0.626412 0.374102
vt 0.564104 0.374615
vt 0.626412 0.374615
vt 0.626412 0.748460
vt 0.564104 0.748460
vt 0.158079 0.873588
vt 0.158079 0.967049
vt 0.126925 0.967049
vt 0.126925 0.873588
vt 0.126412 0.873075
vt 0.095258 0.873075
vt 0.095258 0.499229
vt 0.126412 0.499229
vt 0.438463 0.748460
vt 0.438463 0.374615
vt 0.500770 0.374615
vt 0.500770 0.654999
vt 0.500770 0.748460
vt 0.942056 0.625385
vt 0.942056 0.781154
vt 0.910903 0.781154
vt 0.910903 0.625385
vt 0.688719 0.748973
vt 0.688719 0.873588
vt 0.595258 0.873588
vt 0.595258 0.748973
vt 0.942056 0.156025
vt 0.910902 0.156025
vt 0.910902 0.000257
vt 0.942056 0.000257
vt 0.375642 0.874102
vt 0.375642 0.936409
vt 0.344488 0.936409
vt 0.344488 0.874102
vt 0.312821 0.748973
vt 0.406282 0.748973
vt 0.406282 0.873589
vt 0.312821 0.873589
vt 0.312821 0.842434
vt 0.500257 0.374102
vt 0.406796 0.374102
vt 0.406796 0.000257
vt 0.500257 0.000257
vt 0.031410 0.499229
vt 0.031410 0.873075
vt 0.000257 0.873075
vt 0.000257 0.499229
vt 0.689233 0.000257
vt 0.720387 0.000257
vt 0.720387 0.311794
vt 0.720387 0.498716
vt 0.689233 0.498716
vt 0.062564 0.311794
vt 0.031410 0.436409
vt 0.062564 0.405255
vt 0.062564 0.498716
vt 0.000257 0.498716
vt 0.000257 0.311794
vt 0.062564 0.249487
vt 0.094745 0.499229
vt 0.094745 0.873075
vt 0.063591 0.873075
vt 0.063591 0.499229
vt 0.221413 0.967563
vt 0.221413 0.998717
vt 0.190259 0.998717
vt 0.190259 0.967563
vt 0.910902 0.343974
vt 0.910902 0.312820
vt 0.942056 0.312820
vt 0.942056 0.468589
vt 0.910902 0.468589
vt 0.942056 0.624871
vt 0.910903 0.624871
vt 0.910903 0.469103
vt 0.942056 0.469103
vt 0.815388 0.748460
vt 0.784234 0.748460
vt 0.784234 0.374615
vt 0.815388 0.374615
vt 0.126411 0.967563
vt 0.126411 0.998716
vt 0.095258 0.998716
vt 0.095258 0.967563
vt 0.000257 0.000257
vt 0.062564 0.000257
vt 0.062564 0.093718
vt 0.093718 0.093718
vt 0.093718 0.062565
vt 0.156025 0.062565
vt 0.156025 0.436409
vt 0.093718 0.436409
vt 0.093718 0.374102
vt 0.062564 0.374102
vt 0.062564 0.342948
vt 0.093718 0.342948
vt 0.093718 0.124872
vt 0.062564 0.124872
vt 0.094745 0.873588
vt 0.094745 0.967049
vt 0.063591 0.967049
vt 0.063591 0.873588
vt 0.720387 0.873588
vt 0.720387 0.967049
vt 0.689233 0.967049
vt 0.689233 0.873588
vt 0.284747 0.873588
vt 0.284747 0.967049
vt 0.253593 0.967049
vt 0.253593 0.873588
vt 0.942570 0.437949
vt 0.973723 0.437949
vt 0.973723 0.531410
vt 0.973723 0.562565
vt 0.942570 0.562565
vt 0.942570 0.156539
vt 0.973723 0.156539
vt 0.973723 0.312307
vt 0.942570 0.312307
vt 0.720900 0.936922
vt 0.752053 0.936922
vt 0.752053 0.968076
vt 0.720900 0.968076
vt 0.942056 0.312307
vt 0.910902 0.312307
vt 0.910902 0.281155
vt 0.910902 0.156539
vt 0.942056 0.156539
vt 0.942570 0.156025
vt 0.942570 0.000257
vt 0.973723 0.000257
vt 0.973723 0.156025
vt 0.470643 0.936409
vt 0.439489 0.936409
vt 0.439489 0.874102
vt 0.470643 0.874102
vt 0.815901 0.000257
vt 0.847054 0.000257
vt 0.847054 0.374102
vt 0.815901 0.374102
vt 0.564104 0.874101
vt 0.564104 0.936409
vt 0.532950 0.936409
vt 0.532950 0.874101
vt 0.221926 0.873075
vt 0.221926 0.499229
vt 0.253079 0.499229
vt 0.253079 0.873075
vt 0.720900 0.374102
vt 0.720900 0.000257
vt 0.752053 0.000257
vt 0.752053 0.374102
vt 0.500257 0.873589
vt 0.406795 0.873589
vt 0.406795 0.748973
vt 0.500257 0.748973
vt 0.720387 0.967563
vt 0.720387 0.998716
vt 0.689233 0.998716
vt 0.689233 0.967563
vt 0.625898 0.000257
vt 0.625898 0.374102
vt 0.563591 0.374102
vt 0.563591 0.000257
vt 0.158592 0.873075
vt 0.158592 0.499229
vt 0.189746 0.499229
vt 0.189746 0.873075
vt 0.720900 0.842948
vt 0.752053 0.842948
vt 0.752053 0.874102
vt 0.783207 0.874102
vt 0.783207 0.936409
vt 0.720900 0.936409
vt 0.000257 0.873588
vt 0.031410 0.873588
vt 0.031410 0.967049
vt 0.031410 0.998202
vt 0.000257 0.998202
vt 0.158079 0.873075
vt 0.126925 0.873075
vt 0.126925 0.499229
vt 0.158079 0.499229
vt 0.752567 0.000257
vt 0.783721 0.000257
vt 0.783721 0.093718
vt 0.783721 0.374102
vt 0.752567 0.374102
vt 0.879235 0.811281
vt 0.879235 0.593204
vt 0.910389 0.593204
vt 0.910389 0.624358
vt 0.910389 0.686666
vt 0.910389 0.811281
vt 0.063077 0.873588
vt 0.063077 0.967049
vt 0.031923 0.967049
vt 0.031923 0.873588
vt 0.973723 0.437436
vt 0.942570 0.437436
vt 0.942570 0.312820
vt 0.973723 0.312820
vt 0.595772 0.936408
vt 0.564618 0.936408
vt 0.564618 0.874101
vt 0.595772 0.874101
vt 0.189746 0.873588
vt 0.189746 0.967049
vt 0.158592 0.967049
vt 0.158592 0.873588
vt 0.846541 0.904741
vt 0.846541 0.748973
vt 0.877695 0.748973
vt 0.877695 0.904741
vt 0.253079 0.967563
vt 0.253079 0.998717
vt 0.221926 0.998717
vt 0.221926 0.967563
vt 0.189746 0.967563
vt 0.189746 0.998717
vt 0.158592 0.998717
vt 0.158592 0.967563
vt 0.564618 0.936922
vt 0.595771 0.936922
vt 0.595771 0.968076
vt 0.564618 0.968076
vt 0.284747 0.499229
vt 0.284747 0.873075
vt 0.253593 0.873075
vt 0.253593 0.499229
vt 0.284747 0.967563
vt 0.284747 0.998717
vt 0.253593 0.998717
vt 0.253593 0.967563
vt 0.752053 0.374615
vt 0.752053 0.748460
vt 0.720900 0.748460
vt 0.720900 0.374615
vt 0.783720 0.842434
vt 0.783720 0.780127
vt 0.814874 0.780127
vt 0.814874 0.748973
vt 0.846028 0.748973
vt 0.846028 0.842434
vt 0.846028 0.842948
vt 0.846028 0.936409
vt 0.783720 0.936409
vt 0.783720 0.874102
vt 0.814874 0.874102
vt 0.814874 0.842948
vt 0.847569 0.374615
vt 0.878722 0.374615
vt 0.878722 0.748460
vt 0.847569 0.748460
vt 0.253079 0.873588
vt 0.253079 0.967049
vt 0.221926 0.967049
vt 0.221926 0.873588
vt 0.406282 0.000257
vt 0.406282 0.374102
vt 0.312821 0.374102
vt 0.312821 0.000257
vt 0.626925 0.374615
vt 0.658079 0.374615
vt 0.658079 0.748460
vt 0.626925 0.748460
vt 0.752567 0.374615
vt 0.783721 0.374615
vt 0.783721 0.748460
vt 0.752567 0.748460
vt 0.784234 0.936922
vt 0.815388 0.936922
vt 0.815388 0.968076
vt 0.784234 0.968076
vt 0.343974 0.936923
vt 0.343974 0.999230
vt 0.312820 0.999230
vt 0.312820 0.936923
vt 0.221413 0.873075
vt 0.190259 0.873075
vt 0.190259 0.499229
vt 0.221413 0.499229
vt 0.910389 0.000257
vt 0.910389 0.374102
vt 0.879235 0.374102
vt 0.879235 0.000257
vn -1.0000 0.0000 0.0000
vn 1.0000 0.0000 0.0000
vn 0.0000 1.0000 0.0000
vn 0.0000 0.0000 1.0000
vn 0.0000 -1.0000 -0.0000
vn 0.0000 0.0000 -1.0000
usemtl Simple_Banner_Blue
s off
f 81/1/1 1/2/1 122/3/1 53/4/1
f 32/5/2 80/6/2 68/7/2 52/8/2
f 72/9/1 117/10/1 8/11/1 118/12/1
f 63/13/3 144/14/3 24/15/3 143/16/3
f 126/17/1 142/18/1 60/19/1 16/20/1
f 95/21/2 96/22/2 64/23/2 129/24/2
f 26/25/3 50/26/3 48/27/3 40/28/3
f 4/29/1 3/30/1 111/31/1 113/32/1
f 105/33/1 98/34/1 15/35/1 103/36/1
f 27/37/2 78/38/2 51/39/2 50/40/2
f 101/41/2 130/42/2 19/43/2 18/44/2
f 6/45/4 37/46/4 41/47/4 137/48/4
f 53/49/4 122/50/4 10/51/4 55/52/4 56/53/4 124/54/4 16/55/4 60/56/4 20/57/4 75/58/4 62/59/4 63/60/4 143/61/4 128/62/4 129/63/4 64/64/4
f 77/65/2 25/66/2 49/67/2 99/68/2
f 21/69/2 22/70/2 124/71/2 20/72/2
f 11/73/3 87/74/3 85/75/3 141/76/3
f 123/77/1 87/78/1 11/79/1 10/80/1
f 42/81/4 9/82/4 119/83/4 33/84/4
f 48/85/1 67/86/1 14/87/1 40/88/1
f 76/89/1 102/90/1 104/91/1 106/92/1
f 132/93/4 45/94/4 46/95/4 131/96/4 108/97/4
f 67/98/5 106/99/5 49/100/5 107/101/5 14/102/5
f 49/103/6 106/104/6 67/105/6 48/106/6 50/107/6
f 30/108/2 79/109/2 31/110/2 29/111/2
f 66/112/1 118/113/1 119/114/1 9/115/1
f 51/116/4 133/117/4 110/118/4 48/119/4 50/120/4
f 7/121/4 65/122/4 29/123/4 31/124/4
f 121/125/2 144/126/2 63/127/2 62/128/2
f 13/129/5 58/130/5 57/131/5 91/132/5
f 60/133/3 142/134/3 21/135/3 20/136/3
f 92/137/2 134/138/2 61/139/2 78/140/2
f 6/141/3 137/142/3 29/143/3 65/144/3
f 84/145/1 83/146/1 116/147/1 117/148/1
f 141/149/4 54/150/4 75/58/4 20/57/4 124/54/4 56/53/4 55/52/4 10/51/4 11/151/4
f 97/152/2 100/153/2 47/154/2 17/155/2
f 130/156/6 101/157/6 100/158/6 97/159/6 2/160/6 69/161/6
f 4/162/6 134/163/6 92/164/6 12/165/6 13/166/6 91/167/6 90/168/6 3/169/6
f 59/170/1 74/171/1 110/172/1 133/173/1
f 101/174/5 18/175/5 47/176/5 100/177/5
f 34/178/2 62/179/2 140/180/2 138/181/2
f 116/182/1 71/183/1 65/184/1 7/185/1
f 138/186/5 66/187/5 73/188/5 34/189/5
f 65/190/6 29/191/6 135/192/6 115/193/6
f 68/194/2 138/195/2 42/196/2 33/197/2
f 66/198/6 138/199/6 68/200/6 118/201/6
f 54/202/5 120/203/5 121/204/5 62/205/5 75/206/5
f 5/207/1 113/208/1 114/209/1 115/210/1
f 112/211/4 57/212/4 58/213/4 59/214/4 78/215/4 61/216/4 113/217/4 111/218/4
f 71/219/6 116/220/6 79/221/6 30/222/6
f 127/223/5 95/224/5 129/225/5 128/226/5
f 80/227/6 32/228/6 117/229/6 72/230/6
f 34/231/6 73/232/6 54/233/6 75/234/6 62/235/6
f 59/236/6 78/237/6 27/238/6 74/239/6
f 26/240/4 40/241/4 14/242/4 107/243/4
f 59/244/3 133/245/3 51/246/3 78/247/3
f 54/248/1 73/249/1 66/250/1 139/251/1
f 43/252/6 46/253/6 131/254/6 23/255/6 19/256/6
f 94/257/6 93/258/6 83/259/6 84/260/6
f 5/261/6 136/262/6 61/263/6 113/264/6
f 64/265/3 96/266/3 89/267/3 81/268/3 53/269/3
f 88/270/6 82/271/6 86/272/6 1/273/6 81/274/6 89/275/6 125/276/6
f 135/277/4 115/278/4 114/279/4 28/280/4
f 65/281/1 115/282/1 37/283/1 6/284/1
f 48/285/5 110/286/5 74/287/5 27/288/5 50/289/5
f 112/290/6 109/291/6 70/292/6 111/293/6
f 116/294/3 7/295/3 31/296/3 79/297/3
f 105/298/5 103/299/5 104/300/5 102/301/5
f 96/302/6 95/303/6 127/304/6 24/305/6 144/306/6 121/307/6 120/308/6 85/309/6 87/310/6 123/311/6 86/272/6 82/271/6 88/270/6 22/312/6 21/313/6 142/314/6 126/315/6 125/276/6 89/275/6
f 25/316/3 76/317/3 106/318/3 49/319/3
f 93/320/2 94/321/2 32/322/2 79/323/2
f 49/324/2 50/325/2 26/326/2 107/327/2
f 36/328/5 43/329/5 19/330/5 23/331/5 38/332/5
f 59/333/5 12/334/5 92/335/5 78/336/5
f 111/337/1 70/338/1 46/339/1 45/340/1
f 109/341/5 108/342/5 131/343/5 46/344/5 70/345/5
f 112/346/5 111/347/5 3/348/5 90/349/5
f 77/350/5 99/351/5 15/352/5 98/353/5
f 114/354/5 113/355/5 61/356/5 28/357/5
f 69/358/1 2/359/1 44/360/1 43/361/1
f 79/362/5 116/363/5 83/364/5 93/365/5
f 52/366/5 8/367/5 117/368/5 32/369/5
f 35/370/4 36/371/4 38/372/4 39/373/4
f 24/374/2 127/375/2 128/376/2 143/377/2
f 140/378/4 139/379/4 66/380/4 138/381/4
f 33/382/5 119/383/5 118/384/5 68/385/5
f 106/386/4 104/387/4 103/388/4 15/389/4 99/390/4 49/391/4
f 122/392/5 1/393/5 86/394/5 123/395/5 10/396/5
f 118/397/4 8/398/4 52/399/4 68/400/4
f 140/401/3 62/402/3 75/403/3 54/404/3 139/405/3
f 16/406/5 124/407/5 22/408/5 88/409/5 125/410/5 126/411/5
f 130/412/3 69/413/3 43/414/3 19/415/3
f 46/416/3 35/417/3 39/418/3 131/419/3
f 97/420/5 17/421/5 44/422/5 2/423/5
f 46/424/1 43/425/1 36/426/1 35/427/1
f 45/428/3 132/429/3 112/430/3 111/431/3
f 135/432/2 29/433/2 137/434/2 41/435/2
f 13/436/1 12/437/1 59/438/1 58/439/1
f 61/440/2 136/441/2 135/442/2 28/443/2
f 134/444/3 4/445/3 113/446/3 61/447/3
f 90/448/2 91/449/2 57/450/2 112/451/2
f 136/452/3 5/453/3 115/454/3 135/455/3
f 44/456/4 17/457/4 47/458/4 18/459/4 19/460/4 43/461/4
f 76/462/6 25/463/6 77/464/6 98/465/6 105/466/6 102/467/6
f 32/468/3 94/469/3 84/470/3 117/471/3
f 23/472/2 131/473/2 39/474/2 38/475/2
f 32/476/4 117/477/4 116/478/4 79/479/4
f 68/480/3 80/481/3 72/482/3 118/483/3
f 65/484/5 71/485/5 30/486/5 29/487/5
f 109/488/2 112/489/2 132/490/2 108/491/2
f 85/492/1 120/493/1 54/494/1 141/495/1
f 135/496/5 41/497/5 37/498/5 115/499/5
f 138/500/3 66/501/3 9/502/3 42/503/3
