# Blender v3.2.2 OBJ File: 'Medieval Voxel Assets.blend'
# www.blender.org
mtllib Simple_Banner_Green.mtl
o Simple_Banner_Green_Medieval_Assets-15.001
v 10.000000 2.999999 9.400000
v 10.000000 3.199998 9.500000
v 10.000000 3.199998 9.400000
v 10.200000 0.699998 9.500000
v 10.200000 0.899998 9.500000
v 10.200000 1.199998 9.700000
v 10.200000 1.199998 9.500000
v 10.200000 1.499998 9.400000
v 10.200000 1.599998 9.500000
v 10.200000 2.199998 9.500000
v 10.200000 1.899998 9.400000
v 10.200000 2.199998 9.400000
v 10.200000 2.199998 9.600000
v 10.200000 2.699998 9.400000
v 10.200000 2.899999 9.400000
v 10.900000 1.199998 9.500000
v 11.000000 0.899998 9.600000
v 11.000000 0.899998 9.700000
v 11.000000 1.199998 9.600000
v 11.200000 0.699998 9.600000
v 11.200000 2.899999 9.500000
v 11.200000 2.999999 9.400000
v 10.400000 0.699998 9.500000
v 10.400000 0.799998 9.600000
v 10.500000 0.899998 9.500000
v 10.500000 2.899999 9.500000
v 10.600000 0.899998 9.700000
v 10.600000 0.899998 9.600000
v 10.600000 1.199998 9.600000
v 11.300000 2.899999 9.400000
v 11.400000 1.199998 9.500000
v 11.400000 1.299998 9.600000
v 11.400000 1.299998 9.400000
v 11.400000 1.599998 9.700000
v 11.400000 1.699998 9.700000
v 11.400000 2.299998 9.500000
v 11.400000 2.299998 9.700000
v 11.400000 2.499998 9.700000
v 11.400000 2.499998 9.500000
v 11.600000 3.199998 9.500000
v 11.600000 3.199998 9.400000
v 10.200000 0.899998 9.700000
v 10.200000 1.699998 9.700000
v 10.200000 1.599998 9.700000
v 10.200000 2.299998 9.700000
v 11.400000 0.899998 9.700000
v 10.200000 1.299998 9.600000
v 10.200000 1.899998 9.600000
v 10.500000 0.799998 9.600000
v 10.500000 0.899998 9.600000
v 10.900000 1.199998 9.600000
v 11.200000 0.799998 9.600000
v 11.400000 1.199998 9.600000
v 11.400000 1.499998 9.600000
v 11.400000 2.199998 9.600000
v 11.400000 2.499998 9.600000
v 10.700000 1.299998 9.500000
v 10.900000 1.399998 9.500000
v 11.200000 3.099998 9.500000
v 11.600000 2.999999 9.500000
v 10.200000 0.899998 9.600000
v 11.400000 1.599998 9.600000
v 10.200000 1.499998 9.500000
v 10.200000 1.699998 9.500000
v 10.200000 2.299998 9.500000
v 10.200000 2.499998 9.500000
v 10.200000 2.699998 9.500000
v 10.500000 0.799998 9.500000
v 10.900000 1.299998 9.500000
v 11.100000 0.799998 9.500000
v 11.200000 0.799998 9.500000
v 11.400000 1.299998 9.500000
v 11.400000 1.599998 9.500000
v 11.400000 1.899998 9.500000
v 10.400000 2.899999 9.400000
v 10.400000 2.999999 9.400000
v 10.500000 2.899999 9.400000
v 10.700000 1.299998 9.400000
v 10.900000 1.299998 9.400000
v 11.000000 2.699998 9.400000
v 11.200000 2.899999 9.400000
v 11.300000 2.999999 9.400000
v 11.400000 1.899998 9.400000
v 11.400000 2.699998 9.400000
v 10.400000 0.699998 9.600000
v 10.200000 0.699998 9.600000
v 11.200000 0.699998 9.500000
v 11.400000 0.699998 9.600000
v 11.400000 0.699998 9.500000
v 10.400000 0.799998 9.500000
v 11.100000 0.799998 9.600000
v 11.100000 0.899998 9.600000
v 10.700000 1.199998 9.600000
v 10.700000 1.199998 9.500000
v 10.200000 1.299998 9.400000
v 10.700000 1.399998 9.400000
v 10.700000 1.399998 9.500000
v 10.900000 1.399998 9.400000
v 10.200000 1.499998 9.600000
v 10.200000 1.599998 9.600000
v 11.400000 1.699998 9.600000
v 11.400000 1.699998 9.500000
v 10.200000 1.899998 9.500000
v 11.400000 2.199998 9.500000
v 10.200000 2.299998 9.600000
v 11.400000 2.299998 9.600000
v 10.200000 2.499998 9.600000
v 11.400000 2.699998 9.500000
v 10.000000 2.999999 9.500000
v 10.400000 2.999999 9.500000
v 10.500000 2.999999 9.400000
v 10.500000 2.999999 9.500000
v 11.200000 2.999999 9.500000
v 11.300000 2.999999 9.500000
v 11.600000 2.999999 9.400000
v 11.100000 0.899998 9.500000
v 11.400000 0.899998 9.600000
v 11.400000 0.899998 9.500000
v 10.200000 1.199998 9.600000
v 10.600000 1.199998 9.700000
v 11.000000 1.199998 9.700000
v 11.400000 1.199998 9.700000
v 10.200000 1.299998 9.500000
v 10.700000 1.299998 9.600000
v 10.900000 1.299998 9.600000
v 11.400000 1.499998 9.500000
v 11.400000 1.499998 9.400000
v 10.200000 1.699998 9.600000
v 11.400000 1.899998 9.600000
v 11.400000 2.199998 9.400000
v 10.200000 2.499998 9.700000
v 10.200000 2.699998 9.600000
v 11.400000 2.699998 9.600000
v 10.200000 2.899999 9.500000
v 10.400000 2.899999 9.500000
v 11.300000 2.899999 9.500000
v 11.400000 2.899999 9.500000
v 11.400000 2.899999 9.400000
vt 0.438976 0.874102
vt 0.438976 0.936409
vt 0.407823 0.936409
vt 0.407823 0.874102
vt 0.689233 0.967563
vt 0.720387 0.967563
vt 0.720387 0.998716
vt 0.689233 0.998716
vt 0.375642 0.999229
vt 0.344488 0.999229
vt 0.344488 0.936922
vt 0.375642 0.936922
vt 0.126926 0.967563
vt 0.158079 0.967563
vt 0.158079 0.998716
vt 0.126926 0.998716
vt 0.814875 0.874102
vt 0.814875 0.842948
vt 0.846028 0.842948
vt 0.846028 0.936409
vt 0.783721 0.936409
vt 0.783721 0.874102
vt 0.253080 0.873588
vt 0.253080 0.967050
vt 0.221927 0.967050
vt 0.221927 0.873588
vt 0.031410 0.998202
vt 0.000257 0.998202
vt 0.000257 0.873588
vt 0.031410 0.873588
vt 0.031410 0.904741
vt 0.253594 0.967563
vt 0.284748 0.967563
vt 0.284748 0.998716
vt 0.253594 0.998716
vt 0.221927 0.967563
vt 0.253081 0.967563
vt 0.253081 0.998716
vt 0.221927 0.998716
vt 0.564618 0.936922
vt 0.595772 0.936922
vt 0.595772 0.968076
vt 0.564618 0.968076
vt 0.095258 0.967563
vt 0.126412 0.967563
vt 0.126412 0.998716
vt 0.095258 0.998716
vt 0.910390 0.967562
vt 0.879236 0.967562
vt 0.879236 0.936408
vt 0.879236 0.811793
vt 0.910390 0.811793
vt 0.063591 0.967563
vt 0.094745 0.967563
vt 0.094745 0.998716
vt 0.063591 0.998716
vt 0.189746 0.499229
vt 0.189746 0.873075
vt 0.158593 0.873075
vt 0.158593 0.499229
vt 0.564104 0.936409
vt 0.532950 0.936409
vt 0.532950 0.874101
vt 0.564104 0.874101
vt 0.688719 0.374102
vt 0.626412 0.374102
vt 0.626412 0.000257
vt 0.688719 0.000257
vt 0.720900 0.936409
vt 0.720900 0.842948
vt 0.752054 0.842948
vt 0.752054 0.874102
vt 0.783208 0.874102
vt 0.783208 0.936409
vt 0.158079 0.873588
vt 0.158079 0.967049
vt 0.126925 0.967049
vt 0.126925 0.873588
vt 0.438976 0.999229
vt 0.407823 0.999229
vt 0.407823 0.936922
vt 0.438976 0.936922
vt 0.942571 0.530383
vt 0.942571 0.405768
vt 0.942571 0.374615
vt 0.973724 0.374615
vt 0.973724 0.530383
vt 0.942570 0.312820
vt 0.973724 0.312820
vt 0.973724 0.343974
vt 0.942570 0.343974
vt 0.284748 0.873075
vt 0.253594 0.873075
vt 0.253594 0.499229
vt 0.284748 0.499229
vt 0.375642 0.874102
vt 0.375642 0.936409
vt 0.344488 0.936409
vt 0.344488 0.874102
vt 0.563591 0.748460
vt 0.501284 0.748460
vt 0.501284 0.374615
vt 0.563591 0.374615
vt 0.595772 0.968589
vt 0.595772 0.999743
vt 0.564618 0.999743
vt 0.564618 0.968589
vt 0.720387 0.873588
vt 0.720387 0.967050
vt 0.689233 0.967050
vt 0.689233 0.873588
vt 0.627439 0.968589
vt 0.627439 0.999743
vt 0.596285 0.999743
vt 0.596285 0.968589
vt 0.659106 0.874101
vt 0.659106 0.936409
vt 0.627953 0.936409
vt 0.627953 0.874101
vt 0.942571 0.781154
vt 0.973724 0.781154
vt 0.973724 0.905768
vt 0.942571 0.905768
vt 0.846542 0.968076
vt 0.877695 0.968076
vt 0.877695 0.999229
vt 0.846542 0.999229
vt 0.312821 0.374615
vt 0.375128 0.374615
vt 0.375128 0.748460
vt 0.312821 0.748460
vt 0.406282 0.873589
vt 0.312821 0.873589
vt 0.312821 0.748973
vt 0.406282 0.748973
vt 0.470643 0.874102
vt 0.470643 0.936409
vt 0.439489 0.936409
vt 0.439489 0.874102
vt 0.532437 0.874101
vt 0.532437 0.936409
vt 0.501284 0.936409
vt 0.501284 0.874101
vt 0.437949 0.748460
vt 0.375642 0.748460
vt 0.375642 0.592691
vt 0.406796 0.592691
vt 0.406796 0.530383
vt 0.375642 0.530383
vt 0.375642 0.374615
vt 0.437949 0.374615
vt 0.720900 0.936922
vt 0.752054 0.936922
vt 0.752054 0.968076
vt 0.720900 0.968076
vt 0.221414 0.873075
vt 0.190260 0.873075
vt 0.190260 0.499229
vt 0.221414 0.499229
vt 0.627953 0.936922
vt 0.659106 0.936922
vt 0.659106 0.968076
vt 0.627953 0.968076
vt 0.878209 0.968076
vt 0.909363 0.968076
vt 0.909363 0.999229
vt 0.878209 0.999229
vt 0.846028 0.748973
vt 0.846028 0.842434
vt 0.783721 0.842434
vt 0.783721 0.780127
vt 0.814875 0.780127
vt 0.814875 0.748973
vt 0.156539 0.498716
vt 0.156539 0.000257
vt 0.218846 0.000257
vt 0.218846 0.124871
vt 0.250000 0.124871
vt 0.250000 0.062564
vt 0.312308 0.062564
vt 0.312308 0.436409
vt 0.250000 0.436409
vt 0.250000 0.405255
vt 0.250000 0.374102
vt 0.250000 0.156025
vt 0.218846 0.156025
vt 0.218846 0.374102
vt 0.187693 0.374102
vt 0.218846 0.405255
vt 0.218846 0.498716
vt 0.532951 0.936922
vt 0.564105 0.936922
vt 0.564105 0.968076
vt 0.532951 0.968076
vt 0.879236 0.374615
vt 0.910390 0.374615
vt 0.910390 0.592691
vt 0.879236 0.592691
vt 0.784234 0.374615
vt 0.815388 0.374615
vt 0.815388 0.748460
vt 0.784234 0.748460
vt 0.596285 0.936922
vt 0.627439 0.936922
vt 0.627439 0.968076
vt 0.596285 0.968076
vt 0.973724 0.156539
vt 0.973724 0.312307
vt 0.942570 0.312307
vt 0.942570 0.156539
vt 0.253081 0.499229
vt 0.253081 0.873075
vt 0.221927 0.873075
vt 0.221927 0.499229
vt 0.626925 0.374615
vt 0.658079 0.374615
vt 0.658079 0.748460
vt 0.626925 0.748460
vt 0.063591 0.967050
vt 0.063591 0.873589
vt 0.094745 0.873589
vt 0.094745 0.967050
vt 0.564104 0.374615
vt 0.626412 0.374615
vt 0.626412 0.748460
vt 0.564104 0.748460
vt 0.595772 0.874101
vt 0.595772 0.936409
vt 0.564618 0.936409
vt 0.564618 0.874101
vt 0.625898 0.374102
vt 0.563591 0.374102
vt 0.563591 0.000257
vt 0.625898 0.000257
vt 0.563078 0.000257
vt 0.563078 0.374102
vt 0.500770 0.374102
vt 0.500770 0.000257
vt 0.031924 0.967563
vt 0.063078 0.967563
vt 0.063078 0.998716
vt 0.031924 0.998716
vt 0.189747 0.967049
vt 0.158593 0.967049
vt 0.158593 0.873588
vt 0.189747 0.873588
vt 0.063078 0.499229
vt 0.063078 0.748460
vt 0.063078 0.873075
vt 0.031924 0.873075
vt 0.031924 0.499229
vt 0.093718 0.342948
vt 0.093718 0.124872
vt 0.093718 0.093718
vt 0.093718 0.062565
vt 0.156025 0.062565
vt 0.156025 0.187180
vt 0.156025 0.436409
vt 0.093718 0.436409
vt 0.093718 0.374102
vt 0.062564 0.374102
vt 0.062564 0.498716
vt 0.000257 0.498716
vt 0.000257 0.000257
vt 0.062564 0.000257
vt 0.062564 0.093718
vt 0.062564 0.124872
vt 0.062564 0.342948
vt 0.126412 0.873075
vt 0.095258 0.873075
vt 0.095258 0.499229
vt 0.126412 0.499229
vt 0.343974 0.874102
vt 0.343974 0.936409
vt 0.312820 0.936409
vt 0.312820 0.874102
vt 0.627439 0.874101
vt 0.627439 0.936409
vt 0.596285 0.936409
vt 0.596285 0.874101
vt 0.406796 0.000257
vt 0.500257 0.000257
vt 0.500257 0.374102
vt 0.406796 0.374102
vt 0.877695 0.905255
vt 0.877695 0.967563
vt 0.846541 0.967563
vt 0.846541 0.905255
vt 0.221414 0.873588
vt 0.221414 0.967049
vt 0.190260 0.967049
vt 0.190260 0.873588
vt 0.343974 0.999229
vt 0.312820 0.999229
vt 0.312820 0.936922
vt 0.343974 0.936922
vt 0.500770 0.374615
vt 0.500770 0.748460
vt 0.438463 0.748460
vt 0.438463 0.592691
vt 0.469616 0.592691
vt 0.469616 0.530383
vt 0.438463 0.530383
vt 0.438463 0.374615
vt 0.877695 0.748973
vt 0.877695 0.904741
vt 0.846541 0.904741
vt 0.846541 0.873589
vt 0.846541 0.748973
vt 0.942057 0.156025
vt 0.910903 0.156025
vt 0.910903 0.031410
vt 0.910903 0.000257
vt 0.942057 0.000257
vt 0.407309 0.874102
vt 0.407309 0.936409
vt 0.376155 0.936409
vt 0.376155 0.874102
vt 0.942057 0.156539
vt 0.942057 0.312307
vt 0.910903 0.312307
vt 0.910903 0.156539
vt 0.720900 0.374615
vt 0.752053 0.374615
vt 0.752053 0.748460
vt 0.720900 0.748460
vt 0.942057 0.312820
vt 0.942057 0.343974
vt 0.910903 0.343974
vt 0.910903 0.312820
vt 0.158079 0.499229
vt 0.158079 0.873075
vt 0.126926 0.873075
vt 0.126926 0.499229
vt 0.284748 0.873588
vt 0.284748 0.967049
vt 0.253594 0.967049
vt 0.253594 0.873588
vt 0.878722 0.000257
vt 0.878722 0.374102
vt 0.847569 0.374102
vt 0.847569 0.000257
vt 0.406282 0.000257
vt 0.406282 0.374102
vt 0.312821 0.374102
vt 0.312821 0.000257
vt 0.815902 0.374615
vt 0.847055 0.374615
vt 0.847055 0.748460
vt 0.815902 0.748460
vt 0.910903 0.374615
vt 0.942057 0.374615
vt 0.942057 0.530383
vt 0.910903 0.530383
vt 0.752567 0.000257
vt 0.783721 0.000257
vt 0.783721 0.374102
vt 0.752567 0.374102
vt 0.752053 0.374102
vt 0.720900 0.374102
vt 0.720900 0.000257
vt 0.752053 0.000257
vt 0.942571 0.530897
vt 0.973724 0.530897
vt 0.973724 0.624358
vt 0.973724 0.655513
vt 0.942571 0.655513
vt 0.689233 0.499229
vt 0.720387 0.499229
vt 0.720387 0.873075
vt 0.689233 0.873075
vt 0.063591 0.873075
vt 0.063591 0.499229
vt 0.094745 0.499229
vt 0.094745 0.873075
vt 0.501284 0.873588
vt 0.501284 0.780127
vt 0.501284 0.748973
vt 0.594745 0.748973
vt 0.594745 0.873588
vt 0.470643 0.936923
vt 0.470643 0.999230
vt 0.439489 0.999230
vt 0.439489 0.936923
vt 0.942057 0.968076
vt 0.910903 0.968076
vt 0.910903 0.843461
vt 0.942057 0.843461
vt 0.500257 0.748973
vt 0.500257 0.873589
vt 0.406795 0.873589
vt 0.406795 0.842434
vt 0.406795 0.748973
vt 0.910390 0.811281
vt 0.879236 0.811281
vt 0.879236 0.593204
vt 0.910390 0.593204
vt 0.720900 0.842434
vt 0.720900 0.748973
vt 0.752054 0.748973
vt 0.752054 0.780127
vt 0.783208 0.780127
vt 0.783208 0.842434
vt 0.752567 0.936922
vt 0.783721 0.936922
vt 0.783721 0.968076
vt 0.752567 0.968076
vt 0.973724 0.780641
vt 0.942571 0.780641
vt 0.942571 0.656025
vt 0.973724 0.656025
vt 0.126412 0.873588
vt 0.126412 0.967049
vt 0.095259 0.967049
vt 0.095259 0.873588
vt 0.784234 0.936922
vt 0.815388 0.936922
vt 0.815388 0.968076
vt 0.784234 0.968076
vt 0.158593 0.967563
vt 0.189747 0.967563
vt 0.189747 0.998716
vt 0.158593 0.998716
vt 0.942057 0.842947
vt 0.910903 0.842947
vt 0.910903 0.687179
vt 0.942057 0.687179
vt 0.910903 0.530897
vt 0.942057 0.530897
vt 0.942057 0.686666
vt 0.910903 0.686666
vt 0.973724 0.906282
vt 0.973724 0.968590
vt 0.942571 0.968590
vt 0.942571 0.906282
vt 0.847055 0.374102
vt 0.815902 0.374102
vt 0.815902 0.000257
vt 0.847055 0.000257
vt 0.815388 0.374102
vt 0.784234 0.374102
vt 0.784234 0.000257
vt 0.815388 0.000257
vt 0.910390 0.374102
vt 0.879236 0.374102
vt 0.879236 0.000257
vt 0.910390 0.000257
vt 0.031410 0.873075
vt 0.000257 0.873075
vt 0.000257 0.499229
vt 0.031410 0.499229
vt 0.063078 0.873588
vt 0.063078 0.967049
vt 0.031924 0.967049
vt 0.031924 0.873588
vt 0.688719 0.873588
vt 0.595258 0.873588
vt 0.595258 0.748973
vt 0.688719 0.748973
vt 0.783721 0.374615
vt 0.783721 0.748460
vt 0.752567 0.748460
vt 0.752567 0.374615
vt 0.564104 0.968590
vt 0.564104 0.999743
vt 0.532950 0.999743
vt 0.532950 0.968590
vt 0.847569 0.374615
vt 0.878722 0.374615
vt 0.878722 0.748460
vt 0.847569 0.748460
vt 0.973724 0.000257
vt 0.973724 0.156025
vt 0.942570 0.156025
vt 0.942570 0.000257
vt 0.376155 0.936922
vt 0.407309 0.936922
vt 0.407309 0.999229
vt 0.376155 0.999229
vt 0.720387 0.000257
vt 0.720387 0.498716
vt 0.689233 0.498716
vt 0.689233 0.000257
vt 0.532437 0.936922
vt 0.532437 0.999230
vt 0.501284 0.999230
vt 0.501284 0.936922
vt 0.190260 0.998716
vt 0.190260 0.967563
vt 0.221414 0.967563
vt 0.221414 0.998716
vn -1.0000 0.0000 0.0000
vn 0.0000 -1.0000 0.0000
vn 1.0000 0.0000 0.0000
vn 0.0000 0.0000 -1.0000
vn 0.0000 0.0000 1.0000
vn 0.0000 1.0000 0.0000
usemtl Simple_Banner_Green
s off
f 3/1/1 1/2/1 109/3/1 2/4/1
f 76/5/1 75/6/1 135/7/1 110/8/1
f 89/9/2 88/10/2 20/11/2 87/12/2
f 77/13/3 111/14/3 112/15/3 26/16/3
f 71/17/4 70/18/4 116/19/4 118/20/4 89/21/4 87/22/4
f 119/23/1 61/24/1 42/25/1 6/26/1
f 117/27/2 46/28/2 18/29/2 17/30/2 92/31/2
f 69/32/1 16/33/1 51/34/1 125/35/1
f 22/36/1 81/37/1 21/38/1 113/39/1
f 65/40/1 10/41/1 13/42/1 105/43/1
f 23/44/3 90/45/3 24/46/3 85/47/3
f 125/48/5 51/49/5 19/50/5 53/51/5 32/52/5
f 123/53/1 7/54/1 119/55/1 47/56/1
f 62/57/5 100/58/5 99/59/5 54/60/5
f 41/61/3 40/62/3 60/63/3 115/64/3
f 131/65/5 45/66/5 37/67/5 38/68/5
f 117/69/5 92/70/5 91/71/5 52/72/5 20/73/5 88/74/5
f 12/75/1 11/76/1 103/77/1 10/78/1
f 23/79/2 85/80/2 86/81/2 4/82/2
f 119/83/5 29/84/5 93/85/5 124/86/5 47/87/5
f 31/88/3 72/89/3 32/90/3 53/91/3
f 105/92/5 13/93/5 55/94/5 106/95/5
f 33/96/3 127/97/3 126/98/3 72/99/3
f 48/100/5 128/101/5 101/102/5 129/103/5
f 62/104/3 101/105/3 35/106/3 34/107/3
f 19/108/1 17/109/1 18/110/1 121/111/1
f 128/112/1 100/113/1 44/114/1 43/115/1
f 103/116/1 64/117/1 128/118/1 48/119/1
f 122/120/6 53/121/6 19/122/6 121/123/6
f 68/124/3 25/125/3 50/126/3 49/127/3
f 56/128/5 133/129/5 132/130/5 107/131/5
f 6/132/5 42/133/5 27/134/5 120/135/5
f 39/136/3 108/137/3 133/138/3 56/139/3
f 84/140/3 138/141/3 137/142/3 108/143/3
f 63/144/5 123/145/5 57/146/5 97/147/5 58/148/5 69/149/5 72/150/5 126/151/5
f 78/152/3 96/153/3 97/154/3 57/155/3
f 73/156/4 126/157/4 63/158/4 9/159/4
f 126/160/3 73/161/3 62/162/3 54/163/3
f 116/164/1 70/165/1 91/166/1 92/167/1
f 50/168/5 61/169/5 86/170/5 85/171/5 24/172/5 49/173/5
f 40/174/5 2/175/5 109/176/5 110/177/5 135/178/5 134/179/5 67/180/5 108/181/5 137/182/5 136/183/5 21/184/5 26/185/5 112/186/5 113/187/5 59/188/5 114/189/5 60/190/5
f 104/191/3 36/192/3 106/193/3 55/194/3
f 21/195/6 81/196/6 77/197/6 26/198/6
f 133/199/6 108/200/6 67/201/6 132/202/6
f 98/203/1 79/204/1 69/205/1 58/206/1
f 123/207/4 57/208/4 94/209/4 7/210/4
f 65/211/4 36/212/4 104/213/4 10/214/4
f 106/215/6 36/216/6 65/217/6 105/218/6
f 60/219/2 114/220/2 82/221/2 115/222/2
f 64/223/4 103/224/4 74/225/4 102/226/4
f 8/227/1 95/228/1 123/229/1 63/230/1
f 56/231/4 106/232/4 105/233/4 107/234/4
f 67/235/4 108/236/4 39/237/4 66/238/4
f 71/239/1 87/240/1 20/241/1 52/242/1
f 116/243/6 92/244/6 117/245/6 118/246/6
f 14/247/2 80/248/2 84/249/2 108/250/2 67/251/2
f 77/252/4 81/253/4 30/254/4 138/255/4 84/256/4 80/257/4
f 14/258/4 15/259/4 75/260/4 76/261/4 1/262/4 3/263/4 41/264/4 115/265/4 82/266/4 30/254/4 81/253/4 22/267/4 111/268/4 77/252/4 80/257/4
f 43/269/5 44/270/5 34/271/5 35/272/5
f 15/273/1 14/274/1 67/275/1 134/276/1
f 102/277/3 74/278/3 129/279/3 101/280/3
f 11/281/4 12/282/4 130/283/4 83/284/4
f 89/285/3 118/286/3 117/287/3 88/288/3
f 117/289/3 53/290/3 122/291/3 46/292/3
f 98/293/2 58/294/2 97/295/2 96/296/2
f 8/297/4 127/298/4 33/299/4 79/300/4 98/301/4 96/302/4 78/303/4 95/304/4
f 7/305/2 94/306/2 93/307/2 29/308/2 119/309/2
f 31/310/2 53/311/2 19/312/2 51/313/2 16/314/2
f 67/315/1 66/316/1 107/317/1 132/318/1
f 79/319/2 33/320/2 72/321/2 69/322/2
f 114/189/5 59/188/5 113/187/5 21/184/5 136/183/5
f 99/323/2 63/324/2 126/325/2 54/326/2
f 68/327/2 49/328/2 24/329/2 90/330/2
f 128/331/4 101/332/4 62/333/4 100/334/4
f 28/335/3 29/336/3 120/337/3 27/338/3
f 100/339/2 62/340/2 34/341/2 44/342/2
f 104/343/5 10/344/5 103/345/5 74/346/5
f 128/347/2 64/348/2 102/349/2 101/350/2
f 123/351/2 95/352/2 78/353/2 57/354/2
f 103/355/2 11/356/2 83/357/2 74/358/2
f 104/359/2 55/360/2 13/361/2 10/362/2
f 42/363/2 61/364/2 50/365/2 28/366/2 27/367/2
f 45/368/2 105/369/2 106/370/2 37/371/2
f 56/372/2 107/373/2 66/374/2 39/375/2
f 117/376/4 92/377/4 17/378/4 19/379/4 53/380/4
f 106/381/3 56/382/3 38/383/3 37/384/3
f 76/385/2 110/386/2 109/387/2 1/388/2
f 119/389/4 29/390/4 28/391/4 50/392/4 61/393/4
f 22/394/2 113/395/2 112/396/2 111/397/2
f 5/398/4 25/399/4 68/400/4 90/401/4 23/402/4 4/403/4
f 9/404/1 63/405/1 99/406/1 100/407/1
f 119/408/6 6/409/6 120/410/6 29/411/6
f 25/412/6 5/413/6 61/414/6 50/415/6
f 94/416/3 57/417/3 124/418/3 93/419/3
f 30/420/3 82/421/3 114/422/3 136/423/3
f 123/424/6 47/425/6 124/426/6 57/427/6
f 32/428/6 72/429/6 69/430/6 125/431/6
f 5/432/1 4/433/1 86/434/1 61/435/1
f 8/436/6 63/437/6 126/438/6 127/439/6
f 9/440/6 100/441/6 62/442/6 73/443/6
f 128/444/6 43/445/6 35/446/6 101/447/6
f 103/448/6 48/449/6 129/450/6 74/451/6
f 83/452/3 130/453/3 104/454/3 74/455/3
f 121/456/5 18/457/5 46/458/5 122/459/5
f 130/460/6 12/461/6 10/462/6 104/463/6
f 71/464/2 52/465/2 91/466/2 70/467/2
f 38/468/6 56/469/6 107/470/6 131/471/6
f 69/472/4 72/473/4 31/474/4 16/475/4
f 135/476/6 75/477/6 15/478/6 134/479/6
f 41/480/6 3/481/6 2/482/6 40/483/6
f 107/484/1 105/485/1 45/486/1 131/487/1
f 137/488/6 138/489/6 30/490/6 136/491/6
