# MagicaVoxel @ Ephtracy

# group
o 

# material
mtllib Interior_Furniture_Misc_Clock_02.mtl
usemtl palette

# normals
vn 0 0 -1
vn 0 0 1
vn -1 0 0
vn 1 0 0
vn 0 -1 0
vn 0 1 0

# texcoords
vt 0.876953 0.5
vt 0.880859 0.5
vt 0.884766 0.5
vt 0.888672 0.5
vt 0.935547 0.5

# verts
v -0.5 0 -0.3
v -0.4 0 -0.3
v 0.3 0 -0.3
v 0.4 0 -0.3
v -0.5 0.1 -0.3
v -0.4 0.1 -0.3
v 0.3 0.1 -0.3
v 0.4 0.1 -0.3
v -0.5 0.2 -0.3
v -0.4 0.2 -0.3
v 0.3 0.2 -0.3
v 0.4 0.2 -0.3
v -0.5 0.8 -0.3
v -0.4 0.8 -0.3
v 0.3 0.8 -0.3
v 0.4 0.8 -0.3
v -0.5 0.9 -0.3
v -0.4 0.9 -0.3
v -0.3 0.9 -0.3
v 0.2 0.9 -0.3
v 0.3 0.9 -0.3
v 0.4 0.9 -0.3
v -0.4 1 -0.3
v -0.3 1 -0.3
v -0.2 1 -0.3
v 0.1 1 -0.3
v 0.2 1 -0.3
v 0.3 1 -0.3
v -0.3 1.1 -0.3
v -0.2 1.1 -0.3
v 0.1 1.1 -0.3
v 0.2 1.1 -0.3
v -0.5 0 0.2
v -0.4 0 0.2
v 0.3 0 0.2
v 0.4 0 0.2
v -0.5 0.1 0.2
v -0.4 0.1 0.2
v 0.3 0.1 0.2
v 0.4 0.1 0.2
v -0.5 0 -0.2
v -0.4 0 -0.2
v 0.3 0 -0.2
v 0.4 0 -0.2
v -0.5 0.1 -0.2
v -0.4 0.1 -0.2
v 0.3 0.1 -0.2
v 0.4 0.1 -0.2
v -0.4 0.2 0.1
v 0.3 0.2 0.1
v -0.2 0.3 0.1
v 0.1 0.3 0.1
v -0.3 0.4 0.1
v -0.2 0.4 0.1
v 0.1 0.4 0.1
v 0.2 0.4 0.1
v -0.3 0.7 0.1
v -0.2 0.7 0.1
v 0.1 0.7 0.1
v 0.2 0.7 0.1
v -0.4 0.8 0.1
v -0.2 0.8 0.1
v 0.1 0.8 0.1
v 0.3 0.8 0.1
v -0.4 0.9 0.1
v -0.3 0.9 0.1
v 0.2 0.9 0.1
v 0.3 0.9 0.1
v -0.3 1 0.1
v -0.2 1 0.1
v 0.1 1 0.1
v 0.2 1 0.1
v -0.2 0.3 0.2
v 0.1 0.3 0.2
v -0.3 0.4 0.2
v -0.2 0.4 0.2
v 0.1 0.4 0.2
v 0.2 0.4 0.2
v -0.1 0.5 0.2
v 0 0.5 0.2
v -0.1 0.6 0.2
v 0 0.6 0.2
v -0.3 0.7 0.2
v -0.2 0.7 0.2
v -0.1 0.7 0.2
v 0 0.7 0.2
v 0.1 0.7 0.2
v 0.2 0.7 0.2
v -0.2 0.8 0.2
v 0.1 0.8 0.2
v -0.5 0 0.3
v -0.4 0 0.3
v 0.3 0 0.3
v 0.4 0 0.3
v -0.5 0.1 0.3
v -0.4 0.1 0.3
v 0.3 0.1 0.3
v 0.4 0.1 0.3
v -0.5 0.2 0.3
v -0.4 0.2 0.3
v 0.3 0.2 0.3
v 0.4 0.2 0.3
v -0.5 0.8 0.3
v -0.4 0.8 0.3
v 0.3 0.8 0.3
v 0.4 0.8 0.3
v -0.5 0.9 0.3
v -0.4 0.9 0.3
v -0.3 0.9 0.3
v 0.2 0.9 0.3
v 0.3 0.9 0.3
v 0.4 0.9 0.3
v -0.4 1 0.3
v -0.3 1 0.3
v -0.2 1 0.3
v 0.1 1 0.3
v 0.2 1 0.3
v 0.3 1 0.3
v -0.3 1.1 0.3
v -0.2 1.1 0.3
v 0.1 1.1 0.3
v 0.2 1.1 0.3
v -0.5 0 -0.3
v -0.5 0.1 -0.3
v -0.5 0.2 -0.3
v -0.5 0.8 -0.3
v -0.5 0.9 -0.3
v -0.5 0 -0.2
v -0.5 0.1 -0.2
v -0.5 0.2 -0.2
v -0.5 0.8 -0.2
v -0.5 0.9 -0.2
v -0.5 0 0.2
v -0.5 0.1 0.2
v -0.5 0.2 0.2
v -0.5 0.8 0.2
v -0.5 0.9 0.2
v -0.5 0 0.3
v -0.5 0.1 0.3
v -0.5 0.2 0.3
v -0.5 0.8 0.3
v -0.5 0.9 0.3
v -0.4 0.9 -0.3
v -0.4 1 -0.3
v -0.4 0.9 -0.2
v -0.4 1 -0.2
v -0.4 0.9 0.2
v -0.4 1 0.2
v -0.4 0.9 0.3
v -0.4 1 0.3
v -0.3 1 -0.3
v -0.3 1.1 -0.3
v -0.3 1 -0.2
v -0.3 1.1 -0.2
v -0.3 0.4 0.1
v -0.3 0.7 0.1
v -0.3 0.4 0.2
v -0.3 0.7 0.2
v -0.3 1 0.2
v -0.3 1.1 0.2
v -0.3 1 0.3
v -0.3 1.1 0.3
v -0.2 0.3 0.1
v -0.2 0.4 0.1
v -0.2 0.7 0.1
v -0.2 0.8 0.1
v -0.2 0.3 0.2
v -0.2 0.4 0.2
v -0.2 0.7 0.2
v -0.2 0.8 0.2
v 0.2 0.9 0.1
v 0.2 1 0.1
v 0.2 0.9 0.2
v 0.2 1 0.2
v 0.2 0.9 0.3
v 0.2 1 0.3
v 0.3 0 -0.3
v 0.3 0.1 -0.3
v 0.3 0 -0.2
v 0.3 0.1 -0.2
v 0.3 0.2 0.1
v 0.3 0.8 0.1
v 0.3 0.9 0.1
v 0.3 0 0.2
v 0.3 0.1 0.2
v 0.3 0.2 0.2
v 0.3 0.8 0.2
v 0.3 0.9 0.2
v 0.3 0 0.3
v 0.3 0.1 0.3
v 0.3 0.2 0.3
v 0.3 0.8 0.3
v 0.3 0.9 0.3
v -0.4 0 -0.3
v -0.4 0.1 -0.3
v -0.4 0 -0.2
v -0.4 0.1 -0.2
v -0.4 0.2 0.1
v -0.4 0.8 0.1
v -0.4 0.9 0.1
v -0.4 0 0.2
v -0.4 0.1 0.2
v -0.4 0.2 0.2
v -0.4 0.8 0.2
v -0.4 0.9 0.2
v -0.4 0 0.3
v -0.4 0.1 0.3
v -0.4 0.2 0.3
v -0.4 0.8 0.3
v -0.4 0.9 0.3
v -0.3 0.9 0.1
v -0.3 1 0.1
v -0.3 0.9 0.2
v -0.3 1 0.2
v -0.3 0.9 0.3
v -0.3 1 0.3
v 0.1 0.3 0.1
v 0.1 0.4 0.1
v 0.1 0.7 0.1
v 0.1 0.8 0.1
v 0.1 0.3 0.2
v 0.1 0.4 0.2
v 0.1 0.7 0.2
v 0.1 0.8 0.2
v 0.2 1 -0.3
v 0.2 1.1 -0.3
v 0.2 1 -0.2
v 0.2 1.1 -0.2
v 0.2 0.4 0.1
v 0.2 0.7 0.1
v 0.2 0.4 0.2
v 0.2 0.7 0.2
v 0.2 1 0.2
v 0.2 1.1 0.2
v 0.2 1 0.3
v 0.2 1.1 0.3
v 0.3 0.9 -0.3
v 0.3 1 -0.3
v 0.3 0.9 -0.2
v 0.3 1 -0.2
v 0.3 0.9 0.2
v 0.3 1 0.2
v 0.3 0.9 0.3
v 0.3 1 0.3
v 0.4 0 -0.3
v 0.4 0.1 -0.3
v 0.4 0.2 -0.3
v 0.4 0.8 -0.3
v 0.4 0.9 -0.3
v 0.4 0 -0.2
v 0.4 0.1 -0.2
v 0.4 0.2 -0.2
v 0.4 0.8 -0.2
v 0.4 0.9 -0.2
v 0.4 0 0.2
v 0.4 0.1 0.2
v 0.4 0.2 0.2
v 0.4 0.8 0.2
v 0.4 0.9 0.2
v 0.4 0 0.3
v 0.4 0.1 0.3
v 0.4 0.2 0.3
v 0.4 0.8 0.3
v 0.4 0.9 0.3
v -0.5 0 -0.3
v -0.5 0 -0.2
v -0.5 0 0.2
v -0.5 0 0.3
v -0.4 0 -0.3
v -0.4 0 -0.2
v -0.4 0 0.2
v -0.4 0 0.3
v 0.3 0 -0.3
v 0.3 0 -0.2
v 0.3 0 0.2
v 0.3 0 0.3
v 0.4 0 -0.3
v 0.4 0 -0.2
v 0.4 0 0.2
v 0.4 0 0.3
v -0.5 0.1 -0.2
v -0.5 0.1 0.2
v -0.4 0.1 -0.3
v -0.4 0.1 -0.2
v -0.4 0.1 0.1
v -0.4 0.1 0.2
v -0.4 0.1 0.3
v 0.3 0.1 -0.3
v 0.3 0.1 -0.2
v 0.3 0.1 0.1
v 0.3 0.1 0.2
v 0.3 0.1 0.3
v 0.4 0.1 -0.2
v 0.4 0.1 0.2
v -0.2 0.3 0.1
v -0.2 0.3 0.2
v 0.1 0.3 0.1
v 0.1 0.3 0.2
v -0.3 0.4 0.1
v -0.3 0.4 0.2
v -0.2 0.4 0.1
v -0.2 0.4 0.2
v 0.1 0.4 0.1
v 0.1 0.4 0.2
v 0.2 0.4 0.1
v 0.2 0.4 0.2
v -0.4 0.9 0.1
v -0.4 0.9 0.2
v -0.4 0.9 0.3
v -0.3 0.9 0.1
v -0.3 0.9 0.2
v -0.3 0.9 0.3
v 0.2 0.9 0.1
v 0.2 0.9 0.2
v 0.2 0.9 0.3
v 0.3 0.9 0.1
v 0.3 0.9 0.2
v 0.3 0.9 0.3
v -0.3 1 0.1
v -0.3 1 0.2
v -0.3 1 0.3
v -0.2 1 0.1
v -0.2 1 0.2
v -0.2 1 0.3
v 0.1 1 0.1
v 0.1 1 0.2
v 0.1 1 0.3
v 0.2 1 0.1
v 0.2 1 0.2
v 0.2 1 0.3
v -0.4 0.2 0.1
v -0.4 0.2 0.2
v -0.4 0.2 0.3
v 0.3 0.2 0.1
v 0.3 0.2 0.2
v 0.3 0.2 0.3
v -0.3 0.7 0.1
v -0.3 0.7 0.2
v -0.2 0.7 0.1
v -0.2 0.7 0.2
v 0.1 0.7 0.1
v 0.1 0.7 0.2
v 0.2 0.7 0.1
v 0.2 0.7 0.2
v -0.2 0.8 0.1
v -0.2 0.8 0.2
v 0.1 0.8 0.1
v 0.1 0.8 0.2
v -0.5 0.9 -0.3
v -0.5 0.9 -0.2
v -0.5 0.9 0.2
v -0.5 0.9 0.3
v -0.4 0.9 -0.3
v -0.4 0.9 -0.2
v -0.4 0.9 0.2
v -0.4 0.9 0.3
v 0.3 0.9 -0.3
v 0.3 0.9 -0.2
v 0.3 0.9 0.2
v 0.3 0.9 0.3
v 0.4 0.9 -0.3
v 0.4 0.9 -0.2
v 0.4 0.9 0.2
v 0.4 0.9 0.3
v -0.4 1 -0.3
v -0.4 1 -0.2
v -0.4 1 0.2
v -0.4 1 0.3
v -0.3 1 -0.3
v -0.3 1 -0.2
v -0.3 1 0.2
v -0.3 1 0.3
v 0.2 1 -0.3
v 0.2 1 -0.2
v 0.2 1 0.2
v 0.2 1 0.3
v 0.3 1 -0.3
v 0.3 1 -0.2
v 0.3 1 0.2
v 0.3 1 0.3
v -0.3 1.1 -0.3
v -0.3 1.1 -0.2
v -0.3 1.1 0.2
v -0.3 1.1 0.3
v -0.2 1.1 -0.3
v -0.2 1.1 -0.2
v -0.2 1.1 0.2
v -0.2 1.1 0.3
v 0.1 1.1 -0.3
v 0.1 1.1 -0.2
v 0.1 1.1 0.2
v 0.1 1.1 0.3
v 0.2 1.1 -0.3
v 0.2 1.1 -0.2
v 0.2 1.1 0.2
v 0.2 1.1 0.3

# faces
f 5/1/1 2/1/1 1/1/1
f 6/1/1 2/1/1 5/1/1
f 7/1/1 4/1/1 3/1/1
f 8/1/1 4/1/1 7/1/1
f 9/2/1 6/2/1 5/2/1
f 10/3/1 7/3/1 6/3/1
f 10/2/1 6/2/1 9/2/1
f 11/2/1 8/2/1 7/2/1
f 11/3/1 7/3/1 10/3/1
f 12/2/1 8/2/1 11/2/1
f 13/3/1 10/3/1 9/3/1
f 14/4/1 11/4/1 10/4/1
f 14/3/1 10/3/1 13/3/1
f 15/3/1 12/3/1 11/3/1
f 15/4/1 11/4/1 14/4/1
f 16/3/1 12/3/1 15/3/1
f 17/2/1 14/2/1 13/2/1
f 18/4/1 15/4/1 14/4/1
f 18/2/1 14/2/1 17/2/1
f 19/4/1 15/4/1 18/4/1
f 20/4/1 15/4/1 19/4/1
f 21/2/1 16/2/1 15/2/1
f 21/4/1 15/4/1 20/4/1
f 22/2/1 16/2/1 21/2/1
f 23/2/1 19/2/1 18/2/1
f 24/4/1 20/4/1 19/4/1
f 24/2/1 19/2/1 23/2/1
f 25/4/1 20/4/1 24/4/1
f 26/4/1 20/4/1 25/4/1
f 27/2/1 21/2/1 20/2/1
f 27/4/1 20/4/1 26/4/1
f 28/2/1 21/2/1 27/2/1
f 29/2/1 25/2/1 24/2/1
f 30/3/1 26/3/1 25/3/1
f 30/2/1 25/2/1 29/2/1
f 31/2/1 27/2/1 26/2/1
f 31/3/1 26/3/1 30/3/1
f 32/2/1 27/2/1 31/2/1
f 37/1/1 34/1/1 33/1/1
f 38/1/1 34/1/1 37/1/1
f 39/1/1 36/1/1 35/1/1
f 40/1/1 36/1/1 39/1/1
f 41/1/2 42/1/2 45/1/2
f 45/1/2 42/1/2 46/1/2
f 43/1/2 44/1/2 47/1/2
f 47/1/2 44/1/2 48/1/2
f 49/4/2 50/4/2 51/4/2
f 51/4/2 50/4/2 52/4/2
f 49/4/2 51/4/2 53/4/2
f 53/4/2 51/4/2 54/4/2
f 52/4/2 50/4/2 55/4/2
f 55/4/2 50/4/2 56/4/2
f 49/4/2 53/4/2 57/4/2
f 56/4/2 50/4/2 60/4/2
f 57/4/2 58/4/2 61/4/2
f 49/4/2 57/4/2 61/4/2
f 61/4/2 58/4/2 62/4/2
f 59/4/2 60/4/2 63/4/2
f 60/4/2 50/4/2 64/4/2
f 63/4/2 60/4/2 64/4/2
f 61/4/2 62/4/2 65/4/2
f 62/4/2 63/4/2 65/4/2
f 63/4/2 64/4/2 65/4/2
f 65/4/2 64/4/2 66/4/2
f 66/4/2 64/4/2 67/4/2
f 67/4/2 64/4/2 68/4/2
f 66/4/2 67/4/2 69/4/2
f 69/4/2 67/4/2 70/4/2
f 70/4/2 67/4/2 71/4/2
f 71/4/2 67/4/2 72/4/2
f 73/5/2 74/5/2 76/5/2
f 76/5/2 74/5/2 77/5/2
f 75/5/2 76/5/2 79/5/2
f 77/5/2 78/5/2 79/5/2
f 76/5/2 77/5/2 79/5/2
f 79/5/2 78/5/2 80/5/2
f 75/5/2 79/5/2 81/5/2
f 79/2/2 80/2/2 81/2/2
f 80/5/2 78/5/2 82/5/2
f 81/2/2 80/2/2 82/2/2
f 75/5/2 81/5/2 83/5/2
f 83/5/2 81/5/2 84/5/2
f 81/4/2 82/4/2 85/4/2
f 84/5/2 81/5/2 85/5/2
f 82/5/2 78/5/2 86/5/2
f 85/4/2 82/4/2 86/4/2
f 86/5/2 78/5/2 87/5/2
f 87/5/2 78/5/2 88/5/2
f 84/5/2 85/5/2 89/5/2
f 86/5/2 87/5/2 89/5/2
f 85/5/2 86/5/2 89/5/2
f 89/5/2 87/5/2 90/5/2
f 91/1/2 92/1/2 95/1/2
f 95/1/2 92/1/2 96/1/2
f 93/1/2 94/1/2 97/1/2
f 97/1/2 94/1/2 98/1/2
f 95/2/2 96/2/2 99/2/2
f 96/3/2 97/3/2 100/3/2
f 99/2/2 96/2/2 100/2/2
f 97/2/2 98/2/2 101/2/2
f 100/3/2 97/3/2 101/3/2
f 101/2/2 98/2/2 102/2/2
f 99/3/2 100/3/2 103/3/2
f 103/3/2 100/3/2 104/3/2
f 101/3/2 102/3/2 105/3/2
f 105/3/2 102/3/2 106/3/2
f 103/2/2 104/2/2 107/2/2
f 107/2/2 104/2/2 108/2/2
f 105/2/2 106/2/2 111/2/2
f 111/2/2 106/2/2 112/2/2
f 108/2/2 109/2/2 113/2/2
f 113/2/2 109/2/2 114/2/2
f 110/2/2 111/2/2 117/2/2
f 117/2/2 111/2/2 118/2/2
f 114/2/2 115/2/2 119/2/2
f 115/3/2 116/3/2 120/3/2
f 119/2/2 115/2/2 120/2/2
f 116/2/2 117/2/2 121/2/2
f 120/3/2 116/3/2 121/3/2
f 121/2/2 117/2/2 122/2/2
f 128/1/3 124/1/3 123/1/3
f 129/2/3 125/2/3 124/2/3
f 129/1/3 124/1/3 128/1/3
f 130/3/3 126/3/3 125/3/3
f 130/2/3 125/2/3 129/2/3
f 131/2/3 127/2/3 126/2/3
f 131/3/3 126/3/3 130/3/3
f 132/2/3 127/2/3 131/2/3
f 134/3/3 130/3/3 129/3/3
f 135/4/3 131/4/3 130/4/3
f 135/3/3 130/3/3 134/3/3
f 136/3/3 132/3/3 131/3/3
f 136/4/3 131/4/3 135/4/3
f 137/3/3 132/3/3 136/3/3
f 138/1/3 134/1/3 133/1/3
f 139/2/3 135/2/3 134/2/3
f 139/1/3 134/1/3 138/1/3
f 140/3/3 136/3/3 135/3/3
f 140/2/3 135/2/3 139/2/3
f 141/2/3 137/2/3 136/2/3
f 141/3/3 136/3/3 140/3/3
f 142/2/3 137/2/3 141/2/3
f 145/2/3 144/2/3 143/2/3
f 146/2/3 144/2/3 145/2/3
f 147/3/3 146/3/3 145/3/3
f 148/3/3 146/3/3 147/3/3
f 149/2/3 148/2/3 147/2/3
f 150/2/3 148/2/3 149/2/3
f 153/2/3 152/2/3 151/2/3
f 154/2/3 152/2/3 153/2/3
f 157/5/3 156/5/3 155/5/3
f 158/5/3 156/5/3 157/5/3
f 159/3/3 154/3/3 153/3/3
f 160/3/3 154/3/3 159/3/3
f 161/2/3 160/2/3 159/2/3
f 162/2/3 160/2/3 161/2/3
f 167/5/3 164/5/3 163/5/3
f 168/5/3 164/5/3 167/5/3
f 169/5/3 166/5/3 165/5/3
f 170/5/3 166/5/3 169/5/3
f 173/3/3 172/3/3 171/3/3
f 174/3/3 172/3/3 173/3/3
f 175/2/3 174/2/3 173/2/3
f 176/2/3 174/2/3 175/2/3
f 179/1/3 178/1/3 177/1/3
f 180/1/3 178/1/3 179/1/3
f 186/4/3 182/4/3 181/4/3
f 187/3/3 183/3/3 182/3/3
f 187/4/3 182/4/3 186/4/3
f 188/3/3 183/3/3 187/3/3
f 189/1/3 185/1/3 184/1/3
f 190/1/3 185/1/3 189/1/3
f 191/3/3 187/3/3 186/3/3
f 192/2/3 188/2/3 187/2/3
f 192/3/3 187/3/3 191/3/3
f 193/2/3 188/2/3 192/2/3
f 194/1/4 195/1/4 196/1/4
f 196/1/4 195/1/4 197/1/4
f 198/4/4 199/4/4 203/4/4
f 199/3/4 200/3/4 204/3/4
f 203/4/4 199/4/4 204/4/4
f 204/3/4 200/3/4 205/3/4
f 201/1/4 202/1/4 206/1/4
f 206/1/4 202/1/4 207/1/4
f 203/3/4 204/3/4 208/3/4
f 204/2/4 205/2/4 209/2/4
f 208/3/4 204/3/4 209/3/4
f 209/2/4 205/2/4 210/2/4
f 211/3/4 212/3/4 213/3/4
f 213/3/4 212/3/4 214/3/4
f 213/2/4 214/2/4 215/2/4
f 215/2/4 214/2/4 216/2/4
f 217/5/4 218/5/4 221/5/4
f 221/5/4 218/5/4 222/5/4
f 219/5/4 220/5/4 223/5/4
f 223/5/4 220/5/4 224/5/4
f 225/2/4 226/2/4 227/2/4
f 227/2/4 226/2/4 228/2/4
f 229/5/4 230/5/4 231/5/4
f 231/5/4 230/5/4 232/5/4
f 227/3/4 228/3/4 233/3/4
f 233/3/4 228/3/4 234/3/4
f 233/2/4 234/2/4 235/2/4
f 235/2/4 234/2/4 236/2/4
f 237/2/4 238/2/4 239/2/4
f 239/2/4 238/2/4 240/2/4
f 239/3/4 240/3/4 241/3/4
f 241/3/4 240/3/4 242/3/4
f 241/2/4 242/2/4 243/2/4
f 243/2/4 242/2/4 244/2/4
f 245/1/4 246/1/4 250/1/4
f 246/2/4 247/2/4 251/2/4
f 250/1/4 246/1/4 251/1/4
f 247/3/4 248/3/4 252/3/4
f 251/2/4 247/2/4 252/2/4
f 248/2/4 249/2/4 253/2/4
f 252/3/4 248/3/4 253/3/4
f 253/2/4 249/2/4 254/2/4
f 251/3/4 252/3/4 256/3/4
f 252/4/4 253/4/4 257/4/4
f 256/3/4 252/3/4 257/3/4
f 253/3/4 254/3/4 258/3/4
f 257/4/4 253/4/4 258/4/4
f 258/3/4 254/3/4 259/3/4
f 255/1/4 256/1/4 260/1/4
f 256/2/4 257/2/4 261/2/4
f 260/1/4 256/1/4 261/1/4
f 257/3/4 258/3/4 262/3/4
f 261/2/4 257/2/4 262/2/4
f 258/2/4 259/2/4 263/2/4
f 262/3/4 258/3/4 263/3/4
f 263/2/4 259/2/4 264/2/4
f 269/1/5 266/1/5 265/1/5
f 270/1/5 266/1/5 269/1/5
f 271/1/5 268/1/5 267/1/5
f 272/1/5 268/1/5 271/1/5
f 277/1/5 274/1/5 273/1/5
f 278/1/5 274/1/5 277/1/5
f 279/1/5 276/1/5 275/1/5
f 280/1/5 276/1/5 279/1/5
f 284/3/5 282/3/5 281/3/5
f 285/3/5 282/3/5 284/3/5
f 286/3/5 282/3/5 285/3/5
f 288/3/5 284/3/5 283/3/5
f 288/3/5 285/3/5 284/3/5
f 289/3/5 285/3/5 288/3/5
f 290/4/5 286/4/5 285/4/5
f 290/3/5 285/3/5 289/3/5
f 291/3/5 287/3/5 286/3/5
f 291/4/5 286/4/5 290/4/5
f 292/3/5 287/3/5 291/3/5
f 293/3/5 290/3/5 289/3/5
f 293/3/5 291/3/5 290/3/5
f 294/3/5 291/3/5 293/3/5
f 297/5/5 296/5/5 295/5/5
f 298/5/5 296/5/5 297/5/5
f 301/5/5 300/5/5 299/5/5
f 302/5/5 300/5/5 301/5/5
f 305/5/5 304/5/5 303/5/5
f 306/5/5 304/5/5 305/5/5
f 310/3/5 308/3/5 307/3/5
f 311/2/5 309/2/5 308/2/5
f 311/3/5 308/3/5 310/3/5
f 312/2/5 309/2/5 311/2/5
f 316/3/5 314/3/5 313/3/5
f 317/2/5 315/2/5 314/2/5
f 317/3/5 314/3/5 316/3/5
f 318/2/5 315/2/5 317/2/5
f 322/3/5 320/3/5 319/3/5
f 323/2/5 321/2/5 320/2/5
f 323/3/5 320/3/5 322/3/5
f 324/2/5 321/2/5 323/2/5
f 325/4/5 323/4/5 322/4/5
f 326/3/5 324/3/5 323/3/5
f 326/4/5 323/4/5 325/4/5
f 327/3/5 324/3/5 326/3/5
f 328/3/5 326/3/5 325/3/5
f 329/2/5 327/2/5 326/2/5
f 329/3/5 326/3/5 328/3/5
f 330/2/5 327/2/5 329/2/5
f 331/4/6 332/4/6 334/4/6
f 332/3/6 333/3/6 335/3/6
f 334/4/6 332/4/6 335/4/6
f 335/3/6 333/3/6 336/3/6
f 337/5/6 338/5/6 339/5/6
f 339/5/6 338/5/6 340/5/6
f 341/5/6 342/5/6 343/5/6
f 343/5/6 342/5/6 344/5/6
f 345/5/6 346/5/6 347/5/6
f 347/5/6 346/5/6 348/5/6
f 349/2/6 350/2/6 353/2/6
f 350/3/6 351/3/6 354/3/6
f 353/2/6 350/2/6 354/2/6
f 351/2/6 352/2/6 355/2/6
f 354/3/6 351/3/6 355/3/6
f 355/2/6 352/2/6 356/2/6
f 357/2/6 358/2/6 361/2/6
f 358/3/6 359/3/6 362/3/6
f 361/2/6 358/2/6 362/2/6
f 359/2/6 360/2/6 363/2/6
f 362/3/6 359/3/6 363/3/6
f 363/2/6 360/2/6 364/2/6
f 365/2/6 366/2/6 369/2/6
f 366/3/6 367/3/6 370/3/6
f 369/2/6 366/2/6 370/2/6
f 367/2/6 368/2/6 371/2/6
f 370/3/6 367/3/6 371/3/6
f 371/2/6 368/2/6 372/2/6
f 373/2/6 374/2/6 377/2/6
f 374/3/6 375/3/6 378/3/6
f 377/2/6 374/2/6 378/2/6
f 375/2/6 376/2/6 379/2/6
f 378/3/6 375/3/6 379/3/6
f 379/2/6 376/2/6 380/2/6
f 381/2/6 382/2/6 385/2/6
f 382/3/6 383/3/6 386/3/6
f 385/2/6 382/2/6 386/2/6
f 383/2/6 384/2/6 387/2/6
f 386/3/6 383/3/6 387/3/6
f 387/2/6 384/2/6 388/2/6
f 385/3/6 386/3/6 389/3/6
f 386/4/6 387/4/6 390/4/6
f 389/3/6 386/3/6 390/3/6
f 387/3/6 388/3/6 391/3/6
f 390/4/6 387/4/6 391/4/6
f 391/3/6 388/3/6 392/3/6
f 389/2/6 390/2/6 393/2/6
f 390/3/6 391/3/6 394/3/6
f 393/2/6 390/2/6 394/2/6
f 391/2/6 392/2/6 395/2/6
f 394/3/6 391/3/6 395/3/6
f 395/2/6 392/2/6 396/2/6
