# MagicaVoxel @ Ephtracy

# group
o 

# material
mtllib Foliage_Path_Edge_02.mtl
usemtl palette

# normals
vn 0 0 -1
vn 0 0 1
vn -1 0 0
vn 1 0 0
vn 0 -1 0
vn 0 1 0

# texcoords
vt 0.322266 0.5
vt 0.568359 0.5
vt 0.572266 0.5
vt 0.576172 0.5

# verts
v -0.8 0 -0.1
v -0.4 0 -0.1
v 0.4 0 -0.1
v 0.8 0 -0.1
v -0.8 0.1 -0.1
v -0.4 0.1 -0.1
v 0.4 0.1 -0.1
v 0.8 0.1 -0.1
v -0.4 0 1.49012e-008
v 0.4 0 1.49012e-008
v -0.4 0.1 1.49012e-008
v 0.4 0.1 1.49012e-008
v -0.8 0 0.8
v -0.7 0 0.8
v -0.6 0 0.8
v -0.4 0 0.8
v -0.3 0 0.8
v -0.1 0 0.8
v 0 0 0.8
v 0.1 0 0.8
v 0.3 0 0.8
v 0.4 0 0.8
v 0.5 0 0.8
v 0.7 0 0.8
v 0.8 0 0.8
v -0.8 0.1 0.8
v -0.7 0.1 0.8
v -0.6 0.1 0.8
v -0.4 0.1 0.8
v -0.3 0.1 0.8
v -0.1 0.1 0.8
v 0 0.1 0.8
v 0.1 0.1 0.8
v 0.3 0.1 0.8
v 0.4 0.1 0.8
v 0.5 0.1 0.8
v 0.7 0.1 0.8
v 0.8 0.1 0.8
v -0.8 0 -0.1
v -0.8 0.1 -0.1
v -0.8 0 1.49012e-008
v -0.8 0.1 1.49012e-008
v -0.8 0 0.1
v -0.8 0.1 0.1
v -0.8 0 0.2
v -0.8 0.1 0.2
v -0.8 0 0.3
v -0.8 0.1 0.3
v -0.8 0 0.4
v -0.8 0.1 0.4
v -0.8 0 0.5
v -0.8 0.1 0.5
v -0.8 0 0.8
v -0.8 0.1 0.8
v 0.4 0 -0.1
v 0.4 0.1 -0.1
v 0.4 0 1.49012e-008
v 0.4 0.1 1.49012e-008
v -0.4 0 -0.1
v -0.4 0.1 -0.1
v -0.4 0 1.49012e-008
v -0.4 0.1 1.49012e-008
v 0.8 0 -0.1
v 0.8 0.1 -0.1
v 0.8 0 1.49012e-008
v 0.8 0.1 1.49012e-008
v 0.8 0 0.4
v 0.8 0.1 0.4
v 0.8 0 0.6
v 0.8 0.1 0.6
v 0.8 0 0.7
v 0.8 0.1 0.7
v 0.8 0 0.8
v 0.8 0.1 0.8
v -0.8 0 -0.1
v -0.8 0 1.49012e-008
v -0.8 0 0.1
v -0.8 0 0.2
v -0.8 0 0.3
v -0.8 0 0.4
v -0.8 0 0.5
v -0.8 0 0.8
v -0.7 0 0.3
v -0.7 0 0.4
v -0.7 0 0.5
v -0.7 0 0.6
v -0.7 0 0.8
v -0.6 0 0.1
v -0.6 0 0.2
v -0.6 0 0.3
v -0.6 0 0.4
v -0.6 0 0.5
v -0.6 0 0.6
v -0.6 0 0.7
v -0.6 0 0.8
v -0.5 0 1.49012e-008
v -0.5 0 0.1
v -0.5 0 0.2
v -0.5 0 0.3
v -0.5 0 0.4
v -0.5 0 0.5
v -0.5 0 0.7
v -0.4 0 -0.1
v -0.4 0 1.49012e-008
v -0.4 0 0.4
v -0.4 0 0.5
v -0.4 0 0.7
v -0.4 0 0.8
v -0.3 0 0.2
v -0.3 0 0.3
v -0.3 0 0.4
v -0.3 0 0.5
v -0.3 0 0.7
v -0.3 0 0.8
v -0.2 0 0.2
v -0.2 0 0.3
v -0.2 0 0.4
v -0.2 0 0.5
v -0.1 0 0.3
v -0.1 0 0.4
v -0.1 0 0.7
v -0.1 0 0.8
v 0 0 0.2
v 0 0 0.3
v 0 0 0.4
v 0 0 0.5
v 0 0 0.6
v 0 0 0.7
v 0 0 0.8
v 0.1 0 0.3
v 0.1 0 0.4
v 0.1 0 0.5
v 0.1 0 0.6
v 0.1 0 0.7
v 0.1 0 0.8
v 0.2 0 0.3
v 0.2 0 0.5
v 0.2 0 0.6
v 0.2 0 0.7
v 0.3 0 0.2
v 0.3 0 0.3
v 0.3 0 0.4
v 0.3 0 0.5
v 0.3 0 0.6
v 0.3 0 0.7
v 0.3 0 0.8
v 0.4 0 -0.1
v 0.4 0 1.49012e-008
v 0.4 0 0.2
v 0.4 0 0.3
v 0.4 0 0.4
v 0.4 0 0.5
v 0.4 0 0.7
v 0.4 0 0.8
v 0.5 0 1.49012e-008
v 0.5 0 0.1
v 0.5 0 0.2
v 0.5 0 0.3
v 0.5 0 0.4
v 0.5 0 0.5
v 0.5 0 0.6
v 0.5 0 0.7
v 0.5 0 0.8
v 0.6 0 0.1
v 0.6 0 0.2
v 0.6 0 0.3
v 0.6 0 0.4
v 0.6 0 0.5
v 0.6 0 0.6
v 0.7 0 0.3
v 0.7 0 0.4
v 0.7 0 0.5
v 0.7 0 0.6
v 0.7 0 0.7
v 0.7 0 0.8
v 0.8 0 -0.1
v 0.8 0 1.49012e-008
v 0.8 0 0.4
v 0.8 0 0.6
v 0.8 0 0.7
v 0.8 0 0.8
v -0.8 0.1 -0.1
v -0.8 0.1 1.49012e-008
v -0.8 0.1 0.1
v -0.8 0.1 0.2
v -0.8 0.1 0.3
v -0.8 0.1 0.4
v -0.8 0.1 0.5
v -0.8 0.1 0.8
v -0.7 0.1 0.3
v -0.7 0.1 0.4
v -0.7 0.1 0.5
v -0.7 0.1 0.6
v -0.7 0.1 0.8
v -0.6 0.1 0.1
v -0.6 0.1 0.2
v -0.6 0.1 0.3
v -0.6 0.1 0.4
v -0.6 0.1 0.5
v -0.6 0.1 0.6
v -0.6 0.1 0.7
v -0.6 0.1 0.8
v -0.5 0.1 1.49012e-008
v -0.5 0.1 0.1
v -0.5 0.1 0.2
v -0.5 0.1 0.3
v -0.5 0.1 0.4
v -0.5 0.1 0.5
v -0.5 0.1 0.7
v -0.4 0.1 -0.1
v -0.4 0.1 1.49012e-008
v -0.4 0.1 0.4
v -0.4 0.1 0.5
v -0.4 0.1 0.7
v -0.4 0.1 0.8
v -0.3 0.1 0.2
v -0.3 0.1 0.3
v -0.3 0.1 0.4
v -0.3 0.1 0.5
v -0.3 0.1 0.7
v -0.3 0.1 0.8
v -0.2 0.1 0.2
v -0.2 0.1 0.3
v -0.2 0.1 0.4
v -0.2 0.1 0.5
v -0.1 0.1 0.3
v -0.1 0.1 0.4
v -0.1 0.1 0.7
v -0.1 0.1 0.8
v 0 0.1 0.2
v 0 0.1 0.3
v 0 0.1 0.4
v 0 0.1 0.5
v 0 0.1 0.6
v 0 0.1 0.7
v 0 0.1 0.8
v 0.1 0.1 0.3
v 0.1 0.1 0.4
v 0.1 0.1 0.5
v 0.1 0.1 0.6
v 0.1 0.1 0.7
v 0.1 0.1 0.8
v 0.2 0.1 0.3
v 0.2 0.1 0.5
v 0.2 0.1 0.6
v 0.2 0.1 0.7
v 0.3 0.1 0.2
v 0.3 0.1 0.3
v 0.3 0.1 0.4
v 0.3 0.1 0.5
v 0.3 0.1 0.6
v 0.3 0.1 0.7
v 0.3 0.1 0.8
v 0.4 0.1 -0.1
v 0.4 0.1 1.49012e-008
v 0.4 0.1 0.2
v 0.4 0.1 0.3
v 0.4 0.1 0.4
v 0.4 0.1 0.5
v 0.4 0.1 0.7
v 0.4 0.1 0.8
v 0.5 0.1 1.49012e-008
v 0.5 0.1 0.1
v 0.5 0.1 0.2
v 0.5 0.1 0.3
v 0.5 0.1 0.4
v 0.5 0.1 0.5
v 0.5 0.1 0.6
v 0.5 0.1 0.7
v 0.5 0.1 0.8
v 0.6 0.1 0.1
v 0.6 0.1 0.2
v 0.6 0.1 0.3
v 0.6 0.1 0.4
v 0.6 0.1 0.5
v 0.6 0.1 0.6
v 0.7 0.1 0.3
v 0.7 0.1 0.4
v 0.7 0.1 0.5
v 0.7 0.1 0.6
v 0.7 0.1 0.7
v 0.7 0.1 0.8
v 0.8 0.1 -0.1
v 0.8 0.1 1.49012e-008
v 0.8 0.1 0.4
v 0.8 0.1 0.6
v 0.8 0.1 0.7
v 0.8 0.1 0.8

# faces
f 5/4/1 2/4/1 1/4/1
f 6/4/1 2/4/1 5/4/1
f 7/4/1 4/4/1 3/4/1
f 8/4/1 4/4/1 7/4/1
f 11/4/1 10/4/1 9/4/1
f 12/4/1 10/4/1 11/4/1
f 13/2/2 14/2/2 26/2/2
f 14/1/2 15/1/2 27/1/2
f 26/2/2 14/2/2 27/2/2
f 15/2/2 16/2/2 28/2/2
f 27/1/2 15/1/2 28/1/2
f 16/4/2 17/4/2 29/4/2
f 28/2/2 16/2/2 29/2/2
f 17/3/2 18/3/2 30/3/2
f 29/4/2 17/4/2 30/4/2
f 18/1/2 19/1/2 31/1/2
f 30/3/2 18/3/2 31/3/2
f 19/2/2 20/2/2 32/2/2
f 31/1/2 19/1/2 32/1/2
f 20/1/2 21/1/2 33/1/2
f 32/2/2 20/2/2 33/2/2
f 21/3/2 22/3/2 34/3/2
f 33/1/2 21/1/2 34/1/2
f 22/1/2 23/1/2 35/1/2
f 34/3/2 22/3/2 35/3/2
f 23/4/2 24/4/2 36/4/2
f 35/1/2 23/1/2 36/1/2
f 24/1/2 25/1/2 37/1/2
f 36/4/2 24/4/2 37/4/2
f 37/1/2 25/1/2 38/1/2
f 41/4/3 40/4/3 39/4/3
f 42/4/3 40/4/3 41/4/3
f 43/2/3 42/2/3 41/2/3
f 44/2/3 42/2/3 43/2/3
f 45/1/3 44/1/3 43/1/3
f 46/1/3 44/1/3 45/1/3
f 47/2/3 46/2/3 45/2/3
f 48/2/3 46/2/3 47/2/3
f 49/1/3 48/1/3 47/1/3
f 50/1/3 48/1/3 49/1/3
f 51/4/3 50/4/3 49/4/3
f 52/4/3 50/4/3 51/4/3
f 53/2/3 52/2/3 51/2/3
f 54/2/3 52/2/3 53/2/3
f 57/4/3 56/4/3 55/4/3
f 58/4/3 56/4/3 57/4/3
f 59/4/4 60/4/4 61/4/4
f 61/4/4 60/4/4 62/4/4
f 63/4/4 64/4/4 65/4/4
f 65/4/4 64/4/4 66/4/4
f 65/2/4 66/2/4 67/2/4
f 67/2/4 66/2/4 68/2/4
f 67/3/4 68/3/4 69/3/4
f 69/3/4 68/3/4 70/3/4
f 69/2/4 70/2/4 71/2/4
f 71/2/4 70/2/4 72/2/4
f 71/1/4 72/1/4 73/1/4
f 73/1/4 72/1/4 74/1/4
f 83/2/5 79/2/5 78/2/5
f 83/1/5 80/1/5 79/1/5
f 84/4/5 81/4/5 80/4/5
f 84/1/5 80/1/5 83/1/5
f 85/2/5 82/2/5 81/2/5
f 85/4/5 81/4/5 84/4/5
f 86/2/5 82/2/5 85/2/5
f 87/2/5 82/2/5 86/2/5
f 88/2/5 77/2/5 76/2/5
f 88/1/5 78/1/5 77/1/5
f 89/2/5 84/2/5 83/2/5
f 89/1/5 78/1/5 88/1/5
f 89/2/5 83/2/5 78/2/5
f 90/2/5 84/2/5 89/2/5
f 91/1/5 85/1/5 84/1/5
f 91/2/5 84/2/5 90/2/5
f 92/3/5 86/3/5 85/3/5
f 92/1/5 85/1/5 91/1/5
f 93/1/5 87/1/5 86/1/5
f 93/3/5 86/3/5 92/3/5
f 94/1/5 87/1/5 93/1/5
f 95/1/5 87/1/5 94/1/5
f 96/4/5 76/4/5 75/4/5
f 96/2/5 88/2/5 76/2/5
f 97/3/5 89/3/5 88/3/5
f 97/2/5 88/2/5 96/2/5
f 98/2/5 90/2/5 89/2/5
f 98/3/5 89/3/5 97/3/5
f 99/1/5 91/1/5 90/1/5
f 99/2/5 90/2/5 98/2/5
f 100/2/5 92/2/5 91/2/5
f 100/1/5 91/1/5 99/1/5
f 101/1/5 93/1/5 92/1/5
f 101/2/5 92/2/5 100/2/5
f 101/1/5 94/1/5 93/1/5
f 102/2/5 95/2/5 94/2/5
f 102/1/5 94/1/5 101/1/5
f 103/4/5 97/4/5 96/4/5
f 103/4/5 96/4/5 75/4/5
f 104/4/5 97/4/5 103/4/5
f 105/1/5 101/1/5 100/1/5
f 105/2/5 100/2/5 99/2/5
f 106/2/5 102/2/5 101/2/5
f 106/1/5 101/1/5 105/1/5
f 107/2/5 95/2/5 102/2/5
f 107/2/5 102/2/5 106/2/5
f 108/2/5 95/2/5 107/2/5
f 109/1/5 99/1/5 98/1/5
f 109/2/5 98/2/5 97/2/5
f 110/2/5 105/2/5 99/2/5
f 110/1/5 99/1/5 109/1/5
f 111/3/5 106/3/5 105/3/5
f 111/2/5 105/2/5 110/2/5
f 112/2/5 107/2/5 106/2/5
f 112/3/5 106/3/5 111/3/5
f 113/4/5 108/4/5 107/4/5
f 113/2/5 107/2/5 112/2/5
f 114/4/5 108/4/5 113/4/5
f 115/4/5 110/4/5 109/4/5
f 115/2/5 109/2/5 97/2/5
f 116/2/5 111/2/5 110/2/5
f 116/4/5 110/4/5 115/4/5
f 117/4/5 112/4/5 111/4/5
f 117/2/5 111/2/5 116/2/5
f 118/2/5 113/2/5 112/2/5
f 118/4/5 112/4/5 117/4/5
f 119/2/5 116/2/5 115/2/5
f 119/1/5 117/1/5 116/1/5
f 119/1/5 118/1/5 117/1/5
f 120/1/5 118/1/5 119/1/5
f 121/2/5 113/2/5 118/2/5
f 121/3/5 114/3/5 113/3/5
f 122/3/5 114/3/5 121/3/5
f 123/2/5 115/2/5 97/2/5
f 123/2/5 119/2/5 115/2/5
f 124/4/5 120/4/5 119/4/5
f 124/2/5 119/2/5 123/2/5
f 125/1/5 118/1/5 120/1/5
f 125/4/5 120/4/5 124/4/5
f 126/2/5 121/2/5 118/2/5
f 126/1/5 118/1/5 125/1/5
f 127/2/5 121/2/5 126/2/5
f 128/1/5 122/1/5 121/1/5
f 128/2/5 121/2/5 127/2/5
f 129/1/5 122/1/5 128/1/5
f 130/3/5 124/3/5 123/3/5
f 130/2/5 125/2/5 124/2/5
f 131/1/5 127/1/5 126/1/5
f 131/2/5 125/2/5 130/2/5
f 131/1/5 126/1/5 125/1/5
f 132/1/5 127/1/5 131/1/5
f 133/3/5 128/3/5 127/3/5
f 133/1/5 127/1/5 132/1/5
f 134/2/5 129/2/5 128/2/5
f 134/3/5 128/3/5 133/3/5
f 135/2/5 129/2/5 134/2/5
f 136/3/5 130/3/5 123/3/5
f 136/1/5 132/1/5 131/1/5
f 136/1/5 131/1/5 130/1/5
f 137/3/5 133/3/5 132/3/5
f 137/1/5 132/1/5 136/1/5
f 138/1/5 135/1/5 134/1/5
f 138/3/5 133/3/5 137/3/5
f 138/1/5 134/1/5 133/1/5
f 139/1/5 135/1/5 138/1/5
f 140/2/5 123/2/5 97/2/5
f 140/3/5 136/3/5 123/3/5
f 141/2/5 137/2/5 136/2/5
f 141/3/5 136/3/5 140/3/5
f 142/2/5 137/2/5 141/2/5
f 143/3/5 138/3/5 137/3/5
f 143/2/5 137/2/5 142/2/5
f 144/2/5 139/2/5 138/2/5
f 144/3/5 138/3/5 143/3/5
f 145/1/5 135/1/5 139/1/5
f 145/2/5 139/2/5 144/2/5
f 146/1/5 135/1/5 145/1/5
f 148/4/5 97/4/5 104/4/5
f 149/2/5 140/2/5 97/2/5
f 149/4/5 141/4/5 140/4/5
f 150/2/5 142/2/5 141/2/5
f 150/4/5 141/4/5 149/4/5
f 151/4/5 143/4/5 142/4/5
f 151/2/5 142/2/5 150/2/5
f 152/1/5 144/1/5 143/1/5
f 152/4/5 143/4/5 151/4/5
f 153/2/5 145/2/5 144/2/5
f 153/3/5 146/3/5 145/3/5
f 154/3/5 146/3/5 153/3/5
f 155/4/5 148/4/5 147/4/5
f 155/4/5 97/4/5 148/4/5
f 156/2/5 151/2/5 150/2/5
f 156/4/5 97/4/5 155/4/5
f 156/2/5 150/2/5 149/2/5
f 156/2/5 149/2/5 97/2/5
f 157/2/5 151/2/5 156/2/5
f 158/2/5 151/2/5 157/2/5
f 159/1/5 152/1/5 151/1/5
f 159/2/5 151/2/5 158/2/5
f 160/1/5 144/1/5 152/1/5
f 160/1/5 152/1/5 159/1/5
f 161/2/5 153/2/5 144/2/5
f 161/1/5 144/1/5 160/1/5
f 162/1/5 154/1/5 153/1/5
f 162/2/5 153/2/5 161/2/5
f 163/1/5 154/1/5 162/1/5
f 164/2/5 156/2/5 155/2/5
f 164/3/5 157/3/5 156/3/5
f 165/2/5 158/2/5 157/2/5
f 165/3/5 157/3/5 164/3/5
f 166/3/5 159/3/5 158/3/5
f 166/2/5 158/2/5 165/2/5
f 167/2/5 160/2/5 159/2/5
f 167/3/5 159/3/5 166/3/5
f 168/3/5 161/3/5 160/3/5
f 168/2/5 160/2/5 167/2/5
f 169/2/5 162/2/5 161/2/5
f 169/3/5 161/3/5 168/3/5
f 170/2/5 166/2/5 165/2/5
f 170/1/5 167/1/5 166/1/5
f 170/2/5 165/2/5 164/2/5
f 171/2/5 168/2/5 167/2/5
f 171/1/5 167/1/5 170/1/5
f 172/4/5 169/4/5 168/4/5
f 172/2/5 168/2/5 171/2/5
f 173/2/5 162/2/5 169/2/5
f 173/4/5 169/4/5 172/4/5
f 174/4/5 163/4/5 162/4/5
f 174/2/5 162/2/5 173/2/5
f 175/4/5 163/4/5 174/4/5
f 176/4/5 155/4/5 147/4/5
f 177/2/5 171/2/5 170/2/5
f 177/4/5 155/4/5 176/4/5
f 177/2/5 170/2/5 164/2/5
f 177/2/5 164/2/5 155/2/5
f 178/3/5 172/3/5 171/3/5
f 178/2/5 171/2/5 177/2/5
f 178/3/5 173/3/5 172/3/5
f 179/2/5 174/2/5 173/2/5
f 179/3/5 173/3/5 178/3/5
f 180/1/5 175/1/5 174/1/5
f 180/2/5 174/2/5 179/2/5
f 181/1/5 175/1/5 180/1/5
f 185/2/6 186/2/6 190/2/6
f 186/1/6 187/1/6 190/1/6
f 187/4/6 188/4/6 191/4/6
f 190/1/6 187/1/6 191/1/6
f 188/2/6 189/2/6 192/2/6
f 191/4/6 188/4/6 192/4/6
f 192/2/6 189/2/6 193/2/6
f 193/2/6 189/2/6 194/2/6
f 183/2/6 184/2/6 195/2/6
f 184/1/6 185/1/6 195/1/6
f 190/2/6 191/2/6 196/2/6
f 195/1/6 185/1/6 196/1/6
f 185/2/6 190/2/6 196/2/6
f 196/2/6 191/2/6 197/2/6
f 191/1/6 192/1/6 198/1/6
f 197/2/6 191/2/6 198/2/6
f 192/3/6 193/3/6 199/3/6
f 198/1/6 192/1/6 199/1/6
f 193/1/6 194/1/6 200/1/6
f 199/3/6 193/3/6 200/3/6
f 200/1/6 194/1/6 201/1/6
f 201/1/6 194/1/6 202/1/6
f 182/4/6 183/4/6 203/4/6
f 183/2/6 195/2/6 203/2/6
f 195/3/6 196/3/6 204/3/6
f 203/2/6 195/2/6 204/2/6
f 196/2/6 197/2/6 205/2/6
f 204/3/6 196/3/6 205/3/6
f 197/1/6 198/1/6 206/1/6
f 205/2/6 197/2/6 206/2/6
f 198/2/6 199/2/6 207/2/6
f 206/1/6 198/1/6 207/1/6
f 199/1/6 200/1/6 208/1/6
f 207/2/6 199/2/6 208/2/6
f 200/1/6 201/1/6 208/1/6
f 201/2/6 202/2/6 209/2/6
f 208/1/6 201/1/6 209/1/6
f 203/4/6 204/4/6 210/4/6
f 182/4/6 203/4/6 210/4/6
f 210/4/6 204/4/6 211/4/6
f 207/1/6 208/1/6 212/1/6
f 206/2/6 207/2/6 212/2/6
f 208/2/6 209/2/6 213/2/6
f 212/1/6 208/1/6 213/1/6
f 209/2/6 202/2/6 214/2/6
f 213/2/6 209/2/6 214/2/6
f 214/2/6 202/2/6 215/2/6
f 205/1/6 206/1/6 216/1/6
f 204/2/6 205/2/6 216/2/6
f 206/2/6 212/2/6 217/2/6
f 216/1/6 206/1/6 217/1/6
f 212/3/6 213/3/6 218/3/6
f 217/2/6 212/2/6 218/2/6
f 213/2/6 214/2/6 219/2/6
f 218/3/6 213/3/6 219/3/6
f 214/4/6 215/4/6 220/4/6
f 219/2/6 214/2/6 220/2/6
f 220/4/6 215/4/6 221/4/6
f 216/4/6 217/4/6 222/4/6
f 204/2/6 216/2/6 222/2/6
f 217/2/6 218/2/6 223/2/6
f 222/4/6 217/4/6 223/4/6
f 218/4/6 219/4/6 224/4/6
f 223/2/6 218/2/6 224/2/6
f 219/2/6 220/2/6 225/2/6
f 224/4/6 219/4/6 225/4/6
f 222/2/6 223/2/6 226/2/6
f 223/1/6 224/1/6 226/1/6
f 224/1/6 225/1/6 226/1/6
f 226/1/6 225/1/6 227/1/6
f 225/2/6 220/2/6 228/2/6
f 220/3/6 221/3/6 228/3/6
f 228/3/6 221/3/6 229/3/6
f 204/2/6 222/2/6 230/2/6
f 222/2/6 226/2/6 230/2/6
f 226/4/6 227/4/6 231/4/6
f 230/2/6 226/2/6 231/2/6
f 227/1/6 225/1/6 232/1/6
f 231/4/6 227/4/6 232/4/6
f 225/2/6 228/2/6 233/2/6
f 232/1/6 225/1/6 233/1/6
f 233/2/6 228/2/6 234/2/6
f 228/1/6 229/1/6 235/1/6
f 234/2/6 228/2/6 235/2/6
f 235/1/6 229/1/6 236/1/6
f 230/3/6 231/3/6 237/3/6
f 231/2/6 232/2/6 237/2/6
f 233/1/6 234/1/6 238/1/6
f 237/2/6 232/2/6 238/2/6
f 232/1/6 233/1/6 238/1/6
f 238/1/6 234/1/6 239/1/6
f 234/3/6 235/3/6 240/3/6
f 239/1/6 234/1/6 240/1/6
f 235/2/6 236/2/6 241/2/6
f 240/3/6 235/3/6 241/3/6
f 241/2/6 236/2/6 242/2/6
f 230/3/6 237/3/6 243/3/6
f 238/1/6 239/1/6 243/1/6
f 237/1/6 238/1/6 243/1/6
f 239/3/6 240/3/6 244/3/6
f 243/1/6 239/1/6 244/1/6
f 241/1/6 242/1/6 245/1/6
f 244/3/6 240/3/6 245/3/6
f 240/1/6 241/1/6 245/1/6
f 245/1/6 242/1/6 246/1/6
f 204/2/6 230/2/6 247/2/6
f 230/3/6 243/3/6 247/3/6
f 243/2/6 244/2/6 248/2/6
f 247/3/6 243/3/6 248/3/6
f 248/2/6 244/2/6 249/2/6
f 244/3/6 245/3/6 250/3/6
f 249/2/6 244/2/6 250/2/6
f 245/2/6 246/2/6 251/2/6
f 250/3/6 245/3/6 251/3/6
f 246/1/6 242/1/6 252/1/6
f 251/2/6 246/2/6 252/2/6
f 252/1/6 242/1/6 253/1/6
f 211/4/6 204/4/6 255/4/6
f 204/2/6 247/2/6 256/2/6
f 247/4/6 248/4/6 256/4/6
f 248/2/6 249/2/6 257/2/6
f 256/4/6 248/4/6 257/4/6
f 249/4/6 250/4/6 258/4/6
f 257/2/6 249/2/6 258/2/6
f 250/1/6 251/1/6 259/1/6
f 258/4/6 250/4/6 259/4/6
f 251/2/6 252/2/6 260/2/6
f 252/3/6 253/3/6 260/3/6
f 260/3/6 253/3/6 261/3/6
f 254/4/6 255/4/6 262/4/6
f 255/4/6 204/4/6 262/4/6
f 257/2/6 258/2/6 263/2/6
f 262/4/6 204/4/6 263/4/6
f 256/2/6 257/2/6 263/2/6
f 204/2/6 256/2/6 263/2/6
f 263/2/6 258/2/6 264/2/6
f 264/2/6 258/2/6 265/2/6
f 258/1/6 259/1/6 266/1/6
f 265/2/6 258/2/6 266/2/6
f 259/1/6 251/1/6 267/1/6
f 266/1/6 259/1/6 267/1/6
f 251/2/6 260/2/6 268/2/6
f 267/1/6 251/1/6 268/1/6
f 260/1/6 261/1/6 269/1/6
f 268/2/6 260/2/6 269/2/6
f 269/1/6 261/1/6 270/1/6
f 262/2/6 263/2/6 271/2/6
f 263/3/6 264/3/6 271/3/6
f 264/2/6 265/2/6 272/2/6
f 271/3/6 264/3/6 272/3/6
f 265/3/6 266/3/6 273/3/6
f 272/2/6 265/2/6 273/2/6
f 266/2/6 267/2/6 274/2/6
f 273/3/6 266/3/6 274/3/6
f 267/3/6 268/3/6 275/3/6
f 274/2/6 267/2/6 275/2/6
f 268/2/6 269/2/6 276/2/6
f 275/3/6 268/3/6 276/3/6
f 272/2/6 273/2/6 277/2/6
f 273/1/6 274/1/6 277/1/6
f 271/2/6 272/2/6 277/2/6
f 274/2/6 275/2/6 278/2/6
f 277/1/6 274/1/6 278/1/6
f 275/4/6 276/4/6 279/4/6
f 278/2/6 275/2/6 279/2/6
f 276/2/6 269/2/6 280/2/6
f 279/4/6 276/4/6 280/4/6
f 269/4/6 270/4/6 281/4/6
f 280/2/6 269/2/6 281/2/6
f 281/4/6 270/4/6 282/4/6
f 254/4/6 262/4/6 283/4/6
f 277/2/6 278/2/6 284/2/6
f 283/4/6 262/4/6 284/4/6
f 271/2/6 277/2/6 284/2/6
f 262/2/6 271/2/6 284/2/6
f 278/3/6 279/3/6 285/3/6
f 284/2/6 278/2/6 285/2/6
f 279/3/6 280/3/6 285/3/6
f 280/2/6 281/2/6 286/2/6
f 285/3/6 280/3/6 286/3/6
f 281/1/6 282/1/6 287/1/6
f 286/2/6 281/2/6 287/2/6
f 287/1/6 282/1/6 288/1/6
