# MagicaVoxel @ Ephtracy

# group
o 

# material
mtllib Foliage_Path_Edge_04.mtl
usemtl palette

# normals
vn 0 0 1
vn 0 0 -1
vn 1 0 0
vn -1 0 0
vn 0 -1 0
vn 0 1 0

# texcoords
vt 0.568359 0.5
vt 0.572266 0.5
vt 0.576172 0.5

# verts
v 0.6 0 0.2
v 0.1 0 0.2
v 0.6 0.1 0.2
v 0.1 0.1 0.2
v 0.8 0 0.1
v 0.6 0 0.1
v 0.1 0 0.1
v -0.2 0 0.1
v -0.5 0 0.1
v -0.8 0 0.1
v 0.8 0.1 0.1
v 0.6 0.1 0.1
v 0.1 0.1 0.1
v -0.2 0.1 0.1
v -0.5 0.1 0.1
v -0.8 0.1 0.1
v -0.2 0 0
v -0.5 0 0
v -0.2 0.1 0
v -0.5 0.1 0
v 0.8 0 -0.8
v 0.7 0 -0.8
v 0.3 0 -0.8
v 0.2 0 -0.8
v 0.1 0 -0.8
v 0 0 -0.8
v -0.1 0 -0.8
v -0.2 0 -0.8
v -0.3 0 -0.8
v -0.4 0 -0.8
v -0.5 0 -0.8
v -0.7 0 -0.8
v -0.8 0 -0.8
v 0.8 0.1 -0.8
v 0.7 0.1 -0.8
v 0.3 0.1 -0.8
v 0.2 0.1 -0.8
v 0.1 0.1 -0.8
v 0 0.1 -0.8
v -0.1 0.1 -0.8
v -0.2 0.1 -0.8
v -0.3 0.1 -0.8
v -0.4 0.1 -0.8
v -0.5 0.1 -0.8
v -0.7 0.1 -0.8
v -0.8 0.1 -0.8
v 0.8 0 0.1
v 0.8 0.1 0.1
v 0.8 0 0
v 0.8 0.1 0
v 0.8 0 -0.2
v 0.8 0.1 -0.2
v 0.8 0 -0.4
v 0.8 0.1 -0.4
v 0.8 0 -0.5
v 0.8 0.1 -0.5
v 0.8 0 -0.8
v 0.8 0.1 -0.8
v 0.6 0 0.2
v 0.6 0.1 0.2
v 0.6 0 0.1
v 0.6 0.1 0.1
v -0.5 0 0.1
v -0.5 0.1 0.1
v -0.5 0 0
v -0.5 0.1 0
v 0.1 0 0.2
v 0.1 0.1 0.2
v 0.1 0 0.1
v 0.1 0.1 0.1
v -0.2 0 0.1
v -0.2 0.1 0.1
v -0.2 0 0
v -0.2 0.1 0
v -0.8 0 0.1
v -0.8 0.1 0.1
v -0.8 0 0
v -0.8 0.1 0
v -0.8 0 -0.1
v -0.8 0.1 -0.1
v -0.8 0 -0.2
v -0.8 0.1 -0.2
v -0.8 0 -0.3
v -0.8 0.1 -0.3
v -0.8 0 -0.4
v -0.8 0.1 -0.4
v -0.8 0 -0.5
v -0.8 0.1 -0.5
v -0.8 0 -0.6
v -0.8 0.1 -0.6
v -0.8 0 -0.7
v -0.8 0.1 -0.7
v -0.8 0 -0.8
v -0.8 0.1 -0.8
v 0.8 0 0.1
v 0.8 0 0
v 0.8 0 -0.2
v 0.8 0 -0.4
v 0.8 0 -0.5
v 0.8 0 -0.8
v 0.7 0 -0.3
v 0.7 0 -0.4
v 0.7 0 -0.5
v 0.7 0 -0.6
v 0.7 0 -0.7
v 0.7 0 -0.8
v 0.6 0 0.2
v 0.6 0 0.1
v 0.6 0 -0.1
v 0.6 0 -0.2
v 0.6 0 -0.3
v 0.6 0 -0.4
v 0.6 0 -0.5
v 0.6 0 -0.6
v 0.5 0 0.1
v 0.5 0 0
v 0.5 0 -0.1
v 0.5 0 -0.2
v 0.5 0 -0.3
v 0.5 0 -0.6
v 0.5 0 -0.7
v 0.4 0 -0.3
v 0.4 0 -0.4
v 0.4 0 -0.5
v 0.4 0 -0.6
v 0.3 0 0
v 0.3 0 -0.1
v 0.3 0 -0.2
v 0.3 0 -0.3
v 0.3 0 -0.4
v 0.3 0 -0.5
v 0.3 0 -0.6
v 0.3 0 -0.7
v 0.3 0 -0.8
v 0.2 0 0.1
v 0.2 0 0
v 0.2 0 -0.1
v 0.2 0 -0.2
v 0.2 0 -0.3
v 0.2 0 -0.4
v 0.2 0 -0.5
v 0.2 0 -0.7
v 0.2 0 -0.8
v 0.1 0 0.2
v 0.1 0 0.1
v 0.1 0 -0.1
v 0.1 0 -0.2
v 0.1 0 -0.3
v 0.1 0 -0.6
v 0.1 0 -0.8
v 0 0 -0.1
v 0 0 -0.2
v 0 0 -0.3
v 0 0 -0.6
v 0 0 -0.8
v -0.1 0 0
v -0.1 0 -0.1
v -0.1 0 -0.2
v -0.1 0 -0.3
v -0.1 0 -0.5
v -0.1 0 -0.7
v -0.1 0 -0.8
v -0.2 0 0.1
v -0.2 0 0
v -0.2 0 -0.2
v -0.2 0 -0.3
v -0.2 0 -0.4
v -0.2 0 -0.5
v -0.2 0 -0.6
v -0.2 0 -0.7
v -0.2 0 -0.8
v -0.3 0 -0.3
v -0.3 0 -0.4
v -0.3 0 -0.5
v -0.3 0 -0.6
v -0.3 0 -0.7
v -0.3 0 -0.8
v -0.4 0 -0.2
v -0.4 0 -0.3
v -0.4 0 -0.4
v -0.4 0 -0.5
v -0.4 0 -0.6
v -0.4 0 -0.7
v -0.4 0 -0.8
v -0.5 0 0.1
v -0.5 0 0
v -0.5 0 -0.2
v -0.5 0 -0.3
v -0.5 0 -0.4
v -0.5 0 -0.6
v -0.5 0 -0.7
v -0.5 0 -0.8
v -0.6 0 0
v -0.6 0 -0.1
v -0.6 0 -0.2
v -0.6 0 -0.3
v -0.6 0 -0.4
v -0.6 0 -0.5
v -0.6 0 -0.6
v -0.7 0 -0.1
v -0.7 0 -0.2
v -0.7 0 -0.4
v -0.7 0 -0.5
v -0.7 0 -0.6
v -0.7 0 -0.7
v -0.7 0 -0.8
v -0.8 0 0.1
v -0.8 0 0
v -0.8 0 -0.1
v -0.8 0 -0.2
v -0.8 0 -0.3
v -0.8 0 -0.4
v -0.8 0 -0.5
v -0.8 0 -0.6
v -0.8 0 -0.7
v -0.8 0 -0.8
v 0.8 0.1 0.1
v 0.8 0.1 0
v 0.8 0.1 -0.2
v 0.8 0.1 -0.4
v 0.8 0.1 -0.5
v 0.8 0.1 -0.8
v 0.7 0.1 -0.3
v 0.7 0.1 -0.4
v 0.7 0.1 -0.5
v 0.7 0.1 -0.6
v 0.7 0.1 -0.7
v 0.7 0.1 -0.8
v 0.6 0.1 0.2
v 0.6 0.1 0.1
v 0.6 0.1 -0.1
v 0.6 0.1 -0.2
v 0.6 0.1 -0.3
v 0.6 0.1 -0.4
v 0.6 0.1 -0.5
v 0.6 0.1 -0.6
v 0.5 0.1 0.1
v 0.5 0.1 0
v 0.5 0.1 -0.1
v 0.5 0.1 -0.2
v 0.5 0.1 -0.3
v 0.5 0.1 -0.6
v 0.5 0.1 -0.7
v 0.4 0.1 -0.3
v 0.4 0.1 -0.4
v 0.4 0.1 -0.5
v 0.4 0.1 -0.6
v 0.3 0.1 0
v 0.3 0.1 -0.1
v 0.3 0.1 -0.2
v 0.3 0.1 -0.3
v 0.3 0.1 -0.4
v 0.3 0.1 -0.5
v 0.3 0.1 -0.6
v 0.3 0.1 -0.7
v 0.3 0.1 -0.8
v 0.2 0.1 0.1
v 0.2 0.1 0
v 0.2 0.1 -0.1
v 0.2 0.1 -0.2
v 0.2 0.1 -0.3
v 0.2 0.1 -0.4
v 0.2 0.1 -0.5
v 0.2 0.1 -0.7
v 0.2 0.1 -0.8
v 0.1 0.1 0.2
v 0.1 0.1 0.1
v 0.1 0.1 -0.1
v 0.1 0.1 -0.2
v 0.1 0.1 -0.3
v 0.1 0.1 -0.6
v 0.1 0.1 -0.8
v 0 0.1 -0.1
v 0 0.1 -0.2
v 0 0.1 -0.3
v 0 0.1 -0.6
v 0 0.1 -0.8
v -0.1 0.1 0
v -0.1 0.1 -0.1
v -0.1 0.1 -0.2
v -0.1 0.1 -0.3
v -0.1 0.1 -0.5
v -0.1 0.1 -0.7
v -0.1 0.1 -0.8
v -0.2 0.1 0.1
v -0.2 0.1 0
v -0.2 0.1 -0.2
v -0.2 0.1 -0.3
v -0.2 0.1 -0.4
v -0.2 0.1 -0.5
v -0.2 0.1 -0.6
v -0.2 0.1 -0.7
v -0.2 0.1 -0.8
v -0.3 0.1 -0.3
v -0.3 0.1 -0.4
v -0.3 0.1 -0.5
v -0.3 0.1 -0.6
v -0.3 0.1 -0.7
v -0.3 0.1 -0.8
v -0.4 0.1 -0.2
v -0.4 0.1 -0.3
v -0.4 0.1 -0.4
v -0.4 0.1 -0.5
v -0.4 0.1 -0.6
v -0.4 0.1 -0.7
v -0.4 0.1 -0.8
v -0.5 0.1 0.1
v -0.5 0.1 0
v -0.5 0.1 -0.2
v -0.5 0.1 -0.3
v -0.5 0.1 -0.4
v -0.5 0.1 -0.6
v -0.5 0.1 -0.7
v -0.5 0.1 -0.8
v -0.6 0.1 0
v -0.6 0.1 -0.1
v -0.6 0.1 -0.2
v -0.6 0.1 -0.3
v -0.6 0.1 -0.4
v -0.6 0.1 -0.5
v -0.6 0.1 -0.6
v -0.7 0.1 -0.1
v -0.7 0.1 -0.2
v -0.7 0.1 -0.4
v -0.7 0.1 -0.5
v -0.7 0.1 -0.6
v -0.7 0.1 -0.7
v -0.7 0.1 -0.8
v -0.8 0.1 0.1
v -0.8 0.1 0
v -0.8 0.1 -0.1
v -0.8 0.1 -0.2
v -0.8 0.1 -0.3
v -0.8 0.1 -0.4
v -0.8 0.1 -0.5
v -0.8 0.1 -0.6
v -0.8 0.1 -0.7
v -0.8 0.1 -0.8

# faces
f 3/3/1 2/3/1 1/3/1
f 4/3/1 2/3/1 3/3/1
f 11/3/1 6/3/1 5/3/1
f 12/3/1 6/3/1 11/3/1
f 13/3/1 8/3/1 7/3/1
f 14/3/1 8/3/1 13/3/1
f 15/3/1 10/3/1 9/3/1
f 16/3/1 10/3/1 15/3/1
f 19/3/1 18/3/1 17/3/1
f 20/3/1 18/3/1 19/3/1
f 21/3/2 22/3/2 34/3/2
f 22/1/2 23/1/2 35/1/2
f 34/3/2 22/3/2 35/3/2
f 23/3/2 24/3/2 36/3/2
f 35/1/2 23/1/2 36/1/2
f 24/2/2 25/2/2 37/2/2
f 36/3/2 24/3/2 37/3/2
f 25/1/2 26/1/2 38/1/2
f 37/2/2 25/2/2 38/2/2
f 26/3/2 27/3/2 39/3/2
f 38/1/2 26/1/2 39/1/2
f 27/1/2 28/1/2 40/1/2
f 39/3/2 27/3/2 40/3/2
f 28/2/2 29/2/2 41/2/2
f 40/1/2 28/1/2 41/1/2
f 29/1/2 30/1/2 42/1/2
f 41/2/2 29/2/2 42/2/2
f 30/3/2 31/3/2 43/3/2
f 42/1/2 30/1/2 43/1/2
f 31/1/2 32/1/2 44/1/2
f 43/3/2 31/3/2 44/3/2
f 32/3/2 33/3/2 45/3/2
f 44/1/2 32/1/2 45/1/2
f 45/3/2 33/3/2 46/3/2
f 49/3/3 48/3/3 47/3/3
f 50/3/3 48/3/3 49/3/3
f 51/1/3 50/1/3 49/1/3
f 52/1/3 50/1/3 51/1/3
f 53/3/3 52/3/3 51/3/3
f 54/3/3 52/3/3 53/3/3
f 55/2/3 54/2/3 53/2/3
f 56/2/3 54/2/3 55/2/3
f 57/3/3 56/3/3 55/3/3
f 58/3/3 56/3/3 57/3/3
f 61/3/3 60/3/3 59/3/3
f 62/3/3 60/3/3 61/3/3
f 65/3/3 64/3/3 63/3/3
f 66/3/3 64/3/3 65/3/3
f 67/3/4 68/3/4 69/3/4
f 69/3/4 68/3/4 70/3/4
f 71/3/4 72/3/4 73/3/4
f 73/3/4 72/3/4 74/3/4
f 75/3/4 76/3/4 77/3/4
f 77/3/4 76/3/4 78/3/4
f 77/1/4 78/1/4 79/1/4
f 79/1/4 78/1/4 80/1/4
f 79/2/4 80/2/4 81/2/4
f 81/2/4 80/2/4 82/2/4
f 81/1/4 82/1/4 83/1/4
f 83/1/4 82/1/4 84/1/4
f 83/3/4 84/3/4 85/3/4
f 85/3/4 84/3/4 86/3/4
f 85/2/4 86/2/4 87/2/4
f 87/2/4 86/2/4 88/2/4
f 87/3/4 88/3/4 89/3/4
f 89/3/4 88/3/4 90/3/4
f 89/1/4 90/1/4 91/1/4
f 91/1/4 90/1/4 92/1/4
f 91/3/4 92/3/4 93/3/4
f 93/3/4 92/3/4 94/3/4
f 101/3/5 98/3/5 97/3/5
f 102/2/5 99/2/5 98/2/5
f 102/3/5 98/3/5 101/3/5
f 103/3/5 100/3/5 99/3/5
f 103/2/5 99/2/5 102/2/5
f 104/3/5 100/3/5 103/3/5
f 105/3/5 100/3/5 104/3/5
f 106/3/5 100/3/5 105/3/5
f 108/3/5 96/3/5 95/3/5
f 109/1/5 97/1/5 96/1/5
f 110/3/5 101/3/5 97/3/5
f 110/1/5 97/1/5 109/1/5
f 111/1/5 102/1/5 101/1/5
f 111/3/5 101/3/5 110/3/5
f 112/2/5 103/2/5 102/2/5
f 112/1/5 102/1/5 111/1/5
f 113/1/5 104/1/5 103/1/5
f 113/2/5 103/2/5 112/2/5
f 114/2/5 105/2/5 104/2/5
f 114/1/5 104/1/5 113/1/5
f 115/3/5 108/3/5 107/3/5
f 115/3/5 96/3/5 108/3/5
f 116/1/5 109/1/5 96/1/5
f 116/3/5 96/3/5 115/3/5
f 117/2/5 110/2/5 109/2/5
f 117/1/5 109/1/5 116/1/5
f 117/2/5 111/2/5 110/2/5
f 118/2/5 111/2/5 117/2/5
f 119/3/5 112/3/5 111/3/5
f 119/2/5 111/2/5 118/2/5
f 120/2/5 105/2/5 114/2/5
f 120/2/5 114/2/5 113/2/5
f 120/2/5 113/2/5 112/2/5
f 121/1/5 106/1/5 105/1/5
f 121/2/5 105/2/5 120/2/5
f 122/3/5 112/3/5 119/3/5
f 122/1/5 119/1/5 118/1/5
f 123/2/5 120/2/5 112/2/5
f 123/3/5 112/3/5 122/3/5
f 124/2/5 120/2/5 123/2/5
f 125/3/5 121/3/5 120/3/5
f 125/2/5 120/2/5 124/2/5
f 126/1/5 116/1/5 115/1/5
f 126/3/5 117/3/5 116/3/5
f 127/2/5 118/2/5 117/2/5
f 127/3/5 117/3/5 126/3/5
f 128/1/5 122/1/5 118/1/5
f 128/2/5 118/2/5 127/2/5
f 128/1/5 123/1/5 122/1/5
f 129/1/5 123/1/5 128/1/5
f 130/2/5 124/2/5 123/2/5
f 130/1/5 123/1/5 129/1/5
f 131/1/5 125/1/5 124/1/5
f 131/2/5 124/2/5 130/2/5
f 132/3/5 121/3/5 125/3/5
f 132/1/5 125/1/5 131/1/5
f 133/1/5 106/1/5 121/1/5
f 133/3/5 121/3/5 132/3/5
f 134/1/5 106/1/5 133/1/5
f 135/3/5 115/3/5 107/3/5
f 135/1/5 126/1/5 115/1/5
f 135/1/5 127/1/5 126/1/5
f 136/1/5 127/1/5 135/1/5
f 137/3/5 128/3/5 127/3/5
f 137/1/5 127/1/5 136/1/5
f 138/1/5 129/1/5 128/1/5
f 138/3/5 128/3/5 137/3/5
f 139/2/5 130/2/5 129/2/5
f 139/1/5 129/1/5 138/1/5
f 140/3/5 131/3/5 130/3/5
f 140/2/5 130/2/5 139/2/5
f 141/1/5 132/1/5 131/1/5
f 141/3/5 131/3/5 140/3/5
f 142/3/5 134/3/5 133/3/5
f 142/2/5 133/2/5 132/2/5
f 143/3/5 134/3/5 142/3/5
f 144/3/5 136/3/5 135/3/5
f 144/3/5 135/3/5 107/3/5
f 145/3/5 136/3/5 144/3/5
f 146/1/5 137/1/5 136/1/5
f 146/1/5 138/1/5 137/1/5
f 147/2/5 139/2/5 138/2/5
f 147/1/5 138/1/5 146/1/5
f 148/1/5 140/1/5 139/1/5
f 148/2/5 139/2/5 147/2/5
f 148/1/5 141/1/5 140/1/5
f 149/1/5 132/1/5 141/1/5
f 149/1/5 141/1/5 148/1/5
f 149/2/5 143/2/5 142/2/5
f 149/2/5 142/2/5 132/2/5
f 150/2/5 143/2/5 149/2/5
f 151/2/5 147/2/5 146/2/5
f 151/1/5 146/1/5 136/1/5
f 151/2/5 148/2/5 147/2/5
f 152/2/5 148/2/5 151/2/5
f 153/3/5 149/3/5 148/3/5
f 153/2/5 148/2/5 152/2/5
f 154/1/5 150/1/5 149/1/5
f 154/3/5 149/3/5 153/3/5
f 155/1/5 150/1/5 154/1/5
f 156/3/5 136/3/5 145/3/5
f 156/1/5 152/1/5 151/1/5
f 156/1/5 151/1/5 136/1/5
f 157/1/5 152/1/5 156/1/5
f 158/2/5 153/2/5 152/2/5
f 158/1/5 152/1/5 157/1/5
f 158/2/5 154/2/5 153/2/5
f 159/2/5 154/2/5 158/2/5
f 160/2/5 154/2/5 159/2/5
f 161/3/5 155/3/5 154/3/5
f 162/3/5 155/3/5 161/3/5
f 163/3/5 157/3/5 156/3/5
f 163/3/5 156/3/5 145/3/5
f 164/3/5 157/3/5 163/3/5
f 165/1/5 158/1/5 157/1/5
f 165/3/5 159/3/5 158/3/5
f 166/1/5 160/1/5 159/1/5
f 166/3/5 159/3/5 165/3/5
f 167/1/5 160/1/5 166/1/5
f 168/2/5 154/2/5 160/2/5
f 168/1/5 160/1/5 167/1/5
f 169/3/5 161/3/5 154/3/5
f 169/2/5 154/2/5 168/2/5
f 170/1/5 162/1/5 161/1/5
f 170/3/5 161/3/5 169/3/5
f 171/1/5 162/1/5 170/1/5
f 172/2/5 167/2/5 166/2/5
f 172/1/5 166/1/5 165/1/5
f 173/3/5 168/3/5 167/3/5
f 173/2/5 167/2/5 172/2/5
f 174/1/5 169/1/5 168/1/5
f 174/3/5 168/3/5 173/3/5
f 175/2/5 171/2/5 170/2/5
f 175/1/5 169/1/5 174/1/5
f 175/2/5 170/2/5 169/2/5
f 176/2/5 171/2/5 175/2/5
f 177/2/5 171/2/5 176/2/5
f 178/1/5 165/1/5 157/1/5
f 178/1/5 172/1/5 165/1/5
f 179/3/5 173/3/5 172/3/5
f 179/1/5 172/1/5 178/1/5
f 180/1/5 174/1/5 173/1/5
f 180/3/5 173/3/5 179/3/5
f 181/3/5 175/3/5 174/3/5
f 181/1/5 174/1/5 180/1/5
f 182/2/5 176/2/5 175/2/5
f 182/3/5 175/3/5 181/3/5
f 183/1/5 177/1/5 176/1/5
f 183/2/5 176/2/5 182/2/5
f 184/1/5 177/1/5 183/1/5
f 186/3/5 157/3/5 164/3/5
f 187/1/5 178/1/5 157/1/5
f 187/2/5 179/2/5 178/2/5
f 188/1/5 180/1/5 179/1/5
f 188/2/5 179/2/5 187/2/5
f 189/2/5 182/2/5 181/2/5
f 189/1/5 180/1/5 188/1/5
f 189/2/5 181/2/5 180/2/5
f 190/1/5 183/1/5 182/1/5
f 190/2/5 182/2/5 189/2/5
f 191/3/5 184/3/5 183/3/5
f 191/1/5 183/1/5 190/1/5
f 192/3/5 184/3/5 191/3/5
f 193/3/5 186/3/5 185/3/5
f 193/3/5 157/3/5 186/3/5
f 194/1/5 187/1/5 157/1/5
f 194/3/5 157/3/5 193/3/5
f 195/3/5 188/3/5 187/3/5
f 195/1/5 187/1/5 194/1/5
f 196/2/5 189/2/5 188/2/5
f 196/3/5 188/3/5 195/3/5
f 197/3/5 190/3/5 189/3/5
f 197/2/5 189/2/5 196/2/5
f 198/3/5 190/3/5 197/3/5
f 199/1/5 192/1/5 191/1/5
f 199/3/5 190/3/5 198/3/5
f 199/1/5 191/1/5 190/1/5
f 200/1/5 194/1/5 193/1/5
f 200/1/5 195/1/5 194/1/5
f 200/1/5 196/1/5 195/1/5
f 201/1/5 196/1/5 200/1/5
f 202/1/5 198/1/5 197/1/5
f 202/3/5 197/3/5 196/3/5
f 203/2/5 199/2/5 198/2/5
f 203/1/5 198/1/5 202/1/5
f 204/1/5 192/1/5 199/1/5
f 204/2/5 199/2/5 203/2/5
f 205/1/5 192/1/5 204/1/5
f 206/1/5 192/1/5 205/1/5
f 207/3/5 193/3/5 185/3/5
f 208/1/5 200/1/5 193/1/5
f 208/3/5 193/3/5 207/3/5
f 209/2/5 201/2/5 200/2/5
f 209/1/5 200/1/5 208/1/5
f 210/1/5 196/1/5 201/1/5
f 210/2/5 201/2/5 209/2/5
f 211/3/5 202/3/5 196/3/5
f 211/1/5 196/1/5 210/1/5
f 212/2/5 203/2/5 202/2/5
f 212/3/5 202/3/5 211/3/5
f 213/3/5 204/3/5 203/3/5
f 213/2/5 203/2/5 212/2/5
f 214/1/5 205/1/5 204/1/5
f 214/3/5 204/3/5 213/3/5
f 215/3/5 206/3/5 205/3/5
f 215/1/5 205/1/5 214/1/5
f 216/3/5 206/3/5 215/3/5
f 219/3/6 220/3/6 223/3/6
f 220/2/6 221/2/6 224/2/6
f 223/3/6 220/3/6 224/3/6
f 221/3/6 222/3/6 225/3/6
f 224/2/6 221/2/6 225/2/6
f 225/3/6 222/3/6 226/3/6
f 226/3/6 222/3/6 227/3/6
f 227/3/6 222/3/6 228/3/6
f 217/3/6 218/3/6 230/3/6
f 218/1/6 219/1/6 231/1/6
f 219/3/6 223/3/6 232/3/6
f 231/1/6 219/1/6 232/1/6
f 223/1/6 224/1/6 233/1/6
f 232/3/6 223/3/6 233/3/6
f 224/2/6 225/2/6 234/2/6
f 233/1/6 224/1/6 234/1/6
f 225/1/6 226/1/6 235/1/6
f 234/2/6 225/2/6 235/2/6
f 226/2/6 227/2/6 236/2/6
f 235/1/6 226/1/6 236/1/6
f 229/3/6 230/3/6 237/3/6
f 230/3/6 218/3/6 237/3/6
f 218/1/6 231/1/6 238/1/6
f 237/3/6 218/3/6 238/3/6
f 231/2/6 232/2/6 239/2/6
f 238/1/6 231/1/6 239/1/6
f 232/2/6 233/2/6 239/2/6
f 239/2/6 233/2/6 240/2/6
f 233/3/6 234/3/6 241/3/6
f 240/2/6 233/2/6 241/2/6
f 236/2/6 227/2/6 242/2/6
f 235/2/6 236/2/6 242/2/6
f 234/2/6 235/2/6 242/2/6
f 227/1/6 228/1/6 243/1/6
f 242/2/6 227/2/6 243/2/6
f 241/3/6 234/3/6 244/3/6
f 240/1/6 241/1/6 244/1/6
f 234/2/6 242/2/6 245/2/6
f 244/3/6 234/3/6 245/3/6
f 245/2/6 242/2/6 246/2/6
f 242/3/6 243/3/6 247/3/6
f 246/2/6 242/2/6 247/2/6
f 237/1/6 238/1/6 248/1/6
f 238/3/6 239/3/6 248/3/6
f 239/2/6 240/2/6 249/2/6
f 248/3/6 239/3/6 249/3/6
f 240/1/6 244/1/6 250/1/6
f 249/2/6 240/2/6 250/2/6
f 244/1/6 245/1/6 250/1/6
f 250/1/6 245/1/6 251/1/6
f 245/2/6 246/2/6 252/2/6
f 251/1/6 245/1/6 252/1/6
f 246/1/6 247/1/6 253/1/6
f 252/2/6 246/2/6 253/2/6
f 247/3/6 243/3/6 254/3/6
f 253/1/6 247/1/6 254/1/6
f 243/1/6 228/1/6 255/1/6
f 254/3/6 243/3/6 255/3/6
f 255/1/6 228/1/6 256/1/6
f 229/3/6 237/3/6 257/3/6
f 237/1/6 248/1/6 257/1/6
f 248/1/6 249/1/6 257/1/6
f 257/1/6 249/1/6 258/1/6
f 249/3/6 250/3/6 259/3/6
f 258/1/6 249/1/6 259/1/6
f 250/1/6 251/1/6 260/1/6
f 259/3/6 250/3/6 260/3/6
f 251/2/6 252/2/6 261/2/6
f 260/1/6 251/1/6 261/1/6
f 252/3/6 253/3/6 262/3/6
f 261/2/6 252/2/6 262/2/6
f 253/1/6 254/1/6 263/1/6
f 262/3/6 253/3/6 263/3/6
f 255/3/6 256/3/6 264/3/6
f 254/2/6 255/2/6 264/2/6
f 264/3/6 256/3/6 265/3/6
f 257/3/6 258/3/6 266/3/6
f 229/3/6 257/3/6 266/3/6
f 266/3/6 258/3/6 267/3/6
f 258/1/6 259/1/6 268/1/6
f 259/1/6 260/1/6 268/1/6
f 260/2/6 261/2/6 269/2/6
f 268/1/6 260/1/6 269/1/6
f 261/1/6 262/1/6 270/1/6
f 269/2/6 261/2/6 270/2/6
f 262/1/6 263/1/6 270/1/6
f 263/1/6 254/1/6 271/1/6
f 270/1/6 263/1/6 271/1/6
f 264/2/6 265/2/6 271/2/6
f 254/2/6 264/2/6 271/2/6
f 271/2/6 265/2/6 272/2/6
f 268/2/6 269/2/6 273/2/6
f 258/1/6 268/1/6 273/1/6
f 269/2/6 270/2/6 273/2/6
f 273/2/6 270/2/6 274/2/6
f 270/3/6 271/3/6 275/3/6
f 274/2/6 270/2/6 275/2/6
f 271/1/6 272/1/6 276/1/6
f 275/3/6 271/3/6 276/3/6
f 276/1/6 272/1/6 277/1/6
f 267/3/6 258/3/6 278/3/6
f 273/1/6 274/1/6 278/1/6
f 258/1/6 273/1/6 278/1/6
f 278/1/6 274/1/6 279/1/6
f 274/2/6 275/2/6 280/2/6
f 279/1/6 274/1/6 280/1/6
f 275/2/6 276/2/6 280/2/6
f 280/2/6 276/2/6 281/2/6
f 281/2/6 276/2/6 282/2/6
f 276/3/6 277/3/6 283/3/6
f 283/3/6 277/3/6 284/3/6
f 278/3/6 279/3/6 285/3/6
f 267/3/6 278/3/6 285/3/6
f 285/3/6 279/3/6 286/3/6
f 279/1/6 280/1/6 287/1/6
f 280/3/6 281/3/6 287/3/6
f 281/1/6 282/1/6 288/1/6
f 287/3/6 281/3/6 288/3/6
f 288/1/6 282/1/6 289/1/6
f 282/2/6 276/2/6 290/2/6
f 289/1/6 282/1/6 290/1/6
f 276/3/6 283/3/6 291/3/6
f 290/2/6 276/2/6 291/2/6
f 283/1/6 284/1/6 292/1/6
f 291/3/6 283/3/6 292/3/6
f 292/1/6 284/1/6 293/1/6
f 288/2/6 289/2/6 294/2/6
f 287/1/6 288/1/6 294/1/6
f 289/3/6 290/3/6 295/3/6
f 294/2/6 289/2/6 295/2/6
f 290/1/6 291/1/6 296/1/6
f 295/3/6 290/3/6 296/3/6
f 292/2/6 293/2/6 297/2/6
f 296/1/6 291/1/6 297/1/6
f 291/2/6 292/2/6 297/2/6
f 297/2/6 293/2/6 298/2/6
f 298/2/6 293/2/6 299/2/6
f 279/1/6 287/1/6 300/1/6
f 287/1/6 294/1/6 300/1/6
f 294/3/6 295/3/6 301/3/6
f 300/1/6 294/1/6 301/1/6
f 295/1/6 296/1/6 302/1/6
f 301/3/6 295/3/6 302/3/6
f 296/3/6 297/3/6 303/3/6
f 302/1/6 296/1/6 303/1/6
f 297/2/6 298/2/6 304/2/6
f 303/3/6 297/3/6 304/3/6
f 298/1/6 299/1/6 305/1/6
f 304/2/6 298/2/6 305/2/6
f 305/1/6 299/1/6 306/1/6
f 286/3/6 279/3/6 308/3/6
f 279/1/6 300/1/6 309/1/6
f 300/2/6 301/2/6 309/2/6
f 301/1/6 302/1/6 310/1/6
f 309/2/6 301/2/6 310/2/6
f 303/2/6 304/2/6 311/2/6
f 310/1/6 302/1/6 311/1/6
f 302/2/6 303/2/6 311/2/6
f 304/1/6 305/1/6 312/1/6
f 311/2/6 304/2/6 312/2/6
f 305/3/6 306/3/6 313/3/6
f 312/1/6 305/1/6 313/1/6
f 313/3/6 306/3/6 314/3/6
f 307/3/6 308/3/6 315/3/6
f 308/3/6 279/3/6 315/3/6
f 279/1/6 309/1/6 316/1/6
f 315/3/6 279/3/6 316/3/6
f 309/3/6 310/3/6 317/3/6
f 316/1/6 309/1/6 317/1/6
f 310/2/6 311/2/6 318/2/6
f 317/3/6 310/3/6 318/3/6
f 311/3/6 312/3/6 319/3/6
f 318/2/6 311/2/6 319/2/6
f 319/3/6 312/3/6 320/3/6
f 313/1/6 314/1/6 321/1/6
f 320/3/6 312/3/6 321/3/6
f 312/1/6 313/1/6 321/1/6
f 315/1/6 316/1/6 322/1/6
f 316/1/6 317/1/6 322/1/6
f 317/1/6 318/1/6 322/1/6
f 322/1/6 318/1/6 323/1/6
f 319/1/6 320/1/6 324/1/6
f 318/3/6 319/3/6 324/3/6
f 320/2/6 321/2/6 325/2/6
f 324/1/6 320/1/6 325/1/6
f 321/1/6 314/1/6 326/1/6
f 325/2/6 321/2/6 326/2/6
f 326/1/6 314/1/6 327/1/6
f 327/1/6 314/1/6 328/1/6
f 307/3/6 315/3/6 329/3/6
f 315/1/6 322/1/6 330/1/6
f 329/3/6 315/3/6 330/3/6
f 322/2/6 323/2/6 331/2/6
f 330/1/6 322/1/6 331/1/6
f 323/1/6 318/1/6 332/1/6
f 331/2/6 323/2/6 332/2/6
f 318/3/6 324/3/6 333/3/6
f 332/1/6 318/1/6 333/1/6
f 324/2/6 325/2/6 334/2/6
f 333/3/6 324/3/6 334/3/6
f 325/3/6 326/3/6 335/3/6
f 334/2/6 325/2/6 335/2/6
f 326/1/6 327/1/6 336/1/6
f 335/3/6 326/3/6 336/3/6
f 327/3/6 328/3/6 337/3/6
f 336/1/6 327/1/6 337/1/6
f 337/3/6 328/3/6 338/3/6
