# MagicaVoxel @ Ephtracy

# group
o floor_stepwood

# material
mtllib tavern-73-floor_stepwood.mtl
usemtl palette

# normals
vn -1 0 0
vn 1 0 0
vn 0 0 1
vn 0 0 -1
vn 0 -1 0
vn 0 1 0

# texcoords
vt 0.708984 0.5
vt 0.740234 0.5
vt 0.744141 0.5

# verts
v 2.7 0 -2.1
v 2.7 0 -2.6
v 2.7 0.1 -2.1
v 2.7 0.1 -2.3
v 2.7 0.2 -2.3
v 2.7 0.2 -2.5
v 2.7 0.3 -2.5
v 2.7 0.3 -2.6
v 2.8 0 -2
v 2.8 0 -2.1
v 2.8 0.1 -2
v 2.8 0.1 -2.1
v 2.8 0.1 -2.2
v 2.8 0.1 -2.3
v 2.8 0.2 -2.2
v 2.8 0.2 -2.3
v 2.8 0.2 -2.4
v 2.8 0.2 -2.5
v 2.8 0.3 -2.4
v 2.8 0.3 -2.5
v 4.2 0 -2
v 4.2 0 -2.1
v 4.2 0.1 -2
v 4.2 0.1 -2.1
v 4.2 0.1 -2.2
v 4.2 0.1 -2.3
v 4.2 0.2 -2.2
v 4.2 0.2 -2.3
v 4.2 0.2 -2.4
v 4.2 0.2 -2.5
v 4.2 0.3 -2.4
v 4.2 0.3 -2.5
v 4.3 0 -2.1
v 4.3 0 -2.6
v 4.3 0.1 -2.1
v 4.3 0.1 -2.3
v 4.3 0.2 -2.3
v 4.3 0.2 -2.5
v 4.3 0.3 -2.5
v 4.3 0.3 -2.6
v 2.8 0 -2
v 2.8 0.1 -2
v 4.2 0 -2
v 4.2 0.1 -2
v 2.7 0 -2.1
v 2.7 0.1 -2.1
v 2.8 0 -2.1
v 2.8 0.1 -2.1
v 4.2 0 -2.1
v 4.2 0.1 -2.1
v 4.3 0 -2.1
v 4.3 0.1 -2.1
v 2.8 0.1 -2.2
v 2.8 0.2 -2.2
v 3 0.1 -2.2
v 3.2 0.1 -2.2
v 3.4 0.1 -2.2
v 3.6 0.1 -2.2
v 3.7 0.1 -2.2
v 3.8 0.1 -2.2
v 4.1 0.1 -2.2
v 4.2 0.1 -2.2
v 4.2 0.2 -2.2
v 2.7 0.1 -2.3
v 2.7 0.2 -2.3
v 2.8 0.1 -2.3
v 2.8 0.2 -2.3
v 4.2 0.1 -2.3
v 4.2 0.2 -2.3
v 4.3 0.1 -2.3
v 4.3 0.2 -2.3
v 2.8 0.2 -2.4
v 2.8 0.3 -2.4
v 3 0.2 -2.4
v 3.2 0.2 -2.4
v 3.3 0.2 -2.4
v 3.4 0.2 -2.4
v 3.5 0.2 -2.4
v 3.6 0.2 -2.4
v 3.7 0.2 -2.4
v 3.8 0.2 -2.4
v 4 0.2 -2.4
v 4.2 0.2 -2.4
v 4.2 0.3 -2.4
v 2.7 0.2 -2.5
v 2.7 0.3 -2.5
v 2.8 0.2 -2.5
v 2.8 0.3 -2.5
v 4.2 0.2 -2.5
v 4.2 0.3 -2.5
v 4.3 0.2 -2.5
v 4.3 0.3 -2.5
v 2.7 0 -2.6
v 2.7 0.3 -2.6
v 2.8 0 -2.6
v 2.8 0.2 -2.6
v 2.8 0.3 -2.6
v 2.9 0.1 -2.6
v 2.9 0.2 -2.6
v 3 0 -2.6
v 3 0.1 -2.6
v 3 0.2 -2.6
v 3 0.3 -2.6
v 3.1 0.1 -2.6
v 3.1 0.2 -2.6
v 3.2 0 -2.6
v 3.2 0.1 -2.6
v 3.2 0.2 -2.6
v 3.3 0 -2.6
v 3.3 0.1 -2.6
v 3.4 0.2 -2.6
v 3.4 0.3 -2.6
v 3.5 0 -2.6
v 3.5 0.1 -2.6
v 3.7 0.2 -2.6
v 3.7 0.3 -2.6
v 4 0 -2.6
v 4 0.1 -2.6
v 4.1 0.1 -2.6
v 4.1 0.2 -2.6
v 4.1 0.3 -2.6
v 4.2 0 -2.6
v 4.2 0.1 -2.6
v 4.2 0.2 -2.6
v 4.2 0.3 -2.6
v 4.3 0 -2.6
v 4.3 0.3 -2.6
v 2.8 0 -2
v 4.2 0 -2
v 2.7 0 -2.1
v 2.8 0 -2.1
v 3 0 -2.1
v 3.2 0 -2.1
v 3.4 0 -2.1
v 3.6 0 -2.1
v 3.7 0 -2.1
v 3.8 0 -2.1
v 4.1 0 -2.1
v 4.2 0 -2.1
v 4.3 0 -2.1
v 2.8 0 -2.2
v 3 0 -2.2
v 3.2 0 -2.2
v 3.3 0 -2.2
v 3.5 0 -2.2
v 3.6 0 -2.2
v 3.7 0 -2.2
v 3.8 0 -2.2
v 4 0 -2.2
v 2.8 0 -2.3
v 2.9 0 -2.3
v 3 0 -2.3
v 3.1 0 -2.3
v 3.2 0 -2.3
v 3.3 0 -2.3
v 3.6 0 -2.3
v 3.7 0 -2.3
v 3.9 0 -2.3
v 4 0 -2.3
v 4.1 0 -2.3
v 4.2 0 -2.3
v 2.8 0 -2.4
v 2.9 0 -2.4
v 3.1 0 -2.4
v 3.2 0 -2.4
v 3.3 0 -2.4
v 3.4 0 -2.4
v 3.5 0 -2.4
v 3.6 0 -2.4
v 3.8 0 -2.4
v 3.9 0 -2.4
v 4.1 0 -2.4
v 4.2 0 -2.4
v 2.8 0 -2.5
v 3 0 -2.5
v 3.2 0 -2.5
v 3.3 0 -2.5
v 3.5 0 -2.5
v 3.6 0 -2.5
v 2.7 0 -2.6
v 2.8 0 -2.6
v 3 0 -2.6
v 3.2 0 -2.6
v 3.3 0 -2.6
v 3.5 0 -2.6
v 4 0 -2.6
v 4.2 0 -2.6
v 4.3 0 -2.6
v 2.8 0.1 -2
v 4.2 0.1 -2
v 2.7 0.1 -2.1
v 2.8 0.1 -2.1
v 3 0.1 -2.1
v 3.2 0.1 -2.1
v 3.4 0.1 -2.1
v 3.6 0.1 -2.1
v 3.7 0.1 -2.1
v 3.8 0.1 -2.1
v 4.1 0.1 -2.1
v 4.2 0.1 -2.1
v 4.3 0.1 -2.1
v 2.8 0.1 -2.2
v 3 0.1 -2.2
v 3.2 0.1 -2.2
v 3.4 0.1 -2.2
v 3.6 0.1 -2.2
v 3.7 0.1 -2.2
v 3.8 0.1 -2.2
v 4.1 0.1 -2.2
v 4.2 0.1 -2.2
v 2.7 0.1 -2.3
v 2.8 0.1 -2.3
v 4.2 0.1 -2.3
v 4.3 0.1 -2.3
v 2.8 0.2 -2.2
v 4.2 0.2 -2.2
v 2.7 0.2 -2.3
v 2.8 0.2 -2.3
v 3 0.2 -2.3
v 3.2 0.2 -2.3
v 3.3 0.2 -2.3
v 3.4 0.2 -2.3
v 3.5 0.2 -2.3
v 3.6 0.2 -2.3
v 3.7 0.2 -2.3
v 3.8 0.2 -2.3
v 4 0.2 -2.3
v 4.2 0.2 -2.3
v 4.3 0.2 -2.3
v 2.8 0.2 -2.4
v 3 0.2 -2.4
v 3.2 0.2 -2.4
v 3.3 0.2 -2.4
v 3.4 0.2 -2.4
v 3.5 0.2 -2.4
v 3.6 0.2 -2.4
v 3.7 0.2 -2.4
v 3.8 0.2 -2.4
v 4 0.2 -2.4
v 4.2 0.2 -2.4
v 2.7 0.2 -2.5
v 2.8 0.2 -2.5
v 4.2 0.2 -2.5
v 4.3 0.2 -2.5
v 2.8 0.3 -2.4
v 4.2 0.3 -2.4
v 2.7 0.3 -2.5
v 2.8 0.3 -2.5
v 3 0.3 -2.5
v 3.4 0.3 -2.5
v 3.7 0.3 -2.5
v 4.1 0.3 -2.5
v 4.2 0.3 -2.5
v 4.3 0.3 -2.5
v 2.7 0.3 -2.6
v 2.8 0.3 -2.6
v 3 0.3 -2.6
v 3.4 0.3 -2.6
v 3.7 0.3 -2.6
v 4.1 0.3 -2.6
v 4.2 0.3 -2.6
v 4.3 0.3 -2.6

# faces
f 3/3/1 2/3/1 1/3/1
f 4/3/1 2/3/1 3/3/1
f 5/3/1 2/3/1 4/3/1
f 6/3/1 2/3/1 5/3/1
f 7/3/1 2/3/1 6/3/1
f 8/3/1 2/3/1 7/3/1
f 11/3/1 10/3/1 9/3/1
f 12/3/1 10/3/1 11/3/1
f 15/3/1 14/3/1 13/3/1
f 16/3/1 14/3/1 15/3/1
f 19/3/1 18/3/1 17/3/1
f 20/3/1 18/3/1 19/3/1
f 21/3/2 22/3/2 23/3/2
f 23/3/2 22/3/2 24/3/2
f 25/3/2 26/3/2 27/3/2
f 27/3/2 26/3/2 28/3/2
f 29/3/2 30/3/2 31/3/2
f 31/3/2 30/3/2 32/3/2
f 33/3/2 34/3/2 35/3/2
f 35/3/2 34/3/2 36/3/2
f 36/3/2 34/3/2 37/3/2
f 37/3/2 34/3/2 38/3/2
f 38/3/2 34/3/2 39/3/2
f 39/3/2 34/3/2 40/3/2
f 43/3/3 42/3/3 41/3/3
f 44/3/3 42/3/3 43/3/3
f 47/3/3 46/3/3 45/3/3
f 48/3/3 46/3/3 47/3/3
f 51/3/3 50/3/3 49/3/3
f 52/3/3 50/3/3 51/3/3
f 55/3/3 54/3/3 53/3/3
f 56/3/3 54/3/3 55/3/3
f 57/3/3 54/3/3 56/3/3
f 58/3/3 54/3/3 57/3/3
f 59/3/3 54/3/3 58/3/3
f 60/3/3 54/3/3 59/3/3
f 61/3/3 54/3/3 60/3/3
f 62/3/3 54/3/3 61/3/3
f 63/3/3 54/3/3 62/3/3
f 66/3/3 65/3/3 64/3/3
f 67/3/3 65/3/3 66/3/3
f 70/3/3 69/3/3 68/3/3
f 71/3/3 69/3/3 70/3/3
f 74/3/3 73/3/3 72/3/3
f 75/3/3 73/3/3 74/3/3
f 76/3/3 73/3/3 75/3/3
f 77/3/3 73/3/3 76/3/3
f 78/3/3 73/3/3 77/3/3
f 79/3/3 73/3/3 78/3/3
f 80/3/3 73/3/3 79/3/3
f 81/3/3 73/3/3 80/3/3
f 82/3/3 73/3/3 81/3/3
f 83/3/3 73/3/3 82/3/3
f 84/3/3 73/3/3 83/3/3
f 87/3/3 86/3/3 85/3/3
f 88/3/3 86/3/3 87/3/3
f 91/3/3 90/3/3 89/3/3
f 92/3/3 90/3/3 91/3/3
f 93/3/4 94/3/4 95/3/4
f 95/3/4 94/3/4 96/3/4
f 96/3/4 94/3/4 97/3/4
f 95/2/4 96/2/4 98/2/4
f 96/1/4 97/1/4 99/1/4
f 98/2/4 96/2/4 99/2/4
f 95/2/4 98/2/4 100/2/4
f 98/1/4 99/1/4 101/1/4
f 100/2/4 98/2/4 101/2/4
f 99/1/4 97/1/4 102/1/4
f 101/1/4 99/1/4 102/1/4
f 102/1/4 97/1/4 103/1/4
f 100/1/4 101/1/4 104/1/4
f 101/1/4 102/1/4 104/1/4
f 102/2/4 103/2/4 105/2/4
f 104/1/4 102/1/4 105/1/4
f 100/1/4 104/1/4 106/1/4
f 104/2/4 105/2/4 107/2/4
f 106/1/4 104/1/4 107/1/4
f 105/2/4 103/2/4 108/2/4
f 107/2/4 105/2/4 108/2/4
f 106/2/4 107/2/4 109/2/4
f 107/1/4 108/1/4 110/1/4
f 109/2/4 107/2/4 110/2/4
f 108/2/4 103/2/4 111/2/4
f 110/1/4 108/1/4 111/1/4
f 109/1/4 110/1/4 111/1/4
f 111/2/4 103/2/4 112/2/4
f 109/1/4 111/1/4 113/1/4
f 111/1/4 112/1/4 113/1/4
f 113/1/4 112/1/4 114/1/4
f 114/1/4 112/1/4 115/1/4
f 115/1/4 112/1/4 116/1/4
f 113/2/4 114/2/4 117/2/4
f 114/1/4 115/1/4 118/1/4
f 117/2/4 114/2/4 118/2/4
f 117/1/4 118/1/4 119/1/4
f 118/1/4 115/1/4 119/1/4
f 115/2/4 116/2/4 120/2/4
f 119/1/4 115/1/4 120/1/4
f 120/2/4 116/2/4 121/2/4
f 117/1/4 119/1/4 122/1/4
f 119/2/4 120/2/4 123/2/4
f 122/1/4 119/1/4 123/1/4
f 120/1/4 121/1/4 124/1/4
f 123/2/4 120/2/4 124/2/4
f 124/1/4 121/1/4 125/1/4
f 122/3/4 123/3/4 126/3/4
f 123/3/4 124/3/4 126/3/4
f 124/3/4 125/3/4 126/3/4
f 126/3/4 125/3/4 127/3/4
f 131/3/5 129/3/5 128/3/5
f 132/3/5 129/3/5 131/3/5
f 133/3/5 129/3/5 132/3/5
f 134/3/5 129/3/5 133/3/5
f 135/3/5 129/3/5 134/3/5
f 136/3/5 129/3/5 135/3/5
f 137/3/5 129/3/5 136/3/5
f 138/3/5 129/3/5 137/3/5
f 139/3/5 129/3/5 138/3/5
f 141/3/5 131/3/5 130/3/5
f 141/2/5 132/2/5 131/2/5
f 142/1/5 133/1/5 132/1/5
f 142/2/5 132/2/5 141/2/5
f 143/2/5 134/2/5 133/2/5
f 143/1/5 133/1/5 142/1/5
f 144/2/5 134/2/5 143/2/5
f 145/1/5 135/1/5 134/1/5
f 146/2/5 136/2/5 135/2/5
f 146/1/5 135/1/5 145/1/5
f 147/1/5 137/1/5 136/1/5
f 147/2/5 136/2/5 146/2/5
f 148/2/5 138/2/5 137/2/5
f 148/1/5 137/1/5 147/1/5
f 149/2/5 138/2/5 148/2/5
f 150/3/5 141/3/5 130/3/5
f 150/1/5 142/1/5 141/1/5
f 150/1/5 143/1/5 142/1/5
f 150/1/5 144/1/5 143/1/5
f 151/1/5 144/1/5 150/1/5
f 152/1/5 144/1/5 151/1/5
f 153/1/5 144/1/5 152/1/5
f 154/1/5 144/1/5 153/1/5
f 155/2/5 134/2/5 144/2/5
f 155/1/5 144/1/5 154/1/5
f 156/2/5 146/2/5 145/2/5
f 156/1/5 147/1/5 146/1/5
f 157/2/5 148/2/5 147/2/5
f 157/1/5 147/1/5 156/1/5
f 158/1/5 149/1/5 148/1/5
f 159/2/5 138/2/5 149/2/5
f 159/1/5 149/1/5 158/1/5
f 160/1/5 139/1/5 138/1/5
f 160/2/5 138/2/5 159/2/5
f 161/3/5 140/3/5 139/3/5
f 161/1/5 139/1/5 160/1/5
f 162/3/5 150/3/5 130/3/5
f 162/2/5 151/2/5 150/2/5
f 163/1/5 152/1/5 151/1/5
f 163/2/5 151/2/5 162/2/5
f 164/1/5 154/1/5 153/1/5
f 164/2/5 153/2/5 152/2/5
f 165/2/5 155/2/5 154/2/5
f 165/1/5 154/1/5 164/1/5
f 166/2/5 134/2/5 155/2/5
f 166/2/5 155/2/5 165/2/5
f 167/1/5 145/1/5 134/1/5
f 167/2/5 134/2/5 166/2/5
f 168/2/5 156/2/5 145/2/5
f 168/1/5 145/1/5 167/1/5
f 168/2/5 157/2/5 156/2/5
f 169/2/5 157/2/5 168/2/5
f 170/1/5 158/1/5 148/1/5
f 170/2/5 157/2/5 169/2/5
f 170/2/5 148/2/5 157/2/5
f 171/2/5 159/2/5 158/2/5
f 171/1/5 158/1/5 170/1/5
f 172/1/5 160/1/5 159/1/5
f 172/2/5 161/2/5 160/2/5
f 173/3/5 140/3/5 161/3/5
f 173/2/5 161/2/5 172/2/5
f 174/3/5 162/3/5 130/3/5
f 174/1/5 163/1/5 162/1/5
f 175/1/5 152/1/5 163/1/5
f 175/1/5 163/1/5 174/1/5
f 175/2/5 165/2/5 164/2/5
f 175/2/5 164/2/5 152/2/5
f 176/1/5 166/1/5 165/1/5
f 176/2/5 165/2/5 175/2/5
f 177/2/5 168/2/5 167/2/5
f 177/1/5 166/1/5 176/1/5
f 177/2/5 167/2/5 166/2/5
f 178/1/5 169/1/5 168/1/5
f 178/2/5 168/2/5 177/2/5
f 179/2/5 170/2/5 169/2/5
f 179/1/5 169/1/5 178/1/5
f 179/2/5 171/2/5 170/2/5
f 180/3/5 174/3/5 130/3/5
f 181/2/5 175/2/5 174/2/5
f 181/3/5 174/3/5 180/3/5
f 182/1/5 176/1/5 175/1/5
f 182/2/5 175/2/5 181/2/5
f 183/2/5 177/2/5 176/2/5
f 183/1/5 176/1/5 182/1/5
f 184/1/5 178/1/5 177/1/5
f 184/2/5 177/2/5 183/2/5
f 185/2/5 179/2/5 178/2/5
f 185/1/5 178/1/5 184/1/5
f 186/2/5 159/2/5 171/2/5
f 186/2/5 179/2/5 185/2/5
f 186/2/5 171/2/5 179/2/5
f 186/1/5 173/1/5 172/1/5
f 186/1/5 172/1/5 159/1/5
f 187/3/5 140/3/5 173/3/5
f 187/1/5 173/1/5 186/1/5
f 188/3/5 140/3/5 187/3/5
f 189/3/6 190/3/6 192/3/6
f 192/3/6 190/3/6 193/3/6
f 193/3/6 190/3/6 194/3/6
f 194/3/6 190/3/6 195/3/6
f 195/3/6 190/3/6 196/3/6
f 196/3/6 190/3/6 197/3/6
f 197/3/6 190/3/6 198/3/6
f 198/3/6 190/3/6 199/3/6
f 199/3/6 190/3/6 200/3/6
f 191/3/6 192/3/6 202/3/6
f 192/2/6 193/2/6 202/2/6
f 193/1/6 194/1/6 203/1/6
f 202/2/6 193/2/6 203/2/6
f 194/2/6 195/2/6 204/2/6
f 203/1/6 194/1/6 204/1/6
f 195/1/6 196/1/6 205/1/6
f 204/2/6 195/2/6 205/2/6
f 196/2/6 197/2/6 206/2/6
f 205/1/6 196/1/6 206/1/6
f 197/1/6 198/1/6 207/1/6
f 206/2/6 197/2/6 207/2/6
f 198/2/6 199/2/6 208/2/6
f 207/1/6 198/1/6 208/1/6
f 199/1/6 200/1/6 209/1/6
f 208/2/6 199/2/6 209/2/6
f 200/3/6 201/3/6 210/3/6
f 209/1/6 200/1/6 210/1/6
f 191/3/6 202/3/6 211/3/6
f 211/3/6 202/3/6 212/3/6
f 210/3/6 201/3/6 213/3/6
f 213/3/6 201/3/6 214/3/6
f 215/3/6 216/3/6 218/3/6
f 218/3/6 216/3/6 219/3/6
f 219/3/6 216/3/6 220/3/6
f 220/3/6 216/3/6 221/3/6
f 221/3/6 216/3/6 222/3/6
f 222/3/6 216/3/6 223/3/6
f 223/3/6 216/3/6 224/3/6
f 224/3/6 216/3/6 225/3/6
f 225/3/6 216/3/6 226/3/6
f 226/3/6 216/3/6 227/3/6
f 227/3/6 216/3/6 228/3/6
f 217/3/6 218/3/6 230/3/6
f 218/2/6 219/2/6 230/2/6
f 219/1/6 220/1/6 231/1/6
f 230/2/6 219/2/6 231/2/6
f 220/2/6 221/2/6 232/2/6
f 231/1/6 220/1/6 232/1/6
f 221/1/6 222/1/6 233/1/6
f 232/2/6 221/2/6 233/2/6
f 222/2/6 223/2/6 234/2/6
f 233/1/6 222/1/6 234/1/6
f 223/1/6 224/1/6 235/1/6
f 234/2/6 223/2/6 235/2/6
f 224/2/6 225/2/6 236/2/6
f 235/1/6 224/1/6 236/1/6
f 225/1/6 226/1/6 237/1/6
f 236/2/6 225/2/6 237/2/6
f 226/2/6 227/2/6 238/2/6
f 237/1/6 226/1/6 238/1/6
f 227/1/6 228/1/6 239/1/6
f 238/2/6 227/2/6 239/2/6
f 228/3/6 229/3/6 240/3/6
f 239/1/6 228/1/6 240/1/6
f 217/3/6 230/3/6 241/3/6
f 241/3/6 230/3/6 242/3/6
f 240/3/6 229/3/6 243/3/6
f 243/3/6 229/3/6 244/3/6
f 245/3/6 246/3/6 248/3/6
f 248/3/6 246/3/6 249/3/6
f 249/3/6 246/3/6 250/3/6
f 250/3/6 246/3/6 251/3/6
f 251/3/6 246/3/6 252/3/6
f 252/3/6 246/3/6 253/3/6
f 247/3/6 248/3/6 255/3/6
f 248/1/6 249/1/6 256/1/6
f 255/3/6 248/3/6 256/3/6
f 249/2/6 250/2/6 257/2/6
f 256/1/6 249/1/6 257/1/6
f 250/1/6 251/1/6 258/1/6
f 257/2/6 250/2/6 258/2/6
f 251/2/6 252/2/6 259/2/6
f 258/1/6 251/1/6 259/1/6
f 252/1/6 253/1/6 260/1/6
f 259/2/6 252/2/6 260/2/6
f 253/3/6 254/3/6 261/3/6
f 260/1/6 253/1/6 261/1/6
f 261/3/6 254/3/6 262/3/6
