# MagicaVoxel @ Ephtracy

# group
o shelf_empty

# material
mtllib tavern-32-shelf_empty.mtl
usemtl palette

# normals
vn -1 0 0
vn 1 0 0
vn 0 0 1
vn 0 0 -1
vn 0 -1 0
vn 0 1 0

# texcoords
vt 0.0253906 0.5
vt 0.712891 0.5
vt 0.736328 0.5

# verts
v 11.5 0 1.3
v 11.5 0 1.1
v 11.5 0.1 1.4
v 11.5 0.1 1.3
v 11.5 0.1 1.1
v 11.5 0.2 1.5
v 11.5 0.2 1.4
v 11.5 0.2 1.3
v 11.5 0.3 1.5
v 11.5 0.3 1.4
v 11.5 0.3 1.2
v 11.5 0.3 1.1
v 11.5 0.4 1.5
v 11.5 0.4 1.2
v 11.5 0.4 1.1
v 12.4 0 1.3
v 12.4 0 1.1
v 12.4 0.1 1.4
v 12.4 0.1 1.3
v 12.4 0.1 1.1
v 12.4 0.2 1.5
v 12.4 0.2 1.4
v 12.4 0.2 1.3
v 12.4 0.3 1.5
v 12.4 0.3 1.4
v 11.6 0 1.3
v 11.6 0 1.1
v 11.6 0.1 1.4
v 11.6 0.1 1.3
v 11.6 0.1 1.1
v 11.6 0.2 1.5
v 11.6 0.2 1.4
v 11.6 0.2 1.3
v 11.6 0.3 1.5
v 11.6 0.3 1.4
v 12.5 0 1.3
v 12.5 0 1.1
v 12.5 0.1 1.4
v 12.5 0.1 1.3
v 12.5 0.1 1.1
v 12.5 0.2 1.5
v 12.5 0.2 1.4
v 12.5 0.2 1.3
v 12.5 0.3 1.5
v 12.5 0.3 1.4
v 12.5 0.3 1.3
v 12.5 0.3 1.1
v 12.5 0.4 1.5
v 12.5 0.4 1.4
v 12.5 0.4 1.3
v 12.5 0.4 1.1
v 11.5 0.2 1.5
v 11.5 0.3 1.5
v 11.5 0.4 1.5
v 11.6 0.2 1.5
v 11.6 0.3 1.5
v 11.6 0.4 1.5
v 11.7 0.3 1.5
v 11.7 0.4 1.5
v 11.9 0.3 1.5
v 11.9 0.4 1.5
v 12 0.3 1.5
v 12 0.4 1.5
v 12.2 0.3 1.5
v 12.2 0.4 1.5
v 12.3 0.3 1.5
v 12.3 0.4 1.5
v 12.4 0.2 1.5
v 12.4 0.3 1.5
v 12.4 0.4 1.5
v 12.5 0.2 1.5
v 12.5 0.3 1.5
v 12.5 0.4 1.5
v 11.5 0.1 1.4
v 11.5 0.2 1.4
v 11.6 0.1 1.4
v 11.6 0.2 1.4
v 12.4 0.1 1.4
v 12.4 0.2 1.4
v 12.5 0.1 1.4
v 12.5 0.2 1.4
v 11.5 0 1.3
v 11.5 0.1 1.3
v 11.6 0 1.3
v 11.6 0.1 1.3
v 12.4 0 1.3
v 12.4 0.1 1.3
v 12.5 0 1.3
v 12.5 0.1 1.3
v 11.5 0.2 1.4
v 11.5 0.3 1.4
v 11.6 0.2 1.4
v 11.6 0.3 1.4
v 12.4 0.2 1.4
v 12.4 0.3 1.4
v 12.5 0.2 1.4
v 12.5 0.3 1.4
v 11.5 0.1 1.3
v 11.5 0.2 1.3
v 11.6 0.1 1.3
v 11.6 0.2 1.3
v 12.4 0.1 1.3
v 12.4 0.2 1.3
v 12.5 0.1 1.3
v 12.5 0.2 1.3
v 11.5 0 1.1
v 11.5 0.1 1.1
v 11.5 0.3 1.1
v 11.5 0.4 1.1
v 11.6 0 1.1
v 11.6 0.1 1.1
v 11.6 0.3 1.1
v 11.6 0.4 1.1
v 11.7 0.3 1.1
v 11.7 0.4 1.1
v 12 0.3 1.1
v 12 0.4 1.1
v 12.2 0.3 1.1
v 12.2 0.4 1.1
v 12.4 0 1.1
v 12.4 0.1 1.1
v 12.5 0 1.1
v 12.5 0.1 1.1
v 12.5 0.3 1.1
v 12.5 0.4 1.1
v 11.5 0 1.3
v 11.6 0 1.3
v 12.4 0 1.3
v 12.5 0 1.3
v 11.5 0 1.1
v 11.6 0 1.1
v 12.4 0 1.1
v 12.5 0 1.1
v 11.5 0.1 1.4
v 11.6 0.1 1.4
v 12.4 0.1 1.4
v 12.5 0.1 1.4
v 11.5 0.1 1.3
v 11.6 0.1 1.3
v 12.4 0.1 1.3
v 12.5 0.1 1.3
v 11.5 0.2 1.5
v 11.6 0.2 1.5
v 12.4 0.2 1.5
v 12.5 0.2 1.5
v 11.5 0.2 1.4
v 11.6 0.2 1.4
v 12.4 0.2 1.4
v 12.5 0.2 1.4
v 11.6 0.3 1.5
v 11.7 0.3 1.5
v 11.9 0.3 1.5
v 12 0.3 1.5
v 12.2 0.3 1.5
v 12.3 0.3 1.5
v 12.4 0.3 1.5
v 11.5 0.3 1.4
v 11.6 0.3 1.4
v 11.7 0.3 1.4
v 11.8 0.3 1.4
v 11.9 0.3 1.4
v 12 0.3 1.4
v 12.1 0.3 1.4
v 12.4 0.3 1.4
v 12.5 0.3 1.4
v 11.8 0.3 1.3
v 11.9 0.3 1.3
v 12.3 0.3 1.3
v 12.5 0.3 1.3
v 11.5 0.3 1.2
v 11.6 0.3 1.2
v 11.7 0.3 1.2
v 11.9 0.3 1.2
v 12 0.3 1.2
v 12.1 0.3 1.2
v 11.5 0.3 1.1
v 11.6 0.3 1.1
v 11.7 0.3 1.1
v 12 0.3 1.1
v 12.2 0.3 1.1
v 12.5 0.3 1.1
v 11.5 0.1 1.3
v 11.6 0.1 1.3
v 12.4 0.1 1.3
v 12.5 0.1 1.3
v 11.5 0.1 1.1
v 11.6 0.1 1.1
v 12.4 0.1 1.1
v 12.5 0.1 1.1
v 11.5 0.2 1.4
v 11.6 0.2 1.4
v 12.4 0.2 1.4
v 12.5 0.2 1.4
v 11.5 0.2 1.3
v 11.6 0.2 1.3
v 12.4 0.2 1.3
v 12.5 0.2 1.3
v 11.5 0.4 1.5
v 11.6 0.4 1.5
v 11.7 0.4 1.5
v 11.9 0.4 1.5
v 12 0.4 1.5
v 12.2 0.4 1.5
v 12.3 0.4 1.5
v 12.4 0.4 1.5
v 12.5 0.4 1.5
v 11.6 0.4 1.4
v 11.7 0.4 1.4
v 11.8 0.4 1.4
v 11.9 0.4 1.4
v 12 0.4 1.4
v 12.1 0.4 1.4
v 12.4 0.4 1.4
v 12.5 0.4 1.4
v 11.8 0.4 1.3
v 11.9 0.4 1.3
v 12.3 0.4 1.3
v 12.5 0.4 1.3
v 11.5 0.4 1.2
v 11.6 0.4 1.2
v 11.7 0.4 1.2
v 11.9 0.4 1.2
v 12 0.4 1.2
v 12.1 0.4 1.2
v 11.5 0.4 1.1
v 11.6 0.4 1.1
v 11.7 0.4 1.1
v 12 0.4 1.1
v 12.2 0.4 1.1
v 12.5 0.4 1.1

# faces
f 4/1/1 2/1/1 1/1/1
f 5/1/1 2/1/1 4/1/1
f 7/1/1 4/1/1 3/1/1
f 8/1/1 4/1/1 7/1/1
f 9/1/1 7/1/1 6/1/1
f 10/1/1 7/1/1 9/1/1
f 13/2/1 10/2/1 9/2/1
f 13/2/1 11/2/1 10/2/1
f 14/3/1 12/3/1 11/3/1
f 14/2/1 11/2/1 13/2/1
f 15/3/1 12/3/1 14/3/1
f 19/1/1 17/1/1 16/1/1
f 20/1/1 17/1/1 19/1/1
f 22/1/1 19/1/1 18/1/1
f 23/1/1 19/1/1 22/1/1
f 24/1/1 22/1/1 21/1/1
f 25/1/1 22/1/1 24/1/1
f 26/1/2 27/1/2 29/1/2
f 29/1/2 27/1/2 30/1/2
f 28/1/2 29/1/2 32/1/2
f 32/1/2 29/1/2 33/1/2
f 31/1/2 32/1/2 34/1/2
f 34/1/2 32/1/2 35/1/2
f 36/1/2 37/1/2 39/1/2
f 39/1/2 37/1/2 40/1/2
f 38/1/2 39/1/2 42/1/2
f 42/1/2 39/1/2 43/1/2
f 41/1/2 42/1/2 44/1/2
f 44/1/2 42/1/2 45/1/2
f 44/3/2 45/3/2 48/3/2
f 45/2/2 46/2/2 49/2/2
f 48/3/2 45/3/2 49/3/2
f 46/3/2 47/3/2 50/3/2
f 49/2/2 46/2/2 50/2/2
f 50/3/2 47/3/2 51/3/2
f 55/1/3 53/1/3 52/1/3
f 56/2/3 54/2/3 53/2/3
f 56/1/3 53/1/3 55/1/3
f 57/2/3 54/2/3 56/2/3
f 58/3/3 57/3/3 56/3/3
f 59/3/3 57/3/3 58/3/3
f 60/2/3 59/2/3 58/2/3
f 61/2/3 59/2/3 60/2/3
f 62/3/3 61/3/3 60/3/3
f 63/3/3 61/3/3 62/3/3
f 64/2/3 63/2/3 62/2/3
f 65/2/3 63/2/3 64/2/3
f 66/3/3 65/3/3 64/3/3
f 67/3/3 65/3/3 66/3/3
f 69/2/3 67/2/3 66/2/3
f 70/2/3 67/2/3 69/2/3
f 71/1/3 69/1/3 68/1/3
f 72/3/3 70/3/3 69/3/3
f 72/1/3 69/1/3 71/1/3
f 73/3/3 70/3/3 72/3/3
f 76/1/3 75/1/3 74/1/3
f 77/1/3 75/1/3 76/1/3
f 80/1/3 79/1/3 78/1/3
f 81/1/3 79/1/3 80/1/3
f 84/1/3 83/1/3 82/1/3
f 85/1/3 83/1/3 84/1/3
f 88/1/3 87/1/3 86/1/3
f 89/1/3 87/1/3 88/1/3
f 90/1/4 91/1/4 92/1/4
f 92/1/4 91/1/4 93/1/4
f 94/1/4 95/1/4 96/1/4
f 96/1/4 95/1/4 97/1/4
f 98/1/4 99/1/4 100/1/4
f 100/1/4 99/1/4 101/1/4
f 102/1/4 103/1/4 104/1/4
f 104/1/4 103/1/4 105/1/4
f 106/1/4 107/1/4 110/1/4
f 110/1/4 107/1/4 111/1/4
f 108/3/4 109/3/4 112/3/4
f 112/3/4 109/3/4 113/3/4
f 112/2/4 113/2/4 114/2/4
f 114/2/4 113/2/4 115/2/4
f 114/3/4 115/3/4 116/3/4
f 116/3/4 115/3/4 117/3/4
f 116/2/4 117/2/4 118/2/4
f 118/2/4 117/2/4 119/2/4
f 120/1/4 121/1/4 122/1/4
f 122/1/4 121/1/4 123/1/4
f 118/3/4 119/3/4 124/3/4
f 124/3/4 119/3/4 125/3/4
f 130/1/5 127/1/5 126/1/5
f 131/1/5 127/1/5 130/1/5
f 132/1/5 129/1/5 128/1/5
f 133/1/5 129/1/5 132/1/5
f 138/1/5 135/1/5 134/1/5
f 139/1/5 135/1/5 138/1/5
f 140/1/5 137/1/5 136/1/5
f 141/1/5 137/1/5 140/1/5
f 146/1/5 143/1/5 142/1/5
f 147/1/5 143/1/5 146/1/5
f 148/1/5 145/1/5 144/1/5
f 149/1/5 145/1/5 148/1/5
f 158/3/5 151/3/5 150/3/5
f 159/2/5 152/2/5 151/2/5
f 159/3/5 151/3/5 158/3/5
f 160/2/5 152/2/5 159/2/5
f 161/3/5 153/3/5 152/3/5
f 161/2/5 152/2/5 160/2/5
f 162/2/5 154/2/5 153/2/5
f 162/3/5 153/3/5 161/3/5
f 163/2/5 154/2/5 162/2/5
f 164/2/5 156/2/5 155/2/5
f 166/2/5 158/2/5 157/2/5
f 166/2/5 160/2/5 159/2/5
f 166/3/5 161/3/5 160/3/5
f 166/3/5 163/3/5 162/3/5
f 166/3/5 162/3/5 161/3/5
f 166/2/5 159/2/5 158/2/5
f 167/3/5 163/3/5 166/3/5
f 168/2/5 165/2/5 164/2/5
f 168/2/5 164/2/5 155/2/5
f 168/3/5 155/3/5 154/3/5
f 169/2/5 165/2/5 168/2/5
f 170/2/5 167/2/5 166/2/5
f 170/2/5 166/2/5 157/2/5
f 171/2/5 167/2/5 170/2/5
f 172/2/5 167/2/5 171/2/5
f 173/3/5 163/3/5 167/3/5
f 173/2/5 167/2/5 172/2/5
f 174/3/5 163/3/5 173/3/5
f 175/2/5 154/2/5 163/2/5
f 175/3/5 163/3/5 174/3/5
f 176/3/5 171/3/5 170/3/5
f 177/2/5 172/2/5 171/2/5
f 177/3/5 171/3/5 176/3/5
f 178/3/5 174/3/5 173/3/5
f 178/2/5 172/2/5 177/2/5
f 178/3/5 173/3/5 172/3/5
f 179/2/5 175/2/5 174/2/5
f 179/3/5 174/3/5 178/3/5
f 180/3/5 169/3/5 168/3/5
f 180/2/5 175/2/5 179/2/5
f 180/3/5 168/3/5 154/3/5
f 180/2/5 154/2/5 175/2/5
f 181/3/5 169/3/5 180/3/5
f 182/1/6 183/1/6 186/1/6
f 186/1/6 183/1/6 187/1/6
f 184/1/6 185/1/6 188/1/6
f 188/1/6 185/1/6 189/1/6
f 190/1/6 191/1/6 194/1/6
f 194/1/6 191/1/6 195/1/6
f 192/1/6 193/1/6 196/1/6
f 196/1/6 193/1/6 197/1/6
f 198/2/6 199/2/6 207/2/6
f 199/3/6 200/3/6 207/3/6
f 200/2/6 201/2/6 208/2/6
f 207/3/6 200/3/6 208/3/6
f 208/2/6 201/2/6 209/2/6
f 201/3/6 202/3/6 210/3/6
f 209/2/6 201/2/6 210/2/6
f 202/2/6 203/2/6 211/2/6
f 210/3/6 202/3/6 211/3/6
f 211/2/6 203/2/6 212/2/6
f 205/3/6 206/3/6 213/3/6
f 204/2/6 205/2/6 213/2/6
f 213/3/6 206/3/6 214/3/6
f 211/3/6 212/3/6 215/3/6
f 208/2/6 209/2/6 215/2/6
f 209/3/6 210/3/6 215/3/6
f 207/2/6 208/2/6 215/2/6
f 210/3/6 211/3/6 215/3/6
f 215/3/6 212/3/6 216/3/6
f 213/2/6 214/2/6 217/2/6
f 204/2/6 213/2/6 217/2/6
f 203/3/6 204/3/6 217/3/6
f 217/2/6 214/2/6 218/2/6
f 198/2/6 207/2/6 219/2/6
f 215/2/6 216/2/6 219/2/6
f 207/2/6 215/2/6 219/2/6
f 219/2/6 216/2/6 220/2/6
f 220/2/6 216/2/6 221/2/6
f 216/3/6 212/3/6 222/3/6
f 221/2/6 216/2/6 222/2/6
f 222/3/6 212/3/6 223/3/6
f 212/2/6 203/2/6 224/2/6
f 223/3/6 212/3/6 224/3/6
f 219/3/6 220/3/6 225/3/6
f 220/2/6 221/2/6 226/2/6
f 225/3/6 220/3/6 226/3/6
f 222/3/6 223/3/6 227/3/6
f 226/2/6 221/2/6 227/2/6
f 221/3/6 222/3/6 227/3/6
f 223/2/6 224/2/6 228/2/6
f 227/3/6 223/3/6 228/3/6
f 217/3/6 218/3/6 229/3/6
f 228/2/6 224/2/6 229/2/6
f 203/3/6 217/3/6 229/3/6
f 224/2/6 203/2/6 229/2/6
f 229/3/6 218/3/6 230/3/6
