# MagicaVoxel @ Ephtracy

# group
o globe

# material
mtllib tavern-1-globe.mtl
usemtl palette

# normals
vn -1 0 0
vn 1 0 0
vn 0 0 1
vn 0 0 -1
vn 0 -1 0
vn 0 1 0

# texcoords
vt 0.591797 0.5
vt 0.705078 0.5
vt 0.712891 0.5
vt 0.767578 0.5

# verts
v 13.3 0.3 1.4
v 13.3 0.3 1.2
v 13.3 0.3 1.1
v 13.3 0.4 1.3
v 13.3 0.4 1.2
v 13.3 0.5 1.4
v 13.3 0.5 1.3
v 13.3 0.5 1.1
v 13.4 0 1.3
v 13.4 0 1.2
v 13.4 0.1 1.3
v 13.4 0.1 1.2
v 13.4 0.2 1.4
v 13.4 0.2 1.2
v 13.4 0.2 1.1
v 13.4 0.3 1.5
v 13.4 0.3 1.4
v 13.4 0.3 1.2
v 13.4 0.3 1.1
v 13.4 0.3 1
v 13.4 0.5 1.5
v 13.4 0.5 1.4
v 13.4 0.5 1.3
v 13.4 0.5 1.1
v 13.4 0.5 1
v 13.4 0.6 1.4
v 13.4 0.6 1.3
v 13.4 0.6 1.1
v 13.5 0 1.4
v 13.5 0 1.3
v 13.5 0 1.2
v 13.5 0 1.1
v 13.5 0.1 1.4
v 13.5 0.1 1.3
v 13.5 0.1 1.2
v 13.5 0.1 1.1
v 13.5 0.2 1.3
v 13.5 0.2 1.2
v 13.5 0.6 1.3
v 13.5 0.6 1.2
v 13.5 0.7 1.3
v 13.5 0.7 1.2
v 13.6 0 1.4
v 13.6 0 1.3
v 13.6 0 1.2
v 13.6 0 1.1
v 13.6 0.1 1.4
v 13.6 0.1 1.3
v 13.6 0.1 1.2
v 13.6 0.1 1.1
v 13.6 0.2 1.3
v 13.6 0.2 1.2
v 13.6 0.6 1.3
v 13.6 0.6 1.2
v 13.6 0.7 1.3
v 13.6 0.7 1.2
v 13.7 0 1.3
v 13.7 0 1.2
v 13.7 0.1 1.3
v 13.7 0.1 1.2
v 13.7 0.2 1.4
v 13.7 0.2 1.2
v 13.7 0.2 1.1
v 13.7 0.3 1.5
v 13.7 0.3 1.4
v 13.7 0.3 1.3
v 13.7 0.3 1.2
v 13.7 0.3 1.1
v 13.7 0.3 1
v 13.7 0.4 1.5
v 13.7 0.4 1.4
v 13.7 0.4 1.1
v 13.7 0.4 1
v 13.7 0.5 1.5
v 13.7 0.5 1.4
v 13.7 0.5 1.3
v 13.7 0.5 1.2
v 13.7 0.5 1.1
v 13.7 0.5 1
v 13.7 0.6 1.4
v 13.7 0.6 1.3
v 13.7 0.6 1.2
v 13.7 0.6 1.1
v 13.8 0.3 1.4
v 13.8 0.3 1.3
v 13.8 0.3 1.1
v 13.8 0.5 1.4
v 13.8 0.5 1.3
v 13.8 0.5 1.1
v 13.4 0.3 1.5
v 13.4 0.5 1.5
v 13.5 0.3 1.5
v 13.5 0.5 1.5
v 13.6 0.4 1.5
v 13.6 0.5 1.5
v 13.7 0.3 1.5
v 13.7 0.4 1.5
v 13.7 0.5 1.5
v 13.3 0.3 1.4
v 13.3 0.5 1.4
v 13.4 0.2 1.4
v 13.4 0.3 1.4
v 13.4 0.5 1.4
v 13.4 0.6 1.4
v 13.5 0 1.4
v 13.5 0.1 1.4
v 13.5 0.3 1.4
v 13.5 0.5 1.4
v 13.5 0.6 1.4
v 13.6 0 1.4
v 13.6 0.1 1.4
v 13.6 0.2 1.4
v 13.6 0.3 1.4
v 13.6 0.5 1.4
v 13.6 0.6 1.4
v 13.7 0.2 1.4
v 13.7 0.3 1.4
v 13.7 0.4 1.4
v 13.7 0.5 1.4
v 13.7 0.6 1.4
v 13.8 0.3 1.4
v 13.8 0.5 1.4
v 13.4 0 1.3
v 13.4 0.1 1.3
v 13.5 0 1.3
v 13.5 0.1 1.3
v 13.5 0.2 1.3
v 13.5 0.6 1.3
v 13.5 0.7 1.3
v 13.6 0 1.3
v 13.6 0.1 1.3
v 13.6 0.2 1.3
v 13.6 0.6 1.3
v 13.6 0.7 1.3
v 13.7 0 1.3
v 13.7 0.1 1.3
v 13.4 0 1.2
v 13.4 0.1 1.2
v 13.5 0 1.2
v 13.5 0.1 1.2
v 13.5 0.2 1.2
v 13.5 0.6 1.2
v 13.5 0.7 1.2
v 13.6 0 1.2
v 13.6 0.1 1.2
v 13.6 0.2 1.2
v 13.6 0.6 1.2
v 13.6 0.7 1.2
v 13.7 0 1.2
v 13.7 0.1 1.2
v 13.3 0.3 1.1
v 13.3 0.5 1.1
v 13.4 0.2 1.1
v 13.4 0.3 1.1
v 13.4 0.5 1.1
v 13.4 0.6 1.1
v 13.5 0 1.1
v 13.5 0.1 1.1
v 13.5 0.2 1.1
v 13.5 0.3 1.1
v 13.5 0.5 1.1
v 13.5 0.6 1.1
v 13.6 0 1.1
v 13.6 0.1 1.1
v 13.7 0.2 1.1
v 13.7 0.3 1.1
v 13.7 0.4 1.1
v 13.7 0.5 1.1
v 13.7 0.6 1.1
v 13.8 0.3 1.1
v 13.8 0.5 1.1
v 13.4 0.3 1
v 13.4 0.5 1
v 13.5 0.3 1
v 13.5 0.4 1
v 13.7 0.3 1
v 13.7 0.4 1
v 13.7 0.5 1
v 13.5 0 1.4
v 13.6 0 1.4
v 13.4 0 1.3
v 13.5 0 1.3
v 13.6 0 1.3
v 13.7 0 1.3
v 13.4 0 1.2
v 13.5 0 1.2
v 13.6 0 1.2
v 13.7 0 1.2
v 13.5 0 1.1
v 13.6 0 1.1
v 13.4 0.2 1.4
v 13.6 0.2 1.4
v 13.7 0.2 1.4
v 13.5 0.2 1.3
v 13.6 0.2 1.3
v 13.4 0.2 1.2
v 13.5 0.2 1.2
v 13.6 0.2 1.2
v 13.7 0.2 1.2
v 13.4 0.2 1.1
v 13.5 0.2 1.1
v 13.7 0.2 1.1
v 13.4 0.3 1.5
v 13.5 0.3 1.5
v 13.7 0.3 1.5
v 13.3 0.3 1.4
v 13.4 0.3 1.4
v 13.5 0.3 1.4
v 13.6 0.3 1.4
v 13.7 0.3 1.4
v 13.8 0.3 1.4
v 13.7 0.3 1.3
v 13.8 0.3 1.3
v 13.3 0.3 1.2
v 13.4 0.3 1.2
v 13.7 0.3 1.2
v 13.3 0.3 1.1
v 13.4 0.3 1.1
v 13.5 0.3 1.1
v 13.7 0.3 1.1
v 13.8 0.3 1.1
v 13.4 0.3 1
v 13.5 0.3 1
v 13.7 0.3 1
v 13.5 0.1 1.4
v 13.6 0.1 1.4
v 13.4 0.1 1.3
v 13.5 0.1 1.3
v 13.6 0.1 1.3
v 13.7 0.1 1.3
v 13.4 0.1 1.2
v 13.5 0.1 1.2
v 13.6 0.1 1.2
v 13.7 0.1 1.2
v 13.5 0.1 1.1
v 13.6 0.1 1.1
v 13.4 0.5 1.5
v 13.5 0.5 1.5
v 13.6 0.5 1.5
v 13.7 0.5 1.5
v 13.3 0.5 1.4
v 13.4 0.5 1.4
v 13.5 0.5 1.4
v 13.6 0.5 1.4
v 13.7 0.5 1.4
v 13.8 0.5 1.4
v 13.3 0.5 1.3
v 13.4 0.5 1.3
v 13.7 0.5 1.3
v 13.8 0.5 1.3
v 13.7 0.5 1.2
v 13.3 0.5 1.1
v 13.4 0.5 1.1
v 13.5 0.5 1.1
v 13.7 0.5 1.1
v 13.8 0.5 1.1
v 13.4 0.5 1
v 13.7 0.5 1
v 13.4 0.6 1.4
v 13.5 0.6 1.4
v 13.6 0.6 1.4
v 13.7 0.6 1.4
v 13.4 0.6 1.3
v 13.5 0.6 1.3
v 13.6 0.6 1.3
v 13.7 0.6 1.3
v 13.5 0.6 1.2
v 13.6 0.6 1.2
v 13.7 0.6 1.2
v 13.4 0.6 1.1
v 13.5 0.6 1.1
v 13.7 0.6 1.1
v 13.5 0.7 1.3
v 13.6 0.7 1.3
v 13.5 0.7 1.2
v 13.6 0.7 1.2

# faces
f 4/1/1 2/1/1 1/1/1
f 5/4/1 3/4/1 2/4/1
f 5/1/1 2/1/1 4/1/1
f 6/1/1 4/1/1 1/1/1
f 7/4/1 5/4/1 4/4/1
f 7/1/1 4/1/1 6/1/1
f 8/4/1 3/4/1 5/4/1
f 8/4/1 5/4/1 7/4/1
f 11/3/1 10/3/1 9/3/1
f 12/3/1 10/3/1 11/3/1
f 17/4/1 14/4/1 13/4/1
f 18/1/1 15/1/1 14/1/1
f 18/4/1 14/4/1 17/4/1
f 19/1/1 15/1/1 18/1/1
f 21/1/1 17/1/1 16/1/1
f 22/1/1 17/1/1 21/1/1
f 24/1/1 20/1/1 19/1/1
f 25/1/1 20/1/1 24/1/1
f 26/1/1 23/1/1 22/1/1
f 27/4/1 24/4/1 23/4/1
f 27/1/1 23/1/1 26/1/1
f 28/4/1 24/4/1 27/4/1
f 33/3/1 30/3/1 29/3/1
f 34/3/1 30/3/1 33/3/1
f 35/3/1 32/3/1 31/3/1
f 36/3/1 32/3/1 35/3/1
f 37/3/1 35/3/1 34/3/1
f 38/3/1 35/3/1 37/3/1
f 41/3/1 40/3/1 39/3/1
f 42/3/1 40/3/1 41/3/1
f 43/3/2 44/3/2 47/3/2
f 47/3/2 44/3/2 48/3/2
f 45/3/2 46/3/2 49/3/2
f 49/3/2 46/3/2 50/3/2
f 48/3/2 49/3/2 51/3/2
f 51/3/2 49/3/2 52/3/2
f 53/3/2 54/3/2 55/3/2
f 55/3/2 54/3/2 56/3/2
f 57/3/2 58/3/2 59/3/2
f 59/3/2 58/3/2 60/3/2
f 61/1/2 62/1/2 65/1/2
f 65/1/2 62/1/2 66/1/2
f 62/4/2 63/4/2 67/4/2
f 66/1/2 62/1/2 67/1/2
f 67/4/2 63/4/2 68/4/2
f 64/4/2 65/4/2 70/4/2
f 70/4/2 65/4/2 71/4/2
f 68/4/2 69/4/2 72/4/2
f 72/4/2 69/4/2 73/4/2
f 70/1/2 71/1/2 74/1/2
f 74/1/2 71/1/2 75/1/2
f 72/1/2 73/1/2 78/1/2
f 78/1/2 73/1/2 79/1/2
f 75/1/2 76/1/2 80/1/2
f 76/4/2 77/4/2 81/4/2
f 80/1/2 76/1/2 81/1/2
f 77/1/2 78/1/2 82/1/2
f 81/4/2 77/4/2 82/4/2
f 82/1/2 78/1/2 83/1/2
f 84/1/2 85/1/2 87/1/2
f 85/4/2 86/4/2 88/4/2
f 87/1/2 85/1/2 88/1/2
f 88/4/2 86/4/2 89/4/2
f 92/1/3 91/1/3 90/1/3
f 93/1/3 91/1/3 92/1/3
f 94/4/3 93/4/3 92/4/3
f 95/4/3 93/4/3 94/4/3
f 96/4/3 94/4/3 92/4/3
f 97/1/3 95/1/3 94/1/3
f 97/4/3 94/4/3 96/4/3
f 98/1/3 95/1/3 97/1/3
f 102/1/3 100/1/3 99/1/3
f 103/1/3 100/1/3 102/1/3
f 107/4/3 102/4/3 101/4/3
f 108/1/3 104/1/3 103/1/3
f 109/1/3 104/1/3 108/1/3
f 110/3/3 106/3/3 105/3/3
f 111/3/3 106/3/3 110/3/3
f 112/4/3 107/4/3 101/4/3
f 113/4/3 107/4/3 112/4/3
f 114/4/3 109/4/3 108/4/3
f 115/4/3 109/4/3 114/4/3
f 116/1/3 113/1/3 112/1/3
f 117/1/3 113/1/3 116/1/3
f 119/1/3 115/1/3 114/1/3
f 120/1/3 115/1/3 119/1/3
f 121/1/3 118/1/3 117/1/3
f 121/1/3 119/1/3 118/1/3
f 122/1/3 119/1/3 121/1/3
f 125/3/3 124/3/3 123/3/3
f 126/3/3 124/3/3 125/3/3
f 131/3/3 127/3/3 126/3/3
f 132/3/3 127/3/3 131/3/3
f 133/3/3 129/3/3 128/3/3
f 134/3/3 129/3/3 133/3/3
f 135/3/3 131/3/3 130/3/3
f 136/3/3 131/3/3 135/3/3
f 137/3/4 138/3/4 139/3/4
f 139/3/4 138/3/4 140/3/4
f 140/3/4 141/3/4 145/3/4
f 145/3/4 141/3/4 146/3/4
f 142/3/4 143/3/4 147/3/4
f 147/3/4 143/3/4 148/3/4
f 144/3/4 145/3/4 149/3/4
f 149/3/4 145/3/4 150/3/4
f 151/4/4 152/4/4 154/4/4
f 154/4/4 152/4/4 155/4/4
f 153/1/4 154/1/4 159/1/4
f 159/1/4 154/1/4 160/1/4
f 155/4/4 156/4/4 161/4/4
f 161/4/4 156/4/4 162/4/4
f 157/3/4 158/3/4 163/3/4
f 163/3/4 158/3/4 164/3/4
f 159/4/4 160/4/4 165/4/4
f 165/4/4 160/4/4 166/4/4
f 161/1/4 162/1/4 168/1/4
f 168/1/4 162/1/4 169/1/4
f 166/4/4 167/4/4 170/4/4
f 167/4/4 168/4/4 170/4/4
f 170/4/4 168/4/4 171/4/4
f 172/1/4 173/1/4 174/1/4
f 174/1/4 173/1/4 175/1/4
f 174/4/4 175/4/4 176/4/4
f 175/1/4 173/1/4 177/1/4
f 176/4/4 175/4/4 177/4/4
f 177/1/4 173/1/4 178/1/4
f 182/3/5 180/3/5 179/3/5
f 183/3/5 180/3/5 182/3/5
f 185/3/5 182/3/5 181/3/5
f 186/2/5 183/2/5 182/2/5
f 186/3/5 182/3/5 185/3/5
f 187/3/5 184/3/5 183/3/5
f 187/2/5 183/2/5 186/2/5
f 188/3/5 184/3/5 187/3/5
f 189/3/5 187/3/5 186/3/5
f 190/3/5 187/3/5 189/3/5
f 194/4/5 192/4/5 191/4/5
f 195/1/5 193/1/5 192/1/5
f 195/4/5 192/4/5 194/4/5
f 196/4/5 194/4/5 191/4/5
f 197/4/5 194/4/5 196/4/5
f 198/1/5 193/1/5 195/1/5
f 199/1/5 193/1/5 198/1/5
f 200/1/5 197/1/5 196/1/5
f 201/4/5 198/4/5 197/4/5
f 201/1/5 197/1/5 200/1/5
f 201/4/5 199/4/5 198/4/5
f 202/4/5 199/4/5 201/4/5
f 207/1/5 204/1/5 203/1/5
f 208/4/5 205/4/5 204/4/5
f 208/1/5 204/1/5 207/1/5
f 209/4/5 205/4/5 208/4/5
f 210/4/5 205/4/5 209/4/5
f 212/1/5 211/1/5 210/1/5
f 213/1/5 211/1/5 212/1/5
f 214/1/5 207/1/5 206/1/5
f 215/1/5 207/1/5 214/1/5
f 216/4/5 213/4/5 212/4/5
f 217/4/5 215/4/5 214/4/5
f 218/4/5 215/4/5 217/4/5
f 220/4/5 213/4/5 216/4/5
f 221/4/5 213/4/5 220/4/5
f 222/1/5 219/1/5 218/1/5
f 223/4/5 220/4/5 219/4/5
f 223/1/5 219/1/5 222/1/5
f 224/4/5 220/4/5 223/4/5
f 225/3/6 226/3/6 228/3/6
f 228/3/6 226/3/6 229/3/6
f 227/3/6 228/3/6 231/3/6
f 231/3/6 228/3/6 232/3/6
f 229/3/6 230/3/6 233/3/6
f 233/3/6 230/3/6 234/3/6
f 232/3/6 233/3/6 235/3/6
f 235/3/6 233/3/6 236/3/6
f 237/1/6 238/1/6 242/1/6
f 238/4/6 239/4/6 243/4/6
f 242/1/6 238/1/6 243/1/6
f 239/1/6 240/1/6 244/1/6
f 243/4/6 239/4/6 244/4/6
f 244/1/6 240/1/6 245/1/6
f 241/1/6 242/1/6 247/1/6
f 247/1/6 242/1/6 248/1/6
f 245/1/6 246/1/6 249/1/6
f 249/1/6 246/1/6 250/1/6
f 249/4/6 250/4/6 251/4/6
f 247/4/6 248/4/6 252/4/6
f 252/4/6 248/4/6 253/4/6
f 251/4/6 250/4/6 255/4/6
f 255/4/6 250/4/6 256/4/6
f 253/1/6 254/1/6 257/1/6
f 254/1/6 255/1/6 257/1/6
f 257/1/6 255/1/6 258/1/6
f 259/1/6 260/1/6 263/1/6
f 260/4/6 261/4/6 264/4/6
f 263/1/6 260/1/6 264/1/6
f 261/1/6 262/1/6 265/1/6
f 264/4/6 261/4/6 265/4/6
f 265/1/6 262/1/6 266/1/6
f 263/4/6 264/4/6 267/4/6
f 265/4/6 266/4/6 268/4/6
f 268/4/6 266/4/6 269/4/6
f 263/4/6 267/4/6 270/4/6
f 267/1/6 268/1/6 271/1/6
f 270/4/6 267/4/6 271/4/6
f 268/1/6 269/1/6 271/1/6
f 271/1/6 269/1/6 272/1/6
f 273/3/6 274/3/6 275/3/6
f 275/3/6 274/3/6 276/3/6
