# MagicaVoxel @ Ephtracy

# group
o wall_tudorpillaflatr

# material
mtllib tavern-44-wall_tudorpillaflatr.mtl
usemtl palette

# normals
vn -1 0 0
vn 1 0 0
vn 0 0 1
vn 0 0 -1
vn 0 -1 0
vn 0 1 0

# texcoords
vt 0.701172 0.5
vt 0.705078 0.5
vt 0.708984 0.5

# verts
v 11.1 0 -4.5
v 11.1 0 -4.9
v 11.1 0.1 -4.6
v 11.1 0.1 -4.8
v 11.1 0.2 -4.6
v 11.1 0.2 -4.7
v 11.1 0.3 -4.6
v 11.1 0.3 -4.7
v 11.1 0.3 -4.8
v 11.1 0.6 -4.6
v 11.1 0.6 -4.7
v 11.1 0.7 -4.6
v 11.1 0.7 -4.8
v 11.1 0.8 -4.6
v 11.1 0.8 -4.8
v 11.1 0.9 -4.7
v 11.1 0.9 -4.8
v 11.1 1 -4.6
v 11.1 1 -4.7
v 11.1 1.1 -4.7
v 11.1 1.1 -4.8
v 11.1 1.2 -4.6
v 11.1 1.2 -4.7
v 11.1 1.3 -4.6
v 11.1 1.3 -4.7
v 11.1 1.4 -4.7
v 11.1 1.4 -4.8
v 11.1 1.5 -4.6
v 11.1 1.5 -4.8
v 11.1 1.6 -4.6
v 11.1 1.6 -4.8
v 11.1 1.7 -4.5
v 11.1 1.7 -4.9
v 11.5 0 -4.5
v 11.5 0 -4.9
v 11.5 0.1 -4.6
v 11.5 0.1 -4.8
v 11.5 0.2 -4.6
v 11.5 0.2 -4.7
v 11.5 0.3 -4.6
v 11.5 0.3 -4.7
v 11.5 0.3 -4.8
v 11.5 0.6 -4.6
v 11.5 0.6 -4.7
v 11.5 0.7 -4.6
v 11.5 0.7 -4.8
v 11.5 0.8 -4.6
v 11.5 0.8 -4.8
v 11.5 0.9 -4.7
v 11.5 0.9 -4.8
v 11.5 1 -4.6
v 11.5 1 -4.7
v 11.5 1.1 -4.7
v 11.5 1.1 -4.8
v 11.5 1.2 -4.6
v 11.5 1.2 -4.7
v 11.5 1.3 -4.6
v 11.5 1.3 -4.7
v 11.5 1.4 -4.7
v 11.5 1.4 -4.8
v 11.5 1.5 -4.6
v 11.5 1.5 -4.8
v 11.5 1.6 -4.6
v 11.5 1.6 -4.8
v 11.5 1.7 -4.5
v 11.5 1.7 -4.9
v 11.1 0 -4.5
v 11.1 1.7 -4.5
v 11.2 0.1 -4.5
v 11.2 0.4 -4.5
v 11.2 0.6 -4.5
v 11.2 0.7 -4.5
v 11.2 1.1 -4.5
v 11.2 1.2 -4.5
v 11.2 1.3 -4.5
v 11.2 1.6 -4.5
v 11.3 0.2 -4.5
v 11.3 0.4 -4.5
v 11.3 0.5 -4.5
v 11.3 0.6 -4.5
v 11.3 0.7 -4.5
v 11.3 0.9 -4.5
v 11.3 1 -4.5
v 11.3 1.1 -4.5
v 11.3 1.2 -4.5
v 11.3 1.3 -4.5
v 11.3 1.4 -4.5
v 11.3 1.5 -4.5
v 11.3 1.6 -4.5
v 11.4 0.1 -4.5
v 11.4 0.2 -4.5
v 11.4 0.4 -4.5
v 11.4 0.5 -4.5
v 11.4 0.7 -4.5
v 11.4 0.9 -4.5
v 11.4 1 -4.5
v 11.4 1.1 -4.5
v 11.4 1.4 -4.5
v 11.4 1.5 -4.5
v 11.4 1.6 -4.5
v 11.5 0 -4.5
v 11.5 1.7 -4.5
v 11.1 0 -4.9
v 11.1 1.7 -4.9
v 11.2 0.1 -4.9
v 11.2 0.4 -4.9
v 11.2 0.6 -4.9
v 11.2 0.7 -4.9
v 11.2 1.1 -4.9
v 11.2 1.2 -4.9
v 11.2 1.3 -4.9
v 11.2 1.6 -4.9
v 11.3 0.2 -4.9
v 11.3 0.4 -4.9
v 11.3 0.5 -4.9
v 11.3 0.6 -4.9
v 11.3 0.7 -4.9
v 11.3 0.9 -4.9
v 11.3 1 -4.9
v 11.3 1.1 -4.9
v 11.3 1.2 -4.9
v 11.3 1.3 -4.9
v 11.3 1.4 -4.9
v 11.3 1.5 -4.9
v 11.3 1.6 -4.9
v 11.4 0.1 -4.9
v 11.4 0.2 -4.9
v 11.4 0.4 -4.9
v 11.4 0.5 -4.9
v 11.4 0.7 -4.9
v 11.4 0.9 -4.9
v 11.4 1 -4.9
v 11.4 1.1 -4.9
v 11.4 1.4 -4.9
v 11.4 1.5 -4.9
v 11.4 1.6 -4.9
v 11.5 0 -4.9
v 11.5 1.7 -4.9
v 11.1 0 -4.5
v 11.5 0 -4.5
v 11.1 0 -4.9
v 11.5 0 -4.9
v 11.1 1.7 -4.5
v 11.5 1.7 -4.5
v 11.1 1.7 -4.9
v 11.5 1.7 -4.9

# faces
f 3/3/1 2/3/1 1/3/1
f 4/3/1 2/3/1 3/3/1
f 5/3/1 3/3/1 1/3/1
f 5/2/1 4/2/1 3/2/1
f 6/2/1 4/2/1 5/2/1
f 7/3/1 5/3/1 1/3/1
f 7/1/1 6/1/1 5/1/1
f 8/2/1 4/2/1 6/2/1
f 8/1/1 6/1/1 7/1/1
f 9/3/1 2/3/1 4/3/1
f 9/2/1 4/2/1 8/2/1
f 10/2/1 8/2/1 7/2/1
f 10/3/1 7/3/1 1/3/1
f 11/1/1 9/1/1 8/1/1
f 11/2/1 8/2/1 10/2/1
f 12/3/1 10/3/1 1/3/1
f 12/1/1 11/1/1 10/1/1
f 13/3/1 2/3/1 9/3/1
f 13/1/1 11/1/1 12/1/1
f 13/1/1 9/1/1 11/1/1
f 14/3/1 12/3/1 1/3/1
f 14/2/1 13/2/1 12/2/1
f 15/3/1 2/3/1 13/3/1
f 15/2/1 13/2/1 14/2/1
f 16/1/1 15/1/1 14/1/1
f 17/3/1 2/3/1 15/3/1
f 17/1/1 15/1/1 16/1/1
f 18/3/1 14/3/1 1/3/1
f 18/1/1 16/1/1 14/1/1
f 19/2/1 17/2/1 16/2/1
f 19/1/1 16/1/1 18/1/1
f 20/2/1 19/2/1 18/2/1
f 20/2/1 17/2/1 19/2/1
f 21/3/1 2/3/1 17/3/1
f 21/2/1 17/2/1 20/2/1
f 22/2/1 20/2/1 18/2/1
f 22/3/1 18/3/1 1/3/1
f 23/1/1 21/1/1 20/1/1
f 23/2/1 20/2/1 22/2/1
f 24/3/1 22/3/1 1/3/1
f 24/1/1 23/1/1 22/1/1
f 25/1/1 21/1/1 23/1/1
f 25/1/1 23/1/1 24/1/1
f 26/2/1 25/2/1 24/2/1
f 26/1/1 21/1/1 25/1/1
f 27/3/1 2/3/1 21/3/1
f 27/1/1 21/1/1 26/1/1
f 28/2/1 26/2/1 24/2/1
f 28/3/1 24/3/1 1/3/1
f 28/2/1 27/2/1 26/2/1
f 29/3/1 2/3/1 27/3/1
f 29/2/1 27/2/1 28/2/1
f 30/3/1 28/3/1 1/3/1
f 30/1/1 29/1/1 28/1/1
f 31/3/1 2/3/1 29/3/1
f 31/1/1 29/1/1 30/1/1
f 32/3/1 30/3/1 1/3/1
f 32/3/1 31/3/1 30/3/1
f 33/3/1 2/3/1 31/3/1
f 33/3/1 31/3/1 32/3/1
f 34/3/2 35/3/2 36/3/2
f 36/3/2 35/3/2 37/3/2
f 34/3/2 36/3/2 38/3/2
f 36/2/2 37/2/2 38/2/2
f 38/2/2 37/2/2 39/2/2
f 34/3/2 38/3/2 40/3/2
f 38/1/2 39/1/2 40/1/2
f 39/2/2 37/2/2 41/2/2
f 40/1/2 39/1/2 41/1/2
f 37/3/2 35/3/2 42/3/2
f 41/2/2 37/2/2 42/2/2
f 40/2/2 41/2/2 43/2/2
f 34/3/2 40/3/2 43/3/2
f 41/1/2 42/1/2 44/1/2
f 43/2/2 41/2/2 44/2/2
f 34/3/2 43/3/2 45/3/2
f 43/1/2 44/1/2 45/1/2
f 42/3/2 35/3/2 46/3/2
f 45/1/2 44/1/2 46/1/2
f 44/1/2 42/1/2 46/1/2
f 34/3/2 45/3/2 47/3/2
f 45/2/2 46/2/2 47/2/2
f 46/3/2 35/3/2 48/3/2
f 47/2/2 46/2/2 48/2/2
f 47/1/2 48/1/2 49/1/2
f 48/3/2 35/3/2 50/3/2
f 49/1/2 48/1/2 50/1/2
f 34/3/2 47/3/2 51/3/2
f 47/1/2 49/1/2 51/1/2
f 49/2/2 50/2/2 52/2/2
f 51/1/2 49/1/2 52/1/2
f 51/2/2 52/2/2 53/2/2
f 52/2/2 50/2/2 53/2/2
f 50/3/2 35/3/2 54/3/2
f 53/2/2 50/2/2 54/2/2
f 51/2/2 53/2/2 55/2/2
f 34/3/2 51/3/2 55/3/2
f 53/1/2 54/1/2 56/1/2
f 55/2/2 53/2/2 56/2/2
f 34/3/2 55/3/2 57/3/2
f 55/1/2 56/1/2 57/1/2
f 56/1/2 54/1/2 58/1/2
f 57/1/2 56/1/2 58/1/2
f 57/2/2 58/2/2 59/2/2
f 58/1/2 54/1/2 59/1/2
f 54/3/2 35/3/2 60/3/2
f 59/1/2 54/1/2 60/1/2
f 57/2/2 59/2/2 61/2/2
f 34/3/2 57/3/2 61/3/2
f 59/2/2 60/2/2 61/2/2
f 60/3/2 35/3/2 62/3/2
f 61/2/2 60/2/2 62/2/2
f 34/3/2 61/3/2 63/3/2
f 61/1/2 62/1/2 63/1/2
f 62/3/2 35/3/2 64/3/2
f 63/1/2 62/1/2 64/1/2
f 34/3/2 63/3/2 65/3/2
f 63/3/2 64/3/2 65/3/2
f 64/3/2 35/3/2 66/3/2
f 65/3/2 64/3/2 66/3/2
f 69/3/3 68/3/3 67/3/3
f 70/3/3 68/3/3 69/3/3
f 71/3/3 68/3/3 70/3/3
f 72/3/3 68/3/3 71/3/3
f 73/3/3 68/3/3 72/3/3
f 74/3/3 68/3/3 73/3/3
f 75/3/3 68/3/3 74/3/3
f 76/3/3 68/3/3 75/3/3
f 77/1/3 70/1/3 69/1/3
f 78/2/3 71/2/3 70/2/3
f 78/1/3 70/1/3 77/1/3
f 79/2/3 71/2/3 78/2/3
f 80/1/3 72/1/3 71/1/3
f 80/2/3 71/2/3 79/2/3
f 81/2/3 73/2/3 72/2/3
f 81/1/3 72/1/3 80/1/3
f 82/2/3 73/2/3 81/2/3
f 83/2/3 73/2/3 82/2/3
f 84/1/3 74/1/3 73/1/3
f 84/2/3 73/2/3 83/2/3
f 85/2/3 75/2/3 74/2/3
f 85/1/3 74/1/3 84/1/3
f 86/1/3 76/1/3 75/1/3
f 86/2/3 75/2/3 85/2/3
f 87/1/3 76/1/3 86/1/3
f 88/1/3 76/1/3 87/1/3
f 89/3/3 68/3/3 76/3/3
f 89/1/3 76/1/3 88/1/3
f 90/3/3 69/3/3 67/3/3
f 90/1/3 77/1/3 69/1/3
f 91/2/3 78/2/3 77/2/3
f 91/1/3 77/1/3 90/1/3
f 92/1/3 79/1/3 78/1/3
f 92/2/3 78/2/3 91/2/3
f 93/2/3 80/2/3 79/2/3
f 93/1/3 79/1/3 92/1/3
f 93/2/3 81/2/3 80/2/3
f 94/1/3 82/1/3 81/1/3
f 94/2/3 81/2/3 93/2/3
f 95/2/3 83/2/3 82/2/3
f 95/1/3 82/1/3 94/1/3
f 96/1/3 84/1/3 83/1/3
f 96/2/3 83/2/3 95/2/3
f 97/2/3 85/2/3 84/2/3
f 97/1/3 84/1/3 96/1/3
f 97/2/3 87/2/3 86/2/3
f 97/2/3 86/2/3 85/2/3
f 98/1/3 88/1/3 87/1/3
f 98/2/3 87/2/3 97/2/3
f 99/2/3 89/2/3 88/2/3
f 99/1/3 88/1/3 98/1/3
f 100/3/3 68/3/3 89/3/3
f 100/2/3 89/2/3 99/2/3
f 101/3/3 99/3/3 98/3/3
f 101/3/3 97/3/3 96/3/3
f 101/3/3 100/3/3 99/3/3
f 101/3/3 93/3/3 92/3/3
f 101/3/3 90/3/3 67/3/3
f 101/3/3 96/3/3 95/3/3
f 101/3/3 95/3/3 94/3/3
f 101/3/3 94/3/3 93/3/3
f 101/3/3 92/3/3 91/3/3
f 101/3/3 91/3/3 90/3/3
f 101/3/3 98/3/3 97/3/3
f 102/3/3 68/3/3 100/3/3
f 102/3/3 100/3/3 101/3/3
f 103/3/4 104/3/4 105/3/4
f 105/3/4 104/3/4 106/3/4
f 106/3/4 104/3/4 107/3/4
f 107/3/4 104/3/4 108/3/4
f 108/3/4 104/3/4 109/3/4
f 109/3/4 104/3/4 110/3/4
f 110/3/4 104/3/4 111/3/4
f 111/3/4 104/3/4 112/3/4
f 105/1/4 106/1/4 113/1/4
f 106/2/4 107/2/4 114/2/4
f 113/1/4 106/1/4 114/1/4
f 114/2/4 107/2/4 115/2/4
f 107/1/4 108/1/4 116/1/4
f 115/2/4 107/2/4 116/2/4
f 108/2/4 109/2/4 117/2/4
f 116/1/4 108/1/4 117/1/4
f 117/2/4 109/2/4 118/2/4
f 118/2/4 109/2/4 119/2/4
f 109/1/4 110/1/4 120/1/4
f 119/2/4 109/2/4 120/2/4
f 110/2/4 111/2/4 121/2/4
f 120/1/4 110/1/4 121/1/4
f 111/1/4 112/1/4 122/1/4
f 121/2/4 111/2/4 122/2/4
f 122/1/4 112/1/4 123/1/4
f 123/1/4 112/1/4 124/1/4
f 112/3/4 104/3/4 125/3/4
f 124/1/4 112/1/4 125/1/4
f 103/3/4 105/3/4 126/3/4
f 105/1/4 113/1/4 126/1/4
f 113/2/4 114/2/4 127/2/4
f 126/1/4 113/1/4 127/1/4
f 114/1/4 115/1/4 128/1/4
f 127/2/4 114/2/4 128/2/4
f 115/2/4 116/2/4 129/2/4
f 128/1/4 115/1/4 129/1/4
f 116/2/4 117/2/4 129/2/4
f 117/1/4 118/1/4 130/1/4
f 129/2/4 117/2/4 130/2/4
f 118/2/4 119/2/4 131/2/4
f 130/1/4 118/1/4 131/1/4
f 119/1/4 120/1/4 132/1/4
f 131/2/4 119/2/4 132/2/4
f 120/2/4 121/2/4 133/2/4
f 132/1/4 120/1/4 133/1/4
f 122/2/4 123/2/4 133/2/4
f 121/2/4 122/2/4 133/2/4
f 123/1/4 124/1/4 134/1/4
f 133/2/4 123/2/4 134/2/4
f 124/2/4 125/2/4 135/2/4
f 134/1/4 124/1/4 135/1/4
f 125/3/4 104/3/4 136/3/4
f 135/2/4 125/2/4 136/2/4
f 134/3/4 135/3/4 137/3/4
f 132/3/4 133/3/4 137/3/4
f 135/3/4 136/3/4 137/3/4
f 128/3/4 129/3/4 137/3/4
f 103/3/4 126/3/4 137/3/4
f 131/3/4 132/3/4 137/3/4
f 130/3/4 131/3/4 137/3/4
f 129/3/4 130/3/4 137/3/4
f 127/3/4 128/3/4 137/3/4
f 126/3/4 127/3/4 137/3/4
f 133/3/4 134/3/4 137/3/4
f 136/3/4 104/3/4 138/3/4
f 137/3/4 136/3/4 138/3/4
f 141/3/5 140/3/5 139/3/5
f 142/3/5 140/3/5 141/3/5
f 143/3/6 144/3/6 145/3/6
f 145/3/6 144/3/6 146/3/6
