# MagicaVoxel @ Ephtracy

# group
o chimney

# material
mtllib tavern-13-chimney.mtl
usemtl palette

# normals
vn -1 0 0
vn 1 0 0
vn 0 0 1
vn 0 0 -1
vn 0 -1 0
vn 0 1 0

# texcoords
vt 0.0292969 0.5
vt 0.0605469 0.5

# verts
v 8.5 0 -3.1
v 8.5 0 -3.3
v 8.5 0.1 -3.2
v 8.5 0.1 -3.3
v 8.5 0.2 -3.1
v 8.5 0.2 -3.2
v 8.5 0.2 -3.3
v 8.5 0.3 -3.1
v 8.5 0.3 -3.2
v 8.5 0.5 -3.2
v 8.5 0.5 -3.3
v 8.5 0.8 -3.1
v 8.5 0.8 -3.2
v 8.5 0.8 -3.3
v 8.6 0 -3
v 8.6 0 -3.1
v 8.6 0 -3.3
v 8.6 0 -3.4
v 8.6 0.1 -3.3
v 8.6 0.2 -3
v 8.6 0.2 -3.1
v 8.6 0.2 -3.3
v 8.6 0.3 -3
v 8.6 0.3 -3.1
v 8.6 0.5 -3
v 8.6 0.5 -3.1
v 8.6 0.5 -3.3
v 8.6 0.6 -3
v 8.6 0.6 -3.1
v 8.6 0.6 -3.3
v 8.6 0.6 -3.4
v 8.6 0.8 -3
v 8.6 0.8 -3.1
v 8.6 0.8 -3.3
v 8.6 0.8 -3.4
v 8.8 0 -3.1
v 8.8 0 -3.3
v 8.8 0.1 -3.1
v 8.8 0.1 -3.2
v 8.8 0.1 -3.3
v 8.8 0.2 -3.1
v 8.8 0.3 -3.1
v 8.8 0.3 -3.2
v 8.8 0.3 -3.3
v 8.8 0.4 -3.2
v 8.8 0.4 -3.3
v 8.8 0.5 -3.1
v 8.8 0.6 -3.1
v 8.8 0.6 -3.3
v 8.8 0.7 -3.3
v 8.8 0.8 -3.1
v 8.8 0.8 -3.3
v 8.6 0 -3.1
v 8.6 0 -3.3
v 8.6 0.1 -3.2
v 8.6 0.1 -3.3
v 8.6 0.2 -3.1
v 8.6 0.2 -3.2
v 8.6 0.2 -3.3
v 8.6 0.3 -3.1
v 8.6 0.3 -3.2
v 8.6 0.5 -3.1
v 8.6 0.5 -3.2
v 8.6 0.5 -3.3
v 8.6 0.6 -3.1
v 8.6 0.6 -3.3
v 8.6 0.8 -3.1
v 8.6 0.8 -3.2
v 8.6 0.8 -3.3
v 8.8 0 -3
v 8.8 0 -3.1
v 8.8 0 -3.3
v 8.8 0 -3.4
v 8.8 0.1 -3.1
v 8.8 0.1 -3.3
v 8.8 0.1 -3.4
v 8.8 0.2 -3
v 8.8 0.2 -3.1
v 8.8 0.3 -3
v 8.8 0.3 -3.1
v 8.8 0.3 -3.3
v 8.8 0.4 -3.3
v 8.8 0.4 -3.4
v 8.8 0.5 -3
v 8.8 0.5 -3.1
v 8.8 0.6 -3
v 8.8 0.6 -3.1
v 8.8 0.6 -3.3
v 8.8 0.6 -3.4
v 8.8 0.7 -3.3
v 8.8 0.7 -3.4
v 8.8 0.8 -3
v 8.8 0.8 -3.1
v 8.8 0.8 -3.3
v 8.8 0.8 -3.4
v 8.9 0 -3.1
v 8.9 0 -3.3
v 8.9 0.1 -3.1
v 8.9 0.1 -3.2
v 8.9 0.3 -3.1
v 8.9 0.3 -3.2
v 8.9 0.3 -3.3
v 8.9 0.4 -3.2
v 8.9 0.4 -3.3
v 8.9 0.8 -3.1
v 8.9 0.8 -3.3
v 8.6 0 -3
v 8.6 0.2 -3
v 8.6 0.3 -3
v 8.6 0.5 -3
v 8.6 0.6 -3
v 8.6 0.8 -3
v 8.7 0 -3
v 8.7 0.2 -3
v 8.7 0.3 -3
v 8.7 0.5 -3
v 8.7 0.6 -3
v 8.7 0.8 -3
v 8.8 0 -3
v 8.8 0.2 -3
v 8.8 0.3 -3
v 8.8 0.5 -3
v 8.8 0.6 -3
v 8.8 0.8 -3
v 8.5 0 -3.1
v 8.5 0.2 -3.1
v 8.5 0.3 -3.1
v 8.5 0.8 -3.1
v 8.6 0 -3.1
v 8.6 0.2 -3.1
v 8.6 0.3 -3.1
v 8.6 0.5 -3.1
v 8.6 0.6 -3.1
v 8.6 0.8 -3.1
v 8.8 0 -3.1
v 8.8 0.1 -3.1
v 8.8 0.2 -3.1
v 8.8 0.3 -3.1
v 8.8 0.5 -3.1
v 8.8 0.6 -3.1
v 8.8 0.8 -3.1
v 8.9 0 -3.1
v 8.9 0.1 -3.1
v 8.9 0.3 -3.1
v 8.9 0.8 -3.1
v 8.6 0 -3.3
v 8.6 0.1 -3.3
v 8.6 0.2 -3.3
v 8.6 0.5 -3.3
v 8.6 0.6 -3.3
v 8.6 0.8 -3.3
v 8.7 0 -3.3
v 8.7 0.1 -3.3
v 8.7 0.4 -3.3
v 8.7 0.6 -3.3
v 8.7 0.7 -3.3
v 8.8 0 -3.3
v 8.8 0.1 -3.3
v 8.8 0.3 -3.3
v 8.8 0.4 -3.3
v 8.8 0.6 -3.3
v 8.8 0.7 -3.3
v 8.8 0.8 -3.3
v 8.6 0 -3.1
v 8.6 0.2 -3.1
v 8.6 0.3 -3.1
v 8.6 0.5 -3.1
v 8.6 0.6 -3.1
v 8.6 0.8 -3.1
v 8.7 0 -3.1
v 8.7 0.2 -3.1
v 8.7 0.3 -3.1
v 8.7 0.5 -3.1
v 8.7 0.6 -3.1
v 8.7 0.8 -3.1
v 8.8 0 -3.1
v 8.8 0.1 -3.1
v 8.8 0.2 -3.1
v 8.8 0.3 -3.1
v 8.8 0.5 -3.1
v 8.8 0.6 -3.1
v 8.8 0.8 -3.1
v 8.5 0 -3.3
v 8.5 0.1 -3.3
v 8.5 0.2 -3.3
v 8.5 0.5 -3.3
v 8.5 0.8 -3.3
v 8.6 0 -3.3
v 8.6 0.1 -3.3
v 8.6 0.2 -3.3
v 8.6 0.5 -3.3
v 8.6 0.6 -3.3
v 8.6 0.8 -3.3
v 8.8 0 -3.3
v 8.8 0.1 -3.3
v 8.8 0.3 -3.3
v 8.8 0.4 -3.3
v 8.8 0.6 -3.3
v 8.8 0.7 -3.3
v 8.8 0.8 -3.3
v 8.9 0 -3.3
v 8.9 0.3 -3.3
v 8.9 0.4 -3.3
v 8.9 0.8 -3.3
v 8.6 0 -3.4
v 8.6 0.6 -3.4
v 8.6 0.8 -3.4
v 8.7 0 -3.4
v 8.7 0.1 -3.4
v 8.7 0.4 -3.4
v 8.7 0.6 -3.4
v 8.7 0.7 -3.4
v 8.8 0 -3.4
v 8.8 0.1 -3.4
v 8.8 0.4 -3.4
v 8.8 0.6 -3.4
v 8.8 0.7 -3.4
v 8.8 0.8 -3.4
v 8.6 0 -3
v 8.7 0 -3
v 8.8 0 -3
v 8.5 0 -3.1
v 8.6 0 -3.1
v 8.7 0 -3.1
v 8.8 0 -3.1
v 8.9 0 -3.1
v 8.5 0 -3.3
v 8.6 0 -3.3
v 8.7 0 -3.3
v 8.8 0 -3.3
v 8.9 0 -3.3
v 8.6 0 -3.4
v 8.7 0 -3.4
v 8.8 0 -3.4
v 8.6 0.8 -3
v 8.7 0.8 -3
v 8.8 0.8 -3
v 8.5 0.8 -3.1
v 8.6 0.8 -3.1
v 8.7 0.8 -3.1
v 8.8 0.8 -3.1
v 8.9 0.8 -3.1
v 8.5 0.8 -3.2
v 8.6 0.8 -3.2
v 8.5 0.8 -3.3
v 8.6 0.8 -3.3
v 8.8 0.8 -3.3
v 8.9 0.8 -3.3
v 8.6 0.8 -3.4
v 8.8 0.8 -3.4

# faces
f 3/2/1 2/2/1 1/2/1
f 4/2/1 2/2/1 3/2/1
f 5/2/1 3/2/1 1/2/1
f 6/1/1 4/1/1 3/1/1
f 6/2/1 3/2/1 5/2/1
f 7/1/1 4/1/1 6/1/1
f 8/1/1 6/1/1 5/1/1
f 9/2/1 7/2/1 6/2/1
f 9/1/1 6/1/1 8/1/1
f 10/2/1 9/2/1 8/2/1
f 10/2/1 7/2/1 9/2/1
f 11/2/1 7/2/1 10/2/1
f 12/2/1 10/2/1 8/2/1
f 13/1/1 11/1/1 10/1/1
f 13/2/1 10/2/1 12/2/1
f 14/1/1 11/1/1 13/1/1
f 19/1/1 18/1/1 17/1/1
f 20/1/1 16/1/1 15/1/1
f 21/1/1 16/1/1 20/1/1
f 22/1/1 18/1/1 19/1/1
f 23/2/1 21/2/1 20/2/1
f 24/2/1 21/2/1 23/2/1
f 25/1/1 24/1/1 23/1/1
f 26/1/1 24/1/1 25/1/1
f 27/1/1 18/1/1 22/1/1
f 28/2/1 26/2/1 25/2/1
f 29/2/1 26/2/1 28/2/1
f 30/1/1 18/1/1 27/1/1
f 31/1/1 18/1/1 30/1/1
f 32/1/1 29/1/1 28/1/1
f 33/1/1 29/1/1 32/1/1
f 34/2/1 31/2/1 30/2/1
f 35/2/1 31/2/1 34/2/1
f 38/1/1 37/1/1 36/1/1
f 39/1/1 37/1/1 38/1/1
f 40/1/1 37/1/1 39/1/1
f 41/2/1 39/2/1 38/2/1
f 42/2/1 39/2/1 41/2/1
f 43/1/1 40/1/1 39/1/1
f 43/2/1 39/2/1 42/2/1
f 44/1/1 40/1/1 43/1/1
f 45/1/1 43/1/1 42/1/1
f 45/2/1 44/2/1 43/2/1
f 46/2/1 44/2/1 45/2/1
f 47/1/1 45/1/1 42/1/1
f 47/1/1 46/1/1 45/1/1
f 48/1/1 46/1/1 47/1/1
f 49/1/1 46/1/1 48/1/1
f 50/1/1 49/1/1 48/1/1
f 51/1/1 50/1/1 48/1/1
f 52/1/1 50/1/1 51/1/1
f 53/2/2 54/2/2 55/2/2
f 55/2/2 54/2/2 56/2/2
f 53/2/2 55/2/2 57/2/2
f 55/1/2 56/1/2 58/1/2
f 57/2/2 55/2/2 58/2/2
f 58/1/2 56/1/2 59/1/2
f 57/1/2 58/1/2 60/1/2
f 58/2/2 59/2/2 61/2/2
f 60/1/2 58/1/2 61/1/2
f 60/2/2 61/2/2 62/2/2
f 61/2/2 59/2/2 63/2/2
f 62/2/2 61/2/2 63/2/2
f 63/2/2 59/2/2 64/2/2
f 62/2/2 63/2/2 65/2/2
f 63/1/2 64/1/2 66/1/2
f 65/2/2 63/2/2 67/2/2
f 63/1/2 66/1/2 68/1/2
f 67/2/2 63/2/2 68/2/2
f 68/1/2 66/1/2 69/1/2
f 70/2/2 71/2/2 74/2/2
f 72/2/2 73/2/2 75/2/2
f 75/2/2 73/2/2 76/2/2
f 70/2/2 74/2/2 77/2/2
f 77/2/2 74/2/2 78/2/2
f 77/1/2 78/1/2 79/1/2
f 79/1/2 78/1/2 80/1/2
f 75/1/2 76/1/2 81/1/2
f 81/1/2 76/1/2 82/1/2
f 82/1/2 76/1/2 83/1/2
f 79/2/2 80/2/2 84/2/2
f 84/2/2 80/2/2 85/2/2
f 84/1/2 85/1/2 86/1/2
f 86/1/2 85/1/2 87/1/2
f 82/2/2 83/2/2 88/2/2
f 88/2/2 83/2/2 89/2/2
f 88/1/2 89/1/2 90/1/2
f 90/1/2 89/1/2 91/1/2
f 86/2/2 87/2/2 92/2/2
f 92/2/2 87/2/2 93/2/2
f 90/2/2 91/2/2 94/2/2
f 94/2/2 91/2/2 95/2/2
f 96/1/2 97/1/2 98/1/2
f 98/1/2 97/1/2 99/1/2
f 98/2/2 99/2/2 100/2/2
f 99/1/2 97/1/2 101/1/2
f 100/2/2 99/2/2 101/2/2
f 101/1/2 97/1/2 102/1/2
f 100/1/2 101/1/2 103/1/2
f 101/2/2 102/2/2 103/2/2
f 103/2/2 102/2/2 104/2/2
f 100/1/2 103/1/2 105/1/2
f 103/1/2 104/1/2 105/1/2
f 105/1/2 104/1/2 106/1/2
f 113/1/3 108/1/3 107/1/3
f 114/2/3 109/2/3 108/2/3
f 114/1/3 108/1/3 113/1/3
f 115/1/3 110/1/3 109/1/3
f 115/2/3 109/2/3 114/2/3
f 116/2/3 111/2/3 110/2/3
f 116/1/3 110/1/3 115/1/3
f 117/1/3 112/1/3 111/1/3
f 117/2/3 111/2/3 116/2/3
f 118/1/3 112/1/3 117/1/3
f 119/2/3 114/2/3 113/2/3
f 120/1/3 115/1/3 114/1/3
f 120/2/3 114/2/3 119/2/3
f 121/2/3 116/2/3 115/2/3
f 121/1/3 115/1/3 120/1/3
f 122/1/3 117/1/3 116/1/3
f 122/2/3 116/2/3 121/2/3
f 123/2/3 118/2/3 117/2/3
f 123/1/3 117/1/3 122/1/3
f 124/2/3 118/2/3 123/2/3
f 129/2/3 126/2/3 125/2/3
f 130/1/3 127/1/3 126/1/3
f 130/2/3 126/2/3 129/2/3
f 131/2/3 128/2/3 127/2/3
f 131/1/3 127/1/3 130/1/3
f 132/2/3 128/2/3 131/2/3
f 133/2/3 128/2/3 132/2/3
f 134/2/3 128/2/3 133/2/3
f 142/1/3 136/1/3 135/1/3
f 143/2/3 137/2/3 136/2/3
f 143/1/3 136/1/3 142/1/3
f 143/2/3 138/2/3 137/2/3
f 144/1/3 141/1/3 140/1/3
f 144/2/3 138/2/3 143/2/3
f 144/1/3 140/1/3 139/1/3
f 144/1/3 139/1/3 138/1/3
f 145/1/3 141/1/3 144/1/3
f 152/1/3 147/1/3 146/1/3
f 152/1/3 148/1/3 147/1/3
f 152/1/3 150/1/3 149/1/3
f 152/1/3 149/1/3 148/1/3
f 153/1/3 150/1/3 152/1/3
f 154/1/3 150/1/3 153/1/3
f 155/2/3 151/2/3 150/2/3
f 155/1/3 150/1/3 154/1/3
f 156/2/3 151/2/3 155/2/3
f 157/2/3 153/2/3 152/2/3
f 158/1/3 154/1/3 153/1/3
f 158/2/3 153/2/3 157/2/3
f 159/1/3 154/1/3 158/1/3
f 160/2/3 155/2/3 154/2/3
f 160/1/3 154/1/3 159/1/3
f 161/1/3 156/1/3 155/1/3
f 161/2/3 155/2/3 160/2/3
f 162/2/3 151/2/3 156/2/3
f 162/1/3 156/1/3 161/1/3
f 163/2/3 151/2/3 162/2/3
f 164/1/4 165/1/4 170/1/4
f 165/2/4 166/2/4 171/2/4
f 170/1/4 165/1/4 171/1/4
f 166/1/4 167/1/4 172/1/4
f 171/2/4 166/2/4 172/2/4
f 167/2/4 168/2/4 173/2/4
f 172/1/4 167/1/4 173/1/4
f 168/1/4 169/1/4 174/1/4
f 173/2/4 168/2/4 174/2/4
f 174/1/4 169/1/4 175/1/4
f 170/2/4 171/2/4 176/2/4
f 176/2/4 171/2/4 177/2/4
f 171/1/4 172/1/4 178/1/4
f 177/2/4 171/2/4 178/2/4
f 172/2/4 173/2/4 179/2/4
f 178/1/4 172/1/4 179/1/4
f 173/1/4 174/1/4 180/1/4
f 179/2/4 173/2/4 180/2/4
f 174/2/4 175/2/4 181/2/4
f 180/1/4 174/1/4 181/1/4
f 181/2/4 175/2/4 182/2/4
f 183/2/4 184/2/4 188/2/4
f 184/1/4 185/1/4 189/1/4
f 188/2/4 184/2/4 189/2/4
f 185/2/4 186/2/4 190/2/4
f 189/1/4 185/1/4 190/1/4
f 186/1/4 187/1/4 191/1/4
f 190/2/4 186/2/4 191/2/4
f 191/1/4 187/1/4 192/1/4
f 192/1/4 187/1/4 193/1/4
f 194/1/4 195/1/4 201/1/4
f 195/1/4 196/1/4 201/1/4
f 196/2/4 197/2/4 202/2/4
f 201/1/4 196/1/4 202/1/4
f 199/1/4 200/1/4 203/1/4
f 202/2/4 197/2/4 203/2/4
f 198/1/4 199/1/4 203/1/4
f 197/1/4 198/1/4 203/1/4
f 203/1/4 200/1/4 204/1/4
f 205/1/4 206/1/4 208/1/4
f 208/1/4 206/1/4 209/1/4
f 209/1/4 206/1/4 210/1/4
f 206/2/4 207/2/4 211/2/4
f 210/1/4 206/1/4 211/1/4
f 211/2/4 207/2/4 212/2/4
f 208/2/4 209/2/4 213/2/4
f 209/1/4 210/1/4 214/1/4
f 213/2/4 209/2/4 214/2/4
f 210/2/4 211/2/4 215/2/4
f 214/1/4 210/1/4 215/1/4
f 211/1/4 212/1/4 216/1/4
f 215/2/4 211/2/4 216/2/4
f 212/2/4 207/2/4 217/2/4
f 216/1/4 212/1/4 217/1/4
f 217/2/4 207/2/4 218/2/4
f 223/1/5 220/1/5 219/1/5
f 224/2/5 221/2/5 220/2/5
f 224/1/5 220/1/5 223/1/5
f 225/2/5 221/2/5 224/2/5
f 227/2/5 223/2/5 222/2/5
f 228/2/5 223/2/5 227/2/5
f 230/1/5 226/1/5 225/1/5
f 231/1/5 226/1/5 230/1/5
f 232/1/5 229/1/5 228/1/5
f 233/2/5 230/2/5 229/2/5
f 233/1/5 229/1/5 232/1/5
f 234/2/5 230/2/5 233/2/5
f 235/1/6 236/1/6 239/1/6
f 236/2/6 237/2/6 240/2/6
f 239/1/6 236/1/6 240/1/6
f 240/2/6 237/2/6 241/2/6
f 238/2/6 239/2/6 243/2/6
f 243/2/6 239/2/6 244/2/6
f 243/1/6 244/1/6 245/1/6
f 245/1/6 244/1/6 246/1/6
f 241/1/6 242/1/6 247/1/6
f 247/1/6 242/1/6 248/1/6
f 246/2/6 247/2/6 249/2/6
f 249/2/6 247/2/6 250/2/6
