# MagicaVoxel @ Ephtracy

# group
o chimney_top

# material
mtllib tavern-12-chimney_top.mtl
usemtl palette

# normals
vn -1 0 0
vn 1 0 0
vn 0 0 1
vn 0 0 -1
vn 0 -1 0
vn 0 1 0

# texcoords
vt 0.0292969 0.5
vt 0.0605469 0.5

# verts
v 9.4 0.7 -3
v 9.4 0.7 -3.2
v 9.4 0.7 -3.3
v 9.4 0.7 -3.4
v 9.4 0.8 -3
v 9.4 0.8 -3.2
v 9.4 0.9 -3
v 9.4 0.9 -3.3
v 9.4 0.9 -3.4
v 9.5 0 -3.1
v 9.5 0 -3.3
v 9.5 0.1 -3.2
v 9.5 0.1 -3.3
v 9.5 0.2 -3.1
v 9.5 0.2 -3.2
v 9.5 0.2 -3.3
v 9.5 0.3 -3.1
v 9.5 0.3 -3.2
v 9.5 0.5 -3.2
v 9.5 0.5 -3.3
v 9.5 0.7 -2.9
v 9.5 0.7 -3
v 9.5 0.7 -3.1
v 9.5 0.7 -3.2
v 9.5 0.7 -3.3
v 9.5 0.7 -3.4
v 9.5 0.7 -3.5
v 9.5 0.8 -2.9
v 9.5 0.8 -3
v 9.5 0.8 -3.4
v 9.5 0.8 -3.5
v 9.5 0.9 -2.9
v 9.5 0.9 -3
v 9.5 0.9 -3.4
v 9.5 0.9 -3.5
v 9.6 0 -3
v 9.6 0 -3.1
v 9.6 0 -3.3
v 9.6 0 -3.4
v 9.6 0.1 -3.3
v 9.6 0.2 -3
v 9.6 0.2 -3.1
v 9.6 0.2 -3.3
v 9.6 0.3 -3
v 9.6 0.3 -3.1
v 9.6 0.5 -3
v 9.6 0.5 -3.1
v 9.6 0.5 -3.3
v 9.6 0.6 -3.3
v 9.6 0.6 -3.4
v 9.6 0.7 -3
v 9.6 0.7 -3.1
v 9.6 0.7 -3.3
v 9.6 0.7 -3.4
v 9.8 0 -3.1
v 9.8 0 -3.3
v 9.8 0.1 -3.1
v 9.8 0.1 -3.2
v 9.8 0.1 -3.3
v 9.8 0.2 -3.1
v 9.8 0.3 -3.1
v 9.8 0.3 -3.2
v 9.8 0.3 -3.3
v 9.8 0.4 -3.2
v 9.8 0.4 -3.3
v 9.8 0.5 -3.1
v 9.8 0.6 -3.1
v 9.8 0.6 -3.3
v 9.8 0.7 -3.1
v 9.8 0.7 -3.3
v 9.8 0.8 -3.1
v 9.8 0.8 -3.2
v 9.8 0.9 -3.1
v 9.8 0.9 -3.2
v 9.8 0.9 -3.3
v 9.6 0 -3.1
v 9.6 0 -3.3
v 9.6 0.1 -3.2
v 9.6 0.1 -3.3
v 9.6 0.2 -3.1
v 9.6 0.2 -3.2
v 9.6 0.2 -3.3
v 9.6 0.3 -3.1
v 9.6 0.3 -3.2
v 9.6 0.5 -3.1
v 9.6 0.5 -3.2
v 9.6 0.5 -3.3
v 9.6 0.6 -3.3
v 9.6 0.8 -3.1
v 9.6 0.8 -3.2
v 9.6 0.8 -3.3
v 9.6 0.9 -3.1
v 9.6 0.9 -3.2
v 9.6 0.9 -3.3
v 9.8 0 -3
v 9.8 0 -3.1
v 9.8 0 -3.3
v 9.8 0 -3.4
v 9.8 0.1 -3.1
v 9.8 0.1 -3.3
v 9.8 0.1 -3.4
v 9.8 0.2 -3
v 9.8 0.2 -3.1
v 9.8 0.3 -3
v 9.8 0.3 -3.1
v 9.8 0.3 -3.3
v 9.8 0.4 -3.3
v 9.8 0.4 -3.4
v 9.8 0.5 -3
v 9.8 0.5 -3.1
v 9.8 0.6 -3
v 9.8 0.6 -3.1
v 9.8 0.6 -3.3
v 9.8 0.6 -3.4
v 9.8 0.7 -3
v 9.8 0.7 -3.1
v 9.8 0.7 -3.3
v 9.8 0.7 -3.4
v 9.9 0 -3.1
v 9.9 0 -3.3
v 9.9 0.1 -3.1
v 9.9 0.1 -3.2
v 9.9 0.3 -3.1
v 9.9 0.3 -3.2
v 9.9 0.3 -3.3
v 9.9 0.4 -3.2
v 9.9 0.4 -3.3
v 9.9 0.7 -2.9
v 9.9 0.7 -3
v 9.9 0.7 -3.1
v 9.9 0.7 -3.3
v 9.9 0.7 -3.4
v 9.9 0.7 -3.5
v 9.9 0.8 -3.4
v 9.9 0.9 -2.9
v 9.9 0.9 -3
v 9.9 0.9 -3.4
v 9.9 0.9 -3.5
v 10 0.7 -3
v 10 0.7 -3.1
v 10 0.7 -3.3
v 10 0.7 -3.4
v 10 0.8 -3.1
v 10 0.8 -3.3
v 10 0.8 -3.4
v 10 0.9 -3
v 10 0.9 -3.3
v 10 0.9 -3.4
v 9.5 0.7 -2.9
v 9.5 0.8 -2.9
v 9.5 0.9 -2.9
v 9.6 0.8 -2.9
v 9.6 0.9 -2.9
v 9.7 0.7 -2.9
v 9.7 0.9 -2.9
v 9.9 0.7 -2.9
v 9.9 0.9 -2.9
v 9.4 0.7 -3
v 9.4 0.8 -3
v 9.4 0.9 -3
v 9.5 0.7 -3
v 9.5 0.8 -3
v 9.5 0.9 -3
v 9.6 0 -3
v 9.6 0.2 -3
v 9.6 0.3 -3
v 9.6 0.5 -3
v 9.6 0.7 -3
v 9.7 0 -3
v 9.7 0.2 -3
v 9.7 0.3 -3
v 9.7 0.5 -3
v 9.7 0.6 -3
v 9.7 0.7 -3
v 9.8 0 -3
v 9.8 0.2 -3
v 9.8 0.3 -3
v 9.8 0.5 -3
v 9.8 0.6 -3
v 9.8 0.7 -3
v 9.9 0.7 -3
v 9.9 0.9 -3
v 10 0.7 -3
v 10 0.9 -3
v 9.5 0 -3.1
v 9.5 0.2 -3.1
v 9.5 0.3 -3.1
v 9.5 0.7 -3.1
v 9.6 0 -3.1
v 9.6 0.2 -3.1
v 9.6 0.3 -3.1
v 9.6 0.5 -3.1
v 9.6 0.7 -3.1
v 9.8 0 -3.1
v 9.8 0.1 -3.1
v 9.8 0.2 -3.1
v 9.8 0.3 -3.1
v 9.8 0.5 -3.1
v 9.8 0.6 -3.1
v 9.8 0.7 -3.1
v 9.9 0 -3.1
v 9.9 0.1 -3.1
v 9.9 0.3 -3.1
v 9.9 0.7 -3.1
v 9.6 0 -3.3
v 9.6 0.1 -3.3
v 9.6 0.2 -3.3
v 9.6 0.5 -3.3
v 9.6 0.6 -3.3
v 9.6 0.8 -3.3
v 9.6 0.9 -3.3
v 9.7 0 -3.3
v 9.7 0.1 -3.3
v 9.7 0.4 -3.3
v 9.7 0.6 -3.3
v 9.7 0.7 -3.3
v 9.8 0 -3.3
v 9.8 0.1 -3.3
v 9.8 0.3 -3.3
v 9.8 0.4 -3.3
v 9.8 0.6 -3.3
v 9.8 0.7 -3.3
v 9.8 0.9 -3.3
v 9.6 0 -3.1
v 9.6 0.2 -3.1
v 9.6 0.3 -3.1
v 9.6 0.5 -3.1
v 9.6 0.8 -3.1
v 9.6 0.9 -3.1
v 9.7 0 -3.1
v 9.7 0.2 -3.1
v 9.7 0.3 -3.1
v 9.7 0.5 -3.1
v 9.7 0.6 -3.1
v 9.7 0.7 -3.1
v 9.7 0.9 -3.1
v 9.8 0 -3.1
v 9.8 0.1 -3.1
v 9.8 0.2 -3.1
v 9.8 0.3 -3.1
v 9.8 0.5 -3.1
v 9.8 0.6 -3.1
v 9.8 0.7 -3.1
v 9.8 0.8 -3.1
v 9.8 0.9 -3.1
v 9.5 0 -3.3
v 9.5 0.1 -3.3
v 9.5 0.2 -3.3
v 9.5 0.5 -3.3
v 9.5 0.7 -3.3
v 9.6 0 -3.3
v 9.6 0.1 -3.3
v 9.6 0.2 -3.3
v 9.6 0.5 -3.3
v 9.6 0.6 -3.3
v 9.6 0.7 -3.3
v 9.8 0 -3.3
v 9.8 0.1 -3.3
v 9.8 0.3 -3.3
v 9.8 0.4 -3.3
v 9.8 0.6 -3.3
v 9.8 0.7 -3.3
v 9.9 0 -3.3
v 9.9 0.3 -3.3
v 9.9 0.4 -3.3
v 9.9 0.7 -3.3
v 9.4 0.7 -3.4
v 9.4 0.9 -3.4
v 9.5 0.7 -3.4
v 9.5 0.8 -3.4
v 9.5 0.9 -3.4
v 9.6 0 -3.4
v 9.6 0.6 -3.4
v 9.6 0.7 -3.4
v 9.7 0 -3.4
v 9.7 0.1 -3.4
v 9.7 0.4 -3.4
v 9.7 0.6 -3.4
v 9.7 0.7 -3.4
v 9.8 0 -3.4
v 9.8 0.1 -3.4
v 9.8 0.4 -3.4
v 9.8 0.6 -3.4
v 9.8 0.7 -3.4
v 9.9 0.7 -3.4
v 9.9 0.8 -3.4
v 9.9 0.9 -3.4
v 10 0.7 -3.4
v 10 0.8 -3.4
v 10 0.9 -3.4
v 9.5 0.7 -3.5
v 9.5 0.8 -3.5
v 9.5 0.9 -3.5
v 9.6 0.7 -3.5
v 9.6 0.8 -3.5
v 9.6 0.9 -3.5
v 9.7 0.7 -3.5
v 9.7 0.8 -3.5
v 9.7 0.9 -3.5
v 9.8 0.7 -3.5
v 9.8 0.8 -3.5
v 9.9 0.7 -3.5
v 9.9 0.9 -3.5
v 9.6 0 -3
v 9.7 0 -3
v 9.8 0 -3
v 9.5 0 -3.1
v 9.6 0 -3.1
v 9.7 0 -3.1
v 9.8 0 -3.1
v 9.9 0 -3.1
v 9.5 0 -3.3
v 9.6 0 -3.3
v 9.7 0 -3.3
v 9.8 0 -3.3
v 9.9 0 -3.3
v 9.6 0 -3.4
v 9.7 0 -3.4
v 9.8 0 -3.4
v 9.5 0.7 -2.9
v 9.7 0.7 -2.9
v 9.9 0.7 -2.9
v 9.4 0.7 -3
v 9.5 0.7 -3
v 9.6 0.7 -3
v 9.7 0.7 -3
v 9.8 0.7 -3
v 9.9 0.7 -3
v 10 0.7 -3
v 9.5 0.7 -3.1
v 9.6 0.7 -3.1
v 9.8 0.7 -3.1
v 9.9 0.7 -3.1
v 10 0.7 -3.1
v 9.4 0.7 -3.2
v 9.5 0.7 -3.2
v 9.4 0.7 -3.3
v 9.5 0.7 -3.3
v 9.6 0.7 -3.3
v 9.8 0.7 -3.3
v 9.9 0.7 -3.3
v 10 0.7 -3.3
v 9.4 0.7 -3.4
v 9.5 0.7 -3.4
v 9.6 0.7 -3.4
v 9.7 0.7 -3.4
v 9.8 0.7 -3.4
v 9.9 0.7 -3.4
v 10 0.7 -3.4
v 9.5 0.7 -3.5
v 9.6 0.7 -3.5
v 9.7 0.7 -3.5
v 9.8 0.7 -3.5
v 9.9 0.7 -3.5
v 9.5 0.9 -2.9
v 9.6 0.9 -2.9
v 9.7 0.9 -2.9
v 9.9 0.9 -2.9
v 9.4 0.9 -3
v 9.5 0.9 -3
v 9.6 0.9 -3
v 9.7 0.9 -3
v 9.9 0.9 -3
v 10 0.9 -3
v 9.6 0.9 -3.1
v 9.7 0.9 -3.1
v 9.8 0.9 -3.1
v 9.9 0.9 -3.1
v 9.5 0.9 -3.2
v 9.6 0.9 -3.2
v 9.8 0.9 -3.2
v 9.9 0.9 -3.2
v 9.4 0.9 -3.3
v 9.5 0.9 -3.3
v 9.6 0.9 -3.3
v 9.8 0.9 -3.3
v 9.9 0.9 -3.3
v 10 0.9 -3.3
v 9.4 0.9 -3.4
v 9.5 0.9 -3.4
v 9.6 0.9 -3.4
v 9.7 0.9 -3.4
v 9.9 0.9 -3.4
v 10 0.9 -3.4
v 9.5 0.9 -3.5
v 9.6 0.9 -3.5
v 9.7 0.9 -3.5
v 9.9 0.9 -3.5

# faces
f 5/1/1 2/1/1 1/1/1
f 6/2/1 3/2/1 2/2/1
f 6/1/1 2/1/1 5/1/1
f 7/2/1 6/2/1 5/2/1
f 8/1/1 4/1/1 3/1/1
f 8/2/1 6/2/1 7/2/1
f 8/2/1 3/2/1 6/2/1
f 9/1/1 4/1/1 8/1/1
f 12/2/1 11/2/1 10/2/1
f 13/2/1 11/2/1 12/2/1
f 14/2/1 12/2/1 10/2/1
f 15/1/1 13/1/1 12/1/1
f 15/2/1 12/2/1 14/2/1
f 16/1/1 13/1/1 15/1/1
f 17/1/1 15/1/1 14/1/1
f 18/2/1 16/2/1 15/2/1
f 18/1/1 15/1/1 17/1/1
f 19/2/1 18/2/1 17/2/1
f 19/2/1 16/2/1 18/2/1
f 20/2/1 16/2/1 19/2/1
f 23/2/1 19/2/1 17/2/1
f 24/1/1 20/1/1 19/1/1
f 24/2/1 19/2/1 23/2/1
f 25/1/1 20/1/1 24/1/1
f 28/1/1 22/1/1 21/1/1
f 29/1/1 22/1/1 28/1/1
f 30/1/1 27/1/1 26/1/1
f 31/1/1 27/1/1 30/1/1
f 32/2/1 29/2/1 28/2/1
f 33/2/1 29/2/1 32/2/1
f 34/2/1 31/2/1 30/2/1
f 35/2/1 31/2/1 34/2/1
f 40/1/1 39/1/1 38/1/1
f 41/1/1 37/1/1 36/1/1
f 42/1/1 37/1/1 41/1/1
f 43/1/1 39/1/1 40/1/1
f 44/2/1 42/2/1 41/2/1
f 45/2/1 42/2/1 44/2/1
f 46/1/1 45/1/1 44/1/1
f 47/1/1 45/1/1 46/1/1
f 48/1/1 39/1/1 43/1/1
f 49/1/1 39/1/1 48/1/1
f 50/1/1 39/1/1 49/1/1
f 51/2/1 47/2/1 46/2/1
f 52/2/1 47/2/1 51/2/1
f 53/2/1 50/2/1 49/2/1
f 54/2/1 50/2/1 53/2/1
f 57/1/1 56/1/1 55/1/1
f 58/1/1 56/1/1 57/1/1
f 59/1/1 56/1/1 58/1/1
f 60/2/1 58/2/1 57/2/1
f 61/2/1 58/2/1 60/2/1
f 62/1/1 59/1/1 58/1/1
f 62/2/1 58/2/1 61/2/1
f 63/1/1 59/1/1 62/1/1
f 64/1/1 62/1/1 61/1/1
f 64/2/1 63/2/1 62/2/1
f 65/2/1 63/2/1 64/2/1
f 66/1/1 64/1/1 61/1/1
f 66/1/1 65/1/1 64/1/1
f 67/1/1 65/1/1 66/1/1
f 68/1/1 65/1/1 67/1/1
f 69/1/1 68/1/1 67/1/1
f 70/1/1 68/1/1 69/1/1
f 71/1/1 70/1/1 69/1/1
f 72/1/1 70/1/1 71/1/1
f 73/2/1 72/2/1 71/2/1
f 74/1/1 70/1/1 72/1/1
f 74/2/1 72/2/1 73/2/1
f 75/1/1 70/1/1 74/1/1
f 76/2/2 77/2/2 78/2/2
f 78/2/2 77/2/2 79/2/2
f 76/2/2 78/2/2 80/2/2
f 78/1/2 79/1/2 81/1/2
f 80/2/2 78/2/2 81/2/2
f 81/1/2 79/1/2 82/1/2
f 80/1/2 81/1/2 83/1/2
f 81/2/2 82/2/2 84/2/2
f 83/1/2 81/1/2 84/1/2
f 83/2/2 84/2/2 85/2/2
f 84/2/2 82/2/2 86/2/2
f 85/2/2 84/2/2 86/2/2
f 86/2/2 82/2/2 87/2/2
f 86/1/2 87/1/2 88/1/2
f 85/2/2 86/2/2 89/2/2
f 86/1/2 88/1/2 90/1/2
f 89/2/2 86/2/2 90/2/2
f 90/1/2 88/1/2 91/1/2
f 89/1/2 90/1/2 92/1/2
f 90/2/2 91/2/2 93/2/2
f 92/1/2 90/1/2 93/1/2
f 93/2/2 91/2/2 94/2/2
f 95/2/2 96/2/2 99/2/2
f 97/2/2 98/2/2 100/2/2
f 100/2/2 98/2/2 101/2/2
f 95/2/2 99/2/2 102/2/2
f 102/2/2 99/2/2 103/2/2
f 102/1/2 103/1/2 104/1/2
f 104/1/2 103/1/2 105/1/2
f 100/1/2 101/1/2 106/1/2
f 106/1/2 101/1/2 107/1/2
f 107/1/2 101/1/2 108/1/2
f 104/2/2 105/2/2 109/2/2
f 109/2/2 105/2/2 110/2/2
f 109/1/2 110/1/2 111/1/2
f 111/1/2 110/1/2 112/1/2
f 107/2/2 108/2/2 113/2/2
f 113/2/2 108/2/2 114/2/2
f 111/2/2 112/2/2 115/2/2
f 115/2/2 112/2/2 116/2/2
f 113/1/2 114/1/2 117/1/2
f 117/1/2 114/1/2 118/1/2
f 119/1/2 120/1/2 121/1/2
f 121/1/2 120/1/2 122/1/2
f 121/2/2 122/2/2 123/2/2
f 122/1/2 120/1/2 124/1/2
f 123/2/2 122/2/2 124/2/2
f 124/1/2 120/1/2 125/1/2
f 123/1/2 124/1/2 126/1/2
f 124/2/2 125/2/2 126/2/2
f 126/2/2 125/2/2 127/2/2
f 123/1/2 126/1/2 130/1/2
f 126/1/2 127/1/2 130/1/2
f 130/1/2 127/1/2 131/1/2
f 132/2/2 133/2/2 134/2/2
f 128/2/2 129/2/2 135/2/2
f 135/2/2 129/2/2 136/2/2
f 134/2/2 133/2/2 137/2/2
f 137/2/2 133/2/2 138/2/2
f 139/2/2 140/2/2 143/2/2
f 140/1/2 141/1/2 143/1/2
f 141/2/2 142/2/2 144/2/2
f 143/1/2 141/1/2 144/1/2
f 144/2/2 142/2/2 145/2/2
f 139/2/2 143/2/2 146/2/2
f 143/2/2 144/2/2 146/2/2
f 144/1/2 145/1/2 147/1/2
f 146/2/2 144/2/2 147/2/2
f 147/1/2 145/1/2 148/1/2
f 152/1/3 150/1/3 149/1/3
f 152/2/3 151/2/3 150/2/3
f 153/2/3 151/2/3 152/2/3
f 154/1/3 152/1/3 149/1/3
f 154/1/3 153/1/3 152/1/3
f 155/1/3 153/1/3 154/1/3
f 156/2/3 155/2/3 154/2/3
f 157/2/3 155/2/3 156/2/3
f 161/1/3 159/1/3 158/1/3
f 162/2/3 160/2/3 159/2/3
f 162/1/3 159/1/3 161/1/3
f 163/2/3 160/2/3 162/2/3
f 169/1/3 165/1/3 164/1/3
f 170/2/3 166/2/3 165/2/3
f 170/1/3 165/1/3 169/1/3
f 171/1/3 167/1/3 166/1/3
f 171/2/3 166/2/3 170/2/3
f 172/2/3 168/2/3 167/2/3
f 172/1/3 167/1/3 171/1/3
f 173/2/3 168/2/3 172/2/3
f 174/2/3 168/2/3 173/2/3
f 175/2/3 170/2/3 169/2/3
f 176/1/3 171/1/3 170/1/3
f 176/2/3 170/2/3 175/2/3
f 177/2/3 172/2/3 171/2/3
f 177/1/3 171/1/3 176/1/3
f 178/1/3 173/1/3 172/1/3
f 178/2/3 172/2/3 177/2/3
f 179/2/3 174/2/3 173/2/3
f 179/1/3 173/1/3 178/1/3
f 180/2/3 174/2/3 179/2/3
f 183/2/3 182/2/3 181/2/3
f 184/2/3 182/2/3 183/2/3
f 189/2/3 186/2/3 185/2/3
f 190/1/3 187/1/3 186/1/3
f 190/2/3 186/2/3 189/2/3
f 191/2/3 188/2/3 187/2/3
f 191/1/3 187/1/3 190/1/3
f 192/2/3 188/2/3 191/2/3
f 193/2/3 188/2/3 192/2/3
f 201/1/3 195/1/3 194/1/3
f 202/2/3 196/2/3 195/2/3
f 202/1/3 195/1/3 201/1/3
f 202/2/3 197/2/3 196/2/3
f 203/1/3 200/1/3 199/1/3
f 203/2/3 197/2/3 202/2/3
f 203/1/3 199/1/3 198/1/3
f 203/1/3 198/1/3 197/1/3
f 204/1/3 200/1/3 203/1/3
f 212/1/3 206/1/3 205/1/3
f 212/1/3 207/1/3 206/1/3
f 212/1/3 208/1/3 207/1/3
f 212/1/3 209/1/3 208/1/3
f 213/1/3 209/1/3 212/1/3
f 214/1/3 209/1/3 213/1/3
f 215/2/3 211/2/3 210/2/3
f 215/1/3 209/1/3 214/1/3
f 215/2/3 210/2/3 209/2/3
f 216/2/3 211/2/3 215/2/3
f 217/2/3 213/2/3 212/2/3
f 218/1/3 214/1/3 213/1/3
f 218/2/3 213/2/3 217/2/3
f 219/1/3 214/1/3 218/1/3
f 220/2/3 215/2/3 214/2/3
f 220/1/3 214/1/3 219/1/3
f 221/1/3 216/1/3 215/1/3
f 221/2/3 215/2/3 220/2/3
f 222/2/3 211/2/3 216/2/3
f 222/1/3 216/1/3 221/1/3
f 223/2/3 211/2/3 222/2/3
f 224/1/4 225/1/4 230/1/4
f 225/2/4 226/2/4 231/2/4
f 230/1/4 225/1/4 231/1/4
f 226/1/4 227/1/4 232/1/4
f 231/2/4 226/2/4 232/2/4
f 228/2/4 229/2/4 233/2/4
f 232/1/4 227/1/4 233/1/4
f 227/2/4 228/2/4 233/2/4
f 233/2/4 229/2/4 234/2/4
f 234/2/4 229/2/4 235/2/4
f 235/2/4 229/2/4 236/2/4
f 230/2/4 231/2/4 237/2/4
f 237/2/4 231/2/4 238/2/4
f 231/1/4 232/1/4 239/1/4
f 238/2/4 231/2/4 239/2/4
f 232/2/4 233/2/4 240/2/4
f 239/1/4 232/1/4 240/1/4
f 233/1/4 234/1/4 241/1/4
f 240/2/4 233/2/4 241/2/4
f 234/2/4 235/2/4 242/2/4
f 241/1/4 234/1/4 242/1/4
f 235/1/4 236/1/4 243/1/4
f 242/2/4 235/2/4 243/2/4
f 243/1/4 236/1/4 244/1/4
f 244/1/4 236/1/4 245/1/4
f 246/2/4 247/2/4 251/2/4
f 247/1/4 248/1/4 252/1/4
f 251/2/4 247/2/4 252/2/4
f 248/2/4 249/2/4 253/2/4
f 252/1/4 248/1/4 253/1/4
f 249/1/4 250/1/4 254/1/4
f 253/2/4 249/2/4 254/2/4
f 254/1/4 250/1/4 255/1/4
f 255/1/4 250/1/4 256/1/4
f 257/1/4 258/1/4 263/1/4
f 258/1/4 259/1/4 263/1/4
f 259/2/4 260/2/4 264/2/4
f 263/1/4 259/1/4 264/1/4
f 261/1/4 262/1/4 265/1/4
f 264/2/4 260/2/4 265/2/4
f 260/1/4 261/1/4 265/1/4
f 265/1/4 262/1/4 266/1/4
f 267/1/4 268/1/4 269/1/4
f 269/1/4 268/1/4 270/1/4
f 270/1/4 268/1/4 271/1/4
f 272/1/4 273/1/4 275/1/4
f 275/1/4 273/1/4 276/1/4
f 276/1/4 273/1/4 277/1/4
f 273/2/4 274/2/4 278/2/4
f 277/1/4 273/1/4 278/1/4
f 278/2/4 274/2/4 279/2/4
f 275/2/4 276/2/4 280/2/4
f 276/1/4 277/1/4 281/1/4
f 280/2/4 276/2/4 281/2/4
f 277/2/4 278/2/4 282/2/4
f 281/1/4 277/1/4 282/1/4
f 278/1/4 279/1/4 283/1/4
f 282/2/4 278/2/4 283/2/4
f 283/1/4 279/1/4 284/1/4
f 285/2/4 286/2/4 288/2/4
f 286/1/4 287/1/4 289/1/4
f 288/2/4 286/2/4 289/2/4
f 289/1/4 287/1/4 290/1/4
f 291/1/4 292/1/4 294/1/4
f 292/2/4 293/2/4 295/2/4
f 294/1/4 292/1/4 295/1/4
f 295/2/4 293/2/4 296/2/4
f 294/2/4 295/2/4 297/2/4
f 295/1/4 296/1/4 298/1/4
f 297/2/4 295/2/4 298/2/4
f 298/1/4 296/1/4 299/1/4
f 297/1/4 298/1/4 300/1/4
f 298/2/4 299/2/4 301/2/4
f 300/1/4 298/1/4 301/1/4
f 300/2/4 301/2/4 302/2/4
f 301/2/4 299/2/4 303/2/4
f 302/2/4 301/2/4 303/2/4
f 308/1/5 305/1/5 304/1/5
f 309/2/5 306/2/5 305/2/5
f 309/1/5 305/1/5 308/1/5
f 310/2/5 306/2/5 309/2/5
f 312/2/5 308/2/5 307/2/5
f 313/2/5 308/2/5 312/2/5
f 315/1/5 311/1/5 310/1/5
f 316/1/5 311/1/5 315/1/5
f 317/1/5 314/1/5 313/1/5
f 318/2/5 315/2/5 314/2/5
f 318/1/5 314/1/5 317/1/5
f 319/2/5 315/2/5 318/2/5
f 324/1/5 321/1/5 320/1/5
f 325/1/5 321/1/5 324/1/5
f 326/2/5 322/2/5 321/2/5
f 326/1/5 321/1/5 325/1/5
f 327/2/5 322/2/5 326/2/5
f 328/2/5 322/2/5 327/2/5
f 330/2/5 325/2/5 324/2/5
f 330/1/5 324/1/5 323/1/5
f 331/2/5 325/2/5 330/2/5
f 332/1/5 328/1/5 327/1/5
f 333/2/5 329/2/5 328/2/5
f 333/1/5 328/1/5 332/1/5
f 334/2/5 329/2/5 333/2/5
f 335/1/5 330/1/5 323/1/5
f 336/1/5 330/1/5 335/1/5
f 337/2/5 336/2/5 335/2/5
f 338/2/5 336/2/5 337/2/5
f 341/1/5 334/1/5 333/1/5
f 342/1/5 334/1/5 341/1/5
f 343/1/5 338/1/5 337/1/5
f 344/2/5 339/2/5 338/2/5
f 344/1/5 338/1/5 343/1/5
f 345/2/5 339/2/5 344/2/5
f 347/2/5 341/2/5 340/2/5
f 347/2/5 342/2/5 341/2/5
f 348/2/5 342/2/5 347/2/5
f 349/2/5 342/2/5 348/2/5
f 350/1/5 345/1/5 344/1/5
f 351/2/5 346/2/5 345/2/5
f 351/1/5 345/1/5 350/1/5
f 352/1/5 347/1/5 346/1/5
f 352/2/5 346/2/5 351/2/5
f 353/2/5 348/2/5 347/2/5
f 353/1/5 347/1/5 352/1/5
f 354/2/5 348/2/5 353/2/5
f 355/2/6 356/2/6 360/2/6
f 356/1/6 357/1/6 361/1/6
f 360/2/6 356/2/6 361/2/6
f 357/2/6 358/2/6 362/2/6
f 361/1/6 357/1/6 362/1/6
f 362/2/6 358/2/6 363/2/6
f 360/1/6 361/1/6 365/1/6
f 361/2/6 362/2/6 365/2/6
f 362/1/6 363/1/6 366/1/6
f 365/2/6 362/2/6 366/2/6
f 366/1/6 363/1/6 367/1/6
f 363/2/6 364/2/6 368/2/6
f 367/1/6 363/1/6 368/1/6
f 359/2/6 360/2/6 369/2/6
f 360/1/6 365/1/6 369/1/6
f 369/1/6 365/1/6 370/1/6
f 367/2/6 368/2/6 371/2/6
f 368/2/6 364/2/6 372/2/6
f 371/2/6 368/2/6 372/2/6
f 369/2/6 370/2/6 373/2/6
f 359/2/6 369/2/6 373/2/6
f 373/2/6 370/2/6 374/2/6
f 374/2/6 370/2/6 375/2/6
f 371/1/6 372/1/6 376/1/6
f 372/2/6 364/2/6 377/2/6
f 376/1/6 372/1/6 377/1/6
f 377/2/6 364/2/6 378/2/6
f 373/1/6 374/1/6 379/1/6
f 375/2/6 376/2/6 380/2/6
f 379/1/6 374/1/6 380/1/6
f 374/2/6 375/2/6 380/2/6
f 376/2/6 377/2/6 380/2/6
f 380/2/6 377/2/6 381/2/6
f 381/2/6 377/2/6 382/2/6
f 377/1/6 378/1/6 383/1/6
f 382/2/6 377/2/6 383/2/6
f 383/1/6 378/1/6 384/1/6
f 380/2/6 381/2/6 385/2/6
f 381/1/6 382/1/6 386/1/6
f 385/2/6 381/2/6 386/2/6
f 382/2/6 383/2/6 387/2/6
f 386/1/6 382/1/6 387/1/6
f 387/2/6 383/2/6 388/2/6
