# MagicaVoxel @ Ephtracy

# group
o wall_tudorpillar

# material
mtllib tavern-82-wall_tudorpillar.mtl
usemtl palette

# normals
vn -1 0 0
vn 1 0 0
vn 0 0 -1
vn 0 0 1
vn 0 1 0
vn 0 -1 0

# texcoords
vt 0.701172 0.5
vt 0.705078 0.5
vt 0.708984 0.5

# verts
v 10.3 1.7 -4.9
v 10.3 1.7 -4.5
v 10.3 1.6 -4.8
v 10.3 1.6 -4.7
v 10.3 1.6 -4.6
v 10.3 1.5 -4.7
v 10.3 1.5 -4.6
v 10.3 1.4 -4.7
v 10.3 1.4 -4.6
v 10.3 1.3 -4.8
v 10.3 1.3 -4.7
v 10.3 1.2 -4.8
v 10.3 1.2 -4.7
v 10.3 1.1 -4.8
v 10.3 1.1 -4.7
v 10.3 1.1 -4.6
v 10.3 1 -4.7
v 10.3 1 -4.6
v 10.3 0.9 -4.7
v 10.3 0.9 -4.6
v 10.3 0.7 -4.8
v 10.3 0.7 -4.7
v 10.3 0.7 -4.6
v 10.3 0.6 -4.8
v 10.3 0.6 -4.7
v 10.3 0.5 -4.7
v 10.3 0.5 -4.6
v 10.3 0.4 -4.8
v 10.3 0.4 -4.7
v 10.3 0.4 -4.6
v 10.3 0.2 -4.7
v 10.3 0.2 -4.6
v 10.3 0.1 -4.8
v 10.3 0.1 -4.6
v 10.3 0 -4.9
v 10.3 0 -4.5
v 10.7 1.6 -4.9
v 10.7 1.6 -4.8
v 10.7 1.4 -4.8
v 10.7 1 -4.8
v 10.7 0.9 -4.8
v 10.7 0.8 -4.8
v 10.7 0.6 -4.8
v 10.7 0.3 -4.8
v 10.7 0.2 -4.8
v 10.7 0.1 -4.9
v 10.7 0.1 -4.8
v 10.4 1.6 -4.9
v 10.4 1.6 -4.8
v 10.4 1.3 -4.8
v 10.4 1.1 -4.8
v 10.4 1 -4.8
v 10.4 0.6 -4.8
v 10.4 0.5 -4.8
v 10.4 0.4 -4.8
v 10.4 0.1 -4.9
v 10.4 0.1 -4.8
v 10.7 1.6 -4.8
v 10.7 1.6 -4.6
v 10.7 1.5 -4.7
v 10.7 1.5 -4.6
v 10.7 1.4 -4.8
v 10.7 1.4 -4.7
v 10.7 1.4 -4.6
v 10.7 1.1 -4.7
v 10.7 1.1 -4.6
v 10.7 1 -4.8
v 10.7 1 -4.6
v 10.7 0.9 -4.8
v 10.7 0.9 -4.6
v 10.7 0.8 -4.8
v 10.7 0.8 -4.7
v 10.7 0.7 -4.7
v 10.7 0.7 -4.6
v 10.7 0.6 -4.8
v 10.7 0.6 -4.7
v 10.7 0.5 -4.7
v 10.7 0.5 -4.6
v 10.7 0.4 -4.7
v 10.7 0.4 -4.6
v 10.7 0.3 -4.8
v 10.7 0.3 -4.7
v 10.7 0.2 -4.8
v 10.7 0.2 -4.6
v 10.7 0.1 -4.8
v 10.7 0.1 -4.6
v 10.8 1.7 -4.9
v 10.8 1.7 -4.5
v 10.8 1.6 -4.8
v 10.8 1.6 -4.6
v 10.8 0.1 -4.8
v 10.8 0.1 -4.6
v 10.8 0 -4.9
v 10.8 0 -4.5
v 10.3 1.7 -4.9
v 10.3 0 -4.9
v 10.4 1.6 -4.9
v 10.4 0.1 -4.9
v 10.7 1.6 -4.9
v 10.7 0.1 -4.9
v 10.8 1.7 -4.9
v 10.8 0 -4.9
v 10.4 1.6 -4.8
v 10.4 1.3 -4.8
v 10.4 1.1 -4.8
v 10.4 1 -4.8
v 10.4 0.6 -4.8
v 10.4 0.5 -4.8
v 10.4 0.4 -4.8
v 10.4 0.1 -4.8
v 10.5 1.5 -4.8
v 10.5 1.3 -4.8
v 10.5 1.2 -4.8
v 10.5 1.1 -4.8
v 10.5 1 -4.8
v 10.5 0.8 -4.8
v 10.5 0.7 -4.8
v 10.5 0.6 -4.8
v 10.5 0.5 -4.8
v 10.5 0.4 -4.8
v 10.5 0.3 -4.8
v 10.5 0.2 -4.8
v 10.5 0.1 -4.8
v 10.6 1.6 -4.8
v 10.6 1.5 -4.8
v 10.6 1.4 -4.8
v 10.6 1.3 -4.8
v 10.6 1.2 -4.8
v 10.6 1 -4.8
v 10.6 0.9 -4.8
v 10.6 0.7 -4.8
v 10.6 0.6 -4.8
v 10.6 0.3 -4.8
v 10.6 0.2 -4.8
v 10.6 0.1 -4.8
v 10.7 1.6 -4.8
v 10.7 1.4 -4.8
v 10.7 1 -4.8
v 10.7 0.9 -4.8
v 10.7 0.8 -4.8
v 10.7 0.6 -4.8
v 10.7 0.3 -4.8
v 10.7 0.2 -4.8
v 10.7 0.1 -4.8
v 10.7 1.6 -4.6
v 10.7 1.5 -4.6
v 10.7 1.4 -4.6
v 10.7 1.1 -4.6
v 10.7 1 -4.6
v 10.7 0.9 -4.6
v 10.7 0.7 -4.6
v 10.7 0.5 -4.6
v 10.7 0.4 -4.6
v 10.7 0.2 -4.6
v 10.7 0.1 -4.6
v 10.8 1.6 -4.6
v 10.8 0.1 -4.6
v 10.7 1.6 -4.8
v 10.7 1.4 -4.8
v 10.7 1 -4.8
v 10.7 0.9 -4.8
v 10.7 0.8 -4.8
v 10.7 0.6 -4.8
v 10.7 0.3 -4.8
v 10.7 0.2 -4.8
v 10.7 0.1 -4.8
v 10.8 1.6 -4.8
v 10.8 0.1 -4.8
v 10.3 1.7 -4.5
v 10.3 0 -4.5
v 10.4 1.6 -4.5
v 10.4 1.3 -4.5
v 10.4 1.1 -4.5
v 10.4 1 -4.5
v 10.4 0.6 -4.5
v 10.4 0.5 -4.5
v 10.4 0.4 -4.5
v 10.4 0.1 -4.5
v 10.5 1.5 -4.5
v 10.5 1.3 -4.5
v 10.5 1.2 -4.5
v 10.5 1.1 -4.5
v 10.5 1 -4.5
v 10.5 0.8 -4.5
v 10.5 0.7 -4.5
v 10.5 0.6 -4.5
v 10.5 0.5 -4.5
v 10.5 0.4 -4.5
v 10.5 0.3 -4.5
v 10.5 0.2 -4.5
v 10.5 0.1 -4.5
v 10.6 1.6 -4.5
v 10.6 1.5 -4.5
v 10.6 1.4 -4.5
v 10.6 1.3 -4.5
v 10.6 1.2 -4.5
v 10.6 1 -4.5
v 10.6 0.9 -4.5
v 10.6 0.7 -4.5
v 10.6 0.6 -4.5
v 10.6 0.3 -4.5
v 10.6 0.2 -4.5
v 10.6 0.1 -4.5
v 10.7 1.6 -4.5
v 10.7 1.4 -4.5
v 10.7 1 -4.5
v 10.7 0.9 -4.5
v 10.7 0.8 -4.5
v 10.7 0.6 -4.5
v 10.7 0.3 -4.5
v 10.7 0.2 -4.5
v 10.7 0.1 -4.5
v 10.8 1.7 -4.5
v 10.8 0 -4.5
v 10.3 1.7 -4.9
v 10.8 1.7 -4.9
v 10.4 1.7 -4.8
v 10.7 1.7 -4.8
v 10.4 1.7 -4.6
v 10.7 1.7 -4.6
v 10.3 1.7 -4.5
v 10.8 1.7 -4.5
v 10.4 0.1 -4.9
v 10.7 0.1 -4.9
v 10.4 0.1 -4.8
v 10.5 0.1 -4.8
v 10.6 0.1 -4.8
v 10.7 0.1 -4.8
v 10.8 0.1 -4.8
v 10.7 0.1 -4.6
v 10.8 0.1 -4.6
v 10.4 1.6 -4.9
v 10.7 1.6 -4.9
v 10.4 1.6 -4.8
v 10.6 1.6 -4.8
v 10.7 1.6 -4.8
v 10.8 1.6 -4.8
v 10.7 1.6 -4.6
v 10.8 1.6 -4.6
v 10.3 0 -4.9
v 10.8 0 -4.9
v 10.3 0 -4.5
v 10.8 0 -4.5

# faces
f 3/3/1 2/3/1 1/3/1
f 4/3/1 2/3/1 3/3/1
f 5/3/1 2/3/1 4/3/1
f 6/1/1 4/1/1 3/1/1
f 6/2/1 5/2/1 4/2/1
f 7/3/1 2/3/1 5/3/1
f 7/2/1 5/2/1 6/2/1
f 8/1/1 6/1/1 3/1/1
f 8/1/1 7/1/1 6/1/1
f 9/3/1 2/3/1 7/3/1
f 9/1/1 7/1/1 8/1/1
f 10/3/1 3/3/1 1/3/1
f 10/1/1 8/1/1 3/1/1
f 11/2/1 9/2/1 8/2/1
f 11/1/1 8/1/1 10/1/1
f 12/3/1 10/3/1 1/3/1
f 12/2/1 11/2/1 10/2/1
f 13/2/1 9/2/1 11/2/1
f 13/2/1 11/2/1 12/2/1
f 14/3/1 12/3/1 1/3/1
f 14/1/1 13/1/1 12/1/1
f 15/2/1 9/2/1 13/2/1
f 15/1/1 13/1/1 14/1/1
f 16/3/1 2/3/1 9/3/1
f 16/2/1 9/2/1 15/2/1
f 17/2/1 15/2/1 14/2/1
f 17/1/1 16/1/1 15/1/1
f 18/3/1 2/3/1 16/3/1
f 18/1/1 16/1/1 17/1/1
f 19/2/1 17/2/1 14/2/1
f 19/2/1 18/2/1 17/2/1
f 20/3/1 2/3/1 18/3/1
f 20/2/1 18/2/1 19/2/1
f 21/2/1 19/2/1 14/2/1
f 21/3/1 14/3/1 1/3/1
f 22/1/1 20/1/1 19/1/1
f 22/2/1 19/2/1 21/2/1
f 23/3/1 2/3/1 20/3/1
f 23/1/1 20/1/1 22/1/1
f 24/1/1 22/1/1 21/1/1
f 24/3/1 21/3/1 1/3/1
f 25/2/1 23/2/1 22/2/1
f 25/1/1 22/1/1 24/1/1
f 26/2/1 25/2/1 24/2/1
f 26/2/1 23/2/1 25/2/1
f 27/3/1 2/3/1 23/3/1
f 27/2/1 23/2/1 26/2/1
f 28/2/1 26/2/1 24/2/1
f 28/3/1 24/3/1 1/3/1
f 29/1/1 27/1/1 26/1/1
f 29/2/1 26/2/1 28/2/1
f 30/3/1 2/3/1 27/3/1
f 30/1/1 27/1/1 29/1/1
f 31/1/1 29/1/1 28/1/1
f 31/2/1 30/2/1 29/2/1
f 32/3/1 2/3/1 30/3/1
f 32/2/1 30/2/1 31/2/1
f 33/1/1 31/1/1 28/1/1
f 33/3/1 28/3/1 1/3/1
f 33/1/1 32/1/1 31/1/1
f 34/3/1 2/3/1 32/3/1
f 34/1/1 32/1/1 33/1/1
f 35/3/1 33/3/1 1/3/1
f 35/3/1 34/3/1 33/3/1
f 36/3/1 2/3/1 34/3/1
f 36/3/1 34/3/1 35/3/1
f 39/3/1 38/3/1 37/3/1
f 40/3/1 39/3/1 37/3/1
f 41/3/1 40/3/1 37/3/1
f 42/3/1 41/3/1 37/3/1
f 43/3/1 42/3/1 37/3/1
f 44/3/1 43/3/1 37/3/1
f 45/3/1 44/3/1 37/3/1
f 46/3/1 45/3/1 37/3/1
f 47/3/1 45/3/1 46/3/1
f 48/3/2 49/3/2 50/3/2
f 48/3/2 50/3/2 51/3/2
f 48/3/2 51/3/2 52/3/2
f 48/3/2 52/3/2 53/3/2
f 48/3/2 53/3/2 54/3/2
f 48/3/2 54/3/2 55/3/2
f 48/3/2 55/3/2 56/3/2
f 56/3/2 55/3/2 57/3/2
f 58/2/2 59/2/2 60/2/2
f 60/2/2 59/2/2 61/2/2
f 58/2/2 60/2/2 62/2/2
f 60/1/2 61/1/2 63/1/2
f 62/2/2 60/2/2 63/2/2
f 63/1/2 61/1/2 64/1/2
f 62/1/2 63/1/2 65/1/2
f 63/2/2 64/2/2 65/2/2
f 65/2/2 64/2/2 66/2/2
f 62/1/2 65/1/2 67/1/2
f 65/1/2 66/1/2 67/1/2
f 67/1/2 66/1/2 68/1/2
f 67/2/2 68/2/2 69/2/2
f 69/2/2 68/2/2 70/2/2
f 69/1/2 70/1/2 71/1/2
f 71/1/2 70/1/2 72/1/2
f 71/2/2 72/2/2 73/2/2
f 72/1/2 70/1/2 73/1/2
f 73/1/2 70/1/2 74/1/2
f 71/2/2 73/2/2 75/2/2
f 73/2/2 74/2/2 75/2/2
f 75/2/2 74/2/2 76/2/2
f 75/1/2 76/1/2 77/1/2
f 76/2/2 74/2/2 77/2/2
f 77/2/2 74/2/2 78/2/2
f 75/1/2 77/1/2 79/1/2
f 77/1/2 78/1/2 79/1/2
f 79/1/2 78/1/2 80/1/2
f 75/1/2 79/1/2 81/1/2
f 79/2/2 80/2/2 82/2/2
f 81/1/2 79/1/2 82/1/2
f 81/2/2 82/2/2 83/2/2
f 82/2/2 80/2/2 84/2/2
f 83/2/2 82/2/2 84/2/2
f 83/1/2 84/1/2 85/1/2
f 85/1/2 84/1/2 86/1/2
f 87/3/2 88/3/2 89/3/2
f 89/3/2 88/3/2 90/3/2
f 87/3/2 89/3/2 91/3/2
f 90/3/2 88/3/2 92/3/2
f 87/3/2 91/3/2 93/3/2
f 91/3/2 92/3/2 93/3/2
f 92/3/2 88/3/2 94/3/2
f 93/3/2 92/3/2 94/3/2
f 97/3/3 96/3/3 95/3/3
f 98/3/3 96/3/3 97/3/3
f 99/3/3 97/3/3 95/3/3
f 100/3/3 96/3/3 98/3/3
f 101/3/3 99/3/3 95/3/3
f 101/3/3 100/3/3 99/3/3
f 102/3/3 96/3/3 100/3/3
f 102/3/3 100/3/3 101/3/3
f 111/1/3 104/1/3 103/1/3
f 112/2/3 105/2/3 104/2/3
f 112/1/3 104/1/3 111/1/3
f 113/2/3 105/2/3 112/2/3
f 114/1/3 106/1/3 105/1/3
f 114/2/3 105/2/3 113/2/3
f 115/2/3 107/2/3 106/2/3
f 115/1/3 106/1/3 114/1/3
f 116/2/3 107/2/3 115/2/3
f 117/2/3 107/2/3 116/2/3
f 118/1/3 108/1/3 107/1/3
f 118/2/3 107/2/3 117/2/3
f 119/2/3 109/2/3 108/2/3
f 119/1/3 108/1/3 118/1/3
f 120/1/3 110/1/3 109/1/3
f 120/2/3 109/2/3 119/2/3
f 121/1/3 110/1/3 120/1/3
f 122/1/3 110/1/3 121/1/3
f 123/1/3 110/1/3 122/1/3
f 124/1/3 111/1/3 103/1/3
f 125/2/3 112/2/3 111/2/3
f 125/1/3 111/1/3 124/1/3
f 126/2/3 112/2/3 125/2/3
f 127/1/3 113/1/3 112/1/3
f 127/2/3 112/2/3 126/2/3
f 128/2/3 114/2/3 113/2/3
f 128/1/3 113/1/3 127/1/3
f 128/2/3 115/2/3 114/2/3
f 129/1/3 116/1/3 115/1/3
f 129/2/3 115/2/3 128/2/3
f 130/1/3 116/1/3 129/1/3
f 131/2/3 117/2/3 116/2/3
f 131/1/3 118/1/3 117/1/3
f 132/2/3 119/2/3 118/2/3
f 132/1/3 118/1/3 131/1/3
f 132/2/3 120/2/3 119/2/3
f 132/2/3 121/2/3 120/2/3
f 133/1/3 122/1/3 121/1/3
f 133/2/3 121/2/3 132/2/3
f 134/2/3 123/2/3 122/2/3
f 134/1/3 122/1/3 133/1/3
f 135/2/3 123/2/3 134/2/3
f 136/2/3 126/2/3 125/2/3
f 136/2/3 125/2/3 124/2/3
f 137/1/3 127/1/3 126/1/3
f 137/2/3 126/2/3 136/2/3
f 137/1/3 128/1/3 127/1/3
f 137/1/3 129/1/3 128/1/3
f 138/2/3 130/2/3 129/2/3
f 138/1/3 129/1/3 137/1/3
f 139/1/3 116/1/3 130/1/3
f 139/2/3 130/2/3 138/2/3
f 140/2/3 131/2/3 116/2/3
f 140/1/3 116/1/3 139/1/3
f 140/2/3 132/2/3 131/2/3
f 141/1/3 133/1/3 132/1/3
f 141/2/3 132/2/3 140/2/3
f 142/2/3 134/2/3 133/2/3
f 142/1/3 133/1/3 141/1/3
f 143/1/3 135/1/3 134/1/3
f 143/2/3 134/2/3 142/2/3
f 144/1/3 135/1/3 143/1/3
f 156/3/3 146/3/3 145/3/3
f 156/3/3 155/3/3 154/3/3
f 156/3/3 154/3/3 153/3/3
f 156/3/3 153/3/3 152/3/3
f 156/3/3 152/3/3 151/3/3
f 156/3/3 151/3/3 150/3/3
f 156/3/3 150/3/3 149/3/3
f 156/3/3 149/3/3 148/3/3
f 156/3/3 148/3/3 147/3/3
f 156/3/3 147/3/3 146/3/3
f 157/3/3 155/3/3 156/3/3
f 158/3/4 159/3/4 167/3/4
f 165/3/4 166/3/4 167/3/4
f 164/3/4 165/3/4 167/3/4
f 163/3/4 164/3/4 167/3/4
f 162/3/4 163/3/4 167/3/4
f 161/3/4 162/3/4 167/3/4
f 160/3/4 161/3/4 167/3/4
f 159/3/4 160/3/4 167/3/4
f 167/3/4 166/3/4 168/3/4
f 169/3/4 170/3/4 171/3/4
f 171/3/4 170/3/4 172/3/4
f 172/3/4 170/3/4 173/3/4
f 173/3/4 170/3/4 174/3/4
f 174/3/4 170/3/4 175/3/4
f 175/3/4 170/3/4 176/3/4
f 176/3/4 170/3/4 177/3/4
f 177/3/4 170/3/4 178/3/4
f 171/1/4 172/1/4 179/1/4
f 172/2/4 173/2/4 180/2/4
f 179/1/4 172/1/4 180/1/4
f 180/2/4 173/2/4 181/2/4
f 173/1/4 174/1/4 182/1/4
f 181/2/4 173/2/4 182/2/4
f 174/2/4 175/2/4 183/2/4
f 182/1/4 174/1/4 183/1/4
f 183/2/4 175/2/4 184/2/4
f 184/2/4 175/2/4 185/2/4
f 175/1/4 176/1/4 186/1/4
f 185/2/4 175/2/4 186/2/4
f 176/2/4 177/2/4 187/2/4
f 186/1/4 176/1/4 187/1/4
f 177/1/4 178/1/4 188/1/4
f 187/2/4 177/2/4 188/2/4
f 188/1/4 178/1/4 189/1/4
f 189/1/4 178/1/4 190/1/4
f 178/3/4 170/3/4 191/3/4
f 190/1/4 178/1/4 191/1/4
f 169/3/4 171/3/4 192/3/4
f 171/1/4 179/1/4 192/1/4
f 179/2/4 180/2/4 193/2/4
f 192/1/4 179/1/4 193/1/4
f 193/2/4 180/2/4 194/2/4
f 180/1/4 181/1/4 195/1/4
f 194/2/4 180/2/4 195/2/4
f 181/2/4 182/2/4 196/2/4
f 195/1/4 181/1/4 196/1/4
f 182/2/4 183/2/4 196/2/4
f 183/1/4 184/1/4 197/1/4
f 196/2/4 183/2/4 197/2/4
f 197/1/4 184/1/4 198/1/4
f 184/2/4 185/2/4 199/2/4
f 185/1/4 186/1/4 199/1/4
f 186/2/4 187/2/4 200/2/4
f 199/1/4 186/1/4 200/1/4
f 187/2/4 188/2/4 200/2/4
f 188/2/4 189/2/4 200/2/4
f 189/1/4 190/1/4 201/1/4
f 200/2/4 189/2/4 201/2/4
f 190/2/4 191/2/4 202/2/4
f 201/1/4 190/1/4 202/1/4
f 191/3/4 170/3/4 203/3/4
f 202/2/4 191/2/4 203/2/4
f 193/2/4 194/2/4 204/2/4
f 169/3/4 192/3/4 204/3/4
f 192/2/4 193/2/4 204/2/4
f 194/1/4 195/1/4 205/1/4
f 204/2/4 194/2/4 205/2/4
f 196/1/4 197/1/4 205/1/4
f 195/1/4 196/1/4 205/1/4
f 197/2/4 198/2/4 206/2/4
f 205/1/4 197/1/4 206/1/4
f 198/1/4 184/1/4 207/1/4
f 206/2/4 198/2/4 207/2/4
f 199/2/4 200/2/4 208/2/4
f 207/1/4 184/1/4 208/1/4
f 184/2/4 199/2/4 208/2/4
f 200/1/4 201/1/4 209/1/4
f 208/2/4 200/2/4 209/2/4
f 201/2/4 202/2/4 210/2/4
f 209/1/4 201/1/4 210/1/4
f 202/1/4 203/1/4 211/1/4
f 210/2/4 202/2/4 211/2/4
f 203/3/4 170/3/4 212/3/4
f 211/1/4 203/1/4 212/1/4
f 208/3/4 209/3/4 213/3/4
f 206/3/4 207/3/4 213/3/4
f 211/3/4 212/3/4 213/3/4
f 209/3/4 210/3/4 213/3/4
f 204/3/4 205/3/4 213/3/4
f 205/3/4 206/3/4 213/3/4
f 169/3/4 204/3/4 213/3/4
f 210/3/4 211/3/4 213/3/4
f 207/3/4 208/3/4 213/3/4
f 212/3/4 170/3/4 214/3/4
f 213/3/4 212/3/4 214/3/4
f 217/3/5 216/3/5 215/3/5
f 218/3/5 216/3/5 217/3/5
f 219/3/5 217/3/5 215/3/5
f 219/2/5 218/2/5 217/2/5
f 220/3/5 216/3/5 218/3/5
f 220/2/5 218/2/5 219/2/5
f 221/3/5 219/3/5 215/3/5
f 221/3/5 220/3/5 219/3/5
f 222/3/5 216/3/5 220/3/5
f 222/3/5 220/3/5 221/3/5
f 225/3/5 224/3/5 223/3/5
f 226/3/5 224/3/5 225/3/5
f 227/3/5 224/3/5 226/3/5
f 228/3/5 224/3/5 227/3/5
f 230/3/5 229/3/5 228/3/5
f 231/3/5 229/3/5 230/3/5
f 232/3/6 233/3/6 234/3/6
f 234/3/6 233/3/6 235/3/6
f 235/3/6 233/3/6 236/3/6
f 236/3/6 237/3/6 238/3/6
f 238/3/6 237/3/6 239/3/6
f 240/3/6 241/3/6 242/3/6
f 242/3/6 241/3/6 243/3/6
