# MagicaVoxel @ Ephtracy

# group
o keg_metalbinding

# material
mtllib tavern-17-keg_metalbinding.mtl
usemtl palette

# normals
vn 0 0 1
vn 0 0 -1
vn 1 0 0
vn -1 0 0
vn 0 -1 0
vn 0 1 0

# texcoords
vt 0.748047 0.5

# verts
v 9.4 0.4 -8
v 9.3 0.4 -8
v 9.4 0.5 -8
v 9.3 0.5 -8
v 9.7 0 -8.1
v 9.4 0 -8.1
v 9.8 0.1 -8.1
v 9.7 0.1 -8.1
v 9.4 0.1 -8.1
v 9.3 0.1 -8.1
v 9.9 0.2 -8.1
v 9.8 0.2 -8.1
v 9.7 0.2 -8.1
v 9.4 0.2 -8.1
v 9.3 0.2 -8.1
v 9.2 0.2 -8.1
v 10 0.3 -8.1
v 9.9 0.3 -8.1
v 9.8 0.3 -8.1
v 9.3 0.3 -8.1
v 9.2 0.3 -8.1
v 9.1 0.3 -8.1
v 10 0.7 -8.1
v 9.9 0.7 -8.1
v 9.8 0.7 -8.1
v 9.3 0.7 -8.1
v 9.2 0.7 -8.1
v 9.1 0.7 -8.1
v 9.9 0.8 -8.1
v 9.8 0.8 -8.1
v 9.7 0.8 -8.1
v 9.4 0.8 -8.1
v 9.3 0.8 -8.1
v 9.2 0.8 -8.1
v 9.8 0.9 -8.1
v 9.7 0.9 -8.1
v 9.4 0.9 -8.1
v 9.3 0.9 -8.1
v 9.7 1 -8.1
v 9.4 1 -8.1
v 9.9 0 -8.6
v 9.2 0 -8.6
v 10 0.1 -8.6
v 9.9 0.1 -8.6
v 9.8 0.1 -8.6
v 9.2 0.1 -8.6
v 9.1 0.1 -8.6
v 10.1 0.2 -8.6
v 10 0.2 -8.6
v 9.1 0.2 -8.6
v 9 0.2 -8.6
v 9.2 0.5 -8.6
v 9.1 0.5 -8.6
v 10.1 0.8 -8.6
v 10 0.8 -8.6
v 9.2 0.8 -8.6
v 9.1 0.8 -8.6
v 9 0.8 -8.6
v 10 0.9 -8.6
v 9.9 0.9 -8.6
v 9.8 0.9 -8.6
v 9.2 0.9 -8.6
v 9.1 0.9 -8.6
v 9.9 1 -8.6
v 9.2 1 -8.6
v 9.7 0 -9
v 9.4 0 -9
v 9.9 0.1 -9
v 9.7 0.1 -9
v 9.4 0.1 -9
v 9.2 0.1 -9
v 10 0.2 -9
v 9.9 0.2 -9
v 9.7 0.2 -9
v 9.4 0.2 -9
v 9.2 0.2 -9
v 9.1 0.2 -9
v 10.1 0.4 -9
v 10 0.4 -9
v 9.9 0.4 -9
v 9.2 0.4 -9
v 9.1 0.4 -9
v 9 0.4 -9
v 10.1 0.6 -9
v 10 0.6 -9
v 9.9 0.6 -9
v 9.2 0.6 -9
v 9.1 0.6 -9
v 9 0.6 -9
v 10 0.8 -9
v 9.9 0.8 -9
v 9.7 0.8 -9
v 9.4 0.8 -9
v 9.2 0.8 -9
v 9.1 0.8 -9
v 9.9 0.9 -9
v 9.7 0.9 -9
v 9.4 0.9 -9
v 9.2 0.9 -9
v 9.7 1 -9
v 9.4 1 -9
v 9.4 0.4 -8.1
v 9.3 0.4 -8.1
v 9.4 0.5 -8.1
v 9.3 0.5 -8.1
v 9.7 0 -8.2
v 9.4 0 -8.2
v 9.8 0.1 -8.2
v 9.7 0.1 -8.2
v 9.4 0.1 -8.2
v 9.3 0.1 -8.2
v 9.9 0.2 -8.2
v 9.8 0.2 -8.2
v 9.7 0.2 -8.2
v 9.4 0.2 -8.2
v 9.3 0.2 -8.2
v 9.2 0.2 -8.2
v 10 0.3 -8.2
v 9.9 0.3 -8.2
v 9.8 0.3 -8.2
v 9.3 0.3 -8.2
v 9.2 0.3 -8.2
v 9.1 0.3 -8.2
v 10 0.7 -8.2
v 9.9 0.7 -8.2
v 9.8 0.7 -8.2
v 9.3 0.7 -8.2
v 9.2 0.7 -8.2
v 9.1 0.7 -8.2
v 9.9 0.8 -8.2
v 9.8 0.8 -8.2
v 9.7 0.8 -8.2
v 9.4 0.8 -8.2
v 9.3 0.8 -8.2
v 9.2 0.8 -8.2
v 9.8 0.9 -8.2
v 9.7 0.9 -8.2
v 9.4 0.9 -8.2
v 9.3 0.9 -8.2
v 9.7 1 -8.2
v 9.4 1 -8.2
v 9.9 0 -8.7
v 9.2 0 -8.7
v 10 0.1 -8.7
v 9.9 0.1 -8.7
v 9.8 0.1 -8.7
v 9.2 0.1 -8.7
v 9.1 0.1 -8.7
v 10.1 0.2 -8.7
v 10 0.2 -8.7
v 9.1 0.2 -8.7
v 9 0.2 -8.7
v 9.2 0.5 -8.7
v 9.1 0.5 -8.7
v 10.1 0.8 -8.7
v 10 0.8 -8.7
v 9.2 0.8 -8.7
v 9.1 0.8 -8.7
v 9 0.8 -8.7
v 10 0.9 -8.7
v 9.9 0.9 -8.7
v 9.8 0.9 -8.7
v 9.2 0.9 -8.7
v 9.1 0.9 -8.7
v 9.9 1 -8.7
v 9.2 1 -8.7
v 9.7 0 -9.1
v 9.4 0 -9.1
v 9.9 0.1 -9.1
v 9.7 0.1 -9.1
v 9.4 0.1 -9.1
v 9.2 0.1 -9.1
v 10 0.2 -9.1
v 9.9 0.2 -9.1
v 9.7 0.2 -9.1
v 9.4 0.2 -9.1
v 9.2 0.2 -9.1
v 9.1 0.2 -9.1
v 10.1 0.4 -9.1
v 10 0.4 -9.1
v 9.9 0.4 -9.1
v 9.2 0.4 -9.1
v 9.1 0.4 -9.1
v 9 0.4 -9.1
v 10.1 0.6 -9.1
v 10 0.6 -9.1
v 9.9 0.6 -9.1
v 9.2 0.6 -9.1
v 9.1 0.6 -9.1
v 9 0.6 -9.1
v 10 0.8 -9.1
v 9.9 0.8 -9.1
v 9.7 0.8 -9.1
v 9.4 0.8 -9.1
v 9.2 0.8 -9.1
v 9.1 0.8 -9.1
v 9.9 0.9 -9.1
v 9.7 0.9 -9.1
v 9.4 0.9 -9.1
v 9.2 0.9 -9.1
v 9.7 1 -9.1
v 9.4 1 -9.1
v 10.1 0.2 -8.6
v 10.1 0.8 -8.6
v 10.1 0.2 -8.7
v 10.1 0.8 -8.7
v 10.1 0.4 -9
v 10.1 0.6 -9
v 10.1 0.4 -9.1
v 10.1 0.6 -9.1
v 10 0.3 -8.1
v 10 0.7 -8.1
v 10 0.3 -8.2
v 10 0.7 -8.2
v 10 0.1 -8.6
v 10 0.2 -8.6
v 10 0.8 -8.6
v 10 0.9 -8.6
v 10 0.1 -8.7
v 10 0.2 -8.7
v 10 0.8 -8.7
v 10 0.9 -8.7
v 10 0.2 -9
v 10 0.4 -9
v 10 0.6 -9
v 10 0.8 -9
v 10 0.2 -9.1
v 10 0.4 -9.1
v 10 0.6 -9.1
v 10 0.8 -9.1
v 9.9 0.2 -8.1
v 9.9 0.3 -8.1
v 9.9 0.7 -8.1
v 9.9 0.8 -8.1
v 9.9 0.2 -8.2
v 9.9 0.3 -8.2
v 9.9 0.7 -8.2
v 9.9 0.8 -8.2
v 9.9 0 -8.6
v 9.9 0.1 -8.6
v 9.9 0.9 -8.6
v 9.9 1 -8.6
v 9.9 0 -8.7
v 9.9 0.1 -8.7
v 9.9 0.9 -8.7
v 9.9 1 -8.7
v 9.9 0.1 -9
v 9.9 0.2 -9
v 9.9 0.8 -9
v 9.9 0.9 -9
v 9.9 0.1 -9.1
v 9.9 0.2 -9.1
v 9.9 0.8 -9.1
v 9.9 0.9 -9.1
v 9.8 0.1 -8.1
v 9.8 0.2 -8.1
v 9.8 0.8 -8.1
v 9.8 0.9 -8.1
v 9.8 0.1 -8.2
v 9.8 0.2 -8.2
v 9.8 0.8 -8.2
v 9.8 0.9 -8.2
v 9.7 0 -8.1
v 9.7 0.1 -8.1
v 9.7 0.9 -8.1
v 9.7 1 -8.1
v 9.7 0 -8.2
v 9.7 0.1 -8.2
v 9.7 0.9 -8.2
v 9.7 1 -8.2
v 9.7 0 -9
v 9.7 0.1 -9
v 9.7 0.9 -9
v 9.7 1 -9
v 9.7 0 -9.1
v 9.7 0.1 -9.1
v 9.7 0.9 -9.1
v 9.7 1 -9.1
v 9.4 0.4 -8
v 9.4 0.5 -8
v 9.4 0.1 -8.1
v 9.4 0.2 -8.1
v 9.4 0.4 -8.1
v 9.4 0.5 -8.1
v 9.4 0.8 -8.1
v 9.4 0.9 -8.1
v 9.4 0.1 -8.2
v 9.4 0.2 -8.2
v 9.4 0.8 -8.2
v 9.4 0.9 -8.2
v 9.4 0.1 -9
v 9.4 0.2 -9
v 9.4 0.8 -9
v 9.4 0.9 -9
v 9.4 0.1 -9.1
v 9.4 0.2 -9.1
v 9.4 0.8 -9.1
v 9.4 0.9 -9.1
v 9.3 0.2 -8.1
v 9.3 0.3 -8.1
v 9.3 0.7 -8.1
v 9.3 0.8 -8.1
v 9.3 0.2 -8.2
v 9.3 0.3 -8.2
v 9.3 0.7 -8.2
v 9.3 0.8 -8.2
v 9.2 0.3 -8.1
v 9.2 0.7 -8.1
v 9.2 0.3 -8.2
v 9.2 0.7 -8.2
v 9.2 0.1 -8.6
v 9.2 0.5 -8.6
v 9.2 0.8 -8.6
v 9.2 0.9 -8.6
v 9.2 0.1 -8.7
v 9.2 0.5 -8.7
v 9.2 0.8 -8.7
v 9.2 0.9 -8.7
v 9.2 0.2 -9
v 9.2 0.4 -9
v 9.2 0.6 -9
v 9.2 0.8 -9
v 9.2 0.2 -9.1
v 9.2 0.4 -9.1
v 9.2 0.6 -9.1
v 9.2 0.8 -9.1
v 9.1 0.5 -8.6
v 9.1 0.8 -8.6
v 9.1 0.5 -8.7
v 9.1 0.8 -8.7
v 9.1 0.4 -9
v 9.1 0.6 -9
v 9.1 0.4 -9.1
v 9.1 0.6 -9.1
v 10 0.4 -9
v 10 0.6 -9
v 10 0.4 -9.1
v 10 0.6 -9.1
v 9.9 0.3 -8.1
v 9.9 0.7 -8.1
v 9.9 0.3 -8.2
v 9.9 0.7 -8.2
v 9.9 0.2 -9
v 9.9 0.4 -9
v 9.9 0.6 -9
v 9.9 0.8 -9
v 9.9 0.2 -9.1
v 9.9 0.4 -9.1
v 9.9 0.6 -9.1
v 9.9 0.8 -9.1
v 9.8 0.2 -8.1
v 9.8 0.3 -8.1
v 9.8 0.7 -8.1
v 9.8 0.8 -8.1
v 9.8 0.2 -8.2
v 9.8 0.3 -8.2
v 9.8 0.7 -8.2
v 9.8 0.8 -8.2
v 9.8 0.1 -8.6
v 9.8 0.9 -8.6
v 9.8 0.1 -8.7
v 9.8 0.9 -8.7
v 9.7 0.1 -8.1
v 9.7 0.2 -8.1
v 9.7 0.8 -8.1
v 9.7 0.9 -8.1
v 9.7 0.1 -8.2
v 9.7 0.2 -8.2
v 9.7 0.8 -8.2
v 9.7 0.9 -8.2
v 9.7 0.1 -9
v 9.7 0.2 -9
v 9.7 0.8 -9
v 9.7 0.9 -9
v 9.7 0.1 -9.1
v 9.7 0.2 -9.1
v 9.7 0.8 -9.1
v 9.7 0.9 -9.1
v 9.4 0 -8.1
v 9.4 0.1 -8.1
v 9.4 0.9 -8.1
v 9.4 1 -8.1
v 9.4 0 -8.2
v 9.4 0.1 -8.2
v 9.4 0.9 -8.2
v 9.4 1 -8.2
v 9.4 0 -9
v 9.4 0.1 -9
v 9.4 0.9 -9
v 9.4 1 -9
v 9.4 0 -9.1
v 9.4 0.1 -9.1
v 9.4 0.9 -9.1
v 9.4 1 -9.1
v 9.3 0.4 -8
v 9.3 0.5 -8
v 9.3 0.1 -8.1
v 9.3 0.2 -8.1
v 9.3 0.4 -8.1
v 9.3 0.5 -8.1
v 9.3 0.8 -8.1
v 9.3 0.9 -8.1
v 9.3 0.1 -8.2
v 9.3 0.2 -8.2
v 9.3 0.8 -8.2
v 9.3 0.9 -8.2
v 9.2 0.2 -8.1
v 9.2 0.3 -8.1
v 9.2 0.7 -8.1
v 9.2 0.8 -8.1
v 9.2 0.2 -8.2
v 9.2 0.3 -8.2
v 9.2 0.7 -8.2
v 9.2 0.8 -8.2
v 9.2 0 -8.6
v 9.2 0.1 -8.6
v 9.2 0.9 -8.6
v 9.2 1 -8.6
v 9.2 0 -8.7
v 9.2 0.1 -8.7
v 9.2 0.9 -8.7
v 9.2 1 -8.7
v 9.2 0.1 -9
v 9.2 0.2 -9
v 9.2 0.8 -9
v 9.2 0.9 -9
v 9.2 0.1 -9.1
v 9.2 0.2 -9.1
v 9.2 0.8 -9.1
v 9.2 0.9 -9.1
v 9.1 0.3 -8.1
v 9.1 0.7 -8.1
v 9.1 0.3 -8.2
v 9.1 0.7 -8.2
v 9.1 0.1 -8.6
v 9.1 0.2 -8.6
v 9.1 0.8 -8.6
v 9.1 0.9 -8.6
v 9.1 0.1 -8.7
v 9.1 0.2 -8.7
v 9.1 0.8 -8.7
v 9.1 0.9 -8.7
v 9.1 0.2 -9
v 9.1 0.4 -9
v 9.1 0.6 -9
v 9.1 0.8 -9
v 9.1 0.2 -9.1
v 9.1 0.4 -9.1
v 9.1 0.6 -9.1
v 9.1 0.8 -9.1
v 9 0.2 -8.6
v 9 0.8 -8.6
v 9 0.2 -8.7
v 9 0.8 -8.7
v 9 0.4 -9
v 9 0.6 -9
v 9 0.4 -9.1
v 9 0.6 -9.1
v 9.9 0 -8.6
v 9.9 0 -8.7
v 9.7 0 -8.1
v 9.7 0 -8.2
v 9.7 0 -9
v 9.7 0 -9.1
v 9.4 0 -8.1
v 9.4 0 -8.2
v 9.4 0 -9
v 9.4 0 -9.1
v 9.2 0 -8.6
v 9.2 0 -8.7
v 10 0.1 -8.6
v 10 0.1 -8.7
v 9.9 0.1 -8.6
v 9.9 0.1 -8.7
v 9.9 0.1 -9
v 9.9 0.1 -9.1
v 9.8 0.1 -8.1
v 9.8 0.1 -8.2
v 9.7 0.1 -8.1
v 9.7 0.1 -8.2
v 9.7 0.1 -9
v 9.7 0.1 -9.1
v 9.4 0.1 -8.1
v 9.4 0.1 -8.2
v 9.4 0.1 -9
v 9.4 0.1 -9.1
v 9.3 0.1 -8.1
v 9.3 0.1 -8.2
v 9.2 0.1 -8.6
v 9.2 0.1 -8.7
v 9.2 0.1 -9
v 9.2 0.1 -9.1
v 9.1 0.1 -8.6
v 9.1 0.1 -8.7
v 10.1 0.2 -8.6
v 10.1 0.2 -8.7
v 10 0.2 -8.6
v 10 0.2 -8.7
v 10 0.2 -9
v 10 0.2 -9.1
v 9.9 0.2 -8.1
v 9.9 0.2 -8.2
v 9.9 0.2 -9
v 9.9 0.2 -9.1
v 9.8 0.2 -8.1
v 9.8 0.2 -8.2
v 9.3 0.2 -8.1
v 9.3 0.2 -8.2
v 9.2 0.2 -8.1
v 9.2 0.2 -8.2
v 9.2 0.2 -9
v 9.2 0.2 -9.1
v 9.1 0.2 -8.6
v 9.1 0.2 -8.7
v 9.1 0.2 -9
v 9.1 0.2 -9.1
v 9 0.2 -8.6
v 9 0.2 -8.7
v 10 0.3 -8.1
v 10 0.3 -8.2
v 9.9 0.3 -8.1
v 9.9 0.3 -8.2
v 9.2 0.3 -8.1
v 9.2 0.3 -8.2
v 9.1 0.3 -8.1
v 9.1 0.3 -8.2
v 10.1 0.4 -9
v 10.1 0.4 -9.1
v 10 0.4 -9
v 10 0.4 -9.1
v 9.4 0.4 -8
v 9.4 0.4 -8.1
v 9.3 0.4 -8
v 9.3 0.4 -8.1
v 9.1 0.4 -9
v 9.1 0.4 -9.1
v 9 0.4 -9
v 9 0.4 -9.1
v 10 0.6 -9
v 10 0.6 -9.1
v 9.9 0.6 -9
v 9.9 0.6 -9.1
v 9.2 0.6 -9
v 9.2 0.6 -9.1
v 9.1 0.6 -9
v 9.1 0.6 -9.1
v 9.9 0.7 -8.1
v 9.9 0.7 -8.2
v 9.8 0.7 -8.1
v 9.8 0.7 -8.2
v 9.3 0.7 -8.1
v 9.3 0.7 -8.2
v 9.2 0.7 -8.1
v 9.2 0.7 -8.2
v 9.9 0.8 -9
v 9.9 0.8 -9.1
v 9.8 0.8 -8.1
v 9.8 0.8 -8.2
v 9.7 0.8 -8.1
v 9.7 0.8 -8.2
v 9.7 0.8 -9
v 9.7 0.8 -9.1
v 9.4 0.8 -8.1
v 9.4 0.8 -8.2
v 9.4 0.8 -9
v 9.4 0.8 -9.1
v 9.3 0.8 -8.1
v 9.3 0.8 -8.2
v 9.2 0.8 -8.6
v 9.2 0.8 -8.7
v 9.2 0.8 -9
v 9.2 0.8 -9.1
v 9.1 0.8 -8.6
v 9.1 0.8 -8.7
v 9.8 0.9 -8.6
v 9.8 0.9 -8.7
v 9.7 0.9 -8.1
v 9.7 0.9 -8.2
v 9.7 0.9 -9
v 9.7 0.9 -9.1
v 9.4 0.9 -8.1
v 9.4 0.9 -8.2
v 9.4 0.9 -9
v 9.4 0.9 -9.1
v 9.2 0.9 -8.6
v 9.2 0.9 -8.7
v 9.8 0.1 -8.6
v 9.8 0.1 -8.7
v 9.7 0.1 -8.1
v 9.7 0.1 -8.2
v 9.7 0.1 -9
v 9.7 0.1 -9.1
v 9.4 0.1 -8.1
v 9.4 0.1 -8.2
v 9.4 0.1 -9
v 9.4 0.1 -9.1
v 9.2 0.1 -8.6
v 9.2 0.1 -8.7
v 9.9 0.2 -9
v 9.9 0.2 -9.1
v 9.8 0.2 -8.1
v 9.8 0.2 -8.2
v 9.7 0.2 -8.1
v 9.7 0.2 -8.2
v 9.7 0.2 -9
v 9.7 0.2 -9.1
v 9.4 0.2 -8.1
v 9.4 0.2 -8.2
v 9.4 0.2 -9
v 9.4 0.2 -9.1
v 9.3 0.2 -8.1
v 9.3 0.2 -8.2
v 9.2 0.2 -9
v 9.2 0.2 -9.1
v 9.9 0.3 -8.1
v 9.9 0.3 -8.2
v 9.8 0.3 -8.1
v 9.8 0.3 -8.2
v 9.3 0.3 -8.1
v 9.3 0.3 -8.2
v 9.2 0.3 -8.1
v 9.2 0.3 -8.2
v 10 0.4 -9
v 10 0.4 -9.1
v 9.9 0.4 -9
v 9.9 0.4 -9.1
v 9.2 0.4 -9
v 9.2 0.4 -9.1
v 9.1 0.4 -9
v 9.1 0.4 -9.1
v 9.4 0.5 -8
v 9.4 0.5 -8.1
v 9.3 0.5 -8
v 9.3 0.5 -8.1
v 9.2 0.5 -8.6
v 9.2 0.5 -8.7
v 9.1 0.5 -8.6
v 9.1 0.5 -8.7
v 10.1 0.6 -9
v 10.1 0.6 -9.1
v 10 0.6 -9
v 10 0.6 -9.1
v 9.1 0.6 -9
v 9.1 0.6 -9.1
v 9 0.6 -9
v 9 0.6 -9.1
v 10 0.7 -8.1
v 10 0.7 -8.2
v 9.9 0.7 -8.1
v 9.9 0.7 -8.2
v 9.2 0.7 -8.1
v 9.2 0.7 -8.2
v 9.1 0.7 -8.1
v 9.1 0.7 -8.2
v 10.1 0.8 -8.6
v 10.1 0.8 -8.7
v 10 0.8 -8.6
v 10 0.8 -8.7
v 10 0.8 -9
v 10 0.8 -9.1
v 9.9 0.8 -8.1
v 9.9 0.8 -8.2
v 9.9 0.8 -9
v 9.9 0.8 -9.1
v 9.8 0.8 -8.1
v 9.8 0.8 -8.2
v 9.3 0.8 -8.1
v 9.3 0.8 -8.2
v 9.2 0.8 -8.1
v 9.2 0.8 -8.2
v 9.2 0.8 -9
v 9.2 0.8 -9.1
v 9.1 0.8 -8.6
v 9.1 0.8 -8.7
v 9.1 0.8 -9
v 9.1 0.8 -9.1
v 9 0.8 -8.6
v 9 0.8 -8.7
v 10 0.9 -8.6
v 10 0.9 -8.7
v 9.9 0.9 -8.6
v 9.9 0.9 -8.7
v 9.9 0.9 -9
v 9.9 0.9 -9.1
v 9.8 0.9 -8.1
v 9.8 0.9 -8.2
v 9.7 0.9 -8.1
v 9.7 0.9 -8.2
v 9.7 0.9 -9
v 9.7 0.9 -9.1
v 9.4 0.9 -8.1
v 9.4 0.9 -8.2
v 9.4 0.9 -9
v 9.4 0.9 -9.1
v 9.3 0.9 -8.1
v 9.3 0.9 -8.2
v 9.2 0.9 -8.6
v 9.2 0.9 -8.7
v 9.2 0.9 -9
v 9.2 0.9 -9.1
v 9.1 0.9 -8.6
v 9.1 0.9 -8.7
v 9.9 1 -8.6
v 9.9 1 -8.7
v 9.7 1 -8.1
v 9.7 1 -8.2
v 9.7 1 -9
v 9.7 1 -9.1
v 9.4 1 -8.1
v 9.4 1 -8.2
v 9.4 1 -9
v 9.4 1 -9.1
v 9.2 1 -8.6
v 9.2 1 -8.7

# faces
f 3/1/1 2/1/1 1/1/1
f 4/1/1 2/1/1 3/1/1
f 8/1/1 6/1/1 5/1/1
f 9/1/1 6/1/1 8/1/1
f 12/1/1 8/1/1 7/1/1
f 13/1/1 8/1/1 12/1/1
f 14/1/1 10/1/1 9/1/1
f 15/1/1 10/1/1 14/1/1
f 18/1/1 12/1/1 11/1/1
f 19/1/1 12/1/1 18/1/1
f 20/1/1 16/1/1 15/1/1
f 21/1/1 16/1/1 20/1/1
f 23/1/1 18/1/1 17/1/1
f 24/1/1 18/1/1 23/1/1
f 27/1/1 22/1/1 21/1/1
f 28/1/1 22/1/1 27/1/1
f 29/1/1 25/1/1 24/1/1
f 30/1/1 25/1/1 29/1/1
f 33/1/1 27/1/1 26/1/1
f 34/1/1 27/1/1 33/1/1
f 35/1/1 31/1/1 30/1/1
f 36/1/1 31/1/1 35/1/1
f 37/1/1 33/1/1 32/1/1
f 38/1/1 33/1/1 37/1/1
f 39/1/1 37/1/1 36/1/1
f 40/1/1 37/1/1 39/1/1
f 44/1/1 42/1/1 41/1/1
f 45/1/1 42/1/1 44/1/1
f 46/1/1 42/1/1 45/1/1
f 49/1/1 44/1/1 43/1/1
f 49/1/1 45/1/1 44/1/1
f 50/1/1 47/1/1 46/1/1
f 52/1/1 50/1/1 46/1/1
f 52/1/1 51/1/1 50/1/1
f 53/1/1 51/1/1 52/1/1
f 54/1/1 49/1/1 48/1/1
f 55/1/1 45/1/1 49/1/1
f 55/1/1 49/1/1 54/1/1
f 57/1/1 51/1/1 53/1/1
f 58/1/1 51/1/1 57/1/1
f 59/1/1 45/1/1 55/1/1
f 60/1/1 45/1/1 59/1/1
f 61/1/1 45/1/1 60/1/1
f 62/1/1 57/1/1 56/1/1
f 63/1/1 57/1/1 62/1/1
f 64/1/1 61/1/1 60/1/1
f 64/1/1 62/1/1 61/1/1
f 65/1/1 62/1/1 64/1/1
f 69/1/1 67/1/1 66/1/1
f 70/1/1 67/1/1 69/1/1
f 73/1/1 69/1/1 68/1/1
f 74/1/1 69/1/1 73/1/1
f 75/1/1 71/1/1 70/1/1
f 76/1/1 71/1/1 75/1/1
f 79/1/1 73/1/1 72/1/1
f 80/1/1 73/1/1 79/1/1
f 81/1/1 77/1/1 76/1/1
f 82/1/1 77/1/1 81/1/1
f 84/1/1 79/1/1 78/1/1
f 85/1/1 79/1/1 84/1/1
f 88/1/1 83/1/1 82/1/1
f 89/1/1 83/1/1 88/1/1
f 90/1/1 86/1/1 85/1/1
f 91/1/1 86/1/1 90/1/1
f 94/1/1 88/1/1 87/1/1
f 95/1/1 88/1/1 94/1/1
f 96/1/1 92/1/1 91/1/1
f 97/1/1 92/1/1 96/1/1
f 98/1/1 94/1/1 93/1/1
f 99/1/1 94/1/1 98/1/1
f 100/1/1 98/1/1 97/1/1
f 101/1/1 98/1/1 100/1/1
f 102/1/2 103/1/2 104/1/2
f 104/1/2 103/1/2 105/1/2
f 106/1/2 107/1/2 109/1/2
f 109/1/2 107/1/2 110/1/2
f 108/1/2 109/1/2 113/1/2
f 113/1/2 109/1/2 114/1/2
f 110/1/2 111/1/2 115/1/2
f 115/1/2 111/1/2 116/1/2
f 112/1/2 113/1/2 119/1/2
f 119/1/2 113/1/2 120/1/2
f 116/1/2 117/1/2 121/1/2
f 121/1/2 117/1/2 122/1/2
f 118/1/2 119/1/2 124/1/2
f 124/1/2 119/1/2 125/1/2
f 122/1/2 123/1/2 128/1/2
f 128/1/2 123/1/2 129/1/2
f 125/1/2 126/1/2 130/1/2
f 130/1/2 126/1/2 131/1/2
f 127/1/2 128/1/2 134/1/2
f 134/1/2 128/1/2 135/1/2
f 131/1/2 132/1/2 136/1/2
f 136/1/2 132/1/2 137/1/2
f 133/1/2 134/1/2 138/1/2
f 138/1/2 134/1/2 139/1/2
f 137/1/2 138/1/2 140/1/2
f 140/1/2 138/1/2 141/1/2
f 142/1/2 143/1/2 145/1/2
f 145/1/2 143/1/2 146/1/2
f 146/1/2 143/1/2 147/1/2
f 144/1/2 145/1/2 150/1/2
f 145/1/2 146/1/2 150/1/2
f 147/1/2 148/1/2 151/1/2
f 147/1/2 151/1/2 153/1/2
f 151/1/2 152/1/2 153/1/2
f 153/1/2 152/1/2 154/1/2
f 149/1/2 150/1/2 155/1/2
f 150/1/2 146/1/2 156/1/2
f 155/1/2 150/1/2 156/1/2
f 154/1/2 152/1/2 158/1/2
f 158/1/2 152/1/2 159/1/2
f 156/1/2 146/1/2 160/1/2
f 160/1/2 146/1/2 161/1/2
f 161/1/2 146/1/2 162/1/2
f 157/1/2 158/1/2 163/1/2
f 163/1/2 158/1/2 164/1/2
f 161/1/2 162/1/2 165/1/2
f 162/1/2 163/1/2 165/1/2
f 165/1/2 163/1/2 166/1/2
f 167/1/2 168/1/2 170/1/2
f 170/1/2 168/1/2 171/1/2
f 169/1/2 170/1/2 174/1/2
f 174/1/2 170/1/2 175/1/2
f 171/1/2 172/1/2 176/1/2
f 176/1/2 172/1/2 177/1/2
f 173/1/2 174/1/2 180/1/2
f 180/1/2 174/1/2 181/1/2
f 177/1/2 178/1/2 182/1/2
f 182/1/2 178/1/2 183/1/2
f 179/1/2 180/1/2 185/1/2
f 185/1/2 180/1/2 186/1/2
f 183/1/2 184/1/2 189/1/2
f 189/1/2 184/1/2 190/1/2
f 186/1/2 187/1/2 191/1/2
f 191/1/2 187/1/2 192/1/2
f 188/1/2 189/1/2 195/1/2
f 195/1/2 189/1/2 196/1/2
f 192/1/2 193/1/2 197/1/2
f 197/1/2 193/1/2 198/1/2
f 194/1/2 195/1/2 199/1/2
f 199/1/2 195/1/2 200/1/2
f 198/1/2 199/1/2 201/1/2
f 201/1/2 199/1/2 202/1/2
f 205/1/3 204/1/3 203/1/3
f 206/1/3 204/1/3 205/1/3
f 209/1/3 208/1/3 207/1/3
f 210/1/3 208/1/3 209/1/3
f 213/1/3 212/1/3 211/1/3
f 214/1/3 212/1/3 213/1/3
f 219/1/3 216/1/3 215/1/3
f 220/1/3 216/1/3 219/1/3
f 221/1/3 218/1/3 217/1/3
f 222/1/3 218/1/3 221/1/3
f 227/1/3 224/1/3 223/1/3
f 228/1/3 224/1/3 227/1/3
f 229/1/3 226/1/3 225/1/3
f 230/1/3 226/1/3 229/1/3
f 235/1/3 232/1/3 231/1/3
f 236/1/3 232/1/3 235/1/3
f 237/1/3 234/1/3 233/1/3
f 238/1/3 234/1/3 237/1/3
f 243/1/3 240/1/3 239/1/3
f 244/1/3 240/1/3 243/1/3
f 245/1/3 242/1/3 241/1/3
f 246/1/3 242/1/3 245/1/3
f 251/1/3 248/1/3 247/1/3
f 252/1/3 248/1/3 251/1/3
f 253/1/3 250/1/3 249/1/3
f 254/1/3 250/1/3 253/1/3
f 259/1/3 256/1/3 255/1/3
f 260/1/3 256/1/3 259/1/3
f 261/1/3 258/1/3 257/1/3
f 262/1/3 258/1/3 261/1/3
f 267/1/3 264/1/3 263/1/3
f 268/1/3 264/1/3 267/1/3
f 269/1/3 266/1/3 265/1/3
f 270/1/3 266/1/3 269/1/3
f 275/1/3 272/1/3 271/1/3
f 276/1/3 272/1/3 275/1/3
f 277/1/3 274/1/3 273/1/3
f 278/1/3 274/1/3 277/1/3
f 283/1/3 280/1/3 279/1/3
f 284/1/3 280/1/3 283/1/3
f 287/1/3 282/1/3 281/1/3
f 288/1/3 282/1/3 287/1/3
f 289/1/3 286/1/3 285/1/3
f 290/1/3 286/1/3 289/1/3
f 295/1/3 292/1/3 291/1/3
f 296/1/3 292/1/3 295/1/3
f 297/1/3 294/1/3 293/1/3
f 298/1/3 294/1/3 297/1/3
f 303/1/3 300/1/3 299/1/3
f 304/1/3 300/1/3 303/1/3
f 305/1/3 302/1/3 301/1/3
f 306/1/3 302/1/3 305/1/3
f 309/1/3 308/1/3 307/1/3
f 310/1/3 308/1/3 309/1/3
f 315/1/3 312/1/3 311/1/3
f 316/1/3 312/1/3 315/1/3
f 317/1/3 314/1/3 313/1/3
f 318/1/3 314/1/3 317/1/3
f 323/1/3 320/1/3 319/1/3
f 324/1/3 320/1/3 323/1/3
f 325/1/3 322/1/3 321/1/3
f 326/1/3 322/1/3 325/1/3
f 329/1/3 328/1/3 327/1/3
f 330/1/3 328/1/3 329/1/3
f 333/1/3 332/1/3 331/1/3
f 334/1/3 332/1/3 333/1/3
f 335/1/4 336/1/4 337/1/4
f 337/1/4 336/1/4 338/1/4
f 339/1/4 340/1/4 341/1/4
f 341/1/4 340/1/4 342/1/4
f 343/1/4 344/1/4 347/1/4
f 347/1/4 344/1/4 348/1/4
f 345/1/4 346/1/4 349/1/4
f 349/1/4 346/1/4 350/1/4
f 351/1/4 352/1/4 355/1/4
f 355/1/4 352/1/4 356/1/4
f 353/1/4 354/1/4 357/1/4
f 357/1/4 354/1/4 358/1/4
f 359/1/4 360/1/4 361/1/4
f 361/1/4 360/1/4 362/1/4
f 363/1/4 364/1/4 367/1/4
f 367/1/4 364/1/4 368/1/4
f 365/1/4 366/1/4 369/1/4
f 369/1/4 366/1/4 370/1/4
f 371/1/4 372/1/4 375/1/4
f 375/1/4 372/1/4 376/1/4
f 373/1/4 374/1/4 377/1/4
f 377/1/4 374/1/4 378/1/4
f 379/1/4 380/1/4 383/1/4
f 383/1/4 380/1/4 384/1/4
f 381/1/4 382/1/4 385/1/4
f 385/1/4 382/1/4 386/1/4
f 387/1/4 388/1/4 391/1/4
f 391/1/4 388/1/4 392/1/4
f 389/1/4 390/1/4 393/1/4
f 393/1/4 390/1/4 394/1/4
f 395/1/4 396/1/4 399/1/4
f 399/1/4 396/1/4 400/1/4
f 397/1/4 398/1/4 403/1/4
f 403/1/4 398/1/4 404/1/4
f 401/1/4 402/1/4 405/1/4
f 405/1/4 402/1/4 406/1/4
f 407/1/4 408/1/4 411/1/4
f 411/1/4 408/1/4 412/1/4
f 409/1/4 410/1/4 413/1/4
f 413/1/4 410/1/4 414/1/4
f 415/1/4 416/1/4 419/1/4
f 419/1/4 416/1/4 420/1/4
f 417/1/4 418/1/4 421/1/4
f 421/1/4 418/1/4 422/1/4
f 423/1/4 424/1/4 427/1/4
f 427/1/4 424/1/4 428/1/4
f 425/1/4 426/1/4 429/1/4
f 429/1/4 426/1/4 430/1/4
f 431/1/4 432/1/4 433/1/4
f 433/1/4 432/1/4 434/1/4
f 435/1/4 436/1/4 439/1/4
f 439/1/4 436/1/4 440/1/4
f 437/1/4 438/1/4 441/1/4
f 441/1/4 438/1/4 442/1/4
f 443/1/4 444/1/4 447/1/4
f 447/1/4 444/1/4 448/1/4
f 445/1/4 446/1/4 449/1/4
f 449/1/4 446/1/4 450/1/4
f 451/1/4 452/1/4 453/1/4
f 453/1/4 452/1/4 454/1/4
f 455/1/4 456/1/4 457/1/4
f 457/1/4 456/1/4 458/1/4
f 465/1/5 462/1/5 461/1/5
f 466/1/5 462/1/5 465/1/5
f 467/1/5 464/1/5 463/1/5
f 468/1/5 464/1/5 467/1/5
f 469/1/5 460/1/5 459/1/5
f 470/1/5 460/1/5 469/1/5
f 473/1/5 472/1/5 471/1/5
f 474/1/5 472/1/5 473/1/5
f 479/1/5 478/1/5 477/1/5
f 480/1/5 478/1/5 479/1/5
f 481/1/5 476/1/5 475/1/5
f 482/1/5 476/1/5 481/1/5
f 487/1/5 484/1/5 483/1/5
f 488/1/5 484/1/5 487/1/5
f 491/1/5 486/1/5 485/1/5
f 492/1/5 486/1/5 491/1/5
f 493/1/5 490/1/5 489/1/5
f 494/1/5 490/1/5 493/1/5
f 497/1/5 496/1/5 495/1/5
f 498/1/5 496/1/5 497/1/5
f 503/1/5 500/1/5 499/1/5
f 504/1/5 500/1/5 503/1/5
f 505/1/5 502/1/5 501/1/5
f 506/1/5 502/1/5 505/1/5
f 509/1/5 508/1/5 507/1/5
f 510/1/5 508/1/5 509/1/5
f 515/1/5 512/1/5 511/1/5
f 516/1/5 512/1/5 515/1/5
f 517/1/5 514/1/5 513/1/5
f 518/1/5 514/1/5 517/1/5
f 521/1/5 520/1/5 519/1/5
f 522/1/5 520/1/5 521/1/5
f 525/1/5 524/1/5 523/1/5
f 526/1/5 524/1/5 525/1/5
f 529/1/5 528/1/5 527/1/5
f 530/1/5 528/1/5 529/1/5
f 533/1/5 532/1/5 531/1/5
f 534/1/5 532/1/5 533/1/5
f 537/1/5 536/1/5 535/1/5
f 538/1/5 536/1/5 537/1/5
f 541/1/5 540/1/5 539/1/5
f 542/1/5 540/1/5 541/1/5
f 545/1/5 544/1/5 543/1/5
f 546/1/5 544/1/5 545/1/5
f 549/1/5 548/1/5 547/1/5
f 550/1/5 548/1/5 549/1/5
f 553/1/5 552/1/5 551/1/5
f 554/1/5 552/1/5 553/1/5
f 559/1/5 558/1/5 557/1/5
f 560/1/5 558/1/5 559/1/5
f 561/1/5 556/1/5 555/1/5
f 562/1/5 556/1/5 561/1/5
f 567/1/5 564/1/5 563/1/5
f 568/1/5 564/1/5 567/1/5
f 571/1/5 566/1/5 565/1/5
f 572/1/5 566/1/5 571/1/5
f 573/1/5 570/1/5 569/1/5
f 574/1/5 570/1/5 573/1/5
f 581/1/5 578/1/5 577/1/5
f 582/1/5 578/1/5 581/1/5
f 583/1/5 580/1/5 579/1/5
f 584/1/5 580/1/5 583/1/5
f 585/1/5 576/1/5 575/1/5
f 586/1/5 576/1/5 585/1/5
f 589/1/6 590/1/6 593/1/6
f 593/1/6 590/1/6 594/1/6
f 591/1/6 592/1/6 595/1/6
f 595/1/6 592/1/6 596/1/6
f 587/1/6 588/1/6 597/1/6
f 597/1/6 588/1/6 598/1/6
f 601/1/6 602/1/6 603/1/6
f 603/1/6 602/1/6 604/1/6
f 599/1/6 600/1/6 605/1/6
f 605/1/6 600/1/6 606/1/6
f 607/1/6 608/1/6 611/1/6
f 611/1/6 608/1/6 612/1/6
f 609/1/6 610/1/6 613/1/6
f 613/1/6 610/1/6 614/1/6
f 615/1/6 616/1/6 617/1/6
f 617/1/6 616/1/6 618/1/6
f 619/1/6 620/1/6 621/1/6
f 621/1/6 620/1/6 622/1/6
f 623/1/6 624/1/6 625/1/6
f 625/1/6 624/1/6 626/1/6
f 627/1/6 628/1/6 629/1/6
f 629/1/6 628/1/6 630/1/6
f 631/1/6 632/1/6 633/1/6
f 633/1/6 632/1/6 634/1/6
f 635/1/6 636/1/6 637/1/6
f 637/1/6 636/1/6 638/1/6
f 639/1/6 640/1/6 641/1/6
f 641/1/6 640/1/6 642/1/6
f 643/1/6 644/1/6 645/1/6
f 645/1/6 644/1/6 646/1/6
f 647/1/6 648/1/6 649/1/6
f 649/1/6 648/1/6 650/1/6
f 651/1/6 652/1/6 653/1/6
f 653/1/6 652/1/6 654/1/6
f 655/1/6 656/1/6 657/1/6
f 657/1/6 656/1/6 658/1/6
f 659/1/6 660/1/6 663/1/6
f 663/1/6 660/1/6 664/1/6
f 661/1/6 662/1/6 665/1/6
f 665/1/6 662/1/6 666/1/6
f 667/1/6 668/1/6 669/1/6
f 669/1/6 668/1/6 670/1/6
f 671/1/6 672/1/6 675/1/6
f 675/1/6 672/1/6 676/1/6
f 673/1/6 674/1/6 677/1/6
f 677/1/6 674/1/6 678/1/6
f 679/1/6 680/1/6 681/1/6
f 681/1/6 680/1/6 682/1/6
f 685/1/6 686/1/6 687/1/6
f 687/1/6 686/1/6 688/1/6
f 683/1/6 684/1/6 689/1/6
f 689/1/6 684/1/6 690/1/6
f 691/1/6 692/1/6 695/1/6
f 695/1/6 692/1/6 696/1/6
f 693/1/6 694/1/6 699/1/6
f 699/1/6 694/1/6 700/1/6
f 697/1/6 698/1/6 701/1/6
f 701/1/6 698/1/6 702/1/6
f 705/1/6 706/1/6 709/1/6
f 709/1/6 706/1/6 710/1/6
f 707/1/6 708/1/6 711/1/6
f 711/1/6 708/1/6 712/1/6
f 703/1/6 704/1/6 713/1/6
f 713/1/6 704/1/6 714/1/6
