# MagicaVoxel @ Ephtracy

# group
o shelf_meat

# material
mtllib tavern-33-shelf_meat.mtl
usemtl palette

# normals
vn -1 0 0
vn 1 0 0
vn 0 0 1
vn 0 0 -1
vn 0 -1 0
vn 0 1 0

# texcoords
vt 0.0253906 0.5
vt 0.0722656 0.5
vt 0.0761719 0.5
vt 0.103516 0.5
vt 0.712891 0.5
vt 0.736328 0.5
vt 0.919922 0.5

# verts
v 10.2 0.6 1.4
v 10.2 0.6 1.2
v 10.2 0.7 1.5
v 10.2 0.7 1.4
v 10.2 0.7 1.2
v 10.2 0.8 1.6
v 10.2 0.8 1.5
v 10.2 0.8 1.4
v 10.2 0.9 1.6
v 10.2 0.9 1.5
v 10.2 0.9 1.3
v 10.2 0.9 1.2
v 10.2 1 1.6
v 10.2 1 1.3
v 10.2 1 1.2
v 10.4 0.1 1.4
v 10.4 0.1 1.3
v 10.4 0.2 1.5
v 10.4 0.2 1.4
v 10.4 0.2 1.3
v 10.4 0.2 1.2
v 10.4 0.3 1.5
v 10.4 0.3 1.4
v 10.4 0.3 1.3
v 10.4 0.3 1.2
v 10.4 0.4 1.5
v 10.4 0.4 1.4
v 10.4 0.4 1.3
v 10.4 0.4 1.2
v 10.4 0.5 1.4
v 10.4 0.5 1.3
v 10.5 0 1.4
v 10.5 0 1.3
v 10.5 0 1.2
v 10.5 0.1 1.5
v 10.5 0.1 1.4
v 10.5 0.1 1.3
v 10.5 0.2 1.5
v 10.5 0.2 1.4
v 10.5 0.2 1.3
v 10.5 0.2 1.2
v 10.5 0.4 1.5
v 10.5 0.4 1.4
v 10.5 0.4 1.3
v 10.5 0.4 1.2
v 10.5 0.5 1.5
v 10.5 0.5 1.4
v 10.5 0.5 1.3
v 10.5 0.5 1.2
v 10.5 0.6 1.4
v 10.5 0.6 1.3
v 10.5 0.7 1.4
v 10.5 0.7 1.3
v 10.9 0.6 1.4
v 10.9 0.6 1.3
v 10.9 0.7 1.4
v 10.9 0.7 1.3
v 11.1 0.6 1.4
v 11.1 0.6 1.3
v 11.1 0.7 1.5
v 11.1 0.7 1.4
v 11.1 0.7 1.3
v 11.1 0.8 1.6
v 11.1 0.8 1.5
v 11.1 0.8 1.4
v 11.1 0.9 1.6
v 11.1 0.9 1.5
v 10.3 0.6 1.4
v 10.3 0.6 1.3
v 10.3 0.7 1.5
v 10.3 0.7 1.4
v 10.3 0.7 1.3
v 10.3 0.8 1.6
v 10.3 0.8 1.5
v 10.3 0.8 1.4
v 10.3 0.9 1.6
v 10.3 0.9 1.5
v 10.6 0.4 1.5
v 10.6 0.4 1.4
v 10.6 0.4 1.3
v 10.6 0.4 1.2
v 10.6 0.5 1.5
v 10.6 0.5 1.4
v 10.6 0.5 1.3
v 10.6 0.5 1.2
v 10.6 0.6 1.4
v 10.6 0.6 1.3
v 10.6 0.7 1.4
v 10.6 0.7 1.3
v 10.7 0 1.4
v 10.7 0 1.2
v 10.7 0.1 1.5
v 10.7 0.1 1.4
v 10.7 0.1 1.2
v 10.7 0.2 1.5
v 10.7 0.2 1.4
v 10.7 0.2 1.2
v 10.7 0.3 1.4
v 10.7 0.3 1.2
v 10.7 0.4 1.5
v 10.7 0.4 1.4
v 10.7 0.4 1.3
v 10.7 0.4 1.2
v 10.7 0.5 1.4
v 10.7 0.5 1.3
v 11 0.6 1.4
v 11 0.6 1.3
v 11 0.7 1.4
v 11 0.7 1.3
v 11.2 0.6 1.4
v 11.2 0.6 1.2
v 11.2 0.7 1.5
v 11.2 0.7 1.4
v 11.2 0.7 1.2
v 11.2 0.8 1.6
v 11.2 0.8 1.5
v 11.2 0.8 1.4
v 11.2 0.9 1.6
v 11.2 0.9 1.5
v 11.2 0.9 1.4
v 11.2 0.9 1.2
v 11.2 1 1.6
v 11.2 1 1.5
v 11.2 1 1.4
v 11.2 1 1.2
v 10.2 0.8 1.6
v 10.2 0.9 1.6
v 10.2 1 1.6
v 10.3 0.8 1.6
v 10.3 0.9 1.6
v 10.3 1 1.6
v 10.4 0.9 1.6
v 10.4 1 1.6
v 10.6 0.9 1.6
v 10.6 1 1.6
v 10.7 0.9 1.6
v 10.7 1 1.6
v 10.9 0.9 1.6
v 10.9 1 1.6
v 11 0.9 1.6
v 11 1 1.6
v 11.1 0.8 1.6
v 11.1 0.9 1.6
v 11.1 1 1.6
v 11.2 0.8 1.6
v 11.2 0.9 1.6
v 11.2 1 1.6
v 10.2 0.7 1.5
v 10.2 0.8 1.5
v 10.3 0.7 1.5
v 10.3 0.8 1.5
v 10.4 0.2 1.5
v 10.4 0.3 1.5
v 10.4 0.4 1.5
v 10.5 0.1 1.5
v 10.5 0.2 1.5
v 10.5 0.3 1.5
v 10.5 0.4 1.5
v 10.5 0.5 1.5
v 10.6 0.1 1.5
v 10.6 0.2 1.5
v 10.6 0.3 1.5
v 10.6 0.4 1.5
v 10.6 0.5 1.5
v 10.7 0.1 1.5
v 10.7 0.2 1.5
v 10.7 0.4 1.5
v 11.1 0.7 1.5
v 11.1 0.8 1.5
v 11.2 0.7 1.5
v 11.2 0.8 1.5
v 10.2 0.6 1.4
v 10.2 0.7 1.4
v 10.3 0.6 1.4
v 10.3 0.7 1.4
v 10.4 0.1 1.4
v 10.4 0.2 1.4
v 10.4 0.4 1.4
v 10.4 0.5 1.4
v 10.5 0 1.4
v 10.5 0.1 1.4
v 10.5 0.2 1.4
v 10.5 0.4 1.4
v 10.5 0.5 1.4
v 10.5 0.6 1.4
v 10.5 0.7 1.4
v 10.6 0 1.4
v 10.6 0.1 1.4
v 10.6 0.4 1.4
v 10.6 0.5 1.4
v 10.6 0.6 1.4
v 10.6 0.7 1.4
v 10.7 0 1.4
v 10.7 0.1 1.4
v 10.7 0.4 1.4
v 10.7 0.5 1.4
v 10.9 0.6 1.4
v 10.9 0.7 1.4
v 11 0.6 1.4
v 11 0.7 1.4
v 11.1 0.6 1.4
v 11.1 0.7 1.4
v 11.2 0.6 1.4
v 11.2 0.7 1.4
v 10.3 0.6 1.3
v 10.3 0.7 1.3
v 10.5 0.6 1.3
v 10.5 0.7 1.3
v 10.6 0.6 1.3
v 10.6 0.7 1.3
v 10.9 0.6 1.3
v 10.9 0.7 1.3
v 11 0.6 1.3
v 11 0.7 1.3
v 11.1 0.6 1.3
v 11.1 0.7 1.3
v 10.2 0.8 1.5
v 10.2 0.9 1.5
v 10.3 0.8 1.5
v 10.3 0.9 1.5
v 11.1 0.8 1.5
v 11.1 0.9 1.5
v 11.2 0.8 1.5
v 11.2 0.9 1.5
v 10.2 0.7 1.4
v 10.2 0.8 1.4
v 10.3 0.7 1.4
v 10.3 0.8 1.4
v 11.1 0.7 1.4
v 11.1 0.8 1.4
v 11.2 0.7 1.4
v 11.2 0.8 1.4
v 10.4 0.1 1.3
v 10.4 0.2 1.3
v 10.4 0.4 1.3
v 10.4 0.5 1.3
v 10.5 0.1 1.3
v 10.5 0.2 1.3
v 10.5 0.4 1.3
v 10.5 0.5 1.3
v 10.5 0.6 1.3
v 10.6 0.4 1.3
v 10.6 0.5 1.3
v 10.6 0.6 1.3
v 10.7 0.4 1.3
v 10.7 0.5 1.3
v 10.2 0.6 1.2
v 10.2 0.7 1.2
v 10.2 0.9 1.2
v 10.2 1 1.2
v 10.3 0.9 1.2
v 10.3 1 1.2
v 10.4 0.2 1.2
v 10.4 0.3 1.2
v 10.4 0.4 1.2
v 10.4 0.9 1.2
v 10.4 1 1.2
v 10.5 0 1.2
v 10.5 0.2 1.2
v 10.5 0.4 1.2
v 10.5 0.5 1.2
v 10.6 0.1 1.2
v 10.6 0.2 1.2
v 10.6 0.4 1.2
v 10.6 0.5 1.2
v 10.7 0 1.2
v 10.7 0.1 1.2
v 10.7 0.2 1.2
v 10.7 0.3 1.2
v 10.7 0.4 1.2
v 10.7 0.9 1.2
v 10.7 1 1.2
v 10.9 0.9 1.2
v 10.9 1 1.2
v 11.2 0.6 1.2
v 11.2 0.7 1.2
v 11.2 0.9 1.2
v 11.2 1 1.2
v 10.5 0 1.4
v 10.6 0 1.4
v 10.7 0 1.4
v 10.5 0 1.3
v 10.6 0 1.3
v 10.5 0 1.2
v 10.7 0 1.2
v 10.5 0.1 1.5
v 10.6 0.1 1.5
v 10.7 0.1 1.5
v 10.4 0.1 1.4
v 10.5 0.1 1.4
v 10.6 0.1 1.4
v 10.7 0.1 1.4
v 10.4 0.1 1.3
v 10.5 0.1 1.3
v 10.4 0.2 1.5
v 10.5 0.2 1.5
v 10.4 0.2 1.4
v 10.5 0.2 1.4
v 10.4 0.2 1.3
v 10.5 0.2 1.3
v 10.4 0.2 1.2
v 10.5 0.2 1.2
v 10.2 0.6 1.4
v 10.3 0.6 1.4
v 10.9 0.6 1.4
v 11 0.6 1.4
v 11.1 0.6 1.4
v 11.2 0.6 1.4
v 10.3 0.6 1.3
v 10.5 0.6 1.3
v 10.6 0.6 1.3
v 10.9 0.6 1.3
v 11 0.6 1.3
v 11.1 0.6 1.3
v 10.2 0.6 1.2
v 11.2 0.6 1.2
v 10.2 0.7 1.5
v 10.3 0.7 1.5
v 11.1 0.7 1.5
v 11.2 0.7 1.5
v 10.2 0.7 1.4
v 10.3 0.7 1.4
v 11.1 0.7 1.4
v 11.2 0.7 1.4
v 10.2 0.8 1.6
v 10.3 0.8 1.6
v 11.1 0.8 1.6
v 11.2 0.8 1.6
v 10.2 0.8 1.5
v 10.3 0.8 1.5
v 11.1 0.8 1.5
v 11.2 0.8 1.5
v 10.3 0.9 1.6
v 10.4 0.9 1.6
v 10.6 0.9 1.6
v 10.7 0.9 1.6
v 10.9 0.9 1.6
v 11 0.9 1.6
v 11.1 0.9 1.6
v 10.2 0.9 1.5
v 10.3 0.9 1.5
v 10.4 0.9 1.5
v 10.5 0.9 1.5
v 10.6 0.9 1.5
v 10.7 0.9 1.5
v 10.8 0.9 1.5
v 11.1 0.9 1.5
v 11.2 0.9 1.5
v 10.5 0.9 1.4
v 10.6 0.9 1.4
v 11 0.9 1.4
v 11.2 0.9 1.4
v 10.2 0.9 1.3
v 10.3 0.9 1.3
v 10.4 0.9 1.3
v 10.6 0.9 1.3
v 10.7 0.9 1.3
v 10.8 0.9 1.3
v 10.2 0.9 1.2
v 10.3 0.9 1.2
v 10.4 0.9 1.2
v 10.7 0.9 1.2
v 10.9 0.9 1.2
v 11.2 0.9 1.2
v 10.4 0.4 1.5
v 10.5 0.4 1.5
v 10.6 0.4 1.5
v 10.7 0.4 1.5
v 10.4 0.4 1.4
v 10.5 0.4 1.4
v 10.6 0.4 1.4
v 10.7 0.4 1.4
v 10.4 0.4 1.3
v 10.5 0.4 1.3
v 10.6 0.4 1.3
v 10.7 0.4 1.3
v 10.4 0.4 1.2
v 10.5 0.4 1.2
v 10.6 0.4 1.2
v 10.7 0.4 1.2
v 10.5 0.5 1.5
v 10.6 0.5 1.5
v 10.4 0.5 1.4
v 10.5 0.5 1.4
v 10.6 0.5 1.4
v 10.7 0.5 1.4
v 10.4 0.5 1.3
v 10.5 0.5 1.3
v 10.6 0.5 1.3
v 10.7 0.5 1.3
v 10.5 0.5 1.2
v 10.6 0.5 1.2
v 10.2 0.7 1.4
v 10.3 0.7 1.4
v 10.5 0.7 1.4
v 10.6 0.7 1.4
v 10.9 0.7 1.4
v 11 0.7 1.4
v 11.1 0.7 1.4
v 11.2 0.7 1.4
v 10.3 0.7 1.3
v 10.5 0.7 1.3
v 10.6 0.7 1.3
v 10.9 0.7 1.3
v 11 0.7 1.3
v 11.1 0.7 1.3
v 10.2 0.7 1.2
v 11.2 0.7 1.2
v 10.2 0.8 1.5
v 10.3 0.8 1.5
v 11.1 0.8 1.5
v 11.2 0.8 1.5
v 10.2 0.8 1.4
v 10.3 0.8 1.4
v 11.1 0.8 1.4
v 11.2 0.8 1.4
v 10.2 1 1.6
v 10.3 1 1.6
v 10.4 1 1.6
v 10.6 1 1.6
v 10.7 1 1.6
v 10.9 1 1.6
v 11 1 1.6
v 11.1 1 1.6
v 11.2 1 1.6
v 10.3 1 1.5
v 10.4 1 1.5
v 10.5 1 1.5
v 10.6 1 1.5
v 10.7 1 1.5
v 10.8 1 1.5
v 11.1 1 1.5
v 11.2 1 1.5
v 10.5 1 1.4
v 10.6 1 1.4
v 11 1 1.4
v 11.2 1 1.4
v 10.2 1 1.3
v 10.3 1 1.3
v 10.4 1 1.3
v 10.6 1 1.3
v 10.7 1 1.3
v 10.8 1 1.3
v 10.2 1 1.2
v 10.3 1 1.2
v 10.4 1 1.2
v 10.7 1 1.2
v 10.9 1 1.2
v 11.2 1 1.2

# faces
f 4/1/1 2/1/1 1/1/1
f 5/1/1 2/1/1 4/1/1
f 7/1/1 4/1/1 3/1/1
f 8/1/1 4/1/1 7/1/1
f 9/1/1 7/1/1 6/1/1
f 10/1/1 7/1/1 9/1/1
f 13/5/1 10/5/1 9/5/1
f 13/5/1 11/5/1 10/5/1
f 14/6/1 12/6/1 11/6/1
f 14/5/1 11/5/1 13/5/1
f 15/6/1 12/6/1 14/6/1
f 19/4/1 17/4/1 16/4/1
f 20/4/1 17/4/1 19/4/1
f 22/4/1 19/4/1 18/4/1
f 23/2/1 21/2/1 20/2/1
f 23/4/1 19/4/1 22/4/1
f 23/2/1 20/2/1 19/2/1
f 24/2/1 21/2/1 23/2/1
f 25/2/1 21/2/1 24/2/1
f 26/3/1 23/3/1 22/3/1
f 27/2/1 24/2/1 23/2/1
f 27/3/1 23/3/1 26/3/1
f 28/4/1 25/4/1 24/4/1
f 28/2/1 24/2/1 27/2/1
f 29/4/1 25/4/1 28/4/1
f 30/3/1 28/3/1 27/3/1
f 31/3/1 28/3/1 30/3/1
f 36/7/1 33/7/1 32/7/1
f 37/3/1 34/3/1 33/3/1
f 37/7/1 33/7/1 36/7/1
f 38/2/1 36/2/1 35/2/1
f 39/2/1 36/2/1 38/2/1
f 40/3/1 34/3/1 37/3/1
f 41/3/1 34/3/1 40/3/1
f 46/3/1 43/3/1 42/3/1
f 47/3/1 43/3/1 46/3/1
f 48/3/1 45/3/1 44/3/1
f 49/3/1 45/3/1 48/3/1
f 50/7/1 48/7/1 47/7/1
f 51/7/1 48/7/1 50/7/1
f 52/1/1 51/1/1 50/1/1
f 53/1/1 51/1/1 52/1/1
f 56/1/1 55/1/1 54/1/1
f 57/1/1 55/1/1 56/1/1
f 61/1/1 59/1/1 58/1/1
f 62/1/1 59/1/1 61/1/1
f 64/1/1 61/1/1 60/1/1
f 65/1/1 61/1/1 64/1/1
f 66/1/1 64/1/1 63/1/1
f 67/1/1 64/1/1 66/1/1
f 68/1/2 69/1/2 71/1/2
f 71/1/2 69/1/2 72/1/2
f 70/1/2 71/1/2 74/1/2
f 74/1/2 71/1/2 75/1/2
f 73/1/2 74/1/2 76/1/2
f 76/1/2 74/1/2 77/1/2
f 78/3/2 79/3/2 82/3/2
f 82/3/2 79/3/2 83/3/2
f 80/3/2 81/3/2 84/3/2
f 84/3/2 81/3/2 85/3/2
f 83/7/2 84/7/2 86/7/2
f 86/7/2 84/7/2 87/7/2
f 86/1/2 87/1/2 88/1/2
f 88/1/2 87/1/2 89/1/2
f 90/3/2 91/3/2 93/3/2
f 93/3/2 91/3/2 94/3/2
f 92/3/2 93/3/2 95/3/2
f 93/4/2 94/4/2 96/4/2
f 95/3/2 93/3/2 96/3/2
f 96/4/2 94/4/2 97/4/2
f 95/2/2 96/2/2 98/2/2
f 96/2/2 97/2/2 98/2/2
f 98/2/2 97/2/2 99/2/2
f 95/2/2 98/2/2 100/2/2
f 98/4/2 99/4/2 101/4/2
f 100/2/2 98/2/2 101/2/2
f 101/4/2 99/4/2 102/4/2
f 102/4/2 99/4/2 103/4/2
f 101/3/2 102/3/2 104/3/2
f 104/3/2 102/3/2 105/3/2
f 106/1/2 107/1/2 108/1/2
f 108/1/2 107/1/2 109/1/2
f 110/1/2 111/1/2 113/1/2
f 113/1/2 111/1/2 114/1/2
f 112/1/2 113/1/2 116/1/2
f 116/1/2 113/1/2 117/1/2
f 115/1/2 116/1/2 118/1/2
f 118/1/2 116/1/2 119/1/2
f 118/6/2 119/6/2 122/6/2
f 119/5/2 120/5/2 123/5/2
f 122/6/2 119/6/2 123/6/2
f 120/6/2 121/6/2 124/6/2
f 123/5/2 120/5/2 124/5/2
f 124/6/2 121/6/2 125/6/2
f 129/1/3 127/1/3 126/1/3
f 130/5/3 128/5/3 127/5/3
f 130/1/3 127/1/3 129/1/3
f 131/5/3 128/5/3 130/5/3
f 132/6/3 131/6/3 130/6/3
f 133/6/3 131/6/3 132/6/3
f 134/5/3 133/5/3 132/5/3
f 135/5/3 133/5/3 134/5/3
f 136/6/3 135/6/3 134/6/3
f 137/6/3 135/6/3 136/6/3
f 138/5/3 137/5/3 136/5/3
f 139/5/3 137/5/3 138/5/3
f 140/6/3 139/6/3 138/6/3
f 141/6/3 139/6/3 140/6/3
f 143/5/3 141/5/3 140/5/3
f 144/5/3 141/5/3 143/5/3
f 145/1/3 143/1/3 142/1/3
f 146/6/3 144/6/3 143/6/3
f 146/1/3 143/1/3 145/1/3
f 147/6/3 144/6/3 146/6/3
f 150/1/3 149/1/3 148/1/3
f 151/1/3 149/1/3 150/1/3
f 156/4/3 153/4/3 152/4/3
f 157/3/3 154/3/3 153/3/3
f 157/4/3 153/4/3 156/4/3
f 158/3/3 154/3/3 157/3/3
f 160/2/3 156/2/3 155/2/3
f 160/2/3 157/2/3 156/2/3
f 161/2/3 157/2/3 160/2/3
f 162/4/3 158/4/3 157/4/3
f 162/2/3 157/2/3 161/2/3
f 163/3/3 159/3/3 158/3/3
f 163/4/3 158/4/3 162/4/3
f 164/3/3 159/3/3 163/3/3
f 165/3/3 161/3/3 160/3/3
f 166/2/3 162/2/3 161/2/3
f 166/3/3 161/3/3 165/3/3
f 166/2/3 163/2/3 162/2/3
f 167/2/3 163/2/3 166/2/3
f 170/1/3 169/1/3 168/1/3
f 171/1/3 169/1/3 170/1/3
f 174/1/3 173/1/3 172/1/3
f 175/1/3 173/1/3 174/1/3
f 181/4/3 177/4/3 176/4/3
f 182/4/3 177/4/3 181/4/3
f 183/3/3 179/3/3 178/3/3
f 184/3/3 179/3/3 183/3/3
f 187/7/3 181/7/3 180/7/3
f 188/7/3 181/7/3 187/7/3
f 190/7/3 185/7/3 184/7/3
f 191/1/3 186/1/3 185/1/3
f 191/7/3 185/7/3 190/7/3
f 192/1/3 186/1/3 191/1/3
f 193/3/3 188/3/3 187/3/3
f 194/3/3 188/3/3 193/3/3
f 195/3/3 190/3/3 189/3/3
f 196/3/3 190/3/3 195/3/3
f 199/1/3 198/1/3 197/1/3
f 200/1/3 198/1/3 199/1/3
f 203/1/3 202/1/3 201/1/3
f 204/1/3 202/1/3 203/1/3
f 207/1/3 206/1/3 205/1/3
f 208/1/3 206/1/3 207/1/3
f 211/1/3 210/1/3 209/1/3
f 212/1/3 210/1/3 211/1/3
f 215/1/3 214/1/3 213/1/3
f 216/1/3 214/1/3 215/1/3
f 217/1/4 218/1/4 219/1/4
f 219/1/4 218/1/4 220/1/4
f 221/1/4 222/1/4 223/1/4
f 223/1/4 222/1/4 224/1/4
f 225/1/4 226/1/4 227/1/4
f 227/1/4 226/1/4 228/1/4
f 229/1/4 230/1/4 231/1/4
f 231/1/4 230/1/4 232/1/4
f 233/4/4 234/4/4 237/4/4
f 237/4/4 234/4/4 238/4/4
f 235/3/4 236/3/4 239/3/4
f 239/3/4 236/3/4 240/3/4
f 240/7/4 241/7/4 243/7/4
f 243/7/4 241/7/4 244/7/4
f 242/3/4 243/3/4 245/3/4
f 245/3/4 243/3/4 246/3/4
f 249/6/4 250/6/4 251/6/4
f 251/6/4 250/6/4 252/6/4
f 251/5/4 252/5/4 256/5/4
f 256/5/4 252/5/4 257/5/4
f 253/2/4 254/2/4 259/2/4
f 254/4/4 255/4/4 260/4/4
f 258/3/4 259/3/4 262/3/4
f 259/2/4 254/2/4 263/2/4
f 262/3/4 259/3/4 263/3/4
f 260/3/4 261/3/4 264/3/4
f 254/4/4 260/4/4 264/4/4
f 264/3/4 261/3/4 265/3/4
f 258/3/4 262/3/4 266/3/4
f 262/4/4 263/4/4 267/4/4
f 266/3/4 262/3/4 267/3/4
f 263/2/4 254/2/4 268/2/4
f 267/4/4 263/4/4 268/4/4
f 254/4/4 264/4/4 269/4/4
f 268/2/4 254/2/4 269/2/4
f 269/4/4 264/4/4 270/4/4
f 256/6/4 257/6/4 271/6/4
f 271/6/4 257/6/4 272/6/4
f 271/5/4 272/5/4 273/5/4
f 273/5/4 272/5/4 274/5/4
f 247/1/4 248/1/4 275/1/4
f 275/1/4 248/1/4 276/1/4
f 273/6/4 274/6/4 277/6/4
f 277/6/4 274/6/4 278/6/4
f 282/7/5 280/7/5 279/7/5
f 283/3/5 281/3/5 280/3/5
f 283/7/5 280/7/5 282/7/5
f 284/3/5 283/3/5 282/3/5
f 285/3/5 281/3/5 283/3/5
f 285/3/5 283/3/5 284/3/5
f 290/2/5 287/2/5 286/2/5
f 291/3/5 288/3/5 287/3/5
f 291/2/5 287/2/5 290/2/5
f 292/3/5 288/3/5 291/3/5
f 293/4/5 290/4/5 289/4/5
f 294/4/5 290/4/5 293/4/5
f 297/4/5 296/4/5 295/4/5
f 298/4/5 296/4/5 297/4/5
f 301/2/5 300/2/5 299/2/5
f 302/2/5 300/2/5 301/2/5
f 309/1/5 304/1/5 303/1/5
f 312/1/5 306/1/5 305/1/5
f 313/1/5 306/1/5 312/1/5
f 314/1/5 308/1/5 307/1/5
f 315/1/5 313/1/5 312/1/5
f 315/1/5 314/1/5 313/1/5
f 315/1/5 311/1/5 310/1/5
f 315/1/5 309/1/5 303/1/5
f 315/1/5 312/1/5 311/1/5
f 315/1/5 310/1/5 309/1/5
f 316/1/5 308/1/5 314/1/5
f 316/1/5 314/1/5 315/1/5
f 321/1/5 318/1/5 317/1/5
f 322/1/5 318/1/5 321/1/5
f 323/1/5 320/1/5 319/1/5
f 324/1/5 320/1/5 323/1/5
f 329/1/5 326/1/5 325/1/5
f 330/1/5 326/1/5 329/1/5
f 331/1/5 328/1/5 327/1/5
f 332/1/5 328/1/5 331/1/5
f 341/6/5 334/6/5 333/6/5
f 342/5/5 335/5/5 334/5/5
f 342/6/5 334/6/5 341/6/5
f 343/5/5 335/5/5 342/5/5
f 344/6/5 336/6/5 335/6/5
f 344/5/5 335/5/5 343/5/5
f 345/5/5 337/5/5 336/5/5
f 345/6/5 336/6/5 344/6/5
f 346/5/5 337/5/5 345/5/5
f 347/5/5 339/5/5 338/5/5
f 349/5/5 341/5/5 340/5/5
f 349/5/5 343/5/5 342/5/5
f 349/6/5 344/6/5 343/6/5
f 349/6/5 346/6/5 345/6/5
f 349/6/5 345/6/5 344/6/5
f 349/5/5 342/5/5 341/5/5
f 350/6/5 346/6/5 349/6/5
f 351/5/5 348/5/5 347/5/5
f 351/5/5 347/5/5 338/5/5
f 351/6/5 338/6/5 337/6/5
f 352/5/5 348/5/5 351/5/5
f 353/5/5 350/5/5 349/5/5
f 353/5/5 349/5/5 340/5/5
f 354/5/5 350/5/5 353/5/5
f 355/5/5 350/5/5 354/5/5
f 356/6/5 346/6/5 350/6/5
f 356/5/5 350/5/5 355/5/5
f 357/6/5 346/6/5 356/6/5
f 358/5/5 337/5/5 346/5/5
f 358/6/5 346/6/5 357/6/5
f 359/6/5 354/6/5 353/6/5
f 360/5/5 355/5/5 354/5/5
f 360/6/5 354/6/5 359/6/5
f 361/6/5 357/6/5 356/6/5
f 361/5/5 355/5/5 360/5/5
f 361/6/5 356/6/5 355/6/5
f 362/5/5 358/5/5 357/5/5
f 362/6/5 357/6/5 361/6/5
f 363/6/5 352/6/5 351/6/5
f 363/5/5 358/5/5 362/5/5
f 363/6/5 351/6/5 337/6/5
f 363/5/5 337/5/5 358/5/5
f 364/6/5 352/6/5 363/6/5
f 365/3/6 366/3/6 369/3/6
f 369/3/6 366/3/6 370/3/6
f 367/2/6 368/2/6 371/2/6
f 371/2/6 368/2/6 372/2/6
f 373/4/6 374/4/6 377/4/6
f 377/4/6 374/4/6 378/4/6
f 375/4/6 376/4/6 379/4/6
f 379/4/6 376/4/6 380/4/6
f 381/3/6 382/3/6 384/3/6
f 384/3/6 382/3/6 385/3/6
f 383/3/6 384/3/6 387/3/6
f 387/3/6 384/3/6 388/3/6
f 385/3/6 386/3/6 389/3/6
f 389/3/6 386/3/6 390/3/6
f 388/3/6 389/3/6 391/3/6
f 391/3/6 389/3/6 392/3/6
f 393/1/6 394/1/6 401/1/6
f 395/1/6 396/1/6 402/1/6
f 402/1/6 396/1/6 403/1/6
f 397/1/6 398/1/6 404/1/6
f 404/1/6 398/1/6 405/1/6
f 399/1/6 400/1/6 406/1/6
f 404/1/6 405/1/6 407/1/6
f 405/1/6 406/1/6 407/1/6
f 393/1/6 401/1/6 407/1/6
f 402/1/6 403/1/6 407/1/6
f 403/1/6 404/1/6 407/1/6
f 401/1/6 402/1/6 407/1/6
f 406/1/6 400/1/6 408/1/6
f 407/1/6 406/1/6 408/1/6
f 409/1/6 410/1/6 413/1/6
f 413/1/6 410/1/6 414/1/6
f 411/1/6 412/1/6 415/1/6
f 415/1/6 412/1/6 416/1/6
f 417/5/6 418/5/6 426/5/6
f 418/6/6 419/6/6 426/6/6
f 419/5/6 420/5/6 427/5/6
f 426/6/6 419/6/6 427/6/6
f 427/5/6 420/5/6 428/5/6
f 420/6/6 421/6/6 429/6/6
f 428/5/6 420/5/6 429/5/6
f 421/5/6 422/5/6 430/5/6
f 429/6/6 421/6/6 430/6/6
f 430/5/6 422/5/6 431/5/6
f 424/6/6 425/6/6 432/6/6
f 423/5/6 424/5/6 432/5/6
f 432/6/6 425/6/6 433/6/6
f 430/6/6 431/6/6 434/6/6
f 427/5/6 428/5/6 434/5/6
f 428/6/6 429/6/6 434/6/6
f 426/5/6 427/5/6 434/5/6
f 429/6/6 430/6/6 434/6/6
f 434/6/6 431/6/6 435/6/6
f 432/5/6 433/5/6 436/5/6
f 423/5/6 432/5/6 436/5/6
f 422/6/6 423/6/6 436/6/6
f 436/5/6 433/5/6 437/5/6
f 417/5/6 426/5/6 438/5/6
f 434/5/6 435/5/6 438/5/6
f 426/5/6 434/5/6 438/5/6
f 438/5/6 435/5/6 439/5/6
f 439/5/6 435/5/6 440/5/6
f 435/6/6 431/6/6 441/6/6
f 440/5/6 435/5/6 441/5/6
f 441/6/6 431/6/6 442/6/6
f 431/5/6 422/5/6 443/5/6
f 442/6/6 431/6/6 443/6/6
f 438/6/6 439/6/6 444/6/6
f 439/5/6 440/5/6 445/5/6
f 444/6/6 439/6/6 445/6/6
f 441/6/6 442/6/6 446/6/6
f 445/5/6 440/5/6 446/5/6
f 440/6/6 441/6/6 446/6/6
f 442/5/6 443/5/6 447/5/6
f 446/6/6 442/6/6 447/6/6
f 436/6/6 437/6/6 448/6/6
f 447/5/6 443/5/6 448/5/6
f 422/6/6 436/6/6 448/6/6
f 443/5/6 422/5/6 448/5/6
f 448/6/6 437/6/6 449/6/6
