# MagicaVoxel @ Ephtracy

# group
o door_single

# material
mtllib tavern-83-door_single.mtl
usemtl palette

# normals
vn -1 0 0
vn 1 0 0
vn 0 0 1
vn 0 0 -1
vn 0 -1 0
vn 0 1 0

# texcoords
vt 0.529297 0.5
vt 0.681641 0.5
vt 0.708984 0.5
vt 0.740234 0.5

# verts
v 4.6 0 -2.9
v 4.6 0 -3.2
v 4.6 1.5 -2.9
v 4.6 1.5 -3
v 4.6 1.5 -3.1
v 4.6 1.5 -3.2
v 4.6 1.7 -3
v 4.6 1.7 -3.1
v 4.7 1.5 -2.9
v 4.7 1.5 -3
v 4.7 1.5 -3.1
v 4.7 1.5 -3.2
v 4.7 1.6 -2.9
v 4.7 1.6 -3
v 4.7 1.6 -3.1
v 4.7 1.6 -3.2
v 4.8 1.6 -2.9
v 4.8 1.6 -3
v 4.8 1.6 -3.1
v 4.8 1.6 -3.2
v 4.8 1.7 -2.9
v 4.8 1.7 -3
v 4.8 1.7 -3.1
v 4.8 1.7 -3.2
v 5.3 0.8 -2.9
v 5.3 0.8 -3
v 5.3 0.8 -3.2
v 5.3 1.5 -2.9
v 5.3 1.5 -3
v 5.3 1.5 -3.2
v 5.7 1.4 -2.9
v 5.7 1.4 -3.2
v 5.7 1.5 -2.9
v 5.7 1.5 -3.2
v 5.8 1.3 -2.9
v 5.8 1.3 -3.1
v 5.8 1.4 -2.9
v 5.8 1.4 -3.1
v 5.9 0.8 -2.9
v 5.9 0.8 -3
v 5.9 0.8 -3.2
v 5.9 1.3 -2.9
v 5.9 1.3 -3
v 5.9 1.3 -3.1
v 5.9 1.4 -3.1
v 5.9 1.4 -3.2
v 6 0.6 -2.8
v 6 0.6 -2.9
v 6 0.6 -3.2
v 6 0.6 -3.3
v 6 0.7 -2.8
v 6 0.7 -2.9
v 6 0.7 -3.2
v 6 0.7 -3.3
v 4.9 0.8 -2.9
v 4.9 0.8 -3
v 4.9 0.8 -3.2
v 4.9 1.3 -2.9
v 4.9 1.3 -3
v 4.9 1.3 -3.2
v 5 1.3 -2.9
v 5 1.3 -3.2
v 5 1.4 -2.9
v 5 1.4 -3.2
v 5.1 1.4 -2.9
v 5.1 1.4 -3.2
v 5.1 1.5 -2.9
v 5.1 1.5 -3.2
v 5.5 0.8 -2.9
v 5.5 0.8 -3
v 5.5 0.8 -3.2
v 5.5 1.5 -2.9
v 5.5 1.5 -3
v 5.5 1.5 -3.2
v 6 1.6 -2.9
v 6 1.6 -3
v 6 1.7 -2.9
v 6 1.7 -3
v 6.1 0.6 -2.8
v 6.1 0.6 -2.9
v 6.1 0.6 -3.2
v 6.1 0.6 -3.3
v 6.1 0.7 -2.8
v 6.1 0.7 -2.9
v 6.1 0.7 -3.2
v 6.1 0.7 -3.3
v 6.1 1.5 -2.9
v 6.1 1.5 -3
v 6.1 1.6 -2.9
v 6.1 1.6 -3
v 6.1 1.6 -3.1
v 6.1 1.6 -3.2
v 6.1 1.7 -3.1
v 6.1 1.7 -3.2
v 6.2 0 -2.9
v 6.2 0 -3.2
v 6.2 1.5 -2.9
v 6.2 1.5 -3
v 6.2 1.6 -3.1
v 6.2 1.6 -3.2
v 6.2 1.7 -3
v 6.2 1.7 -3.1
v 6 0.6 -2.8
v 6 0.7 -2.8
v 6.1 0.6 -2.8
v 6.1 0.7 -2.8
v 4.6 0 -2.9
v 4.6 1.5 -2.9
v 4.7 0.1 -2.9
v 4.7 1.5 -2.9
v 4.7 1.6 -2.9
v 4.8 1.6 -2.9
v 4.8 1.7 -2.9
v 4.9 0.1 -2.9
v 4.9 0.8 -2.9
v 4.9 1.3 -2.9
v 4.9 1.6 -2.9
v 5 0.1 -2.9
v 5 0.7 -2.9
v 5 1.3 -2.9
v 5 1.4 -2.9
v 5 1.5 -2.9
v 5 1.6 -2.9
v 5.1 1.4 -2.9
v 5.1 1.5 -2.9
v 5.1 1.6 -2.9
v 5.2 0.1 -2.9
v 5.2 0.7 -2.9
v 5.3 0.1 -2.9
v 5.3 0.8 -2.9
v 5.3 1.5 -2.9
v 5.3 1.6 -2.9
v 5.5 0.1 -2.9
v 5.5 0.8 -2.9
v 5.5 1.5 -2.9
v 5.5 1.6 -2.9
v 5.6 0.1 -2.9
v 5.6 0.7 -2.9
v 5.7 1.4 -2.9
v 5.7 1.5 -2.9
v 5.7 1.6 -2.9
v 5.8 0.1 -2.9
v 5.8 0.7 -2.9
v 5.8 1.3 -2.9
v 5.8 1.4 -2.9
v 5.8 1.5 -2.9
v 5.8 1.6 -2.9
v 5.9 0.1 -2.9
v 5.9 0.8 -2.9
v 5.9 1.3 -2.9
v 5.9 1.6 -2.9
v 6 0.6 -2.9
v 6 0.7 -2.9
v 6 1.6 -2.9
v 6 1.7 -2.9
v 6.1 0.1 -2.9
v 6.1 0.6 -2.9
v 6.1 0.7 -2.9
v 6.1 1.5 -2.9
v 6.1 1.6 -2.9
v 6.2 0 -2.9
v 6.2 1.5 -2.9
v 4.6 1.5 -3
v 4.6 1.7 -3
v 4.7 1.5 -3
v 4.7 1.6 -3
v 4.8 1.6 -3
v 4.8 1.7 -3
v 6 1.6 -3
v 6 1.7 -3
v 6.1 1.5 -3
v 6.1 1.6 -3
v 6.2 1.5 -3
v 6.2 1.7 -3
v 4.6 1.5 -3.1
v 4.6 1.7 -3.1
v 4.7 1.5 -3.1
v 4.7 1.6 -3.1
v 4.8 1.6 -3.1
v 4.8 1.7 -3.1
v 5.8 1.3 -3.1
v 5.8 1.4 -3.1
v 5.9 1.3 -3.1
v 5.9 1.4 -3.1
v 6.1 1.6 -3.1
v 6.1 1.7 -3.1
v 6.2 1.6 -3.1
v 6.2 1.7 -3.1
v 4.6 0 -3.2
v 4.6 1.5 -3.2
v 4.7 0.1 -3.2
v 4.7 0.7 -3.2
v 4.7 1.5 -3.2
v 4.7 1.6 -3.2
v 4.8 1.6 -3.2
v 4.8 1.7 -3.2
v 4.9 0.1 -3.2
v 4.9 0.7 -3.2
v 4.9 0.8 -3.2
v 4.9 1.3 -3.2
v 5 0.1 -3.2
v 5 0.7 -3.2
v 5 1.3 -3.2
v 5 1.4 -3.2
v 5.1 1.4 -3.2
v 5.1 1.5 -3.2
v 5.2 0.1 -3.2
v 5.2 0.7 -3.2
v 5.3 0.1 -3.2
v 5.3 0.7 -3.2
v 5.3 0.8 -3.2
v 5.3 1.5 -3.2
v 5.5 0.1 -3.2
v 5.5 0.7 -3.2
v 5.5 0.8 -3.2
v 5.5 1.5 -3.2
v 5.6 0.1 -3.2
v 5.6 0.7 -3.2
v 5.7 1.4 -3.2
v 5.7 1.5 -3.2
v 5.8 0.1 -3.2
v 5.8 0.7 -3.2
v 5.9 0.1 -3.2
v 5.9 0.7 -3.2
v 5.9 0.8 -3.2
v 5.9 1.4 -3.2
v 6 0.6 -3.2
v 6 0.7 -3.2
v 6.1 0.1 -3.2
v 6.1 0.6 -3.2
v 6.1 0.7 -3.2
v 6.1 1.6 -3.2
v 6.1 1.7 -3.2
v 6.2 0 -3.2
v 6.2 1.6 -3.2
v 6 0.6 -3.3
v 6 0.7 -3.3
v 6.1 0.6 -3.3
v 6.1 0.7 -3.3
v 4.6 0 -2.9
v 6.2 0 -2.9
v 4.6 0 -3.2
v 6.2 0 -3.2
v 6 0.6 -2.8
v 6.1 0.6 -2.8
v 6 0.6 -2.9
v 6.1 0.6 -2.9
v 6 0.6 -3.2
v 6.1 0.6 -3.2
v 6 0.6 -3.3
v 6.1 0.6 -3.3
v 4.9 1.3 -2.9
v 5 1.3 -2.9
v 5.8 1.3 -2.9
v 5.9 1.3 -2.9
v 4.9 1.3 -3
v 5.9 1.3 -3
v 5.8 1.3 -3.1
v 5.9 1.3 -3.1
v 4.9 1.3 -3.2
v 5 1.3 -3.2
v 5 1.4 -2.9
v 5.1 1.4 -2.9
v 5.7 1.4 -2.9
v 5.8 1.4 -2.9
v 5.8 1.4 -3.1
v 5.9 1.4 -3.1
v 5 1.4 -3.2
v 5.1 1.4 -3.2
v 5.7 1.4 -3.2
v 5.9 1.4 -3.2
v 5.1 1.5 -2.9
v 5.3 1.5 -2.9
v 5.5 1.5 -2.9
v 5.7 1.5 -2.9
v 5.3 1.5 -3
v 5.5 1.5 -3
v 5.1 1.5 -3.2
v 5.3 1.5 -3.2
v 5.5 1.5 -3.2
v 5.7 1.5 -3.2
v 6 0.7 -2.8
v 6.1 0.7 -2.8
v 6 0.7 -2.9
v 6.1 0.7 -2.9
v 6 0.7 -3.2
v 6.1 0.7 -3.2
v 6 0.7 -3.3
v 6.1 0.7 -3.3
v 4.9 0.8 -2.9
v 5.3 0.8 -2.9
v 5.5 0.8 -2.9
v 5.9 0.8 -2.9
v 4.9 0.8 -3
v 5.3 0.8 -3
v 5.5 0.8 -3
v 5.9 0.8 -3
v 4.9 0.8 -3.2
v 5.3 0.8 -3.2
v 5.5 0.8 -3.2
v 5.9 0.8 -3.2
v 4.6 1.5 -2.9
v 4.7 1.5 -2.9
v 6.1 1.5 -2.9
v 6.2 1.5 -2.9
v 4.6 1.5 -3
v 4.7 1.5 -3
v 6.1 1.5 -3
v 6.2 1.5 -3
v 4.6 1.5 -3.1
v 4.7 1.5 -3.1
v 4.6 1.5 -3.2
v 4.7 1.5 -3.2
v 4.7 1.6 -2.9
v 4.8 1.6 -2.9
v 6 1.6 -2.9
v 6.1 1.6 -2.9
v 4.7 1.6 -3
v 4.8 1.6 -3
v 6 1.6 -3
v 6.1 1.6 -3
v 4.7 1.6 -3.1
v 4.8 1.6 -3.1
v 6.1 1.6 -3.1
v 6.2 1.6 -3.1
v 4.7 1.6 -3.2
v 4.8 1.6 -3.2
v 6.1 1.6 -3.2
v 6.2 1.6 -3.2
v 4.8 1.7 -2.9
v 6 1.7 -2.9
v 4.6 1.7 -3
v 4.8 1.7 -3
v 6 1.7 -3
v 6.2 1.7 -3
v 4.6 1.7 -3.1
v 4.8 1.7 -3.1
v 6.1 1.7 -3.1
v 6.2 1.7 -3.1
v 4.8 1.7 -3.2
v 6.1 1.7 -3.2

# faces
f 3/3/1 2/3/1 1/3/1
f 4/3/1 2/3/1 3/3/1
f 5/3/1 2/3/1 4/3/1
f 6/3/1 2/3/1 5/3/1
f 7/3/1 5/3/1 4/3/1
f 8/3/1 5/3/1 7/3/1
f 13/4/1 10/4/1 9/4/1
f 14/4/1 10/4/1 13/4/1
f 15/3/1 12/3/1 11/3/1
f 16/3/1 12/3/1 15/3/1
f 21/3/1 18/3/1 17/3/1
f 22/3/1 18/3/1 21/3/1
f 23/3/1 20/3/1 19/3/1
f 24/3/1 20/3/1 23/3/1
f 28/4/1 26/4/1 25/4/1
f 29/3/1 27/3/1 26/3/1
f 29/4/1 26/4/1 28/4/1
f 30/3/1 27/3/1 29/3/1
f 33/3/1 32/3/1 31/3/1
f 34/3/1 32/3/1 33/3/1
f 37/3/1 36/3/1 35/3/1
f 38/3/1 36/3/1 37/3/1
f 42/4/1 40/4/1 39/4/1
f 43/3/1 41/3/1 40/3/1
f 43/4/1 40/4/1 42/4/1
f 44/3/1 41/3/1 43/3/1
f 45/3/1 41/3/1 44/3/1
f 46/3/1 41/3/1 45/3/1
f 51/1/1 48/1/1 47/1/1
f 52/1/1 48/1/1 51/1/1
f 53/1/1 50/1/1 49/1/1
f 54/1/1 50/1/1 53/1/1
f 55/4/2 56/4/2 58/4/2
f 56/3/2 57/3/2 59/3/2
f 58/4/2 56/4/2 59/4/2
f 59/3/2 57/3/2 60/3/2
f 61/3/2 62/3/2 63/3/2
f 63/3/2 62/3/2 64/3/2
f 65/3/2 66/3/2 67/3/2
f 67/3/2 66/3/2 68/3/2
f 69/4/2 70/4/2 72/4/2
f 70/3/2 71/3/2 73/3/2
f 72/4/2 70/4/2 73/4/2
f 73/3/2 71/3/2 74/3/2
f 75/3/2 76/3/2 77/3/2
f 77/3/2 76/3/2 78/3/2
f 79/1/2 80/1/2 83/1/2
f 83/1/2 80/1/2 84/1/2
f 81/1/2 82/1/2 85/1/2
f 85/1/2 82/1/2 86/1/2
f 87/4/2 88/4/2 89/4/2
f 89/4/2 88/4/2 90/4/2
f 91/3/2 92/3/2 93/3/2
f 93/3/2 92/3/2 94/3/2
f 95/3/2 96/3/2 97/3/2
f 97/3/2 96/3/2 98/3/2
f 98/3/2 96/3/2 99/3/2
f 99/3/2 96/3/2 100/3/2
f 98/3/2 99/3/2 101/3/2
f 101/3/2 99/3/2 102/3/2
f 105/1/3 104/1/3 103/1/3
f 106/1/3 104/1/3 105/1/3
f 109/3/3 108/3/3 107/3/3
f 110/3/3 108/3/3 109/3/3
f 112/4/3 110/4/3 109/4/3
f 112/4/3 111/4/3 110/4/3
f 114/3/3 109/3/3 107/3/3
f 114/4/3 112/4/3 109/4/3
f 115/4/3 112/4/3 114/4/3
f 116/4/3 112/4/3 115/4/3
f 117/3/3 113/3/3 112/3/3
f 117/4/3 112/4/3 116/4/3
f 118/3/3 114/3/3 107/3/3
f 118/3/3 115/3/3 114/3/3
f 119/3/3 115/3/3 118/3/3
f 120/3/3 117/3/3 116/3/3
f 121/3/3 117/3/3 120/3/3
f 122/3/3 117/3/3 121/3/3
f 123/3/3 113/3/3 117/3/3
f 123/3/3 117/3/3 122/3/3
f 124/3/3 122/3/3 121/3/3
f 125/4/3 123/4/3 122/4/3
f 125/3/3 122/3/3 124/3/3
f 126/3/3 113/3/3 123/3/3
f 126/4/3 123/4/3 125/4/3
f 127/3/3 118/3/3 107/3/3
f 127/4/3 119/4/3 118/4/3
f 128/3/3 115/3/3 119/3/3
f 128/4/3 119/4/3 127/4/3
f 129/3/3 127/3/3 107/3/3
f 129/3/3 128/3/3 127/3/3
f 130/3/3 115/3/3 128/3/3
f 130/3/3 128/3/3 129/3/3
f 131/3/3 126/3/3 125/3/3
f 132/3/3 113/3/3 126/3/3
f 132/3/3 126/3/3 131/3/3
f 133/4/3 131/4/3 130/4/3
f 133/3/3 129/3/3 107/3/3
f 133/4/3 132/4/3 131/4/3
f 133/4/3 130/4/3 129/4/3
f 134/4/3 132/4/3 133/4/3
f 135/4/3 132/4/3 134/4/3
f 136/3/3 113/3/3 132/3/3
f 136/4/3 132/4/3 135/4/3
f 137/3/3 133/3/3 107/3/3
f 137/3/3 134/3/3 133/3/3
f 138/3/3 134/3/3 137/3/3
f 140/3/3 136/3/3 135/3/3
f 141/3/3 113/3/3 136/3/3
f 141/3/3 136/3/3 140/3/3
f 142/3/3 137/3/3 107/3/3
f 142/4/3 138/4/3 137/4/3
f 143/3/3 134/3/3 138/3/3
f 143/4/3 138/4/3 142/4/3
f 145/3/3 140/3/3 139/3/3
f 146/4/3 141/4/3 140/4/3
f 146/3/3 140/3/3 145/3/3
f 147/3/3 113/3/3 141/3/3
f 147/4/3 141/4/3 146/4/3
f 148/3/3 142/3/3 107/3/3
f 148/3/3 143/3/3 142/3/3
f 149/3/3 134/3/3 143/3/3
f 149/3/3 143/3/3 148/3/3
f 150/3/3 146/3/3 145/3/3
f 150/3/3 145/3/3 144/3/3
f 150/3/3 147/3/3 146/3/3
f 151/3/3 113/3/3 147/3/3
f 151/3/3 147/3/3 150/3/3
f 152/4/3 150/4/3 149/4/3
f 152/4/3 149/4/3 148/4/3
f 152/4/3 151/4/3 150/4/3
f 153/4/3 151/4/3 152/4/3
f 154/3/3 113/3/3 151/3/3
f 154/4/3 151/4/3 153/4/3
f 155/3/3 113/3/3 154/3/3
f 156/3/3 148/3/3 107/3/3
f 156/4/3 152/4/3 148/4/3
f 157/4/3 152/4/3 156/4/3
f 158/4/3 154/4/3 153/4/3
f 159/4/3 154/4/3 158/4/3
f 160/4/3 154/4/3 159/4/3
f 161/3/3 157/3/3 156/3/3
f 161/3/3 156/3/3 107/3/3
f 161/3/3 159/3/3 158/3/3
f 161/3/3 158/3/3 157/3/3
f 162/3/3 159/3/3 161/3/3
f 165/3/3 164/3/3 163/3/3
f 166/3/3 164/3/3 165/3/3
f 167/3/3 164/3/3 166/3/3
f 168/3/3 164/3/3 167/3/3
f 172/3/3 170/3/3 169/3/3
f 173/3/3 172/3/3 171/3/3
f 174/3/3 170/3/3 172/3/3
f 174/3/3 172/3/3 173/3/3
f 175/3/4 176/3/4 177/3/4
f 177/3/4 176/3/4 178/3/4
f 178/3/4 176/3/4 179/3/4
f 179/3/4 176/3/4 180/3/4
f 181/3/4 182/3/4 183/3/4
f 183/3/4 182/3/4 184/3/4
f 185/3/4 186/3/4 187/3/4
f 187/3/4 186/3/4 188/3/4
f 189/3/4 190/3/4 191/3/4
f 191/3/4 190/3/4 192/3/4
f 192/3/4 190/3/4 193/3/4
f 192/3/4 193/3/4 195/3/4
f 193/3/4 194/3/4 195/3/4
f 189/3/4 191/3/4 197/3/4
f 191/2/4 192/2/4 197/2/4
f 195/3/4 196/3/4 198/3/4
f 197/2/4 192/2/4 198/2/4
f 192/3/4 195/3/4 198/3/4
f 198/3/4 196/3/4 199/3/4
f 199/3/4 196/3/4 200/3/4
f 189/3/4 197/3/4 201/3/4
f 197/3/4 198/3/4 201/3/4
f 198/3/4 199/3/4 201/3/4
f 201/3/4 199/3/4 202/3/4
f 200/3/4 196/3/4 203/3/4
f 203/3/4 196/3/4 204/3/4
f 204/3/4 196/3/4 205/3/4
f 205/3/4 196/3/4 206/3/4
f 189/3/4 201/3/4 207/3/4
f 201/2/4 202/2/4 207/2/4
f 202/3/4 199/3/4 208/3/4
f 207/2/4 202/2/4 208/2/4
f 189/3/4 207/3/4 209/3/4
f 207/3/4 208/3/4 209/3/4
f 208/3/4 199/3/4 210/3/4
f 209/3/4 208/3/4 210/3/4
f 210/3/4 199/3/4 211/3/4
f 206/3/4 196/3/4 212/3/4
f 189/3/4 209/3/4 213/3/4
f 209/2/4 210/2/4 213/2/4
f 211/3/4 212/3/4 214/3/4
f 213/2/4 210/2/4 214/2/4
f 210/3/4 211/3/4 214/3/4
f 214/3/4 212/3/4 215/3/4
f 212/3/4 196/3/4 216/3/4
f 215/3/4 212/3/4 216/3/4
f 189/3/4 213/3/4 217/3/4
f 214/3/4 215/3/4 217/3/4
f 213/3/4 214/3/4 217/3/4
f 217/3/4 215/3/4 218/3/4
f 216/3/4 196/3/4 220/3/4
f 189/3/4 217/3/4 221/3/4
f 217/2/4 218/2/4 221/2/4
f 218/3/4 215/3/4 222/3/4
f 221/2/4 218/2/4 222/2/4
f 189/3/4 221/3/4 223/3/4
f 221/3/4 222/3/4 223/3/4
f 222/3/4 215/3/4 224/3/4
f 223/3/4 222/3/4 224/3/4
f 224/3/4 215/3/4 225/3/4
f 219/3/4 220/3/4 226/3/4
f 223/2/4 224/2/4 227/2/4
f 224/3/4 225/3/4 228/3/4
f 227/2/4 224/2/4 228/2/4
f 225/3/4 226/3/4 228/3/4
f 189/3/4 223/3/4 229/3/4
f 223/2/4 227/2/4 229/2/4
f 229/2/4 227/2/4 230/2/4
f 228/3/4 226/3/4 231/3/4
f 220/3/4 196/3/4 232/3/4
f 226/3/4 220/3/4 232/3/4
f 231/3/4 226/3/4 232/3/4
f 232/3/4 196/3/4 233/3/4
f 229/3/4 230/3/4 234/3/4
f 230/3/4 231/3/4 234/3/4
f 231/3/4 232/3/4 234/3/4
f 189/3/4 229/3/4 234/3/4
f 234/3/4 232/3/4 235/3/4
f 236/1/4 237/1/4 238/1/4
f 238/1/4 237/1/4 239/1/4
f 242/3/5 241/3/5 240/3/5
f 243/3/5 241/3/5 242/3/5
f 246/1/5 245/1/5 244/1/5
f 247/1/5 245/1/5 246/1/5
f 250/1/5 249/1/5 248/1/5
f 251/1/5 249/1/5 250/1/5
f 256/3/5 253/3/5 252/3/5
f 257/3/5 255/3/5 254/3/5
f 258/3/5 257/3/5 254/3/5
f 259/3/5 257/3/5 258/3/5
f 260/3/5 253/3/5 256/3/5
f 261/3/5 253/3/5 260/3/5
f 266/3/5 265/3/5 264/3/5
f 268/3/5 263/3/5 262/3/5
f 269/3/5 263/3/5 268/3/5
f 270/3/5 267/3/5 266/3/5
f 270/3/5 266/3/5 264/3/5
f 271/3/5 267/3/5 270/3/5
f 276/3/5 273/3/5 272/3/5
f 277/3/5 275/3/5 274/3/5
f 278/3/5 276/3/5 272/3/5
f 279/3/5 276/3/5 278/3/5
f 280/3/5 275/3/5 277/3/5
f 281/3/5 275/3/5 280/3/5
f 282/1/6 283/1/6 284/1/6
f 284/1/6 283/1/6 285/1/6
f 286/1/6 287/1/6 288/1/6
f 288/1/6 287/1/6 289/1/6
f 290/3/6 291/3/6 294/3/6
f 294/3/6 291/3/6 295/3/6
f 292/3/6 293/3/6 296/3/6
f 296/3/6 293/3/6 297/3/6
f 294/3/6 295/3/6 298/3/6
f 298/3/6 295/3/6 299/3/6
f 296/3/6 297/3/6 300/3/6
f 300/3/6 297/3/6 301/3/6
f 302/3/6 303/3/6 306/3/6
f 306/3/6 303/3/6 307/3/6
f 304/3/6 305/3/6 308/3/6
f 308/3/6 305/3/6 309/3/6
f 310/3/6 311/3/6 312/3/6
f 312/3/6 311/3/6 313/3/6
f 314/4/6 315/4/6 318/4/6
f 318/4/6 315/4/6 319/4/6
f 316/4/6 317/4/6 320/4/6
f 320/4/6 317/4/6 321/4/6
f 322/3/6 323/3/6 326/3/6
f 326/3/6 323/3/6 327/3/6
f 324/3/6 325/3/6 328/3/6
f 328/3/6 325/3/6 329/3/6
f 330/3/6 331/3/6 333/3/6
f 333/3/6 331/3/6 334/3/6
f 332/3/6 333/3/6 336/3/6
f 334/3/6 335/3/6 336/3/6
f 333/3/6 334/3/6 336/3/6
f 336/3/6 335/3/6 337/3/6
f 337/3/6 335/3/6 338/3/6
f 338/3/6 335/3/6 339/3/6
f 337/3/6 338/3/6 340/3/6
f 340/3/6 338/3/6 341/3/6
