# MagicaVoxel @ Ephtracy

# group
o patron_holding

# material
mtllib tavern-14-patron_holding.mtl
usemtl palette

# normals
vn -1 0 0
vn 1 0 0
vn 0 0 1
vn 0 0 -1
vn 0 -1 0
vn 0 1 0

# texcoords
vt 0.228516 0.5
vt 0.275391 0.5
vt 0.607422 0.5
vt 0.666016 0.5
vt 0.716797 0.5
vt 0.767578 0.5
vt 0.955078 0.5
vt 0.962891 0.5

# verts
v 5.1 0.4 -0.1
v 5.1 0.4 -0.4
v 5.1 0.6 -0.1
v 5.1 0.6 -0.4
v 5.2 0.4 0.1
v 5.2 0.4 -0.1
v 5.2 0.5 -0.4
v 5.2 0.5 -0.5
v 5.2 0.6 0.1
v 5.2 0.6 -0.1
v 5.2 0.6 -0.3
v 5.2 0.6 -0.4
v 5.2 0.7 -0.3
v 5.2 0.7 -0.5
v 5.3 0 -0.3
v 5.3 0 -0.5
v 5.3 0.1 -0.3
v 5.3 0.1 -0.5
v 5.3 0.2 -0.3
v 5.3 0.2 -0.5
v 5.3 0.4 -0.3
v 5.3 0.4 -0.4
v 5.3 0.5 -0.4
v 5.3 0.5 -0.5
v 5.3 0.6 -0.2
v 5.3 0.6 -0.3
v 5.3 0.6 -0.5
v 5.3 0.6 -0.6
v 5.3 0.7 -0.1
v 5.3 0.7 -0.2
v 5.3 0.7 -0.3
v 5.3 0.7 -0.5
v 5.3 0.8 -0.1
v 5.3 0.8 -0.2
v 5.3 0.9 -0.1
v 5.3 0.9 -0.2
v 5.3 1 -0.1
v 5.3 1 -0.3
v 5.3 1 -0.5
v 5.3 1 -0.6
v 5.3 1.1 -0.3
v 5.3 1.1 -0.5
v 5.4 0.5 -0.5
v 5.4 0.5 -0.6
v 5.4 0.6 -0.1
v 5.4 0.6 -0.2
v 5.4 0.6 -0.5
v 5.4 0.6 -0.6
v 5.4 0.6 -0.7
v 5.4 0.7 -0.1
v 5.4 0.7 -0.2
v 5.4 0.9 -0.6
v 5.4 0.9 -0.7
v 5.4 1 -0.2
v 5.4 1 -0.3
v 5.4 1 -0.5
v 5.4 1 -0.6
v 5.4 1.1 -0.2
v 5.4 1.1 -0.3
v 5.4 1.1 -0.5
v 5.4 1.1 -0.6
v 5.5 0.3 -0.2
v 5.5 0.3 -0.3
v 5.5 0.4 -0.2
v 5.5 0.4 -0.3
v 5.5 0.4 -0.5
v 5.5 0.4 -0.6
v 5.5 0.5 -0.1
v 5.5 0.5 -0.2
v 5.5 0.5 -0.5
v 5.5 0.5 -0.6
v 5.5 0.5 -0.7
v 5.5 0.6 -0.1
v 5.5 0.6 -0.2
v 5.5 0.6 -0.6
v 5.5 0.6 -0.7
v 5.5 0.7 -0.1
v 5.5 0.7 -0.2
v 5.5 0.8 -0.1
v 5.5 0.8 -0.2
v 5.5 0.9 -0.6
v 5.5 0.9 -0.7
v 5.5 1 -0.6
v 5.5 1 -0.7
v 5.6 0 -0.3
v 5.6 0 -0.5
v 5.6 0.1 -0.3
v 5.6 0.1 -0.5
v 5.6 0.9 -0.1
v 5.6 0.9 -0.2
v 5.6 1 -0.1
v 5.6 1 -0.2
v 5.7 0.7 -0.1
v 5.7 0.7 -0.2
v 5.7 0.8 -0.1
v 5.7 0.8 -0.2
v 5.3 0.4 0.1
v 5.3 0.4 -0.1
v 5.3 0.5 0
v 5.3 0.5 -0.1
v 5.3 0.6 0.1
v 5.3 0.6 0
v 5.4 0.4 -0.1
v 5.4 0.4 -0.2
v 5.4 0.5 0
v 5.4 0.5 -0.1
v 5.4 0.6 0
v 5.4 0.6 -0.1
v 5.4 0.6 -0.2
v 5.4 0.7 -0.1
v 5.4 0.7 -0.2
v 5.4 0.8 -0.1
v 5.4 0.8 -0.2
v 5.5 0 -0.3
v 5.5 0 -0.5
v 5.5 0.1 -0.3
v 5.5 0.1 -0.5
v 5.5 0.9 -0.1
v 5.5 0.9 -0.2
v 5.5 1 -0.1
v 5.5 1 -0.2
v 5.6 0.3 -0.2
v 5.6 0.3 -0.3
v 5.6 0.4 -0.2
v 5.6 0.4 -0.3
v 5.6 0.4 -0.5
v 5.6 0.4 -0.6
v 5.6 0.5 -0.1
v 5.6 0.5 -0.2
v 5.6 0.5 -0.5
v 5.6 0.5 -0.6
v 5.6 0.5 -0.7
v 5.6 0.6 -0.1
v 5.6 0.6 -0.2
v 5.6 0.6 -0.6
v 5.6 0.6 -0.7
v 5.6 0.7 -0.1
v 5.6 0.7 -0.2
v 5.6 0.8 -0.1
v 5.6 0.8 -0.2
v 5.6 0.9 -0.6
v 5.6 0.9 -0.7
v 5.6 1 -0.6
v 5.6 1 -0.7
v 5.7 0.4 -0.2
v 5.7 0.4 -0.3
v 5.7 0.5 -0.2
v 5.7 0.5 -0.3
v 5.7 0.5 -0.5
v 5.7 0.5 -0.6
v 5.7 0.6 -0.1
v 5.7 0.6 -0.2
v 5.7 0.6 -0.5
v 5.7 0.6 -0.6
v 5.7 0.6 -0.7
v 5.7 0.7 -0.1
v 5.7 0.7 -0.2
v 5.7 0.9 -0.6
v 5.7 0.9 -0.7
v 5.7 1 -0.2
v 5.7 1 -0.3
v 5.7 1 -0.5
v 5.7 1 -0.6
v 5.7 1.1 -0.2
v 5.7 1.1 -0.3
v 5.7 1.1 -0.5
v 5.7 1.1 -0.6
v 5.8 0 -0.3
v 5.8 0 -0.5
v 5.8 0.1 -0.3
v 5.8 0.1 -0.5
v 5.8 0.2 -0.3
v 5.8 0.2 -0.5
v 5.8 0.5 -0.2
v 5.8 0.5 -0.3
v 5.8 0.6 -0.5
v 5.8 0.6 -0.6
v 5.8 0.7 -0.1
v 5.8 0.7 -0.2
v 5.8 0.7 -0.3
v 5.8 0.7 -0.5
v 5.8 0.8 -0.1
v 5.8 0.8 -0.2
v 5.8 0.9 -0.1
v 5.8 0.9 -0.2
v 5.8 1 -0.1
v 5.8 1 -0.3
v 5.8 1 -0.5
v 5.8 1 -0.6
v 5.8 1.1 -0.3
v 5.8 1.1 -0.5
v 5.9 0.6 -0.3
v 5.9 0.6 -0.5
v 5.9 0.7 -0.3
v 5.9 0.7 -0.5
v 6 0.2 -0.3
v 6 0.2 -0.5
v 6 0.3 -0.3
v 6 0.3 -0.5
v 6 0.6 -0.3
v 6 0.6 -0.5
v 5.2 0.4 0.1
v 5.2 0.6 0.1
v 5.3 0.4 0.1
v 5.3 0.6 0.1
v 5.3 0.5 0
v 5.3 0.6 0
v 5.4 0.5 0
v 5.4 0.6 0
v 5.1 0.4 -0.1
v 5.1 0.6 -0.1
v 5.2 0.4 -0.1
v 5.2 0.6 -0.1
v 5.3 0.4 -0.1
v 5.3 0.5 -0.1
v 5.3 0.7 -0.1
v 5.3 0.8 -0.1
v 5.3 0.9 -0.1
v 5.3 1 -0.1
v 5.4 0.4 -0.1
v 5.4 0.5 -0.1
v 5.4 0.6 -0.1
v 5.4 0.7 -0.1
v 5.4 0.8 -0.1
v 5.5 0.5 -0.1
v 5.5 0.6 -0.1
v 5.5 0.7 -0.1
v 5.5 0.8 -0.1
v 5.5 0.9 -0.1
v 5.5 1 -0.1
v 5.6 0.5 -0.1
v 5.6 0.6 -0.1
v 5.6 0.7 -0.1
v 5.6 0.8 -0.1
v 5.6 0.9 -0.1
v 5.6 1 -0.1
v 5.7 0.6 -0.1
v 5.7 0.7 -0.1
v 5.7 0.8 -0.1
v 5.8 0.7 -0.1
v 5.8 0.8 -0.1
v 5.8 0.9 -0.1
v 5.8 1 -0.1
v 5.3 0.6 -0.2
v 5.3 0.7 -0.2
v 5.3 0.8 -0.2
v 5.3 0.9 -0.2
v 5.4 0.4 -0.2
v 5.4 0.6 -0.2
v 5.4 0.7 -0.2
v 5.4 0.8 -0.2
v 5.4 0.9 -0.2
v 5.4 1 -0.2
v 5.4 1.1 -0.2
v 5.5 0.3 -0.2
v 5.5 0.4 -0.2
v 5.5 0.5 -0.2
v 5.5 0.6 -0.2
v 5.5 0.7 -0.2
v 5.5 0.8 -0.2
v 5.5 0.9 -0.2
v 5.5 1 -0.2
v 5.6 0.3 -0.2
v 5.6 0.4 -0.2
v 5.6 0.5 -0.2
v 5.6 0.6 -0.2
v 5.6 0.7 -0.2
v 5.6 0.8 -0.2
v 5.6 0.9 -0.2
v 5.6 1 -0.2
v 5.7 0.4 -0.2
v 5.7 0.5 -0.2
v 5.7 0.6 -0.2
v 5.7 0.7 -0.2
v 5.7 0.8 -0.2
v 5.7 0.9 -0.2
v 5.7 1 -0.2
v 5.7 1.1 -0.2
v 5.8 0.5 -0.2
v 5.8 0.7 -0.2
v 5.8 0.8 -0.2
v 5.8 0.9 -0.2
v 5.2 0.6 -0.3
v 5.2 0.7 -0.3
v 5.3 0 -0.3
v 5.3 0.1 -0.3
v 5.3 0.2 -0.3
v 5.3 0.4 -0.3
v 5.3 0.6 -0.3
v 5.3 0.7 -0.3
v 5.3 1 -0.3
v 5.3 1.1 -0.3
v 5.4 1 -0.3
v 5.4 1.1 -0.3
v 5.5 0 -0.3
v 5.5 0.1 -0.3
v 5.5 0.3 -0.3
v 5.5 0.4 -0.3
v 5.6 0 -0.3
v 5.6 0.1 -0.3
v 5.6 0.3 -0.3
v 5.6 0.4 -0.3
v 5.7 0.4 -0.3
v 5.7 0.5 -0.3
v 5.7 1 -0.3
v 5.7 1.1 -0.3
v 5.8 0 -0.3
v 5.8 0.1 -0.3
v 5.8 0.2 -0.3
v 5.8 0.3 -0.3
v 5.8 0.5 -0.3
v 5.8 0.7 -0.3
v 5.8 1 -0.3
v 5.8 1.1 -0.3
v 5.9 0.6 -0.3
v 5.9 0.7 -0.3
v 6 0.2 -0.3
v 6 0.3 -0.3
v 6 0.6 -0.3
v 5.1 0.4 -0.4
v 5.1 0.6 -0.4
v 5.2 0.5 -0.4
v 5.2 0.6 -0.4
v 5.3 0.4 -0.4
v 5.3 0.5 -0.4
v 5.2 0.5 -0.5
v 5.2 0.7 -0.5
v 5.3 0 -0.5
v 5.3 0.1 -0.5
v 5.3 0.2 -0.5
v 5.3 0.5 -0.5
v 5.3 0.6 -0.5
v 5.3 0.7 -0.5
v 5.3 1 -0.5
v 5.3 1.1 -0.5
v 5.4 0.5 -0.5
v 5.4 0.6 -0.5
v 5.4 1 -0.5
v 5.4 1.1 -0.5
v 5.5 0 -0.5
v 5.5 0.1 -0.5
v 5.5 0.4 -0.5
v 5.5 0.5 -0.5
v 5.6 0 -0.5
v 5.6 0.1 -0.5
v 5.6 0.4 -0.5
v 5.6 0.5 -0.5
v 5.7 0.5 -0.5
v 5.7 0.6 -0.5
v 5.7 1 -0.5
v 5.7 1.1 -0.5
v 5.8 0 -0.5
v 5.8 0.1 -0.5
v 5.8 0.2 -0.5
v 5.8 0.3 -0.5
v 5.8 0.6 -0.5
v 5.8 0.7 -0.5
v 5.8 1 -0.5
v 5.8 1.1 -0.5
v 5.9 0.6 -0.5
v 5.9 0.7 -0.5
v 6 0.2 -0.5
v 6 0.3 -0.5
v 6 0.6 -0.5
v 5.3 0.6 -0.6
v 5.3 1 -0.6
v 5.4 0.5 -0.6
v 5.4 0.6 -0.6
v 5.4 0.9 -0.6
v 5.4 1 -0.6
v 5.4 1.1 -0.6
v 5.5 0.4 -0.6
v 5.5 0.5 -0.6
v 5.5 0.6 -0.6
v 5.5 0.9 -0.6
v 5.5 1 -0.6
v 5.6 0.4 -0.6
v 5.6 0.5 -0.6
v 5.6 0.6 -0.6
v 5.6 0.9 -0.6
v 5.6 1 -0.6
v 5.7 0.5 -0.6
v 5.7 0.6 -0.6
v 5.7 0.9 -0.6
v 5.7 1 -0.6
v 5.7 1.1 -0.6
v 5.8 0.6 -0.6
v 5.8 1 -0.6
v 5.4 0.6 -0.7
v 5.4 0.9 -0.7
v 5.5 0.5 -0.7
v 5.5 0.6 -0.7
v 5.5 0.9 -0.7
v 5.5 1 -0.7
v 5.6 0.5 -0.7
v 5.6 0.6 -0.7
v 5.6 0.9 -0.7
v 5.6 1 -0.7
v 5.7 0.6 -0.7
v 5.7 0.9 -0.7
v 5.3 0 -0.3
v 5.5 0 -0.3
v 5.6 0 -0.3
v 5.8 0 -0.3
v 5.3 0 -0.5
v 5.5 0 -0.5
v 5.6 0 -0.5
v 5.8 0 -0.5
v 5.5 0.1 -0.3
v 5.6 0.1 -0.3
v 5.5 0.1 -0.5
v 5.6 0.1 -0.5
v 5.8 0.2 -0.3
v 6 0.2 -0.3
v 5.8 0.2 -0.5
v 6 0.2 -0.5
v 5.5 0.3 -0.2
v 5.6 0.3 -0.2
v 5.5 0.3 -0.3
v 5.6 0.3 -0.3
v 5.2 0.4 0.1
v 5.3 0.4 0.1
v 5.1 0.4 -0.1
v 5.2 0.4 -0.1
v 5.3 0.4 -0.1
v 5.4 0.4 -0.1
v 5.3 0.4 -0.2
v 5.4 0.4 -0.2
v 5.5 0.4 -0.2
v 5.6 0.4 -0.2
v 5.7 0.4 -0.2
v 5.3 0.4 -0.3
v 5.5 0.4 -0.3
v 5.6 0.4 -0.3
v 5.7 0.4 -0.3
v 5.1 0.4 -0.4
v 5.3 0.4 -0.4
v 5.5 0.4 -0.5
v 5.6 0.4 -0.5
v 5.5 0.4 -0.6
v 5.6 0.4 -0.6
v 5.3 0.5 0
v 5.4 0.5 0
v 5.3 0.5 -0.1
v 5.4 0.5 -0.1
v 5.5 0.5 -0.1
v 5.6 0.5 -0.1
v 5.5 0.5 -0.2
v 5.6 0.5 -0.2
v 5.7 0.5 -0.2
v 5.8 0.5 -0.2
v 5.7 0.5 -0.3
v 5.8 0.5 -0.3
v 5.2 0.5 -0.4
v 5.3 0.5 -0.4
v 5.2 0.5 -0.5
v 5.3 0.5 -0.5
v 5.4 0.5 -0.5
v 5.5 0.5 -0.5
v 5.6 0.5 -0.5
v 5.7 0.5 -0.5
v 5.4 0.5 -0.6
v 5.5 0.5 -0.6
v 5.6 0.5 -0.6
v 5.7 0.5 -0.6
v 5.5 0.5 -0.7
v 5.6 0.5 -0.7
v 5.4 0.6 -0.1
v 5.5 0.6 -0.1
v 5.6 0.6 -0.1
v 5.7 0.6 -0.1
v 5.4 0.6 -0.2
v 5.5 0.6 -0.2
v 5.6 0.6 -0.2
v 5.7 0.6 -0.2
v 5.3 0.6 -0.5
v 5.4 0.6 -0.5
v 5.7 0.6 -0.5
v 5.8 0.6 -0.5
v 5.3 0.6 -0.6
v 5.4 0.6 -0.6
v 5.5 0.6 -0.6
v 5.6 0.6 -0.6
v 5.7 0.6 -0.6
v 5.8 0.6 -0.6
v 5.4 0.6 -0.7
v 5.5 0.6 -0.7
v 5.6 0.6 -0.7
v 5.7 0.6 -0.7
v 5.3 0.7 -0.1
v 5.4 0.7 -0.1
v 5.7 0.7 -0.1
v 5.8 0.7 -0.1
v 5.3 0.7 -0.2
v 5.4 0.7 -0.2
v 5.7 0.7 -0.2
v 5.8 0.7 -0.2
v 5.3 0.9 -0.1
v 5.5 0.9 -0.1
v 5.6 0.9 -0.1
v 5.8 0.9 -0.1
v 5.3 0.9 -0.2
v 5.4 0.9 -0.2
v 5.5 0.9 -0.2
v 5.6 0.9 -0.2
v 5.7 0.9 -0.2
v 5.8 0.9 -0.2
v 5.2 0.6 0.1
v 5.3 0.6 0.1
v 5.3 0.6 0
v 5.4 0.6 0
v 5.1 0.6 -0.1
v 5.2 0.6 -0.1
v 5.4 0.6 -0.1
v 5.3 0.6 -0.2
v 5.4 0.6 -0.2
v 5.2 0.6 -0.3
v 5.3 0.6 -0.3
v 5.9 0.6 -0.3
v 6 0.6 -0.3
v 5.1 0.6 -0.4
v 5.2 0.6 -0.4
v 5.9 0.6 -0.5
v 6 0.6 -0.5
v 5.4 0.7 -0.1
v 5.5 0.7 -0.1
v 5.6 0.7 -0.1
v 5.7 0.7 -0.1
v 5.4 0.7 -0.2
v 5.5 0.7 -0.2
v 5.6 0.7 -0.2
v 5.7 0.7 -0.2
v 5.2 0.7 -0.3
v 5.3 0.7 -0.3
v 5.8 0.7 -0.3
v 5.9 0.7 -0.3
v 5.2 0.7 -0.5
v 5.3 0.7 -0.5
v 5.8 0.7 -0.5
v 5.9 0.7 -0.5
v 5.3 0.8 -0.1
v 5.4 0.8 -0.1
v 5.5 0.8 -0.1
v 5.6 0.8 -0.1
v 5.7 0.8 -0.1
v 5.8 0.8 -0.1
v 5.3 0.8 -0.2
v 5.4 0.8 -0.2
v 5.5 0.8 -0.2
v 5.6 0.8 -0.2
v 5.7 0.8 -0.2
v 5.8 0.8 -0.2
v 5.4 0.9 -0.6
v 5.5 0.9 -0.6
v 5.6 0.9 -0.6
v 5.7 0.9 -0.6
v 5.4 0.9 -0.7
v 5.5 0.9 -0.7
v 5.6 0.9 -0.7
v 5.7 0.9 -0.7
v 5.3 1 -0.1
v 5.5 1 -0.1
v 5.6 1 -0.1
v 5.8 1 -0.1
v 5.4 1 -0.2
v 5.5 1 -0.2
v 5.6 1 -0.2
v 5.7 1 -0.2
v 5.3 1 -0.3
v 5.4 1 -0.3
v 5.7 1 -0.3
v 5.8 1 -0.3
v 5.3 1 -0.5
v 5.4 1 -0.5
v 5.7 1 -0.5
v 5.8 1 -0.5
v 5.3 1 -0.6
v 5.4 1 -0.6
v 5.5 1 -0.6
v 5.6 1 -0.6
v 5.7 1 -0.6
v 5.8 1 -0.6
v 5.5 1 -0.7
v 5.6 1 -0.7
v 5.4 1.1 -0.2
v 5.7 1.1 -0.2
v 5.3 1.1 -0.3
v 5.4 1.1 -0.3
v 5.7 1.1 -0.3
v 5.8 1.1 -0.3
v 5.3 1.1 -0.5
v 5.4 1.1 -0.5
v 5.7 1.1 -0.5
v 5.8 1.1 -0.5
v 5.4 1.1 -0.6
v 5.7 1.1 -0.6

# faces
f 3/3/1 2/3/1 1/3/1
f 4/3/1 2/3/1 3/3/1
f 9/2/1 6/2/1 5/2/1
f 10/2/1 6/2/1 9/2/1
f 12/3/1 8/3/1 7/3/1
f 13/3/1 12/3/1 11/3/1
f 14/3/1 8/3/1 12/3/1
f 14/3/1 12/3/1 13/3/1
f 17/7/1 16/7/1 15/7/1
f 18/7/1 16/7/1 17/7/1
f 19/4/1 18/4/1 17/4/1
f 20/4/1 18/4/1 19/4/1
f 21/3/1 20/3/1 19/3/1
f 22/3/1 20/3/1 21/3/1
f 23/3/1 20/3/1 22/3/1
f 24/3/1 20/3/1 23/3/1
f 30/5/1 26/5/1 25/5/1
f 31/5/1 26/5/1 30/5/1
f 32/5/1 28/5/1 27/5/1
f 33/5/1 31/5/1 30/5/1
f 33/5/1 32/5/1 31/5/1
f 33/5/1 30/5/1 29/5/1
f 34/5/1 32/5/1 33/5/1
f 36/5/1 32/5/1 34/5/1
f 37/5/1 36/5/1 35/5/1
f 38/5/1 32/5/1 36/5/1
f 38/5/1 36/5/1 37/5/1
f 39/5/1 28/5/1 32/5/1
f 39/5/1 32/5/1 38/5/1
f 40/5/1 28/5/1 39/5/1
f 41/5/1 39/5/1 38/5/1
f 42/5/1 39/5/1 41/5/1
f 47/5/1 44/5/1 43/5/1
f 48/5/1 44/5/1 47/5/1
f 50/5/1 46/5/1 45/5/1
f 51/5/1 46/5/1 50/5/1
f 52/5/1 49/5/1 48/5/1
f 53/5/1 49/5/1 52/5/1
f 58/5/1 55/5/1 54/5/1
f 59/5/1 55/5/1 58/5/1
f 60/5/1 57/5/1 56/5/1
f 61/5/1 57/5/1 60/5/1
f 64/5/1 63/5/1 62/5/1
f 65/5/1 63/5/1 64/5/1
f 70/5/1 67/5/1 66/5/1
f 71/5/1 67/5/1 70/5/1
f 73/5/1 69/5/1 68/5/1
f 74/5/1 69/5/1 73/5/1
f 75/5/1 72/5/1 71/5/1
f 76/5/1 72/5/1 75/5/1
f 79/1/1 78/1/1 77/1/1
f 80/1/1 78/1/1 79/1/1
f 83/5/1 82/5/1 81/5/1
f 84/5/1 82/5/1 83/5/1
f 87/7/1 86/7/1 85/7/1
f 88/7/1 86/7/1 87/7/1
f 91/5/1 90/5/1 89/5/1
f 92/5/1 90/5/1 91/5/1
f 95/5/1 94/5/1 93/5/1
f 96/5/1 94/5/1 95/5/1
f 97/2/2 98/2/2 99/2/2
f 99/2/2 98/2/2 100/2/2
f 97/2/2 99/2/2 101/2/2
f 101/2/2 99/2/2 102/2/2
f 103/3/2 104/3/2 106/3/2
f 105/2/2 106/2/2 107/2/2
f 106/3/2 104/3/2 108/3/2
f 107/2/2 106/2/2 108/2/2
f 108/3/2 104/3/2 109/3/2
f 110/5/2 111/5/2 112/5/2
f 112/5/2 111/5/2 113/5/2
f 114/7/2 115/7/2 116/7/2
f 116/7/2 115/7/2 117/7/2
f 118/5/2 119/5/2 120/5/2
f 120/5/2 119/5/2 121/5/2
f 122/5/2 123/5/2 124/5/2
f 124/5/2 123/5/2 125/5/2
f 126/5/2 127/5/2 130/5/2
f 130/5/2 127/5/2 131/5/2
f 128/5/2 129/5/2 133/5/2
f 133/5/2 129/5/2 134/5/2
f 131/5/2 132/5/2 135/5/2
f 135/5/2 132/5/2 136/5/2
f 137/1/2 138/1/2 139/1/2
f 139/1/2 138/1/2 140/1/2
f 141/5/2 142/5/2 143/5/2
f 143/5/2 142/5/2 144/5/2
f 145/5/2 146/5/2 147/5/2
f 147/5/2 146/5/2 148/5/2
f 149/5/2 150/5/2 153/5/2
f 153/5/2 150/5/2 154/5/2
f 151/5/2 152/5/2 156/5/2
f 156/5/2 152/5/2 157/5/2
f 154/5/2 155/5/2 158/5/2
f 158/5/2 155/5/2 159/5/2
f 160/5/2 161/5/2 164/5/2
f 164/5/2 161/5/2 165/5/2
f 162/5/2 163/5/2 166/5/2
f 166/5/2 163/5/2 167/5/2
f 168/7/2 169/7/2 170/7/2
f 170/7/2 169/7/2 171/7/2
f 170/4/2 171/4/2 172/4/2
f 172/4/2 171/4/2 173/4/2
f 174/5/2 175/5/2 179/5/2
f 179/5/2 175/5/2 180/5/2
f 176/5/2 177/5/2 181/5/2
f 179/5/2 180/5/2 182/5/2
f 180/5/2 181/5/2 182/5/2
f 178/5/2 179/5/2 182/5/2
f 182/5/2 181/5/2 183/5/2
f 183/5/2 181/5/2 185/5/2
f 184/5/2 185/5/2 186/5/2
f 185/5/2 181/5/2 187/5/2
f 186/5/2 185/5/2 187/5/2
f 181/5/2 177/5/2 188/5/2
f 187/5/2 181/5/2 188/5/2
f 188/5/2 177/5/2 189/5/2
f 187/5/2 188/5/2 190/5/2
f 190/5/2 188/5/2 191/5/2
f 192/3/2 193/3/2 194/3/2
f 194/3/2 193/3/2 195/3/2
f 196/2/2 197/2/2 198/2/2
f 198/2/2 197/2/2 199/2/2
f 198/3/2 199/3/2 200/3/2
f 200/3/2 199/3/2 201/3/2
f 204/2/3 203/2/3 202/2/3
f 205/2/3 203/2/3 204/2/3
f 208/2/3 207/2/3 206/2/3
f 209/2/3 207/2/3 208/2/3
f 212/3/3 211/3/3 210/3/3
f 213/3/3 211/3/3 212/3/3
f 220/3/3 215/3/3 214/3/3
f 221/3/3 215/3/3 220/3/3
f 223/5/3 217/5/3 216/5/3
f 224/5/3 217/5/3 223/5/3
f 226/5/3 223/5/3 222/5/3
f 227/5/3 223/5/3 226/5/3
f 229/5/3 219/5/3 218/5/3
f 230/5/3 219/5/3 229/5/3
f 231/5/3 227/5/3 226/5/3
f 231/5/3 226/5/3 225/5/3
f 232/5/3 227/5/3 231/5/3
f 233/1/3 228/1/3 227/1/3
f 233/5/3 227/5/3 232/5/3
f 234/1/3 228/1/3 233/1/3
f 237/5/3 233/5/3 232/5/3
f 238/5/3 233/5/3 237/5/3
f 240/5/3 239/5/3 238/5/3
f 241/5/3 239/5/3 240/5/3
f 242/5/3 236/5/3 235/5/3
f 243/5/3 236/5/3 242/5/3
f 249/5/3 245/5/3 244/5/3
f 250/5/3 245/5/3 249/5/3
f 251/5/3 247/5/3 246/5/3
f 252/5/3 247/5/3 251/5/3
f 256/5/3 249/5/3 248/5/3
f 257/5/3 249/5/3 256/5/3
f 258/5/3 249/5/3 257/5/3
f 259/2/3 251/2/3 250/2/3
f 260/6/3 252/6/3 251/6/3
f 260/2/3 251/2/3 259/2/3
f 261/6/3 252/6/3 260/6/3
f 262/5/3 254/5/3 253/5/3
f 263/5/3 256/5/3 255/5/3
f 263/5/3 257/5/3 256/5/3
f 264/5/3 257/5/3 263/5/3
f 265/5/3 257/5/3 264/5/3
f 268/2/3 261/2/3 260/2/3
f 268/2/3 262/2/3 261/2/3
f 269/2/3 262/2/3 268/2/3
f 270/5/3 254/5/3 262/5/3
f 270/2/3 262/2/3 269/2/3
f 271/5/3 266/5/3 265/5/3
f 271/5/3 265/5/3 264/5/3
f 272/5/3 266/5/3 271/5/3
f 273/5/3 266/5/3 272/5/3
f 274/2/3 268/2/3 267/2/3
f 275/6/3 269/6/3 268/6/3
f 275/2/3 268/2/3 274/2/3
f 276/6/3 269/6/3 275/6/3
f 277/5/3 254/5/3 270/5/3
f 278/5/3 254/5/3 277/5/3
f 279/5/3 273/5/3 272/5/3
f 279/5/3 274/5/3 273/5/3
f 280/5/3 274/5/3 279/5/3
f 281/5/3 276/5/3 275/5/3
f 282/5/3 276/5/3 281/5/3
f 289/3/3 284/3/3 283/3/3
f 290/3/3 284/3/3 289/3/3
f 293/5/3 292/5/3 291/5/3
f 294/5/3 292/5/3 293/5/3
f 295/7/3 286/7/3 285/7/3
f 296/4/3 287/4/3 286/4/3
f 296/7/3 286/7/3 295/7/3
f 297/3/3 288/3/3 287/3/3
f 298/3/3 288/3/3 297/3/3
f 300/4/3 287/4/3 296/4/3
f 301/3/3 297/3/3 287/3/3
f 303/3/3 302/3/3 301/3/3
f 307/7/3 300/7/3 299/7/3
f 308/4/3 287/4/3 300/4/3
f 308/7/3 300/7/3 307/7/3
f 309/3/3 303/3/3 301/3/3
f 309/4/3 287/4/3 308/4/3
f 309/3/3 301/3/3 287/3/3
f 309/3/3 304/3/3 303/3/3
f 310/3/3 304/3/3 309/3/3
f 311/3/3 304/3/3 310/3/3
f 313/5/3 306/5/3 305/5/3
f 314/5/3 306/5/3 313/5/3
f 315/3/3 312/3/3 311/3/3
f 315/3/3 311/3/3 310/3/3
f 316/3/3 312/3/3 315/3/3
f 317/2/3 310/2/3 309/2/3
f 318/3/3 315/3/3 310/3/3
f 318/2/3 310/2/3 317/2/3
f 319/3/3 315/3/3 318/3/3
f 320/3/4 321/3/4 322/3/4
f 322/3/4 321/3/4 323/3/4
f 320/3/4 322/3/4 324/3/4
f 324/3/4 322/3/4 325/3/4
f 326/3/4 327/3/4 331/3/4
f 331/3/4 327/3/4 332/3/4
f 332/3/4 327/3/4 333/3/4
f 330/3/4 331/3/4 336/3/4
f 331/3/4 332/3/4 336/3/4
f 336/3/4 332/3/4 337/3/4
f 334/5/4 335/5/4 338/5/4
f 338/5/4 335/5/4 339/5/4
f 328/7/4 329/7/4 340/7/4
f 329/4/4 330/4/4 341/4/4
f 340/7/4 329/7/4 341/7/4
f 330/3/4 336/3/4 342/3/4
f 342/3/4 336/3/4 343/3/4
f 341/4/4 330/4/4 345/4/4
f 330/3/4 342/3/4 346/3/4
f 346/3/4 347/3/4 348/3/4
f 344/7/4 345/7/4 352/7/4
f 345/4/4 330/4/4 353/4/4
f 352/7/4 345/7/4 353/7/4
f 346/3/4 348/3/4 354/3/4
f 353/4/4 330/4/4 354/4/4
f 330/3/4 346/3/4 354/3/4
f 348/3/4 349/3/4 354/3/4
f 354/3/4 349/3/4 355/3/4
f 355/3/4 349/3/4 356/3/4
f 350/5/4 351/5/4 358/5/4
f 358/5/4 351/5/4 359/5/4
f 356/3/4 357/3/4 360/3/4
f 355/3/4 356/3/4 360/3/4
f 360/3/4 357/3/4 361/3/4
f 354/2/4 355/2/4 362/2/4
f 355/3/4 360/3/4 363/3/4
f 362/2/4 355/2/4 363/2/4
f 363/3/4 360/3/4 364/3/4
f 365/5/4 366/5/4 368/5/4
f 368/5/4 366/5/4 369/5/4
f 369/5/4 366/5/4 370/5/4
f 367/5/4 368/5/4 373/5/4
f 373/5/4 368/5/4 374/5/4
f 369/5/4 370/5/4 375/5/4
f 370/5/4 371/5/4 375/5/4
f 375/5/4 371/5/4 376/5/4
f 372/5/4 373/5/4 377/5/4
f 377/5/4 373/5/4 378/5/4
f 376/5/4 371/5/4 381/5/4
f 378/5/4 379/5/4 382/5/4
f 382/5/4 379/5/4 383/5/4
f 380/5/4 381/5/4 384/5/4
f 381/5/4 371/5/4 385/5/4
f 384/5/4 381/5/4 385/5/4
f 385/5/4 371/5/4 386/5/4
f 383/5/4 384/5/4 387/5/4
f 384/5/4 385/5/4 387/5/4
f 387/5/4 385/5/4 388/5/4
f 389/5/4 390/5/4 392/5/4
f 392/5/4 390/5/4 393/5/4
f 391/5/4 392/5/4 395/5/4
f 393/5/4 394/5/4 395/5/4
f 392/5/4 393/5/4 395/5/4
f 395/5/4 394/5/4 396/5/4
f 396/5/4 394/5/4 397/5/4
f 397/5/4 394/5/4 398/5/4
f 396/5/4 397/5/4 399/5/4
f 399/5/4 397/5/4 400/5/4
f 405/7/5 402/7/5 401/7/5
f 406/7/5 402/7/5 405/7/5
f 407/7/5 404/7/5 403/7/5
f 408/7/5 404/7/5 407/7/5
f 411/4/5 410/4/5 409/4/5
f 412/4/5 410/4/5 411/4/5
f 415/2/5 414/2/5 413/2/5
f 416/2/5 414/2/5 415/2/5
f 419/5/5 418/5/5 417/5/5
f 420/5/5 418/5/5 419/5/5
f 424/2/5 422/2/5 421/2/5
f 425/2/5 422/2/5 424/2/5
f 427/3/5 424/3/5 423/3/5
f 427/3/5 426/3/5 425/3/5
f 427/3/5 425/3/5 424/3/5
f 428/3/5 426/3/5 427/3/5
f 432/3/5 427/3/5 423/3/5
f 432/5/5 428/5/5 427/5/5
f 432/5/5 429/5/5 428/5/5
f 433/5/5 429/5/5 432/5/5
f 434/5/5 431/5/5 430/5/5
f 435/5/5 431/5/5 434/5/5
f 436/3/5 432/3/5 423/3/5
f 437/3/5 432/3/5 436/3/5
f 440/5/5 439/5/5 438/5/5
f 441/5/5 439/5/5 440/5/5
f 444/2/5 443/2/5 442/2/5
f 445/2/5 443/2/5 444/2/5
f 448/5/5 447/5/5 446/5/5
f 449/5/5 447/5/5 448/5/5
f 452/5/5 451/5/5 450/5/5
f 453/5/5 451/5/5 452/5/5
f 456/3/5 455/3/5 454/3/5
f 457/3/5 455/3/5 456/3/5
f 462/5/5 459/5/5 458/5/5
f 463/5/5 459/5/5 462/5/5
f 464/5/5 461/5/5 460/5/5
f 465/5/5 461/5/5 464/5/5
f 466/5/5 464/5/5 463/5/5
f 467/5/5 464/5/5 466/5/5
f 472/5/5 469/5/5 468/5/5
f 473/5/5 469/5/5 472/5/5
f 474/5/5 471/5/5 470/5/5
f 475/5/5 471/5/5 474/5/5
f 480/5/5 477/5/5 476/5/5
f 481/5/5 477/5/5 480/5/5
f 484/5/5 479/5/5 478/5/5
f 485/5/5 479/5/5 484/5/5
f 486/5/5 482/5/5 481/5/5
f 487/5/5 482/5/5 486/5/5
f 488/5/5 484/5/5 483/5/5
f 489/5/5 484/5/5 488/5/5
f 494/5/5 491/5/5 490/5/5
f 495/5/5 491/5/5 494/5/5
f 496/5/5 493/5/5 492/5/5
f 497/5/5 493/5/5 496/5/5
f 502/5/5 499/5/5 498/5/5
f 503/5/5 499/5/5 502/5/5
f 504/5/5 499/5/5 503/5/5
f 505/5/5 501/5/5 500/5/5
f 506/5/5 501/5/5 505/5/5
f 507/5/5 501/5/5 506/5/5
f 508/2/6 509/2/6 510/2/6
f 508/2/6 510/2/6 513/2/6
f 510/2/6 511/2/6 513/2/6
f 513/2/6 511/2/6 514/2/6
f 512/3/6 513/3/6 515/3/6
f 513/3/6 514/3/6 515/3/6
f 515/3/6 514/3/6 516/3/6
f 512/3/6 515/3/6 517/3/6
f 517/3/6 515/3/6 518/3/6
f 512/3/6 517/3/6 521/3/6
f 521/3/6 517/3/6 522/3/6
f 519/3/6 520/3/6 523/3/6
f 523/3/6 520/3/6 524/3/6
f 525/5/6 526/5/6 529/5/6
f 529/5/6 526/5/6 530/5/6
f 527/5/6 528/5/6 531/5/6
f 531/5/6 528/5/6 532/5/6
f 533/3/6 534/3/6 537/3/6
f 537/3/6 534/3/6 538/3/6
f 535/3/6 536/3/6 539/3/6
f 539/3/6 536/3/6 540/3/6
f 541/5/6 542/5/6 547/5/6
f 547/5/6 542/5/6 548/5/6
f 543/1/6 544/1/6 549/1/6
f 549/1/6 544/1/6 550/1/6
f 545/5/6 546/5/6 551/5/6
f 551/5/6 546/5/6 552/5/6
f 553/5/6 554/5/6 557/5/6
f 557/5/6 554/5/6 558/5/6
f 555/5/6 556/5/6 559/5/6
f 559/5/6 556/5/6 560/5/6
f 561/5/6 562/5/6 565/5/6
f 565/5/6 562/5/6 566/5/6
f 563/5/6 564/5/6 567/5/6
f 567/5/6 564/5/6 568/5/6
f 561/5/6 565/5/6 569/5/6
f 569/5/6 565/5/6 570/5/6
f 568/5/6 564/5/6 571/5/6
f 571/5/6 564/5/6 572/5/6
f 573/5/6 574/5/6 577/5/6
f 577/5/6 574/5/6 578/5/6
f 575/5/6 576/5/6 581/5/6
f 581/5/6 576/5/6 582/5/6
f 579/5/6 580/5/6 583/5/6
f 583/5/6 580/5/6 584/5/6
f 585/5/6 586/5/6 588/5/6
f 588/5/6 586/5/6 589/5/6
f 587/5/6 588/5/6 591/5/6
f 589/5/6 590/5/6 591/5/6
f 588/5/6 589/5/6 591/5/6
f 591/5/6 590/5/6 592/5/6
f 592/5/6 590/5/6 593/5/6
f 593/5/6 590/5/6 594/5/6
f 592/5/6 593/5/6 595/5/6
f 595/5/6 593/5/6 596/5/6
