# MagicaVoxel @ Ephtracy

# group
o bread_slice

# material
mtllib tavern-57-bread_slice.mtl
usemtl palette

# normals
vn -1 0 0
vn 1 0 0
vn 0 0 1
vn 0 0 -1
vn 0 -1 0
vn 0 1 0

# texcoords
vt 0.287109 0.5
vt 0.294922 0.5

# verts
v 13.4 0 -1.1
v 13.4 0 -1.3
v 13.4 0.1 -1.1
v 13.4 0.1 -1.3
v 13.5 0 -1.3
v 13.5 0 -1.4
v 13.5 0.1 -1.3
v 13.5 0.1 -1.4
v 13.7 0 -1.3
v 13.7 0 -1.4
v 13.7 0.1 -1.3
v 13.7 0.1 -1.4
v 13.8 0 -1.1
v 13.8 0 -1.3
v 13.8 0.1 -1.1
v 13.8 0.1 -1.3
v 13.4 0 -1.1
v 13.4 0.1 -1.1
v 13.5 0 -1.1
v 13.5 0.1 -1.1
v 13.7 0 -1.1
v 13.7 0.1 -1.1
v 13.8 0 -1.1
v 13.8 0.1 -1.1
v 13.4 0 -1.3
v 13.4 0.1 -1.3
v 13.5 0 -1.3
v 13.5 0.1 -1.3
v 13.7 0 -1.3
v 13.7 0.1 -1.3
v 13.8 0 -1.3
v 13.8 0.1 -1.3
v 13.5 0 -1.4
v 13.5 0.1 -1.4
v 13.7 0 -1.4
v 13.7 0.1 -1.4
v 13.4 0 -1.1
v 13.5 0 -1.1
v 13.7 0 -1.1
v 13.8 0 -1.1
v 13.4 0 -1.3
v 13.5 0 -1.3
v 13.7 0 -1.3
v 13.8 0 -1.3
v 13.5 0 -1.4
v 13.7 0 -1.4
v 13.4 0.1 -1.1
v 13.5 0.1 -1.1
v 13.7 0.1 -1.1
v 13.8 0.1 -1.1
v 13.4 0.1 -1.3
v 13.5 0.1 -1.3
v 13.7 0.1 -1.3
v 13.8 0.1 -1.3
v 13.5 0.1 -1.4
v 13.7 0.1 -1.4

# faces
f 3/2/1 2/2/1 1/2/1
f 4/2/1 2/2/1 3/2/1
f 7/2/1 6/2/1 5/2/1
f 8/2/1 6/2/1 7/2/1
f 9/2/2 10/2/2 11/2/2
f 11/2/2 10/2/2 12/2/2
f 13/2/2 14/2/2 15/2/2
f 15/2/2 14/2/2 16/2/2
f 19/2/3 18/2/3 17/2/3
f 20/2/3 18/2/3 19/2/3
f 21/1/3 20/1/3 19/1/3
f 22/1/3 20/1/3 21/1/3
f 23/2/3 22/2/3 21/2/3
f 24/2/3 22/2/3 23/2/3
f 25/2/4 26/2/4 27/2/4
f 27/2/4 26/2/4 28/2/4
f 29/2/4 30/2/4 31/2/4
f 31/2/4 30/2/4 32/2/4
f 33/2/4 34/2/4 35/2/4
f 35/2/4 34/2/4 36/2/4
f 41/2/5 38/2/5 37/2/5
f 42/1/5 39/1/5 38/1/5
f 42/2/5 38/2/5 41/2/5
f 43/2/5 40/2/5 39/2/5
f 43/1/5 39/1/5 42/1/5
f 44/2/5 40/2/5 43/2/5
f 45/2/5 43/2/5 42/2/5
f 46/2/5 43/2/5 45/2/5
f 47/2/6 48/2/6 51/2/6
f 48/1/6 49/1/6 52/1/6
f 51/2/6 48/2/6 52/2/6
f 49/2/6 50/2/6 53/2/6
f 52/1/6 49/1/6 53/1/6
f 53/2/6 50/2/6 54/2/6
f 52/2/6 53/2/6 55/2/6
f 55/2/6 53/2/6 56/2/6
