# MagicaVoxel @ Ephtracy

# group
o floor_cornerwood

# material
mtllib tavern-74-floor_cornerwood.mtl
usemtl palette

# normals
vn 0 0 1
vn 0 0 -1
vn 1 0 0
vn -1 0 0
vn 0 -1 0
vn 0 1 0

# texcoords
vt 0.708984 0.5
vt 0.740234 0.5

# verts
v 3.2 0 -3.5
v 3 0 -3.5
v 2.8 0 -3.5
v 2.7 0 -3.5
v 3.2 0.1 -3.5
v 3.1 0.1 -3.5
v 3 0.1 -3.5
v 2.8 0.1 -3.5
v 2.9 0.2 -3.5
v 2.7 0.2 -3.5
v 3.2 0.3 -3.5
v 3.1 0.3 -3.5
v 2.9 0.3 -3.5
v 2.7 0.3 -3.5
v 3.2 0 -4
v 3 0 -4
v 2.9 0 -4
v 2.7 0 -4
v 3.2 0.1 -4
v 3.1 0.1 -4
v 2.9 0.1 -4
v 2.8 0.1 -4
v 3.2 0.2 -4
v 3.1 0.2 -4
v 3 0.2 -4
v 2.8 0.2 -4
v 2.7 0.2 -4
v 3.2 0.3 -4
v 3.1 0.3 -4
v 2.7 0.3 -4
v 3.2 0 -3.5
v 3.2 0.1 -3.5
v 3.2 0.3 -3.5
v 3.2 0.2 -3.6
v 3.2 0.3 -3.6
v 3.2 0.1 -3.7
v 3.2 0.2 -3.7
v 3.2 0.3 -3.7
v 3.2 0 -3.8
v 3.2 0.1 -3.8
v 3.2 0.2 -3.8
v 3.2 0.3 -3.8
v 3.2 0.2 -3.9
v 3.2 0.3 -3.9
v 3.2 0 -4
v 3.2 0.1 -4
v 3.2 0.2 -4
v 3.2 0.3 -4
v 2.7 0 -3.5
v 2.7 0.2 -3.5
v 2.7 0.3 -3.5
v 2.7 0 -3.6
v 2.7 0.1 -3.6
v 2.7 0.1 -3.7
v 2.7 0.2 -3.7
v 2.7 0.3 -3.7
v 2.7 0.1 -3.8
v 2.7 0.2 -3.8
v 2.7 0.3 -3.8
v 2.7 0.1 -3.9
v 2.7 0.2 -3.9
v 2.7 0.3 -3.9
v 2.7 0 -4
v 2.7 0.2 -4
v 2.7 0.3 -4
v 3.2 0 -3.5
v 3.2 0 -3.8
v 3.2 0 -4
v 3.1 0 -3.6
v 3.1 0 -3.7
v 3.1 0 -3.8
v 3.1 0 -3.9
v 3 0 -3.5
v 3 0 -3.6
v 3 0 -3.7
v 3 0 -3.8
v 3 0 -3.9
v 3 0 -4
v 2.9 0 -3.6
v 2.9 0 -3.7
v 2.9 0 -3.8
v 2.9 0 -4
v 2.8 0 -3.5
v 2.8 0 -3.6
v 2.8 0 -3.7
v 2.8 0 -3.8
v 2.7 0 -3.5
v 2.7 0 -3.6
v 2.7 0 -4
v 3.2 0.3 -3.5
v 3.2 0.3 -3.6
v 3.2 0.3 -3.7
v 3.2 0.3 -3.8
v 3.2 0.3 -3.9
v 3.2 0.3 -4
v 3.1 0.3 -3.5
v 3.1 0.3 -3.6
v 3.1 0.3 -3.7
v 3.1 0.3 -3.8
v 3.1 0.3 -3.9
v 3.1 0.3 -4
v 3 0.3 -3.6
v 3 0.3 -3.7
v 3 0.3 -3.8
v 3 0.3 -3.9
v 2.9 0.3 -3.5
v 2.9 0.3 -3.9
v 2.8 0.3 -3.7
v 2.8 0.3 -3.8
v 2.7 0.3 -3.5
v 2.7 0.3 -3.7
v 2.7 0.3 -3.8
v 2.7 0.3 -3.9
v 2.7 0.3 -4

# faces
f 5/2/1 2/2/1 1/2/1
f 6/2/1 2/2/1 5/2/1
f 7/1/1 3/1/1 2/1/1
f 7/2/1 2/2/1 6/2/1
f 8/2/1 4/2/1 3/2/1
f 8/1/1 3/1/1 7/1/1
f 9/2/1 7/2/1 6/2/1
f 9/2/1 8/2/1 7/2/1
f 10/2/1 4/2/1 8/2/1
f 10/2/1 8/2/1 9/2/1
f 11/1/1 6/1/1 5/1/1
f 12/2/1 9/2/1 6/2/1
f 12/1/1 6/1/1 11/1/1
f 13/1/1 10/1/1 9/1/1
f 13/2/1 9/2/1 12/2/1
f 14/1/1 10/1/1 13/1/1
f 15/1/2 16/1/2 19/1/2
f 19/1/2 16/1/2 20/1/2
f 17/1/2 18/1/2 21/1/2
f 16/2/2 17/2/2 21/2/2
f 21/1/2 18/1/2 22/1/2
f 19/2/2 20/2/2 23/2/2
f 20/1/2 16/1/2 24/1/2
f 23/2/2 20/2/2 24/2/2
f 16/2/2 21/2/2 25/2/2
f 24/1/2 16/1/2 25/1/2
f 21/2/2 22/2/2 25/2/2
f 22/1/2 18/1/2 26/1/2
f 25/2/2 22/2/2 26/2/2
f 26/1/2 18/1/2 27/1/2
f 23/1/2 24/1/2 28/1/2
f 24/2/2 25/2/2 29/2/2
f 28/1/2 24/1/2 29/1/2
f 25/2/2 26/2/2 29/2/2
f 26/2/2 27/2/2 29/2/2
f 29/2/2 27/2/2 30/2/2
f 34/1/3 33/1/3 32/1/3
f 35/1/3 33/1/3 34/1/3
f 36/2/3 32/2/3 31/2/3
f 36/1/3 34/1/3 32/1/3
f 37/2/3 35/2/3 34/2/3
f 37/1/3 34/1/3 36/1/3
f 38/2/3 35/2/3 37/2/3
f 39/2/3 36/2/3 31/2/3
f 39/2/3 37/2/3 36/2/3
f 40/2/3 37/2/3 39/2/3
f 41/1/3 38/1/3 37/1/3
f 41/2/3 37/2/3 40/2/3
f 42/1/3 38/1/3 41/1/3
f 43/2/3 41/2/3 40/2/3
f 43/2/3 42/2/3 41/2/3
f 44/2/3 42/2/3 43/2/3
f 45/1/3 40/1/3 39/1/3
f 46/2/3 43/2/3 40/2/3
f 46/1/3 40/1/3 45/1/3
f 47/1/3 44/1/3 43/1/3
f 47/2/3 43/2/3 46/2/3
f 48/1/3 44/1/3 47/1/3
f 49/2/4 50/2/4 52/2/4
f 52/2/4 50/2/4 53/2/4
f 52/1/4 53/1/4 54/1/4
f 53/2/4 50/2/4 54/2/4
f 50/1/4 51/1/4 55/1/4
f 54/2/4 50/2/4 55/2/4
f 55/1/4 51/1/4 56/1/4
f 52/1/4 54/1/4 57/1/4
f 54/1/4 55/1/4 57/1/4
f 55/2/4 56/2/4 58/2/4
f 57/1/4 55/1/4 58/1/4
f 58/2/4 56/2/4 59/2/4
f 52/1/4 57/1/4 60/1/4
f 57/2/4 58/2/4 60/2/4
f 58/1/4 59/1/4 61/1/4
f 60/2/4 58/2/4 61/2/4
f 61/1/4 59/1/4 62/1/4
f 52/1/4 60/1/4 63/1/4
f 60/1/4 61/1/4 63/1/4
f 61/2/4 62/2/4 64/2/4
f 63/1/4 61/1/4 64/1/4
f 64/2/4 62/2/4 65/2/4
f 69/2/5 67/2/5 66/2/5
f 70/2/5 67/2/5 69/2/5
f 71/1/5 68/1/5 67/1/5
f 71/2/5 67/2/5 70/2/5
f 72/1/5 68/1/5 71/1/5
f 73/2/5 69/2/5 66/2/5
f 74/1/5 70/1/5 69/1/5
f 74/2/5 69/2/5 73/2/5
f 75/2/5 71/2/5 70/2/5
f 75/1/5 70/1/5 74/1/5
f 75/2/5 72/2/5 71/2/5
f 76/2/5 72/2/5 75/2/5
f 77/1/5 68/1/5 72/1/5
f 77/2/5 72/2/5 76/2/5
f 78/1/5 68/1/5 77/1/5
f 79/1/5 74/1/5 73/1/5
f 79/2/5 75/2/5 74/2/5
f 80/1/5 76/1/5 75/1/5
f 80/2/5 75/2/5 79/2/5
f 81/2/5 78/2/5 77/2/5
f 81/1/5 76/1/5 80/1/5
f 81/2/5 77/2/5 76/2/5
f 82/2/5 78/2/5 81/2/5
f 83/1/5 79/1/5 73/1/5
f 83/1/5 80/1/5 79/1/5
f 84/1/5 80/1/5 83/1/5
f 85/2/5 81/2/5 80/2/5
f 85/1/5 80/1/5 84/1/5
f 86/1/5 82/1/5 81/1/5
f 86/2/5 81/2/5 85/2/5
f 87/2/5 84/2/5 83/2/5
f 88/1/5 85/1/5 84/1/5
f 88/2/5 84/2/5 87/2/5
f 88/1/5 86/1/5 85/1/5
f 89/1/5 82/1/5 86/1/5
f 89/1/5 86/1/5 88/1/5
f 90/1/6 91/1/6 96/1/6
f 91/2/6 92/2/6 97/2/6
f 96/1/6 91/1/6 97/1/6
f 92/1/6 93/1/6 98/1/6
f 97/2/6 92/2/6 98/2/6
f 93/2/6 94/2/6 99/2/6
f 98/1/6 93/1/6 99/1/6
f 94/1/6 95/1/6 100/1/6
f 99/2/6 94/2/6 100/2/6
f 100/1/6 95/1/6 101/1/6
f 96/2/6 97/2/6 102/2/6
f 97/1/6 98/1/6 102/1/6
f 98/2/6 99/2/6 103/2/6
f 102/1/6 98/1/6 103/1/6
f 99/1/6 100/1/6 104/1/6
f 103/2/6 99/2/6 104/2/6
f 100/2/6 101/2/6 105/2/6
f 104/1/6 100/1/6 105/1/6
f 96/2/6 102/2/6 106/2/6
f 103/2/6 104/2/6 106/2/6
f 104/2/6 105/2/6 106/2/6
f 102/2/6 103/2/6 106/2/6
f 105/2/6 101/2/6 107/2/6
f 106/2/6 105/2/6 107/2/6
f 106/1/6 107/1/6 108/1/6
f 108/1/6 107/1/6 109/1/6
f 106/1/6 108/1/6 110/1/6
f 108/2/6 109/2/6 111/2/6
f 110/1/6 108/1/6 111/1/6
f 109/1/6 107/1/6 112/1/6
f 111/2/6 109/2/6 112/2/6
f 107/2/6 101/2/6 113/2/6
f 112/1/6 107/1/6 113/1/6
f 113/2/6 101/2/6 114/2/6
