# MagicaVoxel @ Ephtracy

# group
o cake

# material
mtllib tavern-56-cake.mtl
usemtl palette

# normals
vn -1 0 0
vn 1 0 0
vn 0 0 1
vn 0 0 -1
vn 0 -1 0
vn 0 1 0

# texcoords
vt 0.115234 0.5
vt 0.357422 0.5
vt 0.705078 0.5
vt 0.958984 0.5

# verts
v 14.4 0 0.7
v 14.4 0 0.4
v 14.4 0.2 0.7
v 14.4 0.2 0.6
v 14.4 0.2 0.5
v 14.4 0.2 0.4
v 14.4 0.3 0.7
v 14.4 0.3 0.6
v 14.4 0.3 0.5
v 14.4 0.3 0.4
v 14.5 0 0.8
v 14.5 0 0.7
v 14.5 0 0.4
v 14.5 0 0.3
v 14.5 0.2 0.8
v 14.5 0.2 0.7
v 14.5 0.2 0.4
v 14.5 0.2 0.3
v 14.5 0.3 0.8
v 14.5 0.3 0.7
v 14.5 0.3 0.4
v 14.5 0.3 0.3
v 14.6 0.3 0.6
v 14.6 0.3 0.5
v 14.6 0.5 0.6
v 14.6 0.5 0.5
v 14.7 0.3 0.6
v 14.7 0.3 0.5
v 14.7 0.5 0.6
v 14.7 0.5 0.5
v 14.8 0 0.8
v 14.8 0 0.7
v 14.8 0 0.4
v 14.8 0 0.3
v 14.8 0.2 0.8
v 14.8 0.2 0.7
v 14.8 0.2 0.4
v 14.8 0.2 0.3
v 14.8 0.3 0.8
v 14.8 0.3 0.7
v 14.8 0.3 0.4
v 14.8 0.3 0.3
v 14.9 0 0.7
v 14.9 0 0.4
v 14.9 0.2 0.7
v 14.9 0.2 0.4
v 14.9 0.3 0.7
v 14.9 0.3 0.4
v 14.5 0 0.8
v 14.5 0.2 0.8
v 14.5 0.3 0.8
v 14.7 0.2 0.8
v 14.7 0.3 0.8
v 14.8 0 0.8
v 14.8 0.2 0.8
v 14.8 0.3 0.8
v 14.4 0 0.7
v 14.4 0.2 0.7
v 14.4 0.3 0.7
v 14.5 0 0.7
v 14.5 0.2 0.7
v 14.5 0.3 0.7
v 14.8 0 0.7
v 14.8 0.2 0.7
v 14.8 0.3 0.7
v 14.9 0 0.7
v 14.9 0.2 0.7
v 14.9 0.3 0.7
v 14.6 0.3 0.6
v 14.6 0.5 0.6
v 14.7 0.3 0.6
v 14.7 0.5 0.6
v 14.6 0.3 0.5
v 14.6 0.5 0.5
v 14.7 0.3 0.5
v 14.7 0.5 0.5
v 14.4 0 0.4
v 14.4 0.2 0.4
v 14.4 0.3 0.4
v 14.5 0 0.4
v 14.5 0.2 0.4
v 14.5 0.3 0.4
v 14.8 0 0.4
v 14.8 0.2 0.4
v 14.8 0.3 0.4
v 14.9 0 0.4
v 14.9 0.2 0.4
v 14.9 0.3 0.4
v 14.5 0 0.3
v 14.5 0.2 0.3
v 14.5 0.3 0.3
v 14.6 0.2 0.3
v 14.6 0.3 0.3
v 14.8 0 0.3
v 14.8 0.2 0.3
v 14.8 0.3 0.3
v 14.5 0 0.8
v 14.8 0 0.8
v 14.4 0 0.7
v 14.5 0 0.7
v 14.8 0 0.7
v 14.9 0 0.7
v 14.4 0 0.4
v 14.5 0 0.4
v 14.8 0 0.4
v 14.9 0 0.4
v 14.5 0 0.3
v 14.8 0 0.3
v 14.5 0.3 0.8
v 14.7 0.3 0.8
v 14.8 0.3 0.8
v 14.4 0.3 0.7
v 14.5 0.3 0.7
v 14.6 0.3 0.7
v 14.7 0.3 0.7
v 14.8 0.3 0.7
v 14.9 0.3 0.7
v 14.4 0.3 0.6
v 14.5 0.3 0.6
v 14.6 0.3 0.6
v 14.7 0.3 0.6
v 14.4 0.3 0.5
v 14.5 0.3 0.5
v 14.6 0.3 0.5
v 14.7 0.3 0.5
v 14.8 0.3 0.5
v 14.4 0.3 0.4
v 14.5 0.3 0.4
v 14.6 0.3 0.4
v 14.7 0.3 0.4
v 14.8 0.3 0.4
v 14.9 0.3 0.4
v 14.5 0.3 0.3
v 14.6 0.3 0.3
v 14.8 0.3 0.3
v 14.6 0.5 0.6
v 14.7 0.5 0.6
v 14.6 0.5 0.5
v 14.7 0.5 0.5

# faces
f 3/2/1 2/2/1 1/2/1
f 4/2/1 2/2/1 3/2/1
f 5/2/1 2/2/1 4/2/1
f 6/2/1 2/2/1 5/2/1
f 7/4/1 4/4/1 3/4/1
f 8/1/1 5/1/1 4/1/1
f 8/4/1 4/4/1 7/4/1
f 9/4/1 6/4/1 5/4/1
f 9/1/1 5/1/1 8/1/1
f 10/4/1 6/4/1 9/4/1
f 15/2/1 12/2/1 11/2/1
f 16/2/1 12/2/1 15/2/1
f 17/2/1 14/2/1 13/2/1
f 18/2/1 14/2/1 17/2/1
f 19/4/1 16/4/1 15/4/1
f 20/4/1 16/4/1 19/4/1
f 21/1/1 18/1/1 17/1/1
f 22/1/1 18/1/1 21/1/1
f 25/3/1 24/3/1 23/3/1
f 26/3/1 24/3/1 25/3/1
f 27/3/2 28/3/2 29/3/2
f 29/3/2 28/3/2 30/3/2
f 31/2/2 32/2/2 35/2/2
f 35/2/2 32/2/2 36/2/2
f 33/2/2 34/2/2 37/2/2
f 37/2/2 34/2/2 38/2/2
f 35/1/2 36/1/2 39/1/2
f 39/1/2 36/1/2 40/1/2
f 37/4/2 38/4/2 41/4/2
f 41/4/2 38/4/2 42/4/2
f 43/2/2 44/2/2 45/2/2
f 45/2/2 44/2/2 46/2/2
f 45/4/2 46/4/2 47/4/2
f 47/4/2 46/4/2 48/4/2
f 52/2/3 50/2/3 49/2/3
f 52/4/3 51/4/3 50/4/3
f 53/4/3 51/4/3 52/4/3
f 54/2/3 52/2/3 49/2/3
f 55/1/3 53/1/3 52/1/3
f 55/2/3 52/2/3 54/2/3
f 56/1/3 53/1/3 55/1/3
f 60/2/3 58/2/3 57/2/3
f 61/4/3 59/4/3 58/4/3
f 61/2/3 58/2/3 60/2/3
f 62/4/3 59/4/3 61/4/3
f 66/2/3 64/2/3 63/2/3
f 67/4/3 65/4/3 64/4/3
f 67/2/3 64/2/3 66/2/3
f 68/4/3 65/4/3 67/4/3
f 71/3/3 70/3/3 69/3/3
f 72/3/3 70/3/3 71/3/3
f 73/3/4 74/3/4 75/3/4
f 75/3/4 74/3/4 76/3/4
f 77/2/4 78/2/4 80/2/4
f 78/4/4 79/4/4 81/4/4
f 80/2/4 78/2/4 81/2/4
f 81/4/4 79/4/4 82/4/4
f 83/2/4 84/2/4 86/2/4
f 84/4/4 85/4/4 87/4/4
f 86/2/4 84/2/4 87/2/4
f 87/4/4 85/4/4 88/4/4
f 89/2/4 90/2/4 92/2/4
f 90/1/4 91/1/4 92/1/4
f 92/1/4 91/1/4 93/1/4
f 89/2/4 92/2/4 94/2/4
f 92/4/4 93/4/4 95/4/4
f 94/2/4 92/2/4 95/2/4
f 95/4/4 93/4/4 96/4/4
f 100/2/5 98/2/5 97/2/5
f 101/2/5 98/2/5 100/2/5
f 103/2/5 100/2/5 99/2/5
f 103/2/5 102/2/5 101/2/5
f 103/2/5 101/2/5 100/2/5
f 104/2/5 102/2/5 103/2/5
f 105/2/5 102/2/5 104/2/5
f 106/2/5 102/2/5 105/2/5
f 107/2/5 105/2/5 104/2/5
f 108/2/5 105/2/5 107/2/5
f 109/4/6 110/4/6 113/4/6
f 113/4/6 110/4/6 114/4/6
f 110/1/6 111/1/6 115/1/6
f 114/4/6 110/4/6 115/4/6
f 115/1/6 111/1/6 116/1/6
f 113/4/6 114/4/6 118/4/6
f 112/4/6 113/4/6 118/4/6
f 118/4/6 114/4/6 119/4/6
f 114/1/6 115/1/6 120/1/6
f 119/4/6 114/4/6 120/4/6
f 116/4/6 117/4/6 121/4/6
f 120/1/6 115/1/6 121/1/6
f 115/4/6 116/4/6 121/4/6
f 118/1/6 119/1/6 122/1/6
f 119/4/6 120/4/6 123/4/6
f 122/1/6 119/1/6 123/1/6
f 123/4/6 120/4/6 124/4/6
f 121/4/6 117/4/6 125/4/6
f 125/4/6 117/4/6 126/4/6
f 123/4/6 124/4/6 127/4/6
f 122/4/6 123/4/6 127/4/6
f 124/4/6 125/4/6 127/4/6
f 127/4/6 125/4/6 128/4/6
f 128/4/6 125/4/6 129/4/6
f 125/1/6 126/1/6 130/1/6
f 129/4/6 125/4/6 130/4/6
f 126/4/6 117/4/6 131/4/6
f 130/1/6 126/1/6 131/1/6
f 131/4/6 117/4/6 132/4/6
f 128/1/6 129/1/6 133/1/6
f 129/4/6 130/4/6 134/4/6
f 133/1/6 129/1/6 134/1/6
f 130/4/6 131/4/6 134/4/6
f 134/4/6 131/4/6 135/4/6
f 136/3/6 137/3/6 138/3/6
f 138/3/6 137/3/6 139/3/6
