# MagicaVoxel @ Ephtracy

# group
o chair

# material
mtllib tavern-46-chair.mtl
usemtl palette

# normals
vn 1 0 0
vn -1 0 0
vn 0 0 -1
vn 0 0 1
vn 0 -1 0
vn 0 1 0

# texcoords
vt 0.712891 0.5
vt 0.736328 0.5

# verts
v 8 0.2 -0.4
v 8 0.2 -0.1
v 8 0.3 -0.5
v 8 0.3 -0.4
v 8 0.3 -0.1
v 8 0.6 -0.5
v 8 0.6 -0.4
v 7.9 0 -0.4
v 7.9 0 -0.3
v 7.9 0 -0.2
v 7.9 0 -0.1
v 7.9 0.1 -0.4
v 7.9 0.1 -0.3
v 7.9 0.2 -0.5
v 7.9 0.2 -0.4
v 7.9 0.2 -0.3
v 7.9 0.2 -0.2
v 7.9 0.2 -0.1
v 7.9 0.2 0
v 7.9 0.3 -0.5
v 7.9 0.3 -0.4
v 7.9 0.3 -0.1
v 7.9 0.3 0
v 7.9 0.6 -0.5
v 7.9 0.6 -0.4
v 7.9 0.7 -0.5
v 7.9 0.7 -0.4
v 7.7 0 -0.4
v 7.7 0 -0.3
v 7.7 0 -0.2
v 7.7 0 -0.1
v 7.7 0.1 -0.4
v 7.7 0.1 -0.3
v 7.7 0.2 -0.4
v 7.7 0.2 -0.3
v 7.7 0.2 -0.2
v 7.7 0.2 -0.1
v 7.8 0 -0.4
v 7.8 0 -0.3
v 7.8 0 -0.2
v 7.8 0 -0.1
v 7.8 0.1 -0.4
v 7.8 0.1 -0.3
v 7.8 0.2 -0.4
v 7.8 0.2 -0.3
v 7.8 0.2 -0.2
v 7.8 0.2 -0.1
v 7.6 0 -0.4
v 7.6 0 -0.3
v 7.6 0 -0.2
v 7.6 0 -0.1
v 7.6 0.1 -0.4
v 7.6 0.1 -0.3
v 7.6 0.2 -0.5
v 7.6 0.2 -0.4
v 7.6 0.2 -0.3
v 7.6 0.2 -0.2
v 7.6 0.2 -0.1
v 7.6 0.2 0
v 7.6 0.3 -0.5
v 7.6 0.3 -0.4
v 7.6 0.3 -0.1
v 7.6 0.3 0
v 7.6 0.6 -0.5
v 7.6 0.6 -0.4
v 7.6 0.7 -0.5
v 7.6 0.7 -0.4
v 7.5 0.2 -0.4
v 7.5 0.2 -0.1
v 7.5 0.3 -0.5
v 7.5 0.3 -0.4
v 7.5 0.3 -0.1
v 7.5 0.5 -0.5
v 7.5 0.5 -0.4
v 7.5 0.6 -0.5
v 7.5 0.6 -0.4
v 8 0.3 -0.5
v 8 0.6 -0.5
v 7.9 0.2 -0.5
v 7.9 0.3 -0.5
v 7.9 0.4 -0.5
v 7.9 0.5 -0.5
v 7.9 0.6 -0.5
v 7.9 0.7 -0.5
v 7.8 0.3 -0.5
v 7.8 0.4 -0.5
v 7.8 0.5 -0.5
v 7.8 0.7 -0.5
v 7.7 0.2 -0.5
v 7.7 0.3 -0.5
v 7.7 0.4 -0.5
v 7.7 0.6 -0.5
v 7.6 0.2 -0.5
v 7.6 0.3 -0.5
v 7.6 0.4 -0.5
v 7.6 0.5 -0.5
v 7.6 0.6 -0.5
v 7.6 0.7 -0.5
v 7.5 0.3 -0.5
v 7.5 0.5 -0.5
v 7.5 0.6 -0.5
v 8 0.2 -0.4
v 8 0.3 -0.4
v 7.9 0 -0.4
v 7.9 0.1 -0.4
v 7.9 0.2 -0.4
v 7.9 0.3 -0.4
v 7.8 0 -0.4
v 7.8 0.1 -0.4
v 7.8 0.2 -0.4
v 7.7 0 -0.4
v 7.7 0.1 -0.4
v 7.7 0.2 -0.4
v 7.6 0 -0.4
v 7.6 0.1 -0.4
v 7.6 0.2 -0.4
v 7.6 0.3 -0.4
v 7.5 0.2 -0.4
v 7.5 0.3 -0.4
v 7.9 0 -0.2
v 7.9 0.2 -0.2
v 7.8 0 -0.2
v 7.8 0.2 -0.2
v 7.7 0 -0.2
v 7.7 0.2 -0.2
v 7.6 0 -0.2
v 7.6 0.2 -0.2
v 8 0.3 -0.4
v 8 0.6 -0.4
v 7.9 0.3 -0.4
v 7.9 0.4 -0.4
v 7.9 0.5 -0.4
v 7.9 0.6 -0.4
v 7.9 0.7 -0.4
v 7.8 0.3 -0.4
v 7.8 0.4 -0.4
v 7.8 0.5 -0.4
v 7.8 0.7 -0.4
v 7.7 0.4 -0.4
v 7.7 0.6 -0.4
v 7.6 0.3 -0.4
v 7.6 0.4 -0.4
v 7.6 0.5 -0.4
v 7.6 0.6 -0.4
v 7.6 0.7 -0.4
v 7.5 0.3 -0.4
v 7.5 0.5 -0.4
v 7.5 0.6 -0.4
v 7.9 0 -0.3
v 7.9 0.1 -0.3
v 7.9 0.2 -0.3
v 7.8 0 -0.3
v 7.8 0.1 -0.3
v 7.8 0.2 -0.3
v 7.7 0 -0.3
v 7.7 0.1 -0.3
v 7.7 0.2 -0.3
v 7.6 0 -0.3
v 7.6 0.1 -0.3
v 7.6 0.2 -0.3
v 8 0.2 -0.1
v 8 0.3 -0.1
v 7.9 0 -0.1
v 7.9 0.2 -0.1
v 7.9 0.3 -0.1
v 7.8 0 -0.1
v 7.8 0.2 -0.1
v 7.7 0 -0.1
v 7.7 0.2 -0.1
v 7.6 0 -0.1
v 7.6 0.2 -0.1
v 7.6 0.3 -0.1
v 7.5 0.2 -0.1
v 7.5 0.3 -0.1
v 7.9 0.2 0
v 7.9 0.3 0
v 7.8 0.2 0
v 7.8 0.3 0
v 7.7 0.2 0
v 7.7 0.3 0
v 7.6 0.2 0
v 7.6 0.3 0
v 7.9 0 -0.4
v 7.8 0 -0.4
v 7.7 0 -0.4
v 7.6 0 -0.4
v 7.9 0 -0.3
v 7.8 0 -0.3
v 7.7 0 -0.3
v 7.6 0 -0.3
v 7.9 0 -0.2
v 7.8 0 -0.2
v 7.7 0 -0.2
v 7.6 0 -0.2
v 7.9 0 -0.1
v 7.8 0 -0.1
v 7.7 0 -0.1
v 7.6 0 -0.1
v 7.9 0.2 -0.5
v 7.7 0.2 -0.5
v 7.6 0.2 -0.5
v 8 0.2 -0.4
v 7.9 0.2 -0.4
v 7.8 0.2 -0.4
v 7.7 0.2 -0.4
v 7.6 0.2 -0.4
v 7.5 0.2 -0.4
v 7.9 0.2 -0.3
v 7.8 0.2 -0.3
v 7.7 0.2 -0.3
v 7.6 0.2 -0.3
v 7.9 0.2 -0.2
v 7.8 0.2 -0.2
v 7.7 0.2 -0.2
v 7.6 0.2 -0.2
v 8 0.2 -0.1
v 7.9 0.2 -0.1
v 7.8 0.2 -0.1
v 7.7 0.2 -0.1
v 7.6 0.2 -0.1
v 7.5 0.2 -0.1
v 7.9 0.2 0
v 7.8 0.2 0
v 7.7 0.2 0
v 7.6 0.2 0
v 8 0.3 -0.5
v 7.9 0.3 -0.5
v 7.6 0.3 -0.5
v 7.5 0.3 -0.5
v 8 0.3 -0.4
v 7.9 0.3 -0.4
v 7.6 0.3 -0.4
v 7.5 0.3 -0.4
v 8 0.3 -0.4
v 7.9 0.3 -0.4
v 7.8 0.3 -0.4
v 7.6 0.3 -0.4
v 7.5 0.3 -0.4
v 7.8 0.3 -0.3
v 7.6 0.3 -0.3
v 7.8 0.3 -0.2
v 7.6 0.3 -0.2
v 8 0.3 -0.1
v 7.9 0.3 -0.1
v 7.7 0.3 -0.1
v 7.6 0.3 -0.1
v 7.5 0.3 -0.1
v 7.9 0.3 0
v 7.8 0.3 0
v 7.7 0.3 0
v 7.6 0.3 0
v 8 0.6 -0.5
v 7.9 0.6 -0.5
v 7.6 0.6 -0.5
v 7.5 0.6 -0.5
v 8 0.6 -0.4
v 7.9 0.6 -0.4
v 7.6 0.6 -0.4
v 7.5 0.6 -0.4
v 7.9 0.7 -0.5
v 7.8 0.7 -0.5
v 7.6 0.7 -0.5
v 7.9 0.7 -0.4
v 7.8 0.7 -0.4
v 7.6 0.7 -0.4

# faces
f 4/1/1 2/1/1 1/1/1
f 5/1/1 2/1/1 4/1/1
f 6/2/1 4/2/1 3/2/1
f 7/2/1 4/2/1 6/2/1
f 12/1/1 9/1/1 8/1/1
f 13/1/1 9/1/1 12/1/1
f 15/2/1 13/2/1 12/2/1
f 16/2/1 13/2/1 15/2/1
f 17/1/1 11/1/1 10/1/1
f 18/1/1 11/1/1 17/1/1
f 20/2/1 15/2/1 14/2/1
f 21/2/1 15/2/1 20/2/1
f 22/2/1 19/2/1 18/2/1
f 23/2/1 19/2/1 22/2/1
f 26/1/1 25/1/1 24/1/1
f 27/1/1 25/1/1 26/1/1
f 32/2/1 29/2/1 28/2/1
f 33/2/1 29/2/1 32/2/1
f 34/1/1 33/1/1 32/1/1
f 35/1/1 33/1/1 34/1/1
f 36/2/1 31/2/1 30/2/1
f 37/2/1 31/2/1 36/2/1
f 38/1/2 39/1/2 42/1/2
f 42/1/2 39/1/2 43/1/2
f 42/2/2 43/2/2 44/2/2
f 44/2/2 43/2/2 45/2/2
f 40/1/2 41/1/2 46/1/2
f 46/1/2 41/1/2 47/1/2
f 48/2/2 49/2/2 52/2/2
f 52/2/2 49/2/2 53/2/2
f 52/1/2 53/1/2 55/1/2
f 55/1/2 53/1/2 56/1/2
f 50/2/2 51/2/2 57/2/2
f 57/2/2 51/2/2 58/2/2
f 54/1/2 55/1/2 60/1/2
f 60/1/2 55/1/2 61/1/2
f 58/2/2 59/2/2 62/2/2
f 62/2/2 59/2/2 63/2/2
f 64/2/2 65/2/2 66/2/2
f 66/2/2 65/2/2 67/2/2
f 68/1/2 69/1/2 71/1/2
f 71/1/2 69/1/2 72/1/2
f 70/1/2 71/1/2 73/1/2
f 73/1/2 71/1/2 74/1/2
f 73/2/2 74/2/2 75/2/2
f 75/2/2 74/2/2 76/2/2
f 80/2/3 78/2/3 77/2/3
f 81/2/3 78/2/3 80/2/3
f 82/2/3 78/2/3 81/2/3
f 83/2/3 78/2/3 82/2/3
f 85/2/3 80/2/3 79/2/3
f 85/1/3 81/1/3 80/1/3
f 86/2/3 82/2/3 81/2/3
f 86/1/3 81/1/3 85/1/3
f 87/1/3 84/1/3 83/1/3
f 87/2/3 82/2/3 86/2/3
f 87/1/3 83/1/3 82/1/3
f 88/1/3 84/1/3 87/1/3
f 89/2/3 86/2/3 85/2/3
f 89/2/3 85/2/3 79/2/3
f 89/2/3 88/2/3 87/2/3
f 89/2/3 87/2/3 86/2/3
f 90/2/3 88/2/3 89/2/3
f 91/2/3 88/2/3 90/2/3
f 92/2/3 88/2/3 91/2/3
f 93/1/3 90/1/3 89/1/3
f 94/2/3 91/2/3 90/2/3
f 94/1/3 90/1/3 93/1/3
f 95/1/3 92/1/3 91/1/3
f 95/2/3 91/2/3 94/2/3
f 96/1/3 92/1/3 95/1/3
f 97/2/3 88/2/3 92/2/3
f 97/1/3 92/1/3 96/1/3
f 98/2/3 88/2/3 97/2/3
f 99/1/3 96/1/3 95/1/3
f 99/1/3 95/1/3 94/1/3
f 100/2/3 97/2/3 96/2/3
f 100/1/3 96/1/3 99/1/3
f 101/2/3 97/2/3 100/2/3
f 106/1/3 103/1/3 102/1/3
f 107/1/3 103/1/3 106/1/3
f 108/1/3 105/1/3 104/1/3
f 109/2/3 106/2/3 105/2/3
f 109/1/3 105/1/3 108/1/3
f 110/2/3 106/2/3 109/2/3
f 114/2/3 112/2/3 111/2/3
f 115/1/3 113/1/3 112/1/3
f 115/2/3 112/2/3 114/2/3
f 116/1/3 113/1/3 115/1/3
f 118/1/3 117/1/3 116/1/3
f 119/1/3 117/1/3 118/1/3
f 122/1/3 121/1/3 120/1/3
f 123/1/3 121/1/3 122/1/3
f 126/2/3 125/2/3 124/2/3
f 127/2/3 125/2/3 126/2/3
f 128/2/4 129/2/4 130/2/4
f 130/2/4 129/2/4 131/2/4
f 131/2/4 129/2/4 132/2/4
f 132/2/4 129/2/4 133/2/4
f 130/1/4 131/1/4 135/1/4
f 131/2/4 132/2/4 136/2/4
f 135/1/4 131/1/4 136/1/4
f 133/1/4 134/1/4 137/1/4
f 136/2/4 132/2/4 137/2/4
f 132/1/4 133/1/4 137/1/4
f 137/1/4 134/1/4 138/1/4
f 135/2/4 136/2/4 139/2/4
f 136/2/4 137/2/4 139/2/4
f 137/2/4 138/2/4 139/2/4
f 139/2/4 138/2/4 140/2/4
f 135/2/4 139/2/4 141/2/4
f 139/1/4 140/1/4 142/1/4
f 141/2/4 139/2/4 142/2/4
f 142/1/4 140/1/4 143/1/4
f 140/2/4 138/2/4 144/2/4
f 143/1/4 140/1/4 144/1/4
f 144/2/4 138/2/4 145/2/4
f 142/1/4 143/1/4 146/1/4
f 141/1/4 142/1/4 146/1/4
f 143/2/4 144/2/4 147/2/4
f 146/1/4 143/1/4 147/1/4
f 147/2/4 144/2/4 148/2/4
f 149/1/4 150/1/4 152/1/4
f 150/2/4 151/2/4 153/2/4
f 152/1/4 150/1/4 153/1/4
f 153/2/4 151/2/4 154/2/4
f 155/2/4 156/2/4 158/2/4
f 156/1/4 157/1/4 159/1/4
f 158/2/4 156/2/4 159/2/4
f 159/1/4 157/1/4 160/1/4
f 161/1/4 162/1/4 164/1/4
f 164/1/4 162/1/4 165/1/4
f 163/1/4 164/1/4 166/1/4
f 166/1/4 164/1/4 167/1/4
f 168/2/4 169/2/4 170/2/4
f 170/2/4 169/2/4 171/2/4
f 171/1/4 172/1/4 173/1/4
f 173/1/4 172/1/4 174/1/4
f 175/2/4 176/2/4 177/2/4
f 177/2/4 176/2/4 178/2/4
f 177/1/4 178/1/4 179/1/4
f 179/1/4 178/1/4 180/1/4
f 179/2/4 180/2/4 181/2/4
f 181/2/4 180/2/4 182/2/4
f 187/1/5 184/1/5 183/1/5
f 188/1/5 184/1/5 187/1/5
f 189/2/5 186/2/5 185/2/5
f 190/2/5 186/2/5 189/2/5
f 195/1/5 192/1/5 191/1/5
f 196/1/5 192/1/5 195/1/5
f 197/2/5 194/2/5 193/2/5
f 198/2/5 194/2/5 197/2/5
f 203/2/5 200/2/5 199/2/5
f 204/2/5 200/2/5 203/2/5
f 205/1/5 201/1/5 200/1/5
f 205/2/5 200/2/5 204/2/5
f 206/1/5 201/1/5 205/1/5
f 208/1/5 203/1/5 202/1/5
f 209/1/5 205/1/5 204/1/5
f 210/1/5 205/1/5 209/1/5
f 211/1/5 207/1/5 206/1/5
f 212/2/5 210/2/5 209/2/5
f 212/2/5 211/2/5 210/2/5
f 212/1/5 208/1/5 202/1/5
f 212/2/5 209/2/5 208/2/5
f 213/2/5 211/2/5 212/2/5
f 214/2/5 211/2/5 213/2/5
f 215/1/5 207/1/5 211/1/5
f 215/2/5 211/2/5 214/2/5
f 216/1/5 212/1/5 202/1/5
f 217/1/5 212/1/5 216/1/5
f 218/1/5 214/1/5 213/1/5
f 219/1/5 214/1/5 218/1/5
f 220/1/5 207/1/5 215/1/5
f 221/1/5 207/1/5 220/1/5
f 222/2/5 218/2/5 217/2/5
f 223/1/5 219/1/5 218/1/5
f 223/2/5 218/2/5 222/2/5
f 224/2/5 220/2/5 219/2/5
f 224/1/5 219/1/5 223/1/5
f 225/2/5 220/2/5 224/2/5
f 230/2/5 227/2/5 226/2/5
f 231/2/5 227/2/5 230/2/5
f 232/1/5 229/1/5 228/1/5
f 233/1/5 229/1/5 232/1/5
f 235/2/6 236/2/6 239/2/6
f 237/1/6 238/1/6 239/1/6
f 236/1/6 237/1/6 239/1/6
f 239/1/6 238/1/6 240/1/6
f 235/2/6 239/2/6 241/2/6
f 239/2/6 240/2/6 241/2/6
f 240/1/6 238/1/6 242/1/6
f 241/2/6 240/2/6 242/2/6
f 234/1/6 235/1/6 243/1/6
f 235/2/6 241/2/6 244/2/6
f 243/1/6 235/1/6 244/1/6
f 241/1/6 242/1/6 245/1/6
f 242/1/6 238/1/6 246/1/6
f 245/1/6 242/1/6 246/1/6
f 246/1/6 238/1/6 247/1/6
f 244/2/6 241/2/6 248/2/6
f 241/1/6 245/1/6 249/1/6
f 248/2/6 241/2/6 249/2/6
f 245/2/6 246/2/6 250/2/6
f 249/1/6 245/1/6 250/1/6
f 250/2/6 246/2/6 251/2/6
f 252/2/6 253/2/6 256/2/6
f 256/2/6 253/2/6 257/2/6
f 254/2/6 255/2/6 258/2/6
f 258/2/6 255/2/6 259/2/6
f 260/1/6 261/1/6 263/1/6
f 261/2/6 262/2/6 264/2/6
f 263/1/6 261/1/6 264/1/6
f 264/2/6 262/2/6 265/2/6
