# MagicaVoxel @ Ephtracy

# group
o door_single_iso

# material
mtllib tavern-22-door_single_iso.mtl
usemtl palette

# normals
vn -1 0 0
vn 1 0 0
vn 0 0 1
vn 0 0 -1
vn 0 -1 0
vn 0 1 0

# texcoords
vt 0.404297 0.5
vt 0.529297 0.5
vt 0.681641 0.5
vt 0.708984 0.5
vt 0.740234 0.5

# verts
v 9.5 0 -10.2
v 9.5 0 -10.5
v 9.5 1.5 -10.2
v 9.5 1.5 -10.3
v 9.5 1.5 -10.4
v 9.5 1.5 -10.5
v 9.5 1.7 -10.3
v 9.5 1.7 -10.4
v 9.6 1.5 -10.2
v 9.6 1.5 -10.3
v 9.6 1.5 -10.4
v 9.6 1.5 -10.5
v 9.6 1.6 -10.2
v 9.6 1.6 -10.3
v 9.6 1.6 -10.4
v 9.6 1.6 -10.5
v 9.7 1.6 -10.2
v 9.7 1.6 -10.3
v 9.7 1.6 -10.4
v 9.7 1.6 -10.5
v 9.7 1.7 -10.2
v 9.7 1.7 -10.3
v 9.7 1.7 -10.4
v 9.7 1.7 -10.5
v 10.2 0.8 -10.2
v 10.2 0.8 -10.3
v 10.2 0.8 -10.4
v 10.2 0.8 -10.5
v 10.2 1.5 -10.2
v 10.2 1.5 -10.3
v 10.2 1.5 -10.4
v 10.2 1.5 -10.5
v 10.6 1.4 -10.2
v 10.6 1.4 -10.3
v 10.6 1.4 -10.4
v 10.6 1.4 -10.5
v 10.6 1.5 -10.2
v 10.6 1.5 -10.3
v 10.6 1.5 -10.4
v 10.6 1.5 -10.5
v 10.7 1.3 -10.2
v 10.7 1.3 -10.3
v 10.7 1.4 -10.2
v 10.7 1.4 -10.3
v 10.8 0.8 -10.2
v 10.8 0.8 -10.3
v 10.8 0.8 -10.4
v 10.8 0.8 -10.5
v 10.8 1.3 -10.2
v 10.8 1.3 -10.3
v 10.8 1.3 -10.4
v 10.8 1.4 -10.4
v 10.8 1.4 -10.5
v 10.9 0.6 -10.1
v 10.9 0.6 -10.2
v 10.9 0.6 -10.5
v 10.9 0.6 -10.6
v 10.9 0.7 -10.1
v 10.9 0.7 -10.2
v 10.9 0.7 -10.5
v 10.9 0.7 -10.6
v 9.8 0.8 -10.2
v 9.8 0.8 -10.3
v 9.8 0.8 -10.4
v 9.8 0.8 -10.5
v 9.8 1.3 -10.2
v 9.8 1.3 -10.3
v 9.8 1.3 -10.4
v 9.8 1.3 -10.5
v 9.9 1.3 -10.2
v 9.9 1.3 -10.3
v 9.9 1.3 -10.4
v 9.9 1.3 -10.5
v 9.9 1.4 -10.2
v 9.9 1.4 -10.3
v 9.9 1.4 -10.4
v 9.9 1.4 -10.5
v 10 1.4 -10.2
v 10 1.4 -10.3
v 10 1.4 -10.4
v 10 1.4 -10.5
v 10 1.5 -10.2
v 10 1.5 -10.3
v 10 1.5 -10.4
v 10 1.5 -10.5
v 10.4 0.8 -10.2
v 10.4 0.8 -10.3
v 10.4 0.8 -10.4
v 10.4 0.8 -10.5
v 10.4 1.5 -10.2
v 10.4 1.5 -10.3
v 10.4 1.5 -10.4
v 10.4 1.5 -10.5
v 10.9 1.6 -10.2
v 10.9 1.6 -10.3
v 10.9 1.7 -10.2
v 10.9 1.7 -10.3
v 11 0.6 -10.1
v 11 0.6 -10.2
v 11 0.6 -10.5
v 11 0.6 -10.6
v 11 0.7 -10.1
v 11 0.7 -10.2
v 11 0.7 -10.5
v 11 0.7 -10.6
v 11 1.5 -10.2
v 11 1.5 -10.3
v 11 1.6 -10.2
v 11 1.6 -10.3
v 11 1.6 -10.4
v 11 1.6 -10.5
v 11 1.7 -10.4
v 11 1.7 -10.5
v 11.1 0 -10.2
v 11.1 0 -10.5
v 11.1 1.5 -10.2
v 11.1 1.5 -10.3
v 11.1 1.6 -10.4
v 11.1 1.6 -10.5
v 11.1 1.7 -10.3
v 11.1 1.7 -10.4
v 10.9 0.6 -10.1
v 10.9 0.7 -10.1
v 11 0.6 -10.1
v 11 0.7 -10.1
v 9.5 0 -10.2
v 9.5 1.5 -10.2
v 9.6 0.1 -10.2
v 9.6 1.5 -10.2
v 9.6 1.6 -10.2
v 9.7 1.6 -10.2
v 9.7 1.7 -10.2
v 9.8 0.1 -10.2
v 9.8 0.8 -10.2
v 9.8 1.3 -10.2
v 9.8 1.6 -10.2
v 9.9 0.1 -10.2
v 9.9 0.7 -10.2
v 9.9 1.3 -10.2
v 9.9 1.4 -10.2
v 9.9 1.5 -10.2
v 9.9 1.6 -10.2
v 10 1.4 -10.2
v 10 1.5 -10.2
v 10 1.6 -10.2
v 10.1 0.1 -10.2
v 10.1 0.7 -10.2
v 10.2 0.1 -10.2
v 10.2 0.8 -10.2
v 10.2 1.5 -10.2
v 10.2 1.6 -10.2
v 10.4 0.1 -10.2
v 10.4 0.8 -10.2
v 10.4 1.5 -10.2
v 10.4 1.6 -10.2
v 10.5 0.1 -10.2
v 10.5 0.7 -10.2
v 10.6 1.4 -10.2
v 10.6 1.5 -10.2
v 10.6 1.6 -10.2
v 10.7 0.1 -10.2
v 10.7 0.7 -10.2
v 10.7 1.3 -10.2
v 10.7 1.4 -10.2
v 10.7 1.5 -10.2
v 10.7 1.6 -10.2
v 10.8 0.1 -10.2
v 10.8 0.8 -10.2
v 10.8 1.3 -10.2
v 10.8 1.6 -10.2
v 10.9 0.6 -10.2
v 10.9 0.7 -10.2
v 10.9 1.6 -10.2
v 10.9 1.7 -10.2
v 11 0.1 -10.2
v 11 0.6 -10.2
v 11 0.7 -10.2
v 11 1.5 -10.2
v 11 1.6 -10.2
v 11.1 0 -10.2
v 11.1 1.5 -10.2
v 9.5 1.5 -10.3
v 9.5 1.7 -10.3
v 9.6 1.5 -10.3
v 9.6 1.6 -10.3
v 9.7 1.6 -10.3
v 9.7 1.7 -10.3
v 9.8 0.8 -10.3
v 9.8 1.3 -10.3
v 9.9 1.3 -10.3
v 9.9 1.4 -10.3
v 10 1.4 -10.3
v 10 1.5 -10.3
v 10.2 0.8 -10.3
v 10.2 1.5 -10.3
v 10.4 0.8 -10.3
v 10.4 1.5 -10.3
v 10.6 1.4 -10.3
v 10.6 1.5 -10.3
v 10.7 1.3 -10.3
v 10.7 1.4 -10.3
v 10.8 0.8 -10.3
v 10.8 1.3 -10.3
v 10.9 1.6 -10.3
v 10.9 1.7 -10.3
v 11 1.5 -10.3
v 11 1.6 -10.3
v 11.1 1.5 -10.3
v 11.1 1.7 -10.3
v 9.5 1.5 -10.4
v 9.5 1.7 -10.4
v 9.6 1.5 -10.4
v 9.6 1.6 -10.4
v 9.7 1.6 -10.4
v 9.7 1.7 -10.4
v 9.8 0.8 -10.4
v 9.8 1.3 -10.4
v 9.9 1.3 -10.4
v 9.9 1.4 -10.4
v 10 1.4 -10.4
v 10 1.5 -10.4
v 10.2 0.8 -10.4
v 10.2 1.5 -10.4
v 10.4 0.8 -10.4
v 10.4 1.5 -10.4
v 10.6 1.4 -10.4
v 10.6 1.5 -10.4
v 10.7 1.3 -10.4
v 10.7 1.4 -10.4
v 10.8 0.8 -10.4
v 10.8 1.3 -10.4
v 10.8 1.4 -10.4
v 11 1.6 -10.4
v 11 1.7 -10.4
v 11.1 1.6 -10.4
v 11.1 1.7 -10.4
v 9.5 0 -10.5
v 9.5 1.5 -10.5
v 9.6 0.1 -10.5
v 9.6 0.7 -10.5
v 9.6 1.5 -10.5
v 9.6 1.6 -10.5
v 9.7 1.6 -10.5
v 9.7 1.7 -10.5
v 9.8 0.1 -10.5
v 9.8 0.7 -10.5
v 9.8 0.8 -10.5
v 9.8 1.3 -10.5
v 9.9 0.1 -10.5
v 9.9 0.7 -10.5
v 9.9 1.3 -10.5
v 9.9 1.4 -10.5
v 10 1.4 -10.5
v 10 1.5 -10.5
v 10.1 0.1 -10.5
v 10.1 0.7 -10.5
v 10.2 0.1 -10.5
v 10.2 0.7 -10.5
v 10.2 0.8 -10.5
v 10.2 1.5 -10.5
v 10.4 0.1 -10.5
v 10.4 0.7 -10.5
v 10.4 0.8 -10.5
v 10.4 1.5 -10.5
v 10.5 0.1 -10.5
v 10.5 0.7 -10.5
v 10.6 1.4 -10.5
v 10.6 1.5 -10.5
v 10.7 0.1 -10.5
v 10.7 0.7 -10.5
v 10.8 0.1 -10.5
v 10.8 0.7 -10.5
v 10.8 0.8 -10.5
v 10.8 1.4 -10.5
v 10.9 0.6 -10.5
v 10.9 0.7 -10.5
v 11 0.1 -10.5
v 11 0.6 -10.5
v 11 0.7 -10.5
v 11 1.6 -10.5
v 11 1.7 -10.5
v 11.1 0 -10.5
v 11.1 1.6 -10.5
v 10.9 0.6 -10.6
v 10.9 0.7 -10.6
v 11 0.6 -10.6
v 11 0.7 -10.6
v 9.5 0 -10.2
v 11.1 0 -10.2
v 9.5 0 -10.5
v 11.1 0 -10.5
v 10.9 0.6 -10.1
v 11 0.6 -10.1
v 10.9 0.6 -10.2
v 11 0.6 -10.2
v 10.9 0.6 -10.5
v 11 0.6 -10.5
v 10.9 0.6 -10.6
v 11 0.6 -10.6
v 9.8 1.3 -10.2
v 9.9 1.3 -10.2
v 10.7 1.3 -10.2
v 10.8 1.3 -10.2
v 9.8 1.3 -10.3
v 9.9 1.3 -10.3
v 10.7 1.3 -10.3
v 10.8 1.3 -10.3
v 9.8 1.3 -10.4
v 9.9 1.3 -10.4
v 9.8 1.3 -10.5
v 9.9 1.3 -10.5
v 9.9 1.4 -10.2
v 10 1.4 -10.2
v 10.6 1.4 -10.2
v 10.7 1.4 -10.2
v 9.9 1.4 -10.3
v 10 1.4 -10.3
v 10.6 1.4 -10.3
v 10.7 1.4 -10.3
v 9.9 1.4 -10.4
v 10 1.4 -10.4
v 10.6 1.4 -10.4
v 10.7 1.4 -10.4
v 10.8 1.4 -10.4
v 9.9 1.4 -10.5
v 10 1.4 -10.5
v 10.6 1.4 -10.5
v 10.8 1.4 -10.5
v 10 1.5 -10.2
v 10.2 1.5 -10.2
v 10.4 1.5 -10.2
v 10.6 1.5 -10.2
v 10 1.5 -10.3
v 10.2 1.5 -10.3
v 10.4 1.5 -10.3
v 10.6 1.5 -10.3
v 10 1.5 -10.4
v 10.2 1.5 -10.4
v 10.4 1.5 -10.4
v 10.6 1.5 -10.4
v 10 1.5 -10.5
v 10.2 1.5 -10.5
v 10.4 1.5 -10.5
v 10.6 1.5 -10.5
v 10.9 0.7 -10.1
v 11 0.7 -10.1
v 10.9 0.7 -10.2
v 11 0.7 -10.2
v 10.9 0.7 -10.5
v 11 0.7 -10.5
v 10.9 0.7 -10.6
v 11 0.7 -10.6
v 9.8 0.8 -10.2
v 10.2 0.8 -10.2
v 10.4 0.8 -10.2
v 10.8 0.8 -10.2
v 9.8 0.8 -10.3
v 10.2 0.8 -10.3
v 10.4 0.8 -10.3
v 10.8 0.8 -10.3
v 9.8 0.8 -10.4
v 10.2 0.8 -10.4
v 10.4 0.8 -10.4
v 10.8 0.8 -10.4
v 9.8 0.8 -10.5
v 10.2 0.8 -10.5
v 10.4 0.8 -10.5
v 10.8 0.8 -10.5
v 9.5 1.5 -10.2
v 9.6 1.5 -10.2
v 11 1.5 -10.2
v 11.1 1.5 -10.2
v 9.5 1.5 -10.3
v 9.6 1.5 -10.3
v 11 1.5 -10.3
v 11.1 1.5 -10.3
v 9.5 1.5 -10.4
v 9.6 1.5 -10.4
v 9.5 1.5 -10.5
v 9.6 1.5 -10.5
v 9.6 1.6 -10.2
v 9.7 1.6 -10.2
v 10.9 1.6 -10.2
v 11 1.6 -10.2
v 9.6 1.6 -10.3
v 9.7 1.6 -10.3
v 10.9 1.6 -10.3
v 11 1.6 -10.3
v 9.6 1.6 -10.4
v 9.7 1.6 -10.4
v 11 1.6 -10.4
v 11.1 1.6 -10.4
v 9.6 1.6 -10.5
v 9.7 1.6 -10.5
v 11 1.6 -10.5
v 11.1 1.6 -10.5
v 9.7 1.7 -10.2
v 10.9 1.7 -10.2
v 9.5 1.7 -10.3
v 9.7 1.7 -10.3
v 10.9 1.7 -10.3
v 11.1 1.7 -10.3
v 9.5 1.7 -10.4
v 9.7 1.7 -10.4
v 11 1.7 -10.4
v 11.1 1.7 -10.4
v 9.7 1.7 -10.5
v 11 1.7 -10.5

# faces
f 3/4/1 2/4/1 1/4/1
f 4/4/1 2/4/1 3/4/1
f 5/4/1 2/4/1 4/4/1
f 6/4/1 2/4/1 5/4/1
f 7/4/1 5/4/1 4/4/1
f 8/4/1 5/4/1 7/4/1
f 13/5/1 10/5/1 9/5/1
f 14/5/1 10/5/1 13/5/1
f 15/4/1 12/4/1 11/4/1
f 16/4/1 12/4/1 15/4/1
f 21/4/1 18/4/1 17/4/1
f 22/4/1 18/4/1 21/4/1
f 23/4/1 20/4/1 19/4/1
f 24/4/1 20/4/1 23/4/1
f 29/5/1 26/5/1 25/5/1
f 30/5/1 26/5/1 29/5/1
f 31/4/1 28/4/1 27/4/1
f 32/4/1 28/4/1 31/4/1
f 37/4/1 34/4/1 33/4/1
f 38/4/1 34/4/1 37/4/1
f 39/4/1 36/4/1 35/4/1
f 40/4/1 36/4/1 39/4/1
f 43/4/1 42/4/1 41/4/1
f 44/4/1 42/4/1 43/4/1
f 49/5/1 46/5/1 45/5/1
f 50/5/1 46/5/1 49/5/1
f 51/4/1 48/4/1 47/4/1
f 52/4/1 48/4/1 51/4/1
f 53/4/1 48/4/1 52/4/1
f 58/2/1 55/2/1 54/2/1
f 59/2/1 55/2/1 58/2/1
f 60/2/1 57/2/1 56/2/1
f 61/2/1 57/2/1 60/2/1
f 62/5/2 63/5/2 66/5/2
f 66/5/2 63/5/2 67/5/2
f 64/4/2 65/4/2 68/4/2
f 68/4/2 65/4/2 69/4/2
f 70/4/2 71/4/2 74/4/2
f 74/4/2 71/4/2 75/4/2
f 72/4/2 73/4/2 76/4/2
f 76/4/2 73/4/2 77/4/2
f 78/4/2 79/4/2 82/4/2
f 82/4/2 79/4/2 83/4/2
f 80/4/2 81/4/2 84/4/2
f 84/4/2 81/4/2 85/4/2
f 86/5/2 87/5/2 90/5/2
f 90/5/2 87/5/2 91/5/2
f 88/4/2 89/4/2 92/4/2
f 92/4/2 89/4/2 93/4/2
f 94/4/2 95/4/2 96/4/2
f 96/4/2 95/4/2 97/4/2
f 98/2/2 99/2/2 102/2/2
f 102/2/2 99/2/2 103/2/2
f 100/2/2 101/2/2 104/2/2
f 104/2/2 101/2/2 105/2/2
f 106/5/2 107/5/2 108/5/2
f 108/5/2 107/5/2 109/5/2
f 110/4/2 111/4/2 112/4/2
f 112/4/2 111/4/2 113/4/2
f 114/4/2 115/4/2 116/4/2
f 116/4/2 115/4/2 117/4/2
f 117/4/2 115/4/2 118/4/2
f 118/4/2 115/4/2 119/4/2
f 117/4/2 118/4/2 120/4/2
f 120/4/2 118/4/2 121/4/2
f 124/2/3 123/2/3 122/2/3
f 125/2/3 123/2/3 124/2/3
f 128/4/3 127/4/3 126/4/3
f 129/4/3 127/4/3 128/4/3
f 131/5/3 129/5/3 128/5/3
f 131/5/3 130/5/3 129/5/3
f 133/4/3 128/4/3 126/4/3
f 133/5/3 131/5/3 128/5/3
f 134/5/3 131/5/3 133/5/3
f 135/5/3 131/5/3 134/5/3
f 136/4/3 132/4/3 131/4/3
f 136/5/3 131/5/3 135/5/3
f 137/4/3 133/4/3 126/4/3
f 137/4/3 134/4/3 133/4/3
f 138/4/3 134/4/3 137/4/3
f 139/4/3 136/4/3 135/4/3
f 140/4/3 136/4/3 139/4/3
f 141/4/3 136/4/3 140/4/3
f 142/4/3 132/4/3 136/4/3
f 142/4/3 136/4/3 141/4/3
f 143/4/3 141/4/3 140/4/3
f 144/5/3 142/5/3 141/5/3
f 144/4/3 141/4/3 143/4/3
f 145/4/3 132/4/3 142/4/3
f 145/5/3 142/5/3 144/5/3
f 146/4/3 137/4/3 126/4/3
f 146/5/3 138/5/3 137/5/3
f 147/4/3 134/4/3 138/4/3
f 147/5/3 138/5/3 146/5/3
f 148/4/3 146/4/3 126/4/3
f 148/4/3 147/4/3 146/4/3
f 149/4/3 134/4/3 147/4/3
f 149/4/3 147/4/3 148/4/3
f 150/4/3 145/4/3 144/4/3
f 151/4/3 132/4/3 145/4/3
f 151/4/3 145/4/3 150/4/3
f 152/5/3 150/5/3 149/5/3
f 152/4/3 148/4/3 126/4/3
f 152/5/3 151/5/3 150/5/3
f 152/5/3 149/5/3 148/5/3
f 153/5/3 151/5/3 152/5/3
f 154/5/3 151/5/3 153/5/3
f 155/4/3 132/4/3 151/4/3
f 155/5/3 151/5/3 154/5/3
f 156/4/3 152/4/3 126/4/3
f 156/4/3 153/4/3 152/4/3
f 157/4/3 153/4/3 156/4/3
f 159/4/3 155/4/3 154/4/3
f 160/4/3 132/4/3 155/4/3
f 160/4/3 155/4/3 159/4/3
f 161/4/3 156/4/3 126/4/3
f 161/5/3 157/5/3 156/5/3
f 162/4/3 153/4/3 157/4/3
f 162/5/3 157/5/3 161/5/3
f 164/4/3 159/4/3 158/4/3
f 165/5/3 160/5/3 159/5/3
f 165/4/3 159/4/3 164/4/3
f 166/4/3 132/4/3 160/4/3
f 166/5/3 160/5/3 165/5/3
f 167/4/3 161/4/3 126/4/3
f 167/4/3 162/4/3 161/4/3
f 168/4/3 153/4/3 162/4/3
f 168/4/3 162/4/3 167/4/3
f 169/4/3 165/4/3 164/4/3
f 169/4/3 164/4/3 163/4/3
f 169/4/3 166/4/3 165/4/3
f 170/4/3 132/4/3 166/4/3
f 170/4/3 166/4/3 169/4/3
f 171/5/3 169/5/3 168/5/3
f 171/5/3 168/5/3 167/5/3
f 171/5/3 170/5/3 169/5/3
f 172/5/3 170/5/3 171/5/3
f 173/4/3 132/4/3 170/4/3
f 173/5/3 170/5/3 172/5/3
f 174/4/3 132/4/3 173/4/3
f 175/4/3 167/4/3 126/4/3
f 175/5/3 171/5/3 167/5/3
f 176/5/3 171/5/3 175/5/3
f 177/5/3 173/5/3 172/5/3
f 178/5/3 173/5/3 177/5/3
f 179/5/3 173/5/3 178/5/3
f 180/4/3 176/4/3 175/4/3
f 180/4/3 175/4/3 126/4/3
f 180/4/3 178/4/3 177/4/3
f 180/4/3 177/4/3 176/4/3
f 181/4/3 178/4/3 180/4/3
f 184/4/3 183/4/3 182/4/3
f 185/4/3 183/4/3 184/4/3
f 186/4/3 183/4/3 185/4/3
f 187/4/3 183/4/3 186/4/3
f 190/1/3 189/1/3 188/1/3
f 192/1/3 191/1/3 190/1/3
f 194/1/3 190/1/3 188/1/3
f 194/1/3 193/1/3 192/1/3
f 194/1/3 192/1/3 190/1/3
f 195/1/3 193/1/3 194/1/3
f 198/1/3 197/1/3 196/1/3
f 199/1/3 197/1/3 198/1/3
f 200/1/3 198/1/3 196/1/3
f 201/1/3 198/1/3 200/1/3
f 202/1/3 200/1/3 196/1/3
f 203/1/3 200/1/3 202/1/3
f 207/4/3 205/4/3 204/4/3
f 208/4/3 207/4/3 206/4/3
f 209/4/3 205/4/3 207/4/3
f 209/4/3 207/4/3 208/4/3
f 210/4/4 211/4/4 212/4/4
f 212/4/4 211/4/4 213/4/4
f 213/4/4 211/4/4 214/4/4
f 214/4/4 211/4/4 215/4/4
f 216/1/4 217/1/4 218/1/4
f 218/1/4 219/1/4 220/1/4
f 216/1/4 218/1/4 222/1/4
f 220/1/4 221/1/4 222/1/4
f 218/1/4 220/1/4 222/1/4
f 222/1/4 221/1/4 223/1/4
f 224/1/4 225/1/4 226/1/4
f 226/1/4 225/1/4 227/1/4
f 224/1/4 226/1/4 228/1/4
f 228/1/4 226/1/4 229/1/4
f 224/1/4 228/1/4 230/1/4
f 228/4/4 229/4/4 231/4/4
f 230/1/4 228/1/4 231/1/4
f 231/4/4 229/4/4 232/4/4
f 233/4/4 234/4/4 235/4/4
f 235/4/4 234/4/4 236/4/4
f 237/4/4 238/4/4 239/4/4
f 239/4/4 238/4/4 240/4/4
f 240/4/4 238/4/4 241/4/4
f 240/4/4 241/4/4 243/4/4
f 241/4/4 242/4/4 243/4/4
f 237/4/4 239/4/4 245/4/4
f 239/3/4 240/3/4 245/3/4
f 243/4/4 244/4/4 246/4/4
f 245/3/4 240/3/4 246/3/4
f 240/4/4 243/4/4 246/4/4
f 246/4/4 244/4/4 247/4/4
f 247/4/4 244/4/4 248/4/4
f 237/4/4 245/4/4 249/4/4
f 245/4/4 246/4/4 249/4/4
f 246/4/4 247/4/4 249/4/4
f 249/4/4 247/4/4 250/4/4
f 248/4/4 244/4/4 251/4/4
f 251/4/4 244/4/4 252/4/4
f 252/4/4 244/4/4 253/4/4
f 253/4/4 244/4/4 254/4/4
f 237/4/4 249/4/4 255/4/4
f 249/3/4 250/3/4 255/3/4
f 250/4/4 247/4/4 256/4/4
f 255/3/4 250/3/4 256/3/4
f 237/4/4 255/4/4 257/4/4
f 255/4/4 256/4/4 257/4/4
f 256/4/4 247/4/4 258/4/4
f 257/4/4 256/4/4 258/4/4
f 258/4/4 247/4/4 259/4/4
f 254/4/4 244/4/4 260/4/4
f 237/4/4 257/4/4 261/4/4
f 257/3/4 258/3/4 261/3/4
f 259/4/4 260/4/4 262/4/4
f 261/3/4 258/3/4 262/3/4
f 258/4/4 259/4/4 262/4/4
f 262/4/4 260/4/4 263/4/4
f 260/4/4 244/4/4 264/4/4
f 263/4/4 260/4/4 264/4/4
f 237/4/4 261/4/4 265/4/4
f 262/4/4 263/4/4 265/4/4
f 261/4/4 262/4/4 265/4/4
f 265/4/4 263/4/4 266/4/4
f 264/4/4 244/4/4 268/4/4
f 237/4/4 265/4/4 269/4/4
f 265/3/4 266/3/4 269/3/4
f 266/4/4 263/4/4 270/4/4
f 269/3/4 266/3/4 270/3/4
f 237/4/4 269/4/4 271/4/4
f 269/4/4 270/4/4 271/4/4
f 270/4/4 263/4/4 272/4/4
f 271/4/4 270/4/4 272/4/4
f 272/4/4 263/4/4 273/4/4
f 267/4/4 268/4/4 274/4/4
f 271/3/4 272/3/4 275/3/4
f 272/4/4 273/4/4 276/4/4
f 275/3/4 272/3/4 276/3/4
f 273/4/4 274/4/4 276/4/4
f 237/4/4 271/4/4 277/4/4
f 271/3/4 275/3/4 277/3/4
f 277/3/4 275/3/4 278/3/4
f 276/4/4 274/4/4 279/4/4
f 268/4/4 244/4/4 280/4/4
f 274/4/4 268/4/4 280/4/4
f 279/4/4 274/4/4 280/4/4
f 280/4/4 244/4/4 281/4/4
f 277/4/4 278/4/4 282/4/4
f 278/4/4 279/4/4 282/4/4
f 279/4/4 280/4/4 282/4/4
f 237/4/4 277/4/4 282/4/4
f 282/4/4 280/4/4 283/4/4
f 284/2/4 285/2/4 286/2/4
f 286/2/4 285/2/4 287/2/4
f 290/4/5 289/4/5 288/4/5
f 291/4/5 289/4/5 290/4/5
f 294/2/5 293/2/5 292/2/5
f 295/2/5 293/2/5 294/2/5
f 298/2/5 297/2/5 296/2/5
f 299/2/5 297/2/5 298/2/5
f 304/4/5 301/4/5 300/4/5
f 305/4/5 301/4/5 304/4/5
f 306/4/5 303/4/5 302/4/5
f 307/4/5 303/4/5 306/4/5
f 310/4/5 309/4/5 308/4/5
f 311/4/5 309/4/5 310/4/5
f 316/4/5 313/4/5 312/4/5
f 317/4/5 313/4/5 316/4/5
f 318/4/5 315/4/5 314/4/5
f 319/4/5 315/4/5 318/4/5
f 325/4/5 321/4/5 320/4/5
f 326/4/5 321/4/5 325/4/5
f 327/4/5 323/4/5 322/4/5
f 327/4/5 324/4/5 323/4/5
f 328/4/5 324/4/5 327/4/5
f 333/4/5 330/4/5 329/4/5
f 334/4/5 330/4/5 333/4/5
f 335/4/5 332/4/5 331/4/5
f 336/4/5 332/4/5 335/4/5
f 341/4/5 338/4/5 337/4/5
f 342/4/5 338/4/5 341/4/5
f 343/4/5 340/4/5 339/4/5
f 344/4/5 340/4/5 343/4/5
f 345/2/6 346/2/6 347/2/6
f 347/2/6 346/2/6 348/2/6
f 349/2/6 350/2/6 351/2/6
f 351/2/6 350/2/6 352/2/6
f 353/4/6 354/4/6 357/4/6
f 357/4/6 354/4/6 358/4/6
f 355/4/6 356/4/6 359/4/6
f 359/4/6 356/4/6 360/4/6
f 361/4/6 362/4/6 365/4/6
f 365/4/6 362/4/6 366/4/6
f 363/4/6 364/4/6 367/4/6
f 367/4/6 364/4/6 368/4/6
f 369/4/6 370/4/6 373/4/6
f 373/4/6 370/4/6 374/4/6
f 371/4/6 372/4/6 375/4/6
f 375/4/6 372/4/6 376/4/6
f 377/4/6 378/4/6 379/4/6
f 379/4/6 378/4/6 380/4/6
f 381/5/6 382/5/6 385/5/6
f 385/5/6 382/5/6 386/5/6
f 383/5/6 384/5/6 387/5/6
f 387/5/6 384/5/6 388/5/6
f 389/4/6 390/4/6 393/4/6
f 393/4/6 390/4/6 394/4/6
f 391/4/6 392/4/6 395/4/6
f 395/4/6 392/4/6 396/4/6
f 397/4/6 398/4/6 400/4/6
f 400/4/6 398/4/6 401/4/6
f 399/4/6 400/4/6 403/4/6
f 401/4/6 402/4/6 403/4/6
f 400/4/6 401/4/6 403/4/6
f 403/4/6 402/4/6 404/4/6
f 404/4/6 402/4/6 405/4/6
f 405/4/6 402/4/6 406/4/6
f 404/4/6 405/4/6 407/4/6
f 407/4/6 405/4/6 408/4/6
