# MagicaVoxel @ Ephtracy

# group
o bottle_green

# material
mtllib tavern-59-bottle_green.mtl
usemtl palette

# normals
vn -1 0 0
vn 1 0 0
vn 0 0 1
vn 0 0 -1
vn 0 -1 0
vn 0 1 0

# texcoords
vt 0.298828 0.5
vt 0.583984 0.5
vt 0.587891 0.5
vt 0.705078 0.5

# verts
v 12.6 0 -0.3
v 12.6 0 -0.6
v 12.6 0.1 -0.3
v 12.6 0.1 -0.4
v 12.6 0.1 -0.6
v 12.6 0.2 -0.3
v 12.6 0.2 -0.4
v 12.6 0.3 -0.3
v 12.6 0.3 -0.4
v 12.6 0.3 -0.5
v 12.6 0.3 -0.6
v 12.6 0.4 -0.4
v 12.6 0.4 -0.5
v 12.7 0.3 -0.3
v 12.7 0.3 -0.4
v 12.7 0.3 -0.5
v 12.7 0.3 -0.6
v 12.7 0.4 -0.3
v 12.7 0.4 -0.4
v 12.7 0.4 -0.5
v 12.7 0.4 -0.6
v 12.7 0.6 -0.4
v 12.7 0.6 -0.5
v 12.7 0.7 -0.4
v 12.7 0.7 -0.5
v 12.8 0.3 -0.3
v 12.8 0.3 -0.4
v 12.8 0.3 -0.5
v 12.8 0.3 -0.6
v 12.8 0.4 -0.3
v 12.8 0.4 -0.4
v 12.8 0.4 -0.5
v 12.8 0.4 -0.6
v 12.8 0.6 -0.4
v 12.8 0.6 -0.5
v 12.8 0.7 -0.4
v 12.8 0.7 -0.5
v 12.9 0 -0.3
v 12.9 0 -0.6
v 12.9 0.1 -0.3
v 12.9 0.1 -0.4
v 12.9 0.1 -0.6
v 12.9 0.2 -0.3
v 12.9 0.2 -0.4
v 12.9 0.3 -0.3
v 12.9 0.3 -0.4
v 12.9 0.3 -0.5
v 12.9 0.3 -0.6
v 12.9 0.4 -0.4
v 12.9 0.4 -0.5
v 12.6 0 -0.3
v 12.6 0.1 -0.3
v 12.6 0.2 -0.3
v 12.6 0.3 -0.3
v 12.7 0.3 -0.3
v 12.7 0.4 -0.3
v 12.8 0.3 -0.3
v 12.8 0.4 -0.3
v 12.9 0 -0.3
v 12.9 0.1 -0.3
v 12.9 0.2 -0.3
v 12.9 0.3 -0.3
v 12.6 0.3 -0.4
v 12.6 0.4 -0.4
v 12.7 0.3 -0.4
v 12.7 0.4 -0.4
v 12.7 0.6 -0.4
v 12.7 0.7 -0.4
v 12.8 0.3 -0.4
v 12.8 0.4 -0.4
v 12.8 0.6 -0.4
v 12.8 0.7 -0.4
v 12.9 0.3 -0.4
v 12.9 0.4 -0.4
v 12.6 0.3 -0.5
v 12.6 0.4 -0.5
v 12.7 0.3 -0.5
v 12.7 0.4 -0.5
v 12.7 0.6 -0.5
v 12.7 0.7 -0.5
v 12.8 0.3 -0.5
v 12.8 0.4 -0.5
v 12.8 0.6 -0.5
v 12.8 0.7 -0.5
v 12.9 0.3 -0.5
v 12.9 0.4 -0.5
v 12.6 0 -0.6
v 12.6 0.1 -0.6
v 12.6 0.3 -0.6
v 12.7 0.3 -0.6
v 12.7 0.4 -0.6
v 12.8 0.3 -0.6
v 12.8 0.4 -0.6
v 12.9 0 -0.6
v 12.9 0.1 -0.6
v 12.9 0.3 -0.6
v 12.6 0 -0.3
v 12.9 0 -0.3
v 12.7 0 -0.4
v 12.8 0 -0.4
v 12.7 0 -0.5
v 12.8 0 -0.5
v 12.6 0 -0.6
v 12.9 0 -0.6
v 12.6 0.3 -0.3
v 12.7 0.3 -0.3
v 12.8 0.3 -0.3
v 12.9 0.3 -0.3
v 12.6 0.3 -0.4
v 12.7 0.3 -0.4
v 12.8 0.3 -0.4
v 12.9 0.3 -0.4
v 12.6 0.3 -0.5
v 12.7 0.3 -0.5
v 12.8 0.3 -0.5
v 12.9 0.3 -0.5
v 12.6 0.3 -0.6
v 12.7 0.3 -0.6
v 12.8 0.3 -0.6
v 12.9 0.3 -0.6
v 12.7 0.4 -0.3
v 12.8 0.4 -0.3
v 12.6 0.4 -0.4
v 12.7 0.4 -0.4
v 12.8 0.4 -0.4
v 12.9 0.4 -0.4
v 12.6 0.4 -0.5
v 12.7 0.4 -0.5
v 12.8 0.4 -0.5
v 12.9 0.4 -0.5
v 12.7 0.4 -0.6
v 12.8 0.4 -0.6
v 12.7 0.7 -0.4
v 12.8 0.7 -0.4
v 12.7 0.7 -0.5
v 12.8 0.7 -0.5

# faces
f 3/3/1 2/3/1 1/3/1
f 4/3/1 2/3/1 3/3/1
f 5/3/1 2/3/1 4/3/1
f 6/4/1 4/4/1 3/4/1
f 7/2/1 5/2/1 4/2/1
f 7/4/1 4/4/1 6/4/1
f 8/2/1 7/2/1 6/2/1
f 9/2/1 5/2/1 7/2/1
f 9/2/1 7/2/1 8/2/1
f 10/2/1 5/2/1 9/2/1
f 11/2/1 5/2/1 10/2/1
f 12/3/1 10/3/1 9/3/1
f 13/3/1 10/3/1 12/3/1
f 18/3/1 15/3/1 14/3/1
f 19/3/1 15/3/1 18/3/1
f 20/3/1 17/3/1 16/3/1
f 21/3/1 17/3/1 20/3/1
f 22/2/1 20/2/1 19/2/1
f 23/2/1 20/2/1 22/2/1
f 24/1/1 23/1/1 22/1/1
f 25/1/1 23/1/1 24/1/1
f 26/3/2 27/3/2 30/3/2
f 30/3/2 27/3/2 31/3/2
f 28/3/2 29/3/2 32/3/2
f 32/3/2 29/3/2 33/3/2
f 31/2/2 32/2/2 34/2/2
f 34/2/2 32/2/2 35/2/2
f 34/1/2 35/1/2 36/1/2
f 36/1/2 35/1/2 37/1/2
f 38/3/2 39/3/2 40/3/2
f 40/3/2 39/3/2 41/3/2
f 41/3/2 39/3/2 42/3/2
f 40/4/2 41/4/2 43/4/2
f 41/2/2 42/2/2 44/2/2
f 43/4/2 41/4/2 44/4/2
f 43/2/2 44/2/2 45/2/2
f 44/2/2 42/2/2 46/2/2
f 45/2/2 44/2/2 46/2/2
f 46/2/2 42/2/2 47/2/2
f 47/2/2 42/2/2 48/2/2
f 46/3/2 47/3/2 49/3/2
f 49/3/2 47/3/2 50/3/2
f 55/2/3 54/2/3 53/2/3
f 57/2/3 55/2/3 53/2/3
f 57/3/3 56/3/3 55/3/3
f 58/3/3 56/3/3 57/3/3
f 59/3/3 52/3/3 51/3/3
f 60/4/3 53/4/3 52/4/3
f 60/3/3 52/3/3 59/3/3
f 61/2/3 57/2/3 53/2/3
f 61/4/3 53/4/3 60/4/3
f 62/2/3 57/2/3 61/2/3
f 65/3/3 64/3/3 63/3/3
f 66/3/3 64/3/3 65/3/3
f 70/2/3 67/2/3 66/2/3
f 71/1/3 68/1/3 67/1/3
f 71/2/3 67/2/3 70/2/3
f 72/1/3 68/1/3 71/1/3
f 73/3/3 70/3/3 69/3/3
f 74/3/3 70/3/3 73/3/3
f 75/3/4 76/3/4 77/3/4
f 77/3/4 76/3/4 78/3/4
f 78/2/4 79/2/4 82/2/4
f 79/1/4 80/1/4 83/1/4
f 82/2/4 79/2/4 83/2/4
f 83/1/4 80/1/4 84/1/4
f 81/3/4 82/3/4 85/3/4
f 85/3/4 82/3/4 86/3/4
f 88/2/4 89/2/4 90/2/4
f 88/2/4 90/2/4 92/2/4
f 90/3/4 91/3/4 92/3/4
f 92/3/4 91/3/4 93/3/4
f 87/3/4 88/3/4 94/3/4
f 88/2/4 92/2/4 95/2/4
f 94/3/4 88/3/4 95/3/4
f 95/2/4 92/2/4 96/2/4
f 99/3/5 98/3/5 97/3/5
f 100/3/5 98/3/5 99/3/5
f 101/3/5 99/3/5 97/3/5
f 101/2/5 100/2/5 99/2/5
f 102/3/5 98/3/5 100/3/5
f 102/2/5 100/2/5 101/2/5
f 103/3/5 101/3/5 97/3/5
f 103/3/5 102/3/5 101/3/5
f 104/3/5 98/3/5 102/3/5
f 104/3/5 102/3/5 103/3/5
f 105/2/6 106/2/6 109/2/6
f 109/2/6 106/2/6 110/2/6
f 107/2/6 108/2/6 111/2/6
f 111/2/6 108/2/6 112/2/6
f 113/2/6 114/2/6 117/2/6
f 117/2/6 114/2/6 118/2/6
f 115/2/6 116/2/6 119/2/6
f 119/2/6 116/2/6 120/2/6
f 121/3/6 122/3/6 124/3/6
f 124/3/6 122/3/6 125/3/6
f 123/3/6 124/3/6 127/3/6
f 127/3/6 124/3/6 128/3/6
f 125/3/6 126/3/6 129/3/6
f 129/3/6 126/3/6 130/3/6
f 128/3/6 129/3/6 131/3/6
f 131/3/6 129/3/6 132/3/6
f 133/1/6 134/1/6 135/1/6
f 135/1/6 134/1/6 136/1/6
