# MagicaVoxel @ Ephtracy

# group
o patron_tpose

# material
mtllib tavern-0-patron_tpose.mtl
usemtl palette

# normals
vn -1 0 0
vn 1 0 0
vn 0 0 1
vn 0 0 -1
vn 0 -1 0
vn 0 1 0

# texcoords
vt 0.228516 0.5
vt 0.275391 0.5
vt 0.607422 0.5
vt 0.666016 0.5
vt 0.716797 0.5
vt 0.767578 0.5
vt 0.955078 0.5
vt 0.962891 0.5

# verts
v 4.9 0.5 1.4
v 4.9 0.5 1.2
v 4.9 0.7 1.4
v 4.9 0.7 1.2
v 5.3 0 1.4
v 5.3 0 1.2
v 5.3 0.1 1.4
v 5.3 0.1 1.2
v 5.3 0.2 1.4
v 5.3 0.2 1.2
v 5.3 0.4 1.5
v 5.3 0.4 1.4
v 5.3 0.5 1.4
v 5.3 0.5 1.2
v 5.3 0.6 1.2
v 5.3 0.6 1.1
v 5.3 0.7 1.6
v 5.3 0.7 1.5
v 5.3 0.7 1.4
v 5.3 0.7 1.2
v 5.3 0.8 1.6
v 5.3 0.8 1.5
v 5.3 0.9 1.6
v 5.3 0.9 1.5
v 5.3 1 1.6
v 5.3 1 1.4
v 5.3 1 1.2
v 5.3 1 1.1
v 5.3 1.1 1.4
v 5.3 1.1 1.2
v 5.4 0.5 1.2
v 5.4 0.5 1.1
v 5.4 0.6 1.6
v 5.4 0.6 1.5
v 5.4 0.6 1.2
v 5.4 0.6 1.1
v 5.4 0.6 1
v 5.4 0.7 1.6
v 5.4 0.7 1.5
v 5.4 0.9 1.1
v 5.4 0.9 1
v 5.4 1 1.5
v 5.4 1 1.4
v 5.4 1 1.2
v 5.4 1 1.1
v 5.4 1.1 1.5
v 5.4 1.1 1.4
v 5.4 1.1 1.2
v 5.4 1.1 1.1
v 5.5 0.3 1.5
v 5.5 0.3 1.4
v 5.5 0.4 1.5
v 5.5 0.4 1.4
v 5.5 0.4 1.2
v 5.5 0.4 1.1
v 5.5 0.5 1.6
v 5.5 0.5 1.5
v 5.5 0.5 1.2
v 5.5 0.5 1.1
v 5.5 0.5 1
v 5.5 0.6 1.6
v 5.5 0.6 1.5
v 5.5 0.6 1.1
v 5.5 0.6 1
v 5.5 0.7 1.6
v 5.5 0.7 1.5
v 5.5 0.8 1.6
v 5.5 0.8 1.5
v 5.5 0.9 1.1
v 5.5 0.9 1
v 5.5 1 1.1
v 5.5 1 1
v 5.6 0 1.4
v 5.6 0 1.2
v 5.6 0.1 1.4
v 5.6 0.1 1.2
v 5.6 0.9 1.6
v 5.6 0.9 1.5
v 5.6 1 1.6
v 5.6 1 1.5
v 5.7 0.7 1.6
v 5.7 0.7 1.5
v 5.7 0.8 1.6
v 5.7 0.8 1.5
v 5.4 0.7 1.6
v 5.4 0.7 1.5
v 5.4 0.8 1.6
v 5.4 0.8 1.5
v 5.5 0 1.4
v 5.5 0 1.2
v 5.5 0.1 1.4
v 5.5 0.1 1.2
v 5.5 0.9 1.6
v 5.5 0.9 1.5
v 5.5 1 1.6
v 5.5 1 1.5
v 5.6 0.3 1.5
v 5.6 0.3 1.4
v 5.6 0.4 1.5
v 5.6 0.4 1.4
v 5.6 0.4 1.2
v 5.6 0.4 1.1
v 5.6 0.5 1.6
v 5.6 0.5 1.5
v 5.6 0.5 1.2
v 5.6 0.5 1.1
v 5.6 0.5 1
v 5.6 0.6 1.6
v 5.6 0.6 1.5
v 5.6 0.6 1.1
v 5.6 0.6 1
v 5.6 0.7 1.6
v 5.6 0.7 1.5
v 5.6 0.8 1.6
v 5.6 0.8 1.5
v 5.6 0.9 1.1
v 5.6 0.9 1
v 5.6 1 1.1
v 5.6 1 1
v 5.7 0.4 1.5
v 5.7 0.4 1.4
v 5.7 0.5 1.5
v 5.7 0.5 1.4
v 5.7 0.5 1.2
v 5.7 0.5 1.1
v 5.7 0.6 1.6
v 5.7 0.6 1.5
v 5.7 0.6 1.2
v 5.7 0.6 1.1
v 5.7 0.6 1
v 5.7 0.7 1.6
v 5.7 0.7 1.5
v 5.7 0.9 1.1
v 5.7 0.9 1
v 5.7 1 1.5
v 5.7 1 1.4
v 5.7 1 1.2
v 5.7 1 1.1
v 5.7 1.1 1.5
v 5.7 1.1 1.4
v 5.7 1.1 1.2
v 5.7 1.1 1.1
v 5.8 0 1.4
v 5.8 0 1.2
v 5.8 0.1 1.4
v 5.8 0.1 1.2
v 5.8 0.2 1.4
v 5.8 0.2 1.2
v 5.8 0.5 1.5
v 5.8 0.5 1.4
v 5.8 0.5 1.2
v 5.8 0.6 1.2
v 5.8 0.6 1.1
v 5.8 0.7 1.6
v 5.8 0.7 1.5
v 5.8 0.7 1.4
v 5.8 0.7 1.2
v 5.8 0.8 1.6
v 5.8 0.8 1.5
v 5.8 0.9 1.6
v 5.8 0.9 1.5
v 5.8 1 1.6
v 5.8 1 1.4
v 5.8 1 1.2
v 5.8 1 1.1
v 5.8 1.1 1.4
v 5.8 1.1 1.2
v 6.2 0.5 1.4
v 6.2 0.5 1.2
v 6.2 0.7 1.4
v 6.2 0.7 1.2
v 5.3 0.7 1.6
v 5.3 0.8 1.6
v 5.3 0.9 1.6
v 5.3 1 1.6
v 5.4 0.6 1.6
v 5.4 0.7 1.6
v 5.4 0.8 1.6
v 5.5 0.5 1.6
v 5.5 0.6 1.6
v 5.5 0.7 1.6
v 5.5 0.8 1.6
v 5.5 0.9 1.6
v 5.5 1 1.6
v 5.6 0.5 1.6
v 5.6 0.6 1.6
v 5.6 0.7 1.6
v 5.6 0.8 1.6
v 5.6 0.9 1.6
v 5.6 1 1.6
v 5.7 0.6 1.6
v 5.7 0.7 1.6
v 5.7 0.8 1.6
v 5.8 0.7 1.6
v 5.8 0.8 1.6
v 5.8 0.9 1.6
v 5.8 1 1.6
v 5.3 0.4 1.5
v 5.3 0.7 1.5
v 5.3 0.8 1.5
v 5.3 0.9 1.5
v 5.4 0.6 1.5
v 5.4 0.7 1.5
v 5.4 0.8 1.5
v 5.4 0.9 1.5
v 5.4 1 1.5
v 5.4 1.1 1.5
v 5.5 0.3 1.5
v 5.5 0.4 1.5
v 5.5 0.5 1.5
v 5.5 0.6 1.5
v 5.5 0.7 1.5
v 5.5 0.8 1.5
v 5.5 0.9 1.5
v 5.5 1 1.5
v 5.6 0.3 1.5
v 5.6 0.4 1.5
v 5.6 0.5 1.5
v 5.6 0.6 1.5
v 5.6 0.7 1.5
v 5.6 0.8 1.5
v 5.6 0.9 1.5
v 5.6 1 1.5
v 5.7 0.4 1.5
v 5.7 0.5 1.5
v 5.7 0.6 1.5
v 5.7 0.7 1.5
v 5.7 0.8 1.5
v 5.7 0.9 1.5
v 5.7 1 1.5
v 5.7 1.1 1.5
v 5.8 0.5 1.5
v 5.8 0.7 1.5
v 5.8 0.8 1.5
v 5.8 0.9 1.5
v 4.9 0.5 1.4
v 4.9 0.7 1.4
v 5 0.5 1.4
v 5 0.7 1.4
v 5.3 0 1.4
v 5.3 0.1 1.4
v 5.3 0.2 1.4
v 5.3 0.4 1.4
v 5.3 0.5 1.4
v 5.3 0.7 1.4
v 5.3 1 1.4
v 5.3 1.1 1.4
v 5.4 1 1.4
v 5.4 1.1 1.4
v 5.5 0 1.4
v 5.5 0.1 1.4
v 5.5 0.3 1.4
v 5.5 0.4 1.4
v 5.6 0 1.4
v 5.6 0.1 1.4
v 5.6 0.3 1.4
v 5.6 0.4 1.4
v 5.7 0.4 1.4
v 5.7 0.5 1.4
v 5.7 1 1.4
v 5.7 1.1 1.4
v 5.8 0 1.4
v 5.8 0.1 1.4
v 5.8 0.2 1.4
v 5.8 0.5 1.4
v 5.8 0.7 1.4
v 5.8 1 1.4
v 5.8 1.1 1.4
v 6.1 0.5 1.4
v 6.1 0.7 1.4
v 6.2 0.5 1.4
v 6.2 0.7 1.4
v 4.9 0.5 1.2
v 4.9 0.7 1.2
v 5 0.5 1.2
v 5 0.7 1.2
v 5.3 0 1.2
v 5.3 0.1 1.2
v 5.3 0.2 1.2
v 5.3 0.5 1.2
v 5.3 0.6 1.2
v 5.3 0.7 1.2
v 5.3 1 1.2
v 5.3 1.1 1.2
v 5.4 0.5 1.2
v 5.4 0.6 1.2
v 5.4 1 1.2
v 5.4 1.1 1.2
v 5.5 0 1.2
v 5.5 0.1 1.2
v 5.5 0.4 1.2
v 5.5 0.5 1.2
v 5.6 0 1.2
v 5.6 0.1 1.2
v 5.6 0.4 1.2
v 5.6 0.5 1.2
v 5.7 0.5 1.2
v 5.7 0.6 1.2
v 5.7 1 1.2
v 5.7 1.1 1.2
v 5.8 0 1.2
v 5.8 0.1 1.2
v 5.8 0.2 1.2
v 5.8 0.5 1.2
v 5.8 0.6 1.2
v 5.8 0.7 1.2
v 5.8 1 1.2
v 5.8 1.1 1.2
v 6.1 0.5 1.2
v 6.1 0.7 1.2
v 6.2 0.5 1.2
v 6.2 0.7 1.2
v 5.3 0.6 1.1
v 5.3 1 1.1
v 5.4 0.5 1.1
v 5.4 0.6 1.1
v 5.4 0.9 1.1
v 5.4 1 1.1
v 5.4 1.1 1.1
v 5.5 0.4 1.1
v 5.5 0.5 1.1
v 5.5 0.6 1.1
v 5.5 0.9 1.1
v 5.5 1 1.1
v 5.6 0.4 1.1
v 5.6 0.5 1.1
v 5.6 0.6 1.1
v 5.6 0.9 1.1
v 5.6 1 1.1
v 5.7 0.5 1.1
v 5.7 0.6 1.1
v 5.7 0.9 1.1
v 5.7 1 1.1
v 5.7 1.1 1.1
v 5.8 0.6 1.1
v 5.8 1 1.1
v 5.4 0.6 1
v 5.4 0.9 1
v 5.5 0.5 1
v 5.5 0.6 1
v 5.5 0.9 1
v 5.5 1 1
v 5.6 0.5 1
v 5.6 0.6 1
v 5.6 0.9 1
v 5.6 1 1
v 5.7 0.6 1
v 5.7 0.9 1
v 5.3 0 1.4
v 5.5 0 1.4
v 5.6 0 1.4
v 5.8 0 1.4
v 5.3 0 1.2
v 5.5 0 1.2
v 5.6 0 1.2
v 5.8 0 1.2
v 5.5 0.1 1.4
v 5.6 0.1 1.4
v 5.5 0.1 1.2
v 5.6 0.1 1.2
v 5.5 0.3 1.5
v 5.6 0.3 1.5
v 5.5 0.3 1.4
v 5.6 0.3 1.4
v 5.3 0.4 1.5
v 5.5 0.4 1.5
v 5.6 0.4 1.5
v 5.7 0.4 1.5
v 5.3 0.4 1.4
v 5.5 0.4 1.4
v 5.6 0.4 1.4
v 5.7 0.4 1.4
v 5.5 0.4 1.2
v 5.6 0.4 1.2
v 5.5 0.4 1.1
v 5.6 0.4 1.1
v 5.5 0.5 1.6
v 5.6 0.5 1.6
v 5.5 0.5 1.5
v 5.6 0.5 1.5
v 5.7 0.5 1.5
v 5.8 0.5 1.5
v 4.9 0.5 1.4
v 5 0.5 1.4
v 5.3 0.5 1.4
v 5.7 0.5 1.4
v 5.8 0.5 1.4
v 6.1 0.5 1.4
v 6.2 0.5 1.4
v 4.9 0.5 1.2
v 5 0.5 1.2
v 5.3 0.5 1.2
v 5.4 0.5 1.2
v 5.5 0.5 1.2
v 5.6 0.5 1.2
v 5.7 0.5 1.2
v 5.8 0.5 1.2
v 6.1 0.5 1.2
v 6.2 0.5 1.2
v 5.4 0.5 1.1
v 5.5 0.5 1.1
v 5.6 0.5 1.1
v 5.7 0.5 1.1
v 5.5 0.5 1
v 5.6 0.5 1
v 5.4 0.6 1.6
v 5.5 0.6 1.6
v 5.6 0.6 1.6
v 5.7 0.6 1.6
v 5.4 0.6 1.5
v 5.5 0.6 1.5
v 5.6 0.6 1.5
v 5.7 0.6 1.5
v 5.3 0.6 1.2
v 5.4 0.6 1.2
v 5.7 0.6 1.2
v 5.8 0.6 1.2
v 5.3 0.6 1.1
v 5.4 0.6 1.1
v 5.5 0.6 1.1
v 5.6 0.6 1.1
v 5.7 0.6 1.1
v 5.8 0.6 1.1
v 5.4 0.6 1
v 5.5 0.6 1
v 5.6 0.6 1
v 5.7 0.6 1
v 5.3 0.7 1.6
v 5.4 0.7 1.6
v 5.7 0.7 1.6
v 5.8 0.7 1.6
v 5.3 0.7 1.5
v 5.4 0.7 1.5
v 5.7 0.7 1.5
v 5.8 0.7 1.5
v 5.3 0.9 1.6
v 5.5 0.9 1.6
v 5.6 0.9 1.6
v 5.8 0.9 1.6
v 5.3 0.9 1.5
v 5.4 0.9 1.5
v 5.5 0.9 1.5
v 5.6 0.9 1.5
v 5.7 0.9 1.5
v 5.8 0.9 1.5
v 5.4 0.7 1.6
v 5.5 0.7 1.6
v 5.6 0.7 1.6
v 5.7 0.7 1.6
v 5.4 0.7 1.5
v 5.5 0.7 1.5
v 5.6 0.7 1.5
v 5.7 0.7 1.5
v 4.9 0.7 1.4
v 5 0.7 1.4
v 5.3 0.7 1.4
v 5.8 0.7 1.4
v 6.1 0.7 1.4
v 6.2 0.7 1.4
v 4.9 0.7 1.2
v 5 0.7 1.2
v 5.3 0.7 1.2
v 5.8 0.7 1.2
v 6.1 0.7 1.2
v 6.2 0.7 1.2
v 5.3 0.8 1.6
v 5.4 0.8 1.6
v 5.5 0.8 1.6
v 5.6 0.8 1.6
v 5.7 0.8 1.6
v 5.8 0.8 1.6
v 5.3 0.8 1.5
v 5.4 0.8 1.5
v 5.5 0.8 1.5
v 5.6 0.8 1.5
v 5.7 0.8 1.5
v 5.8 0.8 1.5
v 5.4 0.9 1.1
v 5.5 0.9 1.1
v 5.6 0.9 1.1
v 5.7 0.9 1.1
v 5.4 0.9 1
v 5.5 0.9 1
v 5.6 0.9 1
v 5.7 0.9 1
v 5.3 1 1.6
v 5.5 1 1.6
v 5.6 1 1.6
v 5.8 1 1.6
v 5.4 1 1.5
v 5.5 1 1.5
v 5.6 1 1.5
v 5.7 1 1.5
v 5.3 1 1.4
v 5.4 1 1.4
v 5.7 1 1.4
v 5.8 1 1.4
v 5.3 1 1.2
v 5.4 1 1.2
v 5.7 1 1.2
v 5.8 1 1.2
v 5.3 1 1.1
v 5.4 1 1.1
v 5.5 1 1.1
v 5.6 1 1.1
v 5.7 1 1.1
v 5.8 1 1.1
v 5.5 1 1
v 5.6 1 1
v 5.4 1.1 1.5
v 5.7 1.1 1.5
v 5.3 1.1 1.4
v 5.4 1.1 1.4
v 5.7 1.1 1.4
v 5.8 1.1 1.4
v 5.3 1.1 1.2
v 5.4 1.1 1.2
v 5.7 1.1 1.2
v 5.8 1.1 1.2
v 5.4 1.1 1.1
v 5.7 1.1 1.1

# faces
f 3/2/1 2/2/1 1/2/1
f 4/2/1 2/2/1 3/2/1
f 7/7/1 6/7/1 5/7/1
f 8/7/1 6/7/1 7/7/1
f 9/4/1 8/4/1 7/4/1
f 10/4/1 8/4/1 9/4/1
f 12/3/1 10/3/1 9/3/1
f 13/3/1 10/3/1 12/3/1
f 13/5/1 12/5/1 11/5/1
f 14/3/1 10/3/1 13/3/1
f 18/5/1 13/5/1 11/5/1
f 19/5/1 13/5/1 18/5/1
f 20/5/1 16/5/1 15/5/1
f 21/5/1 19/5/1 18/5/1
f 21/5/1 20/5/1 19/5/1
f 21/5/1 18/5/1 17/5/1
f 22/5/1 20/5/1 21/5/1
f 24/5/1 20/5/1 22/5/1
f 25/5/1 24/5/1 23/5/1
f 26/5/1 20/5/1 24/5/1
f 26/5/1 24/5/1 25/5/1
f 27/5/1 16/5/1 20/5/1
f 27/5/1 20/5/1 26/5/1
f 28/5/1 16/5/1 27/5/1
f 29/5/1 27/5/1 26/5/1
f 30/5/1 27/5/1 29/5/1
f 35/5/1 32/5/1 31/5/1
f 36/5/1 32/5/1 35/5/1
f 38/5/1 34/5/1 33/5/1
f 39/5/1 34/5/1 38/5/1
f 40/5/1 37/5/1 36/5/1
f 41/5/1 37/5/1 40/5/1
f 46/5/1 43/5/1 42/5/1
f 47/5/1 43/5/1 46/5/1
f 48/5/1 45/5/1 44/5/1
f 49/5/1 45/5/1 48/5/1
f 52/5/1 51/5/1 50/5/1
f 53/5/1 51/5/1 52/5/1
f 58/5/1 55/5/1 54/5/1
f 59/5/1 55/5/1 58/5/1
f 61/5/1 57/5/1 56/5/1
f 62/5/1 57/5/1 61/5/1
f 63/5/1 60/5/1 59/5/1
f 64/5/1 60/5/1 63/5/1
f 67/1/1 66/1/1 65/1/1
f 68/1/1 66/1/1 67/1/1
f 71/5/1 70/5/1 69/5/1
f 72/5/1 70/5/1 71/5/1
f 75/7/1 74/7/1 73/7/1
f 76/7/1 74/7/1 75/7/1
f 79/5/1 78/5/1 77/5/1
f 80/5/1 78/5/1 79/5/1
f 83/5/1 82/5/1 81/5/1
f 84/5/1 82/5/1 83/5/1
f 85/5/2 86/5/2 87/5/2
f 87/5/2 86/5/2 88/5/2
f 89/7/2 90/7/2 91/7/2
f 91/7/2 90/7/2 92/7/2
f 93/5/2 94/5/2 95/5/2
f 95/5/2 94/5/2 96/5/2
f 97/5/2 98/5/2 99/5/2
f 99/5/2 98/5/2 100/5/2
f 101/5/2 102/5/2 105/5/2
f 105/5/2 102/5/2 106/5/2
f 103/5/2 104/5/2 108/5/2
f 108/5/2 104/5/2 109/5/2
f 106/5/2 107/5/2 110/5/2
f 110/5/2 107/5/2 111/5/2
f 112/1/2 113/1/2 114/1/2
f 114/1/2 113/1/2 115/1/2
f 116/5/2 117/5/2 118/5/2
f 118/5/2 117/5/2 119/5/2
f 120/5/2 121/5/2 122/5/2
f 122/5/2 121/5/2 123/5/2
f 124/5/2 125/5/2 128/5/2
f 128/5/2 125/5/2 129/5/2
f 126/5/2 127/5/2 131/5/2
f 131/5/2 127/5/2 132/5/2
f 129/5/2 130/5/2 133/5/2
f 133/5/2 130/5/2 134/5/2
f 135/5/2 136/5/2 139/5/2
f 139/5/2 136/5/2 140/5/2
f 137/5/2 138/5/2 141/5/2
f 141/5/2 138/5/2 142/5/2
f 143/7/2 144/7/2 145/7/2
f 145/7/2 144/7/2 146/7/2
f 145/4/2 146/4/2 147/4/2
f 147/4/2 146/4/2 148/4/2
f 147/3/2 148/3/2 150/3/2
f 150/3/2 148/3/2 151/3/2
f 149/5/2 150/5/2 155/5/2
f 155/5/2 150/5/2 156/5/2
f 152/5/2 153/5/2 157/5/2
f 155/5/2 156/5/2 158/5/2
f 156/5/2 157/5/2 158/5/2
f 154/5/2 155/5/2 158/5/2
f 158/5/2 157/5/2 159/5/2
f 159/5/2 157/5/2 161/5/2
f 160/5/2 161/5/2 162/5/2
f 161/5/2 157/5/2 163/5/2
f 162/5/2 161/5/2 163/5/2
f 157/5/2 153/5/2 164/5/2
f 163/5/2 157/5/2 164/5/2
f 164/5/2 153/5/2 165/5/2
f 163/5/2 164/5/2 166/5/2
f 166/5/2 164/5/2 167/5/2
f 168/2/2 169/2/2 170/2/2
f 170/2/2 169/2/2 171/2/2
f 177/5/3 173/5/3 172/5/3
f 178/5/3 173/5/3 177/5/3
f 180/5/3 177/5/3 176/5/3
f 181/5/3 177/5/3 180/5/3
f 183/5/3 175/5/3 174/5/3
f 184/5/3 175/5/3 183/5/3
f 185/5/3 181/5/3 180/5/3
f 185/5/3 180/5/3 179/5/3
f 186/5/3 181/5/3 185/5/3
f 187/1/3 182/1/3 181/1/3
f 187/5/3 181/5/3 186/5/3
f 188/1/3 182/1/3 187/1/3
f 191/5/3 187/5/3 186/5/3
f 192/5/3 187/5/3 191/5/3
f 194/5/3 193/5/3 192/5/3
f 195/5/3 193/5/3 194/5/3
f 196/5/3 190/5/3 189/5/3
f 197/5/3 190/5/3 196/5/3
f 202/5/3 199/5/3 198/5/3
f 203/5/3 199/5/3 202/5/3
f 204/5/3 201/5/3 200/5/3
f 205/5/3 201/5/3 204/5/3
f 209/5/3 202/5/3 198/5/3
f 210/5/3 202/5/3 209/5/3
f 211/5/3 202/5/3 210/5/3
f 212/2/3 204/2/3 203/2/3
f 213/6/3 205/6/3 204/6/3
f 213/2/3 204/2/3 212/2/3
f 214/6/3 205/6/3 213/6/3
f 215/5/3 207/5/3 206/5/3
f 216/5/3 209/5/3 208/5/3
f 216/5/3 210/5/3 209/5/3
f 217/5/3 210/5/3 216/5/3
f 218/5/3 210/5/3 217/5/3
f 221/2/3 214/2/3 213/2/3
f 221/2/3 215/2/3 214/2/3
f 222/2/3 215/2/3 221/2/3
f 223/5/3 207/5/3 215/5/3
f 223/2/3 215/2/3 222/2/3
f 224/5/3 219/5/3 218/5/3
f 224/5/3 218/5/3 217/5/3
f 225/5/3 219/5/3 224/5/3
f 226/5/3 219/5/3 225/5/3
f 227/2/3 221/2/3 220/2/3
f 228/6/3 222/6/3 221/6/3
f 228/2/3 221/2/3 227/2/3
f 229/6/3 222/6/3 228/6/3
f 230/5/3 207/5/3 223/5/3
f 231/5/3 207/5/3 230/5/3
f 232/5/3 226/5/3 225/5/3
f 232/5/3 227/5/3 226/5/3
f 233/5/3 227/5/3 232/5/3
f 234/5/3 229/5/3 228/5/3
f 235/5/3 229/5/3 234/5/3
f 238/2/3 237/2/3 236/2/3
f 239/2/3 237/2/3 238/2/3
f 244/3/3 239/3/3 238/3/3
f 245/3/3 239/3/3 244/3/3
f 248/5/3 247/5/3 246/5/3
f 249/5/3 247/5/3 248/5/3
f 250/7/3 241/7/3 240/7/3
f 251/4/3 242/4/3 241/4/3
f 251/7/3 241/7/3 250/7/3
f 252/3/3 243/3/3 242/3/3
f 253/3/3 243/3/3 252/3/3
f 255/4/3 242/4/3 251/4/3
f 256/3/3 252/3/3 242/3/3
f 258/3/3 257/3/3 256/3/3
f 262/7/3 255/7/3 254/7/3
f 263/4/3 242/4/3 255/4/3
f 263/7/3 255/7/3 262/7/3
f 264/3/3 258/3/3 256/3/3
f 264/4/3 242/4/3 263/4/3
f 264/3/3 256/3/3 242/3/3
f 264/3/3 259/3/3 258/3/3
f 265/3/3 259/3/3 264/3/3
f 267/5/3 261/5/3 260/5/3
f 268/5/3 261/5/3 267/5/3
f 269/3/3 266/3/3 265/3/3
f 270/3/3 266/3/3 269/3/3
f 271/2/3 270/2/3 269/2/3
f 272/2/3 270/2/3 271/2/3
f 273/2/4 274/2/4 275/2/4
f 275/2/4 274/2/4 276/2/4
f 275/3/4 276/3/4 280/3/4
f 280/3/4 276/3/4 281/3/4
f 281/3/4 276/3/4 282/3/4
f 279/3/4 280/3/4 285/3/4
f 280/3/4 281/3/4 285/3/4
f 285/3/4 281/3/4 286/3/4
f 283/5/4 284/5/4 287/5/4
f 287/5/4 284/5/4 288/5/4
f 277/7/4 278/7/4 289/7/4
f 278/4/4 279/4/4 290/4/4
f 289/7/4 278/7/4 290/7/4
f 279/3/4 285/3/4 291/3/4
f 291/3/4 285/3/4 292/3/4
f 290/4/4 279/4/4 294/4/4
f 279/3/4 291/3/4 295/3/4
f 295/3/4 296/3/4 297/3/4
f 293/7/4 294/7/4 301/7/4
f 294/4/4 279/4/4 302/4/4
f 301/7/4 294/7/4 302/7/4
f 295/3/4 297/3/4 303/3/4
f 302/4/4 279/4/4 303/4/4
f 279/3/4 295/3/4 303/3/4
f 297/3/4 298/3/4 303/3/4
f 303/3/4 298/3/4 304/3/4
f 304/3/4 298/3/4 305/3/4
f 299/5/4 300/5/4 307/5/4
f 307/5/4 300/5/4 308/5/4
f 305/3/4 306/3/4 309/3/4
f 304/3/4 305/3/4 309/3/4
f 309/3/4 306/3/4 310/3/4
f 309/2/4 310/2/4 311/2/4
f 311/2/4 310/2/4 312/2/4
f 313/5/4 314/5/4 316/5/4
f 316/5/4 314/5/4 317/5/4
f 317/5/4 314/5/4 318/5/4
f 315/5/4 316/5/4 321/5/4
f 321/5/4 316/5/4 322/5/4
f 317/5/4 318/5/4 323/5/4
f 318/5/4 319/5/4 323/5/4
f 323/5/4 319/5/4 324/5/4
f 320/5/4 321/5/4 325/5/4
f 325/5/4 321/5/4 326/5/4
f 324/5/4 319/5/4 329/5/4
f 326/5/4 327/5/4 330/5/4
f 330/5/4 327/5/4 331/5/4
f 328/5/4 329/5/4 332/5/4
f 329/5/4 319/5/4 333/5/4
f 332/5/4 329/5/4 333/5/4
f 333/5/4 319/5/4 334/5/4
f 331/5/4 332/5/4 335/5/4
f 332/5/4 333/5/4 335/5/4
f 335/5/4 333/5/4 336/5/4
f 337/5/4 338/5/4 340/5/4
f 340/5/4 338/5/4 341/5/4
f 339/5/4 340/5/4 343/5/4
f 341/5/4 342/5/4 343/5/4
f 340/5/4 341/5/4 343/5/4
f 343/5/4 342/5/4 344/5/4
f 344/5/4 342/5/4 345/5/4
f 345/5/4 342/5/4 346/5/4
f 344/5/4 345/5/4 347/5/4
f 347/5/4 345/5/4 348/5/4
f 353/7/5 350/7/5 349/7/5
f 354/7/5 350/7/5 353/7/5
f 355/7/5 352/7/5 351/7/5
f 356/7/5 352/7/5 355/7/5
f 359/4/5 358/4/5 357/4/5
f 360/4/5 358/4/5 359/4/5
f 363/5/5 362/5/5 361/5/5
f 364/5/5 362/5/5 363/5/5
f 369/5/5 366/5/5 365/5/5
f 370/5/5 366/5/5 369/5/5
f 371/5/5 368/5/5 367/5/5
f 372/5/5 368/5/5 371/5/5
f 375/5/5 374/5/5 373/5/5
f 376/5/5 374/5/5 375/5/5
f 379/5/5 378/5/5 377/5/5
f 380/5/5 378/5/5 379/5/5
f 386/5/5 382/5/5 381/5/5
f 387/5/5 382/5/5 386/5/5
f 390/2/5 384/2/5 383/2/5
f 391/3/5 385/3/5 384/3/5
f 391/2/5 384/2/5 390/2/5
f 392/3/5 385/3/5 391/3/5
f 397/3/5 388/3/5 387/3/5
f 398/2/5 389/2/5 388/2/5
f 398/3/5 388/3/5 397/3/5
f 399/2/5 389/2/5 398/2/5
f 400/5/5 394/5/5 393/5/5
f 401/5/5 394/5/5 400/5/5
f 402/5/5 396/5/5 395/5/5
f 403/5/5 396/5/5 402/5/5
f 404/5/5 402/5/5 401/5/5
f 405/5/5 402/5/5 404/5/5
f 410/5/5 407/5/5 406/5/5
f 411/5/5 407/5/5 410/5/5
f 412/5/5 409/5/5 408/5/5
f 413/5/5 409/5/5 412/5/5
f 418/5/5 415/5/5 414/5/5
f 419/5/5 415/5/5 418/5/5
f 422/5/5 417/5/5 416/5/5
f 423/5/5 417/5/5 422/5/5
f 424/5/5 420/5/5 419/5/5
f 425/5/5 420/5/5 424/5/5
f 426/5/5 422/5/5 421/5/5
f 427/5/5 422/5/5 426/5/5
f 432/5/5 429/5/5 428/5/5
f 433/5/5 429/5/5 432/5/5
f 434/5/5 431/5/5 430/5/5
f 435/5/5 431/5/5 434/5/5
f 440/5/5 437/5/5 436/5/5
f 441/5/5 437/5/5 440/5/5
f 442/5/5 437/5/5 441/5/5
f 443/5/5 439/5/5 438/5/5
f 444/5/5 439/5/5 443/5/5
f 445/5/5 439/5/5 444/5/5
f 446/5/6 447/5/6 450/5/6
f 450/5/6 447/5/6 451/5/6
f 448/5/6 449/5/6 452/5/6
f 452/5/6 449/5/6 453/5/6
f 454/2/6 455/2/6 460/2/6
f 455/3/6 456/3/6 461/3/6
f 460/2/6 455/2/6 461/2/6
f 461/3/6 456/3/6 462/3/6
f 457/3/6 458/3/6 463/3/6
f 458/2/6 459/2/6 464/2/6
f 463/3/6 458/3/6 464/3/6
f 464/2/6 459/2/6 465/2/6
f 466/5/6 467/5/6 472/5/6
f 472/5/6 467/5/6 473/5/6
f 468/1/6 469/1/6 474/1/6
f 474/1/6 469/1/6 475/1/6
f 470/5/6 471/5/6 476/5/6
f 476/5/6 471/5/6 477/5/6
f 478/5/6 479/5/6 482/5/6
f 482/5/6 479/5/6 483/5/6
f 480/5/6 481/5/6 484/5/6
f 484/5/6 481/5/6 485/5/6
f 486/5/6 487/5/6 490/5/6
f 490/5/6 487/5/6 491/5/6
f 488/5/6 489/5/6 492/5/6
f 492/5/6 489/5/6 493/5/6
f 486/5/6 490/5/6 494/5/6
f 494/5/6 490/5/6 495/5/6
f 493/5/6 489/5/6 496/5/6
f 496/5/6 489/5/6 497/5/6
f 498/5/6 499/5/6 502/5/6
f 502/5/6 499/5/6 503/5/6
f 500/5/6 501/5/6 506/5/6
f 506/5/6 501/5/6 507/5/6
f 504/5/6 505/5/6 508/5/6
f 508/5/6 505/5/6 509/5/6
f 510/5/6 511/5/6 513/5/6
f 513/5/6 511/5/6 514/5/6
f 512/5/6 513/5/6 516/5/6
f 514/5/6 515/5/6 516/5/6
f 513/5/6 514/5/6 516/5/6
f 516/5/6 515/5/6 517/5/6
f 517/5/6 515/5/6 518/5/6
f 518/5/6 515/5/6 519/5/6
f 517/5/6 518/5/6 520/5/6
f 520/5/6 518/5/6 521/5/6
