# MagicaVoxel @ Ephtracy

# group
o wall_tudor2

# material
mtllib tavern-80-wall_tudor2.mtl
usemtl palette

# normals
vn -1 0 0
vn 1 0 0
vn 0 0 1
vn 0 0 -1
vn 0 -1 0
vn 0 1 0

# texcoords
vt 0.701172 0.5
vt 0.705078 0.5
vt 0.708984 0.5

# verts
v 6.5 0 -4.5
v 6.5 0 -4.9
v 6.5 0.1 -4.6
v 6.5 0.1 -4.8
v 6.5 0.2 -4.6
v 6.5 0.2 -4.8
v 6.5 0.3 -4.6
v 6.5 0.3 -4.7
v 6.5 0.4 -4.7
v 6.5 0.4 -4.8
v 6.5 0.5 -4.6
v 6.5 0.5 -4.7
v 6.5 0.6 -4.6
v 6.5 0.6 -4.7
v 6.5 0.8 -4.6
v 6.5 0.8 -4.7
v 6.5 1 -4.7
v 6.5 1 -4.8
v 6.5 1.2 -4.7
v 6.5 1.2 -4.8
v 6.5 1.3 -4.6
v 6.5 1.3 -4.7
v 6.5 1.4 -4.7
v 6.5 1.4 -4.8
v 6.5 1.5 -4.6
v 6.5 1.5 -4.7
v 6.5 1.6 -4.6
v 6.5 1.6 -4.8
v 6.5 1.7 -4.5
v 6.5 1.7 -4.9
v 7.2 0.1 -4.5
v 7.2 0.1 -4.6
v 7.2 0.8 -4.6
v 7.2 0.9 -4.6
v 7.2 1.2 -4.6
v 7.2 1.4 -4.6
v 7.2 1.5 -4.6
v 7.2 1.6 -4.5
v 7.2 1.6 -4.6
v 8 0.1 -4.5
v 8 0.1 -4.6
v 8 0.2 -4.6
v 8 0.3 -4.6
v 8 0.4 -4.6
v 8 0.5 -4.6
v 8 0.6 -4.6
v 8 0.7 -4.6
v 8 0.9 -4.6
v 8 1.1 -4.6
v 8 1.5 -4.6
v 8 1.6 -4.5
v 8 1.6 -4.6
v 6.6 0.1 -4.5
v 6.6 0.1 -4.6
v 6.6 0.2 -4.6
v 6.6 0.3 -4.6
v 6.6 0.6 -4.6
v 6.6 0.7 -4.6
v 6.6 0.9 -4.6
v 6.6 1 -4.6
v 6.6 1.3 -4.6
v 6.6 1.6 -4.5
v 6.6 1.6 -4.6
v 7.4 0.1 -4.5
v 7.4 0.1 -4.6
v 7.4 0.2 -4.6
v 7.4 0.3 -4.6
v 7.4 0.4 -4.6
v 7.4 0.5 -4.6
v 7.4 0.7 -4.6
v 7.4 1 -4.6
v 7.4 1.3 -4.6
v 7.4 1.6 -4.5
v 7.4 1.6 -4.6
v 8.1 0 -4.5
v 8.1 0 -4.9
v 8.1 0.1 -4.6
v 8.1 0.1 -4.7
v 8.1 0.1 -4.8
v 8.1 0.2 -4.7
v 8.1 0.2 -4.8
v 8.1 0.3 -4.6
v 8.1 0.3 -4.8
v 8.1 0.5 -4.7
v 8.1 0.5 -4.8
v 8.1 0.7 -4.6
v 8.1 0.7 -4.7
v 8.1 0.8 -4.6
v 8.1 0.8 -4.8
v 8.1 1.6 -4.6
v 8.1 1.6 -4.8
v 8.1 1.7 -4.5
v 8.1 1.7 -4.9
v 6.5 0 -4.5
v 6.5 1.7 -4.5
v 6.6 0.1 -4.5
v 6.6 1.6 -4.5
v 7.2 0.1 -4.5
v 7.2 1.6 -4.5
v 7.4 0.1 -4.5
v 7.4 1.6 -4.5
v 8 0.1 -4.5
v 8 1.6 -4.5
v 8.1 0 -4.5
v 8.1 1.7 -4.5
v 6.6 0.1 -4.6
v 6.6 0.2 -4.6
v 6.6 0.3 -4.6
v 6.6 0.6 -4.6
v 6.6 0.7 -4.6
v 6.6 0.9 -4.6
v 6.6 1 -4.6
v 6.6 1.3 -4.6
v 6.6 1.6 -4.6
v 6.7 0.1 -4.6
v 6.7 0.2 -4.6
v 6.7 0.8 -4.6
v 6.7 0.9 -4.6
v 6.7 1 -4.6
v 6.7 1.3 -4.6
v 6.7 1.4 -4.6
v 6.7 1.6 -4.6
v 6.8 0.1 -4.6
v 6.8 0.2 -4.6
v 6.8 0.4 -4.6
v 6.8 0.6 -4.6
v 6.8 0.7 -4.6
v 6.8 0.8 -4.6
v 6.8 0.9 -4.6
v 6.8 1.3 -4.6
v 6.8 1.4 -4.6
v 6.8 1.5 -4.6
v 6.9 0.1 -4.6
v 6.9 0.2 -4.6
v 6.9 0.3 -4.6
v 6.9 0.4 -4.6
v 6.9 0.5 -4.6
v 6.9 0.8 -4.6
v 6.9 1.1 -4.6
v 6.9 1.2 -4.6
v 6.9 1.4 -4.6
v 6.9 1.5 -4.6
v 7 0.1 -4.6
v 7 0.2 -4.6
v 7 0.3 -4.6
v 7 0.4 -4.6
v 7 0.5 -4.6
v 7 0.6 -4.6
v 7 0.8 -4.6
v 7 0.9 -4.6
v 7 1 -4.6
v 7 1.1 -4.6
v 7 1.2 -4.6
v 7 1.3 -4.6
v 7 1.4 -4.6
v 7 1.6 -4.6
v 7.1 0.1 -4.6
v 7.1 0.4 -4.6
v 7.1 0.6 -4.6
v 7.1 0.8 -4.6
v 7.1 1 -4.6
v 7.1 1.2 -4.6
v 7.1 1.5 -4.6
v 7.1 1.6 -4.6
v 7.2 0.1 -4.6
v 7.2 0.8 -4.6
v 7.2 0.9 -4.6
v 7.2 1.2 -4.6
v 7.2 1.4 -4.6
v 7.2 1.5 -4.6
v 7.2 1.6 -4.6
v 7.4 0.1 -4.6
v 7.4 0.2 -4.6
v 7.4 0.3 -4.6
v 7.4 0.4 -4.6
v 7.4 0.5 -4.6
v 7.4 0.7 -4.6
v 7.4 1 -4.6
v 7.4 1.3 -4.6
v 7.4 1.6 -4.6
v 7.5 0.1 -4.6
v 7.5 0.2 -4.6
v 7.5 0.4 -4.6
v 7.5 0.5 -4.6
v 7.5 0.7 -4.6
v 7.5 0.9 -4.6
v 7.5 1 -4.6
v 7.5 1.2 -4.6
v 7.5 1.3 -4.6
v 7.5 1.5 -4.6
v 7.6 0.1 -4.6
v 7.6 0.3 -4.6
v 7.6 0.5 -4.6
v 7.6 0.8 -4.6
v 7.6 1.3 -4.6
v 7.6 1.4 -4.6
v 7.6 1.5 -4.6
v 7.6 1.6 -4.6
v 7.7 0.2 -4.6
v 7.7 0.3 -4.6
v 7.7 0.4 -4.6
v 7.7 0.5 -4.6
v 7.7 0.6 -4.6
v 7.7 0.8 -4.6
v 7.7 0.9 -4.6
v 7.7 1 -4.6
v 7.7 1.2 -4.6
v 7.7 1.3 -4.6
v 7.7 1.4 -4.6
v 7.7 1.5 -4.6
v 7.8 0.1 -4.6
v 7.8 0.2 -4.6
v 7.8 0.4 -4.6
v 7.8 0.5 -4.6
v 7.8 0.6 -4.6
v 7.8 0.8 -4.6
v 7.8 1 -4.6
v 7.8 1.2 -4.6
v 7.8 1.3 -4.6
v 7.8 1.4 -4.6
v 7.8 1.5 -4.6
v 7.9 0.2 -4.6
v 7.9 0.3 -4.6
v 7.9 0.4 -4.6
v 7.9 0.6 -4.6
v 7.9 0.7 -4.6
v 7.9 0.9 -4.6
v 7.9 1.1 -4.6
v 7.9 1.4 -4.6
v 7.9 1.5 -4.6
v 8 0.1 -4.6
v 8 0.2 -4.6
v 8 0.3 -4.6
v 8 0.4 -4.6
v 8 0.5 -4.6
v 8 0.6 -4.6
v 8 0.7 -4.6
v 8 0.9 -4.6
v 8 1.1 -4.6
v 8 1.5 -4.6
v 8 1.6 -4.6
v 6.5 0 -4.9
v 6.5 1.7 -4.9
v 6.6 0.1 -4.9
v 6.6 0.2 -4.9
v 6.6 0.3 -4.9
v 6.6 0.5 -4.9
v 6.6 0.9 -4.9
v 6.6 1.1 -4.9
v 6.6 1.4 -4.9
v 6.6 1.6 -4.9
v 6.7 0.1 -4.9
v 6.7 0.2 -4.9
v 6.7 0.3 -4.9
v 6.7 0.5 -4.9
v 6.7 0.8 -4.9
v 6.7 0.9 -4.9
v 6.7 1.3 -4.9
v 6.7 1.4 -4.9
v 6.7 1.6 -4.9
v 6.8 0.1 -4.9
v 6.8 0.2 -4.9
v 6.8 0.4 -4.9
v 6.8 0.8 -4.9
v 6.8 1 -4.9
v 6.8 1.1 -4.9
v 6.8 1.3 -4.9
v 6.8 1.4 -4.9
v 6.8 1.5 -4.9
v 6.9 0.1 -4.9
v 6.9 0.2 -4.9
v 6.9 0.4 -4.9
v 6.9 0.6 -4.9
v 6.9 0.8 -4.9
v 6.9 1 -4.9
v 6.9 1.1 -4.9
v 6.9 1.3 -4.9
v 6.9 1.4 -4.9
v 6.9 1.5 -4.9
v 6.9 1.6 -4.9
v 7 0.6 -4.9
v 7 0.7 -4.9
v 7 0.8 -4.9
v 7 0.9 -4.9
v 7 1.1 -4.9
v 7 1.2 -4.9
v 7 1.5 -4.9
v 7 1.6 -4.9
v 7.1 0.3 -4.9
v 7.1 0.6 -4.9
v 7.1 0.8 -4.9
v 7.1 0.9 -4.9
v 7.1 1 -4.9
v 7.1 1.1 -4.9
v 7.1 1.2 -4.9
v 7.1 1.3 -4.9
v 7.1 1.4 -4.9
v 7.1 1.6 -4.9
v 7.2 0.2 -4.9
v 7.2 0.4 -4.9
v 7.2 0.5 -4.9
v 7.2 0.6 -4.9
v 7.2 0.7 -4.9
v 7.2 1 -4.9
v 7.2 1.1 -4.9
v 7.2 1.2 -4.9
v 7.2 1.6 -4.9
v 7.3 0.3 -4.9
v 7.3 0.4 -4.9
v 7.3 0.5 -4.9
v 7.3 0.6 -4.9
v 7.3 0.7 -4.9
v 7.3 1.2 -4.9
v 7.3 1.4 -4.9
v 7.4 0.2 -4.9
v 7.4 0.3 -4.9
v 7.4 0.4 -4.9
v 7.4 0.5 -4.9
v 7.4 0.6 -4.9
v 7.4 0.9 -4.9
v 7.4 1 -4.9
v 7.4 1.2 -4.9
v 7.4 1.3 -4.9
v 7.4 1.4 -4.9
v 7.4 1.5 -4.9
v 7.5 0.2 -4.9
v 7.5 0.3 -4.9
v 7.5 0.5 -4.9
v 7.5 0.6 -4.9
v 7.5 0.7 -4.9
v 7.5 0.9 -4.9
v 7.5 1 -4.9
v 7.5 1.1 -4.9
v 7.5 1.4 -4.9
v 7.5 1.5 -4.9
v 7.6 0.2 -4.9
v 7.6 0.4 -4.9
v 7.6 0.5 -4.9
v 7.6 0.6 -4.9
v 7.6 0.7 -4.9
v 7.6 0.9 -4.9
v 7.6 1 -4.9
v 7.6 1.1 -4.9
v 7.6 1.2 -4.9
v 7.6 1.3 -4.9
v 7.6 1.4 -4.9
v 7.6 1.5 -4.9
v 7.6 1.6 -4.9
v 7.7 0.3 -4.9
v 7.7 0.4 -4.9
v 7.7 0.5 -4.9
v 7.7 0.6 -4.9
v 7.7 0.7 -4.9
v 7.7 0.8 -4.9
v 7.7 1.1 -4.9
v 7.7 1.4 -4.9
v 7.7 1.5 -4.9
v 7.8 0.3 -4.9
v 7.8 0.4 -4.9
v 7.8 0.8 -4.9
v 7.8 0.9 -4.9
v 7.8 1 -4.9
v 7.8 1.1 -4.9
v 7.8 1.2 -4.9
v 7.8 1.4 -4.9
v 7.9 0.2 -4.9
v 7.9 0.4 -4.9
v 7.9 0.6 -4.9
v 7.9 0.9 -4.9
v 7.9 1 -4.9
v 7.9 1.1 -4.9
v 7.9 1.2 -4.9
v 7.9 1.3 -4.9
v 7.9 1.5 -4.9
v 7.9 1.6 -4.9
v 8 0.1 -4.9
v 8 0.4 -4.9
v 8 0.6 -4.9
v 8 0.9 -4.9
v 8 1 -4.9
v 8 1.3 -4.9
v 8 1.5 -4.9
v 8 1.6 -4.9
v 8.1 0 -4.9
v 8.1 1.7 -4.9
v 6.5 0 -4.5
v 8.1 0 -4.5
v 6.6 0 -4.6
v 6.7 0 -4.6
v 6.9 0 -4.6
v 7 0 -4.6
v 7.1 0 -4.6
v 7.2 0 -4.6
v 7.3 0 -4.6
v 7.5 0 -4.6
v 8 0 -4.6
v 6.6 0 -4.7
v 6.7 0 -4.7
v 7.2 0 -4.7
v 7.3 0 -4.7
v 7.4 0 -4.7
v 7.5 0 -4.7
v 7.7 0 -4.7
v 7.8 0 -4.7
v 8 0 -4.7
v 6.6 0 -4.8
v 6.9 0 -4.8
v 7 0 -4.8
v 7.1 0 -4.8
v 7.3 0 -4.8
v 7.4 0 -4.8
v 7.7 0 -4.8
v 7.8 0 -4.8
v 8 0 -4.8
v 6.5 0 -4.9
v 8.1 0 -4.9
v 6.6 1.6 -4.5
v 7.2 1.6 -4.5
v 7.4 1.6 -4.5
v 8 1.6 -4.5
v 6.6 1.6 -4.6
v 6.7 1.6 -4.6
v 7 1.6 -4.6
v 7.1 1.6 -4.6
v 7.2 1.6 -4.6
v 7.4 1.6 -4.6
v 7.6 1.6 -4.6
v 8 1.6 -4.6
v 6.6 0.1 -4.5
v 7.2 0.1 -4.5
v 7.4 0.1 -4.5
v 8 0.1 -4.5
v 6.6 0.1 -4.6
v 6.7 0.1 -4.6
v 6.8 0.1 -4.6
v 6.9 0.1 -4.6
v 7 0.1 -4.6
v 7.1 0.1 -4.6
v 7.2 0.1 -4.6
v 7.4 0.1 -4.6
v 7.5 0.1 -4.6
v 7.6 0.1 -4.6
v 7.8 0.1 -4.6
v 8 0.1 -4.6
v 6.5 1.7 -4.5
v 8.1 1.7 -4.5
v 6.5 1.7 -4.9
v 8.1 1.7 -4.9

# faces
f 3/3/1 2/3/1 1/3/1
f 4/3/1 2/3/1 3/3/1
f 5/3/1 3/3/1 1/3/1
f 5/2/1 4/2/1 3/2/1
f 6/3/1 2/3/1 4/3/1
f 6/2/1 4/2/1 5/2/1
f 7/3/1 5/3/1 1/3/1
f 7/1/1 6/1/1 5/1/1
f 8/1/1 6/1/1 7/1/1
f 9/2/1 8/2/1 7/2/1
f 9/1/1 6/1/1 8/1/1
f 10/3/1 2/3/1 6/3/1
f 10/1/1 6/1/1 9/1/1
f 11/2/1 9/2/1 7/2/1
f 11/3/1 7/3/1 1/3/1
f 11/2/1 10/2/1 9/2/1
f 12/2/1 10/2/1 11/2/1
f 13/3/1 11/3/1 1/3/1
f 13/1/1 12/1/1 11/1/1
f 14/2/1 10/2/1 12/2/1
f 14/1/1 12/1/1 13/1/1
f 15/3/1 13/3/1 1/3/1
f 15/2/1 14/2/1 13/2/1
f 16/2/1 10/2/1 14/2/1
f 16/2/1 14/2/1 15/2/1
f 17/1/1 16/1/1 15/1/1
f 17/2/1 10/2/1 16/2/1
f 18/3/1 2/3/1 10/3/1
f 18/2/1 10/2/1 17/2/1
f 19/1/1 17/1/1 15/1/1
f 19/1/1 18/1/1 17/1/1
f 20/3/1 2/3/1 18/3/1
f 20/1/1 18/1/1 19/1/1
f 21/1/1 19/1/1 15/1/1
f 21/3/1 15/3/1 1/3/1
f 22/2/1 20/2/1 19/2/1
f 22/1/1 19/1/1 21/1/1
f 23/2/1 22/2/1 21/2/1
f 23/2/1 20/2/1 22/2/1
f 24/3/1 2/3/1 20/3/1
f 24/2/1 20/2/1 23/2/1
f 25/2/1 23/2/1 21/2/1
f 25/3/1 21/3/1 1/3/1
f 26/1/1 24/1/1 23/1/1
f 26/2/1 23/2/1 25/2/1
f 27/3/1 25/3/1 1/3/1
f 27/1/1 26/1/1 25/1/1
f 28/3/1 2/3/1 24/3/1
f 28/1/1 26/1/1 27/1/1
f 28/1/1 24/1/1 26/1/1
f 29/3/1 27/3/1 1/3/1
f 29/3/1 28/3/1 27/3/1
f 30/3/1 2/3/1 28/3/1
f 30/3/1 28/3/1 29/3/1
f 33/3/1 32/3/1 31/3/1
f 34/3/1 33/3/1 31/3/1
f 35/3/1 34/3/1 31/3/1
f 36/3/1 35/3/1 31/3/1
f 37/3/1 36/3/1 31/3/1
f 38/3/1 37/3/1 31/3/1
f 39/3/1 37/3/1 38/3/1
f 42/3/1 41/3/1 40/3/1
f 43/3/1 42/3/1 40/3/1
f 44/3/1 43/3/1 40/3/1
f 45/3/1 44/3/1 40/3/1
f 46/3/1 45/3/1 40/3/1
f 47/3/1 46/3/1 40/3/1
f 48/3/1 47/3/1 40/3/1
f 49/3/1 48/3/1 40/3/1
f 50/3/1 49/3/1 40/3/1
f 51/3/1 50/3/1 40/3/1
f 52/3/1 50/3/1 51/3/1
f 53/3/2 54/3/2 55/3/2
f 53/3/2 55/3/2 56/3/2
f 53/3/2 56/3/2 57/3/2
f 53/3/2 57/3/2 58/3/2
f 53/3/2 58/3/2 59/3/2
f 53/3/2 59/3/2 60/3/2
f 53/3/2 60/3/2 61/3/2
f 53/3/2 61/3/2 62/3/2
f 62/3/2 61/3/2 63/3/2
f 64/3/2 65/3/2 66/3/2
f 64/3/2 66/3/2 67/3/2
f 64/3/2 67/3/2 68/3/2
f 64/3/2 68/3/2 69/3/2
f 64/3/2 69/3/2 70/3/2
f 64/3/2 70/3/2 71/3/2
f 64/3/2 71/3/2 72/3/2
f 64/3/2 72/3/2 73/3/2
f 73/3/2 72/3/2 74/3/2
f 75/3/2 76/3/2 77/3/2
f 77/3/2 76/3/2 78/3/2
f 78/3/2 76/3/2 79/3/2
f 77/1/2 78/1/2 80/1/2
f 78/2/2 79/2/2 80/2/2
f 79/3/2 76/3/2 81/3/2
f 80/2/2 79/2/2 81/2/2
f 75/3/2 77/3/2 82/3/2
f 77/1/2 80/1/2 82/1/2
f 80/1/2 81/1/2 82/1/2
f 81/3/2 76/3/2 83/3/2
f 82/1/2 81/1/2 83/1/2
f 82/2/2 83/2/2 84/2/2
f 83/3/2 76/3/2 85/3/2
f 84/2/2 83/2/2 85/2/2
f 75/3/2 82/3/2 86/3/2
f 82/2/2 84/2/2 86/2/2
f 84/1/2 85/1/2 87/1/2
f 86/2/2 84/2/2 87/2/2
f 75/3/2 86/3/2 88/3/2
f 86/1/2 87/1/2 88/1/2
f 85/3/2 76/3/2 89/3/2
f 88/1/2 87/1/2 89/1/2
f 87/1/2 85/1/2 89/1/2
f 75/3/2 88/3/2 90/3/2
f 88/2/2 89/2/2 90/2/2
f 89/3/2 76/3/2 91/3/2
f 90/2/2 89/2/2 91/2/2
f 75/3/2 90/3/2 92/3/2
f 90/3/2 91/3/2 92/3/2
f 91/3/2 76/3/2 93/3/2
f 92/3/2 91/3/2 93/3/2
f 96/3/3 95/3/3 94/3/3
f 97/3/3 95/3/3 96/3/3
f 98/3/3 96/3/3 94/3/3
f 99/3/3 95/3/3 97/3/3
f 100/3/3 98/3/3 94/3/3
f 100/3/3 99/3/3 98/3/3
f 101/3/3 95/3/3 99/3/3
f 101/3/3 99/3/3 100/3/3
f 102/3/3 100/3/3 94/3/3
f 103/3/3 95/3/3 101/3/3
f 104/3/3 102/3/3 94/3/3
f 104/3/3 103/3/3 102/3/3
f 105/3/3 95/3/3 103/3/3
f 105/3/3 103/3/3 104/3/3
f 115/1/3 107/1/3 106/1/3
f 116/2/3 108/2/3 107/2/3
f 116/1/3 107/1/3 115/1/3
f 117/1/3 111/1/3 110/1/3
f 118/2/3 112/2/3 111/2/3
f 118/1/3 111/1/3 117/1/3
f 119/1/3 113/1/3 112/1/3
f 119/2/3 112/2/3 118/2/3
f 120/2/3 114/2/3 113/2/3
f 120/1/3 113/1/3 119/1/3
f 121/2/3 114/2/3 120/2/3
f 122/2/3 114/2/3 121/2/3
f 123/2/3 116/2/3 115/2/3
f 124/2/3 108/2/3 116/2/3
f 124/2/3 116/2/3 123/2/3
f 125/1/3 109/1/3 108/1/3
f 126/2/3 110/2/3 109/2/3
f 126/1/3 109/1/3 125/1/3
f 127/1/3 117/1/3 110/1/3
f 127/2/3 110/2/3 126/2/3
f 128/2/3 119/2/3 118/2/3
f 128/1/3 117/1/3 127/1/3
f 128/2/3 118/2/3 117/2/3
f 128/2/3 120/2/3 119/2/3
f 128/2/3 121/2/3 120/2/3
f 129/2/3 121/2/3 128/2/3
f 130/2/3 121/2/3 129/2/3
f 131/1/3 122/1/3 121/1/3
f 131/2/3 121/2/3 130/2/3
f 132/1/3 122/1/3 131/1/3
f 133/1/3 124/1/3 123/1/3
f 134/2/3 108/2/3 124/2/3
f 134/1/3 124/1/3 133/1/3
f 135/1/3 125/1/3 108/1/3
f 135/2/3 108/2/3 134/2/3
f 136/2/3 127/2/3 126/2/3
f 136/1/3 125/1/3 135/1/3
f 136/2/3 126/2/3 125/2/3
f 136/2/3 128/2/3 127/2/3
f 136/2/3 129/2/3 128/2/3
f 137/2/3 129/2/3 136/2/3
f 138/2/3 129/2/3 137/2/3
f 139/1/3 130/1/3 129/1/3
f 140/1/3 130/1/3 139/1/3
f 141/2/3 132/2/3 131/2/3
f 141/2/3 131/2/3 130/2/3
f 142/1/3 122/1/3 132/1/3
f 142/2/3 132/2/3 141/2/3
f 143/2/3 134/2/3 133/2/3
f 144/1/3 135/1/3 134/1/3
f 144/2/3 134/2/3 143/2/3
f 145/2/3 136/2/3 135/2/3
f 145/1/3 135/1/3 144/1/3
f 145/2/3 137/2/3 136/2/3
f 146/2/3 137/2/3 145/2/3
f 147/1/3 138/1/3 137/1/3
f 147/2/3 137/2/3 146/2/3
f 148/1/3 138/1/3 147/1/3
f 149/2/3 129/2/3 138/2/3
f 149/1/3 138/1/3 148/1/3
f 150/1/3 139/1/3 129/1/3
f 150/2/3 129/2/3 149/2/3
f 151/1/3 139/1/3 150/1/3
f 152/2/3 140/2/3 139/2/3
f 152/1/3 139/1/3 151/1/3
f 153/1/3 130/1/3 140/1/3
f 153/2/3 140/2/3 152/2/3
f 154/2/3 141/2/3 130/2/3
f 154/1/3 130/1/3 153/1/3
f 155/1/3 142/1/3 141/1/3
f 155/2/3 141/2/3 154/2/3
f 156/1/3 122/1/3 142/1/3
f 156/1/3 142/1/3 155/1/3
f 157/1/3 144/1/3 143/1/3
f 157/1/3 146/1/3 145/1/3
f 157/1/3 145/1/3 144/1/3
f 158/2/3 148/2/3 147/2/3
f 158/1/3 146/1/3 157/1/3
f 158/2/3 147/2/3 146/2/3
f 159/1/3 149/1/3 148/1/3
f 159/2/3 148/2/3 158/2/3
f 159/1/3 150/1/3 149/1/3
f 160/1/3 150/1/3 159/1/3
f 161/1/3 155/1/3 154/1/3
f 161/1/3 152/1/3 151/1/3
f 161/1/3 153/1/3 152/1/3
f 161/2/3 151/2/3 150/2/3
f 161/1/3 154/1/3 153/1/3
f 162/1/3 155/1/3 161/1/3
f 163/2/3 156/2/3 155/2/3
f 164/2/3 156/2/3 163/2/3
f 165/2/3 160/2/3 159/2/3
f 165/2/3 159/2/3 158/2/3
f 165/2/3 158/2/3 157/2/3
f 166/1/3 150/1/3 160/1/3
f 166/2/3 160/2/3 165/2/3
f 167/2/3 161/2/3 150/2/3
f 167/1/3 150/1/3 166/1/3
f 167/2/3 162/2/3 161/2/3
f 168/1/3 155/1/3 162/1/3
f 168/2/3 162/2/3 167/2/3
f 169/2/3 163/2/3 155/2/3
f 169/1/3 155/1/3 168/1/3
f 170/1/3 164/1/3 163/1/3
f 170/2/3 163/2/3 169/2/3
f 171/1/3 164/1/3 170/1/3
f 181/2/3 173/2/3 172/2/3
f 182/1/3 174/1/3 173/1/3
f 182/2/3 173/2/3 181/2/3
f 183/2/3 175/2/3 174/2/3
f 183/1/3 176/1/3 175/1/3
f 184/2/3 177/2/3 176/2/3
f 184/1/3 176/1/3 183/1/3
f 185/1/3 178/1/3 177/1/3
f 185/2/3 177/2/3 184/2/3
f 186/1/3 178/1/3 185/1/3
f 187/2/3 179/2/3 178/2/3
f 187/1/3 178/1/3 186/1/3
f 188/2/3 179/2/3 187/2/3
f 189/1/3 180/1/3 179/1/3
f 189/2/3 179/2/3 188/2/3
f 190/1/3 180/1/3 189/1/3
f 191/1/3 182/1/3 181/1/3
f 192/1/3 174/1/3 182/1/3
f 192/1/3 182/1/3 191/1/3
f 192/2/3 183/2/3 174/2/3
f 192/2/3 184/2/3 183/2/3
f 192/2/3 186/2/3 185/2/3
f 192/2/3 185/2/3 184/2/3
f 193/2/3 186/2/3 192/2/3
f 194/2/3 186/2/3 193/2/3
f 195/2/3 190/2/3 189/2/3
f 195/2/3 189/2/3 188/2/3
f 196/2/3 190/2/3 195/2/3
f 197/1/3 180/1/3 190/1/3
f 197/2/3 190/2/3 196/2/3
f 198/1/3 180/1/3 197/1/3
f 199/2/3 192/2/3 191/2/3
f 199/2/3 193/2/3 192/2/3
f 200/2/3 193/2/3 199/2/3
f 201/2/3 193/2/3 200/2/3
f 202/1/3 194/1/3 193/1/3
f 202/2/3 193/2/3 201/2/3
f 203/1/3 194/1/3 202/1/3
f 204/2/3 186/2/3 194/2/3
f 204/1/3 194/1/3 203/1/3
f 205/1/3 188/1/3 187/1/3
f 205/2/3 186/2/3 204/2/3
f 205/1/3 187/1/3 186/1/3
f 206/1/3 188/1/3 205/1/3
f 207/2/3 195/2/3 188/2/3
f 207/1/3 188/1/3 206/1/3
f 208/1/3 196/1/3 195/1/3
f 208/2/3 195/2/3 207/2/3
f 209/2/3 198/2/3 197/2/3
f 209/1/3 196/1/3 208/1/3
f 209/2/3 197/2/3 196/2/3
f 210/2/3 198/2/3 209/2/3
f 211/2/3 199/2/3 191/2/3
f 212/1/3 200/1/3 199/1/3
f 212/2/3 199/2/3 211/2/3
f 213/1/3 203/1/3 202/1/3
f 213/2/3 201/2/3 200/2/3
f 213/1/3 202/1/3 201/1/3
f 214/1/3 203/1/3 213/1/3
f 215/2/3 204/2/3 203/2/3
f 215/1/3 203/1/3 214/1/3
f 216/1/3 206/1/3 205/1/3
f 216/2/3 204/2/3 215/2/3
f 216/1/3 205/1/3 204/1/3
f 217/2/3 207/2/3 206/2/3
f 217/1/3 206/1/3 216/1/3
f 218/1/3 208/1/3 207/1/3
f 218/2/3 207/2/3 217/2/3
f 219/2/3 209/2/3 208/2/3
f 219/1/3 208/1/3 218/1/3
f 220/1/3 210/1/3 209/1/3
f 220/2/3 209/2/3 219/2/3
f 221/2/3 198/2/3 210/2/3
f 221/1/3 210/1/3 220/1/3
f 222/1/3 200/1/3 212/1/3
f 222/1/3 212/1/3 211/1/3
f 223/2/3 214/2/3 213/2/3
f 223/1/3 200/1/3 222/1/3
f 223/2/3 213/2/3 200/2/3
f 224/2/3 214/2/3 223/2/3
f 225/1/3 216/1/3 215/1/3
f 225/1/3 219/1/3 218/1/3
f 225/1/3 217/1/3 216/1/3
f 225/1/3 215/1/3 214/1/3
f 225/1/3 218/1/3 217/1/3
f 225/1/3 220/1/3 219/1/3
f 226/1/3 220/1/3 225/1/3
f 227/1/3 220/1/3 226/1/3
f 228/1/3 220/1/3 227/1/3
f 229/2/3 221/2/3 220/2/3
f 229/1/3 220/1/3 228/1/3
f 230/2/3 198/2/3 221/2/3
f 230/2/3 221/2/3 229/2/3
f 231/1/3 222/1/3 211/1/3
f 232/2/3 223/2/3 222/2/3
f 232/1/3 222/1/3 231/1/3
f 233/1/3 224/1/3 223/1/3
f 233/2/3 223/2/3 232/2/3
f 234/2/3 214/2/3 224/2/3
f 234/1/3 224/1/3 233/1/3
f 235/1/3 225/1/3 214/1/3
f 235/2/3 214/2/3 234/2/3
f 236/2/3 226/2/3 225/2/3
f 236/1/3 225/1/3 235/1/3
f 237/1/3 227/1/3 226/1/3
f 237/2/3 226/2/3 236/2/3
f 238/2/3 228/2/3 227/2/3
f 238/1/3 227/1/3 237/1/3
f 239/1/3 229/1/3 228/1/3
f 239/2/3 228/2/3 238/2/3
f 239/1/3 230/1/3 229/1/3
f 240/2/3 198/2/3 230/2/3
f 240/1/3 230/1/3 239/1/3
f 241/2/3 198/2/3 240/2/3
f 242/3/4 243/3/4 244/3/4
f 244/3/4 243/3/4 245/3/4
f 245/3/4 243/3/4 246/3/4
f 246/3/4 243/3/4 247/3/4
f 247/3/4 243/3/4 248/3/4
f 248/3/4 243/3/4 249/3/4
f 249/3/4 243/3/4 250/3/4
f 250/3/4 243/3/4 251/3/4
f 242/3/4 244/3/4 252/3/4
f 244/2/4 245/2/4 252/2/4
f 245/1/4 246/1/4 253/1/4
f 252/2/4 245/2/4 253/2/4
f 246/2/4 247/2/4 254/2/4
f 253/1/4 246/1/4 254/1/4
f 247/1/4 248/1/4 255/1/4
f 254/2/4 247/2/4 255/2/4
f 255/1/4 248/1/4 256/1/4
f 248/2/4 249/2/4 257/2/4
f 256/1/4 248/1/4 257/1/4
f 249/1/4 250/1/4 258/1/4
f 250/2/4 251/2/4 259/2/4
f 258/1/4 250/1/4 259/1/4
f 251/3/4 243/3/4 260/3/4
f 259/2/4 251/2/4 260/2/4
f 242/3/4 252/3/4 261/3/4
f 252/1/4 253/1/4 261/1/4
f 253/2/4 254/2/4 262/2/4
f 261/1/4 253/1/4 262/1/4
f 255/1/4 256/1/4 263/1/4
f 254/1/4 255/1/4 263/1/4
f 256/2/4 257/2/4 264/2/4
f 263/1/4 256/1/4 264/1/4
f 257/2/4 249/2/4 265/2/4
f 264/2/4 257/2/4 265/2/4
f 249/1/4 258/1/4 266/1/4
f 265/2/4 249/2/4 266/2/4
f 258/2/4 259/2/4 267/2/4
f 266/1/4 258/1/4 267/1/4
f 259/1/4 260/1/4 268/1/4
f 267/2/4 259/2/4 268/2/4
f 268/1/4 260/1/4 269/1/4
f 242/3/4 261/3/4 270/3/4
f 261/2/4 262/2/4 270/2/4
f 262/2/4 254/2/4 271/2/4
f 270/2/4 262/2/4 271/2/4
f 263/2/4 264/2/4 272/2/4
f 254/1/4 263/1/4 272/1/4
f 272/2/4 264/2/4 273/2/4
f 264/1/4 265/1/4 274/1/4
f 273/2/4 264/2/4 274/2/4
f 265/2/4 266/2/4 275/2/4
f 274/1/4 265/1/4 275/1/4
f 266/2/4 267/2/4 275/2/4
f 268/2/4 269/2/4 275/2/4
f 267/2/4 268/2/4 275/2/4
f 275/2/4 269/2/4 276/2/4
f 276/2/4 269/2/4 277/2/4
f 277/2/4 269/2/4 278/2/4
f 269/1/4 260/1/4 279/1/4
f 278/2/4 269/2/4 279/2/4
f 260/3/4 243/3/4 280/3/4
f 279/1/4 260/1/4 280/1/4
f 273/2/4 274/2/4 281/2/4
f 272/1/4 273/1/4 281/1/4
f 274/2/4 275/2/4 281/2/4
f 275/2/4 276/2/4 281/2/4
f 281/2/4 276/2/4 282/2/4
f 282/2/4 276/2/4 283/2/4
f 283/2/4 276/2/4 284/2/4
f 276/1/4 277/1/4 285/1/4
f 284/2/4 276/2/4 285/2/4
f 285/1/4 277/1/4 286/1/4
f 279/2/4 280/2/4 287/2/4
f 278/1/4 279/1/4 287/1/4
f 280/3/4 243/3/4 288/3/4
f 287/2/4 280/2/4 288/2/4
f 254/1/4 272/1/4 289/1/4
f 271/2/4 254/2/4 289/2/4
f 272/1/4 281/1/4 289/1/4
f 281/1/4 282/1/4 289/1/4
f 289/1/4 282/1/4 290/1/4
f 283/1/4 284/1/4 291/1/4
f 282/2/4 283/2/4 291/2/4
f 285/2/4 286/2/4 292/2/4
f 291/1/4 284/1/4 292/1/4
f 284/2/4 285/2/4 292/2/4
f 292/2/4 286/2/4 293/2/4
f 293/2/4 286/2/4 294/2/4
f 286/1/4 277/1/4 295/1/4
f 294/2/4 286/2/4 295/2/4
f 277/2/4 278/2/4 296/2/4
f 295/1/4 277/1/4 296/1/4
f 278/1/4 287/1/4 297/1/4
f 296/2/4 278/2/4 297/2/4
f 287/1/4 288/1/4 297/1/4
f 288/3/4 243/3/4 298/3/4
f 297/1/4 288/1/4 298/1/4
f 270/1/4 271/1/4 299/1/4
f 271/2/4 289/2/4 299/2/4
f 289/2/4 290/2/4 299/2/4
f 299/2/4 290/2/4 300/2/4
f 300/2/4 290/2/4 301/2/4
f 290/1/4 282/1/4 302/1/4
f 301/2/4 290/2/4 302/2/4
f 282/2/4 291/2/4 303/2/4
f 302/1/4 282/1/4 303/1/4
f 292/2/4 293/2/4 303/2/4
f 291/2/4 292/2/4 303/2/4
f 293/1/4 294/1/4 304/1/4
f 303/2/4 293/2/4 304/2/4
f 295/2/4 296/2/4 305/2/4
f 304/1/4 294/1/4 305/1/4
f 296/2/4 297/2/4 305/2/4
f 294/2/4 295/2/4 305/2/4
f 297/2/4 298/2/4 305/2/4
f 305/2/4 298/2/4 306/2/4
f 298/3/4 243/3/4 307/3/4
f 306/2/4 298/2/4 307/2/4
f 299/1/4 300/1/4 308/1/4
f 300/2/4 301/2/4 309/2/4
f 308/1/4 300/1/4 309/1/4
f 301/1/4 302/1/4 310/1/4
f 309/2/4 301/2/4 310/2/4
f 302/2/4 303/2/4 311/2/4
f 310/1/4 302/1/4 311/1/4
f 303/1/4 304/1/4 312/1/4
f 311/2/4 303/2/4 312/2/4
f 305/2/4 306/2/4 313/2/4
f 304/2/4 305/2/4 313/2/4
f 306/1/4 307/1/4 313/1/4
f 313/1/4 307/1/4 314/1/4
f 270/1/4 299/1/4 315/1/4
f 299/1/4 308/1/4 315/1/4
f 308/2/4 309/2/4 316/2/4
f 315/1/4 308/1/4 316/1/4
f 309/1/4 310/1/4 317/1/4
f 316/2/4 309/2/4 317/2/4
f 310/2/4 311/2/4 318/2/4
f 317/1/4 310/1/4 318/1/4
f 311/1/4 312/1/4 319/1/4
f 318/2/4 311/2/4 319/2/4
f 312/1/4 304/1/4 320/1/4
f 319/1/4 312/1/4 320/1/4
f 313/2/4 314/2/4 321/2/4
f 320/1/4 304/1/4 321/1/4
f 304/2/4 313/2/4 321/2/4
f 321/2/4 314/2/4 322/2/4
f 322/2/4 314/2/4 323/2/4
f 314/1/4 307/1/4 324/1/4
f 323/2/4 314/2/4 324/2/4
f 324/1/4 307/1/4 325/1/4
f 315/2/4 316/2/4 326/2/4
f 270/1/4 315/1/4 326/1/4
f 316/1/4 317/1/4 327/1/4
f 326/2/4 316/2/4 327/2/4
f 319/1/4 320/1/4 328/1/4
f 318/1/4 319/1/4 328/1/4
f 317/2/4 318/2/4 328/2/4
f 328/1/4 320/1/4 329/1/4
f 329/1/4 320/1/4 330/1/4
f 320/2/4 321/2/4 331/2/4
f 330/1/4 320/1/4 331/1/4
f 321/1/4 322/1/4 332/1/4
f 331/2/4 321/2/4 332/2/4
f 332/1/4 322/1/4 333/1/4
f 324/2/4 325/2/4 334/2/4
f 323/1/4 324/1/4 334/1/4
f 325/1/4 307/1/4 335/1/4
f 334/2/4 325/2/4 335/2/4
f 270/1/4 326/1/4 336/1/4
f 326/1/4 327/1/4 336/1/4
f 327/1/4 317/1/4 337/1/4
f 336/1/4 327/1/4 337/1/4
f 317/2/4 328/2/4 337/2/4
f 328/2/4 329/2/4 337/2/4
f 337/2/4 329/2/4 338/2/4
f 329/1/4 330/1/4 339/1/4
f 338/2/4 329/2/4 339/2/4
f 332/2/4 333/2/4 340/2/4
f 339/1/4 330/1/4 340/1/4
f 330/2/4 331/2/4 340/2/4
f 331/2/4 332/2/4 340/2/4
f 340/2/4 333/2/4 341/2/4
f 341/2/4 333/2/4 342/2/4
f 333/1/4 322/1/4 343/1/4
f 342/2/4 333/2/4 343/2/4
f 322/2/4 323/2/4 344/2/4
f 343/1/4 322/1/4 344/1/4
f 323/1/4 334/1/4 345/1/4
f 344/2/4 323/2/4 345/2/4
f 334/1/4 335/1/4 345/1/4
f 345/1/4 335/1/4 346/1/4
f 335/1/4 307/1/4 347/1/4
f 346/1/4 335/1/4 347/1/4
f 307/3/4 243/3/4 348/3/4
f 347/1/4 307/1/4 348/1/4
f 336/2/4 337/2/4 349/2/4
f 337/1/4 338/1/4 350/1/4
f 349/2/4 337/2/4 350/2/4
f 338/2/4 339/2/4 351/2/4
f 350/1/4 338/1/4 351/1/4
f 339/2/4 340/2/4 351/2/4
f 351/2/4 340/2/4 352/2/4
f 340/1/4 341/1/4 353/1/4
f 352/2/4 340/2/4 353/2/4
f 353/1/4 341/1/4 354/1/4
f 345/2/4 346/2/4 355/2/4
f 343/2/4 344/2/4 355/2/4
f 342/1/4 343/1/4 355/1/4
f 344/2/4 345/2/4 355/2/4
f 346/1/4 347/1/4 356/1/4
f 355/2/4 346/2/4 356/2/4
f 347/2/4 348/2/4 357/2/4
f 356/1/4 347/1/4 357/1/4
f 351/1/4 352/1/4 358/1/4
f 349/1/4 350/1/4 358/1/4
f 336/2/4 349/2/4 358/2/4
f 350/1/4 351/1/4 358/1/4
f 358/1/4 352/1/4 359/1/4
f 354/1/4 341/1/4 360/1/4
f 353/2/4 354/2/4 360/2/4
f 352/2/4 353/2/4 360/2/4
f 341/2/4 342/2/4 361/2/4
f 360/1/4 341/1/4 361/1/4
f 342/1/4 355/1/4 362/1/4
f 361/2/4 342/2/4 362/2/4
f 355/1/4 356/1/4 362/1/4
f 362/1/4 356/1/4 363/1/4
f 363/1/4 356/1/4 364/1/4
f 356/2/4 357/2/4 365/2/4
f 364/1/4 356/1/4 365/1/4
f 358/2/4 359/2/4 366/2/4
f 336/2/4 358/2/4 366/2/4
f 270/1/4 336/1/4 366/1/4
f 359/1/4 352/1/4 367/1/4
f 366/2/4 359/2/4 367/2/4
f 352/2/4 360/2/4 368/2/4
f 367/1/4 352/1/4 368/1/4
f 362/2/4 363/2/4 368/2/4
f 361/2/4 362/2/4 368/2/4
f 360/2/4 361/2/4 368/2/4
f 368/2/4 363/2/4 369/2/4
f 369/2/4 363/2/4 370/2/4
f 363/1/4 364/1/4 371/1/4
f 370/2/4 363/2/4 371/2/4
f 364/2/4 365/2/4 372/2/4
f 371/1/4 364/1/4 372/1/4
f 372/2/4 365/2/4 373/2/4
f 365/2/4 357/2/4 374/2/4
f 373/2/4 365/2/4 374/2/4
f 357/2/4 348/2/4 374/2/4
f 348/3/4 243/3/4 375/3/4
f 374/2/4 348/2/4 375/2/4
f 270/1/4 366/1/4 376/1/4
f 366/1/4 367/1/4 376/1/4
f 242/3/4 270/3/4 376/3/4
f 367/2/4 368/2/4 377/2/4
f 376/1/4 367/1/4 377/1/4
f 368/1/4 369/1/4 378/1/4
f 377/2/4 368/2/4 378/2/4
f 369/2/4 370/2/4 379/2/4
f 378/1/4 369/1/4 379/1/4
f 372/1/4 373/1/4 380/1/4
f 379/2/4 370/2/4 380/2/4
f 370/1/4 371/1/4 380/1/4
f 371/1/4 372/1/4 380/1/4
f 373/2/4 374/2/4 381/2/4
f 380/1/4 373/1/4 381/1/4
f 374/1/4 375/1/4 382/1/4
f 381/2/4 374/2/4 382/2/4
f 375/3/4 243/3/4 383/3/4
f 382/1/4 375/1/4 383/1/4
f 381/3/4 382/3/4 384/3/4
f 378/3/4 379/3/4 384/3/4
f 382/3/4 383/3/4 384/3/4
f 377/3/4 378/3/4 384/3/4
f 376/3/4 377/3/4 384/3/4
f 379/3/4 380/3/4 384/3/4
f 242/3/4 376/3/4 384/3/4
f 380/3/4 381/3/4 384/3/4
f 383/3/4 243/3/4 385/3/4
f 384/3/4 383/3/4 385/3/4
f 388/3/5 387/3/5 386/3/5
f 389/3/5 387/3/5 388/3/5
f 390/3/5 387/3/5 389/3/5
f 391/3/5 387/3/5 390/3/5
f 392/3/5 387/3/5 391/3/5
f 393/3/5 387/3/5 392/3/5
f 394/3/5 387/3/5 393/3/5
f 395/3/5 387/3/5 394/3/5
f 396/3/5 387/3/5 395/3/5
f 397/3/5 388/3/5 386/3/5
f 397/1/5 389/1/5 388/1/5
f 398/2/5 390/2/5 389/2/5
f 398/1/5 389/1/5 397/1/5
f 399/1/5 393/1/5 392/1/5
f 399/2/5 394/2/5 393/2/5
f 400/1/5 395/1/5 394/1/5
f 400/2/5 394/2/5 399/2/5
f 401/1/5 395/1/5 400/1/5
f 402/2/5 396/2/5 395/2/5
f 402/1/5 395/1/5 401/1/5
f 403/2/5 396/2/5 402/2/5
f 404/2/5 396/2/5 403/2/5
f 405/3/5 387/3/5 396/3/5
f 405/2/5 396/2/5 404/2/5
f 406/3/5 397/3/5 386/3/5
f 406/2/5 398/2/5 397/2/5
f 407/1/5 391/1/5 390/1/5
f 407/2/5 398/2/5 406/2/5
f 407/2/5 390/2/5 398/2/5
f 408/2/5 392/2/5 391/2/5
f 408/1/5 391/1/5 407/1/5
f 409/1/5 399/1/5 392/1/5
f 409/2/5 392/2/5 408/2/5
f 409/1/5 400/1/5 399/1/5
f 410/2/5 401/2/5 400/2/5
f 410/1/5 400/1/5 409/1/5
f 411/1/5 403/1/5 402/1/5
f 411/2/5 401/2/5 410/2/5
f 411/1/5 402/1/5 401/1/5
f 412/2/5 404/2/5 403/2/5
f 412/1/5 403/1/5 411/1/5
f 413/1/5 405/1/5 404/1/5
f 413/2/5 404/2/5 412/2/5
f 414/3/5 387/3/5 405/3/5
f 414/1/5 405/1/5 413/1/5
f 415/3/5 411/3/5 410/3/5
f 415/3/5 409/3/5 408/3/5
f 415/3/5 414/3/5 413/3/5
f 415/3/5 408/3/5 407/3/5
f 415/3/5 412/3/5 411/3/5
f 415/3/5 410/3/5 409/3/5
f 415/3/5 407/3/5 406/3/5
f 415/3/5 406/3/5 386/3/5
f 415/3/5 413/3/5 412/3/5
f 416/3/5 387/3/5 414/3/5
f 416/3/5 414/3/5 415/3/5
f 421/3/5 418/3/5 417/3/5
f 422/3/5 418/3/5 421/3/5
f 423/3/5 418/3/5 422/3/5
f 424/3/5 418/3/5 423/3/5
f 425/3/5 418/3/5 424/3/5
f 426/3/5 420/3/5 419/3/5
f 427/3/5 420/3/5 426/3/5
f 428/3/5 420/3/5 427/3/5
f 429/3/6 430/3/6 433/3/6
f 433/3/6 430/3/6 434/3/6
f 434/3/6 430/3/6 435/3/6
f 435/3/6 430/3/6 436/3/6
f 436/3/6 430/3/6 437/3/6
f 437/3/6 430/3/6 438/3/6
f 438/3/6 430/3/6 439/3/6
f 431/3/6 432/3/6 440/3/6
f 440/3/6 432/3/6 441/3/6
f 441/3/6 432/3/6 442/3/6
f 442/3/6 432/3/6 443/3/6
f 443/3/6 432/3/6 444/3/6
f 445/3/6 446/3/6 447/3/6
f 447/3/6 446/3/6 448/3/6
