# MagicaVoxel @ Ephtracy

# group
o floor_stepstone

# material
mtllib tavern-66-floor_stepstone.mtl
usemtl palette

# normals
vn -1 0 0
vn 1 0 0
vn 0 0 1
vn 0 0 -1
vn 0 -1 0
vn 0 1 0

# texcoords
vt 0.0292969 0.5
vt 0.0605469 0.5

# verts
v 2.7 0 0.1
v 2.7 0 0
v 2.7 0 -0.1
v 2.7 0 -0.2
v 2.7 0 -0.4
v 2.7 0.1 0.1
v 2.7 0.1 0
v 2.7 0.1 -0.1
v 2.7 0.1 -0.2
v 2.7 0.1 -0.4
v 2.7 0.2 -0.1
v 2.7 0.2 -0.2
v 2.7 0.2 -0.3
v 2.7 0.2 -0.4
v 2.7 0.3 -0.3
v 2.7 0.3 -0.4
v 2.8 0 0.2
v 2.8 0 0.1
v 2.8 0.1 0.2
v 2.8 0.1 0.1
v 2.8 0.1 0
v 2.8 0.1 -0.1
v 2.8 0.2 0
v 2.8 0.2 -0.1
v 2.8 0.2 -0.2
v 2.8 0.2 -0.3
v 2.8 0.3 -0.2
v 2.8 0.3 -0.3
v 4.2 0 0.2
v 4.2 0 0.1
v 4.2 0.1 0.2
v 4.2 0.1 0.1
v 4.2 0.1 0
v 4.2 0.1 -0.1
v 4.2 0.2 0
v 4.2 0.2 -0.1
v 4.2 0.2 -0.2
v 4.2 0.2 -0.3
v 4.2 0.3 -0.2
v 4.2 0.3 -0.3
v 4.3 0 0.1
v 4.3 0 -0.1
v 4.3 0 -0.4
v 4.3 0.1 0.1
v 4.3 0.1 -0.1
v 4.3 0.1 -0.2
v 4.3 0.2 -0.1
v 4.3 0.2 -0.2
v 4.3 0.2 -0.3
v 4.3 0.2 -0.4
v 4.3 0.3 -0.3
v 4.3 0.3 -0.4
v 2.8 0 0.2
v 2.8 0.1 0.2
v 2.9 0 0.2
v 2.9 0.1 0.2
v 3 0 0.2
v 3 0.1 0.2
v 3.1 0 0.2
v 3.1 0.1 0.2
v 3.3 0 0.2
v 3.3 0.1 0.2
v 3.5 0 0.2
v 3.5 0.1 0.2
v 3.6 0 0.2
v 3.6 0.1 0.2
v 3.7 0 0.2
v 3.7 0.1 0.2
v 3.8 0 0.2
v 3.8 0.1 0.2
v 4.1 0 0.2
v 4.1 0.1 0.2
v 4.2 0 0.2
v 4.2 0.1 0.2
v 2.7 0 0.1
v 2.7 0.1 0.1
v 2.8 0 0.1
v 2.8 0.1 0.1
v 4.2 0 0.1
v 4.2 0.1 0.1
v 4.3 0 0.1
v 4.3 0.1 0.1
v 2.8 0.1 0
v 2.8 0.2 0
v 2.9 0.1 0
v 2.9 0.2 0
v 3 0.1 0
v 3.1 0.1 0
v 3.2 0.1 0
v 3.2 0.2 0
v 3.4 0.1 0
v 3.4 0.2 0
v 3.5 0.1 0
v 3.5 0.2 0
v 3.6 0.1 0
v 3.7 0.1 0
v 3.7 0.2 0
v 3.8 0.1 0
v 3.8 0.2 0
v 3.9 0.1 0
v 3.9 0.2 0
v 4 0.1 0
v 4 0.2 0
v 4.2 0.1 0
v 4.2 0.2 0
v 2.7 0.1 -0.1
v 2.7 0.2 -0.1
v 2.8 0.1 -0.1
v 2.8 0.2 -0.1
v 4.2 0.1 -0.1
v 4.2 0.2 -0.1
v 4.3 0.1 -0.1
v 4.3 0.2 -0.1
v 2.8 0.2 -0.2
v 2.8 0.3 -0.2
v 2.9 0.2 -0.2
v 3.1 0.2 -0.2
v 3.2 0.2 -0.2
v 3.2 0.3 -0.2
v 3.3 0.2 -0.2
v 3.3 0.3 -0.2
v 3.5 0.2 -0.2
v 3.5 0.3 -0.2
v 3.6 0.2 -0.2
v 3.7 0.2 -0.2
v 3.8 0.2 -0.2
v 3.9 0.2 -0.2
v 3.9 0.3 -0.2
v 4 0.2 -0.2
v 4 0.3 -0.2
v 4.2 0.2 -0.2
v 4.2 0.3 -0.2
v 2.7 0.2 -0.3
v 2.7 0.3 -0.3
v 2.8 0.2 -0.3
v 2.8 0.3 -0.3
v 4.2 0.2 -0.3
v 4.2 0.3 -0.3
v 4.3 0.2 -0.3
v 4.3 0.3 -0.3
v 2.7 0 -0.4
v 2.7 0.1 -0.4
v 2.7 0.2 -0.4
v 2.7 0.3 -0.4
v 2.8 0 -0.4
v 2.8 0.1 -0.4
v 2.8 0.2 -0.4
v 2.8 0.3 -0.4
v 2.9 0 -0.4
v 2.9 0.3 -0.4
v 3 0 -0.4
v 3 0.3 -0.4
v 3.2 0 -0.4
v 3.2 0.2 -0.4
v 3.3 0 -0.4
v 3.3 0.1 -0.4
v 3.3 0.2 -0.4
v 3.3 0.3 -0.4
v 3.5 0 -0.4
v 3.5 0.1 -0.4
v 3.5 0.2 -0.4
v 3.5 0.3 -0.4
v 3.6 0 -0.4
v 3.6 0.1 -0.4
v 3.7 0 -0.4
v 3.7 0.1 -0.4
v 3.7 0.2 -0.4
v 3.8 0.1 -0.4
v 3.8 0.3 -0.4
v 3.9 0.1 -0.4
v 3.9 0.3 -0.4
v 4 0 -0.4
v 4 0.1 -0.4
v 4 0.2 -0.4
v 4 0.3 -0.4
v 4.1 0 -0.4
v 4.1 0.1 -0.4
v 4.1 0.2 -0.4
v 4.1 0.3 -0.4
v 4.2 0.1 -0.4
v 4.2 0.2 -0.4
v 4.3 0 -0.4
v 4.3 0.2 -0.4
v 4.3 0.3 -0.4
v 2.8 0 0.2
v 2.9 0 0.2
v 3 0 0.2
v 3.1 0 0.2
v 3.3 0 0.2
v 3.5 0 0.2
v 3.6 0 0.2
v 3.7 0 0.2
v 3.8 0 0.2
v 4.1 0 0.2
v 4.2 0 0.2
v 2.7 0 0.1
v 2.8 0 0.1
v 2.9 0 0.1
v 3 0 0.1
v 3.1 0 0.1
v 3.3 0 0.1
v 3.4 0 0.1
v 3.5 0 0.1
v 3.6 0 0.1
v 3.7 0 0.1
v 3.8 0 0.1
v 4 0 0.1
v 4.1 0 0.1
v 4.2 0 0.1
v 4.3 0 0.1
v 2.7 0 0
v 2.8 0 0
v 2.9 0 0
v 3 0 0
v 3.1 0 0
v 3.3 0 0
v 3.4 0 0
v 3.5 0 0
v 3.6 0 0
v 3.7 0 0
v 3.9 0 0
v 4 0 0
v 4.1 0 0
v 4.2 0 0
v 2.7 0 -0.1
v 2.8 0 -0.1
v 3.1 0 -0.1
v 3.2 0 -0.1
v 3.3 0 -0.1
v 3.5 0 -0.1
v 3.6 0 -0.1
v 3.7 0 -0.1
v 3.8 0 -0.1
v 4 0 -0.1
v 4.1 0 -0.1
v 4.2 0 -0.1
v 4.3 0 -0.1
v 2.7 0 -0.2
v 2.8 0 -0.2
v 3 0 -0.2
v 3.1 0 -0.2
v 3.2 0 -0.2
v 3.5 0 -0.2
v 3.6 0 -0.2
v 3.7 0 -0.2
v 3.8 0 -0.2
v 3.9 0 -0.2
v 4 0 -0.2
v 4.1 0 -0.2
v 2.9 0 -0.3
v 3 0 -0.3
v 3.2 0 -0.3
v 3.3 0 -0.3
v 3.5 0 -0.3
v 3.8 0 -0.3
v 3.9 0 -0.3
v 2.7 0 -0.4
v 2.8 0 -0.4
v 2.9 0 -0.4
v 3 0 -0.4
v 3.2 0 -0.4
v 3.3 0 -0.4
v 3.5 0 -0.4
v 3.6 0 -0.4
v 3.7 0 -0.4
v 4 0 -0.4
v 4.1 0 -0.4
v 4.3 0 -0.4
v 2.8 0.1 0.2
v 2.9 0.1 0.2
v 3 0.1 0.2
v 3.1 0.1 0.2
v 3.3 0.1 0.2
v 3.5 0.1 0.2
v 3.6 0.1 0.2
v 3.7 0.1 0.2
v 3.8 0.1 0.2
v 4.1 0.1 0.2
v 4.2 0.1 0.2
v 2.7 0.1 0.1
v 2.8 0.1 0.1
v 2.9 0.1 0.1
v 3 0.1 0.1
v 3.1 0.1 0.1
v 3.3 0.1 0.1
v 3.4 0.1 0.1
v 3.5 0.1 0.1
v 3.6 0.1 0.1
v 3.7 0.1 0.1
v 3.8 0.1 0.1
v 4 0.1 0.1
v 4.1 0.1 0.1
v 4.2 0.1 0.1
v 4.3 0.1 0.1
v 2.7 0.1 0
v 2.8 0.1 0
v 2.9 0.1 0
v 3 0.1 0
v 3.1 0.1 0
v 3.2 0.1 0
v 3.4 0.1 0
v 3.5 0.1 0
v 3.6 0.1 0
v 3.7 0.1 0
v 3.8 0.1 0
v 3.9 0.1 0
v 4 0.1 0
v 4.2 0.1 0
v 2.7 0.1 -0.1
v 2.8 0.1 -0.1
v 4.2 0.1 -0.1
v 4.3 0.1 -0.1
v 2.8 0.2 0
v 2.9 0.2 0
v 3.2 0.2 0
v 3.4 0.2 0
v 3.5 0.2 0
v 3.7 0.2 0
v 3.8 0.2 0
v 3.9 0.2 0
v 4 0.2 0
v 4.2 0.2 0
v 2.7 0.2 -0.1
v 2.8 0.2 -0.1
v 2.9 0.2 -0.1
v 3.1 0.2 -0.1
v 3.3 0.2 -0.1
v 3.4 0.2 -0.1
v 3.5 0.2 -0.1
v 3.6 0.2 -0.1
v 3.9 0.2 -0.1
v 4 0.2 -0.1
v 4.2 0.2 -0.1
v 4.3 0.2 -0.1
v 2.7 0.2 -0.2
v 2.8 0.2 -0.2
v 2.9 0.2 -0.2
v 3.1 0.2 -0.2
v 3.2 0.2 -0.2
v 3.3 0.2 -0.2
v 3.5 0.2 -0.2
v 3.6 0.2 -0.2
v 3.7 0.2 -0.2
v 3.8 0.2 -0.2
v 3.9 0.2 -0.2
v 4 0.2 -0.2
v 4.2 0.2 -0.2
v 4.3 0.2 -0.2
v 2.7 0.2 -0.3
v 2.8 0.2 -0.3
v 4.2 0.2 -0.3
v 4.3 0.2 -0.3
v 2.8 0.3 -0.2
v 3.2 0.3 -0.2
v 3.3 0.3 -0.2
v 3.5 0.3 -0.2
v 3.9 0.3 -0.2
v 4 0.3 -0.2
v 4.2 0.3 -0.2
v 2.7 0.3 -0.3
v 2.8 0.3 -0.3
v 2.9 0.3 -0.3
v 3 0.3 -0.3
v 3.2 0.3 -0.3
v 3.3 0.3 -0.3
v 3.5 0.3 -0.3
v 3.8 0.3 -0.3
v 4.1 0.3 -0.3
v 4.2 0.3 -0.3
v 4.3 0.3 -0.3
v 2.7 0.3 -0.4
v 2.8 0.3 -0.4
v 2.9 0.3 -0.4
v 3 0.3 -0.4
v 3.3 0.3 -0.4
v 3.5 0.3 -0.4
v 3.8 0.3 -0.4
v 3.9 0.3 -0.4
v 4 0.3 -0.4
v 4.1 0.3 -0.4
v 4.3 0.3 -0.4

# faces
f 6/1/1 2/1/1 1/1/1
f 7/2/1 3/2/1 2/2/1
f 7/1/1 2/1/1 6/1/1
f 8/1/1 4/1/1 3/1/1
f 8/2/1 3/2/1 7/2/1
f 9/2/1 5/2/1 4/2/1
f 9/1/1 4/1/1 8/1/1
f 10/2/1 5/2/1 9/2/1
f 11/2/1 9/2/1 8/2/1
f 12/1/1 10/1/1 9/1/1
f 12/2/1 9/2/1 11/2/1
f 13/1/1 10/1/1 12/1/1
f 14/1/1 10/1/1 13/1/1
f 15/2/1 14/2/1 13/2/1
f 16/2/1 14/2/1 15/2/1
f 19/1/1 18/1/1 17/1/1
f 20/1/1 18/1/1 19/1/1
f 23/1/1 22/1/1 21/1/1
f 24/1/1 22/1/1 23/1/1
f 27/1/1 26/1/1 25/1/1
f 28/1/1 26/1/1 27/1/1
f 29/2/2 30/2/2 31/2/2
f 31/2/2 30/2/2 32/2/2
f 33/1/2 34/1/2 35/1/2
f 35/1/2 34/1/2 36/1/2
f 37/2/2 38/2/2 39/2/2
f 39/2/2 38/2/2 40/2/2
f 41/1/2 42/1/2 44/1/2
f 42/2/2 43/2/2 45/2/2
f 44/1/2 42/1/2 45/1/2
f 45/2/2 43/2/2 46/2/2
f 45/1/2 46/1/2 47/1/2
f 46/2/2 43/2/2 48/2/2
f 47/1/2 46/1/2 48/1/2
f 48/2/2 43/2/2 49/2/2
f 49/2/2 43/2/2 50/2/2
f 49/1/2 50/1/2 51/1/2
f 51/1/2 50/1/2 52/1/2
f 55/1/3 54/1/3 53/1/3
f 56/1/3 54/1/3 55/1/3
f 57/2/3 56/2/3 55/2/3
f 58/2/3 56/2/3 57/2/3
f 59/1/3 58/1/3 57/1/3
f 60/1/3 58/1/3 59/1/3
f 61/2/3 60/2/3 59/2/3
f 62/2/3 60/2/3 61/2/3
f 63/1/3 62/1/3 61/1/3
f 64/1/3 62/1/3 63/1/3
f 65/2/3 64/2/3 63/2/3
f 66/2/3 64/2/3 65/2/3
f 67/1/3 66/1/3 65/1/3
f 68/1/3 66/1/3 67/1/3
f 69/2/3 68/2/3 67/2/3
f 70/2/3 68/2/3 69/2/3
f 71/1/3 70/1/3 69/1/3
f 72/1/3 70/1/3 71/1/3
f 73/2/3 72/2/3 71/2/3
f 74/2/3 72/2/3 73/2/3
f 77/1/3 76/1/3 75/1/3
f 78/1/3 76/1/3 77/1/3
f 81/1/3 80/1/3 79/1/3
f 82/1/3 80/1/3 81/1/3
f 85/1/3 84/1/3 83/1/3
f 86/1/3 84/1/3 85/1/3
f 87/2/3 86/2/3 85/2/3
f 88/2/3 86/2/3 87/2/3
f 89/2/3 86/2/3 88/2/3
f 90/2/3 86/2/3 89/2/3
f 91/1/3 90/1/3 89/1/3
f 92/1/3 90/1/3 91/1/3
f 93/2/3 92/2/3 91/2/3
f 94/2/3 92/2/3 93/2/3
f 95/1/3 94/1/3 93/1/3
f 96/1/3 94/1/3 95/1/3
f 97/1/3 94/1/3 96/1/3
f 98/2/3 97/2/3 96/2/3
f 99/2/3 97/2/3 98/2/3
f 100/1/3 99/1/3 98/1/3
f 101/1/3 99/1/3 100/1/3
f 102/2/3 101/2/3 100/2/3
f 103/2/3 101/2/3 102/2/3
f 104/1/3 103/1/3 102/1/3
f 105/1/3 103/1/3 104/1/3
f 108/2/3 107/2/3 106/2/3
f 109/2/3 107/2/3 108/2/3
f 112/1/3 111/1/3 110/1/3
f 113/1/3 111/1/3 112/1/3
f 116/1/3 115/1/3 114/1/3
f 117/1/3 115/1/3 116/1/3
f 118/1/3 115/1/3 117/1/3
f 119/1/3 115/1/3 118/1/3
f 120/2/3 119/2/3 118/2/3
f 121/2/3 119/2/3 120/2/3
f 122/1/3 121/1/3 120/1/3
f 123/1/3 121/1/3 122/1/3
f 124/2/3 123/2/3 122/2/3
f 125/2/3 123/2/3 124/2/3
f 126/2/3 123/2/3 125/2/3
f 127/2/3 123/2/3 126/2/3
f 128/2/3 123/2/3 127/2/3
f 129/1/3 128/1/3 127/1/3
f 130/1/3 128/1/3 129/1/3
f 131/2/3 130/2/3 129/2/3
f 132/2/3 130/2/3 131/2/3
f 135/2/3 134/2/3 133/2/3
f 136/2/3 134/2/3 135/2/3
f 139/1/3 138/1/3 137/1/3
f 140/1/3 138/1/3 139/1/3
f 141/2/4 142/2/4 145/2/4
f 142/1/4 143/1/4 146/1/4
f 145/2/4 142/2/4 146/2/4
f 143/2/4 144/2/4 147/2/4
f 146/1/4 143/1/4 147/1/4
f 147/2/4 144/2/4 148/2/4
f 145/1/4 146/1/4 149/1/4
f 146/1/4 147/1/4 149/1/4
f 147/1/4 148/1/4 149/1/4
f 149/1/4 148/1/4 150/1/4
f 149/2/4 150/2/4 151/2/4
f 151/2/4 150/2/4 152/2/4
f 151/1/4 152/1/4 153/1/4
f 153/1/4 152/1/4 154/1/4
f 153/2/4 154/2/4 155/2/4
f 155/2/4 154/2/4 156/2/4
f 154/1/4 152/1/4 157/1/4
f 156/2/4 154/2/4 157/2/4
f 157/1/4 152/1/4 158/1/4
f 155/1/4 156/1/4 159/1/4
f 156/2/4 157/2/4 160/2/4
f 159/1/4 156/1/4 160/1/4
f 157/2/4 158/2/4 160/2/4
f 160/2/4 158/2/4 161/2/4
f 161/2/4 158/2/4 162/2/4
f 159/2/4 160/2/4 163/2/4
f 160/2/4 161/2/4 163/2/4
f 163/2/4 161/2/4 164/2/4
f 163/1/4 164/1/4 165/1/4
f 164/2/4 161/2/4 166/2/4
f 165/1/4 164/1/4 166/1/4
f 161/1/4 162/1/4 167/1/4
f 166/2/4 161/2/4 167/2/4
f 165/2/4 166/2/4 168/2/4
f 166/1/4 167/1/4 168/1/4
f 167/1/4 162/1/4 169/1/4
f 168/1/4 167/1/4 169/1/4
f 165/2/4 168/2/4 170/2/4
f 168/2/4 169/2/4 170/2/4
f 170/2/4 169/2/4 171/2/4
f 165/2/4 170/2/4 172/2/4
f 170/1/4 171/1/4 173/1/4
f 172/2/4 170/2/4 173/2/4
f 173/1/4 171/1/4 174/1/4
f 174/1/4 171/1/4 175/1/4
f 172/1/4 173/1/4 176/1/4
f 173/1/4 174/1/4 176/1/4
f 176/1/4 174/1/4 177/1/4
f 174/2/4 175/2/4 178/2/4
f 177/1/4 174/1/4 178/1/4
f 178/2/4 175/2/4 179/2/4
f 176/2/4 177/2/4 180/2/4
f 177/1/4 178/1/4 180/1/4
f 178/1/4 179/1/4 180/1/4
f 180/1/4 179/1/4 181/1/4
f 176/2/4 180/2/4 182/2/4
f 180/2/4 181/2/4 182/2/4
f 181/1/4 179/1/4 183/1/4
f 182/2/4 181/2/4 183/2/4
f 183/1/4 179/1/4 184/1/4
f 197/1/5 186/1/5 185/1/5
f 198/2/5 187/2/5 186/2/5
f 198/1/5 186/1/5 197/1/5
f 199/1/5 188/1/5 187/1/5
f 199/2/5 187/2/5 198/2/5
f 200/2/5 189/2/5 188/2/5
f 200/1/5 188/1/5 199/1/5
f 201/1/5 190/1/5 189/1/5
f 201/2/5 189/2/5 200/2/5
f 202/1/5 190/1/5 201/1/5
f 203/2/5 191/2/5 190/2/5
f 203/1/5 190/1/5 202/1/5
f 204/1/5 192/1/5 191/1/5
f 204/2/5 191/2/5 203/2/5
f 205/2/5 193/2/5 192/2/5
f 205/1/5 192/1/5 204/1/5
f 206/1/5 194/1/5 193/1/5
f 206/2/5 193/2/5 205/2/5
f 207/1/5 194/1/5 206/1/5
f 208/2/5 195/2/5 194/2/5
f 208/1/5 194/1/5 207/1/5
f 209/2/5 195/2/5 208/2/5
f 211/1/5 197/1/5 196/1/5
f 212/2/5 198/2/5 197/2/5
f 212/1/5 197/1/5 211/1/5
f 213/1/5 199/1/5 198/1/5
f 213/2/5 198/2/5 212/2/5
f 214/2/5 200/2/5 199/2/5
f 214/1/5 199/1/5 213/1/5
f 215/1/5 202/1/5 201/1/5
f 215/2/5 200/2/5 214/2/5
f 215/1/5 201/1/5 200/1/5
f 216/1/5 202/1/5 215/1/5
f 217/2/5 203/2/5 202/2/5
f 217/1/5 202/1/5 216/1/5
f 218/1/5 204/1/5 203/1/5
f 218/2/5 203/2/5 217/2/5
f 219/2/5 207/2/5 206/2/5
f 219/1/5 204/1/5 218/1/5
f 219/2/5 205/2/5 204/2/5
f 219/2/5 206/2/5 205/2/5
f 220/2/5 207/2/5 219/2/5
f 221/2/5 207/2/5 220/2/5
f 222/1/5 210/1/5 209/1/5
f 222/2/5 207/2/5 221/2/5
f 222/1/5 209/1/5 208/1/5
f 222/1/5 208/1/5 207/1/5
f 223/1/5 210/1/5 222/1/5
f 224/1/5 210/1/5 223/1/5
f 225/2/5 212/2/5 211/2/5
f 226/1/5 213/1/5 212/1/5
f 226/2/5 212/2/5 225/2/5
f 226/1/5 214/1/5 213/1/5
f 226/1/5 215/1/5 214/1/5
f 227/2/5 216/2/5 215/2/5
f 227/1/5 215/1/5 226/1/5
f 228/2/5 216/2/5 227/2/5
f 229/1/5 218/1/5 217/1/5
f 229/2/5 216/2/5 228/2/5
f 229/1/5 217/1/5 216/1/5
f 229/1/5 220/1/5 219/1/5
f 229/1/5 219/1/5 218/1/5
f 230/1/5 220/1/5 229/1/5
f 231/1/5 220/1/5 230/1/5
f 232/2/5 221/2/5 220/2/5
f 232/1/5 220/1/5 231/1/5
f 233/2/5 221/2/5 232/2/5
f 234/1/5 223/1/5 222/1/5
f 234/1/5 222/1/5 221/1/5
f 235/2/5 224/2/5 223/2/5
f 235/1/5 223/1/5 234/1/5
f 236/1/5 210/1/5 224/1/5
f 236/2/5 224/2/5 235/2/5
f 237/1/5 210/1/5 236/1/5
f 238/1/5 226/1/5 225/1/5
f 239/2/5 227/2/5 226/2/5
f 239/1/5 226/1/5 238/1/5
f 240/2/5 227/2/5 239/2/5
f 241/1/5 228/1/5 227/1/5
f 241/2/5 227/2/5 240/2/5
f 242/2/5 229/2/5 228/2/5
f 242/1/5 228/1/5 241/1/5
f 242/2/5 230/2/5 229/2/5
f 243/1/5 231/1/5 230/1/5
f 243/2/5 230/2/5 242/2/5
f 244/2/5 232/2/5 231/2/5
f 244/1/5 231/1/5 243/1/5
f 245/1/5 233/1/5 232/1/5
f 245/2/5 232/2/5 244/2/5
f 246/2/5 221/2/5 233/2/5
f 246/1/5 233/1/5 245/1/5
f 247/1/5 234/1/5 221/1/5
f 247/2/5 221/2/5 246/2/5
f 248/2/5 235/2/5 234/2/5
f 248/1/5 234/1/5 247/1/5
f 248/2/5 236/2/5 235/2/5
f 248/2/5 237/2/5 236/2/5
f 249/2/5 237/2/5 248/2/5
f 250/1/5 240/1/5 239/1/5
f 251/2/5 242/2/5 241/2/5
f 251/1/5 240/1/5 250/1/5
f 251/2/5 244/2/5 243/2/5
f 251/2/5 241/2/5 240/2/5
f 251/2/5 243/2/5 242/2/5
f 252/2/5 244/2/5 251/2/5
f 253/2/5 244/2/5 252/2/5
f 254/2/5 244/2/5 253/2/5
f 255/1/5 247/1/5 246/1/5
f 255/2/5 246/2/5 245/2/5
f 256/2/5 248/2/5 247/2/5
f 256/1/5 247/1/5 255/1/5
f 257/2/5 239/2/5 238/2/5
f 258/1/5 250/1/5 239/1/5
f 258/2/5 239/2/5 257/2/5
f 259/2/5 251/2/5 250/2/5
f 259/1/5 250/1/5 258/1/5
f 260/1/5 252/1/5 251/1/5
f 260/2/5 251/2/5 259/2/5
f 261/2/5 253/2/5 252/2/5
f 261/1/5 252/1/5 260/1/5
f 262/1/5 254/1/5 253/1/5
f 262/2/5 253/2/5 261/2/5
f 263/2/5 244/2/5 254/2/5
f 263/1/5 254/1/5 262/1/5
f 264/1/5 245/1/5 244/1/5
f 264/2/5 244/2/5 263/2/5
f 265/2/5 255/2/5 245/2/5
f 265/1/5 245/1/5 264/1/5
f 265/2/5 256/2/5 255/2/5
f 266/1/5 249/1/5 248/1/5
f 266/2/5 256/2/5 265/2/5
f 266/2/5 248/2/5 256/2/5
f 267/2/5 237/2/5 249/2/5
f 267/1/5 249/1/5 266/1/5
f 268/2/5 237/2/5 267/2/5
f 269/1/6 270/1/6 281/1/6
f 270/2/6 271/2/6 282/2/6
f 281/1/6 270/1/6 282/1/6
f 271/1/6 272/1/6 283/1/6
f 282/2/6 271/2/6 283/2/6
f 272/2/6 273/2/6 284/2/6
f 283/1/6 272/1/6 284/1/6
f 273/1/6 274/1/6 285/1/6
f 284/2/6 273/2/6 285/2/6
f 285/1/6 274/1/6 286/1/6
f 274/2/6 275/2/6 287/2/6
f 286/1/6 274/1/6 287/1/6
f 275/1/6 276/1/6 288/1/6
f 287/2/6 275/2/6 288/2/6
f 276/2/6 277/2/6 289/2/6
f 288/1/6 276/1/6 289/1/6
f 277/1/6 278/1/6 290/1/6
f 289/2/6 277/2/6 290/2/6
f 290/1/6 278/1/6 291/1/6
f 278/2/6 279/2/6 292/2/6
f 291/1/6 278/1/6 292/1/6
f 292/2/6 279/2/6 293/2/6
f 280/1/6 281/1/6 295/1/6
f 281/2/6 282/2/6 296/2/6
f 295/1/6 281/1/6 296/1/6
f 282/1/6 283/1/6 297/1/6
f 296/2/6 282/2/6 297/2/6
f 283/2/6 284/2/6 298/2/6
f 297/1/6 283/1/6 298/1/6
f 285/1/6 286/1/6 299/1/6
f 298/2/6 284/2/6 299/2/6
f 284/1/6 285/1/6 299/1/6
f 299/1/6 286/1/6 300/1/6
f 286/2/6 287/2/6 301/2/6
f 300/1/6 286/1/6 301/1/6
f 287/1/6 288/1/6 302/1/6
f 301/2/6 287/2/6 302/2/6
f 290/2/6 291/2/6 303/2/6
f 302/1/6 288/1/6 303/1/6
f 288/2/6 289/2/6 303/2/6
f 289/2/6 290/2/6 303/2/6
f 303/2/6 291/2/6 304/2/6
f 304/2/6 291/2/6 305/2/6
f 305/2/6 291/2/6 306/2/6
f 293/1/6 294/1/6 307/1/6
f 306/2/6 291/2/6 307/2/6
f 292/1/6 293/1/6 307/1/6
f 291/1/6 292/1/6 307/1/6
f 307/1/6 294/1/6 308/1/6
f 295/2/6 296/2/6 309/2/6
f 309/2/6 296/2/6 310/2/6
f 308/1/6 294/1/6 311/1/6
f 311/1/6 294/1/6 312/1/6
f 313/1/6 314/1/6 324/1/6
f 314/2/6 315/2/6 325/2/6
f 324/1/6 314/1/6 325/1/6
f 325/2/6 315/2/6 326/2/6
f 315/1/6 316/1/6 327/1/6
f 316/2/6 317/2/6 328/2/6
f 327/1/6 316/1/6 328/1/6
f 317/1/6 318/1/6 329/1/6
f 328/2/6 317/2/6 329/2/6
f 329/1/6 318/1/6 330/1/6
f 319/1/6 320/1/6 331/1/6
f 320/2/6 321/2/6 331/2/6
f 321/1/6 322/1/6 332/1/6
f 331/2/6 321/2/6 332/2/6
f 332/1/6 322/1/6 333/1/6
f 323/2/6 324/2/6 335/2/6
f 324/2/6 325/2/6 335/2/6
f 335/2/6 325/2/6 336/2/6
f 325/1/6 326/1/6 337/1/6
f 336/2/6 325/2/6 337/2/6
f 326/2/6 315/2/6 338/2/6
f 337/1/6 326/1/6 338/1/6
f 315/1/6 327/1/6 339/1/6
f 338/2/6 315/2/6 339/2/6
f 327/2/6 328/2/6 340/2/6
f 339/1/6 327/1/6 340/1/6
f 329/2/6 330/2/6 340/2/6
f 328/2/6 329/2/6 340/2/6
f 340/2/6 330/2/6 341/2/6
f 330/1/6 318/1/6 342/1/6
f 341/2/6 330/2/6 342/2/6
f 318/2/6 319/2/6 343/2/6
f 342/1/6 318/1/6 343/1/6
f 319/1/6 331/1/6 344/1/6
f 343/2/6 319/2/6 344/2/6
f 331/1/6 332/1/6 344/1/6
f 344/1/6 332/1/6 345/1/6
f 332/2/6 333/2/6 346/2/6
f 345/1/6 332/1/6 346/1/6
f 333/1/6 334/1/6 347/1/6
f 346/2/6 333/2/6 347/2/6
f 347/1/6 334/1/6 348/1/6
f 335/1/6 336/1/6 349/1/6
f 349/1/6 336/1/6 350/1/6
f 347/2/6 348/2/6 351/2/6
f 351/2/6 348/2/6 352/2/6
f 353/1/6 354/1/6 361/1/6
f 361/1/6 354/1/6 362/1/6
f 362/1/6 354/1/6 363/1/6
f 354/2/6 355/2/6 364/2/6
f 363/1/6 354/1/6 364/1/6
f 355/1/6 356/1/6 365/1/6
f 364/2/6 355/2/6 365/2/6
f 356/2/6 357/2/6 366/2/6
f 365/1/6 356/1/6 366/1/6
f 366/2/6 357/2/6 367/2/6
f 358/2/6 359/2/6 368/2/6
f 368/2/6 359/2/6 369/2/6
f 360/2/6 361/2/6 371/2/6
f 361/1/6 362/1/6 372/1/6
f 371/2/6 361/2/6 372/2/6
f 362/2/6 363/2/6 373/2/6
f 372/1/6 362/1/6 373/1/6
f 363/1/6 364/1/6 374/1/6
f 373/2/6 363/2/6 374/2/6
f 364/1/6 365/1/6 374/1/6
f 365/2/6 366/2/6 375/2/6
f 374/1/6 365/1/6 375/1/6
f 366/1/6 367/1/6 376/1/6
f 375/2/6 366/2/6 376/2/6
f 367/2/6 357/2/6 377/2/6
f 376/1/6 367/1/6 377/1/6
f 357/1/6 358/1/6 378/1/6
f 377/2/6 357/2/6 378/2/6
f 358/2/6 368/2/6 379/2/6
f 378/1/6 358/1/6 379/1/6
f 368/1/6 369/1/6 380/1/6
f 379/2/6 368/2/6 380/2/6
f 369/1/6 370/1/6 380/1/6
f 380/1/6 370/1/6 381/1/6
