# MagicaVoxel @ Ephtracy

# group
o roof_top4px

# material
mtllib tavern-38-roof_top4px.mtl
usemtl palette

# normals
vn -1 0 0
vn 1 0 0
vn 0 0 1
vn 0 0 -1
vn 0 -1 0
vn 0 1 0

# texcoords
vt 0.673828 0.5
vt 0.677734 0.5

# verts
v -3.8 0 -6.7
v -3.8 0 -6.9
v -3.8 0 -7
v -3.8 0 -7.3
v -3.8 0 -7.5
v -3.8 0 -7.8
v -3.8 0 -8
v -3.8 0 -8.3
v -3.8 0.1 -6.7
v -3.8 0.1 -6.9
v -3.8 0.1 -7
v -3.8 0.1 -7.1
v -3.8 0.1 -7.5
v -3.8 0.1 -7.8
v -3.8 0.1 -7.9
v -3.8 0.1 -8
v -3.8 0.2 -7.6
v -3.8 0.2 -7.8
v -3.8 0.2 -7.9
v -3.8 0.2 -8
v -3.8 0.2 -8.1
v -3.8 0.2 -8.2
v -3.8 0.3 -6.9
v -3.8 0.3 -7
v -3.8 0.3 -7.1
v -3.8 0.3 -7.2
v -3.8 0.3 -7.3
v -3.8 0.3 -7.5
v -3.8 0.3 -7.6
v -3.8 0.3 -7.8
v -3.8 0.3 -8
v -3.8 0.3 -8.1
v -3.8 0.3 -8.2
v -3.8 0.3 -8.3
v -3.8 0.4 -6.7
v -3.8 0.4 -7
v -3.8 0.4 -7.2
v -3.8 0.4 -7.5
v -3.8 0.4 -8
v -3.8 0.4 -8.3
v -3.4 0 -6.7
v -3.4 0 -7.1
v -3.4 0 -7.4
v -3.4 0 -7.5
v -3.4 0 -7.7
v -3.4 0 -8
v -3.4 0 -8.1
v -3.4 0 -8.3
v -3.4 0.1 -6.7
v -3.4 0.1 -6.9
v -3.4 0.1 -7
v -3.4 0.1 -7.1
v -3.4 0.1 -7.2
v -3.4 0.1 -7.3
v -3.4 0.1 -7.4
v -3.4 0.1 -7.5
v -3.4 0.1 -7.6
v -3.4 0.1 -7.7
v -3.4 0.1 -7.8
v -3.4 0.1 -8
v -3.4 0.1 -8.1
v -3.4 0.1 -8.3
v -3.4 0.2 -6.7
v -3.4 0.2 -6.9
v -3.4 0.2 -7
v -3.4 0.2 -7.2
v -3.4 0.2 -7.3
v -3.4 0.2 -7.4
v -3.4 0.2 -7.6
v -3.4 0.2 -7.8
v -3.4 0.2 -7.9
v -3.4 0.2 -8
v -3.4 0.2 -8.1
v -3.4 0.2 -8.2
v -3.4 0.3 -6.7
v -3.4 0.3 -6.9
v -3.4 0.3 -7
v -3.4 0.3 -7.1
v -3.4 0.3 -7.3
v -3.4 0.3 -7.4
v -3.4 0.3 -7.5
v -3.4 0.3 -7.6
v -3.4 0.3 -7.7
v -3.4 0.3 -8.1
v -3.4 0.3 -8.2
v -3.4 0.3 -8.3
v -3.4 0.4 -6.7
v -3.4 0.4 -7
v -3.4 0.4 -7.3
v -3.4 0.4 -7.5
v -3.4 0.4 -7.6
v -3.4 0.4 -7.7
v -3.4 0.4 -7.9
v -3.4 0.4 -8
v -3.4 0.4 -8.1
v -3.4 0.4 -8.2
v -3.4 0.4 -8.3
v -3.8 0 -6.7
v -3.8 0.1 -6.7
v -3.8 0.4 -6.7
v -3.7 0 -6.7
v -3.7 0.1 -6.7
v -3.7 0.4 -6.7
v -3.6 0 -6.7
v -3.6 0.1 -6.7
v -3.6 0.2 -6.7
v -3.6 0.3 -6.7
v -3.5 0 -6.7
v -3.5 0.1 -6.7
v -3.4 0 -6.7
v -3.4 0.1 -6.7
v -3.4 0.2 -6.7
v -3.4 0.3 -6.7
v -3.4 0.4 -6.7
v -3.8 0 -8.3
v -3.8 0.3 -8.3
v -3.8 0.4 -8.3
v -3.7 0.2 -8.3
v -3.7 0.3 -8.3
v -3.7 0.4 -8.3
v -3.6 0 -8.3
v -3.6 0.1 -8.3
v -3.6 0.2 -8.3
v -3.6 0.3 -8.3
v -3.6 0.4 -8.3
v -3.4 0 -8.3
v -3.4 0.1 -8.3
v -3.4 0.3 -8.3
v -3.4 0.4 -8.3
v -3.8 0 -6.7
v -3.7 0 -6.7
v -3.6 0 -6.7
v -3.5 0 -6.7
v -3.4 0 -6.7
v -3.7 0 -6.8
v -3.6 0 -6.8
v -3.5 0 -6.8
v -3.8 0 -6.9
v -3.7 0 -6.9
v -3.6 0 -6.9
v -3.5 0 -6.9
v -3.8 0 -7
v -3.7 0 -7
v -3.5 0 -7
v -3.5 0 -7.1
v -3.4 0 -7.1
v -3.8 0 -7.3
v -3.7 0 -7.3
v -3.6 0 -7.3
v -3.7 0 -7.4
v -3.6 0 -7.4
v -3.5 0 -7.4
v -3.4 0 -7.4
v -3.8 0 -7.5
v -3.6 0 -7.5
v -3.5 0 -7.5
v -3.4 0 -7.5
v -3.6 0 -7.6
v -3.5 0 -7.6
v -3.6 0 -7.7
v -3.4 0 -7.7
v -3.8 0 -7.8
v -3.6 0 -7.8
v -3.5 0 -7.8
v -3.7 0 -7.9
v -3.6 0 -7.9
v -3.8 0 -8
v -3.7 0 -8
v -3.6 0 -8
v -3.5 0 -8
v -3.4 0 -8
v -3.5 0 -8.1
v -3.4 0 -8.1
v -3.7 0 -8.2
v -3.6 0 -8.2
v -3.5 0 -8.2
v -3.8 0 -8.3
v -3.6 0 -8.3
v -3.4 0 -8.3
v -3.8 0.4 -6.7
v -3.7 0.4 -6.7
v -3.4 0.4 -6.7
v -3.7 0.4 -6.9
v -3.6 0.4 -6.9
v -3.8 0.4 -7
v -3.7 0.4 -7
v -3.5 0.4 -7
v -3.4 0.4 -7
v -3.7 0.4 -7.1
v -3.6 0.4 -7.1
v -3.8 0.4 -7.2
v -3.5 0.4 -7.2
v -3.6 0.4 -7.3
v -3.4 0.4 -7.3
v -3.7 0.4 -7.4
v -3.6 0.4 -7.4
v -3.5 0.4 -7.4
v -3.8 0.4 -7.5
v -3.7 0.4 -7.5
v -3.6 0.4 -7.5
v -3.5 0.4 -7.5
v -3.4 0.4 -7.5
v -3.7 0.4 -7.6
v -3.6 0.4 -7.6
v -3.5 0.4 -7.6
v -3.4 0.4 -7.6
v -3.6 0.4 -7.7
v -3.5 0.4 -7.7
v -3.4 0.4 -7.7
v -3.6 0.4 -7.9
v -3.5 0.4 -7.9
v -3.4 0.4 -7.9
v -3.8 0.4 -8
v -3.6 0.4 -8
v -3.5 0.4 -8
v -3.4 0.4 -8
v -3.7 0.4 -8.1
v -3.6 0.4 -8.1
v -3.5 0.4 -8.1
v -3.4 0.4 -8.1
v -3.5 0.4 -8.2
v -3.4 0.4 -8.2
v -3.8 0.4 -8.3
v -3.7 0.4 -8.3
v -3.6 0.4 -8.3
v -3.4 0.4 -8.3

# faces
f 9/2/1 2/2/1 1/2/1
f 10/1/1 3/1/1 2/1/1
f 10/2/1 2/2/1 9/2/1
f 11/2/1 4/2/1 3/2/1
f 11/1/1 3/1/1 10/1/1
f 12/2/1 4/2/1 11/2/1
f 13/1/1 5/1/1 4/1/1
f 13/2/1 6/2/1 5/2/1
f 14/1/1 7/1/1 6/1/1
f 14/2/1 6/2/1 13/2/1
f 15/1/1 7/1/1 14/1/1
f 16/2/1 8/2/1 7/2/1
f 16/1/1 7/1/1 15/1/1
f 17/1/1 15/1/1 14/1/1
f 17/1/1 14/1/1 13/1/1
f 18/1/1 15/1/1 17/1/1
f 19/2/1 16/2/1 15/2/1
f 19/1/1 15/1/1 18/1/1
f 20/2/1 8/2/1 16/2/1
f 20/2/1 16/2/1 19/2/1
f 21/2/1 8/2/1 20/2/1
f 22/2/1 8/2/1 21/2/1
f 23/1/1 10/1/1 9/1/1
f 23/2/1 11/2/1 10/2/1
f 24/1/1 12/1/1 11/1/1
f 24/2/1 11/2/1 23/2/1
f 25/2/1 4/2/1 12/2/1
f 25/1/1 12/1/1 24/1/1
f 26/2/1 4/2/1 25/2/1
f 27/1/1 13/1/1 4/1/1
f 27/2/1 4/2/1 26/2/1
f 27/1/1 17/1/1 13/1/1
f 28/1/1 17/1/1 27/1/1
f 29/2/1 18/2/1 17/2/1
f 29/1/1 17/1/1 28/1/1
f 30/1/1 19/1/1 18/1/1
f 30/2/1 18/2/1 29/2/1
f 30/1/1 20/1/1 19/1/1
f 31/2/1 21/2/1 20/2/1
f 31/1/1 20/1/1 30/1/1
f 32/1/1 22/1/1 21/1/1
f 32/2/1 21/2/1 31/2/1
f 33/2/1 8/2/1 22/2/1
f 33/1/1 22/1/1 32/1/1
f 34/2/1 8/2/1 33/2/1
f 35/1/1 24/1/1 23/1/1
f 35/1/1 23/1/1 9/1/1
f 36/2/1 26/2/1 25/2/1
f 36/1/1 24/1/1 35/1/1
f 36/2/1 25/2/1 24/2/1
f 37/1/1 28/1/1 27/1/1
f 37/2/1 26/2/1 36/2/1
f 37/1/1 27/1/1 26/1/1
f 38/2/1 29/2/1 28/2/1
f 38/1/1 28/1/1 37/1/1
f 38/2/1 31/2/1 30/2/1
f 38/2/1 30/2/1 29/2/1
f 39/1/1 32/1/1 31/1/1
f 39/2/1 31/2/1 38/2/1
f 39/1/1 34/1/1 33/1/1
f 39/1/1 33/1/1 32/1/1
f 40/1/1 34/1/1 39/1/1
f 41/1/2 42/1/2 49/1/2
f 49/1/2 42/1/2 50/1/2
f 50/1/2 42/1/2 51/1/2
f 42/2/2 43/2/2 52/2/2
f 51/1/2 42/1/2 52/1/2
f 52/2/2 43/2/2 53/2/2
f 53/2/2 43/2/2 54/2/2
f 43/1/2 44/1/2 55/1/2
f 54/2/2 43/2/2 55/2/2
f 44/2/2 45/2/2 56/2/2
f 55/1/2 44/1/2 56/1/2
f 56/2/2 45/2/2 57/2/2
f 45/1/2 46/1/2 58/1/2
f 57/2/2 45/2/2 58/2/2
f 58/1/2 46/1/2 59/1/2
f 46/2/2 47/2/2 60/2/2
f 59/1/2 46/1/2 60/1/2
f 47/1/2 48/1/2 61/1/2
f 60/2/2 47/2/2 61/2/2
f 61/1/2 48/1/2 62/1/2
f 49/2/2 50/2/2 63/2/2
f 50/1/2 51/1/2 64/1/2
f 63/2/2 50/2/2 64/2/2
f 51/2/2 52/2/2 65/2/2
f 64/1/2 51/1/2 65/1/2
f 53/2/2 54/2/2 66/2/2
f 52/1/2 53/1/2 66/1/2
f 54/1/2 55/1/2 67/1/2
f 66/2/2 54/2/2 67/2/2
f 56/1/2 57/1/2 67/1/2
f 55/1/2 56/1/2 67/1/2
f 67/1/2 57/1/2 68/1/2
f 58/2/2 59/2/2 69/2/2
f 68/1/2 57/1/2 69/1/2
f 57/2/2 58/2/2 69/2/2
f 59/1/2 60/1/2 70/1/2
f 69/2/2 59/2/2 70/2/2
f 60/1/2 61/1/2 70/1/2
f 70/1/2 61/1/2 71/1/2
f 71/1/2 61/1/2 72/1/2
f 61/2/2 62/2/2 73/2/2
f 72/1/2 61/1/2 73/1/2
f 73/2/2 62/2/2 74/2/2
f 63/1/2 64/1/2 75/1/2
f 64/2/2 65/2/2 76/2/2
f 75/1/2 64/1/2 76/1/2
f 65/2/2 52/2/2 77/2/2
f 76/2/2 65/2/2 77/2/2
f 52/1/2 66/1/2 78/1/2
f 77/2/2 52/2/2 78/2/2
f 67/1/2 68/1/2 78/1/2
f 66/1/2 67/1/2 78/1/2
f 78/1/2 68/1/2 79/1/2
f 68/2/2 69/2/2 80/2/2
f 79/1/2 68/1/2 80/1/2
f 80/2/2 69/2/2 81/2/2
f 69/1/2 70/1/2 82/1/2
f 81/2/2 69/2/2 82/2/2
f 70/1/2 71/1/2 82/1/2
f 82/1/2 71/1/2 83/1/2
f 73/1/2 74/1/2 84/1/2
f 72/1/2 73/1/2 84/1/2
f 74/2/2 62/2/2 85/2/2
f 84/1/2 74/1/2 85/1/2
f 85/2/2 62/2/2 86/2/2
f 75/2/2 76/2/2 87/2/2
f 76/2/2 77/2/2 87/2/2
f 78/1/2 79/1/2 88/1/2
f 87/2/2 77/2/2 88/2/2
f 77/1/2 78/1/2 88/1/2
f 80/2/2 81/2/2 89/2/2
f 88/1/2 79/1/2 89/1/2
f 79/2/2 80/2/2 89/2/2
f 81/1/2 82/1/2 90/1/2
f 89/2/2 81/2/2 90/2/2
f 82/2/2 83/2/2 91/2/2
f 90/1/2 82/1/2 91/1/2
f 83/1/2 71/1/2 92/1/2
f 91/2/2 83/2/2 92/2/2
f 71/2/2 72/2/2 93/2/2
f 92/1/2 71/1/2 93/1/2
f 72/1/2 84/1/2 94/1/2
f 93/2/2 72/2/2 94/2/2
f 84/2/2 85/2/2 95/2/2
f 94/1/2 84/1/2 95/1/2
f 85/1/2 86/1/2 96/1/2
f 95/2/2 85/2/2 96/2/2
f 96/1/2 86/1/2 97/1/2
f 101/2/3 99/2/3 98/2/3
f 102/1/3 100/1/3 99/1/3
f 102/2/3 99/2/3 101/2/3
f 103/1/3 100/1/3 102/1/3
f 104/1/3 102/1/3 101/1/3
f 105/2/3 103/2/3 102/2/3
f 105/1/3 102/1/3 104/1/3
f 106/2/3 103/2/3 105/2/3
f 107/2/3 103/2/3 106/2/3
f 108/2/3 105/2/3 104/2/3
f 108/2/3 106/2/3 105/2/3
f 109/2/3 106/2/3 108/2/3
f 110/1/3 109/1/3 108/1/3
f 111/2/3 106/2/3 109/2/3
f 111/1/3 109/1/3 110/1/3
f 112/1/3 107/1/3 106/1/3
f 112/2/3 106/2/3 111/2/3
f 113/2/3 103/2/3 107/2/3
f 113/1/3 107/1/3 112/1/3
f 114/2/3 103/2/3 113/2/3
f 115/2/4 116/2/4 118/2/4
f 116/1/4 117/1/4 119/1/4
f 118/2/4 116/2/4 119/2/4
f 119/1/4 117/1/4 120/1/4
f 115/2/4 118/2/4 121/2/4
f 121/2/4 118/2/4 122/2/4
f 118/1/4 119/1/4 123/1/4
f 122/2/4 118/2/4 123/2/4
f 119/2/4 120/2/4 124/2/4
f 123/1/4 119/1/4 124/1/4
f 124/2/4 120/2/4 125/2/4
f 121/1/4 122/1/4 126/1/4
f 122/2/4 123/2/4 127/2/4
f 126/1/4 122/1/4 127/1/4
f 123/2/4 124/2/4 127/2/4
f 124/1/4 125/1/4 128/1/4
f 127/2/4 124/2/4 128/2/4
f 128/1/4 125/1/4 129/1/4
f 135/2/5 131/2/5 130/2/5
f 135/1/5 132/1/5 131/1/5
f 136/2/5 133/2/5 132/2/5
f 136/1/5 132/1/5 135/1/5
f 137/1/5 134/1/5 133/1/5
f 137/2/5 133/2/5 136/2/5
f 138/2/5 136/2/5 135/2/5
f 138/2/5 135/2/5 130/2/5
f 139/2/5 136/2/5 138/2/5
f 140/1/5 137/1/5 136/1/5
f 140/2/5 136/2/5 139/2/5
f 141/1/5 134/1/5 137/1/5
f 141/1/5 137/1/5 140/1/5
f 142/1/5 139/1/5 138/1/5
f 143/2/5 140/2/5 139/2/5
f 143/1/5 139/1/5 142/1/5
f 143/2/5 141/2/5 140/2/5
f 144/1/5 134/1/5 141/1/5
f 144/2/5 141/2/5 143/2/5
f 145/1/5 144/1/5 143/1/5
f 145/1/5 134/1/5 144/1/5
f 146/1/5 134/1/5 145/1/5
f 147/2/5 143/2/5 142/2/5
f 148/1/5 145/1/5 143/1/5
f 148/2/5 143/2/5 147/2/5
f 149/1/5 145/1/5 148/1/5
f 150/1/5 148/1/5 147/1/5
f 150/2/5 149/2/5 148/2/5
f 151/1/5 145/1/5 149/1/5
f 151/2/5 149/2/5 150/2/5
f 152/2/5 146/2/5 145/2/5
f 152/1/5 145/1/5 151/1/5
f 153/2/5 146/2/5 152/2/5
f 154/1/5 151/1/5 150/1/5
f 154/1/5 150/1/5 147/1/5
f 154/1/5 153/1/5 152/1/5
f 154/1/5 152/1/5 151/1/5
f 155/1/5 153/1/5 154/1/5
f 156/1/5 153/1/5 155/1/5
f 157/1/5 153/1/5 156/1/5
f 158/2/5 155/2/5 154/2/5
f 158/1/5 156/1/5 155/1/5
f 159/2/5 157/2/5 156/2/5
f 159/1/5 156/1/5 158/1/5
f 160/2/5 158/2/5 154/2/5
f 160/2/5 159/2/5 158/2/5
f 161/2/5 157/2/5 159/2/5
f 161/2/5 159/2/5 160/2/5
f 162/2/5 160/2/5 154/2/5
f 163/1/5 161/1/5 160/1/5
f 163/2/5 160/2/5 162/2/5
f 164/1/5 161/1/5 163/1/5
f 165/1/5 163/1/5 162/1/5
f 166/2/5 164/2/5 163/2/5
f 166/1/5 163/1/5 165/1/5
f 167/1/5 165/1/5 162/1/5
f 168/2/5 166/2/5 165/2/5
f 168/1/5 165/1/5 167/1/5
f 169/2/5 164/2/5 166/2/5
f 169/2/5 166/2/5 168/2/5
f 170/1/5 161/1/5 164/1/5
f 170/2/5 164/2/5 169/2/5
f 171/1/5 161/1/5 170/1/5
f 172/2/5 170/2/5 169/2/5
f 172/2/5 171/2/5 170/2/5
f 173/2/5 171/2/5 172/2/5
f 174/1/5 169/1/5 168/1/5
f 174/2/5 168/2/5 167/2/5
f 175/2/5 172/2/5 169/2/5
f 175/1/5 169/1/5 174/1/5
f 176/1/5 173/1/5 172/1/5
f 176/2/5 172/2/5 175/2/5
f 177/2/5 175/2/5 174/2/5
f 177/2/5 174/2/5 167/2/5
f 178/1/5 176/1/5 175/1/5
f 178/2/5 175/2/5 177/2/5
f 179/1/5 173/1/5 176/1/5
f 179/1/5 176/1/5 178/1/5
f 180/1/6 181/1/6 183/1/6
f 181/2/6 182/2/6 183/2/6
f 183/2/6 182/2/6 184/2/6
f 180/1/6 183/1/6 185/1/6
f 183/1/6 184/1/6 185/1/6
f 185/1/6 184/1/6 186/1/6
f 184/2/6 182/2/6 187/2/6
f 187/2/6 182/2/6 188/2/6
f 186/1/6 184/1/6 189/1/6
f 185/2/6 186/2/6 189/2/6
f 184/2/6 187/2/6 190/2/6
f 189/1/6 184/1/6 190/1/6
f 185/2/6 189/2/6 191/2/6
f 189/2/6 190/2/6 191/2/6
f 187/1/6 188/1/6 192/1/6
f 191/2/6 190/2/6 192/2/6
f 190/2/6 187/2/6 192/2/6
f 191/1/6 192/1/6 193/1/6
f 192/1/6 188/1/6 194/1/6
f 193/1/6 192/1/6 194/1/6
f 191/1/6 193/1/6 195/1/6
f 193/2/6 194/2/6 196/2/6
f 195/1/6 193/1/6 196/1/6
f 196/2/6 194/2/6 197/2/6
f 191/1/6 195/1/6 198/1/6
f 195/2/6 196/2/6 199/2/6
f 198/1/6 195/1/6 199/1/6
f 196/1/6 197/1/6 200/1/6
f 199/2/6 196/2/6 200/2/6
f 197/2/6 194/2/6 201/2/6
f 200/1/6 197/1/6 201/1/6
f 201/2/6 194/2/6 202/2/6
f 199/1/6 200/1/6 203/1/6
f 198/2/6 199/2/6 203/2/6
f 201/1/6 202/1/6 203/1/6
f 200/1/6 201/1/6 203/1/6
f 203/1/6 202/1/6 204/1/6
f 204/1/6 202/1/6 205/1/6
f 205/1/6 202/1/6 206/1/6
f 203/2/6 204/2/6 207/2/6
f 204/1/6 205/1/6 207/1/6
f 205/2/6 206/2/6 208/2/6
f 207/1/6 205/1/6 208/1/6
f 208/2/6 206/2/6 209/2/6
f 203/2/6 207/2/6 210/2/6
f 207/2/6 208/2/6 210/2/6
f 208/1/6 209/1/6 211/1/6
f 210/2/6 208/2/6 211/2/6
f 211/1/6 209/1/6 212/1/6
f 198/2/6 203/2/6 213/2/6
f 203/2/6 210/2/6 213/2/6
f 210/1/6 211/1/6 214/1/6
f 213/2/6 210/2/6 214/2/6
f 211/2/6 212/2/6 215/2/6
f 214/1/6 211/1/6 215/1/6
f 215/2/6 212/2/6 216/2/6
f 213/1/6 214/1/6 217/1/6
f 214/2/6 215/2/6 218/2/6
f 217/1/6 214/1/6 218/1/6
f 215/1/6 216/1/6 219/1/6
f 218/2/6 215/2/6 219/2/6
f 219/1/6 216/1/6 220/1/6
f 218/1/6 219/1/6 221/1/6
f 219/2/6 220/2/6 221/2/6
f 221/2/6 220/2/6 222/2/6
f 213/1/6 217/1/6 223/1/6
f 217/2/6 218/2/6 224/2/6
f 223/1/6 217/1/6 224/1/6
f 218/1/6 221/1/6 225/1/6
f 224/2/6 218/2/6 225/2/6
f 221/1/6 222/1/6 225/1/6
f 225/1/6 222/1/6 226/1/6
