# MagicaVoxel @ Ephtracy

# group
o floor_cornerstone

# material
mtllib tavern-68-floor_cornerstone.mtl
usemtl palette

# normals
vn 0 0 1
vn 0 0 -1
vn 1 0 0
vn -1 0 0
vn 0 -1 0
vn 0 1 0

# texcoords
vt 0.0292969 0.5
vt 0.0605469 0.5

# verts
v 3.2 0 -1.3
v 3 0 -1.3
v 2.9 0 -1.3
v 2.8 0 -1.3
v 2.7 0 -1.3
v 3.2 0.3 -1.3
v 3 0.3 -1.3
v 2.9 0.3 -1.3
v 2.8 0.3 -1.3
v 2.7 0.3 -1.3
v 3.2 0 -1.8
v 3 0 -1.8
v 2.8 0 -1.8
v 2.7 0 -1.8
v 3.2 0.3 -1.8
v 3 0.3 -1.8
v 2.8 0.3 -1.8
v 2.7 0.3 -1.8
v 3.2 0 -1.3
v 3.2 0.3 -1.3
v 3.2 0 -1.5
v 3.2 0.3 -1.5
v 3.2 0 -1.7
v 3.2 0.3 -1.7
v 3.2 0 -1.8
v 3.2 0.3 -1.8
v 2.7 0 -1.3
v 2.7 0.3 -1.3
v 2.7 0 -1.7
v 2.7 0.3 -1.7
v 2.7 0 -1.8
v 2.7 0.3 -1.8
v 3.2 0 -1.3
v 3.2 0 -1.5
v 3.2 0 -1.7
v 3.2 0 -1.8
v 3.1 0 -1.5
v 3.1 0 -1.7
v 3 0 -1.3
v 3 0 -1.4
v 3 0 -1.6
v 3 0 -1.8
v 2.9 0 -1.3
v 2.9 0 -1.4
v 2.8 0 -1.3
v 2.8 0 -1.6
v 2.8 0 -1.7
v 2.8 0 -1.8
v 2.7 0 -1.3
v 2.7 0 -1.7
v 2.7 0 -1.8
v 3.2 0.3 -1.3
v 3.2 0.3 -1.5
v 3.2 0.3 -1.7
v 3.2 0.3 -1.8
v 3.1 0.3 -1.5
v 3.1 0.3 -1.7
v 3 0.3 -1.3
v 3 0.3 -1.4
v 3 0.3 -1.6
v 3 0.3 -1.8
v 2.9 0.3 -1.3
v 2.9 0.3 -1.4
v 2.8 0.3 -1.3
v 2.8 0.3 -1.6
v 2.8 0.3 -1.7
v 2.8 0.3 -1.8
v 2.7 0.3 -1.3
v 2.7 0.3 -1.7
v 2.7 0.3 -1.8

# faces
f 6/2/1 2/2/1 1/2/1
f 7/1/1 3/1/1 2/1/1
f 7/2/1 2/2/1 6/2/1
f 8/2/1 4/2/1 3/2/1
f 8/1/1 3/1/1 7/1/1
f 9/1/1 5/1/1 4/1/1
f 9/2/1 4/2/1 8/2/1
f 10/1/1 5/1/1 9/1/1
f 11/2/2 12/2/2 15/2/2
f 12/1/2 13/1/2 16/1/2
f 15/2/2 12/2/2 16/2/2
f 13/2/2 14/2/2 17/2/2
f 16/1/2 13/1/2 17/1/2
f 17/2/2 14/2/2 18/2/2
f 21/2/3 20/2/3 19/2/3
f 22/2/3 20/2/3 21/2/3
f 23/1/3 22/1/3 21/1/3
f 24/1/3 22/1/3 23/1/3
f 25/2/3 24/2/3 23/2/3
f 26/2/3 24/2/3 25/2/3
f 27/1/4 28/1/4 29/1/4
f 29/1/4 28/1/4 30/1/4
f 29/2/4 30/2/4 31/2/4
f 31/2/4 30/2/4 32/2/4
f 37/2/5 34/2/5 33/2/5
f 37/1/5 35/1/5 34/1/5
f 38/2/5 36/2/5 35/2/5
f 38/1/5 35/1/5 37/1/5
f 39/2/5 37/2/5 33/2/5
f 39/2/5 38/2/5 37/2/5
f 40/2/5 38/2/5 39/2/5
f 41/2/5 38/2/5 40/2/5
f 42/2/5 36/2/5 38/2/5
f 42/2/5 38/2/5 41/2/5
f 43/1/5 40/1/5 39/1/5
f 44/2/5 41/2/5 40/2/5
f 44/1/5 40/1/5 43/1/5
f 45/2/5 44/2/5 43/2/5
f 46/1/5 42/1/5 41/1/5
f 46/2/5 44/2/5 45/2/5
f 46/2/5 41/2/5 44/2/5
f 47/1/5 42/1/5 46/1/5
f 48/1/5 42/1/5 47/1/5
f 49/1/5 46/1/5 45/1/5
f 49/1/5 47/1/5 46/1/5
f 50/2/5 48/2/5 47/2/5
f 50/1/5 47/1/5 49/1/5
f 51/2/5 48/2/5 50/2/5
f 52/2/6 53/2/6 56/2/6
f 53/1/6 54/1/6 56/1/6
f 54/2/6 55/2/6 57/2/6
f 56/1/6 54/1/6 57/1/6
f 52/2/6 56/2/6 58/2/6
f 56/2/6 57/2/6 58/2/6
f 58/2/6 57/2/6 59/2/6
f 59/2/6 57/2/6 60/2/6
f 57/2/6 55/2/6 61/2/6
f 60/2/6 57/2/6 61/2/6
f 58/1/6 59/1/6 62/1/6
f 59/2/6 60/2/6 63/2/6
f 62/1/6 59/1/6 63/1/6
f 62/2/6 63/2/6 64/2/6
f 60/1/6 61/1/6 65/1/6
f 64/2/6 63/2/6 65/2/6
f 63/2/6 60/2/6 65/2/6
f 65/1/6 61/1/6 66/1/6
f 66/1/6 61/1/6 67/1/6
f 64/1/6 65/1/6 68/1/6
f 65/1/6 66/1/6 68/1/6
f 66/2/6 67/2/6 69/2/6
f 68/1/6 66/1/6 69/1/6
f 69/2/6 67/2/6 70/2/6
