# Blender v3.2.2 OBJ File: 'Medieval Voxel Assets.blend'
# www.blender.org
mtllib Lamp_Wall.mtl
o Lamp_Wall_Medieval_Assets-47.001
v 17.700001 2.399999 3.900001
v 17.700001 2.499999 3.800000
v 17.700001 2.499999 4.000000
v 17.700001 2.499999 3.700001
v 17.799999 2.599999 4.000000
v 17.900000 2.299999 3.900001
v 17.900000 2.199999 3.900001
v 17.900000 2.499999 3.800000
v 17.900000 2.599999 4.200000
v 17.900000 2.599999 4.100000
v 17.900000 2.500000 3.500000
v 17.900000 2.499999 3.600000
v 18.000000 2.299999 3.900001
v 18.000000 2.199999 3.800000
v 18.000000 2.299999 3.700001
v 18.000000 2.399999 4.000000
v 18.000000 2.399999 3.800000
v 18.000000 2.299999 3.600000
v 18.000000 2.399999 4.200000
v 18.000000 2.400000 3.500000
v 18.000000 2.599999 3.500000
v 18.000000 2.500000 3.400001
v 18.000000 2.699999 3.800000
v 18.000000 2.599999 3.700001
v 18.000000 2.799999 3.800000
v 18.200001 2.499999 4.000000
v 18.200001 2.499999 4.100000
v 18.200001 2.599999 4.000000
v 18.200001 2.499999 3.700001
v 18.299999 2.499999 3.800000
v 18.299999 2.499999 4.000000
v 18.299999 2.499999 3.700001
v 17.799999 2.399999 3.900001
v 17.799999 2.399999 3.800000
v 17.900000 2.399999 3.900001
v 17.900000 2.399999 3.800000
v 17.900000 2.499999 3.700001
v 17.900000 2.599999 3.700001
v 18.100000 2.199999 3.800000
v 18.100000 2.299999 4.100000
v 18.100000 2.399999 4.100000
v 18.100000 2.399999 3.800000
v 18.100000 2.299999 3.600000
v 18.100000 2.499999 4.200000
v 18.100000 2.499999 4.100000
v 18.100000 2.499999 4.000000
v 18.100000 2.400000 3.500000
v 18.100000 2.500000 3.500000
v 18.100000 2.599999 3.800000
v 18.100000 2.599999 3.700001
v 18.200001 2.399999 3.900001
v 18.200001 2.599999 4.100000
v 18.200001 2.499999 3.600000
v 18.200001 2.500000 3.500000
v 18.299999 2.399999 3.800000
v 18.299999 2.599999 4.100000
v 18.299999 2.499999 3.600000
v 18.299999 2.599999 3.700001
v 18.299999 2.599999 3.600000
v 18.400000 2.599999 3.700001
v 18.000000 2.499999 4.200000
v 17.900000 2.499999 4.200000
v 18.200001 2.499999 4.200000
v 18.200001 2.599999 4.200000
v 17.900000 2.499999 4.100000
v 17.799999 2.599999 4.100000
v 17.799999 2.499999 4.100000
v 18.000000 2.399999 4.100000
v 18.100000 2.199999 4.000000
v 18.100000 2.299999 4.000000
v 18.000000 2.499999 4.000000
v 18.299999 2.599999 4.000000
v 18.000000 2.199999 3.900001
v 17.900000 2.499999 3.900001
v 18.000000 2.499999 3.900001
v 18.100000 2.499999 3.900001
v 18.000000 2.799999 3.900001
v 18.299999 2.299999 3.900001
v 18.299999 2.399999 3.900001
v 18.100000 2.399999 3.700001
v 18.200001 2.599999 3.700001
v 18.000000 2.499999 3.600000
v 17.900000 2.599999 3.600000
v 17.900000 2.499999 4.000000
v 18.100000 2.399999 4.000000
v 17.700001 2.399999 3.800000
v 17.900000 2.299999 3.800000
v 18.100000 2.299999 3.800000
v 18.100000 2.499999 3.800000
v 18.100000 2.799999 3.800000
v 18.200001 2.399999 3.800000
v 18.299999 2.299999 3.800000
v 18.400000 2.399999 3.800000
v 18.100000 2.299999 3.700001
v 18.000000 2.699999 3.700001
v 18.400000 2.499999 3.700001
v 17.799999 2.599999 3.600000
v 18.000000 2.500000 3.500000
v 18.100000 2.599999 3.500000
v 18.200001 2.599999 3.500000
v 18.000000 2.599999 3.400001
v 18.100000 2.599999 3.400001
v 18.000000 2.199999 4.000000
v 18.100000 2.199999 3.900001
v 17.900000 2.199999 3.800000
v 18.200001 2.199999 3.900001
v 18.200001 2.199999 3.800000
v 18.000000 2.199999 3.700001
v 18.100000 2.199999 3.700001
v 18.000000 2.299999 4.100000
v 17.799999 2.299999 3.800000
v 17.799999 2.299999 3.900001
v 18.200001 2.299999 3.800000
v 18.100000 2.399999 4.200000
v 18.000000 2.399999 3.900001
v 18.100000 2.399999 3.900001
v 18.400000 2.399999 3.900001
v 18.000000 2.399999 3.600000
v 18.000000 2.499999 4.100000
v 17.799999 2.499999 4.000000
v 18.299999 2.499999 4.100000
v 17.700001 2.499999 3.900001
v 17.799999 2.499999 3.900001
v 18.299999 2.499999 3.900001
v 18.400000 2.499999 4.000000
v 18.400000 2.499999 3.900001
v 17.799999 2.499999 3.800000
v 17.799999 2.499999 3.700001
v 18.400000 2.499999 3.800000
v 17.799999 2.499999 3.600000
v 18.100000 2.499999 3.600000
v 18.100000 2.500000 3.400001
v 18.000000 2.599999 3.800000
v 18.000000 2.299999 4.000000
v 18.100000 2.299999 3.900001
v 18.000000 2.299999 3.800000
v 18.200001 2.299999 3.900001
v 18.000000 2.399999 3.700001
v 18.100000 2.399999 3.600000
v 18.000000 2.499999 3.800000
v 18.200001 2.499999 3.900001
v 18.200001 2.499999 3.800000
v 17.900000 2.599999 4.000000
v 17.700001 2.599999 4.000000
v 17.700001 2.599999 3.700001
v 17.799999 2.599999 3.700001
v 18.400000 2.599999 4.000000
v 18.200001 2.599999 3.600000
v 17.900000 2.599999 3.500000
v 18.100000 2.699999 3.800000
v 18.100000 2.699999 3.700001
v 18.100000 2.799999 3.900001
vt 0.252101 0.304131
vt 0.189298 0.304131
vt 0.189298 0.366936
vt 0.126495 0.366936
vt 0.126495 0.178524
vt 0.189298 0.178524
vt 0.189298 0.241327
vt 0.252101 0.241327
vt 0.759856 0.682726
vt 0.697052 0.682726
vt 0.697052 0.619923
vt 0.759856 0.619923
vt 0.694685 0.367525
vt 0.757488 0.367525
vt 0.757488 0.430328
vt 0.694685 0.430328
vt 0.126495 0.744938
vt 0.126495 0.556528
vt 0.189299 0.556528
vt 0.189299 0.744938
vt 0.823251 0.619923
vt 0.823251 0.682726
vt 0.760448 0.682726
vt 0.760448 0.619923
vt 0.633657 0.746715
vt 0.696460 0.746715
vt 0.696460 0.809518
vt 0.633657 0.809518
vt 0.443471 0.619924
vt 0.506274 0.619924
vt 0.506274 0.682727
vt 0.443471 0.682727
vt 0.758080 0.367526
vt 0.820883 0.367526
vt 0.820883 0.430330
vt 0.758080 0.430330
vt 0.506274 0.810110
vt 0.506274 0.872913
vt 0.443470 0.872913
vt 0.443470 0.810110
vt 0.760448 0.810110
vt 0.823251 0.810110
vt 0.823251 0.872913
vt 0.760448 0.872913
vt 0.821476 0.494317
vt 0.884279 0.494317
vt 0.884279 0.557120
vt 0.821476 0.557120
vt 0.886647 0.746714
vt 0.886647 0.809517
vt 0.823843 0.809517
vt 0.823843 0.746714
vt 0.483541 0.000296
vt 0.546344 0.000296
vt 0.546344 0.063099
vt 0.483541 0.063099
vt 0.823843 0.683319
vt 0.886647 0.683319
vt 0.886647 0.746122
vt 0.823843 0.746122
vt 0.697052 0.683319
vt 0.759856 0.683319
vt 0.759856 0.746122
vt 0.697052 0.746122
vt 0.823843 0.619924
vt 0.886647 0.619924
vt 0.886647 0.682727
vt 0.823843 0.682727
vt 0.887238 0.619924
vt 0.950041 0.619924
vt 0.950041 0.682727
vt 0.887238 0.682727
vt 0.380075 0.683319
vt 0.442879 0.683319
vt 0.442879 0.746122
vt 0.380075 0.746122
vt 0.821475 0.367525
vt 0.884279 0.367525
vt 0.884279 0.430328
vt 0.821475 0.430328
vt 0.316088 0.619923
vt 0.316088 0.682726
vt 0.253285 0.682726
vt 0.253285 0.619923
vt 0.063099 0.872321
vt 0.063099 0.935124
vt 0.000296 0.935124
vt 0.000296 0.872321
vt 0.506867 0.556528
vt 0.569670 0.556528
vt 0.569670 0.619332
vt 0.506867 0.619332
vt 0.000296 0.998519
vt 0.000296 0.935716
vt 0.063099 0.935716
vt 0.063099 0.998519
vt 0.694685 0.494316
vt 0.757488 0.494316
vt 0.757488 0.557119
vt 0.694685 0.557119
vt 0.252692 0.556528
vt 0.252692 0.619331
vt 0.189889 0.619331
vt 0.189889 0.556528
vt 0.990110 0.063691
vt 0.990110 0.126495
vt 0.927307 0.126495
vt 0.927307 0.063691
vt 0.567894 0.241327
vt 0.630697 0.241327
vt 0.630697 0.304131
vt 0.567894 0.304131
vt 0.567894 0.366934
vt 0.505091 0.366934
vt 0.505091 0.178524
vt 0.567894 0.178524
vt 0.823251 0.936308
vt 0.760448 0.936308
vt 0.760448 0.873505
vt 0.823251 0.873505
vt 0.506274 0.556528
vt 0.506274 0.619331
vt 0.443471 0.619331
vt 0.443471 0.556528
vt 0.378300 0.430330
vt 0.378300 0.493133
vt 0.315497 0.493133
vt 0.315497 0.555936
vt 0.252693 0.555936
vt 0.252693 0.367526
vt 0.315497 0.367526
vt 0.315497 0.430330
vt 0.610332 0.000296
vt 0.673135 0.000296
vt 0.673135 0.063099
vt 0.610332 0.063099
vt 0.610332 0.063692
vt 0.673135 0.063692
vt 0.673135 0.126495
vt 0.610332 0.126495
vt 0.569669 0.810110
vt 0.569669 0.872913
vt 0.506866 0.872913
vt 0.506866 0.810110
vt 0.569669 0.873505
vt 0.569669 0.936308
vt 0.506866 0.936308
vt 0.506866 0.873505
vt 0.380076 0.873505
vt 0.442879 0.873505
vt 0.442879 0.936309
vt 0.380076 0.936309
vt 0.442879 0.619923
vt 0.442879 0.682726
vt 0.380075 0.682726
vt 0.380075 0.619923
vt 0.000296 0.808926
vt 0.063099 0.808926
vt 0.063099 0.871729
vt 0.000296 0.871729
vt 0.443470 0.936901
vt 0.506273 0.936901
vt 0.506273 0.999704
vt 0.443470 0.999704
vt 0.760448 0.746715
vt 0.823251 0.746715
vt 0.823251 0.809518
vt 0.760448 0.809518
vt 0.760448 0.683319
vt 0.823251 0.683319
vt 0.823251 0.746122
vt 0.760448 0.746122
vt 0.673727 0.000296
vt 0.736530 0.000296
vt 0.736530 0.063099
vt 0.673727 0.063099
vt 0.570261 0.936900
vt 0.633064 0.936900
vt 0.633064 0.999703
vt 0.570261 0.999703
vt 0.820883 0.494316
vt 0.820883 0.557119
vt 0.758080 0.557119
vt 0.758080 0.494316
vt 0.758080 0.430922
vt 0.820883 0.430922
vt 0.820883 0.493725
vt 0.758080 0.493725
vt 0.126493 0.935717
vt 0.189297 0.935717
vt 0.189297 0.998520
vt 0.126493 0.998520
vt 0.633065 0.683319
vt 0.633065 0.746122
vt 0.570262 0.746122
vt 0.570262 0.683319
vt 0.253284 0.936900
vt 0.316088 0.936900
vt 0.316088 0.999704
vt 0.253284 0.999704
vt 0.441695 0.430330
vt 0.504499 0.430330
vt 0.504499 0.493133
vt 0.441695 0.493133
vt 0.441695 0.555936
vt 0.378892 0.555936
vt 0.378892 0.367526
vt 0.441695 0.367526
vt 0.759855 0.936308
vt 0.697052 0.936308
vt 0.697052 0.873505
vt 0.759855 0.873505
vt 0.000296 0.366936
vt 0.000296 0.178524
vt 0.063099 0.178524
vt 0.063099 0.241327
vt 0.125903 0.241327
vt 0.125903 0.304131
vt 0.063099 0.304131
vt 0.063099 0.366936
vt 0.757488 0.241919
vt 0.757488 0.304722
vt 0.694685 0.304722
vt 0.694685 0.241919
vt 0.506274 0.746714
vt 0.506274 0.809517
vt 0.443471 0.809517
vt 0.443471 0.746714
vt 0.316679 0.999704
vt 0.316679 0.936901
vt 0.379482 0.936901
vt 0.379482 0.999704
vt 0.927307 0.000296
vt 0.990110 0.000296
vt 0.990110 0.063099
vt 0.927307 0.063099
vt 0.252692 0.809517
vt 0.189889 0.809517
vt 0.189889 0.746714
vt 0.252692 0.746714
vt 0.189298 0.745529
vt 0.189298 0.808332
vt 0.126495 0.808332
vt 0.126495 0.745529
vt 0.506274 0.683319
vt 0.506274 0.746122
vt 0.443471 0.746122
vt 0.443471 0.683319
vt 0.189297 0.872321
vt 0.189297 0.935124
vt 0.126493 0.935124
vt 0.126493 0.872321
vt 0.799926 0.063692
vt 0.799926 0.126495
vt 0.737122 0.126495
vt 0.737122 0.063692
vt 0.252692 0.936308
vt 0.189888 0.936308
vt 0.189888 0.873505
vt 0.252692 0.873505
vt 0.799925 0.063099
vt 0.737122 0.063099
vt 0.737122 0.000296
vt 0.799925 0.000296
vt 0.252100 0.555936
vt 0.189297 0.555936
vt 0.189297 0.367526
vt 0.252100 0.367526
vt 0.630697 0.555936
vt 0.567894 0.555936
vt 0.567894 0.493133
vt 0.505091 0.493133
vt 0.505091 0.430330
vt 0.567894 0.430330
vt 0.567894 0.367526
vt 0.630697 0.367526
vt 0.569669 0.746714
vt 0.569669 0.809517
vt 0.506866 0.809517
vt 0.506866 0.746714
vt 0.380076 0.746714
vt 0.442879 0.746714
vt 0.442879 0.809517
vt 0.380076 0.809517
vt 0.633065 0.746714
vt 0.633065 0.809517
vt 0.570262 0.809517
vt 0.570262 0.746714
vt 0.546936 0.063692
vt 0.609739 0.063692
vt 0.609739 0.126495
vt 0.546936 0.126495
vt 0.757488 0.430922
vt 0.757488 0.493725
vt 0.694685 0.493725
vt 0.694685 0.430922
vt 0.947674 0.430922
vt 0.947674 0.493725
vt 0.884871 0.493725
vt 0.884871 0.430922
vt 0.696460 0.936308
vt 0.633657 0.936308
vt 0.633657 0.873505
vt 0.696460 0.873505
vt 0.252693 0.366936
vt 0.252693 0.178524
vt 0.315497 0.178524
vt 0.315497 0.241327
vt 0.378300 0.241327
vt 0.378300 0.304131
vt 0.315497 0.304131
vt 0.315497 0.366936
vt 0.443471 0.873505
vt 0.506274 0.873505
vt 0.506274 0.936309
vt 0.443471 0.936309
vt 0.356750 0.063692
vt 0.419553 0.063692
vt 0.419553 0.126495
vt 0.356750 0.126495
vt 0.378892 0.366936
vt 0.378892 0.178524
vt 0.441695 0.178524
vt 0.441695 0.241327
vt 0.504498 0.241327
vt 0.504498 0.304131
vt 0.441695 0.304131
vt 0.441695 0.366936
vt 0.189889 0.683319
vt 0.252692 0.683319
vt 0.252692 0.746122
vt 0.189889 0.746122
vt 0.420145 0.000296
vt 0.482948 0.000296
vt 0.482948 0.063099
vt 0.420145 0.063099
vt 0.633657 0.619924
vt 0.696460 0.619924
vt 0.696460 0.682727
vt 0.633657 0.682727
vt 0.570262 0.619923
vt 0.633065 0.619923
vt 0.633065 0.682726
vt 0.570262 0.682726
vt 0.569669 0.682726
vt 0.506866 0.682726
vt 0.506866 0.619923
vt 0.569669 0.619923
vt 0.863321 0.063690
vt 0.863321 0.126493
vt 0.800518 0.126493
vt 0.800518 0.063690
vt 0.000296 0.619332
vt 0.063099 0.619332
vt 0.063099 0.556528
vt 0.125903 0.556528
vt 0.125903 0.744938
vt 0.063099 0.744938
vt 0.063099 0.682135
vt 0.000296 0.682135
vt 0.133522 0.177931
vt 0.089113 0.133523
vt 0.044704 0.177932
vt 0.000296 0.133523
vt 0.044704 0.089114
vt 0.000296 0.044705
vt 0.044704 0.000297
vt 0.089113 0.044704
vt 0.133522 0.000296
vt 0.177931 0.044704
vt 0.133522 0.089114
vt 0.177931 0.133522
vt 0.420145 0.063692
vt 0.482948 0.063692
vt 0.482948 0.126495
vt 0.420145 0.126495
vt 0.379483 0.936308
vt 0.316679 0.936308
vt 0.316679 0.873505
vt 0.379483 0.873505
vt 0.379483 0.810110
vt 0.379483 0.872913
vt 0.316680 0.872913
vt 0.316680 0.810110
vt 0.442879 0.810110
vt 0.442879 0.872913
vt 0.380075 0.872913
vt 0.380075 0.810110
vt 0.252692 0.682726
vt 0.189889 0.682726
vt 0.189889 0.619923
vt 0.252692 0.619923
vt 0.356750 0.000296
vt 0.419553 0.000296
vt 0.419553 0.063099
vt 0.356750 0.063099
vt 0.316088 0.619331
vt 0.253285 0.619331
vt 0.253285 0.556528
vt 0.316088 0.556528
vt 0.380076 0.556528
vt 0.442879 0.556528
vt 0.442879 0.619331
vt 0.380076 0.619331
vt 0.759856 0.810110
vt 0.759856 0.872913
vt 0.697053 0.872913
vt 0.697053 0.810110
vt 0.063099 0.493133
vt 0.063099 0.555936
vt 0.000296 0.555936
vt 0.000296 0.367526
vt 0.063099 0.367526
vt 0.063099 0.430330
vt 0.125903 0.430330
vt 0.125903 0.493133
vt 0.926716 0.126493
vt 0.863913 0.126493
vt 0.863913 0.063690
vt 0.926716 0.063690
vt 0.884279 0.304722
vt 0.821476 0.304722
vt 0.821476 0.241919
vt 0.884279 0.241919
vt 0.311749 0.089114
vt 0.356157 0.133523
vt 0.311749 0.177931
vt 0.267340 0.133522
vt 0.222931 0.177931
vt 0.178522 0.133522
vt 0.222931 0.089113
vt 0.178523 0.044704
vt 0.222931 0.000296
vt 0.267340 0.044704
vt 0.311749 0.000296
vt 0.356157 0.044704
vt 0.316680 0.683319
vt 0.379483 0.683319
vt 0.379483 0.746122
vt 0.316680 0.746122
vt 0.947674 0.241327
vt 0.884871 0.241327
vt 0.884871 0.178524
vt 0.947674 0.178524
vt 0.506866 0.683319
vt 0.569670 0.683319
vt 0.569670 0.746122
vt 0.506866 0.746122
vt 0.673727 0.063692
vt 0.736530 0.063692
vt 0.736530 0.126495
vt 0.673727 0.126495
vt 0.379483 0.619331
vt 0.316680 0.619331
vt 0.316680 0.556528
vt 0.379483 0.556528
vt 0.823843 0.810110
vt 0.886647 0.810110
vt 0.886647 0.872913
vt 0.823843 0.872913
vt 0.546936 0.000296
vt 0.609739 0.000296
vt 0.609739 0.063099
vt 0.546936 0.063099
vt 0.950041 0.873505
vt 0.950041 0.936309
vt 0.887238 0.936309
vt 0.887238 0.873505
vt 0.631289 0.366934
vt 0.631289 0.178524
vt 0.694092 0.178524
vt 0.694092 0.366934
vt 0.884871 0.557120
vt 0.884871 0.494317
vt 0.947674 0.494317
vt 0.947674 0.557120
vt 0.483541 0.063692
vt 0.546344 0.063692
vt 0.546344 0.126495
vt 0.483541 0.126495
vt 0.316088 0.872913
vt 0.253284 0.872913
vt 0.253284 0.810110
vt 0.316088 0.810110
vt 0.189889 0.810110
vt 0.252692 0.810110
vt 0.252692 0.872913
vt 0.189889 0.872913
vt 0.189297 0.808926
vt 0.189297 0.871729
vt 0.126494 0.871729
vt 0.126494 0.808926
vt 0.316680 0.619924
vt 0.379483 0.619924
vt 0.379483 0.682727
vt 0.316680 0.682727
vt 0.884871 0.241919
vt 0.947674 0.241919
vt 0.947674 0.304722
vt 0.884871 0.304722
vt 0.950041 0.810110
vt 0.950041 0.872913
vt 0.887238 0.872913
vt 0.887238 0.810110
vt 0.697052 0.746714
vt 0.759856 0.746714
vt 0.759856 0.809517
vt 0.697052 0.809517
vt 0.316088 0.683319
vt 0.316088 0.746122
vt 0.253284 0.746122
vt 0.253284 0.683319
vt 0.380075 0.936900
vt 0.442879 0.936900
vt 0.442879 0.999704
vt 0.380075 0.999704
vt 0.696460 0.746122
vt 0.633657 0.746122
vt 0.633657 0.683319
vt 0.696460 0.683319
vt 0.926716 0.063099
vt 0.863913 0.063099
vt 0.863913 0.000296
vt 0.926716 0.000296
vt 0.063099 0.745529
vt 0.063099 0.808332
vt 0.000296 0.808332
vt 0.000296 0.745529
vt 0.758080 0.241919
vt 0.820883 0.241919
vt 0.820883 0.304722
vt 0.758080 0.304722
vt 0.570262 0.873505
vt 0.633065 0.873505
vt 0.633065 0.936308
vt 0.570262 0.936308
vt 0.633065 0.872913
vt 0.570262 0.872913
vt 0.570262 0.810110
vt 0.633065 0.810110
vt 0.884279 0.178524
vt 0.884279 0.241327
vt 0.821476 0.241327
vt 0.821476 0.178524
vt 0.884279 0.430922
vt 0.884279 0.493725
vt 0.821475 0.493725
vt 0.821475 0.430922
vt 0.887238 0.683319
vt 0.950041 0.683319
vt 0.950041 0.746122
vt 0.887238 0.746122
vt 0.947674 0.367526
vt 0.947674 0.430330
vt 0.884871 0.430330
vt 0.884871 0.367526
vt 0.696460 0.810110
vt 0.696460 0.872913
vt 0.633657 0.872913
vt 0.633657 0.810110
vt 0.823843 0.873505
vt 0.886646 0.873505
vt 0.886646 0.936309
vt 0.823843 0.936309
vt 0.950041 0.746715
vt 0.950041 0.809518
vt 0.887238 0.809518
vt 0.887238 0.746715
vt 0.863321 0.000296
vt 0.863321 0.063099
vt 0.800518 0.063099
vt 0.800518 0.000296
vt 0.631289 0.367525
vt 0.694093 0.367525
vt 0.694093 0.555937
vt 0.631289 0.555937
vt 0.189888 0.936901
vt 0.252691 0.936901
vt 0.252691 0.999704
vt 0.189888 0.999704
vt 0.316088 0.873505
vt 0.316088 0.936308
vt 0.253284 0.936308
vt 0.253284 0.873505
vt 0.820884 0.178524
vt 0.820884 0.241327
vt 0.758080 0.241327
vt 0.758080 0.178524
vt 0.379483 0.746714
vt 0.379483 0.809517
vt 0.316680 0.809517
vt 0.316680 0.746714
vt 0.316088 0.746714
vt 0.316088 0.809517
vt 0.253284 0.809517
vt 0.253284 0.746714
vt 0.694685 0.178524
vt 0.757488 0.178524
vt 0.757488 0.241327
vt 0.694685 0.241327
vn 0.0000 1.0000 0.0000
vn 0.0000 -1.0000 0.0000
vn 0.0000 0.0000 -1.0000
vn -1.0000 0.0000 0.0000
vn 1.0000 0.0000 0.0000
vn 0.0000 0.0000 1.0000
usemtl Lamp_Wall
s off
f 101/1/1 21/2/1 149/3/1 83/4/1 148/5/1 100/6/1 99/7/1 102/8/1
f 93/9/2 117/10/2 79/11/2 55/12/2
f 137/13/1 113/14/1 88/15/1 135/16/1
f 5/17/1 146/18/1 145/19/1 144/20/1
f 99/21/3 100/22/3 54/23/3 48/24/3
f 98/25/4 20/26/4 118/27/4 82/28/4
f 107/29/5 113/30/5 137/31/5 106/32/5
f 109/33/5 94/34/5 88/35/5 39/36/5
f 70/37/5 85/38/5 41/39/5 40/40/5
f 47/41/5 48/42/5 131/43/5 139/44/5
f 149/45/4 11/46/4 12/47/4 83/48/4
f 15/49/3 94/50/3 109/51/3 108/52/3
f 92/53/5 55/54/5 79/55/5 78/56/5
f 13/57/4 73/58/4 103/59/4 134/60/4
f 152/61/1 90/62/1 25/63/1 77/64/1
f 15/65/4 108/66/4 14/67/4 136/68/4
f 2/69/3 127/70/3 34/71/3 86/72/3
f 57/73/5 59/74/5 58/75/5 32/76/5
f 150/77/1 151/78/1 95/79/1 23/80/1
f 34/81/3 36/82/3 87/83/3 111/84/3
f 116/85/5 76/86/5 46/87/5 85/88/5
f 28/89/4 26/90/4 27/91/4 52/92/4
f 58/93/1 59/94/1 148/95/1 81/96/1
f 75/97/1 140/98/1 8/99/1 74/100/1
f 118/101/3 139/102/3 43/103/3 18/104/3
f 128/105/2 127/106/2 2/107/2 4/108/2
f 30/109/4 55/110/4 79/111/4 124/112/4 31/113/4 72/114/4 58/115/4 32/116/4
f 119/117/2 61/118/2 62/119/2 65/120/2
f 80/121/6 138/122/6 15/123/6 94/124/6
f 95/125/4 24/126/4 133/127/4 140/128/4 75/129/4 77/130/4 25/131/4 23/132/4
f 12/133/5 83/134/5 38/135/5 37/136/5
f 35/137/1 36/138/1 34/139/1 33/140/1
f 87/141/3 136/142/3 14/143/3 105/144/3
f 104/145/5 135/146/5 70/147/5 69/148/5
f 119/149/4 68/150/4 19/151/4 61/152/4
f 16/153/3 85/154/3 70/155/3 134/156/3
f 101/157/4 22/158/4 98/159/4 21/160/4
f 28/161/3 72/162/3 31/163/3 26/164/3
f 132/165/5 102/166/5 99/167/5 48/168/5
f 75/169/4 115/170/4 16/171/4 71/172/4
f 8/173/4 36/174/4 35/175/4 74/176/4
f 56/177/6 52/178/6 27/179/6 121/180/6
f 70/181/6 134/182/6 103/183/6 69/184/6
f 54/185/5 100/186/5 148/187/5 53/188/5
f 79/189/6 51/190/6 137/191/6 78/192/6
f 35/193/6 33/194/6 112/195/6 6/196/6
f 145/197/3 146/198/3 128/199/3 4/200/3
f 2/201/4 86/202/4 1/203/4 122/204/4 3/205/4 144/206/4 145/207/4 4/208/4
f 116/209/2 85/210/2 16/211/2 115/212/2
f 64/213/6 9/214/6 62/215/6 61/216/6 19/217/6 114/218/6 44/219/6 63/220/6
f 116/221/6 115/222/6 13/223/6 135/224/6
f 141/225/6 76/226/6 116/227/6 51/228/6
f 56/229/1 72/230/1 28/231/1 52/232/1
f 58/233/6 81/234/6 29/235/6 32/236/6
f 98/237/2 82/238/2 12/239/2 11/240/2
f 58/241/3 60/242/3 96/243/3 32/244/3
f 25/245/3 90/246/3 150/247/3 23/248/3
f 84/249/5 143/250/5 10/251/5 65/252/5
f 147/253/6 72/254/6 31/255/6 125/256/6
f 84/257/2 65/258/2 67/259/2 120/260/2
f 17/261/2 115/262/2 35/263/2 36/264/2
f 75/265/6 76/266/6 152/267/6 77/268/6
f 5/269/5 120/270/5 123/271/5 33/272/5 34/273/5 127/274/5 128/275/5 146/276/5
f 97/277/3 83/278/3 12/279/3 130/280/3
f 88/281/1 94/282/1 15/283/1 136/284/1
f 101/285/3 102/286/3 132/287/3 22/288/3
f 34/289/4 111/290/4 112/291/4 33/292/4
f 41/293/6 68/294/6 110/295/6 40/296/6
f 123/297/2 120/298/2 3/299/2 122/300/2
f 126/301/2 125/302/2 31/303/2 124/304/2
f 148/305/6 83/306/6 12/307/6 82/308/6 118/309/6 139/310/6 131/311/6 53/312/6
f 27/313/5 52/314/5 64/315/5 63/316/5
f 87/317/5 36/318/5 35/319/5 6/320/5
f 10/321/3 52/322/3 27/323/3 45/324/3 41/325/3 68/326/3 119/327/3 65/328/3
f 5/329/4 120/330/4 67/331/4 66/332/4
f 88/333/5 42/334/5 116/335/5 135/336/5
f 87/337/4 105/338/4 7/339/4 6/340/4
f 13/341/1 136/342/1 87/343/1 6/344/1
f 43/345/2 94/346/2 15/347/2 18/348/2
f 13/349/6 6/350/6 7/351/6 73/352/6
f 93/353/5 129/354/5 96/355/5 60/356/5 147/357/5 125/358/5 126/359/5 117/360/5
f 136/361/3 17/362/3 36/363/3 8/364/3 140/365/3 133/366/3 49/367/3 89/368/3 142/369/3 91/370/3 42/371/3 88/372/3
f 91/373/4 113/374/4 137/375/4 51/376/4
f 27/377/2 63/378/2 44/379/2 45/380/2
f 98/381/3 48/382/3 47/383/3 20/384/3
f 30/385/3 129/386/3 93/387/3 55/388/3
f 91/389/2 51/390/2 116/391/2 42/392/2
f 17/393/4 136/394/4 13/395/4 115/396/4
f 12/397/2 37/398/2 128/399/2 130/400/2
f 38/401/1 83/402/1 97/403/1 146/404/1
f 149/405/3 21/406/3 98/407/3 11/408/3
f 150/409/5 90/410/5 152/411/5 76/412/5 89/413/5 49/414/5 50/415/5 151/416/5
f 70/417/2 40/418/2 110/419/2 134/420/2
f 54/421/2 53/422/2 131/423/2 48/424/2
f 73/425/2 7/426/2 105/427/2 14/428/2 108/429/2 109/430/2 39/431/2 107/432/2 106/433/2 104/434/2 69/435/2 103/436/2
f 97/437/4 130/438/4 128/439/4 146/440/4
f 41/441/2 114/442/2 19/443/2 68/444/2
f 141/445/1 142/446/1 89/447/1 76/448/1
f 148/449/4 53/450/4 29/451/4 81/452/4
f 87/453/2 6/454/2 112/455/2 111/456/2
f 10/457/1 143/458/1 5/459/1 66/460/1
f 118/461/4 18/462/4 15/463/4 138/464/4
f 92/465/2 78/466/2 137/467/2 113/468/2
f 147/469/1 60/470/1 58/471/1 72/472/1
f 79/473/1 55/474/1 91/475/1 51/476/1
f 43/477/5 139/478/5 80/479/5 94/480/5
f 132/481/2 48/482/2 98/483/2 22/484/2
f 70/485/1 135/486/1 13/487/1 134/488/1
f 5/489/3 143/490/3 84/491/3 120/492/3
f 91/493/5 142/494/5 141/495/5 51/496/5
f 91/497/3 55/498/3 92/499/3 113/500/3
f 57/501/2 32/502/2 29/503/2 53/504/2
f 41/505/1 85/506/1 16/507/1 68/508/1
f 95/509/3 151/510/3 50/511/3 24/512/3
f 148/513/3 59/514/3 57/515/3 53/516/3
f 50/517/2 49/518/2 133/519/2 24/520/2
f 47/521/2 139/522/2 118/523/2 20/524/2
f 75/525/6 74/526/6 35/527/6 115/528/6
f 46/529/1 76/530/1 75/531/1 71/532/1
f 10/533/4 65/534/4 62/535/4 9/536/4
f 96/537/2 129/538/2 30/539/2 32/540/2
f 126/541/6 124/542/6 79/543/6 117/544/6
f 16/545/4 134/546/4 110/547/4 68/548/4
f 123/549/6 122/550/6 1/551/6 33/552/6
f 34/553/2 33/554/2 1/555/2 86/556/2
f 10/557/6 66/558/6 67/559/6 65/560/6
f 41/561/5 45/562/5 44/563/5 114/564/5
f 31/565/2 121/566/2 27/567/2 26/568/2
f 137/569/6 135/570/6 104/571/6 106/572/6
f 64/573/1 52/574/1 10/575/1 9/576/1
f 5/577/6 144/578/6 3/579/6 120/580/6
f 31/581/5 72/582/5 56/583/5 121/584/5
f 46/585/6 71/586/6 16/587/6 85/588/6
f 88/589/3 113/590/3 107/591/3 39/592/3
f 38/593/6 146/594/6 128/595/6 37/596/6
f 80/597/1 139/598/1 118/599/1 138/600/1
