# Blender v2.93.4 OBJ File: 'AssetPack_Platformer.blend'
# www.blender.org
mtllib Coin_Small_2.mtl
v -0.074999 -0.049999 0.012501
v -0.100000 0.050001 -0.012499
v -0.074999 0.075001 0.012501
v 0.050001 -0.099999 0.012501
v 0.050001 -0.099999 -0.012499
v 0.100000 -0.049999 -0.012499
v 0.100000 0.050001 -0.012499
v 0.100000 0.050001 0.012501
v 0.074999 0.050001 0.012501
v 0.074999 0.075001 -0.012499
v 0.074999 0.075001 0.012501
v -0.050001 -0.099999 0.012501
v -0.050001 -0.074999 0.012501
v 0.050001 -0.074999 0.012501
v 0.074999 -0.049999 0.012501
v -0.100000 -0.049999 0.012501
v -0.050001 0.075001 0.012501
v -0.050001 0.100002 0.012501
v 0.050001 0.100002 0.012501
v -0.050001 -0.074999 -0.012499
v -0.074999 -0.074999 -0.012499
v 0.050001 -0.074999 -0.012499
v -0.100000 -0.049999 -0.012499
v -0.074999 -0.049999 -0.012499
v 0.074999 -0.049999 -0.012499
v -0.074999 0.050001 -0.012499
v 0.074999 0.050001 -0.012499
v -0.074999 0.075001 -0.012499
v -0.050001 0.075001 -0.012499
v 0.050001 0.075001 -0.012499
v -0.050001 0.100002 -0.012499
v -0.050001 -0.099999 -0.012499
v -0.074999 -0.074999 0.012501
v 0.074999 -0.074999 -0.012499
v 0.074999 -0.074999 0.012501
v 0.100000 -0.049999 0.012501
v -0.100000 0.050001 0.012501
v -0.074999 0.050001 0.012501
v 0.050001 0.075001 0.012501
v 0.050001 0.100002 -0.012499
vt 0.500976 0.625188
vt 0.438495 0.625188
vt 0.438495 0.562707
vt 0.500976 0.562707
vt 0.563608 0.625188
vt 0.501127 0.625188
vt 0.501127 0.562707
vt 0.563608 0.562707
vt 0.062556 0.500075
vt 0.062556 0.750000
vt 0.000075 0.750000
vt 0.000075 0.500075
vt 0.626239 0.625188
vt 0.563758 0.625188
vt 0.563758 0.562707
vt 0.626239 0.562707
vt 0.313083 0.562556
vt 0.250602 0.562556
vt 0.250602 0.500075
vt 0.313083 0.500075
vt 0.626239 0.500075
vt 0.626239 0.562556
vt 0.563758 0.562556
vt 0.563758 0.500075
vt 0.313083 0.625339
vt 0.313083 0.687819
vt 0.250602 0.687819
vt 0.250602 0.625339
vt 0.125188 0.750000
vt 0.062707 0.750000
vt 0.062707 0.500075
vt 0.125188 0.500075
vt 0.062556 0.374963
vt 0.000075 0.374963
vt 0.000075 0.125038
vt 0.062556 0.125038
vt 0.062556 0.062556
vt 0.125037 0.062556
vt 0.125037 0.000075
vt 0.374963 0.000075
vt 0.374963 0.062556
vt 0.437444 0.062556
vt 0.437444 0.125038
vt 0.499925 0.125038
vt 0.499925 0.374963
vt 0.437444 0.374963
vt 0.437444 0.437444
vt 0.374963 0.437444
vt 0.374963 0.499925
vt 0.125037 0.499925
vt 0.125037 0.437444
vt 0.062556 0.437444
vt 0.375714 0.625339
vt 0.375714 0.687819
vt 0.313233 0.687819
vt 0.313233 0.625339
vt 0.375714 0.500075
vt 0.375714 0.562556
vt 0.313233 0.562556
vt 0.313233 0.500075
vt 0.625037 0.000075
vt 0.874963 0.000075
vt 0.874963 0.062556
vt 0.937444 0.062556
vt 0.937444 0.125037
vt 0.999925 0.125037
vt 0.999925 0.374963
vt 0.937444 0.374963
vt 0.937444 0.437444
vt 0.874963 0.437444
vt 0.874963 0.499925
vt 0.625037 0.499925
vt 0.625037 0.437444
vt 0.562556 0.437444
vt 0.562556 0.374963
vt 0.500075 0.374963
vt 0.500075 0.125037
vt 0.562556 0.125037
vt 0.562556 0.062556
vt 0.625037 0.062556
vt 0.125339 0.750000
vt 0.125339 0.500075
vt 0.187819 0.500075
vt 0.187819 0.750000
vt 0.313233 0.625188
vt 0.313233 0.562707
vt 0.375714 0.562707
vt 0.375714 0.625188
vt 0.375864 0.687820
vt 0.375864 0.625339
vt 0.438345 0.625339
vt 0.438345 0.687820
vt 0.375864 0.562556
vt 0.375864 0.500075
vt 0.438345 0.500075
vt 0.438345 0.562556
vt 0.438495 0.562556
vt 0.438495 0.500075
vt 0.500977 0.500075
vt 0.500977 0.562556
vt 0.563608 0.562556
vt 0.501126 0.562556
vt 0.501126 0.500075
vt 0.563608 0.500075
vt 0.313083 0.625188
vt 0.250602 0.625188
vt 0.250602 0.562707
vt 0.313083 0.562707
vt 0.438345 0.625188
vt 0.375864 0.625188
vt 0.375864 0.562707
vt 0.438345 0.562707
vt 0.500976 0.687820
vt 0.438495 0.687820
vt 0.438495 0.625339
vt 0.500976 0.625339
vt 0.250451 0.750000
vt 0.187970 0.750000
vt 0.187970 0.500075
vt 0.250451 0.500075
vn -1.0000 -0.0000 0.0000
vn 0.0000 -1.0000 0.0000
vn 1.0000 0.0000 0.0000
vn 0.0000 0.0000 -1.0000
vn 0.0000 -0.0000 1.0000
vn 0.0000 1.0000 0.0000
usemtl Silver_Light
s off
f 12/1/1 13/2/1 20/3/1 32/4/1
f 33/5/1 1/6/1 24/7/1 21/8/1
f 32/9/2 5/10/2 4/11/2 12/12/2
f 38/13/1 3/14/1 28/15/1 26/16/1
f 17/17/1 18/18/1 31/19/1 29/20/1
f 4/21/3 5/22/3 22/23/3 14/24/3
f 35/25/3 34/26/3 25/27/3 15/28/3
f 7/29/3 8/30/3 36/31/3 6/32/3
f 22/33/4 5/34/4 32/35/4 20/36/4 21/37/4 24/38/4 23/39/4 2/40/4 26/41/4 28/42/4 29/43/4 31/44/4 40/45/4 30/46/4 10/47/4 27/48/4 7/49/4 6/50/4 25/51/4 34/52/4
f 9/53/3 27/54/3 10/55/3 11/56/3
f 39/57/3 30/58/3 40/59/3 19/60/3
f 36/61/5 8/62/5 9/63/5 11/64/5 39/65/5 19/66/5 18/67/5 17/68/5 3/69/5 38/70/5 37/71/5 16/72/5 1/73/5 33/74/5 13/75/5 12/76/5 4/77/5 14/78/5 35/79/5 15/80/5
f 18/81/6 19/82/6 40/83/6 31/84/6
f 33/85/2 21/86/2 20/87/2 13/88/2
f 14/89/2 22/90/2 34/91/2 35/92/2
f 16/93/2 23/94/2 24/95/2 1/96/2
f 15/97/2 25/98/2 6/99/2 36/100/2
f 37/101/6 38/102/6 26/103/6 2/104/6
f 9/105/6 8/106/6 7/107/6 27/108/6
f 3/109/6 17/110/6 29/111/6 28/112/6
f 39/113/6 11/114/6 10/115/6 30/116/6
f 37/117/1 2/118/1 23/119/1 16/120/1
