# Blender v2.93.4 OBJ File: 'AssetPack_Platformer.blend'
# www.blender.org
mtllib Coin_Small_3.mtl
v -0.100000 -0.049999 -0.012501
v -0.100000 0.050001 -0.012501
v -0.075001 -0.074999 -0.012501
v -0.075001 0.075001 -0.012501
v -0.049999 -0.074999 0.012501
v -0.049999 -0.099999 -0.012501
v -0.049999 0.075001 -0.012501
v -0.049999 0.075001 0.012501
v 0.049999 -0.099999 0.012501
v 0.049999 -0.074999 0.012501
v 0.049999 0.075001 -0.012501
v 0.049999 0.100002 -0.012501
v 0.075001 -0.074999 0.012501
v 0.075001 -0.049999 0.012501
v 0.075001 -0.049999 -0.012501
v 0.075001 0.050001 0.012501
v 0.075001 0.050001 -0.012501
v 0.100000 -0.049999 -0.012501
v 0.100000 0.050001 -0.012501
v -0.100000 0.050001 0.012501
v -0.100000 -0.049999 0.012501
v -0.075001 -0.074999 0.012501
v -0.049999 -0.049999 0.012501
v -0.049999 0.050001 0.012501
v 0.049999 -0.049999 0.012501
v 0.049999 0.050001 0.012501
v 0.049999 0.075001 0.012501
v 0.100000 0.050001 0.012501
v -0.049999 -0.074999 -0.012501
v -0.049999 -0.049999 -0.012501
v -0.049999 0.050001 -0.012501
v 0.049999 -0.074999 -0.012501
v 0.049999 -0.049999 -0.012501
v 0.049999 0.050001 -0.012501
v -0.049999 0.100002 -0.012501
v -0.049999 -0.099999 0.012501
v 0.049999 -0.099999 -0.012501
v 0.075001 -0.074999 -0.012501
v -0.075001 -0.049999 0.012501
v -0.075001 -0.049999 -0.012501
v 0.100000 -0.049999 0.012501
v -0.075001 0.050001 0.012501
v -0.075001 0.050001 -0.012501
v -0.075001 0.075001 0.012501
v 0.075001 0.075001 0.012501
v 0.075001 0.075001 -0.012501
v -0.049999 0.100002 0.012501
v 0.049999 0.100002 0.012501
vt 0.017578 0.500000
vt 0.017578 0.500000
vt 0.017578 0.500000
vt 0.017578 0.500000
vt 0.017578 0.500000
vt 0.017578 0.500000
vt 0.017578 0.500000
vt 0.017578 0.500000
vt 0.017578 0.500000
vt 0.017578 0.500000
vt 0.017578 0.500000
vt 0.017578 0.500000
vt 0.017578 0.500000
vt 0.017578 0.500000
vt 0.017578 0.500000
vt 0.017578 0.500000
vt 0.017578 0.500000
vt 0.017578 0.500000
vt 0.017578 0.500000
vt 0.017578 0.500000
vt 0.017578 0.500000
vt 0.017578 0.500000
vt 0.017578 0.500000
vt 0.017578 0.500000
vt 0.017578 0.500000
vt 0.017578 0.500000
vt 0.017578 0.500000
vt 0.017578 0.500000
vt 0.017578 0.500000
vt 0.017578 0.500000
vt 0.017578 0.500000
vt 0.017578 0.500000
vt 0.017578 0.500000
vt 0.017578 0.500000
vt 0.017578 0.500000
vt 0.017578 0.500000
vt 0.017578 0.500000
vt 0.017578 0.500000
vt 0.017578 0.500000
vt 0.017578 0.500000
vt 0.017578 0.500000
vt 0.017578 0.500000
vt 0.017578 0.500000
vt 0.017578 0.500000
vt 0.017578 0.500000
vt 0.017578 0.500000
vt 0.017578 0.500000
vt 0.017578 0.500000
vt 0.021484 0.500000
vt 0.021484 0.500000
vt 0.021484 0.500000
vt 0.021484 0.500000
vt 0.021484 0.500000
vt 0.021484 0.500000
vt 0.021484 0.500000
vt 0.021484 0.500000
vt 0.021484 0.500000
vt 0.021484 0.500000
vt 0.021484 0.500000
vt 0.021484 0.500000
vt 0.021484 0.500000
vt 0.021484 0.500000
vt 0.021484 0.500000
vt 0.021484 0.500000
vt 0.021484 0.500000
vt 0.021484 0.500000
vt 0.021484 0.500000
vt 0.021484 0.500000
vt 0.021484 0.500000
vt 0.021484 0.500000
vt 0.021484 0.500000
vt 0.021484 0.500000
vn 0.0000 0.0000 -1.0000
vn 0.0000 -1.0000 0.0000
vn 0.0000 1.0000 0.0000
vn 1.0000 0.0000 0.0000
vn 0.0000 -0.0000 1.0000
vn -1.0000 0.0000 0.0000
usemtl Silver_Dark
s off
f 15/1/1 17/2/1 19/3/1 18/4/1
f 39/5/2 21/6/2 1/7/2 40/8/2
f 44/9/3 8/10/3 7/11/3 4/12/3
f 5/13/2 22/14/2 3/15/2 29/16/2
f 47/17/3 48/18/3 12/19/3 35/20/3
f 9/21/2 36/22/2 6/23/2 37/24/2
f 16/25/4 17/2/4 46/26/4 45/27/4
f 13/28/2 10/29/2 32/30/2 38/31/2
f 41/32/4 18/4/4 19/3/4 28/33/4
f 16/25/3 28/33/3 19/3/3 17/2/3
f 27/34/5 26/35/5 16/25/5 45/27/5
f 20/36/5 21/6/5 39/5/5 42/37/5
f 25/38/5 10/29/5 13/28/5 14/39/5
f 5/13/5 36/22/5 9/21/5 10/29/5
f 24/40/5 23/41/5 25/38/5 26/35/5
f 20/36/3 42/37/3 43/42/3 2/43/3
f 39/5/5 22/14/5 5/13/5 23/41/5
f 16/25/5 14/39/5 41/32/5 28/33/5
f 47/17/5 8/10/5 27/34/5 48/18/5
f 43/42/1 4/12/1 7/11/1 31/44/1
f 6/23/1 29/16/1 32/30/1 37/24/1
f 1/7/1 2/43/1 43/42/1 40/8/1
f 3/15/1 40/8/1 30/45/1 29/16/1
f 32/30/1 33/46/1 15/1/1 38/31/1
f 7/11/1 35/20/1 12/19/1 11/47/1
f 34/48/1 11/47/1 46/26/1 17/2/1
f 30/45/1 31/44/1 34/48/1 33/46/1
f 6/23/6 36/22/6 5/13/6 29/16/6
f 3/15/6 22/14/6 39/5/6 40/8/6
f 9/21/4 37/24/4 32/30/4 10/29/4
f 1/7/6 21/6/6 20/36/6 2/43/6
f 13/28/4 38/31/4 15/1/4 14/39/4
f 43/42/6 42/37/6 44/9/6 4/12/6
f 27/34/3 45/27/3 46/26/3 11/47/3
f 7/11/6 8/10/6 47/17/6 35/20/6
f 41/32/2 14/39/2 15/1/2 18/4/2
f 27/34/4 11/47/4 12/19/4 48/18/4
f 44/9/5 42/37/5 24/40/5 8/10/5
usemtl Silver_Light
f 8/49/5 24/50/5 26/51/5 27/52/5
f 26/51/5 25/53/5 14/54/5 16/55/5
f 23/56/5 5/57/5 10/58/5 25/53/5
f 31/59/1 7/60/1 11/61/1 34/62/1
f 40/63/1 43/64/1 31/59/1 30/65/1
f 29/66/1 30/65/1 33/67/1 32/68/1
f 33/67/1 34/62/1 17/69/1 15/70/1
f 42/71/5 39/72/5 23/56/5 24/50/5
