# Blender v2.93.4 OBJ File: 'AssetPack_Platformer.blend'
# www.blender.org
mtllib Grass_5.mtl
v -0.012499 0.525000 -0.012501
v -0.012499 0.550000 0.012501
v -0.012499 0.575000 0.012501
v -0.012499 0.550000 -0.012501
v -0.012499 0.600000 0.012501
v -0.012499 0.625000 -0.012501
v 0.012499 0.525000 -0.012501
v 0.012499 0.525000 0.012501
v 0.012499 0.550000 0.012501
v 0.012499 0.575000 -0.012501
v 0.012499 0.575000 0.012501
v 0.012499 0.600000 0.012501
v 0.012499 0.600000 -0.012501
v 0.012499 0.625000 -0.012501
v -0.012499 0.500000 0.012501
v -0.012499 0.525000 0.012501
v 0.012499 0.625000 0.012501
v -0.012499 0.500000 -0.012501
v 0.012499 0.500000 -0.012501
v -0.012499 0.575000 -0.012501
v 0.012499 0.550000 -0.012501
v -0.012499 0.600000 -0.012501
v 0.012499 0.500000 0.012501
v -0.012499 0.625000 0.012501
vn -1.0000 0.0000 0.0000
vn 1.0000 0.0000 0.0000
vn 0.0000 -0.0000 1.0000
vn 0.0000 0.0000 -1.0000
vn 0.0000 -1.0000 0.0000
vn 0.0000 1.0000 0.0000
usemtl Green_Dark
s off
f 15//1 16//1 1//1 18//1
f 16//1 2//1 4//1 1//1
f 2//1 3//1 20//1 4//1
f 23//2 19//2 7//2 8//2
f 8//2 7//2 21//2 9//2
f 9//2 21//2 10//2 11//2
f 15//3 23//3 8//3 16//3
f 16//3 8//3 9//3 2//3
f 2//3 9//3 11//3 3//3
f 18//4 1//4 7//4 19//4
f 1//4 4//4 21//4 7//4
f 4//4 20//4 10//4 21//4
f 15//5 18//5 19//5 23//5
usemtl Green_Light
f 3//1 5//1 22//1 20//1
f 5//1 24//1 6//1 22//1
f 11//2 10//2 13//2 12//2
f 12//2 13//2 14//2 17//2
f 3//3 11//3 12//3 5//3
f 5//3 12//3 17//3 24//3
f 20//4 22//4 13//4 10//4
f 22//4 6//4 14//4 13//4
f 24//6 17//6 14//6 6//6
