# Blender v2.93.4 OBJ File: 'AssetPack_Platformer.blend'
# www.blender.org
mtllib Grass_4.mtl
v -0.012499 0.500000 0.012501
v -0.012499 0.525000 0.012501
v -0.012499 0.550000 0.012501
v -0.012499 0.525000 -0.012501
v -0.012499 0.550000 -0.012501
v -0.012499 0.600000 0.012501
v -0.012499 0.600000 -0.012501
v 0.012499 0.525000 -0.012501
v 0.012499 0.550000 -0.012501
v 0.012499 0.550000 0.012501
v 0.012499 0.575000 0.012501
v 0.012499 0.600000 -0.012501
v 0.012499 0.600000 0.012501
v 0.012499 0.525000 0.012501
v -0.012499 0.575000 0.012501
v -0.012499 0.500000 -0.012501
v 0.012499 0.500000 -0.012501
v -0.012499 0.575000 -0.012501
v 0.012499 0.575000 -0.012501
v 0.012499 0.500000 0.012501
vn -1.0000 0.0000 0.0000
vn 1.0000 0.0000 0.0000
vn 0.0000 -0.0000 1.0000
vn 0.0000 0.0000 -1.0000
vn 0.0000 -1.0000 0.0000
vn 0.0000 1.0000 0.0000
usemtl Green_Dark
s off
f 1//1 2//1 4//1 16//1
f 2//1 3//1 5//1 4//1
f 3//1 15//1 18//1 5//1
f 20//2 17//2 8//2 14//2
f 14//2 8//2 9//2 10//2
f 10//2 9//2 19//2 11//2
f 1//3 20//3 14//3 2//3
f 2//3 14//3 10//3 3//3
f 3//3 10//3 11//3 15//3
f 16//4 4//4 8//4 17//4
f 4//4 5//4 9//4 8//4
f 5//4 18//4 19//4 9//4
f 1//5 16//5 17//5 20//5
usemtl Green_Light
f 15//1 6//1 7//1 18//1
f 11//2 19//2 12//2 13//2
f 15//3 11//3 13//3 6//3
f 18//4 7//4 12//4 19//4
f 6//6 13//6 12//6 7//6
