# Blender v2.93.4 OBJ File: 'AssetPack_Platformer.blend'
# www.blender.org
mtllib Grass_6.mtl
v -0.012499 0.525000 0.012501
v -0.012499 0.550000 0.012501
v -0.012499 0.575000 0.012501
v -0.012499 0.575000 -0.012501
v -0.012499 0.625000 -0.012501
v -0.012499 0.650000 0.012501
v 0.012499 0.525000 -0.012501
v 0.012499 0.550000 -0.012501
v 0.012499 0.550000 0.012501
v 0.012499 0.575000 -0.012501
v 0.012499 0.575000 0.012501
v 0.012499 0.525000 0.012501
v -0.012499 0.600000 0.012501
v 0.012499 0.600000 0.012501
v 0.012499 0.625000 0.012501
v -0.012499 0.625000 0.012501
v 0.012499 0.650000 0.012501
v -0.012499 0.525000 -0.012501
v 0.012499 0.500000 -0.012501
v -0.012499 0.550000 -0.012501
v -0.012499 0.600000 -0.012501
v 0.012499 0.600000 -0.012501
v 0.012499 0.650000 -0.012501
v 0.012499 0.625000 -0.012501
v -0.012499 0.500000 0.012501
v -0.012499 0.500000 -0.012501
v 0.012499 0.500000 0.012501
v -0.012499 0.650000 -0.012501
vn -1.0000 0.0000 0.0000
vn 1.0000 0.0000 0.0000
vn 0.0000 -0.0000 1.0000
vn 0.0000 0.0000 -1.0000
vn 0.0000 -1.0000 0.0000
vn 0.0000 1.0000 0.0000
usemtl Green_Dark
s off
f 25//1 1//1 18//1 26//1
f 1//1 2//1 20//1 18//1
f 2//1 3//1 4//1 20//1
f 27//2 19//2 7//2 12//2
f 12//2 7//2 8//2 9//2
f 9//2 8//2 10//2 11//2
f 25//3 27//3 12//3 1//3
f 1//3 12//3 9//3 2//3
f 2//3 9//3 11//3 3//3
f 26//4 18//4 7//4 19//4
f 18//4 20//4 8//4 7//4
f 20//4 4//4 10//4 8//4
f 25//5 26//5 19//5 27//5
usemtl Green_Light
f 3//1 13//1 21//1 4//1
f 13//1 16//1 5//1 21//1
f 16//1 6//1 28//1 5//1
f 11//2 10//2 22//2 14//2
f 14//2 22//2 24//2 15//2
f 15//2 24//2 23//2 17//2
f 3//3 11//3 14//3 13//3
f 13//3 14//3 15//3 16//3
f 16//3 15//3 17//3 6//3
f 4//4 21//4 22//4 10//4
f 21//4 5//4 24//4 22//4
f 5//4 28//4 23//4 24//4
f 6//6 17//6 23//6 28//6
