# Blender v2.93.4 OBJ File: 'AssetPack_Platformer.blend'
# www.blender.org
mtllib Portal_1.mtl
v 0.250000 0.499998 0.049999
v -0.100000 1.624999 0.049999
v 0.250000 0.499998 -0.049999
v -0.100000 1.624999 -0.049999
v -0.100000 1.774999 -0.049999
v 0.100000 1.624999 0.049999
v 0.100000 1.624999 -0.049999
v -0.250000 1.624999 -0.049999
v -0.100000 1.774999 0.049999
v -0.250000 0.499998 0.049999
v -0.250000 0.499998 -0.049999
v 0.250000 1.624999 0.049999
v 0.250000 1.624999 -0.049999
v -0.250000 1.624999 0.049999
v 0.100000 1.774999 0.049999
v 0.100000 1.774999 -0.049999
vt 0.384554 0.000072
vt 0.768892 0.000072
vt 0.768892 0.864832
vt 0.653591 0.864832
vt 0.653591 0.980134
vt 0.499856 0.980134
vt 0.499856 0.864832
vt 0.384554 0.864832
vt 0.000072 0.000072
vt 0.384410 0.000072
vt 0.384410 0.864833
vt 0.269109 0.864833
vt 0.269109 0.980134
vt 0.115373 0.980134
vt 0.115373 0.864833
vt 0.000072 0.864833
vt 0.845904 0.864832
vt 0.769037 0.864832
vt 0.769037 0.000072
vt 0.845904 0.000072
vt 0.923060 0.653735
vt 0.923060 0.538433
vt 0.999928 0.538433
vt 0.999928 0.653735
vt 0.846048 0.864832
vt 0.846048 0.000072
vt 0.922915 0.000072
vt 0.922915 0.864832
vt 0.999928 0.653879
vt 0.999928 0.769180
vt 0.923060 0.769180
vt 0.923060 0.653879
vt 0.923060 0.384410
vt 0.923060 0.000072
vt 0.999928 0.000072
vt 0.999928 0.384410
vt 0.922915 0.864976
vt 0.922915 0.980278
vt 0.846048 0.980278
vt 0.846048 0.864976
vt 0.845904 0.864976
vt 0.845904 0.980278
vt 0.769037 0.980278
vt 0.769037 0.864976
vt 0.999928 0.384554
vt 0.999928 0.538290
vt 0.923060 0.538290
vt 0.923060 0.384554
vn 0.0000 -0.0000 1.0000
vn 0.0000 0.0000 -1.0000
vn 1.0000 0.0000 0.0000
vn -1.0000 0.0000 0.0000
vn 0.0000 -1.0000 0.0000
vn 0.0000 1.0000 0.0000
usemtl Purple_Dark
s off
f 10/1/1 1/2/1 12/3/1 6/4/1 15/5/1 9/6/1 2/7/1 14/8/1
f 3/9/2 11/10/2 8/11/2 4/12/2 5/13/2 16/14/2 7/15/2 13/16/2
f 13/17/3 12/18/3 1/19/3 3/20/3
f 15/21/3 6/22/3 7/23/3 16/24/3
f 8/25/4 11/26/4 10/27/4 14/28/4
f 2/29/4 9/30/4 5/31/4 4/32/4
f 1/33/5 10/34/5 11/35/5 3/36/5
f 13/37/6 7/38/6 6/39/6 12/40/6
f 4/41/6 8/42/6 14/43/6 2/44/6
f 16/45/6 5/46/6 9/47/6 15/48/6
