# MagicaVoxel @ Ephtracy

# group
o 

# material
mtllib Interior_Furniture_Misc_Plant_06.mtl
usemtl palette

# normals
vn -1 0 0
vn 1 0 0
vn 0 0 1
vn 0 0 -1
vn 0 -1 0
vn 0 1 0

# texcoords
vt 0.908203 0.5
vt 0.912109 0.5
vt 0.927734 0.5
vt 0.958984 0.5
vt 0.962891 0.5

# verts
v -0.1 0 0.2
v -0.1 0 -0.1
v -0.1 0.1 0.2
v -0.1 0.1 -0.1
v -0.1 0.3 0.2
v -0.1 0.3 0.1
v -0.1 0.3 0
v -0.1 0.3 -0.1
v -0.1 0.4 0.1
v -0.1 0.4 0
v 1.49012e-008 0.3 0.2
v 1.49012e-008 0.3 0.1
v 1.49012e-008 0.3 0
v 1.49012e-008 0.3 -0.1
v 1.49012e-008 0.4 0.2
v 1.49012e-008 0.4 0.1
v 1.49012e-008 0.4 0
v 1.49012e-008 0.4 -0.1
v 1.49012e-008 0.6 0.1
v 1.49012e-008 0.6 0
v 1.49012e-008 0.7 0.1
v 1.49012e-008 0.7 0
v 0.1 0.3 0.2
v 0.1 0.3 0.1
v 0.1 0.3 0
v 0.1 0.3 -0.1
v 0.1 0.4 0.2
v 0.1 0.4 0.1
v 0.1 0.4 0
v 0.1 0.4 -0.1
v 0.1 0.5 0.1
v 0.1 0.5 0
v 0.1 0.6 0.1
v 0.1 0.6 0
v 0.1 0.7 0.1
v 0.1 0.7 0
v 0.2 0 0.2
v 0.2 0 -0.1
v 0.2 0.1 0.2
v 0.2 0.1 -0.1
v 0.2 0.3 0.2
v 0.2 0.3 0.1
v 0.2 0.3 0
v 0.2 0.3 -0.1
v 0.2 0.4 0.1
v 0.2 0.4 0
v 0.2 0.5 0.1
v 0.2 0.5 0
v 0.2 0.6 0.1
v 0.2 0.6 0
v -0.1 0 0.2
v -0.1 0.1 0.2
v -0.1 0.3 0.2
v 1.49012e-008 0.3 0.2
v 1.49012e-008 0.4 0.2
v 0.1 0.3 0.2
v 0.1 0.4 0.2
v 0.2 0 0.2
v 0.2 0.1 0.2
v 0.2 0.3 0.2
v -0.1 0.3 0.1
v -0.1 0.4 0.1
v 1.49012e-008 0.3 0.1
v 1.49012e-008 0.4 0.1
v 1.49012e-008 0.6 0.1
v 1.49012e-008 0.7 0.1
v 0.1 0.3 0.1
v 0.1 0.4 0.1
v 0.1 0.5 0.1
v 0.1 0.6 0.1
v 0.1 0.7 0.1
v 0.2 0.3 0.1
v 0.2 0.4 0.1
v 0.2 0.5 0.1
v 0.2 0.6 0.1
v -0.1 0.3 0
v -0.1 0.4 0
v 1.49012e-008 0.3 0
v 1.49012e-008 0.4 0
v 1.49012e-008 0.6 0
v 1.49012e-008 0.7 0
v 0.1 0.3 0
v 0.1 0.4 0
v 0.1 0.5 0
v 0.1 0.6 0
v 0.1 0.7 0
v 0.2 0.3 0
v 0.2 0.4 0
v 0.2 0.5 0
v 0.2 0.6 0
v -0.1 0 -0.1
v -0.1 0.1 -0.1
v -0.1 0.3 -0.1
v 1.49012e-008 0.3 -0.1
v 1.49012e-008 0.4 -0.1
v 0.1 0.3 -0.1
v 0.1 0.4 -0.1
v 0.2 0 -0.1
v 0.2 0.1 -0.1
v 0.2 0.3 -0.1
v -0.1 0 0.2
v 0.2 0 0.2
v -0.1 0 -0.1
v 0.2 0 -0.1
v 0.1 0.5 0.1
v 0.2 0.5 0.1
v 0.1 0.5 0
v 0.2 0.5 0
v -0.1 0.3 0.2
v 1.49012e-008 0.3 0.2
v 0.1 0.3 0.2
v 0.2 0.3 0.2
v -0.1 0.3 0.1
v 1.49012e-008 0.3 0.1
v 0.1 0.3 0.1
v 0.2 0.3 0.1
v -0.1 0.3 0
v 1.49012e-008 0.3 0
v 0.1 0.3 0
v 0.2 0.3 0
v -0.1 0.3 -0.1
v 1.49012e-008 0.3 -0.1
v 0.1 0.3 -0.1
v 0.2 0.3 -0.1
v 1.49012e-008 0.4 0.2
v 0.1 0.4 0.2
v -0.1 0.4 0.1
v 1.49012e-008 0.4 0.1
v 0.1 0.4 0.1
v 0.2 0.4 0.1
v -0.1 0.4 0
v 1.49012e-008 0.4 0
v 0.1 0.4 0
v 0.2 0.4 0
v 1.49012e-008 0.4 -0.1
v 0.1 0.4 -0.1
v 0.1 0.6 0.1
v 0.2 0.6 0.1
v 0.1 0.6 0
v 0.2 0.6 0
v 1.49012e-008 0.7 0.1
v 0.1 0.7 0.1
v 1.49012e-008 0.7 0
v 0.1 0.7 0

# faces
f 3/5/1 2/5/1 1/5/1
f 4/5/1 2/5/1 3/5/1
f 5/4/1 4/4/1 3/4/1
f 6/4/1 4/4/1 5/4/1
f 7/4/1 4/4/1 6/4/1
f 8/4/1 4/4/1 7/4/1
f 9/5/1 7/5/1 6/5/1
f 10/5/1 7/5/1 9/5/1
f 15/5/1 12/5/1 11/5/1
f 16/5/1 12/5/1 15/5/1
f 17/5/1 14/5/1 13/5/1
f 18/5/1 14/5/1 17/5/1
f 19/3/1 17/3/1 16/3/1
f 20/3/1 17/3/1 19/3/1
f 21/1/1 20/1/1 19/1/1
f 22/1/1 20/1/1 21/1/1
f 23/5/2 24/5/2 27/5/2
f 27/5/2 24/5/2 28/5/2
f 25/5/2 26/5/2 29/5/2
f 29/5/2 26/5/2 30/5/2
f 28/3/2 29/3/2 31/3/2
f 31/3/2 29/3/2 32/3/2
f 33/1/2 34/1/2 35/1/2
f 35/1/2 34/1/2 36/1/2
f 37/5/2 38/5/2 39/5/2
f 39/5/2 38/5/2 40/5/2
f 39/4/2 40/4/2 41/4/2
f 41/4/2 40/4/2 42/4/2
f 42/4/2 40/4/2 43/4/2
f 43/4/2 40/4/2 44/4/2
f 42/5/2 43/5/2 45/5/2
f 45/5/2 43/5/2 46/5/2
f 47/2/2 48/2/2 49/2/2
f 49/2/2 48/2/2 50/2/2
f 54/4/3 53/4/3 52/4/3
f 56/4/3 54/4/3 52/4/3
f 56/5/3 55/5/3 54/5/3
f 57/5/3 55/5/3 56/5/3
f 58/5/3 52/5/3 51/5/3
f 59/4/3 56/4/3 52/4/3
f 59/5/3 52/5/3 58/5/3
f 60/4/3 56/4/3 59/4/3
f 63/5/3 62/5/3 61/5/3
f 64/5/3 62/5/3 63/5/3
f 68/3/3 65/3/3 64/3/3
f 69/3/3 65/3/3 68/3/3
f 70/1/3 66/1/3 65/1/3
f 70/3/3 65/3/3 69/3/3
f 71/1/3 66/1/3 70/1/3
f 72/5/3 68/5/3 67/5/3
f 73/5/3 68/5/3 72/5/3
f 74/2/3 70/2/3 69/2/3
f 75/2/3 70/2/3 74/2/3
f 76/5/4 77/5/4 78/5/4
f 78/5/4 77/5/4 79/5/4
f 79/3/4 80/3/4 83/3/4
f 83/3/4 80/3/4 84/3/4
f 80/1/4 81/1/4 85/1/4
f 84/3/4 80/3/4 85/3/4
f 85/1/4 81/1/4 86/1/4
f 82/5/4 83/5/4 87/5/4
f 87/5/4 83/5/4 88/5/4
f 84/2/4 85/2/4 89/2/4
f 89/2/4 85/2/4 90/2/4
f 92/4/4 93/4/4 94/4/4
f 92/4/4 94/4/4 96/4/4
f 94/5/4 95/5/4 96/5/4
f 96/5/4 95/5/4 97/5/4
f 91/5/4 92/5/4 98/5/4
f 92/4/4 96/4/4 99/4/4
f 98/5/4 92/5/4 99/5/4
f 99/4/4 96/4/4 100/4/4
f 103/5/5 102/5/5 101/5/5
f 104/5/5 102/5/5 103/5/5
f 107/2/5 106/2/5 105/2/5
f 108/2/5 106/2/5 107/2/5
f 109/4/6 110/4/6 113/4/6
f 113/4/6 110/4/6 114/4/6
f 111/4/6 112/4/6 115/4/6
f 115/4/6 112/4/6 116/4/6
f 117/4/6 118/4/6 121/4/6
f 121/4/6 118/4/6 122/4/6
f 119/4/6 120/4/6 123/4/6
f 123/4/6 120/4/6 124/4/6
f 125/5/6 126/5/6 128/5/6
f 128/5/6 126/5/6 129/5/6
f 127/5/6 128/5/6 131/5/6
f 131/5/6 128/5/6 132/5/6
f 129/5/6 130/5/6 133/5/6
f 133/5/6 130/5/6 134/5/6
f 132/5/6 133/5/6 135/5/6
f 135/5/6 133/5/6 136/5/6
f 137/2/6 138/2/6 139/2/6
f 139/2/6 138/2/6 140/2/6
f 141/1/6 142/1/6 143/1/6
f 143/1/6 142/1/6 144/1/6
