# MagicaVoxel @ Ephtracy

# group
o 

# material
mtllib Interior_Furniture_Misc_Plant_05.mtl
usemtl palette

# normals
vn -1 0 0
vn 1 0 0
vn 0 0 1
vn 0 0 -1
vn 0 -1 0
vn 0 1 0

# texcoords
vt 0.908203 0.5
vt 0.912109 0.5
vt 0.923828 0.5
vt 0.927734 0.5
vt 0.958984 0.5
vt 0.962891 0.5
vt 0.966797 0.5

# verts
v -0.3 0.4 0.3
v -0.3 0.4 0.2
v -0.3 0.4 0
v -0.3 0.4 -0.1
v -0.3 0.5 0.3
v -0.3 0.5 0.2
v -0.3 0.5 0
v -0.3 0.5 -0.1
v -0.3 0.6 0.1
v -0.3 0.6 0
v -0.3 0.7 0.1
v -0.3 0.7 0
v -0.3 0.8 0.1
v -0.3 0.8 0
v -0.2 0 0.3
v -0.2 0 0.2
v -0.2 0 0
v -0.2 0 -0.1
v -0.2 0.1 0.3
v -0.2 0.1 0.2
v -0.2 0.1 0
v -0.2 0.1 -0.1
v -0.2 0.4 0.4
v -0.2 0.4 0.3
v -0.2 0.4 0.2
v -0.2 0.4 0
v -0.2 0.4 -0.1
v -0.2 0.4 -0.2
v -0.2 0.5 0.4
v -0.2 0.5 0.3
v -0.2 0.5 -0.1
v -0.2 0.5 -0.2
v -0.1 0.4 0.1
v -0.1 0.4 0
v -0.1 0.5 0.2
v -0.1 0.5 0.1
v -0.1 0.6 0.3
v -0.1 0.6 0.2
v -0.1 0.6 0.1
v -0.1 0.6 0
v -0.1 0.6 -0.1
v -0.1 0.7 0.4
v -0.1 0.7 0.3
v -0.1 0.7 0.2
v -0.1 0.7 0
v -0.1 0.7 -0.1
v -0.1 0.7 -0.2
v -0.1 0.7 -0.3
v -0.1 0.8 0.4
v -0.1 0.8 0.3
v -0.1 0.8 0.2
v -0.1 0.8 -0.1
v -0.1 0.8 -0.2
v -0.1 0.8 -0.3
v -0.1 0.9 0.4
v -0.1 0.9 0.3
v -0.1 0.9 0.2
v -0.1 0.9 -0.1
v -0.1 0.9 -0.2
v -0.1 0.9 -0.3
v 0 0.7 0.1
v 0 0.7 0
v 0 0.8 0.1
v 0 0.8 0
v 0 0.9 0.1
v 0 0.9 0
v 0 1 0.1
v 0 1 0
v 0.1 0.5 0.1
v 0.1 0.5 0
v 0.1 0.6 0.1
v 0.1 0.6 0
v 0.1 0.7 0.1
v 0.1 0.7 0
v 0.2 0.4 0.3
v 0.2 0.4 0.2
v 0.2 0.4 0
v 0.2 0.4 -0.1
v 0.2 0.5 0.3
v 0.2 0.5 0.2
v 0.2 0.5 0.1
v 0.2 0.5 0
v 0.2 0.5 -0.1
v -0.2 0.4 0.3
v -0.2 0.4 0.2
v -0.2 0.4 0
v -0.2 0.4 -0.1
v -0.2 0.5 0.3
v -0.2 0.5 0.2
v -0.2 0.5 0
v -0.2 0.5 -0.1
v -0.1 0.7 0.1
v -0.1 0.7 0
v -0.1 0.8 0.1
v -0.1 0.8 0
v 0 0.5 0.2
v 0 0.5 0.1
v 0 0.5 0
v 0 0.6 0.3
v 0 0.6 0.2
v 0 0.6 0.1
v 0 0.6 0
v 0 0.6 -0.1
v 0 0.7 0.4
v 0 0.7 0.3
v 0 0.7 0.2
v 0 0.7 0.1
v 0 0.7 0
v 0 0.7 -0.1
v 0 0.7 -0.2
v 0 0.7 -0.3
v 0 0.8 0.4
v 0 0.8 0.3
v 0 0.8 0.2
v 0 0.8 -0.1
v 0 0.8 -0.2
v 0 0.8 -0.3
v 0 0.9 0.4
v 0 0.9 0.3
v 0 0.9 0.2
v 0 0.9 -0.1
v 0 0.9 -0.2
v 0 0.9 -0.3
v 0.1 0.4 0.1
v 0.1 0.4 0
v 0.1 0.5 0.1
v 0.1 0.5 0
v 0.1 0.7 0.1
v 0.1 0.7 0
v 0.1 0.8 0.1
v 0.1 0.8 0
v 0.2 0 0.3
v 0.2 0 0.2
v 0.2 0 0
v 0.2 0 -0.1
v 0.2 0.1 0.3
v 0.2 0.1 0.2
v 0.2 0.1 0
v 0.2 0.1 -0.1
v 0.2 0.4 0.4
v 0.2 0.4 0.3
v 0.2 0.4 0.2
v 0.2 0.4 0
v 0.2 0.4 -0.1
v 0.2 0.4 -0.2
v 0.2 0.5 0.4
v 0.2 0.5 0.3
v 0.2 0.5 -0.1
v 0.2 0.5 -0.2
v 0.2 0.8 0.1
v 0.2 0.8 0
v 0.2 0.9 0.1
v 0.2 0.9 0
v 0.2 1 0.1
v 0.2 1 0
v 0.3 0.4 0.3
v 0.3 0.4 0.2
v 0.3 0.4 0
v 0.3 0.4 -0.1
v 0.3 0.5 0.3
v 0.3 0.5 0.2
v 0.3 0.5 0.1
v 0.3 0.5 0
v 0.3 0.5 -0.1
v 0.3 0.6 0.1
v 0.3 0.6 0
v 0.3 0.7 0.1
v 0.3 0.7 0
v -0.2 0.4 0.4
v -0.2 0.5 0.4
v -0.1 0.4 0.4
v -0.1 0.5 0.4
v -0.1 0.7 0.4
v -0.1 0.8 0.4
v -0.1 0.9 0.4
v 0 0.7 0.4
v 0 0.8 0.4
v 0 0.9 0.4
v 0.1 0.4 0.4
v 0.1 0.5 0.4
v 0.2 0.4 0.4
v 0.2 0.5 0.4
v -0.3 0.4 0.3
v -0.3 0.5 0.3
v -0.2 0 0.3
v -0.2 0.1 0.3
v -0.2 0.4 0.3
v -0.2 0.5 0.3
v -0.1 0 0.3
v -0.1 0.1 0.3
v -0.1 0.4 0.3
v -0.1 0.6 0.3
v -0.1 0.7 0.3
v 0 0.6 0.3
v 0 0.7 0.3
v 0.1 0 0.3
v 0.1 0.1 0.3
v 0.1 0.4 0.3
v 0.2 0 0.3
v 0.2 0.1 0.3
v 0.2 0.4 0.3
v 0.2 0.5 0.3
v 0.3 0.4 0.3
v 0.3 0.5 0.3
v -0.1 0.5 0.2
v -0.1 0.6 0.2
v 0 0.5 0.2
v 0 0.6 0.2
v -0.3 0.6 0.1
v -0.3 0.7 0.1
v -0.3 0.8 0.1
v -0.2 0.6 0.1
v -0.2 0.7 0.1
v -0.2 0.8 0.1
v -0.1 0.4 0.1
v -0.1 0.5 0.1
v -0.1 0.6 0.1
v -0.1 0.7 0.1
v -0.1 0.8 0.1
v 0 0.5 0.1
v 0 0.6 0.1
v 0 0.7 0.1
v 0 0.8 0.1
v 0 0.9 0.1
v 0 1 0.1
v 0.1 0.4 0.1
v 0.1 0.5 0.1
v 0.1 0.6 0.1
v 0.1 0.7 0.1
v 0.1 0.8 0.1
v 0.1 0.9 0.1
v 0.1 1 0.1
v 0.2 0.5 0.1
v 0.2 0.6 0.1
v 0.2 0.7 0.1
v 0.2 0.8 0.1
v 0.2 0.9 0.1
v 0.2 1 0.1
v 0.3 0.5 0.1
v 0.3 0.6 0.1
v 0.3 0.7 0.1
v -0.2 0.4 -0.1
v -0.2 0.5 -0.1
v -0.1 0.4 -0.1
v -0.1 0.5 -0.1
v -0.1 0.7 -0.1
v -0.1 0.8 -0.1
v -0.1 0.9 -0.1
v 0 0.7 -0.1
v 0 0.8 -0.1
v 0 0.9 -0.1
v 0.1 0.4 -0.1
v 0.1 0.5 -0.1
v 0.2 0.4 -0.1
v 0.2 0.5 -0.1
v -0.2 0.4 0.3
v -0.2 0.5 0.3
v -0.1 0.4 0.3
v -0.1 0.5 0.3
v 0.1 0.4 0.3
v 0.1 0.5 0.3
v 0.2 0.4 0.3
v 0.2 0.5 0.3
v -0.1 0.6 0.2
v -0.1 0.7 0.2
v -0.1 0.8 0.2
v -0.1 0.9 0.2
v 0 0.6 0.2
v 0 0.7 0.2
v 0 0.8 0.2
v 0 0.9 0.2
v -0.3 0.6 0
v -0.3 0.7 0
v -0.3 0.8 0
v -0.2 0.6 0
v -0.2 0.7 0
v -0.2 0.8 0
v -0.1 0.4 0
v -0.1 0.6 0
v -0.1 0.7 0
v -0.1 0.8 0
v 0 0.5 0
v 0 0.6 0
v 0 0.7 0
v 0 0.8 0
v 0 0.9 0
v 0 1 0
v 0.1 0.4 0
v 0.1 0.5 0
v 0.1 0.6 0
v 0.1 0.7 0
v 0.1 0.8 0
v 0.1 0.9 0
v 0.1 1 0
v 0.2 0.5 0
v 0.2 0.6 0
v 0.2 0.7 0
v 0.2 0.8 0
v 0.2 0.9 0
v 0.2 1 0
v 0.3 0.5 0
v 0.3 0.6 0
v 0.3 0.7 0
v -0.3 0.4 -0.1
v -0.3 0.5 -0.1
v -0.2 0 -0.1
v -0.2 0.1 -0.1
v -0.2 0.4 -0.1
v -0.2 0.5 -0.1
v -0.1 0 -0.1
v -0.1 0.1 -0.1
v -0.1 0.4 -0.1
v -0.1 0.6 -0.1
v -0.1 0.7 -0.1
v 0 0.6 -0.1
v 0 0.7 -0.1
v 0.1 0 -0.1
v 0.1 0.1 -0.1
v 0.1 0.4 -0.1
v 0.2 0 -0.1
v 0.2 0.1 -0.1
v 0.2 0.4 -0.1
v 0.2 0.5 -0.1
v 0.3 0.4 -0.1
v 0.3 0.5 -0.1
v -0.2 0.4 -0.2
v -0.2 0.5 -0.2
v -0.1 0.4 -0.2
v -0.1 0.5 -0.2
v 0.1 0.4 -0.2
v 0.1 0.5 -0.2
v 0.2 0.4 -0.2
v 0.2 0.5 -0.2
v -0.1 0.7 -0.3
v -0.1 0.8 -0.3
v -0.1 0.9 -0.3
v 0 0.7 -0.3
v 0 0.8 -0.3
v 0 0.9 -0.3
v -0.2 0 0.3
v -0.1 0 0.3
v 0.1 0 0.3
v 0.2 0 0.3
v -0.2 0 0.2
v -0.1 0 0.2
v 0.1 0 0.2
v 0.2 0 0.2
v -0.2 0 0
v -0.1 0 0
v 0.1 0 0
v 0.2 0 0
v -0.2 0 -0.1
v -0.1 0 -0.1
v 0.1 0 -0.1
v 0.2 0 -0.1
v -0.2 0.4 0.4
v -0.1 0.4 0.4
v 0.1 0.4 0.4
v 0.2 0.4 0.4
v -0.3 0.4 0.3
v -0.2 0.4 0.3
v -0.1 0.4 0.3
v 0.1 0.4 0.3
v 0.2 0.4 0.3
v 0.3 0.4 0.3
v -0.3 0.4 0.2
v -0.2 0.4 0.2
v 0.2 0.4 0.2
v 0.3 0.4 0.2
v -0.3 0.4 0
v -0.2 0.4 0
v 0.2 0.4 0
v 0.3 0.4 0
v -0.3 0.4 -0.1
v -0.2 0.4 -0.1
v -0.1 0.4 -0.1
v 0.1 0.4 -0.1
v 0.2 0.4 -0.1
v 0.3 0.4 -0.1
v -0.2 0.4 -0.2
v -0.1 0.4 -0.2
v 0.1 0.4 -0.2
v 0.2 0.4 -0.2
v -0.1 0.5 0.2
v 0 0.5 0.2
v -0.1 0.5 0.1
v 0 0.5 0.1
v 0.1 0.5 0.1
v 0.2 0.5 0.1
v 0.1 0.5 0
v 0.2 0.5 0
v -0.1 0.6 0.3
v 0 0.6 0.3
v -0.1 0.6 0.2
v 0 0.6 0.2
v -0.3 0.6 0.1
v -0.2 0.6 0.1
v -0.1 0.6 0.1
v -0.3 0.6 0
v -0.2 0.6 0
v -0.1 0.6 0
v 0 0.6 0
v -0.1 0.6 -0.1
v 0 0.6 -0.1
v -0.1 0.7 0.4
v 0 0.7 0.4
v -0.1 0.7 0.3
v 0 0.7 0.3
v 0 0.7 0.1
v 0.1 0.7 0.1
v 0 0.7 0
v 0.1 0.7 0
v -0.1 0.7 -0.1
v 0 0.7 -0.1
v -0.1 0.7 -0.2
v 0 0.7 -0.2
v -0.1 0.7 -0.3
v 0 0.7 -0.3
v 0.1 0.8 0.1
v 0.2 0.8 0.1
v 0.1 0.8 0
v 0.2 0.8 0
v -0.2 0.4 0.3
v -0.1 0.4 0.3
v 0.1 0.4 0.3
v 0.2 0.4 0.3
v -0.2 0.4 0.2
v -0.1 0.4 0.2
v 0.1 0.4 0.2
v 0.2 0.4 0.2
v -0.1 0.4 0.1
v 0.1 0.4 0.1
v -0.2 0.4 0
v -0.1 0.4 0
v 0.1 0.4 0
v 0.2 0.4 0
v -0.2 0.4 -0.1
v -0.1 0.4 -0.1
v 0.1 0.4 -0.1
v 0.2 0.4 -0.1
v -0.2 0.5 0.4
v -0.1 0.5 0.4
v 0.1 0.5 0.4
v 0.2 0.5 0.4
v -0.3 0.5 0.3
v -0.2 0.5 0.3
v -0.1 0.5 0.3
v 0.1 0.5 0.3
v 0.2 0.5 0.3
v 0.3 0.5 0.3
v -0.3 0.5 0.2
v -0.2 0.5 0.2
v 0.2 0.5 0.2
v 0.3 0.5 0.2
v 0 0.5 0.1
v 0.1 0.5 0.1
v 0.2 0.5 0.1
v 0.3 0.5 0.1
v -0.3 0.5 0
v -0.2 0.5 0
v 0 0.5 0
v 0.1 0.5 0
v 0.2 0.5 0
v 0.3 0.5 0
v -0.3 0.5 -0.1
v -0.2 0.5 -0.1
v -0.1 0.5 -0.1
v 0.1 0.5 -0.1
v 0.2 0.5 -0.1
v 0.3 0.5 -0.1
v -0.2 0.5 -0.2
v -0.1 0.5 -0.2
v 0.1 0.5 -0.2
v 0.2 0.5 -0.2
v -0.1 0.6 0.2
v 0 0.6 0.2
v -0.1 0.6 0.1
v 0 0.6 0.1
v -0.1 0.7 0.1
v 0 0.7 0.1
v 0.1 0.7 0.1
v 0.2 0.7 0.1
v 0.3 0.7 0.1
v -0.1 0.7 0
v 0 0.7 0
v 0.1 0.7 0
v 0.2 0.7 0
v 0.3 0.7 0
v -0.1 0.7 -0.1
v 0 0.7 -0.1
v -0.3 0.8 0.1
v -0.2 0.8 0.1
v -0.1 0.8 0.1
v -0.3 0.8 0
v -0.2 0.8 0
v -0.1 0.8 0
v -0.1 0.9 0.4
v 0 0.9 0.4
v -0.1 0.9 0.3
v 0 0.9 0.3
v -0.1 0.9 0.2
v 0 0.9 0.2
v -0.1 0.9 -0.1
v 0 0.9 -0.1
v -0.1 0.9 -0.2
v 0 0.9 -0.2
v -0.1 0.9 -0.3
v 0 0.9 -0.3
v 0 1 0.1
v 0.1 1 0.1
v 0.2 1 0.1
v 0 1 0
v 0.1 1 0
v 0.2 1 0

# faces
f 5/6/1 2/6/1 1/6/1
f 6/5/1 3/5/1 2/5/1
f 6/6/1 2/6/1 5/6/1
f 7/6/1 4/6/1 3/6/1
f 7/5/1 3/5/1 6/5/1
f 8/6/1 4/6/1 7/6/1
f 11/2/1 10/2/1 9/2/1
f 12/2/1 10/2/1 11/2/1
f 13/1/1 12/1/1 11/1/1
f 14/1/1 12/1/1 13/1/1
f 19/7/1 16/7/1 15/7/1
f 20/6/1 17/6/1 16/6/1
f 20/7/1 16/7/1 19/7/1
f 21/7/1 18/7/1 17/7/1
f 21/6/1 17/6/1 20/6/1
f 22/7/1 18/7/1 21/7/1
f 24/6/1 20/6/1 19/6/1
f 25/5/1 21/5/1 20/5/1
f 25/6/1 20/6/1 24/6/1
f 26/6/1 22/6/1 21/6/1
f 26/5/1 21/5/1 25/5/1
f 27/6/1 22/6/1 26/6/1
f 29/6/1 24/6/1 23/6/1
f 30/6/1 24/6/1 29/6/1
f 31/6/1 28/6/1 27/6/1
f 32/6/1 28/6/1 31/6/1
f 36/4/1 34/4/1 33/4/1
f 38/4/1 36/4/1 35/4/1
f 39/4/1 34/4/1 36/4/1
f 39/4/1 36/4/1 38/4/1
f 40/4/1 34/4/1 39/4/1
f 43/4/1 38/4/1 37/4/1
f 44/4/1 38/4/1 43/4/1
f 45/4/1 41/4/1 40/4/1
f 46/4/1 41/4/1 45/4/1
f 49/2/1 43/2/1 42/2/1
f 50/3/1 44/3/1 43/3/1
f 50/2/1 43/2/1 49/2/1
f 51/3/1 44/3/1 50/3/1
f 52/4/1 47/4/1 46/4/1
f 53/2/1 48/2/1 47/2/1
f 53/4/1 47/4/1 52/4/1
f 54/2/1 48/2/1 53/2/1
f 55/1/1 50/1/1 49/1/1
f 56/2/1 51/2/1 50/2/1
f 56/1/1 50/1/1 55/1/1
f 57/2/1 51/2/1 56/2/1
f 58/2/1 53/2/1 52/2/1
f 59/1/1 54/1/1 53/1/1
f 59/2/1 53/2/1 58/2/1
f 60/1/1 54/1/1 59/1/1
f 63/4/1 62/4/1 61/4/1
f 64/4/1 62/4/1 63/4/1
f 65/3/1 64/3/1 63/3/1
f 66/3/1 64/3/1 65/3/1
f 67/2/1 66/2/1 65/2/1
f 68/2/1 66/2/1 67/2/1
f 71/4/1 70/4/1 69/4/1
f 72/4/1 70/4/1 71/4/1
f 73/2/1 72/2/1 71/2/1
f 74/2/1 72/2/1 73/2/1
f 79/6/1 76/6/1 75/6/1
f 80/5/1 77/5/1 76/5/1
f 80/6/1 76/6/1 79/6/1
f 81/5/1 77/5/1 80/5/1
f 82/6/1 78/6/1 77/6/1
f 82/5/1 77/5/1 81/5/1
f 83/6/1 78/6/1 82/6/1
f 84/6/2 85/6/2 88/6/2
f 85/5/2 86/5/2 89/5/2
f 88/6/2 85/6/2 89/6/2
f 86/6/2 87/6/2 90/6/2
f 89/5/2 86/5/2 90/5/2
f 90/6/2 87/6/2 91/6/2
f 92/2/2 93/2/2 94/2/2
f 94/2/2 93/2/2 95/2/2
f 96/4/2 97/4/2 100/4/2
f 97/4/2 98/4/2 100/4/2
f 100/4/2 98/4/2 101/4/2
f 101/4/2 98/4/2 102/4/2
f 99/4/2 100/4/2 105/4/2
f 105/4/2 100/4/2 106/4/2
f 101/4/2 102/4/2 107/4/2
f 102/4/2 103/4/2 107/4/2
f 107/4/2 103/4/2 108/4/2
f 108/4/2 103/4/2 109/4/2
f 104/2/2 105/2/2 112/2/2
f 105/3/2 106/3/2 113/3/2
f 112/2/2 105/2/2 113/2/2
f 113/3/2 106/3/2 114/3/2
f 109/4/2 110/4/2 115/4/2
f 110/2/2 111/2/2 116/2/2
f 115/4/2 110/4/2 116/4/2
f 116/2/2 111/2/2 117/2/2
f 112/1/2 113/1/2 118/1/2
f 113/2/2 114/2/2 119/2/2
f 118/1/2 113/1/2 119/1/2
f 119/2/2 114/2/2 120/2/2
f 115/2/2 116/2/2 121/2/2
f 116/1/2 117/1/2 122/1/2
f 121/2/2 116/2/2 122/2/2
f 122/1/2 117/1/2 123/1/2
f 124/4/2 125/4/2 126/4/2
f 126/4/2 125/4/2 127/4/2
f 128/4/2 129/4/2 130/4/2
f 130/4/2 129/4/2 131/4/2
f 132/7/2 133/7/2 136/7/2
f 133/6/2 134/6/2 137/6/2
f 136/7/2 133/7/2 137/7/2
f 134/7/2 135/7/2 138/7/2
f 137/6/2 134/6/2 138/6/2
f 138/7/2 135/7/2 139/7/2
f 136/6/2 137/6/2 141/6/2
f 137/5/2 138/5/2 142/5/2
f 141/6/2 137/6/2 142/6/2
f 138/6/2 139/6/2 143/6/2
f 142/5/2 138/5/2 143/5/2
f 143/6/2 139/6/2 144/6/2
f 140/6/2 141/6/2 146/6/2
f 146/6/2 141/6/2 147/6/2
f 144/6/2 145/6/2 148/6/2
f 148/6/2 145/6/2 149/6/2
f 150/2/2 151/2/2 152/2/2
f 152/2/2 151/2/2 153/2/2
f 152/1/2 153/1/2 154/1/2
f 154/1/2 153/1/2 155/1/2
f 156/6/2 157/6/2 160/6/2
f 157/5/2 158/5/2 161/5/2
f 160/6/2 157/6/2 161/6/2
f 161/5/2 158/5/2 162/5/2
f 158/6/2 159/6/2 163/6/2
f 162/5/2 158/5/2 163/5/2
f 163/6/2 159/6/2 164/6/2
f 162/2/2 163/2/2 165/2/2
f 165/2/2 163/2/2 166/2/2
f 165/1/2 166/1/2 167/1/2
f 167/1/2 166/1/2 168/1/2
f 171/6/3 170/6/3 169/6/3
f 172/6/3 170/6/3 171/6/3
f 176/2/3 174/2/3 173/2/3
f 177/1/3 175/1/3 174/1/3
f 177/2/3 174/2/3 176/2/3
f 178/1/3 175/1/3 177/1/3
f 179/5/3 172/5/3 171/5/3
f 180/5/3 172/5/3 179/5/3
f 181/6/3 180/6/3 179/6/3
f 182/6/3 180/6/3 181/6/3
f 187/6/3 184/6/3 183/6/3
f 188/6/3 184/6/3 187/6/3
f 189/7/3 186/7/3 185/7/3
f 190/6/3 187/6/3 186/6/3
f 190/7/3 186/7/3 189/7/3
f 191/6/3 187/6/3 190/6/3
f 194/4/3 193/4/3 192/4/3
f 195/4/3 193/4/3 194/4/3
f 196/6/3 190/6/3 189/6/3
f 197/5/3 191/5/3 190/5/3
f 197/6/3 190/6/3 196/6/3
f 198/5/3 191/5/3 197/5/3
f 199/7/3 197/7/3 196/7/3
f 200/6/3 198/6/3 197/6/3
f 200/7/3 197/7/3 199/7/3
f 201/6/3 198/6/3 200/6/3
f 203/6/3 202/6/3 201/6/3
f 204/6/3 202/6/3 203/6/3
f 207/4/3 206/4/3 205/4/3
f 208/4/3 206/4/3 207/4/3
f 212/2/3 210/2/3 209/2/3
f 213/1/3 211/1/3 210/1/3
f 213/2/3 210/2/3 212/2/3
f 214/1/3 211/1/3 213/1/3
f 217/3/3 213/3/3 212/3/3
f 218/2/3 214/2/3 213/2/3
f 218/3/3 213/3/3 217/3/3
f 219/2/3 214/2/3 218/2/3
f 220/4/3 216/4/3 215/4/3
f 221/4/3 218/4/3 217/4/3
f 222/4/3 218/4/3 221/4/3
f 226/4/3 220/4/3 215/4/3
f 227/4/3 220/4/3 226/4/3
f 229/4/3 223/4/3 222/4/3
f 230/3/3 224/3/3 223/3/3
f 230/4/3 223/4/3 229/4/3
f 231/2/3 225/2/3 224/2/3
f 231/3/3 224/3/3 230/3/3
f 232/2/3 225/2/3 231/2/3
f 233/4/3 228/4/3 227/4/3
f 234/2/3 229/2/3 228/2/3
f 234/4/3 228/4/3 233/4/3
f 235/2/3 229/2/3 234/2/3
f 236/2/3 231/2/3 230/2/3
f 237/1/3 232/1/3 231/1/3
f 237/2/3 231/2/3 236/2/3
f 238/1/3 232/1/3 237/1/3
f 239/2/3 234/2/3 233/2/3
f 240/1/3 235/1/3 234/1/3
f 240/2/3 234/2/3 239/2/3
f 241/1/3 235/1/3 240/1/3
f 244/6/3 243/6/3 242/6/3
f 245/6/3 243/6/3 244/6/3
f 249/4/3 247/4/3 246/4/3
f 250/2/3 248/2/3 247/2/3
f 250/4/3 247/4/3 249/4/3
f 251/2/3 248/2/3 250/2/3
f 252/5/3 245/5/3 244/5/3
f 253/5/3 245/5/3 252/5/3
f 254/6/3 253/6/3 252/6/3
f 255/6/3 253/6/3 254/6/3
f 256/6/4 257/6/4 258/6/4
f 258/6/4 257/6/4 259/6/4
f 258/5/4 259/5/4 260/5/4
f 260/5/4 259/5/4 261/5/4
f 260/6/4 261/6/4 262/6/4
f 262/6/4 261/6/4 263/6/4
f 264/4/4 265/4/4 268/4/4
f 265/3/4 266/3/4 269/3/4
f 268/4/4 265/4/4 269/4/4
f 266/2/4 267/2/4 270/2/4
f 269/3/4 266/3/4 270/3/4
f 270/2/4 267/2/4 271/2/4
f 272/2/4 273/2/4 275/2/4
f 273/1/4 274/1/4 276/1/4
f 275/2/4 273/2/4 276/2/4
f 276/1/4 274/1/4 277/1/4
f 275/3/4 276/3/4 279/3/4
f 276/2/4 277/2/4 280/2/4
f 279/3/4 276/3/4 280/3/4
f 280/2/4 277/2/4 281/2/4
f 278/4/4 279/4/4 282/4/4
f 282/4/4 279/4/4 283/4/4
f 278/4/4 282/4/4 288/4/4
f 288/4/4 282/4/4 289/4/4
f 284/4/4 285/4/4 291/4/4
f 285/3/4 286/3/4 292/3/4
f 291/4/4 285/4/4 292/4/4
f 286/2/4 287/2/4 293/2/4
f 292/3/4 286/3/4 293/3/4
f 293/2/4 287/2/4 294/2/4
f 289/4/4 290/4/4 295/4/4
f 290/2/4 291/2/4 296/2/4
f 295/4/4 290/4/4 296/4/4
f 296/2/4 291/2/4 297/2/4
f 292/2/4 293/2/4 298/2/4
f 293/1/4 294/1/4 299/1/4
f 298/2/4 293/2/4 299/2/4
f 299/1/4 294/1/4 300/1/4
f 295/2/4 296/2/4 301/2/4
f 296/1/4 297/1/4 302/1/4
f 301/2/4 296/2/4 302/2/4
f 302/1/4 297/1/4 303/1/4
f 304/6/4 305/6/4 308/6/4
f 308/6/4 305/6/4 309/6/4
f 306/7/4 307/7/4 310/7/4
f 307/6/4 308/6/4 311/6/4
f 310/7/4 307/7/4 311/7/4
f 311/6/4 308/6/4 312/6/4
f 313/4/4 314/4/4 315/4/4
f 315/4/4 314/4/4 316/4/4
f 310/6/4 311/6/4 317/6/4
f 311/5/4 312/5/4 318/5/4
f 317/6/4 311/6/4 318/6/4
f 318/5/4 312/5/4 319/5/4
f 317/7/4 318/7/4 320/7/4
f 318/6/4 319/6/4 321/6/4
f 320/7/4 318/7/4 321/7/4
f 321/6/4 319/6/4 322/6/4
f 322/6/4 323/6/4 324/6/4
f 324/6/4 323/6/4 325/6/4
f 326/6/4 327/6/4 328/6/4
f 328/6/4 327/6/4 329/6/4
f 328/5/4 329/5/4 330/5/4
f 330/5/4 329/5/4 331/5/4
f 330/6/4 331/6/4 332/6/4
f 332/6/4 331/6/4 333/6/4
f 334/2/4 335/2/4 337/2/4
f 335/1/4 336/1/4 338/1/4
f 337/2/4 335/2/4 338/2/4
f 338/1/4 336/1/4 339/1/4
f 344/7/5 341/7/5 340/7/5
f 345/6/5 342/6/5 341/6/5
f 345/7/5 341/7/5 344/7/5
f 346/7/5 343/7/5 342/7/5
f 346/6/5 342/6/5 345/6/5
f 347/7/5 343/7/5 346/7/5
f 348/6/5 345/6/5 344/6/5
f 348/6/5 346/6/5 345/6/5
f 348/6/5 347/6/5 346/6/5
f 349/6/5 347/6/5 348/6/5
f 350/6/5 347/6/5 349/6/5
f 351/6/5 347/6/5 350/6/5
f 352/7/5 349/7/5 348/7/5
f 353/6/5 350/6/5 349/6/5
f 353/7/5 349/7/5 352/7/5
f 354/7/5 351/7/5 350/7/5
f 354/6/5 350/6/5 353/6/5
f 355/7/5 351/7/5 354/7/5
f 361/6/5 357/6/5 356/6/5
f 362/5/5 358/5/5 357/5/5
f 362/6/5 357/6/5 361/6/5
f 363/6/5 359/6/5 358/6/5
f 363/5/5 358/5/5 362/5/5
f 364/6/5 359/6/5 363/6/5
f 366/6/5 361/6/5 360/6/5
f 367/6/5 361/6/5 366/6/5
f 368/6/5 365/6/5 364/6/5
f 369/6/5 365/6/5 368/6/5
f 370/5/5 367/5/5 366/5/5
f 371/5/5 367/5/5 370/5/5
f 372/5/5 369/5/5 368/5/5
f 373/5/5 369/5/5 372/5/5
f 374/6/5 371/6/5 370/6/5
f 375/6/5 371/6/5 374/6/5
f 378/6/5 373/6/5 372/6/5
f 379/6/5 373/6/5 378/6/5
f 380/6/5 376/6/5 375/6/5
f 381/5/5 377/5/5 376/5/5
f 381/6/5 376/6/5 380/6/5
f 382/6/5 378/6/5 377/6/5
f 382/5/5 377/5/5 381/5/5
f 383/6/5 378/6/5 382/6/5
f 386/4/5 385/4/5 384/4/5
f 387/4/5 385/4/5 386/4/5
f 390/4/5 389/4/5 388/4/5
f 391/4/5 389/4/5 390/4/5
f 394/4/5 393/4/5 392/4/5
f 395/4/5 393/4/5 394/4/5
f 399/2/5 397/2/5 396/2/5
f 400/3/5 398/3/5 397/3/5
f 400/2/5 397/2/5 399/2/5
f 401/3/5 398/3/5 400/3/5
f 403/4/5 402/4/5 401/4/5
f 404/4/5 402/4/5 403/4/5
f 407/2/5 406/2/5 405/2/5
f 408/2/5 406/2/5 407/2/5
f 411/4/5 410/4/5 409/4/5
f 412/4/5 410/4/5 411/4/5
f 415/4/5 414/4/5 413/4/5
f 416/4/5 414/4/5 415/4/5
f 417/2/5 416/2/5 415/2/5
f 418/2/5 416/2/5 417/2/5
f 421/2/5 420/2/5 419/2/5
f 422/2/5 420/2/5 421/2/5
f 423/6/6 424/6/6 427/6/6
f 424/5/6 425/5/6 428/5/6
f 427/6/6 424/6/6 428/6/6
f 425/6/6 426/6/6 429/6/6
f 428/5/6 425/5/6 429/5/6
f 429/6/6 426/6/6 430/6/6
f 427/5/6 428/5/6 431/5/6
f 428/5/6 429/5/6 431/5/6
f 429/5/6 430/5/6 431/5/6
f 431/5/6 430/5/6 432/5/6
f 427/5/6 431/5/6 433/5/6
f 433/5/6 431/5/6 434/5/6
f 432/5/6 430/5/6 435/5/6
f 435/5/6 430/5/6 436/5/6
f 433/6/6 434/6/6 437/6/6
f 434/5/6 435/5/6 438/5/6
f 437/6/6 434/6/6 438/6/6
f 435/6/6 436/6/6 439/6/6
f 438/5/6 435/5/6 439/5/6
f 439/6/6 436/6/6 440/6/6
f 441/6/6 442/6/6 446/6/6
f 442/5/6 443/5/6 447/5/6
f 446/6/6 442/6/6 447/6/6
f 443/6/6 444/6/6 448/6/6
f 447/5/6 443/5/6 448/5/6
f 448/6/6 444/6/6 449/6/6
f 445/6/6 446/6/6 451/6/6
f 451/6/6 446/6/6 452/6/6
f 449/6/6 450/6/6 453/6/6
f 453/6/6 450/6/6 454/6/6
f 453/5/6 454/5/6 457/5/6
f 457/5/6 454/5/6 458/5/6
f 451/5/6 452/5/6 459/5/6
f 459/5/6 452/5/6 460/5/6
f 455/4/6 456/4/6 461/4/6
f 461/4/6 456/4/6 462/4/6
f 459/6/6 460/6/6 465/6/6
f 465/6/6 460/6/6 466/6/6
f 463/6/6 464/6/6 469/6/6
f 469/6/6 464/6/6 470/6/6
f 466/6/6 467/6/6 471/6/6
f 467/5/6 468/5/6 472/5/6
f 471/6/6 467/6/6 472/6/6
f 468/6/6 469/6/6 473/6/6
f 472/5/6 468/5/6 473/5/6
f 473/6/6 469/6/6 474/6/6
f 475/4/6 476/4/6 477/4/6
f 477/4/6 476/4/6 478/4/6
f 479/4/6 480/4/6 484/4/6
f 484/4/6 480/4/6 485/4/6
f 481/2/6 482/2/6 486/2/6
f 482/1/6 483/1/6 487/1/6
f 486/2/6 482/2/6 487/2/6
f 487/1/6 483/1/6 488/1/6
f 484/4/6 485/4/6 489/4/6
f 489/4/6 485/4/6 490/4/6
f 491/1/6 492/1/6 494/1/6
f 492/2/6 493/2/6 495/2/6
f 494/1/6 492/1/6 495/1/6
f 495/2/6 493/2/6 496/2/6
f 497/1/6 498/1/6 499/1/6
f 499/1/6 498/1/6 500/1/6
f 499/2/6 500/2/6 501/2/6
f 501/2/6 500/2/6 502/2/6
f 503/2/6 504/2/6 505/2/6
f 505/2/6 504/2/6 506/2/6
f 505/1/6 506/1/6 507/1/6
f 507/1/6 506/1/6 508/1/6
f 509/2/6 510/2/6 512/2/6
f 510/1/6 511/1/6 513/1/6
f 512/2/6 510/2/6 513/2/6
f 513/1/6 511/1/6 514/1/6
