# MagicaVoxel @ Ephtracy

# group
o 

# material
mtllib Interior_Furniture_Misc_Plant_04.mtl
usemtl palette

# normals
vn -1 0 0
vn 1 0 0
vn 0 0 1
vn 0 0 -1
vn 0 -1 0
vn 0 1 0

# texcoords
vt 0.916016 0.5
vt 0.919922 0.5
vt 0.923828 0.5
vt 0.927734 0.5
vt 0.958984 0.5
vt 0.962891 0.5
vt 0.966797 0.5

# verts
v -0.3 0.8 0.3
v -0.3 0.8 0.2
v -0.3 0.8 0
v -0.3 0.8 -0.1
v -0.3 0.9 0.3
v -0.3 0.9 0.2
v -0.3 0.9 0
v -0.3 0.9 -0.1
v -0.3 1 0.1
v -0.3 1 0
v -0.3 1.1 0.1
v -0.3 1.1 0
v -0.3 1.2 0.1
v -0.3 1.2 0
v -0.2 0 0.3
v -0.2 0 0.2
v -0.2 0 0
v -0.2 0 -0.1
v -0.2 0.1 0.3
v -0.2 0.1 0.2
v -0.2 0.1 0
v -0.2 0.1 -0.1
v -0.2 0.8 0.4
v -0.2 0.8 0.3
v -0.2 0.8 0.2
v -0.2 0.8 0
v -0.2 0.8 -0.1
v -0.2 0.8 -0.2
v -0.2 0.9 0.4
v -0.2 0.9 0.3
v -0.2 0.9 -0.1
v -0.2 0.9 -0.2
v -0.1 0.8 0.1
v -0.1 0.8 0
v -0.1 0.9 0.2
v -0.1 0.9 0.1
v -0.1 1 0.3
v -0.1 1 0.2
v -0.1 1 0.1
v -0.1 1 0
v -0.1 1 -0.1
v -0.1 1.1 0.4
v -0.1 1.1 0.3
v -0.1 1.1 0.2
v -0.1 1.1 0
v -0.1 1.1 -0.1
v -0.1 1.1 -0.2
v -0.1 1.1 -0.3
v -0.1 1.2 0.4
v -0.1 1.2 0.3
v -0.1 1.2 0.2
v -0.1 1.2 -0.1
v -0.1 1.2 -0.2
v -0.1 1.2 -0.3
v -0.1 1.3 0.4
v -0.1 1.3 0.3
v -0.1 1.3 0.2
v -0.1 1.3 -0.1
v -0.1 1.3 -0.2
v -0.1 1.3 -0.3
v 0 1.1 0.1
v 0 1.1 0
v 0 1.2 0.1
v 0 1.2 0
v 0 1.3 0.1
v 0 1.3 0
v 0 1.4 0.1
v 0 1.4 0
v 0.1 0.9 0.1
v 0.1 0.9 0
v 0.1 1 0.1
v 0.1 1 0
v 0.1 1.1 0.1
v 0.1 1.1 0
v 0.2 0.8 0.3
v 0.2 0.8 0.2
v 0.2 0.8 0
v 0.2 0.8 -0.1
v 0.2 0.9 0.3
v 0.2 0.9 0.2
v 0.2 0.9 0.1
v 0.2 0.9 0
v 0.2 0.9 -0.1
v -0.2 0.8 0.3
v -0.2 0.8 0.2
v -0.2 0.8 0
v -0.2 0.8 -0.1
v -0.2 0.9 0.3
v -0.2 0.9 0.2
v -0.2 0.9 0
v -0.2 0.9 -0.1
v -0.1 1.1 0.1
v -0.1 1.1 0
v -0.1 1.2 0.1
v -0.1 1.2 0
v 0 0.8 0.1
v 0 0.8 0
v 0 0.9 0.2
v 0 0.9 0.1
v 0 1 0.3
v 0 1 0.2
v 0 1 0.1
v 0 1 0
v 0 1 -0.1
v 0 1.1 0.4
v 0 1.1 0.3
v 0 1.1 0.2
v 0 1.1 0.1
v 0 1.1 0
v 0 1.1 -0.1
v 0 1.1 -0.2
v 0 1.1 -0.3
v 0 1.2 0.4
v 0 1.2 0.3
v 0 1.2 0.2
v 0 1.2 -0.1
v 0 1.2 -0.2
v 0 1.2 -0.3
v 0 1.3 0.4
v 0 1.3 0.3
v 0 1.3 0.2
v 0 1.3 -0.1
v 0 1.3 -0.2
v 0 1.3 -0.3
v 0.1 1.1 0.1
v 0.1 1.1 0
v 0.1 1.2 0.1
v 0.1 1.2 0
v 0.2 0 0.3
v 0.2 0 0.2
v 0.2 0 0
v 0.2 0 -0.1
v 0.2 0.1 0.3
v 0.2 0.1 0.2
v 0.2 0.1 0
v 0.2 0.1 -0.1
v 0.2 0.8 0.4
v 0.2 0.8 0.3
v 0.2 0.8 0.2
v 0.2 0.8 0
v 0.2 0.8 -0.1
v 0.2 0.8 -0.2
v 0.2 0.9 0.4
v 0.2 0.9 0.3
v 0.2 0.9 -0.1
v 0.2 0.9 -0.2
v 0.2 1.2 0.1
v 0.2 1.2 0
v 0.2 1.3 0.1
v 0.2 1.3 0
v 0.2 1.4 0.1
v 0.2 1.4 0
v 0.3 0.8 0.3
v 0.3 0.8 0.2
v 0.3 0.8 0
v 0.3 0.8 -0.1
v 0.3 0.9 0.3
v 0.3 0.9 0.2
v 0.3 0.9 0.1
v 0.3 0.9 0
v 0.3 0.9 -0.1
v 0.3 1 0.1
v 0.3 1 0
v 0.3 1.1 0.1
v 0.3 1.1 0
v -0.2 0.8 0.4
v -0.2 0.9 0.4
v -0.1 0.8 0.4
v -0.1 0.9 0.4
v -0.1 1.1 0.4
v -0.1 1.2 0.4
v -0.1 1.3 0.4
v 0 1.1 0.4
v 0 1.2 0.4
v 0 1.3 0.4
v 0.1 0.8 0.4
v 0.1 0.9 0.4
v 0.2 0.8 0.4
v 0.2 0.9 0.4
v -0.3 0.8 0.3
v -0.3 0.9 0.3
v -0.2 0 0.3
v -0.2 0.1 0.3
v -0.2 0.8 0.3
v -0.2 0.9 0.3
v -0.1 0 0.3
v -0.1 0.1 0.3
v -0.1 0.8 0.3
v -0.1 1 0.3
v -0.1 1.1 0.3
v 0 1 0.3
v 0 1.1 0.3
v 0.1 0 0.3
v 0.1 0.1 0.3
v 0.1 0.8 0.3
v 0.2 0 0.3
v 0.2 0.1 0.3
v 0.2 0.8 0.3
v 0.2 0.9 0.3
v 0.3 0.8 0.3
v 0.3 0.9 0.3
v -0.1 0.9 0.2
v -0.1 1 0.2
v 0 0.9 0.2
v 0 1 0.2
v -0.3 1 0.1
v -0.3 1.1 0.1
v -0.3 1.2 0.1
v -0.2 1 0.1
v -0.2 1.1 0.1
v -0.2 1.2 0.1
v -0.1 0.8 0.1
v -0.1 0.9 0.1
v -0.1 1 0.1
v -0.1 1.1 0.1
v -0.1 1.2 0.1
v 0 0.8 0.1
v 0 0.9 0.1
v 0 1 0.1
v 0 1.1 0.1
v 0 1.2 0.1
v 0 1.3 0.1
v 0 1.4 0.1
v 0.1 0.9 0.1
v 0.1 1 0.1
v 0.1 1.1 0.1
v 0.1 1.2 0.1
v 0.1 1.3 0.1
v 0.1 1.4 0.1
v 0.2 0.9 0.1
v 0.2 1 0.1
v 0.2 1.1 0.1
v 0.2 1.2 0.1
v 0.2 1.3 0.1
v 0.2 1.4 0.1
v 0.3 0.9 0.1
v 0.3 1 0.1
v 0.3 1.1 0.1
v -0.2 0.8 -0.1
v -0.2 0.9 -0.1
v -0.1 0.8 -0.1
v -0.1 0.9 -0.1
v -0.1 1.1 -0.1
v -0.1 1.2 -0.1
v -0.1 1.3 -0.1
v 0 1.1 -0.1
v 0 1.2 -0.1
v 0 1.3 -0.1
v 0.1 0.8 -0.1
v 0.1 0.9 -0.1
v 0.2 0.8 -0.1
v 0.2 0.9 -0.1
v -0.2 0.8 0.3
v -0.2 0.9 0.3
v -0.1 0.8 0.3
v -0.1 0.9 0.3
v 0.1 0.8 0.3
v 0.1 0.9 0.3
v 0.2 0.8 0.3
v 0.2 0.9 0.3
v -0.1 1 0.2
v -0.1 1.1 0.2
v -0.1 1.2 0.2
v -0.1 1.3 0.2
v 0 1 0.2
v 0 1.1 0.2
v 0 1.2 0.2
v 0 1.3 0.2
v -0.3 1 0
v -0.3 1.1 0
v -0.3 1.2 0
v -0.2 1 0
v -0.2 1.1 0
v -0.2 1.2 0
v -0.1 0.8 0
v -0.1 1 0
v -0.1 1.1 0
v -0.1 1.2 0
v 0 0.8 0
v 0 1 0
v 0 1.1 0
v 0 1.2 0
v 0 1.3 0
v 0 1.4 0
v 0.1 0.9 0
v 0.1 1 0
v 0.1 1.1 0
v 0.1 1.2 0
v 0.1 1.3 0
v 0.1 1.4 0
v 0.2 0.9 0
v 0.2 1 0
v 0.2 1.1 0
v 0.2 1.2 0
v 0.2 1.3 0
v 0.2 1.4 0
v 0.3 0.9 0
v 0.3 1 0
v 0.3 1.1 0
v -0.3 0.8 -0.1
v -0.3 0.9 -0.1
v -0.2 0 -0.1
v -0.2 0.1 -0.1
v -0.2 0.8 -0.1
v -0.2 0.9 -0.1
v -0.1 0 -0.1
v -0.1 0.1 -0.1
v -0.1 0.8 -0.1
v -0.1 1 -0.1
v -0.1 1.1 -0.1
v 0 1 -0.1
v 0 1.1 -0.1
v 0.1 0 -0.1
v 0.1 0.1 -0.1
v 0.1 0.8 -0.1
v 0.2 0 -0.1
v 0.2 0.1 -0.1
v 0.2 0.8 -0.1
v 0.2 0.9 -0.1
v 0.3 0.8 -0.1
v 0.3 0.9 -0.1
v -0.2 0.8 -0.2
v -0.2 0.9 -0.2
v -0.1 0.8 -0.2
v -0.1 0.9 -0.2
v 0.1 0.8 -0.2
v 0.1 0.9 -0.2
v 0.2 0.8 -0.2
v 0.2 0.9 -0.2
v -0.1 1.1 -0.3
v -0.1 1.2 -0.3
v -0.1 1.3 -0.3
v 0 1.1 -0.3
v 0 1.2 -0.3
v 0 1.3 -0.3
v -0.2 0 0.3
v -0.1 0 0.3
v 0.1 0 0.3
v 0.2 0 0.3
v -0.2 0 0.2
v -0.1 0 0.2
v 0.1 0 0.2
v 0.2 0 0.2
v -0.2 0 0
v -0.1 0 0
v 0.1 0 0
v 0.2 0 0
v -0.2 0 -0.1
v -0.1 0 -0.1
v 0.1 0 -0.1
v 0.2 0 -0.1
v -0.2 0.8 0.4
v -0.1 0.8 0.4
v 0.1 0.8 0.4
v 0.2 0.8 0.4
v -0.3 0.8 0.3
v -0.2 0.8 0.3
v -0.1 0.8 0.3
v 0.1 0.8 0.3
v 0.2 0.8 0.3
v 0.3 0.8 0.3
v -0.3 0.8 0.2
v -0.2 0.8 0.2
v 0.2 0.8 0.2
v 0.3 0.8 0.2
v -0.3 0.8 0
v -0.2 0.8 0
v 0.2 0.8 0
v 0.3 0.8 0
v -0.3 0.8 -0.1
v -0.2 0.8 -0.1
v -0.1 0.8 -0.1
v 0.1 0.8 -0.1
v 0.2 0.8 -0.1
v 0.3 0.8 -0.1
v -0.2 0.8 -0.2
v -0.1 0.8 -0.2
v 0.1 0.8 -0.2
v 0.2 0.8 -0.2
v -0.1 0.9 0.2
v 0 0.9 0.2
v -0.1 0.9 0.1
v 0 0.9 0.1
v 0.1 0.9 0.1
v 0.2 0.9 0.1
v 0.1 0.9 0
v 0.2 0.9 0
v -0.1 1 0.3
v 0 1 0.3
v -0.1 1 0.2
v 0 1 0.2
v -0.3 1 0.1
v -0.2 1 0.1
v -0.1 1 0.1
v -0.3 1 0
v -0.2 1 0
v -0.1 1 0
v 0 1 0
v -0.1 1 -0.1
v 0 1 -0.1
v -0.1 1.1 0.4
v 0 1.1 0.4
v -0.1 1.1 0.3
v 0 1.1 0.3
v 0 1.1 0.1
v 0.1 1.1 0.1
v 0 1.1 0
v 0.1 1.1 0
v -0.1 1.1 -0.1
v 0 1.1 -0.1
v -0.1 1.1 -0.2
v 0 1.1 -0.2
v -0.1 1.1 -0.3
v 0 1.1 -0.3
v 0.1 1.2 0.1
v 0.2 1.2 0.1
v 0.1 1.2 0
v 0.2 1.2 0
v -0.2 0.8 0.3
v -0.1 0.8 0.3
v 0.1 0.8 0.3
v 0.2 0.8 0.3
v -0.2 0.8 0.2
v -0.1 0.8 0.2
v 0.1 0.8 0.2
v 0.2 0.8 0.2
v -0.1 0.8 0.1
v 0 0.8 0.1
v -0.2 0.8 0
v -0.1 0.8 0
v 0 0.8 0
v 0.1 0.8 0
v 0.2 0.8 0
v -0.2 0.8 -0.1
v -0.1 0.8 -0.1
v 0.1 0.8 -0.1
v 0.2 0.8 -0.1
v -0.2 0.9 0.4
v -0.1 0.9 0.4
v 0.1 0.9 0.4
v 0.2 0.9 0.4
v -0.3 0.9 0.3
v -0.2 0.9 0.3
v -0.1 0.9 0.3
v 0.1 0.9 0.3
v 0.2 0.9 0.3
v 0.3 0.9 0.3
v -0.3 0.9 0.2
v -0.2 0.9 0.2
v 0.2 0.9 0.2
v 0.3 0.9 0.2
v 0.2 0.9 0.1
v 0.3 0.9 0.1
v -0.3 0.9 0
v -0.2 0.9 0
v 0.2 0.9 0
v 0.3 0.9 0
v -0.3 0.9 -0.1
v -0.2 0.9 -0.1
v -0.1 0.9 -0.1
v 0.1 0.9 -0.1
v 0.2 0.9 -0.1
v 0.3 0.9 -0.1
v -0.2 0.9 -0.2
v -0.1 0.9 -0.2
v 0.1 0.9 -0.2
v 0.2 0.9 -0.2
v -0.1 1 0.2
v 0 1 0.2
v -0.1 1 0.1
v 0 1 0.1
v -0.1 1.1 0.1
v 0 1.1 0.1
v 0.1 1.1 0.1
v 0.2 1.1 0.1
v 0.3 1.1 0.1
v -0.1 1.1 0
v 0 1.1 0
v 0.1 1.1 0
v 0.2 1.1 0
v 0.3 1.1 0
v -0.1 1.1 -0.1
v 0 1.1 -0.1
v -0.3 1.2 0.1
v -0.2 1.2 0.1
v -0.1 1.2 0.1
v -0.3 1.2 0
v -0.2 1.2 0
v -0.1 1.2 0
v -0.1 1.3 0.4
v 0 1.3 0.4
v -0.1 1.3 0.3
v 0 1.3 0.3
v -0.1 1.3 0.2
v 0 1.3 0.2
v -0.1 1.3 -0.1
v 0 1.3 -0.1
v -0.1 1.3 -0.2
v 0 1.3 -0.2
v -0.1 1.3 -0.3
v 0 1.3 -0.3
v 0 1.4 0.1
v 0.1 1.4 0.1
v 0.2 1.4 0.1
v 0 1.4 0
v 0.1 1.4 0
v 0.2 1.4 0

# faces
f 5/6/1 2/6/1 1/6/1
f 6/5/1 3/5/1 2/5/1
f 6/6/1 2/6/1 5/6/1
f 7/6/1 4/6/1 3/6/1
f 7/5/1 3/5/1 6/5/1
f 8/6/1 4/6/1 7/6/1
f 11/2/1 10/2/1 9/2/1
f 12/2/1 10/2/1 11/2/1
f 13/3/1 12/3/1 11/3/1
f 14/3/1 12/3/1 13/3/1
f 19/7/1 16/7/1 15/7/1
f 20/6/1 17/6/1 16/6/1
f 20/7/1 16/7/1 19/7/1
f 21/7/1 18/7/1 17/7/1
f 21/6/1 17/6/1 20/6/1
f 22/7/1 18/7/1 21/7/1
f 24/6/1 20/6/1 19/6/1
f 25/5/1 21/5/1 20/5/1
f 25/6/1 20/6/1 24/6/1
f 26/6/1 22/6/1 21/6/1
f 26/5/1 21/5/1 25/5/1
f 27/6/1 22/6/1 26/6/1
f 29/6/1 24/6/1 23/6/1
f 30/6/1 24/6/1 29/6/1
f 31/6/1 28/6/1 27/6/1
f 32/6/1 28/6/1 31/6/1
f 36/4/1 34/4/1 33/4/1
f 38/4/1 36/4/1 35/4/1
f 39/4/1 34/4/1 36/4/1
f 39/4/1 36/4/1 38/4/1
f 40/4/1 34/4/1 39/4/1
f 43/4/1 38/4/1 37/4/1
f 44/4/1 38/4/1 43/4/1
f 45/4/1 41/4/1 40/4/1
f 46/4/1 41/4/1 45/4/1
f 49/2/1 43/2/1 42/2/1
f 50/1/1 44/1/1 43/1/1
f 50/2/1 43/2/1 49/2/1
f 51/1/1 44/1/1 50/1/1
f 52/4/1 47/4/1 46/4/1
f 53/2/1 48/2/1 47/2/1
f 53/4/1 47/4/1 52/4/1
f 54/2/1 48/2/1 53/2/1
f 55/3/1 50/3/1 49/3/1
f 56/2/1 51/2/1 50/2/1
f 56/3/1 50/3/1 55/3/1
f 57/2/1 51/2/1 56/2/1
f 58/2/1 53/2/1 52/2/1
f 59/3/1 54/3/1 53/3/1
f 59/2/1 53/2/1 58/2/1
f 60/3/1 54/3/1 59/3/1
f 63/4/1 62/4/1 61/4/1
f 64/4/1 62/4/1 63/4/1
f 65/1/1 64/1/1 63/1/1
f 66/1/1 64/1/1 65/1/1
f 67/2/1 66/2/1 65/2/1
f 68/2/1 66/2/1 67/2/1
f 71/4/1 70/4/1 69/4/1
f 72/4/1 70/4/1 71/4/1
f 73/2/1 72/2/1 71/2/1
f 74/2/1 72/2/1 73/2/1
f 79/6/1 76/6/1 75/6/1
f 80/5/1 77/5/1 76/5/1
f 80/6/1 76/6/1 79/6/1
f 81/5/1 77/5/1 80/5/1
f 82/6/1 78/6/1 77/6/1
f 82/5/1 77/5/1 81/5/1
f 83/6/1 78/6/1 82/6/1
f 84/6/2 85/6/2 88/6/2
f 85/5/2 86/5/2 89/5/2
f 88/6/2 85/6/2 89/6/2
f 86/6/2 87/6/2 90/6/2
f 89/5/2 86/5/2 90/5/2
f 90/6/2 87/6/2 91/6/2
f 92/2/2 93/2/2 94/2/2
f 94/2/2 93/2/2 95/2/2
f 96/4/2 97/4/2 99/4/2
f 98/4/2 99/4/2 101/4/2
f 99/4/2 97/4/2 102/4/2
f 101/4/2 99/4/2 102/4/2
f 102/4/2 97/4/2 103/4/2
f 100/4/2 101/4/2 106/4/2
f 106/4/2 101/4/2 107/4/2
f 102/4/2 103/4/2 108/4/2
f 103/4/2 104/4/2 108/4/2
f 108/4/2 104/4/2 109/4/2
f 109/4/2 104/4/2 110/4/2
f 105/2/2 106/2/2 113/2/2
f 106/1/2 107/1/2 114/1/2
f 113/2/2 106/2/2 114/2/2
f 114/1/2 107/1/2 115/1/2
f 110/4/2 111/4/2 116/4/2
f 111/2/2 112/2/2 117/2/2
f 116/4/2 111/4/2 117/4/2
f 117/2/2 112/2/2 118/2/2
f 113/3/2 114/3/2 119/3/2
f 114/2/2 115/2/2 120/2/2
f 119/3/2 114/3/2 120/3/2
f 120/2/2 115/2/2 121/2/2
f 116/2/2 117/2/2 122/2/2
f 117/3/2 118/3/2 123/3/2
f 122/2/2 117/2/2 123/2/2
f 123/3/2 118/3/2 124/3/2
f 125/4/2 126/4/2 127/4/2
f 127/4/2 126/4/2 128/4/2
f 129/7/2 130/7/2 133/7/2
f 130/6/2 131/6/2 134/6/2
f 133/7/2 130/7/2 134/7/2
f 131/7/2 132/7/2 135/7/2
f 134/6/2 131/6/2 135/6/2
f 135/7/2 132/7/2 136/7/2
f 133/6/2 134/6/2 138/6/2
f 134/5/2 135/5/2 139/5/2
f 138/6/2 134/6/2 139/6/2
f 135/6/2 136/6/2 140/6/2
f 139/5/2 135/5/2 140/5/2
f 140/6/2 136/6/2 141/6/2
f 137/6/2 138/6/2 143/6/2
f 143/6/2 138/6/2 144/6/2
f 141/6/2 142/6/2 145/6/2
f 145/6/2 142/6/2 146/6/2
f 147/2/2 148/2/2 149/2/2
f 149/2/2 148/2/2 150/2/2
f 149/3/2 150/3/2 151/3/2
f 151/3/2 150/3/2 152/3/2
f 153/6/2 154/6/2 157/6/2
f 154/5/2 155/5/2 158/5/2
f 157/6/2 154/6/2 158/6/2
f 158/5/2 155/5/2 159/5/2
f 155/6/2 156/6/2 160/6/2
f 159/5/2 155/5/2 160/5/2
f 160/6/2 156/6/2 161/6/2
f 159/2/2 160/2/2 162/2/2
f 162/2/2 160/2/2 163/2/2
f 162/3/2 163/3/2 164/3/2
f 164/3/2 163/3/2 165/3/2
f 168/6/3 167/6/3 166/6/3
f 169/6/3 167/6/3 168/6/3
f 173/2/3 171/2/3 170/2/3
f 174/3/3 172/3/3 171/3/3
f 174/2/3 171/2/3 173/2/3
f 175/3/3 172/3/3 174/3/3
f 176/5/3 169/5/3 168/5/3
f 177/5/3 169/5/3 176/5/3
f 178/6/3 177/6/3 176/6/3
f 179/6/3 177/6/3 178/6/3
f 184/6/3 181/6/3 180/6/3
f 185/6/3 181/6/3 184/6/3
f 186/7/3 183/7/3 182/7/3
f 187/6/3 184/6/3 183/6/3
f 187/7/3 183/7/3 186/7/3
f 188/6/3 184/6/3 187/6/3
f 191/4/3 190/4/3 189/4/3
f 192/4/3 190/4/3 191/4/3
f 193/6/3 187/6/3 186/6/3
f 194/5/3 188/5/3 187/5/3
f 194/6/3 187/6/3 193/6/3
f 195/5/3 188/5/3 194/5/3
f 196/7/3 194/7/3 193/7/3
f 197/6/3 195/6/3 194/6/3
f 197/7/3 194/7/3 196/7/3
f 198/6/3 195/6/3 197/6/3
f 200/6/3 199/6/3 198/6/3
f 201/6/3 199/6/3 200/6/3
f 204/4/3 203/4/3 202/4/3
f 205/4/3 203/4/3 204/4/3
f 209/2/3 207/2/3 206/2/3
f 210/3/3 208/3/3 207/3/3
f 210/2/3 207/2/3 209/2/3
f 211/3/3 208/3/3 210/3/3
f 214/1/3 210/1/3 209/1/3
f 215/2/3 211/2/3 210/2/3
f 215/1/3 210/1/3 214/1/3
f 216/2/3 211/2/3 215/2/3
f 217/4/3 213/4/3 212/4/3
f 218/4/3 213/4/3 217/4/3
f 219/4/3 215/4/3 214/4/3
f 220/4/3 215/4/3 219/4/3
f 226/4/3 221/4/3 220/4/3
f 227/1/3 222/1/3 221/1/3
f 227/4/3 221/4/3 226/4/3
f 228/2/3 223/2/3 222/2/3
f 228/1/3 222/1/3 227/1/3
f 229/2/3 223/2/3 228/2/3
f 230/4/3 225/4/3 224/4/3
f 231/2/3 226/2/3 225/2/3
f 231/4/3 225/4/3 230/4/3
f 232/2/3 226/2/3 231/2/3
f 233/2/3 228/2/3 227/2/3
f 234/3/3 229/3/3 228/3/3
f 234/2/3 228/2/3 233/2/3
f 235/3/3 229/3/3 234/3/3
f 236/2/3 231/2/3 230/2/3
f 237/3/3 232/3/3 231/3/3
f 237/2/3 231/2/3 236/2/3
f 238/3/3 232/3/3 237/3/3
f 241/6/3 240/6/3 239/6/3
f 242/6/3 240/6/3 241/6/3
f 246/4/3 244/4/3 243/4/3
f 247/2/3 245/2/3 244/2/3
f 247/4/3 244/4/3 246/4/3
f 248/2/3 245/2/3 247/2/3
f 249/5/3 242/5/3 241/5/3
f 250/5/3 242/5/3 249/5/3
f 251/6/3 250/6/3 249/6/3
f 252/6/3 250/6/3 251/6/3
f 253/6/4 254/6/4 255/6/4
f 255/6/4 254/6/4 256/6/4
f 255/5/4 256/5/4 257/5/4
f 257/5/4 256/5/4 258/5/4
f 257/6/4 258/6/4 259/6/4
f 259/6/4 258/6/4 260/6/4
f 261/4/4 262/4/4 265/4/4
f 262/1/4 263/1/4 266/1/4
f 265/4/4 262/4/4 266/4/4
f 263/2/4 264/2/4 267/2/4
f 266/1/4 263/1/4 267/1/4
f 267/2/4 264/2/4 268/2/4
f 269/2/4 270/2/4 272/2/4
f 270/3/4 271/3/4 273/3/4
f 272/2/4 270/2/4 273/2/4
f 273/3/4 271/3/4 274/3/4
f 272/1/4 273/1/4 276/1/4
f 273/2/4 274/2/4 277/2/4
f 276/1/4 273/1/4 277/1/4
f 277/2/4 274/2/4 278/2/4
f 275/4/4 276/4/4 279/4/4
f 279/4/4 276/4/4 280/4/4
f 281/4/4 282/4/4 287/4/4
f 282/1/4 283/1/4 288/1/4
f 287/4/4 282/4/4 288/4/4
f 283/2/4 284/2/4 289/2/4
f 288/1/4 283/1/4 289/1/4
f 289/2/4 284/2/4 290/2/4
f 285/4/4 286/4/4 291/4/4
f 286/2/4 287/2/4 292/2/4
f 291/4/4 286/4/4 292/4/4
f 292/2/4 287/2/4 293/2/4
f 288/2/4 289/2/4 294/2/4
f 289/3/4 290/3/4 295/3/4
f 294/2/4 289/2/4 295/2/4
f 295/3/4 290/3/4 296/3/4
f 291/2/4 292/2/4 297/2/4
f 292/3/4 293/3/4 298/3/4
f 297/2/4 292/2/4 298/2/4
f 298/3/4 293/3/4 299/3/4
f 300/6/4 301/6/4 304/6/4
f 304/6/4 301/6/4 305/6/4
f 302/7/4 303/7/4 306/7/4
f 303/6/4 304/6/4 307/6/4
f 306/7/4 303/7/4 307/7/4
f 307/6/4 304/6/4 308/6/4
f 309/4/4 310/4/4 311/4/4
f 311/4/4 310/4/4 312/4/4
f 306/6/4 307/6/4 313/6/4
f 307/5/4 308/5/4 314/5/4
f 313/6/4 307/6/4 314/6/4
f 314/5/4 308/5/4 315/5/4
f 313/7/4 314/7/4 316/7/4
f 314/6/4 315/6/4 317/6/4
f 316/7/4 314/7/4 317/7/4
f 317/6/4 315/6/4 318/6/4
f 318/6/4 319/6/4 320/6/4
f 320/6/4 319/6/4 321/6/4
f 322/6/4 323/6/4 324/6/4
f 324/6/4 323/6/4 325/6/4
f 324/5/4 325/5/4 326/5/4
f 326/5/4 325/5/4 327/5/4
f 326/6/4 327/6/4 328/6/4
f 328/6/4 327/6/4 329/6/4
f 330/2/4 331/2/4 333/2/4
f 331/3/4 332/3/4 334/3/4
f 333/2/4 331/2/4 334/2/4
f 334/3/4 332/3/4 335/3/4
f 340/7/5 337/7/5 336/7/5
f 341/6/5 338/6/5 337/6/5
f 341/7/5 337/7/5 340/7/5
f 342/7/5 339/7/5 338/7/5
f 342/6/5 338/6/5 341/6/5
f 343/7/5 339/7/5 342/7/5
f 344/6/5 341/6/5 340/6/5
f 344/6/5 342/6/5 341/6/5
f 344/6/5 343/6/5 342/6/5
f 345/6/5 343/6/5 344/6/5
f 346/6/5 343/6/5 345/6/5
f 347/6/5 343/6/5 346/6/5
f 348/7/5 345/7/5 344/7/5
f 349/6/5 346/6/5 345/6/5
f 349/7/5 345/7/5 348/7/5
f 350/7/5 347/7/5 346/7/5
f 350/6/5 346/6/5 349/6/5
f 351/7/5 347/7/5 350/7/5
f 357/6/5 353/6/5 352/6/5
f 358/5/5 354/5/5 353/5/5
f 358/6/5 353/6/5 357/6/5
f 359/6/5 355/6/5 354/6/5
f 359/5/5 354/5/5 358/5/5
f 360/6/5 355/6/5 359/6/5
f 362/6/5 357/6/5 356/6/5
f 363/6/5 357/6/5 362/6/5
f 364/6/5 361/6/5 360/6/5
f 365/6/5 361/6/5 364/6/5
f 366/5/5 363/5/5 362/5/5
f 367/5/5 363/5/5 366/5/5
f 368/5/5 365/5/5 364/5/5
f 369/5/5 365/5/5 368/5/5
f 370/6/5 367/6/5 366/6/5
f 371/6/5 367/6/5 370/6/5
f 374/6/5 369/6/5 368/6/5
f 375/6/5 369/6/5 374/6/5
f 376/6/5 372/6/5 371/6/5
f 377/5/5 373/5/5 372/5/5
f 377/6/5 372/6/5 376/6/5
f 378/6/5 374/6/5 373/6/5
f 378/5/5 373/5/5 377/5/5
f 379/6/5 374/6/5 378/6/5
f 382/4/5 381/4/5 380/4/5
f 383/4/5 381/4/5 382/4/5
f 386/4/5 385/4/5 384/4/5
f 387/4/5 385/4/5 386/4/5
f 390/4/5 389/4/5 388/4/5
f 391/4/5 389/4/5 390/4/5
f 395/2/5 393/2/5 392/2/5
f 396/1/5 394/1/5 393/1/5
f 396/2/5 393/2/5 395/2/5
f 397/1/5 394/1/5 396/1/5
f 399/4/5 398/4/5 397/4/5
f 400/4/5 398/4/5 399/4/5
f 403/2/5 402/2/5 401/2/5
f 404/2/5 402/2/5 403/2/5
f 407/4/5 406/4/5 405/4/5
f 408/4/5 406/4/5 407/4/5
f 411/4/5 410/4/5 409/4/5
f 412/4/5 410/4/5 411/4/5
f 413/2/5 412/2/5 411/2/5
f 414/2/5 412/2/5 413/2/5
f 417/2/5 416/2/5 415/2/5
f 418/2/5 416/2/5 417/2/5
f 419/6/6 420/6/6 423/6/6
f 420/5/6 421/5/6 424/5/6
f 423/6/6 420/6/6 424/6/6
f 421/6/6 422/6/6 425/6/6
f 424/5/6 421/5/6 425/5/6
f 425/6/6 422/6/6 426/6/6
f 423/5/6 424/5/6 427/5/6
f 424/5/6 425/5/6 427/5/6
f 425/5/6 426/5/6 427/5/6
f 427/5/6 426/5/6 428/5/6
f 423/5/6 427/5/6 429/5/6
f 429/5/6 427/5/6 430/5/6
f 428/5/6 426/5/6 431/5/6
f 431/5/6 426/5/6 432/5/6
f 432/5/6 426/5/6 433/5/6
f 429/6/6 430/6/6 434/6/6
f 430/5/6 431/5/6 435/5/6
f 434/6/6 430/6/6 435/6/6
f 431/5/6 432/5/6 435/5/6
f 432/6/6 433/6/6 436/6/6
f 435/5/6 432/5/6 436/5/6
f 436/6/6 433/6/6 437/6/6
f 438/6/6 439/6/6 443/6/6
f 439/5/6 440/5/6 444/5/6
f 443/6/6 439/6/6 444/6/6
f 440/6/6 441/6/6 445/6/6
f 444/5/6 440/5/6 445/5/6
f 445/6/6 441/6/6 446/6/6
f 442/6/6 443/6/6 448/6/6
f 448/6/6 443/6/6 449/6/6
f 446/6/6 447/6/6 450/6/6
f 450/6/6 447/6/6 451/6/6
f 450/5/6 451/5/6 452/5/6
f 452/5/6 451/5/6 453/5/6
f 448/5/6 449/5/6 454/5/6
f 454/5/6 449/5/6 455/5/6
f 454/6/6 455/6/6 458/6/6
f 458/6/6 455/6/6 459/6/6
f 456/6/6 457/6/6 462/6/6
f 462/6/6 457/6/6 463/6/6
f 459/6/6 460/6/6 464/6/6
f 460/5/6 461/5/6 465/5/6
f 464/6/6 460/6/6 465/6/6
f 461/6/6 462/6/6 466/6/6
f 465/5/6 461/5/6 466/5/6
f 466/6/6 462/6/6 467/6/6
f 468/4/6 469/4/6 470/4/6
f 470/4/6 469/4/6 471/4/6
f 472/4/6 473/4/6 477/4/6
f 477/4/6 473/4/6 478/4/6
f 474/2/6 475/2/6 479/2/6
f 475/3/6 476/3/6 480/3/6
f 479/2/6 475/2/6 480/2/6
f 480/3/6 476/3/6 481/3/6
f 477/4/6 478/4/6 482/4/6
f 482/4/6 478/4/6 483/4/6
f 484/3/6 485/3/6 487/3/6
f 485/2/6 486/2/6 488/2/6
f 487/3/6 485/3/6 488/3/6
f 488/2/6 486/2/6 489/2/6
f 490/3/6 491/3/6 492/3/6
f 492/3/6 491/3/6 493/3/6
f 492/2/6 493/2/6 494/2/6
f 494/2/6 493/2/6 495/2/6
f 496/2/6 497/2/6 498/2/6
f 498/2/6 497/2/6 499/2/6
f 498/3/6 499/3/6 500/3/6
f 500/3/6 499/3/6 501/3/6
f 502/2/6 503/2/6 505/2/6
f 503/3/6 504/3/6 506/3/6
f 505/2/6 503/2/6 506/2/6
f 506/3/6 504/3/6 507/3/6
