# MagicaVoxel @ Ephtracy

# group
o 

# material
mtllib Christmas-22.mtl
usemtl palette

# normals
vn -1 0 0
vn 1 0 0
vn 0 0 1
vn 0 0 -1
vn 0 -1 0
vn 0 1 0

# texcoords
vt 0.115234 0.5
vt 0.208984 0.5
vt 0.310547 0.5
vt 0.623047 0.5
vt 0.958984 0.5

# verts
v -3.6 1.1 -3.5
v -3.6 1.1 -3.7
v -3.6 1.2 -3.4
v -3.6 1.2 -3.5
v -3.6 1.2 -3.7
v -3.6 1.2 -3.8
v -3.6 1.4 -3.4
v -3.6 1.4 -3.5
v -3.6 1.4 -3.7
v -3.6 1.4 -3.8
v -3.6 1.5 -3.5
v -3.6 1.5 -3.7
v -3.5 1 -3.4
v -3.5 1 -3.8
v -3.5 1.1 -3.3
v -3.5 1.1 -3.4
v -3.5 1.1 -3.5
v -3.5 1.1 -3.7
v -3.5 1.1 -3.8
v -3.5 1.1 -3.9
v -3.5 1.2 -3.4
v -3.5 1.2 -3.5
v -3.5 1.2 -3.7
v -3.5 1.2 -3.8
v -3.5 1.4 -3.4
v -3.5 1.4 -3.5
v -3.5 1.4 -3.7
v -3.5 1.4 -3.8
v -3.5 1.5 -3.3
v -3.5 1.5 -3.4
v -3.5 1.5 -3.5
v -3.5 1.5 -3.7
v -3.5 1.5 -3.8
v -3.5 1.5 -3.9
v -3.5 1.6 -3.4
v -3.5 1.6 -3.8
v -3.4 1 -3.3
v -3.4 1 -3.4
v -3.4 1 -3.8
v -3.4 1 -3.9
v -3.4 1.1 -3.3
v -3.4 1.1 -3.4
v -3.4 1.1 -3.8
v -3.4 1.1 -3.9
v -3.4 1.2 -3.2
v -3.4 1.2 -3.3
v -3.4 1.2 -3.9
v -3.4 1.2 -4
v -3.4 1.3 -3.9
v -3.4 1.3 -4
v -3.4 1.4 -3.2
v -3.4 1.4 -3.3
v -3.4 1.4 -3.9
v -3.4 1.4 -4
v -3.4 1.5 -3.3
v -3.4 1.5 -3.4
v -3.4 1.5 -3.8
v -3.4 1.5 -3.9
v -3.4 1.5 -4
v -3.4 1.6 -3.3
v -3.4 1.6 -3.4
v -3.4 1.6 -3.5
v -3.4 1.6 -3.7
v -3.4 1.6 -3.8
v -3.4 1.6 -3.9
v -3.4 1.7 -3.5
v -3.4 1.7 -3.7
v -3.3 1.1 -3.2
v -3.3 1.1 -3.3
v -3.3 1.2 -3.2
v -3.3 1.2 -3.3
v -3.3 1.3 -4
v -3.3 1.3 -4.1
v -3.3 1.4 -3.2
v -3.3 1.4 -3.3
v -3.3 1.4 -4
v -3.3 1.4 -4.1
v -3.3 1.5 -3.2
v -3.3 1.5 -3.3
v -3.3 1.6 -3.4
v -3.3 1.6 -3.5
v -3.3 1.6 -3.7
v -3.3 1.6 -3.8
v -3.3 1.7 -3.4
v -3.3 1.7 -3.5
v -3.3 1.7 -3.7
v -3.3 1.7 -3.8
v -3.1 1.1 -3.2
v -3.1 1.1 -3.3
v -3.1 1.2 -3.2
v -3.1 1.2 -3.3
v -3.1 1.3 -4
v -3.1 1.3 -4.1
v -3.1 1.4 -3.2
v -3.1 1.4 -3.3
v -3.1 1.4 -4
v -3.1 1.4 -4.1
v -3.1 1.5 -3.2
v -3.1 1.5 -3.3
v -3.1 1.6 -3.4
v -3.1 1.6 -3.5
v -3.1 1.6 -3.7
v -3.1 1.6 -3.8
v -3.1 1.7 -3.4
v -3.1 1.7 -3.5
v -3.1 1.7 -3.7
v -3.1 1.7 -3.8
v -3 1 -3.3
v -3 1 -3.4
v -3 1 -3.8
v -3 1 -3.9
v -3 1.1 -3.3
v -3 1.1 -3.4
v -3 1.1 -3.8
v -3 1.1 -3.9
v -3 1.2 -3.2
v -3 1.2 -3.3
v -3 1.2 -3.9
v -3 1.2 -4
v -3 1.3 -3.9
v -3 1.3 -4
v -3 1.4 -3.2
v -3 1.4 -3.3
v -3 1.4 -3.9
v -3 1.4 -4
v -3 1.5 -3.3
v -3 1.5 -3.4
v -3 1.5 -3.8
v -3 1.5 -3.9
v -3 1.5 -4
v -3 1.6 -3.3
v -3 1.6 -3.4
v -3 1.6 -3.5
v -3 1.6 -3.7
v -3 1.6 -3.8
v -3 1.6 -3.9
v -3 1.7 -3.5
v -3 1.7 -3.7
v -2.9 1 -3.4
v -2.9 1 -3.8
v -2.9 1.1 -3.3
v -2.9 1.1 -3.4
v -2.9 1.1 -3.5
v -2.9 1.1 -3.7
v -2.9 1.1 -3.8
v -2.9 1.1 -3.9
v -2.9 1.2 -3.4
v -2.9 1.2 -3.5
v -2.9 1.2 -3.7
v -2.9 1.2 -3.8
v -2.9 1.4 -3.4
v -2.9 1.4 -3.5
v -2.9 1.4 -3.7
v -2.9 1.4 -3.8
v -2.9 1.5 -3.3
v -2.9 1.5 -3.4
v -2.9 1.5 -3.5
v -2.9 1.5 -3.7
v -2.9 1.5 -3.8
v -2.9 1.5 -3.9
v -2.9 1.6 -3.4
v -2.9 1.6 -3.8
v -2.8 1.1 -3.5
v -2.8 1.1 -3.7
v -2.8 1.2 -3.4
v -2.8 1.2 -3.5
v -2.8 1.2 -3.7
v -2.8 1.2 -3.8
v -2.8 1.4 -3.4
v -2.8 1.4 -3.5
v -2.8 1.4 -3.7
v -2.8 1.4 -3.8
v -2.8 1.5 -3.5
v -2.8 1.5 -3.7
v -3.4 1.2 -3.2
v -3.4 1.4 -3.2
v -3.3 1.1 -3.2
v -3.3 1.2 -3.2
v -3.3 1.4 -3.2
v -3.3 1.5 -3.2
v -3.1 1.1 -3.2
v -3.1 1.2 -3.2
v -3.1 1.4 -3.2
v -3.1 1.5 -3.2
v -3 1.2 -3.2
v -3 1.4 -3.2
v -3.5 1.1 -3.3
v -3.5 1.5 -3.3
v -3.4 1 -3.3
v -3.4 1.1 -3.3
v -3.4 1.2 -3.3
v -3.4 1.4 -3.3
v -3.4 1.5 -3.3
v -3.4 1.6 -3.3
v -3.3 1.1 -3.3
v -3.3 1.2 -3.3
v -3.3 1.4 -3.3
v -3.3 1.5 -3.3
v -3.1 1.1 -3.3
v -3.1 1.2 -3.3
v -3.1 1.4 -3.3
v -3.1 1.5 -3.3
v -3 1 -3.3
v -3 1.1 -3.3
v -3 1.2 -3.3
v -3 1.4 -3.3
v -3 1.5 -3.3
v -3 1.6 -3.3
v -2.9 1.1 -3.3
v -2.9 1.5 -3.3
v -3.6 1.2 -3.4
v -3.6 1.4 -3.4
v -3.5 1 -3.4
v -3.5 1.1 -3.4
v -3.5 1.2 -3.4
v -3.5 1.4 -3.4
v -3.5 1.5 -3.4
v -3.5 1.6 -3.4
v -3.4 1 -3.4
v -3.4 1.1 -3.4
v -3.4 1.5 -3.4
v -3.4 1.6 -3.4
v -3.3 1.6 -3.4
v -3.3 1.7 -3.4
v -3.1 1.6 -3.4
v -3.1 1.7 -3.4
v -3 1 -3.4
v -3 1.1 -3.4
v -3 1.5 -3.4
v -3 1.6 -3.4
v -2.9 1 -3.4
v -2.9 1.1 -3.4
v -2.9 1.2 -3.4
v -2.9 1.4 -3.4
v -2.9 1.5 -3.4
v -2.9 1.6 -3.4
v -2.8 1.2 -3.4
v -2.8 1.4 -3.4
v -3.6 1.1 -3.5
v -3.6 1.2 -3.5
v -3.6 1.4 -3.5
v -3.6 1.5 -3.5
v -3.5 1.1 -3.5
v -3.5 1.2 -3.5
v -3.5 1.4 -3.5
v -3.5 1.5 -3.5
v -3.4 1.6 -3.5
v -3.4 1.7 -3.5
v -3.3 1.6 -3.5
v -3.3 1.7 -3.5
v -3.1 1.6 -3.5
v -3.1 1.7 -3.5
v -3 1.6 -3.5
v -3 1.7 -3.5
v -2.9 1.1 -3.5
v -2.9 1.2 -3.5
v -2.9 1.4 -3.5
v -2.9 1.5 -3.5
v -2.8 1.1 -3.5
v -2.8 1.2 -3.5
v -2.8 1.4 -3.5
v -2.8 1.5 -3.5
v -3.6 1.1 -3.7
v -3.6 1.2 -3.7
v -3.6 1.4 -3.7
v -3.6 1.5 -3.7
v -3.5 1.1 -3.7
v -3.5 1.2 -3.7
v -3.5 1.4 -3.7
v -3.5 1.5 -3.7
v -3.4 1.6 -3.7
v -3.4 1.7 -3.7
v -3.3 1.6 -3.7
v -3.3 1.7 -3.7
v -3.1 1.6 -3.7
v -3.1 1.7 -3.7
v -3 1.6 -3.7
v -3 1.7 -3.7
v -2.9 1.1 -3.7
v -2.9 1.2 -3.7
v -2.9 1.4 -3.7
v -2.9 1.5 -3.7
v -2.8 1.1 -3.7
v -2.8 1.2 -3.7
v -2.8 1.4 -3.7
v -2.8 1.5 -3.7
v -3.6 1.2 -3.8
v -3.6 1.4 -3.8
v -3.5 1 -3.8
v -3.5 1.1 -3.8
v -3.5 1.2 -3.8
v -3.5 1.4 -3.8
v -3.5 1.5 -3.8
v -3.5 1.6 -3.8
v -3.4 1 -3.8
v -3.4 1.1 -3.8
v -3.4 1.5 -3.8
v -3.4 1.6 -3.8
v -3.3 1.6 -3.8
v -3.3 1.7 -3.8
v -3.1 1.6 -3.8
v -3.1 1.7 -3.8
v -3 1 -3.8
v -3 1.1 -3.8
v -3 1.5 -3.8
v -3 1.6 -3.8
v -2.9 1 -3.8
v -2.9 1.1 -3.8
v -2.9 1.2 -3.8
v -2.9 1.4 -3.8
v -2.9 1.5 -3.8
v -2.9 1.6 -3.8
v -2.8 1.2 -3.8
v -2.8 1.4 -3.8
v -3.5 1.1 -3.9
v -3.5 1.5 -3.9
v -3.4 1 -3.9
v -3.4 1.1 -3.9
v -3.4 1.2 -3.9
v -3.4 1.3 -3.9
v -3.4 1.4 -3.9
v -3.4 1.5 -3.9
v -3.4 1.6 -3.9
v -3.3 1.1 -3.9
v -3.3 1.2 -3.9
v -3.3 1.5 -3.9
v -3.1 1.1 -3.9
v -3.1 1.2 -3.9
v -3.1 1.5 -3.9
v -3 1 -3.9
v -3 1.1 -3.9
v -3 1.2 -3.9
v -3 1.3 -3.9
v -3 1.4 -3.9
v -3 1.5 -3.9
v -3 1.6 -3.9
v -2.9 1.1 -3.9
v -2.9 1.5 -3.9
v -3.4 1.2 -4
v -3.4 1.3 -4
v -3.4 1.4 -4
v -3.4 1.5 -4
v -3.3 1.2 -4
v -3.3 1.3 -4
v -3.3 1.4 -4
v -3.3 1.5 -4
v -3.1 1.2 -4
v -3.1 1.3 -4
v -3.1 1.4 -4
v -3.1 1.5 -4
v -3 1.2 -4
v -3 1.3 -4
v -3 1.4 -4
v -3 1.5 -4
v -3.3 1.3 -4.1
v -3.3 1.4 -4.1
v -3.1 1.3 -4.1
v -3.1 1.4 -4.1
v -3.4 1 -3.3
v -3 1 -3.3
v -3.5 1 -3.4
v -3.4 1 -3.4
v -3 1 -3.4
v -2.9 1 -3.4
v -3.5 1 -3.8
v -3.4 1 -3.8
v -3 1 -3.8
v -2.9 1 -3.8
v -3.4 1 -3.9
v -3 1 -3.9
v -3.3 1.1 -3.2
v -3.1 1.1 -3.2
v -3.5 1.1 -3.3
v -3.4 1.1 -3.3
v -3.3 1.1 -3.3
v -3.1 1.1 -3.3
v -3 1.1 -3.3
v -2.9 1.1 -3.3
v -3.5 1.1 -3.4
v -3.4 1.1 -3.4
v -3 1.1 -3.4
v -2.9 1.1 -3.4
v -3.6 1.1 -3.5
v -3.5 1.1 -3.5
v -2.9 1.1 -3.5
v -2.8 1.1 -3.5
v -3.6 1.1 -3.7
v -3.5 1.1 -3.7
v -2.9 1.1 -3.7
v -2.8 1.1 -3.7
v -3.5 1.1 -3.8
v -3.4 1.1 -3.8
v -3 1.1 -3.8
v -2.9 1.1 -3.8
v -3.5 1.1 -3.9
v -3.4 1.1 -3.9
v -3 1.1 -3.9
v -2.9 1.1 -3.9
v -3.4 1.2 -3.2
v -3.3 1.2 -3.2
v -3.1 1.2 -3.2
v -3 1.2 -3.2
v -3.4 1.2 -3.3
v -3.3 1.2 -3.3
v -3.1 1.2 -3.3
v -3 1.2 -3.3
v -3.6 1.2 -3.4
v -3.5 1.2 -3.4
v -2.9 1.2 -3.4
v -2.8 1.2 -3.4
v -3.6 1.2 -3.5
v -3.5 1.2 -3.5
v -2.9 1.2 -3.5
v -2.8 1.2 -3.5
v -3.6 1.2 -3.7
v -3.5 1.2 -3.7
v -2.9 1.2 -3.7
v -2.8 1.2 -3.7
v -3.6 1.2 -3.8
v -3.5 1.2 -3.8
v -2.9 1.2 -3.8
v -2.8 1.2 -3.8
v -3.4 1.2 -3.9
v -3.3 1.2 -3.9
v -3.1 1.2 -3.9
v -3 1.2 -3.9
v -3.4 1.2 -4
v -3.3 1.2 -4
v -3.1 1.2 -4
v -3 1.2 -4
v -3.3 1.3 -4
v -3.1 1.3 -4
v -3.3 1.3 -4.1
v -3.1 1.3 -4.1
v -3.4 1.4 -3.2
v -3.3 1.4 -3.2
v -3.1 1.4 -3.2
v -3 1.4 -3.2
v -3.4 1.4 -3.3
v -3.3 1.4 -3.3
v -3.1 1.4 -3.3
v -3 1.4 -3.3
v -3.6 1.4 -3.4
v -3.5 1.4 -3.4
v -2.9 1.4 -3.4
v -2.8 1.4 -3.4
v -3.6 1.4 -3.5
v -3.5 1.4 -3.5
v -2.9 1.4 -3.5
v -2.8 1.4 -3.5
v -3.6 1.4 -3.7
v -3.5 1.4 -3.7
v -2.9 1.4 -3.7
v -2.8 1.4 -3.7
v -3.6 1.4 -3.8
v -3.5 1.4 -3.8
v -2.9 1.4 -3.8
v -2.8 1.4 -3.8
v -3.3 1.4 -4
v -3.1 1.4 -4
v -3.3 1.4 -4.1
v -3.1 1.4 -4.1
v -3.3 1.5 -3.2
v -3.1 1.5 -3.2
v -3.5 1.5 -3.3
v -3.4 1.5 -3.3
v -3.3 1.5 -3.3
v -3.1 1.5 -3.3
v -3 1.5 -3.3
v -2.9 1.5 -3.3
v -3.5 1.5 -3.4
v -3.4 1.5 -3.4
v -3 1.5 -3.4
v -2.9 1.5 -3.4
v -3.6 1.5 -3.5
v -3.5 1.5 -3.5
v -2.9 1.5 -3.5
v -2.8 1.5 -3.5
v -3.6 1.5 -3.7
v -3.5 1.5 -3.7
v -2.9 1.5 -3.7
v -2.8 1.5 -3.7
v -3.5 1.5 -3.8
v -3.4 1.5 -3.8
v -3 1.5 -3.8
v -2.9 1.5 -3.8
v -3.5 1.5 -3.9
v -3.4 1.5 -3.9
v -3.3 1.5 -3.9
v -3.1 1.5 -3.9
v -3 1.5 -3.9
v -2.9 1.5 -3.9
v -3.4 1.5 -4
v -3.3 1.5 -4
v -3.1 1.5 -4
v -3 1.5 -4
v -3.4 1.6 -3.3
v -3 1.6 -3.3
v -3.5 1.6 -3.4
v -3.4 1.6 -3.4
v -3.3 1.6 -3.4
v -3.1 1.6 -3.4
v -3 1.6 -3.4
v -2.9 1.6 -3.4
v -3.4 1.6 -3.5
v -3.3 1.6 -3.5
v -3.1 1.6 -3.5
v -3 1.6 -3.5
v -3.4 1.6 -3.7
v -3.3 1.6 -3.7
v -3.1 1.6 -3.7
v -3 1.6 -3.7
v -3.5 1.6 -3.8
v -3.4 1.6 -3.8
v -3.3 1.6 -3.8
v -3.1 1.6 -3.8
v -3 1.6 -3.8
v -2.9 1.6 -3.8
v -3.4 1.6 -3.9
v -3 1.6 -3.9
v -3.3 1.7 -3.4
v -3.1 1.7 -3.4
v -3.4 1.7 -3.5
v -3.3 1.7 -3.5
v -3.1 1.7 -3.5
v -3 1.7 -3.5
v -3.4 1.7 -3.7
v -3.3 1.7 -3.7
v -3.1 1.7 -3.7
v -3 1.7 -3.7
v -3.3 1.7 -3.8
v -3.1 1.7 -3.8

# faces
f 4/5/1 2/5/1 1/5/1
f 5/5/1 2/5/1 4/5/1
f 7/5/1 4/5/1 3/5/1
f 7/5/1 6/5/1 5/5/1
f 7/5/1 5/5/1 4/5/1
f 8/5/1 6/5/1 7/5/1
f 9/5/1 6/5/1 8/5/1
f 10/5/1 6/5/1 9/5/1
f 11/5/1 9/5/1 8/5/1
f 12/5/1 9/5/1 11/5/1
f 16/5/1 14/5/1 13/5/1
f 17/5/1 14/5/1 16/5/1
f 18/5/1 14/5/1 17/5/1
f 19/5/1 14/5/1 18/5/1
f 21/5/1 16/5/1 15/5/1
f 21/5/1 17/5/1 16/5/1
f 22/5/1 17/5/1 21/5/1
f 23/5/1 20/5/1 19/5/1
f 23/5/1 19/5/1 18/5/1
f 24/5/1 20/5/1 23/5/1
f 25/5/1 21/5/1 15/5/1
f 28/5/1 20/5/1 24/5/1
f 29/5/1 26/5/1 25/5/1
f 29/5/1 25/5/1 15/5/1
f 30/5/1 26/5/1 29/5/1
f 31/5/1 26/5/1 30/5/1
f 32/5/1 28/5/1 27/5/1
f 33/5/1 20/5/1 28/5/1
f 33/5/1 28/5/1 32/5/1
f 34/5/1 20/5/1 33/5/1
f 35/5/1 31/5/1 30/5/1
f 35/5/1 32/5/1 31/5/1
f 35/5/1 33/5/1 32/5/1
f 36/5/1 33/5/1 35/5/1
f 41/5/1 38/5/1 37/5/1
f 42/5/1 38/5/1 41/5/1
f 43/5/1 40/5/1 39/5/1
f 44/5/1 40/5/1 43/5/1
f 49/1/1 48/1/1 47/1/1
f 50/1/1 48/1/1 49/1/1
f 51/5/1 46/5/1 45/5/1
f 52/5/1 46/5/1 51/5/1
f 53/5/1 50/5/1 49/5/1
f 54/5/1 50/5/1 53/5/1
f 58/4/1 54/4/1 53/4/1
f 59/4/1 54/4/1 58/4/1
f 60/5/1 56/5/1 55/5/1
f 61/5/1 56/5/1 60/5/1
f 64/5/1 58/5/1 57/5/1
f 65/5/1 58/5/1 64/5/1
f 66/5/1 63/5/1 62/5/1
f 67/5/1 63/5/1 66/5/1
f 70/5/1 69/5/1 68/5/1
f 71/5/1 69/5/1 70/5/1
f 76/2/1 73/2/1 72/2/1
f 77/2/1 73/2/1 76/2/1
f 78/5/1 75/5/1 74/5/1
f 79/5/1 75/5/1 78/5/1
f 84/5/1 81/5/1 80/5/1
f 85/5/1 81/5/1 84/5/1
f 86/5/1 83/5/1 82/5/1
f 87/5/1 83/5/1 86/5/1
f 88/5/2 89/5/2 90/5/2
f 90/5/2 89/5/2 91/5/2
f 92/2/2 93/2/2 96/2/2
f 96/2/2 93/2/2 97/2/2
f 94/5/2 95/5/2 98/5/2
f 98/5/2 95/5/2 99/5/2
f 100/5/2 101/5/2 104/5/2
f 104/5/2 101/5/2 105/5/2
f 102/5/2 103/5/2 106/5/2
f 106/5/2 103/5/2 107/5/2
f 108/5/2 109/5/2 112/5/2
f 112/5/2 109/5/2 113/5/2
f 110/5/2 111/5/2 114/5/2
f 114/5/2 111/5/2 115/5/2
f 118/1/2 119/1/2 120/1/2
f 120/1/2 119/1/2 121/1/2
f 116/5/2 117/5/2 122/5/2
f 122/5/2 117/5/2 123/5/2
f 120/5/2 121/5/2 124/5/2
f 124/5/2 121/5/2 125/5/2
f 124/4/2 125/4/2 129/4/2
f 129/4/2 125/4/2 130/4/2
f 126/5/2 127/5/2 131/5/2
f 131/5/2 127/5/2 132/5/2
f 128/5/2 129/5/2 135/5/2
f 135/5/2 129/5/2 136/5/2
f 133/5/2 134/5/2 137/5/2
f 137/5/2 134/5/2 138/5/2
f 139/5/2 140/5/2 142/5/2
f 142/5/2 140/5/2 143/5/2
f 143/5/2 140/5/2 144/5/2
f 144/5/2 140/5/2 145/5/2
f 141/5/2 142/5/2 147/5/2
f 142/5/2 143/5/2 147/5/2
f 147/5/2 143/5/2 148/5/2
f 145/5/2 146/5/2 149/5/2
f 144/5/2 145/5/2 149/5/2
f 149/5/2 146/5/2 150/5/2
f 141/5/2 147/5/2 151/5/2
f 150/5/2 146/5/2 154/5/2
f 151/5/2 152/5/2 155/5/2
f 141/5/2 151/5/2 155/5/2
f 155/5/2 152/5/2 156/5/2
f 156/5/2 152/5/2 157/5/2
f 153/5/2 154/5/2 158/5/2
f 154/5/2 146/5/2 159/5/2
f 158/5/2 154/5/2 159/5/2
f 159/5/2 146/5/2 160/5/2
f 156/5/2 157/5/2 161/5/2
f 157/5/2 158/5/2 161/5/2
f 158/5/2 159/5/2 161/5/2
f 161/5/2 159/5/2 162/5/2
f 163/5/2 164/5/2 166/5/2
f 166/5/2 164/5/2 167/5/2
f 165/5/2 166/5/2 169/5/2
f 167/5/2 168/5/2 169/5/2
f 166/5/2 167/5/2 169/5/2
f 169/5/2 168/5/2 170/5/2
f 170/5/2 168/5/2 171/5/2
f 171/5/2 168/5/2 172/5/2
f 170/5/2 171/5/2 173/5/2
f 173/5/2 171/5/2 174/5/2
f 178/5/3 176/5/3 175/5/3
f 179/5/3 176/5/3 178/5/3
f 181/5/3 178/5/3 177/5/3
f 181/5/3 180/5/3 179/5/3
f 181/5/3 179/5/3 178/5/3
f 182/5/3 180/5/3 181/5/3
f 183/5/3 180/5/3 182/5/3
f 184/5/3 180/5/3 183/5/3
f 185/5/3 183/5/3 182/5/3
f 186/5/3 183/5/3 185/5/3
f 190/5/3 188/5/3 187/5/3
f 191/5/3 188/5/3 190/5/3
f 192/5/3 188/5/3 191/5/3
f 193/5/3 188/5/3 192/5/3
f 195/5/3 190/5/3 189/5/3
f 195/5/3 191/5/3 190/5/3
f 196/5/3 191/5/3 195/5/3
f 197/5/3 194/5/3 193/5/3
f 197/5/3 193/5/3 192/5/3
f 198/5/3 194/5/3 197/5/3
f 199/5/3 195/5/3 189/5/3
f 202/5/3 194/5/3 198/5/3
f 203/5/3 200/5/3 199/5/3
f 203/5/3 199/5/3 189/5/3
f 204/5/3 200/5/3 203/5/3
f 205/5/3 200/5/3 204/5/3
f 206/5/3 202/5/3 201/5/3
f 207/5/3 194/5/3 202/5/3
f 207/5/3 202/5/3 206/5/3
f 208/5/3 194/5/3 207/5/3
f 209/5/3 205/5/3 204/5/3
f 209/5/3 206/5/3 205/5/3
f 209/5/3 207/5/3 206/5/3
f 210/5/3 207/5/3 209/5/3
f 215/5/3 212/5/3 211/5/3
f 216/5/3 212/5/3 215/5/3
f 219/5/3 214/5/3 213/5/3
f 220/5/3 214/5/3 219/5/3
f 221/5/3 218/5/3 217/5/3
f 222/5/3 218/5/3 221/5/3
f 225/5/3 224/5/3 223/5/3
f 226/5/3 224/5/3 225/5/3
f 231/5/3 228/5/3 227/5/3
f 232/5/3 228/5/3 231/5/3
f 235/5/3 230/5/3 229/5/3
f 236/5/3 230/5/3 235/5/3
f 237/5/3 234/5/3 233/5/3
f 238/5/3 234/5/3 237/5/3
f 243/5/3 240/5/3 239/5/3
f 244/5/3 240/5/3 243/5/3
f 245/5/3 242/5/3 241/5/3
f 246/5/3 242/5/3 245/5/3
f 249/5/3 248/5/3 247/5/3
f 250/5/3 248/5/3 249/5/3
f 253/5/3 252/5/3 251/5/3
f 254/5/3 252/5/3 253/5/3
f 259/5/3 256/5/3 255/5/3
f 260/5/3 256/5/3 259/5/3
f 261/5/3 258/5/3 257/5/3
f 262/5/3 258/5/3 261/5/3
f 263/5/4 264/5/4 267/5/4
f 267/5/4 264/5/4 268/5/4
f 265/5/4 266/5/4 269/5/4
f 269/5/4 266/5/4 270/5/4
f 271/5/4 272/5/4 273/5/4
f 273/5/4 272/5/4 274/5/4
f 275/5/4 276/5/4 277/5/4
f 277/5/4 276/5/4 278/5/4
f 279/5/4 280/5/4 283/5/4
f 283/5/4 280/5/4 284/5/4
f 281/5/4 282/5/4 285/5/4
f 285/5/4 282/5/4 286/5/4
f 287/5/4 288/5/4 291/5/4
f 291/5/4 288/5/4 292/5/4
f 289/5/4 290/5/4 295/5/4
f 295/5/4 290/5/4 296/5/4
f 293/5/4 294/5/4 297/5/4
f 297/5/4 294/5/4 298/5/4
f 299/5/4 300/5/4 301/5/4
f 301/5/4 300/5/4 302/5/4
f 303/5/4 304/5/4 307/5/4
f 307/5/4 304/5/4 308/5/4
f 305/5/4 306/5/4 311/5/4
f 311/5/4 306/5/4 312/5/4
f 309/5/4 310/5/4 313/5/4
f 313/5/4 310/5/4 314/5/4
f 315/5/4 316/5/4 318/5/4
f 318/5/4 316/5/4 319/5/4
f 319/5/4 316/5/4 320/5/4
f 320/5/4 316/5/4 321/5/4
f 321/5/4 316/5/4 322/5/4
f 317/5/4 318/5/4 324/5/4
f 318/5/4 319/5/4 324/5/4
f 324/5/4 319/5/4 325/5/4
f 322/5/4 323/5/4 326/5/4
f 324/1/4 325/1/4 327/1/4
f 317/5/4 324/5/4 327/5/4
f 327/1/4 325/1/4 328/1/4
f 326/5/4 323/5/4 329/5/4
f 327/5/4 328/5/4 330/5/4
f 317/5/4 327/5/4 330/5/4
f 330/5/4 328/5/4 331/5/4
f 331/5/4 328/5/4 332/5/4
f 329/5/4 323/5/4 335/5/4
f 335/5/4 323/5/4 336/5/4
f 333/5/4 334/5/4 337/5/4
f 334/5/4 335/5/4 337/5/4
f 331/5/4 332/5/4 337/5/4
f 332/5/4 333/5/4 337/5/4
f 337/5/4 335/5/4 338/5/4
f 339/1/4 340/1/4 343/1/4
f 340/5/4 341/5/4 344/5/4
f 343/1/4 340/1/4 344/1/4
f 341/4/4 342/4/4 345/4/4
f 344/5/4 341/5/4 345/5/4
f 345/4/4 342/4/4 346/4/4
f 343/5/4 344/5/4 347/5/4
f 347/5/4 344/5/4 348/5/4
f 345/5/4 346/5/4 349/5/4
f 349/5/4 346/5/4 350/5/4
f 347/1/4 348/1/4 351/1/4
f 348/5/4 349/5/4 352/5/4
f 351/1/4 348/1/4 352/1/4
f 349/4/4 350/4/4 353/4/4
f 352/5/4 349/5/4 353/5/4
f 353/4/4 350/4/4 354/4/4
f 355/2/4 356/2/4 357/2/4
f 357/2/4 356/2/4 358/2/4
f 362/5/5 360/5/5 359/5/5
f 363/5/5 360/5/5 362/5/5
f 365/5/5 362/5/5 361/5/5
f 365/5/5 364/5/5 363/5/5
f 365/5/5 363/5/5 362/5/5
f 366/5/5 364/5/5 365/5/5
f 367/5/5 364/5/5 366/5/5
f 368/5/5 364/5/5 367/5/5
f 369/5/5 367/5/5 366/5/5
f 370/5/5 367/5/5 369/5/5
f 375/5/5 372/5/5 371/5/5
f 376/5/5 372/5/5 375/5/5
f 379/5/5 374/5/5 373/5/5
f 380/5/5 374/5/5 379/5/5
f 381/5/5 378/5/5 377/5/5
f 382/5/5 378/5/5 381/5/5
f 387/5/5 384/5/5 383/5/5
f 388/5/5 384/5/5 387/5/5
f 389/5/5 386/5/5 385/5/5
f 390/5/5 386/5/5 389/5/5
f 395/5/5 392/5/5 391/5/5
f 396/5/5 392/5/5 395/5/5
f 397/5/5 394/5/5 393/5/5
f 398/5/5 394/5/5 397/5/5
f 403/5/5 400/5/5 399/5/5
f 404/5/5 400/5/5 403/5/5
f 405/5/5 402/5/5 401/5/5
f 406/5/5 402/5/5 405/5/5
f 411/5/5 408/5/5 407/5/5
f 412/5/5 408/5/5 411/5/5
f 413/5/5 410/5/5 409/5/5
f 414/5/5 410/5/5 413/5/5
f 419/5/5 416/5/5 415/5/5
f 420/5/5 416/5/5 419/5/5
f 421/5/5 418/5/5 417/5/5
f 422/5/5 418/5/5 421/5/5
f 427/1/5 424/1/5 423/1/5
f 428/5/5 425/5/5 424/5/5
f 428/1/5 424/1/5 427/1/5
f 429/1/5 426/1/5 425/1/5
f 429/5/5 425/5/5 428/5/5
f 430/1/5 426/1/5 429/1/5
f 433/2/5 432/2/5 431/2/5
f 434/2/5 432/2/5 433/2/5
f 435/5/6 436/5/6 439/5/6
f 439/5/6 436/5/6 440/5/6
f 437/5/6 438/5/6 441/5/6
f 441/5/6 438/5/6 442/5/6
f 443/5/6 444/5/6 447/5/6
f 447/5/6 444/5/6 448/5/6
f 445/5/6 446/5/6 449/5/6
f 449/5/6 446/5/6 450/5/6
f 451/5/6 452/5/6 455/5/6
f 455/5/6 452/5/6 456/5/6
f 453/5/6 454/5/6 457/5/6
f 457/5/6 454/5/6 458/5/6
f 459/2/6 460/2/6 461/2/6
f 461/2/6 460/2/6 462/2/6
f 463/5/6 464/5/6 467/5/6
f 467/5/6 464/5/6 468/5/6
f 465/5/6 466/5/6 471/5/6
f 471/5/6 466/5/6 472/5/6
f 469/5/6 470/5/6 473/5/6
f 473/5/6 470/5/6 474/5/6
f 475/5/6 476/5/6 479/5/6
f 479/5/6 476/5/6 480/5/6
f 477/5/6 478/5/6 481/5/6
f 481/5/6 478/5/6 482/5/6
f 483/5/6 484/5/6 487/5/6
f 487/5/6 484/5/6 488/5/6
f 485/5/6 486/5/6 491/5/6
f 491/5/6 486/5/6 492/5/6
f 488/4/6 489/4/6 493/4/6
f 489/5/6 490/5/6 494/5/6
f 493/4/6 489/4/6 494/4/6
f 490/4/6 491/4/6 495/4/6
f 494/5/6 490/5/6 495/5/6
f 495/4/6 491/4/6 496/4/6
f 497/5/6 498/5/6 500/5/6
f 500/5/6 498/5/6 501/5/6
f 501/5/6 498/5/6 502/5/6
f 502/5/6 498/5/6 503/5/6
f 499/5/6 500/5/6 505/5/6
f 500/5/6 501/5/6 505/5/6
f 505/5/6 501/5/6 506/5/6
f 503/5/6 504/5/6 507/5/6
f 502/5/6 503/5/6 507/5/6
f 507/5/6 504/5/6 508/5/6
f 499/5/6 505/5/6 509/5/6
f 508/5/6 504/5/6 512/5/6
f 509/5/6 510/5/6 513/5/6
f 499/5/6 509/5/6 513/5/6
f 513/5/6 510/5/6 514/5/6
f 514/5/6 510/5/6 515/5/6
f 511/5/6 512/5/6 516/5/6
f 512/5/6 504/5/6 517/5/6
f 516/5/6 512/5/6 517/5/6
f 517/5/6 504/5/6 518/5/6
f 514/5/6 515/5/6 519/5/6
f 515/5/6 516/5/6 519/5/6
f 516/5/6 517/5/6 519/5/6
f 519/5/6 517/5/6 520/5/6
f 521/5/6 522/5/6 524/5/6
f 524/5/6 522/5/6 525/5/6
f 523/5/6 524/5/6 527/5/6
f 525/5/6 526/5/6 527/5/6
f 524/5/6 525/5/6 527/5/6
f 527/5/6 526/5/6 528/5/6
f 528/5/6 526/5/6 529/5/6
f 529/5/6 526/5/6 530/5/6
f 528/5/6 529/5/6 531/5/6
f 531/5/6 529/5/6 532/5/6
