# MagicaVoxel @ Ephtracy

# group
o 

# material
mtllib Christmas-28.mtl
usemtl palette

# normals
vn -1 0 0
vn 1 0 0
vn 0 0 1
vn 0 0 -1
vn 0 -1 0
vn 0 1 0

# texcoords
vt 0.208984 0.5
vt 0.310547 0.5
vt 0.958984 0.5

# verts
v 0.4 1.1 -3.5
v 0.4 1.1 -3.7
v 0.4 1.2 -3.4
v 0.4 1.2 -3.5
v 0.4 1.2 -3.7
v 0.4 1.2 -3.8
v 0.4 1.4 -3.4
v 0.4 1.4 -3.5
v 0.4 1.4 -3.7
v 0.4 1.4 -3.8
v 0.4 1.5 -3.5
v 0.4 1.5 -3.7
v 0.5 1 -3.4
v 0.5 1 -3.8
v 0.5 1.1 -3.3
v 0.5 1.1 -3.4
v 0.5 1.1 -3.5
v 0.5 1.1 -3.7
v 0.5 1.1 -3.8
v 0.5 1.1 -3.9
v 0.5 1.2 -3.4
v 0.5 1.2 -3.5
v 0.5 1.2 -3.7
v 0.5 1.2 -3.8
v 0.5 1.2 -3.9
v 0.5 1.2 -4
v 0.5 1.3 -3.9
v 0.5 1.3 -4
v 0.5 1.4 -3.4
v 0.5 1.4 -3.5
v 0.5 1.4 -3.7
v 0.5 1.4 -3.8
v 0.5 1.5 -3.3
v 0.5 1.5 -3.4
v 0.5 1.5 -3.5
v 0.5 1.5 -3.7
v 0.5 1.5 -3.8
v 0.5 1.5 -3.9
v 0.5 1.6 -3.4
v 0.5 1.6 -3.8
v 0.6 1 -3.3
v 0.6 1 -3.4
v 0.6 1 -3.8
v 0.6 1 -3.9
v 0.6 1.1 -3.3
v 0.6 1.1 -3.4
v 0.6 1.1 -3.8
v 0.6 1.1 -3.9
v 0.6 1.1 -4
v 0.6 1.2 -3.2
v 0.6 1.2 -3.3
v 0.6 1.2 -3.9
v 0.6 1.2 -4
v 0.6 1.4 -3.2
v 0.6 1.4 -3.3
v 0.6 1.4 -3.9
v 0.6 1.4 -4
v 0.6 1.5 -3.3
v 0.6 1.5 -3.4
v 0.6 1.5 -3.8
v 0.6 1.5 -3.9
v 0.6 1.5 -4
v 0.6 1.6 -3.3
v 0.6 1.6 -3.4
v 0.6 1.6 -3.5
v 0.6 1.6 -3.7
v 0.6 1.6 -3.8
v 0.6 1.6 -3.9
v 0.6 1.7 -3.5
v 0.6 1.7 -3.7
v 0.7 1.1 -3.2
v 0.7 1.1 -3.3
v 0.7 1.2 -3.2
v 0.7 1.2 -3.3
v 0.7 1.3 -3.9
v 0.7 1.3 -4.2
v 0.7 1.4 -3.2
v 0.7 1.4 -3.3
v 0.7 1.4 -3.9
v 0.7 1.4 -4
v 0.7 1.4 -4.2
v 0.7 1.5 -3.2
v 0.7 1.5 -3.3
v 0.7 1.6 -3.4
v 0.7 1.6 -3.5
v 0.7 1.6 -3.7
v 0.7 1.6 -3.8
v 0.7 1.7 -3.4
v 0.7 1.7 -3.5
v 0.7 1.7 -3.7
v 0.7 1.7 -3.8
v 0.8 1.1 -3.9
v 0.8 1.1 -4
v 0.8 1.2 -3.9
v 0.8 1.2 -4
v 0.9 1.4 -3.9
v 0.9 1.4 -4
v 0.9 1.5 -3.9
v 0.9 1.5 -4
v 1 1.2 -3.9
v 1 1.2 -4
v 1 1.3 -3.9
v 1 1.3 -4
v 0.6 1.2 -3.9
v 0.6 1.2 -4
v 0.6 1.3 -3.9
v 0.6 1.3 -4
v 0.7 1.1 -3.9
v 0.7 1.1 -4
v 0.7 1.2 -3.9
v 0.7 1.2 -4
v 0.7 1.4 -3.9
v 0.7 1.4 -4
v 0.7 1.5 -3.9
v 0.7 1.5 -4
v 0.9 1.1 -3.2
v 0.9 1.1 -3.3
v 0.9 1.1 -3.9
v 0.9 1.1 -4
v 0.9 1.2 -3.2
v 0.9 1.2 -3.3
v 0.9 1.2 -3.9
v 0.9 1.2 -4
v 0.9 1.3 -3.9
v 0.9 1.3 -4.2
v 0.9 1.4 -3.2
v 0.9 1.4 -3.3
v 0.9 1.4 -3.9
v 0.9 1.4 -4
v 0.9 1.4 -4.2
v 0.9 1.5 -3.2
v 0.9 1.5 -3.3
v 0.9 1.6 -3.4
v 0.9 1.6 -3.5
v 0.9 1.6 -3.7
v 0.9 1.6 -3.8
v 0.9 1.7 -3.4
v 0.9 1.7 -3.5
v 0.9 1.7 -3.7
v 0.9 1.7 -3.8
v 1 1 -3.3
v 1 1 -3.4
v 1 1 -3.8
v 1 1 -3.9
v 1 1.1 -3.3
v 1 1.1 -3.4
v 1 1.1 -3.8
v 1 1.1 -3.9
v 1 1.2 -3.2
v 1 1.2 -3.3
v 1 1.4 -3.2
v 1 1.4 -3.3
v 1 1.4 -3.9
v 1 1.4 -4
v 1 1.5 -3.3
v 1 1.5 -3.4
v 1 1.5 -3.8
v 1 1.5 -3.9
v 1 1.5 -4
v 1 1.6 -3.3
v 1 1.6 -3.4
v 1 1.6 -3.5
v 1 1.6 -3.7
v 1 1.6 -3.8
v 1 1.6 -3.9
v 1 1.7 -3.5
v 1 1.7 -3.7
v 1.1 1 -3.4
v 1.1 1 -3.8
v 1.1 1.1 -3.3
v 1.1 1.1 -3.4
v 1.1 1.1 -3.5
v 1.1 1.1 -3.7
v 1.1 1.1 -3.8
v 1.1 1.1 -3.9
v 1.1 1.2 -3.4
v 1.1 1.2 -3.5
v 1.1 1.2 -3.7
v 1.1 1.2 -3.8
v 1.1 1.2 -3.9
v 1.1 1.2 -4
v 1.1 1.3 -3.9
v 1.1 1.3 -4
v 1.1 1.4 -3.4
v 1.1 1.4 -3.5
v 1.1 1.4 -3.7
v 1.1 1.4 -3.8
v 1.1 1.5 -3.3
v 1.1 1.5 -3.4
v 1.1 1.5 -3.5
v 1.1 1.5 -3.7
v 1.1 1.5 -3.8
v 1.1 1.5 -3.9
v 1.1 1.6 -3.4
v 1.1 1.6 -3.8
v 1.2 1.1 -3.5
v 1.2 1.1 -3.7
v 1.2 1.2 -3.4
v 1.2 1.2 -3.5
v 1.2 1.2 -3.7
v 1.2 1.2 -3.8
v 1.2 1.4 -3.4
v 1.2 1.4 -3.5
v 1.2 1.4 -3.7
v 1.2 1.4 -3.8
v 1.2 1.5 -3.5
v 1.2 1.5 -3.7
v 0.6 1.2 -3.2
v 0.6 1.4 -3.2
v 0.7 1.1 -3.2
v 0.7 1.2 -3.2
v 0.7 1.4 -3.2
v 0.7 1.5 -3.2
v 0.9 1.1 -3.2
v 0.9 1.2 -3.2
v 0.9 1.4 -3.2
v 0.9 1.5 -3.2
v 1 1.2 -3.2
v 1 1.4 -3.2
v 0.5 1.1 -3.3
v 0.5 1.5 -3.3
v 0.6 1 -3.3
v 0.6 1.1 -3.3
v 0.6 1.2 -3.3
v 0.6 1.4 -3.3
v 0.6 1.5 -3.3
v 0.6 1.6 -3.3
v 0.7 1.1 -3.3
v 0.7 1.2 -3.3
v 0.7 1.4 -3.3
v 0.7 1.5 -3.3
v 0.9 1.1 -3.3
v 0.9 1.2 -3.3
v 0.9 1.4 -3.3
v 0.9 1.5 -3.3
v 1 1 -3.3
v 1 1.1 -3.3
v 1 1.2 -3.3
v 1 1.4 -3.3
v 1 1.5 -3.3
v 1 1.6 -3.3
v 1.1 1.1 -3.3
v 1.1 1.5 -3.3
v 0.4 1.2 -3.4
v 0.4 1.4 -3.4
v 0.5 1 -3.4
v 0.5 1.1 -3.4
v 0.5 1.2 -3.4
v 0.5 1.4 -3.4
v 0.5 1.5 -3.4
v 0.5 1.6 -3.4
v 0.6 1 -3.4
v 0.6 1.1 -3.4
v 0.6 1.5 -3.4
v 0.6 1.6 -3.4
v 0.7 1.6 -3.4
v 0.7 1.7 -3.4
v 0.9 1.6 -3.4
v 0.9 1.7 -3.4
v 1 1 -3.4
v 1 1.1 -3.4
v 1 1.5 -3.4
v 1 1.6 -3.4
v 1.1 1 -3.4
v 1.1 1.1 -3.4
v 1.1 1.2 -3.4
v 1.1 1.4 -3.4
v 1.1 1.5 -3.4
v 1.1 1.6 -3.4
v 1.2 1.2 -3.4
v 1.2 1.4 -3.4
v 0.4 1.1 -3.5
v 0.4 1.2 -3.5
v 0.4 1.4 -3.5
v 0.4 1.5 -3.5
v 0.5 1.1 -3.5
v 0.5 1.2 -3.5
v 0.5 1.4 -3.5
v 0.5 1.5 -3.5
v 0.6 1.6 -3.5
v 0.6 1.7 -3.5
v 0.7 1.6 -3.5
v 0.7 1.7 -3.5
v 0.9 1.6 -3.5
v 0.9 1.7 -3.5
v 1 1.6 -3.5
v 1 1.7 -3.5
v 1.1 1.1 -3.5
v 1.1 1.2 -3.5
v 1.1 1.4 -3.5
v 1.1 1.5 -3.5
v 1.2 1.1 -3.5
v 1.2 1.2 -3.5
v 1.2 1.4 -3.5
v 1.2 1.5 -3.5
v 0.4 1.1 -3.7
v 0.4 1.2 -3.7
v 0.4 1.4 -3.7
v 0.4 1.5 -3.7
v 0.5 1.1 -3.7
v 0.5 1.2 -3.7
v 0.5 1.4 -3.7
v 0.5 1.5 -3.7
v 0.6 1.6 -3.7
v 0.6 1.7 -3.7
v 0.7 1.6 -3.7
v 0.7 1.7 -3.7
v 0.9 1.6 -3.7
v 0.9 1.7 -3.7
v 1 1.6 -3.7
v 1 1.7 -3.7
v 1.1 1.1 -3.7
v 1.1 1.2 -3.7
v 1.1 1.4 -3.7
v 1.1 1.5 -3.7
v 1.2 1.1 -3.7
v 1.2 1.2 -3.7
v 1.2 1.4 -3.7
v 1.2 1.5 -3.7
v 0.4 1.2 -3.8
v 0.4 1.4 -3.8
v 0.5 1 -3.8
v 0.5 1.1 -3.8
v 0.5 1.2 -3.8
v 0.5 1.4 -3.8
v 0.5 1.5 -3.8
v 0.5 1.6 -3.8
v 0.6 1 -3.8
v 0.6 1.1 -3.8
v 0.6 1.5 -3.8
v 0.6 1.6 -3.8
v 0.7 1.6 -3.8
v 0.7 1.7 -3.8
v 0.9 1.6 -3.8
v 0.9 1.7 -3.8
v 1 1 -3.8
v 1 1.1 -3.8
v 1 1.5 -3.8
v 1 1.6 -3.8
v 1.1 1 -3.8
v 1.1 1.1 -3.8
v 1.1 1.2 -3.8
v 1.1 1.4 -3.8
v 1.1 1.5 -3.8
v 1.1 1.6 -3.8
v 1.2 1.2 -3.8
v 1.2 1.4 -3.8
v 0.5 1.1 -3.9
v 0.5 1.2 -3.9
v 0.5 1.3 -3.9
v 0.5 1.5 -3.9
v 0.6 1 -3.9
v 0.6 1.1 -3.9
v 0.6 1.2 -3.9
v 0.6 1.3 -3.9
v 0.6 1.4 -3.9
v 0.6 1.5 -3.9
v 0.6 1.6 -3.9
v 0.7 1.1 -3.9
v 0.7 1.2 -3.9
v 0.7 1.3 -3.9
v 0.7 1.4 -3.9
v 0.7 1.5 -3.9
v 0.8 1.1 -3.9
v 0.8 1.2 -3.9
v 0.9 1.1 -3.9
v 0.9 1.2 -3.9
v 0.9 1.3 -3.9
v 0.9 1.4 -3.9
v 0.9 1.5 -3.9
v 1 1 -3.9
v 1 1.1 -3.9
v 1 1.2 -3.9
v 1 1.3 -3.9
v 1 1.4 -3.9
v 1 1.5 -3.9
v 1 1.6 -3.9
v 1.1 1.1 -3.9
v 1.1 1.2 -3.9
v 1.1 1.3 -3.9
v 1.1 1.5 -3.9
v 0.5 1.2 -4
v 0.5 1.3 -4
v 0.6 1.1 -4
v 0.6 1.2 -4
v 0.6 1.3 -4
v 0.6 1.4 -4
v 0.6 1.5 -4
v 0.7 1.1 -4
v 0.7 1.2 -4
v 0.7 1.4 -4
v 0.7 1.5 -4
v 0.8 1.1 -4
v 0.8 1.2 -4
v 0.9 1.1 -4
v 0.9 1.2 -4
v 0.9 1.4 -4
v 0.9 1.5 -4
v 1 1.2 -4
v 1 1.3 -4
v 1 1.4 -4
v 1 1.5 -4
v 1.1 1.2 -4
v 1.1 1.3 -4
v 0.7 1.3 -4.2
v 0.7 1.4 -4.2
v 0.9 1.3 -4.2
v 0.9 1.4 -4.2
v 0.6 1 -3.3
v 1 1 -3.3
v 0.5 1 -3.4
v 0.6 1 -3.4
v 1 1 -3.4
v 1.1 1 -3.4
v 0.5 1 -3.8
v 0.6 1 -3.8
v 1 1 -3.8
v 1.1 1 -3.8
v 0.6 1 -3.9
v 1 1 -3.9
v 0.7 1.1 -3.2
v 0.9 1.1 -3.2
v 0.5 1.1 -3.3
v 0.6 1.1 -3.3
v 0.7 1.1 -3.3
v 0.9 1.1 -3.3
v 1 1.1 -3.3
v 1.1 1.1 -3.3
v 0.5 1.1 -3.4
v 0.6 1.1 -3.4
v 1 1.1 -3.4
v 1.1 1.1 -3.4
v 0.4 1.1 -3.5
v 0.5 1.1 -3.5
v 1.1 1.1 -3.5
v 1.2 1.1 -3.5
v 0.4 1.1 -3.7
v 0.5 1.1 -3.7
v 1.1 1.1 -3.7
v 1.2 1.1 -3.7
v 0.5 1.1 -3.8
v 0.6 1.1 -3.8
v 1 1.1 -3.8
v 1.1 1.1 -3.8
v 0.5 1.1 -3.9
v 0.6 1.1 -3.9
v 0.7 1.1 -3.9
v 0.8 1.1 -3.9
v 0.9 1.1 -3.9
v 1 1.1 -3.9
v 1.1 1.1 -3.9
v 0.6 1.1 -4
v 0.7 1.1 -4
v 0.8 1.1 -4
v 0.9 1.1 -4
v 0.6 1.2 -3.2
v 0.7 1.2 -3.2
v 0.9 1.2 -3.2
v 1 1.2 -3.2
v 0.6 1.2 -3.3
v 0.7 1.2 -3.3
v 0.9 1.2 -3.3
v 1 1.2 -3.3
v 0.4 1.2 -3.4
v 0.5 1.2 -3.4
v 1.1 1.2 -3.4
v 1.2 1.2 -3.4
v 0.4 1.2 -3.5
v 0.5 1.2 -3.5
v 1.1 1.2 -3.5
v 1.2 1.2 -3.5
v 0.4 1.2 -3.7
v 0.5 1.2 -3.7
v 1.1 1.2 -3.7
v 1.2 1.2 -3.7
v 0.4 1.2 -3.8
v 0.5 1.2 -3.8
v 1.1 1.2 -3.8
v 1.2 1.2 -3.8
v 0.5 1.2 -3.9
v 0.6 1.2 -3.9
v 1 1.2 -3.9
v 1.1 1.2 -3.9
v 0.5 1.2 -4
v 0.6 1.2 -4
v 1 1.2 -4
v 1.1 1.2 -4
v 0.7 1.3 -3.9
v 0.9 1.3 -3.9
v 0.7 1.3 -4.2
v 0.9 1.3 -4.2
v 0.6 1.4 -3.9
v 0.7 1.4 -3.9
v 0.9 1.4 -3.9
v 1 1.4 -3.9
v 0.6 1.4 -4
v 0.7 1.4 -4
v 0.9 1.4 -4
v 1 1.4 -4
v 0.6 1.2 -3.9
v 0.7 1.2 -3.9
v 0.8 1.2 -3.9
v 0.9 1.2 -3.9
v 0.6 1.2 -4
v 0.7 1.2 -4
v 0.8 1.2 -4
v 0.9 1.2 -4
v 0.5 1.3 -3.9
v 0.6 1.3 -3.9
v 1 1.3 -3.9
v 1.1 1.3 -3.9
v 0.5 1.3 -4
v 0.6 1.3 -4
v 1 1.3 -4
v 1.1 1.3 -4
v 0.6 1.4 -3.2
v 0.7 1.4 -3.2
v 0.9 1.4 -3.2
v 1 1.4 -3.2
v 0.6 1.4 -3.3
v 0.7 1.4 -3.3
v 0.9 1.4 -3.3
v 1 1.4 -3.3
v 0.4 1.4 -3.4
v 0.5 1.4 -3.4
v 1.1 1.4 -3.4
v 1.2 1.4 -3.4
v 0.4 1.4 -3.5
v 0.5 1.4 -3.5
v 1.1 1.4 -3.5
v 1.2 1.4 -3.5
v 0.4 1.4 -3.7
v 0.5 1.4 -3.7
v 1.1 1.4 -3.7
v 1.2 1.4 -3.7
v 0.4 1.4 -3.8
v 0.5 1.4 -3.8
v 1.1 1.4 -3.8
v 1.2 1.4 -3.8
v 0.7 1.4 -3.9
v 0.9 1.4 -3.9
v 0.7 1.4 -4
v 0.9 1.4 -4
v 0.7 1.4 -4.2
v 0.9 1.4 -4.2
v 0.7 1.5 -3.2
v 0.9 1.5 -3.2
v 0.5 1.5 -3.3
v 0.6 1.5 -3.3
v 0.7 1.5 -3.3
v 0.9 1.5 -3.3
v 1 1.5 -3.3
v 1.1 1.5 -3.3
v 0.5 1.5 -3.4
v 0.6 1.5 -3.4
v 1 1.5 -3.4
v 1.1 1.5 -3.4
v 0.4 1.5 -3.5
v 0.5 1.5 -3.5
v 1.1 1.5 -3.5
v 1.2 1.5 -3.5
v 0.4 1.5 -3.7
v 0.5 1.5 -3.7
v 1.1 1.5 -3.7
v 1.2 1.5 -3.7
v 0.5 1.5 -3.8
v 0.6 1.5 -3.8
v 1 1.5 -3.8
v 1.1 1.5 -3.8
v 0.5 1.5 -3.9
v 0.6 1.5 -3.9
v 0.7 1.5 -3.9
v 0.9 1.5 -3.9
v 1 1.5 -3.9
v 1.1 1.5 -3.9
v 0.6 1.5 -4
v 0.7 1.5 -4
v 0.9 1.5 -4
v 1 1.5 -4
v 0.6 1.6 -3.3
v 1 1.6 -3.3
v 0.5 1.6 -3.4
v 0.6 1.6 -3.4
v 0.7 1.6 -3.4
v 0.9 1.6 -3.4
v 1 1.6 -3.4
v 1.1 1.6 -3.4
v 0.6 1.6 -3.5
v 0.7 1.6 -3.5
v 0.9 1.6 -3.5
v 1 1.6 -3.5
v 0.6 1.6 -3.7
v 0.7 1.6 -3.7
v 0.9 1.6 -3.7
v 1 1.6 -3.7
v 0.5 1.6 -3.8
v 0.6 1.6 -3.8
v 0.7 1.6 -3.8
v 0.9 1.6 -3.8
v 1 1.6 -3.8
v 1.1 1.6 -3.8
v 0.6 1.6 -3.9
v 1 1.6 -3.9
v 0.7 1.7 -3.4
v 0.9 1.7 -3.4
v 0.6 1.7 -3.5
v 0.7 1.7 -3.5
v 0.9 1.7 -3.5
v 1 1.7 -3.5
v 0.6 1.7 -3.7
v 0.7 1.7 -3.7
v 0.9 1.7 -3.7
v 1 1.7 -3.7
v 0.7 1.7 -3.8
v 0.9 1.7 -3.8

# faces
f 4/3/1 2/3/1 1/3/1
f 5/3/1 2/3/1 4/3/1
f 7/3/1 4/3/1 3/3/1
f 7/3/1 6/3/1 5/3/1
f 7/3/1 5/3/1 4/3/1
f 8/3/1 6/3/1 7/3/1
f 9/3/1 6/3/1 8/3/1
f 10/3/1 6/3/1 9/3/1
f 11/3/1 9/3/1 8/3/1
f 12/3/1 9/3/1 11/3/1
f 16/3/1 14/3/1 13/3/1
f 17/3/1 14/3/1 16/3/1
f 18/3/1 14/3/1 17/3/1
f 19/3/1 14/3/1 18/3/1
f 21/3/1 16/3/1 15/3/1
f 21/3/1 17/3/1 16/3/1
f 22/3/1 17/3/1 21/3/1
f 23/3/1 20/3/1 19/3/1
f 23/3/1 19/3/1 18/3/1
f 24/3/1 20/3/1 23/3/1
f 25/3/1 20/3/1 24/3/1
f 27/2/1 26/2/1 25/2/1
f 27/3/1 25/3/1 24/3/1
f 28/2/1 26/2/1 27/2/1
f 29/3/1 21/3/1 15/3/1
f 32/3/1 27/3/1 24/3/1
f 33/3/1 30/3/1 29/3/1
f 33/3/1 29/3/1 15/3/1
f 34/3/1 30/3/1 33/3/1
f 35/3/1 30/3/1 34/3/1
f 36/3/1 32/3/1 31/3/1
f 37/3/1 27/3/1 32/3/1
f 37/3/1 32/3/1 36/3/1
f 38/3/1 27/3/1 37/3/1
f 39/3/1 35/3/1 34/3/1
f 39/3/1 36/3/1 35/3/1
f 39/3/1 37/3/1 36/3/1
f 40/3/1 37/3/1 39/3/1
f 45/3/1 42/3/1 41/3/1
f 46/3/1 42/3/1 45/3/1
f 47/3/1 44/3/1 43/3/1
f 48/3/1 44/3/1 47/3/1
f 52/2/1 49/2/1 48/2/1
f 53/2/1 49/2/1 52/2/1
f 54/3/1 51/3/1 50/3/1
f 55/3/1 51/3/1 54/3/1
f 61/2/1 57/2/1 56/2/1
f 62/2/1 57/2/1 61/2/1
f 63/3/1 59/3/1 58/3/1
f 64/3/1 59/3/1 63/3/1
f 67/3/1 61/3/1 60/3/1
f 68/3/1 61/3/1 67/3/1
f 69/3/1 66/3/1 65/3/1
f 70/3/1 66/3/1 69/3/1
f 73/3/1 72/3/1 71/3/1
f 74/3/1 72/3/1 73/3/1
f 79/1/1 76/1/1 75/1/1
f 80/1/1 76/1/1 79/1/1
f 81/1/1 76/1/1 80/1/1
f 82/3/1 78/3/1 77/3/1
f 83/3/1 78/3/1 82/3/1
f 88/3/1 85/3/1 84/3/1
f 89/3/1 85/3/1 88/3/1
f 90/3/1 87/3/1 86/3/1
f 91/3/1 87/3/1 90/3/1
f 94/2/1 93/2/1 92/2/1
f 95/2/1 93/2/1 94/2/1
f 98/2/1 97/2/1 96/2/1
f 99/2/1 97/2/1 98/2/1
f 102/2/1 101/2/1 100/2/1
f 103/2/1 101/2/1 102/2/1
f 104/2/2 105/2/2 106/2/2
f 106/2/2 105/2/2 107/2/2
f 108/2/2 109/2/2 110/2/2
f 110/2/2 109/2/2 111/2/2
f 112/2/2 113/2/2 114/2/2
f 114/2/2 113/2/2 115/2/2
f 116/3/2 117/3/2 120/3/2
f 120/3/2 117/3/2 121/3/2
f 118/2/2 119/2/2 122/2/2
f 122/2/2 119/2/2 123/2/2
f 124/1/2 125/1/2 128/1/2
f 128/1/2 125/1/2 129/1/2
f 129/1/2 125/1/2 130/1/2
f 126/3/2 127/3/2 131/3/2
f 131/3/2 127/3/2 132/3/2
f 133/3/2 134/3/2 137/3/2
f 137/3/2 134/3/2 138/3/2
f 135/3/2 136/3/2 139/3/2
f 139/3/2 136/3/2 140/3/2
f 141/3/2 142/3/2 145/3/2
f 145/3/2 142/3/2 146/3/2
f 143/3/2 144/3/2 147/3/2
f 147/3/2 144/3/2 148/3/2
f 149/3/2 150/3/2 151/3/2
f 151/3/2 150/3/2 152/3/2
f 153/2/2 154/2/2 158/2/2
f 158/2/2 154/2/2 159/2/2
f 155/3/2 156/3/2 160/3/2
f 160/3/2 156/3/2 161/3/2
f 157/3/2 158/3/2 164/3/2
f 164/3/2 158/3/2 165/3/2
f 162/3/2 163/3/2 166/3/2
f 166/3/2 163/3/2 167/3/2
f 168/3/2 169/3/2 171/3/2
f 171/3/2 169/3/2 172/3/2
f 172/3/2 169/3/2 173/3/2
f 173/3/2 169/3/2 174/3/2
f 170/3/2 171/3/2 176/3/2
f 171/3/2 172/3/2 176/3/2
f 176/3/2 172/3/2 177/3/2
f 174/3/2 175/3/2 178/3/2
f 173/3/2 174/3/2 178/3/2
f 178/3/2 175/3/2 179/3/2
f 179/3/2 175/3/2 180/3/2
f 180/2/2 181/2/2 182/2/2
f 179/3/2 180/3/2 182/3/2
f 182/2/2 181/2/2 183/2/2
f 170/3/2 176/3/2 184/3/2
f 179/3/2 182/3/2 187/3/2
f 184/3/2 185/3/2 188/3/2
f 170/3/2 184/3/2 188/3/2
f 188/3/2 185/3/2 189/3/2
f 189/3/2 185/3/2 190/3/2
f 186/3/2 187/3/2 191/3/2
f 187/3/2 182/3/2 192/3/2
f 191/3/2 187/3/2 192/3/2
f 192/3/2 182/3/2 193/3/2
f 189/3/2 190/3/2 194/3/2
f 190/3/2 191/3/2 194/3/2
f 191/3/2 192/3/2 194/3/2
f 194/3/2 192/3/2 195/3/2
f 196/3/2 197/3/2 199/3/2
f 199/3/2 197/3/2 200/3/2
f 198/3/2 199/3/2 202/3/2
f 200/3/2 201/3/2 202/3/2
f 199/3/2 200/3/2 202/3/2
f 202/3/2 201/3/2 203/3/2
f 203/3/2 201/3/2 204/3/2
f 204/3/2 201/3/2 205/3/2
f 203/3/2 204/3/2 206/3/2
f 206/3/2 204/3/2 207/3/2
f 211/3/3 209/3/3 208/3/3
f 212/3/3 209/3/3 211/3/3
f 214/3/3 211/3/3 210/3/3
f 214/3/3 213/3/3 212/3/3
f 214/3/3 212/3/3 211/3/3
f 215/3/3 213/3/3 214/3/3
f 216/3/3 213/3/3 215/3/3
f 217/3/3 213/3/3 216/3/3
f 218/3/3 216/3/3 215/3/3
f 219/3/3 216/3/3 218/3/3
f 223/3/3 221/3/3 220/3/3
f 224/3/3 221/3/3 223/3/3
f 225/3/3 221/3/3 224/3/3
f 226/3/3 221/3/3 225/3/3
f 228/3/3 223/3/3 222/3/3
f 228/3/3 224/3/3 223/3/3
f 229/3/3 224/3/3 228/3/3
f 230/3/3 227/3/3 226/3/3
f 230/3/3 226/3/3 225/3/3
f 231/3/3 227/3/3 230/3/3
f 232/3/3 228/3/3 222/3/3
f 235/3/3 227/3/3 231/3/3
f 236/3/3 233/3/3 232/3/3
f 236/3/3 232/3/3 222/3/3
f 237/3/3 233/3/3 236/3/3
f 238/3/3 233/3/3 237/3/3
f 239/3/3 235/3/3 234/3/3
f 240/3/3 227/3/3 235/3/3
f 240/3/3 235/3/3 239/3/3
f 241/3/3 227/3/3 240/3/3
f 242/3/3 238/3/3 237/3/3
f 242/3/3 239/3/3 238/3/3
f 242/3/3 240/3/3 239/3/3
f 243/3/3 240/3/3 242/3/3
f 248/3/3 245/3/3 244/3/3
f 249/3/3 245/3/3 248/3/3
f 252/3/3 247/3/3 246/3/3
f 253/3/3 247/3/3 252/3/3
f 254/3/3 251/3/3 250/3/3
f 255/3/3 251/3/3 254/3/3
f 258/3/3 257/3/3 256/3/3
f 259/3/3 257/3/3 258/3/3
f 264/3/3 261/3/3 260/3/3
f 265/3/3 261/3/3 264/3/3
f 268/3/3 263/3/3 262/3/3
f 269/3/3 263/3/3 268/3/3
f 270/3/3 267/3/3 266/3/3
f 271/3/3 267/3/3 270/3/3
f 276/3/3 273/3/3 272/3/3
f 277/3/3 273/3/3 276/3/3
f 278/3/3 275/3/3 274/3/3
f 279/3/3 275/3/3 278/3/3
f 282/3/3 281/3/3 280/3/3
f 283/3/3 281/3/3 282/3/3
f 286/3/3 285/3/3 284/3/3
f 287/3/3 285/3/3 286/3/3
f 292/3/3 289/3/3 288/3/3
f 293/3/3 289/3/3 292/3/3
f 294/3/3 291/3/3 290/3/3
f 295/3/3 291/3/3 294/3/3
f 296/3/4 297/3/4 300/3/4
f 300/3/4 297/3/4 301/3/4
f 298/3/4 299/3/4 302/3/4
f 302/3/4 299/3/4 303/3/4
f 304/3/4 305/3/4 306/3/4
f 306/3/4 305/3/4 307/3/4
f 308/3/4 309/3/4 310/3/4
f 310/3/4 309/3/4 311/3/4
f 312/3/4 313/3/4 316/3/4
f 316/3/4 313/3/4 317/3/4
f 314/3/4 315/3/4 318/3/4
f 318/3/4 315/3/4 319/3/4
f 320/3/4 321/3/4 324/3/4
f 324/3/4 321/3/4 325/3/4
f 322/3/4 323/3/4 328/3/4
f 328/3/4 323/3/4 329/3/4
f 326/3/4 327/3/4 330/3/4
f 330/3/4 327/3/4 331/3/4
f 332/3/4 333/3/4 334/3/4
f 334/3/4 333/3/4 335/3/4
f 336/3/4 337/3/4 340/3/4
f 340/3/4 337/3/4 341/3/4
f 338/3/4 339/3/4 344/3/4
f 344/3/4 339/3/4 345/3/4
f 342/3/4 343/3/4 346/3/4
f 346/3/4 343/3/4 347/3/4
f 348/3/4 349/3/4 353/3/4
f 353/3/4 349/3/4 354/3/4
f 350/3/4 351/3/4 355/3/4
f 355/3/4 351/3/4 356/3/4
f 356/3/4 351/3/4 357/3/4
f 352/3/4 353/3/4 359/3/4
f 355/3/4 356/3/4 360/3/4
f 354/3/4 355/3/4 360/3/4
f 360/3/4 356/3/4 361/3/4
f 361/3/4 356/3/4 362/3/4
f 357/3/4 358/3/4 363/3/4
f 352/3/4 359/3/4 364/3/4
f 359/3/4 360/3/4 364/3/4
f 360/3/4 361/3/4 364/3/4
f 364/3/4 361/3/4 365/3/4
f 352/3/4 364/3/4 366/3/4
f 365/3/4 361/3/4 367/3/4
f 367/3/4 361/3/4 368/3/4
f 362/3/4 363/3/4 369/3/4
f 363/3/4 358/3/4 370/3/4
f 369/3/4 363/3/4 370/3/4
f 367/3/4 368/3/4 371/3/4
f 368/3/4 369/3/4 371/3/4
f 352/3/4 366/3/4 371/3/4
f 366/3/4 367/3/4 371/3/4
f 371/3/4 369/3/4 372/3/4
f 372/3/4 369/3/4 373/3/4
f 373/3/4 369/3/4 374/3/4
f 374/3/4 369/3/4 375/3/4
f 370/3/4 358/3/4 376/3/4
f 376/3/4 358/3/4 377/3/4
f 372/3/4 373/3/4 378/3/4
f 378/3/4 373/3/4 379/3/4
f 374/3/4 375/3/4 380/3/4
f 375/3/4 376/3/4 380/3/4
f 380/3/4 376/3/4 381/3/4
f 382/2/4 383/2/4 385/2/4
f 385/2/4 383/2/4 386/2/4
f 384/2/4 385/2/4 389/2/4
f 389/2/4 385/2/4 390/2/4
f 387/2/4 388/2/4 391/2/4
f 391/2/4 388/2/4 392/2/4
f 393/2/4 394/2/4 395/2/4
f 395/2/4 394/2/4 396/2/4
f 397/2/4 398/2/4 401/2/4
f 401/2/4 398/2/4 402/2/4
f 399/2/4 400/2/4 403/2/4
f 403/2/4 400/2/4 404/2/4
f 405/1/4 406/1/4 407/1/4
f 407/1/4 406/1/4 408/1/4
f 412/3/5 410/3/5 409/3/5
f 413/3/5 410/3/5 412/3/5
f 415/3/5 412/3/5 411/3/5
f 415/3/5 414/3/5 413/3/5
f 415/3/5 413/3/5 412/3/5
f 416/3/5 414/3/5 415/3/5
f 417/3/5 414/3/5 416/3/5
f 418/3/5 414/3/5 417/3/5
f 419/3/5 417/3/5 416/3/5
f 420/3/5 417/3/5 419/3/5
f 425/3/5 422/3/5 421/3/5
f 426/3/5 422/3/5 425/3/5
f 429/3/5 424/3/5 423/3/5
f 430/3/5 424/3/5 429/3/5
f 431/3/5 428/3/5 427/3/5
f 432/3/5 428/3/5 431/3/5
f 437/3/5 434/3/5 433/3/5
f 438/3/5 434/3/5 437/3/5
f 439/3/5 436/3/5 435/3/5
f 440/3/5 436/3/5 439/3/5
f 445/3/5 442/3/5 441/3/5
f 446/3/5 442/3/5 445/3/5
f 450/3/5 444/3/5 443/3/5
f 451/3/5 444/3/5 450/3/5
f 452/2/5 447/2/5 446/2/5
f 453/2/5 447/2/5 452/2/5
f 454/2/5 449/2/5 448/2/5
f 455/2/5 449/2/5 454/2/5
f 460/3/5 457/3/5 456/3/5
f 461/3/5 457/3/5 460/3/5
f 462/3/5 459/3/5 458/3/5
f 463/3/5 459/3/5 462/3/5
f 468/3/5 465/3/5 464/3/5
f 469/3/5 465/3/5 468/3/5
f 470/3/5 467/3/5 466/3/5
f 471/3/5 467/3/5 470/3/5
f 476/3/5 473/3/5 472/3/5
f 477/3/5 473/3/5 476/3/5
f 478/3/5 475/3/5 474/3/5
f 479/3/5 475/3/5 478/3/5
f 484/2/5 481/2/5 480/2/5
f 485/2/5 481/2/5 484/2/5
f 486/2/5 483/2/5 482/2/5
f 487/2/5 483/2/5 486/2/5
f 490/1/5 489/1/5 488/1/5
f 491/1/5 489/1/5 490/1/5
f 496/2/5 493/2/5 492/2/5
f 497/2/5 493/2/5 496/2/5
f 498/2/5 495/2/5 494/2/5
f 499/2/5 495/2/5 498/2/5
f 500/2/6 501/2/6 504/2/6
f 504/2/6 501/2/6 505/2/6
f 502/2/6 503/2/6 506/2/6
f 506/2/6 503/2/6 507/2/6
f 508/2/6 509/2/6 512/2/6
f 512/2/6 509/2/6 513/2/6
f 510/2/6 511/2/6 514/2/6
f 514/2/6 511/2/6 515/2/6
f 516/3/6 517/3/6 520/3/6
f 520/3/6 517/3/6 521/3/6
f 518/3/6 519/3/6 522/3/6
f 522/3/6 519/3/6 523/3/6
f 524/3/6 525/3/6 528/3/6
f 528/3/6 525/3/6 529/3/6
f 526/3/6 527/3/6 530/3/6
f 530/3/6 527/3/6 531/3/6
f 532/3/6 533/3/6 536/3/6
f 536/3/6 533/3/6 537/3/6
f 534/3/6 535/3/6 538/3/6
f 538/3/6 535/3/6 539/3/6
f 540/1/6 541/1/6 542/1/6
f 542/1/6 541/1/6 543/1/6
f 542/1/6 543/1/6 544/1/6
f 544/1/6 543/1/6 545/1/6
f 546/3/6 547/3/6 550/3/6
f 550/3/6 547/3/6 551/3/6
f 548/3/6 549/3/6 554/3/6
f 554/3/6 549/3/6 555/3/6
f 552/3/6 553/3/6 556/3/6
f 556/3/6 553/3/6 557/3/6
f 558/3/6 559/3/6 562/3/6
f 562/3/6 559/3/6 563/3/6
f 560/3/6 561/3/6 564/3/6
f 564/3/6 561/3/6 565/3/6
f 566/3/6 567/3/6 570/3/6
f 570/3/6 567/3/6 571/3/6
f 568/3/6 569/3/6 574/3/6
f 574/3/6 569/3/6 575/3/6
f 571/2/6 572/2/6 576/2/6
f 576/2/6 572/2/6 577/2/6
f 573/2/6 574/2/6 578/2/6
f 578/2/6 574/2/6 579/2/6
f 580/3/6 581/3/6 583/3/6
f 583/3/6 581/3/6 584/3/6
f 584/3/6 581/3/6 585/3/6
f 585/3/6 581/3/6 586/3/6
f 582/3/6 583/3/6 588/3/6
f 583/3/6 584/3/6 588/3/6
f 588/3/6 584/3/6 589/3/6
f 586/3/6 587/3/6 590/3/6
f 585/3/6 586/3/6 590/3/6
f 590/3/6 587/3/6 591/3/6
f 582/3/6 588/3/6 592/3/6
f 591/3/6 587/3/6 595/3/6
f 592/3/6 593/3/6 596/3/6
f 582/3/6 592/3/6 596/3/6
f 596/3/6 593/3/6 597/3/6
f 597/3/6 593/3/6 598/3/6
f 594/3/6 595/3/6 599/3/6
f 595/3/6 587/3/6 600/3/6
f 599/3/6 595/3/6 600/3/6
f 600/3/6 587/3/6 601/3/6
f 597/3/6 598/3/6 602/3/6
f 598/3/6 599/3/6 602/3/6
f 599/3/6 600/3/6 602/3/6
f 602/3/6 600/3/6 603/3/6
f 604/3/6 605/3/6 607/3/6
f 607/3/6 605/3/6 608/3/6
f 606/3/6 607/3/6 610/3/6
f 608/3/6 609/3/6 610/3/6
f 607/3/6 608/3/6 610/3/6
f 610/3/6 609/3/6 611/3/6
f 611/3/6 609/3/6 612/3/6
f 612/3/6 609/3/6 613/3/6
f 611/3/6 612/3/6 614/3/6
f 614/3/6 612/3/6 615/3/6
