# MagicaVoxel @ Ephtracy

# group
o 

# material
mtllib Picnic_Drink.mtl
usemtl palette

# normals
vn -1 0 0
vn 1 0 0
vn 0 0 1
vn 0 0 -1
vn 0 -1 0
vn 0 1 0

# texcoords
vt 0.669922 0.5
vt 0.697266 0.5
vt 0.716797 0.5

# verts
v -0.2 0 -1.49012e-008
v -0.2 0 -0.1
v -0.2 0.2 -1.49012e-008
v -0.2 0.2 -0.1
v -0.2 0.4 -1.49012e-008
v -0.2 0.4 -0.1
v -0.2 0.5 -1.49012e-008
v -0.2 0.5 -0.1
v -0.1 0 0.1
v -0.1 0 -1.49012e-008
v -0.1 0 -0.1
v -0.1 0 -0.2
v -0.1 0.2 0.1
v -0.1 0.2 -1.49012e-008
v -0.1 0.2 -0.1
v -0.1 0.2 -0.2
v -0.1 0.4 0.1
v -0.1 0.4 -1.49012e-008
v -0.1 0.4 -0.1
v -0.1 0.4 -0.2
v -0.1 0.5 0.1
v -0.1 0.5 -1.49012e-008
v -0.1 0.5 -0.1
v -0.1 0.5 -0.2
v -0.1 0.7 -1.49012e-008
v -0.1 0.7 -0.1
v -0.1 0.8 -1.49012e-008
v -0.1 0.8 -0.1
v 0 0 0.1
v 0 0 -1.49012e-008
v 0 0 -0.1
v 0 0 -0.2
v 0 0.2 0.1
v 0 0.2 -1.49012e-008
v 0 0.2 -0.1
v 0 0.2 -0.2
v 0 0.4 0.1
v 0 0.4 -1.49012e-008
v 0 0.4 -0.1
v 0 0.4 -0.2
v 0 0.5 0.1
v 0 0.5 -1.49012e-008
v 0 0.5 -0.1
v 0 0.5 -0.2
v 0 0.7 -1.49012e-008
v 0 0.7 -0.1
v 0 0.8 -1.49012e-008
v 0 0.8 -0.1
v 0.1 0 -1.49012e-008
v 0.1 0 -0.1
v 0.1 0.2 -1.49012e-008
v 0.1 0.2 -0.1
v 0.1 0.4 -1.49012e-008
v 0.1 0.4 -0.1
v 0.1 0.5 -1.49012e-008
v 0.1 0.5 -0.1
v -0.1 0 0.1
v -0.1 0.2 0.1
v -0.1 0.4 0.1
v -0.1 0.5 0.1
v 0 0 0.1
v 0 0.2 0.1
v 0 0.4 0.1
v 0 0.5 0.1
v -0.2 0 -1.49012e-008
v -0.2 0.2 -1.49012e-008
v -0.2 0.4 -1.49012e-008
v -0.2 0.5 -1.49012e-008
v -0.1 0 -1.49012e-008
v -0.1 0.2 -1.49012e-008
v -0.1 0.4 -1.49012e-008
v -0.1 0.5 -1.49012e-008
v -0.1 0.7 -1.49012e-008
v -0.1 0.8 -1.49012e-008
v 0 0 -1.49012e-008
v 0 0.2 -1.49012e-008
v 0 0.4 -1.49012e-008
v 0 0.5 -1.49012e-008
v 0 0.7 -1.49012e-008
v 0 0.8 -1.49012e-008
v 0.1 0 -1.49012e-008
v 0.1 0.2 -1.49012e-008
v 0.1 0.4 -1.49012e-008
v 0.1 0.5 -1.49012e-008
v -0.2 0 -0.1
v -0.2 0.2 -0.1
v -0.2 0.4 -0.1
v -0.2 0.5 -0.1
v -0.1 0 -0.1
v -0.1 0.2 -0.1
v -0.1 0.4 -0.1
v -0.1 0.5 -0.1
v -0.1 0.7 -0.1
v -0.1 0.8 -0.1
v 0 0 -0.1
v 0 0.2 -0.1
v 0 0.4 -0.1
v 0 0.5 -0.1
v 0 0.7 -0.1
v 0 0.8 -0.1
v 0.1 0 -0.1
v 0.1 0.2 -0.1
v 0.1 0.4 -0.1
v 0.1 0.5 -0.1
v -0.1 0 -0.2
v -0.1 0.2 -0.2
v -0.1 0.4 -0.2
v -0.1 0.5 -0.2
v 0 0 -0.2
v 0 0.2 -0.2
v 0 0.4 -0.2
v 0 0.5 -0.2
v -0.1 0 0.1
v 0 0 0.1
v -0.2 0 -1.49012e-008
v -0.1 0 -1.49012e-008
v 0 0 -1.49012e-008
v 0.1 0 -1.49012e-008
v -0.2 0 -0.1
v -0.1 0 -0.1
v 0 0 -0.1
v 0.1 0 -0.1
v -0.1 0 -0.2
v 0 0 -0.2
v -0.1 0.5 0.1
v 0 0.5 0.1
v -0.2 0.5 -1.49012e-008
v -0.1 0.5 -1.49012e-008
v 0 0.5 -1.49012e-008
v 0.1 0.5 -1.49012e-008
v -0.2 0.5 -0.1
v -0.1 0.5 -0.1
v 0 0.5 -0.1
v 0.1 0.5 -0.1
v -0.1 0.5 -0.2
v 0 0.5 -0.2
v -0.1 0.8 -1.49012e-008
v 0 0.8 -1.49012e-008
v -0.1 0.8 -0.1
v 0 0.8 -0.1

# faces
f 3/1/1 2/1/1 1/1/1
f 4/1/1 2/1/1 3/1/1
f 5/2/1 4/2/1 3/2/1
f 6/2/1 4/2/1 5/2/1
f 7/1/1 6/1/1 5/1/1
f 8/1/1 6/1/1 7/1/1
f 13/1/1 10/1/1 9/1/1
f 14/1/1 10/1/1 13/1/1
f 15/1/1 12/1/1 11/1/1
f 16/1/1 12/1/1 15/1/1
f 17/2/1 14/2/1 13/2/1
f 18/2/1 14/2/1 17/2/1
f 19/2/1 16/2/1 15/2/1
f 20/2/1 16/2/1 19/2/1
f 21/1/1 18/1/1 17/1/1
f 22/1/1 18/1/1 21/1/1
f 23/1/1 20/1/1 19/1/1
f 24/1/1 20/1/1 23/1/1
f 25/1/1 23/1/1 22/1/1
f 26/1/1 23/1/1 25/1/1
f 27/3/1 26/3/1 25/3/1
f 28/3/1 26/3/1 27/3/1
f 29/1/2 30/1/2 33/1/2
f 33/1/2 30/1/2 34/1/2
f 31/1/2 32/1/2 35/1/2
f 35/1/2 32/1/2 36/1/2
f 33/2/2 34/2/2 37/2/2
f 37/2/2 34/2/2 38/2/2
f 35/2/2 36/2/2 39/2/2
f 39/2/2 36/2/2 40/2/2
f 37/1/2 38/1/2 41/1/2
f 41/1/2 38/1/2 42/1/2
f 39/1/2 40/1/2 43/1/2
f 43/1/2 40/1/2 44/1/2
f 42/1/2 43/1/2 45/1/2
f 45/1/2 43/1/2 46/1/2
f 45/3/2 46/3/2 47/3/2
f 47/3/2 46/3/2 48/3/2
f 49/1/2 50/1/2 51/1/2
f 51/1/2 50/1/2 52/1/2
f 51/2/2 52/2/2 53/2/2
f 53/2/2 52/2/2 54/2/2
f 53/1/2 54/1/2 55/1/2
f 55/1/2 54/1/2 56/1/2
f 61/1/3 58/1/3 57/1/3
f 62/2/3 59/2/3 58/2/3
f 62/1/3 58/1/3 61/1/3
f 63/1/3 60/1/3 59/1/3
f 63/2/3 59/2/3 62/2/3
f 64/1/3 60/1/3 63/1/3
f 69/1/3 66/1/3 65/1/3
f 70/2/3 67/2/3 66/2/3
f 70/1/3 66/1/3 69/1/3
f 71/1/3 68/1/3 67/1/3
f 71/2/3 67/2/3 70/2/3
f 72/1/3 68/1/3 71/1/3
f 78/1/3 73/1/3 72/1/3
f 79/3/3 74/3/3 73/3/3
f 79/1/3 73/1/3 78/1/3
f 80/3/3 74/3/3 79/3/3
f 81/1/3 76/1/3 75/1/3
f 82/2/3 77/2/3 76/2/3
f 82/1/3 76/1/3 81/1/3
f 83/1/3 78/1/3 77/1/3
f 83/2/3 77/2/3 82/2/3
f 84/1/3 78/1/3 83/1/3
f 85/1/4 86/1/4 89/1/4
f 86/2/4 87/2/4 90/2/4
f 89/1/4 86/1/4 90/1/4
f 87/1/4 88/1/4 91/1/4
f 90/2/4 87/2/4 91/2/4
f 91/1/4 88/1/4 92/1/4
f 92/1/4 93/1/4 98/1/4
f 93/3/4 94/3/4 99/3/4
f 98/1/4 93/1/4 99/1/4
f 99/3/4 94/3/4 100/3/4
f 95/1/4 96/1/4 101/1/4
f 96/2/4 97/2/4 102/2/4
f 101/1/4 96/1/4 102/1/4
f 97/1/4 98/1/4 103/1/4
f 102/2/4 97/2/4 103/2/4
f 103/1/4 98/1/4 104/1/4
f 105/1/4 106/1/4 109/1/4
f 106/2/4 107/2/4 110/2/4
f 109/1/4 106/1/4 110/1/4
f 107/1/4 108/1/4 111/1/4
f 110/2/4 107/2/4 111/2/4
f 111/1/4 108/1/4 112/1/4
f 116/1/5 114/1/5 113/1/5
f 117/1/5 114/1/5 116/1/5
f 119/1/5 116/1/5 115/1/5
f 119/1/5 118/1/5 117/1/5
f 119/1/5 117/1/5 116/1/5
f 120/1/5 118/1/5 119/1/5
f 121/1/5 118/1/5 120/1/5
f 122/1/5 118/1/5 121/1/5
f 123/1/5 121/1/5 120/1/5
f 124/1/5 121/1/5 123/1/5
f 125/1/6 126/1/6 128/1/6
f 128/1/6 126/1/6 129/1/6
f 127/1/6 128/1/6 131/1/6
f 131/1/6 128/1/6 132/1/6
f 129/1/6 130/1/6 133/1/6
f 133/1/6 130/1/6 134/1/6
f 132/1/6 133/1/6 135/1/6
f 135/1/6 133/1/6 136/1/6
f 137/3/6 138/3/6 139/3/6
f 139/3/6 138/3/6 140/3/6
