# MagicaVoxel @ Ephtracy

# group
o 

# material
mtllib Picnic_Food_Steak_Cooked.mtl
usemtl palette

# normals
vn -1 0 0
vn 1 0 0
vn 0 0 1
vn 0 0 -1
vn 0 -1 0
vn 0 1 0

# texcoords
vt 0.701172 0.5
vt 0.705078 0.5
vt 0.708984 0.5
vt 0.712891 0.5

# verts
v -0.4 0 0.3
v -0.4 0 0
v -0.4 0.1 0.3
v -0.4 0.1 0
v -0.3 0 0.4
v -0.3 0 0.3
v -0.3 0 0
v -0.3 0 -0.1
v -0.3 0.1 0.4
v -0.3 0.1 0.3
v -0.3 0.1 0
v -0.3 0.1 -0.1
v -0.2 0 -0.1
v -0.2 0 -0.2
v -0.2 0.1 -0.1
v -0.2 0.1 -0.2
v -0.1 0 -0.2
v -0.1 0 -0.3
v -0.1 0.1 -0.2
v -0.1 0.1 -0.3
v 0.1 0 0.4
v 0.1 0 0.3
v 0.1 0 -0.2
v 0.1 0 -0.3
v 0.1 0.1 0.4
v 0.1 0.1 0.3
v 0.1 0.1 -0.2
v 0.1 0.1 -0.3
v 0.2 0 0.3
v 0.2 0 0.1
v 0.2 0 -0.1
v 0.2 0 -0.2
v 0.2 0.1 0.3
v 0.2 0.1 0.1
v 0.2 0.1 -0.1
v 0.2 0.1 -0.2
v 0.3 0 0.1
v 0.3 0 -0.1
v 0.3 0.1 0.1
v 0.3 0.1 -0.1
v -0.3 0 0.4
v -0.3 0.1 0.4
v 0.1 0 0.4
v 0.1 0.1 0.4
v -0.4 0 0.3
v -0.4 0.1 0.3
v -0.3 0 0.3
v -0.3 0.1 0.3
v 0.1 0 0.3
v 0.1 0.1 0.3
v 0.2 0 0.3
v 0.2 0.1 0.3
v 0.2 0 0.1
v 0.2 0.1 0.1
v 0.3 0 0.1
v 0.3 0.1 0.1
v -0.4 0 0
v -0.4 0.1 0
v -0.3 0 0
v -0.3 0.1 0
v -0.3 0 -0.1
v -0.3 0.1 -0.1
v -0.2 0 -0.1
v -0.2 0.1 -0.1
v 0.2 0 -0.1
v 0.2 0.1 -0.1
v 0.3 0 -0.1
v 0.3 0.1 -0.1
v -0.2 0 -0.2
v -0.2 0.1 -0.2
v -0.1 0 -0.2
v -0.1 0.1 -0.2
v 0.1 0 -0.2
v 0.1 0.1 -0.2
v 0.2 0 -0.2
v 0.2 0.1 -0.2
v -0.1 0 -0.3
v -0.1 0.1 -0.3
v 0.1 0 -0.3
v 0.1 0.1 -0.3
v -0.3 0 0.4
v 0.1 0 0.4
v -0.4 0 0.3
v -0.3 0 0.3
v -0.2 0 0.3
v -0.1 0 0.3
v 0 0 0.3
v 0.1 0 0.3
v 0.2 0 0.3
v -0.3 0 0.2
v -0.2 0 0.2
v -0.1 0 0.2
v 0 0 0.2
v 0.1 0 0.2
v -0.3 0 0.1
v -0.2 0 0.1
v -0.1 0 0.1
v 0 0 0.1
v 0.1 0 0.1
v 0.2 0 0.1
v 0.3 0 0.1
v -0.4 0 0
v -0.3 0 0
v -0.2 0 0
v -0.1 0 0
v 0 0 0
v 0.1 0 0
v 0.2 0 0
v -0.3 0 -0.1
v -0.2 0 -0.1
v -0.1 0 -0.1
v 0 0 -0.1
v 0.1 0 -0.1
v 0.2 0 -0.1
v 0.3 0 -0.1
v -0.2 0 -0.2
v -0.1 0 -0.2
v 0 0 -0.2
v 0.1 0 -0.2
v 0.2 0 -0.2
v -0.1 0 -0.3
v 0.1 0 -0.3
v -0.3 0.1 0.4
v 0.1 0.1 0.4
v -0.4 0.1 0.3
v -0.3 0.1 0.3
v -0.2 0.1 0.3
v -0.1 0.1 0.3
v 0 0.1 0.3
v 0.1 0.1 0.3
v 0.2 0.1 0.3
v -0.3 0.1 0.2
v -0.2 0.1 0.2
v -0.1 0.1 0.2
v 0 0.1 0.2
v 0.1 0.1 0.2
v -0.3 0.1 0.1
v -0.2 0.1 0.1
v -0.1 0.1 0.1
v 0 0.1 0.1
v 0.1 0.1 0.1
v 0.2 0.1 0.1
v 0.3 0.1 0.1
v -0.4 0.1 0
v -0.3 0.1 0
v -0.2 0.1 0
v -0.1 0.1 0
v 0 0.1 0
v 0.1 0.1 0
v 0.2 0.1 0
v -0.3 0.1 -0.1
v -0.2 0.1 -0.1
v -0.1 0.1 -0.1
v 0 0.1 -0.1
v 0.1 0.1 -0.1
v 0.2 0.1 -0.1
v 0.3 0.1 -0.1
v -0.2 0.1 -0.2
v -0.1 0.1 -0.2
v 0 0.1 -0.2
v 0.1 0.1 -0.2
v 0.2 0.1 -0.2
v -0.1 0.1 -0.3
v 0.1 0.1 -0.3

# faces
f 3/3/1 2/3/1 1/3/1
f 4/3/1 2/3/1 3/3/1
f 9/3/1 6/3/1 5/3/1
f 10/3/1 6/3/1 9/3/1
f 11/3/1 8/3/1 7/3/1
f 12/3/1 8/3/1 11/3/1
f 15/3/1 14/3/1 13/3/1
f 16/3/1 14/3/1 15/3/1
f 19/3/1 18/3/1 17/3/1
f 20/3/1 18/3/1 19/3/1
f 21/3/2 22/3/2 25/3/2
f 25/3/2 22/3/2 26/3/2
f 23/3/2 24/3/2 27/3/2
f 27/3/2 24/3/2 28/3/2
f 29/3/2 30/3/2 33/3/2
f 33/3/2 30/3/2 34/3/2
f 31/3/2 32/3/2 35/3/2
f 35/3/2 32/3/2 36/3/2
f 37/3/2 38/3/2 39/3/2
f 39/3/2 38/3/2 40/3/2
f 43/3/3 42/3/3 41/3/3
f 44/3/3 42/3/3 43/3/3
f 47/3/3 46/3/3 45/3/3
f 48/3/3 46/3/3 47/3/3
f 51/3/3 50/3/3 49/3/3
f 52/3/3 50/3/3 51/3/3
f 55/3/3 54/3/3 53/3/3
f 56/3/3 54/3/3 55/3/3
f 57/3/4 58/3/4 59/3/4
f 59/3/4 58/3/4 60/3/4
f 61/3/4 62/3/4 63/3/4
f 63/3/4 62/3/4 64/3/4
f 65/3/4 66/3/4 67/3/4
f 67/3/4 66/3/4 68/3/4
f 69/3/4 70/3/4 71/3/4
f 71/3/4 70/3/4 72/3/4
f 73/3/4 74/3/4 75/3/4
f 75/3/4 74/3/4 76/3/4
f 77/3/4 78/3/4 79/3/4
f 79/3/4 78/3/4 80/3/4
f 84/3/5 82/3/5 81/3/5
f 85/3/5 82/3/5 84/3/5
f 86/3/5 82/3/5 85/3/5
f 87/3/5 82/3/5 86/3/5
f 88/3/5 82/3/5 87/3/5
f 90/3/5 84/3/5 83/3/5
f 90/2/5 85/2/5 84/2/5
f 91/4/5 86/4/5 85/4/5
f 91/2/5 85/2/5 90/2/5
f 92/2/5 87/2/5 86/2/5
f 92/4/5 86/4/5 91/4/5
f 93/4/5 88/4/5 87/4/5
f 93/2/5 87/2/5 92/2/5
f 94/3/5 89/3/5 88/3/5
f 94/4/5 88/4/5 93/4/5
f 95/3/5 90/3/5 83/3/5
f 95/4/5 91/4/5 90/4/5
f 96/1/5 92/1/5 91/1/5
f 96/4/5 91/4/5 95/4/5
f 97/4/5 93/4/5 92/4/5
f 97/1/5 92/1/5 96/1/5
f 98/2/5 94/2/5 93/2/5
f 98/4/5 93/4/5 97/4/5
f 99/3/5 89/3/5 94/3/5
f 99/2/5 94/2/5 98/2/5
f 100/3/5 89/3/5 99/3/5
f 102/3/5 95/3/5 83/3/5
f 103/2/5 96/2/5 95/2/5
f 103/3/5 95/3/5 102/3/5
f 104/4/5 97/4/5 96/4/5
f 104/2/5 96/2/5 103/2/5
f 105/2/5 98/2/5 97/2/5
f 105/4/5 97/4/5 104/4/5
f 106/4/5 99/4/5 98/4/5
f 106/2/5 98/2/5 105/2/5
f 107/2/5 100/2/5 99/2/5
f 107/4/5 99/4/5 106/4/5
f 108/3/5 101/3/5 100/3/5
f 108/2/5 100/2/5 107/2/5
f 109/3/5 104/3/5 103/3/5
f 110/2/5 105/2/5 104/2/5
f 110/3/5 104/3/5 109/3/5
f 111/4/5 106/4/5 105/4/5
f 111/2/5 105/2/5 110/2/5
f 112/2/5 107/2/5 106/2/5
f 112/4/5 106/4/5 111/4/5
f 113/4/5 108/4/5 107/4/5
f 113/2/5 107/2/5 112/2/5
f 114/3/5 101/3/5 108/3/5
f 114/4/5 108/4/5 113/4/5
f 115/3/5 101/3/5 114/3/5
f 116/3/5 111/3/5 110/3/5
f 117/2/5 112/2/5 111/2/5
f 117/3/5 111/3/5 116/3/5
f 118/4/5 113/4/5 112/4/5
f 118/2/5 112/2/5 117/2/5
f 119/3/5 114/3/5 113/3/5
f 119/4/5 113/4/5 118/4/5
f 120/3/5 114/3/5 119/3/5
f 121/3/5 118/3/5 117/3/5
f 121/3/5 119/3/5 118/3/5
f 122/3/5 119/3/5 121/3/5
f 123/3/6 124/3/6 126/3/6
f 126/3/6 124/3/6 127/3/6
f 127/3/6 124/3/6 128/3/6
f 128/3/6 124/3/6 129/3/6
f 129/3/6 124/3/6 130/3/6
f 125/3/6 126/3/6 132/3/6
f 126/2/6 127/2/6 132/2/6
f 127/4/6 128/4/6 133/4/6
f 132/2/6 127/2/6 133/2/6
f 128/2/6 129/2/6 134/2/6
f 133/4/6 128/4/6 134/4/6
f 129/4/6 130/4/6 135/4/6
f 134/2/6 129/2/6 135/2/6
f 130/3/6 131/3/6 136/3/6
f 135/4/6 130/4/6 136/4/6
f 125/3/6 132/3/6 137/3/6
f 132/4/6 133/4/6 137/4/6
f 133/1/6 134/1/6 138/1/6
f 137/4/6 133/4/6 138/4/6
f 134/4/6 135/4/6 139/4/6
f 138/1/6 134/1/6 139/1/6
f 135/2/6 136/2/6 140/2/6
f 139/4/6 135/4/6 140/4/6
f 136/3/6 131/3/6 141/3/6
f 140/2/6 136/2/6 141/2/6
f 141/3/6 131/3/6 142/3/6
f 125/3/6 137/3/6 144/3/6
f 137/2/6 138/2/6 145/2/6
f 144/3/6 137/3/6 145/3/6
f 138/4/6 139/4/6 146/4/6
f 145/2/6 138/2/6 146/2/6
f 139/2/6 140/2/6 147/2/6
f 146/4/6 139/4/6 147/4/6
f 140/4/6 141/4/6 148/4/6
f 147/2/6 140/2/6 148/2/6
f 141/2/6 142/2/6 149/2/6
f 148/4/6 141/4/6 149/4/6
f 142/3/6 143/3/6 150/3/6
f 149/2/6 142/2/6 150/2/6
f 145/3/6 146/3/6 151/3/6
f 146/2/6 147/2/6 152/2/6
f 151/3/6 146/3/6 152/3/6
f 147/4/6 148/4/6 153/4/6
f 152/2/6 147/2/6 153/2/6
f 148/2/6 149/2/6 154/2/6
f 153/4/6 148/4/6 154/4/6
f 149/4/6 150/4/6 155/4/6
f 154/2/6 149/2/6 155/2/6
f 150/3/6 143/3/6 156/3/6
f 155/4/6 150/4/6 156/4/6
f 156/3/6 143/3/6 157/3/6
f 152/3/6 153/3/6 158/3/6
f 153/2/6 154/2/6 159/2/6
f 158/3/6 153/3/6 159/3/6
f 154/4/6 155/4/6 160/4/6
f 159/2/6 154/2/6 160/2/6
f 155/3/6 156/3/6 161/3/6
f 160/4/6 155/4/6 161/4/6
f 161/3/6 156/3/6 162/3/6
f 159/3/6 160/3/6 163/3/6
f 160/3/6 161/3/6 163/3/6
f 163/3/6 161/3/6 164/3/6
