# MagicaVoxel @ Ephtracy

# group
o 

# material
mtllib Animal_Dog_02.mtl
usemtl palette

# normals
vn -1 0 0
vn 1 0 0
vn 0 0 1
vn 0 0 -1
vn 0 -1 0
vn 0 1 0

# texcoords
vt 0.318359 0.5
vt 0.322266 0.5
vt 0.333984 0.5

# verts
v -0.3 0 0.1
v -0.3 0 -0.2
v -0.3 0.1 0.1
v -0.3 0.1 0
v -0.3 0.3 0
v -0.3 0.3 -0.2
v -0.3 0.4 0.4
v -0.3 0.4 0.2
v -0.3 0.7 0.4
v -0.3 0.7 0.2
v -0.2 0 0.5
v -0.2 0 0.3
v -0.2 0.1 0.5
v -0.2 0.1 0.4
v -0.2 0.1 0.3
v -0.2 0.1 0.1
v -0.2 0.1 0
v -0.2 0.2 0.4
v -0.2 0.2 0.3
v -0.2 0.2 -0.2
v -0.2 0.2 -0.3
v -0.2 0.3 0
v -0.2 0.3 -0.2
v -0.2 0.3 -0.3
v -0.2 0.4 0.5
v -0.2 0.4 0.4
v -0.2 0.4 0.2
v -0.2 0.4 0.1
v -0.2 0.4 -0.2
v -0.2 0.6 0.5
v -0.2 0.6 0.4
v -0.2 0.7 0.5
v -0.2 0.7 0.4
v -0.2 0.7 0.2
v -0.2 0.8 0.5
v -0.2 0.8 0.1
v -0.1 0.1 -0.2
v -0.1 0.1 -0.3
v -0.1 0.2 -0.2
v -0.1 0.2 -0.3
v -0.1 0.2 -0.4
v -0.1 0.3 -0.2
v -0.1 0.3 -0.3
v -0.1 0.3 -0.4
v -0.1 0.3 -0.5
v -0.1 0.4 0.1
v -0.1 0.4 0
v -0.1 0.4 -0.2
v -0.1 0.4 -0.3
v -0.1 0.5 0.6
v -0.1 0.5 0.5
v -0.1 0.5 0.1
v -0.1 0.5 0
v -0.1 0.5 -0.3
v -0.1 0.5 -0.4
v -0.1 0.5 -0.5
v -0.1 0.6 0.6
v -0.1 0.6 0.5
v -0.1 0.6 -0.3
v -0.1 0.6 -0.4
v 0 0 0.5
v 0 0 0.3
v 0 0.1 0.5
v 0 0.1 0.4
v 0 0.1 0.3
v 0.1 0 0.1
v 0.1 0 -0.2
v 0.1 0.1 0.1
v 0.1 0.1 -0.2
v -0.2 0 0.1
v -0.2 0 -0.2
v -0.2 0.1 0.1
v -0.2 0.1 -0.2
v -0.1 0 0.5
v -0.1 0 0.3
v -0.1 0.1 0.5
v -0.1 0.1 0.4
v -0.1 0.1 0.3
v 0 0.1 -0.2
v 0 0.1 -0.3
v 0 0.2 -0.2
v 0 0.2 -0.3
v 0 0.2 -0.4
v 0 0.3 -0.2
v 0 0.3 -0.3
v 0 0.3 -0.4
v 0 0.3 -0.5
v 0 0.4 0.1
v 0 0.4 0
v 0 0.4 -0.2
v 0 0.4 -0.3
v 0 0.5 0.6
v 0 0.5 0.5
v 0 0.5 0.1
v 0 0.5 0
v 0 0.5 -0.3
v 0 0.5 -0.4
v 0 0.5 -0.5
v 0 0.6 0.6
v 0 0.6 0.5
v 0 0.6 -0.3
v 0 0.6 -0.4
v 0.1 0 0.5
v 0.1 0 0.3
v 0.1 0.1 0.5
v 0.1 0.1 0.4
v 0.1 0.1 0.3
v 0.1 0.1 0.1
v 0.1 0.1 0
v 0.1 0.2 0.4
v 0.1 0.2 0.3
v 0.1 0.2 -0.2
v 0.1 0.2 -0.3
v 0.1 0.3 0
v 0.1 0.3 -0.2
v 0.1 0.3 -0.3
v 0.1 0.4 0.5
v 0.1 0.4 0.4
v 0.1 0.4 0.2
v 0.1 0.4 0.1
v 0.1 0.4 -0.2
v 0.1 0.6 0.5
v 0.1 0.6 0.4
v 0.1 0.7 0.5
v 0.1 0.7 0.4
v 0.1 0.7 0.2
v 0.1 0.8 0.5
v 0.1 0.8 0.1
v 0.2 0 0.1
v 0.2 0 -0.2
v 0.2 0.1 0.1
v 0.2 0.1 0
v 0.2 0.3 0
v 0.2 0.3 -0.2
v 0.2 0.4 0.4
v 0.2 0.4 0.2
v 0.2 0.7 0.4
v 0.2 0.7 0.2
v -0.1 0.5 0.6
v -0.1 0.6 0.6
v 0 0.5 0.6
v 0 0.6 0.6
v -0.2 0 0.5
v -0.2 0.1 0.5
v -0.2 0.4 0.5
v -0.2 0.6 0.5
v -0.2 0.7 0.5
v -0.2 0.8 0.5
v -0.1 0 0.5
v -0.1 0.1 0.5
v -0.1 0.5 0.5
v -0.1 0.6 0.5
v -0.1 0.7 0.5
v 0 0 0.5
v 0 0.1 0.5
v 0 0.5 0.5
v 0 0.6 0.5
v 0 0.7 0.5
v 0.1 0 0.5
v 0.1 0.1 0.5
v 0.1 0.4 0.5
v 0.1 0.6 0.5
v 0.1 0.7 0.5
v 0.1 0.8 0.5
v -0.3 0.4 0.4
v -0.3 0.7 0.4
v -0.2 0.1 0.4
v -0.2 0.2 0.4
v -0.2 0.4 0.4
v -0.2 0.6 0.4
v -0.2 0.7 0.4
v -0.1 0.1 0.4
v -0.1 0.2 0.4
v 0 0.1 0.4
v 0 0.2 0.4
v 0.1 0.1 0.4
v 0.1 0.2 0.4
v 0.1 0.4 0.4
v 0.1 0.6 0.4
v 0.1 0.7 0.4
v 0.2 0.4 0.4
v 0.2 0.7 0.4
v -0.3 0 0.1
v -0.3 0.1 0.1
v -0.2 0 0.1
v -0.2 0.1 0.1
v 0.1 0 0.1
v 0.1 0.1 0.1
v 0.2 0 0.1
v 0.2 0.1 0.1
v -0.3 0.1 0
v -0.3 0.3 0
v -0.2 0.1 0
v -0.2 0.3 0
v 0.1 0.1 0
v 0.1 0.3 0
v 0.2 0.1 0
v 0.2 0.3 0
v -0.1 0.5 -0.3
v -0.1 0.6 -0.3
v 0 0.5 -0.3
v 0 0.6 -0.3
v -0.1 0.3 -0.4
v -0.1 0.5 -0.4
v 0 0.3 -0.4
v 0 0.5 -0.4
v -0.2 0 0.3
v -0.2 0.1 0.3
v -0.1 0 0.3
v -0.1 0.1 0.3
v 0 0 0.3
v 0 0.1 0.3
v 0.1 0 0.3
v 0.1 0.1 0.3
v -0.3 0.4 0.2
v -0.3 0.7 0.2
v -0.2 0.4 0.2
v -0.2 0.7 0.2
v 0.1 0.4 0.2
v 0.1 0.7 0.2
v 0.2 0.4 0.2
v 0.2 0.7 0.2
v -0.2 0.4 0.1
v -0.2 0.8 0.1
v -0.1 0.4 0.1
v -0.1 0.5 0.1
v 0 0.4 0.1
v 0 0.5 0.1
v 0.1 0.4 0.1
v 0.1 0.8 0.1
v -0.1 0.4 0
v -0.1 0.5 0
v 0 0.4 0
v 0 0.5 0
v -0.3 0 -0.2
v -0.3 0.3 -0.2
v -0.2 0 -0.2
v -0.2 0.1 -0.2
v -0.2 0.2 -0.2
v -0.2 0.3 -0.2
v -0.2 0.4 -0.2
v -0.1 0.1 -0.2
v -0.1 0.2 -0.2
v -0.1 0.3 -0.2
v -0.1 0.4 -0.2
v 0 0.1 -0.2
v 0 0.2 -0.2
v 0 0.3 -0.2
v 0 0.4 -0.2
v 0.1 0 -0.2
v 0.1 0.1 -0.2
v 0.1 0.2 -0.2
v 0.1 0.3 -0.2
v 0.1 0.4 -0.2
v 0.2 0 -0.2
v 0.2 0.3 -0.2
v -0.2 0.2 -0.3
v -0.2 0.3 -0.3
v -0.1 0.1 -0.3
v -0.1 0.2 -0.3
v -0.1 0.3 -0.3
v -0.1 0.4 -0.3
v 0 0.1 -0.3
v 0 0.2 -0.3
v 0 0.3 -0.3
v 0 0.4 -0.3
v 0.1 0.2 -0.3
v 0.1 0.3 -0.3
v -0.1 0.2 -0.4
v -0.1 0.3 -0.4
v -0.1 0.5 -0.4
v -0.1 0.6 -0.4
v 0 0.2 -0.4
v 0 0.3 -0.4
v 0 0.5 -0.4
v 0 0.6 -0.4
v -0.1 0.3 -0.5
v -0.1 0.5 -0.5
v 0 0.3 -0.5
v 0 0.5 -0.5
v -0.2 0 0.5
v -0.1 0 0.5
v 0 0 0.5
v 0.1 0 0.5
v -0.2 0 0.3
v -0.1 0 0.3
v 0 0 0.3
v 0.1 0 0.3
v -0.3 0 0.1
v -0.2 0 0.1
v 0.1 0 0.1
v 0.2 0 0.1
v -0.3 0 -0.2
v -0.2 0 -0.2
v 0.1 0 -0.2
v 0.2 0 -0.2
v -0.1 0.1 0.4
v 0 0.1 0.4
v -0.2 0.1 0.3
v -0.1 0.1 0.3
v 0 0.1 0.3
v 0.1 0.1 0.3
v -0.2 0.1 0.1
v 0.1 0.1 0.1
v -0.2 0.1 -0.2
v -0.1 0.1 -0.2
v 0 0.1 -0.2
v 0.1 0.1 -0.2
v -0.1 0.1 -0.3
v 0 0.1 -0.3
v -0.2 0.2 -0.2
v -0.1 0.2 -0.2
v 0 0.2 -0.2
v 0.1 0.2 -0.2
v -0.2 0.2 -0.3
v -0.1 0.2 -0.3
v 0 0.2 -0.3
v 0.1 0.2 -0.3
v -0.1 0.2 -0.4
v 0 0.2 -0.4
v -0.1 0.3 -0.4
v 0 0.3 -0.4
v -0.1 0.3 -0.5
v 0 0.3 -0.5
v -0.2 0.4 0.5
v 0.1 0.4 0.5
v -0.3 0.4 0.4
v -0.2 0.4 0.4
v 0.1 0.4 0.4
v 0.2 0.4 0.4
v -0.3 0.4 0.2
v -0.2 0.4 0.2
v 0.1 0.4 0.2
v 0.2 0.4 0.2
v -0.1 0.5 0.6
v 0 0.5 0.6
v -0.1 0.5 0.5
v 0 0.5 0.5
v -0.1 0.5 -0.3
v 0 0.5 -0.3
v -0.1 0.5 -0.4
v 0 0.5 -0.4
v -0.2 0.1 0.5
v -0.1 0.1 0.5
v 0 0.1 0.5
v 0.1 0.1 0.5
v -0.2 0.1 0.4
v -0.1 0.1 0.4
v 0 0.1 0.4
v 0.1 0.1 0.4
v -0.3 0.1 0.1
v -0.2 0.1 0.1
v 0.1 0.1 0.1
v 0.2 0.1 0.1
v -0.3 0.1 0
v -0.2 0.1 0
v 0.1 0.1 0
v 0.2 0.1 0
v -0.3 0.3 0
v -0.2 0.3 0
v 0.1 0.3 0
v 0.2 0.3 0
v -0.3 0.3 -0.2
v -0.2 0.3 -0.2
v -0.1 0.3 -0.2
v 0 0.3 -0.2
v 0.1 0.3 -0.2
v 0.2 0.3 -0.2
v -0.2 0.3 -0.3
v -0.1 0.3 -0.3
v 0 0.3 -0.3
v 0.1 0.3 -0.3
v -0.1 0.3 -0.4
v 0 0.3 -0.4
v -0.2 0.4 0.1
v -0.1 0.4 0.1
v 0 0.4 0.1
v 0.1 0.4 0.1
v -0.1 0.4 0
v 0 0.4 0
v -0.2 0.4 -0.2
v -0.1 0.4 -0.2
v 0 0.4 -0.2
v 0.1 0.4 -0.2
v -0.1 0.4 -0.3
v 0 0.4 -0.3
v -0.1 0.5 0.1
v 0 0.5 0.1
v -0.1 0.5 0
v 0 0.5 0
v -0.1 0.5 -0.4
v 0 0.5 -0.4
v -0.1 0.5 -0.5
v 0 0.5 -0.5
v -0.1 0.6 0.6
v 0 0.6 0.6
v -0.1 0.6 0.5
v 0 0.6 0.5
v -0.1 0.6 -0.3
v 0 0.6 -0.3
v -0.1 0.6 -0.4
v 0 0.6 -0.4
v -0.3 0.7 0.4
v -0.2 0.7 0.4
v 0.1 0.7 0.4
v 0.2 0.7 0.4
v -0.3 0.7 0.2
v -0.2 0.7 0.2
v 0.1 0.7 0.2
v 0.2 0.7 0.2
v -0.2 0.8 0.5
v 0.1 0.8 0.5
v -0.2 0.8 0.1
v 0.1 0.8 0.1

# faces
f 3/2/1 2/2/1 1/2/1
f 4/2/1 2/2/1 3/2/1
f 5/2/1 2/2/1 4/2/1
f 6/2/1 2/2/1 5/2/1
f 9/2/1 8/2/1 7/2/1
f 10/2/1 8/2/1 9/2/1
f 13/2/1 12/2/1 11/2/1
f 14/2/1 12/2/1 13/2/1
f 15/2/1 12/2/1 14/2/1
f 18/2/1 15/2/1 14/2/1
f 19/1/1 17/1/1 16/1/1
f 19/2/1 15/2/1 18/2/1
f 19/1/1 16/1/1 15/1/1
f 22/1/1 19/1/1 18/1/1
f 22/1/1 17/1/1 19/1/1
f 23/1/1 21/1/1 20/1/1
f 24/1/1 21/1/1 23/1/1
f 26/1/1 22/1/1 18/1/1
f 26/1/1 23/1/1 22/1/1
f 27/1/1 23/1/1 26/1/1
f 28/1/1 23/1/1 27/1/1
f 29/1/1 23/1/1 28/1/1
f 30/1/1 26/1/1 25/1/1
f 31/1/1 26/1/1 30/1/1
f 32/3/1 31/3/1 30/3/1
f 33/3/1 31/3/1 32/3/1
f 34/1/1 28/1/1 27/1/1
f 35/1/1 33/1/1 32/1/1
f 35/1/1 34/1/1 33/1/1
f 36/1/1 28/1/1 34/1/1
f 36/1/1 34/1/1 35/1/1
f 39/1/1 38/1/1 37/1/1
f 40/1/1 38/1/1 39/1/1
f 43/2/1 41/2/1 40/2/1
f 44/2/1 41/2/1 43/2/1
f 48/1/1 43/1/1 42/1/1
f 49/1/1 43/1/1 48/1/1
f 52/1/1 47/1/1 46/1/1
f 53/1/1 47/1/1 52/1/1
f 55/2/1 45/2/1 44/2/1
f 56/2/1 45/2/1 55/2/1
f 57/2/1 51/2/1 50/2/1
f 58/2/1 51/2/1 57/2/1
f 59/2/1 55/2/1 54/2/1
f 60/2/1 55/2/1 59/2/1
f 63/2/1 62/2/1 61/2/1
f 64/2/1 62/2/1 63/2/1
f 65/2/1 62/2/1 64/2/1
f 68/2/1 67/2/1 66/2/1
f 69/2/1 67/2/1 68/2/1
f 70/2/2 71/2/2 72/2/2
f 72/2/2 71/2/2 73/2/2
f 74/2/2 75/2/2 76/2/2
f 76/2/2 75/2/2 77/2/2
f 77/2/2 75/2/2 78/2/2
f 79/1/2 80/1/2 81/1/2
f 81/1/2 80/1/2 82/1/2
f 82/2/2 83/2/2 85/2/2
f 85/2/2 83/2/2 86/2/2
f 84/1/2 85/1/2 90/1/2
f 90/1/2 85/1/2 91/1/2
f 88/1/2 89/1/2 94/1/2
f 94/1/2 89/1/2 95/1/2
f 86/2/2 87/2/2 97/2/2
f 97/2/2 87/2/2 98/2/2
f 92/2/2 93/2/2 99/2/2
f 99/2/2 93/2/2 100/2/2
f 96/2/2 97/2/2 101/2/2
f 101/2/2 97/2/2 102/2/2
f 103/2/2 104/2/2 105/2/2
f 105/2/2 104/2/2 106/2/2
f 106/2/2 104/2/2 107/2/2
f 106/2/2 107/2/2 110/2/2
f 108/1/2 109/1/2 111/1/2
f 110/2/2 107/2/2 111/2/2
f 107/1/2 108/1/2 111/1/2
f 110/1/2 111/1/2 114/1/2
f 111/1/2 109/1/2 114/1/2
f 112/1/2 113/1/2 115/1/2
f 115/1/2 113/1/2 116/1/2
f 110/1/2 114/1/2 118/1/2
f 114/1/2 115/1/2 118/1/2
f 118/1/2 115/1/2 119/1/2
f 119/1/2 115/1/2 120/1/2
f 120/1/2 115/1/2 121/1/2
f 117/1/2 118/1/2 122/1/2
f 122/1/2 118/1/2 123/1/2
f 122/3/2 123/3/2 124/3/2
f 124/3/2 123/3/2 125/3/2
f 119/1/2 120/1/2 126/1/2
f 124/1/2 125/1/2 127/1/2
f 125/1/2 126/1/2 127/1/2
f 126/1/2 120/1/2 128/1/2
f 127/1/2 126/1/2 128/1/2
f 129/2/2 130/2/2 131/2/2
f 131/2/2 130/2/2 132/2/2
f 132/2/2 130/2/2 133/2/2
f 133/2/2 130/2/2 134/2/2
f 135/2/2 136/2/2 137/2/2
f 137/2/2 136/2/2 138/2/2
f 141/2/3 140/2/3 139/2/3
f 142/2/3 140/2/3 141/2/3
f 149/2/3 144/2/3 143/2/3
f 150/2/3 144/2/3 149/2/3
f 151/1/3 146/1/3 145/1/3
f 152/3/3 147/3/3 146/3/3
f 152/1/3 146/1/3 151/1/3
f 153/1/3 148/1/3 147/1/3
f 153/3/3 147/3/3 152/3/3
f 156/1/3 151/1/3 145/1/3
f 157/1/3 153/1/3 152/1/3
f 158/1/3 148/1/3 153/1/3
f 158/1/3 153/1/3 157/1/3
f 159/2/3 155/2/3 154/2/3
f 160/2/3 155/2/3 159/2/3
f 161/1/3 157/1/3 156/1/3
f 161/1/3 156/1/3 145/1/3
f 162/3/3 158/3/3 157/3/3
f 162/1/3 157/1/3 161/1/3
f 163/1/3 148/1/3 158/1/3
f 163/3/3 158/3/3 162/3/3
f 164/1/3 148/1/3 163/1/3
f 169/2/3 166/2/3 165/2/3
f 170/2/3 166/2/3 169/2/3
f 171/2/3 166/2/3 170/2/3
f 172/2/3 168/2/3 167/2/3
f 173/1/3 169/1/3 168/1/3
f 173/2/3 168/2/3 172/2/3
f 174/1/3 173/1/3 172/1/3
f 175/1/3 169/1/3 173/1/3
f 175/1/3 173/1/3 174/1/3
f 176/2/3 175/2/3 174/2/3
f 177/1/3 169/1/3 175/1/3
f 177/2/3 175/2/3 176/2/3
f 178/1/3 169/1/3 177/1/3
f 181/2/3 180/2/3 179/2/3
f 181/2/3 179/2/3 178/2/3
f 182/2/3 180/2/3 181/2/3
f 185/2/3 184/2/3 183/2/3
f 186/2/3 184/2/3 185/2/3
f 189/2/3 188/2/3 187/2/3
f 190/2/3 188/2/3 189/2/3
f 193/2/3 192/2/3 191/2/3
f 194/2/3 192/2/3 193/2/3
f 197/2/3 196/2/3 195/2/3
f 198/2/3 196/2/3 197/2/3
f 201/2/3 200/2/3 199/2/3
f 202/2/3 200/2/3 201/2/3
f 205/2/3 204/2/3 203/2/3
f 206/2/3 204/2/3 205/2/3
f 207/2/4 208/2/4 209/2/4
f 209/2/4 208/2/4 210/2/4
f 211/2/4 212/2/4 213/2/4
f 213/2/4 212/2/4 214/2/4
f 215/2/4 216/2/4 217/2/4
f 217/2/4 216/2/4 218/2/4
f 219/2/4 220/2/4 221/2/4
f 221/2/4 220/2/4 222/2/4
f 223/1/4 224/1/4 225/1/4
f 225/1/4 224/1/4 226/1/4
f 226/1/4 224/1/4 228/1/4
f 227/1/4 228/1/4 229/1/4
f 228/1/4 224/1/4 230/1/4
f 229/1/4 228/1/4 230/1/4
f 231/1/4 232/1/4 233/1/4
f 233/1/4 232/1/4 234/1/4
f 235/2/4 236/2/4 237/2/4
f 237/2/4 236/2/4 238/2/4
f 238/2/4 236/2/4 239/2/4
f 239/2/4 236/2/4 240/2/4
f 238/1/4 239/1/4 242/1/4
f 242/1/4 239/1/4 243/1/4
f 240/1/4 241/1/4 244/1/4
f 244/1/4 241/1/4 245/1/4
f 246/1/4 247/1/4 251/1/4
f 251/1/4 247/1/4 252/1/4
f 248/1/4 249/1/4 253/1/4
f 253/1/4 249/1/4 254/1/4
f 251/2/4 252/2/4 255/2/4
f 250/2/4 251/2/4 255/2/4
f 252/2/4 253/2/4 255/2/4
f 255/2/4 253/2/4 256/2/4
f 257/1/4 258/1/4 260/1/4
f 260/1/4 258/1/4 261/1/4
f 259/1/4 260/1/4 263/1/4
f 263/1/4 260/1/4 264/1/4
f 261/1/4 262/1/4 265/1/4
f 265/1/4 262/1/4 266/1/4
f 264/1/4 265/1/4 267/1/4
f 267/1/4 265/1/4 268/1/4
f 269/2/4 270/2/4 273/2/4
f 273/2/4 270/2/4 274/2/4
f 271/2/4 272/2/4 275/2/4
f 275/2/4 272/2/4 276/2/4
f 277/2/4 278/2/4 279/2/4
f 279/2/4 278/2/4 280/2/4
f 285/2/5 282/2/5 281/2/5
f 286/2/5 282/2/5 285/2/5
f 287/2/5 284/2/5 283/2/5
f 288/2/5 284/2/5 287/2/5
f 293/2/5 290/2/5 289/2/5
f 294/2/5 290/2/5 293/2/5
f 295/2/5 292/2/5 291/2/5
f 296/2/5 292/2/5 295/2/5
f 300/1/5 298/1/5 297/1/5
f 301/1/5 298/1/5 300/1/5
f 303/1/5 300/1/5 299/1/5
f 303/1/5 302/1/5 301/1/5
f 303/1/5 301/1/5 300/1/5
f 304/1/5 302/1/5 303/1/5
f 305/1/5 304/1/5 303/1/5
f 306/1/5 304/1/5 305/1/5
f 307/1/5 304/1/5 306/1/5
f 308/1/5 304/1/5 307/1/5
f 309/1/5 307/1/5 306/1/5
f 310/1/5 307/1/5 309/1/5
f 315/1/5 312/1/5 311/1/5
f 316/1/5 312/1/5 315/1/5
f 317/1/5 314/1/5 313/1/5
f 318/1/5 314/1/5 317/1/5
f 319/2/5 317/2/5 316/2/5
f 320/2/5 317/2/5 319/2/5
f 323/2/5 322/2/5 321/2/5
f 324/2/5 322/2/5 323/2/5
f 328/1/5 326/1/5 325/1/5
f 329/1/5 326/1/5 328/1/5
f 331/2/5 328/2/5 327/2/5
f 332/2/5 328/2/5 331/2/5
f 333/2/5 330/2/5 329/2/5
f 334/2/5 330/2/5 333/2/5
f 337/2/5 336/2/5 335/2/5
f 338/2/5 336/2/5 337/2/5
f 341/2/5 340/2/5 339/2/5
f 342/2/5 340/2/5 341/2/5
f 343/2/6 344/2/6 347/2/6
f 347/2/6 344/2/6 348/2/6
f 345/2/6 346/2/6 349/2/6
f 349/2/6 346/2/6 350/2/6
f 351/2/6 352/2/6 355/2/6
f 355/2/6 352/2/6 356/2/6
f 353/2/6 354/2/6 357/2/6
f 357/2/6 354/2/6 358/2/6
f 359/2/6 360/2/6 363/2/6
f 363/2/6 360/2/6 364/2/6
f 361/2/6 362/2/6 367/2/6
f 367/2/6 362/2/6 368/2/6
f 364/1/6 365/1/6 369/1/6
f 369/1/6 365/1/6 370/1/6
f 366/1/6 367/1/6 371/1/6
f 371/1/6 367/1/6 372/1/6
f 370/2/6 371/2/6 373/2/6
f 373/2/6 371/2/6 374/2/6
f 375/1/6 376/1/6 379/1/6
f 377/1/6 378/1/6 380/1/6
f 375/1/6 379/1/6 381/1/6
f 379/1/6 380/1/6 381/1/6
f 381/1/6 380/1/6 382/1/6
f 380/1/6 378/1/6 383/1/6
f 382/1/6 380/1/6 383/1/6
f 383/1/6 378/1/6 384/1/6
f 382/1/6 383/1/6 385/1/6
f 385/1/6 383/1/6 386/1/6
f 387/1/6 388/1/6 389/1/6
f 389/1/6 388/1/6 390/1/6
f 391/2/6 392/2/6 393/2/6
f 393/2/6 392/2/6 394/2/6
f 395/2/6 396/2/6 397/2/6
f 397/2/6 396/2/6 398/2/6
f 399/2/6 400/2/6 401/2/6
f 401/2/6 400/2/6 402/2/6
f 403/2/6 404/2/6 407/2/6
f 407/2/6 404/2/6 408/2/6
f 405/2/6 406/2/6 409/2/6
f 409/2/6 406/2/6 410/2/6
f 411/1/6 412/1/6 413/1/6
f 413/1/6 412/1/6 414/1/6
