# MagicaVoxel @ Ephtracy

# group
o 

# material
mtllib Christmas-16.mtl
usemtl palette

# normals
vn -1 0 0
vn 1 0 0
vn 0 0 1
vn 0 0 -1
vn 0 -1 0
vn 0 1 0

# texcoords
vt 0.115234 0.5
vt 0.962891 0.5

# verts
v -5.2 1.5 -3.6
v -5.2 1.5 -3.7
v -5.2 1.6 -3.6
v -5.2 1.6 -3.7
v -5.2 1.7 -3.6
v -5.2 1.7 -3.7
v -5.2 1.8 -3.6
v -5.2 1.8 -3.7
v -5.2 1.9 -3.6
v -5.2 1.9 -3.7
v -5.2 2 -3.6
v -5.2 2 -3.7
v -5.2 2.1 -3.6
v -5.2 2.1 -3.7
v -5.1 2.1 -3.6
v -5.1 2.1 -3.7
v -5.1 2.2 -3.6
v -5.1 2.2 -3.7
v -5 2 -3.6
v -5 2 -3.7
v -5 2.1 -3.6
v -5 2.1 -3.7
v -5.1 1.5 -3.6
v -5.1 1.5 -3.7
v -5.1 1.6 -3.6
v -5.1 1.6 -3.7
v -5.1 1.7 -3.6
v -5.1 1.7 -3.7
v -5.1 1.8 -3.6
v -5.1 1.8 -3.7
v -5.1 1.9 -3.6
v -5.1 1.9 -3.7
v -5.1 2 -3.6
v -5.1 2 -3.7
v -5.1 2.1 -3.6
v -5.1 2.1 -3.7
v -5 2.1 -3.6
v -5 2.1 -3.7
v -5 2.2 -3.6
v -5 2.2 -3.7
v -4.9 2 -3.6
v -4.9 2 -3.7
v -4.9 2.1 -3.6
v -4.9 2.1 -3.7
v -5.2 1.5 -3.6
v -5.2 1.6 -3.6
v -5.2 1.7 -3.6
v -5.2 1.8 -3.6
v -5.2 1.9 -3.6
v -5.2 2 -3.6
v -5.2 2.1 -3.6
v -5.1 1.5 -3.6
v -5.1 1.6 -3.6
v -5.1 1.7 -3.6
v -5.1 1.8 -3.6
v -5.1 1.9 -3.6
v -5.1 2 -3.6
v -5.1 2.1 -3.6
v -5.1 2.2 -3.6
v -5 2 -3.6
v -5 2.1 -3.6
v -5 2.2 -3.6
v -4.9 2 -3.6
v -4.9 2.1 -3.6
v -5.2 1.5 -3.7
v -5.2 1.6 -3.7
v -5.2 1.7 -3.7
v -5.2 1.8 -3.7
v -5.2 1.9 -3.7
v -5.2 2 -3.7
v -5.2 2.1 -3.7
v -5.1 1.5 -3.7
v -5.1 1.6 -3.7
v -5.1 1.7 -3.7
v -5.1 1.8 -3.7
v -5.1 1.9 -3.7
v -5.1 2 -3.7
v -5.1 2.1 -3.7
v -5.1 2.2 -3.7
v -5 2 -3.7
v -5 2.1 -3.7
v -5 2.2 -3.7
v -4.9 2 -3.7
v -4.9 2.1 -3.7
v -5.2 1.5 -3.6
v -5.1 1.5 -3.6
v -5.2 1.5 -3.7
v -5.1 1.5 -3.7
v -5 2 -3.6
v -4.9 2 -3.6
v -5 2 -3.7
v -4.9 2 -3.7
v -5.1 2.1 -3.6
v -5 2.1 -3.6
v -5.1 2.1 -3.7
v -5 2.1 -3.7
v -5.2 2.1 -3.6
v -5.1 2.1 -3.6
v -5 2.1 -3.6
v -4.9 2.1 -3.6
v -5.2 2.1 -3.7
v -5.1 2.1 -3.7
v -5 2.1 -3.7
v -4.9 2.1 -3.7
v -5.1 2.2 -3.6
v -5 2.2 -3.6
v -5.1 2.2 -3.7
v -5 2.2 -3.7

# faces
f 3/1/1 2/1/1 1/1/1
f 4/1/1 2/1/1 3/1/1
f 5/2/1 4/2/1 3/2/1
f 6/2/1 4/2/1 5/2/1
f 7/1/1 6/1/1 5/1/1
f 8/1/1 6/1/1 7/1/1
f 9/2/1 8/2/1 7/2/1
f 10/2/1 8/2/1 9/2/1
f 11/1/1 10/1/1 9/1/1
f 12/1/1 10/1/1 11/1/1
f 13/2/1 12/2/1 11/2/1
f 14/2/1 12/2/1 13/2/1
f 17/1/1 16/1/1 15/1/1
f 18/1/1 16/1/1 17/1/1
f 21/2/1 20/2/1 19/2/1
f 22/2/1 20/2/1 21/2/1
f 23/1/2 24/1/2 25/1/2
f 25/1/2 24/1/2 26/1/2
f 25/2/2 26/2/2 27/2/2
f 27/2/2 26/2/2 28/2/2
f 27/1/2 28/1/2 29/1/2
f 29/1/2 28/1/2 30/1/2
f 29/2/2 30/2/2 31/2/2
f 31/2/2 30/2/2 32/2/2
f 31/1/2 32/1/2 33/1/2
f 33/1/2 32/1/2 34/1/2
f 33/2/2 34/2/2 35/2/2
f 35/2/2 34/2/2 36/2/2
f 37/1/2 38/1/2 39/1/2
f 39/1/2 38/1/2 40/1/2
f 41/2/2 42/2/2 43/2/2
f 43/2/2 42/2/2 44/2/2
f 52/1/3 46/1/3 45/1/3
f 53/2/3 47/2/3 46/2/3
f 53/1/3 46/1/3 52/1/3
f 54/1/3 48/1/3 47/1/3
f 54/2/3 47/2/3 53/2/3
f 55/2/3 49/2/3 48/2/3
f 55/1/3 48/1/3 54/1/3
f 56/1/3 50/1/3 49/1/3
f 56/2/3 49/2/3 55/2/3
f 57/2/3 51/2/3 50/2/3
f 57/1/3 50/1/3 56/1/3
f 58/2/3 51/2/3 57/2/3
f 61/1/3 59/1/3 58/1/3
f 62/1/3 59/1/3 61/1/3
f 63/2/3 61/2/3 60/2/3
f 64/2/3 61/2/3 63/2/3
f 65/1/4 66/1/4 72/1/4
f 66/2/4 67/2/4 73/2/4
f 72/1/4 66/1/4 73/1/4
f 67/1/4 68/1/4 74/1/4
f 73/2/4 67/2/4 74/2/4
f 68/2/4 69/2/4 75/2/4
f 74/1/4 68/1/4 75/1/4
f 69/1/4 70/1/4 76/1/4
f 75/2/4 69/2/4 76/2/4
f 70/2/4 71/2/4 77/2/4
f 76/1/4 70/1/4 77/1/4
f 77/2/4 71/2/4 78/2/4
f 78/1/4 79/1/4 81/1/4
f 81/1/4 79/1/4 82/1/4
f 80/2/4 81/2/4 83/2/4
f 83/2/4 81/2/4 84/2/4
f 87/1/5 86/1/5 85/1/5
f 88/1/5 86/1/5 87/1/5
f 91/2/5 90/2/5 89/2/5
f 92/2/5 90/2/5 91/2/5
f 95/1/5 94/1/5 93/1/5
f 96/1/5 94/1/5 95/1/5
f 97/2/6 98/2/6 101/2/6
f 101/2/6 98/2/6 102/2/6
f 99/2/6 100/2/6 103/2/6
f 103/2/6 100/2/6 104/2/6
f 105/1/6 106/1/6 107/1/6
f 107/1/6 106/1/6 108/1/6
