# MagicaVoxel @ Ephtracy

# group
o 

# material
mtllib Christmas-26.mtl
usemtl palette

# normals
vn -1 0 0
vn 1 0 0
vn 0 0 1
vn 0 0 -1
vn 0 -1 0
vn 0 1 0

# texcoords
vt 0.255859 0.5

# verts
v -4.6 1 -3.6
v -4.6 1 -3.7
v -4.6 1.2 -3.6
v -4.6 1.2 -3.7
v -4.4 1 -3.6
v -4.4 1 -3.7
v -4.4 1.1 -3.6
v -4.4 1.1 -3.7
v -4.5 1 -3.6
v -4.5 1 -3.7
v -4.5 1.1 -3.6
v -4.5 1.1 -3.7
v -4.3 1.1 -3.6
v -4.3 1.1 -3.7
v -4.3 1.2 -3.6
v -4.3 1.2 -3.7
v -3.9 1 -3.6
v -3.9 1 -3.7
v -3.9 1.1 -3.6
v -3.9 1.1 -3.7
v -4.6 1 -3.6
v -4.6 1.2 -3.6
v -4.5 1 -3.6
v -4.5 1.1 -3.6
v -4.4 1 -3.6
v -4.4 1.1 -3.6
v -4.3 1.1 -3.6
v -4.3 1.2 -3.6
v -3.9 1 -3.6
v -3.9 1.1 -3.6
v -4.6 1 -3.7
v -4.6 1.2 -3.7
v -4.5 1 -3.7
v -4.5 1.1 -3.7
v -4.4 1 -3.7
v -4.4 1.1 -3.7
v -4.3 1.1 -3.7
v -4.3 1.2 -3.7
v -3.9 1 -3.7
v -3.9 1.1 -3.7
v -4.6 1 -3.6
v -4.5 1 -3.6
v -4.4 1 -3.6
v -3.9 1 -3.6
v -4.6 1 -3.7
v -4.5 1 -3.7
v -4.4 1 -3.7
v -3.9 1 -3.7
v -4.5 1.1 -3.6
v -4.4 1.1 -3.6
v -4.5 1.1 -3.7
v -4.4 1.1 -3.7
v -4.3 1.1 -3.6
v -3.9 1.1 -3.6
v -4.3 1.1 -3.7
v -3.9 1.1 -3.7
v -4.6 1.2 -3.6
v -4.3 1.2 -3.6
v -4.6 1.2 -3.7
v -4.3 1.2 -3.7

# faces
f 3/1/1 2/1/1 1/1/1
f 4/1/1 2/1/1 3/1/1
f 7/1/1 6/1/1 5/1/1
f 8/1/1 6/1/1 7/1/1
f 9/1/2 10/1/2 11/1/2
f 11/1/2 10/1/2 12/1/2
f 13/1/2 14/1/2 15/1/2
f 15/1/2 14/1/2 16/1/2
f 17/1/2 18/1/2 19/1/2
f 19/1/2 18/1/2 20/1/2
f 23/1/3 22/1/3 21/1/3
f 24/1/3 22/1/3 23/1/3
f 26/1/3 22/1/3 24/1/3
f 27/1/3 22/1/3 26/1/3
f 27/1/3 26/1/3 25/1/3
f 28/1/3 22/1/3 27/1/3
f 29/1/3 27/1/3 25/1/3
f 30/1/3 27/1/3 29/1/3
f 31/1/4 32/1/4 33/1/4
f 33/1/4 32/1/4 34/1/4
f 34/1/4 32/1/4 36/1/4
f 36/1/4 32/1/4 37/1/4
f 35/1/4 36/1/4 37/1/4
f 37/1/4 32/1/4 38/1/4
f 35/1/4 37/1/4 39/1/4
f 39/1/4 37/1/4 40/1/4
f 45/1/5 42/1/5 41/1/5
f 46/1/5 42/1/5 45/1/5
f 47/1/5 44/1/5 43/1/5
f 48/1/5 44/1/5 47/1/5
f 51/1/5 50/1/5 49/1/5
f 52/1/5 50/1/5 51/1/5
f 53/1/6 54/1/6 55/1/6
f 55/1/6 54/1/6 56/1/6
f 57/1/6 58/1/6 59/1/6
f 59/1/6 58/1/6 60/1/6
