# MagicaVoxel @ Ephtracy

# group
o 

# material
mtllib Christmas-23.mtl
usemtl palette

# normals
vn -1 0 0
vn 1 0 0
vn 0 0 1
vn 0 0 -1
vn 0 -1 0
vn 0 1 0

# texcoords
vt 0.115234 0.5
vt 0.255859 0.5

# verts
v -4.7 1.7 -3.5
v -4.7 1.7 -3.8
v -4.7 1.9 -3.5
v -4.7 1.9 -3.8
v -4.5 1.9 -3.5
v -4.5 1.9 -3.8
v -4.5 2 -3.5
v -4.5 2 -3.8
v -4.4 1.7 -3.5
v -4.4 1.7 -3.8
v -4.4 1.8 -3.6
v -4.4 1.8 -3.7
v -4.4 1.9 -3.6
v -4.4 1.9 -3.7
v -4.4 2 -3.5
v -4.4 2 -3.8
v -3.9 1.8 -3.6
v -3.9 1.8 -3.7
v -3.9 1.9 -3.6
v -3.9 1.9 -3.7
v -4.7 1.7 -3.5
v -4.7 1.9 -3.5
v -4.5 1.9 -3.5
v -4.5 2 -3.5
v -4.4 1.7 -3.5
v -4.4 2 -3.5
v -4.4 1.8 -3.6
v -4.4 1.9 -3.6
v -3.9 1.8 -3.6
v -3.9 1.9 -3.6
v -4.4 1.8 -3.7
v -4.4 1.9 -3.7
v -3.9 1.8 -3.7
v -3.9 1.9 -3.7
v -4.7 1.7 -3.8
v -4.7 1.9 -3.8
v -4.5 1.9 -3.8
v -4.5 2 -3.8
v -4.4 1.7 -3.8
v -4.4 2 -3.8
v -4.7 1.7 -3.5
v -4.4 1.7 -3.5
v -4.7 1.7 -3.8
v -4.4 1.7 -3.8
v -4.4 1.8 -3.6
v -3.9 1.8 -3.6
v -4.4 1.8 -3.7
v -3.9 1.8 -3.7
v -4.7 1.9 -3.5
v -4.5 1.9 -3.5
v -4.4 1.9 -3.6
v -3.9 1.9 -3.6
v -4.4 1.9 -3.7
v -3.9 1.9 -3.7
v -4.7 1.9 -3.8
v -4.5 1.9 -3.8
v -4.5 2 -3.5
v -4.4 2 -3.5
v -4.5 2 -3.8
v -4.4 2 -3.8

# faces
f 3/1/1 2/1/1 1/1/1
f 4/1/1 2/1/1 3/1/1
f 7/1/1 6/1/1 5/1/1
f 8/1/1 6/1/1 7/1/1
f 9/1/2 10/1/2 11/1/2
f 11/1/2 10/1/2 12/1/2
f 9/1/2 11/1/2 13/1/2
f 12/1/2 10/1/2 14/1/2
f 9/1/2 13/1/2 15/1/2
f 13/1/2 14/1/2 15/1/2
f 14/1/2 10/1/2 16/1/2
f 15/1/2 14/1/2 16/1/2
f 17/2/2 18/2/2 19/2/2
f 19/2/2 18/2/2 20/2/2
f 23/1/3 22/1/3 21/1/3
f 25/1/3 23/1/3 21/1/3
f 25/1/3 24/1/3 23/1/3
f 26/1/3 24/1/3 25/1/3
f 29/2/3 28/2/3 27/2/3
f 30/2/3 28/2/3 29/2/3
f 31/2/4 32/2/4 33/2/4
f 33/2/4 32/2/4 34/2/4
f 35/1/4 36/1/4 37/1/4
f 35/1/4 37/1/4 39/1/4
f 37/1/4 38/1/4 39/1/4
f 39/1/4 38/1/4 40/1/4
f 43/1/5 42/1/5 41/1/5
f 44/1/5 42/1/5 43/1/5
f 47/2/5 46/2/5 45/2/5
f 48/2/5 46/2/5 47/2/5
f 51/2/6 52/2/6 53/2/6
f 53/2/6 52/2/6 54/2/6
f 49/1/6 50/1/6 55/1/6
f 55/1/6 50/1/6 56/1/6
f 57/1/6 58/1/6 59/1/6
f 59/1/6 58/1/6 60/1/6
