# MagicaVoxel @ Ephtracy

# group
o 

# material
mtllib Christmas-25.mtl
usemtl palette

# normals
vn -1 0 0
vn 1 0 0
vn 0 0 1
vn 0 0 -1
vn 0 -1 0
vn 0 1 0

# texcoords
vt 0.150391 0.5
vt 0.208984 0.5
vt 0.310547 0.5
vt 0.958984 0.5

# verts
v -1.6 1.1 -3.5
v -1.6 1.1 -3.7
v -1.6 1.2 -3.4
v -1.6 1.2 -3.5
v -1.6 1.2 -3.7
v -1.6 1.2 -3.8
v -1.6 1.4 -3.4
v -1.6 1.4 -3.5
v -1.6 1.4 -3.7
v -1.6 1.4 -3.8
v -1.6 1.6 -3.5
v -1.6 1.6 -3.7
v -1.5 1 -3.4
v -1.5 1 -3.8
v -1.5 1.1 -3.3
v -1.5 1.1 -3.4
v -1.5 1.1 -3.5
v -1.5 1.1 -3.7
v -1.5 1.1 -3.8
v -1.5 1.1 -3.9
v -1.5 1.2 -3.4
v -1.5 1.2 -3.5
v -1.5 1.2 -3.7
v -1.5 1.2 -3.8
v -1.5 1.2 -3.9
v -1.5 1.2 -4
v -1.5 1.4 -3.4
v -1.5 1.4 -3.5
v -1.5 1.4 -3.7
v -1.5 1.4 -3.8
v -1.5 1.4 -3.9
v -1.5 1.4 -4
v -1.5 1.5 -3.3
v -1.5 1.5 -3.4
v -1.5 1.5 -3.8
v -1.5 1.5 -3.9
v -1.5 1.6 -3.4
v -1.5 1.6 -3.5
v -1.5 1.6 -3.7
v -1.5 1.6 -3.8
v -1.4 1 -3.3
v -1.4 1 -3.4
v -1.4 1 -3.8
v -1.4 1 -3.9
v -1.4 1.1 -3.3
v -1.4 1.1 -3.4
v -1.4 1.1 -3.8
v -1.4 1.1 -3.9
v -1.4 1.2 -3.2
v -1.4 1.2 -3.3
v -1.4 1.4 -3.2
v -1.4 1.4 -3.3
v -1.4 1.5 -3.3
v -1.4 1.5 -3.4
v -1.4 1.5 -3.8
v -1.4 1.5 -3.9
v -1.4 1.6 -3.3
v -1.4 1.6 -3.4
v -1.4 1.6 -3.5
v -1.4 1.6 -3.7
v -1.4 1.6 -3.8
v -1.4 1.6 -3.9
v -1.4 1.7 -3.5
v -1.4 1.7 -3.7
v -1.3 1.1 -3.2
v -1.3 1.1 -3.3
v -1.3 1.2 -3.2
v -1.3 1.2 -3.3
v -1.3 1.3 -4
v -1.3 1.3 -4.1
v -1.3 1.4 -3.2
v -1.3 1.4 -3.3
v -1.3 1.4 -4
v -1.3 1.4 -4.1
v -1.3 1.5 -3.2
v -1.3 1.5 -3.3
v -1.3 1.6 -3.4
v -1.3 1.6 -3.5
v -1.3 1.6 -3.7
v -1.3 1.6 -3.8
v -1.3 1.7 -3.4
v -1.3 1.7 -3.5
v -1.3 1.7 -3.7
v -1.3 1.7 -3.8
v -1.1 1.1 -3.2
v -1.1 1.1 -3.3
v -1.1 1.2 -3.2
v -1.1 1.2 -3.3
v -1.1 1.3 -4
v -1.1 1.3 -4.1
v -1.1 1.4 -3.2
v -1.1 1.4 -3.3
v -1.1 1.4 -4
v -1.1 1.4 -4.1
v -1.1 1.5 -3.2
v -1.1 1.5 -3.3
v -1.1 1.6 -3.4
v -1.1 1.6 -3.5
v -1.1 1.6 -3.7
v -1.1 1.6 -3.8
v -1.1 1.7 -3.4
v -1.1 1.7 -3.5
v -1.1 1.7 -3.7
v -1.1 1.7 -3.8
v -1 1 -3.3
v -1 1 -3.4
v -1 1 -3.8
v -1 1 -3.9
v -1 1.1 -3.3
v -1 1.1 -3.4
v -1 1.1 -3.8
v -1 1.1 -3.9
v -1 1.2 -3.2
v -1 1.2 -3.3
v -1 1.4 -3.2
v -1 1.4 -3.3
v -1 1.5 -3.3
v -1 1.5 -3.4
v -1 1.5 -3.8
v -1 1.5 -3.9
v -1 1.6 -3.3
v -1 1.6 -3.4
v -1 1.6 -3.5
v -1 1.6 -3.7
v -1 1.6 -3.8
v -1 1.6 -3.9
v -1 1.7 -3.5
v -1 1.7 -3.7
v -0.9 1 -3.4
v -0.9 1 -3.8
v -0.9 1.1 -3.3
v -0.9 1.1 -3.4
v -0.9 1.1 -3.5
v -0.9 1.1 -3.7
v -0.9 1.1 -3.8
v -0.9 1.1 -3.9
v -0.9 1.2 -3.4
v -0.9 1.2 -3.5
v -0.9 1.2 -3.7
v -0.9 1.2 -3.8
v -0.9 1.2 -3.9
v -0.9 1.2 -4
v -0.9 1.4 -3.4
v -0.9 1.4 -3.5
v -0.9 1.4 -3.7
v -0.9 1.4 -3.8
v -0.9 1.4 -3.9
v -0.9 1.4 -4
v -0.9 1.5 -3.3
v -0.9 1.5 -3.4
v -0.9 1.5 -3.5
v -0.9 1.5 -3.7
v -0.9 1.5 -3.8
v -0.9 1.5 -3.9
v -0.9 1.6 -3.4
v -0.9 1.6 -3.8
v -0.8 1.1 -3.5
v -0.8 1.1 -3.7
v -0.8 1.2 -3.4
v -0.8 1.2 -3.5
v -0.8 1.2 -3.7
v -0.8 1.2 -3.8
v -0.8 1.4 -3.4
v -0.8 1.4 -3.5
v -0.8 1.4 -3.7
v -0.8 1.4 -3.8
v -0.8 1.5 -3.5
v -0.8 1.5 -3.7
v -1.4 1.2 -3.2
v -1.4 1.4 -3.2
v -1.3 1.1 -3.2
v -1.3 1.2 -3.2
v -1.3 1.4 -3.2
v -1.3 1.5 -3.2
v -1.1 1.1 -3.2
v -1.1 1.2 -3.2
v -1.1 1.4 -3.2
v -1.1 1.5 -3.2
v -1 1.2 -3.2
v -1 1.4 -3.2
v -1.5 1.1 -3.3
v -1.5 1.5 -3.3
v -1.4 1 -3.3
v -1.4 1.1 -3.3
v -1.4 1.2 -3.3
v -1.4 1.4 -3.3
v -1.4 1.5 -3.3
v -1.4 1.6 -3.3
v -1.3 1.1 -3.3
v -1.3 1.2 -3.3
v -1.3 1.4 -3.3
v -1.3 1.5 -3.3
v -1.1 1.1 -3.3
v -1.1 1.2 -3.3
v -1.1 1.4 -3.3
v -1.1 1.5 -3.3
v -1 1 -3.3
v -1 1.1 -3.3
v -1 1.2 -3.3
v -1 1.4 -3.3
v -1 1.5 -3.3
v -1 1.6 -3.3
v -0.9 1.1 -3.3
v -0.9 1.5 -3.3
v -1.6 1.2 -3.4
v -1.6 1.4 -3.4
v -1.5 1 -3.4
v -1.5 1.1 -3.4
v -1.5 1.2 -3.4
v -1.5 1.4 -3.4
v -1.5 1.5 -3.4
v -1.5 1.6 -3.4
v -1.4 1 -3.4
v -1.4 1.1 -3.4
v -1.4 1.5 -3.4
v -1.4 1.6 -3.4
v -1.3 1.6 -3.4
v -1.3 1.7 -3.4
v -1.1 1.6 -3.4
v -1.1 1.7 -3.4
v -1 1 -3.4
v -1 1.1 -3.4
v -1 1.5 -3.4
v -1 1.6 -3.4
v -0.9 1 -3.4
v -0.9 1.1 -3.4
v -0.9 1.2 -3.4
v -0.9 1.4 -3.4
v -0.9 1.5 -3.4
v -0.9 1.6 -3.4
v -0.8 1.2 -3.4
v -0.8 1.4 -3.4
v -1.6 1.1 -3.5
v -1.6 1.2 -3.5
v -1.6 1.4 -3.5
v -1.6 1.6 -3.5
v -1.5 1.1 -3.5
v -1.5 1.2 -3.5
v -1.5 1.4 -3.5
v -1.5 1.6 -3.5
v -1.4 1.6 -3.5
v -1.4 1.7 -3.5
v -1.3 1.6 -3.5
v -1.3 1.7 -3.5
v -1.1 1.6 -3.5
v -1.1 1.7 -3.5
v -1 1.6 -3.5
v -1 1.7 -3.5
v -0.9 1.1 -3.5
v -0.9 1.2 -3.5
v -0.9 1.4 -3.5
v -0.9 1.5 -3.5
v -0.8 1.1 -3.5
v -0.8 1.2 -3.5
v -0.8 1.4 -3.5
v -0.8 1.5 -3.5
v -1.6 1.1 -3.7
v -1.6 1.2 -3.7
v -1.6 1.4 -3.7
v -1.6 1.6 -3.7
v -1.5 1.1 -3.7
v -1.5 1.2 -3.7
v -1.5 1.4 -3.7
v -1.5 1.6 -3.7
v -1.4 1.6 -3.7
v -1.4 1.7 -3.7
v -1.3 1.6 -3.7
v -1.3 1.7 -3.7
v -1.1 1.6 -3.7
v -1.1 1.7 -3.7
v -1 1.6 -3.7
v -1 1.7 -3.7
v -0.9 1.1 -3.7
v -0.9 1.2 -3.7
v -0.9 1.4 -3.7
v -0.9 1.5 -3.7
v -0.8 1.1 -3.7
v -0.8 1.2 -3.7
v -0.8 1.4 -3.7
v -0.8 1.5 -3.7
v -1.6 1.2 -3.8
v -1.6 1.4 -3.8
v -1.5 1 -3.8
v -1.5 1.1 -3.8
v -1.5 1.2 -3.8
v -1.5 1.4 -3.8
v -1.5 1.5 -3.8
v -1.5 1.6 -3.8
v -1.4 1 -3.8
v -1.4 1.1 -3.8
v -1.4 1.5 -3.8
v -1.4 1.6 -3.8
v -1.3 1.6 -3.8
v -1.3 1.7 -3.8
v -1.1 1.6 -3.8
v -1.1 1.7 -3.8
v -1 1 -3.8
v -1 1.1 -3.8
v -1 1.5 -3.8
v -1 1.6 -3.8
v -0.9 1 -3.8
v -0.9 1.1 -3.8
v -0.9 1.2 -3.8
v -0.9 1.4 -3.8
v -0.9 1.5 -3.8
v -0.9 1.6 -3.8
v -0.8 1.2 -3.8
v -0.8 1.4 -3.8
v -1.5 1.1 -3.9
v -1.5 1.2 -3.9
v -1.5 1.4 -3.9
v -1.5 1.5 -3.9
v -1.4 1 -3.9
v -1.4 1.1 -3.9
v -1.4 1.2 -3.9
v -1.4 1.4 -3.9
v -1.4 1.5 -3.9
v -1.4 1.6 -3.9
v -1.3 1.4 -3.9
v -1.3 1.5 -3.9
v -1.1 1.4 -3.9
v -1.1 1.5 -3.9
v -1 1 -3.9
v -1 1.1 -3.9
v -1 1.2 -3.9
v -1 1.4 -3.9
v -1 1.5 -3.9
v -1 1.6 -3.9
v -0.9 1.1 -3.9
v -0.9 1.2 -3.9
v -0.9 1.4 -3.9
v -0.9 1.5 -3.9
v -1.5 1.2 -4
v -1.5 1.4 -4
v -1.4 1.2 -4
v -1.4 1.4 -4
v -1.3 1.3 -4
v -1.3 1.4 -4
v -1.1 1.3 -4
v -1.1 1.4 -4
v -1 1.2 -4
v -1 1.4 -4
v -0.9 1.2 -4
v -0.9 1.4 -4
v -1.3 1.3 -4.1
v -1.3 1.4 -4.1
v -1.1 1.3 -4.1
v -1.1 1.4 -4.1
v -1.4 1 -3.3
v -1 1 -3.3
v -1.5 1 -3.4
v -1.4 1 -3.4
v -1 1 -3.4
v -0.9 1 -3.4
v -1.5 1 -3.8
v -1.4 1 -3.8
v -1 1 -3.8
v -0.9 1 -3.8
v -1.4 1 -3.9
v -1 1 -3.9
v -1.3 1.1 -3.2
v -1.1 1.1 -3.2
v -1.5 1.1 -3.3
v -1.4 1.1 -3.3
v -1.3 1.1 -3.3
v -1.1 1.1 -3.3
v -1 1.1 -3.3
v -0.9 1.1 -3.3
v -1.5 1.1 -3.4
v -1.4 1.1 -3.4
v -1 1.1 -3.4
v -0.9 1.1 -3.4
v -1.6 1.1 -3.5
v -1.5 1.1 -3.5
v -0.9 1.1 -3.5
v -0.8 1.1 -3.5
v -1.6 1.1 -3.7
v -1.5 1.1 -3.7
v -0.9 1.1 -3.7
v -0.8 1.1 -3.7
v -1.5 1.1 -3.8
v -1.4 1.1 -3.8
v -1 1.1 -3.8
v -0.9 1.1 -3.8
v -1.5 1.1 -3.9
v -1.4 1.1 -3.9
v -1 1.1 -3.9
v -0.9 1.1 -3.9
v -1.4 1.2 -3.2
v -1.3 1.2 -3.2
v -1.1 1.2 -3.2
v -1 1.2 -3.2
v -1.4 1.2 -3.3
v -1.3 1.2 -3.3
v -1.1 1.2 -3.3
v -1 1.2 -3.3
v -1.6 1.2 -3.4
v -1.5 1.2 -3.4
v -0.9 1.2 -3.4
v -0.8 1.2 -3.4
v -1.6 1.2 -3.5
v -1.5 1.2 -3.5
v -0.9 1.2 -3.5
v -0.8 1.2 -3.5
v -1.6 1.2 -3.7
v -1.5 1.2 -3.7
v -0.9 1.2 -3.7
v -0.8 1.2 -3.7
v -1.6 1.2 -3.8
v -1.5 1.2 -3.8
v -0.9 1.2 -3.8
v -0.8 1.2 -3.8
v -1.5 1.2 -3.9
v -1.4 1.2 -3.9
v -1 1.2 -3.9
v -0.9 1.2 -3.9
v -1.5 1.2 -4
v -1.4 1.2 -4
v -1 1.2 -4
v -0.9 1.2 -4
v -1.3 1.3 -4
v -1.1 1.3 -4
v -1.3 1.3 -4.1
v -1.1 1.3 -4.1
v -1.4 1.4 -3.2
v -1.3 1.4 -3.2
v -1.1 1.4 -3.2
v -1 1.4 -3.2
v -1.4 1.4 -3.3
v -1.3 1.4 -3.3
v -1.1 1.4 -3.3
v -1 1.4 -3.3
v -1.6 1.4 -3.4
v -1.5 1.4 -3.4
v -0.9 1.4 -3.4
v -0.8 1.4 -3.4
v -1.6 1.4 -3.5
v -1.5 1.4 -3.5
v -0.9 1.4 -3.5
v -0.8 1.4 -3.5
v -1.6 1.4 -3.7
v -1.5 1.4 -3.7
v -0.9 1.4 -3.7
v -0.8 1.4 -3.7
v -1.6 1.4 -3.8
v -1.5 1.4 -3.8
v -0.9 1.4 -3.8
v -0.8 1.4 -3.8
v -1.5 1.4 -3.9
v -1.4 1.4 -3.9
v -1.3 1.4 -3.9
v -1.1 1.4 -3.9
v -1 1.4 -3.9
v -0.9 1.4 -3.9
v -1.5 1.4 -4
v -1.4 1.4 -4
v -1.3 1.4 -4
v -1.1 1.4 -4
v -1 1.4 -4
v -0.9 1.4 -4
v -1.3 1.4 -4.1
v -1.1 1.4 -4.1
v -1.3 1.5 -3.2
v -1.1 1.5 -3.2
v -1.5 1.5 -3.3
v -1.4 1.5 -3.3
v -1.3 1.5 -3.3
v -1.1 1.5 -3.3
v -1 1.5 -3.3
v -0.9 1.5 -3.3
v -1.5 1.5 -3.4
v -1.4 1.5 -3.4
v -1 1.5 -3.4
v -0.9 1.5 -3.4
v -0.9 1.5 -3.5
v -0.8 1.5 -3.5
v -0.9 1.5 -3.7
v -0.8 1.5 -3.7
v -1.5 1.5 -3.8
v -1.4 1.5 -3.8
v -1 1.5 -3.8
v -0.9 1.5 -3.8
v -1.5 1.5 -3.9
v -1.4 1.5 -3.9
v -1 1.5 -3.9
v -0.9 1.5 -3.9
v -1.4 1.6 -3.3
v -1 1.6 -3.3
v -1.5 1.6 -3.4
v -1.4 1.6 -3.4
v -1.3 1.6 -3.4
v -1.1 1.6 -3.4
v -1 1.6 -3.4
v -0.9 1.6 -3.4
v -1.6 1.6 -3.5
v -1.5 1.6 -3.5
v -1.4 1.6 -3.5
v -1.3 1.6 -3.5
v -1.1 1.6 -3.5
v -1 1.6 -3.5
v -1.6 1.6 -3.7
v -1.5 1.6 -3.7
v -1.4 1.6 -3.7
v -1.3 1.6 -3.7
v -1.1 1.6 -3.7
v -1 1.6 -3.7
v -1.5 1.6 -3.8
v -1.4 1.6 -3.8
v -1.3 1.6 -3.8
v -1.1 1.6 -3.8
v -1 1.6 -3.8
v -0.9 1.6 -3.8
v -1.4 1.6 -3.9
v -1 1.6 -3.9
v -1.3 1.7 -3.4
v -1.1 1.7 -3.4
v -1.4 1.7 -3.5
v -1.3 1.7 -3.5
v -1.1 1.7 -3.5
v -1 1.7 -3.5
v -1.4 1.7 -3.7
v -1.3 1.7 -3.7
v -1.1 1.7 -3.7
v -1 1.7 -3.7
v -1.3 1.7 -3.8
v -1.1 1.7 -3.8

# faces
f 4/4/1 2/4/1 1/4/1
f 5/4/1 2/4/1 4/4/1
f 7/4/1 4/4/1 3/4/1
f 7/4/1 6/4/1 5/4/1
f 7/4/1 5/4/1 4/4/1
f 8/4/1 6/4/1 7/4/1
f 9/4/1 6/4/1 8/4/1
f 10/4/1 6/4/1 9/4/1
f 11/4/1 9/4/1 8/4/1
f 12/4/1 9/4/1 11/4/1
f 16/4/1 14/4/1 13/4/1
f 17/4/1 14/4/1 16/4/1
f 18/4/1 14/4/1 17/4/1
f 19/4/1 14/4/1 18/4/1
f 21/4/1 16/4/1 15/4/1
f 21/4/1 17/4/1 16/4/1
f 22/4/1 17/4/1 21/4/1
f 23/4/1 20/4/1 19/4/1
f 23/4/1 19/4/1 18/4/1
f 24/4/1 20/4/1 23/4/1
f 25/4/1 20/4/1 24/4/1
f 27/4/1 21/4/1 15/4/1
f 30/4/1 25/4/1 24/4/1
f 31/1/1 26/1/1 25/1/1
f 31/4/1 25/4/1 30/4/1
f 32/1/1 26/1/1 31/1/1
f 33/4/1 28/4/1 27/4/1
f 33/4/1 27/4/1 15/4/1
f 34/4/1 28/4/1 33/4/1
f 35/4/1 30/4/1 29/4/1
f 35/4/1 31/4/1 30/4/1
f 36/4/1 31/4/1 35/4/1
f 37/4/1 28/4/1 34/4/1
f 38/4/1 28/4/1 37/4/1
f 39/4/1 35/4/1 29/4/1
f 40/4/1 35/4/1 39/4/1
f 45/4/1 42/4/1 41/4/1
f 46/4/1 42/4/1 45/4/1
f 47/4/1 44/4/1 43/4/1
f 48/4/1 44/4/1 47/4/1
f 51/4/1 50/4/1 49/4/1
f 52/4/1 50/4/1 51/4/1
f 57/4/1 54/4/1 53/4/1
f 58/4/1 54/4/1 57/4/1
f 61/4/1 56/4/1 55/4/1
f 62/4/1 56/4/1 61/4/1
f 63/4/1 60/4/1 59/4/1
f 64/4/1 60/4/1 63/4/1
f 67/4/1 66/4/1 65/4/1
f 68/4/1 66/4/1 67/4/1
f 73/2/1 70/2/1 69/2/1
f 74/2/1 70/2/1 73/2/1
f 75/4/1 72/4/1 71/4/1
f 76/4/1 72/4/1 75/4/1
f 81/4/1 78/4/1 77/4/1
f 82/4/1 78/4/1 81/4/1
f 83/4/1 80/4/1 79/4/1
f 84/4/1 80/4/1 83/4/1
f 85/4/2 86/4/2 87/4/2
f 87/4/2 86/4/2 88/4/2
f 89/2/2 90/2/2 93/2/2
f 93/2/2 90/2/2 94/2/2
f 91/4/2 92/4/2 95/4/2
f 95/4/2 92/4/2 96/4/2
f 97/4/2 98/4/2 101/4/2
f 101/4/2 98/4/2 102/4/2
f 99/4/2 100/4/2 103/4/2
f 103/4/2 100/4/2 104/4/2
f 105/4/2 106/4/2 109/4/2
f 109/4/2 106/4/2 110/4/2
f 107/4/2 108/4/2 111/4/2
f 111/4/2 108/4/2 112/4/2
f 113/4/2 114/4/2 115/4/2
f 115/4/2 114/4/2 116/4/2
f 117/4/2 118/4/2 121/4/2
f 121/4/2 118/4/2 122/4/2
f 119/4/2 120/4/2 125/4/2
f 125/4/2 120/4/2 126/4/2
f 123/4/2 124/4/2 127/4/2
f 127/4/2 124/4/2 128/4/2
f 129/4/2 130/4/2 132/4/2
f 132/4/2 130/4/2 133/4/2
f 133/4/2 130/4/2 134/4/2
f 134/4/2 130/4/2 135/4/2
f 131/4/2 132/4/2 137/4/2
f 132/4/2 133/4/2 137/4/2
f 137/4/2 133/4/2 138/4/2
f 135/4/2 136/4/2 139/4/2
f 134/4/2 135/4/2 139/4/2
f 139/4/2 136/4/2 140/4/2
f 140/4/2 136/4/2 141/4/2
f 131/4/2 137/4/2 143/4/2
f 140/4/2 141/4/2 146/4/2
f 141/1/2 142/1/2 147/1/2
f 146/4/2 141/4/2 147/4/2
f 147/1/2 142/1/2 148/1/2
f 143/4/2 144/4/2 149/4/2
f 131/4/2 143/4/2 149/4/2
f 149/4/2 144/4/2 150/4/2
f 150/4/2 144/4/2 151/4/2
f 145/4/2 146/4/2 152/4/2
f 146/4/2 147/4/2 152/4/2
f 152/4/2 147/4/2 153/4/2
f 153/4/2 147/4/2 154/4/2
f 150/4/2 151/4/2 155/4/2
f 152/4/2 153/4/2 155/4/2
f 151/4/2 152/4/2 155/4/2
f 155/4/2 153/4/2 156/4/2
f 157/4/2 158/4/2 160/4/2
f 160/4/2 158/4/2 161/4/2
f 159/4/2 160/4/2 163/4/2
f 161/4/2 162/4/2 163/4/2
f 160/4/2 161/4/2 163/4/2
f 163/4/2 162/4/2 164/4/2
f 164/4/2 162/4/2 165/4/2
f 165/4/2 162/4/2 166/4/2
f 164/4/2 165/4/2 167/4/2
f 167/4/2 165/4/2 168/4/2
f 172/4/3 170/4/3 169/4/3
f 173/4/3 170/4/3 172/4/3
f 175/4/3 172/4/3 171/4/3
f 175/4/3 174/4/3 173/4/3
f 175/4/3 173/4/3 172/4/3
f 176/4/3 174/4/3 175/4/3
f 177/4/3 174/4/3 176/4/3
f 178/4/3 174/4/3 177/4/3
f 179/4/3 177/4/3 176/4/3
f 180/4/3 177/4/3 179/4/3
f 184/4/3 182/4/3 181/4/3
f 185/4/3 182/4/3 184/4/3
f 186/4/3 182/4/3 185/4/3
f 187/4/3 182/4/3 186/4/3
f 189/4/3 184/4/3 183/4/3
f 189/4/3 185/4/3 184/4/3
f 190/4/3 185/4/3 189/4/3
f 191/4/3 188/4/3 187/4/3
f 191/4/3 187/4/3 186/4/3
f 192/4/3 188/4/3 191/4/3
f 193/4/3 189/4/3 183/4/3
f 196/4/3 188/4/3 192/4/3
f 197/4/3 194/4/3 193/4/3
f 197/4/3 193/4/3 183/4/3
f 198/4/3 194/4/3 197/4/3
f 199/4/3 194/4/3 198/4/3
f 200/4/3 196/4/3 195/4/3
f 201/4/3 188/4/3 196/4/3
f 201/4/3 196/4/3 200/4/3
f 202/4/3 188/4/3 201/4/3
f 203/4/3 199/4/3 198/4/3
f 203/4/3 200/4/3 199/4/3
f 203/4/3 201/4/3 200/4/3
f 204/4/3 201/4/3 203/4/3
f 209/4/3 206/4/3 205/4/3
f 210/4/3 206/4/3 209/4/3
f 213/4/3 208/4/3 207/4/3
f 214/4/3 208/4/3 213/4/3
f 215/4/3 212/4/3 211/4/3
f 216/4/3 212/4/3 215/4/3
f 219/4/3 218/4/3 217/4/3
f 220/4/3 218/4/3 219/4/3
f 225/4/3 222/4/3 221/4/3
f 226/4/3 222/4/3 225/4/3
f 229/4/3 224/4/3 223/4/3
f 230/4/3 224/4/3 229/4/3
f 231/4/3 228/4/3 227/4/3
f 232/4/3 228/4/3 231/4/3
f 237/4/3 234/4/3 233/4/3
f 238/4/3 234/4/3 237/4/3
f 239/4/3 236/4/3 235/4/3
f 240/4/3 236/4/3 239/4/3
f 243/4/3 242/4/3 241/4/3
f 244/4/3 242/4/3 243/4/3
f 247/4/3 246/4/3 245/4/3
f 248/4/3 246/4/3 247/4/3
f 253/4/3 250/4/3 249/4/3
f 254/4/3 250/4/3 253/4/3
f 255/4/3 252/4/3 251/4/3
f 256/4/3 252/4/3 255/4/3
f 257/4/4 258/4/4 261/4/4
f 261/4/4 258/4/4 262/4/4
f 259/4/4 260/4/4 263/4/4
f 263/4/4 260/4/4 264/4/4
f 265/4/4 266/4/4 267/4/4
f 267/4/4 266/4/4 268/4/4
f 269/4/4 270/4/4 271/4/4
f 271/4/4 270/4/4 272/4/4
f 273/4/4 274/4/4 277/4/4
f 277/4/4 274/4/4 278/4/4
f 275/4/4 276/4/4 279/4/4
f 279/4/4 276/4/4 280/4/4
f 281/4/4 282/4/4 285/4/4
f 285/4/4 282/4/4 286/4/4
f 283/4/4 284/4/4 289/4/4
f 289/4/4 284/4/4 290/4/4
f 287/4/4 288/4/4 291/4/4
f 291/4/4 288/4/4 292/4/4
f 293/4/4 294/4/4 295/4/4
f 295/4/4 294/4/4 296/4/4
f 297/4/4 298/4/4 301/4/4
f 301/4/4 298/4/4 302/4/4
f 299/4/4 300/4/4 305/4/4
f 305/4/4 300/4/4 306/4/4
f 303/4/4 304/4/4 307/4/4
f 307/4/4 304/4/4 308/4/4
f 309/4/4 310/4/4 314/4/4
f 314/4/4 310/4/4 315/4/4
f 311/4/4 312/4/4 316/4/4
f 316/4/4 312/4/4 317/4/4
f 316/3/4 317/3/4 319/3/4
f 317/4/4 318/4/4 320/4/4
f 319/3/4 317/3/4 320/3/4
f 319/4/4 320/4/4 321/4/4
f 320/4/4 318/4/4 322/4/4
f 321/4/4 320/4/4 322/4/4
f 313/4/4 314/4/4 323/4/4
f 314/3/4 315/3/4 324/3/4
f 323/4/4 314/4/4 324/4/4
f 324/3/4 315/3/4 325/3/4
f 321/3/4 322/3/4 326/3/4
f 322/4/4 318/4/4 327/4/4
f 326/3/4 322/3/4 327/3/4
f 327/4/4 318/4/4 328/4/4
f 324/4/4 325/4/4 329/4/4
f 329/4/4 325/4/4 330/4/4
f 326/4/4 327/4/4 331/4/4
f 331/4/4 327/4/4 332/4/4
f 333/1/4 334/1/4 335/1/4
f 335/1/4 334/1/4 336/1/4
f 335/4/4 336/4/4 337/4/4
f 337/4/4 336/4/4 338/4/4
f 335/4/4 337/4/4 339/4/4
f 335/4/4 339/4/4 341/4/4
f 339/4/4 340/4/4 341/4/4
f 341/4/4 340/4/4 342/4/4
f 341/1/4 342/1/4 343/1/4
f 343/1/4 342/1/4 344/1/4
f 345/2/4 346/2/4 347/2/4
f 347/2/4 346/2/4 348/2/4
f 352/4/5 350/4/5 349/4/5
f 353/4/5 350/4/5 352/4/5
f 355/4/5 352/4/5 351/4/5
f 355/4/5 354/4/5 353/4/5
f 355/4/5 353/4/5 352/4/5
f 356/4/5 354/4/5 355/4/5
f 357/4/5 354/4/5 356/4/5
f 358/4/5 354/4/5 357/4/5
f 359/4/5 357/4/5 356/4/5
f 360/4/5 357/4/5 359/4/5
f 365/4/5 362/4/5 361/4/5
f 366/4/5 362/4/5 365/4/5
f 369/4/5 364/4/5 363/4/5
f 370/4/5 364/4/5 369/4/5
f 371/4/5 368/4/5 367/4/5
f 372/4/5 368/4/5 371/4/5
f 377/4/5 374/4/5 373/4/5
f 378/4/5 374/4/5 377/4/5
f 379/4/5 376/4/5 375/4/5
f 380/4/5 376/4/5 379/4/5
f 385/4/5 382/4/5 381/4/5
f 386/4/5 382/4/5 385/4/5
f 387/4/5 384/4/5 383/4/5
f 388/4/5 384/4/5 387/4/5
f 393/4/5 390/4/5 389/4/5
f 394/4/5 390/4/5 393/4/5
f 395/4/5 392/4/5 391/4/5
f 396/4/5 392/4/5 395/4/5
f 401/4/5 398/4/5 397/4/5
f 402/4/5 398/4/5 401/4/5
f 403/4/5 400/4/5 399/4/5
f 404/4/5 400/4/5 403/4/5
f 409/4/5 406/4/5 405/4/5
f 410/4/5 406/4/5 409/4/5
f 411/4/5 408/4/5 407/4/5
f 412/4/5 408/4/5 411/4/5
f 417/1/5 414/1/5 413/1/5
f 418/4/5 415/4/5 414/4/5
f 418/1/5 414/1/5 417/1/5
f 419/1/5 416/1/5 415/1/5
f 419/4/5 415/4/5 418/4/5
f 420/1/5 416/1/5 419/1/5
f 423/2/5 422/2/5 421/2/5
f 424/2/5 422/2/5 423/2/5
f 425/4/6 426/4/6 429/4/6
f 429/4/6 426/4/6 430/4/6
f 427/4/6 428/4/6 431/4/6
f 431/4/6 428/4/6 432/4/6
f 433/4/6 434/4/6 437/4/6
f 437/4/6 434/4/6 438/4/6
f 435/4/6 436/4/6 439/4/6
f 439/4/6 436/4/6 440/4/6
f 441/4/6 442/4/6 445/4/6
f 445/4/6 442/4/6 446/4/6
f 443/4/6 444/4/6 447/4/6
f 447/4/6 444/4/6 448/4/6
f 449/1/6 450/1/6 455/1/6
f 450/4/6 451/4/6 456/4/6
f 455/1/6 450/1/6 456/1/6
f 451/2/6 452/2/6 457/2/6
f 456/4/6 451/4/6 457/4/6
f 452/4/6 453/4/6 458/4/6
f 457/2/6 452/2/6 458/2/6
f 453/1/6 454/1/6 459/1/6
f 458/4/6 453/4/6 459/4/6
f 459/1/6 454/1/6 460/1/6
f 457/2/6 458/2/6 461/2/6
f 461/2/6 458/2/6 462/2/6
f 463/4/6 464/4/6 467/4/6
f 467/4/6 464/4/6 468/4/6
f 465/4/6 466/4/6 471/4/6
f 471/4/6 466/4/6 472/4/6
f 469/4/6 470/4/6 473/4/6
f 473/4/6 470/4/6 474/4/6
f 475/4/6 476/4/6 477/4/6
f 477/4/6 476/4/6 478/4/6
f 479/4/6 480/4/6 483/4/6
f 483/4/6 480/4/6 484/4/6
f 481/4/6 482/4/6 485/4/6
f 485/4/6 482/4/6 486/4/6
f 487/4/6 488/4/6 490/4/6
f 490/4/6 488/4/6 491/4/6
f 491/4/6 488/4/6 492/4/6
f 492/4/6 488/4/6 493/4/6
f 489/4/6 490/4/6 496/4/6
f 490/4/6 491/4/6 496/4/6
f 496/4/6 491/4/6 497/4/6
f 497/4/6 491/4/6 498/4/6
f 492/4/6 493/4/6 499/4/6
f 493/4/6 494/4/6 499/4/6
f 499/4/6 494/4/6 500/4/6
f 496/4/6 497/4/6 501/4/6
f 495/4/6 496/4/6 501/4/6
f 501/4/6 497/4/6 502/4/6
f 502/4/6 497/4/6 503/4/6
f 500/4/6 494/4/6 506/4/6
f 503/4/6 504/4/6 507/4/6
f 502/4/6 503/4/6 507/4/6
f 507/4/6 504/4/6 508/4/6
f 508/4/6 504/4/6 509/4/6
f 505/4/6 506/4/6 510/4/6
f 506/4/6 494/4/6 511/4/6
f 510/4/6 506/4/6 511/4/6
f 511/4/6 494/4/6 512/4/6
f 508/4/6 509/4/6 513/4/6
f 509/4/6 510/4/6 513/4/6
f 510/4/6 511/4/6 513/4/6
f 513/4/6 511/4/6 514/4/6
f 515/4/6 516/4/6 518/4/6
f 518/4/6 516/4/6 519/4/6
f 517/4/6 518/4/6 521/4/6
f 519/4/6 520/4/6 521/4/6
f 518/4/6 519/4/6 521/4/6
f 521/4/6 520/4/6 522/4/6
f 522/4/6 520/4/6 523/4/6
f 523/4/6 520/4/6 524/4/6
f 522/4/6 523/4/6 525/4/6
f 525/4/6 523/4/6 526/4/6
