# MagicaVoxel @ Ephtracy

# group
o coffin

# material
mtllib church-55-coffin.mtl
usemtl palette

# normals
vn -1 0 0
vn 1 0 0
vn 0 0 1
vn 0 0 -1
vn 0 -1 0
vn 0 1 0

# texcoords
vt 0.189453 0.5
vt 0.193359 0.5

# verts
v 10.4 0 -1.8
v 10.4 0 -2.5
v 10.4 0.1 -1.8
v 10.4 0.1 -2.5
v 10.4 0.3 -1.8
v 10.4 0.3 -2.5
v 10.4 0.4 -1.8
v 10.4 0.4 -2.5
v 10.5 0 -1.3
v 10.5 0 -1.8
v 10.5 0 -2.5
v 10.5 0 -2.7
v 10.5 0.1 -1.3
v 10.5 0.1 -1.8
v 10.5 0.1 -2.5
v 10.5 0.1 -2.7
v 10.5 0.3 -1.3
v 10.5 0.3 -1.8
v 10.5 0.3 -2.5
v 10.5 0.3 -2.7
v 10.5 0.4 -1.3
v 10.5 0.4 -1.8
v 10.5 0.4 -2.5
v 10.5 0.4 -2.7
v 10.6 0 -0.8
v 10.6 0 -1.3
v 10.6 0.1 -0.8
v 10.6 0.1 -1.3
v 10.6 0.3 -0.8
v 10.6 0.3 -1.3
v 10.6 0.4 -0.8
v 10.6 0.4 -1.3
v 10.7 0 -0.5
v 10.7 0 -0.8
v 10.7 0.1 -0.5
v 10.7 0.1 -0.8
v 10.7 0.3 -0.5
v 10.7 0.3 -0.8
v 10.7 0.4 -0.5
v 10.7 0.4 -0.8
v 11.2 0.1 -0.6
v 11.2 0.1 -0.9
v 11.2 0.3 -0.6
v 11.2 0.3 -0.9
v 11.2 0.4 -0.6
v 11.2 0.4 -0.9
v 11.3 0.1 -0.9
v 11.3 0.1 -1.4
v 11.3 0.3 -0.9
v 11.3 0.3 -1.4
v 11.3 0.4 -0.9
v 11.3 0.4 -1.4
v 11.4 0.1 -1.4
v 11.4 0.1 -1.8
v 11.4 0.1 -2.4
v 11.4 0.1 -2.6
v 11.4 0.3 -1.4
v 11.4 0.3 -1.8
v 11.4 0.3 -2.4
v 11.4 0.3 -2.6
v 11.4 0.4 -1.4
v 11.4 0.4 -1.8
v 11.4 0.4 -2.4
v 11.4 0.4 -2.6
v 11.5 0.1 -1.8
v 11.5 0.1 -2.4
v 11.5 0.3 -1.8
v 11.5 0.3 -2.4
v 11.5 0.4 -1.8
v 11.5 0.4 -2.4
v 10.5 0.1 -1.8
v 10.5 0.1 -2.4
v 10.5 0.3 -1.8
v 10.5 0.3 -2.4
v 10.5 0.4 -1.8
v 10.5 0.4 -2.4
v 10.6 0.1 -1.4
v 10.6 0.1 -1.8
v 10.6 0.1 -2.4
v 10.6 0.1 -2.6
v 10.6 0.3 -1.4
v 10.6 0.3 -1.8
v 10.6 0.3 -2.4
v 10.6 0.3 -2.6
v 10.6 0.4 -1.4
v 10.6 0.4 -1.8
v 10.6 0.4 -2.4
v 10.6 0.4 -2.6
v 10.7 0.1 -0.9
v 10.7 0.1 -1.4
v 10.7 0.3 -0.9
v 10.7 0.3 -1.4
v 10.7 0.4 -0.9
v 10.7 0.4 -1.4
v 10.8 0.1 -0.6
v 10.8 0.1 -0.9
v 10.8 0.3 -0.6
v 10.8 0.3 -0.9
v 10.8 0.4 -0.6
v 10.8 0.4 -0.9
v 11.3 0 -0.5
v 11.3 0 -0.8
v 11.3 0.1 -0.5
v 11.3 0.1 -0.8
v 11.3 0.3 -0.5
v 11.3 0.3 -0.8
v 11.3 0.4 -0.5
v 11.3 0.4 -0.8
v 11.4 0 -0.8
v 11.4 0 -1.3
v 11.4 0.1 -0.8
v 11.4 0.1 -1.3
v 11.4 0.3 -0.8
v 11.4 0.3 -1.3
v 11.4 0.4 -0.8
v 11.4 0.4 -1.3
v 11.5 0 -1.3
v 11.5 0 -1.8
v 11.5 0 -2.5
v 11.5 0 -2.7
v 11.5 0.1 -1.3
v 11.5 0.1 -1.8
v 11.5 0.1 -2.5
v 11.5 0.1 -2.7
v 11.5 0.3 -1.3
v 11.5 0.3 -1.8
v 11.5 0.3 -2.5
v 11.5 0.3 -2.7
v 11.5 0.4 -1.3
v 11.5 0.4 -1.8
v 11.5 0.4 -2.5
v 11.5 0.4 -2.7
v 11.6 0 -1.8
v 11.6 0 -2.5
v 11.6 0.1 -1.8
v 11.6 0.1 -2.5
v 11.6 0.3 -1.8
v 11.6 0.3 -2.5
v 11.6 0.4 -1.8
v 11.6 0.4 -2.5
v 10.7 0 -0.5
v 10.7 0.1 -0.5
v 10.7 0.3 -0.5
v 10.7 0.4 -0.5
v 11.3 0 -0.5
v 11.3 0.1 -0.5
v 11.3 0.3 -0.5
v 11.3 0.4 -0.5
v 10.6 0 -0.8
v 10.6 0.1 -0.8
v 10.6 0.3 -0.8
v 10.6 0.4 -0.8
v 10.7 0 -0.8
v 10.7 0.1 -0.8
v 10.7 0.3 -0.8
v 10.7 0.4 -0.8
v 11.3 0 -0.8
v 11.3 0.1 -0.8
v 11.3 0.3 -0.8
v 11.3 0.4 -0.8
v 11.4 0 -0.8
v 11.4 0.1 -0.8
v 11.4 0.3 -0.8
v 11.4 0.4 -0.8
v 10.5 0 -1.3
v 10.5 0.1 -1.3
v 10.5 0.3 -1.3
v 10.5 0.4 -1.3
v 10.6 0 -1.3
v 10.6 0.1 -1.3
v 10.6 0.3 -1.3
v 10.6 0.4 -1.3
v 11.4 0 -1.3
v 11.4 0.1 -1.3
v 11.4 0.3 -1.3
v 11.4 0.4 -1.3
v 11.5 0 -1.3
v 11.5 0.1 -1.3
v 11.5 0.3 -1.3
v 11.5 0.4 -1.3
v 10.4 0 -1.8
v 10.4 0.1 -1.8
v 10.4 0.3 -1.8
v 10.4 0.4 -1.8
v 10.5 0 -1.8
v 10.5 0.1 -1.8
v 10.5 0.3 -1.8
v 10.5 0.4 -1.8
v 11.5 0 -1.8
v 11.5 0.1 -1.8
v 11.5 0.3 -1.8
v 11.5 0.4 -1.8
v 11.6 0 -1.8
v 11.6 0.1 -1.8
v 11.6 0.3 -1.8
v 11.6 0.4 -1.8
v 10.5 0.1 -2.4
v 10.5 0.3 -2.4
v 10.5 0.4 -2.4
v 10.6 0.1 -2.4
v 10.6 0.3 -2.4
v 10.6 0.4 -2.4
v 11.4 0.1 -2.4
v 11.4 0.3 -2.4
v 11.4 0.4 -2.4
v 11.5 0.1 -2.4
v 11.5 0.3 -2.4
v 11.5 0.4 -2.4
v 10.6 0.1 -2.6
v 10.6 0.3 -2.6
v 10.6 0.4 -2.6
v 11.4 0.1 -2.6
v 11.4 0.3 -2.6
v 11.4 0.4 -2.6
v 10.8 0.1 -0.6
v 10.8 0.3 -0.6
v 10.8 0.4 -0.6
v 11.2 0.1 -0.6
v 11.2 0.3 -0.6
v 11.2 0.4 -0.6
v 10.7 0.1 -0.9
v 10.7 0.3 -0.9
v 10.7 0.4 -0.9
v 10.8 0.1 -0.9
v 10.8 0.3 -0.9
v 10.8 0.4 -0.9
v 11.2 0.1 -0.9
v 11.2 0.3 -0.9
v 11.2 0.4 -0.9
v 11.3 0.1 -0.9
v 11.3 0.3 -0.9
v 11.3 0.4 -0.9
v 10.6 0.1 -1.4
v 10.6 0.3 -1.4
v 10.6 0.4 -1.4
v 10.7 0.1 -1.4
v 10.7 0.3 -1.4
v 10.7 0.4 -1.4
v 11.3 0.1 -1.4
v 11.3 0.3 -1.4
v 11.3 0.4 -1.4
v 11.4 0.1 -1.4
v 11.4 0.3 -1.4
v 11.4 0.4 -1.4
v 10.5 0.1 -1.8
v 10.5 0.3 -1.8
v 10.5 0.4 -1.8
v 10.6 0.1 -1.8
v 10.6 0.3 -1.8
v 10.6 0.4 -1.8
v 11.4 0.1 -1.8
v 11.4 0.3 -1.8
v 11.4 0.4 -1.8
v 11.5 0.1 -1.8
v 11.5 0.3 -1.8
v 11.5 0.4 -1.8
v 10.4 0 -2.5
v 10.4 0.1 -2.5
v 10.4 0.3 -2.5
v 10.4 0.4 -2.5
v 10.5 0 -2.5
v 10.5 0.1 -2.5
v 10.5 0.3 -2.5
v 10.5 0.4 -2.5
v 11.5 0 -2.5
v 11.5 0.1 -2.5
v 11.5 0.3 -2.5
v 11.5 0.4 -2.5
v 11.6 0 -2.5
v 11.6 0.1 -2.5
v 11.6 0.3 -2.5
v 11.6 0.4 -2.5
v 10.5 0 -2.7
v 10.5 0.1 -2.7
v 10.5 0.3 -2.7
v 10.5 0.4 -2.7
v 11.5 0 -2.7
v 11.5 0.1 -2.7
v 11.5 0.3 -2.7
v 11.5 0.4 -2.7
v 10.7 0 -0.5
v 11.3 0 -0.5
v 10.6 0 -0.8
v 10.7 0 -0.8
v 11.3 0 -0.8
v 11.4 0 -0.8
v 10.5 0 -1.3
v 10.6 0 -1.3
v 11.4 0 -1.3
v 11.5 0 -1.3
v 10.4 0 -1.8
v 10.5 0 -1.8
v 11.5 0 -1.8
v 11.6 0 -1.8
v 10.4 0 -2.5
v 10.5 0 -2.5
v 11.5 0 -2.5
v 11.6 0 -2.5
v 10.5 0 -2.7
v 11.5 0 -2.7
v 10.8 0.1 -0.6
v 11.2 0.1 -0.6
v 10.7 0.1 -0.9
v 10.8 0.1 -0.9
v 11.2 0.1 -0.9
v 11.3 0.1 -0.9
v 10.6 0.1 -1.4
v 10.7 0.1 -1.4
v 11.3 0.1 -1.4
v 11.4 0.1 -1.4
v 10.5 0.1 -1.8
v 10.6 0.1 -1.8
v 11.4 0.1 -1.8
v 11.5 0.1 -1.8
v 10.5 0.1 -2.4
v 10.6 0.1 -2.4
v 11.4 0.1 -2.4
v 11.5 0.1 -2.4
v 10.6 0.1 -2.6
v 11.4 0.1 -2.6
v 10.7 0.4 -0.5
v 11.3 0.4 -0.5
v 10.8 0.4 -0.6
v 11.2 0.4 -0.6
v 10.6 0.4 -0.8
v 10.7 0.4 -0.8
v 11.3 0.4 -0.8
v 11.4 0.4 -0.8
v 10.7 0.4 -0.9
v 10.8 0.4 -0.9
v 11.2 0.4 -0.9
v 11.3 0.4 -0.9
v 10.5 0.4 -1.3
v 10.6 0.4 -1.3
v 11.4 0.4 -1.3
v 11.5 0.4 -1.3
v 10.6 0.4 -1.4
v 10.7 0.4 -1.4
v 11.3 0.4 -1.4
v 11.4 0.4 -1.4
v 10.4 0.4 -1.8
v 10.5 0.4 -1.8
v 10.6 0.4 -1.8
v 11.4 0.4 -1.8
v 11.5 0.4 -1.8
v 11.6 0.4 -1.8
v 10.5 0.4 -2.4
v 10.6 0.4 -2.4
v 11.4 0.4 -2.4
v 11.5 0.4 -2.4
v 10.4 0.4 -2.5
v 10.5 0.4 -2.5
v 11.5 0.4 -2.5
v 11.6 0.4 -2.5
v 10.6 0.4 -2.6
v 11.4 0.4 -2.6
v 10.5 0.4 -2.7
v 11.5 0.4 -2.7

# faces
f 3/2/1 2/2/1 1/2/1
f 4/2/1 2/2/1 3/2/1
f 5/1/1 4/1/1 3/1/1
f 6/1/1 4/1/1 5/1/1
f 7/2/1 6/2/1 5/2/1
f 8/2/1 6/2/1 7/2/1
f 13/2/1 10/2/1 9/2/1
f 14/2/1 10/2/1 13/2/1
f 15/2/1 12/2/1 11/2/1
f 16/2/1 12/2/1 15/2/1
f 17/1/1 14/1/1 13/1/1
f 18/1/1 14/1/1 17/1/1
f 19/1/1 16/1/1 15/1/1
f 20/1/1 16/1/1 19/1/1
f 21/2/1 18/2/1 17/2/1
f 22/2/1 18/2/1 21/2/1
f 23/2/1 20/2/1 19/2/1
f 24/2/1 20/2/1 23/2/1
f 27/2/1 26/2/1 25/2/1
f 28/2/1 26/2/1 27/2/1
f 29/1/1 28/1/1 27/1/1
f 30/1/1 28/1/1 29/1/1
f 31/2/1 30/2/1 29/2/1
f 32/2/1 30/2/1 31/2/1
f 35/2/1 34/2/1 33/2/1
f 36/2/1 34/2/1 35/2/1
f 37/1/1 36/1/1 35/1/1
f 38/1/1 36/1/1 37/1/1
f 39/2/1 38/2/1 37/2/1
f 40/2/1 38/2/1 39/2/1
f 43/1/1 42/1/1 41/1/1
f 44/1/1 42/1/1 43/1/1
f 45/2/1 44/2/1 43/2/1
f 46/2/1 44/2/1 45/2/1
f 49/1/1 48/1/1 47/1/1
f 50/1/1 48/1/1 49/1/1
f 51/2/1 50/2/1 49/2/1
f 52/2/1 50/2/1 51/2/1
f 57/1/1 54/1/1 53/1/1
f 58/1/1 54/1/1 57/1/1
f 59/1/1 56/1/1 55/1/1
f 60/1/1 56/1/1 59/1/1
f 61/2/1 58/2/1 57/2/1
f 62/2/1 58/2/1 61/2/1
f 63/2/1 60/2/1 59/2/1
f 64/2/1 60/2/1 63/2/1
f 67/1/1 66/1/1 65/1/1
f 68/1/1 66/1/1 67/1/1
f 69/2/1 68/2/1 67/2/1
f 70/2/1 68/2/1 69/2/1
f 71/1/2 72/1/2 73/1/2
f 73/1/2 72/1/2 74/1/2
f 73/2/2 74/2/2 75/2/2
f 75/2/2 74/2/2 76/2/2
f 77/1/2 78/1/2 81/1/2
f 81/1/2 78/1/2 82/1/2
f 79/1/2 80/1/2 83/1/2
f 83/1/2 80/1/2 84/1/2
f 81/2/2 82/2/2 85/2/2
f 85/2/2 82/2/2 86/2/2
f 83/2/2 84/2/2 87/2/2
f 87/2/2 84/2/2 88/2/2
f 89/1/2 90/1/2 91/1/2
f 91/1/2 90/1/2 92/1/2
f 91/2/2 92/2/2 93/2/2
f 93/2/2 92/2/2 94/2/2
f 95/1/2 96/1/2 97/1/2
f 97/1/2 96/1/2 98/1/2
f 97/2/2 98/2/2 99/2/2
f 99/2/2 98/2/2 100/2/2
f 101/2/2 102/2/2 103/2/2
f 103/2/2 102/2/2 104/2/2
f 103/1/2 104/1/2 105/1/2
f 105/1/2 104/1/2 106/1/2
f 105/2/2 106/2/2 107/2/2
f 107/2/2 106/2/2 108/2/2
f 109/2/2 110/2/2 111/2/2
f 111/2/2 110/2/2 112/2/2
f 111/1/2 112/1/2 113/1/2
f 113/1/2 112/1/2 114/1/2
f 113/2/2 114/2/2 115/2/2
f 115/2/2 114/2/2 116/2/2
f 117/2/2 118/2/2 121/2/2
f 121/2/2 118/2/2 122/2/2
f 119/2/2 120/2/2 123/2/2
f 123/2/2 120/2/2 124/2/2
f 121/1/2 122/1/2 125/1/2
f 125/1/2 122/1/2 126/1/2
f 123/1/2 124/1/2 127/1/2
f 127/1/2 124/1/2 128/1/2
f 125/2/2 126/2/2 129/2/2
f 129/2/2 126/2/2 130/2/2
f 127/2/2 128/2/2 131/2/2
f 131/2/2 128/2/2 132/2/2
f 133/2/2 134/2/2 135/2/2
f 135/2/2 134/2/2 136/2/2
f 135/1/2 136/1/2 137/1/2
f 137/1/2 136/1/2 138/1/2
f 137/2/2 138/2/2 139/2/2
f 139/2/2 138/2/2 140/2/2
f 145/2/3 142/2/3 141/2/3
f 146/1/3 143/1/3 142/1/3
f 146/2/3 142/2/3 145/2/3
f 147/2/3 144/2/3 143/2/3
f 147/1/3 143/1/3 146/1/3
f 148/2/3 144/2/3 147/2/3
f 153/2/3 150/2/3 149/2/3
f 154/1/3 151/1/3 150/1/3
f 154/2/3 150/2/3 153/2/3
f 155/2/3 152/2/3 151/2/3
f 155/1/3 151/1/3 154/1/3
f 156/2/3 152/2/3 155/2/3
f 161/2/3 158/2/3 157/2/3
f 162/1/3 159/1/3 158/1/3
f 162/2/3 158/2/3 161/2/3
f 163/2/3 160/2/3 159/2/3
f 163/1/3 159/1/3 162/1/3
f 164/2/3 160/2/3 163/2/3
f 169/2/3 166/2/3 165/2/3
f 170/1/3 167/1/3 166/1/3
f 170/2/3 166/2/3 169/2/3
f 171/2/3 168/2/3 167/2/3
f 171/1/3 167/1/3 170/1/3
f 172/2/3 168/2/3 171/2/3
f 177/2/3 174/2/3 173/2/3
f 178/1/3 175/1/3 174/1/3
f 178/2/3 174/2/3 177/2/3
f 179/2/3 176/2/3 175/2/3
f 179/1/3 175/1/3 178/1/3
f 180/2/3 176/2/3 179/2/3
f 185/2/3 182/2/3 181/2/3
f 186/1/3 183/1/3 182/1/3
f 186/2/3 182/2/3 185/2/3
f 187/2/3 184/2/3 183/2/3
f 187/1/3 183/1/3 186/1/3
f 188/2/3 184/2/3 187/2/3
f 193/2/3 190/2/3 189/2/3
f 194/1/3 191/1/3 190/1/3
f 194/2/3 190/2/3 193/2/3
f 195/2/3 192/2/3 191/2/3
f 195/1/3 191/1/3 194/1/3
f 196/2/3 192/2/3 195/2/3
f 200/1/3 198/1/3 197/1/3
f 201/2/3 199/2/3 198/2/3
f 201/1/3 198/1/3 200/1/3
f 202/2/3 199/2/3 201/2/3
f 206/1/3 204/1/3 203/1/3
f 207/2/3 205/2/3 204/2/3
f 207/1/3 204/1/3 206/1/3
f 208/2/3 205/2/3 207/2/3
f 212/1/3 210/1/3 209/1/3
f 213/2/3 211/2/3 210/2/3
f 213/1/3 210/1/3 212/1/3
f 214/2/3 211/2/3 213/2/3
f 215/1/4 216/1/4 218/1/4
f 216/2/4 217/2/4 219/2/4
f 218/1/4 216/1/4 219/1/4
f 219/2/4 217/2/4 220/2/4
f 221/1/4 222/1/4 224/1/4
f 222/2/4 223/2/4 225/2/4
f 224/1/4 222/1/4 225/1/4
f 225/2/4 223/2/4 226/2/4
f 227/1/4 228/1/4 230/1/4
f 228/2/4 229/2/4 231/2/4
f 230/1/4 228/1/4 231/1/4
f 231/2/4 229/2/4 232/2/4
f 233/1/4 234/1/4 236/1/4
f 234/2/4 235/2/4 237/2/4
f 236/1/4 234/1/4 237/1/4
f 237/2/4 235/2/4 238/2/4
f 239/1/4 240/1/4 242/1/4
f 240/2/4 241/2/4 243/2/4
f 242/1/4 240/1/4 243/1/4
f 243/2/4 241/2/4 244/2/4
f 245/1/4 246/1/4 248/1/4
f 246/2/4 247/2/4 249/2/4
f 248/1/4 246/1/4 249/1/4
f 249/2/4 247/2/4 250/2/4
f 251/1/4 252/1/4 254/1/4
f 252/2/4 253/2/4 255/2/4
f 254/1/4 252/1/4 255/1/4
f 255/2/4 253/2/4 256/2/4
f 257/2/4 258/2/4 261/2/4
f 258/1/4 259/1/4 262/1/4
f 261/2/4 258/2/4 262/2/4
f 259/2/4 260/2/4 263/2/4
f 262/1/4 259/1/4 263/1/4
f 263/2/4 260/2/4 264/2/4
f 265/2/4 266/2/4 269/2/4
f 266/1/4 267/1/4 270/1/4
f 269/2/4 266/2/4 270/2/4
f 267/2/4 268/2/4 271/2/4
f 270/1/4 267/1/4 271/1/4
f 271/2/4 268/2/4 272/2/4
f 273/2/4 274/2/4 277/2/4
f 274/1/4 275/1/4 278/1/4
f 277/2/4 274/2/4 278/2/4
f 275/2/4 276/2/4 279/2/4
f 278/1/4 275/1/4 279/1/4
f 279/2/4 276/2/4 280/2/4
f 284/2/5 282/2/5 281/2/5
f 285/2/5 282/2/5 284/2/5
f 288/2/5 284/2/5 283/2/5
f 288/2/5 286/2/5 285/2/5
f 288/2/5 285/2/5 284/2/5
f 289/2/5 286/2/5 288/2/5
f 292/2/5 288/2/5 287/2/5
f 292/2/5 290/2/5 289/2/5
f 292/2/5 289/2/5 288/2/5
f 293/2/5 290/2/5 292/2/5
f 295/2/5 292/2/5 291/2/5
f 295/2/5 294/2/5 293/2/5
f 295/2/5 293/2/5 292/2/5
f 296/2/5 294/2/5 295/2/5
f 297/2/5 294/2/5 296/2/5
f 298/2/5 294/2/5 297/2/5
f 299/2/5 297/2/5 296/2/5
f 300/2/5 297/2/5 299/2/5
f 301/2/6 302/2/6 304/2/6
f 304/2/6 302/2/6 305/2/6
f 303/2/6 304/2/6 308/2/6
f 305/2/6 306/2/6 308/2/6
f 304/2/6 305/2/6 308/2/6
f 308/2/6 306/2/6 309/2/6
f 307/2/6 308/2/6 312/2/6
f 309/2/6 310/2/6 312/2/6
f 308/2/6 309/2/6 312/2/6
f 312/2/6 310/2/6 313/2/6
f 311/2/6 312/2/6 315/2/6
f 313/2/6 314/2/6 315/2/6
f 312/2/6 313/2/6 315/2/6
f 315/2/6 314/2/6 316/2/6
f 316/2/6 314/2/6 317/2/6
f 317/2/6 314/2/6 318/2/6
f 316/2/6 317/2/6 319/2/6
f 319/2/6 317/2/6 320/2/6
f 321/2/6 322/2/6 323/2/6
f 323/2/6 322/2/6 324/2/6
f 321/2/6 323/2/6 326/2/6
f 324/2/6 322/2/6 327/2/6
f 325/2/6 326/2/6 329/2/6
f 326/2/6 323/2/6 329/2/6
f 329/2/6 323/2/6 330/2/6
f 327/2/6 328/2/6 331/2/6
f 324/2/6 327/2/6 331/2/6
f 331/2/6 328/2/6 332/2/6
f 325/2/6 329/2/6 334/2/6
f 332/2/6 328/2/6 335/2/6
f 333/2/6 334/2/6 337/2/6
f 334/2/6 329/2/6 337/2/6
f 337/2/6 329/2/6 338/2/6
f 335/2/6 336/2/6 339/2/6
f 332/2/6 335/2/6 339/2/6
f 339/2/6 336/2/6 340/2/6
f 333/2/6 337/2/6 342/2/6
f 342/2/6 337/2/6 343/2/6
f 340/2/6 336/2/6 344/2/6
f 344/2/6 336/2/6 345/2/6
f 341/2/6 342/2/6 347/2/6
f 345/2/6 346/2/6 350/2/6
f 347/2/6 348/2/6 351/2/6
f 341/2/6 347/2/6 351/2/6
f 351/2/6 348/2/6 352/2/6
f 349/2/6 350/2/6 353/2/6
f 350/2/6 346/2/6 353/2/6
f 353/2/6 346/2/6 354/2/6
f 352/2/6 348/2/6 355/2/6
f 349/2/6 353/2/6 356/2/6
f 352/2/6 355/2/6 357/2/6
f 355/2/6 356/2/6 357/2/6
f 356/2/6 353/2/6 358/2/6
f 357/2/6 356/2/6 358/2/6
