# MagicaVoxel @ Ephtracy

# group
o gy_tombstone1

# material
mtllib church-58-gy_tombstone1.mtl
usemtl palette

# normals
vn -1 0 0
vn 1 0 0
vn 0 0 1
vn 0 0 -1
vn 0 -1 0
vn 0 1 0

# texcoords
vt 0.0292969 0.5
vt 0.0605469 0.5

# verts
v 8.4 0 -4.5
v 8.4 0 -4.6
v 8.4 0.9 -4.5
v 8.4 0.9 -4.6
v 8.5 0 -4.4
v 8.5 0 -4.5
v 8.5 0 -4.6
v 8.5 0 -4.7
v 8.5 0.9 -4.4
v 8.5 0.9 -4.5
v 8.5 0.9 -4.6
v 8.5 0.9 -4.7
v 8.5 1 -4.5
v 8.5 1 -4.6
v 8.6 0.9 -4.4
v 8.6 0.9 -4.5
v 8.6 0.9 -4.6
v 8.6 0.9 -4.7
v 8.6 1 -4.4
v 8.6 1 -4.5
v 8.6 1 -4.6
v 8.6 1 -4.7
v 8.6 1.1 -4.5
v 8.6 1.1 -4.6
v 8.7 0.2 -4.4
v 8.7 0.2 -4.5
v 8.7 0.8 -4.4
v 8.7 0.8 -4.5
v 9.2 0.1 -4.4
v 9.2 0.1 -4.5
v 9.2 0.2 -4.4
v 9.2 0.2 -4.5
v 9.2 0.4 -4.5
v 9.2 0.4 -4.6
v 9.2 0.5 -4.5
v 9.2 0.5 -4.6
v 9.2 0.6 -4.5
v 9.2 0.6 -4.6
v 9.2 0.7 -4.5
v 9.2 0.7 -4.6
v 9.2 0.8 -4.4
v 9.2 0.8 -4.5
v 9.2 0.9 -4.4
v 9.2 0.9 -4.5
v 9.3 0.2 -4.4
v 9.3 0.2 -4.5
v 9.3 0.8 -4.4
v 9.3 0.8 -4.5
v 9.5 0.2 -4.4
v 9.5 0.2 -4.5
v 9.5 0.8 -4.4
v 9.5 0.8 -4.5
v 8.6 0.2 -4.4
v 8.6 0.2 -4.5
v 8.6 0.8 -4.4
v 8.6 0.8 -4.5
v 8.8 0.2 -4.4
v 8.8 0.2 -4.5
v 8.8 0.8 -4.4
v 8.8 0.8 -4.5
v 8.9 0.1 -4.4
v 8.9 0.1 -4.5
v 8.9 0.2 -4.4
v 8.9 0.2 -4.5
v 8.9 0.4 -4.5
v 8.9 0.4 -4.6
v 8.9 0.5 -4.5
v 8.9 0.5 -4.6
v 8.9 0.6 -4.5
v 8.9 0.6 -4.6
v 8.9 0.7 -4.5
v 8.9 0.7 -4.6
v 8.9 0.8 -4.4
v 8.9 0.8 -4.5
v 8.9 0.9 -4.4
v 8.9 0.9 -4.5
v 9.4 0.2 -4.4
v 9.4 0.2 -4.5
v 9.4 0.8 -4.4
v 9.4 0.8 -4.5
v 9.5 0.9 -4.4
v 9.5 0.9 -4.5
v 9.5 0.9 -4.6
v 9.5 0.9 -4.7
v 9.5 1 -4.4
v 9.5 1 -4.5
v 9.5 1 -4.6
v 9.5 1 -4.7
v 9.5 1.1 -4.5
v 9.5 1.1 -4.6
v 9.6 0 -4.4
v 9.6 0 -4.5
v 9.6 0 -4.6
v 9.6 0 -4.7
v 9.6 0.9 -4.4
v 9.6 0.9 -4.5
v 9.6 0.9 -4.6
v 9.6 0.9 -4.7
v 9.6 1 -4.5
v 9.6 1 -4.6
v 9.7 0 -4.5
v 9.7 0 -4.6
v 9.7 0.9 -4.5
v 9.7 0.9 -4.6
v 8.5 0 -4.4
v 8.5 0.9 -4.4
v 8.6 0 -4.4
v 8.6 0.1 -4.4
v 8.6 0.2 -4.4
v 8.6 0.8 -4.4
v 8.6 0.9 -4.4
v 8.6 1 -4.4
v 8.7 0.2 -4.4
v 8.7 0.8 -4.4
v 8.8 0.2 -4.4
v 8.8 0.8 -4.4
v 8.9 0.1 -4.4
v 8.9 0.2 -4.4
v 8.9 0.8 -4.4
v 8.9 0.9 -4.4
v 9.2 0.1 -4.4
v 9.2 0.2 -4.4
v 9.2 0.8 -4.4
v 9.2 0.9 -4.4
v 9.3 0.2 -4.4
v 9.3 0.8 -4.4
v 9.4 0.2 -4.4
v 9.4 0.8 -4.4
v 9.5 0 -4.4
v 9.5 0.1 -4.4
v 9.5 0.2 -4.4
v 9.5 0.8 -4.4
v 9.5 0.9 -4.4
v 9.5 1 -4.4
v 9.6 0 -4.4
v 9.6 0.9 -4.4
v 8.4 0 -4.5
v 8.4 0.9 -4.5
v 8.5 0 -4.5
v 8.5 0.9 -4.5
v 8.5 1 -4.5
v 8.6 0.2 -4.5
v 8.6 0.8 -4.5
v 8.6 0.9 -4.5
v 8.6 1 -4.5
v 8.6 1.1 -4.5
v 8.7 0.2 -4.5
v 8.7 0.8 -4.5
v 8.8 0.2 -4.5
v 8.8 0.8 -4.5
v 8.9 0.1 -4.5
v 8.9 0.2 -4.5
v 8.9 0.4 -4.5
v 8.9 0.5 -4.5
v 8.9 0.6 -4.5
v 8.9 0.7 -4.5
v 8.9 0.8 -4.5
v 8.9 0.9 -4.5
v 9.2 0.1 -4.5
v 9.2 0.2 -4.5
v 9.2 0.4 -4.5
v 9.2 0.5 -4.5
v 9.2 0.6 -4.5
v 9.2 0.7 -4.5
v 9.2 0.8 -4.5
v 9.2 0.9 -4.5
v 9.3 0.2 -4.5
v 9.3 0.8 -4.5
v 9.4 0.2 -4.5
v 9.4 0.8 -4.5
v 9.5 0.2 -4.5
v 9.5 0.8 -4.5
v 9.5 0.9 -4.5
v 9.5 1 -4.5
v 9.5 1.1 -4.5
v 9.6 0 -4.5
v 9.6 0.9 -4.5
v 9.6 1 -4.5
v 9.7 0 -4.5
v 9.7 0.9 -4.5
v 8.9 0.4 -4.6
v 8.9 0.5 -4.6
v 8.9 0.6 -4.6
v 8.9 0.7 -4.6
v 9.2 0.4 -4.6
v 9.2 0.5 -4.6
v 9.2 0.6 -4.6
v 9.2 0.7 -4.6
v 8.4 0 -4.6
v 8.4 0.9 -4.6
v 8.5 0 -4.6
v 8.5 0.9 -4.6
v 8.5 1 -4.6
v 8.6 0.9 -4.6
v 8.6 1 -4.6
v 8.6 1.1 -4.6
v 9.5 0.9 -4.6
v 9.5 1 -4.6
v 9.5 1.1 -4.6
v 9.6 0 -4.6
v 9.6 0.9 -4.6
v 9.6 1 -4.6
v 9.7 0 -4.6
v 9.7 0.9 -4.6
v 8.5 0 -4.7
v 8.5 0.9 -4.7
v 8.6 0.9 -4.7
v 8.6 1 -4.7
v 9.5 0.9 -4.7
v 9.5 1 -4.7
v 9.6 0 -4.7
v 9.6 0.9 -4.7
v 8.5 0 -4.4
v 8.6 0 -4.4
v 9.5 0 -4.4
v 9.6 0 -4.4
v 8.4 0 -4.5
v 8.5 0 -4.5
v 8.6 0 -4.5
v 9.5 0 -4.5
v 9.6 0 -4.5
v 9.7 0 -4.5
v 8.4 0 -4.6
v 8.5 0 -4.6
v 9.6 0 -4.6
v 9.7 0 -4.6
v 8.5 0 -4.7
v 9.6 0 -4.7
v 8.9 0.5 -4.5
v 9.2 0.5 -4.5
v 8.9 0.5 -4.6
v 9.2 0.5 -4.6
v 8.9 0.7 -4.5
v 9.2 0.7 -4.5
v 8.9 0.7 -4.6
v 9.2 0.7 -4.6
v 8.6 0.8 -4.4
v 8.7 0.8 -4.4
v 8.8 0.8 -4.4
v 8.9 0.8 -4.4
v 9.2 0.8 -4.4
v 9.3 0.8 -4.4
v 9.4 0.8 -4.4
v 9.5 0.8 -4.4
v 8.6 0.8 -4.5
v 8.7 0.8 -4.5
v 8.8 0.8 -4.5
v 8.9 0.8 -4.5
v 9.2 0.8 -4.5
v 9.3 0.8 -4.5
v 9.4 0.8 -4.5
v 9.5 0.8 -4.5
v 8.9 0.9 -4.4
v 9.2 0.9 -4.4
v 8.9 0.9 -4.5
v 9.2 0.9 -4.5
v 8.9 0.1 -4.4
v 9.2 0.1 -4.4
v 8.9 0.1 -4.5
v 9.2 0.1 -4.5
v 8.6 0.2 -4.4
v 8.7 0.2 -4.4
v 8.8 0.2 -4.4
v 8.9 0.2 -4.4
v 9.2 0.2 -4.4
v 9.3 0.2 -4.4
v 9.4 0.2 -4.4
v 9.5 0.2 -4.4
v 8.6 0.2 -4.5
v 8.7 0.2 -4.5
v 8.8 0.2 -4.5
v 8.9 0.2 -4.5
v 9.2 0.2 -4.5
v 9.3 0.2 -4.5
v 9.4 0.2 -4.5
v 9.5 0.2 -4.5
v 8.9 0.4 -4.5
v 9.2 0.4 -4.5
v 8.9 0.4 -4.6
v 9.2 0.4 -4.6
v 8.9 0.6 -4.5
v 9.2 0.6 -4.5
v 8.9 0.6 -4.6
v 9.2 0.6 -4.6
v 8.5 0.9 -4.4
v 8.6 0.9 -4.4
v 9.5 0.9 -4.4
v 9.6 0.9 -4.4
v 8.4 0.9 -4.5
v 8.5 0.9 -4.5
v 8.6 0.9 -4.5
v 9.5 0.9 -4.5
v 9.6 0.9 -4.5
v 9.7 0.9 -4.5
v 8.4 0.9 -4.6
v 8.5 0.9 -4.6
v 8.6 0.9 -4.6
v 9.5 0.9 -4.6
v 9.6 0.9 -4.6
v 9.7 0.9 -4.6
v 8.5 0.9 -4.7
v 8.6 0.9 -4.7
v 9.5 0.9 -4.7
v 9.6 0.9 -4.7
v 8.6 1 -4.4
v 9.5 1 -4.4
v 8.5 1 -4.5
v 8.6 1 -4.5
v 9.5 1 -4.5
v 9.6 1 -4.5
v 8.5 1 -4.6
v 8.6 1 -4.6
v 9.5 1 -4.6
v 9.6 1 -4.6
v 8.6 1 -4.7
v 9.5 1 -4.7
v 8.6 1.1 -4.5
v 9.5 1.1 -4.5
v 8.6 1.1 -4.6
v 9.5 1.1 -4.6

# faces
f 3/1/1 2/1/1 1/1/1
f 4/1/1 2/1/1 3/1/1
f 9/2/1 6/2/1 5/2/1
f 10/2/1 6/2/1 9/2/1
f 11/1/1 8/1/1 7/1/1
f 12/1/1 8/1/1 11/1/1
f 13/1/1 11/1/1 10/1/1
f 14/1/1 11/1/1 13/1/1
f 19/2/1 16/2/1 15/2/1
f 20/2/1 16/2/1 19/2/1
f 21/1/1 18/1/1 17/1/1
f 22/1/1 18/1/1 21/1/1
f 23/1/1 21/1/1 20/1/1
f 24/1/1 21/1/1 23/1/1
f 27/2/1 26/2/1 25/2/1
f 28/2/1 26/2/1 27/2/1
f 31/2/1 30/2/1 29/2/1
f 32/2/1 30/2/1 31/2/1
f 35/1/1 34/1/1 33/1/1
f 36/1/1 34/1/1 35/1/1
f 39/1/1 38/1/1 37/1/1
f 40/1/1 38/1/1 39/1/1
f 43/2/1 42/2/1 41/2/1
f 44/2/1 42/2/1 43/2/1
f 47/2/1 46/2/1 45/2/1
f 48/2/1 46/2/1 47/2/1
f 51/2/1 50/2/1 49/2/1
f 52/2/1 50/2/1 51/2/1
f 53/2/2 54/2/2 55/2/2
f 55/2/2 54/2/2 56/2/2
f 57/2/2 58/2/2 59/2/2
f 59/2/2 58/2/2 60/2/2
f 61/2/2 62/2/2 63/2/2
f 63/2/2 62/2/2 64/2/2
f 65/1/2 66/1/2 67/1/2
f 67/1/2 66/1/2 68/1/2
f 69/1/2 70/1/2 71/1/2
f 71/1/2 70/1/2 72/1/2
f 73/2/2 74/2/2 75/2/2
f 75/2/2 74/2/2 76/2/2
f 77/2/2 78/2/2 79/2/2
f 79/2/2 78/2/2 80/2/2
f 81/2/2 82/2/2 85/2/2
f 85/2/2 82/2/2 86/2/2
f 83/1/2 84/1/2 87/1/2
f 87/1/2 84/1/2 88/1/2
f 86/1/2 87/1/2 89/1/2
f 89/1/2 87/1/2 90/1/2
f 91/2/2 92/2/2 95/2/2
f 95/2/2 92/2/2 96/2/2
f 93/1/2 94/1/2 97/1/2
f 97/1/2 94/1/2 98/1/2
f 96/1/2 97/1/2 99/1/2
f 99/1/2 97/1/2 100/1/2
f 101/1/2 102/1/2 103/1/2
f 103/1/2 102/1/2 104/1/2
f 107/2/3 106/2/3 105/2/3
f 108/2/3 106/2/3 107/2/3
f 109/2/3 106/2/3 108/2/3
f 110/2/3 106/2/3 109/2/3
f 111/2/3 106/2/3 110/2/3
f 113/2/3 109/2/3 108/2/3
f 114/2/3 112/2/3 111/2/3
f 114/2/3 111/2/3 110/2/3
f 115/2/3 113/2/3 108/2/3
f 115/2/3 114/2/3 113/2/3
f 116/2/3 112/2/3 114/2/3
f 116/2/3 114/2/3 115/2/3
f 117/1/3 108/1/3 107/1/3
f 117/2/3 115/2/3 108/2/3
f 118/2/3 115/2/3 117/2/3
f 119/2/3 112/2/3 116/2/3
f 120/2/3 112/2/3 119/2/3
f 121/1/3 117/1/3 107/1/3
f 124/2/3 112/2/3 120/2/3
f 125/2/3 122/2/3 121/2/3
f 126/2/3 124/2/3 123/2/3
f 127/2/3 125/2/3 121/2/3
f 127/2/3 126/2/3 125/2/3
f 128/2/3 124/2/3 126/2/3
f 128/2/3 126/2/3 127/2/3
f 129/1/3 121/1/3 107/1/3
f 130/2/3 127/2/3 121/2/3
f 130/1/3 121/1/3 129/1/3
f 131/2/3 127/2/3 130/2/3
f 132/2/3 124/2/3 128/2/3
f 133/2/3 112/2/3 124/2/3
f 133/2/3 124/2/3 132/2/3
f 134/2/3 112/2/3 133/2/3
f 135/2/3 131/2/3 130/2/3
f 135/2/3 132/2/3 131/2/3
f 135/2/3 133/2/3 132/2/3
f 135/2/3 130/2/3 129/2/3
f 136/2/3 133/2/3 135/2/3
f 139/1/3 138/1/3 137/1/3
f 140/1/3 138/1/3 139/1/3
f 144/1/3 141/1/3 140/1/3
f 145/1/3 141/1/3 144/1/3
f 147/1/3 143/1/3 142/1/3
f 148/1/3 143/1/3 147/1/3
f 152/1/3 150/1/3 149/1/3
f 153/1/3 150/1/3 152/1/3
f 154/1/3 150/1/3 153/1/3
f 155/1/3 150/1/3 154/1/3
f 156/1/3 150/1/3 155/1/3
f 157/1/3 150/1/3 156/1/3
f 159/1/3 152/1/3 151/1/3
f 159/1/3 153/1/3 152/1/3
f 160/1/3 153/1/3 159/1/3
f 161/1/3 153/1/3 160/1/3
f 162/1/3 155/1/3 154/1/3
f 163/1/3 155/1/3 162/1/3
f 164/1/3 157/1/3 156/1/3
f 164/1/3 158/1/3 157/1/3
f 165/1/3 158/1/3 164/1/3
f 166/1/3 158/1/3 165/1/3
f 167/1/3 163/1/3 162/1/3
f 167/1/3 162/1/3 161/1/3
f 167/1/3 165/1/3 164/1/3
f 167/1/3 164/1/3 163/1/3
f 167/1/3 161/1/3 160/1/3
f 168/1/3 165/1/3 167/1/3
f 171/1/3 170/1/3 169/1/3
f 172/1/3 170/1/3 171/1/3
f 174/1/3 146/1/3 145/1/3
f 175/1/3 146/1/3 174/1/3
f 177/1/3 174/1/3 173/1/3
f 178/1/3 174/1/3 177/1/3
f 179/1/3 177/1/3 176/1/3
f 180/1/3 177/1/3 179/1/3
f 185/1/3 182/1/3 181/1/3
f 186/1/3 182/1/3 185/1/3
f 187/1/3 184/1/3 183/1/3
f 188/1/3 184/1/3 187/1/3
f 189/1/4 190/1/4 191/1/4
f 191/1/4 190/1/4 192/1/4
f 192/1/4 193/1/4 194/1/4
f 194/1/4 193/1/4 195/1/4
f 195/1/4 196/1/4 198/1/4
f 198/1/4 196/1/4 199/1/4
f 197/1/4 198/1/4 201/1/4
f 201/1/4 198/1/4 202/1/4
f 200/1/4 201/1/4 203/1/4
f 203/1/4 201/1/4 204/1/4
f 205/1/4 206/1/4 207/1/4
f 205/1/4 207/1/4 209/1/4
f 207/1/4 208/1/4 209/1/4
f 209/1/4 208/1/4 210/1/4
f 205/1/4 209/1/4 211/1/4
f 211/1/4 209/1/4 212/1/4
f 218/2/5 214/2/5 213/2/5
f 219/1/5 215/1/5 214/1/5
f 219/2/5 214/2/5 218/2/5
f 220/2/5 216/2/5 215/2/5
f 220/1/5 215/1/5 219/1/5
f 221/2/5 216/2/5 220/2/5
f 223/1/5 219/1/5 218/1/5
f 223/1/5 222/1/5 221/1/5
f 223/1/5 221/1/5 220/1/5
f 223/1/5 220/1/5 219/1/5
f 223/1/5 218/1/5 217/1/5
f 224/1/5 222/1/5 223/1/5
f 225/1/5 222/1/5 224/1/5
f 226/1/5 222/1/5 225/1/5
f 227/1/5 225/1/5 224/1/5
f 228/1/5 225/1/5 227/1/5
f 231/1/5 230/1/5 229/1/5
f 232/1/5 230/1/5 231/1/5
f 235/1/5 234/1/5 233/1/5
f 236/1/5 234/1/5 235/1/5
f 245/2/5 238/2/5 237/2/5
f 246/2/5 238/2/5 245/2/5
f 247/2/5 240/2/5 239/2/5
f 248/2/5 240/2/5 247/2/5
f 249/2/5 242/2/5 241/2/5
f 250/2/5 242/2/5 249/2/5
f 251/2/5 244/2/5 243/2/5
f 252/2/5 244/2/5 251/2/5
f 255/2/5 254/2/5 253/2/5
f 256/2/5 254/2/5 255/2/5
f 257/1/6 258/1/6 259/1/6
f 259/1/6 258/1/6 260/1/6
f 261/2/6 262/2/6 269/2/6
f 269/2/6 262/2/6 270/2/6
f 263/2/6 264/2/6 271/2/6
f 271/2/6 264/2/6 272/2/6
f 265/2/6 266/2/6 273/2/6
f 273/2/6 266/2/6 274/2/6
f 267/2/6 268/2/6 275/2/6
f 275/2/6 268/2/6 276/2/6
f 277/1/6 278/1/6 279/1/6
f 279/1/6 278/1/6 280/1/6
f 281/1/6 282/1/6 283/1/6
f 283/1/6 282/1/6 284/1/6
f 285/2/6 286/2/6 290/2/6
f 290/2/6 286/2/6 291/2/6
f 287/2/6 288/2/6 292/2/6
f 292/2/6 288/2/6 293/2/6
f 289/1/6 290/1/6 295/1/6
f 295/1/6 290/1/6 296/1/6
f 293/1/6 294/1/6 299/1/6
f 299/1/6 294/1/6 300/1/6
f 296/1/6 297/1/6 301/1/6
f 301/1/6 297/1/6 302/1/6
f 298/1/6 299/1/6 303/1/6
f 303/1/6 299/1/6 304/1/6
f 305/2/6 306/2/6 308/2/6
f 308/2/6 306/2/6 309/2/6
f 307/1/6 308/1/6 311/1/6
f 311/1/6 308/1/6 312/1/6
f 309/1/6 310/1/6 313/1/6
f 313/1/6 310/1/6 314/1/6
f 312/1/6 313/1/6 315/1/6
f 315/1/6 313/1/6 316/1/6
f 317/1/6 318/1/6 319/1/6
f 319/1/6 318/1/6 320/1/6
