# MagicaVoxel @ Ephtracy

# group
o ch_pulpit

# material
mtllib church-52-ch_pulpit.mtl
usemtl palette

# normals
vn -1 0 0
vn 1 0 0
vn 0 0 1
vn 0 0 -1
vn 0 -1 0
vn 0 1 0

# texcoords
vt 0.189453 0.5
vt 0.193359 0.5

# verts
v 5.7 0 8
v 5.7 0 7.9
v 5.7 0 7.2
v 5.7 0 7.1
v 5.7 0.8 8
v 5.7 0.8 7.9
v 5.7 0.8 7.2
v 5.7 0.8 7.1
v 5.8 0 8.1
v 5.8 0 8
v 5.8 0.8 8.1
v 5.8 0.8 8
v 6 0.2 8.1
v 6 0.2 8
v 6 0.3 8.1
v 6 0.3 8
v 6.1 0.1 8.1
v 6.1 0.1 8
v 6.1 0.2 8.1
v 6.1 0.2 8
v 6.1 0.3 8.1
v 6.1 0.3 8
v 6.1 0.6 8.1
v 6.1 0.6 8
v 6.1 0.7 8.1
v 6.1 0.7 8
v 6.2 0.2 8.1
v 6.2 0.2 8
v 6.2 0.3 8.1
v 6.2 0.3 8
v 6.3 0.4 8.1
v 6.3 0.4 8
v 6.3 0.6 8.1
v 6.3 0.6 8
v 6.5 0 8.1
v 6.5 0 8
v 6.5 0.4 8.1
v 6.5 0.4 8
v 6.5 0.6 8.1
v 6.5 0.6 8
v 6.5 0.7 8.1
v 6.5 0.7 8
v 6.6 0.4 8.1
v 6.6 0.4 8
v 6.6 0.6 8.1
v 6.6 0.6 8
v 6.7 0.2 8.1
v 6.7 0.2 8
v 6.7 0.3 8.1
v 6.7 0.3 8
v 6.8 0.1 8.1
v 6.8 0.1 8
v 6.8 0.2 8.1
v 6.8 0.2 8
v 6.8 0.3 8.1
v 6.8 0.3 8
v 6.8 0.7 8.1
v 6.8 0.7 8
v 6.9 0.1 7.2
v 6.9 0.1 7.1
v 6.9 0.2 8.1
v 6.9 0.2 8
v 6.9 0.2 7.3
v 6.9 0.2 7.2
v 6.9 0.3 8.1
v 6.9 0.3 8
v 6.9 0.3 7.9
v 6.9 0.3 7.3
v 6.9 0.8 7.9
v 6.9 0.8 7.1
v 5.9 0.1 7.2
v 5.9 0.1 7.1
v 5.9 0.2 8.1
v 5.9 0.2 8
v 5.9 0.2 7.3
v 5.9 0.2 7.2
v 5.9 0.3 8.1
v 5.9 0.3 8
v 5.9 0.3 7.9
v 5.9 0.3 7.3
v 5.9 0.8 7.9
v 5.9 0.8 7.1
v 6 0.1 8.1
v 6 0.1 8
v 6 0.2 8.1
v 6 0.2 8
v 6 0.3 8.1
v 6 0.3 8
v 6 0.7 8.1
v 6 0.7 8
v 6.1 0.2 8.1
v 6.1 0.2 8
v 6.1 0.3 8.1
v 6.1 0.3 8
v 6.2 0.4 8.1
v 6.2 0.4 8
v 6.2 0.6 8.1
v 6.2 0.6 8
v 6.3 0 8.1
v 6.3 0 8
v 6.3 0.4 8.1
v 6.3 0.4 8
v 6.3 0.6 8.1
v 6.3 0.6 8
v 6.3 0.7 8.1
v 6.3 0.7 8
v 6.5 0.4 8.1
v 6.5 0.4 8
v 6.5 0.6 8.1
v 6.5 0.6 8
v 6.6 0.2 8.1
v 6.6 0.2 8
v 6.6 0.3 8.1
v 6.6 0.3 8
v 6.7 0.1 8.1
v 6.7 0.1 8
v 6.7 0.2 8.1
v 6.7 0.2 8
v 6.7 0.3 8.1
v 6.7 0.3 8
v 6.7 0.6 8.1
v 6.7 0.6 8
v 6.7 0.7 8.1
v 6.7 0.7 8
v 6.8 0.2 8.1
v 6.8 0.2 8
v 6.8 0.3 8.1
v 6.8 0.3 8
v 7 0 8.1
v 7 0 8
v 7 0.8 8.1
v 7 0.8 8
v 7.1 0 8
v 7.1 0 7.9
v 7.1 0 7.2
v 7.1 0 7.1
v 7.1 0.8 8
v 7.1 0.8 7.9
v 7.1 0.8 7.2
v 7.1 0.8 7.1
v 5.8 0 8.1
v 5.8 0.8 8.1
v 5.9 0 8.1
v 5.9 0.2 8.1
v 5.9 0.3 8.1
v 5.9 0.8 8.1
v 6 0.1 8.1
v 6 0.2 8.1
v 6 0.3 8.1
v 6 0.7 8.1
v 6.1 0.1 8.1
v 6.1 0.2 8.1
v 6.1 0.3 8.1
v 6.1 0.6 8.1
v 6.1 0.7 8.1
v 6.2 0 8.1
v 6.2 0.2 8.1
v 6.2 0.3 8.1
v 6.2 0.4 8.1
v 6.2 0.6 8.1
v 6.2 0.7 8.1
v 6.3 0 8.1
v 6.3 0.4 8.1
v 6.3 0.6 8.1
v 6.3 0.7 8.1
v 6.3 0.8 8.1
v 6.5 0 8.1
v 6.5 0.4 8.1
v 6.5 0.6 8.1
v 6.5 0.7 8.1
v 6.5 0.8 8.1
v 6.6 0 8.1
v 6.6 0.2 8.1
v 6.6 0.3 8.1
v 6.6 0.4 8.1
v 6.6 0.6 8.1
v 6.6 0.7 8.1
v 6.7 0.1 8.1
v 6.7 0.2 8.1
v 6.7 0.3 8.1
v 6.7 0.6 8.1
v 6.7 0.7 8.1
v 6.8 0.1 8.1
v 6.8 0.2 8.1
v 6.8 0.3 8.1
v 6.8 0.7 8.1
v 6.9 0 8.1
v 6.9 0.2 8.1
v 6.9 0.3 8.1
v 6.9 0.8 8.1
v 7 0 8.1
v 7 0.8 8.1
v 5.7 0 8
v 5.7 0.8 8
v 5.8 0 8
v 5.8 0.8 8
v 5.9 0.2 8
v 5.9 0.3 8
v 6 0.1 8
v 6 0.2 8
v 6 0.3 8
v 6 0.7 8
v 6.1 0.1 8
v 6.1 0.2 8
v 6.1 0.3 8
v 6.1 0.6 8
v 6.1 0.7 8
v 6.2 0.2 8
v 6.2 0.3 8
v 6.2 0.4 8
v 6.2 0.6 8
v 6.3 0 8
v 6.3 0.4 8
v 6.3 0.6 8
v 6.3 0.7 8
v 6.5 0 8
v 6.5 0.4 8
v 6.5 0.6 8
v 6.5 0.7 8
v 6.6 0.2 8
v 6.6 0.3 8
v 6.6 0.4 8
v 6.6 0.6 8
v 6.7 0.1 8
v 6.7 0.2 8
v 6.7 0.3 8
v 6.7 0.6 8
v 6.7 0.7 8
v 6.8 0.1 8
v 6.8 0.2 8
v 6.8 0.3 8
v 6.8 0.7 8
v 6.9 0.2 8
v 6.9 0.3 8
v 7 0 8
v 7 0.8 8
v 7.1 0 8
v 7.1 0.8 8
v 5.9 0.3 7.9
v 5.9 0.8 7.9
v 6 0.3 7.9
v 6 0.8 7.9
v 6.8 0.3 7.9
v 6.8 0.8 7.9
v 6.9 0.3 7.9
v 6.9 0.8 7.9
v 5.9 0.2 7.3
v 5.9 0.3 7.3
v 6.9 0.2 7.3
v 6.9 0.3 7.3
v 5.9 0.1 7.2
v 5.9 0.2 7.2
v 6.9 0.1 7.2
v 6.9 0.2 7.2
v 5.7 0 7.1
v 5.7 0.8 7.1
v 5.8 0 7.1
v 5.8 0.8 7.1
v 5.9 0.1 7.1
v 5.9 0.8 7.1
v 6.9 0.1 7.1
v 6.9 0.8 7.1
v 7 0 7.1
v 7 0.8 7.1
v 7.1 0 7.1
v 7.1 0.8 7.1
v 5.8 0 8.1
v 5.9 0 8.1
v 6.2 0 8.1
v 6.3 0 8.1
v 6.5 0 8.1
v 6.6 0 8.1
v 6.9 0 8.1
v 7 0 8.1
v 5.7 0 8
v 5.8 0 8
v 5.9 0 8
v 6.2 0 8
v 6.3 0 8
v 6.5 0 8
v 6.6 0 8
v 6.9 0 8
v 7 0 8
v 7.1 0 8
v 5.7 0 7.9
v 5.8 0 7.9
v 7 0 7.9
v 7.1 0 7.9
v 5.7 0 7.2
v 5.8 0 7.2
v 7 0 7.2
v 7.1 0 7.2
v 5.7 0 7.1
v 5.8 0 7.1
v 7 0 7.1
v 7.1 0 7.1
v 6 0.2 8.1
v 6.1 0.2 8.1
v 6.7 0.2 8.1
v 6.8 0.2 8.1
v 6 0.2 8
v 6.1 0.2 8
v 6.7 0.2 8
v 6.8 0.2 8
v 5.9 0.3 8.1
v 6 0.3 8.1
v 6.1 0.3 8.1
v 6.2 0.3 8.1
v 6.6 0.3 8.1
v 6.7 0.3 8.1
v 6.8 0.3 8.1
v 6.9 0.3 8.1
v 5.9 0.3 8
v 6 0.3 8
v 6.1 0.3 8
v 6.2 0.3 8
v 6.6 0.3 8
v 6.7 0.3 8
v 6.8 0.3 8
v 6.9 0.3 8
v 6.3 0.4 8.1
v 6.5 0.4 8.1
v 6.3 0.4 8
v 6.5 0.4 8
v 6.2 0.6 8.1
v 6.3 0.6 8.1
v 6.5 0.6 8.1
v 6.6 0.6 8.1
v 6.2 0.6 8
v 6.3 0.6 8
v 6.5 0.6 8
v 6.6 0.6 8
v 6 0.7 8.1
v 6.1 0.7 8.1
v 6.3 0.7 8.1
v 6.5 0.7 8.1
v 6.7 0.7 8.1
v 6.8 0.7 8.1
v 6 0.7 8
v 6.1 0.7 8
v 6.3 0.7 8
v 6.5 0.7 8
v 6.7 0.7 8
v 6.8 0.7 8
v 6 0.1 8.1
v 6.1 0.1 8.1
v 6.7 0.1 8.1
v 6.8 0.1 8.1
v 6 0.1 8
v 6.1 0.1 8
v 6.7 0.1 8
v 6.8 0.1 8
v 5.9 0.1 7.2
v 6.9 0.1 7.2
v 5.9 0.1 7.1
v 6.9 0.1 7.1
v 5.9 0.2 8.1
v 6 0.2 8.1
v 6.1 0.2 8.1
v 6.2 0.2 8.1
v 6.6 0.2 8.1
v 6.7 0.2 8.1
v 6.8 0.2 8.1
v 6.9 0.2 8.1
v 5.9 0.2 8
v 6 0.2 8
v 6.1 0.2 8
v 6.2 0.2 8
v 6.6 0.2 8
v 6.7 0.2 8
v 6.8 0.2 8
v 6.9 0.2 8
v 5.9 0.2 7.3
v 6.9 0.2 7.3
v 5.9 0.2 7.2
v 6.9 0.2 7.2
v 6 0.3 8.1
v 6.1 0.3 8.1
v 6.7 0.3 8.1
v 6.8 0.3 8.1
v 6 0.3 8
v 6.1 0.3 8
v 6.7 0.3 8
v 6.8 0.3 8
v 5.9 0.3 7.9
v 6 0.3 7.9
v 6.8 0.3 7.9
v 6.9 0.3 7.9
v 5.9 0.3 7.3
v 6.9 0.3 7.3
v 6.2 0.4 8.1
v 6.3 0.4 8.1
v 6.5 0.4 8.1
v 6.6 0.4 8.1
v 6.2 0.4 8
v 6.3 0.4 8
v 6.5 0.4 8
v 6.6 0.4 8
v 6.3 0.6 8.1
v 6.5 0.6 8.1
v 6.3 0.6 8
v 6.5 0.6 8
v 5.8 0.8 8.1
v 5.9 0.8 8.1
v 6.3 0.8 8.1
v 6.5 0.8 8.1
v 6.9 0.8 8.1
v 7 0.8 8.1
v 5.7 0.8 8
v 5.8 0.8 8
v 5.9 0.8 8
v 6 0.8 8
v 6.3 0.8 8
v 6.5 0.8 8
v 6.8 0.8 8
v 6.9 0.8 8
v 7 0.8 8
v 7.1 0.8 8
v 5.7 0.8 7.9
v 5.8 0.8 7.9
v 5.9 0.8 7.9
v 6 0.8 7.9
v 6.8 0.8 7.9
v 6.9 0.8 7.9
v 7 0.8 7.9
v 7.1 0.8 7.9
v 5.7 0.8 7.2
v 5.8 0.8 7.2
v 7 0.8 7.2
v 7.1 0.8 7.2
v 5.7 0.8 7.1
v 5.8 0.8 7.1
v 5.9 0.8 7.1
v 6.9 0.8 7.1
v 7 0.8 7.1
v 7.1 0.8 7.1

# faces
f 5/2/1 2/2/1 1/2/1
f 6/1/1 3/1/1 2/1/1
f 6/2/1 2/2/1 5/2/1
f 7/2/1 4/2/1 3/2/1
f 7/1/1 3/1/1 6/1/1
f 8/2/1 4/2/1 7/2/1
f 11/2/1 10/2/1 9/2/1
f 12/2/1 10/2/1 11/2/1
f 15/1/1 14/1/1 13/1/1
f 16/1/1 14/1/1 15/1/1
f 19/1/1 18/1/1 17/1/1
f 20/1/1 18/1/1 19/1/1
f 23/2/1 22/2/1 21/2/1
f 24/2/1 22/2/1 23/2/1
f 25/1/1 24/1/1 23/1/1
f 26/1/1 24/1/1 25/1/1
f 29/2/1 28/2/1 27/2/1
f 30/2/1 28/2/1 29/2/1
f 33/1/1 32/1/1 31/1/1
f 34/1/1 32/1/1 33/1/1
f 37/2/1 36/2/1 35/2/1
f 38/2/1 36/2/1 37/2/1
f 41/2/1 40/2/1 39/2/1
f 42/2/1 40/2/1 41/2/1
f 45/2/1 44/2/1 43/2/1
f 46/2/1 44/2/1 45/2/1
f 49/1/1 48/1/1 47/1/1
f 50/1/1 48/1/1 49/1/1
f 53/1/1 52/1/1 51/1/1
f 54/1/1 52/1/1 53/1/1
f 57/1/1 56/1/1 55/1/1
f 58/1/1 56/1/1 57/1/1
f 64/1/1 60/1/1 59/1/1
f 65/2/1 62/2/1 61/2/1
f 66/2/1 62/2/1 65/2/1
f 68/1/1 64/1/1 63/1/1
f 69/1/1 68/1/1 67/1/1
f 70/1/1 64/1/1 68/1/1
f 70/1/1 68/1/1 69/1/1
f 70/1/1 60/1/1 64/1/1
f 71/1/2 72/1/2 76/1/2
f 73/2/2 74/2/2 77/2/2
f 77/2/2 74/2/2 78/2/2
f 75/1/2 76/1/2 80/1/2
f 79/1/2 80/1/2 81/1/2
f 80/1/2 76/1/2 82/1/2
f 81/1/2 80/1/2 82/1/2
f 76/1/2 72/1/2 82/1/2
f 83/1/2 84/1/2 85/1/2
f 85/1/2 84/1/2 86/1/2
f 87/1/2 88/1/2 89/1/2
f 89/1/2 88/1/2 90/1/2
f 91/1/2 92/1/2 93/1/2
f 93/1/2 92/1/2 94/1/2
f 95/2/2 96/2/2 97/2/2
f 97/2/2 96/2/2 98/2/2
f 99/2/2 100/2/2 101/2/2
f 101/2/2 100/2/2 102/2/2
f 103/2/2 104/2/2 105/2/2
f 105/2/2 104/2/2 106/2/2
f 107/1/2 108/1/2 109/1/2
f 109/1/2 108/1/2 110/1/2
f 111/2/2 112/2/2 113/2/2
f 113/2/2 112/2/2 114/2/2
f 115/1/2 116/1/2 117/1/2
f 117/1/2 116/1/2 118/1/2
f 119/2/2 120/2/2 121/2/2
f 121/2/2 120/2/2 122/2/2
f 121/1/2 122/1/2 123/1/2
f 123/1/2 122/1/2 124/1/2
f 125/1/2 126/1/2 127/1/2
f 127/1/2 126/1/2 128/1/2
f 129/2/2 130/2/2 131/2/2
f 131/2/2 130/2/2 132/2/2
f 133/2/2 134/2/2 137/2/2
f 134/1/2 135/1/2 138/1/2
f 137/2/2 134/2/2 138/2/2
f 135/2/2 136/2/2 139/2/2
f 138/1/2 135/1/2 139/1/2
f 139/2/2 136/2/2 140/2/2
f 143/2/3 142/2/3 141/2/3
f 144/2/3 142/2/3 143/2/3
f 145/2/3 142/2/3 144/2/3
f 146/2/3 142/2/3 145/2/3
f 147/1/3 144/1/3 143/1/3
f 148/1/3 144/1/3 147/1/3
f 149/1/3 146/1/3 145/1/3
f 150/1/3 146/1/3 149/1/3
f 151/1/3 147/1/3 143/1/3
f 152/1/3 149/1/3 148/1/3
f 153/1/3 149/1/3 152/1/3
f 155/1/3 146/1/3 150/1/3
f 156/1/3 151/1/3 143/1/3
f 156/1/3 152/1/3 151/1/3
f 157/1/3 152/1/3 156/1/3
f 158/2/3 154/2/3 153/2/3
f 159/2/3 154/2/3 158/2/3
f 160/1/3 155/1/3 154/1/3
f 160/2/3 154/2/3 159/2/3
f 161/1/3 146/1/3 155/1/3
f 161/1/3 155/1/3 160/1/3
f 162/2/3 157/2/3 156/2/3
f 162/2/3 159/2/3 158/2/3
f 162/2/3 158/2/3 157/2/3
f 163/2/3 159/2/3 162/2/3
f 164/2/3 161/2/3 160/2/3
f 165/1/3 146/1/3 161/1/3
f 165/2/3 161/2/3 164/2/3
f 166/1/3 146/1/3 165/1/3
f 168/1/3 164/1/3 163/1/3
f 169/1/3 164/1/3 168/1/3
f 170/2/3 166/2/3 165/2/3
f 171/2/3 166/2/3 170/2/3
f 172/2/3 168/2/3 167/2/3
f 173/2/3 168/2/3 172/2/3
f 174/2/3 168/2/3 173/2/3
f 175/2/3 168/2/3 174/2/3
f 176/2/3 170/2/3 169/2/3
f 177/1/3 171/1/3 170/1/3
f 177/2/3 170/2/3 176/2/3
f 178/1/3 173/1/3 172/1/3
f 179/1/3 173/1/3 178/1/3
f 180/2/3 176/2/3 175/2/3
f 180/2/3 175/2/3 174/2/3
f 181/1/3 177/1/3 176/1/3
f 181/2/3 176/2/3 180/2/3
f 182/1/3 171/1/3 177/1/3
f 182/1/3 177/1/3 181/1/3
f 183/1/3 178/1/3 172/1/3
f 184/1/3 180/1/3 179/1/3
f 185/1/3 180/1/3 184/1/3
f 186/1/3 171/1/3 182/1/3
f 187/1/3 183/1/3 172/1/3
f 187/1/3 184/1/3 183/1/3
f 188/1/3 184/1/3 187/1/3
f 189/1/3 186/1/3 185/1/3
f 190/1/3 171/1/3 186/1/3
f 190/1/3 186/1/3 189/1/3
f 191/2/3 188/2/3 187/2/3
f 191/2/3 189/2/3 188/2/3
f 191/2/3 190/2/3 189/2/3
f 192/2/3 190/2/3 191/2/3
f 195/2/3 194/2/3 193/2/3
f 196/2/3 194/2/3 195/2/3
f 200/1/3 198/1/3 197/1/3
f 201/1/3 198/1/3 200/1/3
f 203/1/3 200/1/3 199/1/3
f 204/1/3 200/1/3 203/1/3
f 205/1/3 202/1/3 201/1/3
f 206/1/3 202/1/3 205/1/3
f 207/1/3 202/1/3 206/1/3
f 208/1/3 205/1/3 204/1/3
f 209/1/3 205/1/3 208/1/3
f 213/1/3 211/1/3 210/1/3
f 214/1/3 211/1/3 213/1/3
f 216/1/3 213/1/3 212/1/3
f 217/1/3 213/1/3 216/1/3
f 218/1/3 215/1/3 214/1/3
f 219/1/3 215/1/3 218/1/3
f 222/1/3 218/1/3 217/1/3
f 223/1/3 218/1/3 222/1/3
f 225/1/3 221/1/3 220/1/3
f 226/1/3 221/1/3 225/1/3
f 229/1/3 225/1/3 224/1/3
f 230/1/3 225/1/3 229/1/3
f 231/1/3 227/1/3 226/1/3
f 231/1/3 228/1/3 227/1/3
f 232/1/3 228/1/3 231/1/3
f 233/1/3 231/1/3 230/1/3
f 234/1/3 231/1/3 233/1/3
f 237/2/3 236/2/3 235/2/3
f 238/2/3 236/2/3 237/2/3
f 239/2/4 240/2/4 241/2/4
f 241/2/4 240/2/4 242/2/4
f 241/1/4 242/1/4 243/1/4
f 243/1/4 242/1/4 244/1/4
f 243/2/4 244/2/4 245/2/4
f 245/2/4 244/2/4 246/2/4
f 247/1/4 248/1/4 249/1/4
f 249/1/4 248/1/4 250/1/4
f 251/1/4 252/1/4 253/1/4
f 253/1/4 252/1/4 254/1/4
f 255/2/4 256/2/4 257/2/4
f 257/2/4 256/2/4 258/2/4
f 257/1/4 258/1/4 259/1/4
f 259/1/4 258/1/4 260/1/4
f 257/1/4 259/1/4 261/1/4
f 257/1/4 261/1/4 263/1/4
f 261/1/4 262/1/4 263/1/4
f 263/1/4 262/1/4 264/1/4
f 263/2/4 264/2/4 265/2/4
f 265/2/4 264/2/4 266/2/4
f 276/2/5 268/2/5 267/2/5
f 277/1/5 269/1/5 268/1/5
f 277/2/5 268/2/5 276/2/5
f 278/2/5 270/2/5 269/2/5
f 278/1/5 269/1/5 277/1/5
f 279/2/5 270/2/5 278/2/5
f 280/2/5 272/2/5 271/2/5
f 281/1/5 273/1/5 272/1/5
f 281/2/5 272/2/5 280/2/5
f 282/2/5 274/2/5 273/2/5
f 282/1/5 273/1/5 281/1/5
f 283/2/5 274/2/5 282/2/5
f 285/2/5 276/2/5 275/2/5
f 286/1/5 281/1/5 280/1/5
f 286/2/5 276/2/5 285/2/5
f 286/1/5 277/1/5 276/1/5
f 286/1/5 283/1/5 282/1/5
f 286/1/5 282/1/5 281/1/5
f 286/1/5 279/1/5 278/1/5
f 286/1/5 278/1/5 277/1/5
f 286/1/5 280/1/5 279/1/5
f 287/2/5 284/2/5 283/2/5
f 287/1/5 283/1/5 286/1/5
f 288/2/5 284/2/5 287/2/5
f 289/1/5 286/1/5 285/1/5
f 289/1/5 287/1/5 286/1/5
f 289/1/5 288/1/5 287/1/5
f 290/1/5 288/1/5 289/1/5
f 291/1/5 288/1/5 290/1/5
f 292/1/5 288/1/5 291/1/5
f 293/2/5 290/2/5 289/2/5
f 294/1/5 291/1/5 290/1/5
f 294/2/5 290/2/5 293/2/5
f 295/2/5 292/2/5 291/2/5
f 295/1/5 291/1/5 294/1/5
f 296/2/5 292/2/5 295/2/5
f 301/1/5 298/1/5 297/1/5
f 302/1/5 298/1/5 301/1/5
f 303/1/5 300/1/5 299/1/5
f 304/1/5 300/1/5 303/1/5
f 313/1/5 306/1/5 305/1/5
f 314/1/5 306/1/5 313/1/5
f 315/2/5 308/2/5 307/2/5
f 316/2/5 308/2/5 315/2/5
f 317/2/5 310/2/5 309/2/5
f 318/2/5 310/2/5 317/2/5
f 319/1/5 312/1/5 311/1/5
f 320/1/5 312/1/5 319/1/5
f 323/1/5 322/1/5 321/1/5
f 324/1/5 322/1/5 323/1/5
f 329/2/5 326/2/5 325/2/5
f 330/2/5 326/2/5 329/2/5
f 331/2/5 328/2/5 327/2/5
f 332/2/5 328/2/5 331/2/5
f 339/1/5 334/1/5 333/1/5
f 340/1/5 334/1/5 339/1/5
f 341/2/5 336/2/5 335/2/5
f 342/2/5 336/2/5 341/2/5
f 343/1/5 338/1/5 337/1/5
f 344/1/5 338/1/5 343/1/5
f 345/1/6 346/1/6 349/1/6
f 349/1/6 346/1/6 350/1/6
f 347/1/6 348/1/6 351/1/6
f 351/1/6 348/1/6 352/1/6
f 353/1/6 354/1/6 355/1/6
f 355/1/6 354/1/6 356/1/6
f 357/1/6 358/1/6 365/1/6
f 365/1/6 358/1/6 366/1/6
f 359/1/6 360/1/6 367/1/6
f 367/1/6 360/1/6 368/1/6
f 361/1/6 362/1/6 369/1/6
f 369/1/6 362/1/6 370/1/6
f 363/1/6 364/1/6 371/1/6
f 371/1/6 364/1/6 372/1/6
f 373/1/6 374/1/6 375/1/6
f 375/1/6 374/1/6 376/1/6
f 377/1/6 378/1/6 381/1/6
f 381/1/6 378/1/6 382/1/6
f 379/1/6 380/1/6 383/1/6
f 383/1/6 380/1/6 384/1/6
f 386/1/6 387/1/6 389/1/6
f 387/1/6 388/1/6 389/1/6
f 385/1/6 386/1/6 389/1/6
f 389/1/6 388/1/6 390/1/6
f 391/2/6 392/2/6 395/2/6
f 395/2/6 392/2/6 396/2/6
f 393/2/6 394/2/6 397/2/6
f 397/2/6 394/2/6 398/2/6
f 399/1/6 400/1/6 401/1/6
f 401/1/6 400/1/6 402/1/6
f 403/2/6 404/2/6 410/2/6
f 404/1/6 405/1/6 411/1/6
f 410/2/6 404/2/6 411/2/6
f 411/1/6 405/1/6 412/1/6
f 405/2/6 406/2/6 413/2/6
f 412/1/6 405/1/6 413/1/6
f 406/1/6 407/1/6 414/1/6
f 413/2/6 406/2/6 414/2/6
f 414/1/6 407/1/6 415/1/6
f 407/2/6 408/2/6 416/2/6
f 415/1/6 407/1/6 416/1/6
f 416/2/6 408/2/6 417/2/6
f 409/2/6 410/2/6 419/2/6
f 410/1/6 411/1/6 420/1/6
f 419/2/6 410/2/6 420/2/6
f 411/2/6 412/2/6 421/2/6
f 420/1/6 411/1/6 421/1/6
f 414/1/6 415/1/6 422/1/6
f 421/2/6 412/2/6 422/2/6
f 412/1/6 413/1/6 422/1/6
f 413/1/6 414/1/6 422/1/6
f 415/2/6 416/2/6 423/2/6
f 422/1/6 415/1/6 423/1/6
f 416/1/6 417/1/6 424/1/6
f 423/2/6 416/2/6 424/2/6
f 417/2/6 418/2/6 425/2/6
f 424/1/6 417/1/6 425/1/6
f 425/2/6 418/2/6 426/2/6
f 420/1/6 421/1/6 427/1/6
f 419/1/6 420/1/6 427/1/6
f 427/1/6 421/1/6 428/1/6
f 425/1/6 426/1/6 429/1/6
f 424/1/6 425/1/6 429/1/6
f 429/1/6 426/1/6 430/1/6
f 427/2/6 428/2/6 431/2/6
f 428/1/6 421/1/6 432/1/6
f 431/2/6 428/2/6 432/2/6
f 432/1/6 421/1/6 433/1/6
f 424/1/6 429/1/6 434/1/6
f 429/2/6 430/2/6 435/2/6
f 434/1/6 429/1/6 435/1/6
f 435/2/6 430/2/6 436/2/6
