# MagicaVoxel @ Ephtracy

# group
o ch_chair

# material
mtllib church-53-ch_chair.mtl
usemtl palette

# normals
vn -1 0 0
vn 1 0 0
vn 0 0 1
vn 0 0 -1
vn 0 -1 0
vn 0 1 0

# texcoords
vt 0.189453 0.5
vt 0.193359 0.5

# verts
v 5.7 0 4.6
v 5.7 0 4.5
v 5.7 0 4.1
v 5.7 0 4
v 5.7 0.2 4.5
v 5.7 0.2 4.1
v 5.7 0.5 4.2
v 5.7 0.5 4.1
v 5.7 0.5 4
v 5.7 0.6 4.3
v 5.7 0.6 4.2
v 5.7 0.6 4.1
v 5.7 0.9 4.4
v 5.7 0.9 4.3
v 5.7 1 4.6
v 5.7 1 4.5
v 5.7 1 4.4
v 5.7 1 4.3
v 5.7 1 4.2
v 5.7 1.1 4.5
v 5.7 1.1 4.3
v 5.8 0.1 4.5
v 5.8 0.1 4.1
v 5.8 0.2 4.5
v 5.8 0.2 4.1
v 6.7 0 4.6
v 6.7 0 4.5
v 6.7 0 4.1
v 6.7 0 4
v 6.7 0.1 4.5
v 6.7 0.1 4.1
v 6.7 0.2 4.6
v 6.7 0.2 4.5
v 6.7 0.2 4.1
v 6.7 0.2 4
v 6.7 0.3 4.5
v 6.7 0.3 4.1
v 6.7 0.3 4
v 6.7 0.4 4.5
v 6.7 0.5 4.6
v 6.7 0.5 4.5
v 6.7 0.6 4.2
v 6.7 0.6 4.1
v 6.7 0.6 4
v 6.7 0.7 4.6
v 6.7 0.7 4.5
v 6.7 0.7 4.3
v 6.7 0.7 4.2
v 6.7 0.7 4.1
v 6.7 0.8 4.5
v 6.7 0.9 4.6
v 6.7 0.9 4.5
v 6.7 1 4.4
v 6.7 1 4.3
v 6.7 1.1 4.6
v 6.7 1.1 4.5
v 6.7 1.1 4.4
v 6.7 1.1 4.3
v 6.7 1.1 4.2
v 6.7 1.2 4.5
v 6.7 1.2 4.3
v 5.8 0 4.6
v 5.8 0 4.5
v 5.8 0 4.1
v 5.8 0 4
v 5.8 0.1 4.5
v 5.8 0.1 4.1
v 5.8 0.2 4.6
v 5.8 0.2 4.5
v 5.8 0.2 4.1
v 5.8 0.2 4
v 5.8 0.3 4.5
v 5.8 0.3 4.1
v 5.8 0.3 4
v 5.8 0.4 4.5
v 5.8 0.5 4.6
v 5.8 0.5 4.5
v 5.8 0.5 4.2
v 5.8 0.5 4.1
v 5.8 0.5 4
v 5.8 0.6 4.3
v 5.8 0.6 4.2
v 5.8 0.6 4.1
v 5.8 0.7 4.6
v 5.8 0.7 4.5
v 5.8 0.8 4.5
v 5.8 0.9 4.6
v 5.8 0.9 4.5
v 5.8 0.9 4.4
v 5.8 0.9 4.3
v 5.8 1 4.6
v 5.8 1 4.5
v 5.8 1 4.4
v 5.8 1 4.3
v 5.8 1 4.2
v 5.8 1.1 4.5
v 5.8 1.1 4.3
v 6.7 0.1 4.5
v 6.7 0.1 4.1
v 6.7 0.2 4.5
v 6.7 0.2 4.1
v 6.8 0 4.6
v 6.8 0 4.5
v 6.8 0 4.1
v 6.8 0 4
v 6.8 0.2 4.5
v 6.8 0.2 4.1
v 6.8 0.6 4.2
v 6.8 0.6 4.1
v 6.8 0.6 4
v 6.8 0.7 4.3
v 6.8 0.7 4.2
v 6.8 0.7 4.1
v 6.8 1 4.4
v 6.8 1 4.3
v 6.8 1.1 4.6
v 6.8 1.1 4.5
v 6.8 1.1 4.4
v 6.8 1.1 4.3
v 6.8 1.1 4.2
v 6.8 1.2 4.5
v 6.8 1.2 4.3
v 5.7 0 4.6
v 5.7 1 4.6
v 5.8 0 4.6
v 5.8 0.2 4.6
v 5.8 0.4 4.6
v 5.8 0.5 4.6
v 5.8 0.7 4.6
v 5.8 0.8 4.6
v 5.8 0.9 4.6
v 5.8 1 4.6
v 6.7 0 4.6
v 6.7 0.2 4.6
v 6.7 0.4 4.6
v 6.7 0.5 4.6
v 6.7 0.7 4.6
v 6.7 0.8 4.6
v 6.7 0.9 4.6
v 6.7 1.1 4.6
v 6.8 0 4.6
v 6.8 1.1 4.6
v 5.7 1 4.5
v 5.7 1.1 4.5
v 5.8 0.1 4.5
v 5.8 0.2 4.5
v 5.8 1 4.5
v 5.8 1.1 4.5
v 6.7 0.1 4.5
v 6.7 0.2 4.5
v 6.7 1.1 4.5
v 6.7 1.2 4.5
v 6.8 1.1 4.5
v 6.8 1.2 4.5
v 5.7 0.9 4.3
v 5.7 1 4.3
v 5.8 0.9 4.3
v 5.8 1 4.3
v 6.7 1 4.3
v 6.7 1.1 4.3
v 6.8 1 4.3
v 6.8 1.1 4.3
v 5.7 0 4.1
v 5.7 0.2 4.1
v 5.8 0 4.1
v 5.8 0.1 4.1
v 5.8 0.2 4.1
v 6.7 0 4.1
v 6.7 0.1 4.1
v 6.7 0.2 4.1
v 6.8 0 4.1
v 6.8 0.2 4.1
v 5.7 0 4.5
v 5.7 0.2 4.5
v 5.8 0 4.5
v 5.8 0.1 4.5
v 5.8 0.2 4.5
v 5.8 0.3 4.5
v 5.8 0.4 4.5
v 5.8 0.5 4.5
v 5.8 0.7 4.5
v 5.8 0.8 4.5
v 5.8 0.9 4.5
v 6.7 0 4.5
v 6.7 0.1 4.5
v 6.7 0.2 4.5
v 6.7 0.3 4.5
v 6.7 0.4 4.5
v 6.7 0.5 4.5
v 6.7 0.7 4.5
v 6.7 0.8 4.5
v 6.7 0.9 4.5
v 6.8 0 4.5
v 6.8 0.2 4.5
v 5.7 0.9 4.4
v 5.7 1 4.4
v 5.8 0.9 4.4
v 5.8 1 4.4
v 6.7 1 4.4
v 6.7 1.1 4.4
v 6.8 1 4.4
v 6.8 1.1 4.4
v 5.7 1 4.3
v 5.7 1.1 4.3
v 5.8 1 4.3
v 5.8 1.1 4.3
v 6.7 1.1 4.3
v 6.7 1.2 4.3
v 6.8 1.1 4.3
v 6.8 1.2 4.3
v 5.7 0.6 4.2
v 5.7 1 4.2
v 5.8 0.6 4.2
v 5.8 1 4.2
v 6.7 0.7 4.2
v 6.7 1.1 4.2
v 6.8 0.7 4.2
v 6.8 1.1 4.2
v 5.7 0.5 4.1
v 5.7 0.6 4.1
v 5.8 0.1 4.1
v 5.8 0.2 4.1
v 5.8 0.5 4.1
v 5.8 0.6 4.1
v 6.7 0.1 4.1
v 6.7 0.2 4.1
v 6.7 0.6 4.1
v 6.7 0.7 4.1
v 6.8 0.6 4.1
v 6.8 0.7 4.1
v 5.7 0 4
v 5.7 0.5 4
v 5.8 0 4
v 5.8 0.2 4
v 5.8 0.3 4
v 5.8 0.5 4
v 6.7 0 4
v 6.7 0.2 4
v 6.7 0.3 4
v 6.7 0.6 4
v 6.8 0 4
v 6.8 0.6 4
v 5.7 0 4.6
v 5.8 0 4.6
v 6.7 0 4.6
v 6.8 0 4.6
v 5.7 0 4.5
v 5.8 0 4.5
v 6.7 0 4.5
v 6.8 0 4.5
v 5.7 0 4.1
v 5.8 0 4.1
v 6.7 0 4.1
v 6.8 0 4.1
v 5.7 0 4
v 5.8 0 4
v 6.7 0 4
v 6.8 0 4
v 5.8 0.1 4.5
v 6.7 0.1 4.5
v 5.9 0.1 4.4
v 6.6 0.1 4.4
v 5.9 0.1 4.2
v 6.6 0.1 4.2
v 5.8 0.1 4.1
v 6.7 0.1 4.1
v 5.8 0.2 4.6
v 6.7 0.2 4.6
v 5.7 0.2 4.5
v 5.8 0.2 4.5
v 6.7 0.2 4.5
v 6.8 0.2 4.5
v 5.7 0.2 4.1
v 5.8 0.2 4.1
v 6.7 0.2 4.1
v 6.8 0.2 4.1
v 5.8 0.2 4
v 6.7 0.2 4
v 5.8 0.7 4.6
v 6.7 0.7 4.6
v 5.8 0.7 4.5
v 6.7 0.7 4.5
v 5.7 1 4.4
v 5.8 1 4.4
v 5.7 1 4.3
v 5.8 1 4.3
v 6.7 1.1 4.4
v 6.8 1.1 4.4
v 6.7 1.1 4.3
v 6.8 1.1 4.3
v 5.8 0.3 4.5
v 6.7 0.3 4.5
v 5.8 0.3 4.1
v 6.7 0.3 4.1
v 5.8 0.3 4
v 6.7 0.3 4
v 5.8 0.5 4.6
v 6.7 0.5 4.6
v 5.8 0.5 4.5
v 6.7 0.5 4.5
v 5.7 0.5 4.1
v 5.8 0.5 4.1
v 5.7 0.5 4
v 5.8 0.5 4
v 5.7 0.6 4.2
v 5.8 0.6 4.2
v 5.7 0.6 4.1
v 5.8 0.6 4.1
v 6.7 0.6 4.1
v 6.8 0.6 4.1
v 6.7 0.6 4
v 6.8 0.6 4
v 6.7 0.7 4.2
v 6.8 0.7 4.2
v 6.7 0.7 4.1
v 6.8 0.7 4.1
v 5.8 0.9 4.6
v 6.7 0.9 4.6
v 5.8 0.9 4.5
v 6.7 0.9 4.5
v 5.7 0.9 4.4
v 5.8 0.9 4.4
v 5.7 0.9 4.3
v 5.8 0.9 4.3
v 5.7 1 4.6
v 5.8 1 4.6
v 5.7 1 4.5
v 5.8 1 4.5
v 6.7 1 4.4
v 6.8 1 4.4
v 5.7 1 4.3
v 5.8 1 4.3
v 6.7 1 4.3
v 6.8 1 4.3
v 5.7 1 4.2
v 5.8 1 4.2
v 6.7 1.1 4.6
v 6.8 1.1 4.6
v 5.7 1.1 4.5
v 5.8 1.1 4.5
v 6.7 1.1 4.5
v 6.8 1.1 4.5
v 5.7 1.1 4.3
v 5.8 1.1 4.3
v 6.7 1.1 4.3
v 6.8 1.1 4.3
v 6.7 1.1 4.2
v 6.8 1.1 4.2
v 6.7 1.2 4.5
v 6.8 1.2 4.5
v 6.7 1.2 4.3
v 6.8 1.2 4.3

# faces
f 5/2/1 2/2/1 1/2/1
f 6/2/1 4/2/1 3/2/1
f 7/1/1 6/1/1 5/1/1
f 8/2/1 4/2/1 6/2/1
f 8/1/1 6/1/1 7/1/1
f 9/2/1 4/2/1 8/2/1
f 10/1/1 7/1/1 5/1/1
f 11/2/1 8/2/1 7/2/1
f 11/1/1 7/1/1 10/1/1
f 12/2/1 8/2/1 11/2/1
f 13/1/1 10/1/1 5/1/1
f 14/2/1 11/2/1 10/2/1
f 14/1/1 10/1/1 13/1/1
f 15/2/1 5/2/1 1/2/1
f 16/1/1 13/1/1 5/1/1
f 16/2/1 5/2/1 15/2/1
f 17/1/1 13/1/1 16/1/1
f 18/2/1 11/2/1 14/2/1
f 19/2/1 11/2/1 18/2/1
f 20/2/1 17/2/1 16/2/1
f 20/2/1 18/2/1 17/2/1
f 21/2/1 18/2/1 20/2/1
f 24/2/1 23/2/1 22/2/1
f 25/2/1 23/2/1 24/2/1
f 30/2/1 27/2/1 26/2/1
f 31/2/1 29/2/1 28/2/1
f 32/2/1 30/2/1 26/2/1
f 33/2/1 30/2/1 32/2/1
f 34/2/1 29/2/1 31/2/1
f 35/2/1 29/2/1 34/2/1
f 39/1/1 37/1/1 36/1/1
f 41/1/1 37/1/1 39/1/1
f 42/1/1 37/1/1 41/1/1
f 43/2/1 38/2/1 37/2/1
f 43/1/1 37/1/1 42/1/1
f 44/2/1 38/2/1 43/2/1
f 45/2/1 41/2/1 40/2/1
f 46/1/1 42/1/1 41/1/1
f 46/2/1 41/2/1 45/2/1
f 47/1/1 42/1/1 46/1/1
f 48/2/1 43/2/1 42/2/1
f 48/1/1 42/1/1 47/1/1
f 49/2/1 43/2/1 48/2/1
f 50/1/1 47/1/1 46/1/1
f 52/1/1 47/1/1 50/1/1
f 53/1/1 47/1/1 52/1/1
f 54/2/1 48/2/1 47/2/1
f 54/1/1 47/1/1 53/1/1
f 55/2/1 52/2/1 51/2/1
f 56/1/1 53/1/1 52/1/1
f 56/2/1 52/2/1 55/2/1
f 57/1/1 53/1/1 56/1/1
f 58/2/1 48/2/1 54/2/1
f 59/2/1 48/2/1 58/2/1
f 60/2/1 57/2/1 56/2/1
f 60/2/1 58/2/1 57/2/1
f 61/2/1 58/2/1 60/2/1
f 62/2/2 63/2/2 66/2/2
f 64/2/2 65/2/2 67/2/2
f 62/2/2 66/2/2 68/2/2
f 68/2/2 66/2/2 69/2/2
f 67/2/2 65/2/2 70/2/2
f 70/2/2 65/2/2 71/2/2
f 72/1/2 73/1/2 75/1/2
f 75/1/2 73/1/2 77/1/2
f 77/1/2 73/1/2 78/1/2
f 73/2/2 74/2/2 79/2/2
f 78/1/2 73/1/2 79/1/2
f 79/2/2 74/2/2 80/2/2
f 77/1/2 78/1/2 81/1/2
f 78/2/2 79/2/2 82/2/2
f 81/1/2 78/1/2 82/1/2
f 82/2/2 79/2/2 83/2/2
f 76/2/2 77/2/2 84/2/2
f 77/1/2 81/1/2 85/1/2
f 84/2/2 77/2/2 85/2/2
f 85/1/2 81/1/2 86/1/2
f 86/1/2 81/1/2 88/1/2
f 88/1/2 81/1/2 89/1/2
f 81/2/2 82/2/2 90/2/2
f 89/1/2 81/1/2 90/1/2
f 87/2/2 88/2/2 91/2/2
f 88/1/2 89/1/2 92/1/2
f 91/2/2 88/2/2 92/2/2
f 92/1/2 89/1/2 93/1/2
f 90/2/2 82/2/2 94/2/2
f 94/2/2 82/2/2 95/2/2
f 92/2/2 93/2/2 96/2/2
f 93/2/2 94/2/2 96/2/2
f 96/2/2 94/2/2 97/2/2
f 98/2/2 99/2/2 100/2/2
f 100/2/2 99/2/2 101/2/2
f 102/2/2 103/2/2 106/2/2
f 104/2/2 105/2/2 107/2/2
f 106/1/2 107/1/2 108/1/2
f 107/2/2 105/2/2 109/2/2
f 108/1/2 107/1/2 109/1/2
f 109/2/2 105/2/2 110/2/2
f 106/1/2 108/1/2 111/1/2
f 108/2/2 109/2/2 112/2/2
f 111/1/2 108/1/2 112/1/2
f 112/2/2 109/2/2 113/2/2
f 106/1/2 111/1/2 114/1/2
f 111/2/2 112/2/2 115/2/2
f 114/1/2 111/1/2 115/1/2
f 102/2/2 106/2/2 116/2/2
f 106/1/2 114/1/2 117/1/2
f 116/2/2 106/2/2 117/2/2
f 117/1/2 114/1/2 118/1/2
f 115/2/2 112/2/2 119/2/2
f 119/2/2 112/2/2 120/2/2
f 117/2/2 118/2/2 121/2/2
f 118/2/2 119/2/2 121/2/2
f 121/2/2 119/2/2 122/2/2
f 125/2/3 124/2/3 123/2/3
f 126/2/3 124/2/3 125/2/3
f 127/2/3 124/2/3 126/2/3
f 128/2/3 124/2/3 127/2/3
f 129/2/3 124/2/3 128/2/3
f 130/2/3 124/2/3 129/2/3
f 131/2/3 124/2/3 130/2/3
f 132/2/3 124/2/3 131/2/3
f 134/1/3 127/1/3 126/1/3
f 135/2/3 128/2/3 127/2/3
f 135/1/3 127/1/3 134/1/3
f 136/2/3 128/2/3 135/2/3
f 137/2/3 130/2/3 129/2/3
f 138/1/3 131/1/3 130/1/3
f 138/2/3 130/2/3 137/2/3
f 139/1/3 131/1/3 138/1/3
f 141/2/3 139/2/3 138/2/3
f 141/2/3 140/2/3 139/2/3
f 141/2/3 138/2/3 137/2/3
f 141/2/3 136/2/3 135/2/3
f 141/2/3 135/2/3 134/2/3
f 141/2/3 134/2/3 133/2/3
f 141/2/3 137/2/3 136/2/3
f 142/2/3 140/2/3 141/2/3
f 147/2/3 144/2/3 143/2/3
f 148/2/3 144/2/3 147/2/3
f 149/2/3 146/2/3 145/2/3
f 150/2/3 146/2/3 149/2/3
f 153/2/3 152/2/3 151/2/3
f 154/2/3 152/2/3 153/2/3
f 157/2/3 156/2/3 155/2/3
f 158/2/3 156/2/3 157/2/3
f 161/2/3 160/2/3 159/2/3
f 162/2/3 160/2/3 161/2/3
f 165/2/3 164/2/3 163/2/3
f 166/2/3 164/2/3 165/2/3
f 167/2/3 164/2/3 166/2/3
f 171/2/3 169/2/3 168/2/3
f 171/2/3 170/2/3 169/2/3
f 172/2/3 170/2/3 171/2/3
f 173/2/4 174/2/4 175/2/4
f 175/2/4 174/2/4 176/2/4
f 176/2/4 174/2/4 177/2/4
f 178/1/4 179/1/4 187/1/4
f 179/2/4 180/2/4 188/2/4
f 187/1/4 179/1/4 188/1/4
f 188/2/4 180/2/4 189/2/4
f 181/2/4 182/2/4 190/2/4
f 182/1/4 183/1/4 191/1/4
f 190/2/4 182/2/4 191/2/4
f 191/1/4 183/1/4 192/1/4
f 185/2/4 186/2/4 193/2/4
f 184/2/4 185/2/4 193/2/4
f 193/2/4 186/2/4 194/2/4
f 195/1/4 196/1/4 197/1/4
f 197/1/4 196/1/4 198/1/4
f 199/1/4 200/1/4 201/1/4
f 201/1/4 200/1/4 202/1/4
f 203/2/4 204/2/4 205/2/4
f 205/2/4 204/2/4 206/2/4
f 207/2/4 208/2/4 209/2/4
f 209/2/4 208/2/4 210/2/4
f 211/2/4 212/2/4 213/2/4
f 213/2/4 212/2/4 214/2/4
f 215/2/4 216/2/4 217/2/4
f 217/2/4 216/2/4 218/2/4
f 219/2/4 220/2/4 223/2/4
f 223/2/4 220/2/4 224/2/4
f 221/2/4 222/2/4 225/2/4
f 225/2/4 222/2/4 226/2/4
f 227/2/4 228/2/4 229/2/4
f 229/2/4 228/2/4 230/2/4
f 231/2/4 232/2/4 233/2/4
f 233/2/4 232/2/4 234/2/4
f 234/2/4 232/2/4 235/2/4
f 235/2/4 232/2/4 236/2/4
f 234/1/4 235/1/4 238/1/4
f 238/1/4 235/1/4 239/1/4
f 238/2/4 239/2/4 241/2/4
f 239/2/4 240/2/4 241/2/4
f 237/2/4 238/2/4 241/2/4
f 241/2/4 240/2/4 242/2/4
f 247/2/5 244/2/5 243/2/5
f 248/2/5 244/2/5 247/2/5
f 249/2/5 246/2/5 245/2/5
f 250/2/5 246/2/5 249/2/5
f 255/2/5 252/2/5 251/2/5
f 256/2/5 252/2/5 255/2/5
f 257/2/5 254/2/5 253/2/5
f 258/2/5 254/2/5 257/2/5
f 261/2/5 260/2/5 259/2/5
f 262/2/5 260/2/5 261/2/5
f 263/2/5 261/2/5 259/2/5
f 263/1/5 262/1/5 261/1/5
f 264/2/5 260/2/5 262/2/5
f 264/1/5 262/1/5 263/1/5
f 265/2/5 263/2/5 259/2/5
f 265/2/5 264/2/5 263/2/5
f 266/2/5 260/2/5 264/2/5
f 266/2/5 264/2/5 265/2/5
f 270/1/5 268/1/5 267/1/5
f 271/1/5 268/1/5 270/1/5
f 273/1/5 270/1/5 269/1/5
f 274/1/5 270/1/5 273/1/5
f 275/1/5 272/1/5 271/1/5
f 276/1/5 272/1/5 275/1/5
f 277/1/5 275/1/5 274/1/5
f 278/1/5 275/1/5 277/1/5
f 281/2/5 280/2/5 279/2/5
f 282/2/5 280/2/5 281/2/5
f 285/2/5 284/2/5 283/2/5
f 286/2/5 284/2/5 285/2/5
f 289/2/5 288/2/5 287/2/5
f 290/2/5 288/2/5 289/2/5
f 291/1/6 292/1/6 293/1/6
f 293/1/6 292/1/6 294/1/6
f 293/1/6 294/1/6 295/1/6
f 295/1/6 294/1/6 296/1/6
f 297/2/6 298/2/6 299/2/6
f 299/2/6 298/2/6 300/2/6
f 301/2/6 302/2/6 303/2/6
f 303/2/6 302/2/6 304/2/6
f 305/2/6 306/2/6 307/2/6
f 307/2/6 306/2/6 308/2/6
f 309/2/6 310/2/6 311/2/6
f 311/2/6 310/2/6 312/2/6
f 313/2/6 314/2/6 315/2/6
f 315/2/6 314/2/6 316/2/6
f 317/1/6 318/1/6 319/1/6
f 319/1/6 318/1/6 320/1/6
f 321/1/6 322/1/6 323/1/6
f 323/1/6 322/1/6 324/1/6
f 325/2/6 326/2/6 327/2/6
f 327/2/6 326/2/6 328/2/6
f 329/1/6 330/1/6 333/1/6
f 333/1/6 330/1/6 334/1/6
f 331/2/6 332/2/6 335/2/6
f 335/2/6 332/2/6 336/2/6
f 337/2/6 338/2/6 341/2/6
f 341/2/6 338/2/6 342/2/6
f 339/2/6 340/2/6 343/2/6
f 343/2/6 340/2/6 344/2/6
f 345/2/6 346/2/6 347/2/6
f 347/2/6 346/2/6 348/2/6
f 349/2/6 350/2/6 351/2/6
f 351/2/6 350/2/6 352/2/6
