# MagicaVoxel @ Ephtracy

# group
o 

# material
mtllib Christmas-39.mtl
usemtl palette

# normals
vn 1 0 0
vn -1 0 0
vn 0 0 -1
vn 0 0 1
vn 0 -1 0
vn 0 1 0

# texcoords
vt 0.119141 0.5
vt 0.958984 0.5
vt 0.994141 0.5

# verts
v -9.7 0.7 -4.2
v -9.7 0.7 -4.1
v -9.7 0.7 -3.7
v -9.7 0.7 -3.6
v -9.7 1.1 -4.2
v -9.7 1.1 -4.1
v -9.7 1.1 -3.7
v -9.7 1.1 -3.6
v -9.7 1.1 -3.5
v -9.7 1.2 -4.2
v -9.7 1.2 -4.1
v -9.7 1.2 -3.7
v -9.7 1.3 -4.1
v -9.7 1.3 -3.7
v -9.7 1.4 -4.2
v -9.7 1.4 -4.1
v -9.7 1.4 -3.7
v -9.7 1.5 -4.2
v -9.7 1.5 -4.1
v -9.7 1.5 -3.7
v -9.7 1.6 -4.1
v -9.7 1.6 -3.7
v -9.7 1.6 -3.6
v -9.7 1.6 -3.5
v -9.7 1.7 -3.7
v -9.7 1.7 -3.6
v -9.7 1.7 -3.5
v -9.7 1.8 -3.6
v -9.7 1.8 -3.5
v -11.2 0.7 -4.2
v -11.2 0.7 -4.1
v -11.2 0.7 -3.7
v -11.2 0.7 -3.6
v -11.2 1.1 -4.2
v -11.2 1.1 -4.1
v -11.2 1.1 -4
v -11.2 1.1 -3.9
v -11.2 1.1 -3.7
v -11.2 1.1 -3.6
v -11.2 1.1 -3.5
v -11.2 1.2 -4
v -11.2 1.2 -3.9
v -11.2 1.3 -4
v -11.2 1.3 -3.9
v -11.2 1.4 -3.7
v -11.2 1.4 -3.6
v -11.2 1.5 -3.7
v -11.2 1.5 -3.6
v -11.2 1.6 -3.6
v -11.2 1.6 -3.5
v -12.7 1.1 -4
v -12.7 1.1 -3.9
v -12.7 1.2 -4
v -12.7 1.2 -3.9
v -12.7 1.3 -4
v -12.7 1.3 -3.9
v -12.7 1.4 -3.7
v -12.7 1.4 -3.6
v -12.7 1.5 -3.7
v -12.7 1.5 -3.6
v -12.8 0.7 -4.2
v -12.8 0.7 -4.1
v -12.8 0.7 -3.7
v -12.8 0.7 -3.6
v -12.8 1.1 -4.2
v -12.8 1.1 -4.1
v -12.8 1.1 -3.7
v -12.8 1.1 -3.6
v -12.8 1.1 -3.5
v -12.8 1.3 -4.2
v -12.8 1.3 -4.1
v -12.8 1.4 -4.2
v -12.8 1.4 -4.1
v -12.8 1.4 -3.7
v -12.8 1.5 -4.2
v -12.8 1.5 -4.1
v -12.8 1.5 -3.7
v -12.8 1.6 -4.1
v -12.8 1.6 -3.7
v -12.8 1.6 -3.6
v -12.8 1.6 -3.5
v -9.8 0.7 -4.2
v -9.8 0.7 -4.1
v -9.8 0.7 -3.7
v -9.8 0.7 -3.6
v -9.8 1.1 -4.2
v -9.8 1.1 -4.1
v -9.8 1.1 -3.7
v -9.8 1.1 -3.6
v -9.8 1.1 -3.5
v -9.8 1.3 -4.2
v -9.8 1.3 -4.1
v -9.8 1.4 -4.2
v -9.8 1.4 -4.1
v -9.8 1.4 -3.7
v -9.8 1.5 -4.2
v -9.8 1.5 -4.1
v -9.8 1.5 -3.7
v -9.8 1.6 -4.1
v -9.8 1.6 -3.7
v -9.8 1.6 -3.6
v -9.8 1.6 -3.5
v -9.9 1.1 -4
v -9.9 1.1 -3.9
v -9.9 1.2 -4
v -9.9 1.2 -3.9
v -9.9 1.3 -4
v -9.9 1.3 -3.9
v -9.9 1.4 -3.7
v -9.9 1.4 -3.6
v -9.9 1.5 -3.7
v -9.9 1.5 -3.6
v -11.3 0.7 -4.2
v -11.3 0.7 -4.1
v -11.3 0.7 -3.7
v -11.3 0.7 -3.6
v -11.3 1.1 -4.2
v -11.3 1.1 -4.1
v -11.3 1.1 -4
v -11.3 1.1 -3.9
v -11.3 1.1 -3.7
v -11.3 1.1 -3.6
v -11.3 1.1 -3.5
v -11.3 1.2 -4
v -11.3 1.2 -3.9
v -11.3 1.3 -4
v -11.3 1.3 -3.9
v -11.3 1.4 -3.7
v -11.3 1.4 -3.6
v -11.3 1.5 -3.7
v -11.3 1.5 -3.6
v -11.3 1.6 -3.6
v -11.3 1.6 -3.5
v -12.9 0.7 -4.2
v -12.9 0.7 -4.1
v -12.9 0.7 -3.7
v -12.9 0.7 -3.6
v -12.9 1.1 -4.2
v -12.9 1.1 -4.1
v -12.9 1.1 -3.7
v -12.9 1.1 -3.6
v -12.9 1.1 -3.5
v -12.9 1.2 -4.2
v -12.9 1.2 -4.1
v -12.9 1.2 -3.7
v -12.9 1.3 -4.1
v -12.9 1.3 -3.7
v -12.9 1.4 -4.2
v -12.9 1.4 -4.1
v -12.9 1.4 -3.7
v -12.9 1.5 -4.2
v -12.9 1.5 -4.1
v -12.9 1.5 -3.7
v -12.9 1.6 -4.1
v -12.9 1.6 -3.7
v -12.9 1.6 -3.6
v -12.9 1.6 -3.5
v -12.9 1.7 -3.7
v -12.9 1.7 -3.6
v -12.9 1.7 -3.5
v -12.9 1.8 -3.6
v -12.9 1.8 -3.5
v -9.7 0.7 -4.2
v -9.7 1.1 -4.2
v -9.7 1.2 -4.2
v -9.7 1.4 -4.2
v -9.7 1.5 -4.2
v -9.8 0.7 -4.2
v -9.8 1.1 -4.2
v -9.8 1.2 -4.2
v -9.8 1.3 -4.2
v -9.8 1.4 -4.2
v -9.8 1.5 -4.2
v -11.2 0.7 -4.2
v -11.2 1.1 -4.2
v -11.3 0.7 -4.2
v -11.3 1.1 -4.2
v -12.8 0.7 -4.2
v -12.8 1.1 -4.2
v -12.8 1.2 -4.2
v -12.8 1.3 -4.2
v -12.8 1.4 -4.2
v -12.8 1.5 -4.2
v -12.9 0.7 -4.2
v -12.9 1.1 -4.2
v -12.9 1.2 -4.2
v -12.9 1.4 -4.2
v -12.9 1.5 -4.2
v -9.7 1.5 -4.1
v -9.7 1.6 -4.1
v -9.8 1.5 -4.1
v -9.8 1.6 -4.1
v -12.8 1.5 -4.1
v -12.8 1.6 -4.1
v -12.9 1.5 -4.1
v -12.9 1.6 -4.1
v -9.9 1.1 -3.9
v -9.9 1.2 -3.9
v -9.9 1.3 -3.9
v -11.2 1.1 -3.9
v -11.2 1.2 -3.9
v -11.2 1.3 -3.9
v -11.3 1.1 -3.9
v -11.3 1.2 -3.9
v -11.3 1.3 -3.9
v -12.7 1.1 -3.9
v -12.7 1.2 -3.9
v -12.7 1.3 -3.9
v -9.7 0.7 -3.7
v -9.7 1.1 -3.7
v -9.7 1.3 -3.7
v -9.7 1.4 -3.7
v -9.7 1.6 -3.7
v -9.7 1.7 -3.7
v -9.8 0.7 -3.7
v -9.8 1.1 -3.7
v -9.8 1.4 -3.7
v -9.8 1.5 -3.7
v -9.8 1.6 -3.7
v -9.9 1.4 -3.7
v -9.9 1.5 -3.7
v -11.2 0.7 -3.7
v -11.2 1.1 -3.7
v -11.2 1.4 -3.7
v -11.2 1.5 -3.7
v -11.3 0.7 -3.7
v -11.3 1.1 -3.7
v -11.3 1.4 -3.7
v -11.3 1.5 -3.7
v -12.7 1.4 -3.7
v -12.7 1.5 -3.7
v -12.8 0.7 -3.7
v -12.8 1.1 -3.7
v -12.8 1.4 -3.7
v -12.8 1.5 -3.7
v -12.8 1.6 -3.7
v -12.9 0.7 -3.7
v -12.9 1.1 -3.7
v -12.9 1.3 -3.7
v -12.9 1.4 -3.7
v -12.9 1.6 -3.7
v -12.9 1.7 -3.7
v -9.7 1.7 -3.6
v -9.7 1.8 -3.6
v -12.9 1.7 -3.6
v -12.9 1.8 -3.6
v -9.7 0.7 -4.1
v -9.7 1.1 -4.1
v -9.7 1.3 -4.1
v -9.7 1.4 -4.1
v -9.8 0.7 -4.1
v -9.8 1.1 -4.1
v -9.8 1.3 -4.1
v -9.8 1.4 -4.1
v -11.2 0.7 -4.1
v -11.2 1.1 -4.1
v -11.3 0.7 -4.1
v -11.3 1.1 -4.1
v -12.8 0.7 -4.1
v -12.8 1.1 -4.1
v -12.8 1.3 -4.1
v -12.8 1.4 -4.1
v -12.9 0.7 -4.1
v -12.9 1.1 -4.1
v -12.9 1.3 -4.1
v -12.9 1.4 -4.1
v -9.9 1.1 -4
v -9.9 1.2 -4
v -9.9 1.3 -4
v -11.2 1.1 -4
v -11.2 1.2 -4
v -11.2 1.3 -4
v -11.3 1.1 -4
v -11.3 1.2 -4
v -11.3 1.3 -4
v -12.7 1.1 -4
v -12.7 1.2 -4
v -12.7 1.3 -4
v -9.7 0.7 -3.6
v -9.7 1.1 -3.6
v -9.8 0.7 -3.6
v -9.8 1.1 -3.6
v -9.8 1.6 -3.6
v -9.9 1.4 -3.6
v -9.9 1.5 -3.6
v -11.2 0.7 -3.6
v -11.2 1.1 -3.6
v -11.2 1.4 -3.6
v -11.2 1.5 -3.6
v -11.2 1.6 -3.6
v -11.3 0.7 -3.6
v -11.3 1.1 -3.6
v -11.3 1.4 -3.6
v -11.3 1.5 -3.6
v -11.3 1.6 -3.6
v -12.7 1.4 -3.6
v -12.7 1.5 -3.6
v -12.8 0.7 -3.6
v -12.8 1.1 -3.6
v -12.8 1.6 -3.6
v -12.9 0.7 -3.6
v -12.9 1.1 -3.6
v -9.7 1.1 -3.5
v -9.7 1.6 -3.5
v -9.7 1.7 -3.5
v -9.7 1.8 -3.5
v -9.8 1.1 -3.5
v -9.8 1.6 -3.5
v -11.2 1.1 -3.5
v -11.2 1.6 -3.5
v -11.3 1.1 -3.5
v -11.3 1.6 -3.5
v -12.8 1.1 -3.5
v -12.8 1.6 -3.5
v -12.9 1.1 -3.5
v -12.9 1.6 -3.5
v -12.9 1.7 -3.5
v -12.9 1.8 -3.5
v -9.7 0.7 -4.2
v -9.8 0.7 -4.2
v -11.2 0.7 -4.2
v -11.3 0.7 -4.2
v -12.8 0.7 -4.2
v -12.9 0.7 -4.2
v -9.7 0.7 -4.1
v -9.8 0.7 -4.1
v -11.2 0.7 -4.1
v -11.3 0.7 -4.1
v -12.8 0.7 -4.1
v -12.9 0.7 -4.1
v -9.7 0.7 -3.7
v -9.8 0.7 -3.7
v -11.2 0.7 -3.7
v -11.3 0.7 -3.7
v -12.8 0.7 -3.7
v -12.9 0.7 -3.7
v -9.7 0.7 -3.6
v -9.8 0.7 -3.6
v -11.2 0.7 -3.6
v -11.3 0.7 -3.6
v -12.8 0.7 -3.6
v -12.9 0.7 -3.6
v -9.8 1.1 -4.2
v -11.2 1.1 -4.2
v -11.3 1.1 -4.2
v -12.8 1.1 -4.2
v -9.7 1.1 -4.1
v -9.8 1.1 -4.1
v -11.2 1.1 -4.1
v -11.3 1.1 -4.1
v -12.8 1.1 -4.1
v -12.9 1.1 -4.1
v -9.9 1.1 -4
v -11.2 1.1 -4
v -11.3 1.1 -4
v -12.7 1.1 -4
v -9.9 1.1 -3.9
v -11.2 1.1 -3.9
v -11.3 1.1 -3.9
v -12.7 1.1 -3.9
v -9.7 1.1 -3.7
v -9.8 1.1 -3.7
v -11.2 1.1 -3.7
v -11.3 1.1 -3.7
v -12.8 1.1 -3.7
v -12.9 1.1 -3.7
v -9.7 1.1 -3.6
v -9.8 1.1 -3.6
v -11.2 1.1 -3.6
v -11.3 1.1 -3.6
v -12.8 1.1 -3.6
v -12.9 1.1 -3.6
v -9.7 1.1 -3.5
v -9.8 1.1 -3.5
v -11.2 1.1 -3.5
v -11.3 1.1 -3.5
v -12.8 1.1 -3.5
v -12.9 1.1 -3.5
v -9.7 1.4 -4.1
v -9.8 1.4 -4.1
v -12.8 1.4 -4.1
v -12.9 1.4 -4.1
v -9.7 1.4 -3.7
v -9.8 1.4 -3.7
v -12.8 1.4 -3.7
v -12.9 1.4 -3.7
v -9.9 1.5 -3.7
v -11.2 1.5 -3.7
v -11.3 1.5 -3.7
v -12.7 1.5 -3.7
v -9.9 1.5 -3.6
v -11.2 1.5 -3.6
v -11.3 1.5 -3.6
v -12.7 1.5 -3.6
v -9.8 1.6 -3.6
v -11.2 1.6 -3.6
v -11.3 1.6 -3.6
v -12.8 1.6 -3.6
v -9.8 1.6 -3.5
v -11.2 1.6 -3.5
v -11.3 1.6 -3.5
v -12.8 1.6 -3.5
v -9.8 1.3 -4.2
v -12.8 1.3 -4.2
v -9.7 1.3 -4.1
v -9.8 1.3 -4.1
v -12.8 1.3 -4.1
v -12.9 1.3 -4.1
v -9.9 1.3 -4
v -11.2 1.3 -4
v -11.3 1.3 -4
v -12.7 1.3 -4
v -9.9 1.3 -3.9
v -11.2 1.3 -3.9
v -11.3 1.3 -3.9
v -12.7 1.3 -3.9
v -9.7 1.3 -3.7
v -12.9 1.3 -3.7
v -9.9 1.4 -3.7
v -11.2 1.4 -3.7
v -11.3 1.4 -3.7
v -12.7 1.4 -3.7
v -9.9 1.4 -3.6
v -11.2 1.4 -3.6
v -11.3 1.4 -3.6
v -12.7 1.4 -3.6
v -9.7 1.5 -4.2
v -9.8 1.5 -4.2
v -12.8 1.5 -4.2
v -12.9 1.5 -4.2
v -9.7 1.5 -4.1
v -9.8 1.5 -4.1
v -12.8 1.5 -4.1
v -12.9 1.5 -4.1
v -9.7 1.6 -4.1
v -9.8 1.6 -4.1
v -12.8 1.6 -4.1
v -12.9 1.6 -4.1
v -9.7 1.6 -3.7
v -9.8 1.6 -3.7
v -12.8 1.6 -3.7
v -12.9 1.6 -3.7
v -9.7 1.7 -3.7
v -12.9 1.7 -3.7
v -9.7 1.7 -3.6
v -12.9 1.7 -3.6
v -9.7 1.8 -3.6
v -12.9 1.8 -3.6
v -9.7 1.8 -3.5
v -12.9 1.8 -3.5

# faces
f 5/3/1 2/3/1 1/3/1
f 6/3/1 2/3/1 5/3/1
f 7/3/1 4/3/1 3/3/1
f 8/3/1 4/3/1 7/3/1
f 10/1/1 6/1/1 5/1/1
f 10/1/1 7/1/1 6/1/1
f 10/1/1 8/1/1 7/1/1
f 11/1/1 8/1/1 10/1/1
f 12/1/1 8/1/1 11/1/1
f 13/3/1 11/3/1 10/3/1
f 13/2/1 12/2/1 11/2/1
f 14/1/1 8/1/1 12/1/1
f 14/2/1 12/2/1 13/2/1
f 15/3/1 13/3/1 10/3/1
f 16/3/1 13/3/1 15/3/1
f 17/1/1 8/1/1 14/1/1
f 18/2/1 16/2/1 15/2/1
f 19/3/1 17/3/1 16/3/1
f 19/2/1 16/2/1 18/2/1
f 20/1/1 8/1/1 17/1/1
f 20/3/1 17/3/1 19/3/1
f 21/2/1 20/2/1 19/2/1
f 22/1/1 8/1/1 20/1/1
f 22/2/1 20/2/1 21/2/1
f 23/3/1 9/3/1 8/3/1
f 23/1/1 8/1/1 22/1/1
f 24/3/1 9/3/1 23/3/1
f 25/2/1 23/2/1 22/2/1
f 26/1/1 24/1/1 23/1/1
f 26/2/1 23/2/1 25/2/1
f 27/1/1 24/1/1 26/1/1
f 28/2/1 27/2/1 26/2/1
f 29/2/1 27/2/1 28/2/1
f 34/3/1 31/3/1 30/3/1
f 35/3/1 31/3/1 34/3/1
f 38/3/1 33/3/1 32/3/1
f 39/3/1 33/3/1 38/3/1
f 41/1/1 37/1/1 36/1/1
f 42/1/1 37/1/1 41/1/1
f 43/2/1 42/2/1 41/2/1
f 44/2/1 42/2/1 43/2/1
f 46/3/1 40/3/1 39/3/1
f 47/1/1 46/1/1 45/1/1
f 48/3/1 40/3/1 46/3/1
f 48/1/1 46/1/1 47/1/1
f 49/3/1 40/3/1 48/3/1
f 50/3/1 40/3/1 49/3/1
f 53/1/1 52/1/1 51/1/1
f 54/1/1 52/1/1 53/1/1
f 55/2/1 54/2/1 53/2/1
f 56/2/1 54/2/1 55/2/1
f 59/1/1 58/1/1 57/1/1
f 60/1/1 58/1/1 59/1/1
f 65/3/1 62/3/1 61/3/1
f 66/3/1 62/3/1 65/3/1
f 67/3/1 64/3/1 63/3/1
f 68/3/1 64/3/1 67/3/1
f 72/3/1 71/3/1 70/3/1
f 73/3/1 71/3/1 72/3/1
f 75/2/1 73/2/1 72/2/1
f 76/3/1 74/3/1 73/3/1
f 76/2/1 73/2/1 75/2/1
f 77/3/1 74/3/1 76/3/1
f 78/2/1 77/2/1 76/2/1
f 79/2/1 77/2/1 78/2/1
f 80/3/1 69/3/1 68/3/1
f 81/3/1 69/3/1 80/3/1
f 82/3/2 83/3/2 86/3/2
f 86/3/2 83/3/2 87/3/2
f 84/3/2 85/3/2 88/3/2
f 88/3/2 85/3/2 89/3/2
f 91/3/2 92/3/2 93/3/2
f 93/3/2 92/3/2 94/3/2
f 93/2/2 94/2/2 96/2/2
f 94/3/2 95/3/2 97/3/2
f 96/2/2 94/2/2 97/2/2
f 97/3/2 95/3/2 98/3/2
f 97/2/2 98/2/2 99/2/2
f 99/2/2 98/2/2 100/2/2
f 89/3/2 90/3/2 101/3/2
f 101/3/2 90/3/2 102/3/2
f 103/1/2 104/1/2 105/1/2
f 105/1/2 104/1/2 106/1/2
f 105/2/2 106/2/2 107/2/2
f 107/2/2 106/2/2 108/2/2
f 109/1/2 110/1/2 111/1/2
f 111/1/2 110/1/2 112/1/2
f 113/3/2 114/3/2 117/3/2
f 117/3/2 114/3/2 118/3/2
f 115/3/2 116/3/2 121/3/2
f 121/3/2 116/3/2 122/3/2
f 119/1/2 120/1/2 124/1/2
f 124/1/2 120/1/2 125/1/2
f 124/2/2 125/2/2 126/2/2
f 126/2/2 125/2/2 127/2/2
f 122/3/2 123/3/2 129/3/2
f 128/1/2 129/1/2 130/1/2
f 129/3/2 123/3/2 131/3/2
f 130/1/2 129/1/2 131/1/2
f 131/3/2 123/3/2 132/3/2
f 132/3/2 123/3/2 133/3/2
f 134/3/2 135/3/2 138/3/2
f 138/3/2 135/3/2 139/3/2
f 136/3/2 137/3/2 140/3/2
f 140/3/2 137/3/2 141/3/2
f 138/1/2 139/1/2 143/1/2
f 139/1/2 140/1/2 143/1/2
f 140/1/2 141/1/2 143/1/2
f 143/1/2 141/1/2 144/1/2
f 144/1/2 141/1/2 145/1/2
f 143/3/2 144/3/2 146/3/2
f 144/2/2 145/2/2 146/2/2
f 145/1/2 141/1/2 147/1/2
f 146/2/2 145/2/2 147/2/2
f 143/3/2 146/3/2 148/3/2
f 148/3/2 146/3/2 149/3/2
f 147/1/2 141/1/2 150/1/2
f 148/2/2 149/2/2 151/2/2
f 149/3/2 150/3/2 152/3/2
f 151/2/2 149/2/2 152/2/2
f 150/1/2 141/1/2 153/1/2
f 152/3/2 150/3/2 153/3/2
f 152/2/2 153/2/2 154/2/2
f 153/1/2 141/1/2 155/1/2
f 154/2/2 153/2/2 155/2/2
f 141/3/2 142/3/2 156/3/2
f 155/1/2 141/1/2 156/1/2
f 156/3/2 142/3/2 157/3/2
f 155/2/2 156/2/2 158/2/2
f 156/1/2 157/1/2 159/1/2
f 158/2/2 156/2/2 159/2/2
f 159/1/2 157/1/2 160/1/2
f 159/2/2 160/2/2 161/2/2
f 161/2/2 160/2/2 162/2/2
f 168/3/3 164/3/3 163/3/3
f 169/1/3 165/1/3 164/1/3
f 169/3/3 164/3/3 168/3/3
f 170/3/3 166/3/3 165/3/3
f 170/1/3 165/1/3 169/1/3
f 171/3/3 166/3/3 170/3/3
f 172/2/3 167/2/3 166/2/3
f 172/3/3 166/3/3 171/3/3
f 173/2/3 167/2/3 172/2/3
f 175/1/3 170/1/3 169/1/3
f 176/3/3 175/3/3 174/3/3
f 177/1/3 170/1/3 175/1/3
f 177/3/3 175/3/3 176/3/3
f 179/1/3 170/1/3 177/1/3
f 180/2/3 171/2/3 170/2/3
f 180/1/3 170/1/3 179/1/3
f 181/2/3 171/2/3 180/2/3
f 184/3/3 179/3/3 178/3/3
f 185/1/3 180/1/3 179/1/3
f 185/3/3 179/3/3 184/3/3
f 186/3/3 181/3/3 180/3/3
f 186/1/3 180/1/3 185/1/3
f 186/3/3 182/3/3 181/3/3
f 187/2/3 183/2/3 182/2/3
f 187/3/3 182/3/3 186/3/3
f 188/2/3 183/2/3 187/2/3
f 191/2/3 190/2/3 189/2/3
f 192/2/3 190/2/3 191/2/3
f 195/2/3 194/2/3 193/2/3
f 196/2/3 194/2/3 195/2/3
f 200/1/3 198/1/3 197/1/3
f 201/2/3 199/2/3 198/2/3
f 201/1/3 198/1/3 200/1/3
f 202/2/3 199/2/3 201/2/3
f 206/1/3 204/1/3 203/1/3
f 207/2/3 205/2/3 204/2/3
f 207/1/3 204/1/3 206/1/3
f 208/2/3 205/2/3 207/2/3
f 215/3/3 210/3/3 209/3/3
f 216/3/3 210/3/3 215/3/3
f 217/1/3 212/1/3 211/1/3
f 219/2/3 214/2/3 213/2/3
f 220/1/3 218/1/3 217/1/3
f 220/1/3 219/1/3 218/1/3
f 220/1/3 217/1/3 211/1/3
f 221/1/3 219/1/3 220/1/3
f 224/1/3 220/1/3 211/1/3
f 225/1/3 219/1/3 221/1/3
f 226/3/3 223/3/3 222/3/3
f 227/3/3 223/3/3 226/3/3
f 228/1/3 225/1/3 224/1/3
f 228/1/3 224/1/3 211/1/3
f 229/1/3 219/1/3 225/1/3
f 229/1/3 225/1/3 228/1/3
f 230/1/3 228/1/3 211/1/3
f 231/1/3 219/1/3 229/1/3
f 234/1/3 230/1/3 211/1/3
f 234/1/3 231/1/3 230/1/3
f 235/1/3 219/1/3 231/1/3
f 235/1/3 231/1/3 234/1/3
f 236/2/3 214/2/3 219/2/3
f 236/1/3 219/1/3 235/1/3
f 237/3/3 233/3/3 232/3/3
f 238/3/3 233/3/3 237/3/3
f 239/1/3 234/1/3 211/1/3
f 240/1/3 234/1/3 239/1/3
f 241/2/3 214/2/3 236/2/3
f 242/2/3 214/2/3 241/2/3
f 245/2/3 244/2/3 243/2/3
f 246/2/3 244/2/3 245/2/3
f 247/3/4 248/3/4 251/3/4
f 251/3/4 248/3/4 252/3/4
f 249/3/4 250/3/4 253/3/4
f 253/3/4 250/3/4 254/3/4
f 255/3/4 256/3/4 257/3/4
f 257/3/4 256/3/4 258/3/4
f 259/3/4 260/3/4 263/3/4
f 263/3/4 260/3/4 264/3/4
f 261/3/4 262/3/4 265/3/4
f 265/3/4 262/3/4 266/3/4
f 267/1/4 268/1/4 270/1/4
f 268/2/4 269/2/4 271/2/4
f 270/1/4 268/1/4 271/1/4
f 271/2/4 269/2/4 272/2/4
f 273/1/4 274/1/4 276/1/4
f 274/2/4 275/2/4 277/2/4
f 276/1/4 274/1/4 277/1/4
f 277/2/4 275/2/4 278/2/4
f 279/3/4 280/3/4 281/3/4
f 281/3/4 280/3/4 282/3/4
f 282/1/4 283/1/4 284/1/4
f 284/1/4 283/1/4 285/1/4
f 282/1/4 284/1/4 287/1/4
f 287/1/4 284/1/4 288/1/4
f 285/1/4 283/1/4 289/1/4
f 289/1/4 283/1/4 290/1/4
f 286/3/4 287/3/4 291/3/4
f 291/3/4 287/3/4 292/3/4
f 292/1/4 293/1/4 296/1/4
f 294/1/4 295/1/4 297/1/4
f 292/1/4 296/1/4 299/1/4
f 296/1/4 297/1/4 299/1/4
f 297/1/4 295/1/4 300/1/4
f 299/1/4 297/1/4 300/1/4
f 298/3/4 299/3/4 301/3/4
f 301/3/4 299/3/4 302/3/4
f 303/3/4 304/3/4 307/3/4
f 304/1/4 305/1/4 308/1/4
f 307/3/4 304/3/4 308/3/4
f 308/1/4 305/1/4 310/1/4
f 309/3/4 310/3/4 311/3/4
f 310/1/4 305/1/4 312/1/4
f 311/3/4 310/3/4 312/3/4
f 312/1/4 305/1/4 314/1/4
f 313/3/4 314/3/4 315/3/4
f 314/1/4 305/1/4 316/1/4
f 315/3/4 314/3/4 316/3/4
f 305/2/4 306/2/4 317/2/4
f 316/1/4 305/1/4 317/1/4
f 317/2/4 306/2/4 318/2/4
f 325/3/5 320/3/5 319/3/5
f 326/3/5 320/3/5 325/3/5
f 327/3/5 322/3/5 321/3/5
f 328/3/5 322/3/5 327/3/5
f 329/3/5 324/3/5 323/3/5
f 330/3/5 324/3/5 329/3/5
f 337/3/5 332/3/5 331/3/5
f 338/3/5 332/3/5 337/3/5
f 339/3/5 334/3/5 333/3/5
f 340/3/5 334/3/5 339/3/5
f 341/3/5 336/3/5 335/3/5
f 342/3/5 336/3/5 341/3/5
f 348/1/5 344/1/5 343/1/5
f 349/1/5 344/1/5 348/1/5
f 350/1/5 346/1/5 345/1/5
f 351/1/5 346/1/5 350/1/5
f 353/1/5 349/1/5 348/1/5
f 353/1/5 352/1/5 351/1/5
f 353/1/5 351/1/5 350/1/5
f 353/1/5 350/1/5 349/1/5
f 353/1/5 348/1/5 347/1/5
f 354/1/5 352/1/5 353/1/5
f 355/1/5 352/1/5 354/1/5
f 356/1/5 352/1/5 355/1/5
f 357/1/5 353/1/5 347/1/5
f 358/1/5 355/1/5 354/1/5
f 359/1/5 355/1/5 358/1/5
f 360/1/5 352/1/5 356/1/5
f 361/1/5 359/1/5 358/1/5
f 361/1/5 360/1/5 359/1/5
f 361/1/5 357/1/5 347/1/5
f 361/1/5 358/1/5 357/1/5
f 362/1/5 360/1/5 361/1/5
f 363/1/5 360/1/5 362/1/5
f 364/1/5 360/1/5 363/1/5
f 365/1/5 352/1/5 360/1/5
f 365/1/5 360/1/5 364/1/5
f 366/1/5 352/1/5 365/1/5
f 368/1/5 363/1/5 362/1/5
f 369/1/5 363/1/5 368/1/5
f 370/1/5 365/1/5 364/1/5
f 371/1/5 365/1/5 370/1/5
f 373/3/5 368/3/5 367/3/5
f 374/3/5 368/3/5 373/3/5
f 375/3/5 370/3/5 369/3/5
f 376/3/5 370/3/5 375/3/5
f 377/3/5 372/3/5 371/3/5
f 378/3/5 372/3/5 377/3/5
f 383/3/5 380/3/5 379/3/5
f 384/3/5 380/3/5 383/3/5
f 385/3/5 382/3/5 381/3/5
f 386/3/5 382/3/5 385/3/5
f 391/1/5 388/1/5 387/1/5
f 392/1/5 388/1/5 391/1/5
f 393/1/5 390/1/5 389/1/5
f 394/1/5 390/1/5 393/1/5
f 399/1/5 396/1/5 395/1/5
f 400/1/5 396/1/5 399/1/5
f 401/1/5 398/1/5 397/1/5
f 402/1/5 398/1/5 401/1/5
f 403/2/6 404/2/6 406/2/6
f 406/2/6 404/2/6 407/2/6
f 405/2/6 406/2/6 409/2/6
f 407/2/6 408/2/6 409/2/6
f 406/2/6 407/2/6 409/2/6
f 409/2/6 408/2/6 410/2/6
f 410/2/6 408/2/6 411/2/6
f 411/2/6 408/2/6 412/2/6
f 405/2/6 409/2/6 413/2/6
f 410/2/6 411/2/6 414/2/6
f 414/2/6 411/2/6 415/2/6
f 412/2/6 408/2/6 416/2/6
f 414/2/6 415/2/6 417/2/6
f 415/2/6 416/2/6 417/2/6
f 405/2/6 413/2/6 417/2/6
f 413/2/6 414/2/6 417/2/6
f 416/2/6 408/2/6 418/2/6
f 417/2/6 416/2/6 418/2/6
f 419/1/6 420/1/6 423/1/6
f 423/1/6 420/1/6 424/1/6
f 421/1/6 422/1/6 425/1/6
f 425/1/6 422/1/6 426/1/6
f 427/2/6 428/2/6 431/2/6
f 431/2/6 428/2/6 432/2/6
f 429/2/6 430/2/6 433/2/6
f 433/2/6 430/2/6 434/2/6
f 435/2/6 436/2/6 439/2/6
f 439/2/6 436/2/6 440/2/6
f 437/2/6 438/2/6 441/2/6
f 441/2/6 438/2/6 442/2/6
f 443/2/6 444/2/6 445/2/6
f 445/2/6 444/2/6 446/2/6
f 447/2/6 448/2/6 449/2/6
f 449/2/6 448/2/6 450/2/6
