# MagicaVoxel @ Ephtracy

# group
o 

# material
mtllib Christmas-0.mtl
usemtl palette

# normals
vn 0 0 1
vn 0 0 -1
vn 1 0 0
vn -1 0 0
vn 0 -1 0
vn 0 1 0

# texcoords
vt 0.146484 0.5
vt 0.482422 0.5
vt 0.705078 0.5

# verts
v 11.4 2.3 -7.7
v 11.3 2.3 -7.7
v 11.4 2.4 -7.7
v 11.3 2.4 -7.7
v 11.4 2.2 -7.8
v 11.3 2.2 -7.8
v 11.4 2.3 -7.8
v 11.3 2.3 -7.8
v 11.4 2.1 -7.9
v 11.3 2.1 -7.9
v 11.4 2.2 -7.9
v 11.3 2.2 -7.9
v 11.4 2 -8
v 11.3 2 -8
v 11.4 2.1 -8
v 11.3 2.1 -8
v 11.4 1.8 -8.1
v 11.3 1.8 -8.1
v 11.4 1.9 -8.1
v 11.3 1.9 -8.1
v 11.4 2 -8.1
v 11.3 2 -8.1
v 11.4 1.7 -8.2
v 11.3 1.7 -8.2
v 11.4 1.8 -8.2
v 11.3 1.8 -8.2
v 11.4 1.6 -8.3
v 11.3 1.6 -8.3
v 11.4 1.7 -8.3
v 11.3 1.7 -8.3
v 11.4 1.5 -8.5
v 11.3 1.5 -8.5
v 11.4 1.6 -8.5
v 11.3 1.6 -8.5
v 11.4 1.4 -8.8
v 11.3 1.4 -8.8
v 11.4 1.5 -8.8
v 11.3 1.5 -8.8
v 11.4 1.3 -9
v 11.3 1.3 -9
v 11.4 1.4 -9
v 11.3 1.4 -9
v 11.4 1.2 -9.2
v 11.3 1.2 -9.2
v 11.4 1.3 -9.2
v 11.3 1.3 -9.2
v 11.4 1.1 -9.5
v 11.3 1.1 -9.5
v 11.4 1.2 -9.5
v 11.3 1.2 -9.5
v 11.4 1 -9.8
v 11.3 1 -9.8
v 11.4 1.1 -9.8
v 11.3 1.1 -9.8
v 11.4 1.1 -10
v 11.3 1.1 -10
v 11.4 1.2 -10
v 11.3 1.2 -10
v 11.4 1.2 -10.4
v 11.3 1.2 -10.4
v 11.4 1.3 -10.4
v 11.3 1.3 -10.4
v 11.4 1.3 -10.7
v 11.3 1.3 -10.7
v 11.4 1.4 -10.7
v 11.3 1.4 -10.7
v 11.4 1.4 -10.8
v 11.3 1.4 -10.8
v 11.4 1.5 -10.8
v 11.3 1.5 -10.8
v 11.4 1.5 -10.9
v 11.3 1.5 -10.9
v 11.4 1.6 -10.9
v 11.3 1.6 -10.9
v 11.4 1.7 -10.9
v 11.3 1.7 -10.9
v 11.4 1.7 -11
v 11.3 1.7 -11
v 11.4 1.8 -11
v 11.3 1.8 -11
v 11.4 1.8 -11.1
v 11.3 1.8 -11.1
v 11.4 1.9 -11.1
v 11.3 1.9 -11.1
v 11.4 1.9 -11.2
v 11.3 1.9 -11.2
v 11.4 2 -11.2
v 11.3 2 -11.2
v 11.4 2 -11.3
v 11.3 2 -11.3
v 11.4 2.1 -11.3
v 11.3 2.1 -11.3
v 11.4 2.2 -11.3
v 11.3 2.2 -11.3
v 11.4 2.2 -11.4
v 11.3 2.2 -11.4
v 11.4 2.3 -11.4
v 11.3 2.3 -11.4
v 11.4 2.4 -11.4
v 11.3 2.4 -11.4
v 11.4 2.3 -7.8
v 11.3 2.3 -7.8
v 11.4 2.4 -7.8
v 11.3 2.4 -7.8
v 11.4 2.2 -7.9
v 11.3 2.2 -7.9
v 11.4 2.3 -7.9
v 11.3 2.3 -7.9
v 11.4 2.1 -8
v 11.3 2.1 -8
v 11.4 2.2 -8
v 11.3 2.2 -8
v 11.4 2 -8.1
v 11.3 2 -8.1
v 11.4 2.1 -8.1
v 11.3 2.1 -8.1
v 11.4 1.8 -8.2
v 11.3 1.8 -8.2
v 11.4 1.9 -8.2
v 11.3 1.9 -8.2
v 11.4 2 -8.2
v 11.3 2 -8.2
v 11.4 1.7 -8.3
v 11.3 1.7 -8.3
v 11.4 1.8 -8.3
v 11.3 1.8 -8.3
v 11.4 1.6 -8.5
v 11.3 1.6 -8.5
v 11.4 1.7 -8.5
v 11.3 1.7 -8.5
v 11.4 1.5 -8.8
v 11.3 1.5 -8.8
v 11.4 1.6 -8.8
v 11.3 1.6 -8.8
v 11.4 1.4 -9
v 11.3 1.4 -9
v 11.4 1.5 -9
v 11.3 1.5 -9
v 11.4 1.3 -9.2
v 11.3 1.3 -9.2
v 11.4 1.4 -9.2
v 11.3 1.4 -9.2
v 11.4 1.2 -9.5
v 11.3 1.2 -9.5
v 11.4 1.3 -9.5
v 11.3 1.3 -9.5
v 11.4 1.1 -9.8
v 11.3 1.1 -9.8
v 11.4 1.2 -9.8
v 11.3 1.2 -9.8
v 11.4 1 -10
v 11.3 1 -10
v 11.4 1.1 -10
v 11.3 1.1 -10
v 11.4 1.1 -10.4
v 11.3 1.1 -10.4
v 11.4 1.2 -10.4
v 11.3 1.2 -10.4
v 11.4 1.2 -10.7
v 11.3 1.2 -10.7
v 11.4 1.3 -10.7
v 11.3 1.3 -10.7
v 11.4 1.3 -10.8
v 11.3 1.3 -10.8
v 11.4 1.4 -10.8
v 11.3 1.4 -10.8
v 11.4 1.4 -10.9
v 11.3 1.4 -10.9
v 11.4 1.5 -10.9
v 11.3 1.5 -10.9
v 11.4 1.5 -11
v 11.3 1.5 -11
v 11.4 1.6 -11
v 11.3 1.6 -11
v 11.4 1.7 -11
v 11.3 1.7 -11
v 11.4 1.7 -11.1
v 11.3 1.7 -11.1
v 11.4 1.8 -11.1
v 11.3 1.8 -11.1
v 11.4 1.8 -11.2
v 11.3 1.8 -11.2
v 11.4 1.9 -11.2
v 11.3 1.9 -11.2
v 11.4 1.9 -11.3
v 11.3 1.9 -11.3
v 11.4 2 -11.3
v 11.3 2 -11.3
v 11.4 2 -11.4
v 11.3 2 -11.4
v 11.4 2.1 -11.4
v 11.3 2.1 -11.4
v 11.4 2.2 -11.4
v 11.3 2.2 -11.4
v 11.4 2.2 -11.5
v 11.3 2.2 -11.5
v 11.4 2.3 -11.5
v 11.3 2.3 -11.5
v 11.4 2.4 -11.5
v 11.3 2.4 -11.5
v 11.4 2.3 -7.7
v 11.4 2.4 -7.7
v 11.4 2.2 -7.8
v 11.4 2.3 -7.8
v 11.4 2.4 -7.8
v 11.4 2.1 -7.9
v 11.4 2.2 -7.9
v 11.4 2.3 -7.9
v 11.4 2 -8
v 11.4 2.1 -8
v 11.4 2.2 -8
v 11.4 1.8 -8.1
v 11.4 1.9 -8.1
v 11.4 2 -8.1
v 11.4 2.1 -8.1
v 11.4 1.7 -8.2
v 11.4 1.8 -8.2
v 11.4 1.9 -8.2
v 11.4 2 -8.2
v 11.4 1.6 -8.3
v 11.4 1.7 -8.3
v 11.4 1.8 -8.3
v 11.4 1.6 -8.4
v 11.4 1.7 -8.4
v 11.4 1.5 -8.5
v 11.4 1.6 -8.5
v 11.4 1.7 -8.5
v 11.4 1.5 -8.6
v 11.4 1.6 -8.6
v 11.4 1.5 -8.7
v 11.4 1.6 -8.7
v 11.4 1.4 -8.8
v 11.4 1.5 -8.8
v 11.4 1.6 -8.8
v 11.4 1.4 -8.9
v 11.4 1.5 -8.9
v 11.4 1.3 -9
v 11.4 1.4 -9
v 11.4 1.5 -9
v 11.4 1.3 -9.1
v 11.4 1.4 -9.1
v 11.4 1.2 -9.2
v 11.4 1.3 -9.2
v 11.4 1.4 -9.2
v 11.4 1.2 -9.3
v 11.4 1.3 -9.3
v 11.4 1.2 -9.4
v 11.4 1.3 -9.4
v 11.4 1.1 -9.5
v 11.4 1.2 -9.5
v 11.4 1.3 -9.5
v 11.4 1.1 -9.6
v 11.4 1.2 -9.6
v 11.4 1.1 -9.7
v 11.4 1.2 -9.7
v 11.4 1 -9.8
v 11.4 1.1 -9.8
v 11.4 1.2 -9.8
v 11.4 1 -9.9
v 11.4 1.1 -9.9
v 11.4 1 -10
v 11.4 1.1 -10
v 11.4 1.2 -10
v 11.4 1.1 -10.1
v 11.4 1.2 -10.1
v 11.4 1.1 -10.2
v 11.4 1.2 -10.2
v 11.4 1.1 -10.3
v 11.4 1.2 -10.3
v 11.4 1.1 -10.4
v 11.4 1.2 -10.4
v 11.4 1.3 -10.4
v 11.4 1.2 -10.5
v 11.4 1.3 -10.5
v 11.4 1.2 -10.6
v 11.4 1.3 -10.6
v 11.4 1.2 -10.7
v 11.4 1.3 -10.7
v 11.4 1.4 -10.7
v 11.4 1.3 -10.8
v 11.4 1.4 -10.8
v 11.4 1.5 -10.8
v 11.4 1.4 -10.9
v 11.4 1.5 -10.9
v 11.4 1.6 -10.9
v 11.4 1.7 -10.9
v 11.4 1.5 -11
v 11.4 1.6 -11
v 11.4 1.7 -11
v 11.4 1.8 -11
v 11.4 1.7 -11.1
v 11.4 1.8 -11.1
v 11.4 1.9 -11.1
v 11.4 1.8 -11.2
v 11.4 1.9 -11.2
v 11.4 2 -11.2
v 11.4 1.9 -11.3
v 11.4 2 -11.3
v 11.4 2.1 -11.3
v 11.4 2.2 -11.3
v 11.4 2 -11.4
v 11.4 2.1 -11.4
v 11.4 2.2 -11.4
v 11.4 2.3 -11.4
v 11.4 2.4 -11.4
v 11.4 2.2 -11.5
v 11.4 2.3 -11.5
v 11.4 2.4 -11.5
v 11.3 2.3 -7.7
v 11.3 2.4 -7.7
v 11.3 2.2 -7.8
v 11.3 2.3 -7.8
v 11.3 2.4 -7.8
v 11.3 2.1 -7.9
v 11.3 2.2 -7.9
v 11.3 2.3 -7.9
v 11.3 2 -8
v 11.3 2.1 -8
v 11.3 2.2 -8
v 11.3 1.8 -8.1
v 11.3 1.9 -8.1
v 11.3 2 -8.1
v 11.3 2.1 -8.1
v 11.3 1.7 -8.2
v 11.3 1.8 -8.2
v 11.3 1.9 -8.2
v 11.3 2 -8.2
v 11.3 1.6 -8.3
v 11.3 1.7 -8.3
v 11.3 1.8 -8.3
v 11.3 1.6 -8.4
v 11.3 1.7 -8.4
v 11.3 1.5 -8.5
v 11.3 1.6 -8.5
v 11.3 1.7 -8.5
v 11.3 1.5 -8.6
v 11.3 1.6 -8.6
v 11.3 1.5 -8.7
v 11.3 1.6 -8.7
v 11.3 1.4 -8.8
v 11.3 1.5 -8.8
v 11.3 1.6 -8.8
v 11.3 1.4 -8.9
v 11.3 1.5 -8.9
v 11.3 1.3 -9
v 11.3 1.4 -9
v 11.3 1.5 -9
v 11.3 1.3 -9.1
v 11.3 1.4 -9.1
v 11.3 1.2 -9.2
v 11.3 1.3 -9.2
v 11.3 1.4 -9.2
v 11.3 1.2 -9.3
v 11.3 1.3 -9.3
v 11.3 1.2 -9.4
v 11.3 1.3 -9.4
v 11.3 1.1 -9.5
v 11.3 1.2 -9.5
v 11.3 1.3 -9.5
v 11.3 1.1 -9.6
v 11.3 1.2 -9.6
v 11.3 1.1 -9.7
v 11.3 1.2 -9.7
v 11.3 1 -9.8
v 11.3 1.1 -9.8
v 11.3 1.2 -9.8
v 11.3 1 -9.9
v 11.3 1.1 -9.9
v 11.3 1 -10
v 11.3 1.1 -10
v 11.3 1.2 -10
v 11.3 1.1 -10.1
v 11.3 1.2 -10.1
v 11.3 1.1 -10.2
v 11.3 1.2 -10.2
v 11.3 1.1 -10.3
v 11.3 1.2 -10.3
v 11.3 1.1 -10.4
v 11.3 1.2 -10.4
v 11.3 1.3 -10.4
v 11.3 1.2 -10.5
v 11.3 1.3 -10.5
v 11.3 1.2 -10.6
v 11.3 1.3 -10.6
v 11.3 1.2 -10.7
v 11.3 1.3 -10.7
v 11.3 1.4 -10.7
v 11.3 1.3 -10.8
v 11.3 1.4 -10.8
v 11.3 1.5 -10.8
v 11.3 1.4 -10.9
v 11.3 1.5 -10.9
v 11.3 1.6 -10.9
v 11.3 1.7 -10.9
v 11.3 1.5 -11
v 11.3 1.6 -11
v 11.3 1.7 -11
v 11.3 1.8 -11
v 11.3 1.7 -11.1
v 11.3 1.8 -11.1
v 11.3 1.9 -11.1
v 11.3 1.8 -11.2
v 11.3 1.9 -11.2
v 11.3 2 -11.2
v 11.3 1.9 -11.3
v 11.3 2 -11.3
v 11.3 2.1 -11.3
v 11.3 2.2 -11.3
v 11.3 2 -11.4
v 11.3 2.1 -11.4
v 11.3 2.2 -11.4
v 11.3 2.3 -11.4
v 11.3 2.4 -11.4
v 11.3 2.2 -11.5
v 11.3 2.3 -11.5
v 11.3 2.4 -11.5
v 11.4 1 -9.8
v 11.4 1 -9.9
v 11.4 1 -10
v 11.3 1 -9.8
v 11.3 1 -9.9
v 11.3 1 -10
v 11.4 1.1 -9.5
v 11.4 1.1 -9.6
v 11.4 1.1 -9.7
v 11.4 1.1 -9.8
v 11.4 1.1 -10
v 11.4 1.1 -10.1
v 11.4 1.1 -10.2
v 11.4 1.1 -10.3
v 11.4 1.1 -10.4
v 11.3 1.1 -9.5
v 11.3 1.1 -9.6
v 11.3 1.1 -9.7
v 11.3 1.1 -9.8
v 11.3 1.1 -10
v 11.3 1.1 -10.1
v 11.3 1.1 -10.2
v 11.3 1.1 -10.3
v 11.3 1.1 -10.4
v 11.4 1.2 -9.2
v 11.4 1.2 -9.3
v 11.4 1.2 -9.4
v 11.4 1.2 -9.5
v 11.4 1.2 -10.4
v 11.4 1.2 -10.5
v 11.4 1.2 -10.6
v 11.4 1.2 -10.7
v 11.3 1.2 -9.2
v 11.3 1.2 -9.3
v 11.3 1.2 -9.4
v 11.3 1.2 -9.5
v 11.3 1.2 -10.4
v 11.3 1.2 -10.5
v 11.3 1.2 -10.6
v 11.3 1.2 -10.7
v 11.4 1.3 -9
v 11.4 1.3 -9.1
v 11.4 1.3 -9.2
v 11.4 1.3 -10.7
v 11.4 1.3 -10.8
v 11.3 1.3 -9
v 11.3 1.3 -9.1
v 11.3 1.3 -9.2
v 11.3 1.3 -10.7
v 11.3 1.3 -10.8
v 11.4 1.4 -8.8
v 11.4 1.4 -8.9
v 11.4 1.4 -9
v 11.4 1.4 -10.8
v 11.4 1.4 -10.9
v 11.3 1.4 -8.8
v 11.3 1.4 -8.9
v 11.3 1.4 -9
v 11.3 1.4 -10.8
v 11.3 1.4 -10.9
v 11.4 1.5 -8.5
v 11.4 1.5 -8.6
v 11.4 1.5 -8.7
v 11.4 1.5 -8.8
v 11.4 1.5 -10.9
v 11.4 1.5 -11
v 11.3 1.5 -8.5
v 11.3 1.5 -8.6
v 11.3 1.5 -8.7
v 11.3 1.5 -8.8
v 11.3 1.5 -10.9
v 11.3 1.5 -11
v 11.4 1.6 -8.3
v 11.4 1.6 -8.4
v 11.4 1.6 -8.5
v 11.3 1.6 -8.3
v 11.3 1.6 -8.4
v 11.3 1.6 -8.5
v 11.4 1.7 -8.2
v 11.4 1.7 -8.3
v 11.4 1.7 -11
v 11.4 1.7 -11.1
v 11.3 1.7 -8.2
v 11.3 1.7 -8.3
v 11.3 1.7 -11
v 11.3 1.7 -11.1
v 11.4 1.8 -8.1
v 11.4 1.8 -8.2
v 11.4 1.8 -11.1
v 11.4 1.8 -11.2
v 11.3 1.8 -8.1
v 11.3 1.8 -8.2
v 11.3 1.8 -11.1
v 11.3 1.8 -11.2
v 11.4 1.9 -11.2
v 11.4 1.9 -11.3
v 11.3 1.9 -11.2
v 11.3 1.9 -11.3
v 11.4 2 -8
v 11.4 2 -8.1
v 11.4 2 -11.3
v 11.4 2 -11.4
v 11.3 2 -8
v 11.3 2 -8.1
v 11.3 2 -11.3
v 11.3 2 -11.4
v 11.4 2.1 -7.9
v 11.4 2.1 -8
v 11.3 2.1 -7.9
v 11.3 2.1 -8
v 11.4 2.2 -7.8
v 11.4 2.2 -7.9
v 11.4 2.2 -11.4
v 11.4 2.2 -11.5
v 11.3 2.2 -7.8
v 11.3 2.2 -7.9
v 11.3 2.2 -11.4
v 11.3 2.2 -11.5
v 11.4 2.3 -7.7
v 11.4 2.3 -7.8
v 11.3 2.3 -7.7
v 11.3 2.3 -7.8
v 11.4 1.1 -9.8
v 11.4 1.1 -9.9
v 11.4 1.1 -10
v 11.3 1.1 -9.8
v 11.3 1.1 -9.9
v 11.3 1.1 -10
v 11.4 1.2 -9.5
v 11.4 1.2 -9.6
v 11.4 1.2 -9.7
v 11.4 1.2 -9.8
v 11.4 1.2 -10
v 11.4 1.2 -10.1
v 11.4 1.2 -10.2
v 11.4 1.2 -10.3
v 11.4 1.2 -10.4
v 11.3 1.2 -9.5
v 11.3 1.2 -9.6
v 11.3 1.2 -9.7
v 11.3 1.2 -9.8
v 11.3 1.2 -10
v 11.3 1.2 -10.1
v 11.3 1.2 -10.2
v 11.3 1.2 -10.3
v 11.3 1.2 -10.4
v 11.4 1.3 -9.2
v 11.4 1.3 -9.3
v 11.4 1.3 -9.4
v 11.4 1.3 -9.5
v 11.4 1.3 -10.4
v 11.4 1.3 -10.5
v 11.4 1.3 -10.6
v 11.4 1.3 -10.7
v 11.3 1.3 -9.2
v 11.3 1.3 -9.3
v 11.3 1.3 -9.4
v 11.3 1.3 -9.5
v 11.3 1.3 -10.4
v 11.3 1.3 -10.5
v 11.3 1.3 -10.6
v 11.3 1.3 -10.7
v 11.4 1.4 -9
v 11.4 1.4 -9.1
v 11.4 1.4 -9.2
v 11.4 1.4 -10.7
v 11.4 1.4 -10.8
v 11.3 1.4 -9
v 11.3 1.4 -9.1
v 11.3 1.4 -9.2
v 11.3 1.4 -10.7
v 11.3 1.4 -10.8
v 11.4 1.5 -8.8
v 11.4 1.5 -8.9
v 11.4 1.5 -9
v 11.4 1.5 -10.8
v 11.4 1.5 -10.9
v 11.3 1.5 -8.8
v 11.3 1.5 -8.9
v 11.3 1.5 -9
v 11.3 1.5 -10.8
v 11.3 1.5 -10.9
v 11.4 1.6 -8.5
v 11.4 1.6 -8.6
v 11.4 1.6 -8.7
v 11.4 1.6 -8.8
v 11.3 1.6 -8.5
v 11.3 1.6 -8.6
v 11.3 1.6 -8.7
v 11.3 1.6 -8.8
v 11.4 1.7 -8.3
v 11.4 1.7 -8.4
v 11.4 1.7 -8.5
v 11.4 1.7 -10.9
v 11.4 1.7 -11
v 11.3 1.7 -8.3
v 11.3 1.7 -8.4
v 11.3 1.7 -8.5
v 11.3 1.7 -10.9
v 11.3 1.7 -11
v 11.4 1.8 -8.2
v 11.4 1.8 -8.3
v 11.4 1.8 -11
v 11.4 1.8 -11.1
v 11.3 1.8 -8.2
v 11.3 1.8 -8.3
v 11.3 1.8 -11
v 11.3 1.8 -11.1
v 11.4 1.9 -11.1
v 11.4 1.9 -11.2
v 11.3 1.9 -11.1
v 11.3 1.9 -11.2
v 11.4 2 -8.1
v 11.4 2 -8.2
v 11.4 2 -11.2
v 11.4 2 -11.3
v 11.3 2 -8.1
v 11.3 2 -8.2
v 11.3 2 -11.2
v 11.3 2 -11.3
v 11.4 2.1 -8
v 11.4 2.1 -8.1
v 11.3 2.1 -8
v 11.3 2.1 -8.1
v 11.4 2.2 -7.9
v 11.4 2.2 -8
v 11.4 2.2 -11.3
v 11.4 2.2 -11.4
v 11.3 2.2 -7.9
v 11.3 2.2 -8
v 11.3 2.2 -11.3
v 11.3 2.2 -11.4
v 11.4 2.3 -7.8
v 11.4 2.3 -7.9
v 11.3 2.3 -7.8
v 11.3 2.3 -7.9
v 11.4 2.4 -7.7
v 11.4 2.4 -7.8
v 11.4 2.4 -11.4
v 11.4 2.4 -11.5
v 11.3 2.4 -7.7
v 11.3 2.4 -7.8
v 11.3 2.4 -11.4
v 11.3 2.4 -11.5

# faces
f 3/1/1 2/1/1 1/1/1
f 4/1/1 2/1/1 3/1/1
f 7/3/1 6/3/1 5/3/1
f 8/3/1 6/3/1 7/3/1
f 11/2/1 10/2/1 9/2/1
f 12/2/1 10/2/1 11/2/1
f 15/1/1 14/1/1 13/1/1
f 16/1/1 14/1/1 15/1/1
f 19/2/1 18/2/1 17/2/1
f 20/2/1 18/2/1 19/2/1
f 21/3/1 20/3/1 19/3/1
f 22/3/1 20/3/1 21/3/1
f 25/1/1 24/1/1 23/1/1
f 26/1/1 24/1/1 25/1/1
f 29/3/1 28/3/1 27/3/1
f 30/3/1 28/3/1 29/3/1
f 33/1/1 32/1/1 31/1/1
f 34/1/1 32/1/1 33/1/1
f 37/1/1 36/1/1 35/1/1
f 38/1/1 36/1/1 37/1/1
f 41/2/1 40/2/1 39/2/1
f 42/2/1 40/2/1 41/2/1
f 45/3/1 44/3/1 43/3/1
f 46/3/1 44/3/1 45/3/1
f 49/3/1 48/3/1 47/3/1
f 50/3/1 48/3/1 49/3/1
f 53/3/1 52/3/1 51/3/1
f 54/3/1 52/3/1 53/3/1
f 57/1/1 56/1/1 55/1/1
f 58/1/1 56/1/1 57/1/1
f 61/3/1 60/3/1 59/3/1
f 62/3/1 60/3/1 61/3/1
f 65/3/1 64/3/1 63/3/1
f 66/3/1 64/3/1 65/3/1
f 69/2/1 68/2/1 67/2/1
f 70/2/1 68/2/1 69/2/1
f 73/1/1 72/1/1 71/1/1
f 74/1/1 72/1/1 73/1/1
f 75/3/1 74/3/1 73/3/1
f 76/3/1 74/3/1 75/3/1
f 79/2/1 78/2/1 77/2/1
f 80/2/1 78/2/1 79/2/1
f 83/1/1 82/1/1 81/1/1
f 84/1/1 82/1/1 83/1/1
f 87/3/1 86/3/1 85/3/1
f 88/3/1 86/3/1 87/3/1
f 91/2/1 90/2/1 89/2/1
f 92/2/1 90/2/1 91/2/1
f 93/1/1 92/1/1 91/1/1
f 94/1/1 92/1/1 93/1/1
f 97/3/1 96/3/1 95/3/1
f 98/3/1 96/3/1 97/3/1
f 99/2/1 98/2/1 97/2/1
f 100/2/1 98/2/1 99/2/1
f 101/1/2 102/1/2 103/1/2
f 103/1/2 102/1/2 104/1/2
f 105/3/2 106/3/2 107/3/2
f 107/3/2 106/3/2 108/3/2
f 109/2/2 110/2/2 111/2/2
f 111/2/2 110/2/2 112/2/2
f 113/1/2 114/1/2 115/1/2
f 115/1/2 114/1/2 116/1/2
f 117/2/2 118/2/2 119/2/2
f 119/2/2 118/2/2 120/2/2
f 119/3/2 120/3/2 121/3/2
f 121/3/2 120/3/2 122/3/2
f 123/1/2 124/1/2 125/1/2
f 125/1/2 124/1/2 126/1/2
f 127/2/2 128/2/2 129/2/2
f 129/2/2 128/2/2 130/2/2
f 131/2/2 132/2/2 133/2/2
f 133/2/2 132/2/2 134/2/2
f 135/3/2 136/3/2 137/3/2
f 137/3/2 136/3/2 138/3/2
f 139/1/2 140/1/2 141/1/2
f 141/1/2 140/1/2 142/1/2
f 143/1/2 144/1/2 145/1/2
f 145/1/2 144/1/2 146/1/2
f 147/1/2 148/1/2 149/1/2
f 149/1/2 148/1/2 150/1/2
f 151/2/2 152/2/2 153/2/2
f 153/2/2 152/2/2 154/2/2
f 155/1/2 156/1/2 157/1/2
f 157/1/2 156/1/2 158/1/2
f 159/1/2 160/1/2 161/1/2
f 161/1/2 160/1/2 162/1/2
f 163/3/2 164/3/2 165/3/2
f 165/3/2 164/3/2 166/3/2
f 167/2/2 168/2/2 169/2/2
f 169/2/2 168/2/2 170/2/2
f 171/1/2 172/1/2 173/1/2
f 173/1/2 172/1/2 174/1/2
f 173/3/2 174/3/2 175/3/2
f 175/3/2 174/3/2 176/3/2
f 177/2/2 178/2/2 179/2/2
f 179/2/2 178/2/2 180/2/2
f 181/1/2 182/1/2 183/1/2
f 183/1/2 182/1/2 184/1/2
f 185/3/2 186/3/2 187/3/2
f 187/3/2 186/3/2 188/3/2
f 189/2/2 190/2/2 191/2/2
f 191/2/2 190/2/2 192/2/2
f 191/1/2 192/1/2 193/1/2
f 193/1/2 192/1/2 194/1/2
f 195/3/2 196/3/2 197/3/2
f 197/3/2 196/3/2 198/3/2
f 197/2/2 198/2/2 199/2/2
f 199/2/2 198/2/2 200/2/2
f 204/1/3 202/1/3 201/1/3
f 205/1/3 202/1/3 204/1/3
f 207/3/3 204/3/3 203/3/3
f 208/3/3 204/3/3 207/3/3
f 210/2/3 207/2/3 206/2/3
f 211/2/3 207/2/3 210/2/3
f 214/1/3 210/1/3 209/1/3
f 215/1/3 210/1/3 214/1/3
f 217/2/3 213/2/3 212/2/3
f 218/3/3 214/3/3 213/3/3
f 218/2/3 213/2/3 217/2/3
f 219/3/3 214/3/3 218/3/3
f 221/1/3 217/1/3 216/1/3
f 222/1/3 217/1/3 221/1/3
f 223/3/3 221/3/3 220/3/3
f 224/3/3 221/3/3 223/3/3
f 226/2/3 224/2/3 223/2/3
f 227/2/3 224/2/3 226/2/3
f 228/1/3 226/1/3 225/1/3
f 229/1/3 226/1/3 228/1/3
f 230/3/3 229/3/3 228/3/3
f 231/3/3 229/3/3 230/3/3
f 233/2/3 231/2/3 230/2/3
f 234/2/3 231/2/3 233/2/3
f 235/1/3 233/1/3 232/1/3
f 236/1/3 233/1/3 235/1/3
f 238/3/3 236/3/3 235/3/3
f 239/3/3 236/3/3 238/3/3
f 240/2/3 238/2/3 237/2/3
f 241/2/3 238/2/3 240/2/3
f 243/1/3 241/1/3 240/1/3
f 244/1/3 241/1/3 243/1/3
f 245/3/3 243/3/3 242/3/3
f 246/3/3 243/3/3 245/3/3
f 247/2/3 246/2/3 245/2/3
f 248/2/3 246/2/3 247/2/3
f 250/1/3 248/1/3 247/1/3
f 251/1/3 248/1/3 250/1/3
f 252/3/3 250/3/3 249/3/3
f 253/3/3 250/3/3 252/3/3
f 254/2/3 253/2/3 252/2/3
f 255/2/3 253/2/3 254/2/3
f 257/1/3 255/1/3 254/1/3
f 258/1/3 255/1/3 257/1/3
f 259/3/3 257/3/3 256/3/3
f 260/3/3 257/3/3 259/3/3
f 261/2/3 260/2/3 259/2/3
f 262/2/3 260/2/3 261/2/3
f 264/1/3 263/1/3 262/1/3
f 265/1/3 263/1/3 264/1/3
f 266/3/3 265/3/3 264/3/3
f 267/3/3 265/3/3 266/3/3
f 268/2/3 267/2/3 266/2/3
f 269/2/3 267/2/3 268/2/3
f 270/1/3 269/1/3 268/1/3
f 271/1/3 269/1/3 270/1/3
f 273/3/3 272/3/3 271/3/3
f 274/3/3 272/3/3 273/3/3
f 275/2/3 274/2/3 273/2/3
f 276/2/3 274/2/3 275/2/3
f 277/1/3 276/1/3 275/1/3
f 278/1/3 276/1/3 277/1/3
f 280/3/3 279/3/3 278/3/3
f 281/3/3 279/3/3 280/3/3
f 283/2/3 282/2/3 281/2/3
f 284/2/3 282/2/3 283/2/3
f 287/1/3 285/1/3 284/1/3
f 288/3/3 286/3/3 285/3/3
f 288/1/3 285/1/3 287/1/3
f 289/3/3 286/3/3 288/3/3
f 291/2/3 290/2/3 289/2/3
f 292/2/3 290/2/3 291/2/3
f 294/1/3 293/1/3 292/1/3
f 295/1/3 293/1/3 294/1/3
f 297/3/3 296/3/3 295/3/3
f 298/3/3 296/3/3 297/3/3
f 301/2/3 299/2/3 298/2/3
f 302/1/3 300/1/3 299/1/3
f 302/2/3 299/2/3 301/2/3
f 303/1/3 300/1/3 302/1/3
f 306/3/3 304/3/3 303/3/3
f 307/2/3 305/2/3 304/2/3
f 307/3/3 304/3/3 306/3/3
f 308/2/3 305/2/3 307/2/3
f 309/1/4 310/1/4 312/1/4
f 312/1/4 310/1/4 313/1/4
f 311/3/4 312/3/4 315/3/4
f 315/3/4 312/3/4 316/3/4
f 314/2/4 315/2/4 318/2/4
f 318/2/4 315/2/4 319/2/4
f 317/1/4 318/1/4 322/1/4
f 322/1/4 318/1/4 323/1/4
f 320/2/4 321/2/4 325/2/4
f 321/3/4 322/3/4 326/3/4
f 325/2/4 321/2/4 326/2/4
f 326/3/4 322/3/4 327/3/4
f 324/1/4 325/1/4 329/1/4
f 329/1/4 325/1/4 330/1/4
f 328/3/4 329/3/4 331/3/4
f 331/3/4 329/3/4 332/3/4
f 331/2/4 332/2/4 334/2/4
f 334/2/4 332/2/4 335/2/4
f 333/1/4 334/1/4 336/1/4
f 336/1/4 334/1/4 337/1/4
f 336/3/4 337/3/4 338/3/4
f 338/3/4 337/3/4 339/3/4
f 338/2/4 339/2/4 341/2/4
f 341/2/4 339/2/4 342/2/4
f 340/1/4 341/1/4 343/1/4
f 343/1/4 341/1/4 344/1/4
f 343/3/4 344/3/4 346/3/4
f 346/3/4 344/3/4 347/3/4
f 345/2/4 346/2/4 348/2/4
f 348/2/4 346/2/4 349/2/4
f 348/1/4 349/1/4 351/1/4
f 351/1/4 349/1/4 352/1/4
f 350/3/4 351/3/4 353/3/4
f 353/3/4 351/3/4 354/3/4
f 353/2/4 354/2/4 355/2/4
f 355/2/4 354/2/4 356/2/4
f 355/1/4 356/1/4 358/1/4
f 358/1/4 356/1/4 359/1/4
f 357/3/4 358/3/4 360/3/4
f 360/3/4 358/3/4 361/3/4
f 360/2/4 361/2/4 362/2/4
f 362/2/4 361/2/4 363/2/4
f 362/1/4 363/1/4 365/1/4
f 365/1/4 363/1/4 366/1/4
f 364/3/4 365/3/4 367/3/4
f 367/3/4 365/3/4 368/3/4
f 367/2/4 368/2/4 369/2/4
f 369/2/4 368/2/4 370/2/4
f 370/1/4 371/1/4 372/1/4
f 372/1/4 371/1/4 373/1/4
f 372/3/4 373/3/4 374/3/4
f 374/3/4 373/3/4 375/3/4
f 374/2/4 375/2/4 376/2/4
f 376/2/4 375/2/4 377/2/4
f 376/1/4 377/1/4 378/1/4
f 378/1/4 377/1/4 379/1/4
f 379/3/4 380/3/4 381/3/4
f 381/3/4 380/3/4 382/3/4
f 381/2/4 382/2/4 383/2/4
f 383/2/4 382/2/4 384/2/4
f 383/1/4 384/1/4 385/1/4
f 385/1/4 384/1/4 386/1/4
f 386/3/4 387/3/4 388/3/4
f 388/3/4 387/3/4 389/3/4
f 389/2/4 390/2/4 391/2/4
f 391/2/4 390/2/4 392/2/4
f 392/1/4 393/1/4 395/1/4
f 393/3/4 394/3/4 396/3/4
f 395/1/4 393/1/4 396/1/4
f 396/3/4 394/3/4 397/3/4
f 397/2/4 398/2/4 399/2/4
f 399/2/4 398/2/4 400/2/4
f 400/1/4 401/1/4 402/1/4
f 402/1/4 401/1/4 403/1/4
f 403/3/4 404/3/4 405/3/4
f 405/3/4 404/3/4 406/3/4
f 406/2/4 407/2/4 409/2/4
f 407/1/4 408/1/4 410/1/4
f 409/2/4 407/2/4 410/2/4
f 410/1/4 408/1/4 411/1/4
f 411/3/4 412/3/4 414/3/4
f 412/2/4 413/2/4 415/2/4
f 414/3/4 412/3/4 415/3/4
f 415/2/4 413/2/4 416/2/4
f 420/3/5 418/3/5 417/3/5
f 421/2/5 419/2/5 418/2/5
f 421/3/5 418/3/5 420/3/5
f 422/2/5 419/2/5 421/2/5
f 432/3/5 424/3/5 423/3/5
f 433/2/5 425/2/5 424/2/5
f 433/3/5 424/3/5 432/3/5
f 434/1/5 426/1/5 425/1/5
f 434/2/5 425/2/5 433/2/5
f 435/1/5 426/1/5 434/1/5
f 436/1/5 428/1/5 427/1/5
f 437/3/5 429/3/5 428/3/5
f 437/1/5 428/1/5 436/1/5
f 438/2/5 430/2/5 429/2/5
f 438/3/5 429/3/5 437/3/5
f 439/1/5 431/1/5 430/1/5
f 439/2/5 430/2/5 438/2/5
f 440/1/5 431/1/5 439/1/5
f 449/3/5 442/3/5 441/3/5
f 450/2/5 443/2/5 442/2/5
f 450/3/5 442/3/5 449/3/5
f 451/1/5 444/1/5 443/1/5
f 451/2/5 443/2/5 450/2/5
f 452/1/5 444/1/5 451/1/5
f 453/3/5 446/3/5 445/3/5
f 454/2/5 447/2/5 446/2/5
f 454/3/5 446/3/5 453/3/5
f 455/1/5 448/1/5 447/1/5
f 455/2/5 447/2/5 454/2/5
f 456/1/5 448/1/5 455/1/5
f 462/2/5 458/2/5 457/2/5
f 463/1/5 459/1/5 458/1/5
f 463/2/5 458/2/5 462/2/5
f 464/1/5 459/1/5 463/1/5
f 465/3/5 461/3/5 460/3/5
f 466/3/5 461/3/5 465/3/5
f 472/1/5 468/1/5 467/1/5
f 473/3/5 469/3/5 468/3/5
f 473/1/5 468/1/5 472/1/5
f 474/3/5 469/3/5 473/3/5
f 475/2/5 471/2/5 470/2/5
f 476/2/5 471/2/5 475/2/5
f 483/1/5 478/1/5 477/1/5
f 484/3/5 479/3/5 478/3/5
f 484/1/5 478/1/5 483/1/5
f 485/2/5 480/2/5 479/2/5
f 485/3/5 479/3/5 484/3/5
f 486/2/5 480/2/5 485/2/5
f 487/1/5 482/1/5 481/1/5
f 488/1/5 482/1/5 487/1/5
f 492/3/5 490/3/5 489/3/5
f 493/2/5 491/2/5 490/2/5
f 493/3/5 490/3/5 492/3/5
f 494/2/5 491/2/5 493/2/5
f 499/1/5 496/1/5 495/1/5
f 500/1/5 496/1/5 499/1/5
f 501/2/5 498/2/5 497/2/5
f 502/2/5 498/2/5 501/2/5
f 507/2/5 504/2/5 503/2/5
f 508/2/5 504/2/5 507/2/5
f 509/1/5 506/1/5 505/1/5
f 510/1/5 506/1/5 509/1/5
f 513/3/5 512/3/5 511/3/5
f 514/3/5 512/3/5 513/3/5
f 519/1/5 516/1/5 515/1/5
f 520/1/5 516/1/5 519/1/5
f 521/2/5 518/2/5 517/2/5
f 522/2/5 518/2/5 521/2/5
f 525/2/5 524/2/5 523/2/5
f 526/2/5 524/2/5 525/2/5
f 531/3/5 528/3/5 527/3/5
f 532/3/5 528/3/5 531/3/5
f 533/3/5 530/3/5 529/3/5
f 534/3/5 530/3/5 533/3/5
f 537/1/5 536/1/5 535/1/5
f 538/1/5 536/1/5 537/1/5
f 539/3/6 540/3/6 542/3/6
f 540/2/6 541/2/6 543/2/6
f 542/3/6 540/3/6 543/3/6
f 543/2/6 541/2/6 544/2/6
f 545/3/6 546/3/6 554/3/6
f 546/2/6 547/2/6 555/2/6
f 554/3/6 546/3/6 555/3/6
f 547/1/6 548/1/6 556/1/6
f 555/2/6 547/2/6 556/2/6
f 556/1/6 548/1/6 557/1/6
f 549/1/6 550/1/6 558/1/6
f 550/3/6 551/3/6 559/3/6
f 558/1/6 550/1/6 559/1/6
f 551/2/6 552/2/6 560/2/6
f 559/3/6 551/3/6 560/3/6
f 552/1/6 553/1/6 561/1/6
f 560/2/6 552/2/6 561/2/6
f 561/1/6 553/1/6 562/1/6
f 563/3/6 564/3/6 571/3/6
f 564/2/6 565/2/6 572/2/6
f 571/3/6 564/3/6 572/3/6
f 565/1/6 566/1/6 573/1/6
f 572/2/6 565/2/6 573/2/6
f 573/1/6 566/1/6 574/1/6
f 567/3/6 568/3/6 575/3/6
f 568/2/6 569/2/6 576/2/6
f 575/3/6 568/3/6 576/3/6
f 569/1/6 570/1/6 577/1/6
f 576/2/6 569/2/6 577/2/6
f 577/1/6 570/1/6 578/1/6
f 579/2/6 580/2/6 584/2/6
f 580/1/6 581/1/6 585/1/6
f 584/2/6 580/2/6 585/2/6
f 585/1/6 581/1/6 586/1/6
f 582/3/6 583/3/6 587/3/6
f 587/3/6 583/3/6 588/3/6
f 589/1/6 590/1/6 594/1/6
f 590/3/6 591/3/6 595/3/6
f 594/1/6 590/1/6 595/1/6
f 595/3/6 591/3/6 596/3/6
f 592/2/6 593/2/6 597/2/6
f 597/2/6 593/2/6 598/2/6
f 599/1/6 600/1/6 603/1/6
f 600/3/6 601/3/6 604/3/6
f 603/1/6 600/1/6 604/1/6
f 601/2/6 602/2/6 605/2/6
f 604/3/6 601/3/6 605/3/6
f 605/2/6 602/2/6 606/2/6
f 607/3/6 608/3/6 612/3/6
f 608/2/6 609/2/6 613/2/6
f 612/3/6 608/3/6 613/3/6
f 613/2/6 609/2/6 614/2/6
f 610/3/6 611/3/6 615/3/6
f 615/3/6 611/3/6 616/3/6
f 617/1/6 618/1/6 621/1/6
f 621/1/6 618/1/6 622/1/6
f 619/2/6 620/2/6 623/2/6
f 623/2/6 620/2/6 624/2/6
f 625/1/6 626/1/6 627/1/6
f 627/1/6 626/1/6 628/1/6
f 629/3/6 630/3/6 633/3/6
f 633/3/6 630/3/6 634/3/6
f 631/3/6 632/3/6 635/3/6
f 635/3/6 632/3/6 636/3/6
f 637/1/6 638/1/6 639/1/6
f 639/1/6 638/1/6 640/1/6
f 641/2/6 642/2/6 645/2/6
f 645/2/6 642/2/6 646/2/6
f 643/1/6 644/1/6 647/1/6
f 647/1/6 644/1/6 648/1/6
f 649/3/6 650/3/6 651/3/6
f 651/3/6 650/3/6 652/3/6
f 653/1/6 654/1/6 657/1/6
f 657/1/6 654/1/6 658/1/6
f 655/2/6 656/2/6 659/2/6
f 659/2/6 656/2/6 660/2/6
