# MagicaVoxel @ Ephtracy

# group
o corn_growth3

# material
mtllib farm-31-corn_growth3.mtl
usemtl palette

# normals
vn -1 0 0
vn 1 0 0
vn 0 0 1
vn 0 0 -1
vn 0 -1 0
vn 0 1 0

# texcoords
vt 0.552734 0.5
vt 0.556641 0.5

# verts
v 3.9 0.2 2.7
v 3.9 0.2 2.6
v 3.9 0.3 2.7
v 3.9 0.3 2.6
v 3.9 0.4 2.7
v 3.9 0.4 2.6
v 3.9 0.8 2.7
v 3.9 0.8 2.6
v 3.9 0.9 2.7
v 3.9 0.9 2.6
v 3.9 1 2.7
v 3.9 1 2.6
v 4 1.2 2.7
v 4 1.2 2.6
v 4 1.3 2.7
v 4 1.3 2.6
v 4.1 0 2.7
v 4.1 0 2.6
v 4.1 0.2 2.7
v 4.1 0.2 2.6
v 4.1 0.3 2.7
v 4.1 0.3 2.6
v 4.1 0.5 2.6
v 4.1 0.5 2.5
v 4.1 0.5 2.4
v 4.1 0.6 2.9
v 4.1 0.6 2.8
v 4.1 0.6 2.7
v 4.1 0.6 2.6
v 4.1 0.6 2.5
v 4.1 0.6 2.4
v 4.1 0.7 2.9
v 4.1 0.7 2.8
v 4.1 0.7 2.7
v 4.1 0.7 2.5
v 4.1 0.7 2.4
v 4.1 0.8 2.9
v 4.1 0.8 2.8
v 4.1 0.8 2.7
v 4.1 0.8 2.6
v 4.1 0.9 2.7
v 4.1 0.9 2.6
v 4.1 1.2 2.8
v 4.1 1.2 2.7
v 4.1 1.2 2.6
v 4.1 1.2 2.5
v 4.1 1.3 2.8
v 4.1 1.3 2.7
v 4.1 1.3 2.6
v 4.1 1.3 2.5
v 4.1 1.5 2.7
v 4.1 1.5 2.6
v 4.3 0.4 2.7
v 4.3 0.4 2.6
v 4.3 0.5 2.7
v 4.3 0.5 2.6
v 4.3 1 2.7
v 4.3 1 2.6
v 4.3 1.1 2.7
v 4.3 1.1 2.6
v 4 0.3 2.7
v 4 0.3 2.6
v 4 0.4 2.7
v 4 0.4 2.6
v 4 0.9 2.7
v 4 0.9 2.6
v 4 1 2.7
v 4 1 2.6
v 4.2 0 2.7
v 4.2 0 2.6
v 4.2 0.3 2.7
v 4.2 0.3 2.6
v 4.2 0.4 2.7
v 4.2 0.4 2.6
v 4.2 0.5 2.6
v 4.2 0.5 2.5
v 4.2 0.5 2.4
v 4.2 0.6 2.9
v 4.2 0.6 2.8
v 4.2 0.6 2.7
v 4.2 0.6 2.6
v 4.2 0.6 2.5
v 4.2 0.6 2.4
v 4.2 0.7 2.9
v 4.2 0.7 2.8
v 4.2 0.7 2.7
v 4.2 0.7 2.5
v 4.2 0.7 2.4
v 4.2 0.8 2.9
v 4.2 0.8 2.8
v 4.2 0.9 2.7
v 4.2 0.9 2.6
v 4.2 1 2.7
v 4.2 1 2.6
v 4.2 1.2 2.8
v 4.2 1.2 2.7
v 4.2 1.2 2.6
v 4.2 1.2 2.5
v 4.2 1.3 2.8
v 4.2 1.3 2.7
v 4.2 1.3 2.6
v 4.2 1.3 2.5
v 4.2 1.5 2.7
v 4.2 1.5 2.6
v 4.3 1.2 2.7
v 4.3 1.2 2.6
v 4.3 1.3 2.7
v 4.3 1.3 2.6
v 4.4 0.3 2.7
v 4.4 0.3 2.6
v 4.4 0.4 2.7
v 4.4 0.4 2.6
v 4.4 0.5 2.7
v 4.4 0.5 2.6
v 4.4 0.9 2.7
v 4.4 0.9 2.6
v 4.4 1 2.7
v 4.4 1 2.6
v 4.4 1.1 2.7
v 4.4 1.1 2.6
v 4.1 0.6 2.9
v 4.1 0.7 2.9
v 4.1 0.8 2.9
v 4.2 0.6 2.9
v 4.2 0.7 2.9
v 4.2 0.8 2.9
v 4.1 1.2 2.8
v 4.1 1.3 2.8
v 4.2 1.2 2.8
v 4.2 1.3 2.8
v 3.9 0.2 2.7
v 3.9 0.3 2.7
v 3.9 0.4 2.7
v 3.9 0.8 2.7
v 3.9 0.9 2.7
v 3.9 1 2.7
v 4 0.2 2.7
v 4 0.3 2.7
v 4 0.4 2.7
v 4 0.8 2.7
v 4 0.9 2.7
v 4 1 2.7
v 4 1.2 2.7
v 4 1.3 2.7
v 4.1 0 2.7
v 4.1 0.2 2.7
v 4.1 0.3 2.7
v 4.1 0.6 2.7
v 4.1 0.7 2.7
v 4.1 0.8 2.7
v 4.1 0.9 2.7
v 4.1 1.2 2.7
v 4.1 1.3 2.7
v 4.1 1.5 2.7
v 4.2 0 2.7
v 4.2 0.3 2.7
v 4.2 0.4 2.7
v 4.2 0.6 2.7
v 4.2 0.7 2.7
v 4.2 0.9 2.7
v 4.2 1 2.7
v 4.2 1.2 2.7
v 4.2 1.3 2.7
v 4.2 1.5 2.7
v 4.3 0.3 2.7
v 4.3 0.4 2.7
v 4.3 0.5 2.7
v 4.3 0.9 2.7
v 4.3 1 2.7
v 4.3 1.1 2.7
v 4.3 1.2 2.7
v 4.3 1.3 2.7
v 4.4 0.3 2.7
v 4.4 0.4 2.7
v 4.4 0.5 2.7
v 4.4 0.9 2.7
v 4.4 1 2.7
v 4.4 1.1 2.7
v 4.1 0.6 2.5
v 4.1 0.7 2.5
v 4.2 0.6 2.5
v 4.2 0.7 2.5
v 4.1 0.7 2.8
v 4.1 0.8 2.8
v 4.2 0.7 2.8
v 4.2 0.8 2.8
v 3.9 0.2 2.6
v 3.9 0.3 2.6
v 3.9 0.4 2.6
v 3.9 0.8 2.6
v 3.9 0.9 2.6
v 3.9 1 2.6
v 4 0.2 2.6
v 4 0.3 2.6
v 4 0.4 2.6
v 4 0.8 2.6
v 4 0.9 2.6
v 4 1 2.6
v 4 1.2 2.6
v 4 1.3 2.6
v 4.1 0 2.6
v 4.1 0.2 2.6
v 4.1 0.3 2.6
v 4.1 0.5 2.6
v 4.1 0.6 2.6
v 4.1 0.8 2.6
v 4.1 0.9 2.6
v 4.1 1.2 2.6
v 4.1 1.3 2.6
v 4.1 1.5 2.6
v 4.2 0 2.6
v 4.2 0.3 2.6
v 4.2 0.4 2.6
v 4.2 0.5 2.6
v 4.2 0.6 2.6
v 4.2 0.9 2.6
v 4.2 1 2.6
v 4.2 1.2 2.6
v 4.2 1.3 2.6
v 4.2 1.5 2.6
v 4.3 0.3 2.6
v 4.3 0.4 2.6
v 4.3 0.5 2.6
v 4.3 0.9 2.6
v 4.3 1 2.6
v 4.3 1.1 2.6
v 4.3 1.2 2.6
v 4.3 1.3 2.6
v 4.4 0.3 2.6
v 4.4 0.4 2.6
v 4.4 0.5 2.6
v 4.4 0.9 2.6
v 4.4 1 2.6
v 4.4 1.1 2.6
v 4.1 1.2 2.5
v 4.1 1.3 2.5
v 4.2 1.2 2.5
v 4.2 1.3 2.5
v 4.1 0.5 2.4
v 4.1 0.6 2.4
v 4.1 0.7 2.4
v 4.2 0.5 2.4
v 4.2 0.6 2.4
v 4.2 0.7 2.4
v 4.1 0 2.7
v 4.2 0 2.7
v 4.1 0 2.6
v 4.2 0 2.6
v 3.9 0.2 2.7
v 4 0.2 2.7
v 4.1 0.2 2.7
v 3.9 0.2 2.6
v 4 0.2 2.6
v 4.1 0.2 2.6
v 4.2 0.3 2.7
v 4.3 0.3 2.7
v 4.4 0.3 2.7
v 4.2 0.3 2.6
v 4.3 0.3 2.6
v 4.4 0.3 2.6
v 4.1 0.5 2.6
v 4.2 0.5 2.6
v 4.1 0.5 2.5
v 4.2 0.5 2.5
v 4.1 0.5 2.4
v 4.2 0.5 2.4
v 4.1 0.6 2.9
v 4.2 0.6 2.9
v 4.1 0.6 2.8
v 4.2 0.6 2.8
v 4.1 0.6 2.7
v 4.2 0.6 2.7
v 3.9 0.8 2.7
v 4 0.8 2.7
v 4.1 0.8 2.7
v 3.9 0.8 2.6
v 4 0.8 2.6
v 4.1 0.8 2.6
v 4.2 0.9 2.7
v 4.3 0.9 2.7
v 4.4 0.9 2.7
v 4.2 0.9 2.6
v 4.3 0.9 2.6
v 4.4 0.9 2.6
v 4.1 1.2 2.8
v 4.2 1.2 2.8
v 4 1.2 2.7
v 4.1 1.2 2.7
v 4.2 1.2 2.7
v 4.3 1.2 2.7
v 4 1.2 2.6
v 4.1 1.2 2.6
v 4.2 1.2 2.6
v 4.3 1.2 2.6
v 4.1 1.2 2.5
v 4.2 1.2 2.5
v 4 0.3 2.7
v 4.1 0.3 2.7
v 4 0.3 2.6
v 4.1 0.3 2.6
v 3.9 0.4 2.7
v 4 0.4 2.7
v 4.2 0.4 2.7
v 4.3 0.4 2.7
v 3.9 0.4 2.6
v 4 0.4 2.6
v 4.2 0.4 2.6
v 4.3 0.4 2.6
v 4.3 0.5 2.7
v 4.4 0.5 2.7
v 4.3 0.5 2.6
v 4.4 0.5 2.6
v 4.1 0.6 2.6
v 4.2 0.6 2.6
v 4.1 0.6 2.5
v 4.2 0.6 2.5
v 4.1 0.7 2.8
v 4.2 0.7 2.8
v 4.1 0.7 2.7
v 4.2 0.7 2.7
v 4.1 0.7 2.5
v 4.2 0.7 2.5
v 4.1 0.7 2.4
v 4.2 0.7 2.4
v 4.1 0.8 2.9
v 4.2 0.8 2.9
v 4.1 0.8 2.8
v 4.2 0.8 2.8
v 4 0.9 2.7
v 4.1 0.9 2.7
v 4 0.9 2.6
v 4.1 0.9 2.6
v 3.9 1 2.7
v 4 1 2.7
v 4.2 1 2.7
v 4.3 1 2.7
v 3.9 1 2.6
v 4 1 2.6
v 4.2 1 2.6
v 4.3 1 2.6
v 4.3 1.1 2.7
v 4.4 1.1 2.7
v 4.3 1.1 2.6
v 4.4 1.1 2.6
v 4.1 1.3 2.8
v 4.2 1.3 2.8
v 4 1.3 2.7
v 4.1 1.3 2.7
v 4.2 1.3 2.7
v 4.3 1.3 2.7
v 4 1.3 2.6
v 4.1 1.3 2.6
v 4.2 1.3 2.6
v 4.3 1.3 2.6
v 4.1 1.3 2.5
v 4.2 1.3 2.5
v 4.1 1.5 2.7
v 4.2 1.5 2.7
v 4.1 1.5 2.6
v 4.2 1.5 2.6

# faces
f 3/2/1 2/2/1 1/2/1
f 4/2/1 2/2/1 3/2/1
f 5/1/1 4/1/1 3/1/1
f 6/1/1 4/1/1 5/1/1
f 9/2/1 8/2/1 7/2/1
f 10/2/1 8/2/1 9/2/1
f 11/1/1 10/1/1 9/1/1
f 12/1/1 10/1/1 11/1/1
f 15/1/1 14/1/1 13/1/1
f 16/1/1 14/1/1 15/1/1
f 19/2/1 18/2/1 17/2/1
f 20/2/1 18/2/1 19/2/1
f 23/2/1 22/2/1 21/2/1
f 28/2/1 23/2/1 21/2/1
f 29/1/1 24/1/1 23/1/1
f 29/2/1 23/2/1 28/2/1
f 30/2/1 25/2/1 24/2/1
f 30/1/1 24/1/1 29/1/1
f 31/2/1 25/2/1 30/2/1
f 32/2/1 27/2/1 26/2/1
f 33/1/1 28/1/1 27/1/1
f 33/2/1 27/2/1 32/2/1
f 34/2/1 29/2/1 28/2/1
f 34/1/1 28/1/1 33/1/1
f 35/1/1 31/1/1 30/1/1
f 36/1/1 31/1/1 35/1/1
f 37/1/1 33/1/1 32/1/1
f 38/1/1 33/1/1 37/1/1
f 39/2/1 29/2/1 34/2/1
f 40/2/1 29/2/1 39/2/1
f 44/2/1 42/2/1 41/2/1
f 45/2/1 42/2/1 44/2/1
f 47/1/1 44/1/1 43/1/1
f 48/1/1 44/1/1 47/1/1
f 49/1/1 46/1/1 45/1/1
f 50/1/1 46/1/1 49/1/1
f 51/1/1 49/1/1 48/1/1
f 52/1/1 49/1/1 51/1/1
f 55/1/1 54/1/1 53/1/1
f 56/1/1 54/1/1 55/1/1
f 59/1/1 58/1/1 57/1/1
f 60/1/1 58/1/1 59/1/1
f 61/1/2 62/1/2 63/1/2
f 63/1/2 62/1/2 64/1/2
f 65/1/2 66/1/2 67/1/2
f 67/1/2 66/1/2 68/1/2
f 69/2/2 70/2/2 71/2/2
f 71/2/2 70/2/2 72/2/2
f 73/2/2 74/2/2 75/2/2
f 73/2/2 75/2/2 80/2/2
f 75/1/2 76/1/2 81/1/2
f 80/2/2 75/2/2 81/2/2
f 76/2/2 77/2/2 82/2/2
f 81/1/2 76/1/2 82/1/2
f 82/2/2 77/2/2 83/2/2
f 78/2/2 79/2/2 84/2/2
f 79/1/2 80/1/2 85/1/2
f 84/2/2 79/2/2 85/2/2
f 80/2/2 81/2/2 86/2/2
f 85/1/2 80/1/2 86/1/2
f 82/1/2 83/1/2 87/1/2
f 87/1/2 83/1/2 88/1/2
f 84/1/2 85/1/2 89/1/2
f 89/1/2 85/1/2 90/1/2
f 86/2/2 81/2/2 91/2/2
f 91/2/2 81/2/2 92/2/2
f 93/2/2 94/2/2 96/2/2
f 96/2/2 94/2/2 97/2/2
f 95/1/2 96/1/2 99/1/2
f 99/1/2 96/1/2 100/1/2
f 97/1/2 98/1/2 101/1/2
f 101/1/2 98/1/2 102/1/2
f 100/1/2 101/1/2 103/1/2
f 103/1/2 101/1/2 104/1/2
f 105/1/2 106/1/2 107/1/2
f 107/1/2 106/1/2 108/1/2
f 109/2/2 110/2/2 111/2/2
f 111/2/2 110/2/2 112/2/2
f 111/1/2 112/1/2 113/1/2
f 113/1/2 112/1/2 114/1/2
f 115/2/2 116/2/2 117/2/2
f 117/2/2 116/2/2 118/2/2
f 117/1/2 118/1/2 119/1/2
f 119/1/2 118/1/2 120/1/2
f 124/2/3 122/2/3 121/2/3
f 125/1/3 123/1/3 122/1/3
f 125/2/3 122/2/3 124/2/3
f 126/1/3 123/1/3 125/1/3
f 129/1/3 128/1/3 127/1/3
f 130/1/3 128/1/3 129/1/3
f 137/2/3 132/2/3 131/2/3
f 138/1/3 133/1/3 132/1/3
f 138/2/3 132/2/3 137/2/3
f 139/1/3 133/1/3 138/1/3
f 140/2/3 135/2/3 134/2/3
f 141/1/3 136/1/3 135/1/3
f 141/2/3 135/2/3 140/2/3
f 142/1/3 136/1/3 141/1/3
f 146/1/3 138/1/3 137/1/3
f 147/1/3 138/1/3 146/1/3
f 150/1/3 141/1/3 140/1/3
f 151/1/3 141/1/3 150/1/3
f 152/1/3 144/1/3 143/1/3
f 153/1/3 144/1/3 152/1/3
f 155/2/3 148/2/3 147/2/3
f 155/2/3 146/2/3 145/2/3
f 155/2/3 147/2/3 146/2/3
f 156/2/3 148/2/3 155/2/3
f 157/2/3 148/2/3 156/2/3
f 158/2/3 148/2/3 157/2/3
f 159/2/3 151/2/3 150/2/3
f 159/2/3 152/2/3 151/2/3
f 159/2/3 150/2/3 149/2/3
f 160/2/3 152/2/3 159/2/3
f 161/2/3 152/2/3 160/2/3
f 162/2/3 152/2/3 161/2/3
f 163/1/3 154/1/3 153/1/3
f 164/1/3 154/1/3 163/1/3
f 165/1/3 157/1/3 156/1/3
f 166/1/3 157/1/3 165/1/3
f 168/1/3 161/1/3 160/1/3
f 169/1/3 161/1/3 168/1/3
f 171/1/3 163/1/3 162/1/3
f 172/1/3 163/1/3 171/1/3
f 173/2/3 166/2/3 165/2/3
f 174/1/3 167/1/3 166/1/3
f 174/2/3 166/2/3 173/2/3
f 175/1/3 167/1/3 174/1/3
f 176/2/3 169/2/3 168/2/3
f 177/1/3 170/1/3 169/1/3
f 177/2/3 169/2/3 176/2/3
f 178/1/3 170/1/3 177/1/3
f 181/1/3 180/1/3 179/1/3
f 182/1/3 180/1/3 181/1/3
f 183/1/4 184/1/4 185/1/4
f 185/1/4 184/1/4 186/1/4
f 187/2/4 188/2/4 193/2/4
f 188/1/4 189/1/4 194/1/4
f 193/2/4 188/2/4 194/2/4
f 194/1/4 189/1/4 195/1/4
f 190/2/4 191/2/4 196/2/4
f 191/1/4 192/1/4 197/1/4
f 196/2/4 191/2/4 197/2/4
f 197/1/4 192/1/4 198/1/4
f 193/1/4 194/1/4 202/1/4
f 202/1/4 194/1/4 203/1/4
f 196/1/4 197/1/4 206/1/4
f 206/1/4 197/1/4 207/1/4
f 199/1/4 200/1/4 208/1/4
f 208/1/4 200/1/4 209/1/4
f 203/2/4 204/2/4 211/2/4
f 201/2/4 202/2/4 211/2/4
f 202/2/4 203/2/4 211/2/4
f 211/2/4 204/2/4 212/2/4
f 212/2/4 204/2/4 213/2/4
f 213/2/4 204/2/4 214/2/4
f 206/2/4 207/2/4 215/2/4
f 207/2/4 208/2/4 215/2/4
f 205/2/4 206/2/4 215/2/4
f 215/2/4 208/2/4 216/2/4
f 216/2/4 208/2/4 217/2/4
f 217/2/4 208/2/4 218/2/4
f 209/1/4 210/1/4 219/1/4
f 219/1/4 210/1/4 220/1/4
f 212/1/4 213/1/4 221/1/4
f 221/1/4 213/1/4 222/1/4
f 216/1/4 217/1/4 224/1/4
f 224/1/4 217/1/4 225/1/4
f 218/1/4 219/1/4 227/1/4
f 227/1/4 219/1/4 228/1/4
f 221/2/4 222/2/4 229/2/4
f 222/1/4 223/1/4 230/1/4
f 229/2/4 222/2/4 230/2/4
f 230/1/4 223/1/4 231/1/4
f 224/2/4 225/2/4 232/2/4
f 225/1/4 226/1/4 233/1/4
f 232/2/4 225/2/4 233/2/4
f 233/1/4 226/1/4 234/1/4
f 235/1/4 236/1/4 237/1/4
f 237/1/4 236/1/4 238/1/4
f 239/2/4 240/2/4 242/2/4
f 240/1/4 241/1/4 243/1/4
f 242/2/4 240/2/4 243/2/4
f 243/1/4 241/1/4 244/1/4
f 247/2/5 246/2/5 245/2/5
f 248/2/5 246/2/5 247/2/5
f 252/2/5 250/2/5 249/2/5
f 253/1/5 251/1/5 250/1/5
f 253/2/5 250/2/5 252/2/5
f 254/1/5 251/1/5 253/1/5
f 258/1/5 256/1/5 255/1/5
f 259/2/5 257/2/5 256/2/5
f 259/1/5 256/1/5 258/1/5
f 260/2/5 257/2/5 259/2/5
f 263/1/5 262/1/5 261/1/5
f 264/1/5 262/1/5 263/1/5
f 265/2/5 264/2/5 263/2/5
f 266/2/5 264/2/5 265/2/5
f 269/2/5 268/2/5 267/2/5
f 270/2/5 268/2/5 269/2/5
f 271/1/5 270/1/5 269/1/5
f 272/1/5 270/1/5 271/1/5
f 276/2/5 274/2/5 273/2/5
f 277/1/5 275/1/5 274/1/5
f 277/2/5 274/2/5 276/2/5
f 278/1/5 275/1/5 277/1/5
f 282/1/5 280/1/5 279/1/5
f 283/2/5 281/2/5 280/2/5
f 283/1/5 280/1/5 282/1/5
f 284/2/5 281/2/5 283/2/5
f 288/1/5 286/1/5 285/1/5
f 289/1/5 286/1/5 288/1/5
f 291/1/5 288/1/5 287/1/5
f 292/1/5 288/1/5 291/1/5
f 293/1/5 290/1/5 289/1/5
f 294/1/5 290/1/5 293/1/5
f 295/1/5 293/1/5 292/1/5
f 296/1/5 293/1/5 295/1/5
f 297/1/6 298/1/6 299/1/6
f 299/1/6 298/1/6 300/1/6
f 301/1/6 302/1/6 305/1/6
f 305/1/6 302/1/6 306/1/6
f 303/1/6 304/1/6 307/1/6
f 307/1/6 304/1/6 308/1/6
f 309/1/6 310/1/6 311/1/6
f 311/1/6 310/1/6 312/1/6
f 313/1/6 314/1/6 315/1/6
f 315/1/6 314/1/6 316/1/6
f 317/1/6 318/1/6 319/1/6
f 319/1/6 318/1/6 320/1/6
f 321/1/6 322/1/6 323/1/6
f 323/1/6 322/1/6 324/1/6
f 325/1/6 326/1/6 327/1/6
f 327/1/6 326/1/6 328/1/6
f 329/1/6 330/1/6 331/1/6
f 331/1/6 330/1/6 332/1/6
f 333/1/6 334/1/6 337/1/6
f 337/1/6 334/1/6 338/1/6
f 335/1/6 336/1/6 339/1/6
f 339/1/6 336/1/6 340/1/6
f 341/1/6 342/1/6 343/1/6
f 343/1/6 342/1/6 344/1/6
f 345/1/6 346/1/6 348/1/6
f 348/1/6 346/1/6 349/1/6
f 347/1/6 348/1/6 351/1/6
f 351/1/6 348/1/6 352/1/6
f 349/1/6 350/1/6 353/1/6
f 353/1/6 350/1/6 354/1/6
f 352/1/6 353/1/6 355/1/6
f 355/1/6 353/1/6 356/1/6
f 357/1/6 358/1/6 359/1/6
f 359/1/6 358/1/6 360/1/6
