# MagicaVoxel @ Ephtracy

# group
o tomato_growth4

# material
mtllib farm-55-tomato_growth4.mtl
usemtl palette

# normals
vn -1 0 0
vn 1 0 0
vn 0 0 1
vn 0 0 -1
vn 0 -1 0
vn 0 1 0

# texcoords
vt 0.146484 0.5
vt 0.310547 0.5
vt 0.556641 0.5

# verts
v 1.5 0 1.7
v 1.5 0 1.6
v 1.5 0.1 1.7
v 1.5 0.1 1.6
v 1.5 0.3 1.7
v 1.5 0.3 1.6
v 1.5 0.3 1.5
v 1.5 0.4 1.8
v 1.5 0.4 1.7
v 1.5 0.4 1.6
v 1.5 0.4 1.5
v 1.5 0.5 1.8
v 1.5 0.5 1.6
v 1.6 0 1.6
v 1.6 0 1.5
v 1.6 0.1 1.8
v 1.6 0.1 1.7
v 1.6 0.1 1.6
v 1.6 0.1 1.5
v 1.6 0.2 1.8
v 1.6 0.2 1.7
v 1.6 0.2 1.6
v 1.6 0.2 1.5
v 1.6 0.3 1.7
v 1.6 0.3 1.6
v 1.6 0.3 1.5
v 1.6 0.5 1.8
v 1.6 0.5 1.7
v 1.6 0.5 1.6
v 1.6 0.5 1.5
v 1.6 0.6 1.8
v 1.6 0.6 1.7
v 1.6 0.6 1.6
v 1.6 0.6 1.5
v 1.6 0.7 1.6
v 1.6 0.7 1.5
v 1.6 0.8 1.7
v 1.6 0.8 1.6
v 1.6 0.4 1.8
v 1.6 0.4 1.7
v 1.6 0.5 1.8
v 1.6 0.5 1.7
v 1.7 0 1.7
v 1.7 0 1.6
v 1.7 0 1.5
v 1.7 0.1 1.7
v 1.7 0.1 1.6
v 1.7 0.1 1.5
v 1.7 0.3 1.7
v 1.7 0.3 1.6
v 1.7 0.3 1.5
v 1.7 0.4 1.7
v 1.7 0.4 1.6
v 1.7 0.4 1.5
v 1.7 0.5 1.8
v 1.7 0.5 1.7
v 1.7 0.6 1.8
v 1.7 0.6 1.7
v 1.7 0.6 1.6
v 1.7 0.6 1.5
v 1.7 0.7 1.6
v 1.7 0.7 1.5
v 1.7 0.8 1.7
v 1.7 0.8 1.6
v 1.8 0.1 1.8
v 1.8 0.1 1.7
v 1.8 0.1 1.6
v 1.8 0.2 1.8
v 1.8 0.2 1.7
v 1.8 0.2 1.6
v 1.8 0.2 1.5
v 1.8 0.3 1.7
v 1.8 0.3 1.5
v 1.8 0.4 1.7
v 1.8 0.4 1.6
v 1.8 0.5 1.7
v 1.8 0.5 1.6
v 1.8 0.5 1.5
v 1.8 0.6 1.7
v 1.8 0.6 1.5
v 1.5 0.4 1.8
v 1.5 0.5 1.8
v 1.6 0.1 1.8
v 1.6 0.2 1.8
v 1.6 0.4 1.8
v 1.6 0.5 1.8
v 1.6 0.6 1.8
v 1.7 0.5 1.8
v 1.7 0.6 1.8
v 1.8 0.1 1.8
v 1.8 0.2 1.8
v 1.5 0 1.7
v 1.5 0.1 1.7
v 1.5 0.3 1.7
v 1.5 0.4 1.7
v 1.6 0 1.7
v 1.6 0.1 1.7
v 1.6 0.2 1.7
v 1.6 0.3 1.7
v 1.6 0.4 1.7
v 1.6 0.5 1.7
v 1.6 0.6 1.7
v 1.6 0.8 1.7
v 1.7 0 1.7
v 1.7 0.1 1.7
v 1.7 0.2 1.7
v 1.7 0.3 1.7
v 1.7 0.4 1.7
v 1.7 0.5 1.7
v 1.7 0.6 1.7
v 1.7 0.8 1.7
v 1.8 0.2 1.7
v 1.8 0.3 1.7
v 1.8 0.4 1.7
v 1.8 0.5 1.7
v 1.8 0.6 1.7
v 1.5 0 1.6
v 1.5 0.1 1.6
v 1.5 0.4 1.6
v 1.5 0.5 1.6
v 1.6 0 1.6
v 1.6 0.1 1.6
v 1.6 0.2 1.6
v 1.6 0.4 1.6
v 1.6 0.5 1.6
v 1.6 0.7 1.6
v 1.6 0.8 1.6
v 1.7 0.1 1.6
v 1.7 0.2 1.6
v 1.7 0.4 1.6
v 1.7 0.5 1.6
v 1.7 0.7 1.6
v 1.7 0.8 1.6
v 1.8 0.1 1.6
v 1.8 0.2 1.6
v 1.8 0.4 1.6
v 1.8 0.5 1.6
v 1.5 0.3 1.5
v 1.5 0.4 1.5
v 1.6 0 1.5
v 1.6 0.1 1.5
v 1.6 0.2 1.5
v 1.6 0.3 1.5
v 1.6 0.5 1.5
v 1.6 0.6 1.5
v 1.6 0.7 1.5
v 1.7 0 1.5
v 1.7 0.1 1.5
v 1.7 0.2 1.5
v 1.7 0.3 1.5
v 1.7 0.4 1.5
v 1.7 0.5 1.5
v 1.7 0.6 1.5
v 1.7 0.7 1.5
v 1.8 0.2 1.5
v 1.8 0.3 1.5
v 1.8 0.5 1.5
v 1.8 0.6 1.5
v 1.5 0 1.7
v 1.6 0 1.7
v 1.7 0 1.7
v 1.5 0 1.6
v 1.6 0 1.6
v 1.7 0 1.6
v 1.6 0 1.5
v 1.7 0 1.5
v 1.6 0.1 1.8
v 1.8 0.1 1.8
v 1.6 0.1 1.7
v 1.7 0.1 1.7
v 1.8 0.1 1.7
v 1.7 0.1 1.6
v 1.8 0.1 1.6
v 1.6 0.2 1.6
v 1.7 0.2 1.6
v 1.8 0.2 1.6
v 1.6 0.2 1.5
v 1.7 0.2 1.5
v 1.8 0.2 1.5
v 1.5 0.3 1.7
v 1.6 0.3 1.7
v 1.5 0.3 1.6
v 1.6 0.3 1.6
v 1.5 0.3 1.5
v 1.6 0.3 1.5
v 1.5 0.4 1.8
v 1.6 0.4 1.8
v 1.5 0.4 1.7
v 1.6 0.4 1.7
v 1.7 0.4 1.7
v 1.8 0.4 1.7
v 1.7 0.4 1.6
v 1.8 0.4 1.6
v 1.6 0.5 1.8
v 1.7 0.5 1.8
v 1.6 0.5 1.7
v 1.7 0.5 1.7
v 1.6 0.5 1.6
v 1.7 0.5 1.6
v 1.8 0.5 1.6
v 1.6 0.5 1.5
v 1.7 0.5 1.5
v 1.8 0.5 1.5
v 1.5 0.1 1.7
v 1.6 0.1 1.7
v 1.5 0.1 1.6
v 1.6 0.1 1.6
v 1.7 0.1 1.6
v 1.6 0.1 1.5
v 1.7 0.1 1.5
v 1.6 0.2 1.8
v 1.8 0.2 1.8
v 1.6 0.2 1.7
v 1.7 0.2 1.7
v 1.8 0.2 1.7
v 1.7 0.3 1.7
v 1.8 0.3 1.7
v 1.7 0.3 1.6
v 1.7 0.3 1.5
v 1.8 0.3 1.5
v 1.5 0.4 1.6
v 1.6 0.4 1.6
v 1.7 0.4 1.6
v 1.5 0.4 1.5
v 1.7 0.4 1.5
v 1.5 0.5 1.8
v 1.6 0.5 1.8
v 1.6 0.5 1.7
v 1.5 0.5 1.6
v 1.6 0.5 1.6
v 1.6 0.6 1.8
v 1.7 0.6 1.8
v 1.6 0.6 1.7
v 1.7 0.6 1.7
v 1.8 0.6 1.7
v 1.7 0.6 1.6
v 1.7 0.6 1.5
v 1.8 0.6 1.5
v 1.6 0.7 1.6
v 1.7 0.7 1.6
v 1.6 0.7 1.5
v 1.7 0.7 1.5
v 1.6 0.8 1.7
v 1.7 0.8 1.7
v 1.6 0.8 1.6
v 1.7 0.8 1.6

# faces
f 3/3/1 2/3/1 1/3/1
f 4/3/1 2/3/1 3/3/1
f 9/1/1 6/1/1 5/1/1
f 10/3/1 7/3/1 6/3/1
f 10/1/1 6/1/1 9/1/1
f 11/3/1 7/3/1 10/3/1
f 12/3/1 9/3/1 8/3/1
f 12/3/1 10/3/1 9/3/1
f 13/3/1 10/3/1 12/3/1
f 18/3/1 15/3/1 14/3/1
f 19/3/1 15/3/1 18/3/1
f 20/3/1 17/3/1 16/3/1
f 21/2/1 18/2/1 17/2/1
f 21/3/1 17/3/1 20/3/1
f 22/2/1 18/2/1 21/2/1
f 24/2/1 22/2/1 21/2/1
f 25/1/1 23/1/1 22/1/1
f 25/2/1 22/2/1 24/2/1
f 26/1/1 23/1/1 25/1/1
f 31/3/1 28/3/1 27/3/1
f 32/2/1 29/2/1 28/2/1
f 32/3/1 28/3/1 31/3/1
f 33/1/1 30/1/1 29/1/1
f 33/2/1 29/2/1 32/2/1
f 34/1/1 30/1/1 33/1/1
f 35/2/1 33/2/1 32/2/1
f 35/3/1 34/3/1 33/3/1
f 36/3/1 34/3/1 35/3/1
f 37/2/1 35/2/1 32/2/1
f 38/2/1 35/2/1 37/2/1
f 39/3/2 40/3/2 41/3/2
f 41/3/2 40/3/2 42/3/2
f 43/2/2 44/2/2 46/2/2
f 44/3/2 45/3/2 47/3/2
f 46/2/2 44/2/2 47/2/2
f 47/3/2 45/3/2 48/3/2
f 49/2/2 50/2/2 52/2/2
f 50/3/2 51/3/2 53/3/2
f 52/2/2 50/2/2 53/2/2
f 53/3/2 51/3/2 54/3/2
f 55/3/2 56/3/2 57/3/2
f 57/3/2 56/3/2 58/3/2
f 59/3/2 60/3/2 61/3/2
f 58/2/2 59/2/2 61/2/2
f 61/3/2 60/3/2 62/3/2
f 58/2/2 61/2/2 63/2/2
f 63/2/2 61/2/2 64/2/2
f 65/3/2 66/3/2 68/3/2
f 66/1/2 67/1/2 69/1/2
f 68/3/2 66/3/2 69/3/2
f 69/1/2 67/1/2 70/1/2
f 70/3/2 71/3/2 72/3/2
f 69/3/2 70/3/2 72/3/2
f 72/3/2 71/3/2 73/3/2
f 74/1/2 75/1/2 76/1/2
f 76/1/2 75/1/2 77/1/2
f 76/3/2 77/3/2 79/3/2
f 77/3/2 78/3/2 79/3/2
f 79/3/2 78/3/2 80/3/2
f 85/3/3 82/3/3 81/3/3
f 86/3/3 82/3/3 85/3/3
f 88/3/3 87/3/3 86/3/3
f 89/3/3 87/3/3 88/3/3
f 90/3/3 84/3/3 83/3/3
f 91/3/3 84/3/3 90/3/3
f 96/3/3 93/3/3 92/3/3
f 97/3/3 93/3/3 96/3/3
f 99/1/3 95/1/3 94/1/3
f 100/1/3 95/1/3 99/1/3
f 104/2/3 97/2/3 96/2/3
f 105/2/3 97/2/3 104/2/3
f 106/2/3 99/2/3 98/2/3
f 106/2/3 100/2/3 99/2/3
f 106/2/3 101/2/3 100/2/3
f 107/2/3 101/2/3 106/2/3
f 108/2/3 101/2/3 107/2/3
f 109/2/3 101/2/3 108/2/3
f 110/2/3 103/2/3 102/2/3
f 111/2/3 103/2/3 110/2/3
f 112/3/3 107/3/3 106/3/3
f 113/3/3 107/3/3 112/3/3
f 114/1/3 109/1/3 108/1/3
f 115/3/3 110/3/3 109/3/3
f 115/1/3 109/1/3 114/1/3
f 116/3/3 110/3/3 115/3/3
f 117/3/4 118/3/4 121/3/4
f 121/3/4 118/3/4 122/3/4
f 119/3/4 120/3/4 124/3/4
f 124/3/4 120/3/4 125/3/4
f 122/2/4 123/2/4 128/2/4
f 128/2/4 123/2/4 129/2/4
f 124/2/4 125/2/4 130/2/4
f 130/2/4 125/2/4 131/2/4
f 126/2/4 127/2/4 132/2/4
f 132/2/4 127/2/4 133/2/4
f 128/1/4 129/1/4 134/1/4
f 134/1/4 129/1/4 135/1/4
f 130/1/4 131/1/4 136/1/4
f 136/1/4 131/1/4 137/1/4
f 138/3/4 139/3/4 143/3/4
f 140/3/4 141/3/4 147/3/4
f 147/3/4 141/3/4 148/3/4
f 142/1/4 143/1/4 149/1/4
f 143/3/4 139/3/4 150/3/4
f 149/1/4 143/1/4 150/1/4
f 150/3/4 139/3/4 151/3/4
f 144/1/4 145/1/4 152/1/4
f 145/3/4 146/3/4 153/3/4
f 152/1/4 145/1/4 153/1/4
f 153/3/4 146/3/4 154/3/4
f 149/3/4 150/3/4 155/3/4
f 155/3/4 150/3/4 156/3/4
f 152/3/4 153/3/4 157/3/4
f 157/3/4 153/3/4 158/3/4
f 162/3/5 160/3/5 159/3/5
f 163/2/5 161/2/5 160/2/5
f 163/3/5 160/3/5 162/3/5
f 164/2/5 161/2/5 163/2/5
f 165/3/5 164/3/5 163/3/5
f 166/3/5 164/3/5 165/3/5
f 169/3/5 168/3/5 167/3/5
f 170/3/5 168/3/5 169/3/5
f 171/3/5 168/3/5 170/3/5
f 172/1/5 171/1/5 170/1/5
f 173/1/5 171/1/5 172/1/5
f 177/1/5 175/1/5 174/1/5
f 178/3/5 176/3/5 175/3/5
f 178/1/5 175/1/5 177/1/5
f 179/3/5 176/3/5 178/3/5
f 182/1/5 181/1/5 180/1/5
f 183/1/5 181/1/5 182/1/5
f 184/3/5 183/3/5 182/3/5
f 185/3/5 183/3/5 184/3/5
f 188/3/5 187/3/5 186/3/5
f 189/3/5 187/3/5 188/3/5
f 192/1/5 191/1/5 190/1/5
f 193/1/5 191/1/5 192/1/5
f 196/3/5 195/3/5 194/3/5
f 197/3/5 195/3/5 196/3/5
f 201/1/5 199/1/5 198/1/5
f 202/3/5 200/3/5 199/3/5
f 202/1/5 199/1/5 201/1/5
f 203/3/5 200/3/5 202/3/5
f 204/3/6 205/3/6 206/3/6
f 206/3/6 205/3/6 207/3/6
f 207/3/6 208/3/6 209/3/6
f 209/3/6 208/3/6 210/3/6
f 211/3/6 212/3/6 213/3/6
f 213/3/6 212/3/6 214/3/6
f 214/3/6 212/3/6 215/3/6
f 216/3/6 217/3/6 218/3/6
f 218/3/6 217/3/6 219/3/6
f 219/3/6 217/3/6 220/3/6
f 221/3/6 222/3/6 224/3/6
f 222/3/6 223/3/6 224/3/6
f 224/3/6 223/3/6 225/3/6
f 226/3/6 227/3/6 228/3/6
f 226/3/6 228/3/6 229/3/6
f 229/3/6 228/3/6 230/3/6
f 231/3/6 232/3/6 233/3/6
f 233/3/6 232/3/6 234/3/6
f 234/3/6 235/3/6 236/3/6
f 236/3/6 235/3/6 237/3/6
f 237/3/6 235/3/6 238/3/6
f 239/3/6 240/3/6 241/3/6
f 241/3/6 240/3/6 242/3/6
f 243/2/6 244/2/6 245/2/6
f 245/2/6 244/2/6 246/2/6
