# MagicaVoxel @ Ephtracy

# group
o fence_gate

# material
mtllib farm-12-fence_gate.mtl
usemtl palette

# normals
vn -1 0 0
vn 1 0 0
vn 0 0 1
vn 0 0 -1
vn 0 -1 0
vn 0 1 0

# texcoords
vt 0.345703 0.5
vt 0.349609 0.5

# verts
v 1.3 0.1 -0.8
v 1.3 0.1 -0.9
v 1.3 0.2 -0.8
v 1.3 0.2 -0.9
v 1.3 0.4 -0.7
v 1.3 0.4 -0.8
v 1.3 0.4 -0.9
v 1.3 0.4 -1
v 1.3 0.5 -0.7
v 1.3 0.5 -0.8
v 1.3 0.5 -0.9
v 1.3 0.5 -1
v 1.4 0.3 -0.8
v 1.4 0.3 -0.9
v 1.4 0.4 -0.8
v 1.4 0.4 -0.9
v 1.5 0.2 -0.8
v 1.5 0.2 -0.9
v 1.5 0.3 -0.8
v 1.5 0.3 -0.9
v 1.7 0.3 -0.8
v 1.7 0.3 -0.9
v 1.7 0.4 -0.8
v 1.7 0.4 -0.9
v 1.4 0.4 -0.7
v 1.4 0.4 -0.8
v 1.4 0.4 -0.9
v 1.4 0.4 -1
v 1.4 0.5 -0.7
v 1.4 0.5 -0.8
v 1.4 0.5 -0.9
v 1.4 0.5 -1
v 1.5 0.3 -0.8
v 1.5 0.3 -0.9
v 1.5 0.4 -0.8
v 1.5 0.4 -0.9
v 1.7 0.2 -0.8
v 1.7 0.2 -0.9
v 1.7 0.3 -0.8
v 1.7 0.3 -0.9
v 1.8 0.3 -0.8
v 1.8 0.3 -0.9
v 1.8 0.4 -0.8
v 1.8 0.4 -0.9
v 1.9 0.1 -0.8
v 1.9 0.1 -0.9
v 1.9 0.2 -0.8
v 1.9 0.2 -0.9
v 1.9 0.4 -0.8
v 1.9 0.4 -0.9
v 1.9 0.5 -0.8
v 1.9 0.5 -0.9
v 1.3 0.4 -0.7
v 1.3 0.5 -0.7
v 1.4 0.4 -0.7
v 1.4 0.5 -0.7
v 1.3 0.1 -0.8
v 1.3 0.2 -0.8
v 1.4 0.1 -0.8
v 1.4 0.2 -0.8
v 1.4 0.3 -0.8
v 1.4 0.4 -0.8
v 1.4 0.5 -0.8
v 1.5 0.1 -0.8
v 1.5 0.2 -0.8
v 1.5 0.3 -0.8
v 1.5 0.4 -0.8
v 1.7 0.2 -0.8
v 1.7 0.3 -0.8
v 1.7 0.4 -0.8
v 1.7 0.5 -0.8
v 1.8 0.3 -0.8
v 1.8 0.4 -0.8
v 1.8 0.5 -0.8
v 1.9 0.1 -0.8
v 1.9 0.2 -0.8
v 1.9 0.4 -0.8
v 1.9 0.5 -0.8
v 1.3 0.1 -0.9
v 1.3 0.2 -0.9
v 1.4 0.1 -0.9
v 1.4 0.2 -0.9
v 1.4 0.3 -0.9
v 1.4 0.4 -0.9
v 1.4 0.5 -0.9
v 1.5 0.1 -0.9
v 1.5 0.2 -0.9
v 1.5 0.3 -0.9
v 1.5 0.4 -0.9
v 1.7 0.2 -0.9
v 1.7 0.3 -0.9
v 1.7 0.4 -0.9
v 1.7 0.5 -0.9
v 1.8 0.3 -0.9
v 1.8 0.4 -0.9
v 1.8 0.5 -0.9
v 1.9 0.1 -0.9
v 1.9 0.2 -0.9
v 1.9 0.4 -0.9
v 1.9 0.5 -0.9
v 1.3 0.4 -1
v 1.3 0.5 -1
v 1.4 0.4 -1
v 1.4 0.5 -1
v 1.3 0.1 -0.8
v 1.4 0.1 -0.8
v 1.5 0.1 -0.8
v 1.9 0.1 -0.8
v 1.3 0.1 -0.9
v 1.4 0.1 -0.9
v 1.5 0.1 -0.9
v 1.9 0.1 -0.9
v 1.4 0.3 -0.8
v 1.5 0.3 -0.8
v 1.7 0.3 -0.8
v 1.8 0.3 -0.8
v 1.4 0.3 -0.9
v 1.5 0.3 -0.9
v 1.7 0.3 -0.9
v 1.8 0.3 -0.9
v 1.3 0.4 -0.7
v 1.4 0.4 -0.7
v 1.3 0.4 -0.8
v 1.4 0.4 -0.8
v 1.5 0.4 -0.8
v 1.7 0.4 -0.8
v 1.8 0.4 -0.8
v 1.9 0.4 -0.8
v 1.3 0.4 -0.9
v 1.4 0.4 -0.9
v 1.5 0.4 -0.9
v 1.7 0.4 -0.9
v 1.8 0.4 -0.9
v 1.9 0.4 -0.9
v 1.3 0.4 -1
v 1.4 0.4 -1
v 1.3 0.2 -0.8
v 1.4 0.2 -0.8
v 1.5 0.2 -0.8
v 1.7 0.2 -0.8
v 1.9 0.2 -0.8
v 1.3 0.2 -0.9
v 1.4 0.2 -0.9
v 1.5 0.2 -0.9
v 1.7 0.2 -0.9
v 1.9 0.2 -0.9
v 1.5 0.3 -0.8
v 1.7 0.3 -0.8
v 1.5 0.3 -0.9
v 1.7 0.3 -0.9
v 1.3 0.5 -0.7
v 1.4 0.5 -0.7
v 1.3 0.5 -0.8
v 1.4 0.5 -0.8
v 1.7 0.5 -0.8
v 1.8 0.5 -0.8
v 1.9 0.5 -0.8
v 1.3 0.5 -0.9
v 1.4 0.5 -0.9
v 1.7 0.5 -0.9
v 1.8 0.5 -0.9
v 1.9 0.5 -0.9
v 1.3 0.5 -1
v 1.4 0.5 -1

# faces
f 3/1/1 2/1/1 1/1/1
f 4/1/1 2/1/1 3/1/1
f 9/2/1 6/2/1 5/2/1
f 10/1/1 7/1/1 6/1/1
f 10/2/1 6/2/1 9/2/1
f 11/2/1 8/2/1 7/2/1
f 11/1/1 7/1/1 10/1/1
f 12/2/1 8/2/1 11/2/1
f 15/2/1 14/2/1 13/2/1
f 16/2/1 14/2/1 15/2/1
f 19/2/1 18/2/1 17/2/1
f 20/2/1 18/2/1 19/2/1
f 23/2/1 22/2/1 21/2/1
f 24/2/1 22/2/1 23/2/1
f 25/2/2 26/2/2 29/2/2
f 29/2/2 26/2/2 30/2/2
f 27/2/2 28/2/2 31/2/2
f 31/2/2 28/2/2 32/2/2
f 33/2/2 34/2/2 35/2/2
f 35/2/2 34/2/2 36/2/2
f 37/2/2 38/2/2 39/2/2
f 39/2/2 38/2/2 40/2/2
f 41/2/2 42/2/2 43/2/2
f 43/2/2 42/2/2 44/2/2
f 45/1/2 46/1/2 47/1/2
f 47/1/2 46/1/2 48/1/2
f 49/1/2 50/1/2 51/1/2
f 51/1/2 50/1/2 52/1/2
f 55/2/3 54/2/3 53/2/3
f 56/2/3 54/2/3 55/2/3
f 59/1/3 58/1/3 57/1/3
f 60/1/3 58/1/3 59/1/3
f 64/2/3 60/2/3 59/2/3
f 65/2/3 60/2/3 64/2/3
f 66/2/3 62/2/3 61/2/3
f 67/1/3 63/1/3 62/1/3
f 67/2/3 62/2/3 66/2/3
f 68/2/3 66/2/3 65/2/3
f 68/1/3 65/1/3 64/1/3
f 69/2/3 66/2/3 68/2/3
f 70/1/3 63/1/3 67/1/3
f 71/1/3 63/1/3 70/1/3
f 72/2/3 70/2/3 69/2/3
f 72/2/3 71/2/3 70/2/3
f 73/2/3 71/2/3 72/2/3
f 74/2/3 71/2/3 73/2/3
f 75/1/3 68/1/3 64/1/3
f 76/1/3 68/1/3 75/1/3
f 77/1/3 74/1/3 73/1/3
f 78/1/3 74/1/3 77/1/3
f 79/1/4 80/1/4 81/1/4
f 81/1/4 80/1/4 82/1/4
f 81/2/4 82/2/4 86/2/4
f 86/2/4 82/2/4 87/2/4
f 83/2/4 84/2/4 88/2/4
f 84/1/4 85/1/4 89/1/4
f 88/2/4 84/2/4 89/2/4
f 87/2/4 88/2/4 90/2/4
f 86/1/4 87/1/4 90/1/4
f 90/2/4 88/2/4 91/2/4
f 89/1/4 85/1/4 92/1/4
f 92/1/4 85/1/4 93/1/4
f 91/2/4 92/2/4 94/2/4
f 92/2/4 93/2/4 94/2/4
f 94/2/4 93/2/4 95/2/4
f 95/2/4 93/2/4 96/2/4
f 86/1/4 90/1/4 97/1/4
f 97/1/4 90/1/4 98/1/4
f 95/1/4 96/1/4 99/1/4
f 99/1/4 96/1/4 100/1/4
f 101/2/4 102/2/4 103/2/4
f 103/2/4 102/2/4 104/2/4
f 109/1/5 106/1/5 105/1/5
f 110/2/5 107/2/5 106/2/5
f 110/1/5 106/1/5 109/1/5
f 111/1/5 108/1/5 107/1/5
f 111/2/5 107/2/5 110/2/5
f 112/1/5 108/1/5 111/1/5
f 117/2/5 114/2/5 113/2/5
f 118/2/5 114/2/5 117/2/5
f 119/2/5 116/2/5 115/2/5
f 120/2/5 116/2/5 119/2/5
f 123/2/5 122/2/5 121/2/5
f 124/2/5 122/2/5 123/2/5
f 129/1/5 124/1/5 123/1/5
f 130/1/5 124/1/5 129/1/5
f 131/1/5 126/1/5 125/1/5
f 132/1/5 126/1/5 131/1/5
f 133/1/5 128/1/5 127/1/5
f 134/1/5 128/1/5 133/1/5
f 135/2/5 130/2/5 129/2/5
f 136/2/5 130/2/5 135/2/5
f 137/1/6 138/1/6 142/1/6
f 138/2/6 139/2/6 143/2/6
f 142/1/6 138/1/6 143/1/6
f 143/2/6 139/2/6 144/2/6
f 140/1/6 141/1/6 145/1/6
f 145/1/6 141/1/6 146/1/6
f 147/2/6 148/2/6 149/2/6
f 149/2/6 148/2/6 150/2/6
f 151/2/6 152/2/6 153/2/6
f 153/2/6 152/2/6 154/2/6
f 153/1/6 154/1/6 158/1/6
f 154/1/6 155/1/6 158/1/6
f 158/1/6 155/1/6 159/1/6
f 155/2/6 156/2/6 160/2/6
f 159/1/6 155/1/6 160/1/6
f 156/1/6 157/1/6 161/1/6
f 160/2/6 156/2/6 161/2/6
f 161/1/6 157/1/6 162/1/6
f 158/2/6 159/2/6 163/2/6
f 163/2/6 159/2/6 164/2/6
