# MagicaVoxel @ Ephtracy

# group
o fence_end

# material
mtllib farm-44-fence_end.mtl
usemtl palette

# normals
vn -1 0 0
vn 1 0 0
vn 0 0 1
vn 0 0 -1
vn 0 -1 0
vn 0 1 0

# texcoords
vt 0.345703 0.5
vt 0.349609 0.5

# verts
v 0.6 0 -0.8
v 0.6 0 -0.9
v 0.6 0.2 -0.8
v 0.6 0.2 -0.9
v 0.6 0.3 -0.8
v 0.6 0.3 -0.9
v 0.6 0.5 -0.8
v 0.6 0.5 -0.9
v 0.6 0.6 -0.8
v 0.6 0.6 -0.9
v 0.7 0 -0.8
v 0.7 0 -0.9
v 0.7 0.1 -0.8
v 0.7 0.1 -0.9
v 0.7 0.2 -0.8
v 0.7 0.2 -0.9
v 0.7 0.3 -0.8
v 0.7 0.3 -0.9
v 0.7 0.4 -0.8
v 0.7 0.4 -0.9
v 0.7 0.5 -0.8
v 0.7 0.5 -0.9
v 0.7 0.6 -0.8
v 0.7 0.6 -0.9
v 1 0.1 -0.8
v 1 0.1 -0.9
v 1 0.2 -0.8
v 1 0.2 -0.9
v 1 0.4 -0.8
v 1 0.4 -0.9
v 1 0.5 -0.8
v 1 0.5 -0.9
v 0.6 0 -0.8
v 0.6 0.2 -0.8
v 0.6 0.3 -0.8
v 0.6 0.5 -0.8
v 0.6 0.6 -0.8
v 0.7 0 -0.8
v 0.7 0.1 -0.8
v 0.7 0.2 -0.8
v 0.7 0.3 -0.8
v 0.7 0.4 -0.8
v 0.7 0.5 -0.8
v 0.7 0.6 -0.8
v 0.8 0.1 -0.8
v 0.8 0.2 -0.8
v 0.9 0.1 -0.8
v 0.9 0.2 -0.8
v 1 0.1 -0.8
v 1 0.2 -0.8
v 1 0.4 -0.8
v 1 0.5 -0.8
v 0.6 0 -0.9
v 0.6 0.2 -0.9
v 0.6 0.3 -0.9
v 0.6 0.5 -0.9
v 0.6 0.6 -0.9
v 0.7 0 -0.9
v 0.7 0.1 -0.9
v 0.7 0.2 -0.9
v 0.7 0.3 -0.9
v 0.7 0.4 -0.9
v 0.7 0.5 -0.9
v 0.7 0.6 -0.9
v 0.8 0.1 -0.9
v 0.8 0.2 -0.9
v 0.9 0.1 -0.9
v 0.9 0.2 -0.9
v 1 0.1 -0.9
v 1 0.2 -0.9
v 1 0.4 -0.9
v 1 0.5 -0.9
v 0.6 0 -0.8
v 0.7 0 -0.8
v 0.6 0 -0.9
v 0.7 0 -0.9
v 0.7 0.1 -0.8
v 0.8 0.1 -0.8
v 0.9 0.1 -0.8
v 1 0.1 -0.8
v 0.7 0.1 -0.9
v 0.8 0.1 -0.9
v 0.9 0.1 -0.9
v 1 0.1 -0.9
v 0.7 0.4 -0.8
v 1 0.4 -0.8
v 0.7 0.4 -0.9
v 1 0.4 -0.9
v 0.7 0.2 -0.8
v 0.8 0.2 -0.8
v 0.9 0.2 -0.8
v 1 0.2 -0.8
v 0.7 0.2 -0.9
v 0.8 0.2 -0.9
v 0.9 0.2 -0.9
v 1 0.2 -0.9
v 0.7 0.5 -0.8
v 1 0.5 -0.8
v 0.7 0.5 -0.9
v 1 0.5 -0.9
v 0.6 0.6 -0.8
v 0.7 0.6 -0.8
v 0.6 0.6 -0.9
v 0.7 0.6 -0.9

# faces
f 3/2/1 2/2/1 1/2/1
f 4/2/1 2/2/1 3/2/1
f 5/1/1 4/1/1 3/1/1
f 6/1/1 4/1/1 5/1/1
f 7/2/1 6/2/1 5/2/1
f 8/2/1 6/2/1 7/2/1
f 9/1/1 8/1/1 7/1/1
f 10/1/1 8/1/1 9/1/1
f 11/2/2 12/2/2 13/2/2
f 13/2/2 12/2/2 14/2/2
f 15/1/2 16/1/2 17/1/2
f 17/1/2 16/1/2 18/1/2
f 17/2/2 18/2/2 19/2/2
f 19/2/2 18/2/2 20/2/2
f 21/1/2 22/1/2 23/1/2
f 23/1/2 22/1/2 24/1/2
f 25/1/2 26/1/2 27/1/2
f 27/1/2 26/1/2 28/1/2
f 29/1/2 30/1/2 31/1/2
f 31/1/2 30/1/2 32/1/2
f 38/2/3 34/2/3 33/2/3
f 39/2/3 34/2/3 38/2/3
f 40/1/3 35/1/3 34/1/3
f 40/2/3 34/2/3 39/2/3
f 41/2/3 36/2/3 35/2/3
f 41/1/3 35/1/3 40/1/3
f 42/2/3 36/2/3 41/2/3
f 43/1/3 37/1/3 36/1/3
f 43/2/3 36/2/3 42/2/3
f 44/1/3 37/1/3 43/1/3
f 45/1/3 40/1/3 39/1/3
f 46/1/3 40/1/3 45/1/3
f 47/2/3 46/2/3 45/2/3
f 48/2/3 46/2/3 47/2/3
f 49/1/3 48/1/3 47/1/3
f 50/1/3 48/1/3 49/1/3
f 51/1/3 43/1/3 42/1/3
f 52/1/3 43/1/3 51/1/3
f 53/2/4 54/2/4 58/2/4
f 58/2/4 54/2/4 59/2/4
f 54/1/4 55/1/4 60/1/4
f 59/2/4 54/2/4 60/2/4
f 55/2/4 56/2/4 61/2/4
f 60/1/4 55/1/4 61/1/4
f 61/2/4 56/2/4 62/2/4
f 56/1/4 57/1/4 63/1/4
f 62/2/4 56/2/4 63/2/4
f 63/1/4 57/1/4 64/1/4
f 59/1/4 60/1/4 65/1/4
f 65/1/4 60/1/4 66/1/4
f 65/2/4 66/2/4 67/2/4
f 67/2/4 66/2/4 68/2/4
f 67/1/4 68/1/4 69/1/4
f 69/1/4 68/1/4 70/1/4
f 62/1/4 63/1/4 71/1/4
f 71/1/4 63/1/4 72/1/4
f 75/2/5 74/2/5 73/2/5
f 76/2/5 74/2/5 75/2/5
f 81/1/5 78/1/5 77/1/5
f 82/2/5 79/2/5 78/2/5
f 82/1/5 78/1/5 81/1/5
f 83/1/5 80/1/5 79/1/5
f 83/2/5 79/2/5 82/2/5
f 84/1/5 80/1/5 83/1/5
f 87/1/5 86/1/5 85/1/5
f 88/1/5 86/1/5 87/1/5
f 89/1/6 90/1/6 93/1/6
f 90/2/6 91/2/6 94/2/6
f 93/1/6 90/1/6 94/1/6
f 91/1/6 92/1/6 95/1/6
f 94/2/6 91/2/6 95/2/6
f 95/1/6 92/1/6 96/1/6
f 97/1/6 98/1/6 99/1/6
f 99/1/6 98/1/6 100/1/6
f 101/1/6 102/1/6 103/1/6
f 103/1/6 102/1/6 104/1/6
