# MagicaVoxel @ Ephtracy

# group
o seed_corn

# material
mtllib farm-6-seed_corn.mtl
usemtl palette

# normals
vn -1 0 0
vn 1 0 0
vn 0 0 1
vn 0 0 -1
vn 0 -1 0
vn 0 1 0

# texcoords
vt 0.412109 0.5
vt 0.419922 0.5
vt 0.435547 0.5
vt 0.443359 0.5
vt 0.466797 0.5
vt 0.478516 0.5
vt 0.482422 0.5
vt 0.552734 0.5
vt 0.556641 0.5
vt 0.560547 0.5
vt 0.994141 0.5

# verts
v -11 0.1 1.2
v -11 0.1 1
v -11 0.1 0.9
v -11 0.1 0.8
v -11 0.1 0.7
v -11 0.1 0.6
v -11 0.1 0.4
v -11 0.1 0.2
v -11 0.2 1.1
v -11 0.2 1
v -11 0.2 0.9
v -11 0.2 0.8
v -11 0.2 0.7
v -11 0.2 0.6
v -11 0.2 0.5
v -11 0.2 0.4
v -11 0.2 0.3
v -11 0.3 1.2
v -11 0.3 1.1
v -11 0.3 1
v -11 0.3 0.9
v -11 0.3 0.8
v -11 0.3 0.6
v -11 0.3 0.5
v -11 0.3 0.4
v -11 0.3 0.3
v -11 0.3 0.2
v -11 0.4 1.2
v -11 0.4 0.9
v -11 0.4 0.8
v -11 0.4 0.6
v -11 0.4 0.4
v -11 0.4 0.2
v -11 0.5 1.2
v -11 0.5 0.9
v -11 0.5 0.8
v -11 0.5 0.6
v -11 0.5 0.4
v -11 0.5 0.2
v -11 0.6 1
v -11 0.6 0.9
v -11 0.6 0.8
v -11 0.6 0.7
v -11 0.6 0.6
v -11 0.6 0.5
v -11 0.6 0.4
v -11 0.6 0.3
v -11 0.7 1.1
v -11 0.7 1
v -11 0.7 0.9
v -11 0.7 0.8
v -11 0.7 0.7
v -11 0.7 0.6
v -11 0.7 0.5
v -11 0.7 0.4
v -11 0.7 0.3
v -11 0.7 0.2
v -11 0.8 1.1
v -11 0.8 1
v -11 0.8 0.9
v -11 0.8 0.8
v -11 0.8 0.7
v -11 0.8 0.6
v -11 0.8 0.5
v -11 0.8 0.4
v -11 0.8 0.3
v -11 0.8 0.2
v -11 0.9 1
v -11 0.9 0.9
v -11 0.9 0.8
v -11 0.9 0.7
v -11 0.9 0.6
v -11 0.9 0.5
v -11 0.9 0.4
v -11 0.9 0.3
v -11 1 1.2
v -11 1 0.8
v -11 1 0.7
v -11 1 0.6
v -11 1 0.4
v -11 1 0.2
v -11 1.1 1.2
v -11 1.1 1.1
v -11 1.1 0.8
v -11 1.1 0.6
v -11 1.1 0.5
v -11 1.1 0.3
v -11 1.1 0.2
v -11 1.2 1.2
v -11 1.2 1.1
v -11 1.2 1
v -11 1.2 0.8
v -11 1.2 0.7
v -11 1.2 0.5
v -11 1.2 0.3
v -11 1.2 0.2
v -11 1.3 1.2
v -11 1.3 1.1
v -11 1.3 0.8
v -11 1.3 0.7
v -11 1.3 0.5
v -11 1.3 0.4
v -11 1.3 0.3
v -11 1.3 0.2
v -11 1.4 1.1
v -11 1.4 1
v -11 1.4 0.9
v -11 1.4 0.6
v -11 1.4 0.5
v -11 1.4 0.4
v -11 1.4 0.3
v -11 1.5 1.2
v -11 1.5 0.9
v -11 1.5 0.6
v -11 1.5 0.5
v -11 1.5 0.4
v -10.9 0 1.2
v -10.9 0 0.2
v -10.9 0.1 1.3
v -10.9 0.1 1.2
v -10.9 0.1 1
v -10.9 0.1 0.9
v -10.9 0.1 0.8
v -10.9 0.1 0.7
v -10.9 0.1 0.6
v -10.9 0.1 0.4
v -10.9 0.1 0.2
v -10.9 0.1 0.1
v -10.9 0.3 1.2
v -10.9 0.3 0.2
v -10.9 0.4 1.2
v -10.9 0.4 0.2
v -10.9 0.5 1.2
v -10.9 0.5 0.2
v -10.9 0.7 0.2
v -10.9 0.8 0.2
v -10.9 1 1.2
v -10.9 1 0.2
v -10.9 1.1 1.2
v -10.9 1.1 0.2
v -10.9 1.2 1.2
v -10.9 1.2 0.2
v -10.9 1.3 1.2
v -10.9 1.3 0.2
v -10.9 1.3 0.1
v -10.9 1.5 1.3
v -10.9 1.5 1.2
v -10.9 1.5 0.9
v -10.9 1.5 0.6
v -10.9 1.5 0.5
v -10.9 1.6 1.2
v -10.9 1.6 0.5
v -10.8 1.1 0.3
v -10.8 1.1 0.2
v -10.8 1.2 0.3
v -10.8 1.2 0.2
v -10.8 1.3 0.4
v -10.8 1.3 0.3
v -10.8 1.4 0.5
v -10.8 1.4 0.4
v -10.8 1.4 0.3
v -10.8 1.5 0.5
v -10.8 1.5 0.4
v -10.9 1.1 0.3
v -10.9 1.1 0.2
v -10.9 1.2 0.3
v -10.9 1.2 0.2
v -10.9 1.3 0.4
v -10.9 1.3 0.3
v -10.9 1.4 0.5
v -10.9 1.4 0.4
v -10.9 1.4 0.3
v -10.9 1.5 0.5
v -10.9 1.5 0.4
v -10.8 0 1.2
v -10.8 0 0.2
v -10.8 0.1 1.3
v -10.8 0.1 1.2
v -10.8 0.1 0.9
v -10.8 0.1 0.7
v -10.8 0.1 0.5
v -10.8 0.1 0.4
v -10.8 0.1 0.2
v -10.8 0.1 0.1
v -10.8 0.2 1.2
v -10.8 0.3 1.2
v -10.8 0.5 1.2
v -10.8 0.6 1.2
v -10.8 0.6 0.2
v -10.8 0.8 1.2
v -10.8 0.8 0.2
v -10.8 0.9 1.2
v -10.8 0.9 0.2
v -10.8 1 0.2
v -10.8 1.1 1.2
v -10.8 1.1 0.2
v -10.8 1.3 0.2
v -10.8 1.3 0.1
v -10.8 1.4 1.2
v -10.8 1.5 1.3
v -10.8 1.5 1.2
v -10.8 1.5 1.1
v -10.8 1.5 0.9
v -10.8 1.5 0.7
v -10.8 1.5 0.6
v -10.8 1.5 0.5
v -10.8 1.6 1.2
v -10.8 1.6 0.5
v -10.7 0.1 1.2
v -10.7 0.1 0.9
v -10.7 0.1 0.7
v -10.7 0.1 0.5
v -10.7 0.1 0.4
v -10.7 0.1 0.2
v -10.7 0.2 1.2
v -10.7 0.2 1.1
v -10.7 0.2 0.9
v -10.7 0.2 0.8
v -10.7 0.2 0.7
v -10.7 0.2 0.5
v -10.7 0.2 0.4
v -10.7 0.2 0.3
v -10.7 0.3 1.2
v -10.7 0.3 1.1
v -10.7 0.3 1
v -10.7 0.3 0.8
v -10.7 0.3 0.6
v -10.7 0.3 0.4
v -10.7 0.3 0.3
v -10.7 0.4 1.1
v -10.7 0.4 1
v -10.7 0.4 0.8
v -10.7 0.4 0.7
v -10.7 0.4 0.6
v -10.7 0.4 0.5
v -10.7 0.5 1.2
v -10.7 0.5 1.1
v -10.7 0.5 0.9
v -10.7 0.5 0.8
v -10.7 0.5 0.7
v -10.7 0.6 1.2
v -10.7 0.6 1
v -10.7 0.6 0.9
v -10.7 0.6 0.8
v -10.7 0.6 0.6
v -10.7 0.6 0.5
v -10.7 0.6 0.4
v -10.7 0.6 0.3
v -10.7 0.6 0.2
v -10.7 0.7 1.1
v -10.7 0.7 0.8
v -10.7 0.7 0.6
v -10.7 0.8 1.2
v -10.7 0.8 1.1
v -10.7 0.8 1
v -10.7 0.8 0.8
v -10.7 0.8 0.6
v -10.7 0.8 0.5
v -10.7 0.8 0.4
v -10.7 0.8 0.3
v -10.7 0.8 0.2
v -10.7 0.9 1.2
v -10.7 0.9 1.1
v -10.7 0.9 1
v -10.7 0.9 0.9
v -10.7 0.9 0.8
v -10.7 0.9 0.6
v -10.7 0.9 0.3
v -10.7 0.9 0.2
v -10.7 1 1.1
v -10.7 1 1
v -10.7 1 0.9
v -10.7 1 0.8
v -10.7 1 0.5
v -10.7 1 0.4
v -10.7 1 0.3
v -10.7 1 0.2
v -10.7 1.1 1.2
v -10.7 1.1 1.1
v -10.7 1.1 1
v -10.7 1.1 0.8
v -10.7 1.1 0.7
v -10.7 1.1 0.6
v -10.7 1.1 0.5
v -10.7 1.1 0.4
v -10.7 1.1 0.3
v -10.7 1.1 0.2
v -10.7 1.2 0.9
v -10.7 1.2 0.8
v -10.7 1.2 0.5
v -10.7 1.2 0.4
v -10.7 1.2 0.3
v -10.7 1.3 1
v -10.7 1.3 0.9
v -10.7 1.3 0.7
v -10.7 1.3 0.6
v -10.7 1.3 0.4
v -10.7 1.3 0.3
v -10.7 1.3 0.2
v -10.7 1.4 1.2
v -10.7 1.4 1.1
v -10.7 1.4 0.9
v -10.7 1.4 0.7
v -10.7 1.4 0.6
v -10.7 1.4 0.4
v -10.7 1.4 0.3
v -10.7 1.5 1.2
v -10.7 1.5 1.1
v -10.7 1.5 0.9
v -10.7 1.5 0.7
v -10.7 1.5 0.6
v -10.7 1.5 0.4
v -10.9 0.1 1.3
v -10.9 1.5 1.3
v -10.8 0.1 1.3
v -10.8 1.5 1.3
v -11 0.1 1.2
v -11 0.3 1.2
v -11 0.4 1.2
v -11 0.5 1.2
v -11 1 1.2
v -11 1.1 1.2
v -11 1.2 1.2
v -11 1.3 1.2
v -11 1.5 1.2
v -10.9 0 1.2
v -10.9 0.1 1.2
v -10.9 0.3 1.2
v -10.9 0.4 1.2
v -10.9 0.5 1.2
v -10.9 1 1.2
v -10.9 1.1 1.2
v -10.9 1.2 1.2
v -10.9 1.3 1.2
v -10.9 1.5 1.2
v -10.9 1.6 1.2
v -10.8 0 1.2
v -10.8 0.1 1.2
v -10.8 0.2 1.2
v -10.8 0.3 1.2
v -10.8 0.5 1.2
v -10.8 0.6 1.2
v -10.8 0.8 1.2
v -10.8 0.9 1.2
v -10.8 1.1 1.2
v -10.8 1.4 1.2
v -10.8 1.5 1.2
v -10.8 1.6 1.2
v -10.7 0.1 1.2
v -10.7 0.2 1.2
v -10.7 0.3 1.2
v -10.7 0.5 1.2
v -10.7 0.6 1.2
v -10.7 0.8 1.2
v -10.7 0.9 1.2
v -10.7 1.1 1.2
v -10.7 1.4 1.2
v -10.7 1.5 1.2
v -10.9 1.1 0.2
v -10.9 1.2 0.2
v -10.8 1.1 0.2
v -10.8 1.2 0.2
v -10.9 1.4 0.5
v -10.9 1.5 0.5
v -10.9 1.6 0.5
v -10.8 1.4 0.5
v -10.8 1.5 0.5
v -10.8 1.6 0.5
v -11 1.4 0.4
v -11 1.5 0.4
v -10.9 1.3 0.4
v -10.9 1.4 0.4
v -10.9 1.5 0.4
v -10.8 1.3 0.4
v -10.8 1.4 0.4
v -10.8 1.5 0.4
v -10.7 1.4 0.4
v -10.7 1.5 0.4
v -11 1.3 0.3
v -11 1.4 0.3
v -10.9 1.1 0.3
v -10.9 1.2 0.3
v -10.9 1.3 0.3
v -10.9 1.4 0.3
v -10.8 1.1 0.3
v -10.8 1.2 0.3
v -10.8 1.3 0.3
v -10.8 1.4 0.3
v -10.7 1.3 0.3
v -10.7 1.4 0.3
v -11 0.1 0.2
v -11 0.3 0.2
v -11 0.4 0.2
v -11 0.5 0.2
v -11 0.7 0.2
v -11 0.8 0.2
v -11 1 0.2
v -11 1.1 0.2
v -11 1.2 0.2
v -11 1.3 0.2
v -10.9 0 0.2
v -10.9 0.1 0.2
v -10.9 0.3 0.2
v -10.9 0.4 0.2
v -10.9 0.5 0.2
v -10.9 0.7 0.2
v -10.9 0.8 0.2
v -10.9 1 0.2
v -10.9 1.1 0.2
v -10.9 1.2 0.2
v -10.9 1.3 0.2
v -10.8 0 0.2
v -10.8 0.1 0.2
v -10.8 0.6 0.2
v -10.8 0.8 0.2
v -10.8 0.9 0.2
v -10.8 1 0.2
v -10.8 1.1 0.2
v -10.8 1.3 0.2
v -10.7 0.1 0.2
v -10.7 0.6 0.2
v -10.7 0.8 0.2
v -10.7 0.9 0.2
v -10.7 1 0.2
v -10.7 1.1 0.2
v -10.7 1.3 0.2
v -10.9 0.1 0.1
v -10.9 1.3 0.1
v -10.8 0.1 0.1
v -10.8 1.3 0.1
v -10.9 0 1.2
v -10.8 0 1.2
v -10.9 0 0.2
v -10.8 0 0.2
v -10.9 0.1 1.3
v -10.8 0.1 1.3
v -11 0.1 1.2
v -10.9 0.1 1.2
v -10.8 0.1 1.2
v -10.7 0.1 1.2
v -11 0.1 1
v -10.9 0.1 1
v -11 0.1 0.9
v -10.9 0.1 0.9
v -10.8 0.1 0.9
v -10.7 0.1 0.9
v -11 0.1 0.8
v -10.9 0.1 0.8
v -11 0.1 0.7
v -10.9 0.1 0.7
v -10.8 0.1 0.7
v -10.7 0.1 0.7
v -11 0.1 0.6
v -10.9 0.1 0.6
v -10.8 0.1 0.5
v -10.7 0.1 0.5
v -11 0.1 0.4
v -10.9 0.1 0.4
v -10.8 0.1 0.4
v -10.7 0.1 0.4
v -11 0.1 0.2
v -10.9 0.1 0.2
v -10.8 0.1 0.2
v -10.7 0.1 0.2
v -10.9 0.1 0.1
v -10.8 0.1 0.1
v -10.9 1.2 0.3
v -10.8 1.2 0.3
v -10.9 1.2 0.2
v -10.8 1.2 0.2
v -10.9 1.1 0.3
v -10.8 1.1 0.3
v -10.9 1.1 0.2
v -10.8 1.1 0.2
v -10.9 1.3 0.4
v -10.8 1.3 0.4
v -11 1.3 0.3
v -10.9 1.3 0.3
v -10.8 1.3 0.3
v -10.7 1.3 0.3
v -11 1.3 0.2
v -10.9 1.3 0.2
v -10.8 1.3 0.2
v -10.7 1.3 0.2
v -10.9 1.3 0.1
v -10.8 1.3 0.1
v -10.9 1.4 0.5
v -10.8 1.4 0.5
v -11 1.4 0.4
v -10.9 1.4 0.4
v -10.8 1.4 0.4
v -10.7 1.4 0.4
v -11 1.4 0.3
v -10.9 1.4 0.3
v -10.8 1.4 0.3
v -10.7 1.4 0.3
v -10.9 1.5 1.3
v -10.8 1.5 1.3
v -11 1.5 1.2
v -10.9 1.5 1.2
v -10.8 1.5 1.2
v -10.7 1.5 1.2
v -10.8 1.5 1.1
v -10.7 1.5 1.1
v -11 1.5 0.9
v -10.9 1.5 0.9
v -10.8 1.5 0.9
v -10.7 1.5 0.9
v -10.8 1.5 0.7
v -10.7 1.5 0.7
v -11 1.5 0.6
v -10.9 1.5 0.6
v -10.8 1.5 0.6
v -10.7 1.5 0.6
v -11 1.5 0.5
v -10.9 1.5 0.5
v -10.8 1.5 0.5
v -11 1.5 0.4
v -10.9 1.5 0.4
v -10.8 1.5 0.4
v -10.7 1.5 0.4
v -10.9 1.6 1.2
v -10.8 1.6 1.2
v -10.9 1.6 0.5
v -10.8 1.6 0.5

# faces
f 9/3/1 2/3/1 1/3/1
f 10/5/1 3/5/1 2/5/1
f 10/3/1 2/3/1 9/3/1
f 11/3/1 4/3/1 3/3/1
f 11/5/1 3/5/1 10/5/1
f 12/5/1 5/5/1 4/5/1
f 12/3/1 4/3/1 11/3/1
f 13/3/1 6/3/1 5/3/1
f 13/5/1 5/5/1 12/5/1
f 14/5/1 7/5/1 6/5/1
f 14/3/1 6/3/1 13/3/1
f 15/5/1 7/5/1 14/5/1
f 16/3/1 8/3/1 7/3/1
f 16/5/1 7/5/1 15/5/1
f 17/3/1 8/3/1 16/3/1
f 18/3/1 9/3/1 1/3/1
f 19/5/1 10/5/1 9/5/1
f 19/3/1 9/3/1 18/3/1
f 20/3/1 15/3/1 14/3/1
f 20/5/1 10/5/1 19/5/1
f 20/3/1 11/3/1 10/3/1
f 20/3/1 12/3/1 11/3/1
f 20/3/1 13/3/1 12/3/1
f 20/3/1 14/3/1 13/3/1
f 21/3/1 15/3/1 20/3/1
f 22/3/1 15/3/1 21/3/1
f 23/3/1 15/3/1 22/3/1
f 24/5/1 17/5/1 16/5/1
f 24/3/1 15/3/1 23/3/1
f 24/5/1 16/5/1 15/5/1
f 25/5/1 17/5/1 24/5/1
f 26/3/1 8/3/1 17/3/1
f 26/5/1 17/5/1 25/5/1
f 27/3/1 8/3/1 26/3/1
f 28/5/1 19/5/1 18/5/1
f 28/5/1 20/5/1 19/5/1
f 28/5/1 21/5/1 20/5/1
f 29/3/1 22/3/1 21/3/1
f 29/5/1 21/5/1 28/5/1
f 30/5/1 23/5/1 22/5/1
f 30/3/1 22/3/1 29/3/1
f 31/3/1 25/3/1 24/3/1
f 31/5/1 23/5/1 30/5/1
f 31/3/1 24/3/1 23/3/1
f 32/5/1 27/5/1 26/5/1
f 32/3/1 25/3/1 31/3/1
f 32/5/1 26/5/1 25/5/1
f 33/5/1 27/5/1 32/5/1
f 34/4/1 30/4/1 29/4/1
f 34/4/1 29/4/1 28/4/1
f 34/4/1 33/4/1 32/4/1
f 34/4/1 32/4/1 31/4/1
f 34/4/1 31/4/1 30/4/1
f 35/4/1 33/4/1 34/4/1
f 36/4/1 33/4/1 35/4/1
f 37/4/1 33/4/1 36/4/1
f 38/4/1 33/4/1 37/4/1
f 39/4/1 33/4/1 38/4/1
f 40/1/1 35/1/1 34/1/1
f 41/10/1 36/10/1 35/10/1
f 41/1/1 35/1/1 40/1/1
f 42/9/1 37/9/1 36/9/1
f 42/10/1 36/10/1 41/10/1
f 43/9/1 37/9/1 42/9/1
f 44/8/1 38/8/1 37/8/1
f 44/9/1 37/9/1 43/9/1
f 45/8/1 38/8/1 44/8/1
f 46/1/1 39/1/1 38/1/1
f 46/8/1 38/8/1 45/8/1
f 47/1/1 39/1/1 46/1/1
f 48/1/1 40/1/1 34/1/1
f 49/6/1 41/6/1 40/6/1
f 49/1/1 40/1/1 48/1/1
f 50/2/1 42/2/1 41/2/1
f 50/6/1 41/6/1 49/6/1
f 51/6/1 43/6/1 42/6/1
f 51/2/1 42/2/1 50/2/1
f 52/2/1 44/2/1 43/2/1
f 52/6/1 43/6/1 51/6/1
f 53/6/1 45/6/1 44/6/1
f 53/2/1 44/2/1 52/2/1
f 54/9/1 46/9/1 45/9/1
f 54/6/1 45/6/1 53/6/1
f 55/8/1 47/8/1 46/8/1
f 55/9/1 46/9/1 54/9/1
f 56/1/1 39/1/1 47/1/1
f 56/8/1 47/8/1 55/8/1
f 57/1/1 39/1/1 56/1/1
f 58/1/1 48/1/1 34/1/1
f 58/6/1 49/6/1 48/6/1
f 59/2/1 50/2/1 49/2/1
f 59/6/1 49/6/1 58/6/1
f 60/6/1 51/6/1 50/6/1
f 60/2/1 50/2/1 59/2/1
f 61/2/1 52/2/1 51/2/1
f 61/6/1 51/6/1 60/6/1
f 62/7/1 53/7/1 52/7/1
f 62/2/1 52/2/1 61/2/1
f 63/2/1 54/2/1 53/2/1
f 63/7/1 53/7/1 62/7/1
f 64/6/1 55/6/1 54/6/1
f 64/2/1 54/2/1 63/2/1
f 65/9/1 57/9/1 56/9/1
f 65/6/1 55/6/1 64/6/1
f 65/9/1 56/9/1 55/9/1
f 66/9/1 57/9/1 65/9/1
f 67/9/1 57/9/1 66/9/1
f 68/6/1 60/6/1 59/6/1
f 68/1/1 59/1/1 58/1/1
f 69/2/1 61/2/1 60/2/1
f 69/6/1 60/6/1 68/6/1
f 70/6/1 62/6/1 61/6/1
f 70/2/1 61/2/1 69/2/1
f 71/2/1 63/2/1 62/2/1
f 71/6/1 62/6/1 70/6/1
f 72/6/1 64/6/1 63/6/1
f 72/2/1 63/2/1 71/2/1
f 73/10/1 65/10/1 64/10/1
f 73/6/1 64/6/1 72/6/1
f 74/9/1 66/9/1 65/9/1
f 74/10/1 65/10/1 73/10/1
f 75/1/1 67/1/1 66/1/1
f 75/9/1 66/9/1 74/9/1
f 76/1/1 70/1/1 69/1/1
f 76/1/1 58/1/1 34/1/1
f 76/1/1 68/1/1 58/1/1
f 76/1/1 69/1/1 68/1/1
f 77/10/1 71/10/1 70/10/1
f 77/1/1 70/1/1 76/1/1
f 78/9/1 72/9/1 71/9/1
f 78/10/1 71/10/1 77/10/1
f 79/8/1 74/8/1 73/8/1
f 79/9/1 72/9/1 78/9/1
f 79/8/1 73/8/1 72/8/1
f 80/1/1 75/1/1 74/1/1
f 80/8/1 74/8/1 79/8/1
f 81/1/1 67/1/1 75/1/1
f 81/1/1 75/1/1 80/1/1
f 82/4/1 80/4/1 79/4/1
f 82/4/1 79/4/1 78/4/1
f 82/4/1 81/4/1 80/4/1
f 82/4/1 77/4/1 76/4/1
f 82/4/1 78/4/1 77/4/1
f 83/4/1 81/4/1 82/4/1
f 84/4/1 81/4/1 83/4/1
f 85/4/1 81/4/1 84/4/1
f 86/4/1 81/4/1 85/4/1
f 87/4/1 81/4/1 86/4/1
f 88/4/1 81/4/1 87/4/1
f 89/3/1 83/3/1 82/3/1
f 90/5/1 84/5/1 83/5/1
f 90/3/1 83/3/1 89/3/1
f 91/5/1 84/5/1 90/5/1
f 92/3/1 85/3/1 84/3/1
f 92/5/1 84/5/1 91/5/1
f 93/3/1 85/3/1 92/3/1
f 94/5/1 86/5/1 85/5/1
f 94/3/1 87/3/1 86/3/1
f 95/5/1 88/5/1 87/5/1
f 95/3/1 87/3/1 94/3/1
f 96/5/1 88/5/1 95/5/1
f 97/5/1 91/5/1 90/5/1
f 97/5/1 90/5/1 89/5/1
f 98/5/1 91/5/1 97/5/1
f 99/5/1 93/5/1 92/5/1
f 99/3/1 92/3/1 91/3/1
f 100/3/1 85/3/1 93/3/1
f 100/5/1 93/5/1 99/5/1
f 101/5/1 94/5/1 85/5/1
f 101/5/1 95/5/1 94/5/1
f 102/5/1 95/5/1 101/5/1
f 103/3/1 96/3/1 95/3/1
f 103/5/1 95/5/1 102/5/1
f 104/3/1 96/3/1 103/3/1
f 105/5/1 91/5/1 98/5/1
f 105/3/1 98/3/1 97/3/1
f 106/3/1 99/3/1 91/3/1
f 106/5/1 91/5/1 105/5/1
f 106/3/1 100/3/1 99/3/1
f 107/3/1 100/3/1 106/3/1
f 108/3/1 85/3/1 100/3/1
f 108/3/1 100/3/1 107/3/1
f 108/5/1 101/5/1 85/5/1
f 109/3/1 102/3/1 101/3/1
f 109/5/1 101/5/1 108/5/1
f 110/5/1 103/5/1 102/5/1
f 110/3/1 102/3/1 109/3/1
f 111/5/1 103/5/1 110/5/1
f 112/3/1 105/3/1 97/3/1
f 112/3/1 107/3/1 106/3/1
f 112/3/1 106/3/1 105/3/1
f 113/5/1 108/5/1 107/5/1
f 113/3/1 107/3/1 112/3/1
f 114/3/1 109/3/1 108/3/1
f 114/5/1 108/5/1 113/5/1
f 115/5/1 110/5/1 109/5/1
f 115/3/1 109/3/1 114/3/1
f 116/5/1 110/5/1 115/5/1
f 120/4/1 118/4/1 117/4/1
f 121/4/1 118/4/1 120/4/1
f 122/4/1 118/4/1 121/4/1
f 123/4/1 118/4/1 122/4/1
f 124/4/1 118/4/1 123/4/1
f 125/4/1 118/4/1 124/4/1
f 126/4/1 118/4/1 125/4/1
f 127/4/1 118/4/1 126/4/1
f 129/4/1 120/4/1 119/4/1
f 130/4/1 128/4/1 127/4/1
f 131/4/1 129/4/1 119/4/1
f 132/4/1 128/4/1 130/4/1
f 133/4/1 131/4/1 119/4/1
f 134/4/1 128/4/1 132/4/1
f 135/4/1 128/4/1 134/4/1
f 136/4/1 128/4/1 135/4/1
f 137/4/1 133/4/1 119/4/1
f 138/4/1 128/4/1 136/4/1
f 139/4/1 137/4/1 119/4/1
f 140/4/1 128/4/1 138/4/1
f 141/4/1 139/4/1 119/4/1
f 142/4/1 128/4/1 140/4/1
f 143/4/1 141/4/1 119/4/1
f 144/4/1 128/4/1 142/4/1
f 145/4/1 128/4/1 144/4/1
f 146/4/1 143/4/1 119/4/1
f 147/4/1 143/4/1 146/4/1
f 151/4/1 150/4/1 149/4/1
f 151/4/1 149/4/1 148/4/1
f 151/4/1 148/4/1 147/4/1
f 152/4/1 150/4/1 151/4/1
f 155/3/1 154/3/1 153/3/1
f 156/3/1 154/3/1 155/3/1
f 160/3/1 158/3/1 157/3/1
f 161/3/1 158/3/1 160/3/1
f 162/5/1 160/5/1 159/5/1
f 163/5/1 160/5/1 162/5/1
f 164/5/2 165/5/2 166/5/2
f 166/5/2 165/5/2 167/5/2
f 168/5/2 169/5/2 171/5/2
f 171/5/2 169/5/2 172/5/2
f 170/5/2 171/5/2 173/5/2
f 173/5/2 171/5/2 174/5/2
f 175/4/2 176/4/2 178/4/2
f 178/4/2 176/4/2 179/4/2
f 179/4/2 176/4/2 180/4/2
f 180/4/2 176/4/2 181/4/2
f 181/4/2 176/4/2 182/4/2
f 182/4/2 176/4/2 183/4/2
f 177/4/2 178/4/2 185/4/2
f 177/4/2 185/4/2 186/4/2
f 177/4/2 186/4/2 187/4/2
f 177/4/2 187/4/2 188/4/2
f 183/4/2 184/4/2 189/4/2
f 177/4/2 188/4/2 190/4/2
f 189/4/2 184/4/2 191/4/2
f 177/4/2 190/4/2 192/4/2
f 191/4/2 184/4/2 193/4/2
f 193/4/2 184/4/2 194/4/2
f 177/4/2 192/4/2 195/4/2
f 194/4/2 184/4/2 196/4/2
f 196/4/2 184/4/2 197/4/2
f 197/4/2 184/4/2 198/4/2
f 177/4/2 195/4/2 199/4/2
f 177/4/2 199/4/2 200/4/2
f 200/4/2 199/4/2 201/4/2
f 205/4/2 206/4/2 207/4/2
f 204/4/2 205/4/2 207/4/2
f 203/4/2 204/4/2 207/4/2
f 202/4/2 203/4/2 207/4/2
f 201/4/2 202/4/2 207/4/2
f 207/4/2 206/4/2 208/4/2
f 209/5/2 210/5/2 215/5/2
f 215/5/2 210/5/2 216/5/2
f 210/3/2 211/3/2 217/3/2
f 216/5/2 210/5/2 217/5/2
f 217/3/2 211/3/2 218/3/2
f 211/5/2 212/5/2 219/5/2
f 218/3/2 211/3/2 219/3/2
f 212/3/2 213/3/2 220/3/2
f 219/5/2 212/5/2 220/5/2
f 213/5/2 214/5/2 221/5/2
f 220/3/2 213/3/2 221/3/2
f 221/5/2 214/5/2 222/5/2
f 215/3/2 216/3/2 223/3/2
f 217/5/2 218/5/2 224/5/2
f 223/3/2 216/3/2 224/3/2
f 216/5/2 217/5/2 224/5/2
f 224/5/2 218/5/2 225/5/2
f 219/3/2 220/3/2 226/3/2
f 225/5/2 218/5/2 226/5/2
f 218/3/2 219/3/2 226/3/2
f 221/3/2 222/3/2 226/3/2
f 220/3/2 221/3/2 226/3/2
f 226/3/2 222/3/2 227/3/2
f 227/3/2 222/3/2 228/3/2
f 222/5/2 214/5/2 229/5/2
f 228/3/2 222/3/2 229/3/2
f 224/5/2 225/5/2 230/5/2
f 223/5/2 224/5/2 230/5/2
f 225/3/2 226/3/2 231/3/2
f 230/5/2 225/5/2 231/5/2
f 226/5/2 227/5/2 232/5/2
f 231/3/2 226/3/2 232/3/2
f 232/5/2 227/5/2 233/5/2
f 227/3/2 228/3/2 234/3/2
f 233/5/2 227/5/2 234/5/2
f 234/3/2 228/3/2 235/3/2
f 223/5/2 230/5/2 236/5/2
f 230/3/2 231/3/2 237/3/2
f 236/5/2 230/5/2 237/5/2
f 231/5/2 232/5/2 238/5/2
f 232/3/2 233/3/2 239/3/2
f 238/5/2 232/5/2 239/5/2
f 233/5/2 234/5/2 240/5/2
f 239/3/2 233/3/2 240/3/2
f 234/5/2 235/5/2 240/5/2
f 236/3/2 237/3/2 241/3/2
f 231/5/2 238/5/2 242/5/2
f 241/3/2 237/3/2 242/3/2
f 237/3/2 231/3/2 242/3/2
f 238/3/2 239/3/2 243/3/2
f 242/5/2 238/5/2 243/5/2
f 239/5/2 240/5/2 244/5/2
f 243/3/2 239/3/2 244/3/2
f 240/5/2 235/5/2 245/5/2
f 244/5/2 240/5/2 245/5/2
f 235/3/2 228/3/2 246/3/2
f 245/5/2 235/5/2 246/5/2
f 228/5/2 229/5/2 247/5/2
f 246/3/2 228/3/2 247/3/2
f 229/5/2 214/5/2 248/5/2
f 247/5/2 229/5/2 248/5/2
f 248/5/2 214/5/2 249/5/2
f 242/5/2 243/5/2 250/5/2
f 241/5/2 242/5/2 250/5/2
f 243/5/2 244/5/2 250/5/2
f 244/3/2 245/3/2 251/3/2
f 250/5/2 244/5/2 251/5/2
f 246/5/2 247/5/2 252/5/2
f 251/3/2 245/3/2 252/3/2
f 245/5/2 246/5/2 252/5/2
f 247/5/2 248/5/2 252/5/2
f 241/5/2 250/5/2 253/5/2
f 250/3/2 251/3/2 254/3/2
f 253/5/2 250/5/2 254/5/2
f 254/3/2 251/3/2 255/3/2
f 251/5/2 252/5/2 256/5/2
f 255/3/2 251/3/2 256/3/2
f 252/5/2 248/5/2 257/5/2
f 256/5/2 252/5/2 257/5/2
f 257/5/2 248/5/2 258/5/2
f 258/5/2 248/5/2 259/5/2
f 248/3/2 249/3/2 260/3/2
f 259/5/2 248/5/2 260/5/2
f 260/3/2 249/3/2 261/3/2
f 253/3/2 254/3/2 262/3/2
f 254/5/2 255/5/2 263/5/2
f 262/3/2 254/3/2 263/3/2
f 255/3/2 256/3/2 264/3/2
f 263/5/2 255/5/2 264/5/2
f 256/3/2 257/3/2 264/3/2
f 264/3/2 257/3/2 265/3/2
f 265/3/2 257/3/2 266/3/2
f 257/5/2 258/5/2 267/5/2
f 266/3/2 257/3/2 267/3/2
f 260/5/2 261/5/2 268/5/2
f 259/5/2 260/5/2 268/5/2
f 268/5/2 261/5/2 269/5/2
f 262/5/2 263/5/2 270/5/2
f 263/3/2 264/3/2 270/3/2
f 264/5/2 265/5/2 271/5/2
f 270/3/2 264/3/2 271/3/2
f 265/3/2 266/3/2 272/3/2
f 271/5/2 265/5/2 272/5/2
f 266/5/2 267/5/2 273/5/2
f 272/3/2 266/3/2 273/3/2
f 258/3/2 259/3/2 274/3/2
f 273/5/2 267/5/2 274/5/2
f 267/5/2 258/5/2 274/5/2
f 259/5/2 268/5/2 275/5/2
f 274/3/2 259/3/2 275/3/2
f 268/3/2 269/3/2 276/3/2
f 275/5/2 268/5/2 276/5/2
f 276/3/2 269/3/2 277/3/2
f 272/5/2 273/5/2 278/5/2
f 273/5/2 274/5/2 278/5/2
f 270/5/2 271/5/2 278/5/2
f 271/5/2 272/5/2 278/5/2
f 262/5/2 270/5/2 278/5/2
f 274/5/2 275/5/2 278/5/2
f 278/5/2 275/5/2 279/5/2
f 279/5/2 275/5/2 280/5/2
f 280/5/2 275/5/2 281/5/2
f 281/5/2 275/5/2 282/5/2
f 282/5/2 275/5/2 283/5/2
f 283/5/2 275/5/2 284/5/2
f 275/3/2 276/3/2 285/3/2
f 284/5/2 275/5/2 285/5/2
f 276/5/2 277/5/2 286/5/2
f 285/3/2 276/3/2 286/3/2
f 286/5/2 277/5/2 287/5/2
f 280/3/2 281/3/2 288/3/2
f 281/5/2 282/5/2 289/5/2
f 288/3/2 281/3/2 289/3/2
f 284/3/2 285/3/2 290/3/2
f 283/5/2 284/5/2 290/5/2
f 285/5/2 286/5/2 291/5/2
f 290/3/2 285/3/2 291/3/2
f 286/3/2 287/3/2 292/3/2
f 291/5/2 286/5/2 292/5/2
f 279/5/2 280/5/2 293/5/2
f 280/3/2 288/3/2 293/3/2
f 288/5/2 289/5/2 294/5/2
f 293/3/2 288/3/2 294/3/2
f 289/5/2 282/5/2 295/5/2
f 294/5/2 289/5/2 295/5/2
f 282/3/2 283/3/2 295/3/2
f 290/5/2 291/5/2 296/5/2
f 295/3/2 283/3/2 296/3/2
f 283/5/2 290/5/2 296/5/2
f 291/3/2 292/3/2 297/3/2
f 296/5/2 291/5/2 297/5/2
f 292/3/2 287/3/2 298/3/2
f 297/3/2 292/3/2 298/3/2
f 298/3/2 287/3/2 299/3/2
f 278/3/2 279/3/2 300/3/2
f 293/5/2 294/5/2 301/5/2
f 300/3/2 279/3/2 301/3/2
f 279/5/2 293/5/2 301/5/2
f 297/3/2 298/3/2 302/3/2
f 301/5/2 294/5/2 302/5/2
f 296/3/2 297/3/2 302/3/2
f 294/3/2 295/3/2 302/3/2
f 295/3/2 296/3/2 302/3/2
f 302/3/2 298/3/2 303/3/2
f 303/3/2 298/3/2 304/3/2
f 304/3/2 298/3/2 305/3/2
f 305/3/2 298/3/2 306/3/2
f 300/5/2 301/5/2 307/5/2
f 301/3/2 302/3/2 308/3/2
f 307/5/2 301/5/2 308/5/2
f 302/5/2 303/5/2 309/5/2
f 308/3/2 302/3/2 309/3/2
f 303/3/2 304/3/2 310/3/2
f 309/5/2 303/5/2 310/5/2
f 304/5/2 305/5/2 311/5/2
f 310/3/2 304/3/2 311/3/2
f 311/5/2 305/5/2 312/5/2
f 315/4/3 314/4/3 313/4/3
f 316/4/3 314/4/3 315/4/3
f 327/3/3 318/3/3 317/3/3
f 328/5/3 319/5/3 318/5/3
f 328/3/3 318/3/3 327/3/3
f 329/4/3 320/4/3 319/4/3
f 329/5/3 319/5/3 328/5/3
f 330/1/3 321/1/3 320/1/3
f 330/4/3 320/4/3 329/4/3
f 331/4/3 322/4/3 321/4/3
f 331/1/3 321/1/3 330/1/3
f 332/3/3 323/3/3 322/3/3
f 332/4/3 322/4/3 331/4/3
f 333/5/3 324/5/3 323/5/3
f 333/3/3 323/3/3 332/3/3
f 334/3/3 325/3/3 324/3/3
f 334/5/3 324/5/3 333/5/3
f 335/3/3 325/3/3 334/3/3
f 337/4/3 327/4/3 326/4/3
f 338/4/3 327/4/3 337/4/3
f 347/4/3 336/4/3 335/4/3
f 348/4/3 336/4/3 347/4/3
f 349/5/3 339/5/3 338/5/3
f 350/3/3 340/3/3 339/3/3
f 350/5/3 339/5/3 349/5/3
f 351/5/3 341/5/3 340/5/3
f 351/3/3 340/3/3 350/3/3
f 352/3/3 342/3/3 341/3/3
f 352/5/3 341/5/3 351/5/3
f 353/5/3 343/5/3 342/5/3
f 353/3/3 342/3/3 352/3/3
f 354/3/3 344/3/3 343/3/3
f 354/5/3 343/5/3 353/5/3
f 355/5/3 345/5/3 344/5/3
f 355/3/3 344/3/3 354/3/3
f 356/3/3 346/3/3 345/3/3
f 356/5/3 345/5/3 355/5/3
f 357/5/3 347/5/3 346/5/3
f 357/3/3 346/3/3 356/3/3
f 358/5/3 347/5/3 357/5/3
f 361/4/3 360/4/3 359/4/3
f 362/4/3 360/4/3 361/4/3
f 363/11/4 364/11/4 366/11/4
f 364/4/4 365/4/4 367/4/4
f 366/11/4 364/11/4 367/11/4
f 367/4/4 365/4/4 368/4/4
f 369/5/4 370/5/4 372/5/4
f 372/5/4 370/5/4 373/5/4
f 371/11/4 372/11/4 374/11/4
f 374/11/4 372/11/4 375/11/4
f 375/5/4 376/5/4 377/5/4
f 377/5/4 376/5/4 378/5/4
f 379/5/4 380/5/4 383/5/4
f 383/5/4 380/5/4 384/5/4
f 381/11/4 382/11/4 385/11/4
f 385/11/4 382/11/4 386/11/4
f 387/3/4 388/3/4 389/3/4
f 389/3/4 388/3/4 390/3/4
f 391/3/4 392/3/4 402/3/4
f 392/5/4 393/5/4 403/5/4
f 402/3/4 392/3/4 403/3/4
f 393/4/4 394/4/4 404/4/4
f 403/5/4 393/5/4 404/5/4
f 394/1/4 395/1/4 405/1/4
f 404/4/4 394/4/4 405/4/4
f 395/9/4 396/9/4 406/9/4
f 405/1/4 395/1/4 406/1/4
f 396/1/4 397/1/4 407/1/4
f 406/9/4 396/9/4 407/9/4
f 397/4/4 398/4/4 408/4/4
f 407/1/4 397/1/4 408/1/4
f 398/5/4 399/5/4 409/5/4
f 408/4/4 398/4/4 409/4/4
f 399/3/4 400/3/4 410/3/4
f 409/5/4 399/5/4 410/5/4
f 410/3/4 400/3/4 411/3/4
f 401/4/4 402/4/4 412/4/4
f 412/4/4 402/4/4 413/4/4
f 413/5/4 414/5/4 420/5/4
f 414/3/4 415/3/4 421/3/4
f 420/5/4 414/5/4 421/5/4
f 415/5/4 416/5/4 422/5/4
f 421/3/4 415/3/4 422/3/4
f 416/3/4 417/3/4 423/3/4
f 422/5/4 416/5/4 423/5/4
f 417/5/4 418/5/4 424/5/4
f 423/3/4 417/3/4 424/3/4
f 418/3/4 419/3/4 425/3/4
f 424/5/4 418/5/4 425/5/4
f 425/3/4 419/3/4 426/3/4
f 427/4/4 428/4/4 429/4/4
f 429/4/4 428/4/4 430/4/4
f 433/4/5 432/4/5 431/4/5
f 434/4/5 432/4/5 433/4/5
f 438/4/5 436/4/5 435/4/5
f 439/4/5 436/4/5 438/4/5
f 441/3/5 438/3/5 437/3/5
f 442/3/5 438/3/5 441/3/5
f 443/5/5 442/5/5 441/5/5
f 444/5/5 442/5/5 443/5/5
f 445/5/5 440/5/5 439/5/5
f 446/5/5 440/5/5 445/5/5
f 447/3/5 444/3/5 443/3/5
f 448/3/5 444/3/5 447/3/5
f 449/5/5 448/5/5 447/5/5
f 450/5/5 448/5/5 449/5/5
f 451/3/5 446/3/5 445/3/5
f 452/3/5 446/3/5 451/3/5
f 453/3/5 450/3/5 449/3/5
f 454/3/5 450/3/5 453/3/5
f 455/5/5 452/5/5 451/5/5
f 456/5/5 452/5/5 455/5/5
f 457/5/5 454/5/5 453/5/5
f 458/5/5 454/5/5 457/5/5
f 459/3/5 456/3/5 455/3/5
f 460/3/5 456/3/5 459/3/5
f 461/3/5 458/3/5 457/3/5
f 462/3/5 458/3/5 461/3/5
f 463/5/5 460/5/5 459/5/5
f 464/5/5 460/5/5 463/5/5
f 465/4/5 463/4/5 462/4/5
f 466/4/5 463/4/5 465/4/5
f 469/11/5 468/11/5 467/11/5
f 470/11/5 468/11/5 469/11/5
f 471/11/6 472/11/6 473/11/6
f 473/11/6 472/11/6 474/11/6
f 475/11/6 476/11/6 478/11/6
f 478/11/6 476/11/6 479/11/6
f 477/3/6 478/3/6 481/3/6
f 478/11/6 479/11/6 482/11/6
f 481/3/6 478/3/6 482/3/6
f 479/3/6 480/3/6 483/3/6
f 482/11/6 479/11/6 483/11/6
f 483/3/6 480/3/6 484/3/6
f 482/4/6 483/4/6 485/4/6
f 485/4/6 483/4/6 486/4/6
f 487/11/6 488/11/6 490/11/6
f 490/11/6 488/11/6 491/11/6
f 489/5/6 490/5/6 493/5/6
f 493/5/6 490/5/6 494/5/6
f 491/3/6 492/3/6 495/3/6
f 495/3/6 492/3/6 496/3/6
f 497/4/6 498/4/6 500/4/6
f 500/4/6 498/4/6 501/4/6
f 501/5/6 502/5/6 503/5/6
f 503/5/6 502/5/6 504/5/6
f 499/3/6 500/3/6 505/3/6
f 505/3/6 500/3/6 506/3/6
f 503/3/6 504/3/6 507/3/6
f 507/3/6 504/3/6 508/3/6
f 507/5/6 508/5/6 509/5/6
f 509/5/6 508/5/6 510/5/6
f 505/5/6 506/5/6 511/5/6
f 511/5/6 506/5/6 512/5/6
f 509/3/6 510/3/6 513/3/6
f 513/3/6 510/3/6 514/3/6
f 511/3/6 512/3/6 515/3/6
f 515/3/6 512/3/6 516/3/6
f 513/5/6 514/5/6 517/5/6
f 515/5/6 516/5/6 518/5/6
f 518/5/6 516/5/6 519/5/6
f 517/5/6 514/5/6 520/5/6
f 520/5/6 514/5/6 521/5/6
f 522/4/6 523/4/6 524/4/6
f 524/4/6 523/4/6 525/4/6
