# MagicaVoxel @ Ephtracy

# group
o turnip_growth4

# material
mtllib farm-42-turnip_growth4.mtl
usemtl palette

# normals
vn -1 0 0
vn 1 0 0
vn 0 0 1
vn 0 0 -1
vn 0 -1 0
vn 0 1 0

# texcoords
vt 0.412109 0.5
vt 0.626953 0.5

# verts
v -0.3 0 2
v -0.3 0 1.7
v -0.3 0.1 2
v -0.3 0.1 1.9
v -0.3 0.1 1.8
v -0.3 0.1 1.7
v -0.3 0.2 1.9
v -0.3 0.2 1.8
v -0.3 0.3 1.9
v -0.3 0.3 1.8
v -0.3 0.5 1.9
v -0.3 0.5 1.8
v -0.2 0.1 2
v -0.2 0.1 1.9
v -0.2 0.1 1.8
v -0.2 0.1 1.7
v -0.2 0.2 2
v -0.2 0.2 1.9
v -0.2 0.2 1.8
v -0.2 0.2 1.7
v -0.2 0.3 2
v -0.2 0.3 1.9
v -0.2 0.3 1.8
v -0.2 0.3 1.7
v -0.2 0.5 2
v -0.2 0.5 1.9
v -0.2 0.5 1.8
v -0.2 0.5 1.7
v -0.1 0.4 1.9
v -0.1 0.4 1.8
v -0.1 0.5 1.9
v -0.1 0.5 1.8
v -0.2 0.4 1.9
v -0.2 0.4 1.8
v -0.2 0.5 1.9
v -0.2 0.5 1.8
v -0.1 0.1 2
v -0.1 0.1 1.9
v -0.1 0.1 1.8
v -0.1 0.1 1.7
v -0.1 0.2 2
v -0.1 0.2 1.9
v -0.1 0.2 1.8
v -0.1 0.2 1.7
v -0.1 0.3 2
v -0.1 0.3 1.9
v -0.1 0.3 1.8
v -0.1 0.3 1.7
v -0.1 0.5 2
v -0.1 0.5 1.9
v -0.1 0.5 1.8
v -0.1 0.5 1.7
v 0 0 2
v 0 0 1.7
v 0 0.1 2
v 0 0.1 1.9
v 0 0.1 1.8
v 0 0.1 1.7
v 0 0.2 1.9
v 0 0.2 1.8
v 0 0.3 1.9
v 0 0.3 1.8
v 0 0.5 1.9
v 0 0.5 1.8
v -0.3 0 2
v -0.3 0.1 2
v -0.2 0.1 2
v -0.2 0.2 2
v -0.2 0.3 2
v -0.2 0.5 2
v -0.1 0.1 2
v -0.1 0.2 2
v -0.1 0.3 2
v -0.1 0.5 2
v 0 0 2
v 0 0.1 2
v -0.3 0.1 1.9
v -0.3 0.2 1.9
v -0.3 0.3 1.9
v -0.3 0.5 1.9
v -0.2 0.1 1.9
v -0.2 0.2 1.9
v -0.2 0.3 1.9
v -0.2 0.5 1.9
v -0.1 0.1 1.9
v -0.1 0.2 1.9
v -0.1 0.3 1.9
v -0.1 0.5 1.9
v 0 0.1 1.9
v 0 0.2 1.9
v 0 0.3 1.9
v 0 0.5 1.9
v -0.2 0.4 1.8
v -0.2 0.5 1.8
v -0.1 0.4 1.8
v -0.1 0.5 1.8
v -0.2 0.4 1.9
v -0.2 0.5 1.9
v -0.1 0.4 1.9
v -0.1 0.5 1.9
v -0.3 0.1 1.8
v -0.3 0.2 1.8
v -0.3 0.3 1.8
v -0.3 0.5 1.8
v -0.2 0.1 1.8
v -0.2 0.2 1.8
v -0.2 0.3 1.8
v -0.2 0.5 1.8
v -0.1 0.1 1.8
v -0.1 0.2 1.8
v -0.1 0.3 1.8
v -0.1 0.5 1.8
v 0 0.1 1.8
v 0 0.2 1.8
v 0 0.3 1.8
v 0 0.5 1.8
v -0.3 0 1.7
v -0.3 0.1 1.7
v -0.2 0.1 1.7
v -0.2 0.2 1.7
v -0.2 0.3 1.7
v -0.2 0.5 1.7
v -0.1 0.1 1.7
v -0.1 0.2 1.7
v -0.1 0.3 1.7
v -0.1 0.5 1.7
v 0 0 1.7
v 0 0.1 1.7
v -0.3 0 2
v 0 0 2
v -0.3 0 1.7
v 0 0 1.7
v -0.2 0.3 2
v -0.1 0.3 2
v -0.3 0.3 1.9
v -0.2 0.3 1.9
v -0.1 0.3 1.9
v 0 0.3 1.9
v -0.3 0.3 1.8
v -0.2 0.3 1.8
v -0.1 0.3 1.8
v 0 0.3 1.8
v -0.2 0.3 1.7
v -0.1 0.3 1.7
v -0.3 0.1 2
v -0.2 0.1 2
v -0.1 0.1 2
v 0 0.1 2
v -0.3 0.1 1.9
v -0.2 0.1 1.9
v -0.1 0.1 1.9
v 0 0.1 1.9
v -0.3 0.1 1.8
v -0.2 0.1 1.8
v -0.1 0.1 1.8
v 0 0.1 1.8
v -0.3 0.1 1.7
v -0.2 0.1 1.7
v -0.1 0.1 1.7
v 0 0.1 1.7
v -0.2 0.2 2
v -0.1 0.2 2
v -0.3 0.2 1.9
v -0.2 0.2 1.9
v -0.1 0.2 1.9
v 0 0.2 1.9
v -0.3 0.2 1.8
v -0.2 0.2 1.8
v -0.1 0.2 1.8
v 0 0.2 1.8
v -0.2 0.2 1.7
v -0.1 0.2 1.7
v -0.2 0.4 1.9
v -0.1 0.4 1.9
v -0.2 0.4 1.8
v -0.1 0.4 1.8
v -0.2 0.5 2
v -0.1 0.5 2
v -0.3 0.5 1.9
v -0.2 0.5 1.9
v -0.1 0.5 1.9
v 0 0.5 1.9
v -0.3 0.5 1.8
v -0.2 0.5 1.8
v -0.1 0.5 1.8
v 0 0.5 1.8
v -0.2 0.5 1.7
v -0.1 0.5 1.7

# faces
f 3/1/1 2/1/1 1/1/1
f 4/1/1 2/1/1 3/1/1
f 5/1/1 2/1/1 4/1/1
f 6/1/1 2/1/1 5/1/1
f 7/1/1 5/1/1 4/1/1
f 8/1/1 5/1/1 7/1/1
f 11/2/1 10/2/1 9/2/1
f 12/2/1 10/2/1 11/2/1
f 17/1/1 14/1/1 13/1/1
f 18/1/1 14/1/1 17/1/1
f 19/1/1 16/1/1 15/1/1
f 20/1/1 16/1/1 19/1/1
f 22/2/1 19/2/1 18/2/1
f 23/2/1 19/2/1 22/2/1
f 25/2/1 22/2/1 21/2/1
f 26/2/1 22/2/1 25/2/1
f 27/2/1 24/2/1 23/2/1
f 28/2/1 24/2/1 27/2/1
f 31/2/1 30/2/1 29/2/1
f 32/2/1 30/2/1 31/2/1
f 33/2/2 34/2/2 35/2/2
f 35/2/2 34/2/2 36/2/2
f 37/1/2 38/1/2 41/1/2
f 41/1/2 38/1/2 42/1/2
f 39/1/2 40/1/2 43/1/2
f 43/1/2 40/1/2 44/1/2
f 42/2/2 43/2/2 46/2/2
f 46/2/2 43/2/2 47/2/2
f 45/2/2 46/2/2 49/2/2
f 49/2/2 46/2/2 50/2/2
f 47/2/2 48/2/2 51/2/2
f 51/2/2 48/2/2 52/2/2
f 53/1/2 54/1/2 55/1/2
f 55/1/2 54/1/2 56/1/2
f 56/1/2 54/1/2 57/1/2
f 57/1/2 54/1/2 58/1/2
f 56/1/2 57/1/2 59/1/2
f 59/1/2 57/1/2 60/1/2
f 61/2/2 62/2/2 63/2/2
f 63/2/2 62/2/2 64/2/2
f 67/1/3 66/1/3 65/1/3
f 71/1/3 67/1/3 65/1/3
f 71/1/3 68/1/3 67/1/3
f 72/1/3 68/1/3 71/1/3
f 73/2/3 70/2/3 69/2/3
f 74/2/3 70/2/3 73/2/3
f 75/1/3 71/1/3 65/1/3
f 76/1/3 71/1/3 75/1/3
f 81/1/3 78/1/3 77/1/3
f 82/1/3 78/1/3 81/1/3
f 83/2/3 80/2/3 79/2/3
f 84/2/3 80/2/3 83/2/3
f 86/2/3 83/2/3 82/2/3
f 87/2/3 83/2/3 86/2/3
f 89/1/3 86/1/3 85/1/3
f 90/1/3 86/1/3 89/1/3
f 91/2/3 88/2/3 87/2/3
f 92/2/3 88/2/3 91/2/3
f 95/2/3 94/2/3 93/2/3
f 96/2/3 94/2/3 95/2/3
f 97/2/4 98/2/4 99/2/4
f 99/2/4 98/2/4 100/2/4
f 101/1/4 102/1/4 105/1/4
f 105/1/4 102/1/4 106/1/4
f 103/2/4 104/2/4 107/2/4
f 107/2/4 104/2/4 108/2/4
f 106/2/4 107/2/4 110/2/4
f 110/2/4 107/2/4 111/2/4
f 109/1/4 110/1/4 113/1/4
f 113/1/4 110/1/4 114/1/4
f 111/2/4 112/2/4 115/2/4
f 115/2/4 112/2/4 116/2/4
f 117/1/4 118/1/4 119/1/4
f 117/1/4 119/1/4 123/1/4
f 119/1/4 120/1/4 123/1/4
f 123/1/4 120/1/4 124/1/4
f 121/2/4 122/2/4 125/2/4
f 125/2/4 122/2/4 126/2/4
f 117/1/4 123/1/4 127/1/4
f 127/1/4 123/1/4 128/1/4
f 131/1/5 130/1/5 129/1/5
f 132/1/5 130/1/5 131/1/5
f 136/2/5 134/2/5 133/2/5
f 137/2/5 134/2/5 136/2/5
f 139/2/5 136/2/5 135/2/5
f 140/2/5 136/2/5 139/2/5
f 141/2/5 138/2/5 137/2/5
f 142/2/5 138/2/5 141/2/5
f 143/2/5 141/2/5 140/2/5
f 144/2/5 141/2/5 143/2/5
f 145/1/6 146/1/6 149/1/6
f 149/1/6 146/1/6 150/1/6
f 147/1/6 148/1/6 151/1/6
f 151/1/6 148/1/6 152/1/6
f 153/1/6 154/1/6 157/1/6
f 157/1/6 154/1/6 158/1/6
f 155/1/6 156/1/6 159/1/6
f 159/1/6 156/1/6 160/1/6
f 161/1/6 162/1/6 164/1/6
f 164/1/6 162/1/6 165/1/6
f 163/1/6 164/1/6 167/1/6
f 167/1/6 164/1/6 168/1/6
f 165/1/6 166/1/6 169/1/6
f 169/1/6 166/1/6 170/1/6
f 168/1/6 169/1/6 171/1/6
f 171/1/6 169/1/6 172/1/6
f 173/2/6 174/2/6 175/2/6
f 175/2/6 174/2/6 176/2/6
f 177/2/6 178/2/6 180/2/6
f 180/2/6 178/2/6 181/2/6
f 179/2/6 180/2/6 183/2/6
f 183/2/6 180/2/6 184/2/6
f 181/2/6 182/2/6 185/2/6
f 185/2/6 182/2/6 186/2/6
f 184/2/6 185/2/6 187/2/6
f 187/2/6 185/2/6 188/2/6
