# MagicaVoxel @ Ephtracy

# group
o floor_dirt

# material
mtllib farm-54-floor_dirt.mtl
usemtl palette

# normals
vn -1 0 0
vn 1 0 0
vn 0 0 1
vn 0 0 -1
vn 0 -1 0
vn 0 1 0

# texcoords
vt 0.224609 0.5
vt 0.228516 0.5

# verts
v 5.4 0 2.6
v 5.4 0 2.5
v 5.4 0 2.3
v 5.4 0 2
v 5.4 0 1.6
v 5.4 0 1.5
v 5.4 0 1.3
v 5.4 0 1.2
v 5.4 0 1.1
v 5.4 0 1
v 5.4 0.1 2.6
v 5.4 0.1 2.5
v 5.4 0.1 2.3
v 5.4 0.1 2
v 5.4 0.1 1.6
v 5.4 0.1 1.5
v 5.4 0.1 1.3
v 5.4 0.1 1.2
v 5.4 0.1 1.1
v 5.4 0.1 1
v 7 0 2.6
v 7 0 2.5
v 7 0 2.3
v 7 0 2.1
v 7 0 1.9
v 7 0 1.8
v 7 0 1.6
v 7 0 1.4
v 7 0 1.3
v 7 0 1.1
v 7 0 1
v 7 0.1 2.6
v 7 0.1 2.5
v 7 0.1 2.3
v 7 0.1 2.1
v 7 0.1 1.9
v 7 0.1 1.8
v 7 0.1 1.6
v 7 0.1 1.4
v 7 0.1 1.3
v 7 0.1 1.1
v 7 0.1 1
v 5.4 0 2.6
v 5.4 0.1 2.6
v 5.5 0 2.6
v 5.5 0.1 2.6
v 5.6 0 2.6
v 5.6 0.1 2.6
v 5.9 0 2.6
v 5.9 0.1 2.6
v 6.1 0 2.6
v 6.1 0.1 2.6
v 6.5 0 2.6
v 6.5 0.1 2.6
v 6.6 0 2.6
v 6.6 0.1 2.6
v 7 0 2.6
v 7 0.1 2.6
v 5.4 0 1
v 5.4 0.1 1
v 5.5 0 1
v 5.5 0.1 1
v 5.6 0 1
v 5.6 0.1 1
v 6.4 0 1
v 6.4 0.1 1
v 6.5 0 1
v 6.5 0.1 1
v 6.6 0 1
v 6.6 0.1 1
v 6.7 0 1
v 6.7 0.1 1
v 6.8 0 1
v 6.8 0.1 1
v 7 0 1
v 7 0.1 1
v 5.4 0 2.6
v 5.5 0 2.6
v 5.6 0 2.6
v 5.9 0 2.6
v 6.1 0 2.6
v 6.5 0 2.6
v 6.6 0 2.6
v 7 0 2.6
v 5.4 0 2.5
v 5.5 0 2.5
v 5.6 0 2.5
v 5.9 0 2.5
v 6 0 2.5
v 6.1 0 2.5
v 6.5 0 2.5
v 6.7 0 2.5
v 6.8 0 2.5
v 6.9 0 2.5
v 7 0 2.5
v 5.5 0 2.4
v 5.8 0 2.4
v 6.4 0 2.4
v 6.5 0 2.4
v 6.8 0 2.4
v 6.9 0 2.4
v 5.4 0 2.3
v 5.7 0 2.3
v 5.9 0 2.3
v 6 0 2.3
v 6.1 0 2.3
v 6.2 0 2.3
v 6.5 0 2.3
v 6.6 0 2.3
v 6.7 0 2.3
v 6.8 0 2.3
v 7 0 2.3
v 5.5 0 2.2
v 5.6 0 2.2
v 5.9 0 2.2
v 6 0 2.2
v 6.1 0 2.2
v 6.2 0 2.2
v 6.4 0 2.2
v 6.6 0 2.2
v 6.7 0 2.2
v 6.8 0 2.2
v 5.5 0 2.1
v 5.6 0 2.1
v 5.7 0 2.1
v 5.8 0 2.1
v 6 0 2.1
v 6.2 0 2.1
v 6.6 0 2.1
v 6.7 0 2.1
v 6.9 0 2.1
v 7 0 2.1
v 5.4 0 2
v 5.5 0 2
v 5.8 0 2
v 6 0 2
v 6.1 0 2
v 6.2 0 2
v 6.4 0 2
v 6.5 0 2
v 6.6 0 2
v 6.7 0 2
v 5.5 0 1.9
v 5.7 0 1.9
v 6.1 0 1.9
v 6.2 0 1.9
v 6.3 0 1.9
v 6.6 0 1.9
v 6.7 0 1.9
v 6.9 0 1.9
v 7 0 1.9
v 5.5 0 1.8
v 5.6 0 1.8
v 5.7 0 1.8
v 5.8 0 1.8
v 5.9 0 1.8
v 6 0 1.8
v 6.2 0 1.8
v 6.3 0 1.8
v 6.4 0 1.8
v 6.5 0 1.8
v 6.6 0 1.8
v 6.7 0 1.8
v 6.8 0 1.8
v 6.9 0 1.8
v 7 0 1.8
v 5.5 0 1.7
v 5.6 0 1.7
v 5.7 0 1.7
v 5.8 0 1.7
v 5.9 0 1.7
v 6.2 0 1.7
v 6.3 0 1.7
v 6.4 0 1.7
v 6.6 0 1.7
v 6.7 0 1.7
v 6.8 0 1.7
v 5.4 0 1.6
v 5.6 0 1.6
v 5.7 0 1.6
v 5.8 0 1.6
v 6 0 1.6
v 6.1 0 1.6
v 6.2 0 1.6
v 6.3 0 1.6
v 6.4 0 1.6
v 6.5 0 1.6
v 6.8 0 1.6
v 6.9 0 1.6
v 7 0 1.6
v 5.4 0 1.5
v 5.8 0 1.5
v 5.9 0 1.5
v 6.1 0 1.5
v 6.2 0 1.5
v 6.3 0 1.5
v 6.4 0 1.5
v 6.6 0 1.5
v 6.7 0 1.5
v 6.8 0 1.5
v 6.9 0 1.5
v 5.5 0 1.4
v 5.6 0 1.4
v 5.7 0 1.4
v 5.8 0 1.4
v 5.9 0 1.4
v 6 0 1.4
v 6.2 0 1.4
v 6.3 0 1.4
v 6.5 0 1.4
v 6.8 0 1.4
v 7 0 1.4
v 5.4 0 1.3
v 5.5 0 1.3
v 5.9 0 1.3
v 6 0 1.3
v 6.1 0 1.3
v 6.4 0 1.3
v 6.5 0 1.3
v 6.7 0 1.3
v 6.8 0 1.3
v 6.9 0 1.3
v 7 0 1.3
v 5.4 0 1.2
v 5.6 0 1.2
v 5.7 0 1.2
v 5.8 0 1.2
v 5.9 0 1.2
v 6 0 1.2
v 6.1 0 1.2
v 6.2 0 1.2
v 6.3 0 1.2
v 6.4 0 1.2
v 6.5 0 1.2
v 6.7 0 1.2
v 6.8 0 1.2
v 6.9 0 1.2
v 5.4 0 1.1
v 5.5 0 1.1
v 5.7 0 1.1
v 5.8 0 1.1
v 6 0 1.1
v 6.1 0 1.1
v 6.2 0 1.1
v 6.3 0 1.1
v 6.4 0 1.1
v 6.5 0 1.1
v 6.6 0 1.1
v 6.7 0 1.1
v 6.8 0 1.1
v 7 0 1.1
v 5.4 0 1
v 5.5 0 1
v 5.6 0 1
v 6.4 0 1
v 6.5 0 1
v 6.6 0 1
v 6.7 0 1
v 6.8 0 1
v 7 0 1
v 5.4 0.1 2.6
v 5.5 0.1 2.6
v 5.6 0.1 2.6
v 5.9 0.1 2.6
v 6.1 0.1 2.6
v 6.5 0.1 2.6
v 6.6 0.1 2.6
v 7 0.1 2.6
v 5.4 0.1 2.5
v 5.5 0.1 2.5
v 5.6 0.1 2.5
v 5.9 0.1 2.5
v 6 0.1 2.5
v 6.1 0.1 2.5
v 6.5 0.1 2.5
v 6.7 0.1 2.5
v 6.8 0.1 2.5
v 6.9 0.1 2.5
v 7 0.1 2.5
v 5.5 0.1 2.4
v 5.8 0.1 2.4
v 6.4 0.1 2.4
v 6.5 0.1 2.4
v 6.8 0.1 2.4
v 6.9 0.1 2.4
v 5.4 0.1 2.3
v 5.7 0.1 2.3
v 5.9 0.1 2.3
v 6 0.1 2.3
v 6.1 0.1 2.3
v 6.2 0.1 2.3
v 6.5 0.1 2.3
v 6.6 0.1 2.3
v 6.7 0.1 2.3
v 6.8 0.1 2.3
v 7 0.1 2.3
v 5.5 0.1 2.2
v 5.6 0.1 2.2
v 5.9 0.1 2.2
v 6 0.1 2.2
v 6.1 0.1 2.2
v 6.2 0.1 2.2
v 6.4 0.1 2.2
v 6.6 0.1 2.2
v 6.7 0.1 2.2
v 6.8 0.1 2.2
v 5.5 0.1 2.1
v 5.6 0.1 2.1
v 5.7 0.1 2.1
v 5.8 0.1 2.1
v 6 0.1 2.1
v 6.2 0.1 2.1
v 6.6 0.1 2.1
v 6.7 0.1 2.1
v 6.9 0.1 2.1
v 7 0.1 2.1
v 5.4 0.1 2
v 5.5 0.1 2
v 5.8 0.1 2
v 6 0.1 2
v 6.1 0.1 2
v 6.2 0.1 2
v 6.4 0.1 2
v 6.5 0.1 2
v 6.6 0.1 2
v 6.7 0.1 2
v 5.5 0.1 1.9
v 5.7 0.1 1.9
v 6.1 0.1 1.9
v 6.2 0.1 1.9
v 6.3 0.1 1.9
v 6.6 0.1 1.9
v 6.7 0.1 1.9
v 6.9 0.1 1.9
v 7 0.1 1.9
v 5.5 0.1 1.8
v 5.6 0.1 1.8
v 5.7 0.1 1.8
v 5.8 0.1 1.8
v 5.9 0.1 1.8
v 6 0.1 1.8
v 6.2 0.1 1.8
v 6.3 0.1 1.8
v 6.4 0.1 1.8
v 6.5 0.1 1.8
v 6.6 0.1 1.8
v 6.7 0.1 1.8
v 6.8 0.1 1.8
v 6.9 0.1 1.8
v 7 0.1 1.8
v 5.5 0.1 1.7
v 5.6 0.1 1.7
v 5.7 0.1 1.7
v 5.8 0.1 1.7
v 5.9 0.1 1.7
v 6.2 0.1 1.7
v 6.3 0.1 1.7
v 6.4 0.1 1.7
v 6.6 0.1 1.7
v 6.7 0.1 1.7
v 6.8 0.1 1.7
v 5.4 0.1 1.6
v 5.6 0.1 1.6
v 5.7 0.1 1.6
v 5.8 0.1 1.6
v 6 0.1 1.6
v 6.1 0.1 1.6
v 6.2 0.1 1.6
v 6.3 0.1 1.6
v 6.4 0.1 1.6
v 6.5 0.1 1.6
v 6.8 0.1 1.6
v 6.9 0.1 1.6
v 7 0.1 1.6
v 5.4 0.1 1.5
v 5.8 0.1 1.5
v 5.9 0.1 1.5
v 6.1 0.1 1.5
v 6.2 0.1 1.5
v 6.3 0.1 1.5
v 6.4 0.1 1.5
v 6.6 0.1 1.5
v 6.7 0.1 1.5
v 6.8 0.1 1.5
v 6.9 0.1 1.5
v 5.5 0.1 1.4
v 5.6 0.1 1.4
v 5.7 0.1 1.4
v 5.8 0.1 1.4
v 5.9 0.1 1.4
v 6 0.1 1.4
v 6.2 0.1 1.4
v 6.3 0.1 1.4
v 6.5 0.1 1.4
v 6.8 0.1 1.4
v 7 0.1 1.4
v 5.4 0.1 1.3
v 5.5 0.1 1.3
v 5.9 0.1 1.3
v 6 0.1 1.3
v 6.1 0.1 1.3
v 6.4 0.1 1.3
v 6.5 0.1 1.3
v 6.7 0.1 1.3
v 6.8 0.1 1.3
v 6.9 0.1 1.3
v 7 0.1 1.3
v 5.4 0.1 1.2
v 5.6 0.1 1.2
v 5.7 0.1 1.2
v 5.8 0.1 1.2
v 5.9 0.1 1.2
v 6 0.1 1.2
v 6.1 0.1 1.2
v 6.2 0.1 1.2
v 6.3 0.1 1.2
v 6.4 0.1 1.2
v 6.5 0.1 1.2
v 6.7 0.1 1.2
v 6.8 0.1 1.2
v 6.9 0.1 1.2
v 5.4 0.1 1.1
v 5.5 0.1 1.1
v 5.7 0.1 1.1
v 5.8 0.1 1.1
v 6 0.1 1.1
v 6.1 0.1 1.1
v 6.2 0.1 1.1
v 6.3 0.1 1.1
v 6.4 0.1 1.1
v 6.5 0.1 1.1
v 6.6 0.1 1.1
v 6.7 0.1 1.1
v 6.8 0.1 1.1
v 7 0.1 1.1
v 5.4 0.1 1
v 5.5 0.1 1
v 5.6 0.1 1
v 6.4 0.1 1
v 6.5 0.1 1
v 6.6 0.1 1
v 6.7 0.1 1
v 6.8 0.1 1
v 7 0.1 1

# faces
f 11/2/1 2/2/1 1/2/1
f 12/1/1 3/1/1 2/1/1
f 12/2/1 2/2/1 11/2/1
f 13/2/1 4/2/1 3/2/1
f 13/1/1 3/1/1 12/1/1
f 14/1/1 5/1/1 4/1/1
f 14/2/1 4/2/1 13/2/1
f 15/2/1 6/2/1 5/2/1
f 15/1/1 5/1/1 14/1/1
f 16/1/1 7/1/1 6/1/1
f 16/2/1 6/2/1 15/2/1
f 17/2/1 8/2/1 7/2/1
f 17/1/1 7/1/1 16/1/1
f 18/1/1 9/1/1 8/1/1
f 18/2/1 8/2/1 17/2/1
f 19/2/1 10/2/1 9/2/1
f 19/1/1 9/1/1 18/1/1
f 20/2/1 10/2/1 19/2/1
f 21/2/2 22/2/2 32/2/2
f 22/1/2 23/1/2 33/1/2
f 32/2/2 22/2/2 33/2/2
f 23/2/2 24/2/2 34/2/2
f 33/1/2 23/1/2 34/1/2
f 24/1/2 25/1/2 35/1/2
f 34/2/2 24/2/2 35/2/2
f 25/2/2 26/2/2 36/2/2
f 35/1/2 25/1/2 36/1/2
f 26/1/2 27/1/2 37/1/2
f 36/2/2 26/2/2 37/2/2
f 27/2/2 28/2/2 38/2/2
f 37/1/2 27/1/2 38/1/2
f 28/1/2 29/1/2 39/1/2
f 38/2/2 28/2/2 39/2/2
f 29/2/2 30/2/2 40/2/2
f 39/1/2 29/1/2 40/1/2
f 30/1/2 31/1/2 41/1/2
f 40/2/2 30/2/2 41/2/2
f 41/1/2 31/1/2 42/1/2
f 45/2/3 44/2/3 43/2/3
f 46/2/3 44/2/3 45/2/3
f 47/1/3 46/1/3 45/1/3
f 48/1/3 46/1/3 47/1/3
f 49/2/3 48/2/3 47/2/3
f 50/2/3 48/2/3 49/2/3
f 51/1/3 50/1/3 49/1/3
f 52/1/3 50/1/3 51/1/3
f 53/2/3 52/2/3 51/2/3
f 54/2/3 52/2/3 53/2/3
f 55/1/3 54/1/3 53/1/3
f 56/1/3 54/1/3 55/1/3
f 57/2/3 56/2/3 55/2/3
f 58/2/3 56/2/3 57/2/3
f 59/2/4 60/2/4 61/2/4
f 61/2/4 60/2/4 62/2/4
f 61/1/4 62/1/4 63/1/4
f 63/1/4 62/1/4 64/1/4
f 63/2/4 64/2/4 65/2/4
f 65/2/4 64/2/4 66/2/4
f 65/1/4 66/1/4 67/1/4
f 67/1/4 66/1/4 68/1/4
f 67/2/4 68/2/4 69/2/4
f 69/2/4 68/2/4 70/2/4
f 69/1/4 70/1/4 71/1/4
f 71/1/4 70/1/4 72/1/4
f 71/2/4 72/2/4 73/2/4
f 73/2/4 72/2/4 74/2/4
f 73/1/4 74/1/4 75/1/4
f 75/1/4 74/1/4 76/1/4
f 85/2/5 78/2/5 77/2/5
f 86/1/5 79/1/5 78/1/5
f 86/2/5 78/2/5 85/2/5
f 87/2/5 80/2/5 79/2/5
f 87/1/5 79/1/5 86/1/5
f 88/1/5 81/1/5 80/1/5
f 88/2/5 80/2/5 87/2/5
f 89/1/5 81/1/5 88/1/5
f 90/2/5 82/2/5 81/2/5
f 90/1/5 81/1/5 89/1/5
f 91/1/5 83/1/5 82/1/5
f 91/2/5 82/2/5 90/2/5
f 92/2/5 84/2/5 83/2/5
f 93/2/5 84/2/5 92/2/5
f 94/2/5 84/2/5 93/2/5
f 95/2/5 84/2/5 94/2/5
f 96/1/5 86/1/5 85/1/5
f 96/2/5 87/2/5 86/2/5
f 96/2/5 89/2/5 88/2/5
f 96/2/5 88/2/5 87/2/5
f 97/2/5 89/2/5 96/2/5
f 98/1/5 90/1/5 89/1/5
f 98/1/5 91/1/5 90/1/5
f 99/1/5 83/1/5 91/1/5
f 99/1/5 91/1/5 98/1/5
f 100/2/5 94/2/5 93/2/5
f 100/1/5 93/1/5 92/1/5
f 101/1/5 95/1/5 94/1/5
f 101/2/5 94/2/5 100/2/5
f 102/1/5 97/1/5 96/1/5
f 102/1/5 96/1/5 85/1/5
f 103/1/5 97/1/5 102/1/5
f 104/2/5 89/2/5 97/2/5
f 105/1/5 98/1/5 89/1/5
f 105/2/5 89/2/5 104/2/5
f 106/1/5 98/1/5 105/1/5
f 107/1/5 98/1/5 106/1/5
f 108/1/5 83/1/5 99/1/5
f 108/2/5 99/2/5 98/2/5
f 109/2/5 92/2/5 83/2/5
f 109/1/5 83/1/5 108/1/5
f 110/1/5 100/1/5 92/1/5
f 110/2/5 92/2/5 109/2/5
f 110/1/5 101/1/5 100/1/5
f 111/1/5 101/1/5 110/1/5
f 112/1/5 95/1/5 101/1/5
f 112/1/5 101/1/5 111/1/5
f 113/2/5 103/2/5 102/2/5
f 114/2/5 103/2/5 113/2/5
f 115/2/5 104/2/5 97/2/5
f 115/1/5 106/1/5 105/1/5
f 115/1/5 105/1/5 104/1/5
f 116/1/5 106/1/5 115/1/5
f 117/2/5 107/2/5 106/2/5
f 117/1/5 106/1/5 116/1/5
f 118/1/5 98/1/5 107/1/5
f 118/2/5 107/2/5 117/2/5
f 119/2/5 109/2/5 108/2/5
f 119/1/5 98/1/5 118/1/5
f 119/2/5 108/2/5 98/2/5
f 120/1/5 111/1/5 110/1/5
f 120/2/5 109/2/5 119/2/5
f 120/1/5 110/1/5 109/1/5
f 121/1/5 111/1/5 120/1/5
f 122/2/5 112/2/5 111/2/5
f 122/1/5 111/1/5 121/1/5
f 123/1/5 114/1/5 113/1/5
f 123/2/5 113/2/5 102/2/5
f 124/2/5 103/2/5 114/2/5
f 124/1/5 114/1/5 123/1/5
f 125/1/5 97/1/5 103/1/5
f 125/2/5 103/2/5 124/2/5
f 126/2/5 116/2/5 115/2/5
f 126/1/5 97/1/5 125/1/5
f 126/2/5 115/2/5 97/2/5
f 127/1/5 118/1/5 117/1/5
f 127/2/5 116/2/5 126/2/5
f 127/1/5 117/1/5 116/1/5
f 128/2/5 119/2/5 118/2/5
f 128/1/5 118/1/5 127/1/5
f 129/1/5 121/1/5 120/1/5
f 129/1/5 120/1/5 119/1/5
f 130/2/5 122/2/5 121/2/5
f 130/1/5 121/1/5 129/1/5
f 131/2/5 112/2/5 122/2/5
f 131/2/5 122/2/5 130/2/5
f 132/2/5 112/2/5 131/2/5
f 133/2/5 123/2/5 102/2/5
f 133/2/5 126/2/5 125/2/5
f 133/2/5 124/2/5 123/2/5
f 133/2/5 125/2/5 124/2/5
f 133/2/5 127/2/5 126/2/5
f 133/2/5 128/2/5 127/2/5
f 134/2/5 128/2/5 133/2/5
f 135/2/5 128/2/5 134/2/5
f 136/2/5 128/2/5 135/2/5
f 137/2/5 128/2/5 136/2/5
f 138/2/5 119/2/5 128/2/5
f 138/2/5 128/2/5 137/2/5
f 139/1/5 129/1/5 119/1/5
f 139/2/5 119/2/5 138/2/5
f 140/1/5 129/1/5 139/1/5
f 141/2/5 131/2/5 130/2/5
f 141/1/5 129/1/5 140/1/5
f 141/2/5 130/2/5 129/2/5
f 142/2/5 131/2/5 141/2/5
f 143/1/5 134/1/5 133/1/5
f 143/2/5 135/2/5 134/2/5
f 144/2/5 135/2/5 143/2/5
f 145/2/5 137/2/5 136/2/5
f 145/1/5 138/1/5 137/1/5
f 146/2/5 140/2/5 139/2/5
f 146/1/5 138/1/5 145/1/5
f 146/2/5 139/2/5 138/2/5
f 147/2/5 140/2/5 146/2/5
f 148/1/5 142/1/5 141/1/5
f 148/1/5 141/1/5 140/1/5
f 149/2/5 131/2/5 142/2/5
f 149/1/5 142/1/5 148/1/5
f 150/1/5 132/1/5 131/1/5
f 150/2/5 131/2/5 149/2/5
f 151/1/5 132/1/5 150/1/5
f 152/1/5 144/1/5 143/1/5
f 152/1/5 143/1/5 133/1/5
f 153/1/5 144/1/5 152/1/5
f 154/2/5 135/2/5 144/2/5
f 154/1/5 144/1/5 153/1/5
f 155/1/5 136/1/5 135/1/5
f 155/2/5 135/2/5 154/2/5
f 156/1/5 136/1/5 155/1/5
f 157/2/5 145/2/5 136/2/5
f 157/1/5 136/1/5 156/1/5
f 157/2/5 146/2/5 145/2/5
f 158/1/5 147/1/5 146/1/5
f 158/2/5 146/2/5 157/2/5
f 159/2/5 140/2/5 147/2/5
f 159/1/5 147/1/5 158/1/5
f 160/2/5 140/2/5 159/2/5
f 161/1/5 148/1/5 140/1/5
f 161/2/5 140/2/5 160/2/5
f 162/2/5 149/2/5 148/2/5
f 162/1/5 148/1/5 161/1/5
f 162/2/5 151/2/5 150/2/5
f 162/2/5 150/2/5 149/2/5
f 163/2/5 151/2/5 162/2/5
f 164/2/5 151/2/5 163/2/5
f 165/2/5 151/2/5 164/2/5
f 166/2/5 151/2/5 165/2/5
f 167/2/5 153/2/5 152/2/5
f 167/1/5 152/1/5 133/1/5
f 168/1/5 156/1/5 155/1/5
f 168/2/5 153/2/5 167/2/5
f 168/1/5 154/1/5 153/1/5
f 168/1/5 155/1/5 154/1/5
f 169/1/5 156/1/5 168/1/5
f 170/1/5 156/1/5 169/1/5
f 171/2/5 157/2/5 156/2/5
f 171/1/5 156/1/5 170/1/5
f 172/2/5 159/2/5 158/2/5
f 172/1/5 158/1/5 157/1/5
f 173/1/5 160/1/5 159/1/5
f 173/2/5 159/2/5 172/2/5
f 174/2/5 161/2/5 160/2/5
f 174/1/5 160/1/5 173/1/5
f 174/2/5 162/2/5 161/2/5
f 174/2/5 163/2/5 162/2/5
f 175/2/5 163/2/5 174/2/5
f 176/1/5 164/1/5 163/1/5
f 176/2/5 163/2/5 175/2/5
f 177/2/5 165/2/5 164/2/5
f 177/1/5 164/1/5 176/1/5
f 178/1/5 167/1/5 133/1/5
f 178/1/5 168/1/5 167/1/5
f 179/2/5 169/2/5 168/2/5
f 179/1/5 168/1/5 178/1/5
f 180/1/5 170/1/5 169/1/5
f 180/2/5 169/2/5 179/2/5
f 181/2/5 171/2/5 170/2/5
f 181/1/5 170/1/5 180/1/5
f 182/1/5 173/1/5 172/1/5
f 182/2/5 171/2/5 181/2/5
f 182/2/5 157/2/5 171/2/5
f 182/1/5 172/1/5 157/1/5
f 183/1/5 173/1/5 182/1/5
f 184/1/5 173/1/5 183/1/5
f 185/2/5 174/2/5 173/2/5
f 185/1/5 173/1/5 184/1/5
f 185/2/5 175/2/5 174/2/5
f 186/2/5 175/2/5 185/2/5
f 187/2/5 175/2/5 186/2/5
f 188/2/5 165/2/5 177/2/5
f 188/2/5 177/2/5 176/2/5
f 189/1/5 166/1/5 165/1/5
f 189/2/5 165/2/5 188/2/5
f 190/1/5 166/1/5 189/1/5
f 191/2/5 181/2/5 180/2/5
f 191/2/5 180/2/5 179/2/5
f 191/2/5 179/2/5 178/2/5
f 192/1/5 182/1/5 181/1/5
f 192/2/5 181/2/5 191/2/5
f 193/1/5 182/1/5 192/1/5
f 194/1/5 184/1/5 183/1/5
f 194/2/5 183/2/5 182/2/5
f 195/2/5 185/2/5 184/2/5
f 195/1/5 184/1/5 194/1/5
f 195/2/5 186/2/5 185/2/5
f 196/2/5 186/2/5 195/2/5
f 197/1/5 187/1/5 186/1/5
f 197/2/5 186/2/5 196/2/5
f 198/2/5 175/2/5 187/2/5
f 198/1/5 176/1/5 175/1/5
f 199/2/5 188/2/5 176/2/5
f 199/1/5 176/1/5 198/1/5
f 200/1/5 189/1/5 188/1/5
f 200/2/5 188/2/5 199/2/5
f 201/2/5 190/2/5 189/2/5
f 201/1/5 189/1/5 200/1/5
f 202/1/5 192/1/5 191/1/5
f 203/1/5 192/1/5 202/1/5
f 204/1/5 192/1/5 203/1/5
f 205/2/5 193/2/5 192/2/5
f 205/1/5 192/1/5 204/1/5
f 206/1/5 182/1/5 193/1/5
f 206/2/5 193/2/5 205/2/5
f 207/2/5 196/2/5 195/2/5
f 207/1/5 182/1/5 206/1/5
f 207/2/5 194/2/5 182/2/5
f 207/2/5 195/2/5 194/2/5
f 208/2/5 196/2/5 207/2/5
f 209/1/5 197/1/5 196/1/5
f 209/2/5 196/2/5 208/2/5
f 210/1/5 187/1/5 197/1/5
f 210/1/5 197/1/5 209/1/5
f 210/2/5 199/2/5 198/2/5
f 210/2/5 198/2/5 187/2/5
f 211/1/5 200/1/5 199/1/5
f 211/2/5 201/2/5 200/2/5
f 212/2/5 190/2/5 201/2/5
f 212/2/5 201/2/5 211/2/5
f 213/1/5 202/1/5 191/1/5
f 214/2/5 203/2/5 202/2/5
f 214/1/5 202/1/5 213/1/5
f 215/2/5 205/2/5 204/2/5
f 215/2/5 206/2/5 205/2/5
f 215/2/5 207/2/5 206/2/5
f 216/1/5 208/1/5 207/1/5
f 216/2/5 207/2/5 215/2/5
f 217/1/5 208/1/5 216/1/5
f 218/2/5 209/2/5 208/2/5
f 218/2/5 210/2/5 209/2/5
f 219/2/5 199/2/5 210/2/5
f 219/2/5 210/2/5 218/2/5
f 220/1/5 212/1/5 211/1/5
f 220/2/5 199/2/5 219/2/5
f 220/1/5 211/1/5 199/1/5
f 221/1/5 212/1/5 220/1/5
f 222/1/5 212/1/5 221/1/5
f 223/1/5 212/1/5 222/1/5
f 224/2/5 214/2/5 213/2/5
f 225/2/5 203/2/5 214/2/5
f 225/2/5 214/2/5 224/2/5
f 225/1/5 204/1/5 203/1/5
f 226/2/5 215/2/5 204/2/5
f 226/1/5 204/1/5 225/1/5
f 227/2/5 215/2/5 226/2/5
f 228/1/5 216/1/5 215/1/5
f 228/2/5 215/2/5 227/2/5
f 229/2/5 217/2/5 216/2/5
f 229/1/5 216/1/5 228/1/5
f 230/1/5 208/1/5 217/1/5
f 230/2/5 217/2/5 229/2/5
f 231/2/5 218/2/5 208/2/5
f 231/1/5 208/1/5 230/1/5
f 232/2/5 218/2/5 231/2/5
f 233/1/5 219/1/5 218/1/5
f 233/2/5 218/2/5 232/2/5
f 234/2/5 220/2/5 219/2/5
f 234/1/5 219/1/5 233/1/5
f 234/2/5 221/2/5 220/2/5
f 235/2/5 221/2/5 234/2/5
f 236/1/5 222/1/5 221/1/5
f 236/2/5 221/2/5 235/2/5
f 237/2/5 223/2/5 222/2/5
f 237/1/5 222/1/5 236/1/5
f 238/1/5 225/1/5 224/1/5
f 239/1/5 225/1/5 238/1/5
f 240/1/5 227/1/5 226/1/5
f 240/2/5 226/2/5 225/2/5
f 241/2/5 229/2/5 228/2/5
f 241/1/5 227/1/5 240/1/5
f 241/2/5 228/2/5 227/2/5
f 242/1/5 230/1/5 229/1/5
f 242/2/5 229/2/5 241/2/5
f 243/2/5 231/2/5 230/2/5
f 243/1/5 230/1/5 242/1/5
f 244/1/5 232/1/5 231/1/5
f 244/2/5 231/2/5 243/2/5
f 245/2/5 233/2/5 232/2/5
f 245/1/5 232/1/5 244/1/5
f 245/2/5 235/2/5 234/2/5
f 245/2/5 234/2/5 233/2/5
f 246/2/5 235/2/5 245/2/5
f 247/2/5 235/2/5 246/2/5
f 248/2/5 235/2/5 247/2/5
f 249/1/5 236/1/5 235/1/5
f 249/2/5 235/2/5 248/2/5
f 250/2/5 237/2/5 236/2/5
f 250/1/5 236/1/5 249/1/5
f 251/2/5 223/2/5 237/2/5
f 251/2/5 237/2/5 250/2/5
f 252/2/5 239/2/5 238/2/5
f 253/1/5 225/1/5 239/1/5
f 253/2/5 239/2/5 252/2/5
f 254/2/5 240/2/5 225/2/5
f 254/1/5 225/1/5 253/1/5
f 254/2/5 241/2/5 240/2/5
f 254/2/5 243/2/5 242/2/5
f 254/2/5 244/2/5 243/2/5
f 254/2/5 246/2/5 245/2/5
f 254/2/5 245/2/5 244/2/5
f 254/2/5 242/2/5 241/2/5
f 255/1/5 247/1/5 246/1/5
f 255/2/5 246/2/5 254/2/5
f 256/2/5 248/2/5 247/2/5
f 256/1/5 247/1/5 255/1/5
f 257/1/5 249/1/5 248/1/5
f 257/2/5 248/2/5 256/2/5
f 258/2/5 250/2/5 249/2/5
f 258/1/5 249/1/5 257/1/5
f 259/1/5 251/1/5 250/1/5
f 259/2/5 250/2/5 258/2/5
f 260/1/5 251/1/5 259/1/5
f 261/2/6 262/2/6 269/2/6
f 262/1/6 263/1/6 270/1/6
f 269/2/6 262/2/6 270/2/6
f 263/2/6 264/2/6 271/2/6
f 270/1/6 263/1/6 271/1/6
f 264/1/6 265/1/6 272/1/6
f 271/2/6 264/2/6 272/2/6
f 272/1/6 265/1/6 273/1/6
f 265/2/6 266/2/6 274/2/6
f 273/1/6 265/1/6 274/1/6
f 266/1/6 267/1/6 275/1/6
f 274/2/6 266/2/6 275/2/6
f 267/2/6 268/2/6 276/2/6
f 276/2/6 268/2/6 277/2/6
f 277/2/6 268/2/6 278/2/6
f 278/2/6 268/2/6 279/2/6
f 269/1/6 270/1/6 280/1/6
f 270/2/6 271/2/6 280/2/6
f 272/2/6 273/2/6 280/2/6
f 271/2/6 272/2/6 280/2/6
f 280/2/6 273/2/6 281/2/6
f 273/1/6 274/1/6 282/1/6
f 274/1/6 275/1/6 282/1/6
f 275/1/6 267/1/6 283/1/6
f 282/1/6 275/1/6 283/1/6
f 277/2/6 278/2/6 284/2/6
f 276/1/6 277/1/6 284/1/6
f 278/1/6 279/1/6 285/1/6
f 284/2/6 278/2/6 285/2/6
f 280/1/6 281/1/6 286/1/6
f 269/1/6 280/1/6 286/1/6
f 286/1/6 281/1/6 287/1/6
f 281/2/6 273/2/6 288/2/6
f 273/1/6 282/1/6 289/1/6
f 288/2/6 273/2/6 289/2/6
f 289/1/6 282/1/6 290/1/6
f 290/1/6 282/1/6 291/1/6
f 283/1/6 267/1/6 292/1/6
f 282/2/6 283/2/6 292/2/6
f 267/2/6 276/2/6 293/2/6
f 292/1/6 267/1/6 293/1/6
f 276/1/6 284/1/6 294/1/6
f 293/2/6 276/2/6 294/2/6
f 284/1/6 285/1/6 294/1/6
f 294/1/6 285/1/6 295/1/6
f 285/1/6 279/1/6 296/1/6
f 295/1/6 285/1/6 296/1/6
f 286/2/6 287/2/6 297/2/6
f 297/2/6 287/2/6 298/2/6
f 281/2/6 288/2/6 299/2/6
f 289/1/6 290/1/6 299/1/6
f 288/1/6 289/1/6 299/1/6
f 299/1/6 290/1/6 300/1/6
f 290/2/6 291/2/6 301/2/6
f 300/1/6 290/1/6 301/1/6
f 291/1/6 282/1/6 302/1/6
f 301/2/6 291/2/6 302/2/6
f 292/2/6 293/2/6 303/2/6
f 302/1/6 282/1/6 303/1/6
f 282/2/6 292/2/6 303/2/6
f 294/1/6 295/1/6 304/1/6
f 303/2/6 293/2/6 304/2/6
f 293/1/6 294/1/6 304/1/6
f 304/1/6 295/1/6 305/1/6
f 295/2/6 296/2/6 306/2/6
f 305/1/6 295/1/6 306/1/6
f 297/1/6 298/1/6 307/1/6
f 286/2/6 297/2/6 307/2/6
f 298/2/6 287/2/6 308/2/6
f 307/1/6 298/1/6 308/1/6
f 287/1/6 281/1/6 309/1/6
f 308/2/6 287/2/6 309/2/6
f 299/2/6 300/2/6 310/2/6
f 309/1/6 281/1/6 310/1/6
f 281/2/6 299/2/6 310/2/6
f 301/1/6 302/1/6 311/1/6
f 310/2/6 300/2/6 311/2/6
f 300/1/6 301/1/6 311/1/6
f 302/2/6 303/2/6 312/2/6
f 311/1/6 302/1/6 312/1/6
f 304/1/6 305/1/6 313/1/6
f 303/1/6 304/1/6 313/1/6
f 305/2/6 306/2/6 314/2/6
f 313/1/6 305/1/6 314/1/6
f 306/2/6 296/2/6 315/2/6
f 314/2/6 306/2/6 315/2/6
f 315/2/6 296/2/6 316/2/6
f 286/2/6 307/2/6 317/2/6
f 309/2/6 310/2/6 317/2/6
f 307/2/6 308/2/6 317/2/6
f 308/2/6 309/2/6 317/2/6
f 310/2/6 311/2/6 317/2/6
f 311/2/6 312/2/6 317/2/6
f 317/2/6 312/2/6 318/2/6
f 318/2/6 312/2/6 319/2/6
f 319/2/6 312/2/6 320/2/6
f 320/2/6 312/2/6 321/2/6
f 312/2/6 303/2/6 322/2/6
f 321/2/6 312/2/6 322/2/6
f 303/1/6 313/1/6 323/1/6
f 322/2/6 303/2/6 323/2/6
f 323/1/6 313/1/6 324/1/6
f 314/2/6 315/2/6 325/2/6
f 324/1/6 313/1/6 325/1/6
f 313/2/6 314/2/6 325/2/6
f 325/2/6 315/2/6 326/2/6
f 317/1/6 318/1/6 327/1/6
f 318/2/6 319/2/6 327/2/6
f 327/2/6 319/2/6 328/2/6
f 320/2/6 321/2/6 329/2/6
f 321/1/6 322/1/6 329/1/6
f 323/2/6 324/2/6 330/2/6
f 329/1/6 322/1/6 330/1/6
f 322/2/6 323/2/6 330/2/6
f 330/2/6 324/2/6 331/2/6
f 325/1/6 326/1/6 332/1/6
f 324/1/6 325/1/6 332/1/6
f 326/2/6 315/2/6 333/2/6
f 332/1/6 326/1/6 333/1/6
f 315/1/6 316/1/6 334/1/6
f 333/2/6 315/2/6 334/2/6
f 334/1/6 316/1/6 335/1/6
f 327/1/6 328/1/6 336/1/6
f 317/1/6 327/1/6 336/1/6
f 336/1/6 328/1/6 337/1/6
f 328/2/6 319/2/6 338/2/6
f 337/1/6 328/1/6 338/1/6
f 319/1/6 320/1/6 339/1/6
f 338/2/6 319/2/6 339/2/6
f 339/1/6 320/1/6 340/1/6
f 320/2/6 329/2/6 341/2/6
f 340/1/6 320/1/6 341/1/6
f 329/2/6 330/2/6 341/2/6
f 330/1/6 331/1/6 342/1/6
f 341/2/6 330/2/6 342/2/6
f 331/2/6 324/2/6 343/2/6
f 342/1/6 331/1/6 343/1/6
f 343/2/6 324/2/6 344/2/6
f 324/1/6 332/1/6 345/1/6
f 344/2/6 324/2/6 345/2/6
f 332/2/6 333/2/6 346/2/6
f 345/1/6 332/1/6 346/1/6
f 334/2/6 335/2/6 346/2/6
f 333/2/6 334/2/6 346/2/6
f 346/2/6 335/2/6 347/2/6
f 347/2/6 335/2/6 348/2/6
f 348/2/6 335/2/6 349/2/6
f 349/2/6 335/2/6 350/2/6
f 336/2/6 337/2/6 351/2/6
f 317/1/6 336/1/6 351/1/6
f 339/1/6 340/1/6 352/1/6
f 351/2/6 337/2/6 352/2/6
f 337/1/6 338/1/6 352/1/6
f 338/1/6 339/1/6 352/1/6
f 352/1/6 340/1/6 353/1/6
f 353/1/6 340/1/6 354/1/6
f 340/2/6 341/2/6 355/2/6
f 354/1/6 340/1/6 355/1/6
f 342/2/6 343/2/6 356/2/6
f 341/1/6 342/1/6 356/1/6
f 343/1/6 344/1/6 357/1/6
f 356/2/6 343/2/6 357/2/6
f 344/2/6 345/2/6 358/2/6
f 357/1/6 344/1/6 358/1/6
f 345/2/6 346/2/6 358/2/6
f 346/2/6 347/2/6 358/2/6
f 358/2/6 347/2/6 359/2/6
f 347/1/6 348/1/6 360/1/6
f 359/2/6 347/2/6 360/2/6
f 348/2/6 349/2/6 361/2/6
f 360/1/6 348/1/6 361/1/6
f 317/1/6 351/1/6 362/1/6
f 351/1/6 352/1/6 362/1/6
f 352/2/6 353/2/6 363/2/6
f 362/1/6 352/1/6 363/1/6
f 353/1/6 354/1/6 364/1/6
f 363/2/6 353/2/6 364/2/6
f 354/2/6 355/2/6 365/2/6
f 364/1/6 354/1/6 365/1/6
f 356/1/6 357/1/6 366/1/6
f 365/2/6 355/2/6 366/2/6
f 355/2/6 341/2/6 366/2/6
f 341/1/6 356/1/6 366/1/6
f 366/1/6 357/1/6 367/1/6
f 367/1/6 357/1/6 368/1/6
f 357/2/6 358/2/6 369/2/6
f 368/1/6 357/1/6 369/1/6
f 358/2/6 359/2/6 369/2/6
f 369/2/6 359/2/6 370/2/6
f 370/2/6 359/2/6 371/2/6
f 361/2/6 349/2/6 372/2/6
f 360/2/6 361/2/6 372/2/6
f 349/1/6 350/1/6 373/1/6
f 372/2/6 349/2/6 373/2/6
f 373/1/6 350/1/6 374/1/6
f 364/2/6 365/2/6 375/2/6
f 363/2/6 364/2/6 375/2/6
f 362/2/6 363/2/6 375/2/6
f 365/1/6 366/1/6 376/1/6
f 375/2/6 365/2/6 376/2/6
f 376/1/6 366/1/6 377/1/6
f 367/1/6 368/1/6 378/1/6
f 366/2/6 367/2/6 378/2/6
f 368/2/6 369/2/6 379/2/6
f 378/1/6 368/1/6 379/1/6
f 369/2/6 370/2/6 379/2/6
f 379/2/6 370/2/6 380/2/6
f 370/1/6 371/1/6 381/1/6
f 380/2/6 370/2/6 381/2/6
f 371/2/6 359/2/6 382/2/6
f 359/1/6 360/1/6 382/1/6
f 360/2/6 372/2/6 383/2/6
f 382/1/6 360/1/6 383/1/6
f 372/1/6 373/1/6 384/1/6
f 383/2/6 372/2/6 384/2/6
f 373/2/6 374/2/6 385/2/6
f 384/1/6 373/1/6 385/1/6
f 375/1/6 376/1/6 386/1/6
f 386/1/6 376/1/6 387/1/6
f 387/1/6 376/1/6 388/1/6
f 376/2/6 377/2/6 389/2/6
f 388/1/6 376/1/6 389/1/6
f 377/1/6 366/1/6 390/1/6
f 389/2/6 377/2/6 390/2/6
f 379/2/6 380/2/6 391/2/6
f 390/1/6 366/1/6 391/1/6
f 366/2/6 378/2/6 391/2/6
f 378/2/6 379/2/6 391/2/6
f 391/2/6 380/2/6 392/2/6
f 380/1/6 381/1/6 393/1/6
f 392/2/6 380/2/6 393/2/6
f 381/1/6 371/1/6 394/1/6
f 393/1/6 381/1/6 394/1/6
f 382/2/6 383/2/6 394/2/6
f 371/2/6 382/2/6 394/2/6
f 383/1/6 384/1/6 395/1/6
f 384/2/6 385/2/6 395/2/6
f 385/2/6 374/2/6 396/2/6
f 395/2/6 385/2/6 396/2/6
f 375/1/6 386/1/6 397/1/6
f 386/2/6 387/2/6 398/2/6
f 397/1/6 386/1/6 398/1/6
f 388/2/6 389/2/6 399/2/6
f 389/2/6 390/2/6 399/2/6
f 390/2/6 391/2/6 399/2/6
f 391/1/6 392/1/6 400/1/6
f 399/2/6 391/2/6 400/2/6
f 400/1/6 392/1/6 401/1/6
f 392/2/6 393/2/6 402/2/6
f 393/2/6 394/2/6 402/2/6
f 394/2/6 383/2/6 403/2/6
f 402/2/6 394/2/6 403/2/6
f 395/1/6 396/1/6 404/1/6
f 403/2/6 383/2/6 404/2/6
f 383/1/6 395/1/6 404/1/6
f 404/1/6 396/1/6 405/1/6
f 405/1/6 396/1/6 406/1/6
f 406/1/6 396/1/6 407/1/6
f 397/2/6 398/2/6 408/2/6
f 398/2/6 387/2/6 409/2/6
f 408/2/6 398/2/6 409/2/6
f 387/1/6 388/1/6 409/1/6
f 388/2/6 399/2/6 410/2/6
f 409/1/6 388/1/6 410/1/6
f 410/2/6 399/2/6 411/2/6
f 399/1/6 400/1/6 412/1/6
f 411/2/6 399/2/6 412/2/6
f 400/2/6 401/2/6 413/2/6
f 412/1/6 400/1/6 413/1/6
f 401/1/6 392/1/6 414/1/6
f 413/2/6 401/2/6 414/2/6
f 392/2/6 402/2/6 415/2/6
f 414/1/6 392/1/6 415/1/6
f 415/2/6 402/2/6 416/2/6
f 402/1/6 403/1/6 417/1/6
f 416/2/6 402/2/6 417/2/6
f 403/2/6 404/2/6 418/2/6
f 417/1/6 403/1/6 418/1/6
f 404/2/6 405/2/6 418/2/6
f 418/2/6 405/2/6 419/2/6
f 405/1/6 406/1/6 420/1/6
f 419/2/6 405/2/6 420/2/6
f 406/2/6 407/2/6 421/2/6
f 420/1/6 406/1/6 421/1/6
f 408/1/6 409/1/6 422/1/6
f 422/1/6 409/1/6 423/1/6
f 410/1/6 411/1/6 424/1/6
f 409/2/6 410/2/6 424/2/6
f 412/2/6 413/2/6 425/2/6
f 424/1/6 411/1/6 425/1/6
f 411/2/6 412/2/6 425/2/6
f 413/1/6 414/1/6 426/1/6
f 425/2/6 413/2/6 426/2/6
f 414/2/6 415/2/6 427/2/6
f 426/1/6 414/1/6 427/1/6
f 415/1/6 416/1/6 428/1/6
f 427/2/6 415/2/6 428/2/6
f 416/2/6 417/2/6 429/2/6
f 428/1/6 416/1/6 429/1/6
f 418/2/6 419/2/6 429/2/6
f 417/2/6 418/2/6 429/2/6
f 429/2/6 419/2/6 430/2/6
f 430/2/6 419/2/6 431/2/6
f 431/2/6 419/2/6 432/2/6
f 419/1/6 420/1/6 433/1/6
f 432/2/6 419/2/6 433/2/6
f 420/2/6 421/2/6 434/2/6
f 433/1/6 420/1/6 434/1/6
f 421/2/6 407/2/6 435/2/6
f 434/2/6 421/2/6 435/2/6
f 422/2/6 423/2/6 436/2/6
f 423/1/6 409/1/6 437/1/6
f 436/2/6 423/2/6 437/2/6
f 409/2/6 424/2/6 438/2/6
f 437/1/6 409/1/6 438/1/6
f 424/2/6 425/2/6 438/2/6
f 426/2/6 427/2/6 438/2/6
f 427/2/6 428/2/6 438/2/6
f 429/2/6 430/2/6 438/2/6
f 428/2/6 429/2/6 438/2/6
f 425/2/6 426/2/6 438/2/6
f 430/1/6 431/1/6 439/1/6
f 438/2/6 430/2/6 439/2/6
f 431/2/6 432/2/6 440/2/6
f 439/1/6 431/1/6 440/1/6
f 432/1/6 433/1/6 441/1/6
f 440/2/6 432/2/6 441/2/6
f 433/2/6 434/2/6 442/2/6
f 441/1/6 433/1/6 442/1/6
f 434/1/6 435/1/6 443/1/6
f 442/2/6 434/2/6 443/2/6
f 443/1/6 435/1/6 444/1/6
