# MagicaVoxel @ Ephtracy

# group
o tomato_growth0

# material
mtllib farm-8-tomato_growth0.mtl
usemtl palette

# normals
vn -1 0 0
vn 1 0 0
vn 0 0 1
vn 0 0 -1
vn 0 -1 0
vn 0 1 0

# texcoords
vt 0.310547 0.5
vt 0.556641 0.5

# verts
v 1.6 0 4.2
v 1.6 0 4.1
v 1.6 0 4
v 1.6 0.1 4.1
v 1.6 0.1 4
v 1.6 0.8 4.2
v 1.6 0.8 4.1
v 1.7 0 4.2
v 1.7 0 4.1
v 1.7 0 4
v 1.7 0.1 4.1
v 1.7 0.1 4
v 1.7 0.8 4.2
v 1.7 0.8 4.1
v 1.6 0 4.2
v 1.6 0.8 4.2
v 1.7 0 4.2
v 1.7 0.8 4.2
v 1.6 0.1 4.1
v 1.6 0.8 4.1
v 1.7 0.1 4.1
v 1.7 0.8 4.1
v 1.6 0 4
v 1.6 0.1 4
v 1.7 0 4
v 1.7 0.1 4
v 1.6 0 4.2
v 1.7 0 4.2
v 1.6 0 4.1
v 1.7 0 4.1
v 1.6 0 4
v 1.7 0 4
v 1.6 0.1 4.1
v 1.7 0.1 4.1
v 1.6 0.1 4
v 1.7 0.1 4
v 1.6 0.8 4.2
v 1.7 0.8 4.2
v 1.6 0.8 4.1
v 1.7 0.8 4.1

# faces
f 4/1/1 2/1/1 1/1/1
f 4/2/1 3/2/1 2/2/1
f 5/2/1 3/2/1 4/2/1
f 6/1/1 4/1/1 1/1/1
f 7/1/1 4/1/1 6/1/1
f 8/1/2 9/1/2 11/1/2
f 9/2/2 10/2/2 11/2/2
f 11/2/2 10/2/2 12/2/2
f 8/1/2 11/1/2 13/1/2
f 13/1/2 11/1/2 14/1/2
f 17/1/3 16/1/3 15/1/3
f 18/1/3 16/1/3 17/1/3
f 19/1/4 20/1/4 21/1/4
f 21/1/4 20/1/4 22/1/4
f 23/2/4 24/2/4 25/2/4
f 25/2/4 24/2/4 26/2/4
f 29/1/5 28/1/5 27/1/5
f 30/1/5 28/1/5 29/1/5
f 31/2/5 30/2/5 29/2/5
f 32/2/5 30/2/5 31/2/5
f 33/2/6 34/2/6 35/2/6
f 35/2/6 34/2/6 36/2/6
f 37/1/6 38/1/6 39/1/6
f 39/1/6 38/1/6 40/1/6
