# MagicaVoxel @ Ephtracy

# group
o seed_beet

# material
mtllib farm-5-seed_beet.mtl
usemtl palette

# normals
vn -1 0 0
vn 1 0 0
vn 0 0 1
vn 0 0 -1
vn 0 -1 0
vn 0 1 0

# texcoords
vt 0.412109 0.5
vt 0.435547 0.5
vt 0.443359 0.5
vt 0.466797 0.5
vt 0.626953 0.5
vt 0.826172 0.5
vt 0.857422 0.5
vt 0.994141 0.5

# verts
v -11 0.1 -0.3
v -11 0.1 -0.5
v -11 0.1 -0.6
v -11 0.1 -0.7
v -11 0.1 -0.8
v -11 0.1 -0.9
v -11 0.1 -1.1
v -11 0.1 -1.3
v -11 0.2 -0.4
v -11 0.2 -0.5
v -11 0.2 -0.6
v -11 0.2 -0.7
v -11 0.2 -0.8
v -11 0.2 -0.9
v -11 0.2 -1
v -11 0.2 -1.1
v -11 0.2 -1.2
v -11 0.3 -0.3
v -11 0.3 -0.4
v -11 0.3 -0.5
v -11 0.3 -0.6
v -11 0.3 -0.7
v -11 0.3 -0.9
v -11 0.3 -1
v -11 0.3 -1.1
v -11 0.3 -1.2
v -11 0.3 -1.3
v -11 0.4 -0.3
v -11 0.4 -0.6
v -11 0.4 -0.7
v -11 0.4 -0.9
v -11 0.4 -1.1
v -11 0.4 -1.3
v -11 0.5 -0.3
v -11 0.5 -0.4
v -11 0.5 -0.5
v -11 0.5 -0.8
v -11 0.5 -1
v -11 0.5 -1.3
v -11 0.6 -0.4
v -11 0.6 -0.5
v -11 0.6 -0.6
v -11 0.6 -0.7
v -11 0.6 -0.8
v -11 0.6 -1
v -11 0.6 -1.1
v -11 0.7 -0.4
v -11 0.7 -0.5
v -11 0.7 -0.6
v -11 0.7 -0.7
v -11 0.7 -0.8
v -11 0.7 -0.9
v -11 0.7 -1.1
v -11 0.7 -1.2
v -11 0.8 -0.4
v -11 0.8 -0.5
v -11 0.8 -0.6
v -11 0.8 -0.7
v -11 0.8 -1
v -11 0.8 -1.1
v -11 0.8 -1.2
v -11 0.9 -0.4
v -11 0.9 -0.5
v -11 0.9 -0.6
v -11 0.9 -0.7
v -11 0.9 -0.8
v -11 0.9 -0.9
v -11 0.9 -1
v -11 0.9 -1.1
v -11 1 -0.3
v -11 1 -0.4
v -11 1 -0.5
v -11 1 -0.8
v -11 1 -1
v -11 1 -1.3
v -11 1.1 -0.3
v -11 1.1 -0.4
v -11 1.1 -0.7
v -11 1.1 -0.9
v -11 1.1 -1
v -11 1.1 -1.2
v -11 1.1 -1.3
v -11 1.2 -0.3
v -11 1.2 -0.4
v -11 1.2 -0.5
v -11 1.2 -0.7
v -11 1.2 -0.8
v -11 1.2 -1
v -11 1.2 -1.2
v -11 1.2 -1.3
v -11 1.3 -0.3
v -11 1.3 -0.4
v -11 1.3 -0.7
v -11 1.3 -0.8
v -11 1.3 -1
v -11 1.3 -1.1
v -11 1.3 -1.2
v -11 1.3 -1.3
v -11 1.4 -0.4
v -11 1.4 -0.5
v -11 1.4 -0.6
v -11 1.4 -0.9
v -11 1.4 -1
v -11 1.4 -1.1
v -11 1.4 -1.2
v -11 1.5 -0.3
v -11 1.5 -0.6
v -11 1.5 -0.9
v -11 1.5 -1
v -11 1.5 -1.1
v -10.9 0 -0.3
v -10.9 0 -1.3
v -10.9 0.1 -0.2
v -10.9 0.1 -0.3
v -10.9 0.1 -0.5
v -10.9 0.1 -0.6
v -10.9 0.1 -0.7
v -10.9 0.1 -0.8
v -10.9 0.1 -0.9
v -10.9 0.1 -1.1
v -10.9 0.1 -1.3
v -10.9 0.1 -1.4
v -10.9 0.3 -0.3
v -10.9 0.3 -1.3
v -10.9 0.4 -0.3
v -10.9 0.4 -1.3
v -10.9 0.5 -0.3
v -10.9 0.5 -1.3
v -10.9 1 -0.3
v -10.9 1 -1.3
v -10.9 1.1 -0.3
v -10.9 1.1 -1.3
v -10.9 1.2 -0.3
v -10.9 1.2 -1.3
v -10.9 1.3 -0.3
v -10.9 1.3 -1.3
v -10.9 1.3 -1.4
v -10.9 1.5 -0.2
v -10.9 1.5 -0.3
v -10.9 1.5 -0.6
v -10.9 1.5 -0.9
v -10.9 1.5 -1
v -10.9 1.6 -0.3
v -10.9 1.6 -1
v -10.8 1.1 -1.2
v -10.8 1.1 -1.3
v -10.8 1.2 -1.2
v -10.8 1.2 -1.3
v -10.8 1.3 -1.1
v -10.8 1.3 -1.2
v -10.8 1.4 -1
v -10.8 1.4 -1.1
v -10.8 1.4 -1.2
v -10.8 1.5 -1
v -10.8 1.5 -1.1
v -10.9 1.1 -1.2
v -10.9 1.1 -1.3
v -10.9 1.2 -1.2
v -10.9 1.2 -1.3
v -10.9 1.3 -1.1
v -10.9 1.3 -1.2
v -10.9 1.4 -1
v -10.9 1.4 -1.1
v -10.9 1.4 -1.2
v -10.9 1.5 -1
v -10.9 1.5 -1.1
v -10.8 0 -0.3
v -10.8 0 -1.3
v -10.8 0.1 -0.2
v -10.8 0.1 -0.3
v -10.8 0.1 -0.6
v -10.8 0.1 -0.8
v -10.8 0.1 -1
v -10.8 0.1 -1.1
v -10.8 0.1 -1.3
v -10.8 0.1 -1.4
v -10.8 0.2 -0.3
v -10.8 0.3 -0.3
v -10.8 0.5 -0.3
v -10.8 0.6 -0.3
v -10.8 0.6 -1.3
v -10.8 0.8 -0.3
v -10.8 0.8 -1.3
v -10.8 0.9 -0.3
v -10.8 0.9 -1.3
v -10.8 1 -1.3
v -10.8 1.1 -0.3
v -10.8 1.1 -1.3
v -10.8 1.3 -1.3
v -10.8 1.3 -1.4
v -10.8 1.4 -0.3
v -10.8 1.5 -0.2
v -10.8 1.5 -0.3
v -10.8 1.5 -0.4
v -10.8 1.5 -0.6
v -10.8 1.5 -0.8
v -10.8 1.5 -0.9
v -10.8 1.5 -1
v -10.8 1.6 -0.3
v -10.8 1.6 -1
v -10.7 0.1 -0.3
v -10.7 0.1 -0.6
v -10.7 0.1 -0.8
v -10.7 0.1 -1
v -10.7 0.1 -1.1
v -10.7 0.1 -1.3
v -10.7 0.2 -0.3
v -10.7 0.2 -0.4
v -10.7 0.2 -0.6
v -10.7 0.2 -0.7
v -10.7 0.2 -0.8
v -10.7 0.2 -1
v -10.7 0.2 -1.1
v -10.7 0.2 -1.2
v -10.7 0.3 -0.3
v -10.7 0.3 -0.4
v -10.7 0.3 -0.5
v -10.7 0.3 -0.7
v -10.7 0.3 -0.9
v -10.7 0.3 -1.1
v -10.7 0.3 -1.2
v -10.7 0.4 -0.4
v -10.7 0.4 -0.5
v -10.7 0.4 -0.7
v -10.7 0.4 -0.8
v -10.7 0.4 -0.9
v -10.7 0.4 -1
v -10.7 0.5 -0.3
v -10.7 0.5 -0.4
v -10.7 0.5 -0.6
v -10.7 0.5 -0.7
v -10.7 0.5 -0.8
v -10.7 0.6 -0.3
v -10.7 0.6 -0.5
v -10.7 0.6 -0.6
v -10.7 0.6 -0.7
v -10.7 0.6 -0.9
v -10.7 0.6 -1
v -10.7 0.6 -1.1
v -10.7 0.6 -1.2
v -10.7 0.6 -1.3
v -10.7 0.7 -0.4
v -10.7 0.7 -0.7
v -10.7 0.7 -0.9
v -10.7 0.8 -0.3
v -10.7 0.8 -0.4
v -10.7 0.8 -0.5
v -10.7 0.8 -0.7
v -10.7 0.8 -0.9
v -10.7 0.8 -1
v -10.7 0.8 -1.1
v -10.7 0.8 -1.2
v -10.7 0.8 -1.3
v -10.7 0.9 -0.3
v -10.7 0.9 -0.4
v -10.7 0.9 -0.5
v -10.7 0.9 -0.6
v -10.7 0.9 -0.7
v -10.7 0.9 -0.9
v -10.7 0.9 -1.2
v -10.7 0.9 -1.3
v -10.7 1 -0.4
v -10.7 1 -0.5
v -10.7 1 -0.6
v -10.7 1 -0.7
v -10.7 1 -1
v -10.7 1 -1.1
v -10.7 1 -1.2
v -10.7 1 -1.3
v -10.7 1.1 -0.3
v -10.7 1.1 -0.4
v -10.7 1.1 -0.5
v -10.7 1.1 -0.7
v -10.7 1.1 -0.8
v -10.7 1.1 -0.9
v -10.7 1.1 -1
v -10.7 1.1 -1.1
v -10.7 1.1 -1.2
v -10.7 1.1 -1.3
v -10.7 1.2 -0.6
v -10.7 1.2 -0.7
v -10.7 1.2 -1
v -10.7 1.2 -1.1
v -10.7 1.2 -1.2
v -10.7 1.3 -0.5
v -10.7 1.3 -0.6
v -10.7 1.3 -0.8
v -10.7 1.3 -0.9
v -10.7 1.3 -1.1
v -10.7 1.3 -1.2
v -10.7 1.3 -1.3
v -10.7 1.4 -0.3
v -10.7 1.4 -0.4
v -10.7 1.4 -0.6
v -10.7 1.4 -0.8
v -10.7 1.4 -0.9
v -10.7 1.4 -1.1
v -10.7 1.4 -1.2
v -10.7 1.5 -0.3
v -10.7 1.5 -0.4
v -10.7 1.5 -0.6
v -10.7 1.5 -0.8
v -10.7 1.5 -0.9
v -10.7 1.5 -1.1
v -10.9 0.1 -0.2
v -10.9 1.5 -0.2
v -10.8 0.1 -0.2
v -10.8 1.5 -0.2
v -11 0.1 -0.3
v -11 0.3 -0.3
v -11 0.4 -0.3
v -11 0.5 -0.3
v -11 1 -0.3
v -11 1.1 -0.3
v -11 1.2 -0.3
v -11 1.3 -0.3
v -11 1.5 -0.3
v -10.9 0 -0.3
v -10.9 0.1 -0.3
v -10.9 0.3 -0.3
v -10.9 0.4 -0.3
v -10.9 0.5 -0.3
v -10.9 1 -0.3
v -10.9 1.1 -0.3
v -10.9 1.2 -0.3
v -10.9 1.3 -0.3
v -10.9 1.5 -0.3
v -10.9 1.6 -0.3
v -10.8 0 -0.3
v -10.8 0.1 -0.3
v -10.8 0.2 -0.3
v -10.8 0.3 -0.3
v -10.8 0.5 -0.3
v -10.8 0.6 -0.3
v -10.8 0.8 -0.3
v -10.8 0.9 -0.3
v -10.8 1.1 -0.3
v -10.8 1.4 -0.3
v -10.8 1.5 -0.3
v -10.8 1.6 -0.3
v -10.7 0.1 -0.3
v -10.7 0.2 -0.3
v -10.7 0.3 -0.3
v -10.7 0.5 -0.3
v -10.7 0.6 -0.3
v -10.7 0.8 -0.3
v -10.7 0.9 -0.3
v -10.7 1.1 -0.3
v -10.7 1.4 -0.3
v -10.7 1.5 -0.3
v -10.9 1.1 -1.3
v -10.9 1.2 -1.3
v -10.8 1.1 -1.3
v -10.8 1.2 -1.3
v -10.9 1.4 -1
v -10.9 1.5 -1
v -10.9 1.6 -1
v -10.8 1.4 -1
v -10.8 1.5 -1
v -10.8 1.6 -1
v -11 1.4 -1.1
v -11 1.5 -1.1
v -10.9 1.3 -1.1
v -10.9 1.4 -1.1
v -10.9 1.5 -1.1
v -10.8 1.3 -1.1
v -10.8 1.4 -1.1
v -10.8 1.5 -1.1
v -10.7 1.4 -1.1
v -10.7 1.5 -1.1
v -11 1.3 -1.2
v -11 1.4 -1.2
v -10.9 1.1 -1.2
v -10.9 1.2 -1.2
v -10.9 1.3 -1.2
v -10.9 1.4 -1.2
v -10.8 1.1 -1.2
v -10.8 1.2 -1.2
v -10.8 1.3 -1.2
v -10.8 1.4 -1.2
v -10.7 1.3 -1.2
v -10.7 1.4 -1.2
v -11 0.1 -1.3
v -11 0.3 -1.3
v -11 0.4 -1.3
v -11 0.5 -1.3
v -11 1 -1.3
v -11 1.1 -1.3
v -11 1.2 -1.3
v -11 1.3 -1.3
v -10.9 0 -1.3
v -10.9 0.1 -1.3
v -10.9 0.3 -1.3
v -10.9 0.4 -1.3
v -10.9 0.5 -1.3
v -10.9 1 -1.3
v -10.9 1.1 -1.3
v -10.9 1.2 -1.3
v -10.9 1.3 -1.3
v -10.8 0 -1.3
v -10.8 0.1 -1.3
v -10.8 0.6 -1.3
v -10.8 0.8 -1.3
v -10.8 0.9 -1.3
v -10.8 1 -1.3
v -10.8 1.1 -1.3
v -10.8 1.3 -1.3
v -10.7 0.1 -1.3
v -10.7 0.6 -1.3
v -10.7 0.8 -1.3
v -10.7 0.9 -1.3
v -10.7 1 -1.3
v -10.7 1.1 -1.3
v -10.7 1.3 -1.3
v -10.9 0.1 -1.4
v -10.9 1.3 -1.4
v -10.8 0.1 -1.4
v -10.8 1.3 -1.4
v -10.9 0 -0.3
v -10.8 0 -0.3
v -10.9 0 -1.3
v -10.8 0 -1.3
v -10.9 0.1 -0.2
v -10.8 0.1 -0.2
v -11 0.1 -0.3
v -10.9 0.1 -0.3
v -10.8 0.1 -0.3
v -10.7 0.1 -0.3
v -11 0.1 -0.5
v -10.9 0.1 -0.5
v -11 0.1 -0.6
v -10.9 0.1 -0.6
v -10.8 0.1 -0.6
v -10.7 0.1 -0.6
v -11 0.1 -0.7
v -10.9 0.1 -0.7
v -11 0.1 -0.8
v -10.9 0.1 -0.8
v -10.8 0.1 -0.8
v -10.7 0.1 -0.8
v -11 0.1 -0.9
v -10.9 0.1 -0.9
v -10.8 0.1 -1
v -10.7 0.1 -1
v -11 0.1 -1.1
v -10.9 0.1 -1.1
v -10.8 0.1 -1.1
v -10.7 0.1 -1.1
v -11 0.1 -1.3
v -10.9 0.1 -1.3
v -10.8 0.1 -1.3
v -10.7 0.1 -1.3
v -10.9 0.1 -1.4
v -10.8 0.1 -1.4
v -10.9 1.2 -1.2
v -10.8 1.2 -1.2
v -10.9 1.2 -1.3
v -10.8 1.2 -1.3
v -10.9 1.1 -1.2
v -10.8 1.1 -1.2
v -10.9 1.1 -1.3
v -10.8 1.1 -1.3
v -10.9 1.3 -1.1
v -10.8 1.3 -1.1
v -11 1.3 -1.2
v -10.9 1.3 -1.2
v -10.8 1.3 -1.2
v -10.7 1.3 -1.2
v -11 1.3 -1.3
v -10.9 1.3 -1.3
v -10.8 1.3 -1.3
v -10.7 1.3 -1.3
v -10.9 1.3 -1.4
v -10.8 1.3 -1.4
v -10.9 1.4 -1
v -10.8 1.4 -1
v -11 1.4 -1.1
v -10.9 1.4 -1.1
v -10.8 1.4 -1.1
v -10.7 1.4 -1.1
v -11 1.4 -1.2
v -10.9 1.4 -1.2
v -10.8 1.4 -1.2
v -10.7 1.4 -1.2
v -10.9 1.5 -0.2
v -10.8 1.5 -0.2
v -11 1.5 -0.3
v -10.9 1.5 -0.3
v -10.8 1.5 -0.3
v -10.7 1.5 -0.3
v -10.8 1.5 -0.4
v -10.7 1.5 -0.4
v -11 1.5 -0.6
v -10.9 1.5 -0.6
v -10.8 1.5 -0.6
v -10.7 1.5 -0.6
v -10.8 1.5 -0.8
v -10.7 1.5 -0.8
v -11 1.5 -0.9
v -10.9 1.5 -0.9
v -10.8 1.5 -0.9
v -10.7 1.5 -0.9
v -11 1.5 -1
v -10.9 1.5 -1
v -10.8 1.5 -1
v -11 1.5 -1.1
v -10.9 1.5 -1.1
v -10.8 1.5 -1.1
v -10.7 1.5 -1.1
v -10.9 1.6 -0.3
v -10.8 1.6 -0.3
v -10.9 1.6 -1
v -10.8 1.6 -1

# faces
f 9/2/1 2/2/1 1/2/1
f 10/4/1 3/4/1 2/4/1
f 10/2/1 2/2/1 9/2/1
f 11/2/1 4/2/1 3/2/1
f 11/4/1 3/4/1 10/4/1
f 12/4/1 5/4/1 4/4/1
f 12/2/1 4/2/1 11/2/1
f 13/2/1 6/2/1 5/2/1
f 13/4/1 5/4/1 12/4/1
f 14/4/1 7/4/1 6/4/1
f 14/2/1 6/2/1 13/2/1
f 15/4/1 7/4/1 14/4/1
f 16/2/1 8/2/1 7/2/1
f 16/4/1 7/4/1 15/4/1
f 17/2/1 8/2/1 16/2/1
f 18/2/1 9/2/1 1/2/1
f 19/4/1 10/4/1 9/4/1
f 19/2/1 9/2/1 18/2/1
f 20/2/1 15/2/1 14/2/1
f 20/4/1 10/4/1 19/4/1
f 20/2/1 11/2/1 10/2/1
f 20/2/1 12/2/1 11/2/1
f 20/2/1 13/2/1 12/2/1
f 20/2/1 14/2/1 13/2/1
f 21/2/1 15/2/1 20/2/1
f 22/2/1 15/2/1 21/2/1
f 23/2/1 15/2/1 22/2/1
f 24/4/1 17/4/1 16/4/1
f 24/2/1 15/2/1 23/2/1
f 24/4/1 16/4/1 15/4/1
f 25/4/1 17/4/1 24/4/1
f 26/2/1 8/2/1 17/2/1
f 26/4/1 17/4/1 25/4/1
f 27/2/1 8/2/1 26/2/1
f 28/4/1 19/4/1 18/4/1
f 28/4/1 20/4/1 19/4/1
f 28/4/1 21/4/1 20/4/1
f 29/2/1 22/2/1 21/2/1
f 29/4/1 21/4/1 28/4/1
f 30/4/1 23/4/1 22/4/1
f 30/2/1 22/2/1 29/2/1
f 31/2/1 25/2/1 24/2/1
f 31/4/1 23/4/1 30/4/1
f 31/2/1 24/2/1 23/2/1
f 32/4/1 27/4/1 26/4/1
f 32/2/1 25/2/1 31/2/1
f 32/4/1 26/4/1 25/4/1
f 33/4/1 27/4/1 32/4/1
f 34/3/1 30/3/1 29/3/1
f 34/3/1 29/3/1 28/3/1
f 34/3/1 33/3/1 32/3/1
f 34/3/1 32/3/1 31/3/1
f 34/3/1 31/3/1 30/3/1
f 35/3/1 33/3/1 34/3/1
f 36/3/1 33/3/1 35/3/1
f 37/3/1 33/3/1 36/3/1
f 38/3/1 33/3/1 37/3/1
f 39/3/1 33/3/1 38/3/1
f 40/1/1 35/1/1 34/1/1
f 40/5/1 36/5/1 35/5/1
f 41/1/1 37/1/1 36/1/1
f 41/5/1 36/5/1 40/5/1
f 42/1/1 37/1/1 41/1/1
f 43/1/1 37/1/1 42/1/1
f 44/6/1 38/6/1 37/6/1
f 44/1/1 37/1/1 43/1/1
f 45/1/1 39/1/1 38/1/1
f 45/6/1 38/6/1 44/6/1
f 46/1/1 39/1/1 45/1/1
f 47/1/1 40/1/1 34/1/1
f 47/1/1 41/1/1 40/1/1
f 48/5/1 42/5/1 41/5/1
f 48/1/1 41/1/1 47/1/1
f 49/1/1 43/1/1 42/1/1
f 49/5/1 42/5/1 48/5/1
f 50/7/1 44/7/1 43/7/1
f 50/1/1 43/1/1 49/1/1
f 50/7/1 45/7/1 44/7/1
f 51/7/1 45/7/1 50/7/1
f 52/7/1 45/7/1 51/7/1
f 53/1/1 39/1/1 46/1/1
f 53/6/1 46/6/1 45/6/1
f 54/1/1 39/1/1 53/1/1
f 55/5/1 49/5/1 48/5/1
f 55/5/1 48/5/1 47/5/1
f 55/1/1 47/1/1 34/1/1
f 55/5/1 50/5/1 49/5/1
f 56/5/1 50/5/1 55/5/1
f 57/5/1 50/5/1 56/5/1
f 58/7/1 51/7/1 50/7/1
f 58/5/1 50/5/1 57/5/1
f 59/7/1 45/7/1 52/7/1
f 59/6/1 53/6/1 45/6/1
f 60/7/1 54/7/1 53/7/1
f 60/6/1 53/6/1 59/6/1
f 61/1/1 39/1/1 54/1/1
f 61/7/1 54/7/1 60/7/1
f 62/1/1 55/1/1 34/1/1
f 62/1/1 56/1/1 55/1/1
f 63/5/1 57/5/1 56/5/1
f 63/1/1 56/1/1 62/1/1
f 64/1/1 58/1/1 57/1/1
f 64/5/1 57/5/1 63/5/1
f 65/7/1 51/7/1 58/7/1
f 65/1/1 58/1/1 64/1/1
f 66/6/1 52/6/1 51/6/1
f 66/7/1 51/7/1 65/7/1
f 67/7/1 60/7/1 59/7/1
f 67/6/1 52/6/1 66/6/1
f 67/7/1 59/7/1 52/7/1
f 68/7/1 60/7/1 67/7/1
f 69/1/1 61/1/1 60/1/1
f 69/7/1 60/7/1 68/7/1
f 70/1/1 62/1/1 34/1/1
f 71/5/1 63/5/1 62/5/1
f 71/1/1 62/1/1 70/1/1
f 72/1/1 66/1/1 65/1/1
f 72/5/1 63/5/1 71/5/1
f 72/1/1 64/1/1 63/1/1
f 72/1/1 65/1/1 64/1/1
f 73/6/1 68/6/1 67/6/1
f 73/1/1 66/1/1 72/1/1
f 73/6/1 67/6/1 66/6/1
f 74/1/1 69/1/1 68/1/1
f 74/6/1 68/6/1 73/6/1
f 75/1/1 39/1/1 61/1/1
f 75/1/1 69/1/1 74/1/1
f 75/1/1 61/1/1 69/1/1
f 76/3/1 71/3/1 70/3/1
f 76/3/1 73/3/1 72/3/1
f 76/3/1 75/3/1 74/3/1
f 76/3/1 72/3/1 71/3/1
f 76/3/1 74/3/1 73/3/1
f 77/3/1 75/3/1 76/3/1
f 78/3/1 75/3/1 77/3/1
f 79/3/1 75/3/1 78/3/1
f 80/3/1 75/3/1 79/3/1
f 81/3/1 75/3/1 80/3/1
f 82/3/1 75/3/1 81/3/1
f 83/2/1 77/2/1 76/2/1
f 84/4/1 78/4/1 77/4/1
f 84/2/1 77/2/1 83/2/1
f 85/4/1 78/4/1 84/4/1
f 86/2/1 79/2/1 78/2/1
f 86/4/1 78/4/1 85/4/1
f 87/2/1 79/2/1 86/2/1
f 88/4/1 80/4/1 79/4/1
f 88/2/1 81/2/1 80/2/1
f 89/4/1 82/4/1 81/4/1
f 89/2/1 81/2/1 88/2/1
f 90/4/1 82/4/1 89/4/1
f 91/4/1 85/4/1 84/4/1
f 91/4/1 84/4/1 83/4/1
f 92/4/1 85/4/1 91/4/1
f 93/4/1 87/4/1 86/4/1
f 93/2/1 86/2/1 85/2/1
f 94/2/1 79/2/1 87/2/1
f 94/4/1 87/4/1 93/4/1
f 95/4/1 88/4/1 79/4/1
f 95/4/1 89/4/1 88/4/1
f 96/4/1 89/4/1 95/4/1
f 97/2/1 90/2/1 89/2/1
f 97/4/1 89/4/1 96/4/1
f 98/2/1 90/2/1 97/2/1
f 99/4/1 85/4/1 92/4/1
f 99/2/1 92/2/1 91/2/1
f 100/2/1 93/2/1 85/2/1
f 100/4/1 85/4/1 99/4/1
f 100/2/1 94/2/1 93/2/1
f 101/2/1 94/2/1 100/2/1
f 102/2/1 79/2/1 94/2/1
f 102/2/1 94/2/1 101/2/1
f 102/4/1 95/4/1 79/4/1
f 103/2/1 96/2/1 95/2/1
f 103/4/1 95/4/1 102/4/1
f 104/4/1 97/4/1 96/4/1
f 104/2/1 96/2/1 103/2/1
f 105/4/1 97/4/1 104/4/1
f 106/2/1 99/2/1 91/2/1
f 106/2/1 101/2/1 100/2/1
f 106/2/1 100/2/1 99/2/1
f 107/4/1 102/4/1 101/4/1
f 107/2/1 101/2/1 106/2/1
f 108/2/1 103/2/1 102/2/1
f 108/4/1 102/4/1 107/4/1
f 109/4/1 104/4/1 103/4/1
f 109/2/1 103/2/1 108/2/1
f 110/4/1 104/4/1 109/4/1
f 114/3/1 112/3/1 111/3/1
f 115/3/1 112/3/1 114/3/1
f 116/3/1 112/3/1 115/3/1
f 117/3/1 112/3/1 116/3/1
f 118/3/1 112/3/1 117/3/1
f 119/3/1 112/3/1 118/3/1
f 120/3/1 112/3/1 119/3/1
f 121/3/1 112/3/1 120/3/1
f 123/3/1 114/3/1 113/3/1
f 124/3/1 122/3/1 121/3/1
f 125/3/1 123/3/1 113/3/1
f 126/3/1 122/3/1 124/3/1
f 127/3/1 125/3/1 113/3/1
f 128/3/1 122/3/1 126/3/1
f 129/3/1 127/3/1 113/3/1
f 130/3/1 122/3/1 128/3/1
f 131/3/1 129/3/1 113/3/1
f 132/3/1 122/3/1 130/3/1
f 133/3/1 131/3/1 113/3/1
f 134/3/1 122/3/1 132/3/1
f 135/3/1 133/3/1 113/3/1
f 136/3/1 122/3/1 134/3/1
f 137/3/1 122/3/1 136/3/1
f 138/3/1 135/3/1 113/3/1
f 139/3/1 135/3/1 138/3/1
f 143/3/1 142/3/1 141/3/1
f 143/3/1 141/3/1 140/3/1
f 143/3/1 140/3/1 139/3/1
f 144/3/1 142/3/1 143/3/1
f 147/2/1 146/2/1 145/2/1
f 148/2/1 146/2/1 147/2/1
f 152/2/1 150/2/1 149/2/1
f 153/2/1 150/2/1 152/2/1
f 154/4/1 152/4/1 151/4/1
f 155/4/1 152/4/1 154/4/1
f 156/4/2 157/4/2 158/4/2
f 158/4/2 157/4/2 159/4/2
f 160/4/2 161/4/2 163/4/2
f 163/4/2 161/4/2 164/4/2
f 162/4/2 163/4/2 165/4/2
f 165/4/2 163/4/2 166/4/2
f 167/3/2 168/3/2 170/3/2
f 170/3/2 168/3/2 171/3/2
f 171/3/2 168/3/2 172/3/2
f 172/3/2 168/3/2 173/3/2
f 173/3/2 168/3/2 174/3/2
f 174/3/2 168/3/2 175/3/2
f 169/3/2 170/3/2 177/3/2
f 169/3/2 177/3/2 178/3/2
f 169/3/2 178/3/2 179/3/2
f 169/3/2 179/3/2 180/3/2
f 175/3/2 176/3/2 181/3/2
f 169/3/2 180/3/2 182/3/2
f 181/3/2 176/3/2 183/3/2
f 169/3/2 182/3/2 184/3/2
f 183/3/2 176/3/2 185/3/2
f 185/3/2 176/3/2 186/3/2
f 169/3/2 184/3/2 187/3/2
f 186/3/2 176/3/2 188/3/2
f 188/3/2 176/3/2 189/3/2
f 189/3/2 176/3/2 190/3/2
f 169/3/2 187/3/2 191/3/2
f 169/3/2 191/3/2 192/3/2
f 192/3/2 191/3/2 193/3/2
f 197/3/2 198/3/2 199/3/2
f 196/3/2 197/3/2 199/3/2
f 195/3/2 196/3/2 199/3/2
f 194/3/2 195/3/2 199/3/2
f 193/3/2 194/3/2 199/3/2
f 199/3/2 198/3/2 200/3/2
f 201/4/2 202/4/2 207/4/2
f 207/4/2 202/4/2 208/4/2
f 202/2/2 203/2/2 209/2/2
f 208/4/2 202/4/2 209/4/2
f 209/2/2 203/2/2 210/2/2
f 203/4/2 204/4/2 211/4/2
f 210/2/2 203/2/2 211/2/2
f 204/2/2 205/2/2 212/2/2
f 211/4/2 204/4/2 212/4/2
f 205/4/2 206/4/2 213/4/2
f 212/2/2 205/2/2 213/2/2
f 213/4/2 206/4/2 214/4/2
f 207/2/2 208/2/2 215/2/2
f 209/4/2 210/4/2 216/4/2
f 215/2/2 208/2/2 216/2/2
f 208/4/2 209/4/2 216/4/2
f 216/4/2 210/4/2 217/4/2
f 211/2/2 212/2/2 218/2/2
f 217/4/2 210/4/2 218/4/2
f 210/2/2 211/2/2 218/2/2
f 213/2/2 214/2/2 218/2/2
f 212/2/2 213/2/2 218/2/2
f 218/2/2 214/2/2 219/2/2
f 219/2/2 214/2/2 220/2/2
f 214/4/2 206/4/2 221/4/2
f 220/2/2 214/2/2 221/2/2
f 216/4/2 217/4/2 222/4/2
f 215/4/2 216/4/2 222/4/2
f 217/2/2 218/2/2 223/2/2
f 222/4/2 217/4/2 223/4/2
f 218/4/2 219/4/2 224/4/2
f 223/2/2 218/2/2 224/2/2
f 224/4/2 219/4/2 225/4/2
f 219/2/2 220/2/2 226/2/2
f 225/4/2 219/4/2 226/4/2
f 226/2/2 220/2/2 227/2/2
f 215/4/2 222/4/2 228/4/2
f 222/2/2 223/2/2 229/2/2
f 228/4/2 222/4/2 229/4/2
f 223/4/2 224/4/2 230/4/2
f 224/2/2 225/2/2 231/2/2
f 230/4/2 224/4/2 231/4/2
f 225/4/2 226/4/2 232/4/2
f 231/2/2 225/2/2 232/2/2
f 226/4/2 227/4/2 232/4/2
f 228/2/2 229/2/2 233/2/2
f 223/4/2 230/4/2 234/4/2
f 233/2/2 229/2/2 234/2/2
f 229/2/2 223/2/2 234/2/2
f 230/2/2 231/2/2 235/2/2
f 234/4/2 230/4/2 235/4/2
f 231/4/2 232/4/2 236/4/2
f 235/2/2 231/2/2 236/2/2
f 232/4/2 227/4/2 237/4/2
f 236/4/2 232/4/2 237/4/2
f 227/2/2 220/2/2 238/2/2
f 237/4/2 227/4/2 238/4/2
f 220/4/2 221/4/2 239/4/2
f 238/2/2 220/2/2 239/2/2
f 221/4/2 206/4/2 240/4/2
f 239/4/2 221/4/2 240/4/2
f 240/4/2 206/4/2 241/4/2
f 234/4/2 235/4/2 242/4/2
f 233/4/2 234/4/2 242/4/2
f 235/4/2 236/4/2 242/4/2
f 236/2/2 237/2/2 243/2/2
f 242/4/2 236/4/2 243/4/2
f 238/4/2 239/4/2 244/4/2
f 243/2/2 237/2/2 244/2/2
f 237/4/2 238/4/2 244/4/2
f 239/4/2 240/4/2 244/4/2
f 233/4/2 242/4/2 245/4/2
f 242/2/2 243/2/2 246/2/2
f 245/4/2 242/4/2 246/4/2
f 246/2/2 243/2/2 247/2/2
f 243/4/2 244/4/2 248/4/2
f 247/2/2 243/2/2 248/2/2
f 244/4/2 240/4/2 249/4/2
f 248/4/2 244/4/2 249/4/2
f 249/4/2 240/4/2 250/4/2
f 250/4/2 240/4/2 251/4/2
f 240/2/2 241/2/2 252/2/2
f 251/4/2 240/4/2 252/4/2
f 252/2/2 241/2/2 253/2/2
f 245/2/2 246/2/2 254/2/2
f 246/4/2 247/4/2 255/4/2
f 254/2/2 246/2/2 255/2/2
f 247/2/2 248/2/2 256/2/2
f 255/4/2 247/4/2 256/4/2
f 248/2/2 249/2/2 256/2/2
f 256/2/2 249/2/2 257/2/2
f 257/2/2 249/2/2 258/2/2
f 249/4/2 250/4/2 259/4/2
f 258/2/2 249/2/2 259/2/2
f 252/4/2 253/4/2 260/4/2
f 251/4/2 252/4/2 260/4/2
f 260/4/2 253/4/2 261/4/2
f 254/4/2 255/4/2 262/4/2
f 255/2/2 256/2/2 262/2/2
f 256/4/2 257/4/2 263/4/2
f 262/2/2 256/2/2 263/2/2
f 257/2/2 258/2/2 264/2/2
f 263/4/2 257/4/2 264/4/2
f 258/4/2 259/4/2 265/4/2
f 264/2/2 258/2/2 265/2/2
f 250/2/2 251/2/2 266/2/2
f 265/4/2 259/4/2 266/4/2
f 259/4/2 250/4/2 266/4/2
f 251/4/2 260/4/2 267/4/2
f 266/2/2 251/2/2 267/2/2
f 260/2/2 261/2/2 268/2/2
f 267/4/2 260/4/2 268/4/2
f 268/2/2 261/2/2 269/2/2
f 264/4/2 265/4/2 270/4/2
f 265/4/2 266/4/2 270/4/2
f 262/4/2 263/4/2 270/4/2
f 263/4/2 264/4/2 270/4/2
f 254/4/2 262/4/2 270/4/2
f 266/4/2 267/4/2 270/4/2
f 270/4/2 267/4/2 271/4/2
f 271/4/2 267/4/2 272/4/2
f 272/4/2 267/4/2 273/4/2
f 273/4/2 267/4/2 274/4/2
f 274/4/2 267/4/2 275/4/2
f 275/4/2 267/4/2 276/4/2
f 267/2/2 268/2/2 277/2/2
f 276/4/2 267/4/2 277/4/2
f 268/4/2 269/4/2 278/4/2
f 277/2/2 268/2/2 278/2/2
f 278/4/2 269/4/2 279/4/2
f 272/2/2 273/2/2 280/2/2
f 273/4/2 274/4/2 281/4/2
f 280/2/2 273/2/2 281/2/2
f 276/2/2 277/2/2 282/2/2
f 275/4/2 276/4/2 282/4/2
f 277/4/2 278/4/2 283/4/2
f 282/2/2 277/2/2 283/2/2
f 278/2/2 279/2/2 284/2/2
f 283/4/2 278/4/2 284/4/2
f 271/4/2 272/4/2 285/4/2
f 272/2/2 280/2/2 285/2/2
f 280/4/2 281/4/2 286/4/2
f 285/2/2 280/2/2 286/2/2
f 281/4/2 274/4/2 287/4/2
f 286/4/2 281/4/2 287/4/2
f 274/2/2 275/2/2 287/2/2
f 282/4/2 283/4/2 288/4/2
f 287/2/2 275/2/2 288/2/2
f 275/4/2 282/4/2 288/4/2
f 283/2/2 284/2/2 289/2/2
f 288/4/2 283/4/2 289/4/2
f 284/2/2 279/2/2 290/2/2
f 289/2/2 284/2/2 290/2/2
f 290/2/2 279/2/2 291/2/2
f 270/2/2 271/2/2 292/2/2
f 285/4/2 286/4/2 293/4/2
f 292/2/2 271/2/2 293/2/2
f 271/4/2 285/4/2 293/4/2
f 289/2/2 290/2/2 294/2/2
f 293/4/2 286/4/2 294/4/2
f 288/2/2 289/2/2 294/2/2
f 286/2/2 287/2/2 294/2/2
f 287/2/2 288/2/2 294/2/2
f 294/2/2 290/2/2 295/2/2
f 295/2/2 290/2/2 296/2/2
f 296/2/2 290/2/2 297/2/2
f 297/2/2 290/2/2 298/2/2
f 292/4/2 293/4/2 299/4/2
f 293/2/2 294/2/2 300/2/2
f 299/4/2 293/4/2 300/4/2
f 294/4/2 295/4/2 301/4/2
f 300/2/2 294/2/2 301/2/2
f 295/2/2 296/2/2 302/2/2
f 301/4/2 295/4/2 302/4/2
f 296/4/2 297/4/2 303/4/2
f 302/2/2 296/2/2 303/2/2
f 303/4/2 297/4/2 304/4/2
f 307/3/3 306/3/3 305/3/3
f 308/3/3 306/3/3 307/3/3
f 319/2/3 310/2/3 309/2/3
f 320/4/3 311/4/3 310/4/3
f 320/2/3 310/2/3 319/2/3
f 321/3/3 312/3/3 311/3/3
f 321/4/3 311/4/3 320/4/3
f 322/1/3 313/1/3 312/1/3
f 322/3/3 312/3/3 321/3/3
f 323/3/3 314/3/3 313/3/3
f 323/1/3 313/1/3 322/1/3
f 324/2/3 315/2/3 314/2/3
f 324/3/3 314/3/3 323/3/3
f 325/4/3 316/4/3 315/4/3
f 325/2/3 315/2/3 324/2/3
f 326/2/3 317/2/3 316/2/3
f 326/4/3 316/4/3 325/4/3
f 327/2/3 317/2/3 326/2/3
f 329/3/3 319/3/3 318/3/3
f 330/3/3 319/3/3 329/3/3
f 339/3/3 328/3/3 327/3/3
f 340/3/3 328/3/3 339/3/3
f 341/4/3 331/4/3 330/4/3
f 342/2/3 332/2/3 331/2/3
f 342/4/3 331/4/3 341/4/3
f 343/4/3 333/4/3 332/4/3
f 343/2/3 332/2/3 342/2/3
f 344/2/3 334/2/3 333/2/3
f 344/4/3 333/4/3 343/4/3
f 345/4/3 335/4/3 334/4/3
f 345/2/3 334/2/3 344/2/3
f 346/2/3 336/2/3 335/2/3
f 346/4/3 335/4/3 345/4/3
f 347/4/3 337/4/3 336/4/3
f 347/2/3 336/2/3 346/2/3
f 348/2/3 338/2/3 337/2/3
f 348/4/3 337/4/3 347/4/3
f 349/4/3 339/4/3 338/4/3
f 349/2/3 338/2/3 348/2/3
f 350/4/3 339/4/3 349/4/3
f 353/3/3 352/3/3 351/3/3
f 354/3/3 352/3/3 353/3/3
f 355/8/4 356/8/4 358/8/4
f 356/3/4 357/3/4 359/3/4
f 358/8/4 356/8/4 359/8/4
f 359/3/4 357/3/4 360/3/4
f 361/4/4 362/4/4 364/4/4
f 364/4/4 362/4/4 365/4/4
f 363/8/4 364/8/4 366/8/4
f 366/8/4 364/8/4 367/8/4
f 367/4/4 368/4/4 369/4/4
f 369/4/4 368/4/4 370/4/4
f 371/4/4 372/4/4 375/4/4
f 375/4/4 372/4/4 376/4/4
f 373/8/4 374/8/4 377/8/4
f 377/8/4 374/8/4 378/8/4
f 379/2/4 380/2/4 381/2/4
f 381/2/4 380/2/4 382/2/4
f 383/2/4 384/2/4 392/2/4
f 384/4/4 385/4/4 393/4/4
f 392/2/4 384/2/4 393/2/4
f 385/3/4 386/3/4 394/3/4
f 393/4/4 385/4/4 394/4/4
f 386/1/4 387/1/4 395/1/4
f 394/3/4 386/3/4 395/3/4
f 387/3/4 388/3/4 396/3/4
f 395/1/4 387/1/4 396/1/4
f 388/4/4 389/4/4 397/4/4
f 396/3/4 388/3/4 397/3/4
f 389/2/4 390/2/4 398/2/4
f 397/4/4 389/4/4 398/4/4
f 398/2/4 390/2/4 399/2/4
f 391/3/4 392/3/4 400/3/4
f 400/3/4 392/3/4 401/3/4
f 401/4/4 402/4/4 408/4/4
f 402/2/4 403/2/4 409/2/4
f 408/4/4 402/4/4 409/4/4
f 403/4/4 404/4/4 410/4/4
f 409/2/4 403/2/4 410/2/4
f 404/2/4 405/2/4 411/2/4
f 410/4/4 404/4/4 411/4/4
f 405/4/4 406/4/4 412/4/4
f 411/2/4 405/2/4 412/2/4
f 406/2/4 407/2/4 413/2/4
f 412/4/4 406/4/4 413/4/4
f 413/2/4 407/2/4 414/2/4
f 415/3/4 416/3/4 417/3/4
f 417/3/4 416/3/4 418/3/4
f 421/3/5 420/3/5 419/3/5
f 422/3/5 420/3/5 421/3/5
f 426/3/5 424/3/5 423/3/5
f 427/3/5 424/3/5 426/3/5
f 429/2/5 426/2/5 425/2/5
f 430/2/5 426/2/5 429/2/5
f 431/4/5 430/4/5 429/4/5
f 432/4/5 430/4/5 431/4/5
f 433/4/5 428/4/5 427/4/5
f 434/4/5 428/4/5 433/4/5
f 435/2/5 432/2/5 431/2/5
f 436/2/5 432/2/5 435/2/5
f 437/4/5 436/4/5 435/4/5
f 438/4/5 436/4/5 437/4/5
f 439/2/5 434/2/5 433/2/5
f 440/2/5 434/2/5 439/2/5
f 441/2/5 438/2/5 437/2/5
f 442/2/5 438/2/5 441/2/5
f 443/4/5 440/4/5 439/4/5
f 444/4/5 440/4/5 443/4/5
f 445/4/5 442/4/5 441/4/5
f 446/4/5 442/4/5 445/4/5
f 447/2/5 444/2/5 443/2/5
f 448/2/5 444/2/5 447/2/5
f 449/2/5 446/2/5 445/2/5
f 450/2/5 446/2/5 449/2/5
f 451/4/5 448/4/5 447/4/5
f 452/4/5 448/4/5 451/4/5
f 453/3/5 451/3/5 450/3/5
f 454/3/5 451/3/5 453/3/5
f 457/8/5 456/8/5 455/8/5
f 458/8/5 456/8/5 457/8/5
f 459/8/6 460/8/6 461/8/6
f 461/8/6 460/8/6 462/8/6
f 463/8/6 464/8/6 466/8/6
f 466/8/6 464/8/6 467/8/6
f 465/2/6 466/2/6 469/2/6
f 466/8/6 467/8/6 470/8/6
f 469/2/6 466/2/6 470/2/6
f 467/2/6 468/2/6 471/2/6
f 470/8/6 467/8/6 471/8/6
f 471/2/6 468/2/6 472/2/6
f 470/3/6 471/3/6 473/3/6
f 473/3/6 471/3/6 474/3/6
f 475/8/6 476/8/6 478/8/6
f 478/8/6 476/8/6 479/8/6
f 477/4/6 478/4/6 481/4/6
f 481/4/6 478/4/6 482/4/6
f 479/2/6 480/2/6 483/2/6
f 483/2/6 480/2/6 484/2/6
f 485/3/6 486/3/6 488/3/6
f 488/3/6 486/3/6 489/3/6
f 489/4/6 490/4/6 491/4/6
f 491/4/6 490/4/6 492/4/6
f 487/2/6 488/2/6 493/2/6
f 493/2/6 488/2/6 494/2/6
f 491/2/6 492/2/6 495/2/6
f 495/2/6 492/2/6 496/2/6
f 495/4/6 496/4/6 497/4/6
f 497/4/6 496/4/6 498/4/6
f 493/4/6 494/4/6 499/4/6
f 499/4/6 494/4/6 500/4/6
f 497/2/6 498/2/6 501/2/6
f 501/2/6 498/2/6 502/2/6
f 499/2/6 500/2/6 503/2/6
f 503/2/6 500/2/6 504/2/6
f 501/4/6 502/4/6 505/4/6
f 503/4/6 504/4/6 506/4/6
f 506/4/6 504/4/6 507/4/6
f 505/4/6 502/4/6 508/4/6
f 508/4/6 502/4/6 509/4/6
f 510/3/6 511/3/6 512/3/6
f 512/3/6 511/3/6 513/3/6
