# MagicaVoxel @ Ephtracy

# group
o seed_tomato

# material
mtllib farm-7-seed_tomato.mtl
usemtl palette

# normals
vn -1 0 0
vn 1 0 0
vn 0 0 1
vn 0 0 -1
vn 0 -1 0
vn 0 1 0

# texcoords
vt 0.146484 0.5
vt 0.177734 0.5
vt 0.412109 0.5
vt 0.435547 0.5
vt 0.443359 0.5
vt 0.466797 0.5
vt 0.552734 0.5
vt 0.994141 0.5

# verts
v -11 0.1 2.8
v -11 0.1 2.6
v -11 0.1 2.5
v -11 0.1 2.4
v -11 0.1 2.3
v -11 0.1 2.2
v -11 0.1 2
v -11 0.1 1.8
v -11 0.2 2.7
v -11 0.2 2.6
v -11 0.2 2.5
v -11 0.2 2.4
v -11 0.2 2.3
v -11 0.2 2.2
v -11 0.2 2.1
v -11 0.2 2
v -11 0.2 1.9
v -11 0.3 2.8
v -11 0.3 2.7
v -11 0.3 2.6
v -11 0.3 2.5
v -11 0.3 2.4
v -11 0.3 2.2
v -11 0.3 2.1
v -11 0.3 2
v -11 0.3 1.9
v -11 0.3 1.8
v -11 0.4 2.8
v -11 0.4 2.5
v -11 0.4 2.4
v -11 0.4 2.2
v -11 0.4 2
v -11 0.4 1.8
v -11 0.5 2.8
v -11 0.5 2.5
v -11 0.5 2.3
v -11 0.5 2.2
v -11 0.5 1.8
v -11 0.6 2.6
v -11 0.6 2.5
v -11 0.6 2.3
v -11 0.6 2.2
v -11 0.6 2.1
v -11 0.8 2.6
v -11 0.8 2.5
v -11 0.8 2.3
v -11 0.8 2.2
v -11 0.8 2.1
v -11 0.9 2.5
v -11 0.9 2.4
v -11 0.9 2.3
v -11 0.9 2.2
v -11 1 2.8
v -11 1 2.4
v -11 1 2.3
v -11 1 1.8
v -11 1.1 2.8
v -11 1.1 2.7
v -11 1.1 2.4
v -11 1.1 2.2
v -11 1.1 2.1
v -11 1.1 1.9
v -11 1.1 1.8
v -11 1.2 2.8
v -11 1.2 2.7
v -11 1.2 2.6
v -11 1.2 2.4
v -11 1.2 2.3
v -11 1.2 2.1
v -11 1.2 1.9
v -11 1.2 1.8
v -11 1.3 2.8
v -11 1.3 2.7
v -11 1.3 2.4
v -11 1.3 2.3
v -11 1.3 2.1
v -11 1.3 2
v -11 1.3 1.9
v -11 1.3 1.8
v -11 1.4 2.7
v -11 1.4 2.6
v -11 1.4 2.5
v -11 1.4 2.2
v -11 1.4 2.1
v -11 1.4 2
v -11 1.4 1.9
v -11 1.5 2.8
v -11 1.5 2.5
v -11 1.5 2.2
v -11 1.5 2.1
v -11 1.5 2
v -10.9 0 2.8
v -10.9 0 1.8
v -10.9 0.1 2.9
v -10.9 0.1 2.8
v -10.9 0.1 2.6
v -10.9 0.1 2.5
v -10.9 0.1 2.4
v -10.9 0.1 2.3
v -10.9 0.1 2.2
v -10.9 0.1 2
v -10.9 0.1 1.8
v -10.9 0.1 1.7
v -10.9 0.3 2.8
v -10.9 0.3 1.8
v -10.9 0.4 2.8
v -10.9 0.4 1.8
v -10.9 0.5 2.8
v -10.9 0.5 1.8
v -10.9 1 2.8
v -10.9 1 1.8
v -10.9 1.1 2.8
v -10.9 1.1 1.8
v -10.9 1.2 2.8
v -10.9 1.2 1.8
v -10.9 1.3 2.8
v -10.9 1.3 1.8
v -10.9 1.3 1.7
v -10.9 1.5 2.9
v -10.9 1.5 2.8
v -10.9 1.5 2.5
v -10.9 1.5 2.2
v -10.9 1.5 2.1
v -10.9 1.6 2.8
v -10.9 1.6 2.1
v -10.8 1.1 1.9
v -10.8 1.1 1.8
v -10.8 1.2 1.9
v -10.8 1.2 1.8
v -10.8 1.3 2
v -10.8 1.3 1.9
v -10.8 1.4 2.1
v -10.8 1.4 2
v -10.8 1.4 1.9
v -10.8 1.5 2.1
v -10.8 1.5 2
v -10.9 1.1 1.9
v -10.9 1.1 1.8
v -10.9 1.2 1.9
v -10.9 1.2 1.8
v -10.9 1.3 2
v -10.9 1.3 1.9
v -10.9 1.4 2.1
v -10.9 1.4 2
v -10.9 1.4 1.9
v -10.9 1.5 2.1
v -10.9 1.5 2
v -10.8 0 2.8
v -10.8 0 1.8
v -10.8 0.1 2.9
v -10.8 0.1 2.8
v -10.8 0.1 2.5
v -10.8 0.1 2.3
v -10.8 0.1 2.1
v -10.8 0.1 2
v -10.8 0.1 1.8
v -10.8 0.1 1.7
v -10.8 0.2 2.8
v -10.8 0.3 2.8
v -10.8 0.5 2.8
v -10.8 0.6 2.8
v -10.8 0.6 1.8
v -10.8 0.8 2.8
v -10.8 0.8 1.8
v -10.8 0.9 2.8
v -10.8 0.9 1.8
v -10.8 1 1.8
v -10.8 1.1 2.8
v -10.8 1.1 1.8
v -10.8 1.3 1.8
v -10.8 1.3 1.7
v -10.8 1.4 2.8
v -10.8 1.5 2.9
v -10.8 1.5 2.8
v -10.8 1.5 2.7
v -10.8 1.5 2.5
v -10.8 1.5 2.3
v -10.8 1.5 2.2
v -10.8 1.5 2.1
v -10.8 1.6 2.8
v -10.8 1.6 2.1
v -10.7 0.1 2.8
v -10.7 0.1 2.5
v -10.7 0.1 2.3
v -10.7 0.1 2.1
v -10.7 0.1 2
v -10.7 0.1 1.8
v -10.7 0.2 2.8
v -10.7 0.2 2.7
v -10.7 0.2 2.5
v -10.7 0.2 2.4
v -10.7 0.2 2.3
v -10.7 0.2 2.1
v -10.7 0.2 2
v -10.7 0.2 1.9
v -10.7 0.3 2.8
v -10.7 0.3 2.7
v -10.7 0.3 2.6
v -10.7 0.3 2.4
v -10.7 0.3 2.2
v -10.7 0.3 2
v -10.7 0.3 1.9
v -10.7 0.4 2.7
v -10.7 0.4 2.6
v -10.7 0.4 2.4
v -10.7 0.4 2.3
v -10.7 0.4 2.2
v -10.7 0.4 2.1
v -10.7 0.5 2.8
v -10.7 0.5 2.7
v -10.7 0.5 2.5
v -10.7 0.5 2.4
v -10.7 0.5 2.3
v -10.7 0.6 2.8
v -10.7 0.6 2.6
v -10.7 0.6 2.5
v -10.7 0.6 2.4
v -10.7 0.6 2.2
v -10.7 0.6 2.1
v -10.7 0.6 2
v -10.7 0.6 1.9
v -10.7 0.6 1.8
v -10.7 0.7 2.7
v -10.7 0.7 2.4
v -10.7 0.7 2.2
v -10.7 0.8 2.8
v -10.7 0.8 2.7
v -10.7 0.8 2.6
v -10.7 0.8 2.4
v -10.7 0.8 2.2
v -10.7 0.8 2.1
v -10.7 0.8 2
v -10.7 0.8 1.9
v -10.7 0.8 1.8
v -10.7 0.9 2.8
v -10.7 0.9 2.7
v -10.7 0.9 2.6
v -10.7 0.9 2.5
v -10.7 0.9 2.4
v -10.7 0.9 2.2
v -10.7 0.9 1.9
v -10.7 0.9 1.8
v -10.7 1 2.7
v -10.7 1 2.6
v -10.7 1 2.5
v -10.7 1 2.4
v -10.7 1 2.1
v -10.7 1 2
v -10.7 1 1.9
v -10.7 1 1.8
v -10.7 1.1 2.8
v -10.7 1.1 2.7
v -10.7 1.1 2.6
v -10.7 1.1 2.4
v -10.7 1.1 2.3
v -10.7 1.1 2.2
v -10.7 1.1 2.1
v -10.7 1.1 2
v -10.7 1.1 1.9
v -10.7 1.1 1.8
v -10.7 1.2 2.5
v -10.7 1.2 2.4
v -10.7 1.2 2.1
v -10.7 1.2 2
v -10.7 1.2 1.9
v -10.7 1.3 2.6
v -10.7 1.3 2.5
v -10.7 1.3 2.3
v -10.7 1.3 2.2
v -10.7 1.3 2
v -10.7 1.3 1.9
v -10.7 1.3 1.8
v -10.7 1.4 2.8
v -10.7 1.4 2.7
v -10.7 1.4 2.5
v -10.7 1.4 2.3
v -10.7 1.4 2.2
v -10.7 1.4 2
v -10.7 1.4 1.9
v -10.7 1.5 2.8
v -10.7 1.5 2.7
v -10.7 1.5 2.5
v -10.7 1.5 2.3
v -10.7 1.5 2.2
v -10.7 1.5 2
v -10.9 0.1 2.9
v -10.9 1.5 2.9
v -10.8 0.1 2.9
v -10.8 1.5 2.9
v -11 0.1 2.8
v -11 0.3 2.8
v -11 0.4 2.8
v -11 0.5 2.8
v -11 1 2.8
v -11 1.1 2.8
v -11 1.2 2.8
v -11 1.3 2.8
v -11 1.5 2.8
v -10.9 0 2.8
v -10.9 0.1 2.8
v -10.9 0.3 2.8
v -10.9 0.4 2.8
v -10.9 0.5 2.8
v -10.9 1 2.8
v -10.9 1.1 2.8
v -10.9 1.2 2.8
v -10.9 1.3 2.8
v -10.9 1.5 2.8
v -10.9 1.6 2.8
v -10.8 0 2.8
v -10.8 0.1 2.8
v -10.8 0.2 2.8
v -10.8 0.3 2.8
v -10.8 0.5 2.8
v -10.8 0.6 2.8
v -10.8 0.8 2.8
v -10.8 0.9 2.8
v -10.8 1.1 2.8
v -10.8 1.4 2.8
v -10.8 1.5 2.8
v -10.8 1.6 2.8
v -10.7 0.1 2.8
v -10.7 0.2 2.8
v -10.7 0.3 2.8
v -10.7 0.5 2.8
v -10.7 0.6 2.8
v -10.7 0.8 2.8
v -10.7 0.9 2.8
v -10.7 1.1 2.8
v -10.7 1.4 2.8
v -10.7 1.5 2.8
v -10.9 1.1 1.8
v -10.9 1.2 1.8
v -10.8 1.1 1.8
v -10.8 1.2 1.8
v -10.9 1.4 2.1
v -10.9 1.5 2.1
v -10.9 1.6 2.1
v -10.8 1.4 2.1
v -10.8 1.5 2.1
v -10.8 1.6 2.1
v -11 1.4 2
v -11 1.5 2
v -10.9 1.3 2
v -10.9 1.4 2
v -10.9 1.5 2
v -10.8 1.3 2
v -10.8 1.4 2
v -10.8 1.5 2
v -10.7 1.4 2
v -10.7 1.5 2
v -11 1.3 1.9
v -11 1.4 1.9
v -10.9 1.1 1.9
v -10.9 1.2 1.9
v -10.9 1.3 1.9
v -10.9 1.4 1.9
v -10.8 1.1 1.9
v -10.8 1.2 1.9
v -10.8 1.3 1.9
v -10.8 1.4 1.9
v -10.7 1.3 1.9
v -10.7 1.4 1.9
v -11 0.1 1.8
v -11 0.3 1.8
v -11 0.4 1.8
v -11 0.5 1.8
v -11 1 1.8
v -11 1.1 1.8
v -11 1.2 1.8
v -11 1.3 1.8
v -10.9 0 1.8
v -10.9 0.1 1.8
v -10.9 0.3 1.8
v -10.9 0.4 1.8
v -10.9 0.5 1.8
v -10.9 1 1.8
v -10.9 1.1 1.8
v -10.9 1.2 1.8
v -10.9 1.3 1.8
v -10.8 0 1.8
v -10.8 0.1 1.8
v -10.8 0.6 1.8
v -10.8 0.8 1.8
v -10.8 0.9 1.8
v -10.8 1 1.8
v -10.8 1.1 1.8
v -10.8 1.3 1.8
v -10.7 0.1 1.8
v -10.7 0.6 1.8
v -10.7 0.8 1.8
v -10.7 0.9 1.8
v -10.7 1 1.8
v -10.7 1.1 1.8
v -10.7 1.3 1.8
v -10.9 0.1 1.7
v -10.9 1.3 1.7
v -10.8 0.1 1.7
v -10.8 1.3 1.7
v -10.9 0 2.8
v -10.8 0 2.8
v -10.9 0 1.8
v -10.8 0 1.8
v -10.9 0.1 2.9
v -10.8 0.1 2.9
v -11 0.1 2.8
v -10.9 0.1 2.8
v -10.8 0.1 2.8
v -10.7 0.1 2.8
v -11 0.1 2.6
v -10.9 0.1 2.6
v -11 0.1 2.5
v -10.9 0.1 2.5
v -10.8 0.1 2.5
v -10.7 0.1 2.5
v -11 0.1 2.4
v -10.9 0.1 2.4
v -11 0.1 2.3
v -10.9 0.1 2.3
v -10.8 0.1 2.3
v -10.7 0.1 2.3
v -11 0.1 2.2
v -10.9 0.1 2.2
v -10.8 0.1 2.1
v -10.7 0.1 2.1
v -11 0.1 2
v -10.9 0.1 2
v -10.8 0.1 2
v -10.7 0.1 2
v -11 0.1 1.8
v -10.9 0.1 1.8
v -10.8 0.1 1.8
v -10.7 0.1 1.8
v -10.9 0.1 1.7
v -10.8 0.1 1.7
v -10.9 1.2 1.9
v -10.8 1.2 1.9
v -10.9 1.2 1.8
v -10.8 1.2 1.8
v -10.9 1.1 1.9
v -10.8 1.1 1.9
v -10.9 1.1 1.8
v -10.8 1.1 1.8
v -10.9 1.3 2
v -10.8 1.3 2
v -11 1.3 1.9
v -10.9 1.3 1.9
v -10.8 1.3 1.9
v -10.7 1.3 1.9
v -11 1.3 1.8
v -10.9 1.3 1.8
v -10.8 1.3 1.8
v -10.7 1.3 1.8
v -10.9 1.3 1.7
v -10.8 1.3 1.7
v -10.9 1.4 2.1
v -10.8 1.4 2.1
v -11 1.4 2
v -10.9 1.4 2
v -10.8 1.4 2
v -10.7 1.4 2
v -11 1.4 1.9
v -10.9 1.4 1.9
v -10.8 1.4 1.9
v -10.7 1.4 1.9
v -10.9 1.5 2.9
v -10.8 1.5 2.9
v -11 1.5 2.8
v -10.9 1.5 2.8
v -10.8 1.5 2.8
v -10.7 1.5 2.8
v -10.8 1.5 2.7
v -10.7 1.5 2.7
v -11 1.5 2.5
v -10.9 1.5 2.5
v -10.8 1.5 2.5
v -10.7 1.5 2.5
v -10.8 1.5 2.3
v -10.7 1.5 2.3
v -11 1.5 2.2
v -10.9 1.5 2.2
v -10.8 1.5 2.2
v -10.7 1.5 2.2
v -11 1.5 2.1
v -10.9 1.5 2.1
v -10.8 1.5 2.1
v -11 1.5 2
v -10.9 1.5 2
v -10.8 1.5 2
v -10.7 1.5 2
v -10.9 1.6 2.8
v -10.8 1.6 2.8
v -10.9 1.6 2.1
v -10.8 1.6 2.1

# faces
f 9/4/1 2/4/1 1/4/1
f 10/6/1 3/6/1 2/6/1
f 10/4/1 2/4/1 9/4/1
f 11/4/1 4/4/1 3/4/1
f 11/6/1 3/6/1 10/6/1
f 12/6/1 5/6/1 4/6/1
f 12/4/1 4/4/1 11/4/1
f 13/4/1 6/4/1 5/4/1
f 13/6/1 5/6/1 12/6/1
f 14/6/1 7/6/1 6/6/1
f 14/4/1 6/4/1 13/4/1
f 15/6/1 7/6/1 14/6/1
f 16/4/1 8/4/1 7/4/1
f 16/6/1 7/6/1 15/6/1
f 17/4/1 8/4/1 16/4/1
f 18/4/1 9/4/1 1/4/1
f 19/6/1 10/6/1 9/6/1
f 19/4/1 9/4/1 18/4/1
f 20/4/1 15/4/1 14/4/1
f 20/6/1 10/6/1 19/6/1
f 20/4/1 11/4/1 10/4/1
f 20/4/1 12/4/1 11/4/1
f 20/4/1 13/4/1 12/4/1
f 20/4/1 14/4/1 13/4/1
f 21/4/1 15/4/1 20/4/1
f 22/4/1 15/4/1 21/4/1
f 23/4/1 15/4/1 22/4/1
f 24/6/1 17/6/1 16/6/1
f 24/4/1 15/4/1 23/4/1
f 24/6/1 16/6/1 15/6/1
f 25/6/1 17/6/1 24/6/1
f 26/4/1 8/4/1 17/4/1
f 26/6/1 17/6/1 25/6/1
f 27/4/1 8/4/1 26/4/1
f 28/6/1 19/6/1 18/6/1
f 28/6/1 20/6/1 19/6/1
f 28/6/1 21/6/1 20/6/1
f 29/4/1 22/4/1 21/4/1
f 29/6/1 21/6/1 28/6/1
f 30/6/1 23/6/1 22/6/1
f 30/4/1 22/4/1 29/4/1
f 31/4/1 25/4/1 24/4/1
f 31/6/1 23/6/1 30/6/1
f 31/4/1 24/4/1 23/4/1
f 32/6/1 27/6/1 26/6/1
f 32/4/1 25/4/1 31/4/1
f 32/6/1 26/6/1 25/6/1
f 33/6/1 27/6/1 32/6/1
f 34/5/1 30/5/1 29/5/1
f 34/5/1 29/5/1 28/5/1
f 34/5/1 33/5/1 32/5/1
f 34/5/1 32/5/1 31/5/1
f 34/5/1 31/5/1 30/5/1
f 35/5/1 33/5/1 34/5/1
f 36/5/1 33/5/1 35/5/1
f 37/5/1 33/5/1 36/5/1
f 38/5/1 33/5/1 37/5/1
f 39/3/1 35/3/1 34/3/1
f 40/1/1 36/1/1 35/1/1
f 40/3/1 35/3/1 39/3/1
f 41/2/1 37/2/1 36/2/1
f 41/1/1 36/1/1 40/1/1
f 42/3/1 38/3/1 37/3/1
f 42/2/1 37/2/1 41/2/1
f 43/3/1 38/3/1 42/3/1
f 44/3/1 39/3/1 34/3/1
f 44/1/1 40/1/1 39/1/1
f 44/1/1 41/1/1 40/1/1
f 44/1/1 42/1/1 41/1/1
f 45/1/1 42/1/1 44/1/1
f 46/1/1 42/1/1 45/1/1
f 47/2/1 43/2/1 42/2/1
f 47/1/1 42/1/1 46/1/1
f 48/3/1 38/3/1 43/3/1
f 48/2/1 43/2/1 47/2/1
f 49/1/1 46/1/1 45/1/1
f 49/3/1 45/3/1 44/3/1
f 50/1/1 46/1/1 49/1/1
f 51/2/1 47/2/1 46/2/1
f 51/1/1 46/1/1 50/1/1
f 52/3/1 48/3/1 47/3/1
f 52/2/1 47/2/1 51/2/1
f 53/3/1 50/3/1 49/3/1
f 53/3/1 44/3/1 34/3/1
f 53/3/1 49/3/1 44/3/1
f 54/7/1 51/7/1 50/7/1
f 54/3/1 50/3/1 53/3/1
f 55/3/1 52/3/1 51/3/1
f 55/7/1 51/7/1 54/7/1
f 56/3/1 48/3/1 52/3/1
f 56/3/1 52/3/1 55/3/1
f 56/3/1 38/3/1 48/3/1
f 57/5/1 55/5/1 54/5/1
f 57/5/1 54/5/1 53/5/1
f 57/5/1 56/5/1 55/5/1
f 58/5/1 56/5/1 57/5/1
f 59/5/1 56/5/1 58/5/1
f 60/5/1 56/5/1 59/5/1
f 61/5/1 56/5/1 60/5/1
f 62/5/1 56/5/1 61/5/1
f 63/5/1 56/5/1 62/5/1
f 64/4/1 58/4/1 57/4/1
f 65/6/1 59/6/1 58/6/1
f 65/4/1 58/4/1 64/4/1
f 66/6/1 59/6/1 65/6/1
f 67/4/1 60/4/1 59/4/1
f 67/6/1 59/6/1 66/6/1
f 68/4/1 60/4/1 67/4/1
f 69/6/1 61/6/1 60/6/1
f 69/4/1 62/4/1 61/4/1
f 70/6/1 63/6/1 62/6/1
f 70/4/1 62/4/1 69/4/1
f 71/6/1 63/6/1 70/6/1
f 72/6/1 66/6/1 65/6/1
f 72/6/1 65/6/1 64/6/1
f 73/6/1 66/6/1 72/6/1
f 74/6/1 68/6/1 67/6/1
f 74/4/1 67/4/1 66/4/1
f 75/4/1 60/4/1 68/4/1
f 75/6/1 68/6/1 74/6/1
f 76/6/1 69/6/1 60/6/1
f 76/6/1 70/6/1 69/6/1
f 77/6/1 70/6/1 76/6/1
f 78/4/1 71/4/1 70/4/1
f 78/6/1 70/6/1 77/6/1
f 79/4/1 71/4/1 78/4/1
f 80/6/1 66/6/1 73/6/1
f 80/4/1 73/4/1 72/4/1
f 81/4/1 74/4/1 66/4/1
f 81/6/1 66/6/1 80/6/1
f 81/4/1 75/4/1 74/4/1
f 82/4/1 75/4/1 81/4/1
f 83/4/1 60/4/1 75/4/1
f 83/4/1 75/4/1 82/4/1
f 83/6/1 76/6/1 60/6/1
f 84/4/1 77/4/1 76/4/1
f 84/6/1 76/6/1 83/6/1
f 85/6/1 78/6/1 77/6/1
f 85/4/1 77/4/1 84/4/1
f 86/6/1 78/6/1 85/6/1
f 87/4/1 80/4/1 72/4/1
f 87/4/1 82/4/1 81/4/1
f 87/4/1 81/4/1 80/4/1
f 88/6/1 83/6/1 82/6/1
f 88/4/1 82/4/1 87/4/1
f 89/4/1 84/4/1 83/4/1
f 89/6/1 83/6/1 88/6/1
f 90/6/1 85/6/1 84/6/1
f 90/4/1 84/4/1 89/4/1
f 91/6/1 85/6/1 90/6/1
f 95/5/1 93/5/1 92/5/1
f 96/5/1 93/5/1 95/5/1
f 97/5/1 93/5/1 96/5/1
f 98/5/1 93/5/1 97/5/1
f 99/5/1 93/5/1 98/5/1
f 100/5/1 93/5/1 99/5/1
f 101/5/1 93/5/1 100/5/1
f 102/5/1 93/5/1 101/5/1
f 104/5/1 95/5/1 94/5/1
f 105/5/1 103/5/1 102/5/1
f 106/5/1 104/5/1 94/5/1
f 107/5/1 103/5/1 105/5/1
f 108/5/1 106/5/1 94/5/1
f 109/5/1 103/5/1 107/5/1
f 110/5/1 108/5/1 94/5/1
f 111/5/1 103/5/1 109/5/1
f 112/5/1 110/5/1 94/5/1
f 113/5/1 103/5/1 111/5/1
f 114/5/1 112/5/1 94/5/1
f 115/5/1 103/5/1 113/5/1
f 116/5/1 114/5/1 94/5/1
f 117/5/1 103/5/1 115/5/1
f 118/5/1 103/5/1 117/5/1
f 119/5/1 116/5/1 94/5/1
f 120/5/1 116/5/1 119/5/1
f 124/5/1 123/5/1 122/5/1
f 124/5/1 122/5/1 121/5/1
f 124/5/1 121/5/1 120/5/1
f 125/5/1 123/5/1 124/5/1
f 128/4/1 127/4/1 126/4/1
f 129/4/1 127/4/1 128/4/1
f 133/4/1 131/4/1 130/4/1
f 134/4/1 131/4/1 133/4/1
f 135/6/1 133/6/1 132/6/1
f 136/6/1 133/6/1 135/6/1
f 137/6/2 138/6/2 139/6/2
f 139/6/2 138/6/2 140/6/2
f 141/6/2 142/6/2 144/6/2
f 144/6/2 142/6/2 145/6/2
f 143/6/2 144/6/2 146/6/2
f 146/6/2 144/6/2 147/6/2
f 148/5/2 149/5/2 151/5/2
f 151/5/2 149/5/2 152/5/2
f 152/5/2 149/5/2 153/5/2
f 153/5/2 149/5/2 154/5/2
f 154/5/2 149/5/2 155/5/2
f 155/5/2 149/5/2 156/5/2
f 150/5/2 151/5/2 158/5/2
f 150/5/2 158/5/2 159/5/2
f 150/5/2 159/5/2 160/5/2
f 150/5/2 160/5/2 161/5/2
f 156/5/2 157/5/2 162/5/2
f 150/5/2 161/5/2 163/5/2
f 162/5/2 157/5/2 164/5/2
f 150/5/2 163/5/2 165/5/2
f 164/5/2 157/5/2 166/5/2
f 166/5/2 157/5/2 167/5/2
f 150/5/2 165/5/2 168/5/2
f 167/5/2 157/5/2 169/5/2
f 169/5/2 157/5/2 170/5/2
f 170/5/2 157/5/2 171/5/2
f 150/5/2 168/5/2 172/5/2
f 150/5/2 172/5/2 173/5/2
f 173/5/2 172/5/2 174/5/2
f 178/5/2 179/5/2 180/5/2
f 177/5/2 178/5/2 180/5/2
f 176/5/2 177/5/2 180/5/2
f 175/5/2 176/5/2 180/5/2
f 174/5/2 175/5/2 180/5/2
f 180/5/2 179/5/2 181/5/2
f 182/6/2 183/6/2 188/6/2
f 188/6/2 183/6/2 189/6/2
f 183/4/2 184/4/2 190/4/2
f 189/6/2 183/6/2 190/6/2
f 190/4/2 184/4/2 191/4/2
f 184/6/2 185/6/2 192/6/2
f 191/4/2 184/4/2 192/4/2
f 185/4/2 186/4/2 193/4/2
f 192/6/2 185/6/2 193/6/2
f 186/6/2 187/6/2 194/6/2
f 193/4/2 186/4/2 194/4/2
f 194/6/2 187/6/2 195/6/2
f 188/4/2 189/4/2 196/4/2
f 190/6/2 191/6/2 197/6/2
f 196/4/2 189/4/2 197/4/2
f 189/6/2 190/6/2 197/6/2
f 197/6/2 191/6/2 198/6/2
f 192/4/2 193/4/2 199/4/2
f 198/6/2 191/6/2 199/6/2
f 191/4/2 192/4/2 199/4/2
f 194/4/2 195/4/2 199/4/2
f 193/4/2 194/4/2 199/4/2
f 199/4/2 195/4/2 200/4/2
f 200/4/2 195/4/2 201/4/2
f 195/6/2 187/6/2 202/6/2
f 201/4/2 195/4/2 202/4/2
f 197/6/2 198/6/2 203/6/2
f 196/6/2 197/6/2 203/6/2
f 198/4/2 199/4/2 204/4/2
f 203/6/2 198/6/2 204/6/2
f 199/6/2 200/6/2 205/6/2
f 204/4/2 199/4/2 205/4/2
f 205/6/2 200/6/2 206/6/2
f 200/4/2 201/4/2 207/4/2
f 206/6/2 200/6/2 207/6/2
f 207/4/2 201/4/2 208/4/2
f 196/6/2 203/6/2 209/6/2
f 203/4/2 204/4/2 210/4/2
f 209/6/2 203/6/2 210/6/2
f 204/6/2 205/6/2 211/6/2
f 205/4/2 206/4/2 212/4/2
f 211/6/2 205/6/2 212/6/2
f 206/6/2 207/6/2 213/6/2
f 212/4/2 206/4/2 213/4/2
f 207/6/2 208/6/2 213/6/2
f 209/4/2 210/4/2 214/4/2
f 204/6/2 211/6/2 215/6/2
f 214/4/2 210/4/2 215/4/2
f 210/4/2 204/4/2 215/4/2
f 211/4/2 212/4/2 216/4/2
f 215/6/2 211/6/2 216/6/2
f 212/6/2 213/6/2 217/6/2
f 216/4/2 212/4/2 217/4/2
f 213/6/2 208/6/2 218/6/2
f 217/6/2 213/6/2 218/6/2
f 208/4/2 201/4/2 219/4/2
f 218/6/2 208/6/2 219/6/2
f 201/6/2 202/6/2 220/6/2
f 219/4/2 201/4/2 220/4/2
f 202/6/2 187/6/2 221/6/2
f 220/6/2 202/6/2 221/6/2
f 221/6/2 187/6/2 222/6/2
f 215/6/2 216/6/2 223/6/2
f 214/6/2 215/6/2 223/6/2
f 216/6/2 217/6/2 223/6/2
f 217/4/2 218/4/2 224/4/2
f 223/6/2 217/6/2 224/6/2
f 219/6/2 220/6/2 225/6/2
f 224/4/2 218/4/2 225/4/2
f 218/6/2 219/6/2 225/6/2
f 220/6/2 221/6/2 225/6/2
f 214/6/2 223/6/2 226/6/2
f 223/4/2 224/4/2 227/4/2
f 226/6/2 223/6/2 227/6/2
f 227/4/2 224/4/2 228/4/2
f 224/6/2 225/6/2 229/6/2
f 228/4/2 224/4/2 229/4/2
f 225/6/2 221/6/2 230/6/2
f 229/6/2 225/6/2 230/6/2
f 230/6/2 221/6/2 231/6/2
f 231/6/2 221/6/2 232/6/2
f 221/4/2 222/4/2 233/4/2
f 232/6/2 221/6/2 233/6/2
f 233/4/2 222/4/2 234/4/2
f 226/4/2 227/4/2 235/4/2
f 227/6/2 228/6/2 236/6/2
f 235/4/2 227/4/2 236/4/2
f 228/4/2 229/4/2 237/4/2
f 236/6/2 228/6/2 237/6/2
f 229/4/2 230/4/2 237/4/2
f 237/4/2 230/4/2 238/4/2
f 238/4/2 230/4/2 239/4/2
f 230/6/2 231/6/2 240/6/2
f 239/4/2 230/4/2 240/4/2
f 233/6/2 234/6/2 241/6/2
f 232/6/2 233/6/2 241/6/2
f 241/6/2 234/6/2 242/6/2
f 235/6/2 236/6/2 243/6/2
f 236/4/2 237/4/2 243/4/2
f 237/6/2 238/6/2 244/6/2
f 243/4/2 237/4/2 244/4/2
f 238/4/2 239/4/2 245/4/2
f 244/6/2 238/6/2 245/6/2
f 239/6/2 240/6/2 246/6/2
f 245/4/2 239/4/2 246/4/2
f 231/4/2 232/4/2 247/4/2
f 246/6/2 240/6/2 247/6/2
f 240/6/2 231/6/2 247/6/2
f 232/6/2 241/6/2 248/6/2
f 247/4/2 232/4/2 248/4/2
f 241/4/2 242/4/2 249/4/2
f 248/6/2 241/6/2 249/6/2
f 249/4/2 242/4/2 250/4/2
f 245/6/2 246/6/2 251/6/2
f 246/6/2 247/6/2 251/6/2
f 243/6/2 244/6/2 251/6/2
f 244/6/2 245/6/2 251/6/2
f 235/6/2 243/6/2 251/6/2
f 247/6/2 248/6/2 251/6/2
f 251/6/2 248/6/2 252/6/2
f 252/6/2 248/6/2 253/6/2
f 253/6/2 248/6/2 254/6/2
f 254/6/2 248/6/2 255/6/2
f 255/6/2 248/6/2 256/6/2
f 256/6/2 248/6/2 257/6/2
f 248/4/2 249/4/2 258/4/2
f 257/6/2 248/6/2 258/6/2
f 249/6/2 250/6/2 259/6/2
f 258/4/2 249/4/2 259/4/2
f 259/6/2 250/6/2 260/6/2
f 253/4/2 254/4/2 261/4/2
f 254/6/2 255/6/2 262/6/2
f 261/4/2 254/4/2 262/4/2
f 257/4/2 258/4/2 263/4/2
f 256/6/2 257/6/2 263/6/2
f 258/6/2 259/6/2 264/6/2
f 263/4/2 258/4/2 264/4/2
f 259/4/2 260/4/2 265/4/2
f 264/6/2 259/6/2 265/6/2
f 252/6/2 253/6/2 266/6/2
f 253/4/2 261/4/2 266/4/2
f 261/6/2 262/6/2 267/6/2
f 266/4/2 261/4/2 267/4/2
f 262/6/2 255/6/2 268/6/2
f 267/6/2 262/6/2 268/6/2
f 255/4/2 256/4/2 268/4/2
f 263/6/2 264/6/2 269/6/2
f 268/4/2 256/4/2 269/4/2
f 256/6/2 263/6/2 269/6/2
f 264/4/2 265/4/2 270/4/2
f 269/6/2 264/6/2 270/6/2
f 265/4/2 260/4/2 271/4/2
f 270/4/2 265/4/2 271/4/2
f 271/4/2 260/4/2 272/4/2
f 251/4/2 252/4/2 273/4/2
f 266/6/2 267/6/2 274/6/2
f 273/4/2 252/4/2 274/4/2
f 252/6/2 266/6/2 274/6/2
f 270/4/2 271/4/2 275/4/2
f 274/6/2 267/6/2 275/6/2
f 269/4/2 270/4/2 275/4/2
f 267/4/2 268/4/2 275/4/2
f 268/4/2 269/4/2 275/4/2
f 275/4/2 271/4/2 276/4/2
f 276/4/2 271/4/2 277/4/2
f 277/4/2 271/4/2 278/4/2
f 278/4/2 271/4/2 279/4/2
f 273/6/2 274/6/2 280/6/2
f 274/4/2 275/4/2 281/4/2
f 280/6/2 274/6/2 281/6/2
f 275/6/2 276/6/2 282/6/2
f 281/4/2 275/4/2 282/4/2
f 276/4/2 277/4/2 283/4/2
f 282/6/2 276/6/2 283/6/2
f 277/6/2 278/6/2 284/6/2
f 283/4/2 277/4/2 284/4/2
f 284/6/2 278/6/2 285/6/2
f 288/5/3 287/5/3 286/5/3
f 289/5/3 287/5/3 288/5/3
f 300/4/3 291/4/3 290/4/3
f 301/6/3 292/6/3 291/6/3
f 301/4/3 291/4/3 300/4/3
f 302/5/3 293/5/3 292/5/3
f 302/6/3 292/6/3 301/6/3
f 303/3/3 294/3/3 293/3/3
f 303/5/3 293/5/3 302/5/3
f 304/5/3 295/5/3 294/5/3
f 304/3/3 294/3/3 303/3/3
f 305/4/3 296/4/3 295/4/3
f 305/5/3 295/5/3 304/5/3
f 306/6/3 297/6/3 296/6/3
f 306/4/3 296/4/3 305/4/3
f 307/4/3 298/4/3 297/4/3
f 307/6/3 297/6/3 306/6/3
f 308/4/3 298/4/3 307/4/3
f 310/5/3 300/5/3 299/5/3
f 311/5/3 300/5/3 310/5/3
f 320/5/3 309/5/3 308/5/3
f 321/5/3 309/5/3 320/5/3
f 322/6/3 312/6/3 311/6/3
f 323/4/3 313/4/3 312/4/3
f 323/6/3 312/6/3 322/6/3
f 324/6/3 314/6/3 313/6/3
f 324/4/3 313/4/3 323/4/3
f 325/4/3 315/4/3 314/4/3
f 325/6/3 314/6/3 324/6/3
f 326/6/3 316/6/3 315/6/3
f 326/4/3 315/4/3 325/4/3
f 327/4/3 317/4/3 316/4/3
f 327/6/3 316/6/3 326/6/3
f 328/6/3 318/6/3 317/6/3
f 328/4/3 317/4/3 327/4/3
f 329/4/3 319/4/3 318/4/3
f 329/6/3 318/6/3 328/6/3
f 330/6/3 320/6/3 319/6/3
f 330/4/3 319/4/3 329/4/3
f 331/6/3 320/6/3 330/6/3
f 334/5/3 333/5/3 332/5/3
f 335/5/3 333/5/3 334/5/3
f 336/8/4 337/8/4 339/8/4
f 337/5/4 338/5/4 340/5/4
f 339/8/4 337/8/4 340/8/4
f 340/5/4 338/5/4 341/5/4
f 342/6/4 343/6/4 345/6/4
f 345/6/4 343/6/4 346/6/4
f 344/8/4 345/8/4 347/8/4
f 347/8/4 345/8/4 348/8/4
f 348/6/4 349/6/4 350/6/4
f 350/6/4 349/6/4 351/6/4
f 352/6/4 353/6/4 356/6/4
f 356/6/4 353/6/4 357/6/4
f 354/8/4 355/8/4 358/8/4
f 358/8/4 355/8/4 359/8/4
f 360/4/4 361/4/4 362/4/4
f 362/4/4 361/4/4 363/4/4
f 364/4/4 365/4/4 373/4/4
f 365/6/4 366/6/4 374/6/4
f 373/4/4 365/4/4 374/4/4
f 366/5/4 367/5/4 375/5/4
f 374/6/4 366/6/4 375/6/4
f 367/3/4 368/3/4 376/3/4
f 375/5/4 367/5/4 376/5/4
f 368/5/4 369/5/4 377/5/4
f 376/3/4 368/3/4 377/3/4
f 369/6/4 370/6/4 378/6/4
f 377/5/4 369/5/4 378/5/4
f 370/4/4 371/4/4 379/4/4
f 378/6/4 370/6/4 379/6/4
f 379/4/4 371/4/4 380/4/4
f 372/5/4 373/5/4 381/5/4
f 381/5/4 373/5/4 382/5/4
f 382/6/4 383/6/4 389/6/4
f 383/4/4 384/4/4 390/4/4
f 389/6/4 383/6/4 390/6/4
f 384/6/4 385/6/4 391/6/4
f 390/4/4 384/4/4 391/4/4
f 385/4/4 386/4/4 392/4/4
f 391/6/4 385/6/4 392/6/4
f 386/6/4 387/6/4 393/6/4
f 392/4/4 386/4/4 393/4/4
f 387/4/4 388/4/4 394/4/4
f 393/6/4 387/6/4 394/6/4
f 394/4/4 388/4/4 395/4/4
f 396/5/4 397/5/4 398/5/4
f 398/5/4 397/5/4 399/5/4
f 402/5/5 401/5/5 400/5/5
f 403/5/5 401/5/5 402/5/5
f 407/5/5 405/5/5 404/5/5
f 408/5/5 405/5/5 407/5/5
f 410/4/5 407/4/5 406/4/5
f 411/4/5 407/4/5 410/4/5
f 412/6/5 411/6/5 410/6/5
f 413/6/5 411/6/5 412/6/5
f 414/6/5 409/6/5 408/6/5
f 415/6/5 409/6/5 414/6/5
f 416/4/5 413/4/5 412/4/5
f 417/4/5 413/4/5 416/4/5
f 418/6/5 417/6/5 416/6/5
f 419/6/5 417/6/5 418/6/5
f 420/4/5 415/4/5 414/4/5
f 421/4/5 415/4/5 420/4/5
f 422/4/5 419/4/5 418/4/5
f 423/4/5 419/4/5 422/4/5
f 424/6/5 421/6/5 420/6/5
f 425/6/5 421/6/5 424/6/5
f 426/6/5 423/6/5 422/6/5
f 427/6/5 423/6/5 426/6/5
f 428/4/5 425/4/5 424/4/5
f 429/4/5 425/4/5 428/4/5
f 430/4/5 427/4/5 426/4/5
f 431/4/5 427/4/5 430/4/5
f 432/6/5 429/6/5 428/6/5
f 433/6/5 429/6/5 432/6/5
f 434/5/5 432/5/5 431/5/5
f 435/5/5 432/5/5 434/5/5
f 438/8/5 437/8/5 436/8/5
f 439/8/5 437/8/5 438/8/5
f 440/8/6 441/8/6 442/8/6
f 442/8/6 441/8/6 443/8/6
f 444/8/6 445/8/6 447/8/6
f 447/8/6 445/8/6 448/8/6
f 446/4/6 447/4/6 450/4/6
f 447/8/6 448/8/6 451/8/6
f 450/4/6 447/4/6 451/4/6
f 448/4/6 449/4/6 452/4/6
f 451/8/6 448/8/6 452/8/6
f 452/4/6 449/4/6 453/4/6
f 451/5/6 452/5/6 454/5/6
f 454/5/6 452/5/6 455/5/6
f 456/8/6 457/8/6 459/8/6
f 459/8/6 457/8/6 460/8/6
f 458/6/6 459/6/6 462/6/6
f 462/6/6 459/6/6 463/6/6
f 460/4/6 461/4/6 464/4/6
f 464/4/6 461/4/6 465/4/6
f 466/5/6 467/5/6 469/5/6
f 469/5/6 467/5/6 470/5/6
f 470/6/6 471/6/6 472/6/6
f 472/6/6 471/6/6 473/6/6
f 468/4/6 469/4/6 474/4/6
f 474/4/6 469/4/6 475/4/6
f 472/4/6 473/4/6 476/4/6
f 476/4/6 473/4/6 477/4/6
f 476/6/6 477/6/6 478/6/6
f 478/6/6 477/6/6 479/6/6
f 474/6/6 475/6/6 480/6/6
f 480/6/6 475/6/6 481/6/6
f 478/4/6 479/4/6 482/4/6
f 482/4/6 479/4/6 483/4/6
f 480/4/6 481/4/6 484/4/6
f 484/4/6 481/4/6 485/4/6
f 482/6/6 483/6/6 486/6/6
f 484/6/6 485/6/6 487/6/6
f 487/6/6 485/6/6 488/6/6
f 486/6/6 483/6/6 489/6/6
f 489/6/6 483/6/6 490/6/6
f 491/5/6 492/5/6 493/5/6
f 493/5/6 492/5/6 494/5/6
