# MagicaVoxel @ Ephtracy

# group
o tomato_growth1

# material
mtllib farm-26-tomato_growth1.mtl
usemtl palette

# normals
vn -1 0 0
vn 1 0 0
vn 0 0 1
vn 0 0 -1
vn 0 -1 0
vn 0 1 0

# texcoords
vt 0.310547 0.5
vt 0.556641 0.5

# verts
v 1.5 0 3.5
v 1.5 0 3.4
v 1.5 0.1 3.5
v 1.5 0.1 3.4
v 1.6 0 3.4
v 1.6 0 3.3
v 1.6 0.1 3.6
v 1.6 0.1 3.5
v 1.6 0.1 3.4
v 1.6 0.1 3.3
v 1.6 0.2 3.6
v 1.6 0.2 3.5
v 1.6 0.8 3.5
v 1.6 0.8 3.4
v 1.7 0 3.5
v 1.7 0 3.4
v 1.7 0 3.3
v 1.7 0.1 3.5
v 1.7 0.1 3.4
v 1.7 0.1 3.3
v 1.7 0.2 3.5
v 1.7 0.2 3.4
v 1.7 0.3 3.5
v 1.7 0.3 3.4
v 1.7 0.8 3.5
v 1.7 0.8 3.4
v 1.8 0.1 3.6
v 1.8 0.1 3.5
v 1.8 0.2 3.6
v 1.8 0.2 3.5
v 1.8 0.2 3.4
v 1.8 0.3 3.5
v 1.8 0.3 3.4
v 1.6 0.1 3.6
v 1.6 0.2 3.6
v 1.8 0.1 3.6
v 1.8 0.2 3.6
v 1.5 0 3.5
v 1.5 0.1 3.5
v 1.6 0 3.5
v 1.6 0.1 3.5
v 1.6 0.2 3.5
v 1.6 0.8 3.5
v 1.7 0 3.5
v 1.7 0.1 3.5
v 1.7 0.2 3.5
v 1.7 0.3 3.5
v 1.7 0.8 3.5
v 1.8 0.2 3.5
v 1.8 0.3 3.5
v 1.7 0.1 3.5
v 1.7 0.2 3.5
v 1.8 0.1 3.5
v 1.8 0.2 3.5
v 1.5 0 3.4
v 1.5 0.1 3.4
v 1.6 0 3.4
v 1.6 0.1 3.4
v 1.6 0.8 3.4
v 1.7 0.1 3.4
v 1.7 0.2 3.4
v 1.7 0.3 3.4
v 1.7 0.8 3.4
v 1.8 0.2 3.4
v 1.8 0.3 3.4
v 1.6 0 3.3
v 1.6 0.1 3.3
v 1.7 0 3.3
v 1.7 0.1 3.3
v 1.5 0 3.5
v 1.6 0 3.5
v 1.7 0 3.5
v 1.5 0 3.4
v 1.6 0 3.4
v 1.7 0 3.4
v 1.6 0 3.3
v 1.7 0 3.3
v 1.6 0.1 3.6
v 1.8 0.1 3.6
v 1.6 0.1 3.5
v 1.7 0.1 3.5
v 1.8 0.1 3.5
v 1.7 0.2 3.5
v 1.8 0.2 3.5
v 1.7 0.2 3.4
v 1.8 0.2 3.4
v 1.5 0.1 3.5
v 1.6 0.1 3.5
v 1.5 0.1 3.4
v 1.6 0.1 3.4
v 1.7 0.1 3.4
v 1.6 0.1 3.3
v 1.7 0.1 3.3
v 1.6 0.2 3.6
v 1.8 0.2 3.6
v 1.6 0.2 3.5
v 1.7 0.2 3.5
v 1.8 0.2 3.5
v 1.7 0.3 3.5
v 1.8 0.3 3.5
v 1.7 0.3 3.4
v 1.8 0.3 3.4
v 1.6 0.8 3.5
v 1.7 0.8 3.5
v 1.6 0.8 3.4
v 1.7 0.8 3.4

# faces
f 3/2/1 2/2/1 1/2/1
f 4/2/1 2/2/1 3/2/1
f 9/2/1 6/2/1 5/2/1
f 10/2/1 6/2/1 9/2/1
f 11/2/1 8/2/1 7/2/1
f 12/1/1 9/1/1 8/1/1
f 12/2/1 8/2/1 11/2/1
f 13/1/1 9/1/1 12/1/1
f 14/1/1 9/1/1 13/1/1
f 15/1/2 16/1/2 18/1/2
f 16/2/2 17/2/2 19/2/2
f 18/1/2 16/1/2 19/1/2
f 19/2/2 17/2/2 20/2/2
f 18/1/2 19/1/2 21/1/2
f 21/1/2 19/1/2 22/1/2
f 23/1/2 24/1/2 25/1/2
f 25/1/2 24/1/2 26/1/2
f 27/2/2 28/2/2 29/2/2
f 29/2/2 28/2/2 30/2/2
f 30/2/2 31/2/2 32/2/2
f 32/2/2 31/2/2 33/2/2
f 36/2/3 35/2/3 34/2/3
f 37/2/3 35/2/3 36/2/3
f 40/2/3 39/2/3 38/2/3
f 41/2/3 39/2/3 40/2/3
f 44/1/3 41/1/3 40/1/3
f 45/1/3 41/1/3 44/1/3
f 46/1/3 43/1/3 42/1/3
f 47/1/3 43/1/3 46/1/3
f 48/1/3 43/1/3 47/1/3
f 49/2/3 47/2/3 46/2/3
f 50/2/3 47/2/3 49/2/3
f 51/2/4 52/2/4 53/2/4
f 53/2/4 52/2/4 54/2/4
f 55/2/4 56/2/4 57/2/4
f 57/2/4 56/2/4 58/2/4
f 58/1/4 59/1/4 60/1/4
f 60/1/4 59/1/4 61/1/4
f 61/1/4 59/1/4 62/1/4
f 62/1/4 59/1/4 63/1/4
f 61/2/4 62/2/4 64/2/4
f 64/2/4 62/2/4 65/2/4
f 66/2/4 67/2/4 68/2/4
f 68/2/4 67/2/4 69/2/4
f 73/2/5 71/2/5 70/2/5
f 74/1/5 72/1/5 71/1/5
f 74/2/5 71/2/5 73/2/5
f 75/1/5 72/1/5 74/1/5
f 76/2/5 75/2/5 74/2/5
f 77/2/5 75/2/5 76/2/5
f 80/2/5 79/2/5 78/2/5
f 81/2/5 79/2/5 80/2/5
f 82/2/5 79/2/5 81/2/5
f 85/2/5 84/2/5 83/2/5
f 86/2/5 84/2/5 85/2/5
f 87/2/6 88/2/6 89/2/6
f 89/2/6 88/2/6 90/2/6
f 90/2/6 91/2/6 92/2/6
f 92/2/6 91/2/6 93/2/6
f 94/2/6 95/2/6 96/2/6
f 96/2/6 95/2/6 97/2/6
f 97/2/6 95/2/6 98/2/6
f 99/2/6 100/2/6 101/2/6
f 101/2/6 100/2/6 102/2/6
f 103/1/6 104/1/6 105/1/6
f 105/1/6 104/1/6 106/1/6
