# MagicaVoxel @ Ephtracy

# group
o pitchfork

# material
mtllib farm-18-pitchfork.mtl
usemtl palette

# normals
vn -1 0 0
vn 1 0 0
vn 0 0 1
vn 0 0 -1
vn 0 -1 0
vn 0 1 0

# texcoords
vt 0.955078 0.5
vt 0.982422 0.5

# verts
v -6.3 0.9 -3
v -6.3 0.9 -3.1
v -6.3 1.1 -3
v -6.3 1.1 -3.1
v -6.2 0.8 -3
v -6.2 0.8 -3.1
v -6.2 0.9 -3
v -6.2 0.9 -3.1
v -6.1 0 -3
v -6.1 0 -3.1
v -6.1 0.7 -3
v -6.1 0.7 -3.1
v -6.1 0.8 -3
v -6.1 0.8 -3.1
v -6.1 0.9 -3
v -6.1 0.9 -3.1
v -6.1 1.1 -3
v -6.1 1.1 -3.1
v -5.9 0.9 -3
v -5.9 0.9 -3.1
v -5.9 1.1 -3
v -5.9 1.1 -3.1
v -6.2 0.9 -3
v -6.2 0.9 -3.1
v -6.2 1.1 -3
v -6.2 1.1 -3.1
v -6 0 -3
v -6 0 -3.1
v -6 0.7 -3
v -6 0.7 -3.1
v -6 0.8 -3
v -6 0.8 -3.1
v -6 0.9 -3
v -6 0.9 -3.1
v -6 1.1 -3
v -6 1.1 -3.1
v -5.9 0.8 -3
v -5.9 0.8 -3.1
v -5.9 0.9 -3
v -5.9 0.9 -3.1
v -5.8 0.9 -3
v -5.8 0.9 -3.1
v -5.8 1.1 -3
v -5.8 1.1 -3.1
v -6.3 0.9 -3
v -6.3 1.1 -3
v -6.2 0.8 -3
v -6.2 0.9 -3
v -6.2 1.1 -3
v -6.1 0 -3
v -6.1 0.7 -3
v -6.1 0.8 -3
v -6.1 0.9 -3
v -6.1 1.1 -3
v -6 0 -3
v -6 0.7 -3
v -6 0.8 -3
v -6 0.9 -3
v -6 1.1 -3
v -5.9 0.8 -3
v -5.9 0.9 -3
v -5.9 1.1 -3
v -5.8 0.9 -3
v -5.8 1.1 -3
v -6.3 0.9 -3.1
v -6.3 1.1 -3.1
v -6.2 0.8 -3.1
v -6.2 0.9 -3.1
v -6.2 1.1 -3.1
v -6.1 0 -3.1
v -6.1 0.7 -3.1
v -6.1 0.8 -3.1
v -6.1 0.9 -3.1
v -6.1 1.1 -3.1
v -6 0 -3.1
v -6 0.7 -3.1
v -6 0.8 -3.1
v -6 0.9 -3.1
v -6 1.1 -3.1
v -5.9 0.8 -3.1
v -5.9 0.9 -3.1
v -5.9 1.1 -3.1
v -5.8 0.9 -3.1
v -5.8 1.1 -3.1
v -6.1 0 -3
v -6 0 -3
v -6.1 0 -3.1
v -6 0 -3.1
v -6.2 0.8 -3
v -6.1 0.8 -3
v -6 0.8 -3
v -5.9 0.8 -3
v -6.2 0.8 -3.1
v -6.1 0.8 -3.1
v -6 0.8 -3.1
v -5.9 0.8 -3.1
v -6.3 0.9 -3
v -6.2 0.9 -3
v -5.9 0.9 -3
v -5.8 0.9 -3
v -6.3 0.9 -3.1
v -6.2 0.9 -3.1
v -5.9 0.9 -3.1
v -5.8 0.9 -3.1
v -6.2 0.9 -3
v -6.1 0.9 -3
v -6 0.9 -3
v -5.9 0.9 -3
v -6.2 0.9 -3.1
v -6.1 0.9 -3.1
v -6 0.9 -3.1
v -5.9 0.9 -3.1
v -6.3 1.1 -3
v -6.2 1.1 -3
v -6.1 1.1 -3
v -6 1.1 -3
v -5.9 1.1 -3
v -5.8 1.1 -3
v -6.3 1.1 -3.1
v -6.2 1.1 -3.1
v -6.1 1.1 -3.1
v -6 1.1 -3.1
v -5.9 1.1 -3.1
v -5.8 1.1 -3.1

# faces
f 3/2/1 2/2/1 1/2/1
f 4/2/1 2/2/1 3/2/1
f 7/2/1 6/2/1 5/2/1
f 8/2/1 6/2/1 7/2/1
f 11/1/1 10/1/1 9/1/1
f 12/1/1 10/1/1 11/1/1
f 13/2/1 12/2/1 11/2/1
f 14/2/1 12/2/1 13/2/1
f 17/2/1 16/2/1 15/2/1
f 18/2/1 16/2/1 17/2/1
f 21/2/1 20/2/1 19/2/1
f 22/2/1 20/2/1 21/2/1
f 23/2/2 24/2/2 25/2/2
f 25/2/2 24/2/2 26/2/2
f 27/1/2 28/1/2 29/1/2
f 29/1/2 28/1/2 30/1/2
f 29/2/2 30/2/2 31/2/2
f 31/2/2 30/2/2 32/2/2
f 33/2/2 34/2/2 35/2/2
f 35/2/2 34/2/2 36/2/2
f 37/2/2 38/2/2 39/2/2
f 39/2/2 38/2/2 40/2/2
f 41/2/2 42/2/2 43/2/2
f 43/2/2 42/2/2 44/2/2
f 48/2/3 46/2/3 45/2/3
f 49/2/3 46/2/3 48/2/3
f 52/2/3 48/2/3 47/2/3
f 53/2/3 48/2/3 52/2/3
f 55/1/3 51/1/3 50/1/3
f 56/2/3 54/2/3 53/2/3
f 56/1/3 51/1/3 55/1/3
f 56/2/3 52/2/3 51/2/3
f 56/2/3 53/2/3 52/2/3
f 57/2/3 54/2/3 56/2/3
f 58/2/3 54/2/3 57/2/3
f 59/2/3 54/2/3 58/2/3
f 60/2/3 58/2/3 57/2/3
f 61/2/3 58/2/3 60/2/3
f 63/2/3 62/2/3 61/2/3
f 64/2/3 62/2/3 63/2/3
f 65/2/4 66/2/4 68/2/4
f 68/2/4 66/2/4 69/2/4
f 67/2/4 68/2/4 72/2/4
f 72/2/4 68/2/4 73/2/4
f 70/1/4 71/1/4 75/1/4
f 73/2/4 74/2/4 76/2/4
f 75/1/4 71/1/4 76/1/4
f 71/2/4 72/2/4 76/2/4
f 72/2/4 73/2/4 76/2/4
f 76/2/4 74/2/4 77/2/4
f 77/2/4 74/2/4 78/2/4
f 78/2/4 74/2/4 79/2/4
f 77/2/4 78/2/4 80/2/4
f 80/2/4 78/2/4 81/2/4
f 81/2/4 82/2/4 83/2/4
f 83/2/4 82/2/4 84/2/4
f 87/1/5 86/1/5 85/1/5
f 88/1/5 86/1/5 87/1/5
f 93/2/5 90/2/5 89/2/5
f 94/2/5 90/2/5 93/2/5
f 95/2/5 92/2/5 91/2/5
f 96/2/5 92/2/5 95/2/5
f 101/2/5 98/2/5 97/2/5
f 102/2/5 98/2/5 101/2/5
f 103/2/5 100/2/5 99/2/5
f 104/2/5 100/2/5 103/2/5
f 105/2/6 106/2/6 109/2/6
f 109/2/6 106/2/6 110/2/6
f 107/2/6 108/2/6 111/2/6
f 111/2/6 108/2/6 112/2/6
f 113/2/6 114/2/6 119/2/6
f 119/2/6 114/2/6 120/2/6
f 115/2/6 116/2/6 121/2/6
f 121/2/6 116/2/6 122/2/6
f 117/2/6 118/2/6 123/2/6
f 123/2/6 118/2/6 124/2/6
