# MagicaVoxel @ Ephtracy

# group
o sheep_white

# material
mtllib farm-25-sheep_white.mtl
usemtl palette

# normals
vn -1 0 0
vn 1 0 0
vn 0 0 1
vn 0 0 -1
vn 0 -1 0
vn 0 1 0

# texcoords
vt 0.916016 0.5
vt 0.919922 0.5
vt 0.994141 0.5

# verts
v -5.5 0.3 2
v -5.5 0.3 1.7
v -5.5 0.3 1.6
v -5.5 0.4 2.1
v -5.5 0.4 2
v -5.5 0.4 1.7
v -5.5 0.4 1.6
v -5.5 0.4 1.5
v -5.5 0.5 2.1
v -5.5 0.5 2
v -5.5 0.5 1.8
v -5.5 0.5 1.7
v -5.5 0.5 1.6
v -5.5 0.5 1.5
v -5.5 0.6 2.1
v -5.5 0.6 2
v -5.5 0.6 1.8
v -5.5 0.6 1.6
v -5.5 0.6 1.5
v -5.4 0.2 2
v -5.4 0.2 1.6
v -5.4 0.2 1.5
v -5.4 0.3 2.1
v -5.4 0.3 2
v -5.4 0.3 1.7
v -5.4 0.3 1.6
v -5.4 0.3 1.5
v -5.4 0.4 2.2
v -5.4 0.4 2.1
v -5.4 0.4 2
v -5.4 0.4 1.6
v -5.4 0.4 1.5
v -5.4 0.4 1.4
v -5.4 0.5 2.1
v -5.4 0.5 1.5
v -5.4 0.5 1.4
v -5.4 0.6 2.3
v -5.4 0.6 2.2
v -5.4 0.6 2.1
v -5.4 0.6 2
v -5.4 0.6 1.9
v -5.4 0.6 1.8
v -5.4 0.6 1.7
v -5.4 0.6 1.6
v -5.4 0.6 1.5
v -5.4 0.6 1.4
v -5.4 0.7 2
v -5.4 0.7 1.9
v -5.4 0.7 1.8
v -5.4 0.7 1.7
v -5.4 0.7 1.6
v -5.4 0.7 1.5
v -5.4 0.8 2.3
v -5.4 0.8 2.2
v -5.4 0.8 2.1
v -5.4 0.8 2
v -5.3 0 2.1
v -5.3 0 2
v -5.3 0 1.6
v -5.3 0 1.5
v -5.3 0.2 2.1
v -5.3 0.2 2
v -5.3 0.2 1.6
v -5.3 0.2 1.5
v -5.3 0.2 1.4
v -5.3 0.3 2.1
v -5.3 0.3 2
v -5.3 0.3 1.5
v -5.3 0.3 1.4
v -5.3 0.4 2.4
v -5.3 0.4 2.2
v -5.3 0.4 1.5
v -5.3 0.4 1.4
v -5.3 0.4 1.3
v -5.3 0.5 1.4
v -5.3 0.5 1.3
v -5.3 0.6 2.4
v -5.3 0.6 2.3
v -5.3 0.6 2.2
v -5.3 0.6 1.5
v -5.3 0.6 1.4
v -5.3 0.6 1.3
v -5.3 0.7 2
v -5.3 0.7 1.9
v -5.3 0.7 1.8
v -5.3 0.7 1.7
v -5.3 0.7 1.6
v -5.3 0.7 1.5
v -5.3 0.7 1.4
v -5.3 0.8 2.3
v -5.3 0.8 2.2
v -5.3 0.8 2.1
v -5.3 0.8 2
v -5.3 0.8 1.9
v -5.3 0.8 1.6
v -5.3 0.9 2.3
v -5.3 0.9 2.2
v -5.3 0.9 2.1
v -5.3 0.9 2
v -5.1 0 2.1
v -5.1 0 2
v -5.1 0 1.6
v -5.1 0 1.5
v -5.1 0.2 2.1
v -5.1 0.2 2
v -5.1 0.2 1.6
v -5.1 0.2 1.5
v -5.2 0 2.1
v -5.2 0 2
v -5.2 0 1.6
v -5.2 0 1.5
v -5.2 0.2 2.1
v -5.2 0.2 2
v -5.2 0.2 1.6
v -5.2 0.2 1.5
v -5 0 2.1
v -5 0 2
v -5 0 1.6
v -5 0 1.5
v -5 0.2 2.1
v -5 0.2 2
v -5 0.2 1.6
v -5 0.2 1.5
v -5 0.2 1.4
v -5 0.3 2.1
v -5 0.3 2
v -5 0.3 1.6
v -5 0.3 1.5
v -5 0.4 2.4
v -5 0.4 2.2
v -5 0.4 1.5
v -5 0.4 1.4
v -5 0.4 1.3
v -5 0.5 1.4
v -5 0.5 1.3
v -5 0.6 2.4
v -5 0.6 2.3
v -5 0.6 2.2
v -5 0.6 1.5
v -5 0.6 1.4
v -5 0.6 1.3
v -5 0.7 2
v -5 0.7 1.9
v -5 0.7 1.8
v -5 0.7 1.6
v -5 0.7 1.5
v -5 0.7 1.4
v -5 0.8 2.3
v -5 0.8 2.2
v -5 0.8 2.1
v -5 0.8 2
v -5 0.8 1.8
v -5 0.8 1.6
v -5 0.9 2.3
v -5 0.9 2.2
v -5 0.9 2.1
v -5 0.9 2
v -4.9 0.2 2
v -4.9 0.2 1.9
v -4.9 0.2 1.8
v -4.9 0.2 1.6
v -4.9 0.3 2.1
v -4.9 0.3 2
v -4.9 0.3 1.9
v -4.9 0.3 1.8
v -4.9 0.3 1.6
v -4.9 0.3 1.5
v -4.9 0.4 2.2
v -4.9 0.4 2.1
v -4.9 0.4 2
v -4.9 0.4 1.6
v -4.9 0.4 1.5
v -4.9 0.4 1.4
v -4.9 0.5 1.5
v -4.9 0.5 1.4
v -4.9 0.6 2.3
v -4.9 0.6 2.2
v -4.9 0.6 2.1
v -4.9 0.6 2
v -4.9 0.6 1.9
v -4.9 0.6 1.8
v -4.9 0.6 1.5
v -4.9 0.6 1.4
v -4.9 0.7 2
v -4.9 0.7 1.9
v -4.9 0.7 1.8
v -4.9 0.7 1.5
v -4.9 0.8 2.3
v -4.9 0.8 2.2
v -4.9 0.8 2
v -4.8 0.3 2
v -4.8 0.3 1.6
v -4.8 0.4 2.1
v -4.8 0.4 2
v -4.8 0.4 1.6
v -4.8 0.4 1.5
v -4.8 0.5 1.9
v -4.8 0.5 1.8
v -4.8 0.6 2.1
v -4.8 0.6 2
v -4.8 0.6 1.9
v -4.8 0.6 1.8
v -4.8 0.6 1.5
v -5.3 0.4 2.4
v -5.3 0.6 2.4
v -5 0.4 2.4
v -5 0.6 2.4
v -5.4 0.6 2.3
v -5.4 0.8 2.3
v -5.3 0.6 2.3
v -5.3 0.8 2.3
v -5.3 0.9 2.3
v -5 0.6 2.3
v -5 0.8 2.3
v -5 0.9 2.3
v -4.9 0.6 2.3
v -4.9 0.8 2.3
v -5.4 0.4 2.2
v -5.4 0.6 2.2
v -5.3 0.4 2.2
v -5.3 0.6 2.2
v -5 0.4 2.2
v -5 0.6 2.2
v -4.9 0.4 2.2
v -4.9 0.6 2.2
v -5.5 0.4 2.1
v -5.5 0.5 2.1
v -5.5 0.6 2.1
v -5.4 0.3 2.1
v -5.4 0.4 2.1
v -5.4 0.5 2.1
v -5.4 0.6 2.1
v -5.3 0 2.1
v -5.3 0.2 2.1
v -5.3 0.3 2.1
v -5.3 0.4 2.1
v -5.2 0 2.1
v -5.2 0.2 2.1
v -5.2 0.3 2.1
v -5.2 0.4 2.1
v -5.1 0 2.1
v -5.1 0.2 2.1
v -5.1 0.4 2.1
v -5 0 2.1
v -5 0.2 2.1
v -5 0.3 2.1
v -5 0.4 2.1
v -4.9 0.3 2.1
v -4.9 0.4 2.1
v -4.9 0.6 2.1
v -4.8 0.4 2.1
v -4.8 0.6 2.1
v -5.5 0.3 2
v -5.5 0.4 2
v -5.4 0.2 2
v -5.4 0.3 2
v -5.4 0.4 2
v -5.3 0.2 2
v -5.3 0.3 2
v -5 0.2 2
v -5 0.3 2
v -4.9 0.2 2
v -4.9 0.3 2
v -4.9 0.4 2
v -4.8 0.3 2
v -4.8 0.4 2
v -5.3 0 1.6
v -5.3 0.2 1.6
v -5.2 0 1.6
v -5.2 0.2 1.6
v -5.1 0 1.6
v -5.1 0.2 1.6
v -5 0 1.6
v -5 0.2 1.6
v -5.4 0.7 2
v -5.4 0.8 2
v -5.3 0 2
v -5.3 0.2 2
v -5.3 0.7 2
v -5.3 0.8 2
v -5.3 0.9 2
v -5.2 0 2
v -5.2 0.2 2
v -5.1 0 2
v -5.1 0.2 2
v -5.1 0.8 2
v -5 0 2
v -5 0.2 2
v -5 0.7 2
v -5 0.8 2
v -5 0.9 2
v -4.9 0.7 2
v -4.9 0.8 2
v -5.5 0.3 1.6
v -5.5 0.4 1.6
v -5.4 0.3 1.6
v -5.4 0.4 1.6
v -5.3 0.7 1.6
v -5.3 0.8 1.6
v -5.2 0.7 1.6
v -5.1 0.7 1.6
v -5.1 0.8 1.6
v -5 0.2 1.6
v -5 0.3 1.6
v -5 0.7 1.6
v -5 0.8 1.6
v -4.9 0.2 1.6
v -4.9 0.3 1.6
v -4.9 0.4 1.6
v -4.8 0.3 1.6
v -4.8 0.4 1.6
v -5.5 0.4 1.5
v -5.5 0.5 1.5
v -5.5 0.6 1.5
v -5.4 0.2 1.5
v -5.4 0.3 1.5
v -5.4 0.4 1.5
v -5.4 0.5 1.5
v -5.4 0.6 1.5
v -5.4 0.7 1.5
v -5.3 0 1.5
v -5.3 0.2 1.5
v -5.3 0.3 1.5
v -5.3 0.4 1.5
v -5.3 0.6 1.5
v -5.3 0.7 1.5
v -5.2 0 1.5
v -5.2 0.2 1.5
v -5.1 0 1.5
v -5.1 0.2 1.5
v -5 0 1.5
v -5 0.2 1.5
v -5 0.3 1.5
v -5 0.4 1.5
v -5 0.6 1.5
v -5 0.7 1.5
v -4.9 0.3 1.5
v -4.9 0.4 1.5
v -4.9 0.5 1.5
v -4.9 0.6 1.5
v -4.9 0.7 1.5
v -4.8 0.4 1.5
v -4.8 0.6 1.5
v -5.4 0.4 1.4
v -5.4 0.5 1.4
v -5.4 0.6 1.4
v -5.3 0.2 1.4
v -5.3 0.3 1.4
v -5.3 0.4 1.4
v -5.3 0.5 1.4
v -5.3 0.6 1.4
v -5.3 0.7 1.4
v -5.2 0.2 1.4
v -5.2 0.3 1.4
v -5.2 0.4 1.4
v -5.2 0.6 1.4
v -5.1 0.2 1.4
v -5.1 0.4 1.4
v -5 0.2 1.4
v -5 0.4 1.4
v -5 0.5 1.4
v -5 0.6 1.4
v -5 0.7 1.4
v -4.9 0.4 1.4
v -4.9 0.5 1.4
v -4.9 0.6 1.4
v -5.3 0.4 1.3
v -5.3 0.5 1.3
v -5.3 0.6 1.3
v -5.2 0.4 1.3
v -5.2 0.5 1.3
v -5.2 0.6 1.3
v -5 0.4 1.3
v -5 0.5 1.3
v -5 0.6 1.3
v -5.3 0 2.1
v -5.2 0 2.1
v -5.1 0 2.1
v -5 0 2.1
v -5.3 0 2
v -5.2 0 2
v -5.1 0 2
v -5 0 2
v -5.3 0 1.6
v -5.2 0 1.6
v -5.1 0 1.6
v -5 0 1.6
v -5.3 0 1.5
v -5.2 0 1.5
v -5.1 0 1.5
v -5 0 1.5
v -5.2 0.2 2.1
v -5.1 0.2 2.1
v -5.4 0.2 2
v -5.3 0.2 2
v -5.2 0.2 2
v -5.1 0.2 2
v -5 0.2 2
v -4.9 0.2 2
v -5.3 0.2 1.9
v -4.9 0.2 1.9
v -5.1 0.2 1.8
v -4.9 0.2 1.8
v -5.1 0.2 1.7
v -5 0.2 1.7
v -5.4 0.2 1.6
v -5.3 0.2 1.6
v -5.2 0.2 1.6
v -5.1 0.2 1.6
v -5 0.2 1.6
v -4.9 0.2 1.6
v -5.4 0.2 1.5
v -5.3 0.2 1.5
v -5.2 0.2 1.5
v -5.1 0.2 1.5
v -5 0.2 1.5
v -5.3 0.2 1.4
v -5.2 0.2 1.4
v -5.1 0.2 1.4
v -5 0.2 1.4
v -5.4 0.3 2.1
v -5.3 0.3 2.1
v -5 0.3 2.1
v -4.9 0.3 2.1
v -5.5 0.3 2
v -5.4 0.3 2
v -5.3 0.3 2
v -5 0.3 2
v -4.9 0.3 2
v -4.8 0.3 2
v -4.9 0.3 1.9
v -4.9 0.3 1.8
v -5.5 0.3 1.7
v -5.4 0.3 1.7
v -5.5 0.3 1.6
v -5.4 0.3 1.6
v -5 0.3 1.6
v -4.9 0.3 1.6
v -4.8 0.3 1.6
v -5 0.3 1.5
v -4.9 0.3 1.5
v -5.3 0.4 2.4
v -5 0.4 2.4
v -5.4 0.4 2.2
v -5.3 0.4 2.2
v -5.2 0.4 2.2
v -5.1 0.4 2.2
v -5 0.4 2.2
v -4.9 0.4 2.2
v -5.5 0.4 2.1
v -5.4 0.4 2.1
v -5.3 0.4 2.1
v -5.2 0.4 2.1
v -5.1 0.4 2.1
v -5 0.4 2.1
v -4.9 0.4 2.1
v -4.8 0.4 2.1
v -5.5 0.4 2
v -5.4 0.4 2
v -4.9 0.4 2
v -4.8 0.4 2
v -5.5 0.4 1.6
v -5.4 0.4 1.6
v -4.9 0.4 1.6
v -4.8 0.4 1.6
v -5.5 0.4 1.5
v -5.4 0.4 1.5
v -5.3 0.4 1.5
v -5 0.4 1.5
v -4.9 0.4 1.5
v -4.8 0.4 1.5
v -5.4 0.4 1.4
v -5.3 0.4 1.4
v -5.2 0.4 1.4
v -5.1 0.4 1.4
v -5 0.4 1.4
v -4.9 0.4 1.4
v -5.3 0.4 1.3
v -5.2 0.4 1.3
v -5 0.4 1.3
v -5.4 0.6 2.3
v -5.3 0.6 2.3
v -5 0.6 2.3
v -4.9 0.6 2.3
v -5.4 0.6 2.2
v -5.3 0.6 2.2
v -5 0.6 2.2
v -4.9 0.6 2.2
v -5.3 0.6 2.4
v -5 0.6 2.4
v -5.3 0.6 2.3
v -5 0.6 2.3
v -5.5 0.6 2.1
v -5.4 0.6 2.1
v -4.9 0.6 2.1
v -4.8 0.6 2.1
v -5.5 0.6 2
v -5.4 0.6 2
v -4.9 0.6 2
v -4.8 0.6 2
v -5.4 0.6 1.9
v -4.9 0.6 1.9
v -4.8 0.6 1.9
v -5.5 0.6 1.8
v -5.4 0.6 1.8
v -4.9 0.6 1.8
v -4.8 0.6 1.8
v -5.4 0.6 1.7
v -5.5 0.6 1.6
v -5.4 0.6 1.6
v -5.5 0.6 1.5
v -5.4 0.6 1.5
v -5.3 0.6 1.5
v -5 0.6 1.5
v -4.9 0.6 1.5
v -4.8 0.6 1.5
v -5.4 0.6 1.4
v -5.3 0.6 1.4
v -5.2 0.6 1.4
v -5 0.6 1.4
v -4.9 0.6 1.4
v -5.3 0.6 1.3
v -5.2 0.6 1.3
v -5 0.6 1.3
v -5.4 0.7 2
v -5.3 0.7 2
v -5 0.7 2
v -4.9 0.7 2
v -5.4 0.7 1.9
v -5.3 0.7 1.9
v -5 0.7 1.9
v -4.9 0.7 1.9
v -5.4 0.7 1.8
v -5.3 0.7 1.8
v -5 0.7 1.8
v -4.9 0.7 1.8
v -5.4 0.7 1.7
v -5.3 0.7 1.7
v -5.4 0.7 1.6
v -5.3 0.7 1.6
v -5.2 0.7 1.6
v -5.1 0.7 1.6
v -5 0.7 1.6
v -5.4 0.7 1.5
v -5.3 0.7 1.5
v -5.2 0.7 1.5
v -5 0.7 1.5
v -4.9 0.7 1.5
v -5.3 0.7 1.4
v -5 0.7 1.4
v -5.4 0.8 2.3
v -5.3 0.8 2.3
v -5 0.8 2.3
v -4.9 0.8 2.3
v -5.4 0.8 2.2
v -5.3 0.8 2.2
v -5 0.8 2.2
v -4.9 0.8 2.2
v -5.4 0.8 2.1
v -5.3 0.8 2.1
v -5 0.8 2.1
v -5.4 0.8 2
v -5.3 0.8 2
v -5.1 0.8 2
v -5 0.8 2
v -4.9 0.8 2
v -5.3 0.8 1.9
v -5.1 0.8 1.9
v -5.2 0.8 1.8
v -5 0.8 1.8
v -5.2 0.8 1.7
v -5.1 0.8 1.7
v -5.3 0.8 1.6
v -5.1 0.8 1.6
v -5 0.8 1.6
v -5.3 0.9 2.3
v -5 0.9 2.3
v -5.3 0.9 2.2
v -5 0.9 2.2
v -5.3 0.9 2.1
v -5 0.9 2.1
v -5.3 0.9 2
v -5 0.9 2

# faces
f 5/1/1 2/1/1 1/1/1
f 6/2/1 3/2/1 2/2/1
f 6/1/1 2/1/1 5/1/1
f 7/2/1 3/2/1 6/2/1
f 9/2/1 5/2/1 4/2/1
f 9/2/1 6/2/1 5/2/1
f 10/2/1 6/2/1 9/2/1
f 11/2/1 6/2/1 10/2/1
f 12/1/1 8/1/1 7/1/1
f 12/2/1 6/2/1 11/2/1
f 12/1/1 7/1/1 6/1/1
f 13/1/1 8/1/1 12/1/1
f 14/1/1 8/1/1 13/1/1
f 15/1/1 10/1/1 9/1/1
f 16/2/1 11/2/1 10/2/1
f 16/1/1 10/1/1 15/1/1
f 17/1/1 12/1/1 11/1/1
f 17/2/1 11/2/1 16/2/1
f 17/1/1 13/1/1 12/1/1
f 18/2/1 14/2/1 13/2/1
f 18/1/1 13/1/1 17/1/1
f 19/2/1 14/2/1 18/2/1
f 24/1/1 21/1/1 20/1/1
f 25/1/1 21/1/1 24/1/1
f 26/2/1 22/2/1 21/2/1
f 26/1/1 21/1/1 25/1/1
f 27/2/1 22/2/1 26/2/1
f 29/1/1 24/1/1 23/1/1
f 30/1/1 24/1/1 29/1/1
f 31/1/1 27/1/1 26/1/1
f 32/1/1 27/1/1 31/1/1
f 34/2/1 29/2/1 28/2/1
f 35/2/1 33/2/1 32/2/1
f 36/2/1 33/2/1 35/2/1
f 38/2/1 34/2/1 28/2/1
f 39/2/1 34/2/1 38/2/1
f 45/1/1 36/1/1 35/1/1
f 46/1/1 36/1/1 45/1/1
f 47/1/1 40/1/1 39/1/1
f 47/1/1 41/1/1 40/1/1
f 48/2/1 42/2/1 41/2/1
f 48/1/1 41/1/1 47/1/1
f 49/1/1 43/1/1 42/1/1
f 49/2/1 42/2/1 48/2/1
f 50/2/1 44/2/1 43/2/1
f 50/1/1 43/1/1 49/1/1
f 51/1/1 45/1/1 44/1/1
f 51/2/1 44/2/1 50/2/1
f 52/1/1 45/1/1 51/1/1
f 53/3/1 38/3/1 37/3/1
f 54/2/1 39/2/1 38/2/1
f 54/3/1 38/3/1 53/3/1
f 55/1/1 47/1/1 39/1/1
f 55/2/1 39/2/1 54/2/1
f 56/1/1 47/1/1 55/1/1
f 61/3/1 58/3/1 57/3/1
f 62/3/1 58/3/1 61/3/1
f 63/3/1 60/3/1 59/3/1
f 64/3/1 60/3/1 63/3/1
f 66/2/1 62/2/1 61/2/1
f 67/2/1 62/2/1 66/2/1
f 68/1/1 65/1/1 64/1/1
f 69/1/1 65/1/1 68/1/1
f 72/2/1 69/2/1 68/2/1
f 73/2/1 69/2/1 72/2/1
f 75/1/1 74/1/1 73/1/1
f 76/1/1 74/1/1 75/1/1
f 77/3/1 71/3/1 70/3/1
f 78/3/1 71/3/1 77/3/1
f 79/3/1 71/3/1 78/3/1
f 81/2/1 76/2/1 75/2/1
f 82/2/1 76/2/1 81/2/1
f 88/2/1 81/2/1 80/2/1
f 89/2/1 81/2/1 88/2/1
f 93/1/1 84/1/1 83/1/1
f 94/2/1 87/2/1 86/2/1
f 94/2/1 85/2/1 84/2/1
f 94/1/1 84/1/1 93/1/1
f 94/2/1 86/2/1 85/2/1
f 95/2/1 87/2/1 94/2/1
f 96/2/1 91/2/1 90/2/1
f 97/1/1 92/1/1 91/1/1
f 97/2/1 91/2/1 96/2/1
f 98/2/1 93/2/1 92/2/1
f 98/1/1 92/1/1 97/1/1
f 99/2/1 93/2/1 98/2/1
f 104/3/1 101/3/1 100/3/1
f 105/3/1 101/3/1 104/3/1
f 106/3/1 103/3/1 102/3/1
f 107/3/1 103/3/1 106/3/1
f 108/3/2 109/3/2 112/3/2
f 112/3/2 109/3/2 113/3/2
f 110/3/2 111/3/2 114/3/2
f 114/3/2 111/3/2 115/3/2
f 116/3/2 117/3/2 120/3/2
f 120/3/2 117/3/2 121/3/2
f 118/3/2 119/3/2 122/3/2
f 122/3/2 119/3/2 123/3/2
f 120/1/2 121/1/2 125/1/2
f 125/1/2 121/1/2 126/1/2
f 123/1/2 124/1/2 127/1/2
f 122/1/2 123/1/2 127/1/2
f 127/1/2 124/1/2 128/1/2
f 128/1/2 124/1/2 131/1/2
f 131/1/2 124/1/2 132/1/2
f 132/2/2 133/2/2 134/2/2
f 134/2/2 133/2/2 135/2/2
f 129/3/2 130/3/2 136/3/2
f 136/3/2 130/3/2 137/3/2
f 137/3/2 130/3/2 138/3/2
f 134/1/2 135/1/2 140/1/2
f 140/1/2 135/1/2 141/1/2
f 139/2/2 140/2/2 146/2/2
f 146/2/2 140/2/2 147/2/2
f 142/2/2 143/2/2 151/2/2
f 143/2/2 144/2/2 151/2/2
f 144/1/2 145/1/2 152/1/2
f 151/2/2 144/2/2 152/2/2
f 152/1/2 145/1/2 153/1/2
f 148/2/2 149/2/2 154/2/2
f 149/1/2 150/1/2 155/1/2
f 154/2/2 149/2/2 155/2/2
f 150/2/2 151/2/2 156/2/2
f 155/1/2 150/1/2 156/1/2
f 156/2/2 151/2/2 157/2/2
f 158/2/2 159/2/2 163/2/2
f 159/1/2 160/1/2 164/1/2
f 163/2/2 159/2/2 164/2/2
f 160/2/2 161/2/2 165/2/2
f 164/1/2 160/1/2 165/1/2
f 165/2/2 161/2/2 166/2/2
f 162/2/2 163/2/2 169/2/2
f 169/2/2 163/2/2 170/2/2
f 166/1/2 167/1/2 171/1/2
f 171/1/2 167/1/2 172/1/2
f 172/2/2 173/2/2 174/2/2
f 174/2/2 173/2/2 175/2/2
f 168/1/2 169/1/2 177/1/2
f 177/1/2 169/1/2 178/1/2
f 174/1/2 175/1/2 182/1/2
f 182/1/2 175/1/2 183/1/2
f 177/1/2 178/1/2 184/1/2
f 178/1/2 179/1/2 184/1/2
f 179/2/2 180/2/2 184/2/2
f 180/1/2 181/1/2 185/1/2
f 184/2/2 180/2/2 185/2/2
f 181/2/2 182/2/2 186/2/2
f 185/1/2 181/1/2 186/1/2
f 186/2/2 182/2/2 187/2/2
f 176/3/2 177/3/2 188/3/2
f 177/1/2 184/1/2 189/1/2
f 188/3/2 177/3/2 189/3/2
f 189/1/2 184/1/2 190/1/2
f 191/2/2 192/2/2 194/2/2
f 194/2/2 192/2/2 195/2/2
f 194/1/2 195/1/2 197/1/2
f 195/1/2 196/1/2 197/1/2
f 197/1/2 196/1/2 198/1/2
f 193/2/2 194/2/2 199/2/2
f 194/1/2 197/1/2 200/1/2
f 199/2/2 194/2/2 200/2/2
f 197/2/2 198/2/2 201/2/2
f 200/1/2 197/1/2 201/1/2
f 198/1/2 196/1/2 202/1/2
f 201/2/2 198/2/2 202/2/2
f 202/1/2 196/1/2 203/1/2
f 206/3/3 205/3/3 204/3/3
f 207/3/3 205/3/3 206/3/3
f 210/3/3 209/3/3 208/3/3
f 211/3/3 209/3/3 210/3/3
f 213/3/3 211/3/3 210/3/3
f 214/2/3 212/2/3 211/2/3
f 214/3/3 211/3/3 213/3/3
f 215/2/3 212/2/3 214/2/3
f 216/3/3 214/3/3 213/3/3
f 217/3/3 214/3/3 216/3/3
f 220/2/3 219/2/3 218/2/3
f 221/2/3 219/2/3 220/2/3
f 224/1/3 223/1/3 222/1/3
f 225/1/3 223/1/3 224/1/3
f 230/2/3 227/2/3 226/2/3
f 231/1/3 228/1/3 227/1/3
f 231/2/3 227/2/3 230/2/3
f 232/1/3 228/1/3 231/1/3
f 235/1/3 230/1/3 229/1/3
f 236/1/3 230/1/3 235/1/3
f 237/3/3 234/3/3 233/3/3
f 238/2/3 235/2/3 234/2/3
f 238/3/3 234/3/3 237/3/3
f 239/1/3 236/1/3 235/1/3
f 239/2/3 235/2/3 238/2/3
f 240/1/3 236/1/3 239/1/3
f 242/1/3 239/1/3 238/1/3
f 242/1/3 240/1/3 239/1/3
f 243/1/3 240/1/3 242/1/3
f 244/3/3 242/3/3 241/3/3
f 245/1/3 243/1/3 242/1/3
f 245/3/3 242/3/3 244/3/3
f 246/1/3 243/1/3 245/1/3
f 247/1/3 243/1/3 246/1/3
f 248/2/3 247/2/3 246/2/3
f 249/2/3 247/2/3 248/2/3
f 251/2/3 250/2/3 249/2/3
f 252/2/3 250/2/3 251/2/3
f 256/1/3 254/1/3 253/1/3
f 257/1/3 254/1/3 256/1/3
f 258/1/3 256/1/3 255/1/3
f 259/1/3 256/1/3 258/1/3
f 262/2/3 261/2/3 260/2/3
f 263/2/3 261/2/3 262/2/3
f 265/2/3 264/2/3 263/2/3
f 266/2/3 264/2/3 265/2/3
f 269/3/3 268/3/3 267/3/3
f 270/3/3 268/3/3 269/3/3
f 273/3/3 272/3/3 271/3/3
f 274/3/3 272/3/3 273/3/3
f 275/1/4 276/1/4 279/1/4
f 279/1/4 276/1/4 280/1/4
f 277/3/4 278/3/4 282/3/4
f 282/3/4 278/3/4 283/3/4
f 280/2/4 281/2/4 286/2/4
f 284/3/4 285/3/4 287/3/4
f 287/3/4 285/3/4 288/3/4
f 286/2/4 281/2/4 290/2/4
f 290/2/4 281/2/4 291/2/4
f 289/1/4 290/1/4 292/1/4
f 292/1/4 290/1/4 293/1/4
f 294/2/4 295/2/4 296/2/4
f 296/2/4 295/2/4 297/2/4
f 298/2/4 299/2/4 300/2/4
f 300/2/4 299/2/4 301/2/4
f 301/2/4 299/2/4 302/2/4
f 301/1/4 302/1/4 305/1/4
f 305/1/4 302/1/4 306/1/4
f 303/2/4 304/2/4 307/2/4
f 307/2/4 304/2/4 308/2/4
f 308/2/4 309/2/4 310/2/4
f 310/2/4 309/2/4 311/2/4
f 312/1/4 313/1/4 317/1/4
f 313/2/4 314/2/4 318/2/4
f 317/1/4 313/1/4 318/1/4
f 318/2/4 314/2/4 319/2/4
f 315/2/4 316/2/4 322/2/4
f 316/1/4 317/1/4 323/1/4
f 322/2/4 316/2/4 323/2/4
f 323/1/4 317/1/4 324/1/4
f 319/1/4 320/1/4 325/1/4
f 325/1/4 320/1/4 326/1/4
f 321/3/4 322/3/4 327/3/4
f 327/3/4 322/3/4 328/3/4
f 329/3/4 330/3/4 331/3/4
f 331/3/4 330/3/4 332/3/4
f 333/1/4 334/1/4 337/1/4
f 337/1/4 334/1/4 338/1/4
f 335/2/4 336/2/4 340/2/4
f 340/2/4 336/2/4 341/2/4
f 338/1/4 339/1/4 342/1/4
f 339/1/4 340/1/4 342/1/4
f 342/1/4 340/1/4 343/1/4
f 344/2/4 345/2/4 349/2/4
f 345/1/4 346/1/4 350/1/4
f 349/2/4 345/2/4 350/2/4
f 350/1/4 346/1/4 351/1/4
f 347/1/4 348/1/4 353/1/4
f 348/2/4 349/2/4 354/2/4
f 353/1/4 348/1/4 354/1/4
f 354/2/4 349/2/4 355/2/4
f 351/2/4 352/2/4 356/2/4
f 354/2/4 355/2/4 357/2/4
f 353/2/4 354/2/4 357/2/4
f 357/2/4 355/2/4 358/2/4
f 357/1/4 358/1/4 359/1/4
f 359/1/4 358/1/4 360/1/4
f 356/2/4 352/2/4 362/2/4
f 362/2/4 352/2/4 363/2/4
f 360/2/4 361/2/4 364/2/4
f 361/1/4 362/1/4 365/1/4
f 364/2/4 361/2/4 365/2/4
f 365/1/4 362/1/4 366/1/4
f 367/1/4 368/1/4 370/1/4
f 368/2/4 369/2/4 371/2/4
f 370/1/4 368/1/4 371/1/4
f 371/2/4 369/2/4 372/2/4
f 370/2/4 371/2/4 373/2/4
f 371/1/4 372/1/4 374/1/4
f 373/2/4 371/2/4 374/2/4
f 374/1/4 372/1/4 375/1/4
f 380/3/5 377/3/5 376/3/5
f 381/3/5 377/3/5 380/3/5
f 382/3/5 379/3/5 378/3/5
f 383/3/5 379/3/5 382/3/5
f 388/3/5 385/3/5 384/3/5
f 389/3/5 385/3/5 388/3/5
f 390/3/5 387/3/5 386/3/5
f 391/3/5 387/3/5 390/3/5
f 396/1/5 393/1/5 392/1/5
f 397/1/5 393/1/5 396/1/5
f 400/1/5 395/1/5 394/1/5
f 400/2/5 399/2/5 398/2/5
f 400/2/5 398/2/5 397/2/5
f 400/2/5 397/2/5 396/2/5
f 400/2/5 396/2/5 395/2/5
f 401/2/5 399/2/5 400/2/5
f 402/1/5 401/1/5 400/1/5
f 403/1/5 401/1/5 402/1/5
f 404/1/5 402/1/5 400/1/5
f 404/2/5 403/2/5 402/2/5
f 405/2/5 403/2/5 404/2/5
f 406/1/5 400/1/5 394/1/5
f 406/1/5 404/1/5 400/1/5
f 406/1/5 405/1/5 404/1/5
f 407/1/5 405/1/5 406/1/5
f 408/1/5 405/1/5 407/1/5
f 409/1/5 405/1/5 408/1/5
f 410/2/5 403/2/5 405/2/5
f 410/1/5 405/1/5 409/1/5
f 411/2/5 403/2/5 410/2/5
f 412/2/5 407/2/5 406/2/5
f 413/2/5 407/2/5 412/2/5
f 414/1/5 409/1/5 408/1/5
f 415/1/5 409/1/5 414/1/5
f 417/1/5 414/1/5 413/1/5
f 418/2/5 415/2/5 414/2/5
f 418/1/5 414/1/5 417/1/5
f 419/1/5 416/1/5 415/1/5
f 419/2/5 415/2/5 418/2/5
f 420/1/5 416/1/5 419/1/5
f 426/1/5 422/1/5 421/1/5
f 427/1/5 422/1/5 426/1/5
f 428/2/5 424/2/5 423/2/5
f 429/2/5 424/2/5 428/2/5
f 431/2/5 430/2/5 429/2/5
f 432/2/5 430/2/5 431/2/5
f 433/1/5 426/1/5 425/1/5
f 434/1/5 426/1/5 433/1/5
f 435/2/5 434/2/5 433/2/5
f 436/2/5 434/2/5 435/2/5
f 438/2/5 430/2/5 432/2/5
f 439/2/5 430/2/5 438/2/5
f 440/1/5 438/1/5 437/1/5
f 441/1/5 438/1/5 440/1/5
f 445/3/5 443/3/5 442/3/5
f 446/3/5 443/3/5 445/3/5
f 447/3/5 443/3/5 446/3/5
f 448/3/5 443/3/5 447/3/5
f 451/2/5 445/2/5 444/2/5
f 452/1/5 446/1/5 445/1/5
f 452/2/5 445/2/5 451/2/5
f 453/2/5 447/2/5 446/2/5
f 453/1/5 446/1/5 452/1/5
f 454/1/5 449/1/5 448/1/5
f 454/2/5 447/2/5 453/2/5
f 454/1/5 448/1/5 447/1/5
f 455/1/5 449/1/5 454/1/5
f 456/1/5 449/1/5 455/1/5
f 458/2/5 451/2/5 450/2/5
f 459/2/5 451/2/5 458/2/5
f 460/2/5 457/2/5 456/2/5
f 461/2/5 457/2/5 460/2/5
f 466/1/5 463/1/5 462/1/5
f 467/1/5 463/1/5 466/1/5
f 470/1/5 465/1/5 464/1/5
f 471/1/5 465/1/5 470/1/5
f 472/2/5 468/2/5 467/2/5
f 473/2/5 468/2/5 472/2/5
f 476/2/5 470/2/5 469/2/5
f 477/2/5 470/2/5 476/2/5
f 478/1/5 474/1/5 473/1/5
f 479/2/5 475/2/5 474/2/5
f 479/1/5 474/1/5 478/1/5
f 479/2/5 476/2/5 475/2/5
f 480/2/5 476/2/5 479/2/5
f 485/3/5 482/3/5 481/3/5
f 486/3/5 482/3/5 485/3/5
f 487/3/5 484/3/5 483/3/5
f 488/3/5 484/3/5 487/3/5
f 489/3/6 490/3/6 491/3/6
f 491/3/6 490/3/6 492/3/6
f 493/1/6 494/1/6 497/1/6
f 497/1/6 494/1/6 498/1/6
f 495/2/6 496/2/6 499/2/6
f 499/2/6 496/2/6 500/2/6
f 497/2/6 498/2/6 501/2/6
f 499/1/6 500/1/6 502/1/6
f 502/1/6 500/1/6 503/1/6
f 497/2/6 501/2/6 504/2/6
f 504/2/6 501/2/6 505/2/6
f 502/2/6 503/2/6 506/2/6
f 506/2/6 503/2/6 507/2/6
f 504/1/6 505/1/6 508/1/6
f 504/1/6 508/1/6 509/1/6
f 509/1/6 508/1/6 510/1/6
f 509/2/6 510/2/6 511/2/6
f 511/2/6 510/2/6 512/2/6
f 506/1/6 507/1/6 515/1/6
f 515/1/6 507/1/6 516/1/6
f 512/1/6 513/1/6 517/1/6
f 517/1/6 513/1/6 518/1/6
f 514/1/6 515/1/6 520/1/6
f 520/1/6 515/1/6 521/1/6
f 518/2/6 519/2/6 522/2/6
f 519/1/6 520/1/6 523/1/6
f 522/2/6 519/2/6 523/2/6
f 523/1/6 520/1/6 524/1/6
f 525/1/6 526/1/6 529/1/6
f 529/1/6 526/1/6 530/1/6
f 527/2/6 528/2/6 531/2/6
f 531/2/6 528/2/6 532/2/6
f 529/2/6 530/2/6 533/2/6
f 533/2/6 530/2/6 534/2/6
f 531/1/6 532/1/6 535/1/6
f 535/1/6 532/1/6 536/1/6
f 533/1/6 534/1/6 537/1/6
f 537/1/6 534/1/6 538/1/6
f 537/2/6 538/2/6 539/2/6
f 539/2/6 538/2/6 540/2/6
f 535/2/6 536/2/6 543/2/6
f 539/1/6 540/1/6 544/1/6
f 540/1/6 541/1/6 544/1/6
f 544/1/6 541/1/6 545/1/6
f 541/2/6 542/2/6 546/2/6
f 545/1/6 541/1/6 546/1/6
f 542/2/6 543/2/6 546/2/6
f 543/2/6 536/2/6 547/2/6
f 546/2/6 543/2/6 547/2/6
f 547/2/6 536/2/6 548/2/6
f 545/2/6 546/2/6 549/2/6
f 546/2/6 547/2/6 549/2/6
f 549/2/6 547/2/6 550/2/6
f 551/3/6 552/3/6 555/3/6
f 555/3/6 552/3/6 556/3/6
f 553/3/6 554/3/6 557/3/6
f 557/3/6 554/3/6 558/3/6
f 555/2/6 556/2/6 559/2/6
f 559/2/6 556/2/6 560/2/6
f 557/1/6 558/1/6 561/1/6
f 559/1/6 560/1/6 562/1/6
f 562/1/6 560/1/6 563/1/6
f 561/1/6 558/1/6 565/1/6
f 565/1/6 558/1/6 566/1/6
f 563/1/6 564/1/6 567/1/6
f 564/2/6 565/2/6 568/2/6
f 567/1/6 564/1/6 568/1/6
f 567/2/6 568/2/6 569/2/6
f 568/2/6 565/2/6 570/2/6
f 569/2/6 568/2/6 570/2/6
f 567/2/6 569/2/6 571/2/6
f 569/1/6 570/1/6 571/1/6
f 571/1/6 570/1/6 572/1/6
f 567/2/6 571/2/6 573/2/6
f 571/2/6 572/2/6 573/2/6
f 572/1/6 570/1/6 574/1/6
f 573/2/6 572/2/6 574/2/6
f 574/1/6 570/1/6 575/1/6
f 576/2/6 577/2/6 578/2/6
f 578/2/6 577/2/6 579/2/6
f 578/1/6 579/1/6 580/1/6
f 580/1/6 579/1/6 581/1/6
f 580/2/6 581/2/6 582/2/6
f 582/2/6 581/2/6 583/2/6
