# MagicaVoxel @ Ephtracy

# group
o fence_mid

# material
mtllib farm-43-fence_mid.mtl
usemtl palette

# normals
vn -1 0 0
vn 1 0 0
vn 0 0 1
vn 0 0 -1
vn 0 -1 0
vn 0 1 0

# texcoords
vt 0.345703 0.5
vt 0.349609 0.5

# verts
v 2.2 0.1 -0.8
v 2.2 0.1 -0.9
v 2.2 0.2 -0.8
v 2.2 0.2 -0.9
v 2.2 0.4 -0.8
v 2.2 0.4 -0.9
v 2.2 0.5 -0.8
v 2.2 0.5 -0.9
v 2.5 0.1 -0.8
v 2.5 0.1 -0.9
v 2.5 0.2 -0.8
v 2.5 0.2 -0.9
v 2.5 0.4 -0.8
v 2.5 0.4 -0.9
v 2.5 0.5 -0.8
v 2.5 0.5 -0.9
v 2.2 0.1 -0.8
v 2.2 0.2 -0.8
v 2.2 0.4 -0.8
v 2.2 0.5 -0.8
v 2.3 0.1 -0.8
v 2.3 0.2 -0.8
v 2.4 0.1 -0.8
v 2.4 0.2 -0.8
v 2.5 0.1 -0.8
v 2.5 0.2 -0.8
v 2.5 0.4 -0.8
v 2.5 0.5 -0.8
v 2.2 0.1 -0.9
v 2.2 0.2 -0.9
v 2.2 0.4 -0.9
v 2.2 0.5 -0.9
v 2.3 0.1 -0.9
v 2.3 0.2 -0.9
v 2.4 0.1 -0.9
v 2.4 0.2 -0.9
v 2.5 0.1 -0.9
v 2.5 0.2 -0.9
v 2.5 0.4 -0.9
v 2.5 0.5 -0.9
v 2.2 0.1 -0.8
v 2.3 0.1 -0.8
v 2.4 0.1 -0.8
v 2.5 0.1 -0.8
v 2.2 0.1 -0.9
v 2.3 0.1 -0.9
v 2.4 0.1 -0.9
v 2.5 0.1 -0.9
v 2.2 0.4 -0.8
v 2.5 0.4 -0.8
v 2.2 0.4 -0.9
v 2.5 0.4 -0.9
v 2.2 0.2 -0.8
v 2.3 0.2 -0.8
v 2.4 0.2 -0.8
v 2.5 0.2 -0.8
v 2.2 0.2 -0.9
v 2.3 0.2 -0.9
v 2.4 0.2 -0.9
v 2.5 0.2 -0.9
v 2.2 0.5 -0.8
v 2.5 0.5 -0.8
v 2.2 0.5 -0.9
v 2.5 0.5 -0.9

# faces
f 3/1/1 2/1/1 1/1/1
f 4/1/1 2/1/1 3/1/1
f 7/1/1 6/1/1 5/1/1
f 8/1/1 6/1/1 7/1/1
f 9/1/2 10/1/2 11/1/2
f 11/1/2 10/1/2 12/1/2
f 13/1/2 14/1/2 15/1/2
f 15/1/2 14/1/2 16/1/2
f 21/1/3 18/1/3 17/1/3
f 22/1/3 18/1/3 21/1/3
f 23/2/3 22/2/3 21/2/3
f 24/2/3 22/2/3 23/2/3
f 25/1/3 24/1/3 23/1/3
f 26/1/3 24/1/3 25/1/3
f 27/1/3 20/1/3 19/1/3
f 28/1/3 20/1/3 27/1/3
f 29/1/4 30/1/4 33/1/4
f 33/1/4 30/1/4 34/1/4
f 33/2/4 34/2/4 35/2/4
f 35/2/4 34/2/4 36/2/4
f 35/1/4 36/1/4 37/1/4
f 37/1/4 36/1/4 38/1/4
f 31/1/4 32/1/4 39/1/4
f 39/1/4 32/1/4 40/1/4
f 45/1/5 42/1/5 41/1/5
f 46/2/5 43/2/5 42/2/5
f 46/1/5 42/1/5 45/1/5
f 47/1/5 44/1/5 43/1/5
f 47/2/5 43/2/5 46/2/5
f 48/1/5 44/1/5 47/1/5
f 51/1/5 50/1/5 49/1/5
f 52/1/5 50/1/5 51/1/5
f 53/1/6 54/1/6 57/1/6
f 54/2/6 55/2/6 58/2/6
f 57/1/6 54/1/6 58/1/6
f 55/1/6 56/1/6 59/1/6
f 58/2/6 55/2/6 59/2/6
f 59/1/6 56/1/6 60/1/6
f 61/1/6 62/1/6 63/1/6
f 63/1/6 62/1/6 64/1/6
