# MagicaVoxel @ Ephtracy

# group
o 

# material
mtllib farm-51.mtl
usemtl palette

# normals
vn -1 0 0
vn 1 0 0
vn 0 0 1
vn 0 0 -1
vn 0 -1 0
vn 0 1 0

# texcoords
vt 0.412109 0.5
vt 0.435547 0.5
vt 0.443359 0.5
vt 0.466797 0.5
vt 0.626953 0.5
vt 0.994141 0.5

# verts
v -8.3 0.1 1.2
v -8.3 0.1 1
v -8.3 0.1 0.9
v -8.3 0.1 0.8
v -8.3 0.1 0.7
v -8.3 0.1 0.6
v -8.3 0.1 0.4
v -8.3 0.1 0.2
v -8.3 0.2 1.1
v -8.3 0.2 1
v -8.3 0.2 0.9
v -8.3 0.2 0.8
v -8.3 0.2 0.7
v -8.3 0.2 0.6
v -8.3 0.2 0.5
v -8.3 0.2 0.4
v -8.3 0.2 0.3
v -8.3 0.3 1.2
v -8.3 0.3 1.1
v -8.3 0.3 1
v -8.3 0.3 0.9
v -8.3 0.3 0.8
v -8.3 0.3 0.6
v -8.3 0.3 0.5
v -8.3 0.3 0.4
v -8.3 0.3 0.3
v -8.3 0.3 0.2
v -8.3 0.4 1.2
v -8.3 0.4 0.9
v -8.3 0.4 0.8
v -8.3 0.4 0.6
v -8.3 0.4 0.4
v -8.3 0.4 0.2
v -8.3 0.5 1.2
v -8.3 0.5 0.2
v -8.3 0.6 1.1
v -8.3 0.6 1
v -8.3 0.6 0.8
v -8.3 0.6 0.5
v -8.3 0.7 1.1
v -8.3 0.7 1
v -8.3 0.7 0.8
v -8.3 0.7 0.7
v -8.3 0.7 0.6
v -8.3 0.7 0.5
v -8.3 0.7 0.4
v -8.3 0.7 0.3
v -8.3 0.8 1.1
v -8.3 0.8 1
v -8.3 0.8 0.8
v -8.3 0.8 0.5
v -8.3 0.8 0.4
v -8.3 0.8 0.3
v -8.3 0.9 1.1
v -8.3 0.9 1
v -8.3 0.9 0.8
v -8.3 0.9 0.7
v -8.3 0.9 0.6
v -8.3 0.9 0.4
v -8.3 1 1.2
v -8.3 1 0.2
v -8.3 1.1 1.2
v -8.3 1.1 1.1
v -8.3 1.1 0.8
v -8.3 1.1 0.6
v -8.3 1.1 0.5
v -8.3 1.1 0.3
v -8.3 1.1 0.2
v -8.3 1.2 1.2
v -8.3 1.2 1.1
v -8.3 1.2 1
v -8.3 1.2 0.8
v -8.3 1.2 0.7
v -8.3 1.2 0.5
v -8.3 1.2 0.3
v -8.3 1.2 0.2
v -8.3 1.3 1.2
v -8.3 1.3 1.1
v -8.3 1.3 0.8
v -8.3 1.3 0.7
v -8.3 1.3 0.5
v -8.3 1.3 0.4
v -8.3 1.3 0.3
v -8.3 1.3 0.2
v -8.3 1.4 1.1
v -8.3 1.4 1
v -8.3 1.4 0.9
v -8.3 1.4 0.6
v -8.3 1.4 0.5
v -8.3 1.4 0.4
v -8.3 1.4 0.3
v -8.3 1.5 1.2
v -8.3 1.5 0.9
v -8.3 1.5 0.6
v -8.3 1.5 0.5
v -8.3 1.5 0.4
v -8.2 0 1.2
v -8.2 0 0.2
v -8.2 0.1 1.3
v -8.2 0.1 1.2
v -8.2 0.1 1
v -8.2 0.1 0.9
v -8.2 0.1 0.8
v -8.2 0.1 0.7
v -8.2 0.1 0.6
v -8.2 0.1 0.4
v -8.2 0.1 0.2
v -8.2 0.1 0.1
v -8.2 0.3 1.2
v -8.2 0.3 0.2
v -8.2 0.4 1.2
v -8.2 0.4 0.2
v -8.2 0.5 1.2
v -8.2 0.5 0.2
v -8.2 1 1.2
v -8.2 1 0.2
v -8.2 1.1 1.2
v -8.2 1.1 0.2
v -8.2 1.2 1.2
v -8.2 1.2 0.2
v -8.2 1.3 1.2
v -8.2 1.3 0.2
v -8.2 1.3 0.1
v -8.2 1.5 1.3
v -8.2 1.5 1.2
v -8.2 1.5 0.9
v -8.2 1.5 0.6
v -8.2 1.5 0.5
v -8.2 1.6 1.2
v -8.2 1.6 0.5
v -8.1 1.1 0.3
v -8.1 1.1 0.2
v -8.1 1.2 0.3
v -8.1 1.2 0.2
v -8.1 1.3 0.4
v -8.1 1.3 0.3
v -8.1 1.4 0.5
v -8.1 1.4 0.4
v -8.1 1.4 0.3
v -8.1 1.5 0.5
v -8.1 1.5 0.4
v -8.2 1.1 0.3
v -8.2 1.1 0.2
v -8.2 1.2 0.3
v -8.2 1.2 0.2
v -8.2 1.3 0.4
v -8.2 1.3 0.3
v -8.2 1.4 0.5
v -8.2 1.4 0.4
v -8.2 1.4 0.3
v -8.2 1.5 0.5
v -8.2 1.5 0.4
v -8.1 0 1.2
v -8.1 0 0.2
v -8.1 0.1 1.3
v -8.1 0.1 1.2
v -8.1 0.1 0.9
v -8.1 0.1 0.7
v -8.1 0.1 0.5
v -8.1 0.1 0.4
v -8.1 0.1 0.2
v -8.1 0.1 0.1
v -8.1 0.2 1.2
v -8.1 0.3 1.2
v -8.1 0.5 1.2
v -8.1 0.6 1.2
v -8.1 0.6 0.2
v -8.1 0.8 1.2
v -8.1 0.8 0.2
v -8.1 0.9 1.2
v -8.1 0.9 0.2
v -8.1 1 0.2
v -8.1 1.1 1.2
v -8.1 1.1 0.2
v -8.1 1.3 0.2
v -8.1 1.3 0.1
v -8.1 1.4 1.2
v -8.1 1.5 1.3
v -8.1 1.5 1.2
v -8.1 1.5 1.1
v -8.1 1.5 0.9
v -8.1 1.5 0.7
v -8.1 1.5 0.6
v -8.1 1.5 0.5
v -8.1 1.6 1.2
v -8.1 1.6 0.5
v -8 0.1 1.2
v -8 0.1 0.9
v -8 0.1 0.7
v -8 0.1 0.5
v -8 0.1 0.4
v -8 0.1 0.2
v -8 0.2 1.2
v -8 0.2 1.1
v -8 0.2 0.9
v -8 0.2 0.8
v -8 0.2 0.7
v -8 0.2 0.5
v -8 0.2 0.4
v -8 0.2 0.3
v -8 0.3 1.2
v -8 0.3 1.1
v -8 0.3 1
v -8 0.3 0.8
v -8 0.3 0.6
v -8 0.3 0.4
v -8 0.3 0.3
v -8 0.4 1.1
v -8 0.4 1
v -8 0.4 0.8
v -8 0.4 0.7
v -8 0.4 0.6
v -8 0.4 0.5
v -8 0.5 1.2
v -8 0.5 1.1
v -8 0.5 0.9
v -8 0.5 0.8
v -8 0.5 0.7
v -8 0.6 1.2
v -8 0.6 1
v -8 0.6 0.9
v -8 0.6 0.8
v -8 0.6 0.6
v -8 0.6 0.5
v -8 0.6 0.4
v -8 0.6 0.3
v -8 0.6 0.2
v -8 0.7 1.1
v -8 0.7 0.8
v -8 0.7 0.6
v -8 0.8 1.2
v -8 0.8 1.1
v -8 0.8 1
v -8 0.8 0.8
v -8 0.8 0.6
v -8 0.8 0.5
v -8 0.8 0.4
v -8 0.8 0.3
v -8 0.8 0.2
v -8 0.9 1.2
v -8 0.9 1.1
v -8 0.9 1
v -8 0.9 0.9
v -8 0.9 0.8
v -8 0.9 0.6
v -8 0.9 0.3
v -8 0.9 0.2
v -8 1 1.1
v -8 1 1
v -8 1 0.9
v -8 1 0.8
v -8 1 0.5
v -8 1 0.4
v -8 1 0.3
v -8 1 0.2
v -8 1.1 1.2
v -8 1.1 1.1
v -8 1.1 1
v -8 1.1 0.8
v -8 1.1 0.7
v -8 1.1 0.6
v -8 1.1 0.5
v -8 1.1 0.4
v -8 1.1 0.3
v -8 1.1 0.2
v -8 1.2 0.9
v -8 1.2 0.8
v -8 1.2 0.5
v -8 1.2 0.4
v -8 1.2 0.3
v -8 1.3 1
v -8 1.3 0.9
v -8 1.3 0.7
v -8 1.3 0.6
v -8 1.3 0.4
v -8 1.3 0.3
v -8 1.3 0.2
v -8 1.4 1.2
v -8 1.4 1.1
v -8 1.4 0.9
v -8 1.4 0.7
v -8 1.4 0.6
v -8 1.4 0.4
v -8 1.4 0.3
v -8 1.5 1.2
v -8 1.5 1.1
v -8 1.5 0.9
v -8 1.5 0.7
v -8 1.5 0.6
v -8 1.5 0.4
v -8.2 0.1 1.3
v -8.2 1.5 1.3
v -8.1 0.1 1.3
v -8.1 1.5 1.3
v -8.3 0.1 1.2
v -8.3 0.3 1.2
v -8.3 0.4 1.2
v -8.3 0.5 1.2
v -8.3 1 1.2
v -8.3 1.1 1.2
v -8.3 1.2 1.2
v -8.3 1.3 1.2
v -8.3 1.5 1.2
v -8.2 0 1.2
v -8.2 0.1 1.2
v -8.2 0.3 1.2
v -8.2 0.4 1.2
v -8.2 0.5 1.2
v -8.2 1 1.2
v -8.2 1.1 1.2
v -8.2 1.2 1.2
v -8.2 1.3 1.2
v -8.2 1.5 1.2
v -8.2 1.6 1.2
v -8.1 0 1.2
v -8.1 0.1 1.2
v -8.1 0.2 1.2
v -8.1 0.3 1.2
v -8.1 0.5 1.2
v -8.1 0.6 1.2
v -8.1 0.8 1.2
v -8.1 0.9 1.2
v -8.1 1.1 1.2
v -8.1 1.4 1.2
v -8.1 1.5 1.2
v -8.1 1.6 1.2
v -8 0.1 1.2
v -8 0.2 1.2
v -8 0.3 1.2
v -8 0.5 1.2
v -8 0.6 1.2
v -8 0.8 1.2
v -8 0.9 1.2
v -8 1.1 1.2
v -8 1.4 1.2
v -8 1.5 1.2
v -8.2 1.1 0.2
v -8.2 1.2 0.2
v -8.1 1.1 0.2
v -8.1 1.2 0.2
v -8.2 1.4 0.5
v -8.2 1.5 0.5
v -8.2 1.6 0.5
v -8.1 1.4 0.5
v -8.1 1.5 0.5
v -8.1 1.6 0.5
v -8.3 1.4 0.4
v -8.3 1.5 0.4
v -8.2 1.3 0.4
v -8.2 1.4 0.4
v -8.2 1.5 0.4
v -8.1 1.3 0.4
v -8.1 1.4 0.4
v -8.1 1.5 0.4
v -8 1.4 0.4
v -8 1.5 0.4
v -8.3 1.3 0.3
v -8.3 1.4 0.3
v -8.2 1.1 0.3
v -8.2 1.2 0.3
v -8.2 1.3 0.3
v -8.2 1.4 0.3
v -8.1 1.1 0.3
v -8.1 1.2 0.3
v -8.1 1.3 0.3
v -8.1 1.4 0.3
v -8 1.3 0.3
v -8 1.4 0.3
v -8.3 0.1 0.2
v -8.3 0.3 0.2
v -8.3 0.4 0.2
v -8.3 0.5 0.2
v -8.3 1 0.2
v -8.3 1.1 0.2
v -8.3 1.2 0.2
v -8.3 1.3 0.2
v -8.2 0 0.2
v -8.2 0.1 0.2
v -8.2 0.3 0.2
v -8.2 0.4 0.2
v -8.2 0.5 0.2
v -8.2 1 0.2
v -8.2 1.1 0.2
v -8.2 1.2 0.2
v -8.2 1.3 0.2
v -8.1 0 0.2
v -8.1 0.1 0.2
v -8.1 0.6 0.2
v -8.1 0.8 0.2
v -8.1 0.9 0.2
v -8.1 1 0.2
v -8.1 1.1 0.2
v -8.1 1.3 0.2
v -8 0.1 0.2
v -8 0.6 0.2
v -8 0.8 0.2
v -8 0.9 0.2
v -8 1 0.2
v -8 1.1 0.2
v -8 1.3 0.2
v -8.2 0.1 0.1
v -8.2 1.3 0.1
v -8.1 0.1 0.1
v -8.1 1.3 0.1
v -8.2 0 1.2
v -8.1 0 1.2
v -8.2 0 0.2
v -8.1 0 0.2
v -8.2 0.1 1.3
v -8.1 0.1 1.3
v -8.3 0.1 1.2
v -8.2 0.1 1.2
v -8.1 0.1 1.2
v -8 0.1 1.2
v -8.3 0.1 1
v -8.2 0.1 1
v -8.3 0.1 0.9
v -8.2 0.1 0.9
v -8.1 0.1 0.9
v -8 0.1 0.9
v -8.3 0.1 0.8
v -8.2 0.1 0.8
v -8.3 0.1 0.7
v -8.2 0.1 0.7
v -8.1 0.1 0.7
v -8 0.1 0.7
v -8.3 0.1 0.6
v -8.2 0.1 0.6
v -8.1 0.1 0.5
v -8 0.1 0.5
v -8.3 0.1 0.4
v -8.2 0.1 0.4
v -8.1 0.1 0.4
v -8 0.1 0.4
v -8.3 0.1 0.2
v -8.2 0.1 0.2
v -8.1 0.1 0.2
v -8 0.1 0.2
v -8.2 0.1 0.1
v -8.1 0.1 0.1
v -8.2 1.2 0.3
v -8.1 1.2 0.3
v -8.2 1.2 0.2
v -8.1 1.2 0.2
v -8.2 1.1 0.3
v -8.1 1.1 0.3
v -8.2 1.1 0.2
v -8.1 1.1 0.2
v -8.2 1.3 0.4
v -8.1 1.3 0.4
v -8.3 1.3 0.3
v -8.2 1.3 0.3
v -8.1 1.3 0.3
v -8 1.3 0.3
v -8.3 1.3 0.2
v -8.2 1.3 0.2
v -8.1 1.3 0.2
v -8 1.3 0.2
v -8.2 1.3 0.1
v -8.1 1.3 0.1
v -8.2 1.4 0.5
v -8.1 1.4 0.5
v -8.3 1.4 0.4
v -8.2 1.4 0.4
v -8.1 1.4 0.4
v -8 1.4 0.4
v -8.3 1.4 0.3
v -8.2 1.4 0.3
v -8.1 1.4 0.3
v -8 1.4 0.3
v -8.2 1.5 1.3
v -8.1 1.5 1.3
v -8.3 1.5 1.2
v -8.2 1.5 1.2
v -8.1 1.5 1.2
v -8 1.5 1.2
v -8.1 1.5 1.1
v -8 1.5 1.1
v -8.3 1.5 0.9
v -8.2 1.5 0.9
v -8.1 1.5 0.9
v -8 1.5 0.9
v -8.1 1.5 0.7
v -8 1.5 0.7
v -8.3 1.5 0.6
v -8.2 1.5 0.6
v -8.1 1.5 0.6
v -8 1.5 0.6
v -8.3 1.5 0.5
v -8.2 1.5 0.5
v -8.1 1.5 0.5
v -8.3 1.5 0.4
v -8.2 1.5 0.4
v -8.1 1.5 0.4
v -8 1.5 0.4
v -8.2 1.6 1.2
v -8.1 1.6 1.2
v -8.2 1.6 0.5
v -8.1 1.6 0.5

# faces
f 9/2/1 2/2/1 1/2/1
f 10/4/1 3/4/1 2/4/1
f 10/2/1 2/2/1 9/2/1
f 11/2/1 4/2/1 3/2/1
f 11/4/1 3/4/1 10/4/1
f 12/4/1 5/4/1 4/4/1
f 12/2/1 4/2/1 11/2/1
f 13/2/1 6/2/1 5/2/1
f 13/4/1 5/4/1 12/4/1
f 14/4/1 7/4/1 6/4/1
f 14/2/1 6/2/1 13/2/1
f 15/4/1 7/4/1 14/4/1
f 16/2/1 8/2/1 7/2/1
f 16/4/1 7/4/1 15/4/1
f 17/2/1 8/2/1 16/2/1
f 18/2/1 9/2/1 1/2/1
f 19/4/1 10/4/1 9/4/1
f 19/2/1 9/2/1 18/2/1
f 20/2/1 15/2/1 14/2/1
f 20/4/1 10/4/1 19/4/1
f 20/2/1 11/2/1 10/2/1
f 20/2/1 12/2/1 11/2/1
f 20/2/1 13/2/1 12/2/1
f 20/2/1 14/2/1 13/2/1
f 21/2/1 15/2/1 20/2/1
f 22/2/1 15/2/1 21/2/1
f 23/2/1 15/2/1 22/2/1
f 24/4/1 17/4/1 16/4/1
f 24/2/1 15/2/1 23/2/1
f 24/4/1 16/4/1 15/4/1
f 25/4/1 17/4/1 24/4/1
f 26/2/1 8/2/1 17/2/1
f 26/4/1 17/4/1 25/4/1
f 27/2/1 8/2/1 26/2/1
f 28/4/1 19/4/1 18/4/1
f 28/4/1 20/4/1 19/4/1
f 28/4/1 21/4/1 20/4/1
f 29/2/1 22/2/1 21/2/1
f 29/4/1 21/4/1 28/4/1
f 30/4/1 23/4/1 22/4/1
f 30/2/1 22/2/1 29/2/1
f 31/2/1 25/2/1 24/2/1
f 31/4/1 23/4/1 30/4/1
f 31/2/1 24/2/1 23/2/1
f 32/4/1 27/4/1 26/4/1
f 32/2/1 25/2/1 31/2/1
f 32/4/1 26/4/1 25/4/1
f 33/4/1 27/4/1 32/4/1
f 34/3/1 30/3/1 29/3/1
f 34/3/1 29/3/1 28/3/1
f 34/3/1 33/3/1 32/3/1
f 34/3/1 32/3/1 31/3/1
f 34/3/1 31/3/1 30/3/1
f 35/3/1 33/3/1 34/3/1
f 36/1/1 35/1/1 34/1/1
f 37/1/1 35/1/1 36/1/1
f 38/1/1 35/1/1 37/1/1
f 39/1/1 35/1/1 38/1/1
f 40/1/1 36/1/1 34/1/1
f 40/5/1 37/5/1 36/5/1
f 41/1/1 38/1/1 37/1/1
f 41/5/1 37/5/1 40/5/1
f 42/2/1 39/2/1 38/2/1
f 42/1/1 38/1/1 41/1/1
f 43/2/1 39/2/1 42/2/1
f 44/2/1 39/2/1 43/2/1
f 45/1/1 35/1/1 39/1/1
f 45/2/1 39/2/1 44/2/1
f 46/1/1 35/1/1 45/1/1
f 47/1/1 35/1/1 46/1/1
f 48/1/1 41/1/1 40/1/1
f 48/1/1 40/1/1 34/1/1
f 49/5/1 42/5/1 41/5/1
f 49/1/1 41/1/1 48/1/1
f 50/2/1 43/2/1 42/2/1
f 50/5/1 42/5/1 49/5/1
f 51/2/1 45/2/1 44/2/1
f 51/4/1 46/4/1 45/4/1
f 52/2/1 47/2/1 46/2/1
f 52/4/1 46/4/1 51/4/1
f 53/1/1 35/1/1 47/1/1
f 53/2/1 47/2/1 52/2/1
f 54/1/1 48/1/1 34/1/1
f 54/5/1 49/5/1 48/5/1
f 55/1/1 50/1/1 49/1/1
f 55/5/1 49/5/1 54/5/1
f 56/2/1 43/2/1 50/2/1
f 56/1/1 50/1/1 55/1/1
f 57/4/1 44/4/1 43/4/1
f 57/2/1 43/2/1 56/2/1
f 58/2/1 52/2/1 51/2/1
f 58/4/1 44/4/1 57/4/1
f 58/2/1 51/2/1 44/2/1
f 59/1/1 53/1/1 52/1/1
f 59/2/1 52/2/1 58/2/1
f 60/1/1 56/1/1 55/1/1
f 60/1/1 57/1/1 56/1/1
f 60/1/1 59/1/1 58/1/1
f 60/1/1 55/1/1 54/1/1
f 60/1/1 58/1/1 57/1/1
f 60/1/1 54/1/1 34/1/1
f 61/1/1 53/1/1 59/1/1
f 61/1/1 59/1/1 60/1/1
f 61/1/1 35/1/1 53/1/1
f 62/3/1 61/3/1 60/3/1
f 63/3/1 61/3/1 62/3/1
f 64/3/1 61/3/1 63/3/1
f 65/3/1 61/3/1 64/3/1
f 66/3/1 61/3/1 65/3/1
f 67/3/1 61/3/1 66/3/1
f 68/3/1 61/3/1 67/3/1
f 69/2/1 63/2/1 62/2/1
f 70/4/1 64/4/1 63/4/1
f 70/2/1 63/2/1 69/2/1
f 71/4/1 64/4/1 70/4/1
f 72/2/1 65/2/1 64/2/1
f 72/4/1 64/4/1 71/4/1
f 73/2/1 65/2/1 72/2/1
f 74/4/1 66/4/1 65/4/1
f 74/2/1 67/2/1 66/2/1
f 75/4/1 68/4/1 67/4/1
f 75/2/1 67/2/1 74/2/1
f 76/4/1 68/4/1 75/4/1
f 77/4/1 71/4/1 70/4/1
f 77/4/1 70/4/1 69/4/1
f 78/4/1 71/4/1 77/4/1
f 79/4/1 73/4/1 72/4/1
f 79/2/1 72/2/1 71/2/1
f 80/2/1 65/2/1 73/2/1
f 80/4/1 73/4/1 79/4/1
f 81/4/1 74/4/1 65/4/1
f 81/4/1 75/4/1 74/4/1
f 82/4/1 75/4/1 81/4/1
f 83/2/1 76/2/1 75/2/1
f 83/4/1 75/4/1 82/4/1
f 84/2/1 76/2/1 83/2/1
f 85/4/1 71/4/1 78/4/1
f 85/2/1 78/2/1 77/2/1
f 86/2/1 79/2/1 71/2/1
f 86/4/1 71/4/1 85/4/1
f 86/2/1 80/2/1 79/2/1
f 87/2/1 80/2/1 86/2/1
f 88/2/1 65/2/1 80/2/1
f 88/2/1 80/2/1 87/2/1
f 88/4/1 81/4/1 65/4/1
f 89/2/1 82/2/1 81/2/1
f 89/4/1 81/4/1 88/4/1
f 90/4/1 83/4/1 82/4/1
f 90/2/1 82/2/1 89/2/1
f 91/4/1 83/4/1 90/4/1
f 92/2/1 85/2/1 77/2/1
f 92/2/1 87/2/1 86/2/1
f 92/2/1 86/2/1 85/2/1
f 93/4/1 88/4/1 87/4/1
f 93/2/1 87/2/1 92/2/1
f 94/2/1 89/2/1 88/2/1
f 94/4/1 88/4/1 93/4/1
f 95/4/1 90/4/1 89/4/1
f 95/2/1 89/2/1 94/2/1
f 96/4/1 90/4/1 95/4/1
f 100/3/1 98/3/1 97/3/1
f 101/3/1 98/3/1 100/3/1
f 102/3/1 98/3/1 101/3/1
f 103/3/1 98/3/1 102/3/1
f 104/3/1 98/3/1 103/3/1
f 105/3/1 98/3/1 104/3/1
f 106/3/1 98/3/1 105/3/1
f 107/3/1 98/3/1 106/3/1
f 109/3/1 100/3/1 99/3/1
f 110/3/1 108/3/1 107/3/1
f 111/3/1 109/3/1 99/3/1
f 112/3/1 108/3/1 110/3/1
f 113/3/1 111/3/1 99/3/1
f 114/3/1 108/3/1 112/3/1
f 115/3/1 113/3/1 99/3/1
f 116/3/1 108/3/1 114/3/1
f 117/3/1 115/3/1 99/3/1
f 118/3/1 108/3/1 116/3/1
f 119/3/1 117/3/1 99/3/1
f 120/3/1 108/3/1 118/3/1
f 121/3/1 119/3/1 99/3/1
f 122/3/1 108/3/1 120/3/1
f 123/3/1 108/3/1 122/3/1
f 124/3/1 121/3/1 99/3/1
f 125/3/1 121/3/1 124/3/1
f 129/3/1 128/3/1 127/3/1
f 129/3/1 127/3/1 126/3/1
f 129/3/1 126/3/1 125/3/1
f 130/3/1 128/3/1 129/3/1
f 133/2/1 132/2/1 131/2/1
f 134/2/1 132/2/1 133/2/1
f 138/2/1 136/2/1 135/2/1
f 139/2/1 136/2/1 138/2/1
f 140/4/1 138/4/1 137/4/1
f 141/4/1 138/4/1 140/4/1
f 142/4/2 143/4/2 144/4/2
f 144/4/2 143/4/2 145/4/2
f 146/4/2 147/4/2 149/4/2
f 149/4/2 147/4/2 150/4/2
f 148/4/2 149/4/2 151/4/2
f 151/4/2 149/4/2 152/4/2
f 153/3/2 154/3/2 156/3/2
f 156/3/2 154/3/2 157/3/2
f 157/3/2 154/3/2 158/3/2
f 158/3/2 154/3/2 159/3/2
f 159/3/2 154/3/2 160/3/2
f 160/3/2 154/3/2 161/3/2
f 155/3/2 156/3/2 163/3/2
f 155/3/2 163/3/2 164/3/2
f 155/3/2 164/3/2 165/3/2
f 155/3/2 165/3/2 166/3/2
f 161/3/2 162/3/2 167/3/2
f 155/3/2 166/3/2 168/3/2
f 167/3/2 162/3/2 169/3/2
f 155/3/2 168/3/2 170/3/2
f 169/3/2 162/3/2 171/3/2
f 171/3/2 162/3/2 172/3/2
f 155/3/2 170/3/2 173/3/2
f 172/3/2 162/3/2 174/3/2
f 174/3/2 162/3/2 175/3/2
f 175/3/2 162/3/2 176/3/2
f 155/3/2 173/3/2 177/3/2
f 155/3/2 177/3/2 178/3/2
f 178/3/2 177/3/2 179/3/2
f 183/3/2 184/3/2 185/3/2
f 182/3/2 183/3/2 185/3/2
f 181/3/2 182/3/2 185/3/2
f 180/3/2 181/3/2 185/3/2
f 179/3/2 180/3/2 185/3/2
f 185/3/2 184/3/2 186/3/2
f 187/4/2 188/4/2 193/4/2
f 193/4/2 188/4/2 194/4/2
f 188/2/2 189/2/2 195/2/2
f 194/4/2 188/4/2 195/4/2
f 195/2/2 189/2/2 196/2/2
f 189/4/2 190/4/2 197/4/2
f 196/2/2 189/2/2 197/2/2
f 190/2/2 191/2/2 198/2/2
f 197/4/2 190/4/2 198/4/2
f 191/4/2 192/4/2 199/4/2
f 198/2/2 191/2/2 199/2/2
f 199/4/2 192/4/2 200/4/2
f 193/2/2 194/2/2 201/2/2
f 195/4/2 196/4/2 202/4/2
f 201/2/2 194/2/2 202/2/2
f 194/4/2 195/4/2 202/4/2
f 202/4/2 196/4/2 203/4/2
f 197/2/2 198/2/2 204/2/2
f 203/4/2 196/4/2 204/4/2
f 196/2/2 197/2/2 204/2/2
f 199/2/2 200/2/2 204/2/2
f 198/2/2 199/2/2 204/2/2
f 204/2/2 200/2/2 205/2/2
f 205/2/2 200/2/2 206/2/2
f 200/4/2 192/4/2 207/4/2
f 206/2/2 200/2/2 207/2/2
f 202/4/2 203/4/2 208/4/2
f 201/4/2 202/4/2 208/4/2
f 203/2/2 204/2/2 209/2/2
f 208/4/2 203/4/2 209/4/2
f 204/4/2 205/4/2 210/4/2
f 209/2/2 204/2/2 210/2/2
f 210/4/2 205/4/2 211/4/2
f 205/2/2 206/2/2 212/2/2
f 211/4/2 205/4/2 212/4/2
f 212/2/2 206/2/2 213/2/2
f 201/4/2 208/4/2 214/4/2
f 208/2/2 209/2/2 215/2/2
f 214/4/2 208/4/2 215/4/2
f 209/4/2 210/4/2 216/4/2
f 210/2/2 211/2/2 217/2/2
f 216/4/2 210/4/2 217/4/2
f 211/4/2 212/4/2 218/4/2
f 217/2/2 211/2/2 218/2/2
f 212/4/2 213/4/2 218/4/2
f 214/2/2 215/2/2 219/2/2
f 209/4/2 216/4/2 220/4/2
f 219/2/2 215/2/2 220/2/2
f 215/2/2 209/2/2 220/2/2
f 216/2/2 217/2/2 221/2/2
f 220/4/2 216/4/2 221/4/2
f 217/4/2 218/4/2 222/4/2
f 221/2/2 217/2/2 222/2/2
f 218/4/2 213/4/2 223/4/2
f 222/4/2 218/4/2 223/4/2
f 213/2/2 206/2/2 224/2/2
f 223/4/2 213/4/2 224/4/2
f 206/4/2 207/4/2 225/4/2
f 224/2/2 206/2/2 225/2/2
f 207/4/2 192/4/2 226/4/2
f 225/4/2 207/4/2 226/4/2
f 226/4/2 192/4/2 227/4/2
f 220/4/2 221/4/2 228/4/2
f 219/4/2 220/4/2 228/4/2
f 221/4/2 222/4/2 228/4/2
f 222/2/2 223/2/2 229/2/2
f 228/4/2 222/4/2 229/4/2
f 224/4/2 225/4/2 230/4/2
f 229/2/2 223/2/2 230/2/2
f 223/4/2 224/4/2 230/4/2
f 225/4/2 226/4/2 230/4/2
f 219/4/2 228/4/2 231/4/2
f 228/2/2 229/2/2 232/2/2
f 231/4/2 228/4/2 232/4/2
f 232/2/2 229/2/2 233/2/2
f 229/4/2 230/4/2 234/4/2
f 233/2/2 229/2/2 234/2/2
f 230/4/2 226/4/2 235/4/2
f 234/4/2 230/4/2 235/4/2
f 235/4/2 226/4/2 236/4/2
f 236/4/2 226/4/2 237/4/2
f 226/2/2 227/2/2 238/2/2
f 237/4/2 226/4/2 238/4/2
f 238/2/2 227/2/2 239/2/2
f 231/2/2 232/2/2 240/2/2
f 232/4/2 233/4/2 241/4/2
f 240/2/2 232/2/2 241/2/2
f 233/2/2 234/2/2 242/2/2
f 241/4/2 233/4/2 242/4/2
f 234/2/2 235/2/2 242/2/2
f 242/2/2 235/2/2 243/2/2
f 243/2/2 235/2/2 244/2/2
f 235/4/2 236/4/2 245/4/2
f 244/2/2 235/2/2 245/2/2
f 238/4/2 239/4/2 246/4/2
f 237/4/2 238/4/2 246/4/2
f 246/4/2 239/4/2 247/4/2
f 240/4/2 241/4/2 248/4/2
f 241/2/2 242/2/2 248/2/2
f 242/4/2 243/4/2 249/4/2
f 248/2/2 242/2/2 249/2/2
f 243/2/2 244/2/2 250/2/2
f 249/4/2 243/4/2 250/4/2
f 244/4/2 245/4/2 251/4/2
f 250/2/2 244/2/2 251/2/2
f 236/2/2 237/2/2 252/2/2
f 251/4/2 245/4/2 252/4/2
f 245/4/2 236/4/2 252/4/2
f 237/4/2 246/4/2 253/4/2
f 252/2/2 237/2/2 253/2/2
f 246/2/2 247/2/2 254/2/2
f 253/4/2 246/4/2 254/4/2
f 254/2/2 247/2/2 255/2/2
f 250/4/2 251/4/2 256/4/2
f 251/4/2 252/4/2 256/4/2
f 248/4/2 249/4/2 256/4/2
f 249/4/2 250/4/2 256/4/2
f 240/4/2 248/4/2 256/4/2
f 252/4/2 253/4/2 256/4/2
f 256/4/2 253/4/2 257/4/2
f 257/4/2 253/4/2 258/4/2
f 258/4/2 253/4/2 259/4/2
f 259/4/2 253/4/2 260/4/2
f 260/4/2 253/4/2 261/4/2
f 261/4/2 253/4/2 262/4/2
f 253/2/2 254/2/2 263/2/2
f 262/4/2 253/4/2 263/4/2
f 254/4/2 255/4/2 264/4/2
f 263/2/2 254/2/2 264/2/2
f 264/4/2 255/4/2 265/4/2
f 258/2/2 259/2/2 266/2/2
f 259/4/2 260/4/2 267/4/2
f 266/2/2 259/2/2 267/2/2
f 262/2/2 263/2/2 268/2/2
f 261/4/2 262/4/2 268/4/2
f 263/4/2 264/4/2 269/4/2
f 268/2/2 263/2/2 269/2/2
f 264/2/2 265/2/2 270/2/2
f 269/4/2 264/4/2 270/4/2
f 257/4/2 258/4/2 271/4/2
f 258/2/2 266/2/2 271/2/2
f 266/4/2 267/4/2 272/4/2
f 271/2/2 266/2/2 272/2/2
f 267/4/2 260/4/2 273/4/2
f 272/4/2 267/4/2 273/4/2
f 260/2/2 261/2/2 273/2/2
f 268/4/2 269/4/2 274/4/2
f 273/2/2 261/2/2 274/2/2
f 261/4/2 268/4/2 274/4/2
f 269/2/2 270/2/2 275/2/2
f 274/4/2 269/4/2 275/4/2
f 270/2/2 265/2/2 276/2/2
f 275/2/2 270/2/2 276/2/2
f 276/2/2 265/2/2 277/2/2
f 256/2/2 257/2/2 278/2/2
f 271/4/2 272/4/2 279/4/2
f 278/2/2 257/2/2 279/2/2
f 257/4/2 271/4/2 279/4/2
f 275/2/2 276/2/2 280/2/2
f 279/4/2 272/4/2 280/4/2
f 274/2/2 275/2/2 280/2/2
f 272/2/2 273/2/2 280/2/2
f 273/2/2 274/2/2 280/2/2
f 280/2/2 276/2/2 281/2/2
f 281/2/2 276/2/2 282/2/2
f 282/2/2 276/2/2 283/2/2
f 283/2/2 276/2/2 284/2/2
f 278/4/2 279/4/2 285/4/2
f 279/2/2 280/2/2 286/2/2
f 285/4/2 279/4/2 286/4/2
f 280/4/2 281/4/2 287/4/2
f 286/2/2 280/2/2 287/2/2
f 281/2/2 282/2/2 288/2/2
f 287/4/2 281/4/2 288/4/2
f 282/4/2 283/4/2 289/4/2
f 288/2/2 282/2/2 289/2/2
f 289/4/2 283/4/2 290/4/2
f 293/3/3 292/3/3 291/3/3
f 294/3/3 292/3/3 293/3/3
f 305/2/3 296/2/3 295/2/3
f 306/4/3 297/4/3 296/4/3
f 306/2/3 296/2/3 305/2/3
f 307/3/3 298/3/3 297/3/3
f 307/4/3 297/4/3 306/4/3
f 308/1/3 299/1/3 298/1/3
f 308/3/3 298/3/3 307/3/3
f 309/3/3 300/3/3 299/3/3
f 309/1/3 299/1/3 308/1/3
f 310/2/3 301/2/3 300/2/3
f 310/3/3 300/3/3 309/3/3
f 311/4/3 302/4/3 301/4/3
f 311/2/3 301/2/3 310/2/3
f 312/2/3 303/2/3 302/2/3
f 312/4/3 302/4/3 311/4/3
f 313/2/3 303/2/3 312/2/3
f 315/3/3 305/3/3 304/3/3
f 316/3/3 305/3/3 315/3/3
f 325/3/3 314/3/3 313/3/3
f 326/3/3 314/3/3 325/3/3
f 327/4/3 317/4/3 316/4/3
f 328/2/3 318/2/3 317/2/3
f 328/4/3 317/4/3 327/4/3
f 329/4/3 319/4/3 318/4/3
f 329/2/3 318/2/3 328/2/3
f 330/2/3 320/2/3 319/2/3
f 330/4/3 319/4/3 329/4/3
f 331/4/3 321/4/3 320/4/3
f 331/2/3 320/2/3 330/2/3
f 332/2/3 322/2/3 321/2/3
f 332/4/3 321/4/3 331/4/3
f 333/4/3 323/4/3 322/4/3
f 333/2/3 322/2/3 332/2/3
f 334/2/3 324/2/3 323/2/3
f 334/4/3 323/4/3 333/4/3
f 335/4/3 325/4/3 324/4/3
f 335/2/3 324/2/3 334/2/3
f 336/4/3 325/4/3 335/4/3
f 339/3/3 338/3/3 337/3/3
f 340/3/3 338/3/3 339/3/3
f 341/6/4 342/6/4 344/6/4
f 342/3/4 343/3/4 345/3/4
f 344/6/4 342/6/4 345/6/4
f 345/3/4 343/3/4 346/3/4
f 347/4/4 348/4/4 350/4/4
f 350/4/4 348/4/4 351/4/4
f 349/6/4 350/6/4 352/6/4
f 352/6/4 350/6/4 353/6/4
f 353/4/4 354/4/4 355/4/4
f 355/4/4 354/4/4 356/4/4
f 357/4/4 358/4/4 361/4/4
f 361/4/4 358/4/4 362/4/4
f 359/6/4 360/6/4 363/6/4
f 363/6/4 360/6/4 364/6/4
f 365/2/4 366/2/4 367/2/4
f 367/2/4 366/2/4 368/2/4
f 369/2/4 370/2/4 378/2/4
f 370/4/4 371/4/4 379/4/4
f 378/2/4 370/2/4 379/2/4
f 371/3/4 372/3/4 380/3/4
f 379/4/4 371/4/4 380/4/4
f 372/1/4 373/1/4 381/1/4
f 380/3/4 372/3/4 381/3/4
f 373/3/4 374/3/4 382/3/4
f 381/1/4 373/1/4 382/1/4
f 374/4/4 375/4/4 383/4/4
f 382/3/4 374/3/4 383/3/4
f 375/2/4 376/2/4 384/2/4
f 383/4/4 375/4/4 384/4/4
f 384/2/4 376/2/4 385/2/4
f 377/3/4 378/3/4 386/3/4
f 386/3/4 378/3/4 387/3/4
f 387/4/4 388/4/4 394/4/4
f 388/2/4 389/2/4 395/2/4
f 394/4/4 388/4/4 395/4/4
f 389/4/4 390/4/4 396/4/4
f 395/2/4 389/2/4 396/2/4
f 390/2/4 391/2/4 397/2/4
f 396/4/4 390/4/4 397/4/4
f 391/4/4 392/4/4 398/4/4
f 397/2/4 391/2/4 398/2/4
f 392/2/4 393/2/4 399/2/4
f 398/4/4 392/4/4 399/4/4
f 399/2/4 393/2/4 400/2/4
f 401/3/4 402/3/4 403/3/4
f 403/3/4 402/3/4 404/3/4
f 407/3/5 406/3/5 405/3/5
f 408/3/5 406/3/5 407/3/5
f 412/3/5 410/3/5 409/3/5
f 413/3/5 410/3/5 412/3/5
f 415/2/5 412/2/5 411/2/5
f 416/2/5 412/2/5 415/2/5
f 417/4/5 416/4/5 415/4/5
f 418/4/5 416/4/5 417/4/5
f 419/4/5 414/4/5 413/4/5
f 420/4/5 414/4/5 419/4/5
f 421/2/5 418/2/5 417/2/5
f 422/2/5 418/2/5 421/2/5
f 423/4/5 422/4/5 421/4/5
f 424/4/5 422/4/5 423/4/5
f 425/2/5 420/2/5 419/2/5
f 426/2/5 420/2/5 425/2/5
f 427/2/5 424/2/5 423/2/5
f 428/2/5 424/2/5 427/2/5
f 429/4/5 426/4/5 425/4/5
f 430/4/5 426/4/5 429/4/5
f 431/4/5 428/4/5 427/4/5
f 432/4/5 428/4/5 431/4/5
f 433/2/5 430/2/5 429/2/5
f 434/2/5 430/2/5 433/2/5
f 435/2/5 432/2/5 431/2/5
f 436/2/5 432/2/5 435/2/5
f 437/4/5 434/4/5 433/4/5
f 438/4/5 434/4/5 437/4/5
f 439/3/5 437/3/5 436/3/5
f 440/3/5 437/3/5 439/3/5
f 443/6/5 442/6/5 441/6/5
f 444/6/5 442/6/5 443/6/5
f 445/6/6 446/6/6 447/6/6
f 447/6/6 446/6/6 448/6/6
f 449/6/6 450/6/6 452/6/6
f 452/6/6 450/6/6 453/6/6
f 451/2/6 452/2/6 455/2/6
f 452/6/6 453/6/6 456/6/6
f 455/2/6 452/2/6 456/2/6
f 453/2/6 454/2/6 457/2/6
f 456/6/6 453/6/6 457/6/6
f 457/2/6 454/2/6 458/2/6
f 456/3/6 457/3/6 459/3/6
f 459/3/6 457/3/6 460/3/6
f 461/6/6 462/6/6 464/6/6
f 464/6/6 462/6/6 465/6/6
f 463/4/6 464/4/6 467/4/6
f 467/4/6 464/4/6 468/4/6
f 465/2/6 466/2/6 469/2/6
f 469/2/6 466/2/6 470/2/6
f 471/3/6 472/3/6 474/3/6
f 474/3/6 472/3/6 475/3/6
f 475/4/6 476/4/6 477/4/6
f 477/4/6 476/4/6 478/4/6
f 473/2/6 474/2/6 479/2/6
f 479/2/6 474/2/6 480/2/6
f 477/2/6 478/2/6 481/2/6
f 481/2/6 478/2/6 482/2/6
f 481/4/6 482/4/6 483/4/6
f 483/4/6 482/4/6 484/4/6
f 479/4/6 480/4/6 485/4/6
f 485/4/6 480/4/6 486/4/6
f 483/2/6 484/2/6 487/2/6
f 487/2/6 484/2/6 488/2/6
f 485/2/6 486/2/6 489/2/6
f 489/2/6 486/2/6 490/2/6
f 487/4/6 488/4/6 491/4/6
f 489/4/6 490/4/6 492/4/6
f 492/4/6 490/4/6 493/4/6
f 491/4/6 488/4/6 494/4/6
f 494/4/6 488/4/6 495/4/6
f 496/3/6 497/3/6 498/3/6
f 498/3/6 497/3/6 499/3/6
