# MagicaVoxel @ Ephtracy

# group
o cauliflower_growth3

# material
mtllib farm-34-cauliflower_growth3.mtl
usemtl palette

# normals
vn -1 0 0
vn 1 0 0
vn 0 0 1
vn 0 0 -1
vn 0 -1 0
vn 0 1 0

# texcoords
vt 0.486328 0.5
vt 0.552734 0.5
vt 0.556641 0.5

# verts
v 2.7 0 2.7
v 2.7 0 2.4
v 2.7 0.1 2.7
v 2.7 0.1 2.4
v 2.8 0 2.8
v 2.8 0 2.7
v 2.8 0 2.4
v 2.8 0 2.3
v 2.8 0.1 2.8
v 2.8 0.1 2.7
v 2.8 0.1 2.6
v 2.8 0.1 2.5
v 2.8 0.1 2.4
v 2.8 0.1 2.3
v 2.8 0.2 2.7
v 2.8 0.2 2.6
v 2.8 0.2 2.5
v 2.8 0.2 2.4
v 3 0 2.6
v 3 0 2.5
v 3 0.1 2.6
v 3 0.1 2.5
v 2.9 0 2.6
v 2.9 0 2.5
v 2.9 0.1 2.6
v 2.9 0.1 2.5
v 3.1 0 2.8
v 3.1 0 2.7
v 3.1 0 2.4
v 3.1 0 2.3
v 3.1 0.1 2.8
v 3.1 0.1 2.7
v 3.1 0.1 2.6
v 3.1 0.1 2.5
v 3.1 0.1 2.4
v 3.1 0.1 2.3
v 3.1 0.2 2.7
v 3.1 0.2 2.6
v 3.1 0.2 2.5
v 3.1 0.2 2.4
v 3.2 0 2.7
v 3.2 0 2.4
v 3.2 0.1 2.7
v 3.2 0.1 2.4
v 2.8 0 2.8
v 2.8 0.1 2.8
v 3.1 0 2.8
v 3.1 0.1 2.8
v 2.7 0 2.7
v 2.7 0.1 2.7
v 2.8 0 2.7
v 2.8 0.1 2.7
v 2.8 0.2 2.7
v 2.9 0.1 2.7
v 2.9 0.2 2.7
v 3 0.1 2.7
v 3 0.2 2.7
v 3.1 0 2.7
v 3.1 0.1 2.7
v 3.1 0.2 2.7
v 3.2 0 2.7
v 3.2 0.1 2.7
v 2.9 0 2.5
v 2.9 0.1 2.5
v 3 0 2.5
v 3 0.1 2.5
v 2.9 0 2.6
v 2.9 0.1 2.6
v 3 0 2.6
v 3 0.1 2.6
v 2.7 0 2.4
v 2.7 0.1 2.4
v 2.8 0 2.4
v 2.8 0.1 2.4
v 2.8 0.2 2.4
v 2.9 0.1 2.4
v 2.9 0.2 2.4
v 3 0.1 2.4
v 3 0.2 2.4
v 3.1 0 2.4
v 3.1 0.1 2.4
v 3.1 0.2 2.4
v 3.2 0 2.4
v 3.2 0.1 2.4
v 2.8 0 2.3
v 2.8 0.1 2.3
v 3.1 0 2.3
v 3.1 0.1 2.3
v 2.8 0 2.8
v 3.1 0 2.8
v 2.7 0 2.7
v 2.8 0 2.7
v 3.1 0 2.7
v 3.2 0 2.7
v 2.9 0 2.6
v 3 0 2.6
v 2.9 0 2.5
v 3 0 2.5
v 2.7 0 2.4
v 2.8 0 2.4
v 3.1 0 2.4
v 3.2 0 2.4
v 2.8 0 2.3
v 3.1 0 2.3
v 2.9 0.1 2.6
v 3 0.1 2.6
v 2.9 0.1 2.5
v 3 0.1 2.5
v 2.8 0.1 2.8
v 3.1 0.1 2.8
v 2.7 0.1 2.7
v 2.8 0.1 2.7
v 2.9 0.1 2.7
v 3 0.1 2.7
v 3.1 0.1 2.7
v 3.2 0.1 2.7
v 2.8 0.1 2.6
v 3.1 0.1 2.6
v 2.8 0.1 2.5
v 3.1 0.1 2.5
v 2.7 0.1 2.4
v 2.8 0.1 2.4
v 2.9 0.1 2.4
v 3 0.1 2.4
v 3.1 0.1 2.4
v 3.2 0.1 2.4
v 2.8 0.1 2.3
v 3.1 0.1 2.3
v 2.8 0.2 2.7
v 2.9 0.2 2.7
v 3 0.2 2.7
v 3.1 0.2 2.7
v 2.8 0.2 2.6
v 2.9 0.2 2.6
v 3 0.2 2.6
v 3.1 0.2 2.6
v 2.8 0.2 2.5
v 2.9 0.2 2.5
v 3 0.2 2.5
v 3.1 0.2 2.5
v 2.8 0.2 2.4
v 2.9 0.2 2.4
v 3 0.2 2.4
v 3.1 0.2 2.4

# faces
f 3/2/1 2/2/1 1/2/1
f 4/2/1 2/2/1 3/2/1
f 9/2/1 6/2/1 5/2/1
f 10/2/1 6/2/1 9/2/1
f 13/2/1 8/2/1 7/2/1
f 14/2/1 8/2/1 13/2/1
f 15/3/1 11/3/1 10/3/1
f 16/1/1 12/1/1 11/1/1
f 16/3/1 11/3/1 15/3/1
f 17/3/1 13/3/1 12/3/1
f 17/1/1 12/1/1 16/1/1
f 18/3/1 13/3/1 17/3/1
f 21/2/1 20/2/1 19/2/1
f 22/2/1 20/2/1 21/2/1
f 23/2/2 24/2/2 25/2/2
f 25/2/2 24/2/2 26/2/2
f 27/2/2 28/2/2 31/2/2
f 31/2/2 28/2/2 32/2/2
f 29/2/2 30/2/2 35/2/2
f 35/2/2 30/2/2 36/2/2
f 32/3/2 33/3/2 37/3/2
f 33/1/2 34/1/2 38/1/2
f 37/3/2 33/3/2 38/3/2
f 34/3/2 35/3/2 39/3/2
f 38/1/2 34/1/2 39/1/2
f 39/3/2 35/3/2 40/3/2
f 41/2/2 42/2/2 43/2/2
f 43/2/2 42/2/2 44/2/2
f 47/2/3 46/2/3 45/2/3
f 48/2/3 46/2/3 47/2/3
f 51/2/3 50/2/3 49/2/3
f 52/2/3 50/2/3 51/2/3
f 54/3/3 53/3/3 52/3/3
f 55/3/3 53/3/3 54/3/3
f 56/1/3 55/1/3 54/1/3
f 57/1/3 55/1/3 56/1/3
f 59/3/3 57/3/3 56/3/3
f 60/3/3 57/3/3 59/3/3
f 61/2/3 59/2/3 58/2/3
f 62/2/3 59/2/3 61/2/3
f 65/2/3 64/2/3 63/2/3
f 66/2/3 64/2/3 65/2/3
f 67/2/4 68/2/4 69/2/4
f 69/2/4 68/2/4 70/2/4
f 71/2/4 72/2/4 73/2/4
f 73/2/4 72/2/4 74/2/4
f 74/3/4 75/3/4 76/3/4
f 76/3/4 75/3/4 77/3/4
f 76/1/4 77/1/4 78/1/4
f 78/1/4 77/1/4 79/1/4
f 78/3/4 79/3/4 81/3/4
f 81/3/4 79/3/4 82/3/4
f 80/2/4 81/2/4 83/2/4
f 83/2/4 81/2/4 84/2/4
f 85/2/4 86/2/4 87/2/4
f 87/2/4 86/2/4 88/2/4
f 92/2/5 90/2/5 89/2/5
f 93/2/5 90/2/5 92/2/5
f 95/2/5 92/2/5 91/2/5
f 95/2/5 94/2/5 93/2/5
f 95/2/5 93/2/5 92/2/5
f 96/2/5 94/2/5 95/2/5
f 97/2/5 95/2/5 91/2/5
f 98/2/5 94/2/5 96/2/5
f 99/2/5 97/2/5 91/2/5
f 99/2/5 98/2/5 97/2/5
f 100/2/5 98/2/5 99/2/5
f 101/2/5 94/2/5 98/2/5
f 101/2/5 98/2/5 100/2/5
f 102/2/5 94/2/5 101/2/5
f 103/2/5 101/2/5 100/2/5
f 104/2/5 101/2/5 103/2/5
f 107/1/5 106/1/5 105/1/5
f 108/1/5 106/1/5 107/1/5
f 109/2/6 110/2/6 112/2/6
f 112/2/6 110/2/6 113/2/6
f 113/2/6 110/2/6 114/2/6
f 114/2/6 110/2/6 115/2/6
f 111/2/6 112/2/6 117/2/6
f 115/2/6 116/2/6 118/2/6
f 111/2/6 117/2/6 119/2/6
f 118/2/6 116/2/6 120/2/6
f 111/2/6 119/2/6 121/2/6
f 121/2/6 119/2/6 122/2/6
f 120/2/6 116/2/6 125/2/6
f 125/2/6 116/2/6 126/2/6
f 123/2/6 124/2/6 127/2/6
f 124/2/6 125/2/6 127/2/6
f 122/2/6 123/2/6 127/2/6
f 127/2/6 125/2/6 128/2/6
f 129/3/6 130/3/6 133/3/6
f 130/1/6 131/1/6 134/1/6
f 133/3/6 130/3/6 134/3/6
f 131/3/6 132/3/6 135/3/6
f 134/1/6 131/1/6 135/1/6
f 135/3/6 132/3/6 136/3/6
f 133/1/6 134/1/6 137/1/6
f 134/1/6 135/1/6 137/1/6
f 135/1/6 136/1/6 137/1/6
f 137/1/6 136/1/6 138/1/6
f 138/1/6 136/1/6 139/1/6
f 139/1/6 136/1/6 140/1/6
f 137/3/6 138/3/6 141/3/6
f 138/1/6 139/1/6 142/1/6
f 141/3/6 138/3/6 142/3/6
f 139/3/6 140/3/6 143/3/6
f 142/1/6 139/1/6 143/1/6
f 143/3/6 140/3/6 144/3/6
