# MagicaVoxel @ Ephtracy

# group
o crop_base

# material
mtllib farm-58-crop_base.mtl
usemtl palette

# normals
vn -1 0 0
vn 1 0 0
vn 0 0 1
vn 0 0 -1
vn 0 -1 0
vn 0 1 0

# texcoords
vt 0.224609 0.5
vt 0.228516 0.5

# verts
v 7.3 0 1.9
v 7.3 0 1.7
v 7.3 0 1.5
v 7.3 0 1.2
v 7.3 0 1
v 7.3 0 0.9
v 7.3 0.1 1.9
v 7.3 0.1 1.7
v 7.3 0.1 1.5
v 7.3 0.1 1.2
v 7.3 0.1 1
v 7.3 0.1 0.9
v 7.4 0 0.9
v 7.4 0 0.8
v 7.4 0.1 1.9
v 7.4 0.1 1.8
v 7.4 0.1 1.7
v 7.4 0.1 1.6
v 7.4 0.1 1.5
v 7.4 0.1 1.2
v 7.4 0.1 1
v 7.4 0.1 0.9
v 7.4 0.1 0.8
v 7.4 0.2 1.9
v 7.4 0.2 1.8
v 7.4 0.2 1.6
v 7.4 0.2 1
v 7.5 0.1 1
v 7.5 0.1 0.9
v 7.5 0.2 1
v 7.5 0.2 0.9
v 7.8 0.1 1
v 7.8 0.1 0.9
v 7.8 0.2 1
v 7.8 0.2 0.9
v 7.9 0 0.9
v 7.9 0 0.8
v 7.9 0.1 1.9
v 7.9 0.1 1.8
v 7.9 0.1 1.7
v 7.9 0.1 1.6
v 7.9 0.1 1.5
v 7.9 0.1 1.4
v 7.9 0.1 1.3
v 7.9 0.1 1.2
v 7.9 0.1 1.1
v 7.9 0.1 1
v 7.9 0.1 0.9
v 7.9 0.1 0.8
v 7.9 0.2 1.9
v 7.9 0.2 1.8
v 7.9 0.2 1.4
v 7.9 0.2 1.3
v 7.9 0.2 1.2
v 7.9 0.2 1.1
v 7.9 0.2 1
v 8 0 1.9
v 8 0 1.7
v 8 0 1.6
v 8 0 1.5
v 8 0 1.4
v 8 0 1.3
v 8 0 1.1
v 8 0 0.9
v 8 0.1 1.9
v 8 0.1 1.7
v 8 0.1 1.6
v 8 0.1 1.5
v 8 0.1 1.4
v 8 0.1 1.3
v 8 0.1 1.1
v 8 0.1 0.9
v 7.3 0 1.9
v 7.3 0.1 1.9
v 7.4 0.1 1.9
v 7.4 0.2 1.9
v 7.5 0 1.9
v 7.5 0.1 1.9
v 7.6 0 1.9
v 7.6 0.1 1.9
v 7.6 0.2 1.9
v 7.7 0 1.9
v 7.7 0.1 1.9
v 7.7 0.2 1.9
v 7.8 0.1 1.9
v 7.8 0.2 1.9
v 7.9 0.1 1.9
v 7.9 0.2 1.9
v 8 0 1.9
v 8 0.1 1.9
v 7.4 0.1 1
v 7.4 0.2 1
v 7.5 0.1 1
v 7.5 0.2 1
v 7.8 0.1 1
v 7.8 0.2 1
v 7.9 0.1 1
v 7.9 0.2 1
v 7.3 0 0.9
v 7.3 0.1 0.9
v 7.4 0 0.9
v 7.4 0.1 0.9
v 7.5 0.1 0.9
v 7.5 0.2 0.9
v 7.6 0.1 0.9
v 7.7 0.1 0.9
v 7.8 0.1 0.9
v 7.8 0.2 0.9
v 7.9 0 0.9
v 7.9 0.1 0.9
v 8 0 0.9
v 8 0.1 0.9
v 7.4 0 0.8
v 7.4 0.1 0.8
v 7.5 0 0.8
v 7.5 0.1 0.8
v 7.6 0 0.8
v 7.6 0.1 0.8
v 7.7 0 0.8
v 7.7 0.1 0.8
v 7.8 0 0.8
v 7.8 0.1 0.8
v 7.9 0 0.8
v 7.9 0.1 0.8
v 7.3 0 1.9
v 7.5 0 1.9
v 7.6 0 1.9
v 7.7 0 1.9
v 8 0 1.9
v 7.8 0 1.8
v 7.9 0 1.8
v 7.3 0 1.7
v 7.4 0 1.7
v 7.6 0 1.7
v 7.7 0 1.7
v 7.8 0 1.7
v 7.9 0 1.7
v 8 0 1.7
v 7.4 0 1.6
v 7.5 0 1.6
v 7.6 0 1.6
v 7.7 0 1.6
v 8 0 1.6
v 7.3 0 1.5
v 7.4 0 1.5
v 7.6 0 1.5
v 7.7 0 1.5
v 7.8 0 1.5
v 7.9 0 1.5
v 8 0 1.5
v 7.4 0 1.4
v 7.5 0 1.4
v 7.6 0 1.4
v 7.7 0 1.4
v 7.8 0 1.4
v 7.9 0 1.4
v 8 0 1.4
v 7.4 0 1.3
v 7.5 0 1.3
v 7.7 0 1.3
v 7.9 0 1.3
v 8 0 1.3
v 7.3 0 1.2
v 7.4 0 1.2
v 7.7 0 1.2
v 7.8 0 1.2
v 7.4 0 1.1
v 7.6 0 1.1
v 7.7 0 1.1
v 7.8 0 1.1
v 7.9 0 1.1
v 8 0 1.1
v 7.3 0 1
v 7.4 0 1
v 7.7 0 1
v 7.8 0 1
v 7.3 0 0.9
v 7.4 0 0.9
v 7.5 0 0.9
v 7.6 0 0.9
v 7.7 0 0.9
v 7.9 0 0.9
v 8 0 0.9
v 7.4 0 0.8
v 7.5 0 0.8
v 7.6 0 0.8
v 7.7 0 0.8
v 7.8 0 0.8
v 7.9 0 0.8
v 7.3 0.1 1.9
v 7.4 0.1 1.9
v 7.9 0.1 1.9
v 8 0.1 1.9
v 7.4 0.1 1.8
v 7.9 0.1 1.8
v 7.3 0.1 1.7
v 7.4 0.1 1.7
v 7.9 0.1 1.7
v 8 0.1 1.7
v 7.4 0.1 1.6
v 7.9 0.1 1.6
v 8 0.1 1.6
v 7.3 0.1 1.5
v 7.4 0.1 1.5
v 7.9 0.1 1.5
v 8 0.1 1.5
v 7.9 0.1 1.4
v 8 0.1 1.4
v 7.9 0.1 1.3
v 8 0.1 1.3
v 7.3 0.1 1.2
v 7.4 0.1 1.2
v 7.9 0.1 1.2
v 7.9 0.1 1.1
v 8 0.1 1.1
v 7.3 0.1 1
v 7.4 0.1 1
v 7.5 0.1 1
v 7.8 0.1 1
v 7.9 0.1 1
v 7.3 0.1 0.9
v 7.4 0.1 0.9
v 7.5 0.1 0.9
v 7.6 0.1 0.9
v 7.7 0.1 0.9
v 7.8 0.1 0.9
v 7.9 0.1 0.9
v 8 0.1 0.9
v 7.4 0.1 0.8
v 7.5 0.1 0.8
v 7.6 0.1 0.8
v 7.7 0.1 0.8
v 7.8 0.1 0.8
v 7.9 0.1 0.8
v 7.4 0.2 1.9
v 7.6 0.2 1.9
v 7.7 0.2 1.9
v 7.8 0.2 1.9
v 7.9 0.2 1.9
v 7.4 0.2 1.8
v 7.6 0.2 1.8
v 7.7 0.2 1.8
v 7.8 0.2 1.8
v 7.9 0.2 1.8
v 7.7 0.2 1.7
v 7.8 0.2 1.7
v 7.4 0.2 1.6
v 7.6 0.2 1.6
v 7.7 0.2 1.6
v 7.5 0.2 1.5
v 7.6 0.2 1.5
v 7.7 0.2 1.5
v 7.7 0.2 1.4
v 7.9 0.2 1.4
v 7.6 0.2 1.3
v 7.7 0.2 1.3
v 7.8 0.2 1.3
v 7.9 0.2 1.3
v 7.5 0.2 1.2
v 7.6 0.2 1.2
v 7.7 0.2 1.2
v 7.8 0.2 1.2
v 7.9 0.2 1.2
v 7.6 0.2 1.1
v 7.7 0.2 1.1
v 7.8 0.2 1.1
v 7.9 0.2 1.1
v 7.4 0.2 1
v 7.5 0.2 1
v 7.7 0.2 1
v 7.8 0.2 1
v 7.9 0.2 1
v 7.5 0.2 0.9
v 7.8 0.2 0.9

# faces
f 7/2/1 2/2/1 1/2/1
f 8/1/1 3/1/1 2/1/1
f 8/2/1 2/2/1 7/2/1
f 9/2/1 4/2/1 3/2/1
f 9/1/1 3/1/1 8/1/1
f 10/1/1 5/1/1 4/1/1
f 10/2/1 4/2/1 9/2/1
f 11/2/1 6/2/1 5/2/1
f 11/1/1 5/1/1 10/1/1
f 12/2/1 6/2/1 11/2/1
f 22/2/1 14/2/1 13/2/1
f 23/2/1 14/2/1 22/2/1
f 24/2/1 16/2/1 15/2/1
f 25/1/1 17/1/1 16/1/1
f 25/2/1 16/2/1 24/2/1
f 25/1/1 18/1/1 17/1/1
f 26/2/1 21/2/1 20/2/1
f 26/1/1 18/1/1 25/1/1
f 26/2/1 19/2/1 18/2/1
f 26/2/1 20/2/1 19/2/1
f 27/2/1 21/2/1 26/2/1
f 30/1/1 29/1/1 28/1/1
f 31/1/1 29/1/1 30/1/1
f 32/1/2 33/1/2 34/1/2
f 34/1/2 33/1/2 35/1/2
f 36/2/2 37/2/2 48/2/2
f 48/2/2 37/2/2 49/2/2
f 38/1/2 39/1/2 50/1/2
f 39/2/2 40/2/2 51/2/2
f 50/1/2 39/1/2 51/1/2
f 40/2/2 41/2/2 51/2/2
f 41/2/2 42/2/2 51/2/2
f 42/2/2 43/2/2 51/2/2
f 43/1/2 44/1/2 52/1/2
f 51/2/2 43/2/2 52/2/2
f 44/2/2 45/2/2 53/2/2
f 52/1/2 44/1/2 53/1/2
f 45/1/2 46/1/2 54/1/2
f 53/2/2 45/2/2 54/2/2
f 46/2/2 47/2/2 55/2/2
f 54/1/2 46/1/2 55/1/2
f 55/2/2 47/2/2 56/2/2
f 57/1/2 58/1/2 65/1/2
f 58/2/2 59/2/2 66/2/2
f 65/1/2 58/1/2 66/1/2
f 59/1/2 60/1/2 67/1/2
f 66/2/2 59/2/2 67/2/2
f 60/2/2 61/2/2 68/2/2
f 67/1/2 60/1/2 68/1/2
f 61/1/2 62/1/2 69/1/2
f 68/2/2 61/2/2 69/2/2
f 62/2/2 63/2/2 70/2/2
f 69/1/2 62/1/2 70/1/2
f 63/1/2 64/1/2 71/1/2
f 70/2/2 63/2/2 71/2/2
f 71/1/2 64/1/2 72/1/2
f 75/2/3 74/2/3 73/2/3
f 77/2/3 75/2/3 73/2/3
f 77/2/3 76/2/3 75/2/3
f 78/2/3 76/2/3 77/2/3
f 79/1/3 78/1/3 77/1/3
f 80/2/3 76/2/3 78/2/3
f 80/1/3 78/1/3 79/1/3
f 81/2/3 76/2/3 80/2/3
f 82/2/3 80/2/3 79/2/3
f 83/1/3 81/1/3 80/1/3
f 83/2/3 80/2/3 82/2/3
f 84/1/3 81/1/3 83/1/3
f 85/1/3 83/1/3 82/1/3
f 85/2/3 84/2/3 83/2/3
f 86/2/3 84/2/3 85/2/3
f 87/1/3 85/1/3 82/1/3
f 87/1/3 86/1/3 85/1/3
f 88/1/3 86/1/3 87/1/3
f 89/1/3 87/1/3 82/1/3
f 90/1/3 87/1/3 89/1/3
f 91/2/4 92/2/4 93/2/4
f 93/2/4 92/2/4 94/2/4
f 95/2/4 96/2/4 97/2/4
f 97/2/4 96/2/4 98/2/4
f 99/2/4 100/2/4 101/2/4
f 101/2/4 100/2/4 102/2/4
f 103/1/4 104/1/4 105/1/4
f 105/1/4 104/1/4 106/1/4
f 106/1/4 104/1/4 107/1/4
f 107/1/4 104/1/4 108/1/4
f 109/1/4 110/1/4 111/1/4
f 111/1/4 110/1/4 112/1/4
f 113/2/4 114/2/4 115/2/4
f 115/2/4 114/2/4 116/2/4
f 115/1/4 116/1/4 117/1/4
f 117/1/4 116/1/4 118/1/4
f 117/2/4 118/2/4 119/2/4
f 119/2/4 118/2/4 120/2/4
f 119/1/4 120/1/4 121/1/4
f 121/1/4 120/1/4 122/1/4
f 121/2/4 122/2/4 123/2/4
f 123/2/4 122/2/4 124/2/4
f 130/1/5 129/1/5 128/1/5
f 131/1/5 129/1/5 130/1/5
f 132/2/5 126/2/5 125/2/5
f 133/2/5 126/2/5 132/2/5
f 134/1/5 127/1/5 126/1/5
f 134/2/5 128/2/5 127/2/5
f 135/1/5 130/1/5 128/1/5
f 135/2/5 128/2/5 134/2/5
f 136/2/5 131/2/5 130/2/5
f 136/1/5 130/1/5 135/1/5
f 137/1/5 129/1/5 131/1/5
f 137/2/5 131/2/5 136/2/5
f 138/1/5 129/1/5 137/1/5
f 139/2/5 126/2/5 133/2/5
f 139/1/5 133/1/5 132/1/5
f 140/1/5 134/1/5 126/1/5
f 140/2/5 126/2/5 139/2/5
f 140/1/5 135/1/5 134/1/5
f 141/1/5 135/1/5 140/1/5
f 142/2/5 136/2/5 135/2/5
f 142/1/5 135/1/5 141/1/5
f 142/2/5 138/2/5 137/2/5
f 142/2/5 137/2/5 136/2/5
f 143/2/5 138/2/5 142/2/5
f 144/1/5 141/1/5 140/1/5
f 144/1/5 140/1/5 139/1/5
f 144/1/5 139/1/5 132/1/5
f 145/1/5 141/1/5 144/1/5
f 146/2/5 142/2/5 141/2/5
f 146/1/5 141/1/5 145/1/5
f 147/1/5 143/1/5 142/1/5
f 147/2/5 142/2/5 146/2/5
f 148/1/5 143/1/5 147/1/5
f 149/1/5 143/1/5 148/1/5
f 150/1/5 143/1/5 149/1/5
f 151/1/5 146/1/5 145/1/5
f 151/2/5 145/2/5 144/2/5
f 151/1/5 147/1/5 146/1/5
f 152/1/5 147/1/5 151/1/5
f 153/1/5 147/1/5 152/1/5
f 154/2/5 148/2/5 147/2/5
f 154/1/5 147/1/5 153/1/5
f 155/1/5 149/1/5 148/1/5
f 155/2/5 148/2/5 154/2/5
f 156/2/5 150/2/5 149/2/5
f 156/1/5 149/1/5 155/1/5
f 157/2/5 150/2/5 156/2/5
f 158/2/5 151/2/5 144/2/5
f 158/2/5 152/2/5 151/2/5
f 159/1/5 153/1/5 152/1/5
f 159/2/5 152/2/5 158/2/5
f 160/2/5 155/2/5 154/2/5
f 160/2/5 154/2/5 153/2/5
f 160/2/5 156/2/5 155/2/5
f 161/1/5 157/1/5 156/1/5
f 161/2/5 156/2/5 160/2/5
f 162/1/5 157/1/5 161/1/5
f 163/2/5 158/2/5 144/2/5
f 164/1/5 159/1/5 158/1/5
f 164/2/5 158/2/5 163/2/5
f 165/2/5 160/2/5 153/2/5
f 165/1/5 161/1/5 160/1/5
f 166/1/5 161/1/5 165/1/5
f 167/1/5 159/1/5 164/1/5
f 167/1/5 164/1/5 163/1/5
f 168/1/5 153/1/5 159/1/5
f 168/1/5 159/1/5 167/1/5
f 168/2/5 166/2/5 165/2/5
f 168/2/5 165/2/5 153/2/5
f 169/2/5 166/2/5 168/2/5
f 170/1/5 161/1/5 166/1/5
f 170/2/5 166/2/5 169/2/5
f 171/2/5 162/2/5 161/2/5
f 171/1/5 161/1/5 170/1/5
f 172/2/5 162/2/5 171/2/5
f 173/1/5 167/1/5 163/1/5
f 174/2/5 168/2/5 167/2/5
f 174/1/5 167/1/5 173/1/5
f 175/1/5 169/1/5 168/1/5
f 175/2/5 170/2/5 169/2/5
f 175/2/5 171/2/5 170/2/5
f 176/2/5 171/2/5 175/2/5
f 177/2/5 174/2/5 173/2/5
f 178/2/5 168/2/5 174/2/5
f 178/2/5 174/2/5 177/2/5
f 179/2/5 168/2/5 178/2/5
f 180/1/5 175/1/5 168/1/5
f 180/2/5 168/2/5 179/2/5
f 180/1/5 176/1/5 175/1/5
f 181/1/5 176/1/5 180/1/5
f 182/2/5 171/2/5 176/2/5
f 182/1/5 172/1/5 171/1/5
f 183/1/5 172/1/5 182/1/5
f 184/2/5 179/2/5 178/2/5
f 185/1/5 180/1/5 179/1/5
f 185/2/5 179/2/5 184/2/5
f 186/2/5 181/2/5 180/2/5
f 186/1/5 180/1/5 185/1/5
f 187/1/5 176/1/5 181/1/5
f 187/2/5 181/2/5 186/2/5
f 188/2/5 182/2/5 176/2/5
f 188/1/5 176/1/5 187/1/5
f 189/2/5 182/2/5 188/2/5
f 190/2/6 191/2/6 194/2/6
f 192/1/6 193/1/6 195/1/6
f 190/2/6 194/2/6 196/2/6
f 196/2/6 194/2/6 197/2/6
f 195/1/6 193/1/6 198/1/6
f 198/1/6 193/1/6 199/1/6
f 196/1/6 197/1/6 200/1/6
f 198/2/6 199/2/6 201/2/6
f 201/2/6 199/2/6 202/2/6
f 196/1/6 200/1/6 203/1/6
f 203/1/6 200/1/6 204/1/6
f 201/1/6 202/1/6 205/1/6
f 205/1/6 202/1/6 206/1/6
f 205/2/6 206/2/6 207/2/6
f 207/2/6 206/2/6 208/2/6
f 207/1/6 208/1/6 209/1/6
f 209/1/6 208/1/6 210/1/6
f 203/2/6 204/2/6 211/2/6
f 211/2/6 204/2/6 212/2/6
f 209/2/6 210/2/6 213/2/6
f 213/2/6 210/2/6 214/2/6
f 214/2/6 210/2/6 215/2/6
f 211/1/6 212/1/6 216/1/6
f 216/1/6 212/1/6 217/1/6
f 214/1/6 215/1/6 220/1/6
f 217/2/6 218/2/6 221/2/6
f 216/2/6 217/2/6 221/2/6
f 221/2/6 218/2/6 222/2/6
f 222/2/6 218/2/6 223/2/6
f 219/2/6 220/2/6 226/2/6
f 220/1/6 215/1/6 227/1/6
f 226/2/6 220/2/6 227/2/6
f 227/1/6 215/1/6 228/1/6
f 222/2/6 223/2/6 229/2/6
f 223/1/6 224/1/6 230/1/6
f 229/2/6 223/2/6 230/2/6
f 224/2/6 225/2/6 231/2/6
f 230/1/6 224/1/6 231/1/6
f 225/1/6 226/1/6 232/1/6
f 231/2/6 225/2/6 232/2/6
f 226/2/6 227/2/6 233/2/6
f 232/1/6 226/1/6 233/1/6
f 233/2/6 227/2/6 234/2/6
f 235/2/6 236/2/6 240/2/6
f 236/1/6 237/1/6 241/1/6
f 240/2/6 236/2/6 241/2/6
f 237/2/6 238/2/6 242/2/6
f 241/1/6 237/1/6 242/1/6
f 238/1/6 239/1/6 243/1/6
f 242/2/6 238/2/6 243/2/6
f 243/1/6 239/1/6 244/1/6
f 241/2/6 242/2/6 245/2/6
f 242/1/6 243/1/6 245/1/6
f 243/2/6 244/2/6 246/2/6
f 245/1/6 243/1/6 246/1/6
f 240/1/6 241/1/6 247/1/6
f 241/2/6 245/2/6 248/2/6
f 247/1/6 241/1/6 248/1/6
f 245/2/6 246/2/6 248/2/6
f 248/2/6 246/2/6 249/2/6
f 247/2/6 248/2/6 250/2/6
f 248/1/6 249/1/6 251/1/6
f 250/2/6 248/2/6 251/2/6
f 249/2/6 246/2/6 252/2/6
f 251/1/6 249/1/6 252/1/6
f 251/2/6 252/2/6 253/2/6
f 252/2/6 246/2/6 253/2/6
f 246/2/6 244/2/6 254/2/6
f 253/2/6 246/2/6 254/2/6
f 251/2/6 253/2/6 255/2/6
f 250/1/6 251/1/6 255/1/6
f 253/1/6 254/1/6 256/1/6
f 255/2/6 253/2/6 256/2/6
f 256/1/6 254/1/6 257/1/6
f 257/1/6 254/1/6 258/1/6
f 250/1/6 255/1/6 259/1/6
f 247/2/6 250/2/6 259/2/6
f 255/1/6 256/1/6 259/1/6
f 256/1/6 257/1/6 259/1/6
f 259/1/6 257/1/6 260/1/6
f 260/1/6 257/1/6 261/1/6
f 257/2/6 258/2/6 262/2/6
f 261/1/6 257/1/6 262/1/6
f 262/2/6 258/2/6 263/2/6
f 260/1/6 261/1/6 264/1/6
f 259/2/6 260/2/6 264/2/6
f 261/2/6 262/2/6 265/2/6
f 264/1/6 261/1/6 265/1/6
f 262/1/6 263/1/6 266/1/6
f 265/2/6 262/2/6 266/2/6
f 266/1/6 263/1/6 267/1/6
f 247/2/6 259/2/6 268/2/6
f 264/2/6 265/2/6 268/2/6
f 259/2/6 264/2/6 268/2/6
f 268/2/6 265/2/6 269/2/6
f 265/1/6 266/1/6 270/1/6
f 269/2/6 265/2/6 270/2/6
f 266/2/6 267/2/6 271/2/6
f 270/1/6 266/1/6 271/1/6
f 271/2/6 267/2/6 272/2/6
f 269/1/6 270/1/6 273/1/6
f 270/1/6 271/1/6 273/1/6
f 273/1/6 271/1/6 274/1/6
