# MagicaVoxel @ Ephtracy

# group
o bucket

# material
mtllib farm-4-bucket.mtl
usemtl palette

# normals
vn -1 0 0
vn 1 0 0
vn 0 0 1
vn 0 0 -1
vn 0 -1 0
vn 0 1 0

# texcoords
vt 0.927734 0.5
vt 0.931641 0.5
vt 0.935547 0.5
vt 0.986328 0.5

# verts
v -0.8 0 -3
v -0.8 0 -3.3
v -0.8 0.1 -3
v -0.8 0.1 -3.2
v -0.8 0.1 -3.3
v -0.8 0.3 -3
v -0.8 0.3 -3.1
v -0.8 0.3 -3.2
v -0.8 0.3 -3.3
v -0.8 0.4 -3
v -0.8 0.4 -3.1
v -0.8 0.4 -3.2
v -0.8 0.4 -3.3
v -0.8 0.6 -3.1
v -0.8 0.6 -3.2
v -0.7 0 -2.9
v -0.7 0 -3
v -0.7 0 -3.3
v -0.7 0 -3.4
v -0.7 0.1 -2.9
v -0.7 0.1 -3
v -0.7 0.1 -3.3
v -0.7 0.1 -3.4
v -0.7 0.3 -2.9
v -0.7 0.3 -3
v -0.7 0.3 -3.3
v -0.7 0.3 -3.4
v -0.7 0.4 -2.9
v -0.7 0.4 -3
v -0.7 0.4 -3.3
v -0.7 0.4 -3.4
v -0.7 0.6 -3.1
v -0.7 0.6 -3.2
v -0.7 0.7 -3.1
v -0.7 0.7 -3.2
v -0.4 0.1 -3
v -0.4 0.1 -3.1
v -0.4 0.1 -3.3
v -0.4 0.3 -3
v -0.4 0.3 -3.1
v -0.4 0.3 -3.2
v -0.4 0.3 -3.3
v -0.4 0.4 -3
v -0.4 0.4 -3.1
v -0.4 0.4 -3.2
v -0.4 0.4 -3.3
v -0.4 0.6 -3.1
v -0.4 0.6 -3.2
v -0.7 0.1 -3
v -0.7 0.1 -3.2
v -0.7 0.1 -3.3
v -0.7 0.3 -3
v -0.7 0.3 -3.1
v -0.7 0.3 -3.2
v -0.7 0.3 -3.3
v -0.7 0.4 -3
v -0.7 0.4 -3.1
v -0.7 0.4 -3.2
v -0.7 0.4 -3.3
v -0.7 0.6 -3.1
v -0.7 0.6 -3.2
v -0.4 0 -2.9
v -0.4 0 -3
v -0.4 0 -3.3
v -0.4 0 -3.4
v -0.4 0.1 -2.9
v -0.4 0.1 -3
v -0.4 0.1 -3.3
v -0.4 0.1 -3.4
v -0.4 0.3 -2.9
v -0.4 0.3 -3
v -0.4 0.3 -3.3
v -0.4 0.3 -3.4
v -0.4 0.4 -2.9
v -0.4 0.4 -3
v -0.4 0.4 -3.3
v -0.4 0.4 -3.4
v -0.4 0.6 -3.1
v -0.4 0.6 -3.2
v -0.4 0.7 -3.1
v -0.4 0.7 -3.2
v -0.3 0 -3
v -0.3 0 -3.3
v -0.3 0.1 -3
v -0.3 0.1 -3.1
v -0.3 0.1 -3.3
v -0.3 0.3 -3
v -0.3 0.3 -3.1
v -0.3 0.3 -3.2
v -0.3 0.3 -3.3
v -0.3 0.4 -3
v -0.3 0.4 -3.1
v -0.3 0.4 -3.2
v -0.3 0.4 -3.3
v -0.3 0.6 -3.1
v -0.3 0.6 -3.2
v -0.7 0 -2.9
v -0.7 0.1 -2.9
v -0.7 0.3 -2.9
v -0.7 0.4 -2.9
v -0.6 0.1 -2.9
v -0.6 0.3 -2.9
v -0.4 0 -2.9
v -0.4 0.1 -2.9
v -0.4 0.3 -2.9
v -0.4 0.4 -2.9
v -0.8 0 -3
v -0.8 0.1 -3
v -0.8 0.3 -3
v -0.8 0.4 -3
v -0.7 0 -3
v -0.7 0.1 -3
v -0.7 0.3 -3
v -0.7 0.4 -3
v -0.4 0 -3
v -0.4 0.1 -3
v -0.4 0.3 -3
v -0.4 0.4 -3
v -0.3 0 -3
v -0.3 0.1 -3
v -0.3 0.3 -3
v -0.3 0.4 -3
v -0.8 0.4 -3.1
v -0.8 0.6 -3.1
v -0.7 0.4 -3.1
v -0.7 0.6 -3.1
v -0.7 0.7 -3.1
v -0.4 0.4 -3.1
v -0.4 0.6 -3.1
v -0.4 0.7 -3.1
v -0.3 0.4 -3.1
v -0.3 0.6 -3.1
v -0.7 0.1 -3.3
v -0.7 0.3 -3.3
v -0.7 0.4 -3.3
v -0.5 0.1 -3.3
v -0.5 0.3 -3.3
v -0.4 0.1 -3.3
v -0.4 0.3 -3.3
v -0.4 0.4 -3.3
v -0.7 0.1 -3
v -0.7 0.3 -3
v -0.7 0.4 -3
v -0.6 0.1 -3
v -0.6 0.3 -3
v -0.4 0.1 -3
v -0.4 0.3 -3
v -0.4 0.4 -3
v -0.8 0.4 -3.2
v -0.8 0.6 -3.2
v -0.7 0.4 -3.2
v -0.7 0.6 -3.2
v -0.7 0.7 -3.2
v -0.4 0.4 -3.2
v -0.4 0.6 -3.2
v -0.4 0.7 -3.2
v -0.3 0.4 -3.2
v -0.3 0.6 -3.2
v -0.8 0 -3.3
v -0.8 0.1 -3.3
v -0.8 0.3 -3.3
v -0.8 0.4 -3.3
v -0.7 0 -3.3
v -0.7 0.1 -3.3
v -0.7 0.3 -3.3
v -0.7 0.4 -3.3
v -0.4 0 -3.3
v -0.4 0.1 -3.3
v -0.4 0.3 -3.3
v -0.4 0.4 -3.3
v -0.3 0 -3.3
v -0.3 0.1 -3.3
v -0.3 0.3 -3.3
v -0.3 0.4 -3.3
v -0.7 0 -3.4
v -0.7 0.1 -3.4
v -0.7 0.3 -3.4
v -0.7 0.4 -3.4
v -0.5 0.1 -3.4
v -0.5 0.3 -3.4
v -0.4 0 -3.4
v -0.4 0.1 -3.4
v -0.4 0.3 -3.4
v -0.4 0.4 -3.4
v -0.7 0 -2.9
v -0.4 0 -2.9
v -0.8 0 -3
v -0.7 0 -3
v -0.4 0 -3
v -0.3 0 -3
v -0.8 0 -3.3
v -0.7 0 -3.3
v -0.4 0 -3.3
v -0.3 0 -3.3
v -0.7 0 -3.4
v -0.4 0 -3.4
v -0.7 0.6 -3.1
v -0.4 0.6 -3.1
v -0.7 0.6 -3.2
v -0.4 0.6 -3.2
v -0.7 0.1 -3
v -0.6 0.1 -3
v -0.4 0.1 -3
v -0.4 0.1 -3.1
v -0.7 0.1 -3.2
v -0.7 0.1 -3.3
v -0.5 0.1 -3.3
v -0.4 0.1 -3.3
v -0.7 0.4 -2.9
v -0.4 0.4 -2.9
v -0.8 0.4 -3
v -0.7 0.4 -3
v -0.4 0.4 -3
v -0.3 0.4 -3
v -0.8 0.4 -3.1
v -0.7 0.4 -3.1
v -0.4 0.4 -3.1
v -0.3 0.4 -3.1
v -0.8 0.4 -3.2
v -0.7 0.4 -3.2
v -0.4 0.4 -3.2
v -0.3 0.4 -3.2
v -0.8 0.4 -3.3
v -0.7 0.4 -3.3
v -0.4 0.4 -3.3
v -0.3 0.4 -3.3
v -0.7 0.4 -3.4
v -0.4 0.4 -3.4
v -0.8 0.6 -3.1
v -0.7 0.6 -3.1
v -0.4 0.6 -3.1
v -0.3 0.6 -3.1
v -0.8 0.6 -3.2
v -0.7 0.6 -3.2
v -0.4 0.6 -3.2
v -0.3 0.6 -3.2
v -0.7 0.7 -3.1
v -0.4 0.7 -3.1
v -0.7 0.7 -3.2
v -0.4 0.7 -3.2

# faces
f 3/4/1 2/4/1 1/4/1
f 4/4/1 2/4/1 3/4/1
f 5/4/1 2/4/1 4/4/1
f 6/1/1 4/1/1 3/1/1
f 7/1/1 4/1/1 6/1/1
f 8/3/1 5/3/1 4/3/1
f 8/1/1 4/1/1 7/1/1
f 9/3/1 5/3/1 8/3/1
f 10/2/1 7/2/1 6/2/1
f 11/4/1 8/4/1 7/4/1
f 11/2/1 7/2/1 10/2/1
f 12/2/1 9/2/1 8/2/1
f 12/4/1 8/4/1 11/4/1
f 13/2/1 9/2/1 12/2/1
f 14/2/1 12/2/1 11/2/1
f 15/2/1 12/2/1 14/2/1
f 20/4/1 17/4/1 16/4/1
f 21/4/1 17/4/1 20/4/1
f 22/4/1 19/4/1 18/4/1
f 23/4/1 19/4/1 22/4/1
f 24/3/1 21/3/1 20/3/1
f 25/3/1 21/3/1 24/3/1
f 26/1/1 23/1/1 22/1/1
f 27/1/1 23/1/1 26/1/1
f 28/2/1 25/2/1 24/2/1
f 29/2/1 25/2/1 28/2/1
f 30/2/1 27/2/1 26/2/1
f 31/2/1 27/2/1 30/2/1
f 34/2/1 33/2/1 32/2/1
f 35/2/1 33/2/1 34/2/1
f 39/3/1 37/3/1 36/3/1
f 40/1/1 38/1/1 37/1/1
f 40/3/1 37/3/1 39/3/1
f 41/1/1 38/1/1 40/1/1
f 42/1/1 38/1/1 41/1/1
f 43/2/1 40/2/1 39/2/1
f 44/4/1 41/4/1 40/4/1
f 44/2/1 40/2/1 43/2/1
f 45/2/1 42/2/1 41/2/1
f 45/4/1 41/4/1 44/4/1
f 46/2/1 42/2/1 45/2/1
f 47/2/1 45/2/1 44/2/1
f 48/2/1 45/2/1 47/2/1
f 49/1/2 50/1/2 52/1/2
f 52/1/2 50/1/2 53/1/2
f 50/3/2 51/3/2 54/3/2
f 53/1/2 50/1/2 54/1/2
f 54/3/2 51/3/2 55/3/2
f 52/2/2 53/2/2 56/2/2
f 53/4/2 54/4/2 57/4/2
f 56/2/2 53/2/2 57/2/2
f 54/2/2 55/2/2 58/2/2
f 57/4/2 54/4/2 58/4/2
f 58/2/2 55/2/2 59/2/2
f 57/2/2 58/2/2 60/2/2
f 60/2/2 58/2/2 61/2/2
f 62/4/2 63/4/2 66/4/2
f 66/4/2 63/4/2 67/4/2
f 64/4/2 65/4/2 68/4/2
f 68/4/2 65/4/2 69/4/2
f 66/1/2 67/1/2 70/1/2
f 70/1/2 67/1/2 71/1/2
f 68/3/2 69/3/2 72/3/2
f 72/3/2 69/3/2 73/3/2
f 70/2/2 71/2/2 74/2/2
f 74/2/2 71/2/2 75/2/2
f 72/2/2 73/2/2 76/2/2
f 76/2/2 73/2/2 77/2/2
f 78/2/2 79/2/2 80/2/2
f 80/2/2 79/2/2 81/2/2
f 82/4/2 83/4/2 84/4/2
f 84/4/2 83/4/2 85/4/2
f 85/4/2 83/4/2 86/4/2
f 84/3/2 85/3/2 87/3/2
f 85/1/2 86/1/2 88/1/2
f 87/3/2 85/3/2 88/3/2
f 88/1/2 86/1/2 89/1/2
f 89/1/2 86/1/2 90/1/2
f 87/2/2 88/2/2 91/2/2
f 88/4/2 89/4/2 92/4/2
f 91/2/2 88/2/2 92/2/2
f 89/2/2 90/2/2 93/2/2
f 92/4/2 89/4/2 93/4/2
f 93/2/2 90/2/2 94/2/2
f 92/2/2 93/2/2 95/2/2
f 95/2/2 93/2/2 96/2/2
f 101/4/3 98/4/3 97/4/3
f 101/3/3 99/3/3 98/3/3
f 102/2/3 100/2/3 99/2/3
f 102/3/3 99/3/3 101/3/3
f 103/4/3 101/4/3 97/4/3
f 104/1/3 102/1/3 101/1/3
f 104/4/3 101/4/3 103/4/3
f 105/2/3 100/2/3 102/2/3
f 105/1/3 102/1/3 104/1/3
f 106/2/3 100/2/3 105/2/3
f 111/4/3 108/4/3 107/4/3
f 112/1/3 109/1/3 108/1/3
f 112/4/3 108/4/3 111/4/3
f 113/2/3 110/2/3 109/2/3
f 113/1/3 109/1/3 112/1/3
f 114/2/3 110/2/3 113/2/3
f 119/4/3 116/4/3 115/4/3
f 120/3/3 117/3/3 116/3/3
f 120/4/3 116/4/3 119/4/3
f 121/2/3 118/2/3 117/2/3
f 121/3/3 117/3/3 120/3/3
f 122/2/3 118/2/3 121/2/3
f 125/2/3 124/2/3 123/2/3
f 126/2/3 124/2/3 125/2/3
f 129/2/3 127/2/3 126/2/3
f 130/2/3 127/2/3 129/2/3
f 131/2/3 129/2/3 128/2/3
f 132/2/3 129/2/3 131/2/3
f 136/1/3 134/1/3 133/1/3
f 137/2/3 135/2/3 134/2/3
f 137/1/3 134/1/3 136/1/3
f 138/3/3 137/3/3 136/3/3
f 139/2/3 135/2/3 137/2/3
f 139/3/3 137/3/3 138/3/3
f 140/2/3 135/2/3 139/2/3
f 141/3/4 142/3/4 144/3/4
f 142/2/4 143/2/4 145/2/4
f 144/3/4 142/3/4 145/3/4
f 144/1/4 145/1/4 146/1/4
f 145/2/4 143/2/4 147/2/4
f 146/1/4 145/1/4 147/1/4
f 147/2/4 143/2/4 148/2/4
f 149/2/4 150/2/4 151/2/4
f 151/2/4 150/2/4 152/2/4
f 152/2/4 153/2/4 155/2/4
f 155/2/4 153/2/4 156/2/4
f 154/2/4 155/2/4 157/2/4
f 157/2/4 155/2/4 158/2/4
f 159/4/4 160/4/4 163/4/4
f 160/3/4 161/3/4 164/3/4
f 163/4/4 160/4/4 164/4/4
f 161/2/4 162/2/4 165/2/4
f 164/3/4 161/3/4 165/3/4
f 165/2/4 162/2/4 166/2/4
f 167/4/4 168/4/4 171/4/4
f 168/1/4 169/1/4 172/1/4
f 171/4/4 168/4/4 172/4/4
f 169/2/4 170/2/4 173/2/4
f 172/1/4 169/1/4 173/1/4
f 173/2/4 170/2/4 174/2/4
f 175/4/4 176/4/4 179/4/4
f 176/1/4 177/1/4 179/1/4
f 177/2/4 178/2/4 180/2/4
f 179/1/4 177/1/4 180/1/4
f 175/4/4 179/4/4 181/4/4
f 179/3/4 180/3/4 182/3/4
f 181/4/4 179/4/4 182/4/4
f 180/2/4 178/2/4 183/2/4
f 182/3/4 180/3/4 183/3/4
f 183/2/4 178/2/4 184/2/4
f 188/4/5 186/4/5 185/4/5
f 189/4/5 186/4/5 188/4/5
f 191/4/5 188/4/5 187/4/5
f 191/4/5 190/4/5 189/4/5
f 191/4/5 189/4/5 188/4/5
f 192/4/5 190/4/5 191/4/5
f 193/4/5 190/4/5 192/4/5
f 194/4/5 190/4/5 193/4/5
f 195/4/5 193/4/5 192/4/5
f 196/4/5 193/4/5 195/4/5
f 199/2/5 198/2/5 197/2/5
f 200/2/5 198/2/5 199/2/5
f 201/4/6 202/4/6 204/4/6
f 202/4/6 203/4/6 204/4/6
f 201/4/6 204/4/6 205/4/6
f 205/4/6 204/4/6 206/4/6
f 206/4/6 204/4/6 207/4/6
f 207/4/6 204/4/6 208/4/6
f 209/2/6 210/2/6 212/2/6
f 212/2/6 210/2/6 213/2/6
f 211/2/6 212/2/6 215/2/6
f 215/2/6 212/2/6 216/2/6
f 213/2/6 214/2/6 217/2/6
f 217/2/6 214/2/6 218/2/6
f 219/2/6 220/2/6 223/2/6
f 223/2/6 220/2/6 224/2/6
f 221/2/6 222/2/6 225/2/6
f 225/2/6 222/2/6 226/2/6
f 224/2/6 225/2/6 227/2/6
f 227/2/6 225/2/6 228/2/6
f 229/2/6 230/2/6 233/2/6
f 233/2/6 230/2/6 234/2/6
f 231/2/6 232/2/6 235/2/6
f 235/2/6 232/2/6 236/2/6
f 237/2/6 238/2/6 239/2/6
f 239/2/6 238/2/6 240/2/6
