# MagicaVoxel @ Ephtracy

# group
o watertrough_S

# material
mtllib farm-47-watertrough_S.mtl
usemtl palette

# normals
vn 0 1 0
vn 0 -1 0
vn -1 0 0
vn 1 0 0
vn 0 0 -1
vn 0 0 1

# texcoords
vt 0.345703 0.5
vt 0.349609 0.5
vt 0.736328 0.5

# verts
v -0.5 0.3 -0.9
v -0.4 0.3 -0.9
v -0.3 0.3 -0.9
v -0.1 0.3 -0.9
v 0 0.3 -0.9
v -0.4 0.3 -0.8
v -0.3 0.3 -0.8
v -0.1 0.3 -0.8
v -0.1 0.3 -0.7
v 0 0.3 -0.7
v -0.4 0.3 -0.6
v -0.2 0.3 -0.6
v -0.1 0.3 -0.6
v -0.5 0.3 -0.5
v -0.4 0.3 -0.5
v -0.2 0.3 -0.5
v 0 0.3 -0.5
v -0.4 0.2 -0.8
v -0.3 0.2 -0.8
v -0.1 0.2 -0.8
v -0.1 0.2 -0.7
v -0.4 0.2 -0.6
v -0.2 0.2 -0.6
v -0.1 0.2 -0.6
v -0.5 0 -0.9
v -0.2 0 -0.9
v -0.1 0 -0.9
v 0 0 -0.9
v -0.5 0 -0.8
v -0.3 0 -0.8
v -0.1 0 -0.8
v 0 0 -0.8
v -0.4 0 -0.7
v -0.3 0 -0.7
v -0.2 0 -0.7
v -0.1 0 -0.7
v -0.5 0 -0.6
v -0.4 0 -0.6
v -0.3 0 -0.6
v -0.1 0 -0.6
v -0.5 0 -0.5
v -0.3 0 -0.5
v 0 0 -0.5
v -0.5 0.3 -0.9
v -0.5 0.3 -0.5
v -0.5 0.2 -0.8
v -0.5 0.2 -0.5
v -0.5 0.1 -0.9
v -0.5 0.1 -0.8
v -0.5 0.1 -0.6
v -0.5 0 -0.9
v -0.5 0 -0.8
v -0.5 0 -0.6
v -0.5 0 -0.5
v -0.1 0.3 -0.8
v -0.1 0.3 -0.7
v -0.1 0.3 -0.6
v -0.1 0.2 -0.8
v -0.1 0.2 -0.7
v -0.1 0.2 -0.6
v -0.4 0.3 -0.8
v -0.4 0.3 -0.6
v -0.4 0.2 -0.8
v -0.4 0.2 -0.6
v 0 0.3 -0.9
v 0 0.3 -0.7
v 0 0.3 -0.5
v 0 0.2 -0.9
v 0 0.2 -0.7
v 0 0.2 -0.6
v 0 0.1 -0.9
v 0 0.1 -0.8
v 0 0.1 -0.7
v 0 0.1 -0.6
v 0 0 -0.9
v 0 0 -0.8
v 0 0 -0.5
v -0.5 0.3 -0.9
v -0.5 0.1 -0.9
v -0.5 0 -0.9
v -0.4 0.3 -0.9
v -0.4 0.1 -0.9
v -0.3 0.3 -0.9
v -0.3 0.2 -0.9
v -0.2 0.1 -0.9
v -0.2 0 -0.9
v -0.1 0.3 -0.9
v -0.1 0.2 -0.9
v -0.1 0.1 -0.9
v -0.1 0 -0.9
v 0 0.3 -0.9
v 0 0.2 -0.9
v 0 0.1 -0.9
v 0 0 -0.9
v -0.4 0.3 -0.6
v -0.4 0.2 -0.6
v -0.2 0.3 -0.6
v -0.2 0.2 -0.6
v -0.1 0.3 -0.6
v -0.1 0.2 -0.6
v -0.4 0.3 -0.8
v -0.4 0.2 -0.8
v -0.3 0.3 -0.8
v -0.3 0.2 -0.8
v -0.1 0.3 -0.8
v -0.1 0.2 -0.8
v -0.5 0.3 -0.5
v -0.5 0.2 -0.5
v -0.5 0 -0.5
v -0.4 0.3 -0.5
v -0.4 0.2 -0.5
v -0.3 0.2 -0.5
v -0.3 0 -0.5
v -0.2 0.3 -0.5
v -0.2 0.2 -0.5
v 0 0.3 -0.5
v 0 0 -0.5

# faces
f 6/2/1 2/2/1 1/2/1
f 6/1/1 3/1/1 2/1/1
f 7/2/1 4/2/1 3/2/1
f 7/1/1 3/1/1 6/1/1
f 8/1/1 5/1/1 4/1/1
f 8/2/1 4/2/1 7/2/1
f 9/1/1 5/1/1 8/1/1
f 10/1/1 5/1/1 9/1/1
f 11/2/1 6/2/1 1/2/1
f 13/2/1 10/2/1 9/2/1
f 14/2/1 11/2/1 1/2/1
f 15/1/1 12/1/1 11/1/1
f 15/2/1 11/2/1 14/2/1
f 16/2/1 13/2/1 12/2/1
f 16/1/1 12/1/1 15/1/1
f 17/2/1 10/2/1 13/2/1
f 17/2/1 13/2/1 16/2/1
f 21/3/1 19/3/1 18/3/1
f 21/3/1 20/3/1 19/3/1
f 22/3/1 21/3/1 18/3/1
f 23/3/1 21/3/1 22/3/1
f 24/3/1 21/3/1 23/3/1
f 25/1/2 26/1/2 29/1/2
f 29/1/2 26/1/2 30/1/2
f 27/1/2 28/1/2 31/1/2
f 26/2/2 27/2/2 31/2/2
f 31/1/2 28/1/2 32/1/2
f 29/2/2 30/2/2 33/2/2
f 30/1/2 26/1/2 34/1/2
f 33/2/2 30/2/2 34/2/2
f 26/2/2 31/2/2 35/2/2
f 34/1/2 26/1/2 35/1/2
f 31/2/2 32/2/2 35/2/2
f 35/2/2 32/2/2 36/2/2
f 29/2/2 33/2/2 37/2/2
f 33/1/2 34/1/2 38/1/2
f 37/2/2 33/2/2 38/2/2
f 34/1/2 35/1/2 38/1/2
f 35/1/2 36/1/2 38/1/2
f 38/1/2 36/1/2 39/1/2
f 36/2/2 32/2/2 40/2/2
f 39/1/2 36/1/2 40/1/2
f 38/1/2 39/1/2 41/1/2
f 37/1/2 38/1/2 41/1/2
f 39/2/2 40/2/2 42/2/2
f 41/1/2 39/1/2 42/1/2
f 40/2/2 32/2/2 43/2/2
f 42/2/2 40/2/2 43/2/2
f 46/2/3 45/2/3 44/2/3
f 47/2/3 45/2/3 46/2/3
f 48/2/3 46/2/3 44/2/3
f 49/1/3 47/1/3 46/1/3
f 49/2/3 46/2/3 48/2/3
f 50/1/3 47/1/3 49/1/3
f 51/1/3 49/1/3 48/1/3
f 52/2/3 50/2/3 49/2/3
f 52/1/3 49/1/3 51/1/3
f 53/1/3 47/1/3 50/1/3
f 53/2/3 50/2/3 52/2/3
f 54/1/3 47/1/3 53/1/3
f 58/1/3 56/1/3 55/1/3
f 59/2/3 57/2/3 56/2/3
f 59/1/3 56/1/3 58/1/3
f 60/2/3 57/2/3 59/2/3
f 61/2/4 62/2/4 63/2/4
f 63/2/4 62/2/4 64/2/4
f 65/1/4 66/1/4 68/1/4
f 66/2/4 67/2/4 69/2/4
f 68/1/4 66/1/4 69/1/4
f 69/2/4 67/2/4 70/2/4
f 68/2/4 69/2/4 71/2/4
f 71/2/4 69/2/4 72/2/4
f 69/1/4 70/1/4 73/1/4
f 72/2/4 69/2/4 73/2/4
f 70/2/4 67/2/4 74/2/4
f 73/1/4 70/1/4 74/1/4
f 71/1/4 72/1/4 75/1/4
f 72/2/4 73/2/4 76/2/4
f 75/1/4 72/1/4 76/1/4
f 73/2/4 74/2/4 76/2/4
f 74/2/4 67/2/4 77/2/4
f 76/2/4 74/2/4 77/2/4
f 81/2/5 79/2/5 78/2/5
f 82/1/5 80/1/5 79/1/5
f 82/2/5 79/2/5 81/2/5
f 83/1/5 82/1/5 81/1/5
f 84/1/5 82/1/5 83/1/5
f 85/1/5 80/1/5 82/1/5
f 85/1/5 82/1/5 84/1/5
f 86/1/5 80/1/5 85/1/5
f 87/2/5 84/2/5 83/2/5
f 88/1/5 85/1/5 84/1/5
f 88/2/5 84/2/5 87/2/5
f 89/2/5 86/2/5 85/2/5
f 89/1/5 85/1/5 88/1/5
f 90/2/5 86/2/5 89/2/5
f 91/1/5 88/1/5 87/1/5
f 92/2/5 89/2/5 88/2/5
f 92/1/5 88/1/5 91/1/5
f 93/1/5 90/1/5 89/1/5
f 93/2/5 89/2/5 92/2/5
f 94/1/5 90/1/5 93/1/5
f 97/1/5 96/1/5 95/1/5
f 98/1/5 96/1/5 97/1/5
f 99/2/5 98/2/5 97/2/5
f 100/2/5 98/2/5 99/2/5
f 101/1/6 102/1/6 103/1/6
f 103/1/6 102/1/6 104/1/6
f 103/2/6 104/2/6 105/2/6
f 105/2/6 104/2/6 106/2/6
f 107/2/6 108/2/6 110/2/6
f 108/1/6 109/1/6 111/1/6
f 110/2/6 108/2/6 111/2/6
f 110/1/6 111/1/6 112/1/6
f 111/1/6 109/1/6 112/1/6
f 112/1/6 109/1/6 113/1/6
f 110/1/6 112/1/6 114/1/6
f 112/2/6 113/2/6 115/2/6
f 114/1/6 112/1/6 115/1/6
f 114/2/6 115/2/6 116/2/6
f 115/2/6 113/2/6 117/2/6
f 116/2/6 115/2/6 117/2/6
