# MagicaVoxel @ Ephtracy

# group
o hoe

# material
mtllib farm-15-hoe.mtl
usemtl palette

# normals
vn -1 0 0
vn 1 0 0
vn 0 0 1
vn 0 0 -1
vn 0 -1 0
vn 0 1 0

# texcoords
vt 0.955078 0.5
vt 0.982422 0.5

# verts
v -4.6 0 -3
v -4.6 0 -3.1
v -4.6 1.1 -3
v -4.6 1.1 -3.1
v -4.2 0.8 -3
v -4.2 0.8 -3.1
v -4.2 0.9 -3
v -4.2 0.9 -3.1
v -4.5 0 -3
v -4.5 0 -3.1
v -4.5 0.9 -3
v -4.5 0.9 -3.1
v -4.5 1 -3
v -4.5 1 -3.1
v -4.5 1.1 -3
v -4.5 1.1 -3.1
v -4.2 0.9 -3
v -4.2 0.9 -3.1
v -4.2 1 -3
v -4.2 1 -3.1
v -4.1 0.8 -3
v -4.1 0.8 -3.1
v -4.1 0.9 -3
v -4.1 0.9 -3.1
v -4.6 0 -3
v -4.6 1.1 -3
v -4.5 0 -3
v -4.5 0.9 -3
v -4.5 1 -3
v -4.5 1.1 -3
v -4.2 0.8 -3
v -4.2 0.9 -3
v -4.2 1 -3
v -4.1 0.8 -3
v -4.1 0.9 -3
v -4.6 0 -3.1
v -4.6 1.1 -3.1
v -4.5 0 -3.1
v -4.5 0.9 -3.1
v -4.5 1 -3.1
v -4.5 1.1 -3.1
v -4.2 0.8 -3.1
v -4.2 0.9 -3.1
v -4.2 1 -3.1
v -4.1 0.8 -3.1
v -4.1 0.9 -3.1
v -4.6 0 -3
v -4.5 0 -3
v -4.6 0 -3.1
v -4.5 0 -3.1
v -4.2 0.8 -3
v -4.1 0.8 -3
v -4.2 0.8 -3.1
v -4.1 0.8 -3.1
v -4.5 0.9 -3
v -4.2 0.9 -3
v -4.5 0.9 -3.1
v -4.2 0.9 -3.1
v -4.2 0.9 -3
v -4.1 0.9 -3
v -4.2 0.9 -3.1
v -4.1 0.9 -3.1
v -4.5 1 -3
v -4.2 1 -3
v -4.5 1 -3.1
v -4.2 1 -3.1
v -4.6 1.1 -3
v -4.5 1.1 -3
v -4.6 1.1 -3.1
v -4.5 1.1 -3.1

# faces
f 3/1/1 2/1/1 1/1/1
f 4/1/1 2/1/1 3/1/1
f 7/2/1 6/2/1 5/2/1
f 8/2/1 6/2/1 7/2/1
f 9/1/2 10/1/2 11/1/2
f 11/1/2 10/1/2 12/1/2
f 13/1/2 14/1/2 15/1/2
f 15/1/2 14/1/2 16/1/2
f 17/2/2 18/2/2 19/2/2
f 19/2/2 18/2/2 20/2/2
f 21/2/2 22/2/2 23/2/2
f 23/2/2 22/2/2 24/2/2
f 27/1/3 26/1/3 25/1/3
f 28/1/3 26/1/3 27/1/3
f 29/1/3 26/1/3 28/1/3
f 30/1/3 26/1/3 29/1/3
f 32/2/3 29/2/3 28/2/3
f 33/2/3 29/2/3 32/2/3
f 34/2/3 32/2/3 31/2/3
f 35/2/3 32/2/3 34/2/3
f 36/1/4 37/1/4 38/1/4
f 38/1/4 37/1/4 39/1/4
f 39/1/4 37/1/4 40/1/4
f 40/1/4 37/1/4 41/1/4
f 39/2/4 40/2/4 43/2/4
f 43/2/4 40/2/4 44/2/4
f 42/2/4 43/2/4 45/2/4
f 45/2/4 43/2/4 46/2/4
f 49/1/5 48/1/5 47/1/5
f 50/1/5 48/1/5 49/1/5
f 53/2/5 52/2/5 51/2/5
f 54/2/5 52/2/5 53/2/5
f 57/2/5 56/2/5 55/2/5
f 58/2/5 56/2/5 57/2/5
f 59/2/6 60/2/6 61/2/6
f 61/2/6 60/2/6 62/2/6
f 63/2/6 64/2/6 65/2/6
f 65/2/6 64/2/6 66/2/6
f 67/1/6 68/1/6 69/1/6
f 69/1/6 68/1/6 70/1/6
