# MagicaVoxel @ Ephtracy

# group
o shovel

# material
mtllib farm-17-shovel.mtl
usemtl palette

# normals
vn -1 0 0
vn 1 0 0
vn 0 0 1
vn 0 0 -1
vn 0 -1 0
vn 0 1 0

# texcoords
vt 0.955078 0.5
vt 0.982422 0.5

# verts
v -5.4 0 -3
v -5.4 0 -3.1
v -5.4 0.3 -3
v -5.4 0.3 -3.1
v -5.4 1 -3
v -5.4 1 -3.1
v -5.4 1.1 -3
v -5.4 1.1 -3.1
v -5.3 0.3 -3
v -5.3 0.3 -3.1
v -5.3 0.4 -3
v -5.3 0.4 -3.1
v -5.3 1 -3
v -5.3 1 -3.1
v -5.2 0.3 -3
v -5.2 0.3 -3.1
v -5.2 0.4 -3
v -5.2 0.4 -3.1
v -5.2 1 -3
v -5.2 1 -3.1
v -5.1 0 -3
v -5.1 0 -3.1
v -5.1 0.3 -3
v -5.1 0.3 -3.1
v -5.1 1 -3
v -5.1 1 -3.1
v -5.1 1.1 -3
v -5.1 1.1 -3.1
v -5.4 0 -3
v -5.4 0.3 -3
v -5.4 1 -3
v -5.4 1.1 -3
v -5.3 0.3 -3
v -5.3 0.4 -3
v -5.3 1 -3
v -5.2 0.3 -3
v -5.2 0.4 -3
v -5.2 1 -3
v -5.1 0 -3
v -5.1 0.3 -3
v -5.1 1 -3
v -5.1 1.1 -3
v -5.4 0 -3.1
v -5.4 0.3 -3.1
v -5.4 1 -3.1
v -5.4 1.1 -3.1
v -5.3 0.3 -3.1
v -5.3 0.4 -3.1
v -5.3 1 -3.1
v -5.2 0.3 -3.1
v -5.2 0.4 -3.1
v -5.2 1 -3.1
v -5.1 0 -3.1
v -5.1 0.3 -3.1
v -5.1 1 -3.1
v -5.1 1.1 -3.1
v -5.4 0 -3
v -5.1 0 -3
v -5.4 0 -3.1
v -5.1 0 -3.1
v -5.4 1 -3
v -5.3 1 -3
v -5.2 1 -3
v -5.1 1 -3
v -5.4 1 -3.1
v -5.3 1 -3.1
v -5.2 1 -3.1
v -5.1 1 -3.1
v -5.4 0.3 -3
v -5.3 0.3 -3
v -5.2 0.3 -3
v -5.1 0.3 -3
v -5.4 0.3 -3.1
v -5.3 0.3 -3.1
v -5.2 0.3 -3.1
v -5.1 0.3 -3.1
v -5.4 1.1 -3
v -5.1 1.1 -3
v -5.4 1.1 -3.1
v -5.1 1.1 -3.1

# faces
f 3/2/1 2/2/1 1/2/1
f 4/2/1 2/2/1 3/2/1
f 7/1/1 6/1/1 5/1/1
f 8/1/1 6/1/1 7/1/1
f 11/2/1 10/2/1 9/2/1
f 12/2/1 10/2/1 11/2/1
f 13/1/1 12/1/1 11/1/1
f 14/1/1 12/1/1 13/1/1
f 15/2/2 16/2/2 17/2/2
f 17/2/2 16/2/2 18/2/2
f 17/1/2 18/1/2 19/1/2
f 19/1/2 18/1/2 20/1/2
f 21/2/2 22/2/2 23/2/2
f 23/2/2 22/2/2 24/2/2
f 25/1/2 26/1/2 27/1/2
f 27/1/2 26/1/2 28/1/2
f 33/2/3 30/2/3 29/2/3
f 35/1/3 32/1/3 31/1/3
f 36/2/3 34/2/3 33/2/3
f 36/2/3 33/2/3 29/2/3
f 37/1/3 35/1/3 34/1/3
f 37/2/3 34/2/3 36/2/3
f 38/1/3 32/1/3 35/1/3
f 38/1/3 35/1/3 37/1/3
f 39/2/3 36/2/3 29/2/3
f 40/2/3 36/2/3 39/2/3
f 41/1/3 32/1/3 38/1/3
f 42/1/3 32/1/3 41/1/3
f 43/2/4 44/2/4 47/2/4
f 45/1/4 46/1/4 49/1/4
f 47/2/4 48/2/4 50/2/4
f 43/2/4 47/2/4 50/2/4
f 48/1/4 49/1/4 51/1/4
f 50/2/4 48/2/4 51/2/4
f 49/1/4 46/1/4 52/1/4
f 51/1/4 49/1/4 52/1/4
f 43/2/4 50/2/4 53/2/4
f 53/2/4 50/2/4 54/2/4
f 52/1/4 46/1/4 55/1/4
f 55/1/4 46/1/4 56/1/4
f 59/2/5 58/2/5 57/2/5
f 60/2/5 58/2/5 59/2/5
f 65/1/5 62/1/5 61/1/5
f 66/1/5 62/1/5 65/1/5
f 67/1/5 64/1/5 63/1/5
f 68/1/5 64/1/5 67/1/5
f 69/2/6 70/2/6 73/2/6
f 73/2/6 70/2/6 74/2/6
f 71/2/6 72/2/6 75/2/6
f 75/2/6 72/2/6 76/2/6
f 77/1/6 78/1/6 79/1/6
f 79/1/6 78/1/6 80/1/6
