# MagicaVoxel @ Ephtracy

# group
o seed_carrot

# material
mtllib farm-52-seed_carrot.mtl
usemtl palette

# normals
vn -1 0 0
vn 1 0 0
vn 0 0 1
vn 0 0 -1
vn 0 -1 0
vn 0 1 0

# texcoords
vt 0.173828 0.5
vt 0.177734 0.5
vt 0.412109 0.5
vt 0.435547 0.5
vt 0.443359 0.5
vt 0.466797 0.5
vt 0.626953 0.5
vt 0.994141 0.5

# verts
v -8.3 0.1 2.8
v -8.3 0.1 2.6
v -8.3 0.1 2.5
v -8.3 0.1 2.4
v -8.3 0.1 2.3
v -8.3 0.1 2.2
v -8.3 0.1 2
v -8.3 0.1 1.8
v -8.3 0.2 2.7
v -8.3 0.2 2.6
v -8.3 0.2 2.5
v -8.3 0.2 2.4
v -8.3 0.2 2.3
v -8.3 0.2 2.2
v -8.3 0.2 2.1
v -8.3 0.2 2
v -8.3 0.2 1.9
v -8.3 0.3 2.8
v -8.3 0.3 2.7
v -8.3 0.3 2.6
v -8.3 0.3 2.5
v -8.3 0.3 2.4
v -8.3 0.3 2.2
v -8.3 0.3 2.1
v -8.3 0.3 2
v -8.3 0.3 1.9
v -8.3 0.3 1.8
v -8.3 0.4 2.8
v -8.3 0.4 2.5
v -8.3 0.4 2.4
v -8.3 0.4 2.2
v -8.3 0.4 2
v -8.3 0.4 1.8
v -8.3 0.5 2.8
v -8.3 0.5 1.8
v -8.3 0.6 2.7
v -8.3 0.6 2.6
v -8.3 0.6 2.4
v -8.3 0.6 2.1
v -8.3 0.7 2.7
v -8.3 0.7 2.6
v -8.3 0.7 2.4
v -8.3 0.7 2.3
v -8.3 0.7 2.2
v -8.3 0.7 2.1
v -8.3 0.7 2
v -8.3 0.7 1.9
v -8.3 0.8 2.7
v -8.3 0.8 2.6
v -8.3 0.8 2.4
v -8.3 0.8 2.1
v -8.3 0.8 2
v -8.3 0.8 1.9
v -8.3 0.9 2.7
v -8.3 0.9 2.6
v -8.3 0.9 2.4
v -8.3 0.9 2.3
v -8.3 0.9 2.2
v -8.3 0.9 2
v -8.3 1 2.8
v -8.3 1 1.8
v -8.3 1.1 2.8
v -8.3 1.1 2.7
v -8.3 1.1 2.4
v -8.3 1.1 2.2
v -8.3 1.1 2.1
v -8.3 1.1 1.9
v -8.3 1.1 1.8
v -8.3 1.2 2.8
v -8.3 1.2 2.7
v -8.3 1.2 2.6
v -8.3 1.2 2.4
v -8.3 1.2 2.3
v -8.3 1.2 2.1
v -8.3 1.2 1.9
v -8.3 1.2 1.8
v -8.3 1.3 2.8
v -8.3 1.3 2.7
v -8.3 1.3 2.4
v -8.3 1.3 2.3
v -8.3 1.3 2.1
v -8.3 1.3 2
v -8.3 1.3 1.9
v -8.3 1.3 1.8
v -8.3 1.4 2.7
v -8.3 1.4 2.6
v -8.3 1.4 2.5
v -8.3 1.4 2.2
v -8.3 1.4 2.1
v -8.3 1.4 2
v -8.3 1.4 1.9
v -8.3 1.5 2.8
v -8.3 1.5 2.5
v -8.3 1.5 2.2
v -8.3 1.5 2.1
v -8.3 1.5 2
v -8.2 0 2.8
v -8.2 0 1.8
v -8.2 0.1 2.9
v -8.2 0.1 2.8
v -8.2 0.1 2.6
v -8.2 0.1 2.5
v -8.2 0.1 2.4
v -8.2 0.1 2.3
v -8.2 0.1 2.2
v -8.2 0.1 2
v -8.2 0.1 1.8
v -8.2 0.1 1.7
v -8.2 0.3 2.8
v -8.2 0.3 1.8
v -8.2 0.4 2.8
v -8.2 0.4 1.8
v -8.2 0.5 2.8
v -8.2 0.5 1.8
v -8.2 1 2.8
v -8.2 1 1.8
v -8.2 1.1 2.8
v -8.2 1.1 1.8
v -8.2 1.2 2.8
v -8.2 1.2 1.8
v -8.2 1.3 2.8
v -8.2 1.3 1.8
v -8.2 1.3 1.7
v -8.2 1.5 2.9
v -8.2 1.5 2.8
v -8.2 1.5 2.5
v -8.2 1.5 2.2
v -8.2 1.5 2.1
v -8.2 1.6 2.8
v -8.2 1.6 2.1
v -8.1 1.1 1.9
v -8.1 1.1 1.8
v -8.1 1.2 1.9
v -8.1 1.2 1.8
v -8.1 1.3 2
v -8.1 1.3 1.9
v -8.1 1.4 2.1
v -8.1 1.4 2
v -8.1 1.4 1.9
v -8.1 1.5 2.1
v -8.1 1.5 2
v -8.2 1.1 1.9
v -8.2 1.1 1.8
v -8.2 1.2 1.9
v -8.2 1.2 1.8
v -8.2 1.3 2
v -8.2 1.3 1.9
v -8.2 1.4 2.1
v -8.2 1.4 2
v -8.2 1.4 1.9
v -8.2 1.5 2.1
v -8.2 1.5 2
v -8.1 0 2.8
v -8.1 0 1.8
v -8.1 0.1 2.9
v -8.1 0.1 2.8
v -8.1 0.1 2.5
v -8.1 0.1 2.3
v -8.1 0.1 2.1
v -8.1 0.1 2
v -8.1 0.1 1.8
v -8.1 0.1 1.7
v -8.1 0.2 2.8
v -8.1 0.3 2.8
v -8.1 0.5 2.8
v -8.1 0.6 2.8
v -8.1 0.6 1.8
v -8.1 0.8 2.8
v -8.1 0.8 1.8
v -8.1 0.9 2.8
v -8.1 0.9 1.8
v -8.1 1 1.8
v -8.1 1.1 2.8
v -8.1 1.1 1.8
v -8.1 1.3 1.8
v -8.1 1.3 1.7
v -8.1 1.4 2.8
v -8.1 1.5 2.9
v -8.1 1.5 2.8
v -8.1 1.5 2.7
v -8.1 1.5 2.5
v -8.1 1.5 2.3
v -8.1 1.5 2.2
v -8.1 1.5 2.1
v -8.1 1.6 2.8
v -8.1 1.6 2.1
v -8 0.1 2.8
v -8 0.1 2.5
v -8 0.1 2.3
v -8 0.1 2.1
v -8 0.1 2
v -8 0.1 1.8
v -8 0.2 2.8
v -8 0.2 2.7
v -8 0.2 2.5
v -8 0.2 2.4
v -8 0.2 2.3
v -8 0.2 2.1
v -8 0.2 2
v -8 0.2 1.9
v -8 0.3 2.8
v -8 0.3 2.7
v -8 0.3 2.6
v -8 0.3 2.4
v -8 0.3 2.2
v -8 0.3 2
v -8 0.3 1.9
v -8 0.4 2.7
v -8 0.4 2.6
v -8 0.4 2.4
v -8 0.4 2.3
v -8 0.4 2.2
v -8 0.4 2.1
v -8 0.5 2.8
v -8 0.5 2.7
v -8 0.5 2.5
v -8 0.5 2.4
v -8 0.5 2.3
v -8 0.6 2.8
v -8 0.6 2.6
v -8 0.6 2.5
v -8 0.6 2.4
v -8 0.6 2.2
v -8 0.6 2.1
v -8 0.6 2
v -8 0.6 1.9
v -8 0.6 1.8
v -8 0.7 2.7
v -8 0.7 2.4
v -8 0.7 2.2
v -8 0.8 2.8
v -8 0.8 2.7
v -8 0.8 2.6
v -8 0.8 2.4
v -8 0.8 2.2
v -8 0.8 2.1
v -8 0.8 2
v -8 0.8 1.9
v -8 0.8 1.8
v -8 0.9 2.8
v -8 0.9 2.7
v -8 0.9 2.6
v -8 0.9 2.5
v -8 0.9 2.4
v -8 0.9 2.2
v -8 0.9 1.9
v -8 0.9 1.8
v -8 1 2.7
v -8 1 2.6
v -8 1 2.5
v -8 1 2.4
v -8 1 2.1
v -8 1 2
v -8 1 1.9
v -8 1 1.8
v -8 1.1 2.8
v -8 1.1 2.7
v -8 1.1 2.6
v -8 1.1 2.4
v -8 1.1 2.3
v -8 1.1 2.2
v -8 1.1 2.1
v -8 1.1 2
v -8 1.1 1.9
v -8 1.1 1.8
v -8 1.2 2.5
v -8 1.2 2.4
v -8 1.2 2.1
v -8 1.2 2
v -8 1.2 1.9
v -8 1.3 2.6
v -8 1.3 2.5
v -8 1.3 2.3
v -8 1.3 2.2
v -8 1.3 2
v -8 1.3 1.9
v -8 1.3 1.8
v -8 1.4 2.8
v -8 1.4 2.7
v -8 1.4 2.5
v -8 1.4 2.3
v -8 1.4 2.2
v -8 1.4 2
v -8 1.4 1.9
v -8 1.5 2.8
v -8 1.5 2.7
v -8 1.5 2.5
v -8 1.5 2.3
v -8 1.5 2.2
v -8 1.5 2
v -8.2 0.1 2.9
v -8.2 1.5 2.9
v -8.1 0.1 2.9
v -8.1 1.5 2.9
v -8.3 0.1 2.8
v -8.3 0.3 2.8
v -8.3 0.4 2.8
v -8.3 0.5 2.8
v -8.3 1 2.8
v -8.3 1.1 2.8
v -8.3 1.2 2.8
v -8.3 1.3 2.8
v -8.3 1.5 2.8
v -8.2 0 2.8
v -8.2 0.1 2.8
v -8.2 0.3 2.8
v -8.2 0.4 2.8
v -8.2 0.5 2.8
v -8.2 1 2.8
v -8.2 1.1 2.8
v -8.2 1.2 2.8
v -8.2 1.3 2.8
v -8.2 1.5 2.8
v -8.2 1.6 2.8
v -8.1 0 2.8
v -8.1 0.1 2.8
v -8.1 0.2 2.8
v -8.1 0.3 2.8
v -8.1 0.5 2.8
v -8.1 0.6 2.8
v -8.1 0.8 2.8
v -8.1 0.9 2.8
v -8.1 1.1 2.8
v -8.1 1.4 2.8
v -8.1 1.5 2.8
v -8.1 1.6 2.8
v -8 0.1 2.8
v -8 0.2 2.8
v -8 0.3 2.8
v -8 0.5 2.8
v -8 0.6 2.8
v -8 0.8 2.8
v -8 0.9 2.8
v -8 1.1 2.8
v -8 1.4 2.8
v -8 1.5 2.8
v -8.2 1.1 1.8
v -8.2 1.2 1.8
v -8.1 1.1 1.8
v -8.1 1.2 1.8
v -8.2 1.4 2.1
v -8.2 1.5 2.1
v -8.2 1.6 2.1
v -8.1 1.4 2.1
v -8.1 1.5 2.1
v -8.1 1.6 2.1
v -8.3 1.4 2
v -8.3 1.5 2
v -8.2 1.3 2
v -8.2 1.4 2
v -8.2 1.5 2
v -8.1 1.3 2
v -8.1 1.4 2
v -8.1 1.5 2
v -8 1.4 2
v -8 1.5 2
v -8.3 1.3 1.9
v -8.3 1.4 1.9
v -8.2 1.1 1.9
v -8.2 1.2 1.9
v -8.2 1.3 1.9
v -8.2 1.4 1.9
v -8.1 1.1 1.9
v -8.1 1.2 1.9
v -8.1 1.3 1.9
v -8.1 1.4 1.9
v -8 1.3 1.9
v -8 1.4 1.9
v -8.3 0.1 1.8
v -8.3 0.3 1.8
v -8.3 0.4 1.8
v -8.3 0.5 1.8
v -8.3 1 1.8
v -8.3 1.1 1.8
v -8.3 1.2 1.8
v -8.3 1.3 1.8
v -8.2 0 1.8
v -8.2 0.1 1.8
v -8.2 0.3 1.8
v -8.2 0.4 1.8
v -8.2 0.5 1.8
v -8.2 1 1.8
v -8.2 1.1 1.8
v -8.2 1.2 1.8
v -8.2 1.3 1.8
v -8.1 0 1.8
v -8.1 0.1 1.8
v -8.1 0.6 1.8
v -8.1 0.8 1.8
v -8.1 0.9 1.8
v -8.1 1 1.8
v -8.1 1.1 1.8
v -8.1 1.3 1.8
v -8 0.1 1.8
v -8 0.6 1.8
v -8 0.8 1.8
v -8 0.9 1.8
v -8 1 1.8
v -8 1.1 1.8
v -8 1.3 1.8
v -8.2 0.1 1.7
v -8.2 1.3 1.7
v -8.1 0.1 1.7
v -8.1 1.3 1.7
v -8.2 0 2.8
v -8.1 0 2.8
v -8.2 0 1.8
v -8.1 0 1.8
v -8.2 0.1 2.9
v -8.1 0.1 2.9
v -8.3 0.1 2.8
v -8.2 0.1 2.8
v -8.1 0.1 2.8
v -8 0.1 2.8
v -8.3 0.1 2.6
v -8.2 0.1 2.6
v -8.3 0.1 2.5
v -8.2 0.1 2.5
v -8.1 0.1 2.5
v -8 0.1 2.5
v -8.3 0.1 2.4
v -8.2 0.1 2.4
v -8.3 0.1 2.3
v -8.2 0.1 2.3
v -8.1 0.1 2.3
v -8 0.1 2.3
v -8.3 0.1 2.2
v -8.2 0.1 2.2
v -8.1 0.1 2.1
v -8 0.1 2.1
v -8.3 0.1 2
v -8.2 0.1 2
v -8.1 0.1 2
v -8 0.1 2
v -8.3 0.1 1.8
v -8.2 0.1 1.8
v -8.1 0.1 1.8
v -8 0.1 1.8
v -8.2 0.1 1.7
v -8.1 0.1 1.7
v -8.2 1.2 1.9
v -8.1 1.2 1.9
v -8.2 1.2 1.8
v -8.1 1.2 1.8
v -8.2 1.1 1.9
v -8.1 1.1 1.9
v -8.2 1.1 1.8
v -8.1 1.1 1.8
v -8.2 1.3 2
v -8.1 1.3 2
v -8.3 1.3 1.9
v -8.2 1.3 1.9
v -8.1 1.3 1.9
v -8 1.3 1.9
v -8.3 1.3 1.8
v -8.2 1.3 1.8
v -8.1 1.3 1.8
v -8 1.3 1.8
v -8.2 1.3 1.7
v -8.1 1.3 1.7
v -8.2 1.4 2.1
v -8.1 1.4 2.1
v -8.3 1.4 2
v -8.2 1.4 2
v -8.1 1.4 2
v -8 1.4 2
v -8.3 1.4 1.9
v -8.2 1.4 1.9
v -8.1 1.4 1.9
v -8 1.4 1.9
v -8.2 1.5 2.9
v -8.1 1.5 2.9
v -8.3 1.5 2.8
v -8.2 1.5 2.8
v -8.1 1.5 2.8
v -8 1.5 2.8
v -8.1 1.5 2.7
v -8 1.5 2.7
v -8.3 1.5 2.5
v -8.2 1.5 2.5
v -8.1 1.5 2.5
v -8 1.5 2.5
v -8.1 1.5 2.3
v -8 1.5 2.3
v -8.3 1.5 2.2
v -8.2 1.5 2.2
v -8.1 1.5 2.2
v -8 1.5 2.2
v -8.3 1.5 2.1
v -8.2 1.5 2.1
v -8.1 1.5 2.1
v -8.3 1.5 2
v -8.2 1.5 2
v -8.1 1.5 2
v -8 1.5 2
v -8.2 1.6 2.8
v -8.1 1.6 2.8
v -8.2 1.6 2.1
v -8.1 1.6 2.1

# faces
f 9/4/1 2/4/1 1/4/1
f 10/6/1 3/6/1 2/6/1
f 10/4/1 2/4/1 9/4/1
f 11/4/1 4/4/1 3/4/1
f 11/6/1 3/6/1 10/6/1
f 12/6/1 5/6/1 4/6/1
f 12/4/1 4/4/1 11/4/1
f 13/4/1 6/4/1 5/4/1
f 13/6/1 5/6/1 12/6/1
f 14/6/1 7/6/1 6/6/1
f 14/4/1 6/4/1 13/4/1
f 15/6/1 7/6/1 14/6/1
f 16/4/1 8/4/1 7/4/1
f 16/6/1 7/6/1 15/6/1
f 17/4/1 8/4/1 16/4/1
f 18/4/1 9/4/1 1/4/1
f 19/6/1 10/6/1 9/6/1
f 19/4/1 9/4/1 18/4/1
f 20/4/1 15/4/1 14/4/1
f 20/6/1 10/6/1 19/6/1
f 20/4/1 11/4/1 10/4/1
f 20/4/1 12/4/1 11/4/1
f 20/4/1 13/4/1 12/4/1
f 20/4/1 14/4/1 13/4/1
f 21/4/1 15/4/1 20/4/1
f 22/4/1 15/4/1 21/4/1
f 23/4/1 15/4/1 22/4/1
f 24/6/1 17/6/1 16/6/1
f 24/4/1 15/4/1 23/4/1
f 24/6/1 16/6/1 15/6/1
f 25/6/1 17/6/1 24/6/1
f 26/4/1 8/4/1 17/4/1
f 26/6/1 17/6/1 25/6/1
f 27/4/1 8/4/1 26/4/1
f 28/6/1 19/6/1 18/6/1
f 28/6/1 20/6/1 19/6/1
f 28/6/1 21/6/1 20/6/1
f 29/4/1 22/4/1 21/4/1
f 29/6/1 21/6/1 28/6/1
f 30/6/1 23/6/1 22/6/1
f 30/4/1 22/4/1 29/4/1
f 31/4/1 25/4/1 24/4/1
f 31/6/1 23/6/1 30/6/1
f 31/4/1 24/4/1 23/4/1
f 32/6/1 27/6/1 26/6/1
f 32/4/1 25/4/1 31/4/1
f 32/6/1 26/6/1 25/6/1
f 33/6/1 27/6/1 32/6/1
f 34/5/1 30/5/1 29/5/1
f 34/5/1 29/5/1 28/5/1
f 34/5/1 33/5/1 32/5/1
f 34/5/1 32/5/1 31/5/1
f 34/5/1 31/5/1 30/5/1
f 35/5/1 33/5/1 34/5/1
f 36/3/1 35/3/1 34/3/1
f 37/3/1 35/3/1 36/3/1
f 38/3/1 35/3/1 37/3/1
f 39/3/1 35/3/1 38/3/1
f 40/3/1 36/3/1 34/3/1
f 40/7/1 37/7/1 36/7/1
f 41/3/1 38/3/1 37/3/1
f 41/7/1 37/7/1 40/7/1
f 42/1/1 39/1/1 38/1/1
f 42/3/1 38/3/1 41/3/1
f 43/1/1 39/1/1 42/1/1
f 44/1/1 39/1/1 43/1/1
f 45/3/1 35/3/1 39/3/1
f 45/1/1 39/1/1 44/1/1
f 46/3/1 35/3/1 45/3/1
f 47/3/1 35/3/1 46/3/1
f 48/3/1 41/3/1 40/3/1
f 48/3/1 40/3/1 34/3/1
f 49/7/1 42/7/1 41/7/1
f 49/3/1 41/3/1 48/3/1
f 50/1/1 43/1/1 42/1/1
f 50/7/1 42/7/1 49/7/1
f 51/1/1 45/1/1 44/1/1
f 51/2/1 46/2/1 45/2/1
f 52/1/1 47/1/1 46/1/1
f 52/2/1 46/2/1 51/2/1
f 53/3/1 35/3/1 47/3/1
f 53/1/1 47/1/1 52/1/1
f 54/3/1 48/3/1 34/3/1
f 54/7/1 49/7/1 48/7/1
f 55/3/1 50/3/1 49/3/1
f 55/7/1 49/7/1 54/7/1
f 56/1/1 43/1/1 50/1/1
f 56/3/1 50/3/1 55/3/1
f 57/2/1 44/2/1 43/2/1
f 57/1/1 43/1/1 56/1/1
f 58/1/1 52/1/1 51/1/1
f 58/2/1 44/2/1 57/2/1
f 58/1/1 51/1/1 44/1/1
f 59/3/1 53/3/1 52/3/1
f 59/1/1 52/1/1 58/1/1
f 60/3/1 56/3/1 55/3/1
f 60/3/1 57/3/1 56/3/1
f 60/3/1 59/3/1 58/3/1
f 60/3/1 55/3/1 54/3/1
f 60/3/1 58/3/1 57/3/1
f 60/3/1 54/3/1 34/3/1
f 61/3/1 53/3/1 59/3/1
f 61/3/1 59/3/1 60/3/1
f 61/3/1 35/3/1 53/3/1
f 62/5/1 61/5/1 60/5/1
f 63/5/1 61/5/1 62/5/1
f 64/5/1 61/5/1 63/5/1
f 65/5/1 61/5/1 64/5/1
f 66/5/1 61/5/1 65/5/1
f 67/5/1 61/5/1 66/5/1
f 68/5/1 61/5/1 67/5/1
f 69/4/1 63/4/1 62/4/1
f 70/6/1 64/6/1 63/6/1
f 70/4/1 63/4/1 69/4/1
f 71/6/1 64/6/1 70/6/1
f 72/4/1 65/4/1 64/4/1
f 72/6/1 64/6/1 71/6/1
f 73/4/1 65/4/1 72/4/1
f 74/6/1 66/6/1 65/6/1
f 74/4/1 67/4/1 66/4/1
f 75/6/1 68/6/1 67/6/1
f 75/4/1 67/4/1 74/4/1
f 76/6/1 68/6/1 75/6/1
f 77/6/1 71/6/1 70/6/1
f 77/6/1 70/6/1 69/6/1
f 78/6/1 71/6/1 77/6/1
f 79/6/1 73/6/1 72/6/1
f 79/4/1 72/4/1 71/4/1
f 80/4/1 65/4/1 73/4/1
f 80/6/1 73/6/1 79/6/1
f 81/6/1 74/6/1 65/6/1
f 81/6/1 75/6/1 74/6/1
f 82/6/1 75/6/1 81/6/1
f 83/4/1 76/4/1 75/4/1
f 83/6/1 75/6/1 82/6/1
f 84/4/1 76/4/1 83/4/1
f 85/6/1 71/6/1 78/6/1
f 85/4/1 78/4/1 77/4/1
f 86/4/1 79/4/1 71/4/1
f 86/6/1 71/6/1 85/6/1
f 86/4/1 80/4/1 79/4/1
f 87/4/1 80/4/1 86/4/1
f 88/4/1 65/4/1 80/4/1
f 88/4/1 80/4/1 87/4/1
f 88/6/1 81/6/1 65/6/1
f 89/4/1 82/4/1 81/4/1
f 89/6/1 81/6/1 88/6/1
f 90/6/1 83/6/1 82/6/1
f 90/4/1 82/4/1 89/4/1
f 91/6/1 83/6/1 90/6/1
f 92/4/1 85/4/1 77/4/1
f 92/4/1 87/4/1 86/4/1
f 92/4/1 86/4/1 85/4/1
f 93/6/1 88/6/1 87/6/1
f 93/4/1 87/4/1 92/4/1
f 94/4/1 89/4/1 88/4/1
f 94/6/1 88/6/1 93/6/1
f 95/6/1 90/6/1 89/6/1
f 95/4/1 89/4/1 94/4/1
f 96/6/1 90/6/1 95/6/1
f 100/5/1 98/5/1 97/5/1
f 101/5/1 98/5/1 100/5/1
f 102/5/1 98/5/1 101/5/1
f 103/5/1 98/5/1 102/5/1
f 104/5/1 98/5/1 103/5/1
f 105/5/1 98/5/1 104/5/1
f 106/5/1 98/5/1 105/5/1
f 107/5/1 98/5/1 106/5/1
f 109/5/1 100/5/1 99/5/1
f 110/5/1 108/5/1 107/5/1
f 111/5/1 109/5/1 99/5/1
f 112/5/1 108/5/1 110/5/1
f 113/5/1 111/5/1 99/5/1
f 114/5/1 108/5/1 112/5/1
f 115/5/1 113/5/1 99/5/1
f 116/5/1 108/5/1 114/5/1
f 117/5/1 115/5/1 99/5/1
f 118/5/1 108/5/1 116/5/1
f 119/5/1 117/5/1 99/5/1
f 120/5/1 108/5/1 118/5/1
f 121/5/1 119/5/1 99/5/1
f 122/5/1 108/5/1 120/5/1
f 123/5/1 108/5/1 122/5/1
f 124/5/1 121/5/1 99/5/1
f 125/5/1 121/5/1 124/5/1
f 129/5/1 128/5/1 127/5/1
f 129/5/1 127/5/1 126/5/1
f 129/5/1 126/5/1 125/5/1
f 130/5/1 128/5/1 129/5/1
f 133/4/1 132/4/1 131/4/1
f 134/4/1 132/4/1 133/4/1
f 138/4/1 136/4/1 135/4/1
f 139/4/1 136/4/1 138/4/1
f 140/6/1 138/6/1 137/6/1
f 141/6/1 138/6/1 140/6/1
f 142/6/2 143/6/2 144/6/2
f 144/6/2 143/6/2 145/6/2
f 146/6/2 147/6/2 149/6/2
f 149/6/2 147/6/2 150/6/2
f 148/6/2 149/6/2 151/6/2
f 151/6/2 149/6/2 152/6/2
f 153/5/2 154/5/2 156/5/2
f 156/5/2 154/5/2 157/5/2
f 157/5/2 154/5/2 158/5/2
f 158/5/2 154/5/2 159/5/2
f 159/5/2 154/5/2 160/5/2
f 160/5/2 154/5/2 161/5/2
f 155/5/2 156/5/2 163/5/2
f 155/5/2 163/5/2 164/5/2
f 155/5/2 164/5/2 165/5/2
f 155/5/2 165/5/2 166/5/2
f 161/5/2 162/5/2 167/5/2
f 155/5/2 166/5/2 168/5/2
f 167/5/2 162/5/2 169/5/2
f 155/5/2 168/5/2 170/5/2
f 169/5/2 162/5/2 171/5/2
f 171/5/2 162/5/2 172/5/2
f 155/5/2 170/5/2 173/5/2
f 172/5/2 162/5/2 174/5/2
f 174/5/2 162/5/2 175/5/2
f 175/5/2 162/5/2 176/5/2
f 155/5/2 173/5/2 177/5/2
f 155/5/2 177/5/2 178/5/2
f 178/5/2 177/5/2 179/5/2
f 183/5/2 184/5/2 185/5/2
f 182/5/2 183/5/2 185/5/2
f 181/5/2 182/5/2 185/5/2
f 180/5/2 181/5/2 185/5/2
f 179/5/2 180/5/2 185/5/2
f 185/5/2 184/5/2 186/5/2
f 187/6/2 188/6/2 193/6/2
f 193/6/2 188/6/2 194/6/2
f 188/4/2 189/4/2 195/4/2
f 194/6/2 188/6/2 195/6/2
f 195/4/2 189/4/2 196/4/2
f 189/6/2 190/6/2 197/6/2
f 196/4/2 189/4/2 197/4/2
f 190/4/2 191/4/2 198/4/2
f 197/6/2 190/6/2 198/6/2
f 191/6/2 192/6/2 199/6/2
f 198/4/2 191/4/2 199/4/2
f 199/6/2 192/6/2 200/6/2
f 193/4/2 194/4/2 201/4/2
f 195/6/2 196/6/2 202/6/2
f 201/4/2 194/4/2 202/4/2
f 194/6/2 195/6/2 202/6/2
f 202/6/2 196/6/2 203/6/2
f 197/4/2 198/4/2 204/4/2
f 203/6/2 196/6/2 204/6/2
f 196/4/2 197/4/2 204/4/2
f 199/4/2 200/4/2 204/4/2
f 198/4/2 199/4/2 204/4/2
f 204/4/2 200/4/2 205/4/2
f 205/4/2 200/4/2 206/4/2
f 200/6/2 192/6/2 207/6/2
f 206/4/2 200/4/2 207/4/2
f 202/6/2 203/6/2 208/6/2
f 201/6/2 202/6/2 208/6/2
f 203/4/2 204/4/2 209/4/2
f 208/6/2 203/6/2 209/6/2
f 204/6/2 205/6/2 210/6/2
f 209/4/2 204/4/2 210/4/2
f 210/6/2 205/6/2 211/6/2
f 205/4/2 206/4/2 212/4/2
f 211/6/2 205/6/2 212/6/2
f 212/4/2 206/4/2 213/4/2
f 201/6/2 208/6/2 214/6/2
f 208/4/2 209/4/2 215/4/2
f 214/6/2 208/6/2 215/6/2
f 209/6/2 210/6/2 216/6/2
f 210/4/2 211/4/2 217/4/2
f 216/6/2 210/6/2 217/6/2
f 211/6/2 212/6/2 218/6/2
f 217/4/2 211/4/2 218/4/2
f 212/6/2 213/6/2 218/6/2
f 214/4/2 215/4/2 219/4/2
f 209/6/2 216/6/2 220/6/2
f 219/4/2 215/4/2 220/4/2
f 215/4/2 209/4/2 220/4/2
f 216/4/2 217/4/2 221/4/2
f 220/6/2 216/6/2 221/6/2
f 217/6/2 218/6/2 222/6/2
f 221/4/2 217/4/2 222/4/2
f 218/6/2 213/6/2 223/6/2
f 222/6/2 218/6/2 223/6/2
f 213/4/2 206/4/2 224/4/2
f 223/6/2 213/6/2 224/6/2
f 206/6/2 207/6/2 225/6/2
f 224/4/2 206/4/2 225/4/2
f 207/6/2 192/6/2 226/6/2
f 225/6/2 207/6/2 226/6/2
f 226/6/2 192/6/2 227/6/2
f 220/6/2 221/6/2 228/6/2
f 219/6/2 220/6/2 228/6/2
f 221/6/2 222/6/2 228/6/2
f 222/4/2 223/4/2 229/4/2
f 228/6/2 222/6/2 229/6/2
f 224/6/2 225/6/2 230/6/2
f 229/4/2 223/4/2 230/4/2
f 223/6/2 224/6/2 230/6/2
f 225/6/2 226/6/2 230/6/2
f 219/6/2 228/6/2 231/6/2
f 228/4/2 229/4/2 232/4/2
f 231/6/2 228/6/2 232/6/2
f 232/4/2 229/4/2 233/4/2
f 229/6/2 230/6/2 234/6/2
f 233/4/2 229/4/2 234/4/2
f 230/6/2 226/6/2 235/6/2
f 234/6/2 230/6/2 235/6/2
f 235/6/2 226/6/2 236/6/2
f 236/6/2 226/6/2 237/6/2
f 226/4/2 227/4/2 238/4/2
f 237/6/2 226/6/2 238/6/2
f 238/4/2 227/4/2 239/4/2
f 231/4/2 232/4/2 240/4/2
f 232/6/2 233/6/2 241/6/2
f 240/4/2 232/4/2 241/4/2
f 233/4/2 234/4/2 242/4/2
f 241/6/2 233/6/2 242/6/2
f 234/4/2 235/4/2 242/4/2
f 242/4/2 235/4/2 243/4/2
f 243/4/2 235/4/2 244/4/2
f 235/6/2 236/6/2 245/6/2
f 244/4/2 235/4/2 245/4/2
f 238/6/2 239/6/2 246/6/2
f 237/6/2 238/6/2 246/6/2
f 246/6/2 239/6/2 247/6/2
f 240/6/2 241/6/2 248/6/2
f 241/4/2 242/4/2 248/4/2
f 242/6/2 243/6/2 249/6/2
f 248/4/2 242/4/2 249/4/2
f 243/4/2 244/4/2 250/4/2
f 249/6/2 243/6/2 250/6/2
f 244/6/2 245/6/2 251/6/2
f 250/4/2 244/4/2 251/4/2
f 236/4/2 237/4/2 252/4/2
f 251/6/2 245/6/2 252/6/2
f 245/6/2 236/6/2 252/6/2
f 237/6/2 246/6/2 253/6/2
f 252/4/2 237/4/2 253/4/2
f 246/4/2 247/4/2 254/4/2
f 253/6/2 246/6/2 254/6/2
f 254/4/2 247/4/2 255/4/2
f 250/6/2 251/6/2 256/6/2
f 251/6/2 252/6/2 256/6/2
f 248/6/2 249/6/2 256/6/2
f 249/6/2 250/6/2 256/6/2
f 240/6/2 248/6/2 256/6/2
f 252/6/2 253/6/2 256/6/2
f 256/6/2 253/6/2 257/6/2
f 257/6/2 253/6/2 258/6/2
f 258/6/2 253/6/2 259/6/2
f 259/6/2 253/6/2 260/6/2
f 260/6/2 253/6/2 261/6/2
f 261/6/2 253/6/2 262/6/2
f 253/4/2 254/4/2 263/4/2
f 262/6/2 253/6/2 263/6/2
f 254/6/2 255/6/2 264/6/2
f 263/4/2 254/4/2 264/4/2
f 264/6/2 255/6/2 265/6/2
f 258/4/2 259/4/2 266/4/2
f 259/6/2 260/6/2 267/6/2
f 266/4/2 259/4/2 267/4/2
f 262/4/2 263/4/2 268/4/2
f 261/6/2 262/6/2 268/6/2
f 263/6/2 264/6/2 269/6/2
f 268/4/2 263/4/2 269/4/2
f 264/4/2 265/4/2 270/4/2
f 269/6/2 264/6/2 270/6/2
f 257/6/2 258/6/2 271/6/2
f 258/4/2 266/4/2 271/4/2
f 266/6/2 267/6/2 272/6/2
f 271/4/2 266/4/2 272/4/2
f 267/6/2 260/6/2 273/6/2
f 272/6/2 267/6/2 273/6/2
f 260/4/2 261/4/2 273/4/2
f 268/6/2 269/6/2 274/6/2
f 273/4/2 261/4/2 274/4/2
f 261/6/2 268/6/2 274/6/2
f 269/4/2 270/4/2 275/4/2
f 274/6/2 269/6/2 275/6/2
f 270/4/2 265/4/2 276/4/2
f 275/4/2 270/4/2 276/4/2
f 276/4/2 265/4/2 277/4/2
f 256/4/2 257/4/2 278/4/2
f 271/6/2 272/6/2 279/6/2
f 278/4/2 257/4/2 279/4/2
f 257/6/2 271/6/2 279/6/2
f 275/4/2 276/4/2 280/4/2
f 279/6/2 272/6/2 280/6/2
f 274/4/2 275/4/2 280/4/2
f 272/4/2 273/4/2 280/4/2
f 273/4/2 274/4/2 280/4/2
f 280/4/2 276/4/2 281/4/2
f 281/4/2 276/4/2 282/4/2
f 282/4/2 276/4/2 283/4/2
f 283/4/2 276/4/2 284/4/2
f 278/6/2 279/6/2 285/6/2
f 279/4/2 280/4/2 286/4/2
f 285/6/2 279/6/2 286/6/2
f 280/6/2 281/6/2 287/6/2
f 286/4/2 280/4/2 287/4/2
f 281/4/2 282/4/2 288/4/2
f 287/6/2 281/6/2 288/6/2
f 282/6/2 283/6/2 289/6/2
f 288/4/2 282/4/2 289/4/2
f 289/6/2 283/6/2 290/6/2
f 293/5/3 292/5/3 291/5/3
f 294/5/3 292/5/3 293/5/3
f 305/4/3 296/4/3 295/4/3
f 306/6/3 297/6/3 296/6/3
f 306/4/3 296/4/3 305/4/3
f 307/5/3 298/5/3 297/5/3
f 307/6/3 297/6/3 306/6/3
f 308/3/3 299/3/3 298/3/3
f 308/5/3 298/5/3 307/5/3
f 309/5/3 300/5/3 299/5/3
f 309/3/3 299/3/3 308/3/3
f 310/4/3 301/4/3 300/4/3
f 310/5/3 300/5/3 309/5/3
f 311/6/3 302/6/3 301/6/3
f 311/4/3 301/4/3 310/4/3
f 312/4/3 303/4/3 302/4/3
f 312/6/3 302/6/3 311/6/3
f 313/4/3 303/4/3 312/4/3
f 315/5/3 305/5/3 304/5/3
f 316/5/3 305/5/3 315/5/3
f 325/5/3 314/5/3 313/5/3
f 326/5/3 314/5/3 325/5/3
f 327/6/3 317/6/3 316/6/3
f 328/4/3 318/4/3 317/4/3
f 328/6/3 317/6/3 327/6/3
f 329/6/3 319/6/3 318/6/3
f 329/4/3 318/4/3 328/4/3
f 330/4/3 320/4/3 319/4/3
f 330/6/3 319/6/3 329/6/3
f 331/6/3 321/6/3 320/6/3
f 331/4/3 320/4/3 330/4/3
f 332/4/3 322/4/3 321/4/3
f 332/6/3 321/6/3 331/6/3
f 333/6/3 323/6/3 322/6/3
f 333/4/3 322/4/3 332/4/3
f 334/4/3 324/4/3 323/4/3
f 334/6/3 323/6/3 333/6/3
f 335/6/3 325/6/3 324/6/3
f 335/4/3 324/4/3 334/4/3
f 336/6/3 325/6/3 335/6/3
f 339/5/3 338/5/3 337/5/3
f 340/5/3 338/5/3 339/5/3
f 341/8/4 342/8/4 344/8/4
f 342/5/4 343/5/4 345/5/4
f 344/8/4 342/8/4 345/8/4
f 345/5/4 343/5/4 346/5/4
f 347/6/4 348/6/4 350/6/4
f 350/6/4 348/6/4 351/6/4
f 349/8/4 350/8/4 352/8/4
f 352/8/4 350/8/4 353/8/4
f 353/6/4 354/6/4 355/6/4
f 355/6/4 354/6/4 356/6/4
f 357/6/4 358/6/4 361/6/4
f 361/6/4 358/6/4 362/6/4
f 359/8/4 360/8/4 363/8/4
f 363/8/4 360/8/4 364/8/4
f 365/4/4 366/4/4 367/4/4
f 367/4/4 366/4/4 368/4/4
f 369/4/4 370/4/4 378/4/4
f 370/6/4 371/6/4 379/6/4
f 378/4/4 370/4/4 379/4/4
f 371/5/4 372/5/4 380/5/4
f 379/6/4 371/6/4 380/6/4
f 372/3/4 373/3/4 381/3/4
f 380/5/4 372/5/4 381/5/4
f 373/5/4 374/5/4 382/5/4
f 381/3/4 373/3/4 382/3/4
f 374/6/4 375/6/4 383/6/4
f 382/5/4 374/5/4 383/5/4
f 375/4/4 376/4/4 384/4/4
f 383/6/4 375/6/4 384/6/4
f 384/4/4 376/4/4 385/4/4
f 377/5/4 378/5/4 386/5/4
f 386/5/4 378/5/4 387/5/4
f 387/6/4 388/6/4 394/6/4
f 388/4/4 389/4/4 395/4/4
f 394/6/4 388/6/4 395/6/4
f 389/6/4 390/6/4 396/6/4
f 395/4/4 389/4/4 396/4/4
f 390/4/4 391/4/4 397/4/4
f 396/6/4 390/6/4 397/6/4
f 391/6/4 392/6/4 398/6/4
f 397/4/4 391/4/4 398/4/4
f 392/4/4 393/4/4 399/4/4
f 398/6/4 392/6/4 399/6/4
f 399/4/4 393/4/4 400/4/4
f 401/5/4 402/5/4 403/5/4
f 403/5/4 402/5/4 404/5/4
f 407/5/5 406/5/5 405/5/5
f 408/5/5 406/5/5 407/5/5
f 412/5/5 410/5/5 409/5/5
f 413/5/5 410/5/5 412/5/5
f 415/4/5 412/4/5 411/4/5
f 416/4/5 412/4/5 415/4/5
f 417/6/5 416/6/5 415/6/5
f 418/6/5 416/6/5 417/6/5
f 419/6/5 414/6/5 413/6/5
f 420/6/5 414/6/5 419/6/5
f 421/4/5 418/4/5 417/4/5
f 422/4/5 418/4/5 421/4/5
f 423/6/5 422/6/5 421/6/5
f 424/6/5 422/6/5 423/6/5
f 425/4/5 420/4/5 419/4/5
f 426/4/5 420/4/5 425/4/5
f 427/4/5 424/4/5 423/4/5
f 428/4/5 424/4/5 427/4/5
f 429/6/5 426/6/5 425/6/5
f 430/6/5 426/6/5 429/6/5
f 431/6/5 428/6/5 427/6/5
f 432/6/5 428/6/5 431/6/5
f 433/4/5 430/4/5 429/4/5
f 434/4/5 430/4/5 433/4/5
f 435/4/5 432/4/5 431/4/5
f 436/4/5 432/4/5 435/4/5
f 437/6/5 434/6/5 433/6/5
f 438/6/5 434/6/5 437/6/5
f 439/5/5 437/5/5 436/5/5
f 440/5/5 437/5/5 439/5/5
f 443/8/5 442/8/5 441/8/5
f 444/8/5 442/8/5 443/8/5
f 445/8/6 446/8/6 447/8/6
f 447/8/6 446/8/6 448/8/6
f 449/8/6 450/8/6 452/8/6
f 452/8/6 450/8/6 453/8/6
f 451/4/6 452/4/6 455/4/6
f 452/8/6 453/8/6 456/8/6
f 455/4/6 452/4/6 456/4/6
f 453/4/6 454/4/6 457/4/6
f 456/8/6 453/8/6 457/8/6
f 457/4/6 454/4/6 458/4/6
f 456/5/6 457/5/6 459/5/6
f 459/5/6 457/5/6 460/5/6
f 461/8/6 462/8/6 464/8/6
f 464/8/6 462/8/6 465/8/6
f 463/6/6 464/6/6 467/6/6
f 467/6/6 464/6/6 468/6/6
f 465/4/6 466/4/6 469/4/6
f 469/4/6 466/4/6 470/4/6
f 471/5/6 472/5/6 474/5/6
f 474/5/6 472/5/6 475/5/6
f 475/6/6 476/6/6 477/6/6
f 477/6/6 476/6/6 478/6/6
f 473/4/6 474/4/6 479/4/6
f 479/4/6 474/4/6 480/4/6
f 477/4/6 478/4/6 481/4/6
f 481/4/6 478/4/6 482/4/6
f 481/6/6 482/6/6 483/6/6
f 483/6/6 482/6/6 484/6/6
f 479/6/6 480/6/6 485/6/6
f 485/6/6 480/6/6 486/6/6
f 483/4/6 484/4/6 487/4/6
f 487/4/6 484/4/6 488/4/6
f 485/4/6 486/4/6 489/4/6
f 489/4/6 486/4/6 490/4/6
f 487/6/6 488/6/6 491/6/6
f 489/6/6 490/6/6 492/6/6
f 492/6/6 490/6/6 493/6/6
f 491/6/6 488/6/6 494/6/6
f 494/6/6 488/6/6 495/6/6
f 496/5/6 497/5/6 498/5/6
f 498/5/6 497/5/6 499/5/6
