# MagicaVoxel @ Ephtracy

# group
o cauliflower_growth4

# material
mtllib farm-33-cauliflower_growth4.mtl
usemtl palette

# normals
vn -1 0 0
vn 1 0 0
vn 0 0 1
vn 0 0 -1
vn 0 -1 0
vn 0 1 0

# texcoords
vt 0.486328 0.5
vt 0.552734 0.5

# verts
v 2.7 0 1.9
v 2.7 0 1.6
v 2.7 0.1 1.9
v 2.7 0.1 1.6
v 2.8 0 2
v 2.8 0 1.9
v 2.8 0 1.6
v 2.8 0 1.5
v 2.8 0.1 2
v 2.8 0.1 1.9
v 2.8 0.1 1.6
v 2.8 0.1 1.5
v 2.8 0.2 1.9
v 2.8 0.2 1.8
v 2.8 0.2 1.7
v 2.8 0.2 1.6
v 2.8 0.3 1.8
v 2.8 0.3 1.7
v 2.9 0.2 1.9
v 2.9 0.2 1.8
v 2.9 0.2 1.7
v 2.9 0.2 1.6
v 2.9 0.3 1.9
v 2.9 0.3 1.8
v 2.9 0.3 1.7
v 2.9 0.3 1.6
v 3 0 1.8
v 3 0 1.7
v 3 0.1 1.8
v 3 0.1 1.7
v 2.9 0 1.8
v 2.9 0 1.7
v 2.9 0.1 1.8
v 2.9 0.1 1.7
v 3 0.2 1.9
v 3 0.2 1.8
v 3 0.2 1.7
v 3 0.2 1.6
v 3 0.3 1.9
v 3 0.3 1.8
v 3 0.3 1.7
v 3 0.3 1.6
v 3.1 0 2
v 3.1 0 1.9
v 3.1 0 1.6
v 3.1 0 1.5
v 3.1 0.1 2
v 3.1 0.1 1.9
v 3.1 0.1 1.6
v 3.1 0.1 1.5
v 3.1 0.2 1.9
v 3.1 0.2 1.8
v 3.1 0.2 1.7
v 3.1 0.2 1.6
v 3.1 0.3 1.8
v 3.1 0.3 1.7
v 3.2 0 1.9
v 3.2 0 1.6
v 3.2 0.1 1.9
v 3.2 0.1 1.6
v 2.8 0 2
v 2.8 0.1 2
v 3.1 0 2
v 3.1 0.1 2
v 2.7 0 1.9
v 2.7 0.1 1.9
v 2.8 0 1.9
v 2.8 0.1 1.9
v 2.8 0.2 1.9
v 2.9 0.2 1.9
v 2.9 0.3 1.9
v 3 0.2 1.9
v 3 0.3 1.9
v 3.1 0 1.9
v 3.1 0.1 1.9
v 3.1 0.2 1.9
v 3.2 0 1.9
v 3.2 0.1 1.9
v 2.8 0.2 1.8
v 2.8 0.3 1.8
v 2.9 0.2 1.8
v 2.9 0.3 1.8
v 3 0.2 1.8
v 3 0.3 1.8
v 3.1 0.2 1.8
v 3.1 0.3 1.8
v 2.9 0 1.7
v 2.9 0.1 1.7
v 3 0 1.7
v 3 0.1 1.7
v 2.9 0 1.8
v 2.9 0.1 1.8
v 3 0 1.8
v 3 0.1 1.8
v 2.8 0.2 1.7
v 2.8 0.3 1.7
v 2.9 0.2 1.7
v 2.9 0.3 1.7
v 3 0.2 1.7
v 3 0.3 1.7
v 3.1 0.2 1.7
v 3.1 0.3 1.7
v 2.7 0 1.6
v 2.7 0.1 1.6
v 2.8 0 1.6
v 2.8 0.1 1.6
v 2.8 0.2 1.6
v 2.9 0.2 1.6
v 2.9 0.3 1.6
v 3 0.2 1.6
v 3 0.3 1.6
v 3.1 0 1.6
v 3.1 0.1 1.6
v 3.1 0.2 1.6
v 3.2 0 1.6
v 3.2 0.1 1.6
v 2.8 0 1.5
v 2.8 0.1 1.5
v 3.1 0 1.5
v 3.1 0.1 1.5
v 2.8 0 2
v 3.1 0 2
v 2.7 0 1.9
v 2.8 0 1.9
v 3.1 0 1.9
v 3.2 0 1.9
v 2.9 0 1.8
v 3 0 1.8
v 2.9 0 1.7
v 3 0 1.7
v 2.7 0 1.6
v 2.8 0 1.6
v 3.1 0 1.6
v 3.2 0 1.6
v 2.8 0 1.5
v 3.1 0 1.5
v 2.9 0.1 1.8
v 3 0.1 1.8
v 2.9 0.1 1.7
v 3 0.1 1.7
v 2.8 0.1 2
v 3.1 0.1 2
v 2.7 0.1 1.9
v 2.8 0.1 1.9
v 3.1 0.1 1.9
v 3.2 0.1 1.9
v 2.7 0.1 1.6
v 2.8 0.1 1.6
v 3.1 0.1 1.6
v 3.2 0.1 1.6
v 2.8 0.1 1.5
v 3.1 0.1 1.5
v 2.8 0.2 1.9
v 2.9 0.2 1.9
v 3 0.2 1.9
v 3.1 0.2 1.9
v 2.8 0.2 1.8
v 2.9 0.2 1.8
v 3 0.2 1.8
v 3.1 0.2 1.8
v 2.8 0.2 1.7
v 2.9 0.2 1.7
v 3 0.2 1.7
v 3.1 0.2 1.7
v 2.8 0.2 1.6
v 2.9 0.2 1.6
v 3 0.2 1.6
v 3.1 0.2 1.6
v 2.9 0.3 1.9
v 3 0.3 1.9
v 2.8 0.3 1.8
v 2.9 0.3 1.8
v 3 0.3 1.8
v 3.1 0.3 1.8
v 2.8 0.3 1.7
v 2.9 0.3 1.7
v 3 0.3 1.7
v 3.1 0.3 1.7
v 2.9 0.3 1.6
v 3 0.3 1.6

# faces
f 3/2/1 2/2/1 1/2/1
f 4/2/1 2/2/1 3/2/1
f 9/2/1 6/2/1 5/2/1
f 10/2/1 6/2/1 9/2/1
f 11/2/1 8/2/1 7/2/1
f 12/2/1 8/2/1 11/2/1
f 13/1/1 11/1/1 10/1/1
f 14/1/1 11/1/1 13/1/1
f 15/1/1 11/1/1 14/1/1
f 16/1/1 11/1/1 15/1/1
f 17/1/1 15/1/1 14/1/1
f 18/1/1 15/1/1 17/1/1
f 23/1/1 20/1/1 19/1/1
f 24/1/1 20/1/1 23/1/1
f 25/1/1 22/1/1 21/1/1
f 26/1/1 22/1/1 25/1/1
f 29/2/1 28/2/1 27/2/1
f 30/2/1 28/2/1 29/2/1
f 31/2/2 32/2/2 33/2/2
f 33/2/2 32/2/2 34/2/2
f 35/1/2 36/1/2 39/1/2
f 39/1/2 36/1/2 40/1/2
f 37/1/2 38/1/2 41/1/2
f 41/1/2 38/1/2 42/1/2
f 43/2/2 44/2/2 47/2/2
f 47/2/2 44/2/2 48/2/2
f 45/2/2 46/2/2 49/2/2
f 49/2/2 46/2/2 50/2/2
f 48/1/2 49/1/2 51/1/2
f 51/1/2 49/1/2 52/1/2
f 52/1/2 49/1/2 53/1/2
f 53/1/2 49/1/2 54/1/2
f 52/1/2 53/1/2 55/1/2
f 55/1/2 53/1/2 56/1/2
f 57/2/2 58/2/2 59/2/2
f 59/2/2 58/2/2 60/2/2
f 63/2/3 62/2/3 61/2/3
f 64/2/3 62/2/3 63/2/3
f 67/2/3 66/2/3 65/2/3
f 68/2/3 66/2/3 67/2/3
f 70/1/3 69/1/3 68/1/3
f 72/1/3 70/1/3 68/1/3
f 72/1/3 71/1/3 70/1/3
f 73/1/3 71/1/3 72/1/3
f 75/1/3 72/1/3 68/1/3
f 76/1/3 72/1/3 75/1/3
f 77/2/3 75/2/3 74/2/3
f 78/2/3 75/2/3 77/2/3
f 81/1/3 80/1/3 79/1/3
f 82/1/3 80/1/3 81/1/3
f 85/1/3 84/1/3 83/1/3
f 86/1/3 84/1/3 85/1/3
f 89/2/3 88/2/3 87/2/3
f 90/2/3 88/2/3 89/2/3
f 91/2/4 92/2/4 93/2/4
f 93/2/4 92/2/4 94/2/4
f 95/1/4 96/1/4 97/1/4
f 97/1/4 96/1/4 98/1/4
f 99/1/4 100/1/4 101/1/4
f 101/1/4 100/1/4 102/1/4
f 103/2/4 104/2/4 105/2/4
f 105/2/4 104/2/4 106/2/4
f 106/1/4 107/1/4 108/1/4
f 106/1/4 108/1/4 110/1/4
f 108/1/4 109/1/4 110/1/4
f 110/1/4 109/1/4 111/1/4
f 106/1/4 110/1/4 113/1/4
f 113/1/4 110/1/4 114/1/4
f 112/2/4 113/2/4 115/2/4
f 115/2/4 113/2/4 116/2/4
f 117/2/4 118/2/4 119/2/4
f 119/2/4 118/2/4 120/2/4
f 124/2/5 122/2/5 121/2/5
f 125/2/5 122/2/5 124/2/5
f 127/2/5 124/2/5 123/2/5
f 127/2/5 126/2/5 125/2/5
f 127/2/5 125/2/5 124/2/5
f 128/2/5 126/2/5 127/2/5
f 129/2/5 127/2/5 123/2/5
f 130/2/5 126/2/5 128/2/5
f 131/2/5 129/2/5 123/2/5
f 131/2/5 130/2/5 129/2/5
f 132/2/5 130/2/5 131/2/5
f 133/2/5 126/2/5 130/2/5
f 133/2/5 130/2/5 132/2/5
f 134/2/5 126/2/5 133/2/5
f 135/2/5 133/2/5 132/2/5
f 136/2/5 133/2/5 135/2/5
f 139/1/5 138/1/5 137/1/5
f 140/1/5 138/1/5 139/1/5
f 141/2/6 142/2/6 144/2/6
f 144/2/6 142/2/6 145/2/6
f 143/2/6 144/2/6 147/2/6
f 147/2/6 144/2/6 148/2/6
f 145/2/6 146/2/6 149/2/6
f 149/2/6 146/2/6 150/2/6
f 148/2/6 149/2/6 151/2/6
f 151/2/6 149/2/6 152/2/6
f 153/1/6 154/1/6 157/1/6
f 157/1/6 154/1/6 158/1/6
f 155/1/6 156/1/6 159/1/6
f 159/1/6 156/1/6 160/1/6
f 161/1/6 162/1/6 165/1/6
f 165/1/6 162/1/6 166/1/6
f 163/1/6 164/1/6 167/1/6
f 167/1/6 164/1/6 168/1/6
f 169/1/6 170/1/6 172/1/6
f 172/1/6 170/1/6 173/1/6
f 171/1/6 172/1/6 175/1/6
f 173/1/6 174/1/6 175/1/6
f 172/1/6 173/1/6 175/1/6
f 175/1/6 174/1/6 176/1/6
f 176/1/6 174/1/6 177/1/6
f 177/1/6 174/1/6 178/1/6
f 176/1/6 177/1/6 179/1/6
f 179/1/6 177/1/6 180/1/6
