# MagicaVoxel @ Ephtracy

# group
o candleholdersmall

# material
mtllib church-36-candleholdersmall.mtl
usemtl palette

# normals
vn -1 0 0
vn 1 0 0
vn 0 0 1
vn 0 0 -1
vn 0 -1 0
vn 0 1 0

# texcoords
vt 0.849609 0.5
vt 0.943359 0.5

# verts
v 11.1 0 1.9
v 11.1 0 1.8
v 11.1 0.1 1.9
v 11.1 0.1 1.8
v 11.1 0.3 1.9
v 11.1 0.3 1.8
v 11.1 0.4 1.9
v 11.1 0.4 1.8
v 11.2 0 2
v 11.2 0 1.9
v 11.2 0 1.8
v 11.2 0 1.7
v 11.2 0.1 2
v 11.2 0.1 1.9
v 11.2 0.1 1.8
v 11.2 0.1 1.7
v 11.2 0.3 2
v 11.2 0.3 1.9
v 11.2 0.3 1.8
v 11.2 0.3 1.7
v 11.2 0.4 2
v 11.2 0.4 1.9
v 11.2 0.4 1.8
v 11.2 0.4 1.7
v 11.3 0 2
v 11.3 0 1.9
v 11.3 0 1.8
v 11.3 0 1.7
v 11.3 0.1 2
v 11.3 0.1 1.9
v 11.3 0.1 1.8
v 11.3 0.1 1.7
v 11.3 0.3 2
v 11.3 0.3 1.9
v 11.3 0.3 1.8
v 11.3 0.3 1.7
v 11.3 0.4 2
v 11.3 0.4 1.9
v 11.3 0.4 1.8
v 11.3 0.4 1.7
v 11.4 0 1.9
v 11.4 0 1.8
v 11.4 0.1 1.9
v 11.4 0.1 1.8
v 11.4 0.3 1.9
v 11.4 0.3 1.8
v 11.4 0.4 1.9
v 11.4 0.4 1.8
v 11.2 0 2
v 11.2 0.1 2
v 11.2 0.3 2
v 11.2 0.4 2
v 11.3 0 2
v 11.3 0.1 2
v 11.3 0.3 2
v 11.3 0.4 2
v 11.1 0 1.9
v 11.1 0.1 1.9
v 11.1 0.3 1.9
v 11.1 0.4 1.9
v 11.2 0 1.9
v 11.2 0.1 1.9
v 11.2 0.3 1.9
v 11.2 0.4 1.9
v 11.3 0 1.9
v 11.3 0.1 1.9
v 11.3 0.3 1.9
v 11.3 0.4 1.9
v 11.4 0 1.9
v 11.4 0.1 1.9
v 11.4 0.3 1.9
v 11.4 0.4 1.9
v 11.1 0 1.8
v 11.1 0.1 1.8
v 11.1 0.3 1.8
v 11.1 0.4 1.8
v 11.2 0 1.8
v 11.2 0.1 1.8
v 11.2 0.3 1.8
v 11.2 0.4 1.8
v 11.3 0 1.8
v 11.3 0.1 1.8
v 11.3 0.3 1.8
v 11.3 0.4 1.8
v 11.4 0 1.8
v 11.4 0.1 1.8
v 11.4 0.3 1.8
v 11.4 0.4 1.8
v 11.2 0 1.7
v 11.2 0.1 1.7
v 11.2 0.3 1.7
v 11.2 0.4 1.7
v 11.3 0 1.7
v 11.3 0.1 1.7
v 11.3 0.3 1.7
v 11.3 0.4 1.7
v 11.2 0 2
v 11.3 0 2
v 11.1 0 1.9
v 11.2 0 1.9
v 11.3 0 1.9
v 11.4 0 1.9
v 11.1 0 1.8
v 11.2 0 1.8
v 11.3 0 1.8
v 11.4 0 1.8
v 11.2 0 1.7
v 11.3 0 1.7
v 11.2 0.3 2
v 11.3 0.3 2
v 11.1 0.3 1.9
v 11.2 0.3 1.9
v 11.3 0.3 1.9
v 11.4 0.3 1.9
v 11.1 0.3 1.8
v 11.2 0.3 1.8
v 11.3 0.3 1.8
v 11.4 0.3 1.8
v 11.2 0.3 1.7
v 11.3 0.3 1.7
v 11.2 0.1 2
v 11.3 0.1 2
v 11.1 0.1 1.9
v 11.2 0.1 1.9
v 11.3 0.1 1.9
v 11.4 0.1 1.9
v 11.1 0.1 1.8
v 11.2 0.1 1.8
v 11.3 0.1 1.8
v 11.4 0.1 1.8
v 11.2 0.1 1.7
v 11.3 0.1 1.7
v 11.2 0.4 2
v 11.3 0.4 2
v 11.1 0.4 1.9
v 11.2 0.4 1.9
v 11.3 0.4 1.9
v 11.4 0.4 1.9
v 11.1 0.4 1.8
v 11.2 0.4 1.8
v 11.3 0.4 1.8
v 11.4 0.4 1.8
v 11.2 0.4 1.7
v 11.3 0.4 1.7

# faces
f 3/1/1 2/1/1 1/1/1
f 4/1/1 2/1/1 3/1/1
f 7/1/1 6/1/1 5/1/1
f 8/1/1 6/1/1 7/1/1
f 13/1/1 10/1/1 9/1/1
f 14/1/1 10/1/1 13/1/1
f 15/1/1 12/1/1 11/1/1
f 16/1/1 12/1/1 15/1/1
f 18/2/1 15/2/1 14/2/1
f 19/2/1 15/2/1 18/2/1
f 21/1/1 18/1/1 17/1/1
f 22/1/1 18/1/1 21/1/1
f 23/1/1 20/1/1 19/1/1
f 24/1/1 20/1/1 23/1/1
f 25/1/2 26/1/2 29/1/2
f 29/1/2 26/1/2 30/1/2
f 27/1/2 28/1/2 31/1/2
f 31/1/2 28/1/2 32/1/2
f 30/2/2 31/2/2 34/2/2
f 34/2/2 31/2/2 35/2/2
f 33/1/2 34/1/2 37/1/2
f 37/1/2 34/1/2 38/1/2
f 35/1/2 36/1/2 39/1/2
f 39/1/2 36/1/2 40/1/2
f 41/1/2 42/1/2 43/1/2
f 43/1/2 42/1/2 44/1/2
f 45/1/2 46/1/2 47/1/2
f 47/1/2 46/1/2 48/1/2
f 53/1/3 50/1/3 49/1/3
f 54/1/3 50/1/3 53/1/3
f 55/1/3 52/1/3 51/1/3
f 56/1/3 52/1/3 55/1/3
f 61/1/3 58/1/3 57/1/3
f 62/1/3 58/1/3 61/1/3
f 63/1/3 60/1/3 59/1/3
f 64/1/3 60/1/3 63/1/3
f 66/2/3 63/2/3 62/2/3
f 67/2/3 63/2/3 66/2/3
f 69/1/3 66/1/3 65/1/3
f 70/1/3 66/1/3 69/1/3
f 71/1/3 68/1/3 67/1/3
f 72/1/3 68/1/3 71/1/3
f 73/1/4 74/1/4 77/1/4
f 77/1/4 74/1/4 78/1/4
f 75/1/4 76/1/4 79/1/4
f 79/1/4 76/1/4 80/1/4
f 78/2/4 79/2/4 82/2/4
f 82/2/4 79/2/4 83/2/4
f 81/1/4 82/1/4 85/1/4
f 85/1/4 82/1/4 86/1/4
f 83/1/4 84/1/4 87/1/4
f 87/1/4 84/1/4 88/1/4
f 89/1/4 90/1/4 93/1/4
f 93/1/4 90/1/4 94/1/4
f 91/1/4 92/1/4 95/1/4
f 95/1/4 92/1/4 96/1/4
f 100/1/5 98/1/5 97/1/5
f 101/1/5 98/1/5 100/1/5
f 103/1/5 100/1/5 99/1/5
f 104/2/5 101/2/5 100/2/5
f 104/1/5 100/1/5 103/1/5
f 105/1/5 102/1/5 101/1/5
f 105/2/5 101/2/5 104/2/5
f 106/1/5 102/1/5 105/1/5
f 107/1/5 105/1/5 104/1/5
f 108/1/5 105/1/5 107/1/5
f 112/1/5 110/1/5 109/1/5
f 113/1/5 110/1/5 112/1/5
f 115/1/5 112/1/5 111/1/5
f 116/1/5 112/1/5 115/1/5
f 117/1/5 114/1/5 113/1/5
f 118/1/5 114/1/5 117/1/5
f 119/1/5 117/1/5 116/1/5
f 120/1/5 117/1/5 119/1/5
f 121/1/6 122/1/6 124/1/6
f 124/1/6 122/1/6 125/1/6
f 123/1/6 124/1/6 127/1/6
f 127/1/6 124/1/6 128/1/6
f 125/1/6 126/1/6 129/1/6
f 129/1/6 126/1/6 130/1/6
f 128/1/6 129/1/6 131/1/6
f 131/1/6 129/1/6 132/1/6
f 133/1/6 134/1/6 136/1/6
f 136/1/6 134/1/6 137/1/6
f 135/1/6 136/1/6 139/1/6
f 137/1/6 138/1/6 139/1/6
f 136/1/6 137/1/6 139/1/6
f 139/1/6 138/1/6 140/1/6
f 140/1/6 138/1/6 141/1/6
f 141/1/6 138/1/6 142/1/6
f 140/1/6 141/1/6 143/1/6
f 143/1/6 141/1/6 144/1/6
