# MagicaVoxel @ Ephtracy

# group
o stonepillarfallen

# material
mtllib church-78-stonepillarfallen.mtl
usemtl palette

# normals
vn -1 0 0
vn 1 0 0
vn 0 0 1
vn 0 0 -1
vn 0 -1 0
vn 0 1 0

# texcoords
vt 0.0292969 0.5
vt 0.0605469 0.5

# verts
v 13.4 0 -0.3
v 13.4 0 -0.4
v 13.4 0 -0.5
v 13.4 0.1 -0.4
v 13.4 0.1 -0.5
v 13.4 0.2 -0.3
v 13.4 0.2 -0.4
v 13.4 0.3 -0.4
v 13.4 0.3 -0.5
v 13.4 0.4 -0.3
v 13.4 0.4 -0.4
v 13.4 0.5 -0.4
v 13.4 0.5 -0.5
v 13.4 0.6 -0.3
v 13.4 0.6 -0.5
v 13.6 0 -0.7
v 13.6 0 -0.9
v 13.6 0.1 -0.7
v 13.6 0.1 -0.9
v 13.6 0.2 -0.7
v 13.6 0.2 -0.9
v 13.7 0 -0.9
v 13.7 0 -1
v 13.7 0.1 -0.9
v 13.7 0.1 -1
v 13.8 0.1 -0.9
v 13.8 0.1 -1
v 13.8 0.2 -0.9
v 13.8 0.2 -1
v 14 0 -1
v 14 0 -1.1
v 14 0.2 -1
v 14 0.2 -1.1
v 14.2 0 -1.1
v 14.2 0 -1.2
v 14.2 0.1 -1.1
v 14.2 0.1 -1.2
v 14.2 0.2 -1.1
v 14.2 0.2 -1.2
v 14.4 0 -1.2
v 14.4 0 -1.3
v 14.4 0.1 -1.2
v 14.4 0.1 -1.3
v 14.4 0.2 -1.2
v 14.4 0.2 -1.3
v 13.5 0.5 -0.3
v 13.5 0.5 -0.4
v 13.5 0.5 -0.5
v 13.5 0.6 -0.3
v 13.5 0.6 -0.5
v 13.6 0 -0.3
v 13.6 0 -0.5
v 13.6 0.1 -0.4
v 13.6 0.1 -0.5
v 13.6 0.2 -0.3
v 13.6 0.2 -0.4
v 13.6 0.2 -0.5
v 13.6 0.3 -0.3
v 13.6 0.3 -0.4
v 13.6 0.4 -0.3
v 13.6 0.4 -0.4
v 13.6 0.5 -0.3
v 13.6 0.5 -0.4
v 13.6 0.5 -0.5
v 13.8 0 -0.7
v 13.8 0 -0.8
v 13.8 0.1 -0.8
v 13.8 0.2 -0.7
v 13.8 0.2 -0.8
v 14 0 -0.8
v 14 0 -0.9
v 14 0.1 -0.8
v 14 0.1 -0.9
v 14 0.2 -0.8
v 14 0.2 -0.9
v 14.2 0.1 -0.9
v 14.2 0.1 -1
v 14.2 0.2 -0.9
v 14.2 0.2 -1
v 14.3 0 -0.9
v 14.3 0 -1
v 14.3 0.1 -0.9
v 14.3 0.1 -1
v 14.4 0.1 -1
v 14.4 0.1 -1.1
v 14.4 0.2 -1
v 14.4 0.2 -1.1
v 14.5 0 -1
v 14.5 0 -1.1
v 14.5 0.1 -1
v 14.5 0.1 -1.1
v 14.6 0 -1.1
v 14.6 0 -1.2
v 14.6 0 -1.3
v 14.6 0.1 -1.1
v 14.6 0.1 -1.2
v 14.6 0.1 -1.3
v 14.6 0.2 -1.1
v 14.6 0.2 -1.2
v 14.6 0.2 -1.3
v 13.4 0 -0.3
v 13.4 0.2 -0.3
v 13.4 0.4 -0.3
v 13.4 0.6 -0.3
v 13.5 0 -0.3
v 13.5 0.2 -0.3
v 13.5 0.3 -0.3
v 13.5 0.5 -0.3
v 13.5 0.6 -0.3
v 13.6 0 -0.3
v 13.6 0.2 -0.3
v 13.6 0.3 -0.3
v 13.6 0.4 -0.3
v 13.6 0.5 -0.3
v 13.6 0 -0.7
v 13.6 0.1 -0.7
v 13.6 0.2 -0.7
v 13.7 0 -0.7
v 13.7 0.1 -0.7
v 13.8 0 -0.7
v 13.8 0.2 -0.7
v 13.8 0 -0.8
v 13.8 0.1 -0.8
v 13.8 0.2 -0.8
v 13.9 0 -0.8
v 13.9 0.1 -0.8
v 13.9 0.2 -0.8
v 14 0 -0.8
v 14 0.1 -0.8
v 14 0.2 -0.8
v 14 0 -0.9
v 14 0.1 -0.9
v 14 0.2 -0.9
v 14.2 0 -0.9
v 14.2 0.1 -0.9
v 14.2 0.2 -0.9
v 14.3 0 -0.9
v 14.3 0.1 -0.9
v 14.2 0.1 -1
v 14.2 0.2 -1
v 14.3 0 -1
v 14.3 0.1 -1
v 14.4 0 -1
v 14.4 0.1 -1
v 14.4 0.2 -1
v 14.5 0 -1
v 14.5 0.1 -1
v 14.4 0.1 -1.1
v 14.4 0.2 -1.1
v 14.5 0 -1.1
v 14.5 0.1 -1.1
v 14.5 0.2 -1.1
v 14.6 0 -1.1
v 14.6 0.1 -1.1
v 14.6 0.2 -1.1
v 13.4 0 -0.5
v 13.4 0.1 -0.5
v 13.4 0.3 -0.5
v 13.4 0.5 -0.5
v 13.4 0.6 -0.5
v 13.5 0.2 -0.5
v 13.5 0.3 -0.5
v 13.5 0.5 -0.5
v 13.5 0.6 -0.5
v 13.6 0 -0.5
v 13.6 0.1 -0.5
v 13.6 0.2 -0.5
v 13.6 0.5 -0.5
v 13.6 0 -0.9
v 13.6 0.1 -0.9
v 13.6 0.2 -0.9
v 13.7 0 -0.9
v 13.7 0.1 -0.9
v 13.7 0.2 -0.9
v 13.8 0.1 -0.9
v 13.8 0.2 -0.9
v 13.7 0 -1
v 13.7 0.1 -1
v 13.8 0.1 -1
v 13.8 0.2 -1
v 14 0 -1
v 14 0.2 -1
v 14 0 -1.1
v 14 0.2 -1.1
v 14.2 0 -1.1
v 14.2 0.1 -1.1
v 14.2 0.2 -1.1
v 14.2 0 -1.2
v 14.2 0.1 -1.2
v 14.2 0.2 -1.2
v 14.4 0 -1.2
v 14.4 0.1 -1.2
v 14.4 0.2 -1.2
v 14.4 0 -1.3
v 14.4 0.1 -1.3
v 14.4 0.2 -1.3
v 14.5 0 -1.3
v 14.5 0.1 -1.3
v 14.5 0.2 -1.3
v 14.6 0 -1.3
v 14.6 0.1 -1.3
v 14.6 0.2 -1.3
v 13.4 0 -0.3
v 13.5 0 -0.3
v 13.6 0 -0.3
v 13.4 0 -0.4
v 13.5 0 -0.4
v 13.4 0 -0.5
v 13.6 0 -0.5
v 13.6 0 -0.7
v 13.7 0 -0.7
v 13.8 0 -0.7
v 13.7 0 -0.8
v 13.8 0 -0.8
v 13.9 0 -0.8
v 14 0 -0.8
v 13.6 0 -0.9
v 13.7 0 -0.9
v 13.8 0 -0.9
v 13.9 0 -0.9
v 14 0 -0.9
v 14.2 0 -0.9
v 14.3 0 -0.9
v 13.7 0 -1
v 14 0 -1
v 14.2 0 -1
v 14.3 0 -1
v 14.4 0 -1
v 14.5 0 -1
v 14 0 -1.1
v 14.2 0 -1.1
v 14.4 0 -1.1
v 14.5 0 -1.1
v 14.6 0 -1.1
v 14.2 0 -1.2
v 14.4 0 -1.2
v 14.5 0 -1.2
v 14.6 0 -1.2
v 14.4 0 -1.3
v 14.5 0 -1.3
v 14.6 0 -1.3
v 13.7 0.1 -0.9
v 13.8 0.1 -0.9
v 14.2 0.1 -0.9
v 14.3 0.1 -0.9
v 13.7 0.1 -1
v 13.8 0.1 -1
v 14.2 0.1 -1
v 14.3 0.1 -1
v 14.4 0.1 -1
v 14.5 0.1 -1
v 14.4 0.1 -1.1
v 14.5 0.1 -1.1
v 13.6 0.2 -0.7
v 13.8 0.2 -0.7
v 13.7 0.2 -0.8
v 13.8 0.2 -0.8
v 13.9 0.2 -0.8
v 14 0.2 -0.8
v 13.6 0.2 -0.9
v 13.7 0.2 -0.9
v 13.8 0.2 -0.9
v 13.9 0.2 -0.9
v 14 0.2 -0.9
v 14.2 0.2 -0.9
v 13.8 0.2 -1
v 14 0.2 -1
v 14.2 0.2 -1
v 14.4 0.2 -1
v 14 0.2 -1.1
v 14.2 0.2 -1.1
v 14.4 0.2 -1.1
v 14.5 0.2 -1.1
v 14.6 0.2 -1.1
v 14.2 0.2 -1.2
v 14.4 0.2 -1.2
v 14.5 0.2 -1.2
v 14.6 0.2 -1.2
v 14.4 0.2 -1.3
v 14.5 0.2 -1.3
v 14.6 0.2 -1.3
v 13.5 0.5 -0.3
v 13.6 0.5 -0.3
v 13.5 0.5 -0.4
v 13.6 0.5 -0.4
v 13.5 0.5 -0.5
v 13.6 0.5 -0.5
v 13.4 0.6 -0.3
v 13.5 0.6 -0.3
v 13.4 0.6 -0.5
v 13.5 0.6 -0.5

# faces
f 4/1/1 2/1/1 1/1/1
f 4/2/1 3/2/1 2/2/1
f 5/2/1 3/2/1 4/2/1
f 6/1/1 4/1/1 1/1/1
f 6/1/1 5/1/1 4/1/1
f 7/1/1 5/1/1 6/1/1
f 8/2/1 7/2/1 6/2/1
f 8/1/1 5/1/1 7/1/1
f 9/1/1 5/1/1 8/1/1
f 10/2/1 8/2/1 6/2/1
f 10/2/1 9/2/1 8/2/1
f 11/2/1 9/2/1 10/2/1
f 12/1/1 11/1/1 10/1/1
f 12/2/1 9/2/1 11/2/1
f 13/2/1 9/2/1 12/2/1
f 14/1/1 12/1/1 10/1/1
f 14/1/1 13/1/1 12/1/1
f 15/1/1 13/1/1 14/1/1
f 18/2/1 17/2/1 16/2/1
f 19/2/1 17/2/1 18/2/1
f 20/1/1 19/1/1 18/1/1
f 21/1/1 19/1/1 20/1/1
f 24/2/1 23/2/1 22/2/1
f 25/2/1 23/2/1 24/2/1
f 28/2/1 27/2/1 26/2/1
f 29/2/1 27/2/1 28/2/1
f 32/2/1 31/2/1 30/2/1
f 33/2/1 31/2/1 32/2/1
f 36/2/1 35/2/1 34/2/1
f 37/2/1 35/2/1 36/2/1
f 38/1/1 37/1/1 36/1/1
f 39/1/1 37/1/1 38/1/1
f 42/2/1 41/2/1 40/2/1
f 43/2/1 41/2/1 42/2/1
f 44/1/1 43/1/1 42/1/1
f 45/1/1 43/1/1 44/1/1
f 46/1/2 47/1/2 49/1/2
f 47/1/2 48/1/2 49/1/2
f 49/1/2 48/1/2 50/1/2
f 51/2/2 52/2/2 53/2/2
f 53/2/2 52/2/2 54/2/2
f 51/2/2 53/2/2 55/2/2
f 53/1/2 54/1/2 56/1/2
f 55/2/2 53/2/2 56/2/2
f 56/1/2 54/1/2 57/1/2
f 55/1/2 56/1/2 58/1/2
f 56/2/2 57/2/2 59/2/2
f 58/1/2 56/1/2 59/1/2
f 58/2/2 59/2/2 60/2/2
f 59/2/2 57/2/2 61/2/2
f 60/2/2 59/2/2 61/2/2
f 60/1/2 61/1/2 62/1/2
f 61/2/2 57/2/2 63/2/2
f 62/1/2 61/1/2 63/1/2
f 63/2/2 57/2/2 64/2/2
f 65/1/2 66/1/2 67/1/2
f 65/1/2 67/1/2 68/1/2
f 68/1/2 67/1/2 69/1/2
f 70/2/2 71/2/2 72/2/2
f 72/2/2 71/2/2 73/2/2
f 72/1/2 73/1/2 74/1/2
f 74/1/2 73/1/2 75/1/2
f 76/2/2 77/2/2 78/2/2
f 78/2/2 77/2/2 79/2/2
f 80/2/2 81/2/2 82/2/2
f 82/2/2 81/2/2 83/2/2
f 84/2/2 85/2/2 86/2/2
f 86/2/2 85/2/2 87/2/2
f 88/1/2 89/1/2 90/1/2
f 90/1/2 89/1/2 91/1/2
f 92/2/2 93/2/2 95/2/2
f 93/1/2 94/1/2 96/1/2
f 95/2/2 93/2/2 96/2/2
f 96/1/2 94/1/2 97/1/2
f 95/1/2 96/1/2 98/1/2
f 96/2/2 97/2/2 99/2/2
f 98/1/2 96/1/2 99/1/2
f 99/2/2 97/2/2 100/2/2
f 105/1/3 102/1/3 101/1/3
f 106/2/3 103/2/3 102/2/3
f 106/1/3 102/1/3 105/1/3
f 107/2/3 103/2/3 106/2/3
f 108/1/3 104/1/3 103/1/3
f 109/1/3 104/1/3 108/1/3
f 110/2/3 106/2/3 105/2/3
f 111/1/3 107/1/3 106/1/3
f 111/2/3 106/2/3 110/2/3
f 112/2/3 103/2/3 107/2/3
f 112/1/3 107/1/3 111/1/3
f 113/1/3 108/1/3 103/1/3
f 113/2/3 103/2/3 112/2/3
f 114/1/3 108/1/3 113/1/3
f 118/2/3 116/2/3 115/2/3
f 119/1/3 117/1/3 116/1/3
f 119/2/3 116/2/3 118/2/3
f 120/1/3 119/1/3 118/1/3
f 121/1/3 117/1/3 119/1/3
f 121/1/3 119/1/3 120/1/3
f 125/1/3 123/1/3 122/1/3
f 126/2/3 124/2/3 123/2/3
f 126/1/3 123/1/3 125/1/3
f 127/2/3 124/2/3 126/2/3
f 128/2/3 126/2/3 125/2/3
f 129/1/3 127/1/3 126/1/3
f 129/2/3 126/2/3 128/2/3
f 130/1/3 127/1/3 129/1/3
f 134/1/3 132/1/3 131/1/3
f 135/2/3 133/2/3 132/2/3
f 135/1/3 132/1/3 134/1/3
f 136/2/3 133/2/3 135/2/3
f 137/2/3 135/2/3 134/2/3
f 138/2/3 135/2/3 137/2/3
f 142/2/3 140/2/3 139/2/3
f 143/2/3 142/2/3 141/2/3
f 144/2/3 140/2/3 142/2/3
f 144/2/3 142/2/3 143/2/3
f 145/2/3 140/2/3 144/2/3
f 146/1/3 144/1/3 143/1/3
f 147/1/3 144/1/3 146/1/3
f 151/2/3 149/2/3 148/2/3
f 152/2/3 149/2/3 151/2/3
f 153/2/3 151/2/3 150/2/3
f 154/1/3 152/1/3 151/1/3
f 154/2/3 151/2/3 153/2/3
f 155/1/3 152/1/3 154/1/3
f 157/1/4 158/1/4 161/1/4
f 158/2/4 159/2/4 162/2/4
f 161/1/4 158/1/4 162/1/4
f 159/1/4 160/1/4 163/1/4
f 162/2/4 159/2/4 163/2/4
f 163/1/4 160/1/4 164/1/4
f 156/2/4 157/2/4 165/2/4
f 157/1/4 161/1/4 166/1/4
f 165/2/4 157/2/4 166/2/4
f 161/2/4 162/2/4 167/2/4
f 166/1/4 161/1/4 167/1/4
f 162/2/4 163/2/4 167/2/4
f 167/2/4 163/2/4 168/2/4
f 169/2/4 170/2/4 172/2/4
f 170/1/4 171/1/4 173/1/4
f 172/2/4 170/2/4 173/2/4
f 173/1/4 171/1/4 174/1/4
f 173/2/4 174/2/4 175/2/4
f 175/2/4 174/2/4 176/2/4
f 177/2/4 178/2/4 179/2/4
f 177/2/4 179/2/4 181/2/4
f 179/2/4 180/2/4 181/2/4
f 181/2/4 180/2/4 182/2/4
f 183/2/4 184/2/4 185/2/4
f 185/2/4 184/2/4 186/2/4
f 186/2/4 184/2/4 187/2/4
f 188/2/4 189/2/4 191/2/4
f 189/1/4 190/1/4 192/1/4
f 191/2/4 189/2/4 192/2/4
f 192/1/4 190/1/4 193/1/4
f 194/2/4 195/2/4 197/2/4
f 195/1/4 196/1/4 198/1/4
f 197/2/4 195/2/4 198/2/4
f 198/1/4 196/1/4 199/1/4
f 197/1/4 198/1/4 200/1/4
f 198/2/4 199/2/4 201/2/4
f 200/1/4 198/1/4 201/1/4
f 201/2/4 199/2/4 202/2/4
f 206/1/5 204/1/5 203/1/5
f 207/2/5 205/2/5 204/2/5
f 207/1/5 204/1/5 206/1/5
f 208/2/5 207/2/5 206/2/5
f 209/2/5 205/2/5 207/2/5
f 209/2/5 207/2/5 208/2/5
f 213/2/5 211/2/5 210/2/5
f 213/1/5 212/1/5 211/1/5
f 214/1/5 212/1/5 213/1/5
f 217/2/5 213/2/5 210/2/5
f 217/2/5 214/2/5 213/2/5
f 218/2/5 214/2/5 217/2/5
f 219/1/5 215/1/5 214/1/5
f 219/2/5 214/2/5 218/2/5
f 220/2/5 216/2/5 215/2/5
f 220/1/5 215/1/5 219/1/5
f 221/2/5 216/2/5 220/2/5
f 224/2/5 219/2/5 218/2/5
f 224/2/5 220/2/5 219/2/5
f 224/2/5 221/2/5 220/2/5
f 225/1/5 222/1/5 221/1/5
f 225/2/5 221/2/5 224/2/5
f 226/2/5 223/2/5 222/2/5
f 226/1/5 222/1/5 225/1/5
f 227/2/5 223/2/5 226/2/5
f 230/2/5 226/2/5 225/2/5
f 230/2/5 228/2/5 227/2/5
f 230/2/5 227/2/5 226/2/5
f 231/2/5 228/2/5 230/2/5
f 232/1/5 229/1/5 228/1/5
f 232/2/5 228/2/5 231/2/5
f 233/1/5 229/1/5 232/1/5
f 235/2/5 234/2/5 233/2/5
f 235/2/5 233/2/5 232/2/5
f 235/2/5 232/2/5 231/2/5
f 236/2/5 234/2/5 235/2/5
f 237/2/5 234/2/5 236/2/5
f 238/2/5 234/2/5 237/2/5
f 239/2/5 237/2/5 236/2/5
f 240/1/5 238/1/5 237/1/5
f 240/2/5 237/2/5 239/2/5
f 241/1/5 238/1/5 240/1/5
f 242/2/6 243/2/6 246/2/6
f 246/2/6 243/2/6 247/2/6
f 244/2/6 245/2/6 248/2/6
f 248/2/6 245/2/6 249/2/6
f 250/1/6 251/1/6 252/1/6
f 252/1/6 251/1/6 253/1/6
f 254/1/6 255/1/6 256/1/6
f 256/1/6 255/1/6 257/1/6
f 254/1/6 256/1/6 260/1/6
f 256/2/6 257/2/6 261/2/6
f 260/1/6 256/1/6 261/1/6
f 257/2/6 258/2/6 261/2/6
f 261/2/6 258/2/6 262/2/6
f 258/1/6 259/1/6 263/1/6
f 262/2/6 258/2/6 263/2/6
f 263/1/6 259/1/6 264/1/6
f 264/2/6 265/2/6 266/2/6
f 263/2/6 264/2/6 266/2/6
f 262/2/6 263/2/6 266/2/6
f 266/2/6 265/2/6 267/2/6
f 267/2/6 265/2/6 268/2/6
f 268/2/6 269/2/6 270/2/6
f 267/2/6 268/2/6 270/2/6
f 270/2/6 269/2/6 271/2/6
f 271/2/6 269/2/6 272/2/6
f 271/1/6 272/1/6 275/1/6
f 272/2/6 273/2/6 276/2/6
f 275/1/6 272/1/6 276/1/6
f 273/1/6 274/1/6 277/1/6
f 276/2/6 273/2/6 277/2/6
f 277/1/6 274/1/6 278/1/6
f 276/1/6 277/1/6 279/1/6
f 277/2/6 278/2/6 280/2/6
f 279/1/6 277/1/6 280/1/6
f 280/2/6 278/2/6 281/2/6
f 282/1/6 283/1/6 284/1/6
f 284/1/6 283/1/6 285/1/6
f 284/2/6 285/2/6 286/2/6
f 286/2/6 285/2/6 287/2/6
f 288/1/6 289/1/6 290/1/6
f 290/1/6 289/1/6 291/1/6
