# MagicaVoxel @ Ephtracy

# group
o shovel

# material
mtllib church-72-shovel.mtl
usemtl palette

# normals
vn -1 0 0
vn 1 0 0
vn 0 0 1
vn 0 0 -1
vn 0 -1 0
vn 0 1 0

# texcoords
vt 0.189453 0.5
vt 0.224609 0.5
vt 0.966797 0.5

# verts
v 8.4 0 -0.5
v 8.4 0 -0.7
v 8.4 0.1 -0.5
v 8.4 0.1 -0.7
v 8.5 0 -0.4
v 8.5 0 -0.5
v 8.5 0 -0.7
v 8.5 0 -0.8
v 8.5 0.1 -0.4
v 8.5 0.1 -0.5
v 8.5 0.1 -0.6
v 8.5 0.1 -0.7
v 8.5 0.1 -0.8
v 8.5 0.2 -0.5
v 8.5 0.2 -0.6
v 8.6 0.1 -0.4
v 8.6 0.1 -0.5
v 8.6 0.1 -0.6
v 8.6 0.1 -0.7
v 8.6 0.2 -0.5
v 8.6 0.2 -0.6
v 8.6 0.4 -0.4
v 8.6 0.4 -0.5
v 8.6 0.4 -0.6
v 8.6 0.4 -0.7
v 8.6 1.3 -0.5
v 8.6 1.3 -0.6
v 8.7 0 -0.3
v 8.7 0 -0.4
v 8.7 0.1 -0.3
v 8.7 0.1 -0.4
v 8.7 0 -0.7
v 8.7 0 -0.8
v 8.7 0.1 -0.4
v 8.7 0.1 -0.5
v 8.7 0.1 -0.6
v 8.7 0.1 -0.7
v 8.7 0.1 -0.8
v 8.7 0.2 -0.5
v 8.7 0.2 -0.6
v 8.7 0.4 -0.4
v 8.7 0.4 -0.5
v 8.7 0.4 -0.6
v 8.7 0.4 -0.7
v 8.7 1.3 -0.5
v 8.7 1.3 -0.6
v 8.8 0 -0.3
v 8.8 0 -0.4
v 8.8 0 -0.5
v 8.8 0 -0.7
v 8.8 0.1 -0.3
v 8.8 0.1 -0.4
v 8.8 0.1 -0.5
v 8.8 0.1 -0.6
v 8.8 0.1 -0.7
v 8.8 0.2 -0.5
v 8.8 0.2 -0.6
v 8.9 0 -0.4
v 8.9 0 -0.5
v 8.9 0.1 -0.4
v 8.9 0.1 -0.5
v 8.7 0 -0.3
v 8.7 0.1 -0.3
v 8.8 0 -0.3
v 8.8 0.1 -0.3
v 8.5 0 -0.4
v 8.5 0.1 -0.4
v 8.6 0 -0.4
v 8.6 0.1 -0.4
v 8.6 0.4 -0.4
v 8.7 0 -0.4
v 8.7 0.1 -0.4
v 8.7 0.4 -0.4
v 8.8 0 -0.4
v 8.8 0.1 -0.4
v 8.9 0 -0.4
v 8.9 0.1 -0.4
v 8.4 0 -0.5
v 8.4 0.1 -0.5
v 8.5 0 -0.5
v 8.5 0.1 -0.5
v 8.5 0.2 -0.5
v 8.6 0.1 -0.5
v 8.6 0.2 -0.5
v 8.6 0.4 -0.5
v 8.6 1.3 -0.5
v 8.7 0.1 -0.5
v 8.7 0.2 -0.5
v 8.7 0.4 -0.5
v 8.7 1.3 -0.5
v 8.8 0.1 -0.5
v 8.8 0.2 -0.5
v 8.8 0 -0.5
v 8.8 0.1 -0.5
v 8.9 0 -0.5
v 8.9 0.1 -0.5
v 8.5 0.1 -0.6
v 8.5 0.2 -0.6
v 8.6 0.1 -0.6
v 8.6 0.2 -0.6
v 8.6 0.4 -0.6
v 8.6 1.3 -0.6
v 8.7 0.1 -0.6
v 8.7 0.2 -0.6
v 8.7 0.4 -0.6
v 8.7 1.3 -0.6
v 8.8 0.1 -0.6
v 8.8 0.2 -0.6
v 8.4 0 -0.7
v 8.4 0.1 -0.7
v 8.5 0 -0.7
v 8.5 0.1 -0.7
v 8.6 0.1 -0.7
v 8.6 0.4 -0.7
v 8.7 0 -0.7
v 8.7 0.1 -0.7
v 8.7 0.4 -0.7
v 8.8 0 -0.7
v 8.8 0.1 -0.7
v 8.5 0 -0.8
v 8.5 0.1 -0.8
v 8.7 0 -0.8
v 8.7 0.1 -0.8
v 8.7 0 -0.3
v 8.8 0 -0.3
v 8.5 0 -0.4
v 8.6 0 -0.4
v 8.7 0 -0.4
v 8.8 0 -0.4
v 8.9 0 -0.4
v 8.4 0 -0.5
v 8.5 0 -0.5
v 8.8 0 -0.5
v 8.9 0 -0.5
v 8.4 0 -0.7
v 8.5 0 -0.7
v 8.6 0 -0.7
v 8.7 0 -0.7
v 8.8 0 -0.7
v 8.5 0 -0.8
v 8.7 0 -0.8
v 8.7 0.1 -0.3
v 8.8 0.1 -0.3
v 8.5 0.1 -0.4
v 8.6 0.1 -0.4
v 8.7 0.1 -0.4
v 8.8 0.1 -0.4
v 8.9 0.1 -0.4
v 8.4 0.1 -0.5
v 8.5 0.1 -0.5
v 8.6 0.1 -0.5
v 8.7 0.1 -0.5
v 8.8 0.1 -0.5
v 8.9 0.1 -0.5
v 8.5 0.1 -0.6
v 8.6 0.1 -0.6
v 8.7 0.1 -0.6
v 8.8 0.1 -0.6
v 8.4 0.1 -0.7
v 8.5 0.1 -0.7
v 8.6 0.1 -0.7
v 8.7 0.1 -0.7
v 8.8 0.1 -0.7
v 8.5 0.1 -0.8
v 8.7 0.1 -0.8
v 8.5 0.2 -0.5
v 8.6 0.2 -0.5
v 8.7 0.2 -0.5
v 8.8 0.2 -0.5
v 8.5 0.2 -0.6
v 8.6 0.2 -0.6
v 8.7 0.2 -0.6
v 8.8 0.2 -0.6
v 8.6 0.4 -0.4
v 8.7 0.4 -0.4
v 8.6 0.4 -0.5
v 8.7 0.4 -0.5
v 8.6 0.4 -0.6
v 8.7 0.4 -0.6
v 8.6 0.4 -0.7
v 8.7 0.4 -0.7
v 8.6 1.3 -0.5
v 8.7 1.3 -0.5
v 8.6 1.3 -0.6
v 8.7 1.3 -0.6

# faces
f 3/2/1 2/2/1 1/2/1
f 4/2/1 2/2/1 3/2/1
f 9/2/1 6/2/1 5/2/1
f 10/2/1 6/2/1 9/2/1
f 12/2/1 8/2/1 7/2/1
f 13/2/1 8/2/1 12/2/1
f 14/2/1 11/2/1 10/2/1
f 15/2/1 11/2/1 14/2/1
f 20/3/1 17/3/1 16/3/1
f 21/3/1 19/3/1 18/3/1
f 22/3/1 20/3/1 16/3/1
f 22/3/1 21/3/1 20/3/1
f 23/3/1 21/3/1 22/3/1
f 24/3/1 19/3/1 21/3/1
f 24/3/1 21/3/1 23/3/1
f 25/3/1 19/3/1 24/3/1
f 26/1/1 24/1/1 23/1/1
f 27/1/1 24/1/1 26/1/1
f 30/2/1 29/2/1 28/2/1
f 31/2/1 29/2/1 30/2/1
f 32/2/2 33/2/2 37/2/2
f 37/2/2 33/2/2 38/2/2
f 34/3/2 35/3/2 39/3/2
f 36/3/2 37/3/2 40/3/2
f 34/3/2 39/3/2 41/3/2
f 39/3/2 40/3/2 41/3/2
f 41/3/2 40/3/2 42/3/2
f 40/3/2 37/3/2 43/3/2
f 42/3/2 40/3/2 43/3/2
f 43/3/2 37/3/2 44/3/2
f 42/1/2 43/1/2 45/1/2
f 45/1/2 43/1/2 46/1/2
f 47/2/2 48/2/2 51/2/2
f 51/2/2 48/2/2 52/2/2
f 49/2/2 50/2/2 53/2/2
f 53/2/2 50/2/2 54/2/2
f 54/2/2 50/2/2 55/2/2
f 53/2/2 54/2/2 56/2/2
f 56/2/2 54/2/2 57/2/2
f 58/2/2 59/2/2 60/2/2
f 60/2/2 59/2/2 61/2/2
f 64/2/3 63/2/3 62/2/3
f 65/2/3 63/2/3 64/2/3
f 68/2/3 67/2/3 66/2/3
f 69/2/3 67/2/3 68/2/3
f 71/3/3 69/3/3 68/3/3
f 71/3/3 70/3/3 69/3/3
f 72/3/3 70/3/3 71/3/3
f 73/3/3 70/3/3 72/3/3
f 76/2/3 75/2/3 74/2/3
f 77/2/3 75/2/3 76/2/3
f 80/2/3 79/2/3 78/2/3
f 81/2/3 79/2/3 80/2/3
f 83/2/3 82/2/3 81/2/3
f 84/2/3 82/2/3 83/2/3
f 89/1/3 86/1/3 85/1/3
f 90/1/3 86/1/3 89/1/3
f 91/2/3 88/2/3 87/2/3
f 92/2/3 88/2/3 91/2/3
f 93/2/4 94/2/4 95/2/4
f 95/2/4 94/2/4 96/2/4
f 97/2/4 98/2/4 99/2/4
f 99/2/4 98/2/4 100/2/4
f 101/1/4 102/1/4 105/1/4
f 105/1/4 102/1/4 106/1/4
f 103/2/4 104/2/4 107/2/4
f 107/2/4 104/2/4 108/2/4
f 109/2/4 110/2/4 111/2/4
f 111/2/4 110/2/4 112/2/4
f 113/3/4 114/3/4 116/3/4
f 116/3/4 114/3/4 117/3/4
f 115/2/4 116/2/4 118/2/4
f 118/2/4 116/2/4 119/2/4
f 120/2/4 121/2/4 122/2/4
f 122/2/4 121/2/4 123/2/4
f 128/2/5 125/2/5 124/2/5
f 129/2/5 125/2/5 128/2/5
f 132/2/5 127/2/5 126/2/5
f 133/2/5 130/2/5 129/2/5
f 133/2/5 129/2/5 128/2/5
f 134/2/5 130/2/5 133/2/5
f 135/2/5 132/2/5 131/2/5
f 136/2/5 127/2/5 132/2/5
f 136/2/5 132/2/5 135/2/5
f 137/3/5 128/3/5 127/3/5
f 137/2/5 127/2/5 136/2/5
f 138/2/5 133/2/5 128/2/5
f 138/3/5 128/3/5 137/3/5
f 139/2/5 133/2/5 138/2/5
f 140/2/5 137/2/5 136/2/5
f 140/2/5 138/2/5 137/2/5
f 141/2/5 138/2/5 140/2/5
f 142/2/6 143/2/6 146/2/6
f 146/2/6 143/2/6 147/2/6
f 144/2/6 145/2/6 150/2/6
f 150/2/6 145/2/6 151/2/6
f 147/2/6 148/2/6 152/2/6
f 146/2/6 147/2/6 152/2/6
f 152/2/6 148/2/6 153/2/6
f 153/2/6 148/2/6 154/2/6
f 149/2/6 150/2/6 155/2/6
f 149/2/6 155/2/6 159/2/6
f 155/2/6 156/2/6 159/2/6
f 159/2/6 156/2/6 160/2/6
f 160/2/6 156/2/6 161/2/6
f 157/2/6 158/2/6 162/2/6
f 162/2/6 158/2/6 163/2/6
f 160/2/6 161/2/6 164/2/6
f 161/2/6 162/2/6 164/2/6
f 164/2/6 162/2/6 165/2/6
f 166/2/6 167/2/6 170/2/6
f 170/2/6 167/2/6 171/2/6
f 168/2/6 169/2/6 172/2/6
f 172/2/6 169/2/6 173/2/6
f 174/3/6 175/3/6 176/3/6
f 176/3/6 175/3/6 177/3/6
f 178/3/6 179/3/6 180/3/6
f 180/3/6 179/3/6 181/3/6
f 182/1/6 183/1/6 184/1/6
f 184/1/6 183/1/6 185/1/6
