# MagicaVoxel @ Ephtracy

# group
o 

# material
mtllib Interior_Furniture_Table_SideTable_Big_03.mtl
usemtl palette

# normals
vn -1 0 0
vn 1 0 0
vn 0 0 1
vn 0 0 -1
vn 0 -1 0
vn 0 1 0

# texcoords
vt 0.876953 0.5
vt 0.880859 0.5
vt 0.884766 0.5
vt 0.888672 0.5
vt 0.892578 0.5
vt 0.896484 0.5
vt 0.900391 0.5

# verts
v -0.7 0.9 0.5
v -0.7 0.9 0.4
v -0.7 0.9 0.3
v -0.7 0.9 -0.4
v -0.7 0.9 -0.5
v -0.7 0.9 -0.6
v -0.7 1 0.5
v -0.7 1 0.4
v -0.7 1 0.3
v -0.7 1 -0.4
v -0.7 1 -0.5
v -0.7 1 -0.6
v -0.6 0 0.5
v -0.6 0 0.4
v -0.6 0 -0.5
v -0.6 0 -0.6
v -0.6 0.1 0.5
v -0.6 0.1 0.4
v -0.6 0.1 -0.5
v -0.6 0.1 -0.6
v -0.6 0.9 0.6
v -0.6 0.9 0.5
v -0.6 0.9 0.4
v -0.6 0.9 0.3
v -0.6 0.9 -0.4
v -0.6 0.9 -0.5
v -0.6 0.9 -0.6
v -0.6 0.9 -0.7
v -0.6 1 0.6
v -0.6 1 0.5
v -0.6 1 0.4
v -0.6 1 0.3
v -0.6 1 -0.4
v -0.6 1 -0.5
v -0.6 1 -0.6
v -0.6 1 -0.7
v -0.6 1.1 0.5
v -0.6 1.1 0.4
v -0.6 1.1 0.3
v -0.6 1.1 -0.4
v -0.6 1.1 -0.5
v -0.6 1.1 -0.6
v 0.4 0.1 0.3
v 0.4 0.1 0.2
v 0.4 0.2 0.3
v 0.4 0.3 0.3
v 0.4 0.4 0.3
v 0.4 0.5 0.3
v 0.4 0.6 0.3
v 0.4 0.7 0.3
v 0.4 0.8 0.3
v 0.4 0.8 0.2
v 0.5 0 0.5
v 0.5 0 0.4
v 0.5 0.1 0.5
v 0.5 0.1 0.4
v 0.5 0.1 0.2
v 0.5 0.1 -0.5
v 0.5 0.8 0.4
v 0.5 0.8 0.2
v 0.5 0.8 0.1
v 0.5 0.9 0.5
v 0.5 0.9 0.4
v 0.5 0.9 0.1
v 0.5 0.9 -0.5
v -0.5 0 0.5
v -0.5 0 0.4
v -0.5 0.1 0.5
v -0.5 0.1 0.4
v -0.5 0.1 0.2
v -0.5 0.1 -0.5
v -0.5 0.8 0.4
v -0.5 0.8 0.2
v -0.5 0.8 0.1
v -0.5 0.9 0.5
v -0.5 0.9 0.4
v -0.5 0.9 0.1
v -0.5 0.9 -0.5
v -0.4 0.1 0.3
v -0.4 0.1 0.2
v -0.4 0.2 0.3
v -0.4 0.3 0.3
v -0.4 0.4 0.3
v -0.4 0.5 0.3
v -0.4 0.6 0.3
v -0.4 0.7 0.3
v -0.4 0.8 0.3
v -0.4 0.8 0.2
v 0.6 0 0.5
v 0.6 0 0.4
v 0.6 0 -0.5
v 0.6 0 -0.6
v 0.6 0.1 0.5
v 0.6 0.1 0.4
v 0.6 0.1 -0.5
v 0.6 0.1 -0.6
v 0.6 0.9 0.6
v 0.6 0.9 0.5
v 0.6 0.9 0.4
v 0.6 0.9 0.3
v 0.6 0.9 -0.4
v 0.6 0.9 -0.5
v 0.6 0.9 -0.6
v 0.6 0.9 -0.7
v 0.6 1 0.6
v 0.6 1 0.5
v 0.6 1 0.4
v 0.6 1 0.3
v 0.6 1 -0.4
v 0.6 1 -0.5
v 0.6 1 -0.6
v 0.6 1 -0.7
v 0.6 1.1 0.5
v 0.6 1.1 0.4
v 0.6 1.1 0.3
v 0.6 1.1 -0.4
v 0.6 1.1 -0.5
v 0.6 1.1 -0.6
v 0.7 0.9 0.5
v 0.7 0.9 0.4
v 0.7 0.9 0.3
v 0.7 0.9 -0.4
v 0.7 0.9 -0.5
v 0.7 0.9 -0.6
v 0.7 1 0.5
v 0.7 1 0.4
v 0.7 1 0.3
v 0.7 1 -0.4
v 0.7 1 -0.5
v 0.7 1 -0.6
v -0.6 0.9 0.6
v -0.6 1 0.6
v -0.5 0.9 0.6
v -0.5 1 0.6
v -0.4 0.9 0.6
v -0.4 1 0.6
v 0.4 0.9 0.6
v 0.4 1 0.6
v 0.5 0.9 0.6
v 0.5 1 0.6
v 0.6 0.9 0.6
v 0.6 1 0.6
v -0.7 0.9 0.5
v -0.7 1 0.5
v -0.6 0 0.5
v -0.6 0.1 0.5
v -0.6 0.9 0.5
v -0.6 1 0.5
v -0.6 1.1 0.5
v -0.5 0 0.5
v -0.5 0.1 0.5
v -0.5 0.9 0.5
v -0.5 1 0.5
v -0.5 1.1 0.5
v -0.4 1 0.5
v -0.4 1.1 0.5
v 0.4 1 0.5
v 0.4 1.1 0.5
v 0.5 0 0.5
v 0.5 0.1 0.5
v 0.5 0.9 0.5
v 0.5 1 0.5
v 0.5 1.1 0.5
v 0.6 0 0.5
v 0.6 0.1 0.5
v 0.6 0.9 0.5
v 0.6 1 0.5
v 0.6 1.1 0.5
v 0.7 0.9 0.5
v 0.7 1 0.5
v -0.5 0 0.4
v -0.5 0.1 0.4
v -0.5 0.8 0.4
v -0.5 0.9 0.4
v -0.4 0 0.4
v -0.4 0.1 0.4
v -0.4 0.2 0.4
v -0.4 0.3 0.4
v -0.4 0.4 0.4
v -0.4 0.5 0.4
v -0.4 0.6 0.4
v -0.4 0.7 0.4
v -0.4 0.8 0.4
v -0.4 0.9 0.4
v -0.3 0.1 0.4
v -0.3 0.2 0.4
v -0.3 0.3 0.4
v -0.3 0.4 0.4
v -0.3 0.5 0.4
v -0.3 0.6 0.4
v -0.3 0.7 0.4
v -0.3 0.8 0.4
v -0.2 0.1 0.4
v -0.2 0.2 0.4
v -0.2 0.3 0.4
v -0.2 0.4 0.4
v -0.2 0.5 0.4
v -0.2 0.6 0.4
v -0.2 0.7 0.4
v -0.2 0.8 0.4
v -0.1 0.1 0.4
v -0.1 0.2 0.4
v -0.1 0.3 0.4
v -0.1 0.4 0.4
v -0.1 0.5 0.4
v -0.1 0.6 0.4
v -0.1 0.7 0.4
v -0.1 0.8 0.4
v 0 0.1 0.4
v 0 0.2 0.4
v 0 0.3 0.4
v 0 0.4 0.4
v 0 0.5 0.4
v 0 0.6 0.4
v 0 0.7 0.4
v 0 0.8 0.4
v 0.1 0.1 0.4
v 0.1 0.2 0.4
v 0.1 0.3 0.4
v 0.1 0.4 0.4
v 0.1 0.5 0.4
v 0.1 0.6 0.4
v 0.1 0.7 0.4
v 0.1 0.8 0.4
v 0.2 0.1 0.4
v 0.2 0.2 0.4
v 0.2 0.3 0.4
v 0.2 0.4 0.4
v 0.2 0.5 0.4
v 0.2 0.6 0.4
v 0.2 0.7 0.4
v 0.2 0.8 0.4
v 0.3 0.1 0.4
v 0.3 0.2 0.4
v 0.3 0.3 0.4
v 0.3 0.4 0.4
v 0.3 0.5 0.4
v 0.3 0.6 0.4
v 0.3 0.7 0.4
v 0.3 0.8 0.4
v 0.4 0 0.4
v 0.4 0.1 0.4
v 0.4 0.2 0.4
v 0.4 0.3 0.4
v 0.4 0.4 0.4
v 0.4 0.5 0.4
v 0.4 0.6 0.4
v 0.4 0.7 0.4
v 0.4 0.8 0.4
v 0.4 0.9 0.4
v 0.5 0 0.4
v 0.5 0.1 0.4
v 0.5 0.8 0.4
v 0.5 0.9 0.4
v -0.5 0.1 -0.5
v -0.5 0.9 -0.5
v 0.5 0.1 -0.5
v 0.5 0.9 -0.5
v -0.4 0.1 0.3
v -0.4 0.2 0.3
v -0.4 0.3 0.3
v -0.4 0.4 0.3
v -0.4 0.5 0.3
v -0.4 0.6 0.3
v -0.4 0.7 0.3
v -0.4 0.8 0.3
v -0.3 0.1 0.3
v -0.3 0.2 0.3
v -0.3 0.3 0.3
v -0.3 0.4 0.3
v -0.3 0.5 0.3
v -0.3 0.6 0.3
v -0.3 0.7 0.3
v -0.3 0.8 0.3
v -0.2 0.1 0.3
v -0.2 0.2 0.3
v -0.2 0.3 0.3
v -0.2 0.4 0.3
v -0.2 0.5 0.3
v -0.2 0.6 0.3
v -0.2 0.7 0.3
v -0.2 0.8 0.3
v -0.1 0.1 0.3
v -0.1 0.2 0.3
v -0.1 0.3 0.3
v -0.1 0.4 0.3
v -0.1 0.5 0.3
v -0.1 0.6 0.3
v -0.1 0.7 0.3
v -0.1 0.8 0.3
v 0 0.1 0.3
v 0 0.2 0.3
v 0 0.3 0.3
v 0 0.4 0.3
v 0 0.5 0.3
v 0 0.6 0.3
v 0 0.7 0.3
v 0 0.8 0.3
v 0.1 0.1 0.3
v 0.1 0.2 0.3
v 0.1 0.3 0.3
v 0.1 0.4 0.3
v 0.1 0.5 0.3
v 0.1 0.6 0.3
v 0.1 0.7 0.3
v 0.1 0.8 0.3
v 0.2 0.1 0.3
v 0.2 0.2 0.3
v 0.2 0.3 0.3
v 0.2 0.4 0.3
v 0.2 0.5 0.3
v 0.2 0.6 0.3
v 0.2 0.7 0.3
v 0.2 0.8 0.3
v 0.3 0.1 0.3
v 0.3 0.2 0.3
v 0.3 0.3 0.3
v 0.3 0.4 0.3
v 0.3 0.5 0.3
v 0.3 0.6 0.3
v 0.3 0.7 0.3
v 0.3 0.8 0.3
v 0.4 0.1 0.3
v 0.4 0.2 0.3
v 0.4 0.3 0.3
v 0.4 0.4 0.3
v 0.4 0.5 0.3
v 0.4 0.6 0.3
v 0.4 0.7 0.3
v 0.4 0.8 0.3
v -0.5 0.1 0.2
v -0.5 0.8 0.2
v -0.4 0.1 0.2
v -0.4 0.8 0.2
v 0.4 0.1 0.2
v 0.4 0.8 0.2
v 0.5 0.1 0.2
v 0.5 0.8 0.2
v -0.5 0.8 0.1
v -0.5 0.9 0.1
v -0.4 0.8 0.1
v -0.4 0.9 0.1
v 0.4 0.8 0.1
v 0.4 0.9 0.1
v 0.5 0.8 0.1
v 0.5 0.9 0.1
v -0.7 0.9 -0.6
v -0.7 1 -0.6
v -0.6 0 -0.6
v -0.6 0.1 -0.6
v -0.6 0.9 -0.6
v -0.6 1 -0.6
v -0.6 1.1 -0.6
v -0.5 0 -0.6
v -0.5 0.1 -0.6
v -0.5 0.9 -0.6
v -0.5 1 -0.6
v -0.5 1.1 -0.6
v -0.4 0.9 -0.6
v -0.4 1 -0.6
v -0.4 1.1 -0.6
v 0.4 0.9 -0.6
v 0.4 1 -0.6
v 0.4 1.1 -0.6
v 0.5 0 -0.6
v 0.5 0.1 -0.6
v 0.5 0.9 -0.6
v 0.5 1 -0.6
v 0.5 1.1 -0.6
v 0.6 0 -0.6
v 0.6 0.1 -0.6
v 0.6 0.9 -0.6
v 0.6 1 -0.6
v 0.6 1.1 -0.6
v 0.7 0.9 -0.6
v 0.7 1 -0.6
v -0.6 0.9 -0.7
v -0.6 1 -0.7
v -0.5 0.9 -0.7
v -0.5 1 -0.7
v -0.4 0.9 -0.7
v -0.4 1 -0.7
v 0.4 0.9 -0.7
v 0.4 1 -0.7
v 0.5 0.9 -0.7
v 0.5 1 -0.7
v 0.6 0.9 -0.7
v 0.6 1 -0.7
v -0.6 0 0.5
v -0.5 0 0.5
v 0.5 0 0.5
v 0.6 0 0.5
v -0.6 0 0.4
v -0.5 0 0.4
v -0.4 0 0.4
v 0.4 0 0.4
v 0.5 0 0.4
v 0.6 0 0.4
v -0.5 0 0.3
v -0.4 0 0.3
v 0.4 0 0.3
v 0.5 0 0.3
v -0.6 0 -0.5
v -0.5 0 -0.5
v 0.5 0 -0.5
v 0.6 0 -0.5
v -0.6 0 -0.6
v -0.5 0 -0.6
v 0.5 0 -0.6
v 0.6 0 -0.6
v -0.4 0.8 0.3
v -0.3 0.8 0.3
v -0.2 0.8 0.3
v -0.1 0.8 0.3
v 0 0.8 0.3
v 0.1 0.8 0.3
v 0.2 0.8 0.3
v 0.3 0.8 0.3
v 0.4 0.8 0.3
v -0.5 0.8 0.2
v -0.4 0.8 0.2
v 0.4 0.8 0.2
v 0.5 0.8 0.2
v -0.5 0.8 0.1
v -0.4 0.8 0.1
v 0.4 0.8 0.1
v 0.5 0.8 0.1
v -0.6 0.9 0.6
v -0.5 0.9 0.6
v -0.4 0.9 0.6
v 0.4 0.9 0.6
v 0.5 0.9 0.6
v 0.6 0.9 0.6
v -0.7 0.9 0.5
v -0.6 0.9 0.5
v -0.5 0.9 0.5
v -0.4 0.9 0.5
v 0.4 0.9 0.5
v 0.5 0.9 0.5
v 0.6 0.9 0.5
v 0.7 0.9 0.5
v -0.7 0.9 0.4
v -0.6 0.9 0.4
v -0.5 0.9 0.4
v -0.4 0.9 0.4
v 0.4 0.9 0.4
v 0.5 0.9 0.4
v 0.6 0.9 0.4
v 0.7 0.9 0.4
v -0.7 0.9 0.3
v -0.6 0.9 0.3
v 0.6 0.9 0.3
v 0.7 0.9 0.3
v -0.5 0.9 0.1
v -0.4 0.9 0.1
v 0.4 0.9 0.1
v 0.5 0.9 0.1
v -0.7 0.9 -0.4
v -0.6 0.9 -0.4
v 0.6 0.9 -0.4
v 0.7 0.9 -0.4
v -0.7 0.9 -0.5
v -0.6 0.9 -0.5
v -0.5 0.9 -0.5
v 0.5 0.9 -0.5
v 0.6 0.9 -0.5
v 0.7 0.9 -0.5
v -0.7 0.9 -0.6
v -0.6 0.9 -0.6
v -0.5 0.9 -0.6
v -0.4 0.9 -0.6
v 0.4 0.9 -0.6
v 0.5 0.9 -0.6
v 0.6 0.9 -0.6
v 0.7 0.9 -0.6
v -0.6 0.9 -0.7
v -0.5 0.9 -0.7
v -0.4 0.9 -0.7
v 0.4 0.9 -0.7
v 0.5 0.9 -0.7
v 0.6 0.9 -0.7
v -0.4 0.1 0.3
v -0.3 0.1 0.3
v -0.2 0.1 0.3
v -0.1 0.1 0.3
v 0 0.1 0.3
v 0.1 0.1 0.3
v 0.2 0.1 0.3
v 0.3 0.1 0.3
v 0.4 0.1 0.3
v -0.5 0.1 0.2
v -0.4 0.1 0.2
v 0.4 0.1 0.2
v 0.5 0.1 0.2
v -0.5 0.1 -0.5
v 0.5 0.1 -0.5
v -0.6 1 0.6
v -0.5 1 0.6
v -0.4 1 0.6
v 0.4 1 0.6
v 0.5 1 0.6
v 0.6 1 0.6
v -0.7 1 0.5
v -0.6 1 0.5
v -0.5 1 0.5
v -0.4 1 0.5
v 0.4 1 0.5
v 0.5 1 0.5
v 0.6 1 0.5
v 0.7 1 0.5
v -0.7 1 0.4
v -0.6 1 0.4
v 0.6 1 0.4
v 0.7 1 0.4
v -0.7 1 0.3
v -0.6 1 0.3
v 0.6 1 0.3
v 0.7 1 0.3
v -0.7 1 -0.4
v -0.6 1 -0.4
v 0.6 1 -0.4
v 0.7 1 -0.4
v -0.7 1 -0.5
v -0.6 1 -0.5
v 0.6 1 -0.5
v 0.7 1 -0.5
v -0.7 1 -0.6
v -0.6 1 -0.6
v -0.5 1 -0.6
v -0.4 1 -0.6
v 0.4 1 -0.6
v 0.5 1 -0.6
v 0.6 1 -0.6
v 0.7 1 -0.6
v -0.6 1 -0.7
v -0.5 1 -0.7
v -0.4 1 -0.7
v 0.4 1 -0.7
v 0.5 1 -0.7
v 0.6 1 -0.7
v -0.6 1.1 0.5
v -0.5 1.1 0.5
v -0.4 1.1 0.5
v 0.4 1.1 0.5
v 0.5 1.1 0.5
v 0.6 1.1 0.5
v -0.6 1.1 0.4
v -0.5 1.1 0.4
v -0.4 1.1 0.4
v 0.4 1.1 0.4
v 0.5 1.1 0.4
v 0.6 1.1 0.4
v -0.6 1.1 0.3
v -0.5 1.1 0.3
v 0.5 1.1 0.3
v 0.6 1.1 0.3
v -0.6 1.1 -0.4
v -0.5 1.1 -0.4
v 0.5 1.1 -0.4
v 0.6 1.1 -0.4
v -0.6 1.1 -0.5
v -0.5 1.1 -0.5
v -0.4 1.1 -0.5
v 0.4 1.1 -0.5
v 0.5 1.1 -0.5
v 0.6 1.1 -0.5
v -0.6 1.1 -0.6
v -0.5 1.1 -0.6
v -0.4 1.1 -0.6
v 0.4 1.1 -0.6
v 0.5 1.1 -0.6
v 0.6 1.1 -0.6

# faces
f 7/3/1 2/3/1 1/3/1
f 8/4/1 3/4/1 2/4/1
f 8/3/1 2/3/1 7/3/1
f 9/5/1 4/5/1 3/5/1
f 9/4/1 3/4/1 8/4/1
f 10/4/1 5/4/1 4/4/1
f 10/5/1 4/5/1 9/5/1
f 11/3/1 6/3/1 5/3/1
f 11/4/1 5/4/1 10/4/1
f 12/3/1 6/3/1 11/3/1
f 17/1/1 14/1/1 13/1/1
f 18/2/1 15/2/1 14/2/1
f 18/1/1 14/1/1 17/1/1
f 19/1/1 16/1/1 15/1/1
f 19/2/1 15/2/1 18/2/1
f 20/1/1 16/1/1 19/1/1
f 22/2/1 18/2/1 17/2/1
f 23/4/1 19/4/1 18/4/1
f 23/2/1 18/2/1 22/2/1
f 24/4/1 19/4/1 23/4/1
f 25/4/1 19/4/1 24/4/1
f 26/2/1 20/2/1 19/2/1
f 26/4/1 19/4/1 25/4/1
f 27/2/1 20/2/1 26/2/1
f 29/3/1 22/3/1 21/3/1
f 30/3/1 22/3/1 29/3/1
f 35/3/1 28/3/1 27/3/1
f 36/3/1 28/3/1 35/3/1
f 37/2/1 31/2/1 30/2/1
f 38/3/1 32/3/1 31/3/1
f 38/2/1 31/2/1 37/2/1
f 39/4/1 33/4/1 32/4/1
f 39/3/1 32/3/1 38/3/1
f 40/3/1 34/3/1 33/3/1
f 40/4/1 33/4/1 39/4/1
f 41/2/1 35/2/1 34/2/1
f 41/3/1 34/3/1 40/3/1
f 42/2/1 35/2/1 41/2/1
f 45/4/1 44/4/1 43/4/1
f 46/4/1 44/4/1 45/4/1
f 47/4/1 44/4/1 46/4/1
f 48/4/1 44/4/1 47/4/1
f 49/4/1 44/4/1 48/4/1
f 50/4/1 44/4/1 49/4/1
f 51/4/1 44/4/1 50/4/1
f 52/4/1 44/4/1 51/4/1
f 55/1/1 54/1/1 53/1/1
f 56/1/1 54/1/1 55/1/1
f 59/2/1 56/2/1 55/2/1
f 60/4/1 58/4/1 57/4/1
f 61/4/1 58/4/1 60/4/1
f 62/2/1 59/2/1 55/2/1
f 63/2/1 59/2/1 62/2/1
f 64/4/1 58/4/1 61/4/1
f 65/4/1 58/4/1 64/4/1
f 66/1/2 67/1/2 68/1/2
f 68/1/2 67/1/2 69/1/2
f 68/2/2 69/2/2 72/2/2
f 70/4/2 71/4/2 73/4/2
f 73/4/2 71/4/2 74/4/2
f 68/2/2 72/2/2 75/2/2
f 75/2/2 72/2/2 76/2/2
f 74/4/2 71/4/2 77/4/2
f 77/4/2 71/4/2 78/4/2
f 79/4/2 80/4/2 81/4/2
f 81/4/2 80/4/2 82/4/2
f 82/4/2 80/4/2 83/4/2
f 83/4/2 80/4/2 84/4/2
f 84/4/2 80/4/2 85/4/2
f 85/4/2 80/4/2 86/4/2
f 86/4/2 80/4/2 87/4/2
f 87/4/2 80/4/2 88/4/2
f 89/1/2 90/1/2 93/1/2
f 90/2/2 91/2/2 94/2/2
f 93/1/2 90/1/2 94/1/2
f 91/1/2 92/1/2 95/1/2
f 94/2/2 91/2/2 95/2/2
f 95/1/2 92/1/2 96/1/2
f 93/2/2 94/2/2 98/2/2
f 94/4/2 95/4/2 99/4/2
f 98/2/2 94/2/2 99/2/2
f 99/4/2 95/4/2 100/4/2
f 100/4/2 95/4/2 101/4/2
f 95/2/2 96/2/2 102/2/2
f 101/4/2 95/4/2 102/4/2
f 102/2/2 96/2/2 103/2/2
f 97/3/2 98/3/2 105/3/2
f 105/3/2 98/3/2 106/3/2
f 103/3/2 104/3/2 111/3/2
f 111/3/2 104/3/2 112/3/2
f 106/2/2 107/2/2 113/2/2
f 107/3/2 108/3/2 114/3/2
f 113/2/2 107/2/2 114/2/2
f 108/4/2 109/4/2 115/4/2
f 114/3/2 108/3/2 115/3/2
f 109/3/2 110/3/2 116/3/2
f 115/4/2 109/4/2 116/4/2
f 110/2/2 111/2/2 117/2/2
f 116/3/2 110/3/2 117/3/2
f 117/2/2 111/2/2 118/2/2
f 119/3/2 120/3/2 125/3/2
f 120/4/2 121/4/2 126/4/2
f 125/3/2 120/3/2 126/3/2
f 121/5/2 122/5/2 127/5/2
f 126/4/2 121/4/2 127/4/2
f 122/4/2 123/4/2 128/4/2
f 127/5/2 122/5/2 128/5/2
f 123/3/2 124/3/2 129/3/2
f 128/4/2 123/4/2 129/4/2
f 129/3/2 124/3/2 130/3/2
f 133/3/3 132/3/3 131/3/3
f 134/3/3 132/3/3 133/3/3
f 135/4/3 134/4/3 133/4/3
f 136/4/3 134/4/3 135/4/3
f 137/5/3 136/5/3 135/5/3
f 138/5/3 136/5/3 137/5/3
f 139/4/3 138/4/3 137/4/3
f 140/4/3 138/4/3 139/4/3
f 141/3/3 140/3/3 139/3/3
f 142/3/3 140/3/3 141/3/3
f 147/3/3 144/3/3 143/3/3
f 148/3/3 144/3/3 147/3/3
f 150/1/3 146/1/3 145/1/3
f 151/2/3 147/2/3 146/2/3
f 151/1/3 146/1/3 150/1/3
f 152/2/3 147/2/3 151/2/3
f 153/2/3 149/2/3 148/2/3
f 154/2/3 149/2/3 153/2/3
f 155/3/3 154/3/3 153/3/3
f 156/3/3 154/3/3 155/3/3
f 157/4/3 156/4/3 155/4/3
f 158/4/3 156/4/3 157/4/3
f 162/3/3 158/3/3 157/3/3
f 163/3/3 158/3/3 162/3/3
f 164/1/3 160/1/3 159/1/3
f 165/2/3 161/2/3 160/2/3
f 165/1/3 160/1/3 164/1/3
f 166/2/3 161/2/3 165/2/3
f 167/2/3 163/2/3 162/2/3
f 168/2/3 163/2/3 167/2/3
f 169/3/3 167/3/3 166/3/3
f 170/3/3 167/3/3 169/3/3
f 175/2/3 172/2/3 171/2/3
f 176/3/3 173/3/3 172/3/3
f 176/2/3 172/2/3 175/2/3
f 177/3/3 173/3/3 176/3/3
f 178/3/3 173/3/3 177/3/3
f 179/3/3 173/3/3 178/3/3
f 180/3/3 173/3/3 179/3/3
f 181/3/3 173/3/3 180/3/3
f 182/3/3 173/3/3 181/3/3
f 183/2/3 174/2/3 173/2/3
f 183/3/3 173/3/3 182/3/3
f 184/2/3 174/2/3 183/2/3
f 185/3/3 176/3/3 175/3/3
f 185/6/3 177/6/3 176/6/3
f 186/7/3 178/7/3 177/7/3
f 186/6/3 177/6/3 185/6/3
f 187/6/3 179/6/3 178/6/3
f 187/7/3 178/7/3 186/7/3
f 188/7/3 180/7/3 179/7/3
f 188/6/3 179/6/3 187/6/3
f 189/6/3 181/6/3 180/6/3
f 189/7/3 180/7/3 188/7/3
f 190/7/3 182/7/3 181/7/3
f 190/6/3 181/6/3 189/6/3
f 191/6/3 183/6/3 182/6/3
f 191/7/3 182/7/3 190/7/3
f 192/3/3 184/3/3 183/3/3
f 192/6/3 183/6/3 191/6/3
f 193/3/3 185/3/3 175/3/3
f 193/7/3 186/7/3 185/7/3
f 194/6/3 187/6/3 186/6/3
f 194/7/3 186/7/3 193/7/3
f 195/4/3 188/4/3 187/4/3
f 195/6/3 187/6/3 194/6/3
f 196/6/3 189/6/3 188/6/3
f 196/4/3 188/4/3 195/4/3
f 197/4/3 190/4/3 189/4/3
f 197/6/3 189/6/3 196/6/3
f 198/6/3 191/6/3 190/6/3
f 198/4/3 190/4/3 197/4/3
f 199/7/3 192/7/3 191/7/3
f 199/6/3 191/6/3 198/6/3
f 200/3/3 184/3/3 192/3/3
f 200/7/3 192/7/3 199/7/3
f 201/3/3 193/3/3 175/3/3
f 201/6/3 194/6/3 193/6/3
f 202/4/3 195/4/3 194/4/3
f 202/6/3 194/6/3 201/6/3
f 203/5/3 196/5/3 195/5/3
f 203/4/3 195/4/3 202/4/3
f 204/4/3 197/4/3 196/4/3
f 204/5/3 196/5/3 203/5/3
f 205/5/3 198/5/3 197/5/3
f 205/4/3 197/4/3 204/4/3
f 206/4/3 199/4/3 198/4/3
f 206/5/3 198/5/3 205/5/3
f 207/6/3 200/6/3 199/6/3
f 207/4/3 199/4/3 206/4/3
f 208/3/3 184/3/3 200/3/3
f 208/6/3 200/6/3 207/6/3
f 209/3/3 201/3/3 175/3/3
f 209/7/3 202/7/3 201/7/3
f 210/6/3 203/6/3 202/6/3
f 210/7/3 202/7/3 209/7/3
f 211/4/3 204/4/3 203/4/3
f 211/6/3 203/6/3 210/6/3
f 212/5/3 205/5/3 204/5/3
f 212/4/3 204/4/3 211/4/3
f 213/4/3 206/4/3 205/4/3
f 213/5/3 205/5/3 212/5/3
f 214/6/3 207/6/3 206/6/3
f 214/4/3 206/4/3 213/4/3
f 215/7/3 208/7/3 207/7/3
f 215/6/3 207/6/3 214/6/3
f 216/3/3 184/3/3 208/3/3
f 216/7/3 208/7/3 215/7/3
f 217/3/3 209/3/3 175/3/3
f 217/6/3 210/6/3 209/6/3
f 218/4/3 211/4/3 210/4/3
f 218/6/3 210/6/3 217/6/3
f 219/5/3 212/5/3 211/5/3
f 219/4/3 211/4/3 218/4/3
f 220/4/3 213/4/3 212/4/3
f 220/5/3 212/5/3 219/5/3
f 221/5/3 214/5/3 213/5/3
f 221/4/3 213/4/3 220/4/3
f 222/4/3 215/4/3 214/4/3
f 222/5/3 214/5/3 221/5/3
f 223/6/3 216/6/3 215/6/3
f 223/4/3 215/4/3 222/4/3
f 224/3/3 184/3/3 216/3/3
f 224/6/3 216/6/3 223/6/3
f 225/3/3 217/3/3 175/3/3
f 225/7/3 218/7/3 217/7/3
f 226/6/3 219/6/3 218/6/3
f 226/7/3 218/7/3 225/7/3
f 227/4/3 220/4/3 219/4/3
f 227/6/3 219/6/3 226/6/3
f 228/5/3 221/5/3 220/5/3
f 228/4/3 220/4/3 227/4/3
f 229/4/3 222/4/3 221/4/3
f 229/5/3 221/5/3 228/5/3
f 230/6/3 223/6/3 222/6/3
f 230/4/3 222/4/3 229/4/3
f 231/7/3 224/7/3 223/7/3
f 231/6/3 223/6/3 230/6/3
f 232/3/3 184/3/3 224/3/3
f 232/7/3 224/7/3 231/7/3
f 233/3/3 225/3/3 175/3/3
f 233/6/3 226/6/3 225/6/3
f 234/4/3 227/4/3 226/4/3
f 234/6/3 226/6/3 233/6/3
f 235/6/3 228/6/3 227/6/3
f 235/4/3 227/4/3 234/4/3
f 236/4/3 229/4/3 228/4/3
f 236/6/3 228/6/3 235/6/3
f 237/6/3 230/6/3 229/6/3
f 237/4/3 229/4/3 236/4/3
f 238/4/3 231/4/3 230/4/3
f 238/6/3 230/6/3 237/6/3
f 239/6/3 232/6/3 231/6/3
f 239/4/3 231/4/3 238/4/3
f 240/3/3 184/3/3 232/3/3
f 240/6/3 232/6/3 239/6/3
f 241/3/3 233/3/3 175/3/3
f 242/7/3 234/7/3 233/7/3
f 242/3/3 233/3/3 241/3/3
f 243/6/3 235/6/3 234/6/3
f 243/7/3 234/7/3 242/7/3
f 244/7/3 236/7/3 235/7/3
f 244/6/3 235/6/3 243/6/3
f 245/6/3 237/6/3 236/6/3
f 245/7/3 236/7/3 244/7/3
f 246/7/3 238/7/3 237/7/3
f 246/6/3 237/6/3 245/6/3
f 247/6/3 239/6/3 238/6/3
f 247/7/3 238/7/3 246/7/3
f 248/7/3 240/7/3 239/7/3
f 248/6/3 239/6/3 247/6/3
f 249/3/3 184/3/3 240/3/3
f 249/7/3 240/7/3 248/7/3
f 250/3/3 184/3/3 249/3/3
f 251/2/3 242/2/3 241/2/3
f 252/3/3 248/3/3 247/3/3
f 252/2/3 242/2/3 251/2/3
f 252/3/3 244/3/3 243/3/3
f 252/3/3 246/3/3 245/3/3
f 252/3/3 249/3/3 248/3/3
f 252/3/3 247/3/3 246/3/3
f 252/3/3 245/3/3 244/3/3
f 252/3/3 243/3/3 242/3/3
f 253/2/3 250/2/3 249/2/3
f 253/3/3 249/3/3 252/3/3
f 254/2/3 250/2/3 253/2/3
f 257/4/3 256/4/3 255/4/3
f 258/4/3 256/4/3 257/4/3
f 259/6/4 260/6/4 267/6/4
f 260/7/4 261/7/4 268/7/4
f 267/6/4 260/6/4 268/6/4
f 261/6/4 262/6/4 269/6/4
f 268/7/4 261/7/4 269/7/4
f 262/7/4 263/7/4 270/7/4
f 269/6/4 262/6/4 270/6/4
f 263/6/4 264/6/4 271/6/4
f 270/7/4 263/7/4 271/7/4
f 264/7/4 265/7/4 272/7/4
f 271/6/4 264/6/4 272/6/4
f 265/6/4 266/6/4 273/6/4
f 272/7/4 265/7/4 273/7/4
f 273/6/4 266/6/4 274/6/4
f 267/7/4 268/7/4 275/7/4
f 268/6/4 269/6/4 276/6/4
f 275/7/4 268/7/4 276/7/4
f 269/4/4 270/4/4 277/4/4
f 276/6/4 269/6/4 277/6/4
f 270/6/4 271/6/4 278/6/4
f 277/4/4 270/4/4 278/4/4
f 271/4/4 272/4/4 279/4/4
f 278/6/4 271/6/4 279/6/4
f 272/6/4 273/6/4 280/6/4
f 279/4/4 272/4/4 280/4/4
f 273/7/4 274/7/4 281/7/4
f 280/6/4 273/6/4 281/6/4
f 281/7/4 274/7/4 282/7/4
f 275/6/4 276/6/4 283/6/4
f 276/4/4 277/4/4 284/4/4
f 283/6/4 276/6/4 284/6/4
f 277/5/4 278/5/4 285/5/4
f 284/4/4 277/4/4 285/4/4
f 278/4/4 279/4/4 286/4/4
f 285/5/4 278/5/4 286/5/4
f 279/5/4 280/5/4 287/5/4
f 286/4/4 279/4/4 287/4/4
f 280/4/4 281/4/4 288/4/4
f 287/5/4 280/5/4 288/5/4
f 281/6/4 282/6/4 289/6/4
f 288/4/4 281/4/4 289/4/4
f 289/6/4 282/6/4 290/6/4
f 283/7/4 284/7/4 291/7/4
f 284/6/4 285/6/4 292/6/4
f 291/7/4 284/7/4 292/7/4
f 285/4/4 286/4/4 293/4/4
f 292/6/4 285/6/4 293/6/4
f 286/5/4 287/5/4 294/5/4
f 293/4/4 286/4/4 294/4/4
f 287/4/4 288/4/4 295/4/4
f 294/5/4 287/5/4 295/5/4
f 288/6/4 289/6/4 296/6/4
f 295/4/4 288/4/4 296/4/4
f 289/7/4 290/7/4 297/7/4
f 296/6/4 289/6/4 297/6/4
f 297/7/4 290/7/4 298/7/4
f 291/6/4 292/6/4 299/6/4
f 292/4/4 293/4/4 300/4/4
f 299/6/4 292/6/4 300/6/4
f 293/5/4 294/5/4 301/5/4
f 300/4/4 293/4/4 301/4/4
f 294/4/4 295/4/4 302/4/4
f 301/5/4 294/5/4 302/5/4
f 295/5/4 296/5/4 303/5/4
f 302/4/4 295/4/4 303/4/4
f 296/4/4 297/4/4 304/4/4
f 303/5/4 296/5/4 304/5/4
f 297/6/4 298/6/4 305/6/4
f 304/4/4 297/4/4 305/4/4
f 305/6/4 298/6/4 306/6/4
f 299/7/4 300/7/4 307/7/4
f 300/6/4 301/6/4 308/6/4
f 307/7/4 300/7/4 308/7/4
f 301/4/4 302/4/4 309/4/4
f 308/6/4 301/6/4 309/6/4
f 302/5/4 303/5/4 310/5/4
f 309/4/4 302/4/4 310/4/4
f 303/4/4 304/4/4 311/4/4
f 310/5/4 303/5/4 311/5/4
f 304/6/4 305/6/4 312/6/4
f 311/4/4 304/4/4 312/4/4
f 305/7/4 306/7/4 313/7/4
f 312/6/4 305/6/4 313/6/4
f 313/7/4 306/7/4 314/7/4
f 307/6/4 308/6/4 315/6/4
f 308/4/4 309/4/4 316/4/4
f 315/6/4 308/6/4 316/6/4
f 309/6/4 310/6/4 317/6/4
f 316/4/4 309/4/4 317/4/4
f 310/4/4 311/4/4 318/4/4
f 317/6/4 310/6/4 318/6/4
f 311/6/4 312/6/4 319/6/4
f 318/4/4 311/4/4 319/4/4
f 312/4/4 313/4/4 320/4/4
f 319/6/4 312/6/4 320/6/4
f 313/6/4 314/6/4 321/6/4
f 320/4/4 313/4/4 321/4/4
f 321/6/4 314/6/4 322/6/4
f 315/7/4 316/7/4 323/7/4
f 316/6/4 317/6/4 324/6/4
f 323/7/4 316/7/4 324/7/4
f 317/7/4 318/7/4 325/7/4
f 324/6/4 317/6/4 325/6/4
f 318/6/4 319/6/4 326/6/4
f 325/7/4 318/7/4 326/7/4
f 319/7/4 320/7/4 327/7/4
f 326/6/4 319/6/4 327/6/4
f 320/6/4 321/6/4 328/6/4
f 327/7/4 320/7/4 328/7/4
f 321/7/4 322/7/4 329/7/4
f 328/6/4 321/6/4 329/6/4
f 329/7/4 322/7/4 330/7/4
f 331/4/4 332/4/4 333/4/4
f 333/4/4 332/4/4 334/4/4
f 335/4/4 336/4/4 337/4/4
f 337/4/4 336/4/4 338/4/4
f 339/2/4 340/2/4 341/2/4
f 341/2/4 340/2/4 342/2/4
f 341/3/4 342/3/4 343/3/4
f 343/3/4 342/3/4 344/3/4
f 343/2/4 344/2/4 345/2/4
f 345/2/4 344/2/4 346/2/4
f 347/3/4 348/3/4 351/3/4
f 351/3/4 348/3/4 352/3/4
f 349/1/4 350/1/4 354/1/4
f 350/2/4 351/2/4 355/2/4
f 354/1/4 350/1/4 355/1/4
f 355/2/4 351/2/4 356/2/4
f 352/2/4 353/2/4 357/2/4
f 357/2/4 353/2/4 358/2/4
f 355/4/4 356/4/4 359/4/4
f 357/3/4 358/3/4 360/3/4
f 360/3/4 358/3/4 361/3/4
f 355/4/4 359/4/4 362/4/4
f 360/4/4 361/4/4 363/4/4
f 363/4/4 361/4/4 364/4/4
f 354/2/4 355/2/4 365/2/4
f 355/4/4 362/4/4 366/4/4
f 365/2/4 355/2/4 366/2/4
f 366/4/4 362/4/4 367/4/4
f 363/3/4 364/3/4 368/3/4
f 368/3/4 364/3/4 369/3/4
f 365/1/4 366/1/4 370/1/4
f 366/2/4 367/2/4 371/2/4
f 370/1/4 366/1/4 371/1/4
f 371/2/4 367/2/4 372/2/4
f 368/2/4 369/2/4 373/2/4
f 373/2/4 369/2/4 374/2/4
f 372/3/4 373/3/4 375/3/4
f 375/3/4 373/3/4 376/3/4
f 377/3/4 378/3/4 379/3/4
f 379/3/4 378/3/4 380/3/4
f 379/4/4 380/4/4 381/4/4
f 381/4/4 380/4/4 382/4/4
f 381/5/4 382/5/4 383/5/4
f 383/5/4 382/5/4 384/5/4
f 383/4/4 384/4/4 385/4/4
f 385/4/4 384/4/4 386/4/4
f 385/3/4 386/3/4 387/3/4
f 387/3/4 386/3/4 388/3/4
f 393/1/5 390/1/5 389/1/5
f 394/1/5 390/1/5 393/1/5
f 397/1/5 392/1/5 391/1/5
f 398/1/5 392/1/5 397/1/5
f 399/2/5 394/2/5 393/2/5
f 399/2/5 395/2/5 394/2/5
f 400/3/5 396/3/5 395/3/5
f 400/2/5 395/2/5 399/2/5
f 401/2/5 398/2/5 397/2/5
f 401/3/5 396/3/5 400/3/5
f 401/2/5 397/2/5 396/2/5
f 402/2/5 398/2/5 401/2/5
f 403/2/5 399/2/5 393/2/5
f 404/3/5 400/3/5 399/3/5
f 404/2/5 399/2/5 403/2/5
f 404/3/5 401/3/5 400/3/5
f 404/3/5 402/3/5 401/3/5
f 405/2/5 398/2/5 402/2/5
f 405/3/5 402/3/5 404/3/5
f 406/2/5 398/2/5 405/2/5
f 407/1/5 404/1/5 403/1/5
f 408/2/5 405/2/5 404/2/5
f 408/1/5 404/1/5 407/1/5
f 409/1/5 406/1/5 405/1/5
f 409/2/5 405/2/5 408/2/5
f 410/1/5 406/1/5 409/1/5
f 421/4/5 412/4/5 411/4/5
f 421/4/5 419/4/5 418/4/5
f 421/4/5 418/4/5 417/4/5
f 421/4/5 417/4/5 416/4/5
f 421/4/5 416/4/5 415/4/5
f 421/4/5 415/4/5 414/4/5
f 421/4/5 414/4/5 413/4/5
f 421/4/5 413/4/5 412/4/5
f 422/4/5 419/4/5 421/4/5
f 424/2/5 421/2/5 420/2/5
f 425/3/5 422/3/5 421/3/5
f 425/2/5 421/2/5 424/2/5
f 426/2/5 423/2/5 422/2/5
f 426/3/5 422/3/5 425/3/5
f 427/2/5 423/2/5 426/2/5
f 435/3/5 429/3/5 428/3/5
f 436/4/5 430/4/5 429/4/5
f 436/3/5 429/3/5 435/3/5
f 437/5/5 431/5/5 430/5/5
f 437/4/5 430/4/5 436/4/5
f 438/4/5 432/4/5 431/4/5
f 438/5/5 431/5/5 437/5/5
f 439/3/5 433/3/5 432/3/5
f 439/4/5 432/4/5 438/4/5
f 440/3/5 433/3/5 439/3/5
f 442/3/5 435/3/5 434/3/5
f 443/3/5 435/3/5 442/3/5
f 444/4/5 438/4/5 437/4/5
f 444/4/5 439/4/5 438/4/5
f 444/4/5 437/4/5 436/4/5
f 445/4/5 439/4/5 444/4/5
f 446/4/5 439/4/5 445/4/5
f 447/4/5 439/4/5 446/4/5
f 448/3/5 441/3/5 440/3/5
f 449/3/5 441/3/5 448/3/5
f 450/4/5 443/4/5 442/4/5
f 451/4/5 443/4/5 450/4/5
f 452/4/5 449/4/5 448/4/5
f 453/4/5 449/4/5 452/4/5
f 458/5/5 451/5/5 450/5/5
f 459/5/5 451/5/5 458/5/5
f 460/5/5 453/5/5 452/5/5
f 461/5/5 453/5/5 460/5/5
f 462/4/5 459/4/5 458/4/5
f 463/4/5 459/4/5 462/4/5
f 464/4/5 457/4/5 456/4/5
f 464/4/5 455/4/5 454/4/5
f 464/4/5 456/4/5 455/4/5
f 465/4/5 457/4/5 464/4/5
f 466/4/5 461/4/5 460/4/5
f 467/4/5 461/4/5 466/4/5
f 468/3/5 463/3/5 462/3/5
f 469/3/5 463/3/5 468/3/5
f 474/3/5 467/3/5 466/3/5
f 475/3/5 467/3/5 474/3/5
f 476/3/5 470/3/5 469/3/5
f 477/4/5 471/4/5 470/4/5
f 477/3/5 470/3/5 476/3/5
f 478/5/5 472/5/5 471/5/5
f 478/4/5 471/4/5 477/4/5
f 479/4/5 473/4/5 472/4/5
f 479/5/5 472/5/5 478/5/5
f 480/3/5 474/3/5 473/3/5
f 480/4/5 473/4/5 479/4/5
f 481/3/5 474/3/5 480/3/5
f 482/3/6 483/3/6 492/3/6
f 489/3/6 490/3/6 492/3/6
f 488/3/6 489/3/6 492/3/6
f 487/3/6 488/3/6 492/3/6
f 486/3/6 487/3/6 492/3/6
f 485/3/6 486/3/6 492/3/6
f 484/3/6 485/3/6 492/3/6
f 483/3/6 484/3/6 492/3/6
f 492/3/6 490/3/6 493/3/6
f 491/3/6 492/3/6 495/3/6
f 493/3/6 494/3/6 495/3/6
f 492/3/6 493/3/6 495/3/6
f 495/3/6 494/3/6 496/3/6
f 497/3/6 498/3/6 504/3/6
f 498/4/6 499/4/6 505/4/6
f 504/3/6 498/3/6 505/3/6
f 499/5/6 500/5/6 506/5/6
f 505/4/6 499/4/6 506/4/6
f 500/4/6 501/4/6 507/4/6
f 506/5/6 500/5/6 507/5/6
f 501/3/6 502/3/6 508/3/6
f 507/4/6 501/4/6 508/4/6
f 508/3/6 502/3/6 509/3/6
f 503/3/6 504/3/6 511/3/6
f 511/3/6 504/3/6 512/3/6
f 509/3/6 510/3/6 513/3/6
f 513/3/6 510/3/6 514/3/6
f 511/4/6 512/4/6 515/4/6
f 515/4/6 512/4/6 516/4/6
f 513/4/6 514/4/6 517/4/6
f 517/4/6 514/4/6 518/4/6
f 515/5/6 516/5/6 519/5/6
f 519/5/6 516/5/6 520/5/6
f 517/5/6 518/5/6 521/5/6
f 521/5/6 518/5/6 522/5/6
f 519/4/6 520/4/6 523/4/6
f 523/4/6 520/4/6 524/4/6
f 521/4/6 522/4/6 525/4/6
f 525/4/6 522/4/6 526/4/6
f 523/3/6 524/3/6 527/3/6
f 527/3/6 524/3/6 528/3/6
f 525/3/6 526/3/6 533/3/6
f 533/3/6 526/3/6 534/3/6
f 528/3/6 529/3/6 535/3/6
f 529/4/6 530/4/6 536/4/6
f 535/3/6 529/3/6 536/3/6
f 530/5/6 531/5/6 537/5/6
f 536/4/6 530/4/6 537/4/6
f 531/4/6 532/4/6 538/4/6
f 537/5/6 531/5/6 538/5/6
f 532/3/6 533/3/6 539/3/6
f 538/4/6 532/4/6 539/4/6
f 539/3/6 533/3/6 540/3/6
f 541/2/6 542/2/6 547/2/6
f 542/3/6 543/3/6 548/3/6
f 547/2/6 542/2/6 548/2/6
f 543/4/6 544/4/6 549/4/6
f 548/3/6 543/3/6 549/3/6
f 544/3/6 545/3/6 550/3/6
f 549/4/6 544/4/6 550/4/6
f 545/2/6 546/2/6 551/2/6
f 550/3/6 545/3/6 551/3/6
f 551/2/6 546/2/6 552/2/6
f 547/3/6 548/3/6 553/3/6
f 549/4/6 550/4/6 554/4/6
f 553/3/6 548/3/6 554/3/6
f 548/4/6 549/4/6 554/4/6
f 550/4/6 551/4/6 554/4/6
f 551/3/6 552/3/6 555/3/6
f 554/4/6 551/4/6 555/4/6
f 555/3/6 552/3/6 556/3/6
f 553/4/6 554/4/6 557/4/6
f 554/4/6 555/4/6 557/4/6
f 555/4/6 556/4/6 557/4/6
f 557/4/6 556/4/6 558/4/6
f 558/4/6 556/4/6 559/4/6
f 559/4/6 556/4/6 560/4/6
f 557/3/6 558/3/6 561/3/6
f 558/4/6 559/4/6 562/4/6
f 561/3/6 558/3/6 562/3/6
f 562/4/6 559/4/6 563/4/6
f 563/4/6 559/4/6 564/4/6
f 559/3/6 560/3/6 565/3/6
f 564/4/6 559/4/6 565/4/6
f 565/3/6 560/3/6 566/3/6
f 561/2/6 562/2/6 567/2/6
f 562/3/6 563/3/6 568/3/6
f 567/2/6 562/2/6 568/2/6
f 563/4/6 564/4/6 569/4/6
f 568/3/6 563/3/6 569/3/6
f 564/3/6 565/3/6 570/3/6
f 569/4/6 564/4/6 570/4/6
f 565/2/6 566/2/6 571/2/6
f 570/3/6 565/3/6 571/3/6
f 571/2/6 566/2/6 572/2/6
