# MagicaVoxel @ Ephtracy

# group
o 

# material
mtllib Interior_Furniture_Table_Long_Type02_2x1.mtl
usemtl palette

# normals
vn -1 0 0
vn 1 0 0
vn 0 0 1
vn 0 0 -1
vn 0 -1 0
vn 0 1 0

# texcoords
vt 0.876953 0.5
vt 0.880859 0.5
vt 0.884766 0.5
vt 0.888672 0.5
vt 0.892578 0.5

# verts
v -1.6 0.9 0.5
v -1.6 0.9 0.4
v -1.6 0.9 0.3
v -1.6 0.9 -0.3
v -1.6 0.9 -0.4
v -1.6 0.9 -0.5
v -1.6 1 0.5
v -1.6 1 0.4
v -1.6 1 0.3
v -1.6 1 -0.3
v -1.6 1 -0.4
v -1.6 1 -0.5
v -1.5 0.8 0.5
v -1.5 0.8 -0.4
v -1.5 0.9 0.6
v -1.5 0.9 0.5
v -1.5 0.9 0.4
v -1.5 0.9 0.3
v -1.5 0.9 -0.3
v -1.5 0.9 -0.4
v -1.5 0.9 -0.5
v -1.5 0.9 -0.6
v -1.5 1 0.6
v -1.5 1 0.5
v -1.5 1 0.4
v -1.5 1 0.3
v -1.5 1 0.2
v -1.5 1 -0.2
v -1.5 1 -0.3
v -1.5 1 -0.4
v -1.5 1 -0.5
v -1.5 1 -0.6
v -1.5 1.1 0.4
v -1.5 1.1 0.3
v -1.5 1.1 0.2
v -1.5 1.1 -0.2
v -1.5 1.1 -0.3
v -1.5 1.1 -0.4
v -1.4 0 0.4
v -1.4 0 0.3
v -1.4 0 -0.3
v -1.4 0 -0.4
v -1.4 0.1 0.4
v -1.4 0.1 0.3
v -1.4 0.1 -0.3
v -1.4 0.1 -0.4
v -1.4 0.8 0.4
v -1.4 0.8 0.3
v -1.4 0.8 -0.3
v -1.4 0.8 -0.4
v -1.4 0.8 -0.5
v -1.4 0.9 -0.4
v -1.4 0.9 -0.5
v -1.4 1 0.5
v -1.4 1 0.4
v -1.4 1 -0.4
v -1.4 1 -0.5
v -1.4 1.1 0.5
v -1.4 1.1 0.4
v -1.4 1.1 -0.4
v -1.4 1.1 -0.5
v 1.3 0 0.4
v 1.3 0 0.3
v 1.3 0 -0.3
v 1.3 0 -0.4
v 1.3 0.1 0.4
v 1.3 0.1 0.3
v 1.3 0.1 -0.3
v 1.3 0.1 -0.4
v 1.3 0.8 0.4
v 1.3 0.8 0.3
v 1.3 0.8 -0.3
v 1.3 0.8 -0.4
v -1.3 0 0.4
v -1.3 0 0.3
v -1.3 0 -0.3
v -1.3 0 -0.4
v -1.3 0.1 0.4
v -1.3 0.1 0.3
v -1.3 0.1 -0.3
v -1.3 0.1 -0.4
v -1.3 0.8 0.4
v -1.3 0.8 0.3
v -1.3 0.8 -0.3
v -1.3 0.8 -0.4
v 1.4 0 0.4
v 1.4 0 0.3
v 1.4 0 -0.3
v 1.4 0 -0.4
v 1.4 0.1 0.4
v 1.4 0.1 0.3
v 1.4 0.1 -0.3
v 1.4 0.1 -0.4
v 1.4 0.8 0.4
v 1.4 0.8 0.3
v 1.4 0.8 -0.3
v 1.4 0.8 -0.4
v 1.4 1 0.5
v 1.4 1 0.4
v 1.4 1 -0.4
v 1.4 1 -0.5
v 1.4 1.1 0.5
v 1.4 1.1 0.4
v 1.4 1.1 -0.4
v 1.4 1.1 -0.5
v 1.5 0.8 0.5
v 1.5 0.8 -0.5
v 1.5 0.9 0.6
v 1.5 0.9 0.5
v 1.5 0.9 0.4
v 1.5 0.9 0.3
v 1.5 0.9 -0.3
v 1.5 0.9 -0.4
v 1.5 0.9 -0.5
v 1.5 0.9 -0.6
v 1.5 1 0.6
v 1.5 1 0.5
v 1.5 1 0.4
v 1.5 1 0.3
v 1.5 1 0.2
v 1.5 1 -0.2
v 1.5 1 -0.3
v 1.5 1 -0.4
v 1.5 1 -0.5
v 1.5 1 -0.6
v 1.5 1.1 0.4
v 1.5 1.1 0.3
v 1.5 1.1 0.2
v 1.5 1.1 -0.2
v 1.5 1.1 -0.3
v 1.5 1.1 -0.4
v 1.6 0.9 0.5
v 1.6 0.9 0.4
v 1.6 0.9 0.3
v 1.6 0.9 -0.3
v 1.6 0.9 -0.4
v 1.6 0.9 -0.5
v 1.6 1 0.5
v 1.6 1 0.4
v 1.6 1 0.3
v 1.6 1 -0.3
v 1.6 1 -0.4
v 1.6 1 -0.5
v -1.5 0.9 0.6
v -1.5 1 0.6
v -1.4 0.9 0.6
v -1.4 1 0.6
v -1.3 0.9 0.6
v -1.3 1 0.6
v 1.3 0.9 0.6
v 1.3 1 0.6
v 1.4 0.9 0.6
v 1.4 1 0.6
v 1.5 0.9 0.6
v 1.5 1 0.6
v -1.6 0.9 0.5
v -1.6 1 0.5
v -1.5 0.8 0.5
v -1.5 0.9 0.5
v -1.5 1 0.5
v -1.4 0.9 0.5
v -1.4 1 0.5
v -1.4 1.1 0.5
v -1.3 0.9 0.5
v -1.3 1 0.5
v -1.3 1.1 0.5
v -1.2 1 0.5
v -1.2 1.1 0.5
v 1.2 1 0.5
v 1.2 1.1 0.5
v 1.3 0.9 0.5
v 1.3 1 0.5
v 1.3 1.1 0.5
v 1.4 0.9 0.5
v 1.4 1 0.5
v 1.4 1.1 0.5
v 1.5 0.8 0.5
v 1.5 0.9 0.5
v 1.5 1 0.5
v 1.6 0.9 0.5
v 1.6 1 0.5
v -1.5 1 0.4
v -1.5 1.1 0.4
v -1.4 0 0.4
v -1.4 0.1 0.4
v -1.4 0.8 0.4
v -1.4 1 0.4
v -1.4 1.1 0.4
v -1.3 0 0.4
v -1.3 0.1 0.4
v -1.3 0.8 0.4
v 1.3 0 0.4
v 1.3 0.1 0.4
v 1.3 0.8 0.4
v 1.4 0 0.4
v 1.4 0.1 0.4
v 1.4 0.8 0.4
v 1.4 1 0.4
v 1.4 1.1 0.4
v 1.5 1 0.4
v 1.5 1.1 0.4
v -1.4 0 -0.3
v -1.4 0.1 -0.3
v -1.4 0.8 -0.3
v -1.3 0 -0.3
v -1.3 0.1 -0.3
v -1.3 0.8 -0.3
v 1.3 0 -0.3
v 1.3 0.1 -0.3
v 1.3 0.8 -0.3
v 1.4 0 -0.3
v 1.4 0.1 -0.3
v 1.4 0.8 -0.3
v -1.4 0 0.3
v -1.4 0.1 0.3
v -1.4 0.8 0.3
v -1.3 0 0.3
v -1.3 0.1 0.3
v -1.3 0.8 0.3
v 1.3 0 0.3
v 1.3 0.1 0.3
v 1.3 0.8 0.3
v 1.4 0 0.3
v 1.4 0.1 0.3
v 1.4 0.8 0.3
v -1.5 0.8 -0.4
v -1.5 0.9 -0.4
v -1.5 1 -0.4
v -1.5 1.1 -0.4
v -1.4 0 -0.4
v -1.4 0.1 -0.4
v -1.4 0.8 -0.4
v -1.4 0.9 -0.4
v -1.4 1 -0.4
v -1.4 1.1 -0.4
v -1.3 0 -0.4
v -1.3 0.1 -0.4
v -1.3 0.8 -0.4
v 1.3 0 -0.4
v 1.3 0.1 -0.4
v 1.3 0.8 -0.4
v 1.4 0 -0.4
v 1.4 0.1 -0.4
v 1.4 0.8 -0.4
v 1.4 1 -0.4
v 1.4 1.1 -0.4
v 1.5 1 -0.4
v 1.5 1.1 -0.4
v -1.6 0.9 -0.5
v -1.6 1 -0.5
v -1.5 0.9 -0.5
v -1.5 1 -0.5
v -1.4 0.8 -0.5
v -1.4 0.9 -0.5
v -1.4 1 -0.5
v -1.4 1.1 -0.5
v -1.3 0.9 -0.5
v -1.3 1 -0.5
v -1.3 1.1 -0.5
v -1.2 1 -0.5
v -1.2 1.1 -0.5
v 1.2 1 -0.5
v 1.2 1.1 -0.5
v 1.3 0.9 -0.5
v 1.3 1 -0.5
v 1.3 1.1 -0.5
v 1.4 0.9 -0.5
v 1.4 1 -0.5
v 1.4 1.1 -0.5
v 1.5 0.8 -0.5
v 1.5 0.9 -0.5
v 1.5 1 -0.5
v 1.6 0.9 -0.5
v 1.6 1 -0.5
v -1.5 0.9 -0.6
v -1.5 1 -0.6
v -1.4 0.9 -0.6
v -1.4 1 -0.6
v -1.3 0.9 -0.6
v -1.3 1 -0.6
v 1.3 0.9 -0.6
v 1.3 1 -0.6
v 1.4 0.9 -0.6
v 1.4 1 -0.6
v 1.5 0.9 -0.6
v 1.5 1 -0.6
v -1.4 0 0.4
v -1.3 0 0.4
v 1.3 0 0.4
v 1.4 0 0.4
v -1.4 0 0.3
v -1.3 0 0.3
v 1.3 0 0.3
v 1.4 0 0.3
v -1.4 0 -0.3
v -1.3 0 -0.3
v 1.3 0 -0.3
v 1.4 0 -0.3
v -1.4 0 -0.4
v -1.3 0 -0.4
v 1.3 0 -0.4
v 1.4 0 -0.4
v -1.5 0.8 0.5
v 1.5 0.8 0.5
v -1.4 0.8 0.4
v -1.3 0.8 0.4
v 1.3 0.8 0.4
v 1.4 0.8 0.4
v -1.4 0.8 0.3
v -1.3 0.8 0.3
v 1.3 0.8 0.3
v 1.4 0.8 0.3
v -1.4 0.8 -0.3
v -1.3 0.8 -0.3
v 1.3 0.8 -0.3
v 1.4 0.8 -0.3
v -1.5 0.8 -0.4
v -1.4 0.8 -0.4
v -1.3 0.8 -0.4
v 1.3 0.8 -0.4
v 1.4 0.8 -0.4
v -1.4 0.8 -0.5
v 1.5 0.8 -0.5
v -1.5 0.9 0.6
v -1.4 0.9 0.6
v -1.3 0.9 0.6
v 1.3 0.9 0.6
v 1.4 0.9 0.6
v 1.5 0.9 0.6
v -1.6 0.9 0.5
v -1.5 0.9 0.5
v -1.4 0.9 0.5
v -1.3 0.9 0.5
v 1.3 0.9 0.5
v 1.4 0.9 0.5
v 1.5 0.9 0.5
v 1.6 0.9 0.5
v -1.6 0.9 0.4
v -1.5 0.9 0.4
v 1.5 0.9 0.4
v 1.6 0.9 0.4
v -1.6 0.9 0.3
v -1.5 0.9 0.3
v 1.5 0.9 0.3
v 1.6 0.9 0.3
v -1.6 0.9 -0.3
v -1.5 0.9 -0.3
v 1.5 0.9 -0.3
v 1.6 0.9 -0.3
v -1.6 0.9 -0.4
v -1.5 0.9 -0.4
v -1.4 0.9 -0.4
v 1.5 0.9 -0.4
v 1.6 0.9 -0.4
v -1.6 0.9 -0.5
v -1.5 0.9 -0.5
v -1.4 0.9 -0.5
v -1.3 0.9 -0.5
v 1.3 0.9 -0.5
v 1.4 0.9 -0.5
v 1.5 0.9 -0.5
v 1.6 0.9 -0.5
v -1.5 0.9 -0.6
v -1.4 0.9 -0.6
v -1.3 0.9 -0.6
v 1.3 0.9 -0.6
v 1.4 0.9 -0.6
v 1.5 0.9 -0.6
v -1.5 1 0.6
v -1.4 1 0.6
v -1.3 1 0.6
v 1.3 1 0.6
v 1.4 1 0.6
v 1.5 1 0.6
v -1.6 1 0.5
v -1.5 1 0.5
v -1.4 1 0.5
v -1.3 1 0.5
v -1.2 1 0.5
v 1.2 1 0.5
v 1.3 1 0.5
v 1.4 1 0.5
v 1.5 1 0.5
v 1.6 1 0.5
v -1.6 1 0.4
v -1.5 1 0.4
v -1.4 1 0.4
v 1.4 1 0.4
v 1.5 1 0.4
v 1.6 1 0.4
v -1.6 1 0.3
v -1.5 1 0.3
v 1.5 1 0.3
v 1.6 1 0.3
v -1.5 1 0.2
v 1.5 1 0.2
v -1.5 1 -0.2
v 1.5 1 -0.2
v -1.6 1 -0.3
v -1.5 1 -0.3
v 1.5 1 -0.3
v 1.6 1 -0.3
v -1.6 1 -0.4
v -1.5 1 -0.4
v -1.4 1 -0.4
v 1.4 1 -0.4
v 1.5 1 -0.4
v 1.6 1 -0.4
v -1.6 1 -0.5
v -1.5 1 -0.5
v -1.4 1 -0.5
v -1.3 1 -0.5
v -1.2 1 -0.5
v 1.2 1 -0.5
v 1.3 1 -0.5
v 1.4 1 -0.5
v 1.5 1 -0.5
v 1.6 1 -0.5
v -1.5 1 -0.6
v -1.4 1 -0.6
v -1.3 1 -0.6
v 1.3 1 -0.6
v 1.4 1 -0.6
v 1.5 1 -0.6
v -1.4 1.1 0.5
v -1.3 1.1 0.5
v -1.2 1.1 0.5
v 1.2 1.1 0.5
v 1.3 1.1 0.5
v 1.4 1.1 0.5
v -1.5 1.1 0.4
v -1.4 1.1 0.4
v -1.3 1.1 0.4
v -1.2 1.1 0.4
v 1.2 1.1 0.4
v 1.3 1.1 0.4
v 1.4 1.1 0.4
v 1.5 1.1 0.4
v -1.5 1.1 0.3
v -1.4 1.1 0.3
v -1.3 1.1 0.3
v 1.3 1.1 0.3
v 1.4 1.1 0.3
v 1.5 1.1 0.3
v -1.5 1.1 0.2
v -1.4 1.1 0.2
v 1.4 1.1 0.2
v 1.5 1.1 0.2
v -1.5 1.1 -0.2
v -1.4 1.1 -0.2
v 1.4 1.1 -0.2
v 1.5 1.1 -0.2
v -1.5 1.1 -0.3
v -1.4 1.1 -0.3
v -1.3 1.1 -0.3
v 1.3 1.1 -0.3
v 1.4 1.1 -0.3
v 1.5 1.1 -0.3
v -1.5 1.1 -0.4
v -1.4 1.1 -0.4
v -1.3 1.1 -0.4
v -1.2 1.1 -0.4
v 1.2 1.1 -0.4
v 1.3 1.1 -0.4
v 1.4 1.1 -0.4
v 1.5 1.1 -0.4
v -1.4 1.1 -0.5
v -1.3 1.1 -0.5
v -1.2 1.1 -0.5
v 1.2 1.1 -0.5
v 1.3 1.1 -0.5
v 1.4 1.1 -0.5

# faces
f 7/3/1 2/3/1 1/3/1
f 8/4/1 3/4/1 2/4/1
f 8/3/1 2/3/1 7/3/1
f 9/5/1 4/5/1 3/5/1
f 9/4/1 3/4/1 8/4/1
f 10/4/1 5/4/1 4/4/1
f 10/5/1 4/5/1 9/5/1
f 11/3/1 6/3/1 5/3/1
f 11/4/1 5/4/1 10/4/1
f 12/3/1 6/3/1 11/3/1
f 16/4/1 14/4/1 13/4/1
f 17/4/1 14/4/1 16/4/1
f 18/4/1 14/4/1 17/4/1
f 19/4/1 14/4/1 18/4/1
f 20/4/1 14/4/1 19/4/1
f 23/3/1 16/3/1 15/3/1
f 24/3/1 16/3/1 23/3/1
f 31/3/1 22/3/1 21/3/1
f 32/3/1 22/3/1 31/3/1
f 33/2/1 26/2/1 25/2/1
f 34/3/1 27/3/1 26/3/1
f 34/2/1 26/2/1 33/2/1
f 35/4/1 28/4/1 27/4/1
f 35/3/1 27/3/1 34/3/1
f 36/3/1 29/3/1 28/3/1
f 36/4/1 28/4/1 35/4/1
f 37/2/1 30/2/1 29/2/1
f 37/3/1 29/3/1 36/3/1
f 38/2/1 30/2/1 37/2/1
f 43/1/1 40/1/1 39/1/1
f 44/1/1 40/1/1 43/1/1
f 45/1/1 42/1/1 41/1/1
f 46/1/1 42/1/1 45/1/1
f 47/3/1 44/3/1 43/3/1
f 48/3/1 44/3/1 47/3/1
f 49/3/1 46/3/1 45/3/1
f 50/3/1 46/3/1 49/3/1
f 52/4/1 51/4/1 50/4/1
f 53/4/1 51/4/1 52/4/1
f 58/2/1 55/2/1 54/2/1
f 59/2/1 55/2/1 58/2/1
f 60/2/1 57/2/1 56/2/1
f 61/2/1 57/2/1 60/2/1
f 66/1/1 63/1/1 62/1/1
f 67/1/1 63/1/1 66/1/1
f 68/1/1 65/1/1 64/1/1
f 69/1/1 65/1/1 68/1/1
f 70/3/1 67/3/1 66/3/1
f 71/3/1 67/3/1 70/3/1
f 72/3/1 69/3/1 68/3/1
f 73/3/1 69/3/1 72/3/1
f 74/1/2 75/1/2 78/1/2
f 78/1/2 75/1/2 79/1/2
f 76/1/2 77/1/2 80/1/2
f 80/1/2 77/1/2 81/1/2
f 78/3/2 79/3/2 82/3/2
f 82/3/2 79/3/2 83/3/2
f 80/3/2 81/3/2 84/3/2
f 84/3/2 81/3/2 85/3/2
f 86/1/2 87/1/2 90/1/2
f 90/1/2 87/1/2 91/1/2
f 88/1/2 89/1/2 92/1/2
f 92/1/2 89/1/2 93/1/2
f 90/3/2 91/3/2 94/3/2
f 94/3/2 91/3/2 95/3/2
f 92/3/2 93/3/2 96/3/2
f 96/3/2 93/3/2 97/3/2
f 98/2/2 99/2/2 102/2/2
f 102/2/2 99/2/2 103/2/2
f 100/2/2 101/2/2 104/2/2
f 104/2/2 101/2/2 105/2/2
f 106/4/2 107/4/2 109/4/2
f 109/4/2 107/4/2 110/4/2
f 110/4/2 107/4/2 111/4/2
f 111/4/2 107/4/2 112/4/2
f 112/4/2 107/4/2 113/4/2
f 113/4/2 107/4/2 114/4/2
f 108/3/2 109/3/2 116/3/2
f 116/3/2 109/3/2 117/3/2
f 114/3/2 115/3/2 124/3/2
f 124/3/2 115/3/2 125/3/2
f 118/2/2 119/2/2 126/2/2
f 119/3/2 120/3/2 127/3/2
f 126/2/2 119/2/2 127/2/2
f 120/4/2 121/4/2 128/4/2
f 127/3/2 120/3/2 128/3/2
f 121/3/2 122/3/2 129/3/2
f 128/4/2 121/4/2 129/4/2
f 122/2/2 123/2/2 130/2/2
f 129/3/2 122/3/2 130/3/2
f 130/2/2 123/2/2 131/2/2
f 132/3/2 133/3/2 138/3/2
f 133/4/2 134/4/2 139/4/2
f 138/3/2 133/3/2 139/3/2
f 134/5/2 135/5/2 140/5/2
f 139/4/2 134/4/2 140/4/2
f 135/4/2 136/4/2 141/4/2
f 140/5/2 135/5/2 141/5/2
f 136/3/2 137/3/2 142/3/2
f 141/4/2 136/4/2 142/4/2
f 142/3/2 137/3/2 143/3/2
f 146/3/3 145/3/3 144/3/3
f 147/3/3 145/3/3 146/3/3
f 148/4/3 147/4/3 146/4/3
f 149/4/3 147/4/3 148/4/3
f 150/5/3 149/5/3 148/5/3
f 151/5/3 149/5/3 150/5/3
f 152/4/3 151/4/3 150/4/3
f 153/4/3 151/4/3 152/4/3
f 154/3/3 153/3/3 152/3/3
f 155/3/3 153/3/3 154/3/3
f 159/3/3 157/3/3 156/3/3
f 160/3/3 157/3/3 159/3/3
f 161/4/3 159/4/3 158/4/3
f 164/4/3 161/4/3 158/4/3
f 165/2/3 163/2/3 162/2/3
f 166/2/3 163/2/3 165/2/3
f 167/3/3 166/3/3 165/3/3
f 168/3/3 166/3/3 167/3/3
f 169/4/3 168/4/3 167/4/3
f 170/4/3 168/4/3 169/4/3
f 171/4/3 164/4/3 158/4/3
f 172/3/3 170/3/3 169/3/3
f 173/3/3 170/3/3 172/3/3
f 174/4/3 171/4/3 158/4/3
f 175/2/3 173/2/3 172/2/3
f 176/2/3 173/2/3 175/2/3
f 177/4/3 174/4/3 158/4/3
f 178/4/3 174/4/3 177/4/3
f 180/3/3 179/3/3 178/3/3
f 181/3/3 179/3/3 180/3/3
f 187/2/3 183/2/3 182/2/3
f 188/2/3 183/2/3 187/2/3
f 189/1/3 185/1/3 184/1/3
f 190/3/3 186/3/3 185/3/3
f 190/1/3 185/1/3 189/1/3
f 191/3/3 186/3/3 190/3/3
f 195/1/3 193/1/3 192/1/3
f 196/3/3 194/3/3 193/3/3
f 196/1/3 193/1/3 195/1/3
f 197/3/3 194/3/3 196/3/3
f 200/2/3 199/2/3 198/2/3
f 201/2/3 199/2/3 200/2/3
f 205/1/3 203/1/3 202/1/3
f 206/3/3 204/3/3 203/3/3
f 206/1/3 203/1/3 205/1/3
f 207/3/3 204/3/3 206/3/3
f 211/1/3 209/1/3 208/1/3
f 212/3/3 210/3/3 209/3/3
f 212/1/3 209/1/3 211/1/3
f 213/3/3 210/3/3 212/3/3
f 214/1/4 215/1/4 217/1/4
f 215/3/4 216/3/4 218/3/4
f 217/1/4 215/1/4 218/1/4
f 218/3/4 216/3/4 219/3/4
f 220/1/4 221/1/4 223/1/4
f 221/3/4 222/3/4 224/3/4
f 223/1/4 221/1/4 224/1/4
f 224/3/4 222/3/4 225/3/4
f 226/4/4 227/4/4 232/4/4
f 232/4/4 227/4/4 233/4/4
f 228/2/4 229/2/4 234/2/4
f 234/2/4 229/2/4 235/2/4
f 230/1/4 231/1/4 236/1/4
f 231/3/4 232/3/4 237/3/4
f 236/1/4 231/1/4 237/1/4
f 237/3/4 232/3/4 238/3/4
f 239/1/4 240/1/4 242/1/4
f 240/3/4 241/3/4 243/3/4
f 242/1/4 240/1/4 243/1/4
f 243/3/4 241/3/4 244/3/4
f 245/2/4 246/2/4 247/2/4
f 247/2/4 246/2/4 248/2/4
f 249/3/4 250/3/4 251/3/4
f 251/3/4 250/3/4 252/3/4
f 253/4/4 254/4/4 257/4/4
f 255/2/4 256/2/4 258/2/4
f 258/2/4 256/2/4 259/2/4
f 258/3/4 259/3/4 260/3/4
f 260/3/4 259/3/4 261/3/4
f 260/4/4 261/4/4 262/4/4
f 262/4/4 261/4/4 263/4/4
f 253/4/4 257/4/4 264/4/4
f 262/3/4 263/3/4 265/3/4
f 265/3/4 263/3/4 266/3/4
f 253/4/4 264/4/4 267/4/4
f 265/2/4 266/2/4 268/2/4
f 268/2/4 266/2/4 269/2/4
f 253/4/4 267/4/4 270/4/4
f 270/4/4 267/4/4 271/4/4
f 271/3/4 272/3/4 273/3/4
f 273/3/4 272/3/4 274/3/4
f 275/3/4 276/3/4 277/3/4
f 277/3/4 276/3/4 278/3/4
f 277/4/4 278/4/4 279/4/4
f 279/4/4 278/4/4 280/4/4
f 279/5/4 280/5/4 281/5/4
f 281/5/4 280/5/4 282/5/4
f 281/4/4 282/4/4 283/4/4
f 283/4/4 282/4/4 284/4/4
f 283/3/4 284/3/4 285/3/4
f 285/3/4 284/3/4 286/3/4
f 291/1/5 288/1/5 287/1/5
f 292/1/5 288/1/5 291/1/5
f 293/1/5 290/1/5 289/1/5
f 294/1/5 290/1/5 293/1/5
f 299/1/5 296/1/5 295/1/5
f 300/1/5 296/1/5 299/1/5
f 301/1/5 298/1/5 297/1/5
f 302/1/5 298/1/5 301/1/5
f 305/4/5 304/4/5 303/4/5
f 306/4/5 304/4/5 305/4/5
f 307/4/5 304/4/5 306/4/5
f 308/4/5 304/4/5 307/4/5
f 309/4/5 305/4/5 303/4/5
f 310/4/5 307/4/5 306/4/5
f 311/4/5 307/4/5 310/4/5
f 312/4/5 304/4/5 308/4/5
f 313/4/5 311/4/5 310/4/5
f 313/4/5 312/4/5 311/4/5
f 313/4/5 309/4/5 303/4/5
f 313/4/5 310/4/5 309/4/5
f 314/4/5 312/4/5 313/4/5
f 315/4/5 312/4/5 314/4/5
f 316/4/5 304/4/5 312/4/5
f 316/4/5 312/4/5 315/4/5
f 317/4/5 313/4/5 303/4/5
f 318/4/5 313/4/5 317/4/5
f 319/4/5 315/4/5 314/4/5
f 320/4/5 315/4/5 319/4/5
f 321/4/5 304/4/5 316/4/5
f 322/4/5 321/4/5 320/4/5
f 322/4/5 320/4/5 319/4/5
f 322/4/5 319/4/5 318/4/5
f 323/4/5 304/4/5 321/4/5
f 323/4/5 321/4/5 322/4/5
f 331/3/5 325/3/5 324/3/5
f 332/4/5 326/4/5 325/4/5
f 332/3/5 325/3/5 331/3/5
f 333/5/5 327/5/5 326/5/5
f 333/4/5 326/4/5 332/4/5
f 334/4/5 328/4/5 327/4/5
f 334/5/5 327/5/5 333/5/5
f 335/3/5 329/3/5 328/3/5
f 335/4/5 328/4/5 334/4/5
f 336/3/5 329/3/5 335/3/5
f 338/3/5 331/3/5 330/3/5
f 339/3/5 331/3/5 338/3/5
f 340/3/5 337/3/5 336/3/5
f 341/3/5 337/3/5 340/3/5
f 342/4/5 339/4/5 338/4/5
f 343/4/5 339/4/5 342/4/5
f 344/4/5 341/4/5 340/4/5
f 345/4/5 341/4/5 344/4/5
f 346/5/5 343/5/5 342/5/5
f 347/5/5 343/5/5 346/5/5
f 348/5/5 345/5/5 344/5/5
f 349/5/5 345/5/5 348/5/5
f 350/4/5 347/4/5 346/4/5
f 351/4/5 347/4/5 350/4/5
f 353/4/5 349/4/5 348/4/5
f 354/4/5 349/4/5 353/4/5
f 355/3/5 351/3/5 350/3/5
f 356/4/5 352/4/5 351/4/5
f 356/3/5 351/3/5 355/3/5
f 357/4/5 352/4/5 356/4/5
f 361/3/5 354/3/5 353/3/5
f 362/3/5 354/3/5 361/3/5
f 363/3/5 357/3/5 356/3/5
f 364/4/5 358/4/5 357/4/5
f 364/3/5 357/3/5 363/3/5
f 365/5/5 359/5/5 358/5/5
f 365/4/5 358/4/5 364/4/5
f 366/4/5 360/4/5 359/4/5
f 366/5/5 359/5/5 365/5/5
f 367/3/5 361/3/5 360/3/5
f 367/4/5 360/4/5 366/4/5
f 368/3/5 361/3/5 367/3/5
f 369/3/6 370/3/6 376/3/6
f 370/4/6 371/4/6 377/4/6
f 376/3/6 370/3/6 377/3/6
f 371/5/6 372/5/6 378/5/6
f 377/4/6 371/4/6 378/4/6
f 378/5/6 372/5/6 379/5/6
f 379/5/6 372/5/6 380/5/6
f 372/4/6 373/4/6 381/4/6
f 380/5/6 372/5/6 381/5/6
f 373/3/6 374/3/6 382/3/6
f 381/4/6 373/4/6 382/4/6
f 382/3/6 374/3/6 383/3/6
f 375/3/6 376/3/6 385/3/6
f 376/4/6 377/4/6 386/4/6
f 385/3/6 376/3/6 386/3/6
f 386/4/6 377/4/6 387/4/6
f 382/4/6 383/4/6 388/4/6
f 383/3/6 384/3/6 389/3/6
f 388/4/6 383/4/6 389/4/6
f 389/3/6 384/3/6 390/3/6
f 385/4/6 386/4/6 391/4/6
f 391/4/6 386/4/6 392/4/6
f 389/4/6 390/4/6 393/4/6
f 393/4/6 390/4/6 394/4/6
f 391/5/6 392/5/6 395/5/6
f 393/5/6 394/5/6 396/5/6
f 391/5/6 395/5/6 397/5/6
f 396/5/6 394/5/6 398/5/6
f 391/5/6 397/5/6 399/5/6
f 399/5/6 397/5/6 400/5/6
f 398/5/6 394/5/6 401/5/6
f 401/5/6 394/5/6 402/5/6
f 399/4/6 400/4/6 403/4/6
f 403/4/6 400/4/6 404/4/6
f 401/4/6 402/4/6 407/4/6
f 407/4/6 402/4/6 408/4/6
f 403/3/6 404/3/6 409/3/6
f 404/4/6 405/4/6 410/4/6
f 409/3/6 404/3/6 410/3/6
f 410/4/6 405/4/6 411/4/6
f 406/4/6 407/4/6 416/4/6
f 407/3/6 408/3/6 417/3/6
f 416/4/6 407/4/6 417/4/6
f 417/3/6 408/3/6 418/3/6
f 410/3/6 411/3/6 419/3/6
f 411/4/6 412/4/6 420/4/6
f 419/3/6 411/3/6 420/3/6
f 414/5/6 415/5/6 421/5/6
f 420/4/6 412/4/6 421/4/6
f 412/5/6 413/5/6 421/5/6
f 413/5/6 414/5/6 421/5/6
f 415/4/6 416/4/6 422/4/6
f 421/5/6 415/5/6 422/5/6
f 416/3/6 417/3/6 423/3/6
f 422/4/6 416/4/6 423/4/6
f 423/3/6 417/3/6 424/3/6
f 425/2/6 426/2/6 432/2/6
f 426/3/6 427/3/6 433/3/6
f 432/2/6 426/2/6 433/2/6
f 427/4/6 428/4/6 434/4/6
f 433/3/6 427/3/6 434/3/6
f 428/3/6 429/3/6 435/3/6
f 434/4/6 428/4/6 435/4/6
f 429/2/6 430/2/6 436/2/6
f 435/3/6 429/3/6 436/3/6
f 436/2/6 430/2/6 437/2/6
f 431/2/6 432/2/6 439/2/6
f 432/3/6 433/3/6 440/3/6
f 439/2/6 432/2/6 440/2/6
f 434/4/6 435/4/6 441/4/6
f 440/3/6 433/3/6 441/3/6
f 433/4/6 434/4/6 441/4/6
f 435/4/6 436/4/6 441/4/6
f 436/3/6 437/3/6 442/3/6
f 441/4/6 436/4/6 442/4/6
f 437/2/6 438/2/6 443/2/6
f 442/3/6 437/3/6 443/3/6
f 443/2/6 438/2/6 444/2/6
f 439/3/6 440/3/6 445/3/6
f 441/4/6 442/4/6 446/4/6
f 445/3/6 440/3/6 446/3/6
f 440/4/6 441/4/6 446/4/6
f 442/4/6 443/4/6 446/4/6
f 443/3/6 444/3/6 447/3/6
f 446/4/6 443/4/6 447/4/6
f 447/3/6 444/3/6 448/3/6
f 445/4/6 446/4/6 449/4/6
f 446/4/6 447/4/6 449/4/6
f 447/4/6 448/4/6 449/4/6
f 449/4/6 448/4/6 450/4/6
f 450/4/6 448/4/6 451/4/6
f 451/4/6 448/4/6 452/4/6
f 449/3/6 450/3/6 453/3/6
f 450/4/6 451/4/6 454/4/6
f 453/3/6 450/3/6 454/3/6
f 454/4/6 451/4/6 455/4/6
f 455/4/6 451/4/6 456/4/6
f 451/3/6 452/3/6 457/3/6
f 456/4/6 451/4/6 457/4/6
f 457/3/6 452/3/6 458/3/6
f 453/2/6 454/2/6 459/2/6
f 454/3/6 455/3/6 460/3/6
f 459/2/6 454/2/6 460/2/6
f 455/4/6 456/4/6 461/4/6
f 460/3/6 455/3/6 461/3/6
f 461/4/6 456/4/6 462/4/6
f 462/4/6 456/4/6 463/4/6
f 456/3/6 457/3/6 464/3/6
f 463/4/6 456/4/6 464/4/6
f 457/2/6 458/2/6 465/2/6
f 464/3/6 457/3/6 465/3/6
f 465/2/6 458/2/6 466/2/6
f 460/2/6 461/2/6 467/2/6
f 461/3/6 462/3/6 468/3/6
f 467/2/6 461/2/6 468/2/6
f 462/4/6 463/4/6 469/4/6
f 468/3/6 462/3/6 469/3/6
f 463/3/6 464/3/6 470/3/6
f 469/4/6 463/4/6 470/4/6
f 464/2/6 465/2/6 471/2/6
f 470/3/6 464/3/6 471/3/6
f 471/2/6 465/2/6 472/2/6
