# MagicaVoxel @ Ephtracy

# group
o 

# material
mtllib Interior_Furniture_Table_SideTable_Small_05.mtl
usemtl palette

# normals
vn -1 0 0
vn 1 0 0
vn 0 0 1
vn 0 0 -1
vn 0 -1 0
vn 0 1 0

# texcoords
vt 0.876953 0.5
vt 0.880859 0.5
vt 0.884766 0.5
vt 0.888672 0.5
vt 0.892578 0.5
vt 0.896484 0.5
vt 0.900391 0.5

# verts
v -0.5 0.7 0.4
v -0.5 0.7 0.3
v -0.5 0.7 0.2
v -0.5 0.7 -0.1
v -0.5 0.7 -0.2
v -0.5 0.7 -0.3
v -0.5 0.8 0.4
v -0.5 0.8 0.3
v -0.5 0.8 0.2
v -0.5 0.8 -0.1
v -0.5 0.8 -0.2
v -0.5 0.8 -0.3
v -0.4 0.7 0.5
v -0.4 0.7 0.4
v -0.4 0.7 -0.3
v -0.4 0.7 -0.4
v -0.4 0.8 0.5
v -0.4 0.8 0.4
v -0.4 0.8 -0.3
v -0.4 0.8 -0.4
v -0.2 0 0.2
v -0.2 0 0.1
v -0.2 0 0
v -0.2 0 -0.1
v -0.2 0.1 0.2
v -0.2 0.1 0.1
v -0.2 0.1 0
v -0.2 0.1 -0.1
v -0.1 0.1 0.1
v -0.1 0.1 0
v -0.1 0.7 0.1
v -0.1 0.7 0
v 0 0.1 0.1
v 0 0.1 0
v 0 0.7 0.1
v 0 0.7 0
v 0.1 0 0.2
v 0.1 0 0.1
v 0.1 0 0
v 0.1 0 -0.1
v 0.1 0.1 0.2
v 0.1 0.1 0.1
v 0.1 0.1 0
v 0.1 0.1 -0.1
v 0.3 0.7 0.5
v 0.3 0.7 0.4
v 0.3 0.7 -0.3
v 0.3 0.7 -0.4
v 0.3 0.8 0.5
v 0.3 0.8 0.4
v 0.3 0.8 -0.3
v 0.3 0.8 -0.4
v 0.4 0.7 0.4
v 0.4 0.7 0.3
v 0.4 0.7 0.2
v 0.4 0.7 -0.1
v 0.4 0.7 -0.2
v 0.4 0.7 -0.3
v 0.4 0.8 0.4
v 0.4 0.8 0.3
v 0.4 0.8 0.2
v 0.4 0.8 -0.1
v 0.4 0.8 -0.2
v 0.4 0.8 -0.3
v -0.4 0.7 0.5
v -0.4 0.8 0.5
v -0.3 0.7 0.5
v -0.3 0.8 0.5
v -0.2 0.7 0.5
v -0.2 0.8 0.5
v 0.1 0.7 0.5
v 0.1 0.8 0.5
v 0.2 0.7 0.5
v 0.2 0.8 0.5
v 0.3 0.7 0.5
v 0.3 0.8 0.5
v -0.5 0.7 0.4
v -0.5 0.8 0.4
v -0.4 0.7 0.4
v -0.4 0.8 0.4
v 0.3 0.7 0.4
v 0.3 0.8 0.4
v 0.4 0.7 0.4
v 0.4 0.8 0.4
v -0.2 0 0.2
v -0.2 0.1 0.2
v -0.1 0 0.2
v -0.1 0.1 0.2
v 0 0 0.2
v 0 0.1 0.2
v 0.1 0 0.2
v 0.1 0.1 0.2
v -0.1 0.1 0.1
v -0.1 0.7 0.1
v 0 0.1 0.1
v 0 0.7 0.1
v -0.1 0.1 0
v -0.1 0.7 0
v 0 0.1 0
v 0 0.7 0
v -0.2 0 -0.1
v -0.2 0.1 -0.1
v -0.1 0 -0.1
v -0.1 0.1 -0.1
v 0 0 -0.1
v 0 0.1 -0.1
v 0.1 0 -0.1
v 0.1 0.1 -0.1
v -0.5 0.7 -0.3
v -0.5 0.8 -0.3
v -0.4 0.7 -0.3
v -0.4 0.8 -0.3
v 0.3 0.7 -0.3
v 0.3 0.8 -0.3
v 0.4 0.7 -0.3
v 0.4 0.8 -0.3
v -0.4 0.7 -0.4
v -0.4 0.8 -0.4
v -0.3 0.7 -0.4
v -0.3 0.8 -0.4
v -0.2 0.7 -0.4
v -0.2 0.8 -0.4
v 0.1 0.7 -0.4
v 0.1 0.8 -0.4
v 0.2 0.7 -0.4
v 0.2 0.8 -0.4
v 0.3 0.7 -0.4
v 0.3 0.8 -0.4
v -0.2 0 0.2
v -0.1 0 0.2
v 0 0 0.2
v 0.1 0 0.2
v -0.2 0 0.1
v -0.1 0 0.1
v 0 0 0.1
v 0.1 0 0.1
v -0.2 0 0
v -0.1 0 0
v 0 0 0
v 0.1 0 0
v -0.2 0 -0.1
v -0.1 0 -0.1
v 0 0 -0.1
v 0.1 0 -0.1
v -0.4 0.7 0.5
v -0.3 0.7 0.5
v -0.2 0.7 0.5
v 0.1 0.7 0.5
v 0.2 0.7 0.5
v 0.3 0.7 0.5
v -0.5 0.7 0.4
v -0.4 0.7 0.4
v -0.3 0.7 0.4
v -0.2 0.7 0.4
v -0.1 0.7 0.4
v 0 0.7 0.4
v 0.1 0.7 0.4
v 0.2 0.7 0.4
v 0.3 0.7 0.4
v 0.4 0.7 0.4
v -0.5 0.7 0.3
v -0.4 0.7 0.3
v -0.3 0.7 0.3
v -0.2 0.7 0.3
v -0.1 0.7 0.3
v 0 0.7 0.3
v 0.1 0.7 0.3
v 0.2 0.7 0.3
v 0.3 0.7 0.3
v 0.4 0.7 0.3
v -0.5 0.7 0.2
v -0.4 0.7 0.2
v -0.3 0.7 0.2
v -0.2 0.7 0.2
v -0.1 0.7 0.2
v 0 0.7 0.2
v 0.1 0.7 0.2
v 0.2 0.7 0.2
v 0.3 0.7 0.2
v 0.4 0.7 0.2
v -0.4 0.7 0.1
v -0.3 0.7 0.1
v -0.2 0.7 0.1
v -0.1 0.7 0.1
v 0 0.7 0.1
v 0.1 0.7 0.1
v 0.2 0.7 0.1
v 0.3 0.7 0.1
v -0.4 0.7 0
v -0.3 0.7 0
v -0.2 0.7 0
v -0.1 0.7 0
v 0 0.7 0
v 0.1 0.7 0
v 0.2 0.7 0
v 0.3 0.7 0
v -0.5 0.7 -0.1
v -0.4 0.7 -0.1
v -0.3 0.7 -0.1
v -0.2 0.7 -0.1
v -0.1 0.7 -0.1
v 0 0.7 -0.1
v 0.1 0.7 -0.1
v 0.2 0.7 -0.1
v 0.3 0.7 -0.1
v 0.4 0.7 -0.1
v -0.5 0.7 -0.2
v -0.4 0.7 -0.2
v -0.3 0.7 -0.2
v -0.2 0.7 -0.2
v -0.1 0.7 -0.2
v 0 0.7 -0.2
v 0.1 0.7 -0.2
v 0.2 0.7 -0.2
v 0.3 0.7 -0.2
v 0.4 0.7 -0.2
v -0.5 0.7 -0.3
v -0.4 0.7 -0.3
v -0.3 0.7 -0.3
v -0.2 0.7 -0.3
v -0.1 0.7 -0.3
v 0 0.7 -0.3
v 0.1 0.7 -0.3
v 0.2 0.7 -0.3
v 0.3 0.7 -0.3
v 0.4 0.7 -0.3
v -0.4 0.7 -0.4
v -0.3 0.7 -0.4
v -0.2 0.7 -0.4
v 0.1 0.7 -0.4
v 0.2 0.7 -0.4
v 0.3 0.7 -0.4
v -0.2 0.1 0.2
v -0.1 0.1 0.2
v 0 0.1 0.2
v 0.1 0.1 0.2
v -0.2 0.1 0.1
v -0.1 0.1 0.1
v 0 0.1 0.1
v 0.1 0.1 0.1
v -0.2 0.1 0
v -0.1 0.1 0
v 0 0.1 0
v 0.1 0.1 0
v -0.2 0.1 -0.1
v -0.1 0.1 -0.1
v 0 0.1 -0.1
v 0.1 0.1 -0.1
v -0.4 0.8 0.5
v -0.3 0.8 0.5
v -0.2 0.8 0.5
v 0.1 0.8 0.5
v 0.2 0.8 0.5
v 0.3 0.8 0.5
v -0.5 0.8 0.4
v -0.4 0.8 0.4
v -0.3 0.8 0.4
v -0.2 0.8 0.4
v -0.1 0.8 0.4
v 0 0.8 0.4
v 0.1 0.8 0.4
v 0.2 0.8 0.4
v 0.3 0.8 0.4
v 0.4 0.8 0.4
v -0.5 0.8 0.3
v -0.4 0.8 0.3
v -0.3 0.8 0.3
v -0.2 0.8 0.3
v -0.1 0.8 0.3
v 0 0.8 0.3
v 0.1 0.8 0.3
v 0.2 0.8 0.3
v 0.3 0.8 0.3
v 0.4 0.8 0.3
v -0.5 0.8 0.2
v -0.4 0.8 0.2
v -0.3 0.8 0.2
v -0.2 0.8 0.2
v -0.1 0.8 0.2
v 0 0.8 0.2
v 0.1 0.8 0.2
v 0.2 0.8 0.2
v 0.3 0.8 0.2
v 0.4 0.8 0.2
v -0.4 0.8 0.1
v -0.3 0.8 0.1
v -0.2 0.8 0.1
v -0.1 0.8 0.1
v 0 0.8 0.1
v 0.1 0.8 0.1
v 0.2 0.8 0.1
v 0.3 0.8 0.1
v -0.4 0.8 0
v -0.3 0.8 0
v -0.2 0.8 0
v -0.1 0.8 0
v 0 0.8 0
v 0.1 0.8 0
v 0.2 0.8 0
v 0.3 0.8 0
v -0.5 0.8 -0.1
v -0.4 0.8 -0.1
v -0.3 0.8 -0.1
v -0.2 0.8 -0.1
v -0.1 0.8 -0.1
v 0 0.8 -0.1
v 0.1 0.8 -0.1
v 0.2 0.8 -0.1
v 0.3 0.8 -0.1
v 0.4 0.8 -0.1
v -0.5 0.8 -0.2
v -0.4 0.8 -0.2
v -0.3 0.8 -0.2
v -0.2 0.8 -0.2
v -0.1 0.8 -0.2
v 0 0.8 -0.2
v 0.1 0.8 -0.2
v 0.2 0.8 -0.2
v 0.3 0.8 -0.2
v 0.4 0.8 -0.2
v -0.5 0.8 -0.3
v -0.4 0.8 -0.3
v -0.3 0.8 -0.3
v -0.2 0.8 -0.3
v -0.1 0.8 -0.3
v 0 0.8 -0.3
v 0.1 0.8 -0.3
v 0.2 0.8 -0.3
v 0.3 0.8 -0.3
v 0.4 0.8 -0.3
v -0.4 0.8 -0.4
v -0.3 0.8 -0.4
v -0.2 0.8 -0.4
v 0.1 0.8 -0.4
v 0.2 0.8 -0.4
v 0.3 0.8 -0.4

# faces
f 7/2/1 2/2/1 1/2/1
f 8/3/1 3/3/1 2/3/1
f 8/2/1 2/2/1 7/2/1
f 9/4/1 4/4/1 3/4/1
f 9/3/1 3/3/1 8/3/1
f 10/3/1 5/3/1 4/3/1
f 10/4/1 4/4/1 9/4/1
f 11/2/1 6/2/1 5/2/1
f 11/3/1 5/3/1 10/3/1
f 12/2/1 6/2/1 11/2/1
f 17/2/1 14/2/1 13/2/1
f 18/2/1 14/2/1 17/2/1
f 19/2/1 16/2/1 15/2/1
f 20/2/1 16/2/1 19/2/1
f 25/1/1 22/1/1 21/1/1
f 26/2/1 23/2/1 22/2/1
f 26/1/1 22/1/1 25/1/1
f 27/1/1 24/1/1 23/1/1
f 27/2/1 23/2/1 26/2/1
f 28/1/1 24/1/1 27/1/1
f 31/3/1 30/3/1 29/3/1
f 32/3/1 30/3/1 31/3/1
f 33/3/2 34/3/2 35/3/2
f 35/3/2 34/3/2 36/3/2
f 37/1/2 38/1/2 41/1/2
f 38/2/2 39/2/2 42/2/2
f 41/1/2 38/1/2 42/1/2
f 39/1/2 40/1/2 43/1/2
f 42/2/2 39/2/2 43/2/2
f 43/1/2 40/1/2 44/1/2
f 45/2/2 46/2/2 49/2/2
f 49/2/2 46/2/2 50/2/2
f 47/2/2 48/2/2 51/2/2
f 51/2/2 48/2/2 52/2/2
f 53/2/2 54/2/2 59/2/2
f 54/3/2 55/3/2 60/3/2
f 59/2/2 54/2/2 60/2/2
f 55/4/2 56/4/2 61/4/2
f 60/3/2 55/3/2 61/3/2
f 56/3/2 57/3/2 62/3/2
f 61/4/2 56/4/2 62/4/2
f 57/2/2 58/2/2 63/2/2
f 62/3/2 57/3/2 63/3/2
f 63/2/2 58/2/2 64/2/2
f 67/2/3 66/2/3 65/2/3
f 68/2/3 66/2/3 67/2/3
f 69/3/3 68/3/3 67/3/3
f 70/3/3 68/3/3 69/3/3
f 71/4/3 70/4/3 69/4/3
f 72/4/3 70/4/3 71/4/3
f 73/3/3 72/3/3 71/3/3
f 74/3/3 72/3/3 73/3/3
f 75/2/3 74/2/3 73/2/3
f 76/2/3 74/2/3 75/2/3
f 79/2/3 78/2/3 77/2/3
f 80/2/3 78/2/3 79/2/3
f 83/2/3 82/2/3 81/2/3
f 84/2/3 82/2/3 83/2/3
f 87/1/3 86/1/3 85/1/3
f 88/1/3 86/1/3 87/1/3
f 89/2/3 88/2/3 87/2/3
f 90/2/3 88/2/3 89/2/3
f 91/1/3 90/1/3 89/1/3
f 92/1/3 90/1/3 91/1/3
f 95/3/3 94/3/3 93/3/3
f 96/3/3 94/3/3 95/3/3
f 97/3/4 98/3/4 99/3/4
f 99/3/4 98/3/4 100/3/4
f 101/1/4 102/1/4 103/1/4
f 103/1/4 102/1/4 104/1/4
f 103/2/4 104/2/4 105/2/4
f 105/2/4 104/2/4 106/2/4
f 105/1/4 106/1/4 107/1/4
f 107/1/4 106/1/4 108/1/4
f 109/2/4 110/2/4 111/2/4
f 111/2/4 110/2/4 112/2/4
f 113/2/4 114/2/4 115/2/4
f 115/2/4 114/2/4 116/2/4
f 117/2/4 118/2/4 119/2/4
f 119/2/4 118/2/4 120/2/4
f 119/3/4 120/3/4 121/3/4
f 121/3/4 120/3/4 122/3/4
f 121/4/4 122/4/4 123/4/4
f 123/4/4 122/4/4 124/4/4
f 123/3/4 124/3/4 125/3/4
f 125/3/4 124/3/4 126/3/4
f 125/2/4 126/2/4 127/2/4
f 127/2/4 126/2/4 128/2/4
f 133/1/5 130/1/5 129/1/5
f 134/2/5 131/2/5 130/2/5
f 134/1/5 130/1/5 133/1/5
f 135/1/5 132/1/5 131/1/5
f 135/2/5 131/2/5 134/2/5
f 136/1/5 132/1/5 135/1/5
f 137/2/5 134/2/5 133/2/5
f 137/2/5 135/2/5 134/2/5
f 137/2/5 136/2/5 135/2/5
f 138/2/5 136/2/5 137/2/5
f 139/2/5 136/2/5 138/2/5
f 140/2/5 136/2/5 139/2/5
f 141/1/5 138/1/5 137/1/5
f 142/2/5 139/2/5 138/2/5
f 142/1/5 138/1/5 141/1/5
f 143/1/5 140/1/5 139/1/5
f 143/2/5 139/2/5 142/2/5
f 144/1/5 140/1/5 143/1/5
f 152/2/5 146/2/5 145/2/5
f 153/3/5 147/3/5 146/3/5
f 153/2/5 146/2/5 152/2/5
f 154/4/5 148/4/5 147/4/5
f 154/3/5 147/3/5 153/3/5
f 155/4/5 148/4/5 154/4/5
f 156/4/5 148/4/5 155/4/5
f 157/3/5 149/3/5 148/3/5
f 157/4/5 148/4/5 156/4/5
f 158/2/5 150/2/5 149/2/5
f 158/3/5 149/3/5 157/3/5
f 159/2/5 150/2/5 158/2/5
f 161/2/5 152/2/5 151/2/5
f 162/3/5 153/3/5 152/3/5
f 162/2/5 152/2/5 161/2/5
f 163/7/5 154/7/5 153/7/5
f 163/3/5 153/3/5 162/3/5
f 164/6/5 155/6/5 154/6/5
f 164/7/5 154/7/5 163/7/5
f 165/7/5 156/7/5 155/7/5
f 165/6/5 155/6/5 164/6/5
f 166/6/5 157/6/5 156/6/5
f 166/7/5 156/7/5 165/7/5
f 167/7/5 158/7/5 157/7/5
f 167/6/5 157/6/5 166/6/5
f 168/3/5 159/3/5 158/3/5
f 168/7/5 158/7/5 167/7/5
f 169/2/5 160/2/5 159/2/5
f 169/3/5 159/3/5 168/3/5
f 170/2/5 160/2/5 169/2/5
f 171/3/5 162/3/5 161/3/5
f 172/7/5 163/7/5 162/7/5
f 172/3/5 162/3/5 171/3/5
f 173/6/5 164/6/5 163/6/5
f 173/7/5 163/7/5 172/7/5
f 174/4/5 165/4/5 164/4/5
f 174/6/5 164/6/5 173/6/5
f 175/6/5 166/6/5 165/6/5
f 175/4/5 165/4/5 174/4/5
f 176/4/5 167/4/5 166/4/5
f 176/6/5 166/6/5 175/6/5
f 177/6/5 168/6/5 167/6/5
f 177/4/5 167/4/5 176/4/5
f 178/7/5 169/7/5 168/7/5
f 178/6/5 168/6/5 177/6/5
f 179/3/5 170/3/5 169/3/5
f 179/7/5 169/7/5 178/7/5
f 180/3/5 170/3/5 179/3/5
f 181/6/5 173/6/5 172/6/5
f 181/4/5 172/4/5 171/4/5
f 182/4/5 174/4/5 173/4/5
f 182/6/5 173/6/5 181/6/5
f 183/5/5 175/5/5 174/5/5
f 183/4/5 174/4/5 182/4/5
f 184/4/5 176/4/5 175/4/5
f 184/5/5 175/5/5 183/5/5
f 185/5/5 177/5/5 176/5/5
f 185/4/5 176/4/5 184/4/5
f 186/4/5 178/4/5 177/4/5
f 186/5/5 177/5/5 185/5/5
f 187/6/5 179/6/5 178/6/5
f 187/4/5 178/4/5 186/4/5
f 188/4/5 180/4/5 179/4/5
f 188/6/5 179/6/5 187/6/5
f 189/4/5 181/4/5 171/4/5
f 189/7/5 182/7/5 181/7/5
f 190/6/5 183/6/5 182/6/5
f 190/7/5 182/7/5 189/7/5
f 191/4/5 184/4/5 183/4/5
f 191/6/5 183/6/5 190/6/5
f 192/4/5 184/4/5 191/4/5
f 193/4/5 186/4/5 185/4/5
f 194/6/5 187/6/5 186/6/5
f 194/4/5 186/4/5 193/4/5
f 195/7/5 188/7/5 187/7/5
f 195/6/5 187/6/5 194/6/5
f 196/4/5 180/4/5 188/4/5
f 196/7/5 188/7/5 195/7/5
f 197/4/5 189/4/5 171/4/5
f 198/6/5 190/6/5 189/6/5
f 198/4/5 189/4/5 197/4/5
f 199/4/5 191/4/5 190/4/5
f 199/6/5 190/6/5 198/6/5
f 200/5/5 192/5/5 191/5/5
f 200/4/5 191/4/5 199/4/5
f 201/4/5 193/4/5 192/4/5
f 201/5/5 192/5/5 200/5/5
f 202/5/5 194/5/5 193/5/5
f 202/4/5 193/4/5 201/4/5
f 203/4/5 195/4/5 194/4/5
f 203/5/5 194/5/5 202/5/5
f 204/6/5 196/6/5 195/6/5
f 204/4/5 195/4/5 203/4/5
f 205/4/5 180/4/5 196/4/5
f 205/6/5 196/6/5 204/6/5
f 206/4/5 180/4/5 205/4/5
f 207/3/5 198/3/5 197/3/5
f 208/7/5 199/7/5 198/7/5
f 208/3/5 198/3/5 207/3/5
f 209/6/5 200/6/5 199/6/5
f 209/7/5 199/7/5 208/7/5
f 210/4/5 201/4/5 200/4/5
f 210/6/5 200/6/5 209/6/5
f 211/6/5 202/6/5 201/6/5
f 211/4/5 201/4/5 210/4/5
f 212/4/5 203/4/5 202/4/5
f 212/6/5 202/6/5 211/6/5
f 213/6/5 204/6/5 203/6/5
f 213/4/5 203/4/5 212/4/5
f 214/7/5 205/7/5 204/7/5
f 214/6/5 204/6/5 213/6/5
f 215/3/5 206/3/5 205/3/5
f 215/7/5 205/7/5 214/7/5
f 216/3/5 206/3/5 215/3/5
f 217/2/5 208/2/5 207/2/5
f 218/3/5 209/3/5 208/3/5
f 218/2/5 208/2/5 217/2/5
f 219/7/5 210/7/5 209/7/5
f 219/3/5 209/3/5 218/3/5
f 220/6/5 211/6/5 210/6/5
f 220/7/5 210/7/5 219/7/5
f 221/7/5 212/7/5 211/7/5
f 221/6/5 211/6/5 220/6/5
f 222/6/5 213/6/5 212/6/5
f 222/7/5 212/7/5 221/7/5
f 223/7/5 214/7/5 213/7/5
f 223/6/5 213/6/5 222/6/5
f 224/3/5 215/3/5 214/3/5
f 224/7/5 214/7/5 223/7/5
f 225/2/5 216/2/5 215/2/5
f 225/3/5 215/3/5 224/3/5
f 226/2/5 216/2/5 225/2/5
f 227/2/5 219/2/5 218/2/5
f 228/3/5 220/3/5 219/3/5
f 228/2/5 219/2/5 227/2/5
f 229/4/5 221/4/5 220/4/5
f 229/3/5 220/3/5 228/3/5
f 229/4/5 222/4/5 221/4/5
f 229/4/5 223/4/5 222/4/5
f 230/3/5 224/3/5 223/3/5
f 230/4/5 223/4/5 229/4/5
f 231/2/5 225/2/5 224/2/5
f 231/3/5 224/3/5 230/3/5
f 232/2/5 225/2/5 231/2/5
f 233/1/6 234/1/6 237/1/6
f 234/2/6 235/2/6 238/2/6
f 237/1/6 234/1/6 238/1/6
f 235/1/6 236/1/6 239/1/6
f 238/2/6 235/2/6 239/2/6
f 239/1/6 236/1/6 240/1/6
f 237/2/6 238/2/6 241/2/6
f 241/2/6 238/2/6 242/2/6
f 239/2/6 240/2/6 243/2/6
f 243/2/6 240/2/6 244/2/6
f 241/1/6 242/1/6 245/1/6
f 242/2/6 243/2/6 246/2/6
f 245/1/6 242/1/6 246/1/6
f 243/1/6 244/1/6 247/1/6
f 246/2/6 243/2/6 247/2/6
f 247/1/6 244/1/6 248/1/6
f 249/2/6 250/2/6 256/2/6
f 250/3/6 251/3/6 257/3/6
f 256/2/6 250/2/6 257/2/6
f 251/4/6 252/4/6 258/4/6
f 257/3/6 251/3/6 258/3/6
f 258/4/6 252/4/6 259/4/6
f 259/4/6 252/4/6 260/4/6
f 252/3/6 253/3/6 261/3/6
f 260/4/6 252/4/6 261/4/6
f 253/2/6 254/2/6 262/2/6
f 261/3/6 253/3/6 262/3/6
f 262/2/6 254/2/6 263/2/6
f 255/2/6 256/2/6 265/2/6
f 256/3/6 257/3/6 266/3/6
f 265/2/6 256/2/6 266/2/6
f 257/7/6 258/7/6 267/7/6
f 266/3/6 257/3/6 267/3/6
f 258/6/6 259/6/6 268/6/6
f 267/7/6 258/7/6 268/7/6
f 259/7/6 260/7/6 269/7/6
f 268/6/6 259/6/6 269/6/6
f 260/6/6 261/6/6 270/6/6
f 269/7/6 260/7/6 270/7/6
f 261/7/6 262/7/6 271/7/6
f 270/6/6 261/6/6 271/6/6
f 262/3/6 263/3/6 272/3/6
f 271/7/6 262/7/6 272/7/6
f 263/2/6 264/2/6 273/2/6
f 272/3/6 263/3/6 273/3/6
f 273/2/6 264/2/6 274/2/6
f 265/3/6 266/3/6 275/3/6
f 266/7/6 267/7/6 276/7/6
f 275/3/6 266/3/6 276/3/6
f 267/6/6 268/6/6 277/6/6
f 276/7/6 267/7/6 277/7/6
f 268/4/6 269/4/6 278/4/6
f 277/6/6 268/6/6 278/6/6
f 269/6/6 270/6/6 279/6/6
f 278/4/6 269/4/6 279/4/6
f 270/4/6 271/4/6 280/4/6
f 279/6/6 270/6/6 280/6/6
f 271/6/6 272/6/6 281/6/6
f 280/4/6 271/4/6 281/4/6
f 272/7/6 273/7/6 282/7/6
f 281/6/6 272/6/6 282/6/6
f 273/3/6 274/3/6 283/3/6
f 282/7/6 273/7/6 283/7/6
f 283/3/6 274/3/6 284/3/6
f 276/6/6 277/6/6 285/6/6
f 275/4/6 276/4/6 285/4/6
f 277/4/6 278/4/6 286/4/6
f 285/6/6 277/6/6 286/6/6
f 278/5/6 279/5/6 287/5/6
f 286/4/6 278/4/6 287/4/6
f 279/4/6 280/4/6 288/4/6
f 287/5/6 279/5/6 288/5/6
f 280/5/6 281/5/6 289/5/6
f 288/4/6 280/4/6 289/4/6
f 281/4/6 282/4/6 290/4/6
f 289/5/6 281/5/6 290/5/6
f 282/6/6 283/6/6 291/6/6
f 290/4/6 282/4/6 291/4/6
f 283/4/6 284/4/6 292/4/6
f 291/6/6 283/6/6 292/6/6
f 275/4/6 285/4/6 293/4/6
f 285/7/6 286/7/6 293/7/6
f 286/6/6 287/6/6 294/6/6
f 293/7/6 286/7/6 294/7/6
f 287/4/6 288/4/6 295/4/6
f 294/6/6 287/6/6 295/6/6
f 288/5/6 289/5/6 296/5/6
f 295/4/6 288/4/6 296/4/6
f 289/4/6 290/4/6 297/4/6
f 296/5/6 289/5/6 297/5/6
f 290/6/6 291/6/6 298/6/6
f 297/4/6 290/4/6 298/4/6
f 291/7/6 292/7/6 299/7/6
f 298/6/6 291/6/6 299/6/6
f 292/4/6 284/4/6 300/4/6
f 299/7/6 292/7/6 300/7/6
f 275/4/6 293/4/6 301/4/6
f 293/6/6 294/6/6 302/6/6
f 301/4/6 293/4/6 302/4/6
f 294/4/6 295/4/6 303/4/6
f 302/6/6 294/6/6 303/6/6
f 295/5/6 296/5/6 304/5/6
f 303/4/6 295/4/6 304/4/6
f 296/4/6 297/4/6 305/4/6
f 304/5/6 296/5/6 305/5/6
f 297/5/6 298/5/6 306/5/6
f 305/4/6 297/4/6 306/4/6
f 298/4/6 299/4/6 307/4/6
f 306/5/6 298/5/6 307/5/6
f 299/6/6 300/6/6 308/6/6
f 307/4/6 299/4/6 308/4/6
f 300/4/6 284/4/6 309/4/6
f 308/6/6 300/6/6 309/6/6
f 309/4/6 284/4/6 310/4/6
f 301/3/6 302/3/6 311/3/6
f 302/7/6 303/7/6 312/7/6
f 311/3/6 302/3/6 312/3/6
f 303/6/6 304/6/6 313/6/6
f 312/7/6 303/7/6 313/7/6
f 304/4/6 305/4/6 314/4/6
f 313/6/6 304/6/6 314/6/6
f 305/6/6 306/6/6 315/6/6
f 314/4/6 305/4/6 315/4/6
f 306/4/6 307/4/6 316/4/6
f 315/6/6 306/6/6 316/6/6
f 307/6/6 308/6/6 317/6/6
f 316/4/6 307/4/6 317/4/6
f 308/7/6 309/7/6 318/7/6
f 317/6/6 308/6/6 318/6/6
f 309/3/6 310/3/6 319/3/6
f 318/7/6 309/7/6 319/7/6
f 319/3/6 310/3/6 320/3/6
f 311/2/6 312/2/6 321/2/6
f 312/3/6 313/3/6 322/3/6
f 321/2/6 312/2/6 322/2/6
f 313/7/6 314/7/6 323/7/6
f 322/3/6 313/3/6 323/3/6
f 314/6/6 315/6/6 324/6/6
f 323/7/6 314/7/6 324/7/6
f 315/7/6 316/7/6 325/7/6
f 324/6/6 315/6/6 325/6/6
f 316/6/6 317/6/6 326/6/6
f 325/7/6 316/7/6 326/7/6
f 317/7/6 318/7/6 327/7/6
f 326/6/6 317/6/6 327/6/6
f 318/3/6 319/3/6 328/3/6
f 327/7/6 318/7/6 328/7/6
f 319/2/6 320/2/6 329/2/6
f 328/3/6 319/3/6 329/3/6
f 329/2/6 320/2/6 330/2/6
f 322/2/6 323/2/6 331/2/6
f 323/3/6 324/3/6 332/3/6
f 331/2/6 323/2/6 332/2/6
f 324/4/6 325/4/6 333/4/6
f 332/3/6 324/3/6 333/3/6
f 325/4/6 326/4/6 333/4/6
f 326/4/6 327/4/6 333/4/6
f 327/3/6 328/3/6 334/3/6
f 333/4/6 327/4/6 334/4/6
f 328/2/6 329/2/6 335/2/6
f 334/3/6 328/3/6 335/3/6
f 335/2/6 329/2/6 336/2/6
