# MagicaVoxel @ Ephtracy

# group
o 

# material
mtllib Interior_Furniture_Table_SideTable_Big_01.mtl
usemtl palette

# normals
vn -1 0 0
vn 1 0 0
vn 0 0 1
vn 0 0 -1
vn 0 -1 0
vn 0 1 0

# texcoords
vt 0.845703 0.5
vt 0.876953 0.5
vt 0.880859 0.5
vt 0.884766 0.5
vt 0.888672 0.5
vt 0.892578 0.5

# verts
v -0.8 0.9 0.5
v -0.8 0.9 0.4
v -0.8 0.9 0.3
v -0.8 0.9 -0.4
v -0.8 0.9 -0.5
v -0.8 0.9 -0.6
v -0.8 1 0.5
v -0.8 1 0.4
v -0.8 1 0.3
v -0.8 1 -0.4
v -0.8 1 -0.5
v -0.8 1 -0.6
v -0.7 0 0.5
v -0.7 0 0.4
v -0.7 0 -0.5
v -0.7 0 -0.6
v -0.7 0.1 0.5
v -0.7 0.1 0.4
v -0.7 0.1 -0.5
v -0.7 0.1 -0.6
v -0.7 0.9 0.6
v -0.7 0.9 0.5
v -0.7 0.9 0.4
v -0.7 0.9 0.3
v -0.7 0.9 -0.4
v -0.7 0.9 -0.5
v -0.7 0.9 -0.6
v -0.7 1 0.6
v -0.7 1 0.5
v -0.7 1 0.4
v -0.7 1 0.3
v -0.7 1 -0.4
v -0.7 1 -0.5
v -0.7 1 -0.6
v -0.7 1.1 0.5
v -0.7 1.1 0.4
v -0.7 1.1 0.3
v -0.7 1.1 -0.4
v -0.7 1.1 -0.5
v -0.7 1.1 -0.6
v -0.1 0.4 0.5
v -0.1 0.4 0.4
v -0.1 0.5 0.5
v -0.1 0.5 0.4
v 0.6 0 0.5
v 0.6 0 0.4
v 0.6 0.1 0.5
v 0.6 0.1 0.4
v 0.6 0.9 0.5
v 0.6 0.9 0.4
v -0.6 0 0.5
v -0.6 0 0.4
v -0.6 0.1 0.5
v -0.6 0.1 0.4
v -0.6 0.9 0.5
v -0.6 0.9 0.4
v 0.1 0.4 0.5
v 0.1 0.4 0.4
v 0.1 0.5 0.5
v 0.1 0.5 0.4
v 0.7 0 0.5
v 0.7 0 0.4
v 0.7 0 -0.5
v 0.7 0 -0.6
v 0.7 0.1 0.5
v 0.7 0.1 0.4
v 0.7 0.1 -0.5
v 0.7 0.1 -0.6
v 0.7 0.9 0.6
v 0.7 0.9 0.5
v 0.7 0.9 0.4
v 0.7 0.9 0.3
v 0.7 0.9 -0.4
v 0.7 0.9 -0.5
v 0.7 0.9 -0.6
v 0.7 1 0.6
v 0.7 1 0.5
v 0.7 1 0.4
v 0.7 1 0.3
v 0.7 1 -0.4
v 0.7 1 -0.5
v 0.7 1 -0.6
v 0.7 1.1 0.5
v 0.7 1.1 0.4
v 0.7 1.1 0.3
v 0.7 1.1 -0.4
v 0.7 1.1 -0.5
v 0.7 1.1 -0.6
v 0.8 0.9 0.5
v 0.8 0.9 0.4
v 0.8 0.9 0.3
v 0.8 0.9 -0.4
v 0.8 0.9 -0.5
v 0.8 0.9 -0.6
v 0.8 1 0.5
v 0.8 1 0.4
v 0.8 1 0.3
v 0.8 1 -0.4
v 0.8 1 -0.5
v 0.8 1 -0.6
v -0.7 0.9 0.6
v -0.7 1 0.6
v -0.6 0.9 0.6
v -0.6 1 0.6
v -0.5 0.9 0.6
v -0.5 1 0.6
v 0.5 0.9 0.6
v 0.5 1 0.6
v 0.6 0.9 0.6
v 0.6 1 0.6
v 0.7 0.9 0.6
v 0.7 1 0.6
v -0.8 0.9 0.5
v -0.8 1 0.5
v -0.7 0 0.5
v -0.7 0.1 0.5
v -0.7 0.9 0.5
v -0.7 1 0.5
v -0.7 1.1 0.5
v -0.6 0 0.5
v -0.6 0.1 0.5
v -0.6 0.9 0.5
v -0.6 1 0.5
v -0.6 1.1 0.5
v -0.5 1 0.5
v -0.5 1.1 0.5
v -0.1 0.4 0.5
v -0.1 0.5 0.5
v 0.1 0.4 0.5
v 0.1 0.5 0.5
v 0.5 1 0.5
v 0.5 1.1 0.5
v 0.6 0 0.5
v 0.6 0.1 0.5
v 0.6 0.9 0.5
v 0.6 1 0.5
v 0.6 1.1 0.5
v 0.7 0 0.5
v 0.7 0.1 0.5
v 0.7 0.9 0.5
v 0.7 1 0.5
v 0.7 1.1 0.5
v 0.8 0.9 0.5
v 0.8 1 0.5
v -0.6 0 0.4
v -0.6 0.1 0.4
v -0.6 0.9 0.4
v -0.5 0.1 0.4
v -0.5 0.2 0.4
v -0.5 0.7 0.4
v -0.5 0.8 0.4
v -0.4 0.1 0.4
v -0.4 0.2 0.4
v -0.4 0.7 0.4
v -0.4 0.8 0.4
v -0.1 0.4 0.4
v -0.1 0.5 0.4
v 0.1 0.4 0.4
v 0.1 0.5 0.4
v 0.4 0.1 0.4
v 0.4 0.2 0.4
v 0.4 0.7 0.4
v 0.4 0.8 0.4
v 0.5 0.1 0.4
v 0.5 0.2 0.4
v 0.5 0.7 0.4
v 0.5 0.8 0.4
v 0.6 0 0.4
v 0.6 0.1 0.4
v 0.6 0.9 0.4
v -0.8 0.9 -0.6
v -0.8 1 -0.6
v -0.7 0 -0.6
v -0.7 0.1 -0.6
v -0.7 0.9 -0.6
v -0.7 1 -0.6
v -0.7 1.1 -0.6
v -0.6 0 -0.6
v -0.6 0.1 -0.6
v -0.6 1 -0.6
v -0.6 1.1 -0.6
v -0.5 1 -0.6
v -0.5 1.1 -0.6
v 0.5 1 -0.6
v 0.5 1.1 -0.6
v 0.6 0 -0.6
v 0.6 0.1 -0.6
v 0.6 1 -0.6
v 0.6 1.1 -0.6
v 0.7 0 -0.6
v 0.7 0.1 -0.6
v 0.7 0.9 -0.6
v 0.7 1 -0.6
v 0.7 1.1 -0.6
v 0.8 0.9 -0.6
v 0.8 1 -0.6
v -0.7 0 0.5
v -0.6 0 0.5
v 0.6 0 0.5
v 0.7 0 0.5
v -0.7 0 0.4
v -0.6 0 0.4
v 0.6 0 0.4
v 0.7 0 0.4
v -0.6 0 0.3
v 0.6 0 0.3
v -0.7 0 -0.5
v -0.6 0 -0.5
v 0.6 0 -0.5
v 0.7 0 -0.5
v -0.7 0 -0.6
v -0.6 0 -0.6
v 0.6 0 -0.6
v 0.7 0 -0.6
v -0.1 0.4 0.5
v 0.1 0.4 0.5
v -0.1 0.4 0.4
v 0.1 0.4 0.4
v -0.7 0.9 0.6
v -0.6 0.9 0.6
v -0.5 0.9 0.6
v 0.5 0.9 0.6
v 0.6 0.9 0.6
v 0.7 0.9 0.6
v -0.8 0.9 0.5
v -0.7 0.9 0.5
v -0.6 0.9 0.5
v -0.5 0.9 0.5
v 0.5 0.9 0.5
v 0.6 0.9 0.5
v 0.7 0.9 0.5
v 0.8 0.9 0.5
v -0.8 0.9 0.4
v -0.7 0.9 0.4
v -0.6 0.9 0.4
v 0.6 0.9 0.4
v 0.7 0.9 0.4
v 0.8 0.9 0.4
v -0.8 0.9 0.3
v -0.7 0.9 0.3
v 0.7 0.9 0.3
v 0.8 0.9 0.3
v -0.8 0.9 -0.4
v -0.7 0.9 -0.4
v 0.7 0.9 -0.4
v 0.8 0.9 -0.4
v -0.8 0.9 -0.5
v -0.7 0.9 -0.5
v 0.7 0.9 -0.5
v 0.8 0.9 -0.5
v -0.8 0.9 -0.6
v -0.7 0.9 -0.6
v 0.7 0.9 -0.6
v 0.8 0.9 -0.6
v -0.1 0.5 0.5
v 0.1 0.5 0.5
v -0.1 0.5 0.4
v 0.1 0.5 0.4
v -0.7 1 0.6
v -0.6 1 0.6
v -0.5 1 0.6
v 0.5 1 0.6
v 0.6 1 0.6
v 0.7 1 0.6
v -0.8 1 0.5
v -0.7 1 0.5
v -0.6 1 0.5
v -0.5 1 0.5
v 0.5 1 0.5
v 0.6 1 0.5
v 0.7 1 0.5
v 0.8 1 0.5
v -0.8 1 0.4
v -0.7 1 0.4
v 0.7 1 0.4
v 0.8 1 0.4
v -0.8 1 0.3
v -0.7 1 0.3
v 0.7 1 0.3
v 0.8 1 0.3
v -0.8 1 -0.4
v -0.7 1 -0.4
v 0.7 1 -0.4
v 0.8 1 -0.4
v -0.8 1 -0.5
v -0.7 1 -0.5
v 0.7 1 -0.5
v 0.8 1 -0.5
v -0.8 1 -0.6
v -0.7 1 -0.6
v 0.7 1 -0.6
v 0.8 1 -0.6
v -0.7 1.1 0.5
v -0.6 1.1 0.5
v -0.5 1.1 0.5
v 0.5 1.1 0.5
v 0.6 1.1 0.5
v 0.7 1.1 0.5
v -0.7 1.1 0.4
v -0.6 1.1 0.4
v -0.5 1.1 0.4
v 0.5 1.1 0.4
v 0.6 1.1 0.4
v 0.7 1.1 0.4
v -0.7 1.1 0.3
v -0.6 1.1 0.3
v 0.6 1.1 0.3
v 0.7 1.1 0.3
v -0.7 1.1 -0.4
v -0.6 1.1 -0.4
v 0.6 1.1 -0.4
v 0.7 1.1 -0.4
v -0.7 1.1 -0.5
v -0.6 1.1 -0.5
v -0.5 1.1 -0.5
v 0.5 1.1 -0.5
v 0.6 1.1 -0.5
v 0.7 1.1 -0.5
v -0.7 1.1 -0.6
v -0.6 1.1 -0.6
v -0.5 1.1 -0.6
v 0.5 1.1 -0.6
v 0.6 1.1 -0.6
v 0.7 1.1 -0.6

# faces
f 7/4/1 2/4/1 1/4/1
f 8/5/1 3/5/1 2/5/1
f 8/4/1 2/4/1 7/4/1
f 9/6/1 4/6/1 3/6/1
f 9/5/1 3/5/1 8/5/1
f 10/5/1 5/5/1 4/5/1
f 10/6/1 4/6/1 9/6/1
f 11/4/1 6/4/1 5/4/1
f 11/5/1 5/5/1 10/5/1
f 12/4/1 6/4/1 11/4/1
f 17/2/1 14/2/1 13/2/1
f 18/3/1 15/3/1 14/3/1
f 18/2/1 14/2/1 17/2/1
f 19/2/1 16/2/1 15/2/1
f 19/3/1 15/3/1 18/3/1
f 20/2/1 16/2/1 19/2/1
f 22/3/1 18/3/1 17/3/1
f 23/5/1 19/5/1 18/5/1
f 23/3/1 18/3/1 22/3/1
f 24/5/1 19/5/1 23/5/1
f 25/5/1 19/5/1 24/5/1
f 26/3/1 20/3/1 19/3/1
f 26/5/1 19/5/1 25/5/1
f 27/3/1 20/3/1 26/3/1
f 28/4/1 22/4/1 21/4/1
f 29/4/1 22/4/1 28/4/1
f 35/3/1 30/3/1 29/3/1
f 36/4/1 31/4/1 30/4/1
f 36/3/1 30/3/1 35/3/1
f 37/5/1 32/5/1 31/5/1
f 37/4/1 31/4/1 36/4/1
f 38/4/1 33/4/1 32/4/1
f 38/5/1 32/5/1 37/5/1
f 39/3/1 34/3/1 33/3/1
f 39/4/1 33/4/1 38/4/1
f 40/3/1 34/3/1 39/3/1
f 43/1/1 42/1/1 41/1/1
f 44/1/1 42/1/1 43/1/1
f 47/2/1 46/2/1 45/2/1
f 48/2/1 46/2/1 47/2/1
f 49/3/1 48/3/1 47/3/1
f 50/3/1 48/3/1 49/3/1
f 51/2/2 52/2/2 53/2/2
f 53/2/2 52/2/2 54/2/2
f 53/3/2 54/3/2 55/3/2
f 55/3/2 54/3/2 56/3/2
f 57/1/2 58/1/2 59/1/2
f 59/1/2 58/1/2 60/1/2
f 61/2/2 62/2/2 65/2/2
f 62/3/2 63/3/2 66/3/2
f 65/2/2 62/2/2 66/2/2
f 63/2/2 64/2/2 67/2/2
f 66/3/2 63/3/2 67/3/2
f 67/2/2 64/2/2 68/2/2
f 65/3/2 66/3/2 70/3/2
f 66/5/2 67/5/2 71/5/2
f 70/3/2 66/3/2 71/3/2
f 71/5/2 67/5/2 72/5/2
f 72/5/2 67/5/2 73/5/2
f 67/3/2 68/3/2 74/3/2
f 73/5/2 67/5/2 74/5/2
f 74/3/2 68/3/2 75/3/2
f 69/4/2 70/4/2 76/4/2
f 76/4/2 70/4/2 77/4/2
f 77/3/2 78/3/2 83/3/2
f 78/4/2 79/4/2 84/4/2
f 83/3/2 78/3/2 84/3/2
f 79/5/2 80/5/2 85/5/2
f 84/4/2 79/4/2 85/4/2
f 80/4/2 81/4/2 86/4/2
f 85/5/2 80/5/2 86/5/2
f 81/3/2 82/3/2 87/3/2
f 86/4/2 81/4/2 87/4/2
f 87/3/2 82/3/2 88/3/2
f 89/4/2 90/4/2 95/4/2
f 90/5/2 91/5/2 96/5/2
f 95/4/2 90/4/2 96/4/2
f 91/6/2 92/6/2 97/6/2
f 96/5/2 91/5/2 97/5/2
f 92/5/2 93/5/2 98/5/2
f 97/6/2 92/6/2 98/6/2
f 93/4/2 94/4/2 99/4/2
f 98/5/2 93/5/2 99/5/2
f 99/4/2 94/4/2 100/4/2
f 103/4/3 102/4/3 101/4/3
f 104/4/3 102/4/3 103/4/3
f 105/5/3 104/5/3 103/5/3
f 106/5/3 104/5/3 105/5/3
f 107/6/3 106/6/3 105/6/3
f 108/6/3 106/6/3 107/6/3
f 109/5/3 108/5/3 107/5/3
f 110/5/3 108/5/3 109/5/3
f 111/4/3 110/4/3 109/4/3
f 112/4/3 110/4/3 111/4/3
f 117/4/3 114/4/3 113/4/3
f 118/4/3 114/4/3 117/4/3
f 120/2/3 116/2/3 115/2/3
f 121/3/3 117/3/3 116/3/3
f 121/2/3 116/2/3 120/2/3
f 122/3/3 117/3/3 121/3/3
f 123/3/3 119/3/3 118/3/3
f 124/3/3 119/3/3 123/3/3
f 125/4/3 124/4/3 123/4/3
f 126/4/3 124/4/3 125/4/3
f 129/1/3 128/1/3 127/1/3
f 130/1/3 128/1/3 129/1/3
f 131/5/3 126/5/3 125/5/3
f 132/5/3 126/5/3 131/5/3
f 136/4/3 132/4/3 131/4/3
f 137/4/3 132/4/3 136/4/3
f 138/2/3 134/2/3 133/2/3
f 139/3/3 135/3/3 134/3/3
f 139/2/3 134/2/3 138/2/3
f 140/3/3 135/3/3 139/3/3
f 141/3/3 137/3/3 136/3/3
f 142/3/3 137/3/3 141/3/3
f 143/4/3 141/4/3 140/4/3
f 144/4/3 141/4/3 143/4/3
f 148/2/3 146/2/3 145/2/3
f 148/2/3 147/2/3 146/2/3
f 149/2/3 147/2/3 148/2/3
f 150/2/3 147/2/3 149/2/3
f 151/2/3 147/2/3 150/2/3
f 152/2/3 148/2/3 145/2/3
f 152/3/3 149/3/3 148/3/3
f 153/4/3 150/4/3 149/4/3
f 153/3/3 149/3/3 152/3/3
f 154/5/3 151/5/3 150/5/3
f 154/4/3 150/4/3 153/4/3
f 155/2/3 147/2/3 151/2/3
f 155/5/3 151/5/3 154/5/3
f 156/5/3 154/5/3 153/5/3
f 157/5/3 154/5/3 156/5/3
f 158/5/3 156/5/3 153/5/3
f 159/5/3 154/5/3 157/5/3
f 160/4/3 153/4/3 152/4/3
f 160/2/3 152/2/3 145/2/3
f 161/5/3 159/5/3 158/5/3
f 161/4/3 153/4/3 160/4/3
f 161/5/3 158/5/3 153/5/3
f 162/5/3 154/5/3 159/5/3
f 162/5/3 159/5/3 161/5/3
f 162/6/3 155/6/3 154/6/3
f 163/2/3 147/2/3 155/2/3
f 163/6/3 155/6/3 162/6/3
f 164/2/3 160/2/3 145/2/3
f 164/3/3 161/3/3 160/3/3
f 165/4/3 162/4/3 161/4/3
f 165/3/3 161/3/3 164/3/3
f 166/5/3 163/5/3 162/5/3
f 166/4/3 162/4/3 165/4/3
f 167/2/3 147/2/3 163/2/3
f 167/5/3 163/5/3 166/5/3
f 168/2/3 164/2/3 145/2/3
f 168/2/3 166/2/3 165/2/3
f 168/2/3 167/2/3 166/2/3
f 168/2/3 165/2/3 164/2/3
f 169/2/3 167/2/3 168/2/3
f 170/2/3 147/2/3 167/2/3
f 170/2/3 167/2/3 169/2/3
f 171/4/4 172/4/4 175/4/4
f 175/4/4 172/4/4 176/4/4
f 173/2/4 174/2/4 178/2/4
f 176/3/4 177/3/4 179/3/4
f 178/2/4 174/2/4 179/2/4
f 174/3/4 175/3/4 179/3/4
f 175/3/4 176/3/4 179/3/4
f 179/3/4 177/3/4 180/3/4
f 180/3/4 177/3/4 181/3/4
f 179/5/4 180/5/4 182/5/4
f 180/4/4 181/4/4 182/4/4
f 182/4/4 181/4/4 183/4/4
f 179/5/4 182/5/4 184/5/4
f 182/5/4 183/5/4 184/5/4
f 184/5/4 183/5/4 185/5/4
f 178/3/4 179/3/4 186/3/4
f 179/5/4 184/5/4 187/5/4
f 186/3/4 179/3/4 187/3/4
f 184/4/4 185/4/4 188/4/4
f 187/5/4 184/5/4 188/5/4
f 188/4/4 185/4/4 189/4/4
f 186/2/4 187/2/4 190/2/4
f 187/3/4 188/3/4 191/3/4
f 190/2/4 187/2/4 191/2/4
f 188/3/4 189/3/4 191/3/4
f 191/3/4 189/3/4 192/3/4
f 192/3/4 189/3/4 193/3/4
f 193/3/4 189/3/4 194/3/4
f 192/4/4 193/4/4 195/4/4
f 195/4/4 193/4/4 196/4/4
f 201/2/5 198/2/5 197/2/5
f 202/2/5 198/2/5 201/2/5
f 203/2/5 200/2/5 199/2/5
f 204/2/5 200/2/5 203/2/5
f 205/3/5 202/3/5 201/3/5
f 205/2/5 203/2/5 202/2/5
f 206/3/5 204/3/5 203/3/5
f 206/2/5 203/2/5 205/2/5
f 207/3/5 205/3/5 201/3/5
f 208/5/5 206/5/5 205/5/5
f 208/3/5 205/3/5 207/3/5
f 209/3/5 204/3/5 206/3/5
f 209/5/5 206/5/5 208/5/5
f 210/3/5 204/3/5 209/3/5
f 211/2/5 208/2/5 207/2/5
f 212/3/5 209/3/5 208/3/5
f 212/2/5 208/2/5 211/2/5
f 213/2/5 210/2/5 209/2/5
f 213/3/5 209/3/5 212/3/5
f 214/2/5 210/2/5 213/2/5
f 217/1/5 216/1/5 215/1/5
f 218/1/5 216/1/5 217/1/5
f 226/4/5 220/4/5 219/4/5
f 227/5/5 221/5/5 220/5/5
f 227/4/5 220/4/5 226/4/5
f 228/6/5 222/6/5 221/6/5
f 228/5/5 221/5/5 227/5/5
f 229/5/5 223/5/5 222/5/5
f 229/6/5 222/6/5 228/6/5
f 230/4/5 224/4/5 223/4/5
f 230/5/5 223/5/5 229/5/5
f 231/4/5 224/4/5 230/4/5
f 233/4/5 226/4/5 225/4/5
f 234/4/5 226/4/5 233/4/5
f 235/5/5 229/5/5 228/5/5
f 235/5/5 230/5/5 229/5/5
f 235/5/5 228/5/5 227/5/5
f 236/5/5 230/5/5 235/5/5
f 237/4/5 232/4/5 231/4/5
f 238/4/5 232/4/5 237/4/5
f 239/5/5 234/5/5 233/5/5
f 240/5/5 234/5/5 239/5/5
f 241/5/5 238/5/5 237/5/5
f 242/5/5 238/5/5 241/5/5
f 243/6/5 240/6/5 239/6/5
f 244/6/5 240/6/5 243/6/5
f 245/6/5 242/6/5 241/6/5
f 246/6/5 242/6/5 245/6/5
f 247/5/5 244/5/5 243/5/5
f 248/5/5 244/5/5 247/5/5
f 249/5/5 246/5/5 245/5/5
f 250/5/5 246/5/5 249/5/5
f 251/4/5 248/4/5 247/4/5
f 252/4/5 248/4/5 251/4/5
f 253/4/5 250/4/5 249/4/5
f 254/4/5 250/4/5 253/4/5
f 255/1/6 256/1/6 257/1/6
f 257/1/6 256/1/6 258/1/6
f 259/4/6 260/4/6 266/4/6
f 260/5/6 261/5/6 267/5/6
f 266/4/6 260/4/6 267/4/6
f 261/6/6 262/6/6 268/6/6
f 267/5/6 261/5/6 268/5/6
f 262/5/6 263/5/6 269/5/6
f 268/6/6 262/6/6 269/6/6
f 263/4/6 264/4/6 270/4/6
f 269/5/6 263/5/6 270/5/6
f 270/4/6 264/4/6 271/4/6
f 265/4/6 266/4/6 273/4/6
f 273/4/6 266/4/6 274/4/6
f 271/4/6 272/4/6 275/4/6
f 275/4/6 272/4/6 276/4/6
f 273/5/6 274/5/6 277/5/6
f 277/5/6 274/5/6 278/5/6
f 275/5/6 276/5/6 279/5/6
f 279/5/6 276/5/6 280/5/6
f 277/6/6 278/6/6 281/6/6
f 281/6/6 278/6/6 282/6/6
f 279/6/6 280/6/6 283/6/6
f 283/6/6 280/6/6 284/6/6
f 281/5/6 282/5/6 285/5/6
f 285/5/6 282/5/6 286/5/6
f 283/5/6 284/5/6 287/5/6
f 287/5/6 284/5/6 288/5/6
f 285/4/6 286/4/6 289/4/6
f 289/4/6 286/4/6 290/4/6
f 287/4/6 288/4/6 291/4/6
f 291/4/6 288/4/6 292/4/6
f 293/3/6 294/3/6 299/3/6
f 294/4/6 295/4/6 300/4/6
f 299/3/6 294/3/6 300/3/6
f 295/5/6 296/5/6 301/5/6
f 300/4/6 295/4/6 301/4/6
f 296/4/6 297/4/6 302/4/6
f 301/5/6 296/5/6 302/5/6
f 297/3/6 298/3/6 303/3/6
f 302/4/6 297/4/6 303/4/6
f 303/3/6 298/3/6 304/3/6
f 299/4/6 300/4/6 305/4/6
f 301/5/6 302/5/6 306/5/6
f 305/4/6 300/4/6 306/4/6
f 300/5/6 301/5/6 306/5/6
f 302/5/6 303/5/6 306/5/6
f 303/4/6 304/4/6 307/4/6
f 306/5/6 303/5/6 307/5/6
f 307/4/6 304/4/6 308/4/6
f 305/5/6 306/5/6 309/5/6
f 306/5/6 307/5/6 309/5/6
f 307/5/6 308/5/6 309/5/6
f 309/5/6 308/5/6 310/5/6
f 310/5/6 308/5/6 311/5/6
f 311/5/6 308/5/6 312/5/6
f 309/4/6 310/4/6 313/4/6
f 310/5/6 311/5/6 314/5/6
f 313/4/6 310/4/6 314/4/6
f 314/5/6 311/5/6 315/5/6
f 315/5/6 311/5/6 316/5/6
f 311/4/6 312/4/6 317/4/6
f 316/5/6 311/5/6 317/5/6
f 317/4/6 312/4/6 318/4/6
f 313/3/6 314/3/6 319/3/6
f 314/4/6 315/4/6 320/4/6
f 319/3/6 314/3/6 320/3/6
f 315/5/6 316/5/6 321/5/6
f 320/4/6 315/4/6 321/4/6
f 316/4/6 317/4/6 322/4/6
f 321/5/6 316/5/6 322/5/6
f 317/3/6 318/3/6 323/3/6
f 322/4/6 317/4/6 323/4/6
f 323/3/6 318/3/6 324/3/6
