# MagicaVoxel @ Ephtracy

# group
o 

# material
mtllib Interior_Furniture_Table_SideTable_Big_02.mtl
usemtl palette

# normals
vn -1 0 0
vn 1 0 0
vn 0 0 1
vn 0 0 -1
vn 0 -1 0
vn 0 1 0

# texcoords
vt 0.845703 0.5
vt 0.876953 0.5
vt 0.880859 0.5
vt 0.884766 0.5
vt 0.888672 0.5
vt 0.892578 0.5

# verts
v -0.8 0.9 0.5
v -0.8 0.9 0.4
v -0.8 0.9 0.3
v -0.8 0.9 -0.4
v -0.8 0.9 -0.5
v -0.8 0.9 -0.6
v -0.8 1 0.5
v -0.8 1 0.4
v -0.8 1 0.3
v -0.8 1 -0.4
v -0.8 1 -0.5
v -0.8 1 -0.6
v -0.7 0 0.5
v -0.7 0 0.4
v -0.7 0 -0.5
v -0.7 0 -0.6
v -0.7 0.1 0.5
v -0.7 0.1 0.4
v -0.7 0.1 -0.5
v -0.7 0.1 -0.6
v -0.7 0.9 0.6
v -0.7 0.9 0.5
v -0.7 0.9 0.4
v -0.7 0.9 0.3
v -0.7 0.9 -0.4
v -0.7 0.9 -0.5
v -0.7 0.9 -0.6
v -0.7 1 0.6
v -0.7 1 0.5
v -0.7 1 0.4
v -0.7 1 0.3
v -0.7 1 -0.4
v -0.7 1 -0.5
v -0.7 1 -0.6
v -0.7 1.1 0.5
v -0.7 1.1 0.4
v -0.7 1.1 0.3
v -0.7 1.1 -0.4
v -0.7 1.1 -0.5
v -0.7 1.1 -0.6
v -0.1 0.2 0.5
v -0.1 0.2 0.4
v -0.1 0.3 0.5
v -0.1 0.3 0.4
v -0.1 0.6 0.5
v -0.1 0.6 0.4
v -0.1 0.7 0.5
v -0.1 0.7 0.4
v 0.6 0 0.5
v 0.6 0 0.4
v 0.6 0.1 0.5
v 0.6 0.1 0.4
v 0.6 0.9 0.5
v 0.6 0.9 0.4
v -0.6 0 0.5
v -0.6 0 0.4
v -0.6 0.1 0.5
v -0.6 0.1 0.4
v -0.6 0.9 0.5
v -0.6 0.9 0.4
v 0.1 0.2 0.5
v 0.1 0.2 0.4
v 0.1 0.3 0.5
v 0.1 0.3 0.4
v 0.1 0.6 0.5
v 0.1 0.6 0.4
v 0.1 0.7 0.5
v 0.1 0.7 0.4
v 0.7 0 0.5
v 0.7 0 0.4
v 0.7 0 -0.5
v 0.7 0 -0.6
v 0.7 0.1 0.5
v 0.7 0.1 0.4
v 0.7 0.1 -0.5
v 0.7 0.1 -0.6
v 0.7 0.9 0.6
v 0.7 0.9 0.5
v 0.7 0.9 0.4
v 0.7 0.9 0.3
v 0.7 0.9 -0.4
v 0.7 0.9 -0.5
v 0.7 0.9 -0.6
v 0.7 1 0.6
v 0.7 1 0.5
v 0.7 1 0.4
v 0.7 1 0.3
v 0.7 1 -0.4
v 0.7 1 -0.5
v 0.7 1 -0.6
v 0.7 1.1 0.5
v 0.7 1.1 0.4
v 0.7 1.1 0.3
v 0.7 1.1 -0.4
v 0.7 1.1 -0.5
v 0.7 1.1 -0.6
v 0.8 0.9 0.5
v 0.8 0.9 0.4
v 0.8 0.9 0.3
v 0.8 0.9 -0.4
v 0.8 0.9 -0.5
v 0.8 0.9 -0.6
v 0.8 1 0.5
v 0.8 1 0.4
v 0.8 1 0.3
v 0.8 1 -0.4
v 0.8 1 -0.5
v 0.8 1 -0.6
v -0.7 0.9 0.6
v -0.7 1 0.6
v -0.6 0.9 0.6
v -0.6 1 0.6
v -0.5 0.9 0.6
v -0.5 1 0.6
v 0.5 0.9 0.6
v 0.5 1 0.6
v 0.6 0.9 0.6
v 0.6 1 0.6
v 0.7 0.9 0.6
v 0.7 1 0.6
v -0.8 0.9 0.5
v -0.8 1 0.5
v -0.7 0 0.5
v -0.7 0.1 0.5
v -0.7 0.9 0.5
v -0.7 1 0.5
v -0.7 1.1 0.5
v -0.6 0 0.5
v -0.6 0.1 0.5
v -0.6 0.9 0.5
v -0.6 1 0.5
v -0.6 1.1 0.5
v -0.5 1 0.5
v -0.5 1.1 0.5
v -0.1 0.2 0.5
v -0.1 0.3 0.5
v -0.1 0.6 0.5
v -0.1 0.7 0.5
v 0.1 0.2 0.5
v 0.1 0.3 0.5
v 0.1 0.6 0.5
v 0.1 0.7 0.5
v 0.5 1 0.5
v 0.5 1.1 0.5
v 0.6 0 0.5
v 0.6 0.1 0.5
v 0.6 0.9 0.5
v 0.6 1 0.5
v 0.6 1.1 0.5
v 0.7 0 0.5
v 0.7 0.1 0.5
v 0.7 0.9 0.5
v 0.7 1 0.5
v 0.7 1.1 0.5
v 0.8 0.9 0.5
v 0.8 1 0.5
v -0.6 0 0.4
v -0.6 0.1 0.4
v -0.6 0.9 0.4
v -0.5 0.1 0.4
v -0.5 0.2 0.4
v -0.5 0.3 0.4
v -0.5 0.4 0.4
v -0.5 0.5 0.4
v -0.5 0.6 0.4
v -0.5 0.7 0.4
v -0.5 0.8 0.4
v -0.4 0.1 0.4
v -0.4 0.2 0.4
v -0.4 0.3 0.4
v -0.4 0.4 0.4
v -0.4 0.5 0.4
v -0.4 0.6 0.4
v -0.4 0.7 0.4
v -0.4 0.8 0.4
v -0.1 0.2 0.4
v -0.1 0.3 0.4
v -0.1 0.6 0.4
v -0.1 0.7 0.4
v 0.1 0.2 0.4
v 0.1 0.3 0.4
v 0.1 0.6 0.4
v 0.1 0.7 0.4
v 0.4 0.1 0.4
v 0.4 0.2 0.4
v 0.4 0.3 0.4
v 0.4 0.4 0.4
v 0.4 0.5 0.4
v 0.4 0.6 0.4
v 0.4 0.7 0.4
v 0.4 0.8 0.4
v 0.5 0.1 0.4
v 0.5 0.2 0.4
v 0.5 0.3 0.4
v 0.5 0.4 0.4
v 0.5 0.5 0.4
v 0.5 0.6 0.4
v 0.5 0.7 0.4
v 0.5 0.8 0.4
v 0.6 0 0.4
v 0.6 0.1 0.4
v 0.6 0.9 0.4
v -0.8 0.9 -0.6
v -0.8 1 -0.6
v -0.7 0 -0.6
v -0.7 0.1 -0.6
v -0.7 0.9 -0.6
v -0.7 1 -0.6
v -0.7 1.1 -0.6
v -0.6 0 -0.6
v -0.6 0.1 -0.6
v -0.6 1 -0.6
v -0.6 1.1 -0.6
v -0.5 1 -0.6
v -0.5 1.1 -0.6
v 0.5 1 -0.6
v 0.5 1.1 -0.6
v 0.6 0 -0.6
v 0.6 0.1 -0.6
v 0.6 1 -0.6
v 0.6 1.1 -0.6
v 0.7 0 -0.6
v 0.7 0.1 -0.6
v 0.7 0.9 -0.6
v 0.7 1 -0.6
v 0.7 1.1 -0.6
v 0.8 0.9 -0.6
v 0.8 1 -0.6
v -0.7 0 0.5
v -0.6 0 0.5
v 0.6 0 0.5
v 0.7 0 0.5
v -0.7 0 0.4
v -0.6 0 0.4
v 0.6 0 0.4
v 0.7 0 0.4
v -0.6 0 0.3
v 0.6 0 0.3
v -0.7 0 -0.5
v -0.6 0 -0.5
v 0.6 0 -0.5
v 0.7 0 -0.5
v -0.7 0 -0.6
v -0.6 0 -0.6
v 0.6 0 -0.6
v 0.7 0 -0.6
v -0.1 0.2 0.5
v 0.1 0.2 0.5
v -0.1 0.2 0.4
v 0.1 0.2 0.4
v -0.1 0.6 0.5
v 0.1 0.6 0.5
v -0.1 0.6 0.4
v 0.1 0.6 0.4
v -0.7 0.9 0.6
v -0.6 0.9 0.6
v -0.5 0.9 0.6
v 0.5 0.9 0.6
v 0.6 0.9 0.6
v 0.7 0.9 0.6
v -0.8 0.9 0.5
v -0.7 0.9 0.5
v -0.6 0.9 0.5
v -0.5 0.9 0.5
v 0.5 0.9 0.5
v 0.6 0.9 0.5
v 0.7 0.9 0.5
v 0.8 0.9 0.5
v -0.8 0.9 0.4
v -0.7 0.9 0.4
v -0.6 0.9 0.4
v 0.6 0.9 0.4
v 0.7 0.9 0.4
v 0.8 0.9 0.4
v -0.8 0.9 0.3
v -0.7 0.9 0.3
v 0.7 0.9 0.3
v 0.8 0.9 0.3
v -0.8 0.9 -0.4
v -0.7 0.9 -0.4
v 0.7 0.9 -0.4
v 0.8 0.9 -0.4
v -0.8 0.9 -0.5
v -0.7 0.9 -0.5
v 0.7 0.9 -0.5
v 0.8 0.9 -0.5
v -0.8 0.9 -0.6
v -0.7 0.9 -0.6
v 0.7 0.9 -0.6
v 0.8 0.9 -0.6
v -0.1 0.3 0.5
v 0.1 0.3 0.5
v -0.1 0.3 0.4
v 0.1 0.3 0.4
v -0.1 0.7 0.5
v 0.1 0.7 0.5
v -0.1 0.7 0.4
v 0.1 0.7 0.4
v -0.7 1 0.6
v -0.6 1 0.6
v -0.5 1 0.6
v 0.5 1 0.6
v 0.6 1 0.6
v 0.7 1 0.6
v -0.8 1 0.5
v -0.7 1 0.5
v -0.6 1 0.5
v -0.5 1 0.5
v 0.5 1 0.5
v 0.6 1 0.5
v 0.7 1 0.5
v 0.8 1 0.5
v -0.8 1 0.4
v -0.7 1 0.4
v 0.7 1 0.4
v 0.8 1 0.4
v -0.8 1 0.3
v -0.7 1 0.3
v 0.7 1 0.3
v 0.8 1 0.3
v -0.8 1 -0.4
v -0.7 1 -0.4
v 0.7 1 -0.4
v 0.8 1 -0.4
v -0.8 1 -0.5
v -0.7 1 -0.5
v 0.7 1 -0.5
v 0.8 1 -0.5
v -0.8 1 -0.6
v -0.7 1 -0.6
v 0.7 1 -0.6
v 0.8 1 -0.6
v -0.7 1.1 0.5
v -0.6 1.1 0.5
v -0.5 1.1 0.5
v 0.5 1.1 0.5
v 0.6 1.1 0.5
v 0.7 1.1 0.5
v -0.7 1.1 0.4
v -0.6 1.1 0.4
v -0.5 1.1 0.4
v 0.5 1.1 0.4
v 0.6 1.1 0.4
v 0.7 1.1 0.4
v -0.7 1.1 0.3
v -0.6 1.1 0.3
v 0.6 1.1 0.3
v 0.7 1.1 0.3
v -0.7 1.1 -0.4
v -0.6 1.1 -0.4
v 0.6 1.1 -0.4
v 0.7 1.1 -0.4
v -0.7 1.1 -0.5
v -0.6 1.1 -0.5
v -0.5 1.1 -0.5
v 0.5 1.1 -0.5
v 0.6 1.1 -0.5
v 0.7 1.1 -0.5
v -0.7 1.1 -0.6
v -0.6 1.1 -0.6
v -0.5 1.1 -0.6
v 0.5 1.1 -0.6
v 0.6 1.1 -0.6
v 0.7 1.1 -0.6

# faces
f 7/4/1 2/4/1 1/4/1
f 8/5/1 3/5/1 2/5/1
f 8/4/1 2/4/1 7/4/1
f 9/6/1 4/6/1 3/6/1
f 9/5/1 3/5/1 8/5/1
f 10/5/1 5/5/1 4/5/1
f 10/6/1 4/6/1 9/6/1
f 11/4/1 6/4/1 5/4/1
f 11/5/1 5/5/1 10/5/1
f 12/4/1 6/4/1 11/4/1
f 17/2/1 14/2/1 13/2/1
f 18/3/1 15/3/1 14/3/1
f 18/2/1 14/2/1 17/2/1
f 19/2/1 16/2/1 15/2/1
f 19/3/1 15/3/1 18/3/1
f 20/2/1 16/2/1 19/2/1
f 22/3/1 18/3/1 17/3/1
f 23/5/1 19/5/1 18/5/1
f 23/3/1 18/3/1 22/3/1
f 24/5/1 19/5/1 23/5/1
f 25/5/1 19/5/1 24/5/1
f 26/3/1 20/3/1 19/3/1
f 26/5/1 19/5/1 25/5/1
f 27/3/1 20/3/1 26/3/1
f 28/4/1 22/4/1 21/4/1
f 29/4/1 22/4/1 28/4/1
f 35/3/1 30/3/1 29/3/1
f 36/4/1 31/4/1 30/4/1
f 36/3/1 30/3/1 35/3/1
f 37/5/1 32/5/1 31/5/1
f 37/4/1 31/4/1 36/4/1
f 38/4/1 33/4/1 32/4/1
f 38/5/1 32/5/1 37/5/1
f 39/3/1 34/3/1 33/3/1
f 39/4/1 33/4/1 38/4/1
f 40/3/1 34/3/1 39/3/1
f 43/1/1 42/1/1 41/1/1
f 44/1/1 42/1/1 43/1/1
f 47/1/1 46/1/1 45/1/1
f 48/1/1 46/1/1 47/1/1
f 51/2/1 50/2/1 49/2/1
f 52/2/1 50/2/1 51/2/1
f 53/3/1 52/3/1 51/3/1
f 54/3/1 52/3/1 53/3/1
f 55/2/2 56/2/2 57/2/2
f 57/2/2 56/2/2 58/2/2
f 57/3/2 58/3/2 59/3/2
f 59/3/2 58/3/2 60/3/2
f 61/1/2 62/1/2 63/1/2
f 63/1/2 62/1/2 64/1/2
f 65/1/2 66/1/2 67/1/2
f 67/1/2 66/1/2 68/1/2
f 69/2/2 70/2/2 73/2/2
f 70/3/2 71/3/2 74/3/2
f 73/2/2 70/2/2 74/2/2
f 71/2/2 72/2/2 75/2/2
f 74/3/2 71/3/2 75/3/2
f 75/2/2 72/2/2 76/2/2
f 73/3/2 74/3/2 78/3/2
f 74/5/2 75/5/2 79/5/2
f 78/3/2 74/3/2 79/3/2
f 79/5/2 75/5/2 80/5/2
f 80/5/2 75/5/2 81/5/2
f 75/3/2 76/3/2 82/3/2
f 81/5/2 75/5/2 82/5/2
f 82/3/2 76/3/2 83/3/2
f 77/4/2 78/4/2 84/4/2
f 84/4/2 78/4/2 85/4/2
f 85/3/2 86/3/2 91/3/2
f 86/4/2 87/4/2 92/4/2
f 91/3/2 86/3/2 92/3/2
f 87/5/2 88/5/2 93/5/2
f 92/4/2 87/4/2 93/4/2
f 88/4/2 89/4/2 94/4/2
f 93/5/2 88/5/2 94/5/2
f 89/3/2 90/3/2 95/3/2
f 94/4/2 89/4/2 95/4/2
f 95/3/2 90/3/2 96/3/2
f 97/4/2 98/4/2 103/4/2
f 98/5/2 99/5/2 104/5/2
f 103/4/2 98/4/2 104/4/2
f 99/6/2 100/6/2 105/6/2
f 104/5/2 99/5/2 105/5/2
f 100/5/2 101/5/2 106/5/2
f 105/6/2 100/6/2 106/6/2
f 101/4/2 102/4/2 107/4/2
f 106/5/2 101/5/2 107/5/2
f 107/4/2 102/4/2 108/4/2
f 111/4/3 110/4/3 109/4/3
f 112/4/3 110/4/3 111/4/3
f 113/5/3 112/5/3 111/5/3
f 114/5/3 112/5/3 113/5/3
f 115/6/3 114/6/3 113/6/3
f 116/6/3 114/6/3 115/6/3
f 117/5/3 116/5/3 115/5/3
f 118/5/3 116/5/3 117/5/3
f 119/4/3 118/4/3 117/4/3
f 120/4/3 118/4/3 119/4/3
f 125/4/3 122/4/3 121/4/3
f 126/4/3 122/4/3 125/4/3
f 128/2/3 124/2/3 123/2/3
f 129/3/3 125/3/3 124/3/3
f 129/2/3 124/2/3 128/2/3
f 130/3/3 125/3/3 129/3/3
f 131/3/3 127/3/3 126/3/3
f 132/3/3 127/3/3 131/3/3
f 133/4/3 132/4/3 131/4/3
f 134/4/3 132/4/3 133/4/3
f 139/1/3 136/1/3 135/1/3
f 140/1/3 136/1/3 139/1/3
f 141/1/3 138/1/3 137/1/3
f 142/1/3 138/1/3 141/1/3
f 143/5/3 134/5/3 133/5/3
f 144/5/3 134/5/3 143/5/3
f 148/4/3 144/4/3 143/4/3
f 149/4/3 144/4/3 148/4/3
f 150/2/3 146/2/3 145/2/3
f 151/3/3 147/3/3 146/3/3
f 151/2/3 146/2/3 150/2/3
f 152/3/3 147/3/3 151/3/3
f 153/3/3 149/3/3 148/3/3
f 154/3/3 149/3/3 153/3/3
f 155/4/3 153/4/3 152/4/3
f 156/4/3 153/4/3 155/4/3
f 160/2/3 158/2/3 157/2/3
f 160/2/3 159/2/3 158/2/3
f 161/2/3 159/2/3 160/2/3
f 162/2/3 159/2/3 161/2/3
f 163/2/3 159/2/3 162/2/3
f 164/2/3 159/2/3 163/2/3
f 165/2/3 159/2/3 164/2/3
f 166/2/3 159/2/3 165/2/3
f 167/2/3 159/2/3 166/2/3
f 168/2/3 160/2/3 157/2/3
f 168/3/3 161/3/3 160/3/3
f 169/4/3 162/4/3 161/4/3
f 169/3/3 161/3/3 168/3/3
f 170/5/3 163/5/3 162/5/3
f 170/4/3 162/4/3 169/4/3
f 171/2/3 164/2/3 163/2/3
f 171/5/3 163/5/3 170/5/3
f 172/3/3 165/3/3 164/3/3
f 172/2/3 164/2/3 171/2/3
f 173/4/3 166/4/3 165/4/3
f 173/3/3 165/3/3 172/3/3
f 174/5/3 167/5/3 166/5/3
f 174/4/3 166/4/3 173/4/3
f 175/2/3 159/2/3 167/2/3
f 175/5/3 167/5/3 174/5/3
f 176/4/3 169/4/3 168/4/3
f 176/5/3 170/5/3 169/5/3
f 177/6/3 171/6/3 170/6/3
f 177/5/3 170/5/3 176/5/3
f 178/5/3 174/5/3 173/5/3
f 178/4/3 173/4/3 172/4/3
f 179/6/3 175/6/3 174/6/3
f 179/5/3 174/5/3 178/5/3
f 180/4/3 176/4/3 168/4/3
f 181/6/3 171/6/3 177/6/3
f 182/4/3 178/4/3 172/4/3
f 183/6/3 175/6/3 179/6/3
f 184/4/3 180/4/3 168/4/3
f 184/2/3 168/2/3 157/2/3
f 185/5/3 181/5/3 180/5/3
f 185/4/3 180/4/3 184/4/3
f 186/6/3 171/6/3 181/6/3
f 186/5/3 181/5/3 185/5/3
f 187/2/3 172/2/3 171/2/3
f 187/6/3 171/6/3 186/6/3
f 188/4/3 182/4/3 172/4/3
f 188/2/3 172/2/3 187/2/3
f 189/5/3 183/5/3 182/5/3
f 189/4/3 182/4/3 188/4/3
f 190/6/3 175/6/3 183/6/3
f 190/5/3 183/5/3 189/5/3
f 191/2/3 159/2/3 175/2/3
f 191/6/3 175/6/3 190/6/3
f 192/2/3 184/2/3 157/2/3
f 192/3/3 185/3/3 184/3/3
f 193/4/3 186/4/3 185/4/3
f 193/3/3 185/3/3 192/3/3
f 194/5/3 187/5/3 186/5/3
f 194/4/3 186/4/3 193/4/3
f 195/2/3 188/2/3 187/2/3
f 195/5/3 187/5/3 194/5/3
f 196/3/3 189/3/3 188/3/3
f 196/2/3 188/2/3 195/2/3
f 197/4/3 190/4/3 189/4/3
f 197/3/3 189/3/3 196/3/3
f 198/5/3 191/5/3 190/5/3
f 198/4/3 190/4/3 197/4/3
f 199/2/3 159/2/3 191/2/3
f 199/5/3 191/5/3 198/5/3
f 200/2/3 194/2/3 193/2/3
f 200/2/3 193/2/3 192/2/3
f 200/2/3 199/2/3 198/2/3
f 200/2/3 195/2/3 194/2/3
f 200/2/3 197/2/3 196/2/3
f 200/2/3 196/2/3 195/2/3
f 200/2/3 192/2/3 157/2/3
f 200/2/3 198/2/3 197/2/3
f 201/2/3 199/2/3 200/2/3
f 202/2/3 159/2/3 199/2/3
f 202/2/3 199/2/3 201/2/3
f 203/4/4 204/4/4 207/4/4
f 207/4/4 204/4/4 208/4/4
f 205/2/4 206/2/4 210/2/4
f 208/3/4 209/3/4 211/3/4
f 210/2/4 206/2/4 211/2/4
f 206/3/4 207/3/4 211/3/4
f 207/3/4 208/3/4 211/3/4
f 211/3/4 209/3/4 212/3/4
f 212/3/4 209/3/4 213/3/4
f 211/5/4 212/5/4 214/5/4
f 212/4/4 213/4/4 214/4/4
f 214/4/4 213/4/4 215/4/4
f 211/5/4 214/5/4 216/5/4
f 214/5/4 215/5/4 216/5/4
f 216/5/4 215/5/4 217/5/4
f 210/3/4 211/3/4 218/3/4
f 211/5/4 216/5/4 219/5/4
f 218/3/4 211/3/4 219/3/4
f 216/4/4 217/4/4 220/4/4
f 219/5/4 216/5/4 220/5/4
f 220/4/4 217/4/4 221/4/4
f 218/2/4 219/2/4 222/2/4
f 219/3/4 220/3/4 223/3/4
f 222/2/4 219/2/4 223/2/4
f 220/3/4 221/3/4 223/3/4
f 223/3/4 221/3/4 224/3/4
f 224/3/4 221/3/4 225/3/4
f 225/3/4 221/3/4 226/3/4
f 224/4/4 225/4/4 227/4/4
f 227/4/4 225/4/4 228/4/4
f 233/2/5 230/2/5 229/2/5
f 234/2/5 230/2/5 233/2/5
f 235/2/5 232/2/5 231/2/5
f 236/2/5 232/2/5 235/2/5
f 237/3/5 234/3/5 233/3/5
f 237/2/5 235/2/5 234/2/5
f 238/3/5 236/3/5 235/3/5
f 238/2/5 235/2/5 237/2/5
f 239/3/5 237/3/5 233/3/5
f 240/5/5 238/5/5 237/5/5
f 240/3/5 237/3/5 239/3/5
f 241/3/5 236/3/5 238/3/5
f 241/5/5 238/5/5 240/5/5
f 242/3/5 236/3/5 241/3/5
f 243/2/5 240/2/5 239/2/5
f 244/3/5 241/3/5 240/3/5
f 244/2/5 240/2/5 243/2/5
f 245/2/5 242/2/5 241/2/5
f 245/3/5 241/3/5 244/3/5
f 246/2/5 242/2/5 245/2/5
f 249/1/5 248/1/5 247/1/5
f 250/1/5 248/1/5 249/1/5
f 253/1/5 252/1/5 251/1/5
f 254/1/5 252/1/5 253/1/5
f 262/4/5 256/4/5 255/4/5
f 263/5/5 257/5/5 256/5/5
f 263/4/5 256/4/5 262/4/5
f 264/6/5 258/6/5 257/6/5
f 264/5/5 257/5/5 263/5/5
f 265/5/5 259/5/5 258/5/5
f 265/6/5 258/6/5 264/6/5
f 266/4/5 260/4/5 259/4/5
f 266/5/5 259/5/5 265/5/5
f 267/4/5 260/4/5 266/4/5
f 269/4/5 262/4/5 261/4/5
f 270/4/5 262/4/5 269/4/5
f 271/5/5 265/5/5 264/5/5
f 271/5/5 266/5/5 265/5/5
f 271/5/5 264/5/5 263/5/5
f 272/5/5 266/5/5 271/5/5
f 273/4/5 268/4/5 267/4/5
f 274/4/5 268/4/5 273/4/5
f 275/5/5 270/5/5 269/5/5
f 276/5/5 270/5/5 275/5/5
f 277/5/5 274/5/5 273/5/5
f 278/5/5 274/5/5 277/5/5
f 279/6/5 276/6/5 275/6/5
f 280/6/5 276/6/5 279/6/5
f 281/6/5 278/6/5 277/6/5
f 282/6/5 278/6/5 281/6/5
f 283/5/5 280/5/5 279/5/5
f 284/5/5 280/5/5 283/5/5
f 285/5/5 282/5/5 281/5/5
f 286/5/5 282/5/5 285/5/5
f 287/4/5 284/4/5 283/4/5
f 288/4/5 284/4/5 287/4/5
f 289/4/5 286/4/5 285/4/5
f 290/4/5 286/4/5 289/4/5
f 291/1/6 292/1/6 293/1/6
f 293/1/6 292/1/6 294/1/6
f 295/1/6 296/1/6 297/1/6
f 297/1/6 296/1/6 298/1/6
f 299/4/6 300/4/6 306/4/6
f 300/5/6 301/5/6 307/5/6
f 306/4/6 300/4/6 307/4/6
f 301/6/6 302/6/6 308/6/6
f 307/5/6 301/5/6 308/5/6
f 302/5/6 303/5/6 309/5/6
f 308/6/6 302/6/6 309/6/6
f 303/4/6 304/4/6 310/4/6
f 309/5/6 303/5/6 310/5/6
f 310/4/6 304/4/6 311/4/6
f 305/4/6 306/4/6 313/4/6
f 313/4/6 306/4/6 314/4/6
f 311/4/6 312/4/6 315/4/6
f 315/4/6 312/4/6 316/4/6
f 313/5/6 314/5/6 317/5/6
f 317/5/6 314/5/6 318/5/6
f 315/5/6 316/5/6 319/5/6
f 319/5/6 316/5/6 320/5/6
f 317/6/6 318/6/6 321/6/6
f 321/6/6 318/6/6 322/6/6
f 319/6/6 320/6/6 323/6/6
f 323/6/6 320/6/6 324/6/6
f 321/5/6 322/5/6 325/5/6
f 325/5/6 322/5/6 326/5/6
f 323/5/6 324/5/6 327/5/6
f 327/5/6 324/5/6 328/5/6
f 325/4/6 326/4/6 329/4/6
f 329/4/6 326/4/6 330/4/6
f 327/4/6 328/4/6 331/4/6
f 331/4/6 328/4/6 332/4/6
f 333/3/6 334/3/6 339/3/6
f 334/4/6 335/4/6 340/4/6
f 339/3/6 334/3/6 340/3/6
f 335/5/6 336/5/6 341/5/6
f 340/4/6 335/4/6 341/4/6
f 336/4/6 337/4/6 342/4/6
f 341/5/6 336/5/6 342/5/6
f 337/3/6 338/3/6 343/3/6
f 342/4/6 337/4/6 343/4/6
f 343/3/6 338/3/6 344/3/6
f 339/4/6 340/4/6 345/4/6
f 341/5/6 342/5/6 346/5/6
f 345/4/6 340/4/6 346/4/6
f 340/5/6 341/5/6 346/5/6
f 342/5/6 343/5/6 346/5/6
f 343/4/6 344/4/6 347/4/6
f 346/5/6 343/5/6 347/5/6
f 347/4/6 344/4/6 348/4/6
f 345/5/6 346/5/6 349/5/6
f 346/5/6 347/5/6 349/5/6
f 347/5/6 348/5/6 349/5/6
f 349/5/6 348/5/6 350/5/6
f 350/5/6 348/5/6 351/5/6
f 351/5/6 348/5/6 352/5/6
f 349/4/6 350/4/6 353/4/6
f 350/5/6 351/5/6 354/5/6
f 353/4/6 350/4/6 354/4/6
f 354/5/6 351/5/6 355/5/6
f 355/5/6 351/5/6 356/5/6
f 351/4/6 352/4/6 357/4/6
f 356/5/6 351/5/6 357/5/6
f 357/4/6 352/4/6 358/4/6
f 353/3/6 354/3/6 359/3/6
f 354/4/6 355/4/6 360/4/6
f 359/3/6 354/3/6 360/3/6
f 355/5/6 356/5/6 361/5/6
f 360/4/6 355/4/6 361/4/6
f 356/4/6 357/4/6 362/4/6
f 361/5/6 356/5/6 362/5/6
f 357/3/6 358/3/6 363/3/6
f 362/4/6 357/4/6 363/4/6
f 363/3/6 358/3/6 364/3/6
