# MagicaVoxel @ Ephtracy

# group
o 

# material
mtllib Interior_Furniture_Table_Long_Type01_1x1.mtl
usemtl palette

# normals
vn -1 0 0
vn 1 0 0
vn 0 0 1
vn 0 0 -1
vn 0 -1 0
vn 0 1 0

# texcoords
vt 0.876953 0.5
vt 0.880859 0.5
vt 0.884766 0.5
vt 0.888672 0.5
vt 0.892578 0.5

# verts
v -0.8 0.9 0.7
v -0.8 0.9 0.6
v -0.8 0.9 0.5
v -0.8 0.9 -0.5
v -0.8 0.9 -0.6
v -0.8 0.9 -0.7
v -0.8 1 0.7
v -0.8 1 0.6
v -0.8 1 0.5
v -0.8 1 -0.5
v -0.8 1 -0.6
v -0.8 1 -0.7
v -0.7 0.8 0.7
v -0.7 0.8 -0.7
v -0.7 0.9 0.8
v -0.7 0.9 0.7
v -0.7 0.9 0.6
v -0.7 0.9 0.5
v -0.7 0.9 -0.5
v -0.7 0.9 -0.6
v -0.7 0.9 -0.7
v -0.7 0.9 -0.8
v -0.7 1 0.8
v -0.7 1 0.7
v -0.7 1 0.6
v -0.7 1 0.5
v -0.7 1 -0.5
v -0.7 1 -0.6
v -0.7 1 -0.7
v -0.7 1 -0.8
v -0.7 1.1 0.7
v -0.7 1.1 0.6
v -0.7 1.1 0.5
v -0.7 1.1 -0.5
v -0.7 1.1 -0.6
v -0.7 1.1 -0.7
v -0.6 0 0.7
v -0.6 0 0.6
v -0.6 0 -0.6
v -0.6 0 -0.7
v -0.6 0.1 0.7
v -0.6 0.1 0.6
v -0.6 0.1 -0.6
v -0.6 0.1 -0.7
v -0.6 0.8 0.7
v -0.6 0.8 0.6
v -0.6 0.8 -0.6
v -0.6 0.8 -0.7
v 0.5 0 0.7
v 0.5 0 0.6
v 0.5 0 -0.6
v 0.5 0 -0.7
v 0.5 0.1 0.7
v 0.5 0.1 0.6
v 0.5 0.1 -0.6
v 0.5 0.1 -0.7
v 0.5 0.8 0.7
v 0.5 0.8 0.6
v 0.5 0.8 -0.6
v 0.5 0.8 -0.7
v -0.5 0 0.7
v -0.5 0 0.6
v -0.5 0 -0.6
v -0.5 0 -0.7
v -0.5 0.1 0.7
v -0.5 0.1 0.6
v -0.5 0.1 -0.6
v -0.5 0.1 -0.7
v -0.5 0.8 0.7
v -0.5 0.8 0.6
v -0.5 0.8 -0.6
v -0.5 0.8 -0.7
v 0.6 0 0.7
v 0.6 0 0.6
v 0.6 0 -0.6
v 0.6 0 -0.7
v 0.6 0.1 0.7
v 0.6 0.1 0.6
v 0.6 0.1 -0.6
v 0.6 0.1 -0.7
v 0.6 0.8 0.7
v 0.6 0.8 0.6
v 0.6 0.8 -0.6
v 0.6 0.8 -0.7
v 0.7 0.8 0.7
v 0.7 0.8 -0.7
v 0.7 0.9 0.8
v 0.7 0.9 0.7
v 0.7 0.9 0.6
v 0.7 0.9 0.5
v 0.7 0.9 -0.5
v 0.7 0.9 -0.6
v 0.7 0.9 -0.7
v 0.7 0.9 -0.8
v 0.7 1 0.8
v 0.7 1 0.7
v 0.7 1 0.6
v 0.7 1 0.5
v 0.7 1 -0.5
v 0.7 1 -0.6
v 0.7 1 -0.7
v 0.7 1 -0.8
v 0.7 1.1 0.7
v 0.7 1.1 0.6
v 0.7 1.1 0.5
v 0.7 1.1 -0.5
v 0.7 1.1 -0.6
v 0.7 1.1 -0.7
v 0.8 0.9 0.7
v 0.8 0.9 0.6
v 0.8 0.9 0.5
v 0.8 0.9 -0.5
v 0.8 0.9 -0.6
v 0.8 0.9 -0.7
v 0.8 1 0.7
v 0.8 1 0.6
v 0.8 1 0.5
v 0.8 1 -0.5
v 0.8 1 -0.6
v 0.8 1 -0.7
v -0.7 0.9 0.8
v -0.7 1 0.8
v -0.6 0.9 0.8
v -0.6 1 0.8
v -0.5 0.9 0.8
v -0.5 1 0.8
v 0.5 0.9 0.8
v 0.5 1 0.8
v 0.6 0.9 0.8
v 0.6 1 0.8
v 0.7 0.9 0.8
v 0.7 1 0.8
v -0.8 0.9 0.7
v -0.8 1 0.7
v -0.7 0.8 0.7
v -0.7 0.9 0.7
v -0.7 1 0.7
v -0.7 1.1 0.7
v -0.6 0 0.7
v -0.6 0.1 0.7
v -0.6 0.8 0.7
v -0.6 0.9 0.7
v -0.6 1 0.7
v -0.6 1.1 0.7
v -0.5 0 0.7
v -0.5 0.1 0.7
v -0.5 0.8 0.7
v -0.5 0.9 0.7
v -0.5 1 0.7
v -0.5 1.1 0.7
v 0.5 0 0.7
v 0.5 0.1 0.7
v 0.5 0.8 0.7
v 0.5 0.9 0.7
v 0.5 1 0.7
v 0.5 1.1 0.7
v 0.6 0 0.7
v 0.6 0.1 0.7
v 0.6 0.8 0.7
v 0.6 0.9 0.7
v 0.6 1 0.7
v 0.6 1.1 0.7
v 0.7 0.8 0.7
v 0.7 0.9 0.7
v 0.7 1 0.7
v 0.7 1.1 0.7
v 0.8 0.9 0.7
v 0.8 1 0.7
v -0.6 0 -0.6
v -0.6 0.1 -0.6
v -0.6 0.8 -0.6
v -0.5 0 -0.6
v -0.5 0.1 -0.6
v -0.5 0.8 -0.6
v 0.5 0 -0.6
v 0.5 0.1 -0.6
v 0.5 0.8 -0.6
v 0.6 0 -0.6
v 0.6 0.1 -0.6
v 0.6 0.8 -0.6
v -0.6 0 0.6
v -0.6 0.1 0.6
v -0.6 0.8 0.6
v -0.5 0 0.6
v -0.5 0.1 0.6
v -0.5 0.8 0.6
v 0.5 0 0.6
v 0.5 0.1 0.6
v 0.5 0.8 0.6
v 0.6 0 0.6
v 0.6 0.1 0.6
v 0.6 0.8 0.6
v -0.8 0.9 -0.7
v -0.8 1 -0.7
v -0.7 0.8 -0.7
v -0.7 0.9 -0.7
v -0.7 1 -0.7
v -0.7 1.1 -0.7
v -0.6 0 -0.7
v -0.6 0.1 -0.7
v -0.6 0.8 -0.7
v -0.6 0.9 -0.7
v -0.6 1 -0.7
v -0.6 1.1 -0.7
v -0.5 0 -0.7
v -0.5 0.1 -0.7
v -0.5 0.8 -0.7
v -0.5 0.9 -0.7
v -0.5 1 -0.7
v -0.5 1.1 -0.7
v 0.5 0 -0.7
v 0.5 0.1 -0.7
v 0.5 0.8 -0.7
v 0.5 0.9 -0.7
v 0.5 1 -0.7
v 0.5 1.1 -0.7
v 0.6 0 -0.7
v 0.6 0.1 -0.7
v 0.6 0.8 -0.7
v 0.6 0.9 -0.7
v 0.6 1 -0.7
v 0.6 1.1 -0.7
v 0.7 0.8 -0.7
v 0.7 0.9 -0.7
v 0.7 1 -0.7
v 0.7 1.1 -0.7
v 0.8 0.9 -0.7
v 0.8 1 -0.7
v -0.7 0.9 -0.8
v -0.7 1 -0.8
v -0.6 0.9 -0.8
v -0.6 1 -0.8
v -0.5 0.9 -0.8
v -0.5 1 -0.8
v 0.5 0.9 -0.8
v 0.5 1 -0.8
v 0.6 0.9 -0.8
v 0.6 1 -0.8
v 0.7 0.9 -0.8
v 0.7 1 -0.8
v -0.6 0 0.7
v -0.5 0 0.7
v 0.5 0 0.7
v 0.6 0 0.7
v -0.6 0 0.6
v -0.5 0 0.6
v 0.5 0 0.6
v 0.6 0 0.6
v -0.6 0 -0.6
v -0.5 0 -0.6
v 0.5 0 -0.6
v 0.6 0 -0.6
v -0.6 0 -0.7
v -0.5 0 -0.7
v 0.5 0 -0.7
v 0.6 0 -0.7
v -0.7 0.8 0.7
v -0.6 0.8 0.7
v -0.5 0.8 0.7
v 0.5 0.8 0.7
v 0.6 0.8 0.7
v 0.7 0.8 0.7
v -0.6 0.8 0.6
v -0.5 0.8 0.6
v 0.5 0.8 0.6
v 0.6 0.8 0.6
v -0.6 0.8 -0.6
v -0.5 0.8 -0.6
v 0.5 0.8 -0.6
v 0.6 0.8 -0.6
v -0.7 0.8 -0.7
v -0.6 0.8 -0.7
v -0.5 0.8 -0.7
v 0.5 0.8 -0.7
v 0.6 0.8 -0.7
v 0.7 0.8 -0.7
v -0.7 0.9 0.8
v -0.6 0.9 0.8
v -0.5 0.9 0.8
v 0.5 0.9 0.8
v 0.6 0.9 0.8
v 0.7 0.9 0.8
v -0.8 0.9 0.7
v -0.7 0.9 0.7
v -0.6 0.9 0.7
v -0.5 0.9 0.7
v 0.5 0.9 0.7
v 0.6 0.9 0.7
v 0.7 0.9 0.7
v 0.8 0.9 0.7
v -0.8 0.9 0.6
v -0.7 0.9 0.6
v 0.7 0.9 0.6
v 0.8 0.9 0.6
v -0.8 0.9 0.5
v -0.7 0.9 0.5
v 0.7 0.9 0.5
v 0.8 0.9 0.5
v -0.8 0.9 -0.5
v -0.7 0.9 -0.5
v 0.7 0.9 -0.5
v 0.8 0.9 -0.5
v -0.8 0.9 -0.6
v -0.7 0.9 -0.6
v 0.7 0.9 -0.6
v 0.8 0.9 -0.6
v -0.8 0.9 -0.7
v -0.7 0.9 -0.7
v -0.6 0.9 -0.7
v -0.5 0.9 -0.7
v 0.5 0.9 -0.7
v 0.6 0.9 -0.7
v 0.7 0.9 -0.7
v 0.8 0.9 -0.7
v -0.7 0.9 -0.8
v -0.6 0.9 -0.8
v -0.5 0.9 -0.8
v 0.5 0.9 -0.8
v 0.6 0.9 -0.8
v 0.7 0.9 -0.8
v -0.7 1 0.8
v -0.6 1 0.8
v -0.5 1 0.8
v 0.5 1 0.8
v 0.6 1 0.8
v 0.7 1 0.8
v -0.8 1 0.7
v -0.7 1 0.7
v -0.6 1 0.7
v -0.5 1 0.7
v 0.5 1 0.7
v 0.6 1 0.7
v 0.7 1 0.7
v 0.8 1 0.7
v -0.8 1 0.6
v -0.7 1 0.6
v 0.7 1 0.6
v 0.8 1 0.6
v -0.8 1 0.5
v -0.7 1 0.5
v 0.7 1 0.5
v 0.8 1 0.5
v -0.8 1 -0.5
v -0.7 1 -0.5
v 0.7 1 -0.5
v 0.8 1 -0.5
v -0.8 1 -0.6
v -0.7 1 -0.6
v 0.7 1 -0.6
v 0.8 1 -0.6
v -0.8 1 -0.7
v -0.7 1 -0.7
v -0.6 1 -0.7
v -0.5 1 -0.7
v 0.5 1 -0.7
v 0.6 1 -0.7
v 0.7 1 -0.7
v 0.8 1 -0.7
v -0.7 1 -0.8
v -0.6 1 -0.8
v -0.5 1 -0.8
v 0.5 1 -0.8
v 0.6 1 -0.8
v 0.7 1 -0.8
v -0.7 1.1 0.7
v -0.6 1.1 0.7
v -0.5 1.1 0.7
v 0.5 1.1 0.7
v 0.6 1.1 0.7
v 0.7 1.1 0.7
v -0.7 1.1 0.6
v -0.6 1.1 0.6
v -0.5 1.1 0.6
v 0.5 1.1 0.6
v 0.6 1.1 0.6
v 0.7 1.1 0.6
v -0.7 1.1 0.5
v -0.6 1.1 0.5
v 0.6 1.1 0.5
v 0.7 1.1 0.5
v -0.7 1.1 -0.5
v -0.6 1.1 -0.5
v 0.6 1.1 -0.5
v 0.7 1.1 -0.5
v -0.7 1.1 -0.6
v -0.6 1.1 -0.6
v -0.5 1.1 -0.6
v 0.5 1.1 -0.6
v 0.6 1.1 -0.6
v 0.7 1.1 -0.6
v -0.7 1.1 -0.7
v -0.6 1.1 -0.7
v -0.5 1.1 -0.7
v 0.5 1.1 -0.7
v 0.6 1.1 -0.7
v 0.7 1.1 -0.7

# faces
f 7/3/1 2/3/1 1/3/1
f 8/4/1 3/4/1 2/4/1
f 8/3/1 2/3/1 7/3/1
f 9/5/1 4/5/1 3/5/1
f 9/4/1 3/4/1 8/4/1
f 10/4/1 5/4/1 4/4/1
f 10/5/1 4/5/1 9/5/1
f 11/3/1 6/3/1 5/3/1
f 11/4/1 5/4/1 10/4/1
f 12/3/1 6/3/1 11/3/1
f 16/4/1 14/4/1 13/4/1
f 17/4/1 14/4/1 16/4/1
f 18/4/1 14/4/1 17/4/1
f 19/4/1 14/4/1 18/4/1
f 20/4/1 14/4/1 19/4/1
f 21/4/1 14/4/1 20/4/1
f 23/3/1 16/3/1 15/3/1
f 24/3/1 16/3/1 23/3/1
f 29/3/1 22/3/1 21/3/1
f 30/3/1 22/3/1 29/3/1
f 31/2/1 25/2/1 24/2/1
f 32/3/1 26/3/1 25/3/1
f 32/2/1 25/2/1 31/2/1
f 33/4/1 27/4/1 26/4/1
f 33/3/1 26/3/1 32/3/1
f 34/3/1 28/3/1 27/3/1
f 34/4/1 27/4/1 33/4/1
f 35/2/1 29/2/1 28/2/1
f 35/3/1 28/3/1 34/3/1
f 36/2/1 29/2/1 35/2/1
f 41/1/1 38/1/1 37/1/1
f 42/1/1 38/1/1 41/1/1
f 43/1/1 40/1/1 39/1/1
f 44/1/1 40/1/1 43/1/1
f 45/3/1 42/3/1 41/3/1
f 46/3/1 42/3/1 45/3/1
f 47/3/1 44/3/1 43/3/1
f 48/3/1 44/3/1 47/3/1
f 53/1/1 50/1/1 49/1/1
f 54/1/1 50/1/1 53/1/1
f 55/1/1 52/1/1 51/1/1
f 56/1/1 52/1/1 55/1/1
f 57/3/1 54/3/1 53/3/1
f 58/3/1 54/3/1 57/3/1
f 59/3/1 56/3/1 55/3/1
f 60/3/1 56/3/1 59/3/1
f 61/1/2 62/1/2 65/1/2
f 65/1/2 62/1/2 66/1/2
f 63/1/2 64/1/2 67/1/2
f 67/1/2 64/1/2 68/1/2
f 65/3/2 66/3/2 69/3/2
f 69/3/2 66/3/2 70/3/2
f 67/3/2 68/3/2 71/3/2
f 71/3/2 68/3/2 72/3/2
f 73/1/2 74/1/2 77/1/2
f 77/1/2 74/1/2 78/1/2
f 75/1/2 76/1/2 79/1/2
f 79/1/2 76/1/2 80/1/2
f 77/3/2 78/3/2 81/3/2
f 81/3/2 78/3/2 82/3/2
f 79/3/2 80/3/2 83/3/2
f 83/3/2 80/3/2 84/3/2
f 85/4/2 86/4/2 88/4/2
f 88/4/2 86/4/2 89/4/2
f 89/4/2 86/4/2 90/4/2
f 90/4/2 86/4/2 91/4/2
f 91/4/2 86/4/2 92/4/2
f 92/4/2 86/4/2 93/4/2
f 87/3/2 88/3/2 95/3/2
f 95/3/2 88/3/2 96/3/2
f 93/3/2 94/3/2 101/3/2
f 101/3/2 94/3/2 102/3/2
f 96/2/2 97/2/2 103/2/2
f 97/3/2 98/3/2 104/3/2
f 103/2/2 97/2/2 104/2/2
f 98/4/2 99/4/2 105/4/2
f 104/3/2 98/3/2 105/3/2
f 99/3/2 100/3/2 106/3/2
f 105/4/2 99/4/2 106/4/2
f 100/2/2 101/2/2 107/2/2
f 106/3/2 100/3/2 107/3/2
f 107/2/2 101/2/2 108/2/2
f 109/3/2 110/3/2 115/3/2
f 110/4/2 111/4/2 116/4/2
f 115/3/2 110/3/2 116/3/2
f 111/5/2 112/5/2 117/5/2
f 116/4/2 111/4/2 117/4/2
f 112/4/2 113/4/2 118/4/2
f 117/5/2 112/5/2 118/5/2
f 113/3/2 114/3/2 119/3/2
f 118/4/2 113/4/2 119/4/2
f 119/3/2 114/3/2 120/3/2
f 123/3/3 122/3/3 121/3/3
f 124/3/3 122/3/3 123/3/3
f 125/4/3 124/4/3 123/4/3
f 126/4/3 124/4/3 125/4/3
f 127/5/3 126/5/3 125/5/3
f 128/5/3 126/5/3 127/5/3
f 129/4/3 128/4/3 127/4/3
f 130/4/3 128/4/3 129/4/3
f 131/3/3 130/3/3 129/3/3
f 132/3/3 130/3/3 131/3/3
f 136/3/3 134/3/3 133/3/3
f 137/3/3 134/3/3 136/3/3
f 141/4/3 136/4/3 135/4/3
f 142/4/3 136/4/3 141/4/3
f 143/2/3 138/2/3 137/2/3
f 144/2/3 138/2/3 143/2/3
f 145/1/3 140/1/3 139/1/3
f 146/3/3 141/3/3 140/3/3
f 146/1/3 140/1/3 145/1/3
f 147/4/3 142/4/3 141/4/3
f 147/3/3 141/3/3 146/3/3
f 148/4/3 142/4/3 147/4/3
f 149/3/3 144/3/3 143/3/3
f 150/3/3 144/3/3 149/3/3
f 153/4/3 148/4/3 147/4/3
f 154/4/3 148/4/3 153/4/3
f 155/4/3 150/4/3 149/4/3
f 156/4/3 150/4/3 155/4/3
f 157/1/3 152/1/3 151/1/3
f 158/3/3 153/3/3 152/3/3
f 158/1/3 152/1/3 157/1/3
f 159/4/3 154/4/3 153/4/3
f 159/3/3 153/3/3 158/3/3
f 160/4/3 154/4/3 159/4/3
f 161/3/3 156/3/3 155/3/3
f 162/3/3 156/3/3 161/3/3
f 163/4/3 160/4/3 159/4/3
f 164/4/3 160/4/3 163/4/3
f 165/2/3 162/2/3 161/2/3
f 166/2/3 162/2/3 165/2/3
f 167/3/3 165/3/3 164/3/3
f 168/3/3 165/3/3 167/3/3
f 172/1/3 170/1/3 169/1/3
f 173/3/3 171/3/3 170/3/3
f 173/1/3 170/1/3 172/1/3
f 174/3/3 171/3/3 173/3/3
f 178/1/3 176/1/3 175/1/3
f 179/3/3 177/3/3 176/3/3
f 179/1/3 176/1/3 178/1/3
f 180/3/3 177/3/3 179/3/3
f 181/1/4 182/1/4 184/1/4
f 182/3/4 183/3/4 185/3/4
f 184/1/4 182/1/4 185/1/4
f 185/3/4 183/3/4 186/3/4
f 187/1/4 188/1/4 190/1/4
f 188/3/4 189/3/4 191/3/4
f 190/1/4 188/1/4 191/1/4
f 191/3/4 189/3/4 192/3/4
f 193/3/4 194/3/4 196/3/4
f 196/3/4 194/3/4 197/3/4
f 195/4/4 196/4/4 201/4/4
f 201/4/4 196/4/4 202/4/4
f 197/2/4 198/2/4 203/2/4
f 203/2/4 198/2/4 204/2/4
f 199/1/4 200/1/4 205/1/4
f 200/3/4 201/3/4 206/3/4
f 205/1/4 200/1/4 206/1/4
f 201/4/4 202/4/4 207/4/4
f 206/3/4 201/3/4 207/3/4
f 207/4/4 202/4/4 208/4/4
f 203/3/4 204/3/4 209/3/4
f 209/3/4 204/3/4 210/3/4
f 207/4/4 208/4/4 213/4/4
f 213/4/4 208/4/4 214/4/4
f 209/4/4 210/4/4 215/4/4
f 215/4/4 210/4/4 216/4/4
f 211/1/4 212/1/4 217/1/4
f 212/3/4 213/3/4 218/3/4
f 217/1/4 212/1/4 218/1/4
f 213/4/4 214/4/4 219/4/4
f 218/3/4 213/3/4 219/3/4
f 219/4/4 214/4/4 220/4/4
f 215/3/4 216/3/4 221/3/4
f 221/3/4 216/3/4 222/3/4
f 219/4/4 220/4/4 223/4/4
f 223/4/4 220/4/4 224/4/4
f 221/2/4 222/2/4 225/2/4
f 225/2/4 222/2/4 226/2/4
f 224/3/4 225/3/4 227/3/4
f 227/3/4 225/3/4 228/3/4
f 229/3/4 230/3/4 231/3/4
f 231/3/4 230/3/4 232/3/4
f 231/4/4 232/4/4 233/4/4
f 233/4/4 232/4/4 234/4/4
f 233/5/4 234/5/4 235/5/4
f 235/5/4 234/5/4 236/5/4
f 235/4/4 236/4/4 237/4/4
f 237/4/4 236/4/4 238/4/4
f 237/3/4 238/3/4 239/3/4
f 239/3/4 238/3/4 240/3/4
f 245/1/5 242/1/5 241/1/5
f 246/1/5 242/1/5 245/1/5
f 247/1/5 244/1/5 243/1/5
f 248/1/5 244/1/5 247/1/5
f 253/1/5 250/1/5 249/1/5
f 254/1/5 250/1/5 253/1/5
f 255/1/5 252/1/5 251/1/5
f 256/1/5 252/1/5 255/1/5
f 263/4/5 258/4/5 257/4/5
f 264/4/5 260/4/5 259/4/5
f 265/4/5 260/4/5 264/4/5
f 266/4/5 262/4/5 261/4/5
f 267/4/5 265/4/5 264/4/5
f 267/4/5 266/4/5 265/4/5
f 267/4/5 263/4/5 257/4/5
f 267/4/5 264/4/5 263/4/5
f 268/4/5 266/4/5 267/4/5
f 269/4/5 266/4/5 268/4/5
f 270/4/5 262/4/5 266/4/5
f 270/4/5 266/4/5 269/4/5
f 271/4/5 267/4/5 257/4/5
f 272/4/5 267/4/5 271/4/5
f 273/4/5 269/4/5 268/4/5
f 274/4/5 269/4/5 273/4/5
f 275/4/5 262/4/5 270/4/5
f 276/4/5 262/4/5 275/4/5
f 284/3/5 278/3/5 277/3/5
f 285/4/5 279/4/5 278/4/5
f 285/3/5 278/3/5 284/3/5
f 286/5/5 280/5/5 279/5/5
f 286/4/5 279/4/5 285/4/5
f 287/4/5 281/4/5 280/4/5
f 287/5/5 280/5/5 286/5/5
f 288/3/5 282/3/5 281/3/5
f 288/4/5 281/4/5 287/4/5
f 289/3/5 282/3/5 288/3/5
f 291/3/5 284/3/5 283/3/5
f 292/3/5 284/3/5 291/3/5
f 293/3/5 290/3/5 289/3/5
f 294/3/5 290/3/5 293/3/5
f 295/4/5 292/4/5 291/4/5
f 296/4/5 292/4/5 295/4/5
f 297/4/5 294/4/5 293/4/5
f 298/4/5 294/4/5 297/4/5
f 299/5/5 296/5/5 295/5/5
f 300/5/5 296/5/5 299/5/5
f 301/5/5 298/5/5 297/5/5
f 302/5/5 298/5/5 301/5/5
f 303/4/5 300/4/5 299/4/5
f 304/4/5 300/4/5 303/4/5
f 305/4/5 302/4/5 301/4/5
f 306/4/5 302/4/5 305/4/5
f 307/3/5 304/3/5 303/3/5
f 308/3/5 304/3/5 307/3/5
f 313/3/5 306/3/5 305/3/5
f 314/3/5 306/3/5 313/3/5
f 315/3/5 309/3/5 308/3/5
f 316/4/5 310/4/5 309/4/5
f 316/3/5 309/3/5 315/3/5
f 317/5/5 311/5/5 310/5/5
f 317/4/5 310/4/5 316/4/5
f 318/4/5 312/4/5 311/4/5
f 318/5/5 311/5/5 317/5/5
f 319/3/5 313/3/5 312/3/5
f 319/4/5 312/4/5 318/4/5
f 320/3/5 313/3/5 319/3/5
f 321/3/6 322/3/6 328/3/6
f 322/4/6 323/4/6 329/4/6
f 328/3/6 322/3/6 329/3/6
f 323/5/6 324/5/6 330/5/6
f 329/4/6 323/4/6 330/4/6
f 324/4/6 325/4/6 331/4/6
f 330/5/6 324/5/6 331/5/6
f 325/3/6 326/3/6 332/3/6
f 331/4/6 325/4/6 332/4/6
f 332/3/6 326/3/6 333/3/6
f 327/3/6 328/3/6 335/3/6
f 335/3/6 328/3/6 336/3/6
f 333/3/6 334/3/6 337/3/6
f 337/3/6 334/3/6 338/3/6
f 335/4/6 336/4/6 339/4/6
f 339/4/6 336/4/6 340/4/6
f 337/4/6 338/4/6 341/4/6
f 341/4/6 338/4/6 342/4/6
f 339/5/6 340/5/6 343/5/6
f 343/5/6 340/5/6 344/5/6
f 341/5/6 342/5/6 345/5/6
f 345/5/6 342/5/6 346/5/6
f 343/4/6 344/4/6 347/4/6
f 347/4/6 344/4/6 348/4/6
f 345/4/6 346/4/6 349/4/6
f 349/4/6 346/4/6 350/4/6
f 347/3/6 348/3/6 351/3/6
f 351/3/6 348/3/6 352/3/6
f 349/3/6 350/3/6 357/3/6
f 357/3/6 350/3/6 358/3/6
f 352/3/6 353/3/6 359/3/6
f 353/4/6 354/4/6 360/4/6
f 359/3/6 353/3/6 360/3/6
f 354/5/6 355/5/6 361/5/6
f 360/4/6 354/4/6 361/4/6
f 355/4/6 356/4/6 362/4/6
f 361/5/6 355/5/6 362/5/6
f 356/3/6 357/3/6 363/3/6
f 362/4/6 356/4/6 363/4/6
f 363/3/6 357/3/6 364/3/6
f 365/2/6 366/2/6 371/2/6
f 366/3/6 367/3/6 372/3/6
f 371/2/6 366/2/6 372/2/6
f 367/4/6 368/4/6 373/4/6
f 372/3/6 367/3/6 373/3/6
f 368/3/6 369/3/6 374/3/6
f 373/4/6 368/4/6 374/4/6
f 369/2/6 370/2/6 375/2/6
f 374/3/6 369/3/6 375/3/6
f 375/2/6 370/2/6 376/2/6
f 371/3/6 372/3/6 377/3/6
f 373/4/6 374/4/6 378/4/6
f 377/3/6 372/3/6 378/3/6
f 372/4/6 373/4/6 378/4/6
f 374/4/6 375/4/6 378/4/6
f 375/3/6 376/3/6 379/3/6
f 378/4/6 375/4/6 379/4/6
f 379/3/6 376/3/6 380/3/6
f 377/4/6 378/4/6 381/4/6
f 378/4/6 379/4/6 381/4/6
f 379/4/6 380/4/6 381/4/6
f 381/4/6 380/4/6 382/4/6
f 382/4/6 380/4/6 383/4/6
f 383/4/6 380/4/6 384/4/6
f 381/3/6 382/3/6 385/3/6
f 382/4/6 383/4/6 386/4/6
f 385/3/6 382/3/6 386/3/6
f 386/4/6 383/4/6 387/4/6
f 387/4/6 383/4/6 388/4/6
f 383/3/6 384/3/6 389/3/6
f 388/4/6 383/4/6 389/4/6
f 389/3/6 384/3/6 390/3/6
f 385/2/6 386/2/6 391/2/6
f 386/3/6 387/3/6 392/3/6
f 391/2/6 386/2/6 392/2/6
f 387/4/6 388/4/6 393/4/6
f 392/3/6 387/3/6 393/3/6
f 388/3/6 389/3/6 394/3/6
f 393/4/6 388/4/6 394/4/6
f 389/2/6 390/2/6 395/2/6
f 394/3/6 389/3/6 395/3/6
f 395/2/6 390/2/6 396/2/6
