# MagicaVoxel @ Ephtracy

# group
o 

# material
mtllib Interior_Furniture_Table_Long_Type02_1x1.mtl
usemtl palette

# normals
vn -1 0 0
vn 1 0 0
vn 0 0 1
vn 0 0 -1
vn 0 -1 0
vn 0 1 0

# texcoords
vt 0.876953 0.5
vt 0.880859 0.5
vt 0.884766 0.5
vt 0.888672 0.5
vt 0.892578 0.5

# verts
v -0.8 0.9 0.5
v -0.8 0.9 0.4
v -0.8 0.9 0.3
v -0.8 0.9 -0.3
v -0.8 0.9 -0.4
v -0.8 0.9 -0.5
v -0.8 1 0.5
v -0.8 1 0.4
v -0.8 1 0.3
v -0.8 1 -0.3
v -0.8 1 -0.4
v -0.8 1 -0.5
v -0.7 0.8 0.5
v -0.7 0.8 -0.4
v -0.7 0.9 0.6
v -0.7 0.9 0.5
v -0.7 0.9 0.4
v -0.7 0.9 0.3
v -0.7 0.9 -0.3
v -0.7 0.9 -0.4
v -0.7 0.9 -0.5
v -0.7 0.9 -0.6
v -0.7 1 0.6
v -0.7 1 0.5
v -0.7 1 0.4
v -0.7 1 0.3
v -0.7 1 0.2
v -0.7 1 -0.2
v -0.7 1 -0.3
v -0.7 1 -0.4
v -0.7 1 -0.5
v -0.7 1 -0.6
v -0.7 1.1 0.4
v -0.7 1.1 0.3
v -0.7 1.1 0.2
v -0.7 1.1 -0.2
v -0.7 1.1 -0.3
v -0.7 1.1 -0.4
v -0.6 0 0.4
v -0.6 0 0.3
v -0.6 0 -0.3
v -0.6 0 -0.4
v -0.6 0.1 0.4
v -0.6 0.1 0.3
v -0.6 0.1 -0.3
v -0.6 0.1 -0.4
v -0.6 0.8 0.4
v -0.6 0.8 0.3
v -0.6 0.8 -0.3
v -0.6 0.8 -0.4
v -0.6 0.8 -0.5
v -0.6 0.9 -0.4
v -0.6 0.9 -0.5
v -0.6 1 0.5
v -0.6 1 0.4
v -0.6 1 -0.4
v -0.6 1 -0.5
v -0.6 1.1 0.5
v -0.6 1.1 0.4
v -0.6 1.1 -0.4
v -0.6 1.1 -0.5
v 0.5 0 0.4
v 0.5 0 0.3
v 0.5 0 -0.3
v 0.5 0 -0.4
v 0.5 0.1 0.4
v 0.5 0.1 0.3
v 0.5 0.1 -0.3
v 0.5 0.1 -0.4
v 0.5 0.8 0.4
v 0.5 0.8 0.3
v 0.5 0.8 -0.3
v 0.5 0.8 -0.4
v -0.5 0 0.4
v -0.5 0 0.3
v -0.5 0 -0.3
v -0.5 0 -0.4
v -0.5 0.1 0.4
v -0.5 0.1 0.3
v -0.5 0.1 -0.3
v -0.5 0.1 -0.4
v -0.5 0.8 0.4
v -0.5 0.8 0.3
v -0.5 0.8 -0.3
v -0.5 0.8 -0.4
v 0.6 0 0.4
v 0.6 0 0.3
v 0.6 0 -0.3
v 0.6 0 -0.4
v 0.6 0.1 0.4
v 0.6 0.1 0.3
v 0.6 0.1 -0.3
v 0.6 0.1 -0.4
v 0.6 0.8 0.4
v 0.6 0.8 0.3
v 0.6 0.8 -0.3
v 0.6 0.8 -0.4
v 0.6 0.8 -0.5
v 0.6 0.9 -0.4
v 0.6 0.9 -0.5
v 0.6 1 0.5
v 0.6 1 0.4
v 0.6 1 -0.4
v 0.6 1 -0.5
v 0.6 1.1 0.5
v 0.6 1.1 0.4
v 0.6 1.1 -0.4
v 0.6 1.1 -0.5
v 0.7 0.8 0.5
v 0.7 0.8 -0.4
v 0.7 0.9 0.6
v 0.7 0.9 0.5
v 0.7 0.9 0.4
v 0.7 0.9 0.3
v 0.7 0.9 -0.3
v 0.7 0.9 -0.4
v 0.7 0.9 -0.5
v 0.7 0.9 -0.6
v 0.7 1 0.6
v 0.7 1 0.5
v 0.7 1 0.4
v 0.7 1 0.3
v 0.7 1 0.2
v 0.7 1 -0.2
v 0.7 1 -0.3
v 0.7 1 -0.4
v 0.7 1 -0.5
v 0.7 1 -0.6
v 0.7 1.1 0.4
v 0.7 1.1 0.3
v 0.7 1.1 0.2
v 0.7 1.1 -0.2
v 0.7 1.1 -0.3
v 0.7 1.1 -0.4
v 0.8 0.9 0.5
v 0.8 0.9 0.4
v 0.8 0.9 0.3
v 0.8 0.9 -0.3
v 0.8 0.9 -0.4
v 0.8 0.9 -0.5
v 0.8 1 0.5
v 0.8 1 0.4
v 0.8 1 0.3
v 0.8 1 -0.3
v 0.8 1 -0.4
v 0.8 1 -0.5
v -0.7 0.9 0.6
v -0.7 1 0.6
v -0.6 0.9 0.6
v -0.6 1 0.6
v -0.5 0.9 0.6
v -0.5 1 0.6
v 0.5 0.9 0.6
v 0.5 1 0.6
v 0.6 0.9 0.6
v 0.6 1 0.6
v 0.7 0.9 0.6
v 0.7 1 0.6
v -0.8 0.9 0.5
v -0.8 1 0.5
v -0.7 0.8 0.5
v -0.7 0.9 0.5
v -0.7 1 0.5
v -0.6 0.9 0.5
v -0.6 1 0.5
v -0.6 1.1 0.5
v -0.5 0.9 0.5
v -0.5 1 0.5
v -0.5 1.1 0.5
v -0.4 1 0.5
v -0.4 1.1 0.5
v 0.4 1 0.5
v 0.4 1.1 0.5
v 0.5 0.9 0.5
v 0.5 1 0.5
v 0.5 1.1 0.5
v 0.6 0.9 0.5
v 0.6 1 0.5
v 0.6 1.1 0.5
v 0.7 0.8 0.5
v 0.7 0.9 0.5
v 0.7 1 0.5
v 0.8 0.9 0.5
v 0.8 1 0.5
v -0.7 1 0.4
v -0.7 1.1 0.4
v -0.6 0 0.4
v -0.6 0.1 0.4
v -0.6 0.8 0.4
v -0.6 1 0.4
v -0.6 1.1 0.4
v -0.5 0 0.4
v -0.5 0.1 0.4
v -0.5 0.8 0.4
v 0.5 0 0.4
v 0.5 0.1 0.4
v 0.5 0.8 0.4
v 0.6 0 0.4
v 0.6 0.1 0.4
v 0.6 0.8 0.4
v 0.6 1 0.4
v 0.6 1.1 0.4
v 0.7 1 0.4
v 0.7 1.1 0.4
v -0.6 0 -0.3
v -0.6 0.1 -0.3
v -0.6 0.8 -0.3
v -0.5 0 -0.3
v -0.5 0.1 -0.3
v -0.5 0.8 -0.3
v 0.5 0 -0.3
v 0.5 0.1 -0.3
v 0.5 0.8 -0.3
v 0.6 0 -0.3
v 0.6 0.1 -0.3
v 0.6 0.8 -0.3
v -0.6 0 0.3
v -0.6 0.1 0.3
v -0.6 0.8 0.3
v -0.5 0 0.3
v -0.5 0.1 0.3
v -0.5 0.8 0.3
v 0.5 0 0.3
v 0.5 0.1 0.3
v 0.5 0.8 0.3
v 0.6 0 0.3
v 0.6 0.1 0.3
v 0.6 0.8 0.3
v -0.7 0.8 -0.4
v -0.7 0.9 -0.4
v -0.7 1 -0.4
v -0.7 1.1 -0.4
v -0.6 0 -0.4
v -0.6 0.1 -0.4
v -0.6 0.8 -0.4
v -0.6 0.9 -0.4
v -0.6 1 -0.4
v -0.6 1.1 -0.4
v -0.5 0 -0.4
v -0.5 0.1 -0.4
v -0.5 0.8 -0.4
v 0.5 0 -0.4
v 0.5 0.1 -0.4
v 0.5 0.8 -0.4
v 0.6 0 -0.4
v 0.6 0.1 -0.4
v 0.6 0.8 -0.4
v 0.6 0.9 -0.4
v 0.6 1 -0.4
v 0.6 1.1 -0.4
v 0.7 0.8 -0.4
v 0.7 0.9 -0.4
v 0.7 1 -0.4
v 0.7 1.1 -0.4
v -0.8 0.9 -0.5
v -0.8 1 -0.5
v -0.7 0.9 -0.5
v -0.7 1 -0.5
v -0.6 0.8 -0.5
v -0.6 0.9 -0.5
v -0.6 1 -0.5
v -0.6 1.1 -0.5
v -0.5 0.9 -0.5
v -0.5 1 -0.5
v -0.5 1.1 -0.5
v -0.4 1 -0.5
v -0.4 1.1 -0.5
v 0.4 1 -0.5
v 0.4 1.1 -0.5
v 0.5 0.9 -0.5
v 0.5 1 -0.5
v 0.5 1.1 -0.5
v 0.6 0.8 -0.5
v 0.6 0.9 -0.5
v 0.6 1 -0.5
v 0.6 1.1 -0.5
v 0.7 0.9 -0.5
v 0.7 1 -0.5
v 0.8 0.9 -0.5
v 0.8 1 -0.5
v -0.7 0.9 -0.6
v -0.7 1 -0.6
v -0.6 0.9 -0.6
v -0.6 1 -0.6
v -0.5 0.9 -0.6
v -0.5 1 -0.6
v 0.5 0.9 -0.6
v 0.5 1 -0.6
v 0.6 0.9 -0.6
v 0.6 1 -0.6
v 0.7 0.9 -0.6
v 0.7 1 -0.6
v -0.6 0 0.4
v -0.5 0 0.4
v 0.5 0 0.4
v 0.6 0 0.4
v -0.6 0 0.3
v -0.5 0 0.3
v 0.5 0 0.3
v 0.6 0 0.3
v -0.6 0 -0.3
v -0.5 0 -0.3
v 0.5 0 -0.3
v 0.6 0 -0.3
v -0.6 0 -0.4
v -0.5 0 -0.4
v 0.5 0 -0.4
v 0.6 0 -0.4
v -0.7 0.8 0.5
v 0.7 0.8 0.5
v -0.6 0.8 0.4
v -0.5 0.8 0.4
v 0.5 0.8 0.4
v 0.6 0.8 0.4
v -0.6 0.8 0.3
v -0.5 0.8 0.3
v 0.5 0.8 0.3
v 0.6 0.8 0.3
v -0.6 0.8 -0.3
v -0.5 0.8 -0.3
v 0.5 0.8 -0.3
v 0.6 0.8 -0.3
v -0.7 0.8 -0.4
v -0.6 0.8 -0.4
v -0.5 0.8 -0.4
v 0.5 0.8 -0.4
v 0.6 0.8 -0.4
v 0.7 0.8 -0.4
v -0.6 0.8 -0.5
v 0.6 0.8 -0.5
v -0.7 0.9 0.6
v -0.6 0.9 0.6
v -0.5 0.9 0.6
v 0.5 0.9 0.6
v 0.6 0.9 0.6
v 0.7 0.9 0.6
v -0.8 0.9 0.5
v -0.7 0.9 0.5
v -0.6 0.9 0.5
v -0.5 0.9 0.5
v 0.5 0.9 0.5
v 0.6 0.9 0.5
v 0.7 0.9 0.5
v 0.8 0.9 0.5
v -0.8 0.9 0.4
v -0.7 0.9 0.4
v 0.7 0.9 0.4
v 0.8 0.9 0.4
v -0.8 0.9 0.3
v -0.7 0.9 0.3
v 0.7 0.9 0.3
v 0.8 0.9 0.3
v -0.8 0.9 -0.3
v -0.7 0.9 -0.3
v 0.7 0.9 -0.3
v 0.8 0.9 -0.3
v -0.8 0.9 -0.4
v -0.7 0.9 -0.4
v -0.6 0.9 -0.4
v 0.6 0.9 -0.4
v 0.7 0.9 -0.4
v 0.8 0.9 -0.4
v -0.8 0.9 -0.5
v -0.7 0.9 -0.5
v -0.6 0.9 -0.5
v -0.5 0.9 -0.5
v 0.5 0.9 -0.5
v 0.6 0.9 -0.5
v 0.7 0.9 -0.5
v 0.8 0.9 -0.5
v -0.7 0.9 -0.6
v -0.6 0.9 -0.6
v -0.5 0.9 -0.6
v 0.5 0.9 -0.6
v 0.6 0.9 -0.6
v 0.7 0.9 -0.6
v -0.7 1 0.6
v -0.6 1 0.6
v -0.5 1 0.6
v 0.5 1 0.6
v 0.6 1 0.6
v 0.7 1 0.6
v -0.8 1 0.5
v -0.7 1 0.5
v -0.6 1 0.5
v -0.5 1 0.5
v -0.4 1 0.5
v 0.4 1 0.5
v 0.5 1 0.5
v 0.6 1 0.5
v 0.7 1 0.5
v 0.8 1 0.5
v -0.8 1 0.4
v -0.7 1 0.4
v -0.6 1 0.4
v 0.6 1 0.4
v 0.7 1 0.4
v 0.8 1 0.4
v -0.8 1 0.3
v -0.7 1 0.3
v 0.7 1 0.3
v 0.8 1 0.3
v -0.7 1 0.2
v 0.7 1 0.2
v -0.7 1 -0.2
v 0.7 1 -0.2
v -0.8 1 -0.3
v -0.7 1 -0.3
v 0.7 1 -0.3
v 0.8 1 -0.3
v -0.8 1 -0.4
v -0.7 1 -0.4
v -0.6 1 -0.4
v 0.6 1 -0.4
v 0.7 1 -0.4
v 0.8 1 -0.4
v -0.8 1 -0.5
v -0.7 1 -0.5
v -0.6 1 -0.5
v -0.5 1 -0.5
v -0.4 1 -0.5
v 0.4 1 -0.5
v 0.5 1 -0.5
v 0.6 1 -0.5
v 0.7 1 -0.5
v 0.8 1 -0.5
v -0.7 1 -0.6
v -0.6 1 -0.6
v -0.5 1 -0.6
v 0.5 1 -0.6
v 0.6 1 -0.6
v 0.7 1 -0.6
v -0.6 1.1 0.5
v -0.5 1.1 0.5
v -0.4 1.1 0.5
v 0.4 1.1 0.5
v 0.5 1.1 0.5
v 0.6 1.1 0.5
v -0.7 1.1 0.4
v -0.6 1.1 0.4
v -0.5 1.1 0.4
v -0.4 1.1 0.4
v 0.4 1.1 0.4
v 0.5 1.1 0.4
v 0.6 1.1 0.4
v 0.7 1.1 0.4
v -0.7 1.1 0.3
v -0.6 1.1 0.3
v -0.5 1.1 0.3
v 0.5 1.1 0.3
v 0.6 1.1 0.3
v 0.7 1.1 0.3
v -0.7 1.1 0.2
v -0.6 1.1 0.2
v 0.6 1.1 0.2
v 0.7 1.1 0.2
v -0.7 1.1 -0.2
v -0.6 1.1 -0.2
v 0.6 1.1 -0.2
v 0.7 1.1 -0.2
v -0.7 1.1 -0.3
v -0.6 1.1 -0.3
v -0.5 1.1 -0.3
v 0.5 1.1 -0.3
v 0.6 1.1 -0.3
v 0.7 1.1 -0.3
v -0.7 1.1 -0.4
v -0.6 1.1 -0.4
v -0.5 1.1 -0.4
v -0.4 1.1 -0.4
v 0.4 1.1 -0.4
v 0.5 1.1 -0.4
v 0.6 1.1 -0.4
v 0.7 1.1 -0.4
v -0.6 1.1 -0.5
v -0.5 1.1 -0.5
v -0.4 1.1 -0.5
v 0.4 1.1 -0.5
v 0.5 1.1 -0.5
v 0.6 1.1 -0.5

# faces
f 7/3/1 2/3/1 1/3/1
f 8/4/1 3/4/1 2/4/1
f 8/3/1 2/3/1 7/3/1
f 9/5/1 4/5/1 3/5/1
f 9/4/1 3/4/1 8/4/1
f 10/4/1 5/4/1 4/4/1
f 10/5/1 4/5/1 9/5/1
f 11/3/1 6/3/1 5/3/1
f 11/4/1 5/4/1 10/4/1
f 12/3/1 6/3/1 11/3/1
f 16/4/1 14/4/1 13/4/1
f 17/4/1 14/4/1 16/4/1
f 18/4/1 14/4/1 17/4/1
f 19/4/1 14/4/1 18/4/1
f 20/4/1 14/4/1 19/4/1
f 23/3/1 16/3/1 15/3/1
f 24/3/1 16/3/1 23/3/1
f 31/3/1 22/3/1 21/3/1
f 32/3/1 22/3/1 31/3/1
f 33/2/1 26/2/1 25/2/1
f 34/3/1 27/3/1 26/3/1
f 34/2/1 26/2/1 33/2/1
f 35/4/1 28/4/1 27/4/1
f 35/3/1 27/3/1 34/3/1
f 36/3/1 29/3/1 28/3/1
f 36/4/1 28/4/1 35/4/1
f 37/2/1 30/2/1 29/2/1
f 37/3/1 29/3/1 36/3/1
f 38/2/1 30/2/1 37/2/1
f 43/1/1 40/1/1 39/1/1
f 44/1/1 40/1/1 43/1/1
f 45/1/1 42/1/1 41/1/1
f 46/1/1 42/1/1 45/1/1
f 47/3/1 44/3/1 43/3/1
f 48/3/1 44/3/1 47/3/1
f 49/3/1 46/3/1 45/3/1
f 50/3/1 46/3/1 49/3/1
f 52/4/1 51/4/1 50/4/1
f 53/4/1 51/4/1 52/4/1
f 58/2/1 55/2/1 54/2/1
f 59/2/1 55/2/1 58/2/1
f 60/2/1 57/2/1 56/2/1
f 61/2/1 57/2/1 60/2/1
f 66/1/1 63/1/1 62/1/1
f 67/1/1 63/1/1 66/1/1
f 68/1/1 65/1/1 64/1/1
f 69/1/1 65/1/1 68/1/1
f 70/3/1 67/3/1 66/3/1
f 71/3/1 67/3/1 70/3/1
f 72/3/1 69/3/1 68/3/1
f 73/3/1 69/3/1 72/3/1
f 74/1/2 75/1/2 78/1/2
f 78/1/2 75/1/2 79/1/2
f 76/1/2 77/1/2 80/1/2
f 80/1/2 77/1/2 81/1/2
f 78/3/2 79/3/2 82/3/2
f 82/3/2 79/3/2 83/3/2
f 80/3/2 81/3/2 84/3/2
f 84/3/2 81/3/2 85/3/2
f 86/1/2 87/1/2 90/1/2
f 90/1/2 87/1/2 91/1/2
f 88/1/2 89/1/2 92/1/2
f 92/1/2 89/1/2 93/1/2
f 90/3/2 91/3/2 94/3/2
f 94/3/2 91/3/2 95/3/2
f 92/3/2 93/3/2 96/3/2
f 96/3/2 93/3/2 97/3/2
f 97/4/2 98/4/2 99/4/2
f 99/4/2 98/4/2 100/4/2
f 101/2/2 102/2/2 105/2/2
f 105/2/2 102/2/2 106/2/2
f 103/2/2 104/2/2 107/2/2
f 107/2/2 104/2/2 108/2/2
f 109/4/2 110/4/2 112/4/2
f 112/4/2 110/4/2 113/4/2
f 113/4/2 110/4/2 114/4/2
f 114/4/2 110/4/2 115/4/2
f 115/4/2 110/4/2 116/4/2
f 111/3/2 112/3/2 119/3/2
f 119/3/2 112/3/2 120/3/2
f 117/3/2 118/3/2 127/3/2
f 127/3/2 118/3/2 128/3/2
f 121/2/2 122/2/2 129/2/2
f 122/3/2 123/3/2 130/3/2
f 129/2/2 122/2/2 130/2/2
f 123/4/2 124/4/2 131/4/2
f 130/3/2 123/3/2 131/3/2
f 124/3/2 125/3/2 132/3/2
f 131/4/2 124/4/2 132/4/2
f 125/2/2 126/2/2 133/2/2
f 132/3/2 125/3/2 133/3/2
f 133/2/2 126/2/2 134/2/2
f 135/3/2 136/3/2 141/3/2
f 136/4/2 137/4/2 142/4/2
f 141/3/2 136/3/2 142/3/2
f 137/5/2 138/5/2 143/5/2
f 142/4/2 137/4/2 143/4/2
f 138/4/2 139/4/2 144/4/2
f 143/5/2 138/5/2 144/5/2
f 139/3/2 140/3/2 145/3/2
f 144/4/2 139/4/2 145/4/2
f 145/3/2 140/3/2 146/3/2
f 149/3/3 148/3/3 147/3/3
f 150/3/3 148/3/3 149/3/3
f 151/4/3 150/4/3 149/4/3
f 152/4/3 150/4/3 151/4/3
f 153/5/3 152/5/3 151/5/3
f 154/5/3 152/5/3 153/5/3
f 155/4/3 154/4/3 153/4/3
f 156/4/3 154/4/3 155/4/3
f 157/3/3 156/3/3 155/3/3
f 158/3/3 156/3/3 157/3/3
f 162/3/3 160/3/3 159/3/3
f 163/3/3 160/3/3 162/3/3
f 164/4/3 162/4/3 161/4/3
f 167/4/3 164/4/3 161/4/3
f 168/2/3 166/2/3 165/2/3
f 169/2/3 166/2/3 168/2/3
f 170/3/3 169/3/3 168/3/3
f 171/3/3 169/3/3 170/3/3
f 172/4/3 171/4/3 170/4/3
f 173/4/3 171/4/3 172/4/3
f 174/4/3 167/4/3 161/4/3
f 175/3/3 173/3/3 172/3/3
f 176/3/3 173/3/3 175/3/3
f 177/4/3 174/4/3 161/4/3
f 178/2/3 176/2/3 175/2/3
f 179/2/3 176/2/3 178/2/3
f 180/4/3 177/4/3 161/4/3
f 181/4/3 177/4/3 180/4/3
f 183/3/3 182/3/3 181/3/3
f 184/3/3 182/3/3 183/3/3
f 190/2/3 186/2/3 185/2/3
f 191/2/3 186/2/3 190/2/3
f 192/1/3 188/1/3 187/1/3
f 193/3/3 189/3/3 188/3/3
f 193/1/3 188/1/3 192/1/3
f 194/3/3 189/3/3 193/3/3
f 198/1/3 196/1/3 195/1/3
f 199/3/3 197/3/3 196/3/3
f 199/1/3 196/1/3 198/1/3
f 200/3/3 197/3/3 199/3/3
f 203/2/3 202/2/3 201/2/3
f 204/2/3 202/2/3 203/2/3
f 208/1/3 206/1/3 205/1/3
f 209/3/3 207/3/3 206/3/3
f 209/1/3 206/1/3 208/1/3
f 210/3/3 207/3/3 209/3/3
f 214/1/3 212/1/3 211/1/3
f 215/3/3 213/3/3 212/3/3
f 215/1/3 212/1/3 214/1/3
f 216/3/3 213/3/3 215/3/3
f 217/1/4 218/1/4 220/1/4
f 218/3/4 219/3/4 221/3/4
f 220/1/4 218/1/4 221/1/4
f 221/3/4 219/3/4 222/3/4
f 223/1/4 224/1/4 226/1/4
f 224/3/4 225/3/4 227/3/4
f 226/1/4 224/1/4 227/1/4
f 227/3/4 225/3/4 228/3/4
f 229/4/4 230/4/4 235/4/4
f 235/4/4 230/4/4 236/4/4
f 231/2/4 232/2/4 237/2/4
f 237/2/4 232/2/4 238/2/4
f 233/1/4 234/1/4 239/1/4
f 234/3/4 235/3/4 240/3/4
f 239/1/4 234/1/4 240/1/4
f 240/3/4 235/3/4 241/3/4
f 242/1/4 243/1/4 245/1/4
f 243/3/4 244/3/4 246/3/4
f 245/1/4 243/1/4 246/1/4
f 246/3/4 244/3/4 247/3/4
f 247/4/4 248/4/4 251/4/4
f 251/4/4 248/4/4 252/4/4
f 249/2/4 250/2/4 253/2/4
f 253/2/4 250/2/4 254/2/4
f 255/3/4 256/3/4 257/3/4
f 257/3/4 256/3/4 258/3/4
f 259/4/4 260/4/4 263/4/4
f 261/2/4 262/2/4 264/2/4
f 264/2/4 262/2/4 265/2/4
f 264/3/4 265/3/4 266/3/4
f 266/3/4 265/3/4 267/3/4
f 266/4/4 267/4/4 268/4/4
f 268/4/4 267/4/4 269/4/4
f 259/4/4 263/4/4 270/4/4
f 268/3/4 269/3/4 271/3/4
f 271/3/4 269/3/4 272/3/4
f 259/4/4 270/4/4 273/4/4
f 273/4/4 270/4/4 274/4/4
f 271/2/4 272/2/4 275/2/4
f 275/2/4 272/2/4 276/2/4
f 277/3/4 278/3/4 279/3/4
f 279/3/4 278/3/4 280/3/4
f 281/3/4 282/3/4 283/3/4
f 283/3/4 282/3/4 284/3/4
f 283/4/4 284/4/4 285/4/4
f 285/4/4 284/4/4 286/4/4
f 285/5/4 286/5/4 287/5/4
f 287/5/4 286/5/4 288/5/4
f 287/4/4 288/4/4 289/4/4
f 289/4/4 288/4/4 290/4/4
f 289/3/4 290/3/4 291/3/4
f 291/3/4 290/3/4 292/3/4
f 297/1/5 294/1/5 293/1/5
f 298/1/5 294/1/5 297/1/5
f 299/1/5 296/1/5 295/1/5
f 300/1/5 296/1/5 299/1/5
f 305/1/5 302/1/5 301/1/5
f 306/1/5 302/1/5 305/1/5
f 307/1/5 304/1/5 303/1/5
f 308/1/5 304/1/5 307/1/5
f 311/4/5 310/4/5 309/4/5
f 312/4/5 310/4/5 311/4/5
f 313/4/5 310/4/5 312/4/5
f 314/4/5 310/4/5 313/4/5
f 315/4/5 311/4/5 309/4/5
f 316/4/5 313/4/5 312/4/5
f 317/4/5 313/4/5 316/4/5
f 318/4/5 310/4/5 314/4/5
f 319/4/5 317/4/5 316/4/5
f 319/4/5 318/4/5 317/4/5
f 319/4/5 315/4/5 309/4/5
f 319/4/5 316/4/5 315/4/5
f 320/4/5 318/4/5 319/4/5
f 321/4/5 318/4/5 320/4/5
f 322/4/5 310/4/5 318/4/5
f 322/4/5 318/4/5 321/4/5
f 323/4/5 319/4/5 309/4/5
f 324/4/5 319/4/5 323/4/5
f 325/4/5 321/4/5 320/4/5
f 326/4/5 321/4/5 325/4/5
f 327/4/5 310/4/5 322/4/5
f 328/4/5 310/4/5 327/4/5
f 329/4/5 326/4/5 325/4/5
f 329/4/5 327/4/5 326/4/5
f 329/4/5 325/4/5 324/4/5
f 330/4/5 327/4/5 329/4/5
f 338/3/5 332/3/5 331/3/5
f 339/4/5 333/4/5 332/4/5
f 339/3/5 332/3/5 338/3/5
f 340/5/5 334/5/5 333/5/5
f 340/4/5 333/4/5 339/4/5
f 341/4/5 335/4/5 334/4/5
f 341/5/5 334/5/5 340/5/5
f 342/3/5 336/3/5 335/3/5
f 342/4/5 335/4/5 341/4/5
f 343/3/5 336/3/5 342/3/5
f 345/3/5 338/3/5 337/3/5
f 346/3/5 338/3/5 345/3/5
f 347/3/5 344/3/5 343/3/5
f 348/3/5 344/3/5 347/3/5
f 349/4/5 346/4/5 345/4/5
f 350/4/5 346/4/5 349/4/5
f 351/4/5 348/4/5 347/4/5
f 352/4/5 348/4/5 351/4/5
f 353/5/5 350/5/5 349/5/5
f 354/5/5 350/5/5 353/5/5
f 355/5/5 352/5/5 351/5/5
f 356/5/5 352/5/5 355/5/5
f 357/4/5 354/4/5 353/4/5
f 358/4/5 354/4/5 357/4/5
f 361/4/5 356/4/5 355/4/5
f 362/4/5 356/4/5 361/4/5
f 363/3/5 358/3/5 357/3/5
f 364/4/5 359/4/5 358/4/5
f 364/3/5 358/3/5 363/3/5
f 365/4/5 359/4/5 364/4/5
f 368/4/5 361/4/5 360/4/5
f 369/3/5 362/3/5 361/3/5
f 369/4/5 361/4/5 368/4/5
f 370/3/5 362/3/5 369/3/5
f 371/3/5 365/3/5 364/3/5
f 372/4/5 366/4/5 365/4/5
f 372/3/5 365/3/5 371/3/5
f 373/5/5 367/5/5 366/5/5
f 373/4/5 366/4/5 372/4/5
f 374/4/5 368/4/5 367/4/5
f 374/5/5 367/5/5 373/5/5
f 375/3/5 369/3/5 368/3/5
f 375/4/5 368/4/5 374/4/5
f 376/3/5 369/3/5 375/3/5
f 377/3/6 378/3/6 384/3/6
f 378/4/6 379/4/6 385/4/6
f 384/3/6 378/3/6 385/3/6
f 379/5/6 380/5/6 386/5/6
f 385/4/6 379/4/6 386/4/6
f 386/5/6 380/5/6 387/5/6
f 387/5/6 380/5/6 388/5/6
f 380/4/6 381/4/6 389/4/6
f 388/5/6 380/5/6 389/5/6
f 381/3/6 382/3/6 390/3/6
f 389/4/6 381/4/6 390/4/6
f 390/3/6 382/3/6 391/3/6
f 383/3/6 384/3/6 393/3/6
f 384/4/6 385/4/6 394/4/6
f 393/3/6 384/3/6 394/3/6
f 394/4/6 385/4/6 395/4/6
f 390/4/6 391/4/6 396/4/6
f 391/3/6 392/3/6 397/3/6
f 396/4/6 391/4/6 397/4/6
f 397/3/6 392/3/6 398/3/6
f 393/4/6 394/4/6 399/4/6
f 399/4/6 394/4/6 400/4/6
f 397/4/6 398/4/6 401/4/6
f 401/4/6 398/4/6 402/4/6
f 399/5/6 400/5/6 403/5/6
f 401/5/6 402/5/6 404/5/6
f 399/5/6 403/5/6 405/5/6
f 404/5/6 402/5/6 406/5/6
f 399/5/6 405/5/6 407/5/6
f 407/5/6 405/5/6 408/5/6
f 406/5/6 402/5/6 409/5/6
f 409/5/6 402/5/6 410/5/6
f 407/4/6 408/4/6 411/4/6
f 411/4/6 408/4/6 412/4/6
f 409/4/6 410/4/6 415/4/6
f 415/4/6 410/4/6 416/4/6
f 411/3/6 412/3/6 417/3/6
f 412/4/6 413/4/6 418/4/6
f 417/3/6 412/3/6 418/3/6
f 418/4/6 413/4/6 419/4/6
f 414/4/6 415/4/6 424/4/6
f 415/3/6 416/3/6 425/3/6
f 424/4/6 415/4/6 425/4/6
f 425/3/6 416/3/6 426/3/6
f 418/3/6 419/3/6 427/3/6
f 419/4/6 420/4/6 428/4/6
f 427/3/6 419/3/6 428/3/6
f 422/5/6 423/5/6 429/5/6
f 428/4/6 420/4/6 429/4/6
f 420/5/6 421/5/6 429/5/6
f 421/5/6 422/5/6 429/5/6
f 423/4/6 424/4/6 430/4/6
f 429/5/6 423/5/6 430/5/6
f 424/3/6 425/3/6 431/3/6
f 430/4/6 424/4/6 431/4/6
f 431/3/6 425/3/6 432/3/6
f 433/2/6 434/2/6 440/2/6
f 434/3/6 435/3/6 441/3/6
f 440/2/6 434/2/6 441/2/6
f 435/4/6 436/4/6 442/4/6
f 441/3/6 435/3/6 442/3/6
f 436/3/6 437/3/6 443/3/6
f 442/4/6 436/4/6 443/4/6
f 437/2/6 438/2/6 444/2/6
f 443/3/6 437/3/6 444/3/6
f 444/2/6 438/2/6 445/2/6
f 439/2/6 440/2/6 447/2/6
f 440/3/6 441/3/6 448/3/6
f 447/2/6 440/2/6 448/2/6
f 442/4/6 443/4/6 449/4/6
f 448/3/6 441/3/6 449/3/6
f 441/4/6 442/4/6 449/4/6
f 443/4/6 444/4/6 449/4/6
f 444/3/6 445/3/6 450/3/6
f 449/4/6 444/4/6 450/4/6
f 445/2/6 446/2/6 451/2/6
f 450/3/6 445/3/6 451/3/6
f 451/2/6 446/2/6 452/2/6
f 447/3/6 448/3/6 453/3/6
f 449/4/6 450/4/6 454/4/6
f 453/3/6 448/3/6 454/3/6
f 448/4/6 449/4/6 454/4/6
f 450/4/6 451/4/6 454/4/6
f 451/3/6 452/3/6 455/3/6
f 454/4/6 451/4/6 455/4/6
f 455/3/6 452/3/6 456/3/6
f 453/4/6 454/4/6 457/4/6
f 454/4/6 455/4/6 457/4/6
f 455/4/6 456/4/6 457/4/6
f 457/4/6 456/4/6 458/4/6
f 458/4/6 456/4/6 459/4/6
f 459/4/6 456/4/6 460/4/6
f 457/3/6 458/3/6 461/3/6
f 458/4/6 459/4/6 462/4/6
f 461/3/6 458/3/6 462/3/6
f 462/4/6 459/4/6 463/4/6
f 463/4/6 459/4/6 464/4/6
f 459/3/6 460/3/6 465/3/6
f 464/4/6 459/4/6 465/4/6
f 465/3/6 460/3/6 466/3/6
f 461/2/6 462/2/6 467/2/6
f 462/3/6 463/3/6 468/3/6
f 467/2/6 462/2/6 468/2/6
f 463/4/6 464/4/6 469/4/6
f 468/3/6 463/3/6 469/3/6
f 469/4/6 464/4/6 470/4/6
f 470/4/6 464/4/6 471/4/6
f 464/3/6 465/3/6 472/3/6
f 471/4/6 464/4/6 472/4/6
f 465/2/6 466/2/6 473/2/6
f 472/3/6 465/3/6 473/3/6
f 473/2/6 466/2/6 474/2/6
f 468/2/6 469/2/6 475/2/6
f 469/3/6 470/3/6 476/3/6
f 475/2/6 469/2/6 476/2/6
f 470/4/6 471/4/6 477/4/6
f 476/3/6 470/3/6 477/3/6
f 471/3/6 472/3/6 478/3/6
f 477/4/6 471/4/6 478/4/6
f 472/2/6 473/2/6 479/2/6
f 478/3/6 472/3/6 479/3/6
f 479/2/6 473/2/6 480/2/6
