# MagicaVoxel @ Ephtracy

# group
o 

# material
mtllib Interior_Furniture_Table_Coffee_Type01_02.mtl
usemtl palette

# normals
vn -1 0 0
vn 1 0 0
vn 0 0 1
vn 0 0 -1
vn 0 -1 0
vn 0 1 0

# texcoords
vt 0.876953 0.5
vt 0.880859 0.5
vt 0.884766 0.5
vt 0.888672 0.5
vt 0.892578 0.5

# verts
v -1.1 0.3 0.3
v -1.1 0.3 0.2
v -1.1 0.3 0.1
v -1.1 0.3 -0.1
v -1.1 0.3 -0.2
v -1.1 0.3 -0.3
v -1.1 0.4 0.3
v -1.1 0.4 0.2
v -1.1 0.4 0.1
v -1.1 0.4 -0.1
v -1.1 0.4 -0.2
v -1.1 0.4 -0.3
v -1 0.3 0.4
v -1 0.3 0.3
v -1 0.3 -0.3
v -1 0.3 -0.4
v -1 0.4 0.4
v -1 0.4 0.3
v -1 0.4 0.2
v -1 0.4 0.1
v -1 0.4 -0.1
v -1 0.4 -0.2
v -1 0.4 -0.3
v -1 0.4 -0.4
v -1 0.5 0.2
v -1 0.5 0.1
v -1 0.5 -0.1
v -1 0.5 -0.2
v -0.9 0 0.3
v -0.9 0 0.2
v -0.9 0 -0.2
v -0.9 0 -0.3
v -0.9 0.1 0.3
v -0.9 0.1 0.2
v -0.9 0.1 -0.2
v -0.9 0.1 -0.3
v -0.9 0.3 0.3
v -0.9 0.3 0.2
v -0.9 0.3 -0.2
v -0.9 0.3 -0.3
v -0.9 0.4 0.3
v -0.9 0.4 0.2
v -0.9 0.4 -0.2
v -0.9 0.4 -0.3
v -0.9 0.5 0.3
v -0.9 0.5 0.2
v -0.9 0.5 -0.2
v -0.9 0.5 -0.3
v 0.8 0 0.3
v 0.8 0 0.2
v 0.8 0 -0.2
v 0.8 0 -0.3
v 0.8 0.1 0.3
v 0.8 0.1 0.2
v 0.8 0.1 -0.2
v 0.8 0.1 -0.3
v 0.8 0.3 0.3
v 0.8 0.3 0.2
v 0.8 0.3 -0.2
v 0.8 0.3 -0.3
v -0.8 0 0.3
v -0.8 0 0.2
v -0.8 0 -0.2
v -0.8 0 -0.3
v -0.8 0.1 0.3
v -0.8 0.1 0.2
v -0.8 0.1 -0.2
v -0.8 0.1 -0.3
v -0.8 0.3 0.3
v -0.8 0.3 0.2
v -0.8 0.3 -0.2
v -0.8 0.3 -0.3
v 0.9 0 0.3
v 0.9 0 0.2
v 0.9 0 -0.2
v 0.9 0 -0.3
v 0.9 0.1 0.3
v 0.9 0.1 0.2
v 0.9 0.1 -0.2
v 0.9 0.1 -0.3
v 0.9 0.3 0.3
v 0.9 0.3 0.2
v 0.9 0.3 -0.2
v 0.9 0.3 -0.3
v 0.9 0.4 0.3
v 0.9 0.4 0.2
v 0.9 0.4 -0.2
v 0.9 0.4 -0.3
v 0.9 0.5 0.3
v 0.9 0.5 0.2
v 0.9 0.5 -0.2
v 0.9 0.5 -0.3
v 1 0.3 0.4
v 1 0.3 0.3
v 1 0.3 -0.3
v 1 0.3 -0.4
v 1 0.4 0.4
v 1 0.4 0.3
v 1 0.4 0.2
v 1 0.4 0.1
v 1 0.4 -0.1
v 1 0.4 -0.2
v 1 0.4 -0.3
v 1 0.4 -0.4
v 1 0.5 0.2
v 1 0.5 0.1
v 1 0.5 -0.1
v 1 0.5 -0.2
v 1.1 0.3 0.3
v 1.1 0.3 0.2
v 1.1 0.3 0.1
v 1.1 0.3 -0.1
v 1.1 0.3 -0.2
v 1.1 0.3 -0.3
v 1.1 0.4 0.3
v 1.1 0.4 0.2
v 1.1 0.4 0.1
v 1.1 0.4 -0.1
v 1.1 0.4 -0.2
v 1.1 0.4 -0.3
v -1 0.3 0.4
v -1 0.4 0.4
v -0.9 0.3 0.4
v -0.9 0.4 0.4
v -0.8 0.3 0.4
v -0.8 0.4 0.4
v -0.7 0.3 0.4
v -0.7 0.4 0.4
v 0.7 0.3 0.4
v 0.7 0.4 0.4
v 0.8 0.3 0.4
v 0.8 0.4 0.4
v 0.9 0.3 0.4
v 0.9 0.4 0.4
v 1 0.3 0.4
v 1 0.4 0.4
v -1.1 0.3 0.3
v -1.1 0.4 0.3
v -1 0.3 0.3
v -1 0.4 0.3
v -0.9 0 0.3
v -0.9 0.1 0.3
v -0.9 0.3 0.3
v -0.9 0.4 0.3
v -0.9 0.5 0.3
v -0.8 0 0.3
v -0.8 0.1 0.3
v -0.8 0.3 0.3
v -0.8 0.4 0.3
v -0.8 0.5 0.3
v -0.7 0.4 0.3
v -0.7 0.5 0.3
v 0.7 0.4 0.3
v 0.7 0.5 0.3
v 0.8 0 0.3
v 0.8 0.1 0.3
v 0.8 0.3 0.3
v 0.8 0.4 0.3
v 0.8 0.5 0.3
v 0.9 0 0.3
v 0.9 0.1 0.3
v 0.9 0.3 0.3
v 0.9 0.4 0.3
v 0.9 0.5 0.3
v 1 0.3 0.3
v 1 0.4 0.3
v 1.1 0.3 0.3
v 1.1 0.4 0.3
v -1 0.4 0.2
v -1 0.5 0.2
v -0.9 0.4 0.2
v -0.9 0.5 0.2
v 0.9 0.4 0.2
v 0.9 0.5 0.2
v 1 0.4 0.2
v 1 0.5 0.2
v -0.9 0 -0.2
v -0.9 0.1 -0.2
v -0.9 0.3 -0.2
v -0.8 0 -0.2
v -0.8 0.1 -0.2
v -0.8 0.3 -0.2
v 0.8 0 -0.2
v 0.8 0.1 -0.2
v 0.8 0.3 -0.2
v 0.9 0 -0.2
v 0.9 0.1 -0.2
v 0.9 0.3 -0.2
v -0.9 0 0.2
v -0.9 0.1 0.2
v -0.9 0.3 0.2
v -0.8 0 0.2
v -0.8 0.1 0.2
v -0.8 0.3 0.2
v 0.8 0 0.2
v 0.8 0.1 0.2
v 0.8 0.3 0.2
v 0.9 0 0.2
v 0.9 0.1 0.2
v 0.9 0.3 0.2
v -1 0.4 -0.2
v -1 0.5 -0.2
v -0.9 0.4 -0.2
v -0.9 0.5 -0.2
v 0.9 0.4 -0.2
v 0.9 0.5 -0.2
v 1 0.4 -0.2
v 1 0.5 -0.2
v -1.1 0.3 -0.3
v -1.1 0.4 -0.3
v -1 0.3 -0.3
v -1 0.4 -0.3
v -0.9 0 -0.3
v -0.9 0.1 -0.3
v -0.9 0.3 -0.3
v -0.9 0.4 -0.3
v -0.9 0.5 -0.3
v -0.8 0 -0.3
v -0.8 0.1 -0.3
v -0.8 0.3 -0.3
v -0.8 0.4 -0.3
v -0.8 0.5 -0.3
v -0.7 0.4 -0.3
v -0.7 0.5 -0.3
v 0.7 0.4 -0.3
v 0.7 0.5 -0.3
v 0.8 0 -0.3
v 0.8 0.1 -0.3
v 0.8 0.3 -0.3
v 0.8 0.4 -0.3
v 0.8 0.5 -0.3
v 0.9 0 -0.3
v 0.9 0.1 -0.3
v 0.9 0.3 -0.3
v 0.9 0.4 -0.3
v 0.9 0.5 -0.3
v 1 0.3 -0.3
v 1 0.4 -0.3
v 1.1 0.3 -0.3
v 1.1 0.4 -0.3
v -1 0.3 -0.4
v -1 0.4 -0.4
v -0.9 0.3 -0.4
v -0.9 0.4 -0.4
v -0.8 0.3 -0.4
v -0.8 0.4 -0.4
v -0.7 0.3 -0.4
v -0.7 0.4 -0.4
v 0.7 0.3 -0.4
v 0.7 0.4 -0.4
v 0.8 0.3 -0.4
v 0.8 0.4 -0.4
v 0.9 0.3 -0.4
v 0.9 0.4 -0.4
v 1 0.3 -0.4
v 1 0.4 -0.4
v -0.9 0 0.3
v -0.8 0 0.3
v 0.8 0 0.3
v 0.9 0 0.3
v -0.9 0 0.2
v -0.8 0 0.2
v 0.8 0 0.2
v 0.9 0 0.2
v -0.9 0 -0.2
v -0.8 0 -0.2
v 0.8 0 -0.2
v 0.9 0 -0.2
v -0.9 0 -0.3
v -0.8 0 -0.3
v 0.8 0 -0.3
v 0.9 0 -0.3
v -1 0.3 0.4
v -0.9 0.3 0.4
v -0.8 0.3 0.4
v -0.7 0.3 0.4
v 0.7 0.3 0.4
v 0.8 0.3 0.4
v 0.9 0.3 0.4
v 1 0.3 0.4
v -1.1 0.3 0.3
v -1 0.3 0.3
v -0.9 0.3 0.3
v -0.8 0.3 0.3
v -0.7 0.3 0.3
v 0.7 0.3 0.3
v 0.8 0.3 0.3
v 0.9 0.3 0.3
v 1 0.3 0.3
v 1.1 0.3 0.3
v -1.1 0.3 0.2
v -1 0.3 0.2
v -0.9 0.3 0.2
v -0.8 0.3 0.2
v 0.8 0.3 0.2
v 0.9 0.3 0.2
v 1 0.3 0.2
v 1.1 0.3 0.2
v -1.1 0.3 0.1
v -1 0.3 0.1
v 1 0.3 0.1
v 1.1 0.3 0.1
v -1.1 0.3 -0.1
v -1 0.3 -0.1
v 1 0.3 -0.1
v 1.1 0.3 -0.1
v -1.1 0.3 -0.2
v -1 0.3 -0.2
v -0.9 0.3 -0.2
v -0.8 0.3 -0.2
v 0.8 0.3 -0.2
v 0.9 0.3 -0.2
v 1 0.3 -0.2
v 1.1 0.3 -0.2
v -1.1 0.3 -0.3
v -1 0.3 -0.3
v -0.9 0.3 -0.3
v -0.8 0.3 -0.3
v -0.7 0.3 -0.3
v 0.7 0.3 -0.3
v 0.8 0.3 -0.3
v 0.9 0.3 -0.3
v 1 0.3 -0.3
v 1.1 0.3 -0.3
v -1 0.3 -0.4
v -0.9 0.3 -0.4
v -0.8 0.3 -0.4
v -0.7 0.3 -0.4
v 0.7 0.3 -0.4
v 0.8 0.3 -0.4
v 0.9 0.3 -0.4
v 1 0.3 -0.4
v -1 0.4 0.4
v -0.9 0.4 0.4
v -0.8 0.4 0.4
v -0.7 0.4 0.4
v 0.7 0.4 0.4
v 0.8 0.4 0.4
v 0.9 0.4 0.4
v 1 0.4 0.4
v -1.1 0.4 0.3
v -1 0.4 0.3
v -0.9 0.4 0.3
v -0.8 0.4 0.3
v -0.7 0.4 0.3
v 0.7 0.4 0.3
v 0.8 0.4 0.3
v 0.9 0.4 0.3
v 1 0.4 0.3
v 1.1 0.4 0.3
v -1.1 0.4 0.2
v -1 0.4 0.2
v -0.9 0.4 0.2
v 0.9 0.4 0.2
v 1 0.4 0.2
v 1.1 0.4 0.2
v -1.1 0.4 0.1
v -1 0.4 0.1
v 1 0.4 0.1
v 1.1 0.4 0.1
v -1.1 0.4 -0.1
v -1 0.4 -0.1
v 1 0.4 -0.1
v 1.1 0.4 -0.1
v -1.1 0.4 -0.2
v -1 0.4 -0.2
v -0.9 0.4 -0.2
v 0.9 0.4 -0.2
v 1 0.4 -0.2
v 1.1 0.4 -0.2
v -1.1 0.4 -0.3
v -1 0.4 -0.3
v -0.9 0.4 -0.3
v -0.8 0.4 -0.3
v -0.7 0.4 -0.3
v 0.7 0.4 -0.3
v 0.8 0.4 -0.3
v 0.9 0.4 -0.3
v 1 0.4 -0.3
v 1.1 0.4 -0.3
v -1 0.4 -0.4
v -0.9 0.4 -0.4
v -0.8 0.4 -0.4
v -0.7 0.4 -0.4
v 0.7 0.4 -0.4
v 0.8 0.4 -0.4
v 0.9 0.4 -0.4
v 1 0.4 -0.4
v -0.9 0.5 0.3
v -0.8 0.5 0.3
v -0.7 0.5 0.3
v 0.7 0.5 0.3
v 0.8 0.5 0.3
v 0.9 0.5 0.3
v -1 0.5 0.2
v -0.9 0.5 0.2
v -0.8 0.5 0.2
v -0.7 0.5 0.2
v 0.7 0.5 0.2
v 0.8 0.5 0.2
v 0.9 0.5 0.2
v 1 0.5 0.2
v -1 0.5 0.1
v -0.9 0.5 0.1
v -0.8 0.5 0.1
v 0.8 0.5 0.1
v 0.9 0.5 0.1
v 1 0.5 0.1
v -1 0.5 -0.1
v -0.9 0.5 -0.1
v -0.8 0.5 -0.1
v 0.8 0.5 -0.1
v 0.9 0.5 -0.1
v 1 0.5 -0.1
v -1 0.5 -0.2
v -0.9 0.5 -0.2
v -0.8 0.5 -0.2
v -0.7 0.5 -0.2
v 0.7 0.5 -0.2
v 0.8 0.5 -0.2
v 0.9 0.5 -0.2
v 1 0.5 -0.2
v -0.9 0.5 -0.3
v -0.8 0.5 -0.3
v -0.7 0.5 -0.3
v 0.7 0.5 -0.3
v 0.8 0.5 -0.3
v 0.9 0.5 -0.3

# faces
f 7/2/1 2/2/1 1/2/1
f 8/3/1 3/3/1 2/3/1
f 8/2/1 2/2/1 7/2/1
f 9/4/1 4/4/1 3/4/1
f 9/3/1 3/3/1 8/3/1
f 10/3/1 5/3/1 4/3/1
f 10/4/1 4/4/1 9/4/1
f 11/2/1 6/2/1 5/2/1
f 11/3/1 5/3/1 10/3/1
f 12/2/1 6/2/1 11/2/1
f 17/2/1 14/2/1 13/2/1
f 18/2/1 14/2/1 17/2/1
f 23/2/1 16/2/1 15/2/1
f 24/2/1 16/2/1 23/2/1
f 25/2/1 20/2/1 19/2/1
f 26/3/1 21/3/1 20/3/1
f 26/2/1 20/2/1 25/2/1
f 27/2/1 22/2/1 21/2/1
f 27/3/1 21/3/1 26/3/1
f 28/2/1 22/2/1 27/2/1
f 33/1/1 30/1/1 29/1/1
f 34/1/1 30/1/1 33/1/1
f 35/1/1 32/1/1 31/1/1
f 36/1/1 32/1/1 35/1/1
f 37/3/1 34/3/1 33/3/1
f 38/3/1 34/3/1 37/3/1
f 39/3/1 36/3/1 35/3/1
f 40/3/1 36/3/1 39/3/1
f 45/2/1 42/2/1 41/2/1
f 46/2/1 42/2/1 45/2/1
f 47/2/1 44/2/1 43/2/1
f 48/2/1 44/2/1 47/2/1
f 53/1/1 50/1/1 49/1/1
f 54/1/1 50/1/1 53/1/1
f 55/1/1 52/1/1 51/1/1
f 56/1/1 52/1/1 55/1/1
f 57/3/1 54/3/1 53/3/1
f 58/3/1 54/3/1 57/3/1
f 59/3/1 56/3/1 55/3/1
f 60/3/1 56/3/1 59/3/1
f 61/1/2 62/1/2 65/1/2
f 65/1/2 62/1/2 66/1/2
f 63/1/2 64/1/2 67/1/2
f 67/1/2 64/1/2 68/1/2
f 65/3/2 66/3/2 69/3/2
f 69/3/2 66/3/2 70/3/2
f 67/3/2 68/3/2 71/3/2
f 71/3/2 68/3/2 72/3/2
f 73/1/2 74/1/2 77/1/2
f 77/1/2 74/1/2 78/1/2
f 75/1/2 76/1/2 79/1/2
f 79/1/2 76/1/2 80/1/2
f 77/3/2 78/3/2 81/3/2
f 81/3/2 78/3/2 82/3/2
f 79/3/2 80/3/2 83/3/2
f 83/3/2 80/3/2 84/3/2
f 85/2/2 86/2/2 89/2/2
f 89/2/2 86/2/2 90/2/2
f 87/2/2 88/2/2 91/2/2
f 91/2/2 88/2/2 92/2/2
f 93/2/2 94/2/2 97/2/2
f 97/2/2 94/2/2 98/2/2
f 95/2/2 96/2/2 103/2/2
f 103/2/2 96/2/2 104/2/2
f 99/2/2 100/2/2 105/2/2
f 100/3/2 101/3/2 106/3/2
f 105/2/2 100/2/2 106/2/2
f 101/2/2 102/2/2 107/2/2
f 106/3/2 101/3/2 107/3/2
f 107/2/2 102/2/2 108/2/2
f 109/2/2 110/2/2 115/2/2
f 110/3/2 111/3/2 116/3/2
f 115/2/2 110/2/2 116/2/2
f 111/4/2 112/4/2 117/4/2
f 116/3/2 111/3/2 117/3/2
f 112/3/2 113/3/2 118/3/2
f 117/4/2 112/4/2 118/4/2
f 113/2/2 114/2/2 119/2/2
f 118/3/2 113/3/2 119/3/2
f 119/2/2 114/2/2 120/2/2
f 123/2/3 122/2/3 121/2/3
f 124/2/3 122/2/3 123/2/3
f 125/3/3 124/3/3 123/3/3
f 126/3/3 124/3/3 125/3/3
f 127/4/3 126/4/3 125/4/3
f 128/4/3 126/4/3 127/4/3
f 129/5/3 128/5/3 127/5/3
f 130/5/3 128/5/3 129/5/3
f 131/4/3 130/4/3 129/4/3
f 132/4/3 130/4/3 131/4/3
f 133/3/3 132/3/3 131/3/3
f 134/3/3 132/3/3 133/3/3
f 135/2/3 134/2/3 133/2/3
f 136/2/3 134/2/3 135/2/3
f 139/2/3 138/2/3 137/2/3
f 140/2/3 138/2/3 139/2/3
f 146/1/3 142/1/3 141/1/3
f 147/3/3 143/3/3 142/3/3
f 147/1/3 142/1/3 146/1/3
f 148/3/3 143/3/3 147/3/3
f 149/2/3 145/2/3 144/2/3
f 150/2/3 145/2/3 149/2/3
f 151/3/3 150/3/3 149/3/3
f 152/3/3 150/3/3 151/3/3
f 153/4/3 152/4/3 151/4/3
f 154/4/3 152/4/3 153/4/3
f 158/3/3 154/3/3 153/3/3
f 159/3/3 154/3/3 158/3/3
f 160/1/3 156/1/3 155/1/3
f 161/3/3 157/3/3 156/3/3
f 161/1/3 156/1/3 160/1/3
f 162/3/3 157/3/3 161/3/3
f 163/2/3 159/2/3 158/2/3
f 164/2/3 159/2/3 163/2/3
f 167/2/3 166/2/3 165/2/3
f 168/2/3 166/2/3 167/2/3
f 171/2/3 170/2/3 169/2/3
f 172/2/3 170/2/3 171/2/3
f 175/2/3 174/2/3 173/2/3
f 176/2/3 174/2/3 175/2/3
f 180/1/3 178/1/3 177/1/3
f 181/3/3 179/3/3 178/3/3
f 181/1/3 178/1/3 180/1/3
f 182/3/3 179/3/3 181/3/3
f 186/1/3 184/1/3 183/1/3
f 187/3/3 185/3/3 184/3/3
f 187/1/3 184/1/3 186/1/3
f 188/3/3 185/3/3 187/3/3
f 189/1/4 190/1/4 192/1/4
f 190/3/4 191/3/4 193/3/4
f 192/1/4 190/1/4 193/1/4
f 193/3/4 191/3/4 194/3/4
f 195/1/4 196/1/4 198/1/4
f 196/3/4 197/3/4 199/3/4
f 198/1/4 196/1/4 199/1/4
f 199/3/4 197/3/4 200/3/4
f 201/2/4 202/2/4 203/2/4
f 203/2/4 202/2/4 204/2/4
f 205/2/4 206/2/4 207/2/4
f 207/2/4 206/2/4 208/2/4
f 209/2/4 210/2/4 211/2/4
f 211/2/4 210/2/4 212/2/4
f 213/1/4 214/1/4 218/1/4
f 214/3/4 215/3/4 219/3/4
f 218/1/4 214/1/4 219/1/4
f 219/3/4 215/3/4 220/3/4
f 216/2/4 217/2/4 221/2/4
f 221/2/4 217/2/4 222/2/4
f 221/3/4 222/3/4 223/3/4
f 223/3/4 222/3/4 224/3/4
f 223/4/4 224/4/4 225/4/4
f 225/4/4 224/4/4 226/4/4
f 225/3/4 226/3/4 230/3/4
f 230/3/4 226/3/4 231/3/4
f 227/1/4 228/1/4 232/1/4
f 228/3/4 229/3/4 233/3/4
f 232/1/4 228/1/4 233/1/4
f 233/3/4 229/3/4 234/3/4
f 230/2/4 231/2/4 235/2/4
f 235/2/4 231/2/4 236/2/4
f 237/2/4 238/2/4 239/2/4
f 239/2/4 238/2/4 240/2/4
f 241/2/4 242/2/4 243/2/4
f 243/2/4 242/2/4 244/2/4
f 243/3/4 244/3/4 245/3/4
f 245/3/4 244/3/4 246/3/4
f 245/4/4 246/4/4 247/4/4
f 247/4/4 246/4/4 248/4/4
f 247/5/4 248/5/4 249/5/4
f 249/5/4 248/5/4 250/5/4
f 249/4/4 250/4/4 251/4/4
f 251/4/4 250/4/4 252/4/4
f 251/3/4 252/3/4 253/3/4
f 253/3/4 252/3/4 254/3/4
f 253/2/4 254/2/4 255/2/4
f 255/2/4 254/2/4 256/2/4
f 261/1/5 258/1/5 257/1/5
f 262/1/5 258/1/5 261/1/5
f 263/1/5 260/1/5 259/1/5
f 264/1/5 260/1/5 263/1/5
f 269/1/5 266/1/5 265/1/5
f 270/1/5 266/1/5 269/1/5
f 271/1/5 268/1/5 267/1/5
f 272/1/5 268/1/5 271/1/5
f 282/2/5 274/2/5 273/2/5
f 283/3/5 275/3/5 274/3/5
f 283/2/5 274/2/5 282/2/5
f 284/4/5 276/4/5 275/4/5
f 284/3/5 275/3/5 283/3/5
f 285/5/5 277/5/5 276/5/5
f 285/4/5 276/4/5 284/4/5
f 286/4/5 278/4/5 277/4/5
f 286/5/5 277/5/5 285/5/5
f 287/3/5 279/3/5 278/3/5
f 287/4/5 278/4/5 286/4/5
f 288/2/5 280/2/5 279/2/5
f 288/3/5 279/3/5 287/3/5
f 289/2/5 280/2/5 288/2/5
f 291/2/5 282/2/5 281/2/5
f 292/3/5 283/3/5 282/3/5
f 292/2/5 282/2/5 291/2/5
f 293/3/5 283/3/5 292/3/5
f 294/4/5 287/4/5 286/4/5
f 294/4/5 285/4/5 284/4/5
f 294/4/5 286/4/5 285/4/5
f 295/4/5 287/4/5 294/4/5
f 296/3/5 289/3/5 288/3/5
f 297/2/5 290/2/5 289/2/5
f 297/3/5 289/3/5 296/3/5
f 298/2/5 290/2/5 297/2/5
f 299/3/5 292/3/5 291/3/5
f 300/4/5 293/4/5 292/4/5
f 300/3/5 292/3/5 299/3/5
f 300/4/5 296/4/5 295/4/5
f 300/4/5 295/4/5 294/4/5
f 300/4/5 297/4/5 296/4/5
f 300/4/5 294/4/5 293/4/5
f 301/3/5 298/3/5 297/3/5
f 301/4/5 297/4/5 300/4/5
f 302/3/5 298/3/5 301/3/5
f 303/4/5 300/4/5 299/4/5
f 303/4/5 301/4/5 300/4/5
f 303/4/5 302/4/5 301/4/5
f 304/4/5 302/4/5 303/4/5
f 305/4/5 302/4/5 304/4/5
f 306/4/5 302/4/5 305/4/5
f 307/3/5 304/3/5 303/3/5
f 308/4/5 305/4/5 304/4/5
f 308/3/5 304/3/5 307/3/5
f 309/4/5 305/4/5 308/4/5
f 310/4/5 305/4/5 309/4/5
f 311/4/5 305/4/5 310/4/5
f 312/4/5 305/4/5 311/4/5
f 313/3/5 306/3/5 305/3/5
f 313/4/5 305/4/5 312/4/5
f 314/3/5 306/3/5 313/3/5
f 315/2/5 308/2/5 307/2/5
f 316/3/5 309/3/5 308/3/5
f 316/2/5 308/2/5 315/2/5
f 317/3/5 309/3/5 316/3/5
f 318/4/5 311/4/5 310/4/5
f 319/4/5 311/4/5 318/4/5
f 320/4/5 311/4/5 319/4/5
f 321/4/5 311/4/5 320/4/5
f 322/3/5 313/3/5 312/3/5
f 323/2/5 314/2/5 313/2/5
f 323/3/5 313/3/5 322/3/5
f 324/2/5 314/2/5 323/2/5
f 325/2/5 317/2/5 316/2/5
f 326/3/5 318/3/5 317/3/5
f 326/2/5 317/2/5 325/2/5
f 327/4/5 319/4/5 318/4/5
f 327/3/5 318/3/5 326/3/5
f 328/5/5 320/5/5 319/5/5
f 328/4/5 319/4/5 327/4/5
f 329/4/5 321/4/5 320/4/5
f 329/5/5 320/5/5 328/5/5
f 330/3/5 322/3/5 321/3/5
f 330/4/5 321/4/5 329/4/5
f 331/2/5 323/2/5 322/2/5
f 331/3/5 322/3/5 330/3/5
f 332/2/5 323/2/5 331/2/5
f 333/2/6 334/2/6 342/2/6
f 334/3/6 335/3/6 343/3/6
f 342/2/6 334/2/6 343/2/6
f 335/4/6 336/4/6 344/4/6
f 343/3/6 335/3/6 344/3/6
f 336/5/6 337/5/6 345/5/6
f 344/4/6 336/4/6 345/4/6
f 337/4/6 338/4/6 346/4/6
f 345/5/6 337/5/6 346/5/6
f 338/3/6 339/3/6 347/3/6
f 346/4/6 338/4/6 347/4/6
f 339/2/6 340/2/6 348/2/6
f 347/3/6 339/3/6 348/3/6
f 348/2/6 340/2/6 349/2/6
f 341/2/6 342/2/6 351/2/6
f 342/3/6 343/3/6 352/3/6
f 351/2/6 342/2/6 352/2/6
f 352/3/6 343/3/6 353/3/6
f 348/3/6 349/3/6 354/3/6
f 349/2/6 350/2/6 355/2/6
f 354/3/6 349/3/6 355/3/6
f 355/2/6 350/2/6 356/2/6
f 351/3/6 352/3/6 357/3/6
f 357/3/6 352/3/6 358/3/6
f 355/3/6 356/3/6 359/3/6
f 359/3/6 356/3/6 360/3/6
f 357/4/6 358/4/6 361/4/6
f 361/4/6 358/4/6 362/4/6
f 359/4/6 360/4/6 363/4/6
f 363/4/6 360/4/6 364/4/6
f 361/3/6 362/3/6 365/3/6
f 365/3/6 362/3/6 366/3/6
f 363/3/6 364/3/6 369/3/6
f 369/3/6 364/3/6 370/3/6
f 365/2/6 366/2/6 371/2/6
f 366/3/6 367/3/6 372/3/6
f 371/2/6 366/2/6 372/2/6
f 372/3/6 367/3/6 373/3/6
f 368/3/6 369/3/6 378/3/6
f 369/2/6 370/2/6 379/2/6
f 378/3/6 369/3/6 379/3/6
f 379/2/6 370/2/6 380/2/6
f 372/2/6 373/2/6 381/2/6
f 373/3/6 374/3/6 382/3/6
f 381/2/6 373/2/6 382/2/6
f 374/4/6 375/4/6 383/4/6
f 382/3/6 374/3/6 383/3/6
f 375/5/6 376/5/6 384/5/6
f 383/4/6 375/4/6 384/4/6
f 376/4/6 377/4/6 385/4/6
f 384/5/6 376/5/6 385/5/6
f 377/3/6 378/3/6 386/3/6
f 385/4/6 377/4/6 386/4/6
f 378/2/6 379/2/6 387/2/6
f 386/3/6 378/3/6 387/3/6
f 387/2/6 379/2/6 388/2/6
f 389/2/6 390/2/6 396/2/6
f 390/3/6 391/3/6 397/3/6
f 396/2/6 390/2/6 397/2/6
f 391/4/6 392/4/6 398/4/6
f 397/3/6 391/3/6 398/3/6
f 392/3/6 393/3/6 399/3/6
f 398/4/6 392/4/6 399/4/6
f 393/2/6 394/2/6 400/2/6
f 399/3/6 393/3/6 400/3/6
f 400/2/6 394/2/6 401/2/6
f 395/2/6 396/2/6 403/2/6
f 396/3/6 397/3/6 404/3/6
f 403/2/6 396/2/6 404/2/6
f 398/4/6 399/4/6 405/4/6
f 404/3/6 397/3/6 405/3/6
f 397/4/6 398/4/6 405/4/6
f 399/4/6 400/4/6 405/4/6
f 400/3/6 401/3/6 406/3/6
f 405/4/6 400/4/6 406/4/6
f 401/2/6 402/2/6 407/2/6
f 406/3/6 401/3/6 407/3/6
f 407/2/6 402/2/6 408/2/6
f 403/3/6 404/3/6 409/3/6
f 405/4/6 406/4/6 410/4/6
f 409/3/6 404/3/6 410/3/6
f 404/4/6 405/4/6 410/4/6
f 406/4/6 407/4/6 410/4/6
f 410/4/6 407/4/6 411/4/6
f 411/4/6 407/4/6 412/4/6
f 407/3/6 408/3/6 413/3/6
f 412/4/6 407/4/6 413/4/6
f 413/3/6 408/3/6 414/3/6
f 409/2/6 410/2/6 415/2/6
f 410/3/6 411/3/6 416/3/6
f 415/2/6 410/2/6 416/2/6
f 411/4/6 412/4/6 417/4/6
f 416/3/6 411/3/6 417/3/6
f 417/4/6 412/4/6 418/4/6
f 418/4/6 412/4/6 419/4/6
f 412/3/6 413/3/6 420/3/6
f 419/4/6 412/4/6 420/4/6
f 413/2/6 414/2/6 421/2/6
f 420/3/6 413/3/6 421/3/6
f 421/2/6 414/2/6 422/2/6
f 416/2/6 417/2/6 423/2/6
f 417/3/6 418/3/6 424/3/6
f 423/2/6 417/2/6 424/2/6
f 418/4/6 419/4/6 425/4/6
f 424/3/6 418/3/6 425/3/6
f 419/3/6 420/3/6 426/3/6
f 425/4/6 419/4/6 426/4/6
f 420/2/6 421/2/6 427/2/6
f 426/3/6 420/3/6 427/3/6
f 427/2/6 421/2/6 428/2/6
