# MagicaVoxel @ Ephtracy

# group
o 

# material
mtllib Interior_Furniture_Table_Long_Type03_3x1.mtl
usemtl palette

# normals
vn -1 0 0
vn 1 0 0
vn 0 0 1
vn 0 0 -1
vn 0 -1 0
vn 0 1 0

# texcoords
vt 0.876953 0.5
vt 0.880859 0.5
vt 0.884766 0.5
vt 0.888672 0.5
vt 0.892578 0.5

# verts
v -2.4 0.9 0.5
v -2.4 0.9 0.4
v -2.4 0.9 0.3
v -2.4 0.9 -0.3
v -2.4 0.9 -0.4
v -2.4 0.9 -0.5
v -2.4 1 0.5
v -2.4 1 0.4
v -2.4 1 0.3
v -2.4 1 -0.3
v -2.4 1 -0.4
v -2.4 1 -0.5
v -2.3 0.8 0.5
v -2.3 0.8 -0.4
v -2.3 0.9 0.6
v -2.3 0.9 0.5
v -2.3 0.9 0.4
v -2.3 0.9 0.3
v -2.3 0.9 -0.3
v -2.3 0.9 -0.4
v -2.3 0.9 -0.5
v -2.3 0.9 -0.6
v -2.3 1 0.6
v -2.3 1 0.5
v -2.3 1 0.4
v -2.3 1 0.3
v -2.3 1 0.2
v -2.3 1 -0.2
v -2.3 1 -0.3
v -2.3 1 -0.4
v -2.3 1 -0.5
v -2.3 1 -0.6
v -2.3 1.1 0.4
v -2.3 1.1 0.3
v -2.3 1.1 0.2
v -2.3 1.1 -0.2
v -2.3 1.1 -0.3
v -2.3 1.1 -0.4
v -2.2 0 0.4
v -2.2 0 0.3
v -2.2 0 -0.3
v -2.2 0 -0.4
v -2.2 0.1 0.4
v -2.2 0.1 0.3
v -2.2 0.1 -0.3
v -2.2 0.1 -0.4
v -2.2 0.2 0.3
v -2.2 0.2 -0.3
v -2.2 0.3 0.3
v -2.2 0.3 -0.3
v -2.2 0.8 0.4
v -2.2 0.8 0.3
v -2.2 0.8 -0.3
v -2.2 0.8 -0.4
v -2.2 0.8 -0.5
v -2.2 0.9 -0.4
v -2.2 0.9 -0.5
v -2.2 1 0.5
v -2.2 1 0.4
v -2.2 1 -0.4
v -2.2 1 -0.5
v -2.2 1.1 0.5
v -2.2 1.1 0.4
v -2.2 1.1 -0.4
v -2.2 1.1 -0.5
v 2.1 0 0.4
v 2.1 0 0.3
v 2.1 0 -0.3
v 2.1 0 -0.4
v 2.1 0.1 0.4
v 2.1 0.1 0.3
v 2.1 0.1 -0.3
v 2.1 0.1 -0.4
v 2.1 0.2 0.3
v 2.1 0.2 0.1
v 2.1 0.2 -0.1
v 2.1 0.2 -0.3
v 2.1 0.3 0.3
v 2.1 0.3 0.1
v 2.1 0.3 -0.1
v 2.1 0.3 -0.3
v 2.1 0.8 0.4
v 2.1 0.8 0.3
v 2.1 0.8 -0.3
v 2.1 0.8 -0.4
v -2.1 0 0.4
v -2.1 0 0.3
v -2.1 0 -0.3
v -2.1 0 -0.4
v -2.1 0.1 0.4
v -2.1 0.1 0.3
v -2.1 0.1 -0.3
v -2.1 0.1 -0.4
v -2.1 0.2 0.3
v -2.1 0.2 0.1
v -2.1 0.2 -0.1
v -2.1 0.2 -0.3
v -2.1 0.3 0.3
v -2.1 0.3 0.1
v -2.1 0.3 -0.1
v -2.1 0.3 -0.3
v -2.1 0.8 0.4
v -2.1 0.8 0.3
v -2.1 0.8 -0.3
v -2.1 0.8 -0.4
v 2.2 0 0.4
v 2.2 0 0.3
v 2.2 0 -0.3
v 2.2 0 -0.4
v 2.2 0.1 0.4
v 2.2 0.1 0.3
v 2.2 0.1 -0.3
v 2.2 0.1 -0.4
v 2.2 0.2 0.3
v 2.2 0.2 -0.3
v 2.2 0.3 0.3
v 2.2 0.3 -0.3
v 2.2 0.8 0.4
v 2.2 0.8 0.3
v 2.2 0.8 -0.3
v 2.2 0.8 -0.4
v 2.2 0.8 -0.5
v 2.2 0.9 -0.4
v 2.2 0.9 -0.5
v 2.2 1 0.5
v 2.2 1 0.4
v 2.2 1 -0.4
v 2.2 1 -0.5
v 2.2 1.1 0.5
v 2.2 1.1 0.4
v 2.2 1.1 -0.4
v 2.2 1.1 -0.5
v 2.3 0.8 0.5
v 2.3 0.8 -0.4
v 2.3 0.9 0.6
v 2.3 0.9 0.5
v 2.3 0.9 0.4
v 2.3 0.9 0.3
v 2.3 0.9 -0.3
v 2.3 0.9 -0.4
v 2.3 0.9 -0.5
v 2.3 0.9 -0.6
v 2.3 1 0.6
v 2.3 1 0.5
v 2.3 1 0.4
v 2.3 1 0.3
v 2.3 1 0.2
v 2.3 1 -0.2
v 2.3 1 -0.3
v 2.3 1 -0.4
v 2.3 1 -0.5
v 2.3 1 -0.6
v 2.3 1.1 0.4
v 2.3 1.1 0.3
v 2.3 1.1 0.2
v 2.3 1.1 -0.2
v 2.3 1.1 -0.3
v 2.3 1.1 -0.4
v 2.4 0.9 0.5
v 2.4 0.9 0.4
v 2.4 0.9 0.3
v 2.4 0.9 -0.3
v 2.4 0.9 -0.4
v 2.4 0.9 -0.5
v 2.4 1 0.5
v 2.4 1 0.4
v 2.4 1 0.3
v 2.4 1 -0.3
v 2.4 1 -0.4
v 2.4 1 -0.5
v -2.3 0.9 0.6
v -2.3 1 0.6
v -2.2 0.9 0.6
v -2.2 1 0.6
v -2.1 0.9 0.6
v -2.1 1 0.6
v 2.1 0.9 0.6
v 2.1 1 0.6
v 2.2 0.9 0.6
v 2.2 1 0.6
v 2.3 0.9 0.6
v 2.3 1 0.6
v -2.4 0.9 0.5
v -2.4 1 0.5
v -2.3 0.8 0.5
v -2.3 0.9 0.5
v -2.3 1 0.5
v -2.2 0.9 0.5
v -2.2 1 0.5
v -2.2 1.1 0.5
v -2.1 0.9 0.5
v -2.1 1 0.5
v -2.1 1.1 0.5
v -2 1 0.5
v -2 1.1 0.5
v 2 1 0.5
v 2 1.1 0.5
v 2.1 0.9 0.5
v 2.1 1 0.5
v 2.1 1.1 0.5
v 2.2 0.9 0.5
v 2.2 1 0.5
v 2.2 1.1 0.5
v 2.3 0.8 0.5
v 2.3 0.9 0.5
v 2.3 1 0.5
v 2.4 0.9 0.5
v 2.4 1 0.5
v -2.3 1 0.4
v -2.3 1.1 0.4
v -2.2 0 0.4
v -2.2 0.1 0.4
v -2.2 0.8 0.4
v -2.2 1 0.4
v -2.2 1.1 0.4
v -2.1 0 0.4
v -2.1 0.1 0.4
v -2.1 0.8 0.4
v 2.1 0 0.4
v 2.1 0.1 0.4
v 2.1 0.8 0.4
v 2.2 0 0.4
v 2.2 0.1 0.4
v 2.2 0.8 0.4
v 2.2 1 0.4
v 2.2 1.1 0.4
v 2.3 1 0.4
v 2.3 1.1 0.4
v -2.1 0.2 0.1
v -2.1 0.3 0.1
v 2.1 0.2 0.1
v 2.1 0.3 0.1
v -2.2 0 -0.3
v -2.2 0.1 -0.3
v -2.2 0.2 -0.3
v -2.2 0.3 -0.3
v -2.2 0.8 -0.3
v -2.1 0 -0.3
v -2.1 0.1 -0.3
v -2.1 0.2 -0.3
v -2.1 0.3 -0.3
v -2.1 0.8 -0.3
v 2.1 0 -0.3
v 2.1 0.1 -0.3
v 2.1 0.2 -0.3
v 2.1 0.3 -0.3
v 2.1 0.8 -0.3
v 2.2 0 -0.3
v 2.2 0.1 -0.3
v 2.2 0.2 -0.3
v 2.2 0.3 -0.3
v 2.2 0.8 -0.3
v -2.2 0 0.3
v -2.2 0.1 0.3
v -2.2 0.2 0.3
v -2.2 0.3 0.3
v -2.2 0.8 0.3
v -2.1 0 0.3
v -2.1 0.1 0.3
v -2.1 0.2 0.3
v -2.1 0.3 0.3
v -2.1 0.8 0.3
v 2.1 0 0.3
v 2.1 0.1 0.3
v 2.1 0.2 0.3
v 2.1 0.3 0.3
v 2.1 0.8 0.3
v 2.2 0 0.3
v 2.2 0.1 0.3
v 2.2 0.2 0.3
v 2.2 0.3 0.3
v 2.2 0.8 0.3
v -2.1 0.2 -0.1
v -2.1 0.3 -0.1
v 2.1 0.2 -0.1
v 2.1 0.3 -0.1
v -2.3 0.8 -0.4
v -2.3 0.9 -0.4
v -2.3 1 -0.4
v -2.3 1.1 -0.4
v -2.2 0 -0.4
v -2.2 0.1 -0.4
v -2.2 0.8 -0.4
v -2.2 0.9 -0.4
v -2.2 1 -0.4
v -2.2 1.1 -0.4
v -2.1 0 -0.4
v -2.1 0.1 -0.4
v -2.1 0.8 -0.4
v 2.1 0 -0.4
v 2.1 0.1 -0.4
v 2.1 0.8 -0.4
v 2.2 0 -0.4
v 2.2 0.1 -0.4
v 2.2 0.8 -0.4
v 2.2 0.9 -0.4
v 2.2 1 -0.4
v 2.2 1.1 -0.4
v 2.3 0.8 -0.4
v 2.3 0.9 -0.4
v 2.3 1 -0.4
v 2.3 1.1 -0.4
v -2.4 0.9 -0.5
v -2.4 1 -0.5
v -2.3 0.9 -0.5
v -2.3 1 -0.5
v -2.2 0.8 -0.5
v -2.2 0.9 -0.5
v -2.2 1 -0.5
v -2.2 1.1 -0.5
v -2.1 0.9 -0.5
v -2.1 1 -0.5
v -2.1 1.1 -0.5
v -2 1 -0.5
v -2 1.1 -0.5
v 2 1 -0.5
v 2 1.1 -0.5
v 2.1 0.9 -0.5
v 2.1 1 -0.5
v 2.1 1.1 -0.5
v 2.2 0.8 -0.5
v 2.2 0.9 -0.5
v 2.2 1 -0.5
v 2.2 1.1 -0.5
v 2.3 0.9 -0.5
v 2.3 1 -0.5
v 2.4 0.9 -0.5
v 2.4 1 -0.5
v -2.3 0.9 -0.6
v -2.3 1 -0.6
v -2.2 0.9 -0.6
v -2.2 1 -0.6
v -2.1 0.9 -0.6
v -2.1 1 -0.6
v 2.1 0.9 -0.6
v 2.1 1 -0.6
v 2.2 0.9 -0.6
v 2.2 1 -0.6
v 2.3 0.9 -0.6
v 2.3 1 -0.6
v -2.2 0 0.4
v -2.1 0 0.4
v 2.1 0 0.4
v 2.2 0 0.4
v -2.2 0 0.3
v -2.1 0 0.3
v 2.1 0 0.3
v 2.2 0 0.3
v -2.2 0 -0.3
v -2.1 0 -0.3
v 2.1 0 -0.3
v 2.2 0 -0.3
v -2.2 0 -0.4
v -2.1 0 -0.4
v 2.1 0 -0.4
v 2.2 0 -0.4
v -2.2 0.2 0.3
v -2.1 0.2 0.3
v 2.1 0.2 0.3
v 2.2 0.2 0.3
v -2.1 0.2 0.1
v 2.1 0.2 0.1
v -2.1 0.2 -0.1
v 2.1 0.2 -0.1
v -2.2 0.2 -0.3
v -2.1 0.2 -0.3
v 2.1 0.2 -0.3
v 2.2 0.2 -0.3
v -2.3 0.8 0.5
v 2.3 0.8 0.5
v -2.2 0.8 0.4
v -2.1 0.8 0.4
v 2.1 0.8 0.4
v 2.2 0.8 0.4
v -2.2 0.8 0.3
v -2.1 0.8 0.3
v 2.1 0.8 0.3
v 2.2 0.8 0.3
v -2.2 0.8 -0.3
v -2.1 0.8 -0.3
v 2.1 0.8 -0.3
v 2.2 0.8 -0.3
v -2.3 0.8 -0.4
v -2.2 0.8 -0.4
v -2.1 0.8 -0.4
v 2.1 0.8 -0.4
v 2.2 0.8 -0.4
v 2.3 0.8 -0.4
v -2.2 0.8 -0.5
v 2.2 0.8 -0.5
v -2.3 0.9 0.6
v -2.2 0.9 0.6
v -2.1 0.9 0.6
v 2.1 0.9 0.6
v 2.2 0.9 0.6
v 2.3 0.9 0.6
v -2.4 0.9 0.5
v -2.3 0.9 0.5
v -2.2 0.9 0.5
v -2.1 0.9 0.5
v 2.1 0.9 0.5
v 2.2 0.9 0.5
v 2.3 0.9 0.5
v 2.4 0.9 0.5
v -2.4 0.9 0.4
v -2.3 0.9 0.4
v 2.3 0.9 0.4
v 2.4 0.9 0.4
v -2.4 0.9 0.3
v -2.3 0.9 0.3
v 2.3 0.9 0.3
v 2.4 0.9 0.3
v -2.4 0.9 -0.3
v -2.3 0.9 -0.3
v 2.3 0.9 -0.3
v 2.4 0.9 -0.3
v -2.4 0.9 -0.4
v -2.3 0.9 -0.4
v -2.2 0.9 -0.4
v 2.2 0.9 -0.4
v 2.3 0.9 -0.4
v 2.4 0.9 -0.4
v -2.4 0.9 -0.5
v -2.3 0.9 -0.5
v -2.2 0.9 -0.5
v -2.1 0.9 -0.5
v 2.1 0.9 -0.5
v 2.2 0.9 -0.5
v 2.3 0.9 -0.5
v 2.4 0.9 -0.5
v -2.3 0.9 -0.6
v -2.2 0.9 -0.6
v -2.1 0.9 -0.6
v 2.1 0.9 -0.6
v 2.2 0.9 -0.6
v 2.3 0.9 -0.6
v -2.2 0.3 0.3
v -2.1 0.3 0.3
v 2.1 0.3 0.3
v 2.2 0.3 0.3
v -2.1 0.3 0.1
v 2.1 0.3 0.1
v -2.1 0.3 -0.1
v 2.1 0.3 -0.1
v -2.2 0.3 -0.3
v -2.1 0.3 -0.3
v 2.1 0.3 -0.3
v 2.2 0.3 -0.3
v -2.3 1 0.6
v -2.2 1 0.6
v -2.1 1 0.6
v 2.1 1 0.6
v 2.2 1 0.6
v 2.3 1 0.6
v -2.4 1 0.5
v -2.3 1 0.5
v -2.2 1 0.5
v -2.1 1 0.5
v -2 1 0.5
v 2 1 0.5
v 2.1 1 0.5
v 2.2 1 0.5
v 2.3 1 0.5
v 2.4 1 0.5
v -2.4 1 0.4
v -2.3 1 0.4
v -2.2 1 0.4
v 2.2 1 0.4
v 2.3 1 0.4
v 2.4 1 0.4
v -2.4 1 0.3
v -2.3 1 0.3
v 2.3 1 0.3
v 2.4 1 0.3
v -2.3 1 0.2
v 2.3 1 0.2
v -2.3 1 -0.2
v 2.3 1 -0.2
v -2.4 1 -0.3
v -2.3 1 -0.3
v 2.3 1 -0.3
v 2.4 1 -0.3
v -2.4 1 -0.4
v -2.3 1 -0.4
v -2.2 1 -0.4
v 2.2 1 -0.4
v 2.3 1 -0.4
v 2.4 1 -0.4
v -2.4 1 -0.5
v -2.3 1 -0.5
v -2.2 1 -0.5
v -2.1 1 -0.5
v -2 1 -0.5
v 2 1 -0.5
v 2.1 1 -0.5
v 2.2 1 -0.5
v 2.3 1 -0.5
v 2.4 1 -0.5
v -2.3 1 -0.6
v -2.2 1 -0.6
v -2.1 1 -0.6
v 2.1 1 -0.6
v 2.2 1 -0.6
v 2.3 1 -0.6
v -2.2 1.1 0.5
v -2.1 1.1 0.5
v -2 1.1 0.5
v 2 1.1 0.5
v 2.1 1.1 0.5
v 2.2 1.1 0.5
v -2.3 1.1 0.4
v -2.2 1.1 0.4
v -2.1 1.1 0.4
v -2 1.1 0.4
v 2 1.1 0.4
v 2.1 1.1 0.4
v 2.2 1.1 0.4
v 2.3 1.1 0.4
v -2.3 1.1 0.3
v -2.2 1.1 0.3
v -2.1 1.1 0.3
v 2.1 1.1 0.3
v 2.2 1.1 0.3
v 2.3 1.1 0.3
v -2.3 1.1 0.2
v -2.2 1.1 0.2
v 2.2 1.1 0.2
v 2.3 1.1 0.2
v -2.3 1.1 -0.2
v -2.2 1.1 -0.2
v 2.2 1.1 -0.2
v 2.3 1.1 -0.2
v -2.3 1.1 -0.3
v -2.2 1.1 -0.3
v -2.1 1.1 -0.3
v 2.1 1.1 -0.3
v 2.2 1.1 -0.3
v 2.3 1.1 -0.3
v -2.3 1.1 -0.4
v -2.2 1.1 -0.4
v -2.1 1.1 -0.4
v -2 1.1 -0.4
v 2 1.1 -0.4
v 2.1 1.1 -0.4
v 2.2 1.1 -0.4
v 2.3 1.1 -0.4
v -2.2 1.1 -0.5
v -2.1 1.1 -0.5
v -2 1.1 -0.5
v 2 1.1 -0.5
v 2.1 1.1 -0.5
v 2.2 1.1 -0.5

# faces
f 7/3/1 2/3/1 1/3/1
f 8/4/1 3/4/1 2/4/1
f 8/3/1 2/3/1 7/3/1
f 9/5/1 4/5/1 3/5/1
f 9/4/1 3/4/1 8/4/1
f 10/4/1 5/4/1 4/4/1
f 10/5/1 4/5/1 9/5/1
f 11/3/1 6/3/1 5/3/1
f 11/4/1 5/4/1 10/4/1
f 12/3/1 6/3/1 11/3/1
f 16/4/1 14/4/1 13/4/1
f 17/4/1 14/4/1 16/4/1
f 18/4/1 14/4/1 17/4/1
f 19/4/1 14/4/1 18/4/1
f 20/4/1 14/4/1 19/4/1
f 23/3/1 16/3/1 15/3/1
f 24/3/1 16/3/1 23/3/1
f 31/3/1 22/3/1 21/3/1
f 32/3/1 22/3/1 31/3/1
f 33/2/1 26/2/1 25/2/1
f 34/3/1 27/3/1 26/3/1
f 34/2/1 26/2/1 33/2/1
f 35/4/1 28/4/1 27/4/1
f 35/3/1 27/3/1 34/3/1
f 36/3/1 29/3/1 28/3/1
f 36/4/1 28/4/1 35/4/1
f 37/2/1 30/2/1 29/2/1
f 37/3/1 29/3/1 36/3/1
f 38/2/1 30/2/1 37/2/1
f 43/1/1 40/1/1 39/1/1
f 44/1/1 40/1/1 43/1/1
f 45/1/1 42/1/1 41/1/1
f 46/1/1 42/1/1 45/1/1
f 47/3/1 44/3/1 43/3/1
f 48/3/1 46/3/1 45/3/1
f 49/3/1 47/3/1 43/3/1
f 49/3/1 48/3/1 47/3/1
f 50/3/1 46/3/1 48/3/1
f 50/3/1 48/3/1 49/3/1
f 51/3/1 49/3/1 43/3/1
f 52/3/1 49/3/1 51/3/1
f 53/3/1 46/3/1 50/3/1
f 54/3/1 46/3/1 53/3/1
f 56/4/1 55/4/1 54/4/1
f 57/4/1 55/4/1 56/4/1
f 62/2/1 59/2/1 58/2/1
f 63/2/1 59/2/1 62/2/1
f 64/2/1 61/2/1 60/2/1
f 65/2/1 61/2/1 64/2/1
f 70/1/1 67/1/1 66/1/1
f 71/1/1 67/1/1 70/1/1
f 72/1/1 69/1/1 68/1/1
f 73/1/1 69/1/1 72/1/1
f 74/3/1 71/3/1 70/3/1
f 77/3/1 73/3/1 72/3/1
f 78/3/1 75/3/1 74/3/1
f 78/3/1 74/3/1 70/3/1
f 79/3/1 75/3/1 78/3/1
f 80/3/1 77/3/1 76/3/1
f 81/3/1 73/3/1 77/3/1
f 81/3/1 77/3/1 80/3/1
f 82/3/1 78/3/1 70/3/1
f 83/3/1 78/3/1 82/3/1
f 84/3/1 73/3/1 81/3/1
f 85/3/1 73/3/1 84/3/1
f 86/1/2 87/1/2 90/1/2
f 90/1/2 87/1/2 91/1/2
f 88/1/2 89/1/2 92/1/2
f 92/1/2 89/1/2 93/1/2
f 90/3/2 91/3/2 94/3/2
f 92/3/2 93/3/2 97/3/2
f 94/3/2 95/3/2 98/3/2
f 90/3/2 94/3/2 98/3/2
f 98/3/2 95/3/2 99/3/2
f 96/3/2 97/3/2 100/3/2
f 97/3/2 93/3/2 101/3/2
f 100/3/2 97/3/2 101/3/2
f 90/3/2 98/3/2 102/3/2
f 102/3/2 98/3/2 103/3/2
f 101/3/2 93/3/2 104/3/2
f 104/3/2 93/3/2 105/3/2
f 106/1/2 107/1/2 110/1/2
f 110/1/2 107/1/2 111/1/2
f 108/1/2 109/1/2 112/1/2
f 112/1/2 109/1/2 113/1/2
f 110/3/2 111/3/2 114/3/2
f 112/3/2 113/3/2 115/3/2
f 110/3/2 114/3/2 116/3/2
f 114/3/2 115/3/2 116/3/2
f 115/3/2 113/3/2 117/3/2
f 116/3/2 115/3/2 117/3/2
f 110/3/2 116/3/2 118/3/2
f 118/3/2 116/3/2 119/3/2
f 117/3/2 113/3/2 120/3/2
f 120/3/2 113/3/2 121/3/2
f 121/4/2 122/4/2 123/4/2
f 123/4/2 122/4/2 124/4/2
f 125/2/2 126/2/2 129/2/2
f 129/2/2 126/2/2 130/2/2
f 127/2/2 128/2/2 131/2/2
f 131/2/2 128/2/2 132/2/2
f 133/4/2 134/4/2 136/4/2
f 136/4/2 134/4/2 137/4/2
f 137/4/2 134/4/2 138/4/2
f 138/4/2 134/4/2 139/4/2
f 139/4/2 134/4/2 140/4/2
f 135/3/2 136/3/2 143/3/2
f 143/3/2 136/3/2 144/3/2
f 141/3/2 142/3/2 151/3/2
f 151/3/2 142/3/2 152/3/2
f 145/2/2 146/2/2 153/2/2
f 146/3/2 147/3/2 154/3/2
f 153/2/2 146/2/2 154/2/2
f 147/4/2 148/4/2 155/4/2
f 154/3/2 147/3/2 155/3/2
f 148/3/2 149/3/2 156/3/2
f 155/4/2 148/4/2 156/4/2
f 149/2/2 150/2/2 157/2/2
f 156/3/2 149/3/2 157/3/2
f 157/2/2 150/2/2 158/2/2
f 159/3/2 160/3/2 165/3/2
f 160/4/2 161/4/2 166/4/2
f 165/3/2 160/3/2 166/3/2
f 161/5/2 162/5/2 167/5/2
f 166/4/2 161/4/2 167/4/2
f 162/4/2 163/4/2 168/4/2
f 167/5/2 162/5/2 168/5/2
f 163/3/2 164/3/2 169/3/2
f 168/4/2 163/4/2 169/4/2
f 169/3/2 164/3/2 170/3/2
f 173/3/3 172/3/3 171/3/3
f 174/3/3 172/3/3 173/3/3
f 175/4/3 174/4/3 173/4/3
f 176/4/3 174/4/3 175/4/3
f 177/5/3 176/5/3 175/5/3
f 178/5/3 176/5/3 177/5/3
f 179/4/3 178/4/3 177/4/3
f 180/4/3 178/4/3 179/4/3
f 181/3/3 180/3/3 179/3/3
f 182/3/3 180/3/3 181/3/3
f 186/3/3 184/3/3 183/3/3
f 187/3/3 184/3/3 186/3/3
f 188/4/3 186/4/3 185/4/3
f 191/4/3 188/4/3 185/4/3
f 192/2/3 190/2/3 189/2/3
f 193/2/3 190/2/3 192/2/3
f 194/3/3 193/3/3 192/3/3
f 195/3/3 193/3/3 194/3/3
f 196/4/3 195/4/3 194/4/3
f 197/4/3 195/4/3 196/4/3
f 198/4/3 191/4/3 185/4/3
f 199/3/3 197/3/3 196/3/3
f 200/3/3 197/3/3 199/3/3
f 201/4/3 198/4/3 185/4/3
f 202/2/3 200/2/3 199/2/3
f 203/2/3 200/2/3 202/2/3
f 204/4/3 201/4/3 185/4/3
f 205/4/3 201/4/3 204/4/3
f 207/3/3 206/3/3 205/3/3
f 208/3/3 206/3/3 207/3/3
f 214/2/3 210/2/3 209/2/3
f 215/2/3 210/2/3 214/2/3
f 216/1/3 212/1/3 211/1/3
f 217/3/3 213/3/3 212/3/3
f 217/1/3 212/1/3 216/1/3
f 218/3/3 213/3/3 217/3/3
f 222/1/3 220/1/3 219/1/3
f 223/3/3 221/3/3 220/3/3
f 223/1/3 220/1/3 222/1/3
f 224/3/3 221/3/3 223/3/3
f 227/2/3 226/2/3 225/2/3
f 228/2/3 226/2/3 227/2/3
f 231/3/3 230/3/3 229/3/3
f 232/3/3 230/3/3 231/3/3
f 238/1/3 234/1/3 233/1/3
f 239/3/3 235/3/3 234/3/3
f 239/1/3 234/1/3 238/1/3
f 240/3/3 235/3/3 239/3/3
f 241/3/3 237/3/3 236/3/3
f 242/3/3 237/3/3 241/3/3
f 248/1/3 244/1/3 243/1/3
f 249/3/3 245/3/3 244/3/3
f 249/1/3 244/1/3 248/1/3
f 250/3/3 245/3/3 249/3/3
f 251/3/3 247/3/3 246/3/3
f 252/3/3 247/3/3 251/3/3
f 253/1/4 254/1/4 258/1/4
f 254/3/4 255/3/4 259/3/4
f 258/1/4 254/1/4 259/1/4
f 259/3/4 255/3/4 260/3/4
f 256/3/4 257/3/4 261/3/4
f 261/3/4 257/3/4 262/3/4
f 263/1/4 264/1/4 268/1/4
f 264/3/4 265/3/4 269/3/4
f 268/1/4 264/1/4 269/1/4
f 269/3/4 265/3/4 270/3/4
f 266/3/4 267/3/4 271/3/4
f 271/3/4 267/3/4 272/3/4
f 273/3/4 274/3/4 275/3/4
f 275/3/4 274/3/4 276/3/4
f 277/4/4 278/4/4 283/4/4
f 283/4/4 278/4/4 284/4/4
f 279/2/4 280/2/4 285/2/4
f 285/2/4 280/2/4 286/2/4
f 281/1/4 282/1/4 287/1/4
f 282/3/4 283/3/4 288/3/4
f 287/1/4 282/1/4 288/1/4
f 288/3/4 283/3/4 289/3/4
f 290/1/4 291/1/4 293/1/4
f 291/3/4 292/3/4 294/3/4
f 293/1/4 291/1/4 294/1/4
f 294/3/4 292/3/4 295/3/4
f 295/4/4 296/4/4 299/4/4
f 299/4/4 296/4/4 300/4/4
f 297/2/4 298/2/4 301/2/4
f 301/2/4 298/2/4 302/2/4
f 303/3/4 304/3/4 305/3/4
f 305/3/4 304/3/4 306/3/4
f 307/4/4 308/4/4 311/4/4
f 309/2/4 310/2/4 312/2/4
f 312/2/4 310/2/4 313/2/4
f 312/3/4 313/3/4 314/3/4
f 314/3/4 313/3/4 315/3/4
f 314/4/4 315/4/4 316/4/4
f 316/4/4 315/4/4 317/4/4
f 307/4/4 311/4/4 318/4/4
f 316/3/4 317/3/4 319/3/4
f 319/3/4 317/3/4 320/3/4
f 307/4/4 318/4/4 321/4/4
f 321/4/4 318/4/4 322/4/4
f 319/2/4 320/2/4 323/2/4
f 323/2/4 320/2/4 324/2/4
f 325/3/4 326/3/4 327/3/4
f 327/3/4 326/3/4 328/3/4
f 329/3/4 330/3/4 331/3/4
f 331/3/4 330/3/4 332/3/4
f 331/4/4 332/4/4 333/4/4
f 333/4/4 332/4/4 334/4/4
f 333/5/4 334/5/4 335/5/4
f 335/5/4 334/5/4 336/5/4
f 335/4/4 336/4/4 337/4/4
f 337/4/4 336/4/4 338/4/4
f 337/3/4 338/3/4 339/3/4
f 339/3/4 338/3/4 340/3/4
f 345/1/5 342/1/5 341/1/5
f 346/1/5 342/1/5 345/1/5
f 347/1/5 344/1/5 343/1/5
f 348/1/5 344/1/5 347/1/5
f 353/1/5 350/1/5 349/1/5
f 354/1/5 350/1/5 353/1/5
f 355/1/5 352/1/5 351/1/5
f 356/1/5 352/1/5 355/1/5
f 361/3/5 358/3/5 357/3/5
f 362/3/5 360/3/5 359/3/5
f 363/3/5 361/3/5 357/3/5
f 363/3/5 362/3/5 361/3/5
f 364/3/5 360/3/5 362/3/5
f 364/3/5 362/3/5 363/3/5
f 365/3/5 363/3/5 357/3/5
f 366/3/5 363/3/5 365/3/5
f 367/3/5 360/3/5 364/3/5
f 368/3/5 360/3/5 367/3/5
f 371/4/5 370/4/5 369/4/5
f 372/4/5 370/4/5 371/4/5
f 373/4/5 370/4/5 372/4/5
f 374/4/5 370/4/5 373/4/5
f 375/4/5 371/4/5 369/4/5
f 376/4/5 373/4/5 372/4/5
f 377/4/5 373/4/5 376/4/5
f 378/4/5 370/4/5 374/4/5
f 379/4/5 377/4/5 376/4/5
f 379/4/5 378/4/5 377/4/5
f 379/4/5 375/4/5 369/4/5
f 379/4/5 376/4/5 375/4/5
f 380/4/5 378/4/5 379/4/5
f 381/4/5 378/4/5 380/4/5
f 382/4/5 370/4/5 378/4/5
f 382/4/5 378/4/5 381/4/5
f 383/4/5 379/4/5 369/4/5
f 384/4/5 379/4/5 383/4/5
f 385/4/5 381/4/5 380/4/5
f 386/4/5 381/4/5 385/4/5
f 387/4/5 370/4/5 382/4/5
f 388/4/5 370/4/5 387/4/5
f 389/4/5 386/4/5 385/4/5
f 389/4/5 387/4/5 386/4/5
f 389/4/5 385/4/5 384/4/5
f 390/4/5 387/4/5 389/4/5
f 398/3/5 392/3/5 391/3/5
f 399/4/5 393/4/5 392/4/5
f 399/3/5 392/3/5 398/3/5
f 400/5/5 394/5/5 393/5/5
f 400/4/5 393/4/5 399/4/5
f 401/4/5 395/4/5 394/4/5
f 401/5/5 394/5/5 400/5/5
f 402/3/5 396/3/5 395/3/5
f 402/4/5 395/4/5 401/4/5
f 403/3/5 396/3/5 402/3/5
f 405/3/5 398/3/5 397/3/5
f 406/3/5 398/3/5 405/3/5
f 407/3/5 404/3/5 403/3/5
f 408/3/5 404/3/5 407/3/5
f 409/4/5 406/4/5 405/4/5
f 410/4/5 406/4/5 409/4/5
f 411/4/5 408/4/5 407/4/5
f 412/4/5 408/4/5 411/4/5
f 413/5/5 410/5/5 409/5/5
f 414/5/5 410/5/5 413/5/5
f 415/5/5 412/5/5 411/5/5
f 416/5/5 412/5/5 415/5/5
f 417/4/5 414/4/5 413/4/5
f 418/4/5 414/4/5 417/4/5
f 421/4/5 416/4/5 415/4/5
f 422/4/5 416/4/5 421/4/5
f 423/3/5 418/3/5 417/3/5
f 424/4/5 419/4/5 418/4/5
f 424/3/5 418/3/5 423/3/5
f 425/4/5 419/4/5 424/4/5
f 428/4/5 421/4/5 420/4/5
f 429/3/5 422/3/5 421/3/5
f 429/4/5 421/4/5 428/4/5
f 430/3/5 422/3/5 429/3/5
f 431/3/5 425/3/5 424/3/5
f 432/4/5 426/4/5 425/4/5
f 432/3/5 425/3/5 431/3/5
f 433/5/5 427/5/5 426/5/5
f 433/4/5 426/4/5 432/4/5
f 434/4/5 428/4/5 427/4/5
f 434/5/5 427/5/5 433/5/5
f 435/3/5 429/3/5 428/3/5
f 435/4/5 428/4/5 434/4/5
f 436/3/5 429/3/5 435/3/5
f 437/3/6 438/3/6 441/3/6
f 439/3/6 440/3/6 442/3/6
f 437/3/6 441/3/6 443/3/6
f 441/3/6 442/3/6 443/3/6
f 442/3/6 440/3/6 444/3/6
f 443/3/6 442/3/6 444/3/6
f 437/3/6 443/3/6 445/3/6
f 445/3/6 443/3/6 446/3/6
f 444/3/6 440/3/6 447/3/6
f 447/3/6 440/3/6 448/3/6
f 449/3/6 450/3/6 456/3/6
f 450/4/6 451/4/6 457/4/6
f 456/3/6 450/3/6 457/3/6
f 451/5/6 452/5/6 458/5/6
f 457/4/6 451/4/6 458/4/6
f 458/5/6 452/5/6 459/5/6
f 459/5/6 452/5/6 460/5/6
f 452/4/6 453/4/6 461/4/6
f 460/5/6 452/5/6 461/5/6
f 453/3/6 454/3/6 462/3/6
f 461/4/6 453/4/6 462/4/6
f 462/3/6 454/3/6 463/3/6
f 455/3/6 456/3/6 465/3/6
f 456/4/6 457/4/6 466/4/6
f 465/3/6 456/3/6 466/3/6
f 466/4/6 457/4/6 467/4/6
f 462/4/6 463/4/6 468/4/6
f 463/3/6 464/3/6 469/3/6
f 468/4/6 463/4/6 469/4/6
f 469/3/6 464/3/6 470/3/6
f 465/4/6 466/4/6 471/4/6
f 471/4/6 466/4/6 472/4/6
f 469/4/6 470/4/6 473/4/6
f 473/4/6 470/4/6 474/4/6
f 471/5/6 472/5/6 475/5/6
f 473/5/6 474/5/6 476/5/6
f 471/5/6 475/5/6 477/5/6
f 476/5/6 474/5/6 478/5/6
f 471/5/6 477/5/6 479/5/6
f 479/5/6 477/5/6 480/5/6
f 478/5/6 474/5/6 481/5/6
f 481/5/6 474/5/6 482/5/6
f 479/4/6 480/4/6 483/4/6
f 483/4/6 480/4/6 484/4/6
f 481/4/6 482/4/6 487/4/6
f 487/4/6 482/4/6 488/4/6
f 483/3/6 484/3/6 489/3/6
f 484/4/6 485/4/6 490/4/6
f 489/3/6 484/3/6 490/3/6
f 490/4/6 485/4/6 491/4/6
f 486/4/6 487/4/6 496/4/6
f 487/3/6 488/3/6 497/3/6
f 496/4/6 487/4/6 497/4/6
f 497/3/6 488/3/6 498/3/6
f 490/3/6 491/3/6 499/3/6
f 491/4/6 492/4/6 500/4/6
f 499/3/6 491/3/6 500/3/6
f 494/5/6 495/5/6 501/5/6
f 500/4/6 492/4/6 501/4/6
f 492/5/6 493/5/6 501/5/6
f 493/5/6 494/5/6 501/5/6
f 495/4/6 496/4/6 502/4/6
f 501/5/6 495/5/6 502/5/6
f 496/3/6 497/3/6 503/3/6
f 502/4/6 496/4/6 503/4/6
f 503/3/6 497/3/6 504/3/6
f 505/2/6 506/2/6 512/2/6
f 506/3/6 507/3/6 513/3/6
f 512/2/6 506/2/6 513/2/6
f 507/4/6 508/4/6 514/4/6
f 513/3/6 507/3/6 514/3/6
f 508/3/6 509/3/6 515/3/6
f 514/4/6 508/4/6 515/4/6
f 509/2/6 510/2/6 516/2/6
f 515/3/6 509/3/6 516/3/6
f 516/2/6 510/2/6 517/2/6
f 511/2/6 512/2/6 519/2/6
f 512/3/6 513/3/6 520/3/6
f 519/2/6 512/2/6 520/2/6
f 514/4/6 515/4/6 521/4/6
f 520/3/6 513/3/6 521/3/6
f 513/4/6 514/4/6 521/4/6
f 515/4/6 516/4/6 521/4/6
f 516/3/6 517/3/6 522/3/6
f 521/4/6 516/4/6 522/4/6
f 517/2/6 518/2/6 523/2/6
f 522/3/6 517/3/6 523/3/6
f 523/2/6 518/2/6 524/2/6
f 519/3/6 520/3/6 525/3/6
f 521/4/6 522/4/6 526/4/6
f 525/3/6 520/3/6 526/3/6
f 520/4/6 521/4/6 526/4/6
f 522/4/6 523/4/6 526/4/6
f 523/3/6 524/3/6 527/3/6
f 526/4/6 523/4/6 527/4/6
f 527/3/6 524/3/6 528/3/6
f 525/4/6 526/4/6 529/4/6
f 526/4/6 527/4/6 529/4/6
f 527/4/6 528/4/6 529/4/6
f 529/4/6 528/4/6 530/4/6
f 530/4/6 528/4/6 531/4/6
f 531/4/6 528/4/6 532/4/6
f 529/3/6 530/3/6 533/3/6
f 530/4/6 531/4/6 534/4/6
f 533/3/6 530/3/6 534/3/6
f 534/4/6 531/4/6 535/4/6
f 535/4/6 531/4/6 536/4/6
f 531/3/6 532/3/6 537/3/6
f 536/4/6 531/4/6 537/4/6
f 537/3/6 532/3/6 538/3/6
f 533/2/6 534/2/6 539/2/6
f 534/3/6 535/3/6 540/3/6
f 539/2/6 534/2/6 540/2/6
f 535/4/6 536/4/6 541/4/6
f 540/3/6 535/3/6 541/3/6
f 541/4/6 536/4/6 542/4/6
f 542/4/6 536/4/6 543/4/6
f 536/3/6 537/3/6 544/3/6
f 543/4/6 536/4/6 544/4/6
f 537/2/6 538/2/6 545/2/6
f 544/3/6 537/3/6 545/3/6
f 545/2/6 538/2/6 546/2/6
f 540/2/6 541/2/6 547/2/6
f 541/3/6 542/3/6 548/3/6
f 547/2/6 541/2/6 548/2/6
f 542/4/6 543/4/6 549/4/6
f 548/3/6 542/3/6 549/3/6
f 543/3/6 544/3/6 550/3/6
f 549/4/6 543/4/6 550/4/6
f 544/2/6 545/2/6 551/2/6
f 550/3/6 544/3/6 551/3/6
f 551/2/6 545/2/6 552/2/6
