# MagicaVoxel @ Ephtracy

# group
o 

# material
mtllib Interior_Furniture_Table_Coffee_Type01_03.mtl
usemtl palette

# normals
vn -1 0 0
vn 1 0 0
vn 0 0 1
vn 0 0 -1
vn 0 -1 0
vn 0 1 0

# texcoords
vt 0.876953 0.5
vt 0.880859 0.5
vt 0.884766 0.5
vt 0.888672 0.5
vt 0.892578 0.5

# verts
v -1.1 0.3 0.5
v -1.1 0.3 0.4
v -1.1 0.3 0.3
v -1.1 0.3 0.2
v -1.1 0.3 -0.2
v -1.1 0.3 -0.3
v -1.1 0.3 -0.4
v -1.1 0.3 -0.5
v -1.1 0.4 0.5
v -1.1 0.4 0.4
v -1.1 0.4 0.3
v -1.1 0.4 0.2
v -1.1 0.4 -0.2
v -1.1 0.4 -0.3
v -1.1 0.4 -0.4
v -1.1 0.4 -0.5
v -1 0.3 0.6
v -1 0.3 0.5
v -1 0.3 -0.5
v -1 0.3 -0.6
v -1 0.4 0.6
v -1 0.4 0.5
v -1 0.4 0.4
v -1 0.4 0.3
v -1 0.4 0.2
v -1 0.4 -0.2
v -1 0.4 -0.3
v -1 0.4 -0.4
v -1 0.4 -0.5
v -1 0.4 -0.6
v -1 0.5 0.4
v -1 0.5 0.3
v -1 0.5 0.2
v -1 0.5 -0.3
v -1 0.5 -0.4
v -0.9 0 0.4
v -0.9 0 0.3
v -0.9 0 -0.3
v -0.9 0 -0.4
v -0.9 0.1 0.4
v -0.9 0.1 0.3
v -0.9 0.1 -0.3
v -0.9 0.1 -0.4
v -0.9 0.3 0.4
v -0.9 0.3 0.3
v -0.9 0.3 -0.3
v -0.9 0.3 -0.4
v -0.9 0.4 0.5
v -0.9 0.4 0.4
v -0.9 0.4 -0.4
v -0.9 0.4 -0.5
v -0.9 0.5 0.5
v -0.9 0.5 0.4
v -0.9 0.5 -0.4
v -0.9 0.5 -0.5
v 0.8 0 0.4
v 0.8 0 0.3
v 0.8 0 -0.3
v 0.8 0 -0.4
v 0.8 0.1 0.4
v 0.8 0.1 0.3
v 0.8 0.1 -0.3
v 0.8 0.1 -0.4
v 0.8 0.3 0.4
v 0.8 0.3 0.3
v 0.8 0.3 -0.3
v 0.8 0.3 -0.4
v -0.8 0 0.4
v -0.8 0 0.3
v -0.8 0 -0.3
v -0.8 0 -0.4
v -0.8 0.1 0.4
v -0.8 0.1 0.3
v -0.8 0.1 -0.3
v -0.8 0.1 -0.4
v -0.8 0.3 0.4
v -0.8 0.3 0.3
v -0.8 0.3 -0.3
v -0.8 0.3 -0.4
v 0.9 0 0.4
v 0.9 0 0.3
v 0.9 0 -0.3
v 0.9 0 -0.4
v 0.9 0.1 0.4
v 0.9 0.1 0.3
v 0.9 0.1 -0.3
v 0.9 0.1 -0.4
v 0.9 0.3 0.4
v 0.9 0.3 0.3
v 0.9 0.3 -0.3
v 0.9 0.3 -0.4
v 0.9 0.4 0.5
v 0.9 0.4 0.4
v 0.9 0.4 -0.4
v 0.9 0.4 -0.5
v 0.9 0.5 0.5
v 0.9 0.5 0.4
v 0.9 0.5 -0.4
v 0.9 0.5 -0.5
v 1 0.3 0.6
v 1 0.3 0.5
v 1 0.3 -0.5
v 1 0.3 -0.6
v 1 0.4 0.6
v 1 0.4 0.5
v 1 0.4 0.4
v 1 0.4 0.3
v 1 0.4 0.2
v 1 0.4 -0.2
v 1 0.4 -0.3
v 1 0.4 -0.4
v 1 0.4 -0.5
v 1 0.4 -0.6
v 1 0.5 0.4
v 1 0.5 0.3
v 1 0.5 0.2
v 1 0.5 -0.2
v 1 0.5 -0.3
v 1 0.5 -0.4
v 1.1 0.3 0.5
v 1.1 0.3 0.4
v 1.1 0.3 0.3
v 1.1 0.3 0.2
v 1.1 0.3 -0.2
v 1.1 0.3 -0.3
v 1.1 0.3 -0.4
v 1.1 0.3 -0.5
v 1.1 0.4 0.5
v 1.1 0.4 0.4
v 1.1 0.4 0.3
v 1.1 0.4 0.2
v 1.1 0.4 -0.2
v 1.1 0.4 -0.3
v 1.1 0.4 -0.4
v 1.1 0.4 -0.5
v -1 0.3 0.6
v -1 0.4 0.6
v -0.9 0.3 0.6
v -0.9 0.4 0.6
v -0.8 0.3 0.6
v -0.8 0.4 0.6
v -0.7 0.3 0.6
v -0.7 0.4 0.6
v 0.7 0.3 0.6
v 0.7 0.4 0.6
v 0.8 0.3 0.6
v 0.8 0.4 0.6
v 0.9 0.3 0.6
v 0.9 0.4 0.6
v 1 0.3 0.6
v 1 0.4 0.6
v -1.1 0.3 0.5
v -1.1 0.4 0.5
v -1 0.3 0.5
v -1 0.4 0.5
v -0.9 0.4 0.5
v -0.9 0.5 0.5
v -0.8 0.4 0.5
v -0.8 0.5 0.5
v -0.7 0.4 0.5
v -0.7 0.5 0.5
v 0.7 0.4 0.5
v 0.7 0.5 0.5
v 0.8 0.4 0.5
v 0.8 0.5 0.5
v 0.9 0.4 0.5
v 0.9 0.5 0.5
v 1 0.3 0.5
v 1 0.4 0.5
v 1.1 0.3 0.5
v 1.1 0.4 0.5
v -1 0.4 0.4
v -1 0.5 0.4
v -0.9 0 0.4
v -0.9 0.1 0.4
v -0.9 0.3 0.4
v -0.9 0.4 0.4
v -0.9 0.5 0.4
v -0.8 0 0.4
v -0.8 0.1 0.4
v -0.8 0.3 0.4
v 0.8 0 0.4
v 0.8 0.1 0.4
v 0.8 0.3 0.4
v 0.9 0 0.4
v 0.9 0.1 0.4
v 0.9 0.3 0.4
v 0.9 0.4 0.4
v 0.9 0.5 0.4
v 1 0.4 0.4
v 1 0.5 0.4
v -0.9 0 -0.3
v -0.9 0.1 -0.3
v -0.9 0.3 -0.3
v -0.8 0 -0.3
v -0.8 0.1 -0.3
v -0.8 0.3 -0.3
v 0.8 0 -0.3
v 0.8 0.1 -0.3
v 0.8 0.3 -0.3
v 0.9 0 -0.3
v 0.9 0.1 -0.3
v 0.9 0.3 -0.3
v -0.9 0 0.3
v -0.9 0.1 0.3
v -0.9 0.3 0.3
v -0.8 0 0.3
v -0.8 0.1 0.3
v -0.8 0.3 0.3
v 0.8 0 0.3
v 0.8 0.1 0.3
v 0.8 0.3 0.3
v 0.9 0 0.3
v 0.9 0.1 0.3
v 0.9 0.3 0.3
v -1 0.4 -0.4
v -1 0.5 -0.4
v -0.9 0 -0.4
v -0.9 0.1 -0.4
v -0.9 0.3 -0.4
v -0.9 0.4 -0.4
v -0.9 0.5 -0.4
v -0.8 0 -0.4
v -0.8 0.1 -0.4
v -0.8 0.3 -0.4
v 0.8 0 -0.4
v 0.8 0.1 -0.4
v 0.8 0.3 -0.4
v 0.9 0 -0.4
v 0.9 0.1 -0.4
v 0.9 0.3 -0.4
v 0.9 0.4 -0.4
v 0.9 0.5 -0.4
v 1 0.4 -0.4
v 1 0.5 -0.4
v -1.1 0.3 -0.5
v -1.1 0.4 -0.5
v -1 0.3 -0.5
v -1 0.4 -0.5
v -0.9 0.4 -0.5
v -0.9 0.5 -0.5
v -0.8 0.4 -0.5
v -0.8 0.5 -0.5
v -0.7 0.4 -0.5
v -0.7 0.5 -0.5
v 0.7 0.4 -0.5
v 0.7 0.5 -0.5
v 0.8 0.4 -0.5
v 0.8 0.5 -0.5
v 0.9 0.4 -0.5
v 0.9 0.5 -0.5
v 1 0.3 -0.5
v 1 0.4 -0.5
v 1.1 0.3 -0.5
v 1.1 0.4 -0.5
v -1 0.3 -0.6
v -1 0.4 -0.6
v -0.9 0.3 -0.6
v -0.9 0.4 -0.6
v -0.8 0.3 -0.6
v -0.8 0.4 -0.6
v -0.7 0.3 -0.6
v -0.7 0.4 -0.6
v 0.7 0.3 -0.6
v 0.7 0.4 -0.6
v 0.8 0.3 -0.6
v 0.8 0.4 -0.6
v 0.9 0.3 -0.6
v 0.9 0.4 -0.6
v 1 0.3 -0.6
v 1 0.4 -0.6
v -0.9 0 0.4
v -0.8 0 0.4
v 0.8 0 0.4
v 0.9 0 0.4
v -0.9 0 0.3
v -0.8 0 0.3
v 0.8 0 0.3
v 0.9 0 0.3
v -0.9 0 -0.3
v -0.8 0 -0.3
v 0.8 0 -0.3
v 0.9 0 -0.3
v -0.9 0 -0.4
v -0.8 0 -0.4
v 0.8 0 -0.4
v 0.9 0 -0.4
v -1 0.3 0.6
v -0.9 0.3 0.6
v -0.8 0.3 0.6
v -0.7 0.3 0.6
v 0.7 0.3 0.6
v 0.8 0.3 0.6
v 0.9 0.3 0.6
v 1 0.3 0.6
v -1.1 0.3 0.5
v -1 0.3 0.5
v -0.9 0.3 0.5
v -0.8 0.3 0.5
v -0.7 0.3 0.5
v 0.7 0.3 0.5
v 0.8 0.3 0.5
v 0.9 0.3 0.5
v 1 0.3 0.5
v 1.1 0.3 0.5
v -1.1 0.3 0.4
v -1 0.3 0.4
v -0.9 0.3 0.4
v -0.8 0.3 0.4
v 0.8 0.3 0.4
v 0.9 0.3 0.4
v 1 0.3 0.4
v 1.1 0.3 0.4
v -1.1 0.3 0.3
v -1 0.3 0.3
v -0.9 0.3 0.3
v -0.8 0.3 0.3
v 0.8 0.3 0.3
v 0.9 0.3 0.3
v 1 0.3 0.3
v 1.1 0.3 0.3
v -1.1 0.3 0.2
v -1 0.3 0.2
v 1 0.3 0.2
v 1.1 0.3 0.2
v -1.1 0.3 -0.2
v -1 0.3 -0.2
v 1 0.3 -0.2
v 1.1 0.3 -0.2
v -1.1 0.3 -0.3
v -1 0.3 -0.3
v -0.9 0.3 -0.3
v -0.8 0.3 -0.3
v 0.8 0.3 -0.3
v 0.9 0.3 -0.3
v 1 0.3 -0.3
v 1.1 0.3 -0.3
v -1.1 0.3 -0.4
v -1 0.3 -0.4
v -0.9 0.3 -0.4
v -0.8 0.3 -0.4
v 0.8 0.3 -0.4
v 0.9 0.3 -0.4
v 1 0.3 -0.4
v 1.1 0.3 -0.4
v -1.1 0.3 -0.5
v -1 0.3 -0.5
v -0.9 0.3 -0.5
v -0.8 0.3 -0.5
v -0.7 0.3 -0.5
v 0.7 0.3 -0.5
v 0.8 0.3 -0.5
v 0.9 0.3 -0.5
v 1 0.3 -0.5
v 1.1 0.3 -0.5
v -1 0.3 -0.6
v -0.9 0.3 -0.6
v -0.8 0.3 -0.6
v -0.7 0.3 -0.6
v 0.7 0.3 -0.6
v 0.8 0.3 -0.6
v 0.9 0.3 -0.6
v 1 0.3 -0.6
v -1 0.4 0.6
v -0.9 0.4 0.6
v -0.8 0.4 0.6
v -0.7 0.4 0.6
v 0.7 0.4 0.6
v 0.8 0.4 0.6
v 0.9 0.4 0.6
v 1 0.4 0.6
v -1.1 0.4 0.5
v -1 0.4 0.5
v -0.9 0.4 0.5
v -0.8 0.4 0.5
v -0.7 0.4 0.5
v 0.7 0.4 0.5
v 0.8 0.4 0.5
v 0.9 0.4 0.5
v 1 0.4 0.5
v 1.1 0.4 0.5
v -1.1 0.4 0.4
v -1 0.4 0.4
v -0.9 0.4 0.4
v 0.9 0.4 0.4
v 1 0.4 0.4
v 1.1 0.4 0.4
v -1.1 0.4 0.3
v -1 0.4 0.3
v 1 0.4 0.3
v 1.1 0.4 0.3
v -1.1 0.4 0.2
v -1 0.4 0.2
v 1 0.4 0.2
v 1.1 0.4 0.2
v -1.1 0.4 -0.2
v -1 0.4 -0.2
v 1 0.4 -0.2
v 1.1 0.4 -0.2
v -1.1 0.4 -0.3
v -1 0.4 -0.3
v 1 0.4 -0.3
v 1.1 0.4 -0.3
v -1.1 0.4 -0.4
v -1 0.4 -0.4
v -0.9 0.4 -0.4
v 0.9 0.4 -0.4
v 1 0.4 -0.4
v 1.1 0.4 -0.4
v -1.1 0.4 -0.5
v -1 0.4 -0.5
v -0.9 0.4 -0.5
v -0.8 0.4 -0.5
v -0.7 0.4 -0.5
v 0.7 0.4 -0.5
v 0.8 0.4 -0.5
v 0.9 0.4 -0.5
v 1 0.4 -0.5
v 1.1 0.4 -0.5
v -1 0.4 -0.6
v -0.9 0.4 -0.6
v -0.8 0.4 -0.6
v -0.7 0.4 -0.6
v 0.7 0.4 -0.6
v 0.8 0.4 -0.6
v 0.9 0.4 -0.6
v 1 0.4 -0.6
v -0.9 0.5 0.5
v -0.8 0.5 0.5
v -0.7 0.5 0.5
v 0.7 0.5 0.5
v 0.8 0.5 0.5
v 0.9 0.5 0.5
v -1 0.5 0.4
v -0.9 0.5 0.4
v -0.8 0.5 0.4
v -0.7 0.5 0.4
v 0.7 0.5 0.4
v 0.8 0.5 0.4
v 0.9 0.5 0.4
v 1 0.5 0.4
v -1 0.5 0.3
v -0.9 0.5 0.3
v -0.8 0.5 0.3
v 0.8 0.5 0.3
v 0.9 0.5 0.3
v 1 0.5 0.3
v -1 0.5 0.2
v -0.9 0.5 0.2
v 0.9 0.5 0.2
v 1 0.5 0.2
v 0.9 0.5 -0.2
v 1 0.5 -0.2
v -1 0.5 -0.3
v -0.9 0.5 -0.3
v -0.8 0.5 -0.3
v 0.8 0.5 -0.3
v 0.9 0.5 -0.3
v 1 0.5 -0.3
v -1 0.5 -0.4
v -0.9 0.5 -0.4
v -0.8 0.5 -0.4
v -0.7 0.5 -0.4
v 0.7 0.5 -0.4
v 0.8 0.5 -0.4
v 0.9 0.5 -0.4
v 1 0.5 -0.4
v -0.9 0.5 -0.5
v -0.8 0.5 -0.5
v -0.7 0.5 -0.5
v 0.7 0.5 -0.5
v 0.8 0.5 -0.5
v 0.9 0.5 -0.5

# faces
f 9/2/1 2/2/1 1/2/1
f 10/3/1 3/3/1 2/3/1
f 10/2/1 2/2/1 9/2/1
f 11/4/1 4/4/1 3/4/1
f 11/3/1 3/3/1 10/3/1
f 12/5/1 5/5/1 4/5/1
f 12/4/1 4/4/1 11/4/1
f 13/4/1 6/4/1 5/4/1
f 13/5/1 5/5/1 12/5/1
f 14/3/1 7/3/1 6/3/1
f 14/4/1 6/4/1 13/4/1
f 15/2/1 8/2/1 7/2/1
f 15/3/1 7/3/1 14/3/1
f 16/2/1 8/2/1 15/2/1
f 21/2/1 18/2/1 17/2/1
f 22/2/1 18/2/1 21/2/1
f 29/2/1 20/2/1 19/2/1
f 30/2/1 20/2/1 29/2/1
f 31/2/1 24/2/1 23/2/1
f 32/3/1 25/3/1 24/3/1
f 32/2/1 24/2/1 31/2/1
f 33/4/1 26/4/1 25/4/1
f 33/3/1 25/3/1 32/3/1
f 33/4/1 27/4/1 26/4/1
f 34/2/1 28/2/1 27/2/1
f 34/4/1 27/4/1 33/4/1
f 35/2/1 28/2/1 34/2/1
f 40/1/1 37/1/1 36/1/1
f 41/1/1 37/1/1 40/1/1
f 42/1/1 39/1/1 38/1/1
f 43/1/1 39/1/1 42/1/1
f 44/3/1 41/3/1 40/3/1
f 45/3/1 41/3/1 44/3/1
f 46/3/1 43/3/1 42/3/1
f 47/3/1 43/3/1 46/3/1
f 52/2/1 49/2/1 48/2/1
f 53/2/1 49/2/1 52/2/1
f 54/2/1 51/2/1 50/2/1
f 55/2/1 51/2/1 54/2/1
f 60/1/1 57/1/1 56/1/1
f 61/1/1 57/1/1 60/1/1
f 62/1/1 59/1/1 58/1/1
f 63/1/1 59/1/1 62/1/1
f 64/3/1 61/3/1 60/3/1
f 65/3/1 61/3/1 64/3/1
f 66/3/1 63/3/1 62/3/1
f 67/3/1 63/3/1 66/3/1
f 68/1/2 69/1/2 72/1/2
f 72/1/2 69/1/2 73/1/2
f 70/1/2 71/1/2 74/1/2
f 74/1/2 71/1/2 75/1/2
f 72/3/2 73/3/2 76/3/2
f 76/3/2 73/3/2 77/3/2
f 74/3/2 75/3/2 78/3/2
f 78/3/2 75/3/2 79/3/2
f 80/1/2 81/1/2 84/1/2
f 84/1/2 81/1/2 85/1/2
f 82/1/2 83/1/2 86/1/2
f 86/1/2 83/1/2 87/1/2
f 84/3/2 85/3/2 88/3/2
f 88/3/2 85/3/2 89/3/2
f 86/3/2 87/3/2 90/3/2
f 90/3/2 87/3/2 91/3/2
f 92/2/2 93/2/2 96/2/2
f 96/2/2 93/2/2 97/2/2
f 94/2/2 95/2/2 98/2/2
f 98/2/2 95/2/2 99/2/2
f 100/2/2 101/2/2 104/2/2
f 104/2/2 101/2/2 105/2/2
f 102/2/2 103/2/2 112/2/2
f 112/2/2 103/2/2 113/2/2
f 106/2/2 107/2/2 114/2/2
f 107/3/2 108/3/2 115/3/2
f 114/2/2 107/2/2 115/2/2
f 108/4/2 109/4/2 116/4/2
f 115/3/2 108/3/2 116/3/2
f 109/3/2 110/3/2 117/3/2
f 116/4/2 109/4/2 117/4/2
f 110/2/2 111/2/2 118/2/2
f 117/3/2 110/3/2 118/3/2
f 118/2/2 111/2/2 119/2/2
f 120/2/2 121/2/2 128/2/2
f 121/3/2 122/3/2 129/3/2
f 128/2/2 121/2/2 129/2/2
f 122/4/2 123/4/2 130/4/2
f 129/3/2 122/3/2 130/3/2
f 123/5/2 124/5/2 131/5/2
f 130/4/2 123/4/2 131/4/2
f 124/4/2 125/4/2 132/4/2
f 131/5/2 124/5/2 132/5/2
f 125/3/2 126/3/2 133/3/2
f 132/4/2 125/4/2 133/4/2
f 126/2/2 127/2/2 134/2/2
f 133/3/2 126/3/2 134/3/2
f 134/2/2 127/2/2 135/2/2
f 138/2/3 137/2/3 136/2/3
f 139/2/3 137/2/3 138/2/3
f 140/3/3 139/3/3 138/3/3
f 141/3/3 139/3/3 140/3/3
f 142/4/3 141/4/3 140/4/3
f 143/4/3 141/4/3 142/4/3
f 144/5/3 143/5/3 142/5/3
f 145/5/3 143/5/3 144/5/3
f 146/4/3 145/4/3 144/4/3
f 147/4/3 145/4/3 146/4/3
f 148/3/3 147/3/3 146/3/3
f 149/3/3 147/3/3 148/3/3
f 150/2/3 149/2/3 148/2/3
f 151/2/3 149/2/3 150/2/3
f 154/2/3 153/2/3 152/2/3
f 155/2/3 153/2/3 154/2/3
f 158/2/3 157/2/3 156/2/3
f 159/2/3 157/2/3 158/2/3
f 160/3/3 159/3/3 158/3/3
f 161/3/3 159/3/3 160/3/3
f 162/4/3 161/4/3 160/4/3
f 163/4/3 161/4/3 162/4/3
f 164/3/3 163/3/3 162/3/3
f 165/3/3 163/3/3 164/3/3
f 166/2/3 165/2/3 164/2/3
f 167/2/3 165/2/3 166/2/3
f 170/2/3 169/2/3 168/2/3
f 171/2/3 169/2/3 170/2/3
f 177/2/3 173/2/3 172/2/3
f 178/2/3 173/2/3 177/2/3
f 179/1/3 175/1/3 174/1/3
f 180/3/3 176/3/3 175/3/3
f 180/1/3 175/1/3 179/1/3
f 181/3/3 176/3/3 180/3/3
f 185/1/3 183/1/3 182/1/3
f 186/3/3 184/3/3 183/3/3
f 186/1/3 183/1/3 185/1/3
f 187/3/3 184/3/3 186/3/3
f 190/2/3 189/2/3 188/2/3
f 191/2/3 189/2/3 190/2/3
f 195/1/3 193/1/3 192/1/3
f 196/3/3 194/3/3 193/3/3
f 196/1/3 193/1/3 195/1/3
f 197/3/3 194/3/3 196/3/3
f 201/1/3 199/1/3 198/1/3
f 202/3/3 200/3/3 199/3/3
f 202/1/3 199/1/3 201/1/3
f 203/3/3 200/3/3 202/3/3
f 204/1/4 205/1/4 207/1/4
f 205/3/4 206/3/4 208/3/4
f 207/1/4 205/1/4 208/1/4
f 208/3/4 206/3/4 209/3/4
f 210/1/4 211/1/4 213/1/4
f 211/3/4 212/3/4 214/3/4
f 213/1/4 211/1/4 214/1/4
f 214/3/4 212/3/4 215/3/4
f 216/2/4 217/2/4 221/2/4
f 221/2/4 217/2/4 222/2/4
f 218/1/4 219/1/4 223/1/4
f 219/3/4 220/3/4 224/3/4
f 223/1/4 219/1/4 224/1/4
f 224/3/4 220/3/4 225/3/4
f 226/1/4 227/1/4 229/1/4
f 227/3/4 228/3/4 230/3/4
f 229/1/4 227/1/4 230/1/4
f 230/3/4 228/3/4 231/3/4
f 232/2/4 233/2/4 234/2/4
f 234/2/4 233/2/4 235/2/4
f 236/2/4 237/2/4 238/2/4
f 238/2/4 237/2/4 239/2/4
f 240/2/4 241/2/4 242/2/4
f 242/2/4 241/2/4 243/2/4
f 242/3/4 243/3/4 244/3/4
f 244/3/4 243/3/4 245/3/4
f 244/4/4 245/4/4 246/4/4
f 246/4/4 245/4/4 247/4/4
f 246/3/4 247/3/4 248/3/4
f 248/3/4 247/3/4 249/3/4
f 248/2/4 249/2/4 250/2/4
f 250/2/4 249/2/4 251/2/4
f 252/2/4 253/2/4 254/2/4
f 254/2/4 253/2/4 255/2/4
f 256/2/4 257/2/4 258/2/4
f 258/2/4 257/2/4 259/2/4
f 258/3/4 259/3/4 260/3/4
f 260/3/4 259/3/4 261/3/4
f 260/4/4 261/4/4 262/4/4
f 262/4/4 261/4/4 263/4/4
f 262/5/4 263/5/4 264/5/4
f 264/5/4 263/5/4 265/5/4
f 264/4/4 265/4/4 266/4/4
f 266/4/4 265/4/4 267/4/4
f 266/3/4 267/3/4 268/3/4
f 268/3/4 267/3/4 269/3/4
f 268/2/4 269/2/4 270/2/4
f 270/2/4 269/2/4 271/2/4
f 276/1/5 273/1/5 272/1/5
f 277/1/5 273/1/5 276/1/5
f 278/1/5 275/1/5 274/1/5
f 279/1/5 275/1/5 278/1/5
f 284/1/5 281/1/5 280/1/5
f 285/1/5 281/1/5 284/1/5
f 286/1/5 283/1/5 282/1/5
f 287/1/5 283/1/5 286/1/5
f 297/2/5 289/2/5 288/2/5
f 298/3/5 290/3/5 289/3/5
f 298/2/5 289/2/5 297/2/5
f 299/4/5 291/4/5 290/4/5
f 299/3/5 290/3/5 298/3/5
f 300/5/5 292/5/5 291/5/5
f 300/4/5 291/4/5 299/4/5
f 301/4/5 293/4/5 292/4/5
f 301/5/5 292/5/5 300/5/5
f 302/3/5 294/3/5 293/3/5
f 302/4/5 293/4/5 301/4/5
f 303/2/5 295/2/5 294/2/5
f 303/3/5 294/3/5 302/3/5
f 304/2/5 295/2/5 303/2/5
f 306/2/5 297/2/5 296/2/5
f 307/3/5 298/3/5 297/3/5
f 307/2/5 297/2/5 306/2/5
f 308/4/5 302/4/5 301/4/5
f 308/3/5 298/3/5 307/3/5
f 308/4/5 299/4/5 298/4/5
f 308/4/5 300/4/5 299/4/5
f 308/4/5 303/4/5 302/4/5
f 308/4/5 301/4/5 300/4/5
f 309/4/5 303/4/5 308/4/5
f 310/4/5 303/4/5 309/4/5
f 311/3/5 304/3/5 303/3/5
f 311/4/5 303/4/5 310/4/5
f 312/2/5 305/2/5 304/2/5
f 312/3/5 304/3/5 311/3/5
f 313/2/5 305/2/5 312/2/5
f 314/3/5 307/3/5 306/3/5
f 315/4/5 308/4/5 307/4/5
f 315/3/5 307/3/5 314/3/5
f 316/4/5 308/4/5 315/4/5
f 317/4/5 310/4/5 309/4/5
f 318/4/5 310/4/5 317/4/5
f 319/4/5 312/4/5 311/4/5
f 320/3/5 313/3/5 312/3/5
f 320/4/5 312/4/5 319/4/5
f 321/3/5 313/3/5 320/3/5
f 322/4/5 319/4/5 318/4/5
f 322/4/5 316/4/5 315/4/5
f 322/4/5 321/4/5 320/4/5
f 322/4/5 320/4/5 319/4/5
f 322/4/5 318/4/5 317/4/5
f 322/4/5 317/4/5 316/4/5
f 322/4/5 315/4/5 314/4/5
f 323/4/5 321/4/5 322/4/5
f 324/4/5 321/4/5 323/4/5
f 325/4/5 321/4/5 324/4/5
f 326/5/5 323/5/5 322/5/5
f 327/4/5 324/4/5 323/4/5
f 327/5/5 323/5/5 326/5/5
f 328/5/5 325/5/5 324/5/5
f 328/4/5 324/4/5 327/4/5
f 329/5/5 325/5/5 328/5/5
f 330/4/5 327/4/5 326/4/5
f 330/4/5 328/4/5 327/4/5
f 330/4/5 329/4/5 328/4/5
f 331/4/5 329/4/5 330/4/5
f 332/4/5 329/4/5 331/4/5
f 333/4/5 329/4/5 332/4/5
f 334/4/5 329/4/5 333/4/5
f 335/4/5 329/4/5 334/4/5
f 336/4/5 329/4/5 335/4/5
f 337/4/5 329/4/5 336/4/5
f 338/3/5 331/3/5 330/3/5
f 339/4/5 332/4/5 331/4/5
f 339/3/5 331/3/5 338/3/5
f 340/4/5 332/4/5 339/4/5
f 341/4/5 334/4/5 333/4/5
f 342/4/5 334/4/5 341/4/5
f 343/4/5 336/4/5 335/4/5
f 344/3/5 337/3/5 336/3/5
f 344/4/5 336/4/5 343/4/5
f 345/3/5 337/3/5 344/3/5
f 346/2/5 339/2/5 338/2/5
f 347/3/5 340/3/5 339/3/5
f 347/2/5 339/2/5 346/2/5
f 348/4/5 343/4/5 342/4/5
f 348/3/5 340/3/5 347/3/5
f 348/4/5 342/4/5 341/4/5
f 348/4/5 341/4/5 340/4/5
f 349/4/5 343/4/5 348/4/5
f 350/4/5 343/4/5 349/4/5
f 351/4/5 343/4/5 350/4/5
f 352/4/5 343/4/5 351/4/5
f 353/3/5 344/3/5 343/3/5
f 353/4/5 343/4/5 352/4/5
f 354/2/5 345/2/5 344/2/5
f 354/3/5 344/3/5 353/3/5
f 355/2/5 345/2/5 354/2/5
f 356/2/5 348/2/5 347/2/5
f 357/3/5 349/3/5 348/3/5
f 357/2/5 348/2/5 356/2/5
f 358/4/5 350/4/5 349/4/5
f 358/3/5 349/3/5 357/3/5
f 359/5/5 351/5/5 350/5/5
f 359/4/5 350/4/5 358/4/5
f 360/4/5 352/4/5 351/4/5
f 360/5/5 351/5/5 359/5/5
f 361/3/5 353/3/5 352/3/5
f 361/4/5 352/4/5 360/4/5
f 362/2/5 354/2/5 353/2/5
f 362/3/5 353/3/5 361/3/5
f 363/2/5 354/2/5 362/2/5
f 364/2/6 365/2/6 373/2/6
f 365/3/6 366/3/6 374/3/6
f 373/2/6 365/2/6 374/2/6
f 366/4/6 367/4/6 375/4/6
f 374/3/6 366/3/6 375/3/6
f 367/5/6 368/5/6 376/5/6
f 375/4/6 367/4/6 376/4/6
f 368/4/6 369/4/6 377/4/6
f 376/5/6 368/5/6 377/5/6
f 369/3/6 370/3/6 378/3/6
f 377/4/6 369/4/6 378/4/6
f 370/2/6 371/2/6 379/2/6
f 378/3/6 370/3/6 379/3/6
f 379/2/6 371/2/6 380/2/6
f 372/2/6 373/2/6 382/2/6
f 373/3/6 374/3/6 383/3/6
f 382/2/6 373/2/6 383/2/6
f 383/3/6 374/3/6 384/3/6
f 379/3/6 380/3/6 385/3/6
f 380/2/6 381/2/6 386/2/6
f 385/3/6 380/3/6 386/3/6
f 386/2/6 381/2/6 387/2/6
f 382/3/6 383/3/6 388/3/6
f 388/3/6 383/3/6 389/3/6
f 386/3/6 387/3/6 390/3/6
f 390/3/6 387/3/6 391/3/6
f 388/4/6 389/4/6 392/4/6
f 392/4/6 389/4/6 393/4/6
f 390/4/6 391/4/6 394/4/6
f 394/4/6 391/4/6 395/4/6
f 392/5/6 393/5/6 396/5/6
f 396/5/6 393/5/6 397/5/6
f 394/5/6 395/5/6 398/5/6
f 398/5/6 395/5/6 399/5/6
f 396/4/6 397/4/6 400/4/6
f 400/4/6 397/4/6 401/4/6
f 398/4/6 399/4/6 402/4/6
f 402/4/6 399/4/6 403/4/6
f 400/3/6 401/3/6 404/3/6
f 404/3/6 401/3/6 405/3/6
f 402/3/6 403/3/6 408/3/6
f 408/3/6 403/3/6 409/3/6
f 404/2/6 405/2/6 410/2/6
f 405/3/6 406/3/6 411/3/6
f 410/2/6 405/2/6 411/2/6
f 411/3/6 406/3/6 412/3/6
f 407/3/6 408/3/6 417/3/6
f 408/2/6 409/2/6 418/2/6
f 417/3/6 408/3/6 418/3/6
f 418/2/6 409/2/6 419/2/6
f 411/2/6 412/2/6 420/2/6
f 412/3/6 413/3/6 421/3/6
f 420/2/6 412/2/6 421/2/6
f 413/4/6 414/4/6 422/4/6
f 421/3/6 413/3/6 422/3/6
f 414/5/6 415/5/6 423/5/6
f 422/4/6 414/4/6 423/4/6
f 415/4/6 416/4/6 424/4/6
f 423/5/6 415/5/6 424/5/6
f 416/3/6 417/3/6 425/3/6
f 424/4/6 416/4/6 425/4/6
f 417/2/6 418/2/6 426/2/6
f 425/3/6 417/3/6 426/3/6
f 426/2/6 418/2/6 427/2/6
f 428/2/6 429/2/6 435/2/6
f 429/3/6 430/3/6 436/3/6
f 435/2/6 429/2/6 436/2/6
f 430/4/6 431/4/6 437/4/6
f 436/3/6 430/3/6 437/3/6
f 431/3/6 432/3/6 438/3/6
f 437/4/6 431/4/6 438/4/6
f 432/2/6 433/2/6 439/2/6
f 438/3/6 432/3/6 439/3/6
f 439/2/6 433/2/6 440/2/6
f 434/2/6 435/2/6 442/2/6
f 435/3/6 436/3/6 443/3/6
f 442/2/6 435/2/6 443/2/6
f 437/4/6 438/4/6 444/4/6
f 443/3/6 436/3/6 444/3/6
f 436/4/6 437/4/6 444/4/6
f 438/4/6 439/4/6 444/4/6
f 439/3/6 440/3/6 445/3/6
f 444/4/6 439/4/6 445/4/6
f 440/2/6 441/2/6 446/2/6
f 445/3/6 440/3/6 446/3/6
f 446/2/6 441/2/6 447/2/6
f 442/3/6 443/3/6 448/3/6
f 444/4/6 445/4/6 449/4/6
f 448/3/6 443/3/6 449/3/6
f 443/4/6 444/4/6 449/4/6
f 445/4/6 446/4/6 449/4/6
f 446/3/6 447/3/6 450/3/6
f 449/4/6 446/4/6 450/4/6
f 450/3/6 447/3/6 451/3/6
f 448/4/6 449/4/6 452/4/6
f 449/4/6 450/4/6 452/4/6
f 450/4/6 451/4/6 452/4/6
f 452/4/6 451/4/6 453/4/6
f 448/4/6 452/4/6 454/4/6
f 454/4/6 452/4/6 455/4/6
f 455/4/6 452/4/6 456/4/6
f 456/4/6 452/4/6 457/4/6
f 452/3/6 453/3/6 458/3/6
f 457/4/6 452/4/6 458/4/6
f 458/3/6 453/3/6 459/3/6
f 454/2/6 455/2/6 460/2/6
f 455/3/6 456/3/6 461/3/6
f 460/2/6 455/2/6 461/2/6
f 456/4/6 457/4/6 462/4/6
f 461/3/6 456/3/6 462/3/6
f 462/4/6 457/4/6 463/4/6
f 463/4/6 457/4/6 464/4/6
f 457/3/6 458/3/6 465/3/6
f 464/4/6 457/4/6 465/4/6
f 458/2/6 459/2/6 466/2/6
f 465/3/6 458/3/6 466/3/6
f 466/2/6 459/2/6 467/2/6
f 461/2/6 462/2/6 468/2/6
f 462/3/6 463/3/6 469/3/6
f 468/2/6 462/2/6 469/2/6
f 463/4/6 464/4/6 470/4/6
f 469/3/6 463/3/6 470/3/6
f 464/3/6 465/3/6 471/3/6
f 470/4/6 464/4/6 471/4/6
f 465/2/6 466/2/6 472/2/6
f 471/3/6 465/3/6 472/3/6
f 472/2/6 466/2/6 473/2/6
