# MagicaVoxel @ Ephtracy

# group
o 

# material
mtllib Bike_Basket_Weave_Front.mtl
usemtl palette

# normals
vn -1 0 0
vn 1 0 0
vn 0 0 1
vn 0 0 -1
vn 0 -1 0
vn 0 1 0

# texcoords
vt 0.705078 0.5
vt 0.712891 0.5

# verts
v -0.2 1.4 0.2
v -0.2 1.4 -0.1
v -0.2 1.5 0.2
v -0.2 1.5 -0.1
v -0.1 1.5 0.2
v -0.1 1.5 -0.1
v -0.1 1.6 0.2
v -0.1 1.6 -0.1
v 0 1.1 0.2
v 0 1.1 -0.1
v 0 1.2 0.3
v 0 1.2 0.2
v 0 1.2 0.1
v 0 1.2 0
v 0 1.2 -0.1
v 0 1.2 -0.2
v 0 1.3 0.3
v 0 1.3 0.2
v 0 1.3 0.1
v 0 1.3 0
v 0 1.3 -0.1
v 0 1.3 -0.2
v 0 1.4 0.3
v 0 1.4 0.2
v 0 1.4 0.1
v 0 1.4 0
v 0 1.4 -0.1
v 0 1.4 -0.2
v 0 1.5 0.3
v 0 1.5 0.2
v 0 1.5 -0.1
v 0 1.5 -0.2
v 0.1 1.1 0.3
v 0.1 1.1 0.2
v 0.1 1.1 -0.1
v 0.1 1.1 -0.2
v 0.1 1.2 0.4
v 0.1 1.2 0.3
v 0.1 1.2 0.2
v 0.1 1.2 -0.1
v 0.1 1.2 -0.2
v 0.1 1.2 -0.3
v 0.1 1.3 0.4
v 0.1 1.3 0.3
v 0.1 1.3 -0.2
v 0.1 1.3 -0.3
v 0.1 1.4 0.3
v 0.1 1.4 -0.2
v 0.1 1.5 0.4
v 0.1 1.5 0.3
v 0.1 1.5 -0.2
v 0.1 1.5 -0.3
v 0.2 1.1 0.4
v 0.2 1.1 0.3
v 0.2 1.1 -0.2
v 0.2 1.1 -0.3
v 0.2 1.2 0.4
v 0.2 1.2 0.3
v 0.2 1.2 -0.2
v 0.2 1.2 -0.3
v 0.4 1.2 0.3
v 0.4 1.2 0.2
v 0.4 1.2 0.1
v 0.4 1.2 0
v 0.4 1.2 -0.1
v 0.4 1.2 -0.2
v 0.4 1.3 0.3
v 0.4 1.3 0.2
v 0.4 1.3 0.1
v 0.4 1.3 0
v 0.4 1.3 -0.1
v 0.4 1.3 -0.2
v 0.4 1.4 0.3
v 0.4 1.4 0.2
v 0.4 1.4 0.1
v 0.4 1.4 0
v 0.4 1.4 -0.1
v 0.4 1.4 -0.2
v 0.4 1.5 0.3
v 0.4 1.5 -0.2
v -0.1 1.4 0.2
v -0.1 1.4 -0.1
v -0.1 1.5 0.2
v -0.1 1.5 -0.1
v 0 1.5 0.2
v 0 1.5 -0.1
v 0 1.6 0.2
v 0 1.6 -0.1
v 0.1 1.2 0.3
v 0.1 1.2 0.2
v 0.1 1.2 0.1
v 0.1 1.2 0
v 0.1 1.2 -0.1
v 0.1 1.2 -0.2
v 0.1 1.3 0.3
v 0.1 1.3 0.2
v 0.1 1.3 0.1
v 0.1 1.3 0
v 0.1 1.3 -0.1
v 0.1 1.3 -0.2
v 0.1 1.4 0.3
v 0.1 1.4 0.2
v 0.1 1.4 0.1
v 0.1 1.4 0
v 0.1 1.4 -0.1
v 0.1 1.4 -0.2
v 0.1 1.5 0.3
v 0.1 1.5 -0.2
v 0.3 1.1 0.4
v 0.3 1.1 0.3
v 0.3 1.1 -0.2
v 0.3 1.1 -0.3
v 0.3 1.2 0.4
v 0.3 1.2 0.3
v 0.3 1.2 -0.2
v 0.3 1.2 -0.3
v 0.4 1.1 0.3
v 0.4 1.1 0.2
v 0.4 1.1 -0.1
v 0.4 1.1 -0.2
v 0.4 1.2 0.4
v 0.4 1.2 0.3
v 0.4 1.2 0.2
v 0.4 1.2 -0.1
v 0.4 1.2 -0.2
v 0.4 1.2 -0.3
v 0.4 1.3 0.4
v 0.4 1.3 0.3
v 0.4 1.3 -0.2
v 0.4 1.3 -0.3
v 0.4 1.4 0.3
v 0.4 1.4 -0.2
v 0.4 1.5 0.4
v 0.4 1.5 0.3
v 0.4 1.5 -0.2
v 0.4 1.5 -0.3
v 0.5 1.1 0.2
v 0.5 1.1 -0.1
v 0.5 1.2 0.3
v 0.5 1.2 0.2
v 0.5 1.2 0.1
v 0.5 1.2 0
v 0.5 1.2 -0.1
v 0.5 1.2 -0.2
v 0.5 1.3 0.3
v 0.5 1.3 0.2
v 0.5 1.3 0.1
v 0.5 1.3 0
v 0.5 1.3 -0.1
v 0.5 1.3 -0.2
v 0.5 1.4 0.3
v 0.5 1.4 0.2
v 0.5 1.4 0.1
v 0.5 1.4 0
v 0.5 1.4 -0.1
v 0.5 1.4 -0.2
v 0.5 1.5 0.3
v 0.5 1.5 -0.2
v 0.1 1.2 0.4
v 0.1 1.3 0.4
v 0.1 1.5 0.4
v 0.2 1.1 0.4
v 0.2 1.2 0.4
v 0.2 1.3 0.4
v 0.2 1.4 0.4
v 0.3 1.1 0.4
v 0.3 1.2 0.4
v 0.3 1.3 0.4
v 0.3 1.4 0.4
v 0.4 1.2 0.4
v 0.4 1.3 0.4
v 0.4 1.5 0.4
v 0 1.2 0.3
v 0 1.3 0.3
v 0 1.4 0.3
v 0 1.5 0.3
v 0.1 1.1 0.3
v 0.1 1.2 0.3
v 0.1 1.3 0.3
v 0.1 1.4 0.3
v 0.1 1.5 0.3
v 0.2 1.1 0.3
v 0.2 1.2 0.3
v 0.3 1.1 0.3
v 0.3 1.2 0.3
v 0.4 1.1 0.3
v 0.4 1.2 0.3
v 0.4 1.3 0.3
v 0.4 1.4 0.3
v 0.4 1.5 0.3
v 0.5 1.2 0.3
v 0.5 1.3 0.3
v 0.5 1.4 0.3
v 0.5 1.5 0.3
v -0.2 1.4 0.2
v -0.2 1.5 0.2
v -0.1 1.4 0.2
v -0.1 1.5 0.2
v -0.1 1.6 0.2
v 0 1.1 0.2
v 0 1.2 0.2
v 0 1.5 0.2
v 0 1.6 0.2
v 0.1 1.1 0.2
v 0.1 1.2 0.2
v 0.4 1.1 0.2
v 0.4 1.2 0.2
v 0.5 1.1 0.2
v 0.5 1.2 0.2
v 0.1 1.2 -0.2
v 0.1 1.3 -0.2
v 0.1 1.4 -0.2
v 0.1 1.5 -0.2
v 0.2 1.2 -0.2
v 0.2 1.3 -0.2
v 0.2 1.4 -0.2
v 0.3 1.2 -0.2
v 0.3 1.3 -0.2
v 0.3 1.4 -0.2
v 0.4 1.2 -0.2
v 0.4 1.3 -0.2
v 0.4 1.4 -0.2
v 0.4 1.5 -0.2
v 0.1 1.2 0.3
v 0.1 1.3 0.3
v 0.1 1.4 0.3
v 0.1 1.5 0.3
v 0.2 1.2 0.3
v 0.2 1.3 0.3
v 0.2 1.4 0.3
v 0.3 1.2 0.3
v 0.3 1.3 0.3
v 0.3 1.4 0.3
v 0.4 1.2 0.3
v 0.4 1.3 0.3
v 0.4 1.4 0.3
v 0.4 1.5 0.3
v -0.2 1.4 -0.1
v -0.2 1.5 -0.1
v -0.1 1.4 -0.1
v -0.1 1.5 -0.1
v -0.1 1.6 -0.1
v 0 1.1 -0.1
v 0 1.2 -0.1
v 0 1.5 -0.1
v 0 1.6 -0.1
v 0.1 1.1 -0.1
v 0.1 1.2 -0.1
v 0.4 1.1 -0.1
v 0.4 1.2 -0.1
v 0.5 1.1 -0.1
v 0.5 1.2 -0.1
v 0 1.2 -0.2
v 0 1.3 -0.2
v 0 1.4 -0.2
v 0 1.5 -0.2
v 0.1 1.1 -0.2
v 0.1 1.2 -0.2
v 0.1 1.3 -0.2
v 0.1 1.4 -0.2
v 0.1 1.5 -0.2
v 0.2 1.1 -0.2
v 0.2 1.2 -0.2
v 0.3 1.1 -0.2
v 0.3 1.2 -0.2
v 0.4 1.1 -0.2
v 0.4 1.2 -0.2
v 0.4 1.3 -0.2
v 0.4 1.4 -0.2
v 0.4 1.5 -0.2
v 0.5 1.2 -0.2
v 0.5 1.3 -0.2
v 0.5 1.4 -0.2
v 0.5 1.5 -0.2
v 0.1 1.2 -0.3
v 0.1 1.3 -0.3
v 0.1 1.5 -0.3
v 0.2 1.1 -0.3
v 0.2 1.2 -0.3
v 0.2 1.3 -0.3
v 0.2 1.4 -0.3
v 0.3 1.1 -0.3
v 0.3 1.2 -0.3
v 0.3 1.3 -0.3
v 0.3 1.4 -0.3
v 0.4 1.2 -0.3
v 0.4 1.3 -0.3
v 0.4 1.5 -0.3
v 0.2 1.1 0.4
v 0.3 1.1 0.4
v 0.1 1.1 0.3
v 0.2 1.1 0.3
v 0.3 1.1 0.3
v 0.4 1.1 0.3
v 0 1.1 0.2
v 0.1 1.1 0.2
v 0.4 1.1 0.2
v 0.5 1.1 0.2
v 0 1.1 -0.1
v 0.1 1.1 -0.1
v 0.4 1.1 -0.1
v 0.5 1.1 -0.1
v 0.1 1.1 -0.2
v 0.2 1.1 -0.2
v 0.3 1.1 -0.2
v 0.4 1.1 -0.2
v 0.2 1.1 -0.3
v 0.3 1.1 -0.3
v 0.1 1.2 0.4
v 0.2 1.2 0.4
v 0.3 1.2 0.4
v 0.4 1.2 0.4
v 0 1.2 0.3
v 0.1 1.2 0.3
v 0.2 1.2 0.3
v 0.3 1.2 0.3
v 0.4 1.2 0.3
v 0.5 1.2 0.3
v 0 1.2 0.2
v 0.1 1.2 0.2
v 0.4 1.2 0.2
v 0.5 1.2 0.2
v 0 1.2 -0.1
v 0.1 1.2 -0.1
v 0.4 1.2 -0.1
v 0.5 1.2 -0.1
v 0 1.2 -0.2
v 0.1 1.2 -0.2
v 0.2 1.2 -0.2
v 0.3 1.2 -0.2
v 0.4 1.2 -0.2
v 0.5 1.2 -0.2
v 0.1 1.2 -0.3
v 0.2 1.2 -0.3
v 0.3 1.2 -0.3
v 0.4 1.2 -0.3
v -0.2 1.4 0.2
v -0.1 1.4 0.2
v -0.2 1.4 -0.1
v -0.1 1.4 -0.1
v -0.1 1.5 0.2
v 0 1.5 0.2
v -0.1 1.5 -0.1
v 0 1.5 -0.1
v 0.1 1.2 0.3
v 0.2 1.2 0.3
v 0.3 1.2 0.3
v 0.4 1.2 0.3
v 0.1 1.2 0.2
v 0.4 1.2 0.2
v 0.1 1.2 0.1
v 0.4 1.2 0.1
v 0.1 1.2 0
v 0.4 1.2 0
v 0.1 1.2 -0.1
v 0.4 1.2 -0.1
v 0.1 1.2 -0.2
v 0.2 1.2 -0.2
v 0.3 1.2 -0.2
v 0.4 1.2 -0.2
v 0.1 1.5 0.4
v 0.4 1.5 0.4
v 0 1.5 0.3
v 0.1 1.5 0.3
v 0.4 1.5 0.3
v 0.5 1.5 0.3
v -0.2 1.5 0.2
v -0.1 1.5 0.2
v 0 1.5 0.2
v -0.2 1.5 -0.1
v -0.1 1.5 -0.1
v 0 1.5 -0.1
v 0 1.5 -0.2
v 0.1 1.5 -0.2
v 0.4 1.5 -0.2
v 0.5 1.5 -0.2
v 0.1 1.5 -0.3
v 0.4 1.5 -0.3
v -0.1 1.6 0.2
v 0 1.6 0.2
v -0.1 1.6 -0.1
v 0 1.6 -0.1

# faces
f 3/1/1 2/1/1 1/1/1
f 4/1/1 2/1/1 3/1/1
f 7/1/1 6/1/1 5/1/1
f 8/1/1 6/1/1 7/1/1
f 12/2/1 10/2/1 9/2/1
f 13/2/1 10/2/1 12/2/1
f 14/2/1 10/2/1 13/2/1
f 15/2/1 10/2/1 14/2/1
f 17/2/1 12/2/1 11/2/1
f 18/1/1 13/1/1 12/1/1
f 18/2/1 12/2/1 17/2/1
f 19/2/1 14/2/1 13/2/1
f 19/1/1 13/1/1 18/1/1
f 20/1/1 15/1/1 14/1/1
f 20/2/1 14/2/1 19/2/1
f 21/2/1 16/2/1 15/2/1
f 21/1/1 15/1/1 20/1/1
f 22/2/1 16/2/1 21/2/1
f 23/1/1 18/1/1 17/1/1
f 24/2/1 19/2/1 18/2/1
f 24/1/1 18/1/1 23/1/1
f 25/1/1 20/1/1 19/1/1
f 25/2/1 19/2/1 24/2/1
f 26/2/1 21/2/1 20/2/1
f 26/1/1 20/1/1 25/1/1
f 27/1/1 22/1/1 21/1/1
f 27/2/1 21/2/1 26/2/1
f 28/1/1 22/1/1 27/1/1
f 29/2/1 24/2/1 23/2/1
f 29/2/1 25/2/1 24/2/1
f 29/2/1 28/2/1 27/2/1
f 29/2/1 27/2/1 26/2/1
f 29/2/1 26/2/1 25/2/1
f 30/2/1 28/2/1 29/2/1
f 31/2/1 28/2/1 30/2/1
f 32/2/1 28/2/1 31/2/1
f 38/2/1 34/2/1 33/2/1
f 39/2/1 34/2/1 38/2/1
f 40/2/1 36/2/1 35/2/1
f 41/2/1 36/2/1 40/2/1
f 43/1/1 38/1/1 37/1/1
f 44/1/1 38/1/1 43/1/1
f 45/1/1 42/1/1 41/1/1
f 46/1/1 42/1/1 45/1/1
f 47/2/1 44/2/1 43/2/1
f 48/2/1 46/2/1 45/2/1
f 49/2/1 47/2/1 43/2/1
f 50/2/1 47/2/1 49/2/1
f 51/2/1 46/2/1 48/2/1
f 52/2/1 46/2/1 51/2/1
f 57/2/1 54/2/1 53/2/1
f 58/2/1 54/2/1 57/2/1
f 59/2/1 56/2/1 55/2/1
f 60/2/1 56/2/1 59/2/1
f 67/2/1 62/2/1 61/2/1
f 68/1/1 63/1/1 62/1/1
f 68/2/1 62/2/1 67/2/1
f 69/2/1 64/2/1 63/2/1
f 69/1/1 63/1/1 68/1/1
f 70/1/1 65/1/1 64/1/1
f 70/2/1 64/2/1 69/2/1
f 71/2/1 66/2/1 65/2/1
f 71/1/1 65/1/1 70/1/1
f 72/2/1 66/2/1 71/2/1
f 73/1/1 68/1/1 67/1/1
f 74/2/1 69/2/1 68/2/1
f 74/1/1 68/1/1 73/1/1
f 75/1/1 70/1/1 69/1/1
f 75/2/1 69/2/1 74/2/1
f 76/2/1 71/2/1 70/2/1
f 76/1/1 70/1/1 75/1/1
f 77/1/1 72/1/1 71/1/1
f 77/2/1 71/2/1 76/2/1
f 78/1/1 72/1/1 77/1/1
f 79/2/1 74/2/1 73/2/1
f 79/2/1 75/2/1 74/2/1
f 79/2/1 78/2/1 77/2/1
f 79/2/1 77/2/1 76/2/1
f 79/2/1 76/2/1 75/2/1
f 80/2/1 78/2/1 79/2/1
f 81/1/2 82/1/2 83/1/2
f 83/1/2 82/1/2 84/1/2
f 85/1/2 86/1/2 87/1/2
f 87/1/2 86/1/2 88/1/2
f 89/2/2 90/2/2 95/2/2
f 90/1/2 91/1/2 96/1/2
f 95/2/2 90/2/2 96/2/2
f 91/2/2 92/2/2 97/2/2
f 96/1/2 91/1/2 97/1/2
f 92/1/2 93/1/2 98/1/2
f 97/2/2 92/2/2 98/2/2
f 93/2/2 94/2/2 99/2/2
f 98/1/2 93/1/2 99/1/2
f 99/2/2 94/2/2 100/2/2
f 95/1/2 96/1/2 101/1/2
f 96/2/2 97/2/2 102/2/2
f 101/1/2 96/1/2 102/1/2
f 97/1/2 98/1/2 103/1/2
f 102/2/2 97/2/2 103/2/2
f 98/2/2 99/2/2 104/2/2
f 103/1/2 98/1/2 104/1/2
f 99/1/2 100/1/2 105/1/2
f 104/2/2 99/2/2 105/2/2
f 105/1/2 100/1/2 106/1/2
f 101/2/2 102/2/2 107/2/2
f 102/2/2 103/2/2 107/2/2
f 105/2/2 106/2/2 107/2/2
f 104/2/2 105/2/2 107/2/2
f 103/2/2 104/2/2 107/2/2
f 107/2/2 106/2/2 108/2/2
f 109/2/2 110/2/2 113/2/2
f 113/2/2 110/2/2 114/2/2
f 111/2/2 112/2/2 115/2/2
f 115/2/2 112/2/2 116/2/2
f 117/2/2 118/2/2 122/2/2
f 122/2/2 118/2/2 123/2/2
f 119/2/2 120/2/2 124/2/2
f 124/2/2 120/2/2 125/2/2
f 121/1/2 122/1/2 127/1/2
f 127/1/2 122/1/2 128/1/2
f 125/1/2 126/1/2 129/1/2
f 129/1/2 126/1/2 130/1/2
f 127/2/2 128/2/2 131/2/2
f 129/2/2 130/2/2 132/2/2
f 127/2/2 131/2/2 133/2/2
f 133/2/2 131/2/2 134/2/2
f 132/2/2 130/2/2 135/2/2
f 135/2/2 130/2/2 136/2/2
f 137/2/2 138/2/2 140/2/2
f 140/2/2 138/2/2 141/2/2
f 141/2/2 138/2/2 142/2/2
f 142/2/2 138/2/2 143/2/2
f 139/2/2 140/2/2 145/2/2
f 140/1/2 141/1/2 146/1/2
f 145/2/2 140/2/2 146/2/2
f 141/2/2 142/2/2 147/2/2
f 146/1/2 141/1/2 147/1/2
f 142/1/2 143/1/2 148/1/2
f 147/2/2 142/2/2 148/2/2
f 143/2/2 144/2/2 149/2/2
f 148/1/2 143/1/2 149/1/2
f 149/2/2 144/2/2 150/2/2
f 145/1/2 146/1/2 151/1/2
f 146/2/2 147/2/2 152/2/2
f 151/1/2 146/1/2 152/1/2
f 147/1/2 148/1/2 153/1/2
f 152/2/2 147/2/2 153/2/2
f 148/2/2 149/2/2 154/2/2
f 153/1/2 148/1/2 154/1/2
f 149/1/2 150/1/2 155/1/2
f 154/2/2 149/2/2 155/2/2
f 155/1/2 150/1/2 156/1/2
f 151/2/2 152/2/2 157/2/2
f 152/2/2 153/2/2 157/2/2
f 155/2/2 156/2/2 157/2/2
f 154/2/2 155/2/2 157/2/2
f 153/2/2 154/2/2 157/2/2
f 157/2/2 156/2/2 158/2/2
f 163/1/3 160/1/3 159/1/3
f 164/2/3 161/2/3 160/2/3
f 164/1/3 160/1/3 163/1/3
f 165/2/3 161/2/3 164/2/3
f 166/2/3 163/2/3 162/2/3
f 166/2/3 164/2/3 163/2/3
f 167/2/3 164/2/3 166/2/3
f 168/1/3 165/1/3 164/1/3
f 168/2/3 164/2/3 167/2/3
f 169/2/3 161/2/3 165/2/3
f 169/1/3 165/1/3 168/1/3
f 170/1/3 168/1/3 167/1/3
f 171/2/3 169/2/3 168/2/3
f 171/1/3 168/1/3 170/1/3
f 172/2/3 161/2/3 169/2/3
f 172/2/3 169/2/3 171/2/3
f 178/2/3 174/2/3 173/2/3
f 179/1/3 175/1/3 174/1/3
f 179/2/3 174/2/3 178/2/3
f 180/2/3 176/2/3 175/2/3
f 180/1/3 175/1/3 179/1/3
f 181/2/3 176/2/3 180/2/3
f 182/2/3 178/2/3 177/2/3
f 183/2/3 178/2/3 182/2/3
f 186/2/3 185/2/3 184/2/3
f 187/2/3 185/2/3 186/2/3
f 191/2/3 188/2/3 187/2/3
f 192/1/3 189/1/3 188/1/3
f 192/2/3 188/2/3 191/2/3
f 193/2/3 190/2/3 189/2/3
f 193/1/3 189/1/3 192/1/3
f 194/2/3 190/2/3 193/2/3
f 197/1/3 196/1/3 195/1/3
f 198/1/3 196/1/3 197/1/3
f 202/1/3 199/1/3 198/1/3
f 203/1/3 199/1/3 202/1/3
f 204/2/3 201/2/3 200/2/3
f 205/2/3 201/2/3 204/2/3
f 208/2/3 207/2/3 206/2/3
f 209/2/3 207/2/3 208/2/3
f 214/1/3 211/1/3 210/1/3
f 215/2/3 213/2/3 212/2/3
f 215/1/3 211/1/3 214/1/3
f 215/2/3 212/2/3 211/2/3
f 216/2/3 213/2/3 215/2/3
f 217/2/3 215/2/3 214/2/3
f 218/1/3 216/1/3 215/1/3
f 218/2/3 215/2/3 217/2/3
f 219/2/3 213/2/3 216/2/3
f 219/1/3 216/1/3 218/1/3
f 220/1/3 218/1/3 217/1/3
f 221/2/3 219/2/3 218/2/3
f 221/1/3 218/1/3 220/1/3
f 222/2/3 213/2/3 219/2/3
f 222/2/3 219/2/3 221/2/3
f 223/2/3 213/2/3 222/2/3
f 224/1/4 225/1/4 228/1/4
f 226/2/4 227/2/4 229/2/4
f 228/1/4 225/1/4 229/1/4
f 225/2/4 226/2/4 229/2/4
f 229/2/4 227/2/4 230/2/4
f 228/2/4 229/2/4 231/2/4
f 229/1/4 230/1/4 232/1/4
f 231/2/4 229/2/4 232/2/4
f 230/2/4 227/2/4 233/2/4
f 232/1/4 230/1/4 233/1/4
f 231/1/4 232/1/4 234/1/4
f 232/2/4 233/2/4 235/2/4
f 234/1/4 232/1/4 235/1/4
f 233/2/4 227/2/4 236/2/4
f 235/2/4 233/2/4 236/2/4
f 236/2/4 227/2/4 237/2/4
f 238/1/4 239/1/4 240/1/4
f 240/1/4 239/1/4 241/1/4
f 241/1/4 242/1/4 245/1/4
f 245/1/4 242/1/4 246/1/4
f 243/2/4 244/2/4 247/2/4
f 247/2/4 244/2/4 248/2/4
f 249/2/4 250/2/4 251/2/4
f 251/2/4 250/2/4 252/2/4
f 253/2/4 254/2/4 258/2/4
f 254/1/4 255/1/4 259/1/4
f 258/2/4 254/2/4 259/2/4
f 255/2/4 256/2/4 260/2/4
f 259/1/4 255/1/4 260/1/4
f 260/2/4 256/2/4 261/2/4
f 257/2/4 258/2/4 262/2/4
f 262/2/4 258/2/4 263/2/4
f 264/2/4 265/2/4 266/2/4
f 266/2/4 265/2/4 267/2/4
f 267/2/4 268/2/4 271/2/4
f 268/1/4 269/1/4 272/1/4
f 271/2/4 268/2/4 272/2/4
f 269/2/4 270/2/4 273/2/4
f 272/1/4 269/1/4 273/1/4
f 273/2/4 270/2/4 274/2/4
f 275/1/4 276/1/4 279/1/4
f 276/2/4 277/2/4 280/2/4
f 279/1/4 276/1/4 280/1/4
f 280/2/4 277/2/4 281/2/4
f 278/2/4 279/2/4 282/2/4
f 279/2/4 280/2/4 282/2/4
f 282/2/4 280/2/4 283/2/4
f 280/1/4 281/1/4 284/1/4
f 283/2/4 280/2/4 284/2/4
f 281/2/4 277/2/4 285/2/4
f 284/1/4 281/1/4 285/1/4
f 283/1/4 284/1/4 286/1/4
f 284/2/4 285/2/4 287/2/4
f 286/1/4 284/1/4 287/1/4
f 285/2/4 277/2/4 288/2/4
f 287/2/4 285/2/4 288/2/4
f 292/2/5 290/2/5 289/2/5
f 293/2/5 290/2/5 292/2/5
f 296/2/5 292/2/5 291/2/5
f 296/2/5 294/2/5 293/2/5
f 296/2/5 293/2/5 292/2/5
f 297/2/5 294/2/5 296/2/5
f 299/2/5 296/2/5 295/2/5
f 299/2/5 298/2/5 297/2/5
f 299/2/5 297/2/5 296/2/5
f 300/2/5 298/2/5 299/2/5
f 301/2/5 298/2/5 300/2/5
f 302/2/5 298/2/5 301/2/5
f 303/2/5 301/2/5 300/2/5
f 304/2/5 301/2/5 303/2/5
f 305/2/5 301/2/5 304/2/5
f 306/2/5 301/2/5 305/2/5
f 307/2/5 305/2/5 304/2/5
f 308/2/5 305/2/5 307/2/5
f 314/1/5 310/1/5 309/1/5
f 315/1/5 310/1/5 314/1/5
f 316/1/5 312/1/5 311/1/5
f 317/1/5 312/1/5 316/1/5
f 319/2/5 314/2/5 313/2/5
f 320/2/5 314/2/5 319/2/5
f 321/2/5 318/2/5 317/2/5
f 322/2/5 318/2/5 321/2/5
f 327/2/5 324/2/5 323/2/5
f 328/2/5 324/2/5 327/2/5
f 331/2/5 326/2/5 325/2/5
f 332/2/5 326/2/5 331/2/5
f 333/1/5 329/1/5 328/1/5
f 334/1/5 329/1/5 333/1/5
f 335/1/5 331/1/5 330/1/5
f 336/1/5 331/1/5 335/1/5
f 339/1/5 338/1/5 337/1/5
f 340/1/5 338/1/5 339/1/5
f 343/1/5 342/1/5 341/1/5
f 344/1/5 342/1/5 343/1/5
f 345/2/6 346/2/6 349/2/6
f 347/2/6 348/2/6 349/2/6
f 346/2/6 347/2/6 349/2/6
f 349/2/6 348/2/6 350/2/6
f 349/2/6 350/2/6 351/2/6
f 351/2/6 350/2/6 352/2/6
f 351/2/6 352/2/6 353/2/6
f 353/2/6 352/2/6 354/2/6
f 353/2/6 354/2/6 355/2/6
f 355/2/6 354/2/6 356/2/6
f 355/2/6 356/2/6 357/2/6
f 357/2/6 356/2/6 358/2/6
f 358/2/6 356/2/6 359/2/6
f 359/2/6 356/2/6 360/2/6
f 361/2/6 362/2/6 364/2/6
f 364/2/6 362/2/6 365/2/6
f 363/2/6 364/2/6 369/2/6
f 367/1/6 368/1/6 370/1/6
f 370/1/6 368/1/6 371/1/6
f 369/2/6 364/2/6 372/2/6
f 372/2/6 364/2/6 373/2/6
f 373/2/6 364/2/6 374/2/6
f 365/2/6 366/2/6 375/2/6
f 375/2/6 366/2/6 376/2/6
f 374/2/6 375/2/6 377/2/6
f 377/2/6 375/2/6 378/2/6
f 379/1/6 380/1/6 381/1/6
f 381/1/6 380/1/6 382/1/6
